<?xml version="1.0" encoding="UTF-8" standalone="no"?>
<!DOCTYPE svg PUBLIC "-//W3C//DTD SVG 1.1//EN"
 "http://www.w3.org/Graphics/SVG/1.1/DTD/svg11.dtd">
<!-- Generated by graphviz version 2.43.0 (0)
 -->
<!-- Title: P4::DoRemoveAssertAssume Pages: 1 -->
<svg width="404pt" height="233pt"
 viewBox="0.00 0.00 404.00 233.00" xmlns="http://www.w3.org/2000/svg" xmlns:xlink="http://www.w3.org/1999/xlink">
<g id="graph0" class="graph" transform="scale(1 1) rotate(0) translate(4 229)">
<title>P4::DoRemoveAssertAssume</title>
<polygon fill="white" stroke="transparent" points="-4,4 -4,-229 400,-229 400,4 -4,4"/>
<!-- Node1 -->
<g id="node1" class="node">
<title>Node1</title>
<g id="a_node1"><a xlink:title=" ">
<polygon fill="#bfbfbf" stroke="black" points="0,-0.5 0,-19.5 158,-19.5 158,-0.5 0,-0.5"/>
<text text-anchor="middle" x="79" y="-7.5" font-family="Helvetica,sans-Serif" font-size="10.00">P4::DoRemoveAssertAssume</text>
</a>
</g>
</g>
<!-- Node2 -->
<g id="node2" class="node">
<title>Node2</title>
<g id="a_node2"><a xlink:href="class_transform.html" target="_top" xlink:title=" ">
<polygon fill="white" stroke="black" points="46.5,-68.5 46.5,-87.5 111.5,-87.5 111.5,-68.5 46.5,-68.5"/>
<text text-anchor="middle" x="79" y="-75.5" font-family="Helvetica,sans-Serif" font-size="10.00">Transform</text>
</a>
</g>
</g>
<!-- Node2&#45;&gt;Node1 -->
<g id="edge1" class="edge">
<title>Node2&#45;&gt;Node1</title>
<path fill="none" stroke="midnightblue" d="M79,-58.04C79,-45.47 79,-29.56 79,-19.84"/>
<polygon fill="midnightblue" stroke="midnightblue" points="75.5,-58.37 79,-68.37 82.5,-58.37 75.5,-58.37"/>
</g>
<!-- Node3 -->
<g id="node3" class="node">
<title>Node3</title>
<g id="a_node3"><a xlink:href="class_visitor.html" target="_top" xlink:title=" ">
<polygon fill="white" stroke="black" points="156,-136.5 156,-155.5 204,-155.5 204,-136.5 156,-136.5"/>
<text text-anchor="middle" x="180" y="-143.5" font-family="Helvetica,sans-Serif" font-size="10.00">Visitor</text>
</a>
</g>
</g>
<!-- Node3&#45;&gt;Node2 -->
<g id="edge2" class="edge">
<title>Node3&#45;&gt;Node2</title>
<path fill="none" stroke="midnightblue" d="M155.41,-131.09C148.42,-127 140.84,-122.42 134,-118 118.66,-108.09 101.59,-95.77 90.6,-87.67"/>
<polygon fill="midnightblue" stroke="midnightblue" points="154.06,-134.35 164.47,-136.33 157.56,-128.29 154.06,-134.35"/>
</g>
<!-- Node3&#45;&gt;Node3 -->
<g id="edge10" class="edge">
<title>Node3&#45;&gt;Node3</title>
<path fill="none" stroke="#9a32cd" stroke-dasharray="5,2" d="M214.42,-151.29C218.98,-150.39 222,-148.63 222,-146 222,-141.69 213.86,-139.7 204.17,-140.04"/>
<polygon fill="#9a32cd" stroke="#9a32cd" points="213.92,-147.82 204.17,-151.96 214.38,-154.8 213.92,-147.82"/>
<text text-anchor="middle" x="247" y="-143.5" font-family="Helvetica,sans-Serif" font-size="10.00"> called_by</text>
</g>
<!-- Node5 -->
<g id="node5" class="node">
<title>Node5</title>
<g id="a_node5"><a xlink:href="class_split_flow_visit__base.html" target="_top" xlink:title=" ">
<polygon fill="white" stroke="black" points="186,-0.5 186,-19.5 298,-19.5 298,-0.5 186,-0.5"/>
<text text-anchor="middle" x="242" y="-7.5" font-family="Helvetica,sans-Serif" font-size="10.00">SplitFlowVisit_base</text>
</a>
</g>
</g>
<!-- Node3&#45;&gt;Node5 -->
<g id="edge9" class="edge">
<title>Node3&#45;&gt;Node5</title>
<path fill="none" stroke="#9a32cd" stroke-dasharray="5,2" d="M167.66,-127.83C157.54,-111.48 146.48,-86.53 157,-67 169.74,-43.35 197.32,-28.04 217.62,-19.51"/>
<polygon fill="#9a32cd" stroke="#9a32cd" points="164.88,-129.97 173.33,-136.36 170.7,-126.1 164.88,-129.97"/>
<text text-anchor="middle" x="162" y="-75.5" font-family="Helvetica,sans-Serif" font-size="10.00"> v</text>
</g>
<!-- Node6 -->
<g id="node6" class="node">
<title>Node6</title>
<g id="a_node6"><a xlink:title=" ">
<polygon fill="white" stroke="#bfbfbf" points="176.5,-68.5 176.5,-87.5 307.5,-87.5 307.5,-68.5 176.5,-68.5"/>
<text text-anchor="middle" x="242" y="-75.5" font-family="Helvetica,sans-Serif" font-size="10.00">std::vector&lt; Visitor * &gt;</text>
</a>
</g>
</g>
<!-- Node3&#45;&gt;Node6 -->
<g id="edge8" class="edge">
<title>Node3&#45;&gt;Node6</title>
<path fill="none" stroke="#9a32cd" stroke-dasharray="5,2" d="M194.99,-129.05C207.14,-116.11 223.82,-98.36 233.69,-87.84"/>
<polygon fill="#9a32cd" stroke="#9a32cd" points="192.4,-126.69 188.11,-136.37 197.5,-131.48 192.4,-126.69"/>
<text text-anchor="middle" x="239.5" y="-110" font-family="Helvetica,sans-Serif" font-size="10.00"> elements</text>
</g>
<!-- Node4 -->
<g id="node4" class="node">
<title>Node4</title>
<g id="a_node4"><a xlink:href="classcstring.html" target="_top" xlink:title=" ">
<polygon fill="white" stroke="black" points="155,-204.5 155,-223.5 205,-223.5 205,-204.5 155,-204.5"/>
<text text-anchor="middle" x="180" y="-211.5" font-family="Helvetica,sans-Serif" font-size="10.00">cstring</text>
</a>
</g>
</g>
<!-- Node4&#45;&gt;Node3 -->
<g id="edge3" class="edge">
<title>Node4&#45;&gt;Node3</title>
<path fill="none" stroke="#9a32cd" stroke-dasharray="5,2" d="M180,-194.04C180,-181.47 180,-165.56 180,-155.84"/>
<polygon fill="#9a32cd" stroke="#9a32cd" points="176.5,-194.37 180,-204.37 183.5,-194.37 176.5,-194.37"/>
<text text-anchor="middle" x="215" y="-177" font-family="Helvetica,sans-Serif" font-size="10.00"> internalName</text>
</g>
<!-- Node4&#45;&gt;Node4 -->
<g id="edge4" class="edge">
<title>Node4&#45;&gt;Node4</title>
<path fill="none" stroke="#9a32cd" stroke-dasharray="5,2" d="M215.45,-219.58C220,-218.61 223,-216.75 223,-214 223,-209.48 214.91,-207.37 205.18,-207.65"/>
<polygon fill="#9a32cd" stroke="#9a32cd" points="214.89,-216.11 205.18,-220.35 215.41,-223.1 214.89,-216.11"/>
<text text-anchor="middle" x="242.5" y="-217" font-family="Helvetica,sans-Serif" font-size="10.00"> empty</text>
<text text-anchor="middle" x="242.5" y="-206" font-family="Helvetica,sans-Serif" font-size="10.00">newline</text>
</g>
<!-- Node5&#45;&gt;Node3 -->
<g id="edge5" class="edge">
<title>Node5&#45;&gt;Node3</title>
<path fill="none" stroke="#9a32cd" stroke-dasharray="5,2" d="M271.05,-24.16C298.07,-38.38 332.07,-62.58 317,-89 294.35,-128.73 236.96,-140.29 204.1,-143.64"/>
<polygon fill="#9a32cd" stroke="#9a32cd" points="272.38,-20.91 261.88,-19.56 269.25,-27.17 272.38,-20.91"/>
<text text-anchor="middle" x="358" y="-81" font-family="Helvetica,sans-Serif" font-size="10.00"> split_link</text>
<text text-anchor="middle" x="358" y="-70" font-family="Helvetica,sans-Serif" font-size="10.00">split_link_mem</text>
</g>
<!-- Node5&#45;&gt;Node5 -->
<g id="edge6" class="edge">
<title>Node5&#45;&gt;Node5</title>
<path fill="none" stroke="#9a32cd" stroke-dasharray="5,2" d="M308.4,-14.4C313.12,-13.4 316,-11.93 316,-10 316,-6.91 308.62,-5.01 298.15,-4.31"/>
<polygon fill="#9a32cd" stroke="#9a32cd" points="307.63,-10.97 298.15,-15.69 308.51,-17.91 307.63,-10.97"/>
<text text-anchor="middle" x="328.5" y="-7.5" font-family="Helvetica,sans-Serif" font-size="10.00"> prev</text>
</g>
<!-- Node6&#45;&gt;Node5 -->
<g id="edge7" class="edge">
<title>Node6&#45;&gt;Node5</title>
<path fill="none" stroke="#9a32cd" stroke-dasharray="5,2" d="M242,-58.04C242,-45.47 242,-29.56 242,-19.84"/>
<polygon fill="#9a32cd" stroke="#9a32cd" points="238.5,-58.37 242,-68.37 245.5,-58.37 238.5,-58.37"/>
<text text-anchor="middle" x="262" y="-41" font-family="Helvetica,sans-Serif" font-size="10.00"> visitors</text>
</g>
</g>
</svg>
