<?xml version="1.0" encoding="UTF-8" standalone="no"?>
<!DOCTYPE svg PUBLIC "-//W3C//DTD SVG 1.1//EN"
 "http://www.w3.org/Graphics/SVG/1.1/DTD/svg11.dtd">
<!-- Generated by graphviz version 2.43.0 (0)
 -->
<!-- Title: P4::ParserStructure Pages: 1 -->
<!--zoomable 187 -->
<svg id="main" version="1.1" xmlns="http://www.w3.org/2000/svg" xmlns:xlink="http://www.w3.org/1999/xlink" xml:space="preserve" onload="init(evt)">
<style type="text/css"><![CDATA[
.edge:hover path { stroke: red; }
.edge:hover polygon { stroke: red; fill: red; }
]]></style>
<script type="text/javascript"><![CDATA[
var edges = document.getElementsByTagName('g');
if (edges && edges.length) {
  for (var i=0;i<edges.length;i++) {
    if (edges[i].id.substr(0,4)=='edge') {
      edges[i].setAttribute('class','edge');
    }
  }
}
]]></script>
        <defs>
                <circle id="rim" cx="0" cy="0" r="7"/>
                <circle id="rim2" cx="0" cy="0" r="3.5"/>
                <g id="zoomPlus">
                        <use xlink:href="#rim" fill="#404040">
                                <set attributeName="fill" to="#808080" begin="zoomplus.mouseover" end="zoomplus.mouseout"/>
                        </use>
                        <path d="M-4,0h8M0,-4v8" fill="none" stroke="white" stroke-width="1.5" pointer-events="none"/>
                </g>
                <g id="zoomMin">
                        <use xlink:href="#rim" fill="#404040">
                                <set attributeName="fill" to="#808080" begin="zoomminus.mouseover" end="zoomminus.mouseout"/>
                        </use>
                        <path d="M-4,0h8" fill="none" stroke="white" stroke-width="1.5" pointer-events="none"/>
                </g>
                <g id="dirArrow">
                        <path fill="none" stroke="white" stroke-width="1.5" d="M0,-3.0v7 M-2.5,-0.5L0,-3.0L2.5,-0.5"/>
                </g>
               <g id="resetDef">
                       <use xlink:href="#rim2" fill="#404040">
                               <set attributeName="fill" to="#808080" begin="reset.mouseover" end="reset.mouseout"/>
                       </use>
               </g>
        </defs>

<script type="text/javascript">
var viewWidth = 859;
var viewHeight = 187;
var sectionId = 'dynsection-0';
</script>
<script xlink:href="svgpan.js"/>
<svg id="graph" class="graph">
<g id="viewport">
<title>P4::ParserStructure</title>
<polygon fill="white" stroke="transparent" points="-4,4 -4,-182.5 855,-182.5 855,4 -4,4"/>
<!-- Node1 -->
<g id="node1" class="node">
<title>Node1</title>
<g id="a_node1"><a xlink:title="Information about a parser in the input program.">
<polygon fill="#bfbfbf" stroke="black" points="742,-68.5 742,-87.5 851,-87.5 851,-68.5 742,-68.5"/>
<text text-anchor="middle" x="796.5" y="-75.5" font-family="Helvetica,sans-Serif" font-size="10.00">P4::ParserStructure</text>
</a>
</g>
</g>
<!-- Node2 -->
<g id="node2" class="node">
<title>Node2</title>
<g id="a_node2"><a xlink:title=" ">
<polygon fill="white" stroke="#bfbfbf" points="460,-86 460,-116 582,-116 582,-86 460,-86"/>
<text text-anchor="start" x="468" y="-104" font-family="Helvetica,sans-Serif" font-size="10.00">std::map&lt; cstring,</text>
<text text-anchor="middle" x="521" y="-93" font-family="Helvetica,sans-Serif" font-size="10.00"> std::set&lt; cstring &gt; &gt;</text>
</a>
</g>
</g>
<!-- Node2&#45;&gt;Node1 -->
<g id="edge1" class="edge">
<title>Node2&#45;&gt;Node1</title>
<path fill="none" stroke="#9a32cd" stroke-dasharray="5,2" d="M592.04,-95.11C638.6,-91.19 698.83,-86.13 741.64,-82.53"/>
<polygon fill="#9a32cd" stroke="#9a32cd" points="591.69,-91.63 582.02,-95.95 592.28,-98.6 591.69,-91.63"/>
<text text-anchor="middle" x="662" y="-97" font-family="Helvetica,sans-Serif" font-size="10.00"> statesWithHeaderStacks</text>
</g>
<!-- Node3 -->
<g id="node3" class="node">
<title>Node3</title>
<g id="a_node3"><a xlink:href="classcstring.html" target="_top" xlink:title=" ">
<polygon fill="white" stroke="black" points="34.5,-105.5 34.5,-124.5 84.5,-124.5 84.5,-105.5 34.5,-105.5"/>
<text text-anchor="middle" x="59.5" y="-112.5" font-family="Helvetica,sans-Serif" font-size="10.00">cstring</text>
</a>
</g>
</g>
<!-- Node3&#45;&gt;Node2 -->
<g id="edge2" class="edge">
<title>Node3&#45;&gt;Node2</title>
<path fill="none" stroke="#9a32cd" stroke-dasharray="5,2" d="M95,-115.5C161.98,-116.24 314.23,-116.8 442,-109 447.84,-108.64 453.92,-108.18 460,-107.66"/>
<polygon fill="#9a32cd" stroke="#9a32cd" points="94.67,-112 84.63,-115.38 94.59,-119 94.67,-112"/>
<text text-anchor="middle" x="261.5" y="-118" font-family="Helvetica,sans-Serif" font-size="10.00"> keys</text>
</g>
<!-- Node3&#45;&gt;Node3 -->
<g id="edge3" class="edge">
<title>Node3&#45;&gt;Node3</title>
<path fill="none" stroke="#9a32cd" stroke-dasharray="5,2" d="M40.61,-134.4C41.87,-139.31 48.17,-143 59.5,-143 77.63,-143 82.87,-133.57 75.22,-124.76"/>
<polygon fill="#9a32cd" stroke="#9a32cd" points="43.98,-135.35 43.78,-124.76 37.33,-133.17 43.98,-135.35"/>
<text text-anchor="middle" x="59.5" y="-157" font-family="Helvetica,sans-Serif" font-size="10.00"> empty</text>
<text text-anchor="middle" x="59.5" y="-146" font-family="Helvetica,sans-Serif" font-size="10.00">newline</text>
</g>
<!-- Node4 -->
<g id="node4" class="node">
<title>Node4</title>
<g id="a_node4"><a xlink:title=" ">
<polygon fill="white" stroke="#bfbfbf" points="207.5,-72.5 207.5,-91.5 315.5,-91.5 315.5,-72.5 207.5,-72.5"/>
<text text-anchor="middle" x="261.5" y="-79.5" font-family="Helvetica,sans-Serif" font-size="10.00">std::set&lt; cstring &gt;</text>
</a>
</g>
</g>
<!-- Node3&#45;&gt;Node4 -->
<g id="edge5" class="edge">
<title>Node3&#45;&gt;Node4</title>
<path fill="none" stroke="#9a32cd" stroke-dasharray="5,2" d="M94.49,-109.39C125.43,-104.29 171.58,-96.67 207.38,-90.76"/>
<polygon fill="#9a32cd" stroke="#9a32cd" points="93.92,-105.94 84.62,-111.02 95.06,-112.84 93.92,-105.94"/>
<text text-anchor="middle" x="162.5" y="-104" font-family="Helvetica,sans-Serif" font-size="10.00"> keys</text>
</g>
<!-- Node5 -->
<g id="node5" class="node">
<title>Node5</title>
<g id="a_node5"><a xlink:href="class_p4_1_1_call_graph.html" target="_top" xlink:title=" ">
<polygon fill="white" stroke="black" points="206,-34.5 206,-53.5 317,-53.5 317,-34.5 206,-34.5"/>
<text text-anchor="middle" x="261.5" y="-41.5" font-family="Helvetica,sans-Serif" font-size="10.00">P4::CallGraph&lt; T &gt;</text>
</a>
</g>
</g>
<!-- Node3&#45;&gt;Node5 -->
<g id="edge7" class="edge">
<title>Node3&#45;&gt;Node5</title>
<path fill="none" stroke="#9a32cd" stroke-dasharray="5,2" d="M87.98,-100.73C102.35,-93.61 120.36,-85.23 137,-79 164.34,-68.77 196.04,-59.85 220.48,-53.57"/>
<polygon fill="#9a32cd" stroke="#9a32cd" points="86.05,-97.79 78.69,-105.41 89.19,-104.04 86.05,-97.79"/>
<text text-anchor="middle" x="162.5" y="-82" font-family="Helvetica,sans-Serif" font-size="10.00"> name</text>
</g>
<!-- Node8 -->
<g id="node8" class="node">
<title>Node8</title>
<g id="a_node8"><a xlink:title=" ">
<polygon fill="white" stroke="#bfbfbf" points="335,-148 335,-178 442,-178 442,-148 335,-148"/>
<text text-anchor="start" x="343" y="-166" font-family="Helvetica,sans-Serif" font-size="10.00">std::map&lt; cstring,</text>
<text text-anchor="middle" x="388.5" y="-155" font-family="Helvetica,sans-Serif" font-size="10.00"> size_t &gt;</text>
</a>
</g>
</g>
<!-- Node3&#45;&gt;Node8 -->
<g id="edge11" class="edge">
<title>Node3&#45;&gt;Node8</title>
<path fill="none" stroke="#9a32cd" stroke-dasharray="5,2" d="M92.19,-128.23C105.76,-133.36 121.93,-138.76 137,-142 204.21,-156.43 283.53,-161.05 334.63,-162.47"/>
<polygon fill="#9a32cd" stroke="#9a32cd" points="93.41,-124.95 82.82,-124.59 90.87,-131.48 93.41,-124.95"/>
<text text-anchor="middle" x="162.5" y="-153" font-family="Helvetica,sans-Serif" font-size="10.00"> keys</text>
</g>
<!-- Node4&#45;&gt;Node2 -->
<g id="edge4" class="edge">
<title>Node4&#45;&gt;Node2</title>
<path fill="none" stroke="#9a32cd" stroke-dasharray="5,2" d="M325.67,-86.66C366.57,-89.68 419.51,-93.59 459.81,-96.56"/>
<polygon fill="#9a32cd" stroke="#9a32cd" points="325.77,-83.16 315.54,-85.91 325.26,-90.14 325.77,-83.16"/>
<text text-anchor="middle" x="388.5" y="-97" font-family="Helvetica,sans-Serif" font-size="10.00"> elements</text>
</g>
<!-- Node5&#45;&gt;Node1 -->
<g id="edge6" class="edge">
<title>Node5&#45;&gt;Node1</title>
<path fill="none" stroke="#9a32cd" stroke-dasharray="5,2" d="M327.31,-48.13C433.66,-54.92 643.24,-68.29 741.83,-74.58"/>
<polygon fill="#9a32cd" stroke="#9a32cd" points="327.24,-44.62 317.04,-47.48 326.79,-51.61 327.24,-44.62"/>
<text text-anchor="middle" x="521" y="-68" font-family="Helvetica,sans-Serif" font-size="10.00"> callGraph</text>
</g>
<!-- Node6 -->
<g id="node6" class="node">
<title>Node6</title>
<g id="a_node6"><a xlink:href="classordered__map.html" target="_top" xlink:title=" ">
<polygon fill="white" stroke="black" points="0,-8 0,-38 119,-38 119,-8 0,-8"/>
<text text-anchor="start" x="8" y="-26" font-family="Helvetica,sans-Serif" font-size="10.00">ordered_map&lt; T, std</text>
<text text-anchor="middle" x="59.5" y="-15" font-family="Helvetica,sans-Serif" font-size="10.00">::vector&lt; T &gt; * &gt;</text>
</a>
</g>
</g>
<!-- Node6&#45;&gt;Node5 -->
<g id="edge8" class="edge">
<title>Node6&#45;&gt;Node5</title>
<path fill="none" stroke="#9a32cd" stroke-dasharray="5,2" d="M129.25,-20.26C148.35,-20.39 169.04,-21.36 188,-24 203,-26.09 219.29,-30.39 232.63,-34.47"/>
<polygon fill="#9a32cd" stroke="#9a32cd" points="129.13,-16.76 119.13,-20.27 129.13,-23.76 129.13,-16.76"/>
<text text-anchor="middle" x="162.5" y="-38" font-family="Helvetica,sans-Serif" font-size="10.00"> in_edges</text>
<text text-anchor="middle" x="162.5" y="-27" font-family="Helvetica,sans-Serif" font-size="10.00">out_edges</text>
</g>
<!-- Node7 -->
<g id="node7" class="node">
<title>Node7</title>
<g id="a_node7"><a xlink:href="class_p4_1_1_parser_info.html" target="_top" xlink:title="Information produced for a parser by the symbolic evaluator.">
<polygon fill="white" stroke="black" points="479.5,-0.5 479.5,-19.5 562.5,-19.5 562.5,-0.5 479.5,-0.5"/>
<text text-anchor="middle" x="521" y="-7.5" font-family="Helvetica,sans-Serif" font-size="10.00">P4::ParserInfo</text>
</a>
</g>
</g>
<!-- Node7&#45;&gt;Node1 -->
<g id="edge9" class="edge">
<title>Node7&#45;&gt;Node1</title>
<path fill="none" stroke="#9a32cd" stroke-dasharray="5,2" d="M572.92,-8.7C614.67,-9.17 674.71,-13.42 724,-31 747.51,-39.38 770.95,-57 784.3,-68.13"/>
<polygon fill="#9a32cd" stroke="#9a32cd" points="572.73,-5.2 562.72,-8.65 572.7,-12.2 572.73,-5.2"/>
<text text-anchor="middle" x="662" y="-34" font-family="Helvetica,sans-Serif" font-size="10.00"> result</text>
</g>
<!-- Node8&#45;&gt;Node1 -->
<g id="edge10" class="edge">
<title>Node8&#45;&gt;Node1</title>
<path fill="none" stroke="#9a32cd" stroke-dasharray="5,2" d="M452.38,-157.56C520.39,-150.6 631.5,-136.06 724,-109 742.57,-103.57 762.7,-94.53 776.86,-87.61"/>
<polygon fill="#9a32cd" stroke="#9a32cd" points="451.85,-154.1 442.25,-158.58 452.55,-161.06 451.85,-154.1"/>
<text text-anchor="middle" x="521" y="-159" font-family="Helvetica,sans-Serif" font-size="10.00"> callsIndexes</text>
</g>
</g>
</svg>
        <g id="navigator" transform="translate(0 0)" fill="#404254">
                <rect fill="#f2f5e9" fill-opacity="0.5" stroke="#606060" stroke-width=".5" x="0" y="0" width="60" height="60"/>
                <use id="zoomplus" xlink:href="#zoomPlus" x="17" y="9" onmousedown="handleZoom(evt,'in')"/>
                <use id="zoomminus" xlink:href="#zoomMin" x="42" y="9" onmousedown="handleZoom(evt,'out')"/>
                <use id="reset" xlink:href="#resetDef" x="30" y="36" onmousedown="handleReset()"/>
                <g id="arrowUp" xlink:href="#dirArrow" transform="translate(30 24)" onmousedown="handlePan(0,-1)">
                  <use xlink:href="#rim" fill="#404040">
                        <set attributeName="fill" to="#808080" begin="arrowUp.mouseover" end="arrowUp.mouseout"/>
                  </use>
                  <path fill="none" stroke="white" stroke-width="1.5" d="M0,-3.0v7 M-2.5,-0.5L0,-3.0L2.5,-0.5"/>
                </g>
                <g id="arrowRight" xlink:href="#dirArrow" transform="rotate(90) translate(36 -43)" onmousedown="handlePan(1,0)">
                  <use xlink:href="#rim" fill="#404040">
                        <set attributeName="fill" to="#808080" begin="arrowRight.mouseover" end="arrowRight.mouseout"/>
                  </use>
                  <path fill="none" stroke="white" stroke-width="1.5" d="M0,-3.0v7 M-2.5,-0.5L0,-3.0L2.5,-0.5"/>
                </g>
                <g id="arrowDown" xlink:href="#dirArrow" transform="rotate(180) translate(-30 -48)" onmousedown="handlePan(0,1)">
                  <use xlink:href="#rim" fill="#404040">
                        <set attributeName="fill" to="#808080" begin="arrowDown.mouseover" end="arrowDown.mouseout"/>
                  </use>
                  <path fill="none" stroke="white" stroke-width="1.5" d="M0,-3.0v7 M-2.5,-0.5L0,-3.0L2.5,-0.5"/>
                </g>
                <g id="arrowLeft" xlink:href="#dirArrow" transform="rotate(270) translate(-36 17)" onmousedown="handlePan(-1,0)">
                  <use xlink:href="#rim" fill="#404040">
                        <set attributeName="fill" to="#808080" begin="arrowLeft.mouseover" end="arrowLeft.mouseout"/>
                  </use>
                  <path fill="none" stroke="white" stroke-width="1.5" d="M0,-3.0v7 M-2.5,-0.5L0,-3.0L2.5,-0.5"/>
                </g>
        </g>
        <svg viewBox="0 0 15 15" width="100%" height="30px" preserveAspectRatio="xMaxYMin meet">
         <g id="arrow_out" transform="scale(0.3 0.3)">
          <a xlink:href="class_p4_1_1_parser_structure__coll__graph_org.svg" target="_base">
           <rect id="button" ry="5" rx="5" y="6" x="6" height="38" width="38"
                fill="#f2f5e9" fill-opacity="0.5" stroke="#606060" stroke-width="1.0"/>
           <path id="arrow"
             d="M 11.500037,31.436501 C 11.940474,20.09759 22.043105,11.32322 32.158766,21.979434 L 37.068811,17.246167 C 37.068811,17.246167 37.088388,32 37.088388,32 L 22.160133,31.978069 C 22.160133,31.978069 26.997745,27.140456 26.997745,27.140456 C 18.528582,18.264221 13.291696,25.230495 11.500037,31.436501 z"
             style="fill:#404040;"/>
          </a>
         </g>
        </svg>
</svg>
