<?xml version="1.0" encoding="UTF-8" standalone="no"?>
<!DOCTYPE svg PUBLIC "-//W3C//DTD SVG 1.1//EN"
 "http://www.w3.org/Graphics/SVG/1.1/DTD/svg11.dtd">
<!-- Generated by graphviz version 2.43.0 (0)
 -->
<!-- Title: P4::P4ParserDriver Pages: 1 -->
<!--zoomable 424 -->
<svg id="main" version="1.1" xmlns="http://www.w3.org/2000/svg" xmlns:xlink="http://www.w3.org/1999/xlink" xml:space="preserve" onload="init(evt)">
<style type="text/css"><![CDATA[
.edge:hover path { stroke: red; }
.edge:hover polygon { stroke: red; fill: red; }
]]></style>
<script type="text/javascript"><![CDATA[
var edges = document.getElementsByTagName('g');
if (edges && edges.length) {
  for (var i=0;i<edges.length;i++) {
    if (edges[i].id.substr(0,4)=='edge') {
      edges[i].setAttribute('class','edge');
    }
  }
}
]]></script>
        <defs>
                <circle id="rim" cx="0" cy="0" r="7"/>
                <circle id="rim2" cx="0" cy="0" r="3.5"/>
                <g id="zoomPlus">
                        <use xlink:href="#rim" fill="#404040">
                                <set attributeName="fill" to="#808080" begin="zoomplus.mouseover" end="zoomplus.mouseout"/>
                        </use>
                        <path d="M-4,0h8M0,-4v8" fill="none" stroke="white" stroke-width="1.5" pointer-events="none"/>
                </g>
                <g id="zoomMin">
                        <use xlink:href="#rim" fill="#404040">
                                <set attributeName="fill" to="#808080" begin="zoomminus.mouseover" end="zoomminus.mouseout"/>
                        </use>
                        <path d="M-4,0h8" fill="none" stroke="white" stroke-width="1.5" pointer-events="none"/>
                </g>
                <g id="dirArrow">
                        <path fill="none" stroke="white" stroke-width="1.5" d="M0,-3.0v7 M-2.5,-0.5L0,-3.0L2.5,-0.5"/>
                </g>
               <g id="resetDef">
                       <use xlink:href="#rim2" fill="#404040">
                               <set attributeName="fill" to="#808080" begin="reset.mouseover" end="reset.mouseout"/>
                       </use>
               </g>
        </defs>

<script type="text/javascript">
var viewWidth = 597;
var viewHeight = 424;
var sectionId = 'dynsection-1';
</script>
<script xlink:href="svgpan.js"/>
<svg id="graph" class="graph">
<g id="viewport">
<title>P4::P4ParserDriver</title>
<polygon fill="white" stroke="transparent" points="-4,4 -4,-420 593,-420 593,4 -4,4"/>
<!-- Node1 -->
<g id="node1" class="node">
<title>Node1</title>
<g id="a_node1"><a xlink:title="A ParserDriver that can parse P4&#45;16 programs.">
<polygon fill="#bfbfbf" stroke="black" points="329,-0.5 329,-19.5 436,-19.5 436,-0.5 329,-0.5"/>
<text text-anchor="middle" x="382.5" y="-7.5" font-family="Helvetica,sans-Serif" font-size="10.00">P4::P4ParserDriver</text>
</a>
</g>
</g>
<!-- Node2 -->
<g id="node2" class="node">
<title>Node2</title>
<g id="a_node2"><a xlink:href="class_p4_1_1_abstract_parser_driver.html" target="_top" xlink:title=" ">
<polygon fill="white" stroke="black" points="286,-192.5 286,-211.5 421,-211.5 421,-192.5 286,-192.5"/>
<text text-anchor="middle" x="353.5" y="-199.5" font-family="Helvetica,sans-Serif" font-size="10.00">P4::AbstractParserDriver</text>
</a>
</g>
</g>
<!-- Node2&#45;&gt;Node1 -->
<g id="edge1" class="edge">
<title>Node2&#45;&gt;Node1</title>
<path fill="none" stroke="midnightblue" d="M355.94,-182.25C359.37,-156.31 365.93,-108.03 372.5,-67 375.19,-50.23 378.78,-30.71 380.84,-19.71"/>
<polygon fill="midnightblue" stroke="midnightblue" points="352.47,-181.83 354.64,-192.2 359.41,-182.74 352.47,-181.83"/>
</g>
<!-- Node3 -->
<g id="node3" class="node">
<title>Node3</title>
<g id="a_node3"><a xlink:href="class_util_1_1_source_info.html" target="_top" xlink:title=" ">
<polygon fill="white" stroke="black" points="248.5,-259.5 248.5,-278.5 340.5,-278.5 340.5,-259.5 248.5,-259.5"/>
<text text-anchor="middle" x="294.5" y="-266.5" font-family="Helvetica,sans-Serif" font-size="10.00">Util::SourceInfo</text>
</a>
</g>
</g>
<!-- Node3&#45;&gt;Node2 -->
<g id="edge2" class="edge">
<title>Node3&#45;&gt;Node2</title>
<path fill="none" stroke="#9a32cd" stroke-dasharray="5,2" d="M309.35,-251.63C320.89,-238.92 336.44,-221.8 345.67,-211.63"/>
<polygon fill="#9a32cd" stroke="#9a32cd" points="306.59,-249.48 302.46,-259.23 311.77,-254.18 306.59,-249.48"/>
<text text-anchor="middle" x="345" y="-233" font-family="Helvetica,sans-Serif" font-size="10.00"> yylloc</text>
</g>
<!-- Node8 -->
<g id="node8" class="node">
<title>Node8</title>
<g id="a_node8"><a xlink:href="class_i_r_1_1_node.html" target="_top" xlink:title=" ">
<polygon fill="white" stroke="black" points="209.5,-192.5 209.5,-211.5 267.5,-211.5 267.5,-192.5 209.5,-192.5"/>
<text text-anchor="middle" x="238.5" y="-199.5" font-family="Helvetica,sans-Serif" font-size="10.00">IR::Node</text>
</a>
</g>
</g>
<!-- Node3&#45;&gt;Node8 -->
<g id="edge14" class="edge">
<title>Node3&#45;&gt;Node8</title>
<path fill="none" stroke="#9a32cd" stroke-dasharray="5,2" d="M276.76,-252.56C272.9,-248.91 268.95,-244.93 265.5,-241 257.18,-231.5 248.97,-219.47 243.83,-211.52"/>
<polygon fill="#9a32cd" stroke="#9a32cd" points="274.6,-255.33 284.35,-259.47 279.31,-250.15 274.6,-255.33"/>
<text text-anchor="middle" x="284" y="-233" font-family="Helvetica,sans-Serif" font-size="10.00"> srcInfo</text>
</g>
<!-- Node4 -->
<g id="node4" class="node">
<title>Node4</title>
<g id="a_node4"><a xlink:href="classcstring.html" target="_top" xlink:title=" ">
<polygon fill="white" stroke="black" points="303.5,-338.5 303.5,-357.5 353.5,-357.5 353.5,-338.5 303.5,-338.5"/>
<text text-anchor="middle" x="328.5" y="-345.5" font-family="Helvetica,sans-Serif" font-size="10.00">cstring</text>
</a>
</g>
</g>
<!-- Node4&#45;&gt;Node3 -->
<g id="edge3" class="edge">
<title>Node4&#45;&gt;Node3</title>
<path fill="none" stroke="#9a32cd" stroke-dasharray="5,2" d="M320.65,-329.22C313.68,-313.44 303.79,-291.04 298.39,-278.81"/>
<polygon fill="#9a32cd" stroke="#9a32cd" points="317.49,-330.73 324.73,-338.47 323.89,-327.9 317.49,-330.73"/>
<text text-anchor="middle" x="339.5" y="-311" font-family="Helvetica,sans-Serif" font-size="10.00"> filename</text>
<text text-anchor="middle" x="339.5" y="-300" font-family="Helvetica,sans-Serif" font-size="10.00">srcBrief</text>
</g>
<!-- Node4&#45;&gt;Node4 -->
<g id="edge4" class="edge">
<title>Node4&#45;&gt;Node4</title>
<path fill="none" stroke="#9a32cd" stroke-dasharray="5,2" d="M363.95,-352.6C368.5,-351.8 371.5,-350.27 371.5,-348 371.5,-344.28 363.41,-342.54 353.68,-342.77"/>
<polygon fill="#9a32cd" stroke="#9a32cd" points="363.44,-349.12 353.68,-353.23 363.87,-356.11 363.44,-349.12"/>
<text text-anchor="middle" x="391" y="-351" font-family="Helvetica,sans-Serif" font-size="10.00"> empty</text>
<text text-anchor="middle" x="391" y="-340" font-family="Helvetica,sans-Serif" font-size="10.00">newline</text>
</g>
<!-- Node5 -->
<g id="node5" class="node">
<title>Node5</title>
<g id="a_node5"><a xlink:href="class_util_1_1_input_sources.html" target="_top" xlink:title=" ">
<polygon fill="white" stroke="black" points="359,-259.5 359,-278.5 462,-278.5 462,-259.5 359,-259.5"/>
<text text-anchor="middle" x="410.5" y="-266.5" font-family="Helvetica,sans-Serif" font-size="10.00">Util::InputSources</text>
</a>
</g>
</g>
<!-- Node5&#45;&gt;Node2 -->
<g id="edge5" class="edge">
<title>Node5&#45;&gt;Node2</title>
<path fill="none" stroke="#9a32cd" stroke-dasharray="5,2" d="M396.15,-251.63C385,-238.92 369.98,-221.8 361.07,-211.63"/>
<polygon fill="#9a32cd" stroke="#9a32cd" points="393.59,-254.02 402.81,-259.23 398.85,-249.41 393.59,-254.02"/>
<text text-anchor="middle" x="405" y="-233" font-family="Helvetica,sans-Serif" font-size="10.00"> sources</text>
</g>
<!-- Node6 -->
<g id="node6" class="node">
<title>Node6</title>
<g id="a_node6"><a xlink:href="class_i_r_1_1_vector.html" target="_top" xlink:title=" ">
<polygon fill="white" stroke="black" points="196,-67.5 196,-86.5 323,-86.5 323,-67.5 196,-67.5"/>
<text text-anchor="middle" x="259.5" y="-74.5" font-family="Helvetica,sans-Serif" font-size="10.00">IR::Vector&lt; IR::Node &gt;</text>
</a>
</g>
</g>
<!-- Node6&#45;&gt;Node1 -->
<g id="edge6" class="edge">
<title>Node6&#45;&gt;Node1</title>
<path fill="none" stroke="#9a32cd" stroke-dasharray="5,2" d="M275.49,-60.39C283.89,-52.84 294.67,-44.11 305.5,-38 319.32,-30.2 335.78,-24.06 349.93,-19.62"/>
<polygon fill="#9a32cd" stroke="#9a32cd" points="272.89,-58.03 267.97,-67.41 277.66,-63.15 272.89,-58.03"/>
<text text-anchor="middle" x="322" y="-41" font-family="Helvetica,sans-Serif" font-size="10.00"> nodes</text>
</g>
<!-- Node7 -->
<g id="node7" class="node">
<title>Node7</title>
<g id="a_node7"><a xlink:href="class_i_r_1_1_vector_base.html" target="_top" xlink:title=" ">
<polygon fill="white" stroke="black" points="199,-130 199,-149 286,-149 286,-130 199,-130"/>
<text text-anchor="middle" x="242.5" y="-137" font-family="Helvetica,sans-Serif" font-size="10.00">IR::VectorBase</text>
</a>
</g>
</g>
<!-- Node7&#45;&gt;Node6 -->
<g id="edge7" class="edge">
<title>Node7&#45;&gt;Node6</title>
<path fill="none" stroke="midnightblue" d="M247.64,-120.19C250.77,-109.06 254.62,-95.36 257.07,-86.65"/>
<polygon fill="midnightblue" stroke="midnightblue" points="244.27,-119.26 244.94,-129.83 251.01,-121.15 244.27,-119.26"/>
</g>
<!-- Node8&#45;&gt;Node7 -->
<g id="edge8" class="edge">
<title>Node8&#45;&gt;Node7</title>
<path fill="none" stroke="midnightblue" d="M239.73,-182.35C240.46,-171.28 241.36,-157.77 241.93,-149.15"/>
<polygon fill="midnightblue" stroke="midnightblue" points="236.24,-182.12 239.07,-192.33 243.23,-182.58 236.24,-182.12"/>
</g>
<!-- Node9 -->
<g id="node9" class="node">
<title>Node9</title>
<g id="a_node9"><a xlink:href="class_i_r_1_1_i_node.html" target="_top" xlink:title=" ">
<polygon fill="white" stroke="black" points="159,-259.5 159,-278.5 220,-278.5 220,-259.5 159,-259.5"/>
<text text-anchor="middle" x="189.5" y="-266.5" font-family="Helvetica,sans-Serif" font-size="10.00">IR::INode</text>
</a>
</g>
</g>
<!-- Node9&#45;&gt;Node8 -->
<g id="edge9" class="edge">
<title>Node9&#45;&gt;Node8</title>
<path fill="none" stroke="midnightblue" d="M202.39,-250.9C211.91,-238.27 224.48,-221.6 232,-211.63"/>
<polygon fill="midnightblue" stroke="midnightblue" points="199.33,-249.14 196.11,-259.23 204.92,-253.36 199.33,-249.14"/>
</g>
<!-- Node10 -->
<g id="node10" class="node">
<title>Node10</title>
<g id="a_node10"><a xlink:href="class_util_1_1_i_has_source_info.html" target="_top" xlink:title=" ">
<polygon fill="white" stroke="black" points="0,-338.5 0,-357.5 113,-357.5 113,-338.5 0,-338.5"/>
<text text-anchor="middle" x="56.5" y="-345.5" font-family="Helvetica,sans-Serif" font-size="10.00">Util::IHasSourceInfo</text>
</a>
</g>
</g>
<!-- Node10&#45;&gt;Node9 -->
<g id="edge10" class="edge">
<title>Node10&#45;&gt;Node9</title>
<path fill="none" stroke="midnightblue" d="M80.16,-333.3C107.54,-317.45 151.78,-291.84 174.69,-278.57"/>
<polygon fill="midnightblue" stroke="midnightblue" points="78.14,-330.43 71.24,-338.47 81.65,-336.48 78.14,-330.43"/>
</g>
<!-- Node11 -->
<g id="node11" class="node">
<title>Node11</title>
<g id="a_node11"><a xlink:href="class_i_has_db_print.html" target="_top" xlink:title=" ">
<polygon fill="white" stroke="black" points="131.5,-338.5 131.5,-357.5 205.5,-357.5 205.5,-338.5 131.5,-338.5"/>
<text text-anchor="middle" x="168.5" y="-345.5" font-family="Helvetica,sans-Serif" font-size="10.00">IHasDbPrint</text>
</a>
</g>
</g>
<!-- Node11&#45;&gt;Node9 -->
<g id="edge11" class="edge">
<title>Node11&#45;&gt;Node9</title>
<path fill="none" stroke="midnightblue" d="M173.47,-328.77C177.77,-313.02 183.79,-290.92 187.1,-278.81"/>
<polygon fill="midnightblue" stroke="midnightblue" points="170.08,-327.9 170.83,-338.47 176.84,-329.74 170.08,-327.9"/>
</g>
<!-- Node12 -->
<g id="node12" class="node">
<title>Node12</title>
<g id="a_node12"><a xlink:href="class_i_castable.html" target="_top" xlink:title=" ">
<polygon fill="white" stroke="black" points="223.5,-338.5 223.5,-357.5 285.5,-357.5 285.5,-338.5 223.5,-338.5"/>
<text text-anchor="middle" x="254.5" y="-345.5" font-family="Helvetica,sans-Serif" font-size="10.00">ICastable</text>
</a>
</g>
</g>
<!-- Node12&#45;&gt;Node9 -->
<g id="edge12" class="edge">
<title>Node12&#45;&gt;Node9</title>
<path fill="none" stroke="midnightblue" d="M240.62,-330.56C227.26,-314.73 207.56,-291.39 196.94,-278.81"/>
<polygon fill="midnightblue" stroke="midnightblue" points="238.17,-333.08 247.3,-338.47 243.52,-328.57 238.17,-333.08"/>
</g>
<!-- Node13 -->
<g id="node13" class="node">
<title>Node13</title>
<g id="a_node13"><a xlink:href="struct_r_t_t_i_1_1_base.html" target="_top" xlink:title=" ">
<polygon fill="white" stroke="black" points="220.5,-396.5 220.5,-415.5 288.5,-415.5 288.5,-396.5 220.5,-396.5"/>
<text text-anchor="middle" x="254.5" y="-403.5" font-family="Helvetica,sans-Serif" font-size="10.00">RTTI::Base</text>
</a>
</g>
</g>
<!-- Node13&#45;&gt;Node12 -->
<g id="edge13" class="edge">
<title>Node13&#45;&gt;Node12</title>
<path fill="none" stroke="midnightblue" d="M254.5,-385.95C254.5,-376.29 254.5,-365.03 254.5,-357.51"/>
<polygon fill="midnightblue" stroke="midnightblue" points="251,-386.25 254.5,-396.25 258,-386.25 251,-386.25"/>
</g>
<!-- Node14 -->
<g id="node14" class="node">
<title>Node14</title>
<g id="a_node14"><a xlink:title=" ">
<polygon fill="white" stroke="#bfbfbf" points="381,-67.5 381,-86.5 446,-86.5 446,-67.5 381,-67.5"/>
<text text-anchor="middle" x="413.5" y="-74.5" font-family="Helvetica,sans-Serif" font-size="10.00">std::string</text>
</a>
</g>
</g>
<!-- Node14&#45;&gt;Node1 -->
<g id="edge15" class="edge">
<title>Node14&#45;&gt;Node1</title>
<path fill="none" stroke="#9a32cd" stroke-dasharray="5,2" d="M404.99,-58.16C399.01,-45.63 391.28,-29.41 386.61,-19.63"/>
<polygon fill="#9a32cd" stroke="#9a32cd" points="401.86,-59.71 409.32,-67.23 408.17,-56.7 401.86,-59.71"/>
<text text-anchor="middle" x="430.5" y="-41" font-family="Helvetica,sans-Serif" font-size="10.00"> stringLiteral</text>
</g>
<!-- Node15 -->
<g id="node15" class="node">
<title>Node15</title>
<g id="a_node15"><a xlink:title=" ">
<polygon fill="white" stroke="#bfbfbf" points="380.5,-124.5 380.5,-154.5 484.5,-154.5 484.5,-124.5 380.5,-124.5"/>
<text text-anchor="start" x="388.5" y="-142.5" font-family="Helvetica,sans-Serif" font-size="10.00">std::basic_string&lt;</text>
<text text-anchor="middle" x="432.5" y="-131.5" font-family="Helvetica,sans-Serif" font-size="10.00"> Char &gt;</text>
</a>
</g>
</g>
<!-- Node15&#45;&gt;Node14 -->
<g id="edge16" class="edge">
<title>Node15&#45;&gt;Node14</title>
<path fill="none" stroke="midnightblue" d="M425.01,-114.67C421.9,-104.74 418.48,-93.85 416.18,-86.54"/>
<polygon fill="midnightblue" stroke="midnightblue" points="421.76,-115.98 428.09,-124.47 428.44,-113.88 421.76,-115.98"/>
</g>
<!-- Node16 -->
<g id="node16" class="node">
<title>Node16</title>
<g id="a_node16"><a xlink:href="class_util_1_1_program_structure.html" target="_top" xlink:title=" ">
<polygon fill="white" stroke="black" points="464,-67.5 464,-86.5 589,-86.5 589,-67.5 464,-67.5"/>
<text text-anchor="middle" x="526.5" y="-74.5" font-family="Helvetica,sans-Serif" font-size="10.00">Util::ProgramStructure</text>
</a>
</g>
</g>
<!-- Node16&#45;&gt;Node1 -->
<g id="edge17" class="edge">
<title>Node16&#45;&gt;Node1</title>
<path fill="none" stroke="#9a32cd" stroke-dasharray="5,2" d="M505.94,-61.44C494.44,-53.75 479.6,-44.57 465.5,-38 449.43,-30.52 430.71,-24.23 415.12,-19.62"/>
<polygon fill="#9a32cd" stroke="#9a32cd" points="504.15,-64.46 514.38,-67.22 508.11,-58.68 504.15,-64.46"/>
<text text-anchor="middle" x="508" y="-41" font-family="Helvetica,sans-Serif" font-size="10.00"> structure</text>
</g>
</g>
</svg>
        <g id="navigator" transform="translate(0 0)" fill="#404254">
                <rect fill="#f2f5e9" fill-opacity="0.5" stroke="#606060" stroke-width=".5" x="0" y="0" width="60" height="60"/>
                <use id="zoomplus" xlink:href="#zoomPlus" x="17" y="9" onmousedown="handleZoom(evt,'in')"/>
                <use id="zoomminus" xlink:href="#zoomMin" x="42" y="9" onmousedown="handleZoom(evt,'out')"/>
                <use id="reset" xlink:href="#resetDef" x="30" y="36" onmousedown="handleReset()"/>
                <g id="arrowUp" xlink:href="#dirArrow" transform="translate(30 24)" onmousedown="handlePan(0,-1)">
                  <use xlink:href="#rim" fill="#404040">
                        <set attributeName="fill" to="#808080" begin="arrowUp.mouseover" end="arrowUp.mouseout"/>
                  </use>
                  <path fill="none" stroke="white" stroke-width="1.5" d="M0,-3.0v7 M-2.5,-0.5L0,-3.0L2.5,-0.5"/>
                </g>
                <g id="arrowRight" xlink:href="#dirArrow" transform="rotate(90) translate(36 -43)" onmousedown="handlePan(1,0)">
                  <use xlink:href="#rim" fill="#404040">
                        <set attributeName="fill" to="#808080" begin="arrowRight.mouseover" end="arrowRight.mouseout"/>
                  </use>
                  <path fill="none" stroke="white" stroke-width="1.5" d="M0,-3.0v7 M-2.5,-0.5L0,-3.0L2.5,-0.5"/>
                </g>
                <g id="arrowDown" xlink:href="#dirArrow" transform="rotate(180) translate(-30 -48)" onmousedown="handlePan(0,1)">
                  <use xlink:href="#rim" fill="#404040">
                        <set attributeName="fill" to="#808080" begin="arrowDown.mouseover" end="arrowDown.mouseout"/>
                  </use>
                  <path fill="none" stroke="white" stroke-width="1.5" d="M0,-3.0v7 M-2.5,-0.5L0,-3.0L2.5,-0.5"/>
                </g>
                <g id="arrowLeft" xlink:href="#dirArrow" transform="rotate(270) translate(-36 17)" onmousedown="handlePan(-1,0)">
                  <use xlink:href="#rim" fill="#404040">
                        <set attributeName="fill" to="#808080" begin="arrowLeft.mouseover" end="arrowLeft.mouseout"/>
                  </use>
                  <path fill="none" stroke="white" stroke-width="1.5" d="M0,-3.0v7 M-2.5,-0.5L0,-3.0L2.5,-0.5"/>
                </g>
        </g>
        <svg viewBox="0 0 15 15" width="100%" height="30px" preserveAspectRatio="xMaxYMin meet">
         <g id="arrow_out" transform="scale(0.3 0.3)">
          <a xlink:href="class_p4_1_1_p4_parser_driver__coll__graph_org.svg" target="_base">
           <rect id="button" ry="5" rx="5" y="6" x="6" height="38" width="38"
                fill="#f2f5e9" fill-opacity="0.5" stroke="#606060" stroke-width="1.0"/>
           <path id="arrow"
             d="M 11.500037,31.436501 C 11.940474,20.09759 22.043105,11.32322 32.158766,21.979434 L 37.068811,17.246167 C 37.068811,17.246167 37.088388,32 37.088388,32 L 22.160133,31.978069 C 22.160133,31.978069 26.997745,27.140456 26.997745,27.140456 C 18.528582,18.264221 13.291696,25.230495 11.500037,31.436501 z"
             style="fill:#404040;"/>
          </a>
         </g>
        </svg>
</svg>
