<?xml version="1.0" encoding="UTF-8" standalone="no"?>
<!DOCTYPE svg PUBLIC "-//W3C//DTD SVG 1.1//EN"
 "http://www.w3.org/Graphics/SVG/1.1/DTD/svg11.dtd">
<!-- Generated by graphviz version 2.43.0 (0)
 -->
<!-- Title: BMV2::RemoveComplexExpressions Pages: 1 -->
<!--zoomable 358 -->
<svg id="main" version="1.1" xmlns="http://www.w3.org/2000/svg" xmlns:xlink="http://www.w3.org/1999/xlink" xml:space="preserve" onload="init(evt)">
<style type="text/css"><![CDATA[
.edge:hover path { stroke: red; }
.edge:hover polygon { stroke: red; fill: red; }
]]></style>
<script type="text/javascript"><![CDATA[
var edges = document.getElementsByTagName('g');
if (edges && edges.length) {
  for (var i=0;i<edges.length;i++) {
    if (edges[i].id.substr(0,4)=='edge') {
      edges[i].setAttribute('class','edge');
    }
  }
}
]]></script>
        <defs>
                <circle id="rim" cx="0" cy="0" r="7"/>
                <circle id="rim2" cx="0" cy="0" r="3.5"/>
                <g id="zoomPlus">
                        <use xlink:href="#rim" fill="#404040">
                                <set attributeName="fill" to="#808080" begin="zoomplus.mouseover" end="zoomplus.mouseout"/>
                        </use>
                        <path d="M-4,0h8M0,-4v8" fill="none" stroke="white" stroke-width="1.5" pointer-events="none"/>
                </g>
                <g id="zoomMin">
                        <use xlink:href="#rim" fill="#404040">
                                <set attributeName="fill" to="#808080" begin="zoomminus.mouseover" end="zoomminus.mouseout"/>
                        </use>
                        <path d="M-4,0h8" fill="none" stroke="white" stroke-width="1.5" pointer-events="none"/>
                </g>
                <g id="dirArrow">
                        <path fill="none" stroke="white" stroke-width="1.5" d="M0,-3.0v7 M-2.5,-0.5L0,-3.0L2.5,-0.5"/>
                </g>
               <g id="resetDef">
                       <use xlink:href="#rim2" fill="#404040">
                               <set attributeName="fill" to="#808080" begin="reset.mouseover" end="reset.mouseout"/>
                       </use>
               </g>
        </defs>

<script type="text/javascript">
var viewWidth = 1818;
var viewHeight = 358;
var sectionId = 'dynsection-1';
</script>
<script xlink:href="svgpan.js"/>
<svg id="graph" class="graph">
<g id="viewport">
<title>BMV2::RemoveComplexExpressions</title>
<polygon fill="white" stroke="transparent" points="-4,4 -4,-354 1814,-354 1814,4 -4,4"/>
<!-- Node1 -->
<g id="node1" class="node">
<title>Node1</title>
<g id="a_node1"><a xlink:title=" ">
<polygon fill="#bfbfbf" stroke="black" points="1616,-173.5 1616,-192.5 1810,-192.5 1810,-173.5 1616,-173.5"/>
<text text-anchor="middle" x="1713" y="-180.5" font-family="Helvetica,sans-Serif" font-size="10.00">BMV2::RemoveComplexExpressions</text>
</a>
</g>
</g>
<!-- Node2 -->
<g id="node2" class="node">
<title>Node2</title>
<g id="a_node2"><a xlink:href="class_p4_1_1_remove_complex_expressions.html" target="_top" xlink:title=" ">
<polygon fill="white" stroke="black" points="1402,-173.5 1402,-192.5 1579,-192.5 1579,-173.5 1402,-173.5"/>
<text text-anchor="middle" x="1490.5" y="-180.5" font-family="Helvetica,sans-Serif" font-size="10.00">P4::RemoveComplexExpressions</text>
</a>
</g>
</g>
<!-- Node2&#45;&gt;Node1 -->
<g id="edge1" class="edge">
<title>Node2&#45;&gt;Node1</title>
<path fill="none" stroke="midnightblue" d="M1589.49,-183C1598.24,-183 1607.09,-183 1615.82,-183"/>
<polygon fill="midnightblue" stroke="midnightblue" points="1589.28,-179.5 1579.28,-183 1589.28,-186.5 1589.28,-179.5"/>
</g>
<!-- Node3 -->
<g id="node3" class="node">
<title>Node3</title>
<g id="a_node3"><a xlink:href="class_transform.html" target="_top" xlink:title=" ">
<polygon fill="white" stroke="black" points="1179,-266.5 1179,-285.5 1244,-285.5 1244,-266.5 1179,-266.5"/>
<text text-anchor="middle" x="1211.5" y="-273.5" font-family="Helvetica,sans-Serif" font-size="10.00">Transform</text>
</a>
</g>
</g>
<!-- Node3&#45;&gt;Node2 -->
<g id="edge2" class="edge">
<title>Node3&#45;&gt;Node2</title>
<path fill="none" stroke="midnightblue" d="M1237.31,-263.39C1254.9,-258.18 1279.02,-252.76 1300,-247 1337.82,-236.62 1347.31,-233.85 1384,-220 1406.81,-211.39 1431.83,-200.54 1451.79,-192.51"/>
<polygon fill="midnightblue" stroke="midnightblue" points="1236.24,-260.05 1227.77,-266.42 1238.36,-266.72 1236.24,-260.05"/>
</g>
<!-- Node3&#45;&gt;Node2 -->
<g id="edge12" class="edge">
<title>Node3&#45;&gt;Node2</title>
<path fill="none" stroke="midnightblue" d="M1254.44,-275.68C1268.94,-272.93 1285.25,-269.05 1300,-265 1337.82,-254.62 1347.31,-251.85 1384,-238 1420.08,-224.38 1461.72,-205.15 1480.03,-192.65"/>
<polygon fill="midnightblue" stroke="midnightblue" points="1253.5,-272.29 1244.25,-277.46 1254.71,-279.18 1253.5,-272.29"/>
</g>
<!-- Node4 -->
<g id="node4" class="node">
<title>Node4</title>
<g id="a_node4"><a xlink:href="class_visitor.html" target="_top" xlink:title=" ">
<polygon fill="white" stroke="black" points="362.5,-175.5 362.5,-194.5 410.5,-194.5 410.5,-175.5 362.5,-175.5"/>
<text text-anchor="middle" x="386.5" y="-182.5" font-family="Helvetica,sans-Serif" font-size="10.00">Visitor</text>
</a>
</g>
</g>
<!-- Node4&#45;&gt;Node3 -->
<g id="edge3" class="edge">
<title>Node4&#45;&gt;Node3</title>
<path fill="none" stroke="midnightblue" d="M407.73,-200.95C443.83,-227.77 522.71,-279 598.5,-279 598.5,-279 598.5,-279 1008,-279 1068.48,-279 1139.1,-277.65 1178.93,-276.76"/>
<polygon fill="midnightblue" stroke="midnightblue" points="409.58,-197.96 399.5,-194.71 405.35,-203.54 409.58,-197.96"/>
</g>
<!-- Node4&#45;&gt;Node4 -->
<g id="edge11" class="edge">
<title>Node4&#45;&gt;Node4</title>
<path fill="none" stroke="#9a32cd" stroke-dasharray="5,2" d="M367.24,-204.4C368.53,-209.31 374.95,-213 386.5,-213 404.98,-213 410.33,-203.57 402.53,-194.76"/>
<polygon fill="#9a32cd" stroke="#9a32cd" points="370.61,-205.35 370.47,-194.76 363.98,-203.13 370.61,-205.35"/>
<text text-anchor="middle" x="386.5" y="-216" font-family="Helvetica,sans-Serif" font-size="10.00"> called_by</text>
</g>
<!-- Node6 -->
<g id="node6" class="node">
<title>Node6</title>
<g id="a_node6"><a xlink:href="class_split_flow_visit__base.html" target="_top" xlink:title=" ">
<polygon fill="white" stroke="black" points="779,-164.5 779,-183.5 891,-183.5 891,-164.5 779,-164.5"/>
<text text-anchor="middle" x="835" y="-171.5" font-family="Helvetica,sans-Serif" font-size="10.00">SplitFlowVisit_base</text>
</a>
</g>
</g>
<!-- Node4&#45;&gt;Node6 -->
<g id="edge10" class="edge">
<title>Node4&#45;&gt;Node6</title>
<path fill="none" stroke="#9a32cd" stroke-dasharray="5,2" d="M420.9,-191.76C450.48,-197.39 494.91,-204.95 534,-208 634.86,-215.87 661.89,-211.3 761,-191 771.96,-188.75 783.8,-186.1 794.68,-183.56"/>
<polygon fill="#9a32cd" stroke="#9a32cd" points="421.19,-188.26 410.71,-189.79 419.86,-195.13 421.19,-188.26"/>
<text text-anchor="middle" x="599.5" y="-215" font-family="Helvetica,sans-Serif" font-size="10.00"> v</text>
</g>
<!-- Node7 -->
<g id="node7" class="node">
<title>Node7</title>
<g id="a_node7"><a xlink:title=" ">
<polygon fill="white" stroke="#bfbfbf" points="534,-126.5 534,-145.5 665,-145.5 665,-126.5 534,-126.5"/>
<text text-anchor="middle" x="599.5" y="-133.5" font-family="Helvetica,sans-Serif" font-size="10.00">std::vector&lt; Visitor * &gt;</text>
</a>
</g>
</g>
<!-- Node4&#45;&gt;Node7 -->
<g id="edge9" class="edge">
<title>Node4&#45;&gt;Node7</title>
<path fill="none" stroke="#9a32cd" stroke-dasharray="5,2" d="M420.57,-171.85C434.7,-166.63 451.48,-160.94 467,-157 488.51,-151.54 512.38,-147.22 533.82,-143.96"/>
<polygon fill="#9a32cd" stroke="#9a32cd" points="418.93,-168.73 410.81,-175.54 421.4,-175.28 418.93,-168.73"/>
<text text-anchor="middle" x="491.5" y="-160" font-family="Helvetica,sans-Serif" font-size="10.00"> elements</text>
</g>
<!-- Node5 -->
<g id="node5" class="node">
<title>Node5</title>
<g id="a_node5"><a xlink:href="classcstring.html" target="_top" xlink:title=" ">
<polygon fill="white" stroke="black" points="136.5,-175.5 136.5,-194.5 186.5,-194.5 186.5,-175.5 136.5,-175.5"/>
<text text-anchor="middle" x="161.5" y="-182.5" font-family="Helvetica,sans-Serif" font-size="10.00">cstring</text>
</a>
</g>
</g>
<!-- Node5&#45;&gt;Node4 -->
<g id="edge4" class="edge">
<title>Node5&#45;&gt;Node4</title>
<path fill="none" stroke="#9a32cd" stroke-dasharray="5,2" d="M196.86,-185C242.75,-185 322.84,-185 362.25,-185"/>
<polygon fill="#9a32cd" stroke="#9a32cd" points="196.79,-181.5 186.79,-185 196.79,-188.5 196.79,-181.5"/>
<text text-anchor="middle" x="271" y="-188" font-family="Helvetica,sans-Serif" font-size="10.00"> internalName</text>
</g>
<!-- Node5&#45;&gt;Node5 -->
<g id="edge5" class="edge">
<title>Node5&#45;&gt;Node5</title>
<path fill="none" stroke="#9a32cd" stroke-dasharray="5,2" d="M147.87,-204.77C148.94,-209.5 153.49,-213 161.5,-213 174.65,-213 178.45,-203.57 172.91,-194.76"/>
<polygon fill="#9a32cd" stroke="#9a32cd" points="151.34,-205.28 150.09,-194.76 144.51,-203.76 151.34,-205.28"/>
<text text-anchor="middle" x="161.5" y="-227" font-family="Helvetica,sans-Serif" font-size="10.00"> empty</text>
<text text-anchor="middle" x="161.5" y="-216" font-family="Helvetica,sans-Serif" font-size="10.00">newline</text>
</g>
<!-- Node9 -->
<g id="node9" class="node">
<title>Node9</title>
<g id="a_node9"><a xlink:href="class_p4_1_1_program_map.html" target="_top" xlink:title=" ">
<polygon fill="white" stroke="black" points="338,-95.5 338,-114.5 435,-114.5 435,-95.5 338,-95.5"/>
<text text-anchor="middle" x="386.5" y="-102.5" font-family="Helvetica,sans-Serif" font-size="10.00">P4::ProgramMap</text>
</a>
</g>
</g>
<!-- Node5&#45;&gt;Node9 -->
<g id="edge16" class="edge">
<title>Node5&#45;&gt;Node9</title>
<path fill="none" stroke="#9a32cd" stroke-dasharray="5,2" d="M178,-167.51C191.74,-153.27 213.11,-133.94 236,-124 268.16,-110.04 307.61,-105.49 337.91,-104.32"/>
<polygon fill="#9a32cd" stroke="#9a32cd" points="175.1,-165.5 170.85,-175.21 180.22,-170.27 175.1,-165.5"/>
<text text-anchor="middle" x="271" y="-127" font-family="Helvetica,sans-Serif" font-size="10.00"> mapKind</text>
</g>
<!-- Node22 -->
<g id="node22" class="node">
<title>Node22</title>
<g id="a_node22"><a xlink:href="class_util_1_1_source_info.html" target="_top" xlink:title=" ">
<polygon fill="white" stroke="black" points="340.5,-252.5 340.5,-271.5 432.5,-271.5 432.5,-252.5 340.5,-252.5"/>
<text text-anchor="middle" x="386.5" y="-259.5" font-family="Helvetica,sans-Serif" font-size="10.00">Util::SourceInfo</text>
</a>
</g>
</g>
<!-- Node5&#45;&gt;Node22 -->
<g id="edge31" class="edge">
<title>Node5&#45;&gt;Node22</title>
<path fill="none" stroke="#9a32cd" stroke-dasharray="5,2" d="M196.49,-196.74C240.65,-211.99 316.91,-238.32 357.76,-252.42"/>
<polygon fill="#9a32cd" stroke="#9a32cd" points="197.38,-193.34 186.79,-193.39 195.1,-199.96 197.38,-193.34"/>
<text text-anchor="middle" x="271" y="-247" font-family="Helvetica,sans-Serif" font-size="10.00"> filename</text>
<text text-anchor="middle" x="271" y="-236" font-family="Helvetica,sans-Serif" font-size="10.00">srcBrief</text>
</g>
<!-- Node6&#45;&gt;Node4 -->
<g id="edge6" class="edge">
<title>Node6&#45;&gt;Node4</title>
<path fill="none" stroke="#9a32cd" stroke-dasharray="5,2" d="M768.64,-175.61C667.14,-178.11 476.43,-182.81 410.57,-184.43"/>
<polygon fill="#9a32cd" stroke="#9a32cd" points="768.86,-179.11 778.77,-175.36 768.69,-172.11 768.86,-179.11"/>
<text text-anchor="middle" x="599.5" y="-196" font-family="Helvetica,sans-Serif" font-size="10.00"> split_link</text>
<text text-anchor="middle" x="599.5" y="-185" font-family="Helvetica,sans-Serif" font-size="10.00">split_link_mem</text>
</g>
<!-- Node6&#45;&gt;Node6 -->
<g id="edge7" class="edge">
<title>Node6&#45;&gt;Node6</title>
<path fill="none" stroke="#9a32cd" stroke-dasharray="5,2" d="M821.37,-193.77C822.44,-198.5 826.99,-202 835,-202 848.15,-202 851.95,-192.57 846.41,-183.76"/>
<polygon fill="#9a32cd" stroke="#9a32cd" points="824.84,-194.28 823.59,-183.76 818.01,-192.76 824.84,-194.28"/>
<text text-anchor="middle" x="835" y="-205" font-family="Helvetica,sans-Serif" font-size="10.00"> prev</text>
</g>
<!-- Node7&#45;&gt;Node6 -->
<g id="edge8" class="edge">
<title>Node7&#45;&gt;Node6</title>
<path fill="none" stroke="#9a32cd" stroke-dasharray="5,2" d="M675.34,-144.24C702.42,-147.63 733.17,-151.95 761,-157 772.52,-159.09 784.97,-161.81 796.26,-164.46"/>
<polygon fill="#9a32cd" stroke="#9a32cd" points="675.51,-140.73 665.16,-142.98 674.65,-147.68 675.51,-140.73"/>
<text text-anchor="middle" x="722" y="-160" font-family="Helvetica,sans-Serif" font-size="10.00"> visitors</text>
</g>
<!-- Node8 -->
<g id="node8" class="node">
<title>Node8</title>
<g id="a_node8"><a xlink:href="class_p4_1_1_type_map.html" target="_top" xlink:title=" ">
<polygon fill="white" stroke="black" points="683,-108.5 683,-127.5 761,-127.5 761,-108.5 683,-108.5"/>
<text text-anchor="middle" x="722" y="-115.5" font-family="Helvetica,sans-Serif" font-size="10.00">P4::TypeMap</text>
</a>
</g>
</g>
<!-- Node8&#45;&gt;Node2 -->
<g id="edge13" class="edge">
<title>Node8&#45;&gt;Node2</title>
<path fill="none" stroke="#9a32cd" stroke-dasharray="5,2" d="M771.14,-125.23C808.62,-130.23 862,-136 909,-136 909,-136 909,-136 1212.5,-136 1301.28,-136 1403.83,-159.76 1455.7,-173.49"/>
<polygon fill="#9a32cd" stroke="#9a32cd" points="771.39,-121.73 761.01,-123.84 770.45,-128.67 771.39,-121.73"/>
<text text-anchor="middle" x="1007" y="-139" font-family="Helvetica,sans-Serif" font-size="10.00"> typeMap</text>
</g>
<!-- Node9&#45;&gt;Node8 -->
<g id="edge14" class="edge">
<title>Node9&#45;&gt;Node8</title>
<path fill="none" stroke="midnightblue" d="M445.41,-107.26C513.46,-109.91 624.45,-114.24 682.64,-116.5"/>
<polygon fill="midnightblue" stroke="midnightblue" points="445.41,-103.75 435.28,-106.86 445.14,-110.75 445.41,-103.75"/>
</g>
<!-- Node11 -->
<g id="node11" class="node">
<title>Node11</title>
<g id="a_node11"><a xlink:href="class_p4_1_1_reference_map.html" target="_top" xlink:title="Class used to encode maps from paths to declarations.">
<polygon fill="white" stroke="black" points="547,-44.5 547,-63.5 652,-63.5 652,-44.5 547,-44.5"/>
<text text-anchor="middle" x="599.5" y="-51.5" font-family="Helvetica,sans-Serif" font-size="10.00">P4::ReferenceMap</text>
</a>
</g>
</g>
<!-- Node9&#45;&gt;Node11 -->
<g id="edge18" class="edge">
<title>Node9&#45;&gt;Node11</title>
<path fill="none" stroke="midnightblue" d="M437.3,-92.96C474.47,-83.98 524.56,-71.87 558.99,-63.55"/>
<polygon fill="midnightblue" stroke="midnightblue" points="436.09,-89.66 427.19,-95.41 437.73,-96.46 436.09,-89.66"/>
</g>
<!-- Node10 -->
<g id="node10" class="node">
<title>Node10</title>
<g id="a_node10"><a xlink:href="class_i_has_db_print.html" target="_top" xlink:title=" ">
<polygon fill="white" stroke="black" points="124.5,-254.5 124.5,-273.5 198.5,-273.5 198.5,-254.5 124.5,-254.5"/>
<text text-anchor="middle" x="161.5" y="-261.5" font-family="Helvetica,sans-Serif" font-size="10.00">IHasDbPrint</text>
</a>
</g>
</g>
<!-- Node10&#45;&gt;Node9 -->
<g id="edge15" class="edge">
<title>Node10&#45;&gt;Node9</title>
<path fill="none" stroke="midnightblue" d="M207.8,-252.06C211.56,-249.82 215.05,-247.16 218,-244 237.88,-222.72 217.48,-203.47 236,-181 253.08,-160.27 323.2,-129.95 361.03,-114.62"/>
<polygon fill="midnightblue" stroke="midnightblue" points="206.07,-249.01 198.63,-256.56 209.15,-255.29 206.07,-249.01"/>
</g>
<!-- Node18 -->
<g id="node18" class="node">
<title>Node18</title>
<g id="a_node18"><a xlink:href="class_i_r_1_1_i_node.html" target="_top" xlink:title=" ">
<polygon fill="white" stroke="black" points="356,-314.5 356,-333.5 417,-333.5 417,-314.5 356,-314.5"/>
<text text-anchor="middle" x="386.5" y="-321.5" font-family="Helvetica,sans-Serif" font-size="10.00">IR::INode</text>
</a>
</g>
</g>
<!-- Node10&#45;&gt;Node18 -->
<g id="edge27" class="edge">
<title>Node10&#45;&gt;Node18</title>
<path fill="none" stroke="midnightblue" d="M207.73,-276.17C251.87,-288.04 317.75,-305.77 355.68,-315.98"/>
<polygon fill="midnightblue" stroke="midnightblue" points="208.4,-272.73 197.84,-273.51 206.58,-279.49 208.4,-272.73"/>
</g>
<!-- Node11&#45;&gt;Node2 -->
<g id="edge17" class="edge">
<title>Node11&#45;&gt;Node2</title>
<path fill="none" stroke="#9a32cd" stroke-dasharray="5,2" d="M649.81,-65.75C696.85,-75.92 769.84,-89 834,-89 834,-89 834,-89 1212.5,-89 1316.86,-89 1432.17,-149.57 1473.6,-173.47"/>
<polygon fill="#9a32cd" stroke="#9a32cd" points="650.41,-62.3 639.89,-63.56 648.91,-69.13 650.41,-62.3"/>
<text text-anchor="middle" x="1007" y="-92" font-family="Helvetica,sans-Serif" font-size="10.00"> refMap</text>
</g>
<!-- Node12 -->
<g id="node12" class="node">
<title>Node12</title>
<g id="a_node12"><a xlink:href="class_p4_1_1_name_generator.html" target="_top" xlink:title=" ">
<polygon fill="white" stroke="black" points="330,-38.5 330,-57.5 443,-57.5 443,-38.5 330,-38.5"/>
<text text-anchor="middle" x="386.5" y="-45.5" font-family="Helvetica,sans-Serif" font-size="10.00">P4::NameGenerator</text>
</a>
</g>
</g>
<!-- Node12&#45;&gt;Node11 -->
<g id="edge19" class="edge">
<title>Node12&#45;&gt;Node11</title>
<path fill="none" stroke="midnightblue" d="M453.23,-49.87C483.38,-50.73 518.61,-51.73 546.83,-52.53"/>
<polygon fill="midnightblue" stroke="midnightblue" points="453.31,-46.37 443.21,-49.58 453.11,-53.37 453.31,-46.37"/>
</g>
<!-- Node13 -->
<g id="node13" class="node">
<title>Node13</title>
<g id="a_node13"><a xlink:href="class_p4_1_1_declaration_lookup.html" target="_top" xlink:title=" ">
<polygon fill="white" stroke="black" points="324,-0.5 324,-19.5 449,-19.5 449,-0.5 324,-0.5"/>
<text text-anchor="middle" x="386.5" y="-7.5" font-family="Helvetica,sans-Serif" font-size="10.00">P4::DeclarationLookup</text>
</a>
</g>
</g>
<!-- Node13&#45;&gt;Node11 -->
<g id="edge20" class="edge">
<title>Node13&#45;&gt;Node11</title>
<path fill="none" stroke="midnightblue" d="M443.13,-21.6C477.33,-28.73 520.61,-37.76 552.81,-44.47"/>
<polygon fill="midnightblue" stroke="midnightblue" points="443.79,-18.16 433.28,-19.55 442.36,-25.02 443.79,-18.16"/>
</g>
<!-- Node14 -->
<g id="node14" class="node">
<title>Node14</title>
<g id="a_node14"><a xlink:href="class_i_r_1_1_indexed_vector.html" target="_top" xlink:title=" ">
<polygon fill="white" stroke="black" points="1156.5,-168 1156.5,-198 1266.5,-198 1266.5,-168 1156.5,-168"/>
<text text-anchor="start" x="1164.5" y="-186" font-family="Helvetica,sans-Serif" font-size="10.00">IR::IndexedVector&lt;</text>
<text text-anchor="middle" x="1211.5" y="-175" font-family="Helvetica,sans-Serif" font-size="10.00"> IR::Declaration &gt;</text>
</a>
</g>
</g>
<!-- Node14&#45;&gt;Node2 -->
<g id="edge21" class="edge">
<title>Node14&#45;&gt;Node2</title>
<path fill="none" stroke="#9a32cd" stroke-dasharray="5,2" d="M1276.77,-183C1313.93,-183 1361.23,-183 1401.78,-183"/>
<polygon fill="#9a32cd" stroke="#9a32cd" points="1276.57,-179.5 1266.57,-183 1276.57,-186.5 1276.57,-179.5"/>
<text text-anchor="middle" x="1351" y="-186" font-family="Helvetica,sans-Serif" font-size="10.00"> newDecls</text>
</g>
<!-- Node15 -->
<g id="node15" class="node">
<title>Node15</title>
<g id="a_node15"><a xlink:href="class_i_r_1_1_vector.html" target="_top" xlink:title=" ">
<polygon fill="white" stroke="black" points="928,-178.5 928,-197.5 1086,-197.5 1086,-178.5 928,-178.5"/>
<text text-anchor="middle" x="1007" y="-185.5" font-family="Helvetica,sans-Serif" font-size="10.00">IR::Vector&lt; IR::Declaration &gt;</text>
</a>
</g>
</g>
<!-- Node15&#45;&gt;Node14 -->
<g id="edge22" class="edge">
<title>Node15&#45;&gt;Node14</title>
<path fill="none" stroke="midnightblue" d="M1096.01,-185.83C1116.55,-185.32 1137.82,-184.79 1156.38,-184.34"/>
<polygon fill="midnightblue" stroke="midnightblue" points="1095.91,-182.33 1086,-186.07 1096.09,-189.33 1095.91,-182.33"/>
</g>
<!-- Node16 -->
<g id="node16" class="node">
<title>Node16</title>
<g id="a_node16"><a xlink:href="class_i_r_1_1_vector_base.html" target="_top" xlink:title=" ">
<polygon fill="white" stroke="black" points="791.5,-231.5 791.5,-250.5 878.5,-250.5 878.5,-231.5 791.5,-231.5"/>
<text text-anchor="middle" x="835" y="-238.5" font-family="Helvetica,sans-Serif" font-size="10.00">IR::VectorBase</text>
</a>
</g>
</g>
<!-- Node16&#45;&gt;Node15 -->
<g id="edge23" class="edge">
<title>Node16&#45;&gt;Node15</title>
<path fill="none" stroke="midnightblue" d="M876.64,-228.33C907,-218.87 947.84,-206.13 975.44,-197.53"/>
<polygon fill="midnightblue" stroke="midnightblue" points="875.29,-225.08 866.79,-231.4 877.37,-231.77 875.29,-225.08"/>
</g>
<!-- Node25 -->
<g id="node25" class="node">
<title>Node25</title>
<g id="a_node25"><a xlink:href="class_i_r_1_1_vector.html" target="_top" xlink:title=" ">
<polygon fill="white" stroke="black" points="930,-226.5 930,-245.5 1084,-245.5 1084,-226.5 930,-226.5"/>
<text text-anchor="middle" x="1007" y="-233.5" font-family="Helvetica,sans-Serif" font-size="10.00">IR::Vector&lt; IR::StatOrDecl &gt;</text>
</a>
</g>
</g>
<!-- Node16&#45;&gt;Node25 -->
<g id="edge35" class="edge">
<title>Node16&#45;&gt;Node25</title>
<path fill="none" stroke="midnightblue" d="M888.97,-239.44C901.88,-239.06 915.94,-238.65 929.69,-238.24"/>
<polygon fill="midnightblue" stroke="midnightblue" points="888.79,-235.95 878.9,-239.74 889,-242.94 888.79,-235.95"/>
</g>
<!-- Node17 -->
<g id="node17" class="node">
<title>Node17</title>
<g id="a_node17"><a xlink:href="class_i_r_1_1_node.html" target="_top" xlink:title=" ">
<polygon fill="white" stroke="black" points="570.5,-307.5 570.5,-326.5 628.5,-326.5 628.5,-307.5 570.5,-307.5"/>
<text text-anchor="middle" x="599.5" y="-314.5" font-family="Helvetica,sans-Serif" font-size="10.00">IR::Node</text>
</a>
</g>
</g>
<!-- Node17&#45;&gt;Node16 -->
<g id="edge24" class="edge">
<title>Node17&#45;&gt;Node16</title>
<path fill="none" stroke="midnightblue" d="M638.35,-304.68C684.78,-289.57 762.47,-264.28 804.63,-250.56"/>
<polygon fill="midnightblue" stroke="midnightblue" points="637.09,-301.41 628.67,-307.83 639.26,-308.07 637.09,-301.41"/>
</g>
<!-- Node18&#45;&gt;Node17 -->
<g id="edge25" class="edge">
<title>Node18&#45;&gt;Node17</title>
<path fill="none" stroke="midnightblue" d="M427.12,-324.86C452.53,-325.21 486.22,-325.26 516,-324 534.1,-323.23 554.36,-321.53 570.28,-319.99"/>
<polygon fill="midnightblue" stroke="midnightblue" points="427.17,-321.37 417.12,-324.71 427.06,-328.36 427.17,-321.37"/>
</g>
<!-- Node19 -->
<g id="node19" class="node">
<title>Node19</title>
<g id="a_node19"><a xlink:href="class_util_1_1_i_has_source_info.html" target="_top" xlink:title=" ">
<polygon fill="white" stroke="black" points="105,-292.5 105,-311.5 218,-311.5 218,-292.5 105,-292.5"/>
<text text-anchor="middle" x="161.5" y="-299.5" font-family="Helvetica,sans-Serif" font-size="10.00">Util::IHasSourceInfo</text>
</a>
</g>
</g>
<!-- Node19&#45;&gt;Node18 -->
<g id="edge26" class="edge">
<title>Node19&#45;&gt;Node18</title>
<path fill="none" stroke="midnightblue" d="M228.41,-308.5C270.64,-312.67 323.41,-317.87 355.77,-321.07"/>
<polygon fill="midnightblue" stroke="midnightblue" points="228.49,-304.99 218.2,-307.49 227.81,-311.96 228.49,-304.99"/>
</g>
<!-- Node20 -->
<g id="node20" class="node">
<title>Node20</title>
<g id="a_node20"><a xlink:href="class_i_castable.html" target="_top" xlink:title=" ">
<polygon fill="white" stroke="black" points="130.5,-330.5 130.5,-349.5 192.5,-349.5 192.5,-330.5 130.5,-330.5"/>
<text text-anchor="middle" x="161.5" y="-337.5" font-family="Helvetica,sans-Serif" font-size="10.00">ICastable</text>
</a>
</g>
</g>
<!-- Node20&#45;&gt;Node18 -->
<g id="edge28" class="edge">
<title>Node20&#45;&gt;Node18</title>
<path fill="none" stroke="midnightblue" d="M202.66,-337.12C246.76,-333.95 316.52,-328.95 355.9,-326.12"/>
<polygon fill="midnightblue" stroke="midnightblue" points="202.3,-333.64 192.57,-337.84 202.8,-340.62 202.3,-333.64"/>
</g>
<!-- Node21 -->
<g id="node21" class="node">
<title>Node21</title>
<g id="a_node21"><a xlink:href="struct_r_t_t_i_1_1_base.html" target="_top" xlink:title=" ">
<polygon fill="white" stroke="black" points="0,-330.5 0,-349.5 68,-349.5 68,-330.5 0,-330.5"/>
<text text-anchor="middle" x="34" y="-337.5" font-family="Helvetica,sans-Serif" font-size="10.00">RTTI::Base</text>
</a>
</g>
</g>
<!-- Node21&#45;&gt;Node20 -->
<g id="edge29" class="edge">
<title>Node21&#45;&gt;Node20</title>
<path fill="none" stroke="midnightblue" d="M78.64,-340C95.75,-340 114.97,-340 130.48,-340"/>
<polygon fill="midnightblue" stroke="midnightblue" points="78.3,-336.5 68.3,-340 78.3,-343.5 78.3,-336.5"/>
</g>
<!-- Node22&#45;&gt;Node17 -->
<g id="edge30" class="edge">
<title>Node22&#45;&gt;Node17</title>
<path fill="none" stroke="#9a32cd" stroke-dasharray="5,2" d="M421.6,-275.16C435.54,-280.23 451.91,-285.81 467,-290 502.15,-299.75 543.47,-307.67 570.28,-312.35"/>
<polygon fill="#9a32cd" stroke="#9a32cd" points="422.53,-271.77 411.93,-271.58 420.1,-278.33 422.53,-271.77"/>
<text text-anchor="middle" x="491.5" y="-304" font-family="Helvetica,sans-Serif" font-size="10.00"> srcInfo</text>
</g>
<!-- Node23 -->
<g id="node23" class="node">
<title>Node23</title>
<g id="a_node23"><a xlink:href="class_p4_1_1_remove_complex_expressions_policy.html" target="_top" xlink:title=" ">
<polygon fill="white" stroke="black" points="1123,-30 1123,-60 1300,-60 1300,-30 1123,-30"/>
<text text-anchor="start" x="1131" y="-48" font-family="Helvetica,sans-Serif" font-size="10.00">P4::RemoveComplexExpressions</text>
<text text-anchor="middle" x="1211.5" y="-37" font-family="Helvetica,sans-Serif" font-size="10.00">Policy</text>
</a>
</g>
</g>
<!-- Node23&#45;&gt;Node2 -->
<g id="edge32" class="edge">
<title>Node23&#45;&gt;Node2</title>
<path fill="none" stroke="#9a32cd" stroke-dasharray="5,2" d="M1310.52,-43.54C1335.55,-46.41 1361.67,-52.44 1384,-64 1434.01,-89.9 1471.31,-150.09 1484.4,-173.47"/>
<polygon fill="#9a32cd" stroke="#9a32cd" points="1310.55,-40.02 1300.25,-42.53 1309.86,-46.99 1310.55,-40.02"/>
<text text-anchor="middle" x="1351" y="-67" font-family="Helvetica,sans-Serif" font-size="10.00"> policy</text>
</g>
<!-- Node24 -->
<g id="node24" class="node">
<title>Node24</title>
<g id="a_node24"><a xlink:href="class_i_r_1_1_indexed_vector.html" target="_top" xlink:title=" ">
<polygon fill="white" stroke="black" points="1156.5,-217 1156.5,-247 1266.5,-247 1266.5,-217 1156.5,-217"/>
<text text-anchor="start" x="1164.5" y="-235" font-family="Helvetica,sans-Serif" font-size="10.00">IR::IndexedVector&lt;</text>
<text text-anchor="middle" x="1211.5" y="-224" font-family="Helvetica,sans-Serif" font-size="10.00"> IR::StatOrDecl &gt;</text>
</a>
</g>
</g>
<!-- Node24&#45;&gt;Node2 -->
<g id="edge33" class="edge">
<title>Node24&#45;&gt;Node2</title>
<path fill="none" stroke="#9a32cd" stroke-dasharray="5,2" d="M1276.58,-220.67C1324.76,-212.14 1390.04,-200.59 1435.57,-192.54"/>
<polygon fill="#9a32cd" stroke="#9a32cd" points="1275.8,-217.25 1266.57,-222.44 1277.02,-224.14 1275.8,-217.25"/>
<text text-anchor="middle" x="1351" y="-217" font-family="Helvetica,sans-Serif" font-size="10.00"> assignments</text>
</g>
<!-- Node25&#45;&gt;Node24 -->
<g id="edge34" class="edge">
<title>Node25&#45;&gt;Node24</title>
<path fill="none" stroke="midnightblue" d="M1094.49,-234.29C1115.49,-233.88 1137.36,-233.44 1156.37,-233.07"/>
<polygon fill="midnightblue" stroke="midnightblue" points="1094.2,-230.8 1084.27,-234.49 1094.34,-237.8 1094.2,-230.8"/>
</g>
</g>
</svg>
        <g id="navigator" transform="translate(0 0)" fill="#404254">
                <rect fill="#f2f5e9" fill-opacity="0.5" stroke="#606060" stroke-width=".5" x="0" y="0" width="60" height="60"/>
                <use id="zoomplus" xlink:href="#zoomPlus" x="17" y="9" onmousedown="handleZoom(evt,'in')"/>
                <use id="zoomminus" xlink:href="#zoomMin" x="42" y="9" onmousedown="handleZoom(evt,'out')"/>
                <use id="reset" xlink:href="#resetDef" x="30" y="36" onmousedown="handleReset()"/>
                <g id="arrowUp" xlink:href="#dirArrow" transform="translate(30 24)" onmousedown="handlePan(0,-1)">
                  <use xlink:href="#rim" fill="#404040">
                        <set attributeName="fill" to="#808080" begin="arrowUp.mouseover" end="arrowUp.mouseout"/>
                  </use>
                  <path fill="none" stroke="white" stroke-width="1.5" d="M0,-3.0v7 M-2.5,-0.5L0,-3.0L2.5,-0.5"/>
                </g>
                <g id="arrowRight" xlink:href="#dirArrow" transform="rotate(90) translate(36 -43)" onmousedown="handlePan(1,0)">
                  <use xlink:href="#rim" fill="#404040">
                        <set attributeName="fill" to="#808080" begin="arrowRight.mouseover" end="arrowRight.mouseout"/>
                  </use>
                  <path fill="none" stroke="white" stroke-width="1.5" d="M0,-3.0v7 M-2.5,-0.5L0,-3.0L2.5,-0.5"/>
                </g>
                <g id="arrowDown" xlink:href="#dirArrow" transform="rotate(180) translate(-30 -48)" onmousedown="handlePan(0,1)">
                  <use xlink:href="#rim" fill="#404040">
                        <set attributeName="fill" to="#808080" begin="arrowDown.mouseover" end="arrowDown.mouseout"/>
                  </use>
                  <path fill="none" stroke="white" stroke-width="1.5" d="M0,-3.0v7 M-2.5,-0.5L0,-3.0L2.5,-0.5"/>
                </g>
                <g id="arrowLeft" xlink:href="#dirArrow" transform="rotate(270) translate(-36 17)" onmousedown="handlePan(-1,0)">
                  <use xlink:href="#rim" fill="#404040">
                        <set attributeName="fill" to="#808080" begin="arrowLeft.mouseover" end="arrowLeft.mouseout"/>
                  </use>
                  <path fill="none" stroke="white" stroke-width="1.5" d="M0,-3.0v7 M-2.5,-0.5L0,-3.0L2.5,-0.5"/>
                </g>
        </g>
        <svg viewBox="0 0 15 15" width="100%" height="30px" preserveAspectRatio="xMaxYMin meet">
         <g id="arrow_out" transform="scale(0.3 0.3)">
          <a xlink:href="class_b_m_v2_1_1_remove_complex_expressions__coll__graph_org.svg" target="_base">
           <rect id="button" ry="5" rx="5" y="6" x="6" height="38" width="38"
                fill="#f2f5e9" fill-opacity="0.5" stroke="#606060" stroke-width="1.0"/>
           <path id="arrow"
             d="M 11.500037,31.436501 C 11.940474,20.09759 22.043105,11.32322 32.158766,21.979434 L 37.068811,17.246167 C 37.068811,17.246167 37.088388,32 37.088388,32 L 22.160133,31.978069 C 22.160133,31.978069 26.997745,27.140456 26.997745,27.140456 C 18.528582,18.264221 13.291696,25.230495 11.500037,31.436501 z"
             style="fill:#404040;"/>
          </a>
         </g>
        </svg>
</svg>
