<?xml version="1.0" encoding="UTF-8" standalone="no"?>
<!DOCTYPE svg PUBLIC "-//W3C//DTD SVG 1.1//EN"
 "http://www.w3.org/Graphics/SVG/1.1/DTD/svg11.dtd">
<!-- Generated by graphviz version 2.43.0 (0)
 -->
<!-- Title: Visitor Pages: 1 -->
<svg width="250pt" height="233pt"
 viewBox="0.00 0.00 249.73 233.00" xmlns="http://www.w3.org/2000/svg" xmlns:xlink="http://www.w3.org/1999/xlink">
<g id="graph0" class="graph" transform="scale(1 1) rotate(0) translate(4 229)">
<title>Visitor</title>
<polygon fill="white" stroke="transparent" points="-4,4 -4,-229 245.73,-229 245.73,4 -4,4"/>
<!-- Node1 -->
<g id="node1" class="node">
<title>Node1</title>
<g id="a_node1"><a xlink:title=" ">
<polygon fill="#bfbfbf" stroke="black" points="64.73,-136.5 64.73,-155.5 112.73,-155.5 112.73,-136.5 64.73,-136.5"/>
<text text-anchor="middle" x="88.73" y="-143.5" font-family="Helvetica,sans-Serif" font-size="10.00">Visitor</text>
</a>
</g>
</g>
<!-- Node1&#45;&gt;Node1 -->
<g id="edge8" class="edge">
<title>Node1&#45;&gt;Node1</title>
<path fill="none" stroke="#9a32cd" stroke-dasharray="5,2" d="M123.15,-151.29C127.7,-150.39 130.73,-148.63 130.73,-146 130.73,-141.69 122.59,-139.7 112.9,-140.04"/>
<polygon fill="#9a32cd" stroke="#9a32cd" points="122.65,-147.82 112.9,-151.96 123.1,-154.8 122.65,-147.82"/>
<text text-anchor="middle" x="155.73" y="-143.5" font-family="Helvetica,sans-Serif" font-size="10.00"> called_by</text>
</g>
<!-- Node3 -->
<g id="node3" class="node">
<title>Node3</title>
<g id="a_node3"><a xlink:href="class_split_flow_visit__base.html" target="_top" xlink:title=" ">
<polygon fill="white" stroke="black" points="32.73,-0.5 32.73,-19.5 144.73,-19.5 144.73,-0.5 32.73,-0.5"/>
<text text-anchor="middle" x="88.73" y="-7.5" font-family="Helvetica,sans-Serif" font-size="10.00">SplitFlowVisit_base</text>
</a>
</g>
</g>
<!-- Node1&#45;&gt;Node3 -->
<g id="edge7" class="edge">
<title>Node1&#45;&gt;Node3</title>
<path fill="none" stroke="#9a32cd" stroke-dasharray="5,2" d="M55.15,-132.36C36.38,-123.36 14.62,-109.23 3.73,-89 -13.18,-57.61 34.52,-32.16 65.15,-19.57"/>
<polygon fill="#9a32cd" stroke="#9a32cd" points="53.79,-135.59 64.35,-136.49 56.66,-129.2 53.79,-135.59"/>
<text text-anchor="middle" x="8.73" y="-75.5" font-family="Helvetica,sans-Serif" font-size="10.00"> v</text>
</g>
<!-- Node4 -->
<g id="node4" class="node">
<title>Node4</title>
<g id="a_node4"><a xlink:title=" ">
<polygon fill="white" stroke="#bfbfbf" points="23.23,-68.5 23.23,-87.5 154.23,-87.5 154.23,-68.5 23.23,-68.5"/>
<text text-anchor="middle" x="88.73" y="-75.5" font-family="Helvetica,sans-Serif" font-size="10.00">std::vector&lt; Visitor * &gt;</text>
</a>
</g>
</g>
<!-- Node1&#45;&gt;Node4 -->
<g id="edge6" class="edge">
<title>Node1&#45;&gt;Node4</title>
<path fill="none" stroke="#9a32cd" stroke-dasharray="5,2" d="M88.73,-126.04C88.73,-113.47 88.73,-97.56 88.73,-87.84"/>
<polygon fill="#9a32cd" stroke="#9a32cd" points="85.23,-126.37 88.73,-136.37 92.23,-126.37 85.23,-126.37"/>
<text text-anchor="middle" x="113.23" y="-110" font-family="Helvetica,sans-Serif" font-size="10.00"> elements</text>
</g>
<!-- Node2 -->
<g id="node2" class="node">
<title>Node2</title>
<g id="a_node2"><a xlink:href="classcstring.html" target="_top" xlink:title=" ">
<polygon fill="white" stroke="black" points="63.73,-204.5 63.73,-223.5 113.73,-223.5 113.73,-204.5 63.73,-204.5"/>
<text text-anchor="middle" x="88.73" y="-211.5" font-family="Helvetica,sans-Serif" font-size="10.00">cstring</text>
</a>
</g>
</g>
<!-- Node2&#45;&gt;Node1 -->
<g id="edge1" class="edge">
<title>Node2&#45;&gt;Node1</title>
<path fill="none" stroke="#9a32cd" stroke-dasharray="5,2" d="M88.73,-194.04C88.73,-181.47 88.73,-165.56 88.73,-155.84"/>
<polygon fill="#9a32cd" stroke="#9a32cd" points="85.23,-194.37 88.73,-204.37 92.23,-194.37 85.23,-194.37"/>
<text text-anchor="middle" x="123.73" y="-177" font-family="Helvetica,sans-Serif" font-size="10.00"> internalName</text>
</g>
<!-- Node2&#45;&gt;Node2 -->
<g id="edge2" class="edge">
<title>Node2&#45;&gt;Node2</title>
<path fill="none" stroke="#9a32cd" stroke-dasharray="5,2" d="M124.17,-219.58C128.72,-218.61 131.73,-216.75 131.73,-214 131.73,-209.48 123.64,-207.37 113.9,-207.65"/>
<polygon fill="#9a32cd" stroke="#9a32cd" points="123.61,-216.11 113.9,-220.35 124.13,-223.1 123.61,-216.11"/>
<text text-anchor="middle" x="151.23" y="-217" font-family="Helvetica,sans-Serif" font-size="10.00"> empty</text>
<text text-anchor="middle" x="151.23" y="-206" font-family="Helvetica,sans-Serif" font-size="10.00">newline</text>
</g>
<!-- Node3&#45;&gt;Node1 -->
<g id="edge3" class="edge">
<title>Node3&#45;&gt;Node1</title>
<path fill="none" stroke="#9a32cd" stroke-dasharray="5,2" d="M119.26,-24.27C136.13,-33.5 155.32,-47.63 163.73,-67 167.62,-75.97 166.84,-79.73 163.73,-89 155.85,-112.41 130.89,-127.76 111.9,-136.37"/>
<polygon fill="#9a32cd" stroke="#9a32cd" points="120.71,-21.08 110.21,-19.65 117.53,-27.32 120.71,-21.08"/>
<text text-anchor="middle" x="203.73" y="-81" font-family="Helvetica,sans-Serif" font-size="10.00"> split_link</text>
<text text-anchor="middle" x="203.73" y="-70" font-family="Helvetica,sans-Serif" font-size="10.00">split_link_mem</text>
</g>
<!-- Node3&#45;&gt;Node3 -->
<g id="edge4" class="edge">
<title>Node3&#45;&gt;Node3</title>
<path fill="none" stroke="#9a32cd" stroke-dasharray="5,2" d="M155.12,-14.4C159.84,-13.4 162.73,-11.93 162.73,-10 162.73,-6.91 155.35,-5.01 144.87,-4.31"/>
<polygon fill="#9a32cd" stroke="#9a32cd" points="154.35,-10.97 144.87,-15.69 155.23,-17.91 154.35,-10.97"/>
<text text-anchor="middle" x="175.23" y="-7.5" font-family="Helvetica,sans-Serif" font-size="10.00"> prev</text>
</g>
<!-- Node4&#45;&gt;Node3 -->
<g id="edge5" class="edge">
<title>Node4&#45;&gt;Node3</title>
<path fill="none" stroke="#9a32cd" stroke-dasharray="5,2" d="M88.73,-58.04C88.73,-45.47 88.73,-29.56 88.73,-19.84"/>
<polygon fill="#9a32cd" stroke="#9a32cd" points="85.23,-58.37 88.73,-68.37 92.23,-58.37 85.23,-58.37"/>
<text text-anchor="middle" x="108.73" y="-41" font-family="Helvetica,sans-Serif" font-size="10.00"> visitors</text>
</g>
</g>
</svg>
