<?xml version="1.0" encoding="UTF-8" standalone="no"?>
<!DOCTYPE svg PUBLIC "-//W3C//DTD SVG 1.1//EN"
 "http://www.w3.org/Graphics/SVG/1.1/DTD/svg11.dtd">
<!-- Generated by graphviz version 2.43.0 (0)
 -->
<!-- Title: P4::DoEliminateSwitch Pages: 1 -->
<svg width="389pt" height="233pt"
 viewBox="0.00 0.00 388.50 233.00" xmlns="http://www.w3.org/2000/svg" xmlns:xlink="http://www.w3.org/1999/xlink">
<g id="graph0" class="graph" transform="scale(1 1) rotate(0) translate(4 229)">
<title>P4::DoEliminateSwitch</title>
<polygon fill="white" stroke="transparent" points="-4,4 -4,-229 384.5,-229 384.5,4 -4,4"/>
<!-- Node1 -->
<g id="node1" class="node">
<title>Node1</title>
<g id="a_node1"><a xlink:title=" ">
<polygon fill="#bfbfbf" stroke="black" points="0,-0.5 0,-19.5 127,-19.5 127,-0.5 0,-0.5"/>
<text text-anchor="middle" x="63.5" y="-7.5" font-family="Helvetica,sans-Serif" font-size="10.00">P4::DoEliminateSwitch</text>
</a>
</g>
</g>
<!-- Node2 -->
<g id="node2" class="node">
<title>Node2</title>
<g id="a_node2"><a xlink:href="class_transform.html" target="_top" xlink:title=" ">
<polygon fill="white" stroke="black" points="31,-68.5 31,-87.5 96,-87.5 96,-68.5 31,-68.5"/>
<text text-anchor="middle" x="63.5" y="-75.5" font-family="Helvetica,sans-Serif" font-size="10.00">Transform</text>
</a>
</g>
</g>
<!-- Node2&#45;&gt;Node1 -->
<g id="edge1" class="edge">
<title>Node2&#45;&gt;Node1</title>
<path fill="none" stroke="midnightblue" d="M63.5,-58.04C63.5,-45.47 63.5,-29.56 63.5,-19.84"/>
<polygon fill="midnightblue" stroke="midnightblue" points="60,-58.37 63.5,-68.37 67,-58.37 60,-58.37"/>
</g>
<!-- Node3 -->
<g id="node3" class="node">
<title>Node3</title>
<g id="a_node3"><a xlink:href="class_visitor.html" target="_top" xlink:title=" ">
<polygon fill="white" stroke="black" points="140.5,-136.5 140.5,-155.5 188.5,-155.5 188.5,-136.5 140.5,-136.5"/>
<text text-anchor="middle" x="164.5" y="-143.5" font-family="Helvetica,sans-Serif" font-size="10.00">Visitor</text>
</a>
</g>
</g>
<!-- Node3&#45;&gt;Node2 -->
<g id="edge2" class="edge">
<title>Node3&#45;&gt;Node2</title>
<path fill="none" stroke="midnightblue" d="M139.91,-131.09C132.92,-127 125.34,-122.42 118.5,-118 103.16,-108.09 86.09,-95.77 75.1,-87.67"/>
<polygon fill="midnightblue" stroke="midnightblue" points="138.56,-134.35 148.97,-136.33 142.06,-128.29 138.56,-134.35"/>
</g>
<!-- Node3&#45;&gt;Node3 -->
<g id="edge10" class="edge">
<title>Node3&#45;&gt;Node3</title>
<path fill="none" stroke="#9a32cd" stroke-dasharray="5,2" d="M198.92,-151.29C203.48,-150.39 206.5,-148.63 206.5,-146 206.5,-141.69 198.36,-139.7 188.67,-140.04"/>
<polygon fill="#9a32cd" stroke="#9a32cd" points="198.42,-147.82 188.67,-151.96 198.88,-154.8 198.42,-147.82"/>
<text text-anchor="middle" x="231.5" y="-143.5" font-family="Helvetica,sans-Serif" font-size="10.00"> called_by</text>
</g>
<!-- Node5 -->
<g id="node5" class="node">
<title>Node5</title>
<g id="a_node5"><a xlink:href="class_split_flow_visit__base.html" target="_top" xlink:title=" ">
<polygon fill="white" stroke="black" points="170.5,-0.5 170.5,-19.5 282.5,-19.5 282.5,-0.5 170.5,-0.5"/>
<text text-anchor="middle" x="226.5" y="-7.5" font-family="Helvetica,sans-Serif" font-size="10.00">SplitFlowVisit_base</text>
</a>
</g>
</g>
<!-- Node3&#45;&gt;Node5 -->
<g id="edge9" class="edge">
<title>Node3&#45;&gt;Node5</title>
<path fill="none" stroke="#9a32cd" stroke-dasharray="5,2" d="M152.16,-127.83C142.04,-111.48 130.98,-86.53 141.5,-67 154.24,-43.35 181.82,-28.04 202.12,-19.51"/>
<polygon fill="#9a32cd" stroke="#9a32cd" points="149.38,-129.97 157.83,-136.36 155.2,-126.1 149.38,-129.97"/>
<text text-anchor="middle" x="146.5" y="-75.5" font-family="Helvetica,sans-Serif" font-size="10.00"> v</text>
</g>
<!-- Node6 -->
<g id="node6" class="node">
<title>Node6</title>
<g id="a_node6"><a xlink:title=" ">
<polygon fill="white" stroke="#bfbfbf" points="161,-68.5 161,-87.5 292,-87.5 292,-68.5 161,-68.5"/>
<text text-anchor="middle" x="226.5" y="-75.5" font-family="Helvetica,sans-Serif" font-size="10.00">std::vector&lt; Visitor * &gt;</text>
</a>
</g>
</g>
<!-- Node3&#45;&gt;Node6 -->
<g id="edge8" class="edge">
<title>Node3&#45;&gt;Node6</title>
<path fill="none" stroke="#9a32cd" stroke-dasharray="5,2" d="M179.49,-129.05C191.64,-116.11 208.32,-98.36 218.19,-87.84"/>
<polygon fill="#9a32cd" stroke="#9a32cd" points="176.9,-126.69 172.61,-136.37 182,-131.48 176.9,-126.69"/>
<text text-anchor="middle" x="224" y="-110" font-family="Helvetica,sans-Serif" font-size="10.00"> elements</text>
</g>
<!-- Node4 -->
<g id="node4" class="node">
<title>Node4</title>
<g id="a_node4"><a xlink:href="classcstring.html" target="_top" xlink:title=" ">
<polygon fill="white" stroke="black" points="139.5,-204.5 139.5,-223.5 189.5,-223.5 189.5,-204.5 139.5,-204.5"/>
<text text-anchor="middle" x="164.5" y="-211.5" font-family="Helvetica,sans-Serif" font-size="10.00">cstring</text>
</a>
</g>
</g>
<!-- Node4&#45;&gt;Node3 -->
<g id="edge3" class="edge">
<title>Node4&#45;&gt;Node3</title>
<path fill="none" stroke="#9a32cd" stroke-dasharray="5,2" d="M164.5,-194.04C164.5,-181.47 164.5,-165.56 164.5,-155.84"/>
<polygon fill="#9a32cd" stroke="#9a32cd" points="161,-194.37 164.5,-204.37 168,-194.37 161,-194.37"/>
<text text-anchor="middle" x="199.5" y="-177" font-family="Helvetica,sans-Serif" font-size="10.00"> internalName</text>
</g>
<!-- Node4&#45;&gt;Node4 -->
<g id="edge4" class="edge">
<title>Node4&#45;&gt;Node4</title>
<path fill="none" stroke="#9a32cd" stroke-dasharray="5,2" d="M199.95,-219.58C204.5,-218.61 207.5,-216.75 207.5,-214 207.5,-209.48 199.41,-207.37 189.68,-207.65"/>
<polygon fill="#9a32cd" stroke="#9a32cd" points="199.39,-216.11 189.68,-220.35 199.91,-223.1 199.39,-216.11"/>
<text text-anchor="middle" x="227" y="-217" font-family="Helvetica,sans-Serif" font-size="10.00"> empty</text>
<text text-anchor="middle" x="227" y="-206" font-family="Helvetica,sans-Serif" font-size="10.00">newline</text>
</g>
<!-- Node5&#45;&gt;Node3 -->
<g id="edge5" class="edge">
<title>Node5&#45;&gt;Node3</title>
<path fill="none" stroke="#9a32cd" stroke-dasharray="5,2" d="M255.55,-24.16C282.57,-38.38 316.57,-62.58 301.5,-89 278.85,-128.73 221.46,-140.29 188.6,-143.64"/>
<polygon fill="#9a32cd" stroke="#9a32cd" points="256.88,-20.91 246.38,-19.56 253.75,-27.17 256.88,-20.91"/>
<text text-anchor="middle" x="342.5" y="-81" font-family="Helvetica,sans-Serif" font-size="10.00"> split_link</text>
<text text-anchor="middle" x="342.5" y="-70" font-family="Helvetica,sans-Serif" font-size="10.00">split_link_mem</text>
</g>
<!-- Node5&#45;&gt;Node5 -->
<g id="edge6" class="edge">
<title>Node5&#45;&gt;Node5</title>
<path fill="none" stroke="#9a32cd" stroke-dasharray="5,2" d="M292.9,-14.4C297.62,-13.4 300.5,-11.93 300.5,-10 300.5,-6.91 293.12,-5.01 282.65,-4.31"/>
<polygon fill="#9a32cd" stroke="#9a32cd" points="292.13,-10.97 282.65,-15.69 293.01,-17.91 292.13,-10.97"/>
<text text-anchor="middle" x="313" y="-7.5" font-family="Helvetica,sans-Serif" font-size="10.00"> prev</text>
</g>
<!-- Node6&#45;&gt;Node5 -->
<g id="edge7" class="edge">
<title>Node6&#45;&gt;Node5</title>
<path fill="none" stroke="#9a32cd" stroke-dasharray="5,2" d="M226.5,-58.04C226.5,-45.47 226.5,-29.56 226.5,-19.84"/>
<polygon fill="#9a32cd" stroke="#9a32cd" points="223,-58.37 226.5,-68.37 230,-58.37 223,-58.37"/>
<text text-anchor="middle" x="246.5" y="-41" font-family="Helvetica,sans-Serif" font-size="10.00"> visitors</text>
</g>
</g>
</svg>
