<?xml version="1.0" encoding="UTF-8" standalone="no"?>
<!DOCTYPE svg PUBLIC "-//W3C//DTD SVG 1.1//EN"
 "http://www.w3.org/Graphics/SVG/1.1/DTD/svg11.dtd">
<!-- Generated by graphviz version 2.43.0 (0)
 -->
<!-- Title: EbpfOptions Pages: 1 -->
<!--zoomable 494 -->
<svg id="main" version="1.1" xmlns="http://www.w3.org/2000/svg" xmlns:xlink="http://www.w3.org/1999/xlink" xml:space="preserve" onload="init(evt)">
<style type="text/css"><![CDATA[
.edge:hover path { stroke: red; }
.edge:hover polygon { stroke: red; fill: red; }
]]></style>
<script type="text/javascript"><![CDATA[
var edges = document.getElementsByTagName('g');
if (edges && edges.length) {
  for (var i=0;i<edges.length;i++) {
    if (edges[i].id.substr(0,4)=='edge') {
      edges[i].setAttribute('class','edge');
    }
  }
}
]]></script>
        <defs>
                <circle id="rim" cx="0" cy="0" r="7"/>
                <circle id="rim2" cx="0" cy="0" r="3.5"/>
                <g id="zoomPlus">
                        <use xlink:href="#rim" fill="#404040">
                                <set attributeName="fill" to="#808080" begin="zoomplus.mouseover" end="zoomplus.mouseout"/>
                        </use>
                        <path d="M-4,0h8M0,-4v8" fill="none" stroke="white" stroke-width="1.5" pointer-events="none"/>
                </g>
                <g id="zoomMin">
                        <use xlink:href="#rim" fill="#404040">
                                <set attributeName="fill" to="#808080" begin="zoomminus.mouseover" end="zoomminus.mouseout"/>
                        </use>
                        <path d="M-4,0h8" fill="none" stroke="white" stroke-width="1.5" pointer-events="none"/>
                </g>
                <g id="dirArrow">
                        <path fill="none" stroke="white" stroke-width="1.5" d="M0,-3.0v7 M-2.5,-0.5L0,-3.0L2.5,-0.5"/>
                </g>
               <g id="resetDef">
                       <use xlink:href="#rim2" fill="#404040">
                               <set attributeName="fill" to="#808080" begin="reset.mouseover" end="reset.mouseout"/>
                       </use>
               </g>
        </defs>

<script type="text/javascript">
var viewWidth = 1407;
var viewHeight = 494;
var sectionId = 'dynsection-1';
</script>
<script xlink:href="svgpan.js"/>
<svg id="graph" class="graph">
<g id="viewport">
<title>EbpfOptions</title>
<polygon fill="white" stroke="transparent" points="-4,4 -4,-489.5 1403,-489.5 1403,4 -4,4"/>
<!-- Node1 -->
<g id="node1" class="node">
<title>Node1</title>
<g id="a_node1"><a xlink:title=" ">
<polygon fill="#bfbfbf" stroke="black" points="1323,-407 1323,-426 1399,-426 1399,-407 1323,-407"/>
<text text-anchor="middle" x="1361" y="-414" font-family="Helvetica,sans-Serif" font-size="10.00">EbpfOptions</text>
</a>
</g>
</g>
<!-- Node2 -->
<g id="node2" class="node">
<title>Node2</title>
<g id="a_node2"><a xlink:href="class_compiler_options.html" target="_top" xlink:title=" ">
<polygon fill="white" stroke="black" points="1188,-350 1188,-369 1286,-369 1286,-350 1188,-350"/>
<text text-anchor="middle" x="1237" y="-357" font-family="Helvetica,sans-Serif" font-size="10.00">CompilerOptions</text>
</a>
</g>
</g>
<!-- Node2&#45;&gt;Node1 -->
<g id="edge1" class="edge">
<title>Node2&#45;&gt;Node1</title>
<path fill="none" stroke="midnightblue" d="M1267.74,-373.4C1290,-383.8 1319.87,-397.75 1339.51,-406.93"/>
<polygon fill="midnightblue" stroke="midnightblue" points="1268.96,-370.1 1258.42,-369.04 1266,-376.44 1268.96,-370.1"/>
</g>
<!-- Node3 -->
<g id="node3" class="node">
<title>Node3</title>
<g id="a_node3"><a xlink:href="class_parser_options.html" target="_top" xlink:title=" ">
<polygon fill="white" stroke="black" points="1067,-252 1067,-271 1151,-271 1151,-252 1067,-252"/>
<text text-anchor="middle" x="1109" y="-259" font-family="Helvetica,sans-Serif" font-size="10.00">ParserOptions</text>
</a>
</g>
</g>
<!-- Node3&#45;&gt;Node2 -->
<g id="edge2" class="edge">
<title>Node3&#45;&gt;Node2</title>
<path fill="none" stroke="midnightblue" d="M1130.72,-277.62C1157.1,-298.14 1201.85,-332.94 1223.51,-349.78"/>
<polygon fill="midnightblue" stroke="midnightblue" points="1132.58,-274.63 1122.54,-271.25 1128.29,-280.16 1132.58,-274.63"/>
</g>
<!-- Node4 -->
<g id="node4" class="node">
<title>Node4</title>
<g id="a_node4"><a xlink:href="class_util_1_1_options.html" target="_top" xlink:title=" ">
<polygon fill="white" stroke="black" points="827,-111 827,-130 904,-130 904,-111 827,-111"/>
<text text-anchor="middle" x="865.5" y="-118" font-family="Helvetica,sans-Serif" font-size="10.00">Util::Options</text>
</a>
</g>
</g>
<!-- Node4&#45;&gt;Node3 -->
<g id="edge3" class="edge">
<title>Node4&#45;&gt;Node3</title>
<path fill="none" stroke="midnightblue" d="M914.23,-124.9C953.59,-130.55 1009.21,-143.4 1049,-172.5 1077.88,-193.62 1096.75,-233.48 1104.29,-251.82"/>
<polygon fill="midnightblue" stroke="midnightblue" points="914.47,-121.4 904.1,-123.55 913.55,-128.34 914.47,-121.4"/>
</g>
<!-- Node5 -->
<g id="node5" class="node">
<title>Node5</title>
<g id="a_node5"><a xlink:title=" ">
<polygon fill="white" stroke="#bfbfbf" points="564,-139 564,-180 674,-180 674,-139 564,-139"/>
<text text-anchor="start" x="572" y="-168" font-family="Helvetica,sans-Serif" font-size="10.00">std::map&lt; cstring,</text>
<text text-anchor="start" x="572" y="-157" font-family="Helvetica,sans-Serif" font-size="10.00"> const Util::Options</text>
<text text-anchor="middle" x="619" y="-146" font-family="Helvetica,sans-Serif" font-size="10.00">::Option * &gt;</text>
</a>
</g>
</g>
<!-- Node5&#45;&gt;Node4 -->
<g id="edge4" class="edge">
<title>Node5&#45;&gt;Node4</title>
<path fill="none" stroke="#9a32cd" stroke-dasharray="5,2" d="M683.88,-140.73C688.97,-139.53 694.06,-138.44 699,-137.5 742.42,-129.29 793.06,-124.82 826.77,-122.55"/>
<polygon fill="#9a32cd" stroke="#9a32cd" points="682.99,-137.34 674.11,-143.13 684.66,-144.14 682.99,-137.34"/>
<text text-anchor="middle" x="754" y="-140.5" font-family="Helvetica,sans-Serif" font-size="10.00"> options</text>
</g>
<!-- Node6 -->
<g id="node6" class="node">
<title>Node6</title>
<g id="a_node6"><a xlink:href="classcstring.html" target="_top" xlink:title=" ">
<polygon fill="white" stroke="black" points="156,-229 156,-248 206,-248 206,-229 156,-229"/>
<text text-anchor="middle" x="181" y="-236" font-family="Helvetica,sans-Serif" font-size="10.00">cstring</text>
</a>
</g>
</g>
<!-- Node6&#45;&gt;Node1 -->
<g id="edge21" class="edge">
<title>Node6&#45;&gt;Node1</title>
<path fill="none" stroke="#9a32cd" stroke-dasharray="5,2" d="M187.28,-257.86C203.94,-314.27 261.05,-474.5 372,-474.5 372,-474.5 372,-474.5 1238,-474.5 1282.56,-474.5 1328.18,-442.55 1348.74,-426.08"/>
<polygon fill="#9a32cd" stroke="#9a32cd" points="190.58,-256.7 184.48,-248.04 183.85,-258.62 190.58,-256.7"/>
<text text-anchor="middle" x="865.5" y="-477.5" font-family="Helvetica,sans-Serif" font-size="10.00"> outputFile</text>
</g>
<!-- Node6&#45;&gt;Node2 -->
<g id="edge19" class="edge">
<title>Node6&#45;&gt;Node2</title>
<path fill="none" stroke="#9a32cd" stroke-dasharray="5,2" d="M194.87,-256.28C222.72,-292.52 292.57,-371.5 372,-371.5 372,-371.5 372,-371.5 1110,-371.5 1135.82,-371.5 1164.48,-368.97 1187.94,-366.24"/>
<polygon fill="#9a32cd" stroke="#9a32cd" points="197.5,-253.97 188.71,-248.07 191.9,-258.17 197.5,-253.97"/>
<text text-anchor="middle" x="754" y="-451.5" font-family="Helvetica,sans-Serif" font-size="10.00"> arch</text>
<text text-anchor="middle" x="754" y="-440.5" font-family="Helvetica,sans-Serif" font-size="10.00">dumpJsonFile</text>
<text text-anchor="middle" x="754" y="-429.5" font-family="Helvetica,sans-Serif" font-size="10.00">p4RuntimeEntriesFile</text>
<text text-anchor="middle" x="754" y="-418.5" font-family="Helvetica,sans-Serif" font-size="10.00">p4RuntimeEntriesFiles</text>
<text text-anchor="middle" x="754" y="-407.5" font-family="Helvetica,sans-Serif" font-size="10.00">p4RuntimeFile</text>
<text text-anchor="middle" x="754" y="-396.5" font-family="Helvetica,sans-Serif" font-size="10.00">p4RuntimeFiles</text>
<text text-anchor="middle" x="754" y="-385.5" font-family="Helvetica,sans-Serif" font-size="10.00">prettyPrintFile</text>
<text text-anchor="middle" x="754" y="-374.5" font-family="Helvetica,sans-Serif" font-size="10.00">target</text>
</g>
<!-- Node6&#45;&gt;Node3 -->
<g id="edge17" class="edge">
<title>Node6&#45;&gt;Node3</title>
<path fill="none" stroke="#9a32cd" stroke-dasharray="5,2" d="M216.04,-243.45C230.49,-245.35 247.54,-247.35 263,-248.5 555.18,-270.25 629.04,-261.72 922,-265.5 978.44,-266.23 992.59,-267.41 1049,-265.5 1054.75,-265.31 1060.8,-265 1066.76,-264.65"/>
<polygon fill="#9a32cd" stroke="#9a32cd" points="216.42,-239.97 206.04,-242.09 215.48,-246.9 216.42,-239.97"/>
<text text-anchor="middle" x="619" y="-321.5" font-family="Helvetica,sans-Serif" font-size="10.00"> compilerVersion</text>
<text text-anchor="middle" x="619" y="-310.5" font-family="Helvetica,sans-Serif" font-size="10.00">dumpFolder</text>
<text text-anchor="middle" x="619" y="-299.5" font-family="Helvetica,sans-Serif" font-size="10.00">exe_name</text>
<text text-anchor="middle" x="619" y="-288.5" font-family="Helvetica,sans-Serif" font-size="10.00">file</text>
<text text-anchor="start" x="578" y="-277.5" font-family="Helvetica,sans-Serif" font-size="10.00">preprocessor</text>
<text text-anchor="middle" x="619" y="-266.5" font-family="Helvetica,sans-Serif" font-size="10.00">_options</text>
</g>
<!-- Node6&#45;&gt;Node4 -->
<g id="edge10" class="edge">
<title>Node6&#45;&gt;Node4</title>
<path fill="none" stroke="#9a32cd" stroke-dasharray="5,2" d="M194.96,-220.65C209.7,-201.36 235.33,-170.66 263,-150.5 283.57,-135.51 290.46,-133.25 315,-126.5 501.29,-75.29 736.69,-101.34 826.94,-114.47"/>
<polygon fill="#9a32cd" stroke="#9a32cd" points="192,-218.77 188.81,-228.88 197.6,-222.96 192,-218.77"/>
<text text-anchor="middle" x="494" y="-126.5" font-family="Helvetica,sans-Serif" font-size="10.00"> buildDate</text>
<text text-anchor="middle" x="494" y="-115.5" font-family="Helvetica,sans-Serif" font-size="10.00">compileCommand</text>
<text text-anchor="middle" x="494" y="-104.5" font-family="Helvetica,sans-Serif" font-size="10.00">message</text>
</g>
<!-- Node6&#45;&gt;Node5 -->
<g id="edge5" class="edge">
<title>Node6&#45;&gt;Node5</title>
<path fill="none" stroke="#9a32cd" stroke-dasharray="5,2" d="M216.06,-232.01C242.92,-226.91 281.34,-219.66 315,-213.5 401.99,-197.57 503.14,-179.67 563.79,-169"/>
<polygon fill="#9a32cd" stroke="#9a32cd" points="215.18,-228.61 206.01,-233.92 216.49,-235.49 215.18,-228.61"/>
<text text-anchor="middle" x="373" y="-216.5" font-family="Helvetica,sans-Serif" font-size="10.00"> keys</text>
</g>
<!-- Node6&#45;&gt;Node6 -->
<g id="edge6" class="edge">
<title>Node6&#45;&gt;Node6</title>
<path fill="none" stroke="#9a32cd" stroke-dasharray="5,2" d="M165.9,-258.27C167.09,-263 172.12,-266.5 181,-266.5 195.57,-266.5 199.79,-257.07 193.64,-248.26"/>
<polygon fill="#9a32cd" stroke="#9a32cd" points="169.37,-258.8 168.36,-248.26 162.57,-257.13 169.37,-258.8"/>
<text text-anchor="middle" x="181" y="-280.5" font-family="Helvetica,sans-Serif" font-size="10.00"> empty</text>
<text text-anchor="middle" x="181" y="-269.5" font-family="Helvetica,sans-Serif" font-size="10.00">newline</text>
</g>
<!-- Node7 -->
<g id="node7" class="node">
<title>Node7</title>
<g id="a_node7"><a xlink:href="class_util_1_1_options.html#struct_util_1_1_options_1_1_option" target="_top" xlink:title=" ">
<polygon fill="white" stroke="black" points="315,-136 315,-155 431,-155 431,-136 315,-136"/>
<text text-anchor="middle" x="373" y="-143" font-family="Helvetica,sans-Serif" font-size="10.00">Util::Options::Option</text>
</a>
</g>
</g>
<!-- Node6&#45;&gt;Node7 -->
<g id="edge8" class="edge">
<title>Node6&#45;&gt;Node7</title>
<path fill="none" stroke="#9a32cd" stroke-dasharray="5,2" d="M196.69,-220.83C211.61,-204.12 236.28,-179.69 263,-166.5 278.99,-158.61 297.65,-153.68 314.97,-150.6"/>
<polygon fill="#9a32cd" stroke="#9a32cd" points="193.72,-218.92 189.82,-228.77 199.01,-223.5 193.72,-218.92"/>
<text text-anchor="middle" x="280" y="-169.5" font-family="Helvetica,sans-Serif" font-size="10.00"> option</text>
</g>
<!-- Node9 -->
<g id="node9" class="node">
<title>Node9</title>
<g id="a_node9"><a xlink:title=" ">
<polygon fill="white" stroke="#bfbfbf" points="557,-213 557,-232 681,-232 681,-213 557,-213"/>
<text text-anchor="middle" x="619" y="-220" font-family="Helvetica,sans-Serif" font-size="10.00">std::vector&lt; cstring &gt;</text>
</a>
</g>
</g>
<!-- Node6&#45;&gt;Node9 -->
<g id="edge12" class="edge">
<title>Node6&#45;&gt;Node9</title>
<path fill="none" stroke="#9a32cd" stroke-dasharray="5,2" d="M216.16,-237.25C289.71,-234.55 463.91,-228.15 556.95,-224.74"/>
<polygon fill="#9a32cd" stroke="#9a32cd" points="215.93,-233.75 206.06,-237.62 216.18,-240.75 215.93,-233.75"/>
<text text-anchor="middle" x="373" y="-235.5" font-family="Helvetica,sans-Serif" font-size="10.00"> elements</text>
</g>
<!-- Node7&#45;&gt;Node5 -->
<g id="edge7" class="edge">
<title>Node7&#45;&gt;Node5</title>
<path fill="none" stroke="#9a32cd" stroke-dasharray="5,2" d="M441.3,-149.36C479.83,-151.57 527.54,-154.31 563.66,-156.38"/>
<polygon fill="#9a32cd" stroke="#9a32cd" points="441.39,-145.86 431.21,-148.78 440.99,-152.85 441.39,-145.86"/>
<text text-anchor="middle" x="494" y="-157.5" font-family="Helvetica,sans-Serif" font-size="10.00"> elements</text>
</g>
<!-- Node8 -->
<g id="node8" class="node">
<title>Node8</title>
<g id="a_node8"><a xlink:title=" ">
<polygon fill="white" stroke="#bfbfbf" points="566,-44.5 566,-74.5 672,-74.5 672,-44.5 566,-44.5"/>
<text text-anchor="start" x="574" y="-62.5" font-family="Helvetica,sans-Serif" font-size="10.00">std::vector&lt; const</text>
<text text-anchor="middle" x="619" y="-51.5" font-family="Helvetica,sans-Serif" font-size="10.00"> char * &gt;</text>
</a>
</g>
</g>
<!-- Node8&#45;&gt;Node4 -->
<g id="edge9" class="edge">
<title>Node8&#45;&gt;Node4</title>
<path fill="none" stroke="#9a32cd" stroke-dasharray="5,2" d="M682.72,-51.32C720.72,-48.95 769.36,-50.63 809,-67.5 830.58,-76.68 848.72,-98.29 857.95,-110.9"/>
<polygon fill="#9a32cd" stroke="#9a32cd" points="682.01,-47.86 672.3,-52.09 682.52,-54.84 682.01,-47.86"/>
<text text-anchor="middle" x="754" y="-81.5" font-family="Helvetica,sans-Serif" font-size="10.00"> additionalUsage</text>
<text text-anchor="middle" x="754" y="-70.5" font-family="Helvetica,sans-Serif" font-size="10.00">remainingOptions</text>
</g>
<!-- Node9&#45;&gt;Node2 -->
<g id="edge20" class="edge">
<title>Node9&#45;&gt;Node2</title>
<path fill="none" stroke="#9a32cd" stroke-dasharray="5,2" d="M691.31,-212.29C776.86,-201.88 924.34,-189.84 1049,-209.5 1096.06,-216.92 1112.44,-214.52 1151,-242.5 1191.85,-272.14 1220.95,-327.36 1231.57,-349.72"/>
<polygon fill="#9a32cd" stroke="#9a32cd" points="690.68,-208.84 681.19,-213.54 691.55,-215.78 690.68,-208.84"/>
<text text-anchor="middle" x="985.5" y="-234.5" font-family="Helvetica,sans-Serif" font-size="10.00"> passesToExcludeBackend</text>
<text text-anchor="middle" x="985.5" y="-223.5" font-family="Helvetica,sans-Serif" font-size="10.00">passesToExcludeFrontend</text>
<text text-anchor="middle" x="985.5" y="-212.5" font-family="Helvetica,sans-Serif" font-size="10.00">passesToExcludeMidend</text>
</g>
<!-- Node9&#45;&gt;Node3 -->
<g id="edge18" class="edge">
<title>Node9&#45;&gt;Node3</title>
<path fill="none" stroke="#9a32cd" stroke-dasharray="5,2" d="M691.37,-228.2C794.99,-236.48 983.75,-251.57 1066.85,-258.21"/>
<polygon fill="#9a32cd" stroke="#9a32cd" points="691.56,-224.71 681.31,-227.4 691,-231.69 691.56,-224.71"/>
<text text-anchor="middle" x="865.5" y="-247.5" font-family="Helvetica,sans-Serif" font-size="10.00"> top4</text>
</g>
<!-- Node9&#45;&gt;Node4 -->
<g id="edge11" class="edge">
<title>Node9&#45;&gt;Node4</title>
<path fill="none" stroke="#9a32cd" stroke-dasharray="5,2" d="M650.22,-208.37C660.38,-203.04 671.54,-196.55 681,-189.5 690.07,-182.74 689.05,-176.88 699,-171.5 742.93,-147.74 761.86,-165 809,-148.5 822.65,-143.72 837.22,-136.27 848,-130.26"/>
<polygon fill="#9a32cd" stroke="#9a32cd" points="648.58,-205.27 641.23,-212.91 651.74,-211.52 648.58,-205.27"/>
<text text-anchor="middle" x="754" y="-174.5" font-family="Helvetica,sans-Serif" font-size="10.00"> optionOrder</text>
</g>
<!-- Node10 -->
<g id="node10" class="node">
<title>Node10</title>
<g id="a_node10"><a xlink:title=" ">
<polygon fill="white" stroke="#bfbfbf" points="580,-6 580,-25 658,-25 658,-6 580,-6"/>
<text text-anchor="middle" x="619" y="-13" font-family="Helvetica,sans-Serif" font-size="10.00">std::ostream</text>
</a>
</g>
</g>
<!-- Node10&#45;&gt;Node4 -->
<g id="edge13" class="edge">
<title>Node10&#45;&gt;Node4</title>
<path fill="none" stroke="#9a32cd" stroke-dasharray="5,2" d="M668.34,-9.32C708.85,-6.59 766.69,-8.62 809,-34.5 838.41,-52.49 855.12,-92.6 861.49,-110.98"/>
<polygon fill="#9a32cd" stroke="#9a32cd" points="667.87,-5.85 658.18,-10.13 668.42,-12.83 667.87,-5.85"/>
<text text-anchor="middle" x="754" y="-37.5" font-family="Helvetica,sans-Serif" font-size="10.00"> outStream</text>
</g>
<!-- Node11 -->
<g id="node11" class="node">
<title>Node11</title>
<g id="a_node11"><a xlink:title=" ">
<polygon fill="white" stroke="#bfbfbf" points="318.5,-0.5 318.5,-30.5 427.5,-30.5 427.5,-0.5 318.5,-0.5"/>
<text text-anchor="start" x="326.5" y="-18.5" font-family="Helvetica,sans-Serif" font-size="10.00">std::basic_ostream</text>
<text text-anchor="middle" x="373" y="-7.5" font-family="Helvetica,sans-Serif" font-size="10.00">&lt; Char &gt;</text>
</a>
</g>
</g>
<!-- Node11&#45;&gt;Node10 -->
<g id="edge14" class="edge">
<title>Node11&#45;&gt;Node10</title>
<path fill="none" stroke="midnightblue" d="M437.81,-15.5C482.86,-15.5 541.74,-15.5 579.72,-15.5"/>
<polygon fill="midnightblue" stroke="midnightblue" points="437.55,-12 427.55,-15.5 437.55,-19 437.55,-12"/>
</g>
<!-- Node12 -->
<g id="node12" class="node">
<title>Node12</title>
<g id="a_node12"><a xlink:title=" ">
<polygon fill="white" stroke="#bfbfbf" points="117,-6 117,-25 245,-25 245,-6 117,-6"/>
<text text-anchor="middle" x="181" y="-13" font-family="Helvetica,sans-Serif" font-size="10.00">std::basic_ios&lt; Char &gt;</text>
</a>
</g>
</g>
<!-- Node12&#45;&gt;Node11 -->
<g id="edge15" class="edge">
<title>Node12&#45;&gt;Node11</title>
<path fill="none" stroke="midnightblue" d="M255.19,-15.5C276.22,-15.5 298.77,-15.5 318.38,-15.5"/>
<polygon fill="midnightblue" stroke="midnightblue" points="255,-12 245,-15.5 255,-19 255,-12"/>
</g>
<!-- Node13 -->
<g id="node13" class="node">
<title>Node13</title>
<g id="a_node13"><a xlink:title=" ">
<polygon fill="white" stroke="#bfbfbf" points="0,-6 0,-25 80,-25 80,-6 0,-6"/>
<text text-anchor="middle" x="40" y="-13" font-family="Helvetica,sans-Serif" font-size="10.00">std::ios_base</text>
</a>
</g>
</g>
<!-- Node13&#45;&gt;Node12 -->
<g id="edge16" class="edge">
<title>Node13&#45;&gt;Node12</title>
<path fill="none" stroke="midnightblue" d="M90.28,-15.5C98.85,-15.5 107.87,-15.5 116.75,-15.5"/>
<polygon fill="midnightblue" stroke="midnightblue" points="90.09,-12 80.09,-15.5 90.09,-19 90.09,-12"/>
</g>
</g>
</svg>
        <g id="navigator" transform="translate(0 0)" fill="#404254">
                <rect fill="#f2f5e9" fill-opacity="0.5" stroke="#606060" stroke-width=".5" x="0" y="0" width="60" height="60"/>
                <use id="zoomplus" xlink:href="#zoomPlus" x="17" y="9" onmousedown="handleZoom(evt,'in')"/>
                <use id="zoomminus" xlink:href="#zoomMin" x="42" y="9" onmousedown="handleZoom(evt,'out')"/>
                <use id="reset" xlink:href="#resetDef" x="30" y="36" onmousedown="handleReset()"/>
                <g id="arrowUp" xlink:href="#dirArrow" transform="translate(30 24)" onmousedown="handlePan(0,-1)">
                  <use xlink:href="#rim" fill="#404040">
                        <set attributeName="fill" to="#808080" begin="arrowUp.mouseover" end="arrowUp.mouseout"/>
                  </use>
                  <path fill="none" stroke="white" stroke-width="1.5" d="M0,-3.0v7 M-2.5,-0.5L0,-3.0L2.5,-0.5"/>
                </g>
                <g id="arrowRight" xlink:href="#dirArrow" transform="rotate(90) translate(36 -43)" onmousedown="handlePan(1,0)">
                  <use xlink:href="#rim" fill="#404040">
                        <set attributeName="fill" to="#808080" begin="arrowRight.mouseover" end="arrowRight.mouseout"/>
                  </use>
                  <path fill="none" stroke="white" stroke-width="1.5" d="M0,-3.0v7 M-2.5,-0.5L0,-3.0L2.5,-0.5"/>
                </g>
                <g id="arrowDown" xlink:href="#dirArrow" transform="rotate(180) translate(-30 -48)" onmousedown="handlePan(0,1)">
                  <use xlink:href="#rim" fill="#404040">
                        <set attributeName="fill" to="#808080" begin="arrowDown.mouseover" end="arrowDown.mouseout"/>
                  </use>
                  <path fill="none" stroke="white" stroke-width="1.5" d="M0,-3.0v7 M-2.5,-0.5L0,-3.0L2.5,-0.5"/>
                </g>
                <g id="arrowLeft" xlink:href="#dirArrow" transform="rotate(270) translate(-36 17)" onmousedown="handlePan(-1,0)">
                  <use xlink:href="#rim" fill="#404040">
                        <set attributeName="fill" to="#808080" begin="arrowLeft.mouseover" end="arrowLeft.mouseout"/>
                  </use>
                  <path fill="none" stroke="white" stroke-width="1.5" d="M0,-3.0v7 M-2.5,-0.5L0,-3.0L2.5,-0.5"/>
                </g>
        </g>
        <svg viewBox="0 0 15 15" width="100%" height="30px" preserveAspectRatio="xMaxYMin meet">
         <g id="arrow_out" transform="scale(0.3 0.3)">
          <a xlink:href="class_ebpf_options__coll__graph_org.svg" target="_base">
           <rect id="button" ry="5" rx="5" y="6" x="6" height="38" width="38"
                fill="#f2f5e9" fill-opacity="0.5" stroke="#606060" stroke-width="1.0"/>
           <path id="arrow"
             d="M 11.500037,31.436501 C 11.940474,20.09759 22.043105,11.32322 32.158766,21.979434 L 37.068811,17.246167 C 37.068811,17.246167 37.088388,32 37.088388,32 L 22.160133,31.978069 C 22.160133,31.978069 26.997745,27.140456 26.997745,27.140456 C 18.528582,18.264221 13.291696,25.230495 11.500037,31.436501 z"
             style="fill:#404040;"/>
          </a>
         </g>
        </svg>
</svg>
