<?xml version="1.0" encoding="UTF-8" standalone="no"?>
<!DOCTYPE svg PUBLIC "-//W3C//DTD SVG 1.1//EN"
 "http://www.w3.org/Graphics/SVG/1.1/DTD/svg11.dtd">
<!-- Generated by graphviz version 2.43.0 (0)
 -->
<!-- Title: P4::PacketIn Pages: 1 -->
<svg width="182pt" height="311pt"
 viewBox="0.00 0.00 182.00 311.00" xmlns="http://www.w3.org/2000/svg" xmlns:xlink="http://www.w3.org/1999/xlink">
<g id="graph0" class="graph" transform="scale(1 1) rotate(0) translate(4 307)">
<title>P4::PacketIn</title>
<polygon fill="white" stroke="transparent" points="-4,4 -4,-307 178,-307 178,4 -4,4"/>
<!-- Node1 -->
<g id="node1" class="node">
<title>Node1</title>
<g id="a_node1"><a xlink:title=" ">
<polygon fill="#bfbfbf" stroke="black" points="1,-0.5 1,-19.5 76,-19.5 76,-0.5 1,-0.5"/>
<text text-anchor="middle" x="38.5" y="-7.5" font-family="Helvetica,sans-Serif" font-size="10.00">P4::PacketIn</text>
</a>
</g>
</g>
<!-- Node2 -->
<g id="node2" class="node">
<title>Node2</title>
<g id="a_node2"><a xlink:href="struct_model_1_1_extern___model.html" target="_top" xlink:title="Extern_Model : Type_Model.">
<polygon fill="white" stroke="black" points="55,-57.5 55,-76.5 174,-76.5 174,-57.5 55,-57.5"/>
<text text-anchor="middle" x="114.5" y="-64.5" font-family="Helvetica,sans-Serif" font-size="10.00">Model::Extern_Model</text>
</a>
</g>
</g>
<!-- Node2&#45;&gt;Node1 -->
<g id="edge1" class="edge">
<title>Node2&#45;&gt;Node1</title>
<path fill="none" stroke="midnightblue" d="M94.17,-51.29C80.24,-41.21 62.25,-28.19 50.54,-19.71"/>
<polygon fill="midnightblue" stroke="midnightblue" points="92.47,-54.38 102.62,-57.41 96.58,-48.71 92.47,-54.38"/>
</g>
<!-- Node3 -->
<g id="node3" class="node">
<title>Node3</title>
<g id="a_node3"><a xlink:href="struct_model_1_1_type___model.html" target="_top" xlink:title=" ">
<polygon fill="white" stroke="black" points="56.5,-157.5 56.5,-176.5 166.5,-176.5 166.5,-157.5 56.5,-157.5"/>
<text text-anchor="middle" x="111.5" y="-164.5" font-family="Helvetica,sans-Serif" font-size="10.00">Model::Type_Model</text>
</a>
</g>
</g>
<!-- Node3&#45;&gt;Node2 -->
<g id="edge2" class="edge">
<title>Node3&#45;&gt;Node2</title>
<path fill="none" stroke="midnightblue" d="M112.07,-147.22C112.73,-125.95 113.76,-92.22 114.24,-76.54"/>
<polygon fill="midnightblue" stroke="midnightblue" points="108.57,-147.2 111.77,-157.3 115.57,-147.41 108.57,-147.2"/>
</g>
<!-- Node4 -->
<g id="node4" class="node">
<title>Node4</title>
<g id="a_node4"><a xlink:href="struct_model_1_1_elem.html" target="_top" xlink:title=" ">
<polygon fill="white" stroke="black" points="0,-214.5 0,-233.5 77,-233.5 77,-214.5 0,-214.5"/>
<text text-anchor="middle" x="38.5" y="-221.5" font-family="Helvetica,sans-Serif" font-size="10.00">Model::Elem</text>
</a>
</g>
</g>
<!-- Node4&#45;&gt;Node1 -->
<g id="edge6" class="edge">
<title>Node4&#45;&gt;Node1</title>
<path fill="none" stroke="#9a32cd" stroke-dasharray="5,2" d="M38.5,-204.29C38.5,-160.33 38.5,-51.76 38.5,-19.92"/>
<polygon fill="#9a32cd" stroke="#9a32cd" points="35,-204.43 38.5,-214.43 42,-204.43 35,-204.43"/>
<text text-anchor="middle" x="64" y="-131" font-family="Helvetica,sans-Serif" font-size="10.00"> advance</text>
<text text-anchor="middle" x="64" y="-120" font-family="Helvetica,sans-Serif" font-size="10.00">extract</text>
<text text-anchor="middle" x="64" y="-109" font-family="Helvetica,sans-Serif" font-size="10.00">length</text>
<text text-anchor="middle" x="64" y="-98" font-family="Helvetica,sans-Serif" font-size="10.00">lookahead</text>
</g>
<!-- Node4&#45;&gt;Node3 -->
<g id="edge3" class="edge">
<title>Node4&#45;&gt;Node3</title>
<path fill="none" stroke="midnightblue" d="M58.03,-208.29C71.4,-198.21 88.69,-185.19 99.93,-176.71"/>
<polygon fill="midnightblue" stroke="midnightblue" points="55.79,-205.59 49.91,-214.41 60,-211.18 55.79,-205.59"/>
</g>
<!-- Node5 -->
<g id="node5" class="node">
<title>Node5</title>
<g id="a_node5"><a xlink:href="classcstring.html" target="_top" xlink:title=" ">
<polygon fill="white" stroke="black" points="13.5,-282.5 13.5,-301.5 63.5,-301.5 63.5,-282.5 13.5,-282.5"/>
<text text-anchor="middle" x="38.5" y="-289.5" font-family="Helvetica,sans-Serif" font-size="10.00">cstring</text>
</a>
</g>
</g>
<!-- Node5&#45;&gt;Node4 -->
<g id="edge4" class="edge">
<title>Node5&#45;&gt;Node4</title>
<path fill="none" stroke="#9a32cd" stroke-dasharray="5,2" d="M38.5,-272.04C38.5,-259.47 38.5,-243.56 38.5,-233.84"/>
<polygon fill="#9a32cd" stroke="#9a32cd" points="35,-272.37 38.5,-282.37 42,-272.37 35,-272.37"/>
<text text-anchor="middle" x="54" y="-255" font-family="Helvetica,sans-Serif" font-size="10.00"> name</text>
</g>
<!-- Node5&#45;&gt;Node5 -->
<g id="edge5" class="edge">
<title>Node5&#45;&gt;Node5</title>
<path fill="none" stroke="#9a32cd" stroke-dasharray="5,2" d="M73.95,-297.58C78.5,-296.61 81.5,-294.75 81.5,-292 81.5,-287.48 73.41,-285.37 63.68,-285.65"/>
<polygon fill="#9a32cd" stroke="#9a32cd" points="73.39,-294.11 63.68,-298.35 73.91,-301.1 73.39,-294.11"/>
<text text-anchor="middle" x="101" y="-295" font-family="Helvetica,sans-Serif" font-size="10.00"> empty</text>
<text text-anchor="middle" x="101" y="-284" font-family="Helvetica,sans-Serif" font-size="10.00">newline</text>
</g>
</g>
</svg>
