<?xml version="1.0" encoding="UTF-8" standalone="no"?>
<!DOCTYPE svg PUBLIC "-//W3C//DTD SVG 1.1//EN"
 "http://www.w3.org/Graphics/SVG/1.1/DTD/svg11.dtd">
<!-- Generated by graphviz version 2.43.0 (0)
 -->
<!-- Title: P4::RemoveComplexComparisons Pages: 1 -->
<svg width="715pt" height="233pt"
 viewBox="0.00 0.00 714.93 233.00" xmlns="http://www.w3.org/2000/svg" xmlns:xlink="http://www.w3.org/1999/xlink">
<g id="graph0" class="graph" transform="scale(1 1) rotate(0) translate(4 229)">
<title>P4::RemoveComplexComparisons</title>
<polygon fill="white" stroke="transparent" points="-4,4 -4,-229 710.93,-229 710.93,4 -4,4"/>
<!-- Node1 -->
<g id="node1" class="node">
<title>Node1</title>
<g id="a_node1"><a xlink:title=" ">
<polygon fill="#bfbfbf" stroke="black" points="312.43,-0.5 312.43,-19.5 494.43,-19.5 494.43,-0.5 312.43,-0.5"/>
<text text-anchor="middle" x="403.43" y="-7.5" font-family="Helvetica,sans-Serif" font-size="10.00">P4::RemoveComplexComparisons</text>
</a>
</g>
</g>
<!-- Node2 -->
<g id="node2" class="node">
<title>Node2</title>
<g id="a_node2"><a xlink:href="class_transform.html" target="_top" xlink:title=" ">
<polygon fill="white" stroke="black" points="280.93,-68.5 280.93,-87.5 345.93,-87.5 345.93,-68.5 280.93,-68.5"/>
<text text-anchor="middle" x="313.43" y="-75.5" font-family="Helvetica,sans-Serif" font-size="10.00">Transform</text>
</a>
</g>
</g>
<!-- Node2&#45;&gt;Node1 -->
<g id="edge1" class="edge">
<title>Node2&#45;&gt;Node1</title>
<path fill="none" stroke="midnightblue" d="M333.26,-62.46C351.14,-49.34 376.84,-30.5 391.66,-19.63"/>
<polygon fill="midnightblue" stroke="midnightblue" points="331.19,-59.64 325.19,-68.37 335.33,-65.28 331.19,-59.64"/>
</g>
<!-- Node3 -->
<g id="node3" class="node">
<title>Node3</title>
<g id="a_node3"><a xlink:href="class_visitor.html" target="_top" xlink:title=" ">
<polygon fill="white" stroke="black" points="173.43,-136.5 173.43,-155.5 221.43,-155.5 221.43,-136.5 173.43,-136.5"/>
<text text-anchor="middle" x="197.43" y="-143.5" font-family="Helvetica,sans-Serif" font-size="10.00">Visitor</text>
</a>
</g>
</g>
<!-- Node3&#45;&gt;Node2 -->
<g id="edge2" class="edge">
<title>Node3&#45;&gt;Node2</title>
<path fill="none" stroke="midnightblue" d="M224.35,-131.83C232.78,-127.56 242.06,-122.71 250.43,-118 267.92,-108.16 287.48,-95.83 300.1,-87.7"/>
<polygon fill="midnightblue" stroke="midnightblue" points="222.67,-128.76 215.29,-136.36 225.8,-135.02 222.67,-128.76"/>
</g>
<!-- Node3&#45;&gt;Node3 -->
<g id="edge10" class="edge">
<title>Node3&#45;&gt;Node3</title>
<path fill="none" stroke="#9a32cd" stroke-dasharray="5,2" d="M231.85,-151.29C236.41,-150.39 239.43,-148.63 239.43,-146 239.43,-141.69 231.29,-139.7 221.6,-140.04"/>
<polygon fill="#9a32cd" stroke="#9a32cd" points="231.35,-147.82 221.6,-151.96 231.81,-154.8 231.35,-147.82"/>
<text text-anchor="middle" x="264.43" y="-143.5" font-family="Helvetica,sans-Serif" font-size="10.00"> called_by</text>
</g>
<!-- Node5 -->
<g id="node5" class="node">
<title>Node5</title>
<g id="a_node5"><a xlink:href="class_split_flow_visit__base.html" target="_top" xlink:title=" ">
<polygon fill="white" stroke="black" points="47.43,-0.5 47.43,-19.5 159.43,-19.5 159.43,-0.5 47.43,-0.5"/>
<text text-anchor="middle" x="103.43" y="-7.5" font-family="Helvetica,sans-Serif" font-size="10.00">SplitFlowVisit_base</text>
</a>
</g>
</g>
<!-- Node3&#45;&gt;Node5 -->
<g id="edge9" class="edge">
<title>Node3&#45;&gt;Node5</title>
<path fill="none" stroke="#9a32cd" stroke-dasharray="5,2" d="M165.41,-132.24C146.78,-123.08 124.63,-108.83 112.43,-89 99,-67.17 100.44,-35.34 102.15,-19.97"/>
<polygon fill="#9a32cd" stroke="#9a32cd" points="163.95,-135.42 174.49,-136.45 166.89,-129.07 163.95,-135.42"/>
<text text-anchor="middle" x="117.43" y="-75.5" font-family="Helvetica,sans-Serif" font-size="10.00"> v</text>
</g>
<!-- Node6 -->
<g id="node6" class="node">
<title>Node6</title>
<g id="a_node6"><a xlink:title=" ">
<polygon fill="white" stroke="#bfbfbf" points="131.93,-68.5 131.93,-87.5 262.93,-87.5 262.93,-68.5 131.93,-68.5"/>
<text text-anchor="middle" x="197.43" y="-75.5" font-family="Helvetica,sans-Serif" font-size="10.00">std::vector&lt; Visitor * &gt;</text>
</a>
</g>
</g>
<!-- Node3&#45;&gt;Node6 -->
<g id="edge8" class="edge">
<title>Node3&#45;&gt;Node6</title>
<path fill="none" stroke="#9a32cd" stroke-dasharray="5,2" d="M197.43,-126.04C197.43,-113.47 197.43,-97.56 197.43,-87.84"/>
<polygon fill="#9a32cd" stroke="#9a32cd" points="193.93,-126.37 197.43,-136.37 200.93,-126.37 193.93,-126.37"/>
<text text-anchor="middle" x="221.93" y="-110" font-family="Helvetica,sans-Serif" font-size="10.00"> elements</text>
</g>
<!-- Node4 -->
<g id="node4" class="node">
<title>Node4</title>
<g id="a_node4"><a xlink:href="classcstring.html" target="_top" xlink:title=" ">
<polygon fill="white" stroke="black" points="201.43,-204.5 201.43,-223.5 251.43,-223.5 251.43,-204.5 201.43,-204.5"/>
<text text-anchor="middle" x="226.43" y="-211.5" font-family="Helvetica,sans-Serif" font-size="10.00">cstring</text>
</a>
</g>
</g>
<!-- Node4&#45;&gt;Node3 -->
<g id="edge3" class="edge">
<title>Node4&#45;&gt;Node3</title>
<path fill="none" stroke="#9a32cd" stroke-dasharray="5,2" d="M218.6,-195.19C213.01,-182.45 205.72,-165.86 201.31,-155.84"/>
<polygon fill="#9a32cd" stroke="#9a32cd" points="215.41,-196.62 222.64,-204.37 221.82,-193.81 215.41,-196.62"/>
<text text-anchor="middle" x="249.43" y="-177" font-family="Helvetica,sans-Serif" font-size="10.00"> internalName</text>
</g>
<!-- Node4&#45;&gt;Node4 -->
<g id="edge4" class="edge">
<title>Node4&#45;&gt;Node4</title>
<path fill="none" stroke="#9a32cd" stroke-dasharray="5,2" d="M261.87,-219.58C266.42,-218.61 269.43,-216.75 269.43,-214 269.43,-209.48 261.34,-207.37 251.6,-207.65"/>
<polygon fill="#9a32cd" stroke="#9a32cd" points="261.32,-216.11 251.6,-220.35 261.84,-223.1 261.32,-216.11"/>
<text text-anchor="middle" x="288.93" y="-217" font-family="Helvetica,sans-Serif" font-size="10.00"> empty</text>
<text text-anchor="middle" x="288.93" y="-206" font-family="Helvetica,sans-Serif" font-size="10.00">newline</text>
</g>
<!-- Node8 -->
<g id="node8" class="node">
<title>Node8</title>
<g id="a_node8"><a xlink:href="class_p4_1_1_program_map.html" target="_top" xlink:title=" ">
<polygon fill="white" stroke="black" points="335.93,-136.5 335.93,-155.5 432.93,-155.5 432.93,-136.5 335.93,-136.5"/>
<text text-anchor="middle" x="384.43" y="-143.5" font-family="Helvetica,sans-Serif" font-size="10.00">P4::ProgramMap</text>
</a>
</g>
</g>
<!-- Node4&#45;&gt;Node8 -->
<g id="edge14" class="edge">
<title>Node4&#45;&gt;Node8</title>
<path fill="none" stroke="#9a32cd" stroke-dasharray="5,2" d="M256.65,-200.38C288.08,-187.25 336.44,-167.05 363.77,-155.63"/>
<polygon fill="#9a32cd" stroke="#9a32cd" points="254.96,-197.29 247.08,-204.37 257.66,-203.75 254.96,-197.29"/>
<text text-anchor="middle" x="343.93" y="-177" font-family="Helvetica,sans-Serif" font-size="10.00"> mapKind</text>
</g>
<!-- Node5&#45;&gt;Node3 -->
<g id="edge5" class="edge">
<title>Node5&#45;&gt;Node3</title>
<path fill="none" stroke="#9a32cd" stroke-dasharray="5,2" d="M65.69,-23.05C30.05,-36.49 -15.1,-60.19 5.43,-89 25.08,-116.57 126.19,-134.63 173.27,-141.67"/>
<polygon fill="#9a32cd" stroke="#9a32cd" points="67.21,-26.22 75.42,-19.53 64.83,-19.64 67.21,-26.22"/>
<text text-anchor="middle" x="43.43" y="-81" font-family="Helvetica,sans-Serif" font-size="10.00"> split_link</text>
<text text-anchor="middle" x="43.43" y="-70" font-family="Helvetica,sans-Serif" font-size="10.00">split_link_mem</text>
</g>
<!-- Node5&#45;&gt;Node5 -->
<g id="edge6" class="edge">
<title>Node5&#45;&gt;Node5</title>
<path fill="none" stroke="#9a32cd" stroke-dasharray="5,2" d="M169.83,-14.4C174.55,-13.4 177.43,-11.93 177.43,-10 177.43,-6.91 170.05,-5.01 159.57,-4.31"/>
<polygon fill="#9a32cd" stroke="#9a32cd" points="169.06,-10.97 159.57,-15.69 169.93,-17.91 169.06,-10.97"/>
<text text-anchor="middle" x="189.93" y="-7.5" font-family="Helvetica,sans-Serif" font-size="10.00"> prev</text>
</g>
<!-- Node6&#45;&gt;Node5 -->
<g id="edge7" class="edge">
<title>Node6&#45;&gt;Node5</title>
<path fill="none" stroke="#9a32cd" stroke-dasharray="5,2" d="M176.71,-62.46C158.04,-49.34 131.2,-30.5 115.72,-19.63"/>
<polygon fill="#9a32cd" stroke="#9a32cd" points="174.94,-65.49 185.14,-68.37 178.97,-59.76 174.94,-65.49"/>
<text text-anchor="middle" x="176.43" y="-41" font-family="Helvetica,sans-Serif" font-size="10.00"> visitors</text>
</g>
<!-- Node7 -->
<g id="node7" class="node">
<title>Node7</title>
<g id="a_node7"><a xlink:href="class_p4_1_1_type_map.html" target="_top" xlink:title=" ">
<polygon fill="white" stroke="black" points="364.43,-68.5 364.43,-87.5 442.43,-87.5 442.43,-68.5 364.43,-68.5"/>
<text text-anchor="middle" x="403.43" y="-75.5" font-family="Helvetica,sans-Serif" font-size="10.00">P4::TypeMap</text>
</a>
</g>
</g>
<!-- Node7&#45;&gt;Node1 -->
<g id="edge11" class="edge">
<title>Node7&#45;&gt;Node1</title>
<path fill="none" stroke="#9a32cd" stroke-dasharray="5,2" d="M403.43,-58.04C403.43,-45.47 403.43,-29.56 403.43,-19.84"/>
<polygon fill="#9a32cd" stroke="#9a32cd" points="399.93,-58.37 403.43,-68.37 406.93,-58.37 399.93,-58.37"/>
<text text-anchor="middle" x="426.43" y="-41" font-family="Helvetica,sans-Serif" font-size="10.00"> typeMap</text>
</g>
<!-- Node8&#45;&gt;Node7 -->
<g id="edge12" class="edge">
<title>Node8&#45;&gt;Node7</title>
<path fill="none" stroke="midnightblue" d="M389.78,-126.42C393.41,-113.8 398.06,-97.66 400.88,-87.84"/>
<polygon fill="midnightblue" stroke="midnightblue" points="386.32,-125.79 386.91,-136.37 393.04,-127.73 386.32,-125.79"/>
</g>
<!-- Node10 -->
<g id="node10" class="node">
<title>Node10</title>
<g id="a_node10"><a xlink:href="class_p4_1_1_reference_map.html" target="_top" xlink:title="Class used to encode maps from paths to declarations.">
<polygon fill="white" stroke="black" points="460.93,-68.5 460.93,-87.5 565.93,-87.5 565.93,-68.5 460.93,-68.5"/>
<text text-anchor="middle" x="513.43" y="-75.5" font-family="Helvetica,sans-Serif" font-size="10.00">P4::ReferenceMap</text>
</a>
</g>
</g>
<!-- Node8&#45;&gt;Node10 -->
<g id="edge16" class="edge">
<title>Node8&#45;&gt;Node10</title>
<path fill="none" stroke="midnightblue" d="M410.45,-131.69C436.13,-118.55 474.64,-98.85 496.56,-87.63"/>
<polygon fill="midnightblue" stroke="midnightblue" points="408.6,-128.7 401.29,-136.37 411.79,-134.93 408.6,-128.7"/>
</g>
<!-- Node9 -->
<g id="node9" class="node">
<title>Node9</title>
<g id="a_node9"><a xlink:href="class_i_has_db_print.html" target="_top" xlink:title=" ">
<polygon fill="white" stroke="black" points="347.43,-204.5 347.43,-223.5 421.43,-223.5 421.43,-204.5 347.43,-204.5"/>
<text text-anchor="middle" x="384.43" y="-211.5" font-family="Helvetica,sans-Serif" font-size="10.00">IHasDbPrint</text>
</a>
</g>
</g>
<!-- Node9&#45;&gt;Node8 -->
<g id="edge13" class="edge">
<title>Node9&#45;&gt;Node8</title>
<path fill="none" stroke="midnightblue" d="M384.43,-194.04C384.43,-181.47 384.43,-165.56 384.43,-155.84"/>
<polygon fill="midnightblue" stroke="midnightblue" points="380.93,-194.37 384.43,-204.37 387.93,-194.37 380.93,-194.37"/>
</g>
<!-- Node10&#45;&gt;Node1 -->
<g id="edge15" class="edge">
<title>Node10&#45;&gt;Node1</title>
<path fill="none" stroke="#9a32cd" stroke-dasharray="5,2" d="M492.34,-62.69C480.96,-55.12 466.58,-45.81 453.43,-38 442.57,-31.55 430.07,-24.8 420.29,-19.67"/>
<polygon fill="#9a32cd" stroke="#9a32cd" points="490.49,-65.67 500.74,-68.33 494.39,-59.85 490.49,-65.67"/>
<text text-anchor="middle" x="488.43" y="-41" font-family="Helvetica,sans-Serif" font-size="10.00"> refMap</text>
</g>
<!-- Node11 -->
<g id="node11" class="node">
<title>Node11</title>
<g id="a_node11"><a xlink:href="class_p4_1_1_name_generator.html" target="_top" xlink:title=" ">
<polygon fill="white" stroke="black" points="593.93,-136.5 593.93,-155.5 706.93,-155.5 706.93,-136.5 593.93,-136.5"/>
<text text-anchor="middle" x="650.43" y="-143.5" font-family="Helvetica,sans-Serif" font-size="10.00">P4::NameGenerator</text>
</a>
</g>
</g>
<!-- Node11&#45;&gt;Node10 -->
<g id="edge17" class="edge">
<title>Node11&#45;&gt;Node10</title>
<path fill="none" stroke="midnightblue" d="M623.16,-131.86C595.89,-118.72 554.73,-98.9 531.34,-87.63"/>
<polygon fill="midnightblue" stroke="midnightblue" points="621.99,-135.18 632.52,-136.37 625.03,-128.88 621.99,-135.18"/>
</g>
<!-- Node12 -->
<g id="node12" class="node">
<title>Node12</title>
<g id="a_node12"><a xlink:href="class_p4_1_1_declaration_lookup.html" target="_top" xlink:title=" ">
<polygon fill="white" stroke="black" points="450.93,-136.5 450.93,-155.5 575.93,-155.5 575.93,-136.5 450.93,-136.5"/>
<text text-anchor="middle" x="513.43" y="-143.5" font-family="Helvetica,sans-Serif" font-size="10.00">P4::DeclarationLookup</text>
</a>
</g>
</g>
<!-- Node12&#45;&gt;Node10 -->
<g id="edge18" class="edge">
<title>Node12&#45;&gt;Node10</title>
<path fill="none" stroke="midnightblue" d="M513.43,-126.04C513.43,-113.47 513.43,-97.56 513.43,-87.84"/>
<polygon fill="midnightblue" stroke="midnightblue" points="509.93,-126.37 513.43,-136.37 516.93,-126.37 509.93,-126.37"/>
</g>
</g>
</svg>
