<?xml version="1.0" encoding="UTF-8" standalone="no"?>
<!DOCTYPE svg PUBLIC "-//W3C//DTD SVG 1.1//EN"
 "http://www.w3.org/Graphics/SVG/1.1/DTD/svg11.dtd">
<!-- Generated by graphviz version 2.43.0 (0)
 -->
<!-- Title: P4::DoStrengthReduction Pages: 1 -->
<svg width="394pt" height="233pt"
 viewBox="0.00 0.00 394.00 233.00" xmlns="http://www.w3.org/2000/svg" xmlns:xlink="http://www.w3.org/1999/xlink">
<g id="graph0" class="graph" transform="scale(1 1) rotate(0) translate(4 229)">
<title>P4::DoStrengthReduction</title>
<polygon fill="white" stroke="transparent" points="-4,4 -4,-229 390,-229 390,4 -4,4"/>
<!-- Node1 -->
<g id="node1" class="node">
<title>Node1</title>
<g id="a_node1"><a xlink:title=" ">
<polygon fill="#bfbfbf" stroke="black" points="0,-0.5 0,-19.5 138,-19.5 138,-0.5 0,-0.5"/>
<text text-anchor="middle" x="69" y="-7.5" font-family="Helvetica,sans-Serif" font-size="10.00">P4::DoStrengthReduction</text>
</a>
</g>
</g>
<!-- Node2 -->
<g id="node2" class="node">
<title>Node2</title>
<g id="a_node2"><a xlink:href="class_transform.html" target="_top" xlink:title=" ">
<polygon fill="white" stroke="black" points="36.5,-68.5 36.5,-87.5 101.5,-87.5 101.5,-68.5 36.5,-68.5"/>
<text text-anchor="middle" x="69" y="-75.5" font-family="Helvetica,sans-Serif" font-size="10.00">Transform</text>
</a>
</g>
</g>
<!-- Node2&#45;&gt;Node1 -->
<g id="edge1" class="edge">
<title>Node2&#45;&gt;Node1</title>
<path fill="none" stroke="midnightblue" d="M69,-58.04C69,-45.47 69,-29.56 69,-19.84"/>
<polygon fill="midnightblue" stroke="midnightblue" points="65.5,-58.37 69,-68.37 72.5,-58.37 65.5,-58.37"/>
</g>
<!-- Node3 -->
<g id="node3" class="node">
<title>Node3</title>
<g id="a_node3"><a xlink:href="class_visitor.html" target="_top" xlink:title=" ">
<polygon fill="white" stroke="black" points="146,-136.5 146,-155.5 194,-155.5 194,-136.5 146,-136.5"/>
<text text-anchor="middle" x="170" y="-143.5" font-family="Helvetica,sans-Serif" font-size="10.00">Visitor</text>
</a>
</g>
</g>
<!-- Node3&#45;&gt;Node2 -->
<g id="edge2" class="edge">
<title>Node3&#45;&gt;Node2</title>
<path fill="none" stroke="midnightblue" d="M145.41,-131.09C138.42,-127 130.84,-122.42 124,-118 108.66,-108.09 91.59,-95.77 80.6,-87.67"/>
<polygon fill="midnightblue" stroke="midnightblue" points="144.06,-134.35 154.47,-136.33 147.56,-128.29 144.06,-134.35"/>
</g>
<!-- Node3&#45;&gt;Node3 -->
<g id="edge10" class="edge">
<title>Node3&#45;&gt;Node3</title>
<path fill="none" stroke="#9a32cd" stroke-dasharray="5,2" d="M204.42,-151.29C208.98,-150.39 212,-148.63 212,-146 212,-141.69 203.86,-139.7 194.17,-140.04"/>
<polygon fill="#9a32cd" stroke="#9a32cd" points="203.92,-147.82 194.17,-151.96 204.38,-154.8 203.92,-147.82"/>
<text text-anchor="middle" x="237" y="-143.5" font-family="Helvetica,sans-Serif" font-size="10.00"> called_by</text>
</g>
<!-- Node5 -->
<g id="node5" class="node">
<title>Node5</title>
<g id="a_node5"><a xlink:href="class_split_flow_visit__base.html" target="_top" xlink:title=" ">
<polygon fill="white" stroke="black" points="176,-0.5 176,-19.5 288,-19.5 288,-0.5 176,-0.5"/>
<text text-anchor="middle" x="232" y="-7.5" font-family="Helvetica,sans-Serif" font-size="10.00">SplitFlowVisit_base</text>
</a>
</g>
</g>
<!-- Node3&#45;&gt;Node5 -->
<g id="edge9" class="edge">
<title>Node3&#45;&gt;Node5</title>
<path fill="none" stroke="#9a32cd" stroke-dasharray="5,2" d="M157.66,-127.83C147.54,-111.48 136.48,-86.53 147,-67 159.74,-43.35 187.32,-28.04 207.62,-19.51"/>
<polygon fill="#9a32cd" stroke="#9a32cd" points="154.88,-129.97 163.33,-136.36 160.7,-126.1 154.88,-129.97"/>
<text text-anchor="middle" x="152" y="-75.5" font-family="Helvetica,sans-Serif" font-size="10.00"> v</text>
</g>
<!-- Node6 -->
<g id="node6" class="node">
<title>Node6</title>
<g id="a_node6"><a xlink:title=" ">
<polygon fill="white" stroke="#bfbfbf" points="166.5,-68.5 166.5,-87.5 297.5,-87.5 297.5,-68.5 166.5,-68.5"/>
<text text-anchor="middle" x="232" y="-75.5" font-family="Helvetica,sans-Serif" font-size="10.00">std::vector&lt; Visitor * &gt;</text>
</a>
</g>
</g>
<!-- Node3&#45;&gt;Node6 -->
<g id="edge8" class="edge">
<title>Node3&#45;&gt;Node6</title>
<path fill="none" stroke="#9a32cd" stroke-dasharray="5,2" d="M184.99,-129.05C197.14,-116.11 213.82,-98.36 223.69,-87.84"/>
<polygon fill="#9a32cd" stroke="#9a32cd" points="182.4,-126.69 178.11,-136.37 187.5,-131.48 182.4,-126.69"/>
<text text-anchor="middle" x="229.5" y="-110" font-family="Helvetica,sans-Serif" font-size="10.00"> elements</text>
</g>
<!-- Node4 -->
<g id="node4" class="node">
<title>Node4</title>
<g id="a_node4"><a xlink:href="classcstring.html" target="_top" xlink:title=" ">
<polygon fill="white" stroke="black" points="145,-204.5 145,-223.5 195,-223.5 195,-204.5 145,-204.5"/>
<text text-anchor="middle" x="170" y="-211.5" font-family="Helvetica,sans-Serif" font-size="10.00">cstring</text>
</a>
</g>
</g>
<!-- Node4&#45;&gt;Node3 -->
<g id="edge3" class="edge">
<title>Node4&#45;&gt;Node3</title>
<path fill="none" stroke="#9a32cd" stroke-dasharray="5,2" d="M170,-194.04C170,-181.47 170,-165.56 170,-155.84"/>
<polygon fill="#9a32cd" stroke="#9a32cd" points="166.5,-194.37 170,-204.37 173.5,-194.37 166.5,-194.37"/>
<text text-anchor="middle" x="205" y="-177" font-family="Helvetica,sans-Serif" font-size="10.00"> internalName</text>
</g>
<!-- Node4&#45;&gt;Node4 -->
<g id="edge4" class="edge">
<title>Node4&#45;&gt;Node4</title>
<path fill="none" stroke="#9a32cd" stroke-dasharray="5,2" d="M205.45,-219.58C210,-218.61 213,-216.75 213,-214 213,-209.48 204.91,-207.37 195.18,-207.65"/>
<polygon fill="#9a32cd" stroke="#9a32cd" points="204.89,-216.11 195.18,-220.35 205.41,-223.1 204.89,-216.11"/>
<text text-anchor="middle" x="232.5" y="-217" font-family="Helvetica,sans-Serif" font-size="10.00"> empty</text>
<text text-anchor="middle" x="232.5" y="-206" font-family="Helvetica,sans-Serif" font-size="10.00">newline</text>
</g>
<!-- Node5&#45;&gt;Node3 -->
<g id="edge5" class="edge">
<title>Node5&#45;&gt;Node3</title>
<path fill="none" stroke="#9a32cd" stroke-dasharray="5,2" d="M261.05,-24.16C288.07,-38.38 322.07,-62.58 307,-89 284.35,-128.73 226.96,-140.29 194.1,-143.64"/>
<polygon fill="#9a32cd" stroke="#9a32cd" points="262.38,-20.91 251.88,-19.56 259.25,-27.17 262.38,-20.91"/>
<text text-anchor="middle" x="348" y="-81" font-family="Helvetica,sans-Serif" font-size="10.00"> split_link</text>
<text text-anchor="middle" x="348" y="-70" font-family="Helvetica,sans-Serif" font-size="10.00">split_link_mem</text>
</g>
<!-- Node5&#45;&gt;Node5 -->
<g id="edge6" class="edge">
<title>Node5&#45;&gt;Node5</title>
<path fill="none" stroke="#9a32cd" stroke-dasharray="5,2" d="M298.4,-14.4C303.12,-13.4 306,-11.93 306,-10 306,-6.91 298.62,-5.01 288.15,-4.31"/>
<polygon fill="#9a32cd" stroke="#9a32cd" points="297.63,-10.97 288.15,-15.69 298.51,-17.91 297.63,-10.97"/>
<text text-anchor="middle" x="318.5" y="-7.5" font-family="Helvetica,sans-Serif" font-size="10.00"> prev</text>
</g>
<!-- Node6&#45;&gt;Node5 -->
<g id="edge7" class="edge">
<title>Node6&#45;&gt;Node5</title>
<path fill="none" stroke="#9a32cd" stroke-dasharray="5,2" d="M232,-58.04C232,-45.47 232,-29.56 232,-19.84"/>
<polygon fill="#9a32cd" stroke="#9a32cd" points="228.5,-58.37 232,-68.37 235.5,-58.37 228.5,-58.37"/>
<text text-anchor="middle" x="252" y="-41" font-family="Helvetica,sans-Serif" font-size="10.00"> visitors</text>
</g>
</g>
</svg>
