<?xml version="1.0" encoding="UTF-8" standalone="no"?>
<!DOCTYPE svg PUBLIC "-//W3C//DTD SVG 1.1//EN"
 "http://www.w3.org/Graphics/SVG/1.1/DTD/svg11.dtd">
<!-- Generated by graphviz version 2.43.0 (0)
 -->
<!-- Title: P4::ActionCall Pages: 1 -->
<svg width="1095pt" height="335pt"
 viewBox="0.00 0.00 1095.00 334.73" xmlns="http://www.w3.org/2000/svg" xmlns:xlink="http://www.w3.org/1999/xlink">
<g id="graph0" class="graph" transform="scale(1 1) rotate(0) translate(4 330.73)">
<title>P4::ActionCall</title>
<polygon fill="white" stroke="transparent" points="-4,4 -4,-330.73 1091,-330.73 1091,4 -4,4"/>
<!-- Node1 -->
<g id="node1" class="node">
<title>Node1</title>
<g id="a_node1"><a xlink:title=" ">
<polygon fill="#bfbfbf" stroke="black" points="1003,-81.23 1003,-100.23 1087,-100.23 1087,-81.23 1003,-81.23"/>
<text text-anchor="middle" x="1045" y="-88.23" font-family="Helvetica,sans-Serif" font-size="10.00">P4::ActionCall</text>
</a>
</g>
</g>
<!-- Node2 -->
<g id="node2" class="node">
<title>Node2</title>
<g id="a_node2"><a xlink:href="class_p4_1_1_method_instance.html" target="_top" xlink:title=" ">
<polygon fill="white" stroke="black" points="853,-81.23 853,-100.23 966,-100.23 966,-81.23 853,-81.23"/>
<text text-anchor="middle" x="909.5" y="-88.23" font-family="Helvetica,sans-Serif" font-size="10.00">P4::MethodInstance</text>
</a>
</g>
</g>
<!-- Node2&#45;&gt;Node1 -->
<g id="edge1" class="edge">
<title>Node2&#45;&gt;Node1</title>
<path fill="none" stroke="midnightblue" d="M976.38,-90.73C985.31,-90.73 994.27,-90.73 1002.6,-90.73"/>
<polygon fill="midnightblue" stroke="midnightblue" points="976.34,-87.23 966.34,-90.73 976.34,-94.23 976.34,-87.23"/>
</g>
<!-- Node3 -->
<g id="node3" class="node">
<title>Node3</title>
<g id="a_node3"><a xlink:href="class_p4_1_1_instance_base.html" target="_top" xlink:title=" ">
<polygon fill="white" stroke="black" points="683,-108.23 683,-127.23 783,-127.23 783,-108.23 683,-108.23"/>
<text text-anchor="middle" x="733" y="-115.23" font-family="Helvetica,sans-Serif" font-size="10.00">P4::InstanceBase</text>
</a>
</g>
</g>
<!-- Node3&#45;&gt;Node2 -->
<g id="edge2" class="edge">
<title>Node3&#45;&gt;Node2</title>
<path fill="none" stroke="midnightblue" d="M792.96,-108.61C812.27,-105.62 833.66,-102.31 852.73,-99.36"/>
<polygon fill="midnightblue" stroke="midnightblue" points="792.42,-105.15 783.07,-110.14 793.49,-112.07 792.42,-105.15"/>
</g>
<!-- Node4 -->
<g id="node4" class="node">
<title>Node4</title>
<g id="a_node4"><a xlink:href="class_i_castable.html" target="_top" xlink:title=" ">
<polygon fill="white" stroke="black" points="172,-112.23 172,-131.23 234,-131.23 234,-112.23 172,-112.23"/>
<text text-anchor="middle" x="203" y="-119.23" font-family="Helvetica,sans-Serif" font-size="10.00">ICastable</text>
</a>
</g>
</g>
<!-- Node4&#45;&gt;Node3 -->
<g id="edge3" class="edge">
<title>Node4&#45;&gt;Node3</title>
<path fill="none" stroke="midnightblue" d="M244.4,-121.43C339.84,-120.7 579.03,-118.89 682.75,-118.11"/>
<polygon fill="midnightblue" stroke="midnightblue" points="244.26,-117.93 234.28,-121.5 244.31,-124.93 244.26,-117.93"/>
</g>
<!-- Node15 -->
<g id="node15" class="node">
<title>Node15</title>
<g id="a_node15"><a xlink:href="class_i_r_1_1_i_node.html" target="_top" xlink:title=" ">
<polygon fill="white" stroke="black" points="455,-30.23 455,-49.23 516,-49.23 516,-30.23 455,-30.23"/>
<text text-anchor="middle" x="485.5" y="-37.23" font-family="Helvetica,sans-Serif" font-size="10.00">IR::INode</text>
</a>
</g>
</g>
<!-- Node4&#45;&gt;Node15 -->
<g id="edge20" class="edge">
<title>Node4&#45;&gt;Node15</title>
<path fill="none" stroke="midnightblue" d="M243.74,-110.12C300.6,-93.49 403.92,-63.29 454.7,-48.45"/>
<polygon fill="midnightblue" stroke="midnightblue" points="242.63,-106.79 234.02,-112.96 244.6,-113.51 242.63,-106.79"/>
</g>
<!-- Node5 -->
<g id="node5" class="node">
<title>Node5</title>
<g id="a_node5"><a xlink:href="struct_r_t_t_i_1_1_base.html" target="_top" xlink:title=" ">
<polygon fill="white" stroke="black" points="3,-175.23 3,-194.23 71,-194.23 71,-175.23 3,-175.23"/>
<text text-anchor="middle" x="37" y="-182.23" font-family="Helvetica,sans-Serif" font-size="10.00">RTTI::Base</text>
</a>
</g>
</g>
<!-- Node5&#45;&gt;Node4 -->
<g id="edge4" class="edge">
<title>Node5&#45;&gt;Node4</title>
<path fill="none" stroke="midnightblue" d="M72.54,-171.46C103.85,-159.44 149.25,-142 177.13,-131.29"/>
<polygon fill="midnightblue" stroke="midnightblue" points="70.99,-168.31 62.91,-175.16 73.5,-174.85 70.99,-168.31"/>
</g>
<!-- Node6 -->
<g id="node6" class="node">
<title>Node6</title>
<g id="a_node6"><a xlink:href="class_p4_1_1_parameter_substitution.html" target="_top" xlink:title=" ">
<polygon fill="white" stroke="black" points="414,-194.23 414,-213.23 557,-213.23 557,-194.23 414,-194.23"/>
<text text-anchor="middle" x="485.5" y="-201.23" font-family="Helvetica,sans-Serif" font-size="10.00">P4::ParameterSubstitution</text>
</a>
</g>
</g>
<!-- Node6&#45;&gt;Node3 -->
<g id="edge5" class="edge">
<title>Node6&#45;&gt;Node3</title>
<path fill="none" stroke="#9a32cd" stroke-dasharray="5,2" d="M523.42,-190.8C573.13,-173.38 660.44,-142.8 704.67,-127.31"/>
<polygon fill="#9a32cd" stroke="#9a32cd" points="521.99,-187.59 513.71,-194.2 524.31,-194.2 521.99,-187.59"/>
<text text-anchor="middle" x="623" y="-171.73" font-family="Helvetica,sans-Serif" font-size="10.00"> substitution</text>
</g>
<!-- Node7 -->
<g id="node7" class="node">
<title>Node7</title>
<g id="a_node7"><a xlink:href="class_i_has_db_print.html" target="_top" xlink:title=" ">
<polygon fill="white" stroke="black" points="0,-68.23 0,-87.23 74,-87.23 74,-68.23 0,-68.23"/>
<text text-anchor="middle" x="37" y="-75.23" font-family="Helvetica,sans-Serif" font-size="10.00">IHasDbPrint</text>
</a>
</g>
</g>
<!-- Node7&#45;&gt;Node6 -->
<g id="edge6" class="edge">
<title>Node7&#45;&gt;Node6</title>
<path fill="none" stroke="midnightblue" d="M57.65,-93.7C76.57,-108.24 106.59,-129.15 136,-140.73 227.96,-176.94 341.85,-192.52 413.86,-199.1"/>
<polygon fill="midnightblue" stroke="midnightblue" points="59.56,-90.75 49.53,-87.33 55.24,-96.26 59.56,-90.75"/>
</g>
<!-- Node13 -->
<g id="node13" class="node">
<title>Node13</title>
<g id="a_node13"><a xlink:href="class_p4_1_1_type_substitution.html" target="_top" xlink:title=" ">
<polygon fill="white" stroke="black" points="136,-62.73 136,-92.73 270,-92.73 270,-62.73 136,-62.73"/>
<text text-anchor="start" x="144" y="-80.73" font-family="Helvetica,sans-Serif" font-size="10.00">P4::TypeSubstitution</text>
<text text-anchor="middle" x="203" y="-69.73" font-family="Helvetica,sans-Serif" font-size="10.00">&lt; const IR::ITypeVar * &gt;</text>
</a>
</g>
</g>
<!-- Node7&#45;&gt;Node13 -->
<g id="edge15" class="edge">
<title>Node7&#45;&gt;Node13</title>
<path fill="none" stroke="midnightblue" d="M84.5,-77.73C100.4,-77.73 118.51,-77.73 135.68,-77.73"/>
<polygon fill="midnightblue" stroke="midnightblue" points="84.4,-74.23 74.4,-77.73 84.4,-81.23 84.4,-74.23"/>
</g>
<!-- Node7&#45;&gt;Node15 -->
<g id="edge19" class="edge">
<title>Node7&#45;&gt;Node15</title>
<path fill="none" stroke="midnightblue" d="M56.06,-61.52C74.6,-46.06 105.03,-23.83 136,-14.73 250.07,18.77 393.76,-13.68 454.84,-30.74"/>
<polygon fill="midnightblue" stroke="midnightblue" points="53.73,-58.91 48.42,-68.07 58.29,-64.22 53.73,-58.91"/>
</g>
<!-- Node8 -->
<g id="node8" class="node">
<title>Node8</title>
<g id="a_node8"><a xlink:title=" ">
<polygon fill="white" stroke="#bfbfbf" points="136,-286.73 136,-316.73 270,-316.73 270,-286.73 136,-286.73"/>
<text text-anchor="start" x="144" y="-304.73" font-family="Helvetica,sans-Serif" font-size="10.00">std::map&lt; cstring,</text>
<text text-anchor="middle" x="203" y="-293.73" font-family="Helvetica,sans-Serif" font-size="10.00"> const IR::Parameter * &gt;</text>
</a>
</g>
</g>
<!-- Node8&#45;&gt;Node6 -->
<g id="edge7" class="edge">
<title>Node8&#45;&gt;Node6</title>
<path fill="none" stroke="#9a32cd" stroke-dasharray="5,2" d="M279.96,-285.1C314.12,-276.66 354.62,-265.3 390,-251.73 418.52,-240.79 449.79,-223.86 468.25,-213.3"/>
<polygon fill="#9a32cd" stroke="#9a32cd" points="278.93,-281.75 270.05,-287.51 280.59,-288.55 278.93,-281.75"/>
<text text-anchor="middle" x="339" y="-284.73" font-family="Helvetica,sans-Serif" font-size="10.00"> parametersByName</text>
</g>
<!-- Node9 -->
<g id="node9" class="node">
<title>Node9</title>
<g id="a_node9"><a xlink:href="classcstring.html" target="_top" xlink:title=" ">
<polygon fill="white" stroke="black" points="12,-267.23 12,-286.23 62,-286.23 62,-267.23 12,-267.23"/>
<text text-anchor="middle" x="37" y="-274.23" font-family="Helvetica,sans-Serif" font-size="10.00">cstring</text>
</a>
</g>
</g>
<!-- Node9&#45;&gt;Node8 -->
<g id="edge8" class="edge">
<title>Node9&#45;&gt;Node8</title>
<path fill="none" stroke="#9a32cd" stroke-dasharray="5,2" d="M72.16,-281.94C90.61,-284.75 114.02,-288.32 135.86,-291.65"/>
<polygon fill="#9a32cd" stroke="#9a32cd" points="72.61,-278.47 62.2,-280.42 71.56,-285.39 72.61,-278.47"/>
<text text-anchor="middle" x="105" y="-290.73" font-family="Helvetica,sans-Serif" font-size="10.00"> keys</text>
</g>
<!-- Node9&#45;&gt;Node9 -->
<g id="edge9" class="edge">
<title>Node9&#45;&gt;Node9</title>
<path fill="none" stroke="#9a32cd" stroke-dasharray="5,2" d="M24.48,-296.5C25.46,-301.23 29.64,-304.73 37,-304.73 49.09,-304.73 52.58,-295.3 47.48,-286.49"/>
<polygon fill="#9a32cd" stroke="#9a32cd" points="27.95,-296.99 26.52,-286.49 21.09,-295.59 27.95,-296.99"/>
<text text-anchor="middle" x="37" y="-318.73" font-family="Helvetica,sans-Serif" font-size="10.00"> empty</text>
<text text-anchor="middle" x="37" y="-307.73" font-family="Helvetica,sans-Serif" font-size="10.00">newline</text>
</g>
<!-- Node10 -->
<g id="node10" class="node">
<title>Node10</title>
<g id="a_node10"><a xlink:title=" ">
<polygon fill="white" stroke="#bfbfbf" points="137,-237.73 137,-267.73 269,-267.73 269,-237.73 137,-237.73"/>
<text text-anchor="start" x="145" y="-255.73" font-family="Helvetica,sans-Serif" font-size="10.00">std::map&lt; cstring,</text>
<text text-anchor="middle" x="203" y="-244.73" font-family="Helvetica,sans-Serif" font-size="10.00"> const IR::Argument * &gt;</text>
</a>
</g>
</g>
<!-- Node9&#45;&gt;Node10 -->
<g id="edge11" class="edge">
<title>Node9&#45;&gt;Node10</title>
<path fill="none" stroke="#9a32cd" stroke-dasharray="5,2" d="M72.1,-268.56C78.68,-267.15 85.53,-265.8 92,-264.73 106.5,-262.34 122.16,-260.3 136.98,-258.63"/>
<polygon fill="#9a32cd" stroke="#9a32cd" points="71.08,-265.2 62.08,-270.79 72.6,-272.03 71.08,-265.2"/>
<text text-anchor="middle" x="105" y="-267.73" font-family="Helvetica,sans-Serif" font-size="10.00"> keys</text>
</g>
<!-- Node10&#45;&gt;Node6 -->
<g id="edge10" class="edge">
<title>Node10&#45;&gt;Node6</title>
<path fill="none" stroke="#9a32cd" stroke-dasharray="5,2" d="M278.98,-239.64C326.44,-231.35 386.73,-220.81 429.71,-213.3"/>
<polygon fill="#9a32cd" stroke="#9a32cd" points="278.31,-236.2 269.06,-241.37 279.51,-243.1 278.31,-236.2"/>
<text text-anchor="middle" x="339" y="-239.73" font-family="Helvetica,sans-Serif" font-size="10.00"> parameterValues</text>
</g>
<!-- Node11 -->
<g id="node11" class="node">
<title>Node11</title>
<g id="a_node11"><a xlink:title=" ">
<polygon fill="white" stroke="#bfbfbf" points="150,-188.73 150,-218.73 256,-218.73 256,-188.73 150,-188.73"/>
<text text-anchor="start" x="158" y="-206.73" font-family="Helvetica,sans-Serif" font-size="10.00">std::vector&lt; const</text>
<text text-anchor="middle" x="203" y="-195.73" font-family="Helvetica,sans-Serif" font-size="10.00"> IR::Parameter * &gt;</text>
</a>
</g>
</g>
<!-- Node11&#45;&gt;Node6 -->
<g id="edge12" class="edge">
<title>Node11&#45;&gt;Node6</title>
<path fill="none" stroke="#9a32cd" stroke-dasharray="5,2" d="M266.31,-203.73C310,-203.73 368.48,-203.73 413.9,-203.73"/>
<polygon fill="#9a32cd" stroke="#9a32cd" points="266.1,-200.23 256.1,-203.73 266.1,-207.23 266.1,-200.23"/>
<text text-anchor="middle" x="339" y="-206.73" font-family="Helvetica,sans-Serif" font-size="10.00"> parameters</text>
</g>
<!-- Node12 -->
<g id="node12" class="node">
<title>Node12</title>
<g id="a_node12"><a xlink:href="class_p4_1_1_type_variable_substitution.html" target="_top" xlink:title=" ">
<polygon fill="white" stroke="black" points="408,-74.23 408,-93.23 563,-93.23 563,-74.23 408,-74.23"/>
<text text-anchor="middle" x="485.5" y="-81.23" font-family="Helvetica,sans-Serif" font-size="10.00">P4::TypeVariableSubstitution</text>
</a>
</g>
</g>
<!-- Node12&#45;&gt;Node3 -->
<g id="edge13" class="edge">
<title>Node12&#45;&gt;Node3</title>
<path fill="none" stroke="#9a32cd" stroke-dasharray="5,2" d="M573.51,-88.5C602.73,-90.9 635.41,-94.47 665,-99.73 676.86,-101.84 689.68,-105.05 700.89,-108.18"/>
<polygon fill="#9a32cd" stroke="#9a32cd" points="573.57,-84.99 563.32,-87.7 573.02,-91.97 573.57,-84.99"/>
<text text-anchor="middle" x="623" y="-102.73" font-family="Helvetica,sans-Serif" font-size="10.00"> typeSubstitution</text>
</g>
<!-- Node13&#45;&gt;Node12 -->
<g id="edge14" class="edge">
<title>Node13&#45;&gt;Node12</title>
<path fill="none" stroke="midnightblue" d="M280.26,-79.36C319.9,-80.21 368.21,-81.25 407.9,-82.09"/>
<polygon fill="midnightblue" stroke="midnightblue" points="280.19,-75.86 270.12,-79.15 280.04,-82.86 280.19,-75.86"/>
</g>
<!-- Node14 -->
<g id="node14" class="node">
<title>Node14</title>
<g id="a_node14"><a xlink:href="class_i_r_1_1_i_declaration.html" target="_top" xlink:title="The Declaration interface, representing objects with names.">
<polygon fill="white" stroke="black" points="687,-62.23 687,-81.23 779,-81.23 779,-62.23 687,-62.23"/>
<text text-anchor="middle" x="733" y="-69.23" font-family="Helvetica,sans-Serif" font-size="10.00">IR::IDeclaration</text>
</a>
</g>
</g>
<!-- Node14&#45;&gt;Node2 -->
<g id="edge16" class="edge">
<title>Node14&#45;&gt;Node2</title>
<path fill="none" stroke="#9a32cd" stroke-dasharray="5,2" d="M789.11,-76.96C804.01,-78.43 820.13,-80.09 835,-81.73 840.75,-82.37 846.75,-83.06 852.73,-83.77"/>
<polygon fill="#9a32cd" stroke="#9a32cd" points="789.32,-73.46 779.02,-75.97 788.63,-80.43 789.32,-73.46"/>
<text text-anchor="middle" x="818" y="-84.73" font-family="Helvetica,sans-Serif" font-size="10.00"> object</text>
</g>
<!-- Node15&#45;&gt;Node14 -->
<g id="edge17" class="edge">
<title>Node15&#45;&gt;Node14</title>
<path fill="none" stroke="midnightblue" d="M526.14,-44.9C570.08,-50.63 640.82,-59.85 686.86,-65.85"/>
<polygon fill="midnightblue" stroke="midnightblue" points="526.48,-41.42 516.11,-43.59 525.58,-48.36 526.48,-41.42"/>
</g>
<!-- Node16 -->
<g id="node16" class="node">
<title>Node16</title>
<g id="a_node16"><a xlink:href="class_util_1_1_i_has_source_info.html" target="_top" xlink:title=" ">
<polygon fill="white" stroke="black" points="146.5,-24.23 146.5,-43.23 259.5,-43.23 259.5,-24.23 146.5,-24.23"/>
<text text-anchor="middle" x="203" y="-31.23" font-family="Helvetica,sans-Serif" font-size="10.00">Util::IHasSourceInfo</text>
</a>
</g>
</g>
<!-- Node16&#45;&gt;Node15 -->
<g id="edge18" class="edge">
<title>Node16&#45;&gt;Node15</title>
<path fill="none" stroke="midnightblue" d="M270.01,-35.15C328.45,-36.4 411.06,-38.16 454.74,-39.1"/>
<polygon fill="midnightblue" stroke="midnightblue" points="269.83,-31.64 259.75,-34.93 269.68,-38.64 269.83,-31.64"/>
</g>
</g>
</svg>
