<?xml version="1.0" encoding="UTF-8" standalone="no"?>
<!DOCTYPE svg PUBLIC "-//W3C//DTD SVG 1.1//EN"
 "http://www.w3.org/Graphics/SVG/1.1/DTD/svg11.dtd">
<!-- Generated by graphviz version 2.43.0 (0)
 -->
<!-- Title: P4::Visitor Pages: 1 -->
<svg width="501pt" height="1404pt"
 viewBox="0.00 0.00 501.00 1404.00" xmlns="http://www.w3.org/2000/svg" xmlns:xlink="http://www.w3.org/1999/xlink">
<g id="graph0" class="graph" transform="scale(1 1) rotate(0) translate(4 1400)">
<title>P4::Visitor</title>
<!-- Node1 -->
<g id="Node000001" class="node">
<title>Node1</title>
<g id="a_Node000001"><a xlink:title=" ">
<polygon fill="#999999" stroke="#666666" points="66,-345 0,-345 0,-326 66,-326 66,-345"/>
<text text-anchor="middle" x="33" y="-333" font-family="Helvetica,sans-Serif" font-size="10.00">P4::Visitor</text>
</a>
</g>
</g>
<!-- Node2 -->
<g id="Node000002" class="node">
<title>Node2</title>
<g id="a_Node000002"><a xlink:href="class_p4_1_1_inline_driver.html" target="_top" xlink:title=" ">
<polygon fill="white" stroke="#bfbfbf" points="261.5,-857.5 107.5,-857.5 107.5,-827.5 261.5,-827.5 261.5,-857.5"/>
<text text-anchor="start" x="115.5" y="-845.5" font-family="Helvetica,sans-Serif" font-size="10.00">P4::InlineDriver&lt; Actions</text>
<text text-anchor="middle" x="184.5" y="-834.5" font-family="Helvetica,sans-Serif" font-size="10.00">InlineList, AInlineWorkList &gt;</text>
</a>
</g>
</g>
<!-- Node1&#45;&gt;Node2 -->
<g id="edge1_Node000001_Node000002" class="edge">
<title>Node1&#45;&gt;Node2</title>
<g id="a_edge1_Node000001_Node000002"><a xlink:title=" ">
<path fill="none" stroke="#63b8ff" d="M34.03,-355.47C34.57,-437.49 40.69,-747.48 102,-818.5 104.99,-821.96 108.45,-824.94 112.22,-827.49"/>
<polygon fill="#63b8ff" stroke="#63b8ff" points="37.53,-355.06 33.99,-345.08 30.53,-355.09 37.53,-355.06"/>
</a>
</g>
</g>
<!-- Node3 -->
<g id="Node000003" class="node">
<title>Node3</title>
<g id="a_Node000003"><a xlink:href="class_p4_1_1_inline_driver.html" target="_top" xlink:title=" ">
<polygon fill="white" stroke="#bfbfbf" points="267,-809 102,-809 102,-768 267,-768 267,-809"/>
<text text-anchor="start" x="110" y="-797" font-family="Helvetica,sans-Serif" font-size="10.00">P4::InlineDriver&lt; Functions</text>
<text text-anchor="start" x="110" y="-786" font-family="Helvetica,sans-Serif" font-size="10.00">InlineList, FunctionsInlineWork</text>
<text text-anchor="middle" x="184.5" y="-775" font-family="Helvetica,sans-Serif" font-size="10.00">List &gt;</text>
</a>
</g>
</g>
<!-- Node1&#45;&gt;Node3 -->
<g id="edge2_Node000001_Node000003" class="edge">
<title>Node1&#45;&gt;Node3</title>
<g id="a_edge2_Node000001_Node000003"><a xlink:title=" ">
<path fill="none" stroke="#63b8ff" d="M34.75,-355.4C37.94,-429.75 52.48,-690.12 102,-753.5 106.36,-759.08 111.79,-763.79 117.75,-767.75"/>
<polygon fill="#63b8ff" stroke="#63b8ff" points="38.24,-354.98 34.34,-345.13 31.25,-355.26 38.24,-354.98"/>
</a>
</g>
</g>
<!-- Node4 -->
<g id="Node000004" class="node">
<title>Node4</title>
<g id="a_Node000004"><a xlink:href="class_p4_1_1_backtrack.html" target="_top" xlink:title=" ">
<polygon fill="white" stroke="#bfbfbf" points="226,-711 143,-711 143,-692 226,-692 226,-711"/>
<text text-anchor="middle" x="184.5" y="-699" font-family="Helvetica,sans-Serif" font-size="10.00">P4::Backtrack</text>
</a>
</g>
</g>
<!-- Node1&#45;&gt;Node4 -->
<g id="edge3_Node000001_Node000004" class="edge">
<title>Node1&#45;&gt;Node4</title>
<g id="a_edge3_Node000001_Node000004"><a xlink:title=" ">
<path fill="none" stroke="#63b8ff" d="M35.29,-355.23C39.96,-420.72 58.09,-629.44 102,-677.5 112.45,-688.93 128.03,-695.03 142.79,-698.23"/>
<polygon fill="#63b8ff" stroke="#63b8ff" points="38.77,-354.79 34.59,-345.05 31.78,-355.27 38.77,-354.79"/>
</a>
</g>
</g>
<!-- Node5 -->
<g id="Node000005" class="node">
<title>Node5</title>
<g id="a_Node000005"><a xlink:href="class_p4_1_1_on_backtrack.html" target="_top" xlink:title=" ">
<polygon fill="white" stroke="#bfbfbf" points="460.5,-1396 335.5,-1396 335.5,-1377 460.5,-1377 460.5,-1396"/>
<text text-anchor="middle" x="398" y="-1384" font-family="Helvetica,sans-Serif" font-size="10.00">P4::OnBacktrack&lt; T &gt;</text>
</a>
</g>
</g>
<!-- Node1&#45;&gt;Node5 -->
<g id="edge46_Node000001_Node000005" class="edge">
<title>Node1&#45;&gt;Node5</title>
<g id="a_edge46_Node000001_Node000005"><a xlink:title=" ">
<path fill="none" stroke="#63b8ff" d="M34.72,-355.46C37.68,-426.68 51.35,-666.86 102,-720.5 153.74,-775.29 218.52,-701.81 267,-759.5 354.22,-863.29 213.57,-1266.61 303,-1368.5 311.33,-1377.99 323,-1383.43 335.29,-1386.39"/>
<polygon fill="#63b8ff" stroke="#63b8ff" points="38.2,-355.06 34.32,-345.2 31.21,-355.33 38.2,-355.06"/>
</a>
</g>
</g>
<!-- Node6 -->
<g id="Node000006" class="node">
<title>Node6</title>
<g id="a_Node000006"><a xlink:href="class_p4_1_1_pass_manager.html" target="_top" xlink:title=" ">
<polygon fill="white" stroke="orangered" points="447.5,-1359 348.5,-1359 348.5,-1340 447.5,-1340 447.5,-1359"/>
<text text-anchor="middle" x="398" y="-1347" font-family="Helvetica,sans-Serif" font-size="10.00">P4::PassManager</text>
</a>
</g>
</g>
<!-- Node1&#45;&gt;Node6 -->
<g id="edge50_Node000001_Node000006" class="edge">
<title>Node1&#45;&gt;Node6</title>
<g id="a_edge50_Node000001_Node000006"><a xlink:title=" ">
<path fill="none" stroke="#63b8ff" d="M35.65,-355.38C41.18,-416.96 61,-602.86 102,-644.5 154.87,-698.19 218.62,-625.73 267,-683.5 359.59,-794.08 208.06,-1222.94 303,-1331.5 314.27,-1344.38 331.68,-1349.81 348.48,-1351.7"/>
<polygon fill="#63b8ff" stroke="#63b8ff" points="39.11,-354.76 34.76,-345.1 32.14,-355.36 39.11,-354.76"/>
</a>
</g>
</g>
<!-- Node114 -->
<g id="Node000114" class="node">
<title>Node114</title>
<g id="a_Node000114"><a xlink:href="class_p4_1_1_control_flow_visitor.html" target="_top" xlink:title=" ">
<polygon fill="white" stroke="#bfbfbf" points="247,-327 122,-327 122,-308 247,-308 247,-327"/>
<text text-anchor="middle" x="184.5" y="-315" font-family="Helvetica,sans-Serif" font-size="10.00">P4::ControlFlowVisitor</text>
</a>
</g>
</g>
<!-- Node1&#45;&gt;Node114 -->
<g id="edge6_Node000001_Node000114" class="edge">
<title>Node1&#45;&gt;Node114</title>
<g id="a_edge6_Node000001_Node000114"><a xlink:title=" ">
<path fill="none" stroke="#63b8ff" d="M76.05,-330.44C90.29,-328.72 106.49,-326.77 121.93,-324.91"/>
<polygon fill="#63b8ff" stroke="#63b8ff" points="75.58,-326.97 66.07,-331.64 76.42,-333.92 75.58,-326.97"/>
</a>
</g>
</g>
<!-- Node117 -->
<g id="Node000117" class="node">
<title>Node117</title>
<g id="a_Node000117"><a xlink:href="class_p4_1_1_dynamic_visitor.html" target="_top" xlink:title=" ">
<polygon fill="white" stroke="#bfbfbf" points="239.5,-216 129.5,-216 129.5,-197 239.5,-197 239.5,-216"/>
<text text-anchor="middle" x="184.5" y="-204" font-family="Helvetica,sans-Serif" font-size="10.00">P4::DynamicVisitor</text>
</a>
</g>
</g>
<!-- Node1&#45;&gt;Node117 -->
<g id="edge9_Node000001_Node000117" class="edge">
<title>Node1&#45;&gt;Node117</title>
<g id="a_edge9_Node000001_Node000117"><a xlink:title=" ">
<path fill="none" stroke="#63b8ff" d="M40.53,-316.32C50.03,-291.41 70.09,-248.43 102,-225.5 110.02,-219.73 119.53,-215.69 129.18,-212.86"/>
<polygon fill="#63b8ff" stroke="#63b8ff" points="37.22,-315.18 37.1,-325.77 43.8,-317.57 37.22,-315.18"/>
</a>
</g>
</g>
<!-- Node118 -->
<g id="Node000118" class="node">
<title>Node118</title>
<g id="a_Node000118"><a xlink:href="class_p4_1_1_inline_driver.html" target="_top" xlink:title=" ">
<polygon fill="white" stroke="#bfbfbf" points="249.5,-178.5 119.5,-178.5 119.5,-148.5 249.5,-148.5 249.5,-178.5"/>
<text text-anchor="start" x="127.5" y="-166.5" font-family="Helvetica,sans-Serif" font-size="10.00">P4::InlineDriver&lt; Inline</text>
<text text-anchor="middle" x="184.5" y="-155.5" font-family="Helvetica,sans-Serif" font-size="10.00">List, InlineWorkList &gt;</text>
</a>
</g>
</g>
<!-- Node1&#45;&gt;Node118 -->
<g id="edge10_Node000001_Node000118" class="edge">
<title>Node1&#45;&gt;Node118</title>
<g id="a_edge10_Node000001_Node000118"><a xlink:title=" ">
<path fill="none" stroke="#63b8ff" d="M37.72,-315.87C44.7,-284.41 62.75,-222.75 102,-188.5 107.13,-184.02 113.05,-180.35 119.3,-177.33"/>
<polygon fill="#63b8ff" stroke="#63b8ff" points="34.22,-315.49 35.63,-325.99 41.08,-316.91 34.22,-315.49"/>
</a>
</g>
</g>
<!-- Node119 -->
<g id="Node000119" class="node">
<title>Node119</title>
<g id="a_Node000119"><a xlink:href="class_p4_1_1_inspector.html" target="_top" xlink:title=" ">
<polygon fill="white" stroke="orangered" points="224.5,-635 144.5,-635 144.5,-616 224.5,-616 224.5,-635"/>
<text text-anchor="middle" x="184.5" y="-623" font-family="Helvetica,sans-Serif" font-size="10.00">P4::Inspector</text>
</a>
</g>
</g>
<!-- Node1&#45;&gt;Node119 -->
<g id="edge11_Node000001_Node000119" class="edge">
<title>Node1&#45;&gt;Node119</title>
<g id="a_edge11_Node000001_Node000119"><a xlink:title=" ">
<path fill="none" stroke="#63b8ff" d="M43.68,-354.27C72.49,-410.17 157.05,-574.2 178.51,-615.81"/>
<polygon fill="#63b8ff" stroke="#63b8ff" points="46.67,-352.43 38.97,-345.15 40.45,-355.64 46.67,-352.43"/>
</a>
</g>
</g>
<!-- Node307 -->
<g id="Node000307" class="node">
<title>Node307</title>
<g id="a_Node000307"><a xlink:href="class_p4_1_1_modifier.html" target="_top" xlink:title=" ">
<polygon fill="white" stroke="orangered" points="221.5,-130 147.5,-130 147.5,-111 221.5,-111 221.5,-130"/>
<text text-anchor="middle" x="184.5" y="-118" font-family="Helvetica,sans-Serif" font-size="10.00">P4::Modifier</text>
</a>
</g>
</g>
<!-- Node1&#45;&gt;Node307 -->
<g id="edge45_Node000001_Node000307" class="edge">
<title>Node1&#45;&gt;Node307</title>
<g id="a_edge45_Node000001_Node000307"><a xlink:title=" ">
<path fill="none" stroke="#63b8ff" d="M34.84,-315.54C37.65,-275.79 49.75,-186.54 102,-139.5 114.31,-128.42 131.82,-123.44 147.45,-121.32"/>
<polygon fill="#63b8ff" stroke="#63b8ff" points="31.35,-315.38 34.26,-325.57 38.33,-315.79 31.35,-315.38"/>
</a>
</g>
</g>
<!-- Node320 -->
<g id="Node000320" class="node">
<title>Node320</title>
<g id="a_Node000320"><a xlink:href="class_p4_1_1_p4_write_context.html" target="_top" xlink:title=" ">
<polygon fill="white" stroke="orangered" points="240,-290 129,-290 129,-271 240,-271 240,-290"/>
<text text-anchor="middle" x="184.5" y="-278" font-family="Helvetica,sans-Serif" font-size="10.00">P4::P4WriteContext</text>
</a>
</g>
</g>
<!-- Node1&#45;&gt;Node320 -->
<g id="edge47_Node000001_Node000320" class="edge">
<title>Node1&#45;&gt;Node320</title>
<g id="a_edge47_Node000001_Node000320"><a xlink:title=" ">
<path fill="none" stroke="#63b8ff" d="M58.37,-320.63C71.02,-313.42 86.95,-305.13 102,-299.5 111.93,-295.78 122.83,-292.64 133.33,-290.05"/>
<polygon fill="#63b8ff" stroke="#63b8ff" points="56.27,-317.8 49.4,-325.87 59.8,-323.85 56.27,-317.8"/>
</a>
</g>
</g>
<!-- Node327 -->
<g id="Node000327" class="node">
<title>Node327</title>
<g id="a_Node000327"><a xlink:href="class_p4_1_1_resolution_context.html" target="_top" xlink:title="Visitor mixin for looking up names in enclosing scopes from the Visitor::Context.">
<polygon fill="#fff0f0" stroke="red" points="247,-364 122,-364 122,-345 247,-345 247,-364"/>
<text text-anchor="middle" x="184.5" y="-352" font-family="Helvetica,sans-Serif" font-size="10.00">P4::ResolutionContext</text>
</a>
</g>
</g>
<!-- Node1&#45;&gt;Node327 -->
<g id="edge51_Node000001_Node000327" class="edge">
<title>Node1&#45;&gt;Node327</title>
<g id="a_edge51_Node000001_Node000327"><a xlink:title=" ">
<path fill="none" stroke="#63b8ff" d="M76.05,-340.84C90.29,-342.65 106.49,-344.71 121.93,-346.67"/>
<polygon fill="#63b8ff" stroke="#63b8ff" points="76.43,-337.36 66.07,-339.58 75.55,-344.31 76.43,-337.36"/>
</a>
</g>
</g>
<!-- Node354 -->
<g id="Node000354" class="node">
<title>Node354</title>
<g id="a_Node000354"><a xlink:href="class_p4_1_1_transform.html" target="_top" xlink:title=" ">
<polygon fill="white" stroke="orangered" points="226,-253 143,-253 143,-234 226,-234 226,-253"/>
<text text-anchor="middle" x="184.5" y="-241" font-family="Helvetica,sans-Serif" font-size="10.00">P4::Transform</text>
</a>
</g>
</g>
<!-- Node1&#45;&gt;Node354 -->
<g id="edge53_Node000001_Node000354" class="edge">
<title>Node1&#45;&gt;Node354</title>
<g id="a_edge53_Node000001_Node000354"><a xlink:title=" ">
<path fill="none" stroke="#63b8ff" d="M45.9,-317.56C58.02,-300.74 78.35,-276.2 102,-262.5 114.32,-255.36 129.15,-250.91 142.77,-248.12"/>
<polygon fill="#63b8ff" stroke="#63b8ff" points="42.88,-315.78 40.05,-325.99 48.63,-319.77 42.88,-315.78"/>
</a>
</g>
</g>
<!-- Node503 -->
<g id="Node000503" class="node">
<title>Node503</title>
<g id="a_Node000503"><a xlink:href="class_p4_1_1_visit_functor.html" target="_top" xlink:title=" ">
<polygon fill="white" stroke="#bfbfbf" points="230.5,-93 138.5,-93 138.5,-74 230.5,-74 230.5,-93"/>
<text text-anchor="middle" x="184.5" y="-81" font-family="Helvetica,sans-Serif" font-size="10.00">P4::VisitFunctor</text>
</a>
</g>
</g>
<!-- Node1&#45;&gt;Node503 -->
<g id="edge55_Node000001_Node000503" class="edge">
<title>Node1&#45;&gt;Node503</title>
<g id="a_edge55_Node000001_Node000503"><a xlink:title=" ">
<path fill="none" stroke="#63b8ff" d="M33.55,-315.61C33.68,-270.65 40.63,-160.59 102,-102.5 111.81,-93.21 125.25,-88.16 138.39,-85.5"/>
<polygon fill="#63b8ff" stroke="#63b8ff" points="30.05,-315.83 33.64,-325.8 37.05,-315.77 30.05,-315.83"/>
</a>
</g>
</g>
<!-- Node4&#45;&gt;Node5 -->
<g id="edge4_Node000004_Node000005" class="edge">
<title>Node4&#45;&gt;Node5</title>
<g id="a_edge4_Node000004_Node000005"><a xlink:title=" ">
<path fill="none" stroke="#63b8ff" d="M236.18,-706.35C247.99,-709.93 259.34,-715.84 267,-725.5 355.89,-837.66 208.77,-1260.79 303,-1368.5 311.32,-1378 322.98,-1383.45 335.27,-1386.41"/>
<polygon fill="#63b8ff" stroke="#63b8ff" points="236.78,-702.89 226.23,-703.86 235.08,-709.68 236.78,-702.89"/>
</a>
</g>
</g>
<!-- Node4&#45;&gt;Node6 -->
<g id="edge5_Node000004_Node000006" class="edge">
<title>Node4&#45;&gt;Node6</title>
<g id="a_edge5_Node000004_Node000006"><a xlink:title=" ">
<path fill="none" stroke="#63b8ff" d="M236.16,-706.36C247.97,-709.94 259.33,-715.85 267,-725.5 350.97,-831.08 214,-1230.12 303,-1331.5 314.18,-1344.24 331.38,-1349.68 348.02,-1351.62"/>
<polygon fill="#63b8ff" stroke="#63b8ff" points="236.75,-702.9 226.2,-703.87 235.06,-709.69 236.75,-702.9"/>
</a>
</g>
</g>
<!-- Node115 -->
<g id="Node000115" class="node">
<title>Node115</title>
<g id="a_Node000115"><a xlink:href="class_p4_1_1_compute_def_use.html" target="_top" xlink:title="Compute defuse info within P4Parser and P4Control blocks in the midend.">
<polygon fill="white" stroke="#666666" points="455.5,-56 340.5,-56 340.5,-37 455.5,-37 455.5,-56"/>
<text text-anchor="middle" x="398" y="-44" font-family="Helvetica,sans-Serif" font-size="10.00">P4::ComputeDefUse</text>
</a>
</g>
</g>
<!-- Node114&#45;&gt;Node115 -->
<g id="edge7_Node000114_Node000115" class="edge">
<title>Node114&#45;&gt;Node115</title>
<g id="a_edge7_Node000114_Node000115"><a xlink:title=" ">
<path fill="none" stroke="#63b8ff" d="M256.29,-308C260.22,-305.67 263.85,-302.86 267,-299.5 338.96,-222.73 230.36,-141.62 303,-65.5 312.77,-55.26 326.42,-49.73 340.29,-46.9"/>
<polygon fill="#63b8ff" stroke="#63b8ff" points="254.72,-304.87 247.25,-312.39 257.78,-311.17 254.72,-304.87"/>
</a>
</g>
</g>
<!-- Node116 -->
<g id="Node000116" class="node">
<title>Node116</title>
<g id="a_Node000116"><a xlink:href="class_p4_1_1_do_local_copy_propagation.html" target="_top" xlink:title=" ">
<polygon fill="white" stroke="#666666" points="476.5,-19 319.5,-19 319.5,0 476.5,0 476.5,-19"/>
<text text-anchor="middle" x="398" y="-7" font-family="Helvetica,sans-Serif" font-size="10.00">P4::DoLocalCopyPropagation</text>
</a>
</g>
</g>
<!-- Node114&#45;&gt;Node116 -->
<g id="edge8_Node000114_Node000116" class="edge">
<title>Node114&#45;&gt;Node116</title>
<g id="a_edge8_Node000114_Node000116"><a xlink:title=" ">
<path fill="none" stroke="#63b8ff" d="M256.37,-308.07C260.28,-305.72 263.88,-302.89 267,-299.5 349.17,-210 220.03,-117.26 303,-28.5 307.66,-23.51 313.24,-19.64 319.33,-16.64"/>
<polygon fill="#63b8ff" stroke="#63b8ff" points="254.8,-304.95 247.36,-312.49 257.88,-311.23 254.8,-304.95"/>
</a>
</g>
</g>
<!-- Node119&#45;&gt;Node115 -->
<g id="edge31_Node000119_Node000115" class="edge">
<title>Node119&#45;&gt;Node115</title>
<g id="a_edge31_Node000119_Node000115"><a xlink:title=" ">
<path fill="none" stroke="#63b8ff" d="M193.22,-606.12C209.55,-564.33 247.64,-462.36 267,-373.5 281.67,-306.17 256.34,-116.21 303,-65.5 312.58,-55.09 326.17,-49.49 340.03,-46.67"/>
<polygon fill="#63b8ff" stroke="#63b8ff" points="189.89,-605.02 189.48,-615.61 196.4,-607.59 189.89,-605.02"/>
</a>
</g>
</g>
<!-- Node120 -->
<g id="Node000120" class="node">
<title>Node120</title>
<g id="a_Node000120"><a xlink:href="class_p4_1_1_analyze_parser.html" target="_top" xlink:title=" ">
<polygon fill="white" stroke="#bfbfbf" points="450,-832 346,-832 346,-813 450,-813 450,-832"/>
<text text-anchor="middle" x="398" y="-820" font-family="Helvetica,sans-Serif" font-size="10.00">P4::AnalyzeParser</text>
</a>
</g>
</g>
<!-- Node119&#45;&gt;Node120 -->
<g id="edge12_Node000119_Node000120" class="edge">
<title>Node119&#45;&gt;Node120</title>
<g id="a_edge12_Node000119_Node000120"><a xlink:title=" ">
<path fill="none" stroke="#63b8ff" d="M234.76,-631.19C246.7,-634.76 258.46,-640.45 267,-649.5 315.53,-700.94 252.03,-755.48 303,-804.5 314.38,-815.44 330.26,-820.74 345.73,-823.08"/>
<polygon fill="#63b8ff" stroke="#63b8ff" points="235.31,-627.72 224.76,-628.67 233.6,-634.51 235.31,-627.72"/>
</a>
</g>
</g>
<!-- Node121 -->
<g id="Node000121" class="node">
<title>Node121</title>
<g id="a_Node000121"><a xlink:href="class_p4_1_1_apply_options_pragmas.html" target="_top" xlink:title=" ">
<polygon fill="white" stroke="#666666" points="469.5,-795 326.5,-795 326.5,-776 469.5,-776 469.5,-795"/>
<text text-anchor="middle" x="398" y="-783" font-family="Helvetica,sans-Serif" font-size="10.00">P4::ApplyOptionsPragmas</text>
</a>
</g>
</g>
<!-- Node119&#45;&gt;Node121 -->
<g id="edge13_Node000119_Node000121" class="edge">
<title>Node119&#45;&gt;Node121</title>
<g id="a_edge13_Node000119_Node000121"><a xlink:title=" ">
<path fill="none" stroke="#63b8ff" d="M234.68,-631.69C246.51,-635.25 258.24,-640.82 267,-649.5 305.96,-688.08 262.21,-730.86 303,-767.5 309.67,-773.5 317.72,-777.76 326.25,-780.77"/>
<polygon fill="#63b8ff" stroke="#63b8ff" points="235.35,-628.25 224.79,-629.14 233.6,-635.02 235.35,-628.25"/>
</a>
</g>
</g>
<!-- Node122 -->
<g id="Node000122" class="node">
<title>Node122</title>
<g id="a_Node000122"><a xlink:href="class_p4_1_1_b_m_v2_1_1_action_converter.html" target="_top" xlink:title=" ">
<polygon fill="white" stroke="#bfbfbf" points="472,-758 324,-758 324,-739 472,-739 472,-758"/>
<text text-anchor="middle" x="398" y="-746" font-family="Helvetica,sans-Serif" font-size="10.00">P4::BMV2::ActionConverter</text>
</a>
</g>
</g>
<!-- Node119&#45;&gt;Node122 -->
<g id="edge14_Node000119_Node000122" class="edge">
<title>Node119&#45;&gt;Node122</title>
<g id="a_edge14_Node000119_Node000122"><a xlink:title=" ">
<path fill="none" stroke="#63b8ff" d="M234.32,-632.54C246.04,-636.1 257.81,-641.45 267,-649.5 296.63,-675.46 272.14,-706.01 303,-730.5 309.12,-735.36 316.16,-739.03 323.57,-741.81"/>
<polygon fill="#63b8ff" stroke="#63b8ff" points="235.1,-629.13 224.54,-629.95 233.31,-635.89 235.1,-629.13"/>
</a>
</g>
</g>
<!-- Node123 -->
<g id="Node000123" class="node">
<title>Node123</title>
<g id="a_Node000123"><a xlink:href="class_p4_1_1_b_m_v2_1_1_check_unsupported.html" target="_top" xlink:title=" ">
<polygon fill="white" stroke="#bfbfbf" points="478.5,-721 317.5,-721 317.5,-702 478.5,-702 478.5,-721"/>
<text text-anchor="middle" x="398" y="-709" font-family="Helvetica,sans-Serif" font-size="10.00">P4::BMV2::CheckUnsupported</text>
</a>
</g>
</g>
<!-- Node119&#45;&gt;Node123 -->
<g id="edge15_Node000119_Node000123" class="edge">
<title>Node119&#45;&gt;Node123</title>
<g id="a_edge15_Node000119_Node000123"><a xlink:title=" ">
<path fill="none" stroke="#63b8ff" d="M234.58,-634.91C245.79,-638.4 257.27,-643.12 267,-649.5 287.85,-663.16 281.58,-679.76 303,-692.5 309.44,-696.33 316.52,-699.4 323.82,-701.86"/>
<polygon fill="#63b8ff" stroke="#63b8ff" points="235.41,-631.51 224.83,-632.15 233.5,-638.24 235.41,-631.51"/>
</a>
</g>
</g>
<!-- Node124 -->
<g id="Node000124" class="node">
<title>Node124</title>
<g id="a_Node000124"><a xlink:href="class_p4_1_1_b_m_v2_1_1_control_converter.html" target="_top" xlink:title=" ">
<polygon fill="white" stroke="#bfbfbf" points="474,-683.5 322,-683.5 322,-653.5 474,-653.5 474,-683.5"/>
<text text-anchor="start" x="330" y="-671.5" font-family="Helvetica,sans-Serif" font-size="10.00">P4::BMV2::ControlConverter</text>
<text text-anchor="middle" x="398" y="-660.5" font-family="Helvetica,sans-Serif" font-size="10.00">&lt; arch &gt;</text>
</a>
</g>
</g>
<!-- Node119&#45;&gt;Node124 -->
<g id="edge16_Node000119_Node000124" class="edge">
<title>Node119&#45;&gt;Node124</title>
<g id="a_edge16_Node000119_Node000124"><a xlink:title=" ">
<path fill="none" stroke="#63b8ff" d="M234.84,-635.53C261,-640.85 293.67,-647.49 322.83,-653.42"/>
<polygon fill="#63b8ff" stroke="#63b8ff" points="235.28,-632.05 224.79,-633.49 233.89,-638.91 235.28,-632.05"/>
</a>
</g>
</g>
<!-- Node125 -->
<g id="Node000125" class="node">
<title>Node125</title>
<g id="a_Node000125"><a xlink:href="class_p4_1_1_b_m_v2_1_1_convert_globals.html" target="_top" xlink:title=" ">
<polygon fill="white" stroke="#bfbfbf" points="470,-635 326,-635 326,-616 470,-616 470,-635"/>
<text text-anchor="middle" x="398" y="-623" font-family="Helvetica,sans-Serif" font-size="10.00">P4::BMV2::ConvertGlobals</text>
</a>
</g>
</g>
<!-- Node119&#45;&gt;Node125 -->
<g id="edge17_Node000119_Node000125" class="edge">
<title>Node119&#45;&gt;Node125</title>
<g id="a_edge17_Node000119_Node000125"><a xlink:title=" ">
<path fill="none" stroke="#63b8ff" d="M234.8,-625.5C261.87,-625.5 295.92,-625.5 325.83,-625.5"/>
<polygon fill="#63b8ff" stroke="#63b8ff" points="234.79,-622 224.79,-625.5 234.79,-629 234.79,-622"/>
</a>
</g>
</g>
<!-- Node126 -->
<g id="Node000126" class="node">
<title>Node126</title>
<g id="a_Node000126"><a xlink:href="class_p4_1_1_b_m_v2_1_1_convert_pna_to_json.html" target="_top" xlink:title=" ">
<polygon fill="white" stroke="#bfbfbf" points="476,-598 320,-598 320,-579 476,-579 476,-598"/>
<text text-anchor="middle" x="398" y="-586" font-family="Helvetica,sans-Serif" font-size="10.00">P4::BMV2::ConvertPnaToJson</text>
</a>
</g>
</g>
<!-- Node119&#45;&gt;Node126 -->
<g id="edge18_Node000119_Node000126" class="edge">
<title>Node119&#45;&gt;Node126</title>
<g id="a_edge18_Node000119_Node000126"><a xlink:title=" ">
<path fill="none" stroke="#63b8ff" d="M234.87,-616.86C267.09,-611.23 309.16,-603.87 342.38,-598.06"/>
<polygon fill="#63b8ff" stroke="#63b8ff" points="234.03,-613.46 224.79,-618.63 235.24,-620.35 234.03,-613.46"/>
</a>
</g>
</g>
<!-- Node127 -->
<g id="Node000127" class="node">
<title>Node127</title>
<g id="a_Node000127"><a xlink:href="class_p4_1_1_b_m_v2_1_1_convert_psa_to_json.html" target="_top" xlink:title=" ">
<polygon fill="white" stroke="#bfbfbf" points="475.5,-561 320.5,-561 320.5,-542 475.5,-542 475.5,-561"/>
<text text-anchor="middle" x="398" y="-549" font-family="Helvetica,sans-Serif" font-size="10.00">P4::BMV2::ConvertPsaToJson</text>
</a>
</g>
</g>
<!-- Node119&#45;&gt;Node127 -->
<g id="edge19_Node000119_Node000127" class="edge">
<title>Node119&#45;&gt;Node127</title>
<g id="a_edge19_Node000119_Node000127"><a xlink:title=" ">
<path fill="none" stroke="#63b8ff" d="M211.4,-611.18C234.73,-598.82 270.29,-581.29 303,-570.5 314.38,-566.74 326.8,-563.6 338.77,-561.02"/>
<polygon fill="#63b8ff" stroke="#63b8ff" points="209.64,-608.15 202.49,-615.96 212.95,-614.32 209.64,-608.15"/>
</a>
</g>
</g>
<!-- Node128 -->
<g id="Node000128" class="node">
<title>Node128</title>
<g id="a_Node000128"><a xlink:href="class_p4_1_1_b_m_v2_1_1_deparser_converter.html" target="_top" xlink:title=" ">
<polygon fill="white" stroke="#bfbfbf" points="478.5,-524 317.5,-524 317.5,-505 478.5,-505 478.5,-524"/>
<text text-anchor="middle" x="398" y="-512" font-family="Helvetica,sans-Serif" font-size="10.00">P4::BMV2::DeparserConverter</text>
</a>
</g>
</g>
<!-- Node119&#45;&gt;Node128 -->
<g id="edge20_Node000119_Node000128" class="edge">
<title>Node119&#45;&gt;Node128</title>
<g id="a_edge20_Node000119_Node000128"><a xlink:title=" ">
<path fill="none" stroke="#63b8ff" d="M201.74,-608.64C222.99,-587.64 262.31,-552.25 303,-533.5 311.47,-529.6 320.73,-526.49 330.03,-524.02"/>
<polygon fill="#63b8ff" stroke="#63b8ff" points="199.08,-606.36 194.52,-615.92 204.05,-611.29 199.08,-606.36"/>
</a>
</g>
</g>
<!-- Node129 -->
<g id="Node000129" class="node">
<title>Node129</title>
<g id="a_Node000129"><a xlink:href="class_p4_1_1_b_m_v2_1_1_expression_converter.html" target="_top" xlink:title=" ">
<polygon fill="white" stroke="orangered" points="483,-487 313,-487 313,-468 483,-468 483,-487"/>
<text text-anchor="middle" x="398" y="-475" font-family="Helvetica,sans-Serif" font-size="10.00">P4::BMV2::ExpressionConverter</text>
</a>
</g>
</g>
<!-- Node119&#45;&gt;Node129 -->
<g id="edge21_Node000119_Node000129" class="edge">
<title>Node119&#45;&gt;Node129</title>
<g id="a_edge21_Node000119_Node000129"><a xlink:title=" ">
<path fill="none" stroke="#63b8ff" d="M196.59,-607.23C214.95,-578.71 254.46,-524.02 303,-496.5 309.81,-492.64 317.28,-489.56 324.95,-487.1"/>
<polygon fill="#63b8ff" stroke="#63b8ff" points="193.55,-605.5 191.2,-615.83 199.48,-609.22 193.55,-605.5"/>
</a>
</g>
</g>
<!-- Node133 -->
<g id="Node000133" class="node">
<title>Node133</title>
<g id="a_Node000133"><a xlink:href="class_p4_1_1_b_m_v2_1_1_header_converter.html" target="_top" xlink:title=" ">
<polygon fill="white" stroke="#bfbfbf" points="474,-450 322,-450 322,-431 474,-431 474,-450"/>
<text text-anchor="middle" x="398" y="-438" font-family="Helvetica,sans-Serif" font-size="10.00">P4::BMV2::HeaderConverter</text>
</a>
</g>
</g>
<!-- Node119&#45;&gt;Node133 -->
<g id="edge22_Node000119_Node000133" class="edge">
<title>Node119&#45;&gt;Node133</title>
<g id="a_edge22_Node000119_Node000133"><a xlink:title=" ">
<path fill="none" stroke="#63b8ff" d="M193.39,-606.07C208.81,-570.76 246.42,-496.34 303,-459.5 308.86,-455.68 315.33,-452.61 322.05,-450.13"/>
<polygon fill="#63b8ff" stroke="#63b8ff" points="190,-605.11 189.33,-615.68 196.45,-607.84 190,-605.11"/>
</a>
</g>
</g>
<!-- Node134 -->
<g id="Node000134" class="node">
<title>Node134</title>
<g id="a_Node000134"><a xlink:href="class_p4_1_1_b_m_v2_1_1_parse_v1_architecture.html" target="_top" xlink:title=" ">
<polygon fill="white" stroke="#bfbfbf" points="481.5,-413 314.5,-413 314.5,-394 481.5,-394 481.5,-413"/>
<text text-anchor="middle" x="398" y="-401" font-family="Helvetica,sans-Serif" font-size="10.00">P4::BMV2::ParseV1Architecture</text>
</a>
</g>
</g>
<!-- Node119&#45;&gt;Node134 -->
<g id="edge23_Node000119_Node000134" class="edge">
<title>Node119&#45;&gt;Node134</title>
<g id="a_edge23_Node000119_Node000134"><a xlink:title=" ">
<path fill="none" stroke="#63b8ff" d="M190.8,-606.12C203.08,-565.11 237.56,-469.5 303,-422.5 308.27,-418.71 314.12,-415.64 320.25,-413.15"/>
<polygon fill="#63b8ff" stroke="#63b8ff" points="187.38,-605.36 187.98,-615.94 194.1,-607.3 187.38,-605.36"/>
</a>
</g>
</g>
<!-- Node135 -->
<g id="Node000135" class="node">
<title>Node135</title>
<g id="a_Node000135"><a xlink:href="class_p4_1_1_b_m_v2_1_1_parser_converter.html" target="_top" xlink:title=" ">
<polygon fill="white" stroke="#bfbfbf" points="471.5,-376 324.5,-376 324.5,-357 471.5,-357 471.5,-376"/>
<text text-anchor="middle" x="398" y="-364" font-family="Helvetica,sans-Serif" font-size="10.00">P4::BMV2::ParserConverter</text>
</a>
</g>
</g>
<!-- Node119&#45;&gt;Node135 -->
<g id="edge24_Node000119_Node000135" class="edge">
<title>Node119&#45;&gt;Node135</title>
<g id="a_edge24_Node000119_Node000135"><a xlink:title=" ">
<path fill="none" stroke="#63b8ff" d="M189.03,-605.83C198.45,-559.46 228.71,-442.86 303,-385.5 309.33,-380.62 316.58,-376.9 324.2,-374.07"/>
<polygon fill="#63b8ff" stroke="#63b8ff" points="185.57,-605.32 187.11,-615.8 192.44,-606.64 185.57,-605.32"/>
</a>
</g>
</g>
<!-- Node136 -->
<g id="Node000136" class="node">
<title>Node136</title>
<g id="a_Node000136"><a xlink:href="class_p4_1_1_b_m_v2_1_1_shared_action_selector_check.html" target="_top" xlink:title=" ">
<polygon fill="white" stroke="#666666" points="484.5,-338.5 311.5,-338.5 311.5,-308.5 484.5,-308.5 484.5,-338.5"/>
<text text-anchor="start" x="319.5" y="-326.5" font-family="Helvetica,sans-Serif" font-size="10.00">P4::BMV2::SharedActionSelector</text>
<text text-anchor="middle" x="398" y="-315.5" font-family="Helvetica,sans-Serif" font-size="10.00">Check&lt; arch &gt;</text>
</a>
</g>
</g>
<!-- Node119&#45;&gt;Node136 -->
<g id="edge25_Node000119_Node000136" class="edge">
<title>Node119&#45;&gt;Node136</title>
<g id="a_edge25_Node000119_Node000136"><a xlink:title=" ">
<path fill="none" stroke="#63b8ff" d="M187.9,-605.94C195.19,-555.32 221.76,-419.01 303,-348.5 307.46,-344.63 312.46,-341.34 317.77,-338.56"/>
<polygon fill="#63b8ff" stroke="#63b8ff" points="184.43,-605.52 186.57,-615.9 191.37,-606.45 184.43,-605.52"/>
</a>
</g>
</g>
<!-- Node137 -->
<g id="Node000137" class="node">
<title>Node137</title>
<g id="a_Node000137"><a xlink:href="class_p4_1_1_build_resource_map.html" target="_top" xlink:title=" ">
<polygon fill="white" stroke="#666666" points="460.5,-290 335.5,-290 335.5,-271 460.5,-271 460.5,-290"/>
<text text-anchor="middle" x="398" y="-278" font-family="Helvetica,sans-Serif" font-size="10.00">P4::BuildResourceMap</text>
</a>
</g>
</g>
<!-- Node119&#45;&gt;Node137 -->
<g id="edge26_Node000119_Node000137" class="edge">
<title>Node119&#45;&gt;Node137</title>
<g id="a_edge26_Node000119_Node000137"><a xlink:title=" ">
<path fill="none" stroke="#63b8ff" d="M191.28,-606.08C211.39,-539.13 278.36,-320.77 303,-299.5 312.07,-291.67 323.48,-286.74 335.19,-283.7"/>
<polygon fill="#63b8ff" stroke="#63b8ff" points="187.89,-605.22 188.38,-615.8 194.6,-607.22 187.89,-605.22"/>
</a>
</g>
</g>
<!-- Node138 -->
<g id="Node000138" class="node">
<title>Node138</title>
<g id="a_Node000138"><a xlink:href="class_p4_1_1_check_extern_invocation_common.html" target="_top" xlink:title="Base class which can be used to prepare classes for checking constraints for invocations of externs (...">
<polygon fill="#fff0f0" stroke="red" points="471.5,-252.5 324.5,-252.5 324.5,-222.5 471.5,-222.5 471.5,-252.5"/>
<text text-anchor="start" x="332.5" y="-240.5" font-family="Helvetica,sans-Serif" font-size="10.00">P4::CheckExternInvocation</text>
<text text-anchor="middle" x="398" y="-229.5" font-family="Helvetica,sans-Serif" font-size="10.00">Common</text>
</a>
</g>
</g>
<!-- Node119&#45;&gt;Node138 -->
<g id="edge27_Node000119_Node000138" class="edge">
<title>Node119&#45;&gt;Node138</title>
<g id="a_edge27_Node000119_Node000138"><a xlink:title=" ">
<path fill="none" stroke="#63b8ff" d="M191.75,-606.17C216.03,-531.06 302.79,-262.7 303,-262.5 309.13,-256.69 316.45,-252.2 324.26,-248.73"/>
<polygon fill="#63b8ff" stroke="#63b8ff" points="188.38,-605.2 188.64,-615.8 195.04,-607.36 188.38,-605.2"/>
</a>
</g>
</g>
<!-- Node140 -->
<g id="Node000140" class="node">
<title>Node140</title>
<g id="a_Node000140"><a xlink:href="class_p4_1_1_check_named_args.html" target="_top" xlink:title=" ">
<polygon fill="white" stroke="#666666" points="459,-204 337,-204 337,-185 459,-185 459,-204"/>
<text text-anchor="middle" x="398" y="-192" font-family="Helvetica,sans-Serif" font-size="10.00">P4::CheckNamedArgs</text>
</a>
</g>
</g>
<!-- Node119&#45;&gt;Node140 -->
<g id="edge28_Node000119_Node000140" class="edge">
<title>Node119&#45;&gt;Node140</title>
<g id="a_edge28_Node000119_Node000140"><a xlink:title=" ">
<path fill="none" stroke="#63b8ff" d="M192.3,-606.52C207.11,-564.77 242.89,-461.63 267,-373.5 286.23,-303.19 250.9,-264.47 303,-213.5 312.16,-204.53 324.32,-199.24 336.84,-196.23"/>
<polygon fill="#63b8ff" stroke="#63b8ff" points="188.99,-605.39 188.93,-615.98 195.58,-607.74 188.99,-605.39"/>
</a>
</g>
</g>
<!-- Node141 -->
<g id="Node000141" class="node">
<title>Node141</title>
<g id="a_Node000141"><a xlink:href="class_p4_1_1_clear_type_map.html" target="_top" xlink:title=" ">
<polygon fill="white" stroke="#bfbfbf" points="450,-167 346,-167 346,-148 450,-148 450,-167"/>
<text text-anchor="middle" x="398" y="-155" font-family="Helvetica,sans-Serif" font-size="10.00">P4::ClearTypeMap</text>
</a>
</g>
</g>
<!-- Node119&#45;&gt;Node141 -->
<g id="edge29_Node000119_Node000141" class="edge">
<title>Node119&#45;&gt;Node141</title>
<g id="a_edge29_Node000119_Node000141"><a xlink:title=" ">
<path fill="none" stroke="#63b8ff" d="M192.78,-606.01C208.25,-564.03 244.78,-461.69 267,-373.5 288.74,-287.19 240.65,-240.02 303,-176.5 314.2,-165.09 330.21,-159.57 345.86,-157.12"/>
<polygon fill="#63b8ff" stroke="#63b8ff" points="189.44,-604.96 189.24,-615.56 196,-607.4 189.44,-604.96"/>
</a>
</g>
</g>
<!-- Node142 -->
<g id="Node000142" class="node">
<title>Node142</title>
<g id="a_Node000142"><a xlink:href="class_p4_1_1_compile_time_operations.html" target="_top" xlink:title=" ">
<polygon fill="white" stroke="#666666" points="474.5,-130 321.5,-130 321.5,-111 474.5,-111 474.5,-130"/>
<text text-anchor="middle" x="398" y="-118" font-family="Helvetica,sans-Serif" font-size="10.00">P4::CompileTimeOperations</text>
</a>
</g>
</g>
<!-- Node119&#45;&gt;Node142 -->
<g id="edge30_Node000119_Node000142" class="edge">
<title>Node119&#45;&gt;Node142</title>
<g id="a_edge30_Node000119_Node000142"><a xlink:title=" ">
<path fill="none" stroke="#63b8ff" d="M192.97,-606.06C208.81,-564.17 246.03,-461.99 267,-373.5 279.13,-322.31 266.68,-177.56 303,-139.5 308.17,-134.08 314.43,-129.98 321.23,-126.9"/>
<polygon fill="#63b8ff" stroke="#63b8ff" points="189.64,-604.99 189.35,-615.58 196.18,-607.48 189.64,-604.99"/>
</a>
</g>
</g>
<!-- Node143 -->
<g id="Node000143" class="node">
<title>Node143</title>
<g id="a_Node000143"><a xlink:href="class_p4_1_1_compute_parser_c_g.html" target="_top" xlink:title="Builds a CallGraph of ParserState nodes.">
<polygon fill="white" stroke="#666666" points="459.5,-93 336.5,-93 336.5,-74 459.5,-74 459.5,-93"/>
<text text-anchor="middle" x="398" y="-81" font-family="Helvetica,sans-Serif" font-size="10.00">P4::ComputeParserCG</text>
</a>
</g>
</g>
<!-- Node119&#45;&gt;Node143 -->
<g id="edge32_Node000119_Node000143" class="edge">
<title>Node119&#45;&gt;Node143</title>
<g id="a_edge32_Node000119_Node000143"><a xlink:title=" ">
<path fill="none" stroke="#63b8ff" d="M193.11,-606.09C209.23,-564.26 246.94,-462.2 267,-373.5 280.4,-314.25 261.51,-146.88 303,-102.5 311.75,-93.13 323.75,-87.68 336.24,-84.64"/>
<polygon fill="#63b8ff" stroke="#63b8ff" points="189.78,-605.01 189.42,-615.6 196.31,-607.54 189.78,-605.01"/>
</a>
</g>
</g>
<!-- Node144 -->
<g id="Node000144" class="node">
<title>Node144</title>
<g id="a_Node000144"><a xlink:href="class_p4_1_1_compute_write_set.html" target="_top" xlink:title=" ">
<polygon fill="white" stroke="#666666" points="458.5,-1322 337.5,-1322 337.5,-1303 458.5,-1303 458.5,-1322"/>
<text text-anchor="middle" x="398" y="-1310" font-family="Helvetica,sans-Serif" font-size="10.00">P4::ComputeWriteSet</text>
</a>
</g>
</g>
<!-- Node119&#45;&gt;Node144 -->
<g id="edge33_Node000119_Node000144" class="edge">
<title>Node119&#45;&gt;Node144</title>
<g id="a_edge33_Node000119_Node000144"><a xlink:title=" ">
<path fill="none" stroke="#63b8ff" d="M234.49,-629.85C246.9,-633.37 258.98,-639.37 267,-649.5 356.16,-762.02 208.48,-1186.45 303,-1294.5 311.75,-1304.51 324.21,-1310.01 337.21,-1312.86"/>
<polygon fill="#63b8ff" stroke="#63b8ff" points="235.07,-626.39 224.53,-627.53 233.48,-633.21 235.07,-626.39"/>
</a>
</g>
</g>
<!-- Node145 -->
<g id="Node000145" class="node">
<title>Node145</title>
<g id="a_Node000145"><a xlink:href="class_p4_1_1_contains_type.html" target="_top" xlink:title=" ">
<polygon fill="white" stroke="#bfbfbf" points="448,-1285 348,-1285 348,-1266 448,-1266 448,-1285"/>
<text text-anchor="middle" x="398" y="-1273" font-family="Helvetica,sans-Serif" font-size="10.00">P4::ContainsType</text>
</a>
</g>
</g>
<!-- Node119&#45;&gt;Node145 -->
<g id="edge34_Node000119_Node000145" class="edge">
<title>Node119&#45;&gt;Node145</title>
<g id="a_edge34_Node000119_Node000145"><a xlink:title=" ">
<path fill="none" stroke="#63b8ff" d="M234.47,-629.87C246.88,-633.39 258.96,-639.39 267,-649.5 351.1,-755.26 214.38,-1154.49 303,-1256.5 314.14,-1269.32 331.32,-1274.94 347.97,-1277.06"/>
<polygon fill="#63b8ff" stroke="#63b8ff" points="235.05,-626.41 224.51,-627.54 233.46,-633.22 235.05,-626.41"/>
</a>
</g>
</g>
<!-- Node146 -->
<g id="Node000146" class="node">
<title>Node146</title>
<g id="a_Node000146"><a xlink:href="class_p4_1_1_control_flow_visitor_1_1_setup_join_points.html" target="_top" xlink:title=" ">
<polygon fill="white" stroke="orangered" points="460.5,-1247.5 335.5,-1247.5 335.5,-1217.5 460.5,-1217.5 460.5,-1247.5"/>
<text text-anchor="start" x="343.5" y="-1235.5" font-family="Helvetica,sans-Serif" font-size="10.00">P4::ControlFlowVisitor</text>
<text text-anchor="middle" x="398" y="-1224.5" font-family="Helvetica,sans-Serif" font-size="10.00">::SetupJoinPoints</text>
</a>
</g>
</g>
<!-- Node119&#45;&gt;Node146 -->
<g id="edge35_Node000119_Node000146" class="edge">
<title>Node119&#45;&gt;Node146</title>
<g id="a_edge35_Node000119_Node000146"><a xlink:title=" ">
<path fill="none" stroke="#63b8ff" d="M234.77,-629.99C247.06,-633.52 259.01,-639.5 267,-649.5 344.72,-746.73 223.52,-1112.7 303,-1208.5 311.17,-1218.35 322.78,-1224.47 335.06,-1228.2"/>
<polygon fill="#63b8ff" stroke="#63b8ff" points="235.44,-626.55 224.9,-627.65 233.83,-633.36 235.44,-626.55"/>
</a>
</g>
</g>
<!-- Node148 -->
<g id="Node000148" class="node">
<title>Node148</title>
<g id="a_Node000148"><a xlink:href="class_p4_1_1_control_plane_a_p_i_1_1_type_spec_converter.html" target="_top" xlink:title="Generates the appropriate p4.P4DataTypeSpec for a given IR::Type node.">
<polygon fill="white" stroke="#666666" points="456,-1199.5 340,-1199.5 340,-1169.5 456,-1169.5 456,-1199.5"/>
<text text-anchor="start" x="348" y="-1187.5" font-family="Helvetica,sans-Serif" font-size="10.00">P4::ControlPlaneAPI</text>
<text text-anchor="middle" x="398" y="-1176.5" font-family="Helvetica,sans-Serif" font-size="10.00">::TypeSpecConverter</text>
</a>
</g>
</g>
<!-- Node119&#45;&gt;Node148 -->
<g id="edge36_Node000119_Node000148" class="edge">
<title>Node119&#45;&gt;Node148</title>
<g id="a_edge36_Node000119_Node000148"><a xlink:title=" ">
<path fill="none" stroke="#63b8ff" d="M234.73,-630.02C247.02,-633.55 258.98,-639.52 267,-649.5 338.35,-738.2 230.05,-1073.11 303,-1160.5 312.28,-1171.62 325.94,-1177.98 339.98,-1181.52"/>
<polygon fill="#63b8ff" stroke="#63b8ff" points="235.4,-626.58 224.87,-627.68 233.79,-633.39 235.4,-626.58"/>
</a>
</g>
</g>
<!-- Node149 -->
<g id="Node000149" class="node">
<title>Node149</title>
<g id="a_Node000149"><a xlink:href="class_p4_1_1_coverage_1_1_collect_nodes.html" target="_top" xlink:title=" ">
<polygon fill="white" stroke="#666666" points="474,-1151 322,-1151 322,-1132 474,-1132 474,-1151"/>
<text text-anchor="middle" x="398" y="-1139" font-family="Helvetica,sans-Serif" font-size="10.00">P4::Coverage::CollectNodes</text>
</a>
</g>
</g>
<!-- Node119&#45;&gt;Node149 -->
<g id="edge37_Node000119_Node000149" class="edge">
<title>Node119&#45;&gt;Node149</title>
<g id="a_edge37_Node000119_Node000149"><a xlink:title=" ">
<path fill="none" stroke="#63b8ff" d="M234.69,-630.05C246.99,-633.58 258.95,-639.55 267,-649.5 333.43,-731.63 232.66,-1044.69 303,-1123.5 308.2,-1129.33 314.66,-1133.62 321.74,-1136.75"/>
<polygon fill="#63b8ff" stroke="#63b8ff" points="235.37,-626.61 224.83,-627.71 233.75,-633.42 235.37,-626.61"/>
</a>
</g>
</g>
<!-- Node150 -->
<g id="Node000150" class="node">
<title>Node150</title>
<g id="a_Node000150"><a xlink:href="class_p4_1_1_d_p_d_k_1_1_check_extern_invocation.html" target="_top" xlink:title="Class which chooses the correct class for checking the constraints for invocations....">
<polygon fill="white" stroke="#666666" points="488.5,-1114 307.5,-1114 307.5,-1095 488.5,-1095 488.5,-1114"/>
<text text-anchor="middle" x="398" y="-1102" font-family="Helvetica,sans-Serif" font-size="10.00">P4::DPDK::CheckExternInvocation</text>
</a>
</g>
</g>
<!-- Node119&#45;&gt;Node150 -->
<g id="edge38_Node000119_Node000150" class="edge">
<title>Node119&#45;&gt;Node150</title>
<g id="a_edge38_Node000119_Node000150"><a xlink:title=" ">
<path fill="none" stroke="#63b8ff" d="M234.65,-630.08C246.95,-633.62 258.92,-639.57 267,-649.5 328.52,-725.06 237.88,-1014.01 303,-1086.5 305.89,-1089.71 309.16,-1092.46 312.7,-1094.8"/>
<polygon fill="#63b8ff" stroke="#63b8ff" points="235.33,-626.65 224.79,-627.74 233.71,-633.46 235.33,-626.65"/>
</a>
</g>
</g>
<!-- Node151 -->
<g id="Node000151" class="node">
<title>Node151</title>
<g id="a_Node000151"><a xlink:href="class_p4_1_1_d_p_d_k_1_1_collect_action_uses.html" target="_top" xlink:title=" ">
<polygon fill="white" stroke="#bfbfbf" points="476.5,-1077 319.5,-1077 319.5,-1058 476.5,-1058 476.5,-1077"/>
<text text-anchor="middle" x="398" y="-1065" font-family="Helvetica,sans-Serif" font-size="10.00">P4::DPDK::CollectActionUses</text>
</a>
</g>
</g>
<!-- Node119&#45;&gt;Node151 -->
<g id="edge39_Node000119_Node000151" class="edge">
<title>Node119&#45;&gt;Node151</title>
<g id="a_edge39_Node000119_Node000151"><a xlink:title=" ">
<path fill="none" stroke="#63b8ff" d="M234.6,-630.12C246.9,-633.66 258.88,-639.6 267,-649.5 323.48,-718.32 243.59,-982.2 303,-1048.5 307.56,-1053.58 313.06,-1057.53 319.1,-1060.56"/>
<polygon fill="#63b8ff" stroke="#63b8ff" points="235.28,-626.69 224.75,-627.78 233.66,-633.5 235.28,-626.69"/>
</a>
</g>
</g>
<!-- Node152 -->
<g id="Node000152" class="node">
<title>Node152</title>
<g id="a_Node000152"><a xlink:href="class_p4_1_1_d_p_d_k_1_1_collect_add_on_miss_table.html" target="_top" xlink:title=" ">
<polygon fill="white" stroke="#bfbfbf" points="476.5,-1039.5 319.5,-1039.5 319.5,-1009.5 476.5,-1009.5 476.5,-1039.5"/>
<text text-anchor="start" x="327.5" y="-1027.5" font-family="Helvetica,sans-Serif" font-size="10.00">P4::DPDK::CollectAddOnMiss</text>
<text text-anchor="middle" x="398" y="-1016.5" font-family="Helvetica,sans-Serif" font-size="10.00">Table</text>
</a>
</g>
</g>
<!-- Node119&#45;&gt;Node152 -->
<g id="edge40_Node000119_Node000152" class="edge">
<title>Node119&#45;&gt;Node152</title>
<g id="a_edge40_Node000119_Node000152"><a xlink:title=" ">
<path fill="none" stroke="#63b8ff" d="M234.52,-630.19C246.82,-633.72 258.82,-639.65 267,-649.5 367.22,-770.11 200.6,-881.73 303,-1000.5 307.62,-1005.86 313.25,-1010.1 319.44,-1013.46"/>
<polygon fill="#63b8ff" stroke="#63b8ff" points="235.21,-626.75 224.67,-627.84 233.59,-633.56 235.21,-626.75"/>
</a>
</g>
</g>
<!-- Node153 -->
<g id="Node000153" class="node">
<title>Node153</title>
<g id="a_Node000153"><a xlink:href="class_p4_1_1_d_p_d_k_1_1_collect_direct_counter_meter.html" target="_top" xlink:title=" ">
<polygon fill="white" stroke="#bfbfbf" points="483,-991.5 313,-991.5 313,-961.5 483,-961.5 483,-991.5"/>
<text text-anchor="start" x="321" y="-979.5" font-family="Helvetica,sans-Serif" font-size="10.00">P4::DPDK::CollectDirectCounter</text>
<text text-anchor="middle" x="398" y="-968.5" font-family="Helvetica,sans-Serif" font-size="10.00">Meter</text>
</a>
</g>
</g>
<!-- Node119&#45;&gt;Node153 -->
<g id="edge41_Node000119_Node000153" class="edge">
<title>Node119&#45;&gt;Node153</title>
<g id="a_edge41_Node000119_Node000153"><a xlink:title=" ">
<path fill="none" stroke="#63b8ff" d="M234.42,-630.28C246.71,-633.81 258.74,-639.72 267,-649.5 354.5,-753.11 213.63,-850.5 303,-952.5 306,-955.92 309.41,-958.89 313.11,-961.46"/>
<polygon fill="#63b8ff" stroke="#63b8ff" points="235.11,-626.84 224.57,-627.92 233.48,-633.65 235.11,-626.84"/>
</a>
</g>
</g>
<!-- Node154 -->
<g id="Node000154" class="node">
<title>Node154</title>
<g id="a_Node000154"><a xlink:href="class_p4_1_1_d_p_d_k_1_1_collect_errors.html" target="_top" xlink:title=" ">
<polygon fill="white" stroke="#bfbfbf" points="463.5,-943 332.5,-943 332.5,-924 463.5,-924 463.5,-943"/>
<text text-anchor="middle" x="398" y="-931" font-family="Helvetica,sans-Serif" font-size="10.00">P4::DPDK::CollectErrors</text>
</a>
</g>
</g>
<!-- Node119&#45;&gt;Node154 -->
<g id="edge42_Node000119_Node000154" class="edge">
<title>Node119&#45;&gt;Node154</title>
<g id="a_edge42_Node000119_Node000154"><a xlink:title=" ">
<path fill="none" stroke="#63b8ff" d="M234.65,-630.46C246.83,-634.01 258.74,-639.87 267,-649.5 344.72,-740.01 220.98,-828.87 303,-915.5 310.88,-923.83 321.34,-928.97 332.42,-932.05"/>
<polygon fill="#63b8ff" stroke="#63b8ff" points="235.44,-627.05 224.9,-628.09 233.78,-633.85 235.44,-627.05"/>
</a>
</g>
</g>
<!-- Node155 -->
<g id="Node000155" class="node">
<title>Node155</title>
<g id="a_Node000155"><a xlink:href="class_p4_1_1_d_p_d_k_1_1_collect_extern_declaration.html" target="_top" xlink:title=" ">
<polygon fill="white" stroke="#bfbfbf" points="493,-906 303,-906 303,-887 493,-887 493,-906"/>
<text text-anchor="middle" x="398" y="-894" font-family="Helvetica,sans-Serif" font-size="10.00">P4::DPDK::CollectExternDeclaration</text>
</a>
</g>
</g>
<!-- Node119&#45;&gt;Node155 -->
<g id="edge43_Node000119_Node000155" class="edge">
<title>Node119&#45;&gt;Node155</title>
<g id="a_edge43_Node000119_Node000155"><a xlink:title=" ">
<path fill="none" stroke="#63b8ff" d="M234.52,-630.58C246.69,-634.13 258.63,-639.96 267,-649.5 334.95,-726.95 231.37,-804.45 303,-878.5 306.12,-881.72 309.63,-884.47 313.4,-886.8"/>
<polygon fill="#63b8ff" stroke="#63b8ff" points="235.31,-627.17 224.77,-628.2 233.65,-633.97 235.31,-627.17"/>
</a>
</g>
</g>
<!-- Node156 -->
<g id="Node000156" class="node">
<title>Node156</title>
<g id="a_Node000156"><a xlink:href="class_p4_1_1_d_p_d_k_1_1_collect_i_p_sec_info.html" target="_top" xlink:title=" ">
<polygon fill="white" stroke="#bfbfbf" points="471.5,-869 324.5,-869 324.5,-850 471.5,-850 471.5,-869"/>
<text text-anchor="middle" x="398" y="-857" font-family="Helvetica,sans-Serif" font-size="10.00">P4::DPDK::CollectIPSecInfo</text>
</a>
</g>
</g>
<!-- Node119&#45;&gt;Node156 -->
<g id="edge44_Node000119_Node000156" class="edge">
<title>Node119&#45;&gt;Node156</title>
<g id="a_edge44_Node000119_Node000156"><a xlink:title=" ">
<path fill="none" stroke="#63b8ff" d="M234.33,-630.74C246.5,-634.29 258.49,-640.09 267,-649.5 325.21,-713.91 241.73,-779.99 303,-841.5 308.98,-847.5 316.31,-851.83 324.21,-854.91"/>
<polygon fill="#63b8ff" stroke="#63b8ff" points="235.14,-627.34 224.59,-628.35 233.47,-634.14 235.14,-627.34"/>
</a>
</g>
</g>
<!-- Node320&#45;&gt;Node115 -->
<g id="edge48_Node000320_Node000115" class="edge">
<title>Node320&#45;&gt;Node115</title>
<g id="a_edge48_Node000320_Node000115"><a xlink:title=" ">
<path fill="none" stroke="#63b8ff" d="M249.77,-274.14C256.2,-271.33 262.13,-267.55 267,-262.5 328.77,-198.42 240.65,-129.02 303,-65.5 312.91,-55.4 326.61,-49.91 340.48,-47.09"/>
<polygon fill="#63b8ff" stroke="#63b8ff" points="248.3,-270.95 240.06,-277.61 250.66,-277.54 248.3,-270.95"/>
</a>
</g>
</g>
<!-- Node320&#45;&gt;Node116 -->
<g id="edge49_Node000320_Node000116" class="edge">
<title>Node320&#45;&gt;Node116</title>
<g id="a_edge49_Node000320_Node000116"><a xlink:title=" ">
<path fill="none" stroke="#8b1a1a" d="M249.91,-274.28C256.31,-271.44 262.21,-267.61 267,-262.5 338.96,-185.73 230.36,-104.62 303,-28.5 307.71,-23.56 313.33,-19.72 319.43,-16.74"/>
<polygon fill="#8b1a1a" stroke="#8b1a1a" points="248.45,-271.08 240.23,-277.77 250.82,-277.67 248.45,-271.08"/>
</a>
</g>
</g>
<!-- Node327&#45;&gt;Node115 -->
<g id="edge52_Node000327_Node000115" class="edge">
<title>Node327&#45;&gt;Node115</title>
<g id="a_edge52_Node000327_Node000115"><a xlink:title=" ">
<path fill="none" stroke="#63b8ff" d="M256.37,-345.07C260.28,-342.72 263.88,-339.89 267,-336.5 349.17,-247 220.03,-154.26 303,-65.5 312.66,-55.16 326.27,-49.59 340.14,-46.77"/>
<polygon fill="#63b8ff" stroke="#63b8ff" points="254.8,-341.95 247.36,-349.49 257.88,-348.23 254.8,-341.95"/>
</a>
</g>
</g>
<!-- Node354&#45;&gt;Node116 -->
<g id="edge54_Node000354_Node000116" class="edge">
<title>Node354&#45;&gt;Node116</title>
<g id="a_edge54_Node000354_Node000116"><a xlink:title=" ">
<path fill="none" stroke="#8b1a1a" d="M236.18,-241.63C247.65,-238.88 258.83,-233.97 267,-225.5 328.77,-161.42 240.65,-92.02 303,-28.5 307.66,-23.75 313.17,-20.02 319.13,-17.1"/>
<polygon fill="#8b1a1a" stroke="#8b1a1a" points="235.27,-238.24 226.09,-243.53 236.57,-245.12 235.27,-238.24"/>
</a>
</g>
</g>
</g>
</svg>
