<?xml version="1.0" encoding="UTF-8" standalone="no"?>
<!DOCTYPE svg PUBLIC "-//W3C//DTD SVG 1.1//EN"
 "http://www.w3.org/Graphics/SVG/1.1/DTD/svg11.dtd">
<!-- Generated by graphviz version 11.0.0 (20240428.1522)
 -->
<!-- Title: P4::DPDK::DpdkAsmOptimization Pages: 1 -->
<svg width="173pt" height="252pt"
 viewBox="0.00 0.00 172.50 252.00" xmlns="http://www.w3.org/2000/svg" xmlns:xlink="http://www.w3.org/1999/xlink">
<g id="graph0" class="graph" transform="scale(1 1) rotate(0) translate(4 248)">
<title>P4::DPDK::DpdkAsmOptimization</title>
<!-- Node1 -->
<g id="Node000001" class="node">
<title>Node1</title>
<g id="a_Node000001"><a xlink:title=" ">
<polygon fill="#999999" stroke="#666666" points="164.5,-20 0,-20 0,0 164.5,0 164.5,-20"/>
<text text-anchor="middle" x="82.25" y="-6.5" font-family="Helvetica,sans-Serif" font-size="10.00">P4::DPDK::DpdkAsmOptimization</text>
</a>
</g>
</g>
<!-- Node2 -->
<g id="Node000002" class="node">
<title>Node2</title>
<g id="a_Node000002"><a xlink:href="class_p4_1_1_pass_repeated.html" target="_top" xlink:title=" ">
<polygon fill="white" stroke="#bfbfbf" points="131.12,-76 33.38,-76 33.38,-56 131.12,-56 131.12,-76"/>
<text text-anchor="middle" x="82.25" y="-62.5" font-family="Helvetica,sans-Serif" font-size="10.00">P4::PassRepeated</text>
</a>
</g>
</g>
<!-- Node2&#45;&gt;Node1 -->
<g id="edge1_Node000001_Node000002" class="edge">
<title>Node2&#45;&gt;Node1</title>
<g id="a_edge1_Node000001_Node000002"><a xlink:title=" ">
<path fill="none" stroke="#63b8ff" d="M82.25,-44.13C82.25,-35.9 82.25,-26.85 82.25,-20.3"/>
<polygon fill="#63b8ff" stroke="#63b8ff" points="78.75,-44.08 82.25,-54.08 85.75,-44.08 78.75,-44.08"/>
</a>
</g>
</g>
<!-- Node3 -->
<g id="Node000003" class="node">
<title>Node3</title>
<g id="a_Node000003"><a xlink:href="class_p4_1_1_pass_manager.html" target="_top" xlink:title=" ">
<polygon fill="white" stroke="#bfbfbf" points="129.25,-132 35.25,-132 35.25,-112 129.25,-112 129.25,-132"/>
<text text-anchor="middle" x="82.25" y="-118.5" font-family="Helvetica,sans-Serif" font-size="10.00">P4::PassManager</text>
</a>
</g>
</g>
<!-- Node3&#45;&gt;Node2 -->
<g id="edge2_Node000002_Node000003" class="edge">
<title>Node3&#45;&gt;Node2</title>
<g id="a_edge2_Node000002_Node000003"><a xlink:title=" ">
<path fill="none" stroke="#63b8ff" d="M82.25,-100.13C82.25,-91.9 82.25,-82.85 82.25,-76.3"/>
<polygon fill="#63b8ff" stroke="#63b8ff" points="78.75,-100.08 82.25,-110.08 85.75,-100.08 78.75,-100.08"/>
</a>
</g>
</g>
<!-- Node4 -->
<g id="Node000004" class="node">
<title>Node4</title>
<g id="a_Node000004"><a xlink:href="class_p4_1_1_visitor.html" target="_top" xlink:title=" ">
<polygon fill="white" stroke="#bfbfbf" points="113.12,-244 51.38,-244 51.38,-224 113.12,-224 113.12,-244"/>
<text text-anchor="middle" x="82.25" y="-230.5" font-family="Helvetica,sans-Serif" font-size="10.00">P4::Visitor</text>
</a>
</g>
</g>
<!-- Node4&#45;&gt;Node3 -->
<g id="edge3_Node000003_Node000004" class="edge">
<title>Node4&#45;&gt;Node3</title>
<g id="a_edge3_Node000003_Node000004"><a xlink:title=" ">
<path fill="none" stroke="#63b8ff" d="M74.1,-213.02C69.83,-200.23 65.94,-183.22 68.25,-168 70.17,-155.38 74.95,-141.43 78.39,-132.46"/>
<polygon fill="#63b8ff" stroke="#63b8ff" points="70.82,-214.24 77.58,-222.39 77.38,-211.8 70.82,-214.24"/>
</a>
</g>
</g>
<!-- Node5 -->
<g id="Node000005" class="node">
<title>Node5</title>
<g id="a_Node000005"><a xlink:href="class_p4_1_1_backtrack.html" target="_top" xlink:title=" ">
<polygon fill="white" stroke="#bfbfbf" points="155.38,-188 77.12,-188 77.12,-168 155.38,-168 155.38,-188"/>
<text text-anchor="middle" x="116.25" y="-174.5" font-family="Helvetica,sans-Serif" font-size="10.00">P4::Backtrack</text>
</a>
</g>
</g>
<!-- Node4&#45;&gt;Node5 -->
<g id="edge5_Node000005_Node000004" class="edge">
<title>Node4&#45;&gt;Node5</title>
<g id="a_edge5_Node000005_Node000004"><a xlink:title=" ">
<path fill="none" stroke="#63b8ff" d="M94.3,-213.87C99.76,-205.19 105.98,-195.32 110.4,-188.3"/>
<polygon fill="#63b8ff" stroke="#63b8ff" points="91.35,-211.99 88.98,-222.31 97.27,-215.72 91.35,-211.99"/>
</a>
</g>
</g>
<!-- Node5&#45;&gt;Node3 -->
<g id="edge4_Node000003_Node000005" class="edge">
<title>Node5&#45;&gt;Node3</title>
<g id="a_edge4_Node000003_Node000005"><a xlink:title=" ">
<path fill="none" stroke="#63b8ff" d="M104.2,-157.87C98.74,-149.19 92.52,-139.32 88.1,-132.3"/>
<polygon fill="#63b8ff" stroke="#63b8ff" points="101.23,-159.72 109.52,-166.31 107.15,-155.99 101.23,-159.72"/>
</a>
</g>
</g>
</g>
</svg>
