<?xml version="1.0" encoding="UTF-8" standalone="no"?>
<!DOCTYPE svg PUBLIC "-//W3C//DTD SVG 1.1//EN"
 "http://www.w3.org/Graphics/SVG/1.1/DTD/svg11.dtd">
<!-- Generated by graphviz version 2.43.0 (0)
 -->
<!-- Title: P4::ActionReplacement Pages: 1 -->
<svg width="565pt" height="122pt"
 viewBox="0.00 0.00 565.00 121.50" xmlns="http://www.w3.org/2000/svg" xmlns:xlink="http://www.w3.org/1999/xlink">
<g id="graph0" class="graph" transform="scale(1 1) rotate(0) translate(4 117.5)">
<title>P4::ActionReplacement</title>
<polygon fill="white" stroke="transparent" points="-4,4 -4,-117.5 561,-117.5 561,4 -4,4"/>
<!-- Node1 -->
<g id="node1" class="node">
<title>Node1</title>
<g id="a_node1"><a xlink:title=" ">
<polygon fill="#bfbfbf" stroke="black" points="427,-50 427,-69 557,-69 557,-50 427,-50"/>
<text text-anchor="middle" x="492" y="-57" font-family="Helvetica,sans-Serif" font-size="10.00">P4::ActionReplacement</text>
</a>
</g>
</g>
<!-- Node2 -->
<g id="node2" class="node">
<title>Node2</title>
<g id="a_node2"><a xlink:title=" ">
<polygon fill="white" stroke="#bfbfbf" points="213.5,-72 213.5,-113 340.5,-113 340.5,-72 213.5,-72"/>
<text text-anchor="start" x="221.5" y="-101" font-family="Helvetica,sans-Serif" font-size="10.00">std::map&lt; const IR</text>
<text text-anchor="start" x="221.5" y="-90" font-family="Helvetica,sans-Serif" font-size="10.00">::PathExpression *,</text>
<text text-anchor="middle" x="277" y="-79" font-family="Helvetica,sans-Serif" font-size="10.00"> const IR::P4Action * &gt;</text>
</a>
</g>
</g>
<!-- Node2&#45;&gt;Node1 -->
<g id="edge1" class="edge">
<title>Node2&#45;&gt;Node1</title>
<path fill="none" stroke="#9a32cd" stroke-dasharray="5,2" d="M350.78,-81.22C376.37,-77.26 404.85,-72.85 429.43,-69.04"/>
<polygon fill="#9a32cd" stroke="#9a32cd" points="350.1,-77.79 340.75,-82.78 351.17,-84.71 350.1,-77.79"/>
<text text-anchor="middle" x="388.5" y="-80.5" font-family="Helvetica,sans-Serif" font-size="10.00"> repl</text>
</g>
<!-- Node3 -->
<g id="node3" class="node">
<title>Node3</title>
<g id="a_node3"><a xlink:title=" ">
<polygon fill="white" stroke="#bfbfbf" points="204,-0.5 204,-52.5 350,-52.5 350,-0.5 204,-0.5"/>
<text text-anchor="start" x="212" y="-40.5" font-family="Helvetica,sans-Serif" font-size="10.00">std::map&lt; const IR</text>
<text text-anchor="start" x="212" y="-29.5" font-family="Helvetica,sans-Serif" font-size="10.00">::P4Action *, ordered</text>
<text text-anchor="start" x="212" y="-18.5" font-family="Helvetica,sans-Serif" font-size="10.00">_map&lt; const IR::Node *,</text>
<text text-anchor="middle" x="277" y="-7.5" font-family="Helvetica,sans-Serif" font-size="10.00"> const IR::P4Action * &gt; * &gt;</text>
</a>
</g>
</g>
<!-- Node3&#45;&gt;Node1 -->
<g id="edge2" class="edge">
<title>Node3&#45;&gt;Node1</title>
<path fill="none" stroke="#9a32cd" stroke-dasharray="5,2" d="M360.24,-39.24C383.31,-42.82 407.99,-46.64 429.62,-49.99"/>
<polygon fill="#9a32cd" stroke="#9a32cd" points="360.53,-35.74 350.11,-37.67 359.46,-42.66 360.53,-35.74"/>
<text text-anchor="middle" x="388.5" y="-49.5" font-family="Helvetica,sans-Serif" font-size="10.00"> toInsert</text>
</g>
<!-- Node4 -->
<g id="node4" class="node">
<title>Node4</title>
<g id="a_node4"><a xlink:href="classordered__map.html" target="_top" xlink:title=" ">
<polygon fill="white" stroke="black" points="0,-6 0,-47 119,-47 119,-6 0,-6"/>
<text text-anchor="start" x="8" y="-35" font-family="Helvetica,sans-Serif" font-size="10.00">ordered_map&lt; const</text>
<text text-anchor="start" x="8" y="-24" font-family="Helvetica,sans-Serif" font-size="10.00"> IR::Node *, const IR</text>
<text text-anchor="middle" x="59.5" y="-13" font-family="Helvetica,sans-Serif" font-size="10.00">::P4Action * &gt;</text>
</a>
</g>
</g>
<!-- Node4&#45;&gt;Node3 -->
<g id="edge3" class="edge">
<title>Node4&#45;&gt;Node3</title>
<path fill="none" stroke="#9a32cd" stroke-dasharray="5,2" d="M129.13,-26.5C152.99,-26.5 179.82,-26.5 203.95,-26.5"/>
<polygon fill="#9a32cd" stroke="#9a32cd" points="129.1,-23 119.1,-26.5 129.1,-30 129.1,-23"/>
<text text-anchor="middle" x="161.5" y="-29.5" font-family="Helvetica,sans-Serif" font-size="10.00"> elements</text>
</g>
</g>
</svg>
