<?xml version="1.0" encoding="UTF-8" standalone="no"?>
<!DOCTYPE svg PUBLIC "-//W3C//DTD SVG 1.1//EN"
 "http://www.w3.org/Graphics/SVG/1.1/DTD/svg11.dtd">
<!-- Generated by graphviz version 2.43.0 (0)
 -->
<!-- Title: DPDK::CollectMetadataHeaderInfo Pages: 1 -->
<svg width="419pt" height="233pt"
 viewBox="0.00 0.00 418.50 233.00" xmlns="http://www.w3.org/2000/svg" xmlns:xlink="http://www.w3.org/1999/xlink">
<g id="graph0" class="graph" transform="scale(1 1) rotate(0) translate(4 229)">
<title>DPDK::CollectMetadataHeaderInfo</title>
<polygon fill="white" stroke="transparent" points="-4,4 -4,-229 414.5,-229 414.5,4 -4,4"/>
<!-- Node1 -->
<g id="node1" class="node">
<title>Node1</title>
<g id="a_node1"><a xlink:title=" ">
<polygon fill="#bfbfbf" stroke="black" points="0,-0.5 0,-19.5 185,-19.5 185,-0.5 0,-0.5"/>
<text text-anchor="middle" x="92.5" y="-7.5" font-family="Helvetica,sans-Serif" font-size="10.00">DPDK::CollectMetadataHeaderInfo</text>
</a>
</g>
</g>
<!-- Node2 -->
<g id="node2" class="node">
<title>Node2</title>
<g id="a_node2"><a xlink:href="class_inspector.html" target="_top" xlink:title=" ">
<polygon fill="white" stroke="black" points="63.5,-68.5 63.5,-87.5 125.5,-87.5 125.5,-68.5 63.5,-68.5"/>
<text text-anchor="middle" x="94.5" y="-75.5" font-family="Helvetica,sans-Serif" font-size="10.00">Inspector</text>
</a>
</g>
</g>
<!-- Node2&#45;&gt;Node1 -->
<g id="edge1" class="edge">
<title>Node2&#45;&gt;Node1</title>
<path fill="none" stroke="midnightblue" d="M93.93,-58.04C93.54,-45.47 93.06,-29.56 92.77,-19.84"/>
<polygon fill="midnightblue" stroke="midnightblue" points="90.44,-58.48 94.24,-68.37 97.43,-58.27 90.44,-58.48"/>
</g>
<!-- Node3 -->
<g id="node3" class="node">
<title>Node3</title>
<g id="a_node3"><a xlink:href="class_visitor.html" target="_top" xlink:title=" ">
<polygon fill="white" stroke="black" points="170.5,-136.5 170.5,-155.5 218.5,-155.5 218.5,-136.5 170.5,-136.5"/>
<text text-anchor="middle" x="194.5" y="-143.5" font-family="Helvetica,sans-Serif" font-size="10.00">Visitor</text>
</a>
</g>
</g>
<!-- Node3&#45;&gt;Node2 -->
<g id="edge2" class="edge">
<title>Node3&#45;&gt;Node2</title>
<path fill="none" stroke="midnightblue" d="M169.89,-131.13C162.89,-127.04 155.32,-122.45 148.5,-118 133.39,-108.14 116.64,-95.82 105.87,-87.69"/>
<polygon fill="midnightblue" stroke="midnightblue" points="168.53,-134.39 178.95,-136.36 172.03,-128.33 168.53,-134.39"/>
</g>
<!-- Node3&#45;&gt;Node3 -->
<g id="edge10" class="edge">
<title>Node3&#45;&gt;Node3</title>
<path fill="none" stroke="#9a32cd" stroke-dasharray="5,2" d="M228.92,-151.29C233.48,-150.39 236.5,-148.63 236.5,-146 236.5,-141.69 228.36,-139.7 218.67,-140.04"/>
<polygon fill="#9a32cd" stroke="#9a32cd" points="228.42,-147.82 218.67,-151.96 228.88,-154.8 228.42,-147.82"/>
<text text-anchor="middle" x="261.5" y="-143.5" font-family="Helvetica,sans-Serif" font-size="10.00"> called_by</text>
</g>
<!-- Node5 -->
<g id="node5" class="node">
<title>Node5</title>
<g id="a_node5"><a xlink:href="class_split_flow_visit__base.html" target="_top" xlink:title=" ">
<polygon fill="white" stroke="black" points="202.5,-0.5 202.5,-19.5 314.5,-19.5 314.5,-0.5 202.5,-0.5"/>
<text text-anchor="middle" x="258.5" y="-7.5" font-family="Helvetica,sans-Serif" font-size="10.00">SplitFlowVisit_base</text>
</a>
</g>
</g>
<!-- Node3&#45;&gt;Node5 -->
<g id="edge9" class="edge">
<title>Node3&#45;&gt;Node5</title>
<path fill="none" stroke="#9a32cd" stroke-dasharray="5,2" d="M182.11,-127.81C171.96,-111.44 160.87,-86.48 171.5,-67 184.49,-43.19 212.42,-27.98 233.15,-19.52"/>
<polygon fill="#9a32cd" stroke="#9a32cd" points="179.34,-129.97 187.8,-136.35 185.17,-126.08 179.34,-129.97"/>
<text text-anchor="middle" x="176.5" y="-75.5" font-family="Helvetica,sans-Serif" font-size="10.00"> v</text>
</g>
<!-- Node6 -->
<g id="node6" class="node">
<title>Node6</title>
<g id="a_node6"><a xlink:title=" ">
<polygon fill="white" stroke="#bfbfbf" points="191,-68.5 191,-87.5 322,-87.5 322,-68.5 191,-68.5"/>
<text text-anchor="middle" x="256.5" y="-75.5" font-family="Helvetica,sans-Serif" font-size="10.00">std::vector&lt; Visitor * &gt;</text>
</a>
</g>
</g>
<!-- Node3&#45;&gt;Node6 -->
<g id="edge8" class="edge">
<title>Node3&#45;&gt;Node6</title>
<path fill="none" stroke="#9a32cd" stroke-dasharray="5,2" d="M209.49,-129.05C221.64,-116.11 238.32,-98.36 248.19,-87.84"/>
<polygon fill="#9a32cd" stroke="#9a32cd" points="206.9,-126.69 202.61,-136.37 212,-131.48 206.9,-126.69"/>
<text text-anchor="middle" x="254" y="-110" font-family="Helvetica,sans-Serif" font-size="10.00"> elements</text>
</g>
<!-- Node4 -->
<g id="node4" class="node">
<title>Node4</title>
<g id="a_node4"><a xlink:href="classcstring.html" target="_top" xlink:title=" ">
<polygon fill="white" stroke="black" points="169.5,-204.5 169.5,-223.5 219.5,-223.5 219.5,-204.5 169.5,-204.5"/>
<text text-anchor="middle" x="194.5" y="-211.5" font-family="Helvetica,sans-Serif" font-size="10.00">cstring</text>
</a>
</g>
</g>
<!-- Node4&#45;&gt;Node3 -->
<g id="edge3" class="edge">
<title>Node4&#45;&gt;Node3</title>
<path fill="none" stroke="#9a32cd" stroke-dasharray="5,2" d="M194.5,-194.04C194.5,-181.47 194.5,-165.56 194.5,-155.84"/>
<polygon fill="#9a32cd" stroke="#9a32cd" points="191,-194.37 194.5,-204.37 198,-194.37 191,-194.37"/>
<text text-anchor="middle" x="229.5" y="-177" font-family="Helvetica,sans-Serif" font-size="10.00"> internalName</text>
</g>
<!-- Node4&#45;&gt;Node4 -->
<g id="edge4" class="edge">
<title>Node4&#45;&gt;Node4</title>
<path fill="none" stroke="#9a32cd" stroke-dasharray="5,2" d="M229.95,-219.58C234.5,-218.61 237.5,-216.75 237.5,-214 237.5,-209.48 229.41,-207.37 219.68,-207.65"/>
<polygon fill="#9a32cd" stroke="#9a32cd" points="229.39,-216.11 219.68,-220.35 229.91,-223.1 229.39,-216.11"/>
<text text-anchor="middle" x="257" y="-217" font-family="Helvetica,sans-Serif" font-size="10.00"> empty</text>
<text text-anchor="middle" x="257" y="-206" font-family="Helvetica,sans-Serif" font-size="10.00">newline</text>
</g>
<!-- Node5&#45;&gt;Node3 -->
<g id="edge5" class="edge">
<title>Node5&#45;&gt;Node3</title>
<path fill="none" stroke="#9a32cd" stroke-dasharray="5,2" d="M286.86,-24.29C313.23,-38.62 346.37,-62.91 331.5,-89 308.85,-128.73 251.46,-140.29 218.6,-143.64"/>
<polygon fill="#9a32cd" stroke="#9a32cd" points="288.4,-21.15 277.91,-19.65 285.18,-27.36 288.4,-21.15"/>
<text text-anchor="middle" x="372.5" y="-81" font-family="Helvetica,sans-Serif" font-size="10.00"> split_link</text>
<text text-anchor="middle" x="372.5" y="-70" font-family="Helvetica,sans-Serif" font-size="10.00">split_link_mem</text>
</g>
<!-- Node5&#45;&gt;Node5 -->
<g id="edge6" class="edge">
<title>Node5&#45;&gt;Node5</title>
<path fill="none" stroke="#9a32cd" stroke-dasharray="5,2" d="M324.9,-14.4C329.62,-13.4 332.5,-11.93 332.5,-10 332.5,-6.91 325.12,-5.01 314.65,-4.31"/>
<polygon fill="#9a32cd" stroke="#9a32cd" points="324.13,-10.97 314.65,-15.69 325.01,-17.91 324.13,-10.97"/>
<text text-anchor="middle" x="345" y="-7.5" font-family="Helvetica,sans-Serif" font-size="10.00"> prev</text>
</g>
<!-- Node6&#45;&gt;Node5 -->
<g id="edge7" class="edge">
<title>Node6&#45;&gt;Node5</title>
<path fill="none" stroke="#9a32cd" stroke-dasharray="5,2" d="M257.07,-58.04C257.46,-45.47 257.94,-29.56 258.23,-19.84"/>
<polygon fill="#9a32cd" stroke="#9a32cd" points="253.57,-58.27 256.76,-68.37 260.56,-58.48 253.57,-58.27"/>
<text text-anchor="middle" x="277.5" y="-41" font-family="Helvetica,sans-Serif" font-size="10.00"> visitors</text>
</g>
</g>
</svg>
