<?xml version="1.0" encoding="UTF-8" standalone="no"?>
<!DOCTYPE svg PUBLIC "-//W3C//DTD SVG 1.1//EN"
 "http://www.w3.org/Graphics/SVG/1.1/DTD/svg11.dtd">
<!-- Generated by graphviz version 2.43.0 (0)
 -->
<!-- Title: TC::ConvertToEBPFDeparserPNA Pages: 1 -->
<svg width="410pt" height="233pt"
 viewBox="0.00 0.00 409.50 233.00" xmlns="http://www.w3.org/2000/svg" xmlns:xlink="http://www.w3.org/1999/xlink">
<g id="graph0" class="graph" transform="scale(1 1) rotate(0) translate(4 229)">
<title>TC::ConvertToEBPFDeparserPNA</title>
<polygon fill="white" stroke="transparent" points="-4,4 -4,-229 405.5,-229 405.5,4 -4,4"/>
<!-- Node1 -->
<g id="node1" class="node">
<title>Node1</title>
<g id="a_node1"><a xlink:title=" ">
<polygon fill="#bfbfbf" stroke="black" points="0,-0.5 0,-19.5 173,-19.5 173,-0.5 0,-0.5"/>
<text text-anchor="middle" x="86.5" y="-7.5" font-family="Helvetica,sans-Serif" font-size="10.00">TC::ConvertToEBPFDeparserPNA</text>
</a>
</g>
</g>
<!-- Node2 -->
<g id="node2" class="node">
<title>Node2</title>
<g id="a_node2"><a xlink:href="class_inspector.html" target="_top" xlink:title=" ">
<polygon fill="white" stroke="black" points="55.5,-68.5 55.5,-87.5 117.5,-87.5 117.5,-68.5 55.5,-68.5"/>
<text text-anchor="middle" x="86.5" y="-75.5" font-family="Helvetica,sans-Serif" font-size="10.00">Inspector</text>
</a>
</g>
</g>
<!-- Node2&#45;&gt;Node1 -->
<g id="edge1" class="edge">
<title>Node2&#45;&gt;Node1</title>
<path fill="none" stroke="midnightblue" d="M86.5,-58.04C86.5,-45.47 86.5,-29.56 86.5,-19.84"/>
<polygon fill="midnightblue" stroke="midnightblue" points="83,-58.37 86.5,-68.37 90,-58.37 83,-58.37"/>
</g>
<!-- Node3 -->
<g id="node3" class="node">
<title>Node3</title>
<g id="a_node3"><a xlink:href="class_visitor.html" target="_top" xlink:title=" ">
<polygon fill="white" stroke="black" points="161.5,-136.5 161.5,-155.5 209.5,-155.5 209.5,-136.5 161.5,-136.5"/>
<text text-anchor="middle" x="185.5" y="-143.5" font-family="Helvetica,sans-Serif" font-size="10.00">Visitor</text>
</a>
</g>
</g>
<!-- Node3&#45;&gt;Node2 -->
<g id="edge2" class="edge">
<title>Node3&#45;&gt;Node2</title>
<path fill="none" stroke="midnightblue" d="M160.86,-131.17C153.87,-127.07 146.3,-122.48 139.5,-118 124.62,-108.19 108.19,-95.86 97.63,-87.72"/>
<polygon fill="midnightblue" stroke="midnightblue" points="159.51,-134.43 169.92,-136.39 163.01,-128.37 159.51,-134.43"/>
</g>
<!-- Node3&#45;&gt;Node3 -->
<g id="edge10" class="edge">
<title>Node3&#45;&gt;Node3</title>
<path fill="none" stroke="#9a32cd" stroke-dasharray="5,2" d="M219.92,-151.29C224.48,-150.39 227.5,-148.63 227.5,-146 227.5,-141.69 219.36,-139.7 209.67,-140.04"/>
<polygon fill="#9a32cd" stroke="#9a32cd" points="219.42,-147.82 209.67,-151.96 219.88,-154.8 219.42,-147.82"/>
<text text-anchor="middle" x="252.5" y="-143.5" font-family="Helvetica,sans-Serif" font-size="10.00"> called_by</text>
</g>
<!-- Node5 -->
<g id="node5" class="node">
<title>Node5</title>
<g id="a_node5"><a xlink:href="class_split_flow_visit__base.html" target="_top" xlink:title=" ">
<polygon fill="white" stroke="black" points="191.5,-0.5 191.5,-19.5 303.5,-19.5 303.5,-0.5 191.5,-0.5"/>
<text text-anchor="middle" x="247.5" y="-7.5" font-family="Helvetica,sans-Serif" font-size="10.00">SplitFlowVisit_base</text>
</a>
</g>
</g>
<!-- Node3&#45;&gt;Node5 -->
<g id="edge9" class="edge">
<title>Node3&#45;&gt;Node5</title>
<path fill="none" stroke="#9a32cd" stroke-dasharray="5,2" d="M173.16,-127.83C163.04,-111.48 151.98,-86.53 162.5,-67 175.24,-43.35 202.82,-28.04 223.12,-19.51"/>
<polygon fill="#9a32cd" stroke="#9a32cd" points="170.38,-129.97 178.83,-136.36 176.2,-126.1 170.38,-129.97"/>
<text text-anchor="middle" x="167.5" y="-75.5" font-family="Helvetica,sans-Serif" font-size="10.00"> v</text>
</g>
<!-- Node6 -->
<g id="node6" class="node">
<title>Node6</title>
<g id="a_node6"><a xlink:title=" ">
<polygon fill="white" stroke="#bfbfbf" points="182,-68.5 182,-87.5 313,-87.5 313,-68.5 182,-68.5"/>
<text text-anchor="middle" x="247.5" y="-75.5" font-family="Helvetica,sans-Serif" font-size="10.00">std::vector&lt; Visitor * &gt;</text>
</a>
</g>
</g>
<!-- Node3&#45;&gt;Node6 -->
<g id="edge8" class="edge">
<title>Node3&#45;&gt;Node6</title>
<path fill="none" stroke="#9a32cd" stroke-dasharray="5,2" d="M200.49,-129.05C212.64,-116.11 229.32,-98.36 239.19,-87.84"/>
<polygon fill="#9a32cd" stroke="#9a32cd" points="197.9,-126.69 193.61,-136.37 203,-131.48 197.9,-126.69"/>
<text text-anchor="middle" x="245" y="-110" font-family="Helvetica,sans-Serif" font-size="10.00"> elements</text>
</g>
<!-- Node4 -->
<g id="node4" class="node">
<title>Node4</title>
<g id="a_node4"><a xlink:href="classcstring.html" target="_top" xlink:title=" ">
<polygon fill="white" stroke="black" points="160.5,-204.5 160.5,-223.5 210.5,-223.5 210.5,-204.5 160.5,-204.5"/>
<text text-anchor="middle" x="185.5" y="-211.5" font-family="Helvetica,sans-Serif" font-size="10.00">cstring</text>
</a>
</g>
</g>
<!-- Node4&#45;&gt;Node3 -->
<g id="edge3" class="edge">
<title>Node4&#45;&gt;Node3</title>
<path fill="none" stroke="#9a32cd" stroke-dasharray="5,2" d="M185.5,-194.04C185.5,-181.47 185.5,-165.56 185.5,-155.84"/>
<polygon fill="#9a32cd" stroke="#9a32cd" points="182,-194.37 185.5,-204.37 189,-194.37 182,-194.37"/>
<text text-anchor="middle" x="220.5" y="-177" font-family="Helvetica,sans-Serif" font-size="10.00"> internalName</text>
</g>
<!-- Node4&#45;&gt;Node4 -->
<g id="edge4" class="edge">
<title>Node4&#45;&gt;Node4</title>
<path fill="none" stroke="#9a32cd" stroke-dasharray="5,2" d="M220.95,-219.58C225.5,-218.61 228.5,-216.75 228.5,-214 228.5,-209.48 220.41,-207.37 210.68,-207.65"/>
<polygon fill="#9a32cd" stroke="#9a32cd" points="220.39,-216.11 210.68,-220.35 220.91,-223.1 220.39,-216.11"/>
<text text-anchor="middle" x="248" y="-217" font-family="Helvetica,sans-Serif" font-size="10.00"> empty</text>
<text text-anchor="middle" x="248" y="-206" font-family="Helvetica,sans-Serif" font-size="10.00">newline</text>
</g>
<!-- Node5&#45;&gt;Node3 -->
<g id="edge5" class="edge">
<title>Node5&#45;&gt;Node3</title>
<path fill="none" stroke="#9a32cd" stroke-dasharray="5,2" d="M276.55,-24.16C303.57,-38.38 337.57,-62.58 322.5,-89 299.85,-128.73 242.46,-140.29 209.6,-143.64"/>
<polygon fill="#9a32cd" stroke="#9a32cd" points="277.88,-20.91 267.38,-19.56 274.75,-27.17 277.88,-20.91"/>
<text text-anchor="middle" x="363.5" y="-81" font-family="Helvetica,sans-Serif" font-size="10.00"> split_link</text>
<text text-anchor="middle" x="363.5" y="-70" font-family="Helvetica,sans-Serif" font-size="10.00">split_link_mem</text>
</g>
<!-- Node5&#45;&gt;Node5 -->
<g id="edge6" class="edge">
<title>Node5&#45;&gt;Node5</title>
<path fill="none" stroke="#9a32cd" stroke-dasharray="5,2" d="M313.9,-14.4C318.62,-13.4 321.5,-11.93 321.5,-10 321.5,-6.91 314.12,-5.01 303.65,-4.31"/>
<polygon fill="#9a32cd" stroke="#9a32cd" points="313.13,-10.97 303.65,-15.69 314.01,-17.91 313.13,-10.97"/>
<text text-anchor="middle" x="334" y="-7.5" font-family="Helvetica,sans-Serif" font-size="10.00"> prev</text>
</g>
<!-- Node6&#45;&gt;Node5 -->
<g id="edge7" class="edge">
<title>Node6&#45;&gt;Node5</title>
<path fill="none" stroke="#9a32cd" stroke-dasharray="5,2" d="M247.5,-58.04C247.5,-45.47 247.5,-29.56 247.5,-19.84"/>
<polygon fill="#9a32cd" stroke="#9a32cd" points="244,-58.37 247.5,-68.37 251,-58.37 244,-58.37"/>
<text text-anchor="middle" x="267.5" y="-41" font-family="Helvetica,sans-Serif" font-size="10.00"> visitors</text>
</g>
</g>
</svg>
