<?xml version="1.0" encoding="UTF-8" standalone="no"?>
<!DOCTYPE svg PUBLIC "-//W3C//DTD SVG 1.1//EN"
 "http://www.w3.org/Graphics/SVG/1.1/DTD/svg11.dtd">
<!-- Generated by graphviz version 2.43.0 (0)
 -->
<!-- Title: IR::NodeMap&lt; KEY, VALUE, MAP, COMP, ALLOC &gt; Pages: 1 -->
<svg width="419pt" height="300pt"
 viewBox="0.00 0.00 418.50 300.00" xmlns="http://www.w3.org/2000/svg" xmlns:xlink="http://www.w3.org/1999/xlink">
<g id="graph0" class="graph" transform="scale(1 1) rotate(0) translate(4 296)">
<title>IR::NodeMap&lt; KEY, VALUE, MAP, COMP, ALLOC &gt;</title>
<polygon fill="white" stroke="transparent" points="-4,4 -4,-296 414.5,-296 414.5,4 -4,4"/>
<!-- Node1 -->
<g id="node1" class="node">
<title>Node1</title>
<g id="a_node1"><a xlink:title=" ">
<polygon fill="#bfbfbf" stroke="black" points="162,-0.5 162,-30.5 311,-30.5 311,-0.5 162,-0.5"/>
<text text-anchor="start" x="170" y="-18.5" font-family="Helvetica,sans-Serif" font-size="10.00">IR::NodeMap&lt; KEY, VALUE,</text>
<text text-anchor="middle" x="236.5" y="-7.5" font-family="Helvetica,sans-Serif" font-size="10.00"> MAP, COMP, ALLOC &gt;</text>
</a>
</g>
</g>
<!-- Node2 -->
<g id="node2" class="node">
<title>Node2</title>
<g id="a_node2"><a xlink:href="class_i_r_1_1_node.html" target="_top" xlink:title=" ">
<polygon fill="white" stroke="black" points="207.5,-68.5 207.5,-87.5 265.5,-87.5 265.5,-68.5 207.5,-68.5"/>
<text text-anchor="middle" x="236.5" y="-75.5" font-family="Helvetica,sans-Serif" font-size="10.00">IR::Node</text>
</a>
</g>
</g>
<!-- Node2&#45;&gt;Node1 -->
<g id="edge1" class="edge">
<title>Node2&#45;&gt;Node1</title>
<path fill="none" stroke="midnightblue" d="M236.5,-58.22C236.5,-49.36 236.5,-38.96 236.5,-30.76"/>
<polygon fill="midnightblue" stroke="midnightblue" points="233,-58.33 236.5,-68.33 240,-58.33 233,-58.33"/>
</g>
<!-- Node3 -->
<g id="node3" class="node">
<title>Node3</title>
<g id="a_node3"><a xlink:href="class_i_r_1_1_i_node.html" target="_top" xlink:title=" ">
<polygon fill="white" stroke="black" points="159,-135.5 159,-154.5 220,-154.5 220,-135.5 159,-135.5"/>
<text text-anchor="middle" x="189.5" y="-142.5" font-family="Helvetica,sans-Serif" font-size="10.00">IR::INode</text>
</a>
</g>
</g>
<!-- Node3&#45;&gt;Node2 -->
<g id="edge2" class="edge">
<title>Node3&#45;&gt;Node2</title>
<path fill="none" stroke="midnightblue" d="M201.86,-126.9C210.99,-114.27 223.05,-97.6 230.26,-87.63"/>
<polygon fill="midnightblue" stroke="midnightblue" points="198.86,-125.08 195.84,-135.23 204.53,-129.18 198.86,-125.08"/>
</g>
<!-- Node4 -->
<g id="node4" class="node">
<title>Node4</title>
<g id="a_node4"><a xlink:href="class_util_1_1_i_has_source_info.html" target="_top" xlink:title=" ">
<polygon fill="white" stroke="black" points="0,-214.5 0,-233.5 113,-233.5 113,-214.5 0,-214.5"/>
<text text-anchor="middle" x="56.5" y="-221.5" font-family="Helvetica,sans-Serif" font-size="10.00">Util::IHasSourceInfo</text>
</a>
</g>
</g>
<!-- Node4&#45;&gt;Node3 -->
<g id="edge3" class="edge">
<title>Node4&#45;&gt;Node3</title>
<path fill="none" stroke="midnightblue" d="M80.16,-209.3C107.54,-193.45 151.78,-167.84 174.69,-154.57"/>
<polygon fill="midnightblue" stroke="midnightblue" points="78.14,-206.43 71.24,-214.47 81.65,-212.48 78.14,-206.43"/>
</g>
<!-- Node5 -->
<g id="node5" class="node">
<title>Node5</title>
<g id="a_node5"><a xlink:href="class_i_has_db_print.html" target="_top" xlink:title=" ">
<polygon fill="white" stroke="black" points="131.5,-214.5 131.5,-233.5 205.5,-233.5 205.5,-214.5 131.5,-214.5"/>
<text text-anchor="middle" x="168.5" y="-221.5" font-family="Helvetica,sans-Serif" font-size="10.00">IHasDbPrint</text>
</a>
</g>
</g>
<!-- Node5&#45;&gt;Node3 -->
<g id="edge4" class="edge">
<title>Node5&#45;&gt;Node3</title>
<path fill="none" stroke="midnightblue" d="M173.47,-204.77C177.77,-189.02 183.79,-166.92 187.1,-154.81"/>
<polygon fill="midnightblue" stroke="midnightblue" points="170.08,-203.9 170.83,-214.47 176.84,-205.74 170.08,-203.9"/>
</g>
<!-- Node6 -->
<g id="node6" class="node">
<title>Node6</title>
<g id="a_node6"><a xlink:href="class_i_castable.html" target="_top" xlink:title=" ">
<polygon fill="white" stroke="black" points="223.5,-214.5 223.5,-233.5 285.5,-233.5 285.5,-214.5 223.5,-214.5"/>
<text text-anchor="middle" x="254.5" y="-221.5" font-family="Helvetica,sans-Serif" font-size="10.00">ICastable</text>
</a>
</g>
</g>
<!-- Node6&#45;&gt;Node3 -->
<g id="edge5" class="edge">
<title>Node6&#45;&gt;Node3</title>
<path fill="none" stroke="midnightblue" d="M240.62,-206.56C227.26,-190.73 207.56,-167.39 196.94,-154.81"/>
<polygon fill="midnightblue" stroke="midnightblue" points="238.17,-209.08 247.3,-214.47 243.52,-204.57 238.17,-209.08"/>
</g>
<!-- Node7 -->
<g id="node7" class="node">
<title>Node7</title>
<g id="a_node7"><a xlink:href="struct_r_t_t_i_1_1_base.html" target="_top" xlink:title=" ">
<polygon fill="white" stroke="black" points="220.5,-272.5 220.5,-291.5 288.5,-291.5 288.5,-272.5 220.5,-272.5"/>
<text text-anchor="middle" x="254.5" y="-279.5" font-family="Helvetica,sans-Serif" font-size="10.00">RTTI::Base</text>
</a>
</g>
</g>
<!-- Node7&#45;&gt;Node6 -->
<g id="edge6" class="edge">
<title>Node7&#45;&gt;Node6</title>
<path fill="none" stroke="midnightblue" d="M254.5,-261.95C254.5,-252.29 254.5,-241.03 254.5,-233.51"/>
<polygon fill="midnightblue" stroke="midnightblue" points="251,-262.25 254.5,-272.25 258,-262.25 251,-262.25"/>
</g>
<!-- Node8 -->
<g id="node8" class="node">
<title>Node8</title>
<g id="a_node8"><a xlink:href="class_util_1_1_source_info.html" target="_top" xlink:title=" ">
<polygon fill="white" stroke="black" points="248.5,-135.5 248.5,-154.5 340.5,-154.5 340.5,-135.5 248.5,-135.5"/>
<text text-anchor="middle" x="294.5" y="-142.5" font-family="Helvetica,sans-Serif" font-size="10.00">Util::SourceInfo</text>
</a>
</g>
</g>
<!-- Node8&#45;&gt;Node2 -->
<g id="edge7" class="edge">
<title>Node8&#45;&gt;Node2</title>
<path fill="none" stroke="#9a32cd" stroke-dasharray="5,2" d="M279.9,-127.63C268.55,-114.92 253.27,-97.8 244.2,-87.63"/>
<polygon fill="#9a32cd" stroke="#9a32cd" points="277.41,-130.1 286.68,-135.23 282.63,-125.44 277.41,-130.1"/>
<text text-anchor="middle" x="288" y="-109" font-family="Helvetica,sans-Serif" font-size="10.00"> srcInfo</text>
</g>
<!-- Node9 -->
<g id="node9" class="node">
<title>Node9</title>
<g id="a_node9"><a xlink:href="classcstring.html" target="_top" xlink:title=" ">
<polygon fill="white" stroke="black" points="303.5,-214.5 303.5,-233.5 353.5,-233.5 353.5,-214.5 303.5,-214.5"/>
<text text-anchor="middle" x="328.5" y="-221.5" font-family="Helvetica,sans-Serif" font-size="10.00">cstring</text>
</a>
</g>
</g>
<!-- Node9&#45;&gt;Node8 -->
<g id="edge8" class="edge">
<title>Node9&#45;&gt;Node8</title>
<path fill="none" stroke="#9a32cd" stroke-dasharray="5,2" d="M320.65,-205.22C313.68,-189.44 303.79,-167.04 298.39,-154.81"/>
<polygon fill="#9a32cd" stroke="#9a32cd" points="317.49,-206.73 324.73,-214.47 323.89,-203.9 317.49,-206.73"/>
<text text-anchor="middle" x="338.5" y="-187" font-family="Helvetica,sans-Serif" font-size="10.00"> filename</text>
<text text-anchor="middle" x="338.5" y="-176" font-family="Helvetica,sans-Serif" font-size="10.00">srcBrief</text>
</g>
<!-- Node9&#45;&gt;Node9 -->
<g id="edge9" class="edge">
<title>Node9&#45;&gt;Node9</title>
<path fill="none" stroke="#9a32cd" stroke-dasharray="5,2" d="M363.95,-228.6C368.5,-227.8 371.5,-226.27 371.5,-224 371.5,-220.28 363.41,-218.54 353.68,-218.77"/>
<polygon fill="#9a32cd" stroke="#9a32cd" points="363.44,-225.12 353.68,-229.23 363.87,-232.11 363.44,-225.12"/>
<text text-anchor="middle" x="391" y="-227" font-family="Helvetica,sans-Serif" font-size="10.00"> empty</text>
<text text-anchor="middle" x="391" y="-216" font-family="Helvetica,sans-Serif" font-size="10.00">newline</text>
</g>
</g>
</svg>
