<?xml version="1.0" encoding="UTF-8" standalone="no"?>
<!DOCTYPE svg PUBLIC "-//W3C//DTD SVG 1.1//EN"
 "http://www.w3.org/Graphics/SVG/1.1/DTD/svg11.dtd">
<!-- Generated by graphviz version 2.43.0 (0)
 -->
<!-- Title: UBPF::UBPFStructType Pages: 1 -->
<!--zoomable 500 -->
<svg id="main" version="1.1" xmlns="http://www.w3.org/2000/svg" xmlns:xlink="http://www.w3.org/1999/xlink" xml:space="preserve" onload="init(evt)">
<style type="text/css"><![CDATA[
.edge:hover path { stroke: red; }
.edge:hover polygon { stroke: red; fill: red; }
]]></style>
<script type="text/javascript"><![CDATA[
var edges = document.getElementsByTagName('g');
if (edges && edges.length) {
  for (var i=0;i<edges.length;i++) {
    if (edges[i].id.substr(0,4)=='edge') {
      edges[i].setAttribute('class','edge');
    }
  }
}
]]></script>
        <defs>
                <circle id="rim" cx="0" cy="0" r="7"/>
                <circle id="rim2" cx="0" cy="0" r="3.5"/>
                <g id="zoomPlus">
                        <use xlink:href="#rim" fill="#404040">
                                <set attributeName="fill" to="#808080" begin="zoomplus.mouseover" end="zoomplus.mouseout"/>
                        </use>
                        <path d="M-4,0h8M0,-4v8" fill="none" stroke="white" stroke-width="1.5" pointer-events="none"/>
                </g>
                <g id="zoomMin">
                        <use xlink:href="#rim" fill="#404040">
                                <set attributeName="fill" to="#808080" begin="zoomminus.mouseover" end="zoomminus.mouseout"/>
                        </use>
                        <path d="M-4,0h8" fill="none" stroke="white" stroke-width="1.5" pointer-events="none"/>
                </g>
                <g id="dirArrow">
                        <path fill="none" stroke="white" stroke-width="1.5" d="M0,-3.0v7 M-2.5,-0.5L0,-3.0L2.5,-0.5"/>
                </g>
               <g id="resetDef">
                       <use xlink:href="#rim2" fill="#404040">
                               <set attributeName="fill" to="#808080" begin="reset.mouseover" end="reset.mouseout"/>
                       </use>
               </g>
        </defs>

<script type="text/javascript">
var viewWidth = 316;
var viewHeight = 500;
var sectionId = 'dynsection-1';
</script>
<script xlink:href="svgpan.js"/>
<svg id="graph" class="graph">
<g id="viewport">
<title>UBPF::UBPFStructType</title>
<polygon fill="white" stroke="transparent" points="-4,4 -4,-496 311.5,-496 311.5,4 -4,4"/>
<!-- Node1 -->
<g id="node1" class="node">
<title>Node1</title>
<g id="a_node1"><a xlink:title=" ">
<polygon fill="#bfbfbf" stroke="black" points="132.5,-0.5 132.5,-19.5 257.5,-19.5 257.5,-0.5 132.5,-0.5"/>
<text text-anchor="middle" x="195" y="-7.5" font-family="Helvetica,sans-Serif" font-size="10.00">UBPF::UBPFStructType</text>
</a>
</g>
</g>
<!-- Node2 -->
<g id="node2" class="node">
<title>Node2</title>
<g id="a_node2"><a xlink:href="class_e_b_p_f_1_1_e_b_p_f_struct_type.html" target="_top" xlink:title=" ">
<polygon fill="white" stroke="black" points="134,-57.5 134,-76.5 256,-76.5 256,-57.5 134,-57.5"/>
<text text-anchor="middle" x="195" y="-64.5" font-family="Helvetica,sans-Serif" font-size="10.00">EBPF::EBPFStructType</text>
</a>
</g>
</g>
<!-- Node2&#45;&gt;Node1 -->
<g id="edge1" class="edge">
<title>Node2&#45;&gt;Node1</title>
<path fill="none" stroke="midnightblue" d="M195,-47.12C195,-37.82 195,-27.06 195,-19.71"/>
<polygon fill="midnightblue" stroke="midnightblue" points="191.5,-47.41 195,-57.41 198.5,-47.41 191.5,-47.41"/>
</g>
<!-- Node3 -->
<g id="node3" class="node">
<title>Node3</title>
<g id="a_node3"><a xlink:href="class_e_b_p_f_1_1_e_b_p_f_type.html" target="_top" xlink:title=" ">
<polygon fill="white" stroke="black" points="132.5,-281.5 132.5,-300.5 225.5,-300.5 225.5,-281.5 132.5,-281.5"/>
<text text-anchor="middle" x="179" y="-288.5" font-family="Helvetica,sans-Serif" font-size="10.00">EBPF::EBPFType</text>
</a>
</g>
</g>
<!-- Node3&#45;&gt;Node2 -->
<g id="edge2" class="edge">
<title>Node3&#45;&gt;Node2</title>
<path fill="none" stroke="midnightblue" d="M184.06,-271.33C191.8,-240.71 205.35,-177.82 202,-124 200.95,-107.18 198.15,-87.68 196.43,-76.7"/>
<polygon fill="midnightblue" stroke="midnightblue" points="180.57,-270.85 181.42,-281.41 187.34,-272.62 180.57,-270.85"/>
</g>
<!-- Node9 -->
<g id="node9" class="node">
<title>Node9</title>
<g id="a_node9"><a xlink:title=" ">
<polygon fill="white" stroke="#bfbfbf" points="58,-202.5 58,-232.5 180,-232.5 180,-202.5 58,-202.5"/>
<text text-anchor="start" x="66" y="-220.5" font-family="Helvetica,sans-Serif" font-size="10.00">EBPF::EBPFStructType</text>
<text text-anchor="middle" x="119" y="-209.5" font-family="Helvetica,sans-Serif" font-size="10.00">::EBPFField</text>
</a>
</g>
</g>
<!-- Node3&#45;&gt;Node9 -->
<g id="edge10" class="edge">
<title>Node3&#45;&gt;Node9</title>
<path fill="none" stroke="#9a32cd" stroke-dasharray="5,2" d="M165.12,-273.46C154.71,-261.05 140.61,-244.26 130.76,-232.51"/>
<polygon fill="#9a32cd" stroke="#9a32cd" points="162.53,-275.82 171.64,-281.23 167.9,-271.32 162.53,-275.82"/>
<text text-anchor="middle" x="166.5" y="-254" font-family="Helvetica,sans-Serif" font-size="10.00"> type</text>
</g>
<!-- Node4 -->
<g id="node4" class="node">
<title>Node4</title>
<g id="a_node4"><a xlink:href="class_e_b_p_f_1_1_e_b_p_f_object.html" target="_top" xlink:title=" ">
<polygon fill="white" stroke="black" points="127.5,-358.5 127.5,-377.5 230.5,-377.5 230.5,-358.5 127.5,-358.5"/>
<text text-anchor="middle" x="179" y="-365.5" font-family="Helvetica,sans-Serif" font-size="10.00">EBPF::EBPFObject</text>
</a>
</g>
</g>
<!-- Node4&#45;&gt;Node3 -->
<g id="edge3" class="edge">
<title>Node4&#45;&gt;Node3</title>
<path fill="none" stroke="midnightblue" d="M179,-348.02C179,-332.74 179,-311.98 179,-300.5"/>
<polygon fill="midnightblue" stroke="midnightblue" points="175.5,-348.4 179,-358.4 182.5,-348.4 175.5,-348.4"/>
</g>
<!-- Node5 -->
<g id="node5" class="node">
<title>Node5</title>
<g id="a_node5"><a xlink:href="class_i_castable.html" target="_top" xlink:title=" ">
<polygon fill="white" stroke="black" points="188,-415.5 188,-434.5 250,-434.5 250,-415.5 188,-415.5"/>
<text text-anchor="middle" x="219" y="-422.5" font-family="Helvetica,sans-Serif" font-size="10.00">ICastable</text>
</a>
</g>
</g>
<!-- Node5&#45;&gt;Node4 -->
<g id="edge4" class="edge">
<title>Node5&#45;&gt;Node4</title>
<path fill="none" stroke="midnightblue" d="M206.81,-407.23C199.72,-397.49 191.09,-385.62 185.34,-377.71"/>
<polygon fill="midnightblue" stroke="midnightblue" points="204.04,-409.38 212.75,-415.41 209.7,-405.26 204.04,-409.38"/>
</g>
<!-- Node7 -->
<g id="node7" class="node">
<title>Node7</title>
<g id="a_node7"><a xlink:href="class_e_b_p_f_1_1_i_has_width.html" target="_top" xlink:title=" ">
<polygon fill="white" stroke="black" points="210.5,-320.5 210.5,-339.5 307.5,-339.5 307.5,-320.5 210.5,-320.5"/>
<text text-anchor="middle" x="259" y="-327.5" font-family="Helvetica,sans-Serif" font-size="10.00">EBPF::IHasWidth</text>
</a>
</g>
</g>
<!-- Node5&#45;&gt;Node7 -->
<g id="edge7" class="edge">
<title>Node5&#45;&gt;Node7</title>
<path fill="none" stroke="midnightblue" d="M227.45,-405.99C231.35,-397.53 236,-387.29 240,-378 245.7,-364.74 251.9,-349.18 255.61,-339.71"/>
<polygon fill="midnightblue" stroke="midnightblue" points="224.19,-404.69 223.14,-415.23 230.54,-407.64 224.19,-404.69"/>
</g>
<!-- Node6 -->
<g id="node6" class="node">
<title>Node6</title>
<g id="a_node6"><a xlink:href="struct_r_t_t_i_1_1_base.html" target="_top" xlink:title=" ">
<polygon fill="white" stroke="black" points="185,-472.5 185,-491.5 253,-491.5 253,-472.5 185,-472.5"/>
<text text-anchor="middle" x="219" y="-479.5" font-family="Helvetica,sans-Serif" font-size="10.00">RTTI::Base</text>
</a>
</g>
</g>
<!-- Node6&#45;&gt;Node5 -->
<g id="edge5" class="edge">
<title>Node6&#45;&gt;Node5</title>
<path fill="none" stroke="midnightblue" d="M219,-462.12C219,-452.82 219,-442.06 219,-434.71"/>
<polygon fill="midnightblue" stroke="midnightblue" points="215.5,-462.41 219,-472.41 222.5,-462.41 215.5,-462.41"/>
</g>
<!-- Node7&#45;&gt;Node2 -->
<g id="edge6" class="edge">
<title>Node7&#45;&gt;Node2</title>
<path fill="none" stroke="midnightblue" d="M259,-310.06C259,-295.65 259,-275.33 259,-257.5 259,-257.5 259,-257.5 259,-133 259,-106.55 231.76,-86.95 212.83,-76.52"/>
<polygon fill="midnightblue" stroke="midnightblue" points="255.5,-310.19 259,-320.19 262.5,-310.19 255.5,-310.19"/>
</g>
<!-- Node8 -->
<g id="node8" class="node">
<title>Node8</title>
<g id="a_node8"><a xlink:title=" ">
<polygon fill="white" stroke="#bfbfbf" points="45.5,-124.5 45.5,-143.5 192.5,-143.5 192.5,-124.5 45.5,-124.5"/>
<text text-anchor="middle" x="119" y="-131.5" font-family="Helvetica,sans-Serif" font-size="10.00">std::vector&lt; EBPFField * &gt;</text>
</a>
</g>
</g>
<!-- Node8&#45;&gt;Node2 -->
<g id="edge8" class="edge">
<title>Node8&#45;&gt;Node2</title>
<path fill="none" stroke="#9a32cd" stroke-dasharray="5,2" d="M136.87,-117.71C151.85,-104.91 172.68,-87.09 184.91,-76.63"/>
<polygon fill="#9a32cd" stroke="#9a32cd" points="134.57,-115.07 129.25,-124.23 139.12,-120.39 134.57,-115.07"/>
<text text-anchor="middle" x="176" y="-98" font-family="Helvetica,sans-Serif" font-size="10.00"> fields</text>
</g>
<!-- Node9&#45;&gt;Node8 -->
<g id="edge9" class="edge">
<title>Node9&#45;&gt;Node8</title>
<path fill="none" stroke="#9a32cd" stroke-dasharray="5,2" d="M119,-192.25C119,-175.78 119,-154.99 119,-143.54"/>
<polygon fill="#9a32cd" stroke="#9a32cd" points="115.5,-192.3 119,-202.3 122.5,-192.3 115.5,-192.3"/>
<text text-anchor="middle" x="143.5" y="-170.5" font-family="Helvetica,sans-Serif" font-size="10.00"> elements</text>
</g>
<!-- Node10 -->
<g id="node10" class="node">
<title>Node10</title>
<g id="a_node10"><a xlink:href="classcstring.html" target="_top" xlink:title=" ">
<polygon fill="white" stroke="black" points="0,-281.5 0,-300.5 50,-300.5 50,-281.5 0,-281.5"/>
<text text-anchor="middle" x="25" y="-288.5" font-family="Helvetica,sans-Serif" font-size="10.00">cstring</text>
</a>
</g>
</g>
<!-- Node10&#45;&gt;Node2 -->
<g id="edge13" class="edge">
<title>Node10&#45;&gt;Node2</title>
<path fill="none" stroke="#9a32cd" stroke-dasharray="5,2" d="M20.26,-271.55C12.88,-238.33 2.74,-167.82 36,-124 58.91,-93.81 99.33,-79.83 133.68,-73.39"/>
<polygon fill="#9a32cd" stroke="#9a32cd" points="16.86,-272.38 22.58,-281.3 23.66,-270.76 16.86,-272.38"/>
<text text-anchor="middle" x="33" y="-176" font-family="Helvetica,sans-Serif" font-size="10.00"> kind</text>
<text text-anchor="middle" x="33" y="-165" font-family="Helvetica,sans-Serif" font-size="10.00">name</text>
</g>
<!-- Node10&#45;&gt;Node9 -->
<g id="edge11" class="edge">
<title>Node10&#45;&gt;Node9</title>
<path fill="none" stroke="#9a32cd" stroke-dasharray="5,2" d="M44.89,-274.87C61.35,-262.35 84.54,-244.71 100.58,-232.51"/>
<polygon fill="#9a32cd" stroke="#9a32cd" points="42.37,-272.39 36.53,-281.23 46.6,-277.96 42.37,-272.39"/>
<text text-anchor="middle" x="99" y="-254" font-family="Helvetica,sans-Serif" font-size="10.00"> comment</text>
</g>
<!-- Node10&#45;&gt;Node10 -->
<g id="edge12" class="edge">
<title>Node10&#45;&gt;Node10</title>
<path fill="none" stroke="#9a32cd" stroke-dasharray="5,2" d="M60.45,-296.58C65,-295.61 68,-293.75 68,-291 68,-286.48 59.91,-284.37 50.18,-284.65"/>
<polygon fill="#9a32cd" stroke="#9a32cd" points="59.89,-293.11 50.18,-297.35 60.41,-300.1 59.89,-293.11"/>
<text text-anchor="middle" x="87.5" y="-294" font-family="Helvetica,sans-Serif" font-size="10.00"> empty</text>
<text text-anchor="middle" x="87.5" y="-283" font-family="Helvetica,sans-Serif" font-size="10.00">newline</text>
</g>
</g>
</svg>
        <g id="navigator" transform="translate(0 0)" fill="#404254">
                <rect fill="#f2f5e9" fill-opacity="0.5" stroke="#606060" stroke-width=".5" x="0" y="0" width="60" height="60"/>
                <use id="zoomplus" xlink:href="#zoomPlus" x="17" y="9" onmousedown="handleZoom(evt,'in')"/>
                <use id="zoomminus" xlink:href="#zoomMin" x="42" y="9" onmousedown="handleZoom(evt,'out')"/>
                <use id="reset" xlink:href="#resetDef" x="30" y="36" onmousedown="handleReset()"/>
                <g id="arrowUp" xlink:href="#dirArrow" transform="translate(30 24)" onmousedown="handlePan(0,-1)">
                  <use xlink:href="#rim" fill="#404040">
                        <set attributeName="fill" to="#808080" begin="arrowUp.mouseover" end="arrowUp.mouseout"/>
                  </use>
                  <path fill="none" stroke="white" stroke-width="1.5" d="M0,-3.0v7 M-2.5,-0.5L0,-3.0L2.5,-0.5"/>
                </g>
                <g id="arrowRight" xlink:href="#dirArrow" transform="rotate(90) translate(36 -43)" onmousedown="handlePan(1,0)">
                  <use xlink:href="#rim" fill="#404040">
                        <set attributeName="fill" to="#808080" begin="arrowRight.mouseover" end="arrowRight.mouseout"/>
                  </use>
                  <path fill="none" stroke="white" stroke-width="1.5" d="M0,-3.0v7 M-2.5,-0.5L0,-3.0L2.5,-0.5"/>
                </g>
                <g id="arrowDown" xlink:href="#dirArrow" transform="rotate(180) translate(-30 -48)" onmousedown="handlePan(0,1)">
                  <use xlink:href="#rim" fill="#404040">
                        <set attributeName="fill" to="#808080" begin="arrowDown.mouseover" end="arrowDown.mouseout"/>
                  </use>
                  <path fill="none" stroke="white" stroke-width="1.5" d="M0,-3.0v7 M-2.5,-0.5L0,-3.0L2.5,-0.5"/>
                </g>
                <g id="arrowLeft" xlink:href="#dirArrow" transform="rotate(270) translate(-36 17)" onmousedown="handlePan(-1,0)">
                  <use xlink:href="#rim" fill="#404040">
                        <set attributeName="fill" to="#808080" begin="arrowLeft.mouseover" end="arrowLeft.mouseout"/>
                  </use>
                  <path fill="none" stroke="white" stroke-width="1.5" d="M0,-3.0v7 M-2.5,-0.5L0,-3.0L2.5,-0.5"/>
                </g>
        </g>
        <svg viewBox="0 0 15 15" width="100%" height="30px" preserveAspectRatio="xMaxYMin meet">
         <g id="arrow_out" transform="scale(0.3 0.3)">
          <a xlink:href="class_u_b_p_f_1_1_u_b_p_f_struct_type__coll__graph_org.svg" target="_base">
           <rect id="button" ry="5" rx="5" y="6" x="6" height="38" width="38"
                fill="#f2f5e9" fill-opacity="0.5" stroke="#606060" stroke-width="1.0"/>
           <path id="arrow"
             d="M 11.500037,31.436501 C 11.940474,20.09759 22.043105,11.32322 32.158766,21.979434 L 37.068811,17.246167 C 37.068811,17.246167 37.088388,32 37.088388,32 L 22.160133,31.978069 C 22.160133,31.978069 26.997745,27.140456 26.997745,27.140456 C 18.528582,18.264221 13.291696,25.230495 11.500037,31.436501 z"
             style="fill:#404040;"/>
          </a>
         </g>
        </svg>
</svg>
