<?xml version="1.0" encoding="UTF-8" standalone="no"?>
<!DOCTYPE svg PUBLIC "-//W3C//DTD SVG 1.1//EN"
 "http://www.w3.org/Graphics/SVG/1.1/DTD/svg11.dtd">
<!-- Generated by graphviz version 2.43.0 (0)
 -->
<!-- Title: TC::ConvertToBackendIR Pages: 1 -->
<!--zoomable 784 -->
<svg id="main" version="1.1" xmlns="http://www.w3.org/2000/svg" xmlns:xlink="http://www.w3.org/1999/xlink" xml:space="preserve" onload="init(evt)">
<style type="text/css"><![CDATA[
.edge:hover path { stroke: red; }
.edge:hover polygon { stroke: red; fill: red; }
]]></style>
<script type="text/javascript"><![CDATA[
var edges = document.getElementsByTagName('g');
if (edges && edges.length) {
  for (var i=0;i<edges.length;i++) {
    if (edges[i].id.substr(0,4)=='edge') {
      edges[i].setAttribute('class','edge');
    }
  }
}
]]></script>
        <defs>
                <circle id="rim" cx="0" cy="0" r="7"/>
                <circle id="rim2" cx="0" cy="0" r="3.5"/>
                <g id="zoomPlus">
                        <use xlink:href="#rim" fill="#404040">
                                <set attributeName="fill" to="#808080" begin="zoomplus.mouseover" end="zoomplus.mouseout"/>
                        </use>
                        <path d="M-4,0h8M0,-4v8" fill="none" stroke="white" stroke-width="1.5" pointer-events="none"/>
                </g>
                <g id="zoomMin">
                        <use xlink:href="#rim" fill="#404040">
                                <set attributeName="fill" to="#808080" begin="zoomminus.mouseover" end="zoomminus.mouseout"/>
                        </use>
                        <path d="M-4,0h8" fill="none" stroke="white" stroke-width="1.5" pointer-events="none"/>
                </g>
                <g id="dirArrow">
                        <path fill="none" stroke="white" stroke-width="1.5" d="M0,-3.0v7 M-2.5,-0.5L0,-3.0L2.5,-0.5"/>
                </g>
               <g id="resetDef">
                       <use xlink:href="#rim2" fill="#404040">
                               <set attributeName="fill" to="#808080" begin="reset.mouseover" end="reset.mouseout"/>
                       </use>
               </g>
        </defs>

<script type="text/javascript">
var viewWidth = 1829;
var viewHeight = 784;
var sectionId = 'dynsection-1';
</script>
<script xlink:href="svgpan.js"/>
<svg id="graph" class="graph">
<g id="viewport">
<title>TC::ConvertToBackendIR</title>
<polygon fill="white" stroke="transparent" points="-4,4 -4,-779.5 1825,-779.5 1825,4 -4,4"/>
<!-- Node1 -->
<g id="node1" class="node">
<title>Node1</title>
<g id="a_node1"><a xlink:title=" ">
<polygon fill="#bfbfbf" stroke="black" points="1687,-499 1687,-518 1821,-518 1821,-499 1687,-499"/>
<text text-anchor="middle" x="1754" y="-506" font-family="Helvetica,sans-Serif" font-size="10.00">TC::ConvertToBackendIR</text>
</a>
</g>
</g>
<!-- Node2 -->
<g id="node2" class="node">
<title>Node2</title>
<g id="a_node2"><a xlink:href="class_inspector.html" target="_top" xlink:title=" ">
<polygon fill="white" stroke="black" points="766,-643 766,-662 828,-662 828,-643 766,-643"/>
<text text-anchor="middle" x="797" y="-650" font-family="Helvetica,sans-Serif" font-size="10.00">Inspector</text>
</a>
</g>
</g>
<!-- Node2&#45;&gt;Node1 -->
<g id="edge1" class="edge">
<title>Node2&#45;&gt;Node1</title>
<path fill="none" stroke="midnightblue" d="M838.26,-652.5C890.11,-652.5 983.02,-652.5 1062.5,-652.5 1062.5,-652.5 1062.5,-652.5 1499,-652.5 1575.3,-652.5 1603.95,-668.39 1669,-628.5 1713.01,-601.51 1740.04,-541.87 1749.35,-518.33"/>
<polygon fill="midnightblue" stroke="midnightblue" points="838.15,-649 828.15,-652.5 838.15,-656 838.15,-649"/>
</g>
<!-- Node3 -->
<g id="node3" class="node">
<title>Node3</title>
<g id="a_node3"><a xlink:href="class_visitor.html" target="_top" xlink:title=" ">
<polygon fill="white" stroke="black" points="385,-681 385,-700 433,-700 433,-681 385,-681"/>
<text text-anchor="middle" x="409" y="-688" font-family="Helvetica,sans-Serif" font-size="10.00">Visitor</text>
</a>
</g>
</g>
<!-- Node3&#45;&gt;Node2 -->
<g id="edge2" class="edge">
<title>Node3&#45;&gt;Node2</title>
<path fill="none" stroke="midnightblue" d="M443.22,-686.95C479.88,-683.05 540.63,-676.67 593,-671.5 654.29,-665.45 726.05,-658.85 765.73,-655.24"/>
<polygon fill="midnightblue" stroke="midnightblue" points="442.68,-683.49 433.1,-688.03 443.42,-690.45 442.68,-683.49"/>
</g>
<!-- Node3&#45;&gt;Node3 -->
<g id="edge10" class="edge">
<title>Node3&#45;&gt;Node3</title>
<path fill="none" stroke="#9a32cd" stroke-dasharray="5,2" d="M388.63,-709.9C389.99,-714.81 396.78,-718.5 409,-718.5 428.55,-718.5 434.2,-709.07 425.95,-700.26"/>
<polygon fill="#9a32cd" stroke="#9a32cd" points="392.01,-710.85 392.05,-700.26 385.41,-708.51 392.01,-710.85"/>
<text text-anchor="middle" x="409" y="-721.5" font-family="Helvetica,sans-Serif" font-size="10.00"> called_by</text>
</g>
<!-- Node5 -->
<g id="node5" class="node">
<title>Node5</title>
<g id="a_node5"><a xlink:href="class_split_flow_visit__base.html" target="_top" xlink:title=" ">
<polygon fill="white" stroke="black" points="870,-727 870,-746 982,-746 982,-727 870,-727"/>
<text text-anchor="middle" x="926" y="-734" font-family="Helvetica,sans-Serif" font-size="10.00">SplitFlowVisit_base</text>
</a>
</g>
</g>
<!-- Node3&#45;&gt;Node5 -->
<g id="edge9" class="edge">
<title>Node3&#45;&gt;Node5</title>
<path fill="none" stroke="#9a32cd" stroke-dasharray="5,2" d="M437.82,-704.42C451.76,-711.06 469.03,-718.78 485,-724.5 531.79,-741.26 543.73,-747 593,-753.5 689.84,-766.28 803.75,-754.73 869.83,-745.43"/>
<polygon fill="#9a32cd" stroke="#9a32cd" points="439.28,-701.24 428.76,-700.04 436.24,-707.55 439.28,-701.24"/>
<text text-anchor="middle" x="658.5" y="-761.5" font-family="Helvetica,sans-Serif" font-size="10.00"> v</text>
</g>
<!-- Node6 -->
<g id="node6" class="node">
<title>Node6</title>
<g id="a_node6"><a xlink:title=" ">
<polygon fill="white" stroke="#bfbfbf" points="593,-681 593,-700 724,-700 724,-681 593,-681"/>
<text text-anchor="middle" x="658.5" y="-688" font-family="Helvetica,sans-Serif" font-size="10.00">std::vector&lt; Visitor * &gt;</text>
</a>
</g>
</g>
<!-- Node3&#45;&gt;Node6 -->
<g id="edge8" class="edge">
<title>Node3&#45;&gt;Node6</title>
<path fill="none" stroke="#9a32cd" stroke-dasharray="5,2" d="M443.34,-690.5C481.5,-690.5 544.9,-690.5 592.84,-690.5"/>
<polygon fill="#9a32cd" stroke="#9a32cd" points="443.28,-687 433.28,-690.5 443.28,-694 443.28,-687"/>
<text text-anchor="middle" x="530" y="-693.5" font-family="Helvetica,sans-Serif" font-size="10.00"> elements</text>
</g>
<!-- Node4 -->
<g id="node4" class="node">
<title>Node4</title>
<g id="a_node4"><a xlink:href="classcstring.html" target="_top" xlink:title=" ">
<polygon fill="white" stroke="black" points="156,-366 156,-385 206,-385 206,-366 156,-366"/>
<text text-anchor="middle" x="181" y="-373" font-family="Helvetica,sans-Serif" font-size="10.00">cstring</text>
</a>
</g>
</g>
<!-- Node4&#45;&gt;Node1 -->
<g id="edge21" class="edge">
<title>Node4&#45;&gt;Node1</title>
<path fill="none" stroke="#9a32cd" stroke-dasharray="5,2" d="M186.45,-394.88C195.34,-429.67 218.4,-503.23 263,-547.5 313.38,-597.52 337.01,-614.5 408,-614.5 408,-614.5 408,-614.5 1499,-614.5 1509.47,-614.5 1649.15,-576.88 1669,-567.5 1697.52,-554.03 1726.76,-530.98 1742.09,-518.04"/>
<polygon fill="#9a32cd" stroke="#9a32cd" points="189.81,-393.91 184.05,-385.03 183.01,-395.57 189.81,-393.91"/>
<text text-anchor="middle" x="1063.5" y="-628.5" font-family="Helvetica,sans-Serif" font-size="10.00"> mainParserName</text>
<text text-anchor="middle" x="1063.5" y="-617.5" font-family="Helvetica,sans-Serif" font-size="10.00">pipelineName</text>
</g>
<!-- Node4&#45;&gt;Node3 -->
<g id="edge3" class="edge">
<title>Node4&#45;&gt;Node3</title>
<path fill="none" stroke="#9a32cd" stroke-dasharray="5,2" d="M182.93,-395.4C186.13,-442.04 200.33,-559.63 263,-628.5 295.8,-664.54 353.09,-680.44 384.95,-686.78"/>
<polygon fill="#9a32cd" stroke="#9a32cd" points="186.41,-394.92 182.33,-385.15 179.42,-395.33 186.41,-394.92"/>
<text text-anchor="middle" x="298" y="-673.5" font-family="Helvetica,sans-Serif" font-size="10.00"> internalName</text>
</g>
<!-- Node4&#45;&gt;Node4 -->
<g id="edge4" class="edge">
<title>Node4&#45;&gt;Node4</title>
<path fill="none" stroke="#9a32cd" stroke-dasharray="5,2" d="M165.9,-395.27C167.09,-400 172.12,-403.5 181,-403.5 195.57,-403.5 199.79,-394.07 193.64,-385.26"/>
<polygon fill="#9a32cd" stroke="#9a32cd" points="169.37,-395.8 168.36,-385.26 162.57,-394.13 169.37,-395.8"/>
<text text-anchor="middle" x="181" y="-417.5" font-family="Helvetica,sans-Serif" font-size="10.00"> empty</text>
<text text-anchor="middle" x="181" y="-406.5" font-family="Helvetica,sans-Serif" font-size="10.00">newline</text>
</g>
<!-- Node9 -->
<g id="node9" class="node">
<title>Node9</title>
<g id="a_node9"><a xlink:href="class_p4_1_1_program_map.html" target="_top" xlink:title=" ">
<polygon fill="white" stroke="black" points="1280,-542 1280,-561 1377,-561 1377,-542 1280,-542"/>
<text text-anchor="middle" x="1328.5" y="-549" font-family="Helvetica,sans-Serif" font-size="10.00">P4::ProgramMap</text>
</a>
</g>
</g>
<!-- Node4&#45;&gt;Node9 -->
<g id="edge15" class="edge">
<title>Node4&#45;&gt;Node9</title>
<path fill="none" stroke="#9a32cd" stroke-dasharray="5,2" d="M187.44,-395.04C197.16,-426.23 220.61,-486.97 263,-518.5 316.03,-557.95 341.91,-551.5 408,-551.5 408,-551.5 408,-551.5 1188,-551.5 1218.52,-551.5 1252.79,-551.5 1279.72,-551.5"/>
<polygon fill="#9a32cd" stroke="#9a32cd" points="190.76,-393.93 184.56,-385.34 184.05,-395.92 190.76,-393.93"/>
<text text-anchor="middle" x="797" y="-554.5" font-family="Helvetica,sans-Serif" font-size="10.00"> mapKind</text>
</g>
<!-- Node16 -->
<g id="node16" class="node">
<title>Node16</title>
<g id="a_node16"><a xlink:href="class_t_c_1_1_t_c_options.html" target="_top" xlink:title=" ">
<polygon fill="white" stroke="black" points="1456,-342 1456,-361 1540,-361 1540,-342 1456,-342"/>
<text text-anchor="middle" x="1498" y="-349" font-family="Helvetica,sans-Serif" font-size="10.00">TC::TCOptions</text>
</a>
</g>
</g>
<!-- Node4&#45;&gt;Node16 -->
<g id="edge43" class="edge">
<title>Node4&#45;&gt;Node16</title>
<path fill="none" stroke="#9a32cd" stroke-dasharray="5,2" d="M208.21,-389.75C223.76,-397.7 244.07,-407.24 263,-413.5 405.09,-460.5 444.09,-465.54 593,-480.5 650.93,-486.32 665.98,-485.31 724,-480.5 1006.37,-457.1 1340.87,-386.41 1455.82,-360.85"/>
<polygon fill="#9a32cd" stroke="#9a32cd" points="209.69,-386.57 199.2,-385.05 206.45,-392.78 209.69,-386.57"/>
<text text-anchor="middle" x="926" y="-467.5" font-family="Helvetica,sans-Serif" font-size="10.00"> outputFolder</text>
</g>
<!-- Node17 -->
<g id="node17" class="node">
<title>Node17</title>
<g id="a_node17"><a xlink:href="class_compiler_options.html" target="_top" xlink:title=" ">
<polygon fill="white" stroke="black" points="1279.5,-197 1279.5,-216 1377.5,-216 1377.5,-197 1279.5,-197"/>
<text text-anchor="middle" x="1328.5" y="-204" font-family="Helvetica,sans-Serif" font-size="10.00">CompilerOptions</text>
</a>
</g>
</g>
<!-- Node4&#45;&gt;Node17 -->
<g id="edge41" class="edge">
<title>Node4&#45;&gt;Node17</title>
<path fill="none" stroke="#9a32cd" stroke-dasharray="5,2" d="M185.96,-355.66C201.06,-286.39 261.69,-59.5 408,-59.5 408,-59.5 408,-59.5 1188,-59.5 1264,-59.5 1311.06,-164.15 1323.91,-196.85"/>
<polygon fill="#9a32cd" stroke="#9a32cd" points="182.48,-355.19 183.86,-365.7 189.34,-356.63 182.48,-355.19"/>
<text text-anchor="middle" x="797" y="-139.5" font-family="Helvetica,sans-Serif" font-size="10.00"> arch</text>
<text text-anchor="middle" x="797" y="-128.5" font-family="Helvetica,sans-Serif" font-size="10.00">dumpJsonFile</text>
<text text-anchor="middle" x="797" y="-117.5" font-family="Helvetica,sans-Serif" font-size="10.00">p4RuntimeEntriesFile</text>
<text text-anchor="middle" x="797" y="-106.5" font-family="Helvetica,sans-Serif" font-size="10.00">p4RuntimeEntriesFiles</text>
<text text-anchor="middle" x="797" y="-95.5" font-family="Helvetica,sans-Serif" font-size="10.00">p4RuntimeFile</text>
<text text-anchor="middle" x="797" y="-84.5" font-family="Helvetica,sans-Serif" font-size="10.00">p4RuntimeFiles</text>
<text text-anchor="middle" x="797" y="-73.5" font-family="Helvetica,sans-Serif" font-size="10.00">prettyPrintFile</text>
<text text-anchor="middle" x="797" y="-62.5" font-family="Helvetica,sans-Serif" font-size="10.00">target</text>
</g>
<!-- Node18 -->
<g id="node18" class="node">
<title>Node18</title>
<g id="a_node18"><a xlink:href="class_parser_options.html" target="_top" xlink:title=" ">
<polygon fill="white" stroke="black" points="1145,-250 1145,-269 1229,-269 1229,-250 1145,-250"/>
<text text-anchor="middle" x="1187" y="-257" font-family="Helvetica,sans-Serif" font-size="10.00">ParserOptions</text>
</a>
</g>
</g>
<!-- Node4&#45;&gt;Node18 -->
<g id="edge39" class="edge">
<title>Node4&#45;&gt;Node18</title>
<path fill="none" stroke="#9a32cd" stroke-dasharray="5,2" d="M216.11,-384.13C260.14,-394.49 339.26,-410.5 408,-410.5 408,-410.5 408,-410.5 927,-410.5 1039.43,-410.5 1146.52,-303 1177.24,-269.41"/>
<polygon fill="#9a32cd" stroke="#9a32cd" points="216.76,-380.69 206.22,-381.76 215.13,-387.49 216.76,-380.69"/>
<text text-anchor="middle" x="658.5" y="-468.5" font-family="Helvetica,sans-Serif" font-size="10.00"> compilerVersion</text>
<text text-anchor="middle" x="658.5" y="-457.5" font-family="Helvetica,sans-Serif" font-size="10.00">dumpFolder</text>
<text text-anchor="middle" x="658.5" y="-446.5" font-family="Helvetica,sans-Serif" font-size="10.00">exe_name</text>
<text text-anchor="middle" x="658.5" y="-435.5" font-family="Helvetica,sans-Serif" font-size="10.00">file</text>
<text text-anchor="start" x="617.5" y="-424.5" font-family="Helvetica,sans-Serif" font-size="10.00">preprocessor</text>
<text text-anchor="middle" x="658.5" y="-413.5" font-family="Helvetica,sans-Serif" font-size="10.00">_options</text>
</g>
<!-- Node19 -->
<g id="node19" class="node">
<title>Node19</title>
<g id="a_node19"><a xlink:href="class_util_1_1_options.html" target="_top" xlink:title=" ">
<polygon fill="white" stroke="black" points="887.5,-276 887.5,-295 964.5,-295 964.5,-276 887.5,-276"/>
<text text-anchor="middle" x="926" y="-283" font-family="Helvetica,sans-Serif" font-size="10.00">Util::Options</text>
</a>
</g>
</g>
<!-- Node4&#45;&gt;Node19 -->
<g id="edge32" class="edge">
<title>Node4&#45;&gt;Node19</title>
<path fill="none" stroke="#9a32cd" stroke-dasharray="5,2" d="M216.03,-371.65C314.55,-360.45 608.44,-326.72 852,-295.5 863.42,-294.04 875.83,-292.37 887.13,-290.81"/>
<polygon fill="#9a32cd" stroke="#9a32cd" points="215.6,-368.17 206.05,-372.78 216.39,-375.13 215.6,-368.17"/>
<text text-anchor="middle" x="530" y="-365.5" font-family="Helvetica,sans-Serif" font-size="10.00"> buildDate</text>
<text text-anchor="middle" x="530" y="-354.5" font-family="Helvetica,sans-Serif" font-size="10.00">compileCommand</text>
<text text-anchor="middle" x="530" y="-343.5" font-family="Helvetica,sans-Serif" font-size="10.00">message</text>
</g>
<!-- Node20 -->
<g id="node20" class="node">
<title>Node20</title>
<g id="a_node20"><a xlink:title=" ">
<polygon fill="white" stroke="#bfbfbf" points="603.5,-245 603.5,-286 713.5,-286 713.5,-245 603.5,-245"/>
<text text-anchor="start" x="611.5" y="-274" font-family="Helvetica,sans-Serif" font-size="10.00">std::map&lt; cstring,</text>
<text text-anchor="start" x="611.5" y="-263" font-family="Helvetica,sans-Serif" font-size="10.00"> const Util::Options</text>
<text text-anchor="middle" x="658.5" y="-252" font-family="Helvetica,sans-Serif" font-size="10.00">::Option * &gt;</text>
</a>
</g>
</g>
<!-- Node4&#45;&gt;Node20 -->
<g id="edge28" class="edge">
<title>Node4&#45;&gt;Node20</title>
<path fill="none" stroke="#9a32cd" stroke-dasharray="5,2" d="M195.77,-357.9C210.56,-340.16 235.65,-313.22 263,-297.5 370.68,-235.61 522.97,-245.16 603.19,-256.13"/>
<polygon fill="#9a32cd" stroke="#9a32cd" points="192.96,-355.82 189.37,-365.78 198.39,-360.23 192.96,-355.82"/>
<text text-anchor="middle" x="409" y="-265.5" font-family="Helvetica,sans-Serif" font-size="10.00"> keys</text>
</g>
<!-- Node21 -->
<g id="node21" class="node">
<title>Node21</title>
<g id="a_node21"><a xlink:href="class_util_1_1_options.html#struct_util_1_1_options_1_1_option" target="_top" xlink:title=" ">
<polygon fill="white" stroke="black" points="351,-293 351,-312 467,-312 467,-293 351,-293"/>
<text text-anchor="middle" x="409" y="-300" font-family="Helvetica,sans-Serif" font-size="10.00">Util::Options::Option</text>
</a>
</g>
</g>
<!-- Node4&#45;&gt;Node21 -->
<g id="edge30" class="edge">
<title>Node4&#45;&gt;Node21</title>
<path fill="none" stroke="#9a32cd" stroke-dasharray="5,2" d="M198.97,-358.49C214.28,-344.3 238.16,-324.95 263,-315.5 290.76,-304.94 323.58,-301.34 350.97,-300.53"/>
<polygon fill="#9a32cd" stroke="#9a32cd" points="196.2,-356.29 191.39,-365.74 201.04,-361.35 196.2,-356.29"/>
<text text-anchor="middle" x="298" y="-318.5" font-family="Helvetica,sans-Serif" font-size="10.00"> option</text>
</g>
<!-- Node23 -->
<g id="node23" class="node">
<title>Node23</title>
<g id="a_node23"><a xlink:title=" ">
<polygon fill="white" stroke="#bfbfbf" points="596.5,-207 596.5,-226 720.5,-226 720.5,-207 596.5,-207"/>
<text text-anchor="middle" x="658.5" y="-214" font-family="Helvetica,sans-Serif" font-size="10.00">std::vector&lt; cstring &gt;</text>
</a>
</g>
</g>
<!-- Node4&#45;&gt;Node23 -->
<g id="edge34" class="edge">
<title>Node4&#45;&gt;Node23</title>
<path fill="none" stroke="#9a32cd" stroke-dasharray="5,2" d="M191.45,-356.71C204.47,-332.61 230.08,-291.02 263,-266.5 361.13,-193.4 512.5,-197.56 596.33,-207.03"/>
<polygon fill="#9a32cd" stroke="#9a32cd" points="188.2,-355.38 186.66,-365.86 194.4,-358.63 188.2,-355.38"/>
<text text-anchor="middle" x="409" y="-225.5" font-family="Helvetica,sans-Serif" font-size="10.00"> elements</text>
</g>
<!-- Node5&#45;&gt;Node3 -->
<g id="edge5" class="edge">
<title>Node5&#45;&gt;Node3</title>
<path fill="none" stroke="#9a32cd" stroke-dasharray="5,2" d="M859.74,-734.49C773.6,-731.25 617.37,-723.33 485,-705.5 467.5,-703.14 447.94,-699.19 433.18,-695.93"/>
<polygon fill="#9a32cd" stroke="#9a32cd" points="859.77,-738 869.89,-734.87 860.03,-731 859.77,-738"/>
<text text-anchor="middle" x="658.5" y="-741.5" font-family="Helvetica,sans-Serif" font-size="10.00"> split_link</text>
<text text-anchor="middle" x="658.5" y="-730.5" font-family="Helvetica,sans-Serif" font-size="10.00">split_link_mem</text>
</g>
<!-- Node5&#45;&gt;Node5 -->
<g id="edge6" class="edge">
<title>Node5&#45;&gt;Node5</title>
<path fill="none" stroke="#9a32cd" stroke-dasharray="5,2" d="M902.19,-755.53C903.49,-760.63 911.43,-764.5 926,-764.5 948.75,-764.5 955.33,-755.07 945.73,-746.26"/>
<polygon fill="#9a32cd" stroke="#9a32cd" points="905.45,-756.82 906.27,-746.26 899.04,-754 905.45,-756.82"/>
<text text-anchor="middle" x="926" y="-767.5" font-family="Helvetica,sans-Serif" font-size="10.00"> prev</text>
</g>
<!-- Node6&#45;&gt;Node5 -->
<g id="edge7" class="edge">
<title>Node6&#45;&gt;Node5</title>
<path fill="none" stroke="#9a32cd" stroke-dasharray="5,2" d="M734.63,-694.82C770.47,-697.87 813.77,-702.98 852,-711.5 868.87,-715.26 887.27,-721.58 901.38,-726.92"/>
<polygon fill="#9a32cd" stroke="#9a32cd" points="734.5,-691.3 724.25,-693.98 733.93,-698.28 734.5,-691.3"/>
<text text-anchor="middle" x="797" y="-714.5" font-family="Helvetica,sans-Serif" font-size="10.00"> visitors</text>
</g>
<!-- Node7 -->
<g id="node7" class="node">
<title>Node7</title>
<g id="a_node7"><a xlink:href="classordered__map.html" target="_top" xlink:title=" ">
<polygon fill="white" stroke="black" points="1434,-555.5 1434,-585.5 1562,-585.5 1562,-555.5 1434,-555.5"/>
<text text-anchor="start" x="1442" y="-573.5" font-family="Helvetica,sans-Serif" font-size="10.00">ordered_map&lt; cstring,</text>
<text text-anchor="middle" x="1498" y="-562.5" font-family="Helvetica,sans-Serif" font-size="10.00"> const IR::P4Action * &gt;</text>
</a>
</g>
</g>
<!-- Node7&#45;&gt;Node1 -->
<g id="edge11" class="edge">
<title>Node7&#45;&gt;Node1</title>
<path fill="none" stroke="#9a32cd" stroke-dasharray="5,2" d="M1572.3,-556.51C1602.41,-550.36 1637.52,-542.69 1669,-534.5 1687.62,-529.66 1708.26,-523.28 1724.42,-518.06"/>
<polygon fill="#9a32cd" stroke="#9a32cd" points="1571.4,-553.12 1562.29,-558.53 1572.79,-559.98 1571.4,-553.12"/>
<text text-anchor="middle" x="1627.5" y="-555.5" font-family="Helvetica,sans-Serif" font-size="10.00"> actions</text>
</g>
<!-- Node8 -->
<g id="node8" class="node">
<title>Node8</title>
<g id="a_node8"><a xlink:href="class_p4_1_1_type_map.html" target="_top" xlink:title=" ">
<polygon fill="white" stroke="black" points="1459,-517 1459,-536 1537,-536 1537,-517 1459,-517"/>
<text text-anchor="middle" x="1498" y="-524" font-family="Helvetica,sans-Serif" font-size="10.00">P4::TypeMap</text>
</a>
</g>
</g>
<!-- Node8&#45;&gt;Node1 -->
<g id="edge12" class="edge">
<title>Node8&#45;&gt;Node1</title>
<path fill="none" stroke="#9a32cd" stroke-dasharray="5,2" d="M1547.19,-523.08C1586.71,-520.28 1643.05,-516.29 1686.79,-513.19"/>
<polygon fill="#9a32cd" stroke="#9a32cd" points="1546.75,-519.61 1537.03,-523.81 1547.25,-526.59 1546.75,-519.61"/>
<text text-anchor="middle" x="1627.5" y="-522.5" font-family="Helvetica,sans-Serif" font-size="10.00"> typeMap</text>
</g>
<!-- Node9&#45;&gt;Node8 -->
<g id="edge13" class="edge">
<title>Node9&#45;&gt;Node8</title>
<path fill="none" stroke="midnightblue" d="M1387.01,-542.92C1410.77,-539.37 1437.66,-535.36 1458.9,-532.19"/>
<polygon fill="midnightblue" stroke="midnightblue" points="1386.42,-539.46 1377.05,-544.4 1387.46,-546.39 1386.42,-539.46"/>
</g>
<!-- Node11 -->
<g id="node11" class="node">
<title>Node11</title>
<g id="a_node11"><a xlink:href="class_p4_1_1_reference_map.html" target="_top" xlink:title="Class used to encode maps from paths to declarations.">
<polygon fill="white" stroke="black" points="1445.5,-479 1445.5,-498 1550.5,-498 1550.5,-479 1445.5,-479"/>
<text text-anchor="middle" x="1498" y="-486" font-family="Helvetica,sans-Serif" font-size="10.00">P4::ReferenceMap</text>
</a>
</g>
</g>
<!-- Node9&#45;&gt;Node11 -->
<g id="edge17" class="edge">
<title>Node9&#45;&gt;Node11</title>
<path fill="none" stroke="midnightblue" d="M1376.3,-538.64C1381.34,-536.79 1386.33,-534.74 1391,-532.5 1408.9,-523.92 1409.97,-515.8 1428,-507.5 1436.13,-503.76 1445.14,-500.62 1453.9,-498.04"/>
<polygon fill="midnightblue" stroke="midnightblue" points="1374.92,-535.41 1366.6,-541.97 1377.19,-542.04 1374.92,-535.41"/>
</g>
<!-- Node10 -->
<g id="node10" class="node">
<title>Node10</title>
<g id="a_node10"><a xlink:href="class_i_has_db_print.html" target="_top" xlink:title=" ">
<polygon fill="white" stroke="black" points="1150,-504 1150,-523 1224,-523 1224,-504 1150,-504"/>
<text text-anchor="middle" x="1187" y="-511" font-family="Helvetica,sans-Serif" font-size="10.00">IHasDbPrint</text>
</a>
</g>
</g>
<!-- Node10&#45;&gt;Node9 -->
<g id="edge14" class="edge">
<title>Node10&#45;&gt;Node9</title>
<path fill="none" stroke="midnightblue" d="M1232.96,-525.75C1252.18,-530.98 1274.3,-537.01 1292.31,-541.91"/>
<polygon fill="midnightblue" stroke="midnightblue" points="1233.77,-522.34 1223.2,-523.09 1231.93,-529.09 1233.77,-522.34"/>
</g>
<!-- Node11&#45;&gt;Node1 -->
<g id="edge16" class="edge">
<title>Node11&#45;&gt;Node1</title>
<path fill="none" stroke="#9a32cd" stroke-dasharray="5,2" d="M1560.93,-491.88C1593.18,-493.8 1633.24,-496.43 1669,-499.5 1674.85,-500 1680.91,-500.57 1687,-501.16"/>
<polygon fill="#9a32cd" stroke="#9a32cd" points="1560.94,-488.37 1550.75,-491.28 1560.53,-495.36 1560.94,-488.37"/>
<text text-anchor="middle" x="1627.5" y="-502.5" font-family="Helvetica,sans-Serif" font-size="10.00"> refMap</text>
</g>
<!-- Node12 -->
<g id="node12" class="node">
<title>Node12</title>
<g id="a_node12"><a xlink:href="class_p4_1_1_name_generator.html" target="_top" xlink:title=" ">
<polygon fill="white" stroke="black" points="1272,-504 1272,-523 1385,-523 1385,-504 1272,-504"/>
<text text-anchor="middle" x="1328.5" y="-511" font-family="Helvetica,sans-Serif" font-size="10.00">P4::NameGenerator</text>
</a>
</g>
</g>
<!-- Node12&#45;&gt;Node11 -->
<g id="edge18" class="edge">
<title>Node12&#45;&gt;Node11</title>
<path fill="none" stroke="midnightblue" d="M1395.46,-503.65C1412.06,-501.18 1429.65,-498.55 1445.43,-496.2"/>
<polygon fill="midnightblue" stroke="midnightblue" points="1394.65,-500.24 1385.28,-505.18 1395.68,-507.16 1394.65,-500.24"/>
</g>
<!-- Node13 -->
<g id="node13" class="node">
<title>Node13</title>
<g id="a_node13"><a xlink:href="class_p4_1_1_declaration_lookup.html" target="_top" xlink:title=" ">
<polygon fill="white" stroke="black" points="1266,-466 1266,-485 1391,-485 1391,-466 1266,-466"/>
<text text-anchor="middle" x="1328.5" y="-473" font-family="Helvetica,sans-Serif" font-size="10.00">P4::DeclarationLookup</text>
</a>
</g>
</g>
<!-- Node13&#45;&gt;Node11 -->
<g id="edge19" class="edge">
<title>Node13&#45;&gt;Node11</title>
<path fill="none" stroke="midnightblue" d="M1401.48,-481.09C1416.19,-482.23 1431.4,-483.41 1445.24,-484.48"/>
<polygon fill="midnightblue" stroke="midnightblue" points="1401.64,-477.59 1391.39,-480.3 1401.09,-484.57 1401.64,-477.59"/>
</g>
<!-- Node14 -->
<g id="node14" class="node">
<title>Node14</title>
<g id="a_node14"><a xlink:href="classordered__map.html" target="_top" xlink:title=" ">
<polygon fill="white" stroke="black" points="1428,-429.5 1428,-459.5 1568,-459.5 1568,-429.5 1428,-429.5"/>
<text text-anchor="start" x="1436" y="-447.5" font-family="Helvetica,sans-Serif" font-size="10.00">ordered_map&lt; unsigned,</text>
<text text-anchor="middle" x="1498" y="-436.5" font-family="Helvetica,sans-Serif" font-size="10.00"> unsigned &gt;</text>
</a>
</g>
</g>
<!-- Node14&#45;&gt;Node1 -->
<g id="edge20" class="edge">
<title>Node14&#45;&gt;Node1</title>
<path fill="none" stroke="#9a32cd" stroke-dasharray="5,2" d="M1578.21,-457.86C1607.01,-463.37 1639.68,-470.38 1669,-478.5 1689.59,-484.2 1712.4,-492.48 1729.04,-498.89"/>
<polygon fill="#9a32cd" stroke="#9a32cd" points="1578.67,-454.39 1568.19,-455.98 1577.37,-461.27 1578.67,-454.39"/>
<text text-anchor="middle" x="1627.5" y="-481.5" font-family="Helvetica,sans-Serif" font-size="10.00"> tableKeysizeList</text>
</g>
<!-- Node15 -->
<g id="node15" class="node">
<title>Node15</title>
<g id="a_node15"><a xlink:href="classordered__map.html" target="_top" xlink:title=" ">
<polygon fill="white" stroke="black" points="1428,-380.5 1428,-410.5 1568,-410.5 1568,-380.5 1428,-380.5"/>
<text text-anchor="start" x="1436" y="-398.5" font-family="Helvetica,sans-Serif" font-size="10.00">ordered_map&lt; unsigned,</text>
<text text-anchor="middle" x="1498" y="-387.5" font-family="Helvetica,sans-Serif" font-size="10.00"> cstring &gt;</text>
</a>
</g>
</g>
<!-- Node15&#45;&gt;Node1 -->
<g id="edge22" class="edge">
<title>Node15&#45;&gt;Node1</title>
<path fill="none" stroke="#9a32cd" stroke-dasharray="5,2" d="M1578.23,-404.62C1607.87,-410.21 1641.08,-419.16 1669,-433.5 1701.7,-450.29 1731.67,-482.87 1745.29,-498.99"/>
<polygon fill="#9a32cd" stroke="#9a32cd" points="1578.79,-401.17 1568.33,-402.86 1577.56,-408.06 1578.79,-401.17"/>
<text text-anchor="middle" x="1627.5" y="-447.5" font-family="Helvetica,sans-Serif" font-size="10.00"> actionIDList</text>
<text text-anchor="middle" x="1627.5" y="-436.5" font-family="Helvetica,sans-Serif" font-size="10.00">tableIDList</text>
</g>
<!-- Node16&#45;&gt;Node1 -->
<g id="edge23" class="edge">
<title>Node16&#45;&gt;Node1</title>
<path fill="none" stroke="#9a32cd" stroke-dasharray="5,2" d="M1550.57,-354.18C1586.38,-358.19 1633.79,-367.95 1669,-391.5 1710.98,-419.59 1739.01,-476.2 1748.97,-498.83"/>
<polygon fill="#9a32cd" stroke="#9a32cd" points="1550.63,-350.67 1540.33,-353.16 1549.93,-357.64 1550.63,-350.67"/>
<text text-anchor="middle" x="1627.5" y="-394.5" font-family="Helvetica,sans-Serif" font-size="10.00"> options</text>
</g>
<!-- Node17&#45;&gt;Node16 -->
<g id="edge24" class="edge">
<title>Node17&#45;&gt;Node16</title>
<path fill="none" stroke="midnightblue" d="M1348.08,-222.59C1383,-252.81 1457.44,-317.25 1485.75,-341.76"/>
<polygon fill="midnightblue" stroke="midnightblue" points="1350.34,-219.91 1340.49,-216.01 1345.76,-225.21 1350.34,-219.91"/>
</g>
<!-- Node18&#45;&gt;Node17 -->
<g id="edge25" class="edge">
<title>Node18&#45;&gt;Node17</title>
<path fill="none" stroke="midnightblue" d="M1222.66,-246.33C1247.42,-236.92 1280.16,-224.48 1302.43,-216.03"/>
<polygon fill="midnightblue" stroke="midnightblue" points="1221.37,-243.08 1213.26,-249.9 1223.85,-249.62 1221.37,-243.08"/>
</g>
<!-- Node19&#45;&gt;Node18 -->
<g id="edge26" class="edge">
<title>Node19&#45;&gt;Node18</title>
<path fill="none" stroke="midnightblue" d="M974.66,-280.72C1023.47,-275.82 1098.57,-268.28 1144.87,-263.63"/>
<polygon fill="midnightblue" stroke="midnightblue" points="974.26,-277.24 964.66,-281.72 974.96,-284.2 974.26,-277.24"/>
</g>
<!-- Node20&#45;&gt;Node19 -->
<g id="edge27" class="edge">
<title>Node20&#45;&gt;Node19</title>
<path fill="none" stroke="#9a32cd" stroke-dasharray="5,2" d="M723.52,-270.32C774.71,-274.18 844.72,-279.45 887.3,-282.66"/>
<polygon fill="#9a32cd" stroke="#9a32cd" points="723.78,-266.83 713.55,-269.57 723.26,-273.81 723.78,-266.83"/>
<text text-anchor="middle" x="797" y="-283.5" font-family="Helvetica,sans-Serif" font-size="10.00"> options</text>
</g>
<!-- Node21&#45;&gt;Node20 -->
<g id="edge29" class="edge">
<title>Node21&#45;&gt;Node20</title>
<path fill="none" stroke="#9a32cd" stroke-dasharray="5,2" d="M477.19,-292.46C516.76,-286.54 566.16,-279.15 603.24,-273.61"/>
<polygon fill="#9a32cd" stroke="#9a32cd" points="476.46,-289.02 467.09,-293.96 477.5,-295.95 476.46,-289.02"/>
<text text-anchor="middle" x="530" y="-294.5" font-family="Helvetica,sans-Serif" font-size="10.00"> elements</text>
</g>
<!-- Node22 -->
<g id="node22" class="node">
<title>Node22</title>
<g id="a_node22"><a xlink:title=" ">
<polygon fill="white" stroke="#bfbfbf" points="605.5,-343.5 605.5,-373.5 711.5,-373.5 711.5,-343.5 605.5,-343.5"/>
<text text-anchor="start" x="613.5" y="-361.5" font-family="Helvetica,sans-Serif" font-size="10.00">std::vector&lt; const</text>
<text text-anchor="middle" x="658.5" y="-350.5" font-family="Helvetica,sans-Serif" font-size="10.00"> char * &gt;</text>
</a>
</g>
</g>
<!-- Node22&#45;&gt;Node19 -->
<g id="edge31" class="edge">
<title>Node22&#45;&gt;Node19</title>
<path fill="none" stroke="#9a32cd" stroke-dasharray="5,2" d="M721.89,-354.76C760.3,-351.01 810.05,-343.5 852,-328.5 874.71,-320.38 898.28,-305.01 912.29,-295.02"/>
<polygon fill="#9a32cd" stroke="#9a32cd" points="721.51,-351.28 711.87,-355.68 722.15,-358.25 721.51,-351.28"/>
<text text-anchor="middle" x="797" y="-366.5" font-family="Helvetica,sans-Serif" font-size="10.00"> additionalUsage</text>
<text text-anchor="middle" x="797" y="-355.5" font-family="Helvetica,sans-Serif" font-size="10.00">remainingOptions</text>
</g>
<!-- Node23&#45;&gt;Node17 -->
<g id="edge42" class="edge">
<title>Node23&#45;&gt;Node17</title>
<path fill="none" stroke="#9a32cd" stroke-dasharray="5,2" d="M730.99,-214.12C799.89,-211.95 907.06,-208.87 1000,-207.5 1099.35,-206.04 1215.67,-206.1 1279.49,-206.3"/>
<polygon fill="#9a32cd" stroke="#9a32cd" points="730.58,-210.64 720.69,-214.45 730.8,-217.63 730.58,-210.64"/>
<text text-anchor="middle" x="1063.5" y="-232.5" font-family="Helvetica,sans-Serif" font-size="10.00"> passesToExcludeBackend</text>
<text text-anchor="middle" x="1063.5" y="-221.5" font-family="Helvetica,sans-Serif" font-size="10.00">passesToExcludeFrontend</text>
<text text-anchor="middle" x="1063.5" y="-210.5" font-family="Helvetica,sans-Serif" font-size="10.00">passesToExcludeMidend</text>
</g>
<!-- Node23&#45;&gt;Node18 -->
<g id="edge40" class="edge">
<title>Node23&#45;&gt;Node18</title>
<path fill="none" stroke="#9a32cd" stroke-dasharray="5,2" d="M730.83,-222.33C842.6,-231.45 1055.45,-248.84 1144.85,-256.14"/>
<polygon fill="#9a32cd" stroke="#9a32cd" points="730.92,-218.82 720.67,-221.5 730.35,-225.8 730.92,-218.82"/>
<text text-anchor="middle" x="926" y="-245.5" font-family="Helvetica,sans-Serif" font-size="10.00"> top4</text>
</g>
<!-- Node23&#45;&gt;Node19 -->
<g id="edge33" class="edge">
<title>Node23&#45;&gt;Node19</title>
<path fill="none" stroke="#9a32cd" stroke-dasharray="5,2" d="M718.55,-228.02C765.57,-237.4 827.43,-250.22 852,-257.5 869.31,-262.63 888.34,-269.99 902.63,-275.87"/>
<polygon fill="#9a32cd" stroke="#9a32cd" points="718.95,-224.53 708.46,-226.02 717.58,-231.4 718.95,-224.53"/>
<text text-anchor="middle" x="797" y="-260.5" font-family="Helvetica,sans-Serif" font-size="10.00"> optionOrder</text>
</g>
<!-- Node24 -->
<g id="node24" class="node">
<title>Node24</title>
<g id="a_node24"><a xlink:title=" ">
<polygon fill="white" stroke="#bfbfbf" points="619.5,-11 619.5,-30 697.5,-30 697.5,-11 619.5,-11"/>
<text text-anchor="middle" x="658.5" y="-18" font-family="Helvetica,sans-Serif" font-size="10.00">std::ostream</text>
</a>
</g>
</g>
<!-- Node24&#45;&gt;Node19 -->
<g id="edge35" class="edge">
<title>Node24&#45;&gt;Node19</title>
<path fill="none" stroke="#9a32cd" stroke-dasharray="5,2" d="M668.27,-39.17C681.44,-65.78 708.42,-115.11 742,-148.5 783.09,-189.36 814.08,-174.69 852,-218.5 864.76,-233.24 856.45,-244.49 870,-258.5 877.25,-265.99 887.01,-271.71 896.29,-275.9"/>
<polygon fill="#9a32cd" stroke="#9a32cd" points="671.41,-37.63 663.91,-30.16 665.11,-40.68 671.41,-37.63"/>
<text text-anchor="middle" x="797" y="-221.5" font-family="Helvetica,sans-Serif" font-size="10.00"> outStream</text>
</g>
<!-- Node25 -->
<g id="node25" class="node">
<title>Node25</title>
<g id="a_node25"><a xlink:title=" ">
<polygon fill="white" stroke="#bfbfbf" points="354.5,-0.5 354.5,-30.5 463.5,-30.5 463.5,-0.5 354.5,-0.5"/>
<text text-anchor="start" x="362.5" y="-18.5" font-family="Helvetica,sans-Serif" font-size="10.00">std::basic_ostream</text>
<text text-anchor="middle" x="409" y="-7.5" font-family="Helvetica,sans-Serif" font-size="10.00">&lt; Char &gt;</text>
</a>
</g>
</g>
<!-- Node25&#45;&gt;Node24 -->
<g id="edge36" class="edge">
<title>Node25&#45;&gt;Node24</title>
<path fill="none" stroke="midnightblue" d="M473.88,-16.79C519.91,-17.72 580.5,-18.94 619.23,-19.73"/>
<polygon fill="midnightblue" stroke="midnightblue" points="473.77,-13.29 463.7,-16.58 473.63,-20.29 473.77,-13.29"/>
</g>
<!-- Node26 -->
<g id="node26" class="node">
<title>Node26</title>
<g id="a_node26"><a xlink:title=" ">
<polygon fill="white" stroke="#bfbfbf" points="117,-6 117,-25 245,-25 245,-6 117,-6"/>
<text text-anchor="middle" x="181" y="-13" font-family="Helvetica,sans-Serif" font-size="10.00">std::basic_ios&lt; Char &gt;</text>
</a>
</g>
</g>
<!-- Node26&#45;&gt;Node25 -->
<g id="edge37" class="edge">
<title>Node26&#45;&gt;Node25</title>
<path fill="none" stroke="midnightblue" d="M255.52,-15.5C287.71,-15.5 324.8,-15.5 354.33,-15.5"/>
<polygon fill="midnightblue" stroke="midnightblue" points="255.25,-12 245.25,-15.5 255.25,-19 255.25,-12"/>
</g>
<!-- Node27 -->
<g id="node27" class="node">
<title>Node27</title>
<g id="a_node27"><a xlink:title=" ">
<polygon fill="white" stroke="#bfbfbf" points="0,-6 0,-25 80,-25 80,-6 0,-6"/>
<text text-anchor="middle" x="40" y="-13" font-family="Helvetica,sans-Serif" font-size="10.00">std::ios_base</text>
</a>
</g>
</g>
<!-- Node27&#45;&gt;Node26 -->
<g id="edge38" class="edge">
<title>Node27&#45;&gt;Node26</title>
<path fill="none" stroke="midnightblue" d="M90.28,-15.5C98.85,-15.5 107.87,-15.5 116.75,-15.5"/>
<polygon fill="midnightblue" stroke="midnightblue" points="90.09,-12 80.09,-15.5 90.09,-19 90.09,-12"/>
</g>
</g>
</svg>
        <g id="navigator" transform="translate(0 0)" fill="#404254">
                <rect fill="#f2f5e9" fill-opacity="0.5" stroke="#606060" stroke-width=".5" x="0" y="0" width="60" height="60"/>
                <use id="zoomplus" xlink:href="#zoomPlus" x="17" y="9" onmousedown="handleZoom(evt,'in')"/>
                <use id="zoomminus" xlink:href="#zoomMin" x="42" y="9" onmousedown="handleZoom(evt,'out')"/>
                <use id="reset" xlink:href="#resetDef" x="30" y="36" onmousedown="handleReset()"/>
                <g id="arrowUp" xlink:href="#dirArrow" transform="translate(30 24)" onmousedown="handlePan(0,-1)">
                  <use xlink:href="#rim" fill="#404040">
                        <set attributeName="fill" to="#808080" begin="arrowUp.mouseover" end="arrowUp.mouseout"/>
                  </use>
                  <path fill="none" stroke="white" stroke-width="1.5" d="M0,-3.0v7 M-2.5,-0.5L0,-3.0L2.5,-0.5"/>
                </g>
                <g id="arrowRight" xlink:href="#dirArrow" transform="rotate(90) translate(36 -43)" onmousedown="handlePan(1,0)">
                  <use xlink:href="#rim" fill="#404040">
                        <set attributeName="fill" to="#808080" begin="arrowRight.mouseover" end="arrowRight.mouseout"/>
                  </use>
                  <path fill="none" stroke="white" stroke-width="1.5" d="M0,-3.0v7 M-2.5,-0.5L0,-3.0L2.5,-0.5"/>
                </g>
                <g id="arrowDown" xlink:href="#dirArrow" transform="rotate(180) translate(-30 -48)" onmousedown="handlePan(0,1)">
                  <use xlink:href="#rim" fill="#404040">
                        <set attributeName="fill" to="#808080" begin="arrowDown.mouseover" end="arrowDown.mouseout"/>
                  </use>
                  <path fill="none" stroke="white" stroke-width="1.5" d="M0,-3.0v7 M-2.5,-0.5L0,-3.0L2.5,-0.5"/>
                </g>
                <g id="arrowLeft" xlink:href="#dirArrow" transform="rotate(270) translate(-36 17)" onmousedown="handlePan(-1,0)">
                  <use xlink:href="#rim" fill="#404040">
                        <set attributeName="fill" to="#808080" begin="arrowLeft.mouseover" end="arrowLeft.mouseout"/>
                  </use>
                  <path fill="none" stroke="white" stroke-width="1.5" d="M0,-3.0v7 M-2.5,-0.5L0,-3.0L2.5,-0.5"/>
                </g>
        </g>
        <svg viewBox="0 0 15 15" width="100%" height="30px" preserveAspectRatio="xMaxYMin meet">
         <g id="arrow_out" transform="scale(0.3 0.3)">
          <a xlink:href="class_t_c_1_1_convert_to_backend_i_r__coll__graph_org.svg" target="_base">
           <rect id="button" ry="5" rx="5" y="6" x="6" height="38" width="38"
                fill="#f2f5e9" fill-opacity="0.5" stroke="#606060" stroke-width="1.0"/>
           <path id="arrow"
             d="M 11.500037,31.436501 C 11.940474,20.09759 22.043105,11.32322 32.158766,21.979434 L 37.068811,17.246167 C 37.068811,17.246167 37.088388,32 37.088388,32 L 22.160133,31.978069 C 22.160133,31.978069 26.997745,27.140456 26.997745,27.140456 C 18.528582,18.264221 13.291696,25.230495 11.500037,31.436501 z"
             style="fill:#404040;"/>
          </a>
         </g>
        </svg>
</svg>
