<?xml version="1.0" encoding="UTF-8" standalone="no"?>
<!DOCTYPE svg PUBLIC "-//W3C//DTD SVG 1.1//EN"
 "http://www.w3.org/Graphics/SVG/1.1/DTD/svg11.dtd">
<!-- Generated by graphviz version 2.43.0 (0)
 -->
<!-- Title: P4::ResolutionContext Pages: 1 -->
<svg width="409pt" height="151pt"
 viewBox="0.00 0.00 408.50 151.00" xmlns="http://www.w3.org/2000/svg" xmlns:xlink="http://www.w3.org/1999/xlink">
<g id="graph0" class="graph" transform="scale(1 1) rotate(0) translate(4 147)">
<title>P4::ResolutionContext</title>
<!-- Node1 -->
<g id="node1" class="node">
<title>Node1</title>
<g id="a_node1"><a xlink:title="Visitor mixin for looking up names in enclosing scopes from the Visitor::Context.">
<polygon fill="#bfbfbf" stroke="black" points="131,-67.5 131,-86.5 256,-86.5 256,-67.5 131,-67.5"/>
<text text-anchor="middle" x="193.5" y="-74.5" font-family="Helvetica,sans-Serif" font-size="10.00">P4::ResolutionContext</text>
</a>
</g>
</g>
<!-- Node4 -->
<g id="node4" class="node">
<title>Node4</title>
<g id="a_node4"><a xlink:href="class_p4_1_1_compute_def_use.html" target="_top" xlink:title="Compute defuse info within P4Parser and P4Control blocks in the midend.">
<polygon fill="none" stroke="black" points="0,-6 0,-25 115,-25 115,-6 0,-6"/>
<text text-anchor="middle" x="57.5" y="-13" font-family="Helvetica,sans-Serif" font-size="10.00">P4::ComputeDefUse</text>
</a>
</g>
</g>
<!-- Node1&#45;&gt;Node4 -->
<g id="edge3" class="edge">
<title>Node1&#45;&gt;Node4</title>
<path fill="none" stroke="midnightblue" d="M164.53,-63.33C138.13,-51.78 99.86,-35.03 76.95,-25.01"/>
<polygon fill="midnightblue" stroke="midnightblue" points="163.45,-66.67 174.01,-67.48 166.26,-60.26 163.45,-66.67"/>
</g>
<!-- Node5 -->
<g id="node5" class="node">
<title>Node5</title>
<g id="a_node5"><a xlink:href="class_p4_1_1_compute_def_use_1_1_setup_join_points.html" target="_top" xlink:title=" ">
<polygon fill="none" stroke="black" points="133,-0.5 133,-30.5 254,-30.5 254,-0.5 133,-0.5"/>
<text text-anchor="start" x="141" y="-18.5" font-family="Helvetica,sans-Serif" font-size="10.00">P4::ComputeDefUse::</text>
<text text-anchor="middle" x="193.5" y="-7.5" font-family="Helvetica,sans-Serif" font-size="10.00">SetupJoinPoints</text>
</a>
</g>
</g>
<!-- Node1&#45;&gt;Node5 -->
<g id="edge4" class="edge">
<title>Node1&#45;&gt;Node5</title>
<path fill="none" stroke="midnightblue" d="M193.5,-57.23C193.5,-48.59 193.5,-38.5 193.5,-30.52"/>
<polygon fill="midnightblue" stroke="midnightblue" points="190,-57.48 193.5,-67.48 197,-57.48 190,-57.48"/>
</g>
<!-- Node6 -->
<g id="node6" class="node">
<title>Node6</title>
<g id="a_node6"><a xlink:href="class_p4_1_1_resolve_references.html" target="_top" xlink:title=" ">
<polygon fill="none" stroke="black" points="272.5,-6 272.5,-25 400.5,-25 400.5,-6 272.5,-6"/>
<text text-anchor="middle" x="336.5" y="-13" font-family="Helvetica,sans-Serif" font-size="10.00">P4::ResolveReferences</text>
</a>
</g>
</g>
<!-- Node1&#45;&gt;Node6 -->
<g id="edge5" class="edge">
<title>Node1&#45;&gt;Node6</title>
<path fill="none" stroke="#8b1a1a" d="M223.23,-63.63C251.01,-52.07 291.75,-35.12 316.05,-25.01"/>
<polygon fill="#8b1a1a" stroke="#8b1a1a" points="221.88,-60.4 213.99,-67.48 224.57,-66.86 221.88,-60.4"/>
</g>
<!-- Node2 -->
<g id="node2" class="node">
<title>Node2</title>
<g id="a_node2"><a xlink:href="class_visitor.html" target="_top" xlink:title=" ">
<polygon fill="none" stroke="black" points="117.5,-123.5 117.5,-142.5 165.5,-142.5 165.5,-123.5 117.5,-123.5"/>
<text text-anchor="middle" x="141.5" y="-130.5" font-family="Helvetica,sans-Serif" font-size="10.00">Visitor</text>
</a>
</g>
</g>
<!-- Node2&#45;&gt;Node1 -->
<g id="edge1" class="edge">
<title>Node2&#45;&gt;Node1</title>
<path fill="none" stroke="midnightblue" d="M157.18,-115.72C166.34,-106.2 177.55,-94.56 185.07,-86.75"/>
<polygon fill="midnightblue" stroke="midnightblue" points="154.5,-113.45 150.09,-123.08 159.54,-118.31 154.5,-113.45"/>
</g>
<!-- Node3 -->
<g id="node3" class="node">
<title>Node3</title>
<g id="a_node3"><a xlink:href="class_p4_1_1_declaration_lookup.html" target="_top" xlink:title=" ">
<polygon fill="none" stroke="black" points="184,-123.5 184,-142.5 309,-142.5 309,-123.5 184,-123.5"/>
<text text-anchor="middle" x="246.5" y="-130.5" font-family="Helvetica,sans-Serif" font-size="10.00">P4::DeclarationLookup</text>
</a>
</g>
</g>
<!-- Node3&#45;&gt;Node1 -->
<g id="edge2" class="edge">
<title>Node3&#45;&gt;Node1</title>
<path fill="none" stroke="midnightblue" d="M230.52,-115.72C221.18,-106.2 209.75,-94.56 202.09,-86.75"/>
<polygon fill="midnightblue" stroke="midnightblue" points="228.25,-118.4 237.75,-123.08 233.24,-113.49 228.25,-118.4"/>
</g>
</g>
</svg>
