<?xml version="1.0" encoding="UTF-8" standalone="no"?>
<!DOCTYPE svg PUBLIC "-//W3C//DTD SVG 1.1//EN"
 "http://www.w3.org/Graphics/SVG/1.1/DTD/svg11.dtd">
<!-- Generated by graphviz version 2.43.0 (0)
 -->
<!-- Title: BMV2::DiscoverStructure Pages: 1 -->
<!--zoomable 638 -->
<svg id="main" version="1.1" xmlns="http://www.w3.org/2000/svg" xmlns:xlink="http://www.w3.org/1999/xlink" xml:space="preserve" onload="init(evt)">
<style type="text/css"><![CDATA[
.edge:hover path { stroke: red; }
.edge:hover polygon { stroke: red; fill: red; }
]]></style>
<script type="text/javascript"><![CDATA[
var edges = document.getElementsByTagName('g');
if (edges && edges.length) {
  for (var i=0;i<edges.length;i++) {
    if (edges[i].id.substr(0,4)=='edge') {
      edges[i].setAttribute('class','edge');
    }
  }
}
]]></script>
        <defs>
                <circle id="rim" cx="0" cy="0" r="7"/>
                <circle id="rim2" cx="0" cy="0" r="3.5"/>
                <g id="zoomPlus">
                        <use xlink:href="#rim" fill="#404040">
                                <set attributeName="fill" to="#808080" begin="zoomplus.mouseover" end="zoomplus.mouseout"/>
                        </use>
                        <path d="M-4,0h8M0,-4v8" fill="none" stroke="white" stroke-width="1.5" pointer-events="none"/>
                </g>
                <g id="zoomMin">
                        <use xlink:href="#rim" fill="#404040">
                                <set attributeName="fill" to="#808080" begin="zoomminus.mouseover" end="zoomminus.mouseout"/>
                        </use>
                        <path d="M-4,0h8" fill="none" stroke="white" stroke-width="1.5" pointer-events="none"/>
                </g>
                <g id="dirArrow">
                        <path fill="none" stroke="white" stroke-width="1.5" d="M0,-3.0v7 M-2.5,-0.5L0,-3.0L2.5,-0.5"/>
                </g>
               <g id="resetDef">
                       <use xlink:href="#rim2" fill="#404040">
                               <set attributeName="fill" to="#808080" begin="reset.mouseover" end="reset.mouseout"/>
                       </use>
               </g>
        </defs>

<script type="text/javascript">
var viewWidth = 822;
var viewHeight = 638;
var sectionId = 'dynsection-1';
</script>
<script xlink:href="svgpan.js"/>
<svg id="graph" class="graph">
<g id="viewport">
<title>BMV2::DiscoverStructure</title>
<polygon fill="white" stroke="transparent" points="-4,4 -4,-634 818,-634 818,4 -4,4"/>
<!-- Node1 -->
<g id="node1" class="node">
<title>Node1</title>
<g id="a_node1"><a xlink:title=" ">
<polygon fill="#bfbfbf" stroke="black" points="676,-353.5 676,-372.5 814,-372.5 814,-353.5 676,-353.5"/>
<text text-anchor="middle" x="745" y="-360.5" font-family="Helvetica,sans-Serif" font-size="10.00">BMV2::DiscoverStructure</text>
</a>
</g>
</g>
<!-- Node2 -->
<g id="node2" class="node">
<title>Node2</title>
<g id="a_node2"><a xlink:href="class_inspector.html" target="_top" xlink:title=" ">
<polygon fill="white" stroke="black" points="493.5,-451.5 493.5,-470.5 555.5,-470.5 555.5,-451.5 493.5,-451.5"/>
<text text-anchor="middle" x="524.5" y="-458.5" font-family="Helvetica,sans-Serif" font-size="10.00">Inspector</text>
</a>
</g>
</g>
<!-- Node2&#45;&gt;Node1 -->
<g id="edge1" class="edge">
<title>Node2&#45;&gt;Node1</title>
<path fill="none" stroke="midnightblue" d="M556.09,-447.28C600.98,-427.15 683.58,-390.1 722.56,-372.61"/>
<polygon fill="midnightblue" stroke="midnightblue" points="554.54,-444.14 546.85,-451.42 557.41,-450.53 554.54,-444.14"/>
</g>
<!-- Node3 -->
<g id="node3" class="node">
<title>Node3</title>
<g id="a_node3"><a xlink:href="class_visitor.html" target="_top" xlink:title=" ">
<polygon fill="white" stroke="black" points="210,-554.5 210,-573.5 258,-573.5 258,-554.5 210,-554.5"/>
<text text-anchor="middle" x="234" y="-561.5" font-family="Helvetica,sans-Serif" font-size="10.00">Visitor</text>
</a>
</g>
</g>
<!-- Node3&#45;&gt;Node2 -->
<g id="edge2" class="edge">
<title>Node3&#45;&gt;Node2</title>
<path fill="none" stroke="midnightblue" d="M268.39,-559.18C282.38,-556.3 298.49,-551.83 312,-545 321.29,-540.3 320.74,-534.76 330,-530 374.12,-507.36 391.43,-519.02 438,-502 462.28,-493.13 488.93,-479.72 505.92,-470.67"/>
<polygon fill="midnightblue" stroke="midnightblue" points="267.38,-555.81 258.19,-561.08 268.66,-562.69 267.38,-555.81"/>
</g>
<!-- Node3&#45;&gt;Node3 -->
<g id="edge10" class="edge">
<title>Node3&#45;&gt;Node3</title>
<path fill="none" stroke="#9a32cd" stroke-dasharray="5,2" d="M209.82,-583.03C211.14,-588.13 219.2,-592 234,-592 257.11,-592 263.78,-582.57 254.04,-573.76"/>
<polygon fill="#9a32cd" stroke="#9a32cd" points="213.08,-584.31 213.96,-573.76 206.69,-581.46 213.08,-584.31"/>
<text text-anchor="middle" x="234" y="-595" font-family="Helvetica,sans-Serif" font-size="10.00"> called_by</text>
</g>
<!-- Node5 -->
<g id="node5" class="node">
<title>Node5</title>
<g id="a_node5"><a xlink:href="class_split_flow_visit__base.html" target="_top" xlink:title=" ">
<polygon fill="white" stroke="black" points="689,-581.5 689,-600.5 801,-600.5 801,-581.5 689,-581.5"/>
<text text-anchor="middle" x="745" y="-588.5" font-family="Helvetica,sans-Serif" font-size="10.00">SplitFlowVisit_base</text>
</a>
</g>
</g>
<!-- Node3&#45;&gt;Node5 -->
<g id="edge9" class="edge">
<title>Node3&#45;&gt;Node5</title>
<path fill="none" stroke="#9a32cd" stroke-dasharray="5,2" d="M267.12,-577.24C285.28,-584.2 308.57,-592.24 330,-597 472.36,-628.62 513.17,-623.03 658,-606 670.04,-604.58 682.96,-602.59 695.02,-600.51"/>
<polygon fill="#9a32cd" stroke="#9a32cd" points="268.19,-573.9 257.61,-573.52 265.64,-580.42 268.19,-573.9"/>
<text text-anchor="middle" x="524.5" y="-622" font-family="Helvetica,sans-Serif" font-size="10.00"> v</text>
</g>
<!-- Node6 -->
<g id="node6" class="node">
<title>Node6</title>
<g id="a_node6"><a xlink:title=" ">
<polygon fill="white" stroke="#bfbfbf" points="459,-581.5 459,-600.5 590,-600.5 590,-581.5 459,-581.5"/>
<text text-anchor="middle" x="524.5" y="-588.5" font-family="Helvetica,sans-Serif" font-size="10.00">std::vector&lt; Visitor * &gt;</text>
</a>
</g>
</g>
<!-- Node3&#45;&gt;Node6 -->
<g id="edge8" class="edge">
<title>Node3&#45;&gt;Node6</title>
<path fill="none" stroke="#9a32cd" stroke-dasharray="5,2" d="M268.22,-567.11C314.59,-571.45 399.65,-579.41 458.77,-584.94"/>
<polygon fill="#9a32cd" stroke="#9a32cd" points="268.4,-563.61 258.12,-566.16 267.75,-570.58 268.4,-563.61"/>
<text text-anchor="middle" x="384" y="-585" font-family="Helvetica,sans-Serif" font-size="10.00"> elements</text>
</g>
<!-- Node4 -->
<g id="node4" class="node">
<title>Node4</title>
<g id="a_node4"><a xlink:href="classcstring.html" target="_top" xlink:title=" ">
<polygon fill="white" stroke="black" points="0,-516.5 0,-535.5 50,-535.5 50,-516.5 0,-516.5"/>
<text text-anchor="middle" x="25" y="-523.5" font-family="Helvetica,sans-Serif" font-size="10.00">cstring</text>
</a>
</g>
</g>
<!-- Node4&#45;&gt;Node3 -->
<g id="edge3" class="edge">
<title>Node4&#45;&gt;Node3</title>
<path fill="none" stroke="#9a32cd" stroke-dasharray="5,2" d="M59.93,-537.87C62.64,-538.65 65.36,-539.37 68,-540 117.85,-551.84 177.64,-558.78 209.8,-561.94"/>
<polygon fill="#9a32cd" stroke="#9a32cd" points="60.81,-534.48 50.22,-534.88 58.75,-541.17 60.81,-534.48"/>
<text text-anchor="middle" x="103" y="-555" font-family="Helvetica,sans-Serif" font-size="10.00"> internalName</text>
</g>
<!-- Node4&#45;&gt;Node4 -->
<g id="edge4" class="edge">
<title>Node4&#45;&gt;Node4</title>
<path fill="none" stroke="#9a32cd" stroke-dasharray="5,2" d="M10.64,-545.77C11.76,-550.5 16.55,-554 25,-554 38.86,-554 42.87,-544.57 37.02,-535.76"/>
<polygon fill="#9a32cd" stroke="#9a32cd" points="14.11,-546.29 12.98,-535.76 7.29,-544.7 14.11,-546.29"/>
<text text-anchor="middle" x="25" y="-568" font-family="Helvetica,sans-Serif" font-size="10.00"> empty</text>
<text text-anchor="middle" x="25" y="-557" font-family="Helvetica,sans-Serif" font-size="10.00">newline</text>
</g>
<!-- Node12 -->
<g id="node12" class="node">
<title>Node12</title>
<g id="a_node12"><a xlink:title=" ">
<polygon fill="white" stroke="#bfbfbf" points="180,-516.5 180,-535.5 288,-535.5 288,-516.5 180,-516.5"/>
<text text-anchor="middle" x="234" y="-523.5" font-family="Helvetica,sans-Serif" font-size="10.00">std::set&lt; cstring &gt;</text>
</a>
</g>
</g>
<!-- Node4&#45;&gt;Node12 -->
<g id="edge17" class="edge">
<title>Node4&#45;&gt;Node12</title>
<path fill="none" stroke="#9a32cd" stroke-dasharray="5,2" d="M60.49,-526C92.98,-526 142.14,-526 179.68,-526"/>
<polygon fill="#9a32cd" stroke="#9a32cd" points="60.15,-522.5 50.15,-526 60.15,-529.5 60.15,-522.5"/>
<text text-anchor="middle" x="103" y="-529" font-family="Helvetica,sans-Serif" font-size="10.00"> keys</text>
</g>
<!-- Node18 -->
<g id="node18" class="node">
<title>Node18</title>
<g id="a_node18"><a xlink:title=" ">
<polygon fill="white" stroke="#bfbfbf" points="167.5,-467 167.5,-497 300.5,-497 300.5,-467 167.5,-467"/>
<text text-anchor="start" x="175.5" y="-485" font-family="Helvetica,sans-Serif" font-size="10.00">std::map&lt; const IR</text>
<text text-anchor="middle" x="234" y="-474" font-family="Helvetica,sans-Serif" font-size="10.00">::StructField *, cstring &gt;</text>
</a>
</g>
</g>
<!-- Node4&#45;&gt;Node18 -->
<g id="edge24" class="edge">
<title>Node4&#45;&gt;Node18</title>
<path fill="none" stroke="#9a32cd" stroke-dasharray="5,2" d="M59.92,-513.34C62.64,-512.49 65.35,-511.7 68,-511 100.34,-502.45 136.92,-495.73 167.4,-490.92"/>
<polygon fill="#9a32cd" stroke="#9a32cd" points="58.59,-510.09 50.21,-516.57 60.8,-516.73 58.59,-510.09"/>
<text text-anchor="middle" x="103" y="-514" font-family="Helvetica,sans-Serif" font-size="10.00"> elements</text>
</g>
<!-- Node5&#45;&gt;Node3 -->
<g id="edge5" class="edge">
<title>Node5&#45;&gt;Node3</title>
<path fill="none" stroke="#9a32cd" stroke-dasharray="5,2" d="M707.75,-578.24C677.51,-568.31 633.04,-555.34 593,-550 467.53,-533.27 315.32,-551.98 258.16,-560.36"/>
<polygon fill="#9a32cd" stroke="#9a32cd" points="706.84,-581.63 717.44,-581.48 709.06,-574.99 706.84,-581.63"/>
<text text-anchor="middle" x="524.5" y="-564" font-family="Helvetica,sans-Serif" font-size="10.00"> split_link</text>
<text text-anchor="middle" x="524.5" y="-553" font-family="Helvetica,sans-Serif" font-size="10.00">split_link_mem</text>
</g>
<!-- Node5&#45;&gt;Node5 -->
<g id="edge6" class="edge">
<title>Node5&#45;&gt;Node5</title>
<path fill="none" stroke="#9a32cd" stroke-dasharray="5,2" d="M724.63,-610.4C725.99,-615.31 732.78,-619 745,-619 764.55,-619 770.2,-609.57 761.95,-600.76"/>
<polygon fill="#9a32cd" stroke="#9a32cd" points="728.01,-611.35 728.05,-600.76 721.41,-609.01 728.01,-611.35"/>
<text text-anchor="middle" x="745" y="-622" font-family="Helvetica,sans-Serif" font-size="10.00"> prev</text>
</g>
<!-- Node6&#45;&gt;Node5 -->
<g id="edge7" class="edge">
<title>Node6&#45;&gt;Node5</title>
<path fill="none" stroke="#9a32cd" stroke-dasharray="5,2" d="M600.27,-591C629.28,-591 661.91,-591 688.73,-591"/>
<polygon fill="#9a32cd" stroke="#9a32cd" points="600.17,-587.5 590.17,-591 600.17,-594.5 600.17,-587.5"/>
<text text-anchor="middle" x="634.5" y="-594" font-family="Helvetica,sans-Serif" font-size="10.00"> visitors</text>
</g>
<!-- Node7 -->
<g id="node7" class="node">
<title>Node7</title>
<g id="a_node7"><a xlink:href="class_b_m_v2_1_1_program_structure.html" target="_top" xlink:title=" ">
<polygon fill="white" stroke="black" points="456,-289.5 456,-308.5 593,-308.5 593,-289.5 456,-289.5"/>
<text text-anchor="middle" x="524.5" y="-296.5" font-family="Helvetica,sans-Serif" font-size="10.00">BMV2::ProgramStructure</text>
</a>
</g>
</g>
<!-- Node7&#45;&gt;Node1 -->
<g id="edge11" class="edge">
<title>Node7&#45;&gt;Node1</title>
<path fill="none" stroke="#9a32cd" stroke-dasharray="5,2" d="M567.87,-311.41C609.85,-323.71 673.24,-342.27 711.42,-353.46"/>
<polygon fill="#9a32cd" stroke="#9a32cd" points="568.79,-308.03 558.21,-308.58 566.82,-314.75 568.79,-308.03"/>
<text text-anchor="middle" x="634.5" y="-339" font-family="Helvetica,sans-Serif" font-size="10.00"> structure</text>
</g>
<!-- Node8 -->
<g id="node8" class="node">
<title>Node8</title>
<g id="a_node8"><a xlink:href="classordered__map.html" target="_top" xlink:title=" ">
<polygon fill="white" stroke="black" points="160,-418 160,-448 308,-448 308,-418 160,-418"/>
<text text-anchor="start" x="168" y="-436" font-family="Helvetica,sans-Serif" font-size="10.00">ordered_map&lt; const</text>
<text text-anchor="middle" x="234" y="-425" font-family="Helvetica,sans-Serif" font-size="10.00"> IR::P4Action *, unsigned &gt;</text>
</a>
</g>
</g>
<!-- Node8&#45;&gt;Node7 -->
<g id="edge12" class="edge">
<title>Node8&#45;&gt;Node7</title>
<path fill="none" stroke="#9a32cd" stroke-dasharray="5,2" d="M318.35,-416.25C356.31,-406.57 400.93,-392.22 438,-372 469.53,-354.8 499.9,-324.62 514.5,-308.99"/>
<polygon fill="#9a32cd" stroke="#9a32cd" points="317.21,-412.92 308.34,-418.73 318.89,-419.72 317.21,-412.92"/>
<text text-anchor="middle" x="384" y="-415" font-family="Helvetica,sans-Serif" font-size="10.00"> ids</text>
</g>
<!-- Node9 -->
<g id="node9" class="node">
<title>Node9</title>
<g id="a_node9"><a xlink:href="classordered__map.html" target="_top" xlink:title=" ">
<polygon fill="white" stroke="black" points="167,-357.5 167,-398.5 301,-398.5 301,-357.5 167,-357.5"/>
<text text-anchor="start" x="175" y="-386.5" font-family="Helvetica,sans-Serif" font-size="10.00">ordered_map&lt; const</text>
<text text-anchor="start" x="175" y="-375.5" font-family="Helvetica,sans-Serif" font-size="10.00"> IR::Node *, const IR</text>
<text text-anchor="middle" x="234" y="-364.5" font-family="Helvetica,sans-Serif" font-size="10.00">::CompileTimeValue * &gt;</text>
</a>
</g>
</g>
<!-- Node9&#45;&gt;Node7 -->
<g id="edge13" class="edge">
<title>Node9&#45;&gt;Node7</title>
<path fill="none" stroke="#9a32cd" stroke-dasharray="5,2" d="M311.38,-362.13C349.67,-353.63 396.59,-342.36 438,-330 459.03,-323.72 482.43,-315.12 499.43,-308.57"/>
<polygon fill="#9a32cd" stroke="#9a32cd" points="310.35,-358.78 301.34,-364.35 311.85,-365.61 310.35,-358.78"/>
<text text-anchor="middle" x="384" y="-360" font-family="Helvetica,sans-Serif" font-size="10.00"> resourceMap</text>
</g>
<!-- Node10 -->
<g id="node10" class="node">
<title>Node10</title>
<g id="a_node10"><a xlink:title=" ">
<polygon fill="white" stroke="#bfbfbf" points="156,-308 156,-338 312,-338 312,-308 156,-308"/>
<text text-anchor="start" x="164" y="-326" font-family="Helvetica,sans-Serif" font-size="10.00">std::vector&lt; const</text>
<text text-anchor="middle" x="234" y="-315" font-family="Helvetica,sans-Serif" font-size="10.00"> IR::Declaration_Variable * &gt;</text>
</a>
</g>
</g>
<!-- Node10&#45;&gt;Node7 -->
<g id="edge14" class="edge">
<title>Node10&#45;&gt;Node7</title>
<path fill="none" stroke="#9a32cd" stroke-dasharray="5,2" d="M322.45,-315.73C365.25,-312.16 416,-307.94 455.8,-304.63"/>
<polygon fill="#9a32cd" stroke="#9a32cd" points="321.99,-312.25 312.31,-316.57 322.57,-319.23 321.99,-312.25"/>
<text text-anchor="middle" x="384" y="-318" font-family="Helvetica,sans-Serif" font-size="10.00"> variables</text>
</g>
<!-- Node11 -->
<g id="node11" class="node">
<title>Node11</title>
<g id="a_node11"><a xlink:href="classordered__set.html" target="_top" xlink:title=" ">
<polygon fill="white" stroke="black" points="178,-259 178,-289 290,-289 290,-259 178,-259"/>
<text text-anchor="start" x="186" y="-277" font-family="Helvetica,sans-Serif" font-size="10.00">ordered_set&lt; const</text>
<text text-anchor="middle" x="234" y="-266" font-family="Helvetica,sans-Serif" font-size="10.00"> IR::Parameter * &gt;</text>
</a>
</g>
</g>
<!-- Node11&#45;&gt;Node7 -->
<g id="edge15" class="edge">
<title>Node11&#45;&gt;Node7</title>
<path fill="none" stroke="#9a32cd" stroke-dasharray="5,2" d="M300.54,-279.68C346.97,-283.7 409.09,-289.09 455.96,-293.15"/>
<polygon fill="#9a32cd" stroke="#9a32cd" points="300.55,-276.17 290.28,-278.79 299.94,-283.14 300.55,-276.17"/>
<text text-anchor="middle" x="384" y="-294" font-family="Helvetica,sans-Serif" font-size="10.00"> nonActionParameters</text>
</g>
<!-- Node12&#45;&gt;Node7 -->
<g id="edge16" class="edge">
<title>Node12&#45;&gt;Node7</title>
<path fill="none" stroke="#9a32cd" stroke-dasharray="5,2" d="M297.83,-513.6C302.76,-511.7 307.54,-509.51 312,-507 321.85,-501.44 320.01,-494.31 330,-489 373.17,-466.04 398.99,-497.49 438,-468 452.23,-457.24 503.77,-343.29 519.14,-308.82"/>
<polygon fill="#9a32cd" stroke="#9a32cd" points="296.55,-510.34 288.23,-516.91 298.83,-516.96 296.55,-510.34"/>
<text text-anchor="middle" x="384" y="-492" font-family="Helvetica,sans-Serif" font-size="10.00"> match_kinds</text>
</g>
<!-- Node13 -->
<g id="node13" class="node">
<title>Node13</title>
<g id="a_node13"><a xlink:href="classordered__map.html" target="_top" xlink:title=" ">
<polygon fill="white" stroke="black" points="174.5,-198.5 174.5,-239.5 293.5,-239.5 293.5,-198.5 174.5,-198.5"/>
<text text-anchor="start" x="182.5" y="-227.5" font-family="Helvetica,sans-Serif" font-size="10.00">ordered_map&lt; const</text>
<text text-anchor="start" x="182.5" y="-216.5" font-family="Helvetica,sans-Serif" font-size="10.00"> IR::P4Action *, const</text>
<text text-anchor="middle" x="234" y="-205.5" font-family="Helvetica,sans-Serif" font-size="10.00"> IR::P4Control * &gt;</text>
</a>
</g>
</g>
<!-- Node13&#45;&gt;Node7 -->
<g id="edge18" class="edge">
<title>Node13&#45;&gt;Node7</title>
<path fill="none" stroke="#9a32cd" stroke-dasharray="5,2" d="M303.47,-233.54C343.07,-242.44 393.67,-254.66 438,-268 459.02,-274.33 482.42,-282.92 499.42,-289.46"/>
<polygon fill="#9a32cd" stroke="#9a32cd" points="304.17,-230.11 293.65,-231.35 302.65,-236.94 304.17,-230.11"/>
<text text-anchor="middle" x="384" y="-271" font-family="Helvetica,sans-Serif" font-size="10.00"> actions</text>
</g>
<!-- Node14 -->
<g id="node14" class="node">
<title>Node14</title>
<g id="a_node14"><a xlink:href="classordered__map.html" target="_top" xlink:title=" ">
<polygon fill="white" stroke="black" points="170,-149 170,-179 298,-179 298,-149 170,-149"/>
<text text-anchor="start" x="178" y="-167" font-family="Helvetica,sans-Serif" font-size="10.00">ordered_map&lt; cstring,</text>
<text text-anchor="middle" x="234" y="-156" font-family="Helvetica,sans-Serif" font-size="10.00"> const IR::P4Table * &gt;</text>
</a>
</g>
</g>
<!-- Node14&#45;&gt;Node7 -->
<g id="edge19" class="edge">
<title>Node14&#45;&gt;Node7</title>
<path fill="none" stroke="#9a32cd" stroke-dasharray="5,2" d="M307.98,-178.6C347.97,-188.46 397.49,-203.79 438,-226 469.49,-243.27 499.88,-273.42 514.49,-289.02"/>
<polygon fill="#9a32cd" stroke="#9a32cd" points="308.57,-175.15 298.03,-176.21 306.94,-181.95 308.57,-175.15"/>
<text text-anchor="middle" x="384" y="-229" font-family="Helvetica,sans-Serif" font-size="10.00"> directCounterMap</text>
</g>
<!-- Node15 -->
<g id="node15" class="node">
<title>Node15</title>
<g id="a_node15"><a xlink:href="classordered__map.html" target="_top" xlink:title=" ">
<polygon fill="white" stroke="black" points="174.5,-88.5 174.5,-129.5 293.5,-129.5 293.5,-88.5 174.5,-88.5"/>
<text text-anchor="start" x="182.5" y="-117.5" font-family="Helvetica,sans-Serif" font-size="10.00">ordered_map&lt; const</text>
<text text-anchor="start" x="182.5" y="-106.5" font-family="Helvetica,sans-Serif" font-size="10.00"> IR::IDeclaration *,</text>
<text text-anchor="middle" x="234" y="-95.5" font-family="Helvetica,sans-Serif" font-size="10.00"> unsigned int &gt;</text>
</a>
</g>
</g>
<!-- Node15&#45;&gt;Node7 -->
<g id="edge20" class="edge">
<title>Node15&#45;&gt;Node7</title>
<path fill="none" stroke="#9a32cd" stroke-dasharray="5,2" d="M303.48,-117.53C345.57,-125.53 398.75,-140.86 438,-170 482.01,-202.68 510.17,-265.19 519.8,-289.24"/>
<polygon fill="#9a32cd" stroke="#9a32cd" points="304.05,-114.08 293.59,-115.75 302.81,-120.97 304.05,-114.08"/>
<text text-anchor="middle" x="384" y="-173" font-family="Helvetica,sans-Serif" font-size="10.00"> errorCodesMap</text>
</g>
<!-- Node16 -->
<g id="node16" class="node">
<title>Node16</title>
<g id="a_node16"><a xlink:href="classordered__map.html" target="_top" xlink:title=" ">
<polygon fill="white" stroke="black" points="156.5,-39 156.5,-69 311.5,-69 311.5,-39 156.5,-39"/>
<text text-anchor="start" x="164.5" y="-57" font-family="Helvetica,sans-Serif" font-size="10.00">ordered_map&lt; const</text>
<text text-anchor="middle" x="234" y="-46" font-family="Helvetica,sans-Serif" font-size="10.00"> IR::Parameter *, unsigned &gt;</text>
</a>
</g>
</g>
<!-- Node16&#45;&gt;Node7 -->
<g id="edge21" class="edge">
<title>Node16&#45;&gt;Node7</title>
<path fill="none" stroke="#9a32cd" stroke-dasharray="5,2" d="M321.66,-61.17C360.95,-68.31 405.73,-82.4 438,-110 496.57,-160.09 516.96,-258.51 522.08,-289.45"/>
<polygon fill="#9a32cd" stroke="#9a32cd" points="322.24,-57.71 311.8,-59.49 321.07,-64.62 322.24,-57.71"/>
<text text-anchor="middle" x="384" y="-113" font-family="Helvetica,sans-Serif" font-size="10.00"> index</text>
</g>
<!-- Node17 -->
<g id="node17" class="node">
<title>Node17</title>
<g id="a_node17"><a xlink:href="class_b_m_v2_1_1_direct_meter_map.html" target="_top" xlink:title=" ">
<polygon fill="white" stroke="black" points="169,-0.5 169,-19.5 299,-19.5 299,-0.5 169,-0.5"/>
<text text-anchor="middle" x="234" y="-7.5" font-family="Helvetica,sans-Serif" font-size="10.00">BMV2::DirectMeterMap</text>
</a>
</g>
</g>
<!-- Node17&#45;&gt;Node7 -->
<g id="edge22" class="edge">
<title>Node17&#45;&gt;Node7</title>
<path fill="none" stroke="#9a32cd" stroke-dasharray="5,2" d="M309.62,-6.43C351.86,-8.32 403.07,-17.75 438,-48 514.56,-114.31 522.68,-252.02 523.44,-289.44"/>
<polygon fill="#9a32cd" stroke="#9a32cd" points="309.47,-2.92 299.37,-6.1 309.25,-9.92 309.47,-2.92"/>
<text text-anchor="middle" x="384" y="-51" font-family="Helvetica,sans-Serif" font-size="10.00"> directMeterMap</text>
</g>
<!-- Node18&#45;&gt;Node7 -->
<g id="edge23" class="edge">
<title>Node18&#45;&gt;Node7</title>
<path fill="none" stroke="#9a32cd" stroke-dasharray="5,2" d="M301.5,-464.27C360.14,-448.6 436.54,-428.05 438,-427 482.27,-395.18 510.28,-332.79 519.83,-308.76"/>
<polygon fill="#9a32cd" stroke="#9a32cd" points="300.28,-460.98 291.52,-466.94 302.09,-467.74 300.28,-460.98"/>
<text text-anchor="middle" x="384" y="-458" font-family="Helvetica,sans-Serif" font-size="10.00"> scalarMetadataFields</text>
</g>
</g>
</svg>
        <g id="navigator" transform="translate(0 0)" fill="#404254">
                <rect fill="#f2f5e9" fill-opacity="0.5" stroke="#606060" stroke-width=".5" x="0" y="0" width="60" height="60"/>
                <use id="zoomplus" xlink:href="#zoomPlus" x="17" y="9" onmousedown="handleZoom(evt,'in')"/>
                <use id="zoomminus" xlink:href="#zoomMin" x="42" y="9" onmousedown="handleZoom(evt,'out')"/>
                <use id="reset" xlink:href="#resetDef" x="30" y="36" onmousedown="handleReset()"/>
                <g id="arrowUp" xlink:href="#dirArrow" transform="translate(30 24)" onmousedown="handlePan(0,-1)">
                  <use xlink:href="#rim" fill="#404040">
                        <set attributeName="fill" to="#808080" begin="arrowUp.mouseover" end="arrowUp.mouseout"/>
                  </use>
                  <path fill="none" stroke="white" stroke-width="1.5" d="M0,-3.0v7 M-2.5,-0.5L0,-3.0L2.5,-0.5"/>
                </g>
                <g id="arrowRight" xlink:href="#dirArrow" transform="rotate(90) translate(36 -43)" onmousedown="handlePan(1,0)">
                  <use xlink:href="#rim" fill="#404040">
                        <set attributeName="fill" to="#808080" begin="arrowRight.mouseover" end="arrowRight.mouseout"/>
                  </use>
                  <path fill="none" stroke="white" stroke-width="1.5" d="M0,-3.0v7 M-2.5,-0.5L0,-3.0L2.5,-0.5"/>
                </g>
                <g id="arrowDown" xlink:href="#dirArrow" transform="rotate(180) translate(-30 -48)" onmousedown="handlePan(0,1)">
                  <use xlink:href="#rim" fill="#404040">
                        <set attributeName="fill" to="#808080" begin="arrowDown.mouseover" end="arrowDown.mouseout"/>
                  </use>
                  <path fill="none" stroke="white" stroke-width="1.5" d="M0,-3.0v7 M-2.5,-0.5L0,-3.0L2.5,-0.5"/>
                </g>
                <g id="arrowLeft" xlink:href="#dirArrow" transform="rotate(270) translate(-36 17)" onmousedown="handlePan(-1,0)">
                  <use xlink:href="#rim" fill="#404040">
                        <set attributeName="fill" to="#808080" begin="arrowLeft.mouseover" end="arrowLeft.mouseout"/>
                  </use>
                  <path fill="none" stroke="white" stroke-width="1.5" d="M0,-3.0v7 M-2.5,-0.5L0,-3.0L2.5,-0.5"/>
                </g>
        </g>
        <svg viewBox="0 0 15 15" width="100%" height="30px" preserveAspectRatio="xMaxYMin meet">
         <g id="arrow_out" transform="scale(0.3 0.3)">
          <a xlink:href="class_b_m_v2_1_1_discover_structure__coll__graph_org.svg" target="_base">
           <rect id="button" ry="5" rx="5" y="6" x="6" height="38" width="38"
                fill="#f2f5e9" fill-opacity="0.5" stroke="#606060" stroke-width="1.0"/>
           <path id="arrow"
             d="M 11.500037,31.436501 C 11.940474,20.09759 22.043105,11.32322 32.158766,21.979434 L 37.068811,17.246167 C 37.068811,17.246167 37.088388,32 37.088388,32 L 22.160133,31.978069 C 22.160133,31.978069 26.997745,27.140456 26.997745,27.140456 C 18.528582,18.264221 13.291696,25.230495 11.500037,31.436501 z"
             style="fill:#404040;"/>
          </a>
         </g>
        </svg>
</svg>
