<?xml version="1.0" encoding="UTF-8" standalone="no"?>
<!DOCTYPE svg PUBLIC "-//W3C//DTD SVG 1.1//EN"
 "http://www.w3.org/Graphics/SVG/1.1/DTD/svg11.dtd">
<!-- Generated by graphviz version 2.43.0 (0)
 -->
<!-- Title: DPDK::RemoveLabelAfterLabel Pages: 1 -->
<svg width="409pt" height="233pt"
 viewBox="0.00 0.00 408.50 233.00" xmlns="http://www.w3.org/2000/svg" xmlns:xlink="http://www.w3.org/1999/xlink">
<g id="graph0" class="graph" transform="scale(1 1) rotate(0) translate(4 229)">
<title>DPDK::RemoveLabelAfterLabel</title>
<polygon fill="white" stroke="transparent" points="-4,4 -4,-229 404.5,-229 404.5,4 -4,4"/>
<!-- Node1 -->
<g id="node1" class="node">
<title>Node1</title>
<g id="a_node1"><a xlink:title=" ">
<polygon fill="#bfbfbf" stroke="black" points="0,-0.5 0,-19.5 167,-19.5 167,-0.5 0,-0.5"/>
<text text-anchor="middle" x="83.5" y="-7.5" font-family="Helvetica,sans-Serif" font-size="10.00">DPDK::RemoveLabelAfterLabel</text>
</a>
</g>
</g>
<!-- Node2 -->
<g id="node2" class="node">
<title>Node2</title>
<g id="a_node2"><a xlink:href="class_transform.html" target="_top" xlink:title=" ">
<polygon fill="white" stroke="black" points="51,-68.5 51,-87.5 116,-87.5 116,-68.5 51,-68.5"/>
<text text-anchor="middle" x="83.5" y="-75.5" font-family="Helvetica,sans-Serif" font-size="10.00">Transform</text>
</a>
</g>
</g>
<!-- Node2&#45;&gt;Node1 -->
<g id="edge1" class="edge">
<title>Node2&#45;&gt;Node1</title>
<path fill="none" stroke="midnightblue" d="M83.5,-58.04C83.5,-45.47 83.5,-29.56 83.5,-19.84"/>
<polygon fill="midnightblue" stroke="midnightblue" points="80,-58.37 83.5,-68.37 87,-58.37 80,-58.37"/>
</g>
<!-- Node3 -->
<g id="node3" class="node">
<title>Node3</title>
<g id="a_node3"><a xlink:href="class_visitor.html" target="_top" xlink:title=" ">
<polygon fill="white" stroke="black" points="160.5,-136.5 160.5,-155.5 208.5,-155.5 208.5,-136.5 160.5,-136.5"/>
<text text-anchor="middle" x="184.5" y="-143.5" font-family="Helvetica,sans-Serif" font-size="10.00">Visitor</text>
</a>
</g>
</g>
<!-- Node3&#45;&gt;Node2 -->
<g id="edge2" class="edge">
<title>Node3&#45;&gt;Node2</title>
<path fill="none" stroke="midnightblue" d="M159.91,-131.09C152.92,-127 145.34,-122.42 138.5,-118 123.16,-108.09 106.09,-95.77 95.1,-87.67"/>
<polygon fill="midnightblue" stroke="midnightblue" points="158.56,-134.35 168.97,-136.33 162.06,-128.29 158.56,-134.35"/>
</g>
<!-- Node3&#45;&gt;Node3 -->
<g id="edge10" class="edge">
<title>Node3&#45;&gt;Node3</title>
<path fill="none" stroke="#9a32cd" stroke-dasharray="5,2" d="M218.92,-151.29C223.48,-150.39 226.5,-148.63 226.5,-146 226.5,-141.69 218.36,-139.7 208.67,-140.04"/>
<polygon fill="#9a32cd" stroke="#9a32cd" points="218.42,-147.82 208.67,-151.96 218.88,-154.8 218.42,-147.82"/>
<text text-anchor="middle" x="251.5" y="-143.5" font-family="Helvetica,sans-Serif" font-size="10.00"> called_by</text>
</g>
<!-- Node5 -->
<g id="node5" class="node">
<title>Node5</title>
<g id="a_node5"><a xlink:href="class_split_flow_visit__base.html" target="_top" xlink:title=" ">
<polygon fill="white" stroke="black" points="190.5,-0.5 190.5,-19.5 302.5,-19.5 302.5,-0.5 190.5,-0.5"/>
<text text-anchor="middle" x="246.5" y="-7.5" font-family="Helvetica,sans-Serif" font-size="10.00">SplitFlowVisit_base</text>
</a>
</g>
</g>
<!-- Node3&#45;&gt;Node5 -->
<g id="edge9" class="edge">
<title>Node3&#45;&gt;Node5</title>
<path fill="none" stroke="#9a32cd" stroke-dasharray="5,2" d="M172.16,-127.83C162.04,-111.48 150.98,-86.53 161.5,-67 174.24,-43.35 201.82,-28.04 222.12,-19.51"/>
<polygon fill="#9a32cd" stroke="#9a32cd" points="169.38,-129.97 177.83,-136.36 175.2,-126.1 169.38,-129.97"/>
<text text-anchor="middle" x="166.5" y="-75.5" font-family="Helvetica,sans-Serif" font-size="10.00"> v</text>
</g>
<!-- Node6 -->
<g id="node6" class="node">
<title>Node6</title>
<g id="a_node6"><a xlink:title=" ">
<polygon fill="white" stroke="#bfbfbf" points="181,-68.5 181,-87.5 312,-87.5 312,-68.5 181,-68.5"/>
<text text-anchor="middle" x="246.5" y="-75.5" font-family="Helvetica,sans-Serif" font-size="10.00">std::vector&lt; Visitor * &gt;</text>
</a>
</g>
</g>
<!-- Node3&#45;&gt;Node6 -->
<g id="edge8" class="edge">
<title>Node3&#45;&gt;Node6</title>
<path fill="none" stroke="#9a32cd" stroke-dasharray="5,2" d="M199.49,-129.05C211.64,-116.11 228.32,-98.36 238.19,-87.84"/>
<polygon fill="#9a32cd" stroke="#9a32cd" points="196.9,-126.69 192.61,-136.37 202,-131.48 196.9,-126.69"/>
<text text-anchor="middle" x="244" y="-110" font-family="Helvetica,sans-Serif" font-size="10.00"> elements</text>
</g>
<!-- Node4 -->
<g id="node4" class="node">
<title>Node4</title>
<g id="a_node4"><a xlink:href="classcstring.html" target="_top" xlink:title=" ">
<polygon fill="white" stroke="black" points="159.5,-204.5 159.5,-223.5 209.5,-223.5 209.5,-204.5 159.5,-204.5"/>
<text text-anchor="middle" x="184.5" y="-211.5" font-family="Helvetica,sans-Serif" font-size="10.00">cstring</text>
</a>
</g>
</g>
<!-- Node4&#45;&gt;Node3 -->
<g id="edge3" class="edge">
<title>Node4&#45;&gt;Node3</title>
<path fill="none" stroke="#9a32cd" stroke-dasharray="5,2" d="M184.5,-194.04C184.5,-181.47 184.5,-165.56 184.5,-155.84"/>
<polygon fill="#9a32cd" stroke="#9a32cd" points="181,-194.37 184.5,-204.37 188,-194.37 181,-194.37"/>
<text text-anchor="middle" x="219.5" y="-177" font-family="Helvetica,sans-Serif" font-size="10.00"> internalName</text>
</g>
<!-- Node4&#45;&gt;Node4 -->
<g id="edge4" class="edge">
<title>Node4&#45;&gt;Node4</title>
<path fill="none" stroke="#9a32cd" stroke-dasharray="5,2" d="M219.95,-219.58C224.5,-218.61 227.5,-216.75 227.5,-214 227.5,-209.48 219.41,-207.37 209.68,-207.65"/>
<polygon fill="#9a32cd" stroke="#9a32cd" points="219.39,-216.11 209.68,-220.35 219.91,-223.1 219.39,-216.11"/>
<text text-anchor="middle" x="247" y="-217" font-family="Helvetica,sans-Serif" font-size="10.00"> empty</text>
<text text-anchor="middle" x="247" y="-206" font-family="Helvetica,sans-Serif" font-size="10.00">newline</text>
</g>
<!-- Node5&#45;&gt;Node3 -->
<g id="edge5" class="edge">
<title>Node5&#45;&gt;Node3</title>
<path fill="none" stroke="#9a32cd" stroke-dasharray="5,2" d="M275.55,-24.16C302.57,-38.38 336.57,-62.58 321.5,-89 298.85,-128.73 241.46,-140.29 208.6,-143.64"/>
<polygon fill="#9a32cd" stroke="#9a32cd" points="276.88,-20.91 266.38,-19.56 273.75,-27.17 276.88,-20.91"/>
<text text-anchor="middle" x="362.5" y="-81" font-family="Helvetica,sans-Serif" font-size="10.00"> split_link</text>
<text text-anchor="middle" x="362.5" y="-70" font-family="Helvetica,sans-Serif" font-size="10.00">split_link_mem</text>
</g>
<!-- Node5&#45;&gt;Node5 -->
<g id="edge6" class="edge">
<title>Node5&#45;&gt;Node5</title>
<path fill="none" stroke="#9a32cd" stroke-dasharray="5,2" d="M312.9,-14.4C317.62,-13.4 320.5,-11.93 320.5,-10 320.5,-6.91 313.12,-5.01 302.65,-4.31"/>
<polygon fill="#9a32cd" stroke="#9a32cd" points="312.13,-10.97 302.65,-15.69 313.01,-17.91 312.13,-10.97"/>
<text text-anchor="middle" x="333" y="-7.5" font-family="Helvetica,sans-Serif" font-size="10.00"> prev</text>
</g>
<!-- Node6&#45;&gt;Node5 -->
<g id="edge7" class="edge">
<title>Node6&#45;&gt;Node5</title>
<path fill="none" stroke="#9a32cd" stroke-dasharray="5,2" d="M246.5,-58.04C246.5,-45.47 246.5,-29.56 246.5,-19.84"/>
<polygon fill="#9a32cd" stroke="#9a32cd" points="243,-58.37 246.5,-68.37 250,-58.37 243,-58.37"/>
<text text-anchor="middle" x="266.5" y="-41" font-family="Helvetica,sans-Serif" font-size="10.00"> visitors</text>
</g>
</g>
</svg>
