<?xml version="1.0" encoding="UTF-8" standalone="no"?>
<!DOCTYPE svg PUBLIC "-//W3C//DTD SVG 1.1//EN"
 "http://www.w3.org/Graphics/SVG/1.1/DTD/svg11.dtd">
<!-- Generated by graphviz version 2.43.0 (0)
 -->
<!-- Title: Util::JsonValue Pages: 1 -->
<svg width="135pt" height="199pt"
 viewBox="0.00 0.00 135.00 199.00" xmlns="http://www.w3.org/2000/svg" xmlns:xlink="http://www.w3.org/1999/xlink">
<g id="graph0" class="graph" transform="scale(1 1) rotate(0) translate(4 195)">
<title>Util::JsonValue</title>
<polygon fill="white" stroke="transparent" points="-4,4 -4,-195 131,-195 131,4 -4,4"/>
<!-- Node1 -->
<g id="node1" class="node">
<title>Node1</title>
<g id="a_node1"><a xlink:title=" ">
<polygon fill="#bfbfbf" stroke="black" points="0,-0.5 0,-19.5 87,-19.5 87,-0.5 0,-0.5"/>
<text text-anchor="middle" x="43.5" y="-7.5" font-family="Helvetica,sans-Serif" font-size="10.00">Util::JsonValue</text>
</a>
</g>
</g>
<!-- Node1&#45;&gt;Node1 -->
<g id="edge4" class="edge">
<title>Node1&#45;&gt;Node1</title>
<path fill="none" stroke="#9a32cd" stroke-dasharray="5,2" d="M97.32,-14.13C102.04,-13.25 105,-11.88 105,-10 105,-6.99 97.43,-5.28 87.17,-4.85"/>
<polygon fill="#9a32cd" stroke="#9a32cd" points="96.77,-10.66 87.17,-15.15 97.47,-17.63 96.77,-10.66"/>
<text text-anchor="middle" x="116" y="-7.5" font-family="Helvetica,sans-Serif" font-size="10.00"> null</text>
</g>
<!-- Node2 -->
<g id="node2" class="node">
<title>Node2</title>
<g id="a_node2"><a xlink:href="class_util_1_1_i_json.html" target="_top" xlink:title=" ">
<polygon fill="white" stroke="black" points="12,-57.5 12,-76.5 75,-76.5 75,-57.5 12,-57.5"/>
<text text-anchor="middle" x="43.5" y="-64.5" font-family="Helvetica,sans-Serif" font-size="10.00">Util::IJson</text>
</a>
</g>
</g>
<!-- Node2&#45;&gt;Node1 -->
<g id="edge1" class="edge">
<title>Node2&#45;&gt;Node1</title>
<path fill="none" stroke="midnightblue" d="M43.5,-47.12C43.5,-37.82 43.5,-27.06 43.5,-19.71"/>
<polygon fill="midnightblue" stroke="midnightblue" points="40,-47.41 43.5,-57.41 47,-47.41 40,-47.41"/>
</g>
<!-- Node3 -->
<g id="node3" class="node">
<title>Node3</title>
<g id="a_node3"><a xlink:href="class_i_castable.html" target="_top" xlink:title=" ">
<polygon fill="white" stroke="black" points="12.5,-114.5 12.5,-133.5 74.5,-133.5 74.5,-114.5 12.5,-114.5"/>
<text text-anchor="middle" x="43.5" y="-121.5" font-family="Helvetica,sans-Serif" font-size="10.00">ICastable</text>
</a>
</g>
</g>
<!-- Node3&#45;&gt;Node2 -->
<g id="edge2" class="edge">
<title>Node3&#45;&gt;Node2</title>
<path fill="none" stroke="midnightblue" d="M43.5,-104.12C43.5,-94.82 43.5,-84.06 43.5,-76.71"/>
<polygon fill="midnightblue" stroke="midnightblue" points="40,-104.41 43.5,-114.41 47,-104.41 40,-104.41"/>
</g>
<!-- Node4 -->
<g id="node4" class="node">
<title>Node4</title>
<g id="a_node4"><a xlink:href="struct_r_t_t_i_1_1_base.html" target="_top" xlink:title=" ">
<polygon fill="white" stroke="black" points="9.5,-171.5 9.5,-190.5 77.5,-190.5 77.5,-171.5 9.5,-171.5"/>
<text text-anchor="middle" x="43.5" y="-178.5" font-family="Helvetica,sans-Serif" font-size="10.00">RTTI::Base</text>
</a>
</g>
</g>
<!-- Node4&#45;&gt;Node3 -->
<g id="edge3" class="edge">
<title>Node4&#45;&gt;Node3</title>
<path fill="none" stroke="midnightblue" d="M43.5,-161.12C43.5,-151.82 43.5,-141.06 43.5,-133.71"/>
<polygon fill="midnightblue" stroke="midnightblue" points="40,-161.41 43.5,-171.41 47,-161.41 40,-161.41"/>
</g>
</g>
</svg>
