<?xml version="1.0" encoding="UTF-8" standalone="no"?>
<!DOCTYPE svg PUBLIC "-//W3C//DTD SVG 1.1//EN"
 "http://www.w3.org/Graphics/SVG/1.1/DTD/svg11.dtd">
<!-- Generated by graphviz version 2.43.0 (0)
 -->
<!-- Title: P4::SpecializeAll Pages: 1 -->
<!--zoomable 347 -->
<svg id="main" version="1.1" xmlns="http://www.w3.org/2000/svg" xmlns:xlink="http://www.w3.org/1999/xlink" xml:space="preserve" onload="init(evt)">
<style type="text/css"><![CDATA[
.edge:hover path { stroke: red; }
.edge:hover polygon { stroke: red; fill: red; }
]]></style>
<script type="text/javascript"><![CDATA[
var edges = document.getElementsByTagName('g');
if (edges && edges.length) {
  for (var i=0;i<edges.length;i++) {
    if (edges[i].id.substr(0,4)=='edge') {
      edges[i].setAttribute('class','edge');
    }
  }
}
]]></script>
        <defs>
                <circle id="rim" cx="0" cy="0" r="7"/>
                <circle id="rim2" cx="0" cy="0" r="3.5"/>
                <g id="zoomPlus">
                        <use xlink:href="#rim" fill="#404040">
                                <set attributeName="fill" to="#808080" begin="zoomplus.mouseover" end="zoomplus.mouseout"/>
                        </use>
                        <path d="M-4,0h8M0,-4v8" fill="none" stroke="white" stroke-width="1.5" pointer-events="none"/>
                </g>
                <g id="zoomMin">
                        <use xlink:href="#rim" fill="#404040">
                                <set attributeName="fill" to="#808080" begin="zoomminus.mouseover" end="zoomminus.mouseout"/>
                        </use>
                        <path d="M-4,0h8" fill="none" stroke="white" stroke-width="1.5" pointer-events="none"/>
                </g>
                <g id="dirArrow">
                        <path fill="none" stroke="white" stroke-width="1.5" d="M0,-3.0v7 M-2.5,-0.5L0,-3.0L2.5,-0.5"/>
                </g>
               <g id="resetDef">
                       <use xlink:href="#rim2" fill="#404040">
                               <set attributeName="fill" to="#808080" begin="reset.mouseover" end="reset.mouseout"/>
                       </use>
               </g>
        </defs>

<script type="text/javascript">
var viewWidth = 737;
var viewHeight = 347;
var sectionId = 'dynsection-1';
</script>
<script xlink:href="svgpan.js"/>
<svg id="graph" class="graph">
<g id="viewport">
<title>P4::SpecializeAll</title>
<polygon fill="white" stroke="transparent" points="-4,4 -4,-343 733,-343 733,4 -4,4"/>
<!-- Node1 -->
<g id="node1" class="node">
<title>Node1</title>
<g id="a_node1"><a xlink:title="Specializes each Parser and Control by substituting type arguments and constructor parameters.">
<polygon fill="#bfbfbf" stroke="black" points="360.5,-0.5 360.5,-19.5 457.5,-19.5 457.5,-0.5 360.5,-0.5"/>
<text text-anchor="middle" x="409" y="-7.5" font-family="Helvetica,sans-Serif" font-size="10.00">P4::SpecializeAll</text>
</a>
</g>
</g>
<!-- Node2 -->
<g id="node2" class="node">
<title>Node2</title>
<g id="a_node2"><a xlink:href="class_pass_repeated.html" target="_top" xlink:title=" ">
<polygon fill="white" stroke="black" points="366.5,-57.5 366.5,-76.5 451.5,-76.5 451.5,-57.5 366.5,-57.5"/>
<text text-anchor="middle" x="409" y="-64.5" font-family="Helvetica,sans-Serif" font-size="10.00">PassRepeated</text>
</a>
</g>
</g>
<!-- Node2&#45;&gt;Node1 -->
<g id="edge1" class="edge">
<title>Node2&#45;&gt;Node1</title>
<path fill="none" stroke="midnightblue" d="M409,-47.12C409,-37.82 409,-27.06 409,-19.71"/>
<polygon fill="midnightblue" stroke="midnightblue" points="405.5,-47.41 409,-57.41 412.5,-47.41 405.5,-47.41"/>
</g>
<!-- Node3 -->
<g id="node3" class="node">
<title>Node3</title>
<g id="a_node3"><a xlink:href="class_pass_manager.html" target="_top" xlink:title=" ">
<polygon fill="white" stroke="black" points="368.5,-114.5 368.5,-133.5 449.5,-133.5 449.5,-114.5 368.5,-114.5"/>
<text text-anchor="middle" x="409" y="-121.5" font-family="Helvetica,sans-Serif" font-size="10.00">PassManager</text>
</a>
</g>
</g>
<!-- Node3&#45;&gt;Node2 -->
<g id="edge2" class="edge">
<title>Node3&#45;&gt;Node2</title>
<path fill="none" stroke="midnightblue" d="M409,-104.12C409,-94.82 409,-84.06 409,-76.71"/>
<polygon fill="midnightblue" stroke="midnightblue" points="405.5,-104.41 409,-114.41 412.5,-104.41 405.5,-104.41"/>
</g>
<!-- Node4 -->
<g id="node4" class="node">
<title>Node4</title>
<g id="a_node4"><a xlink:href="class_visitor.html" target="_top" xlink:title=" ">
<polygon fill="white" stroke="black" points="192,-250.5 192,-269.5 240,-269.5 240,-250.5 192,-250.5"/>
<text text-anchor="middle" x="216" y="-257.5" font-family="Helvetica,sans-Serif" font-size="10.00">Visitor</text>
</a>
</g>
</g>
<!-- Node4&#45;&gt;Node3 -->
<g id="edge3" class="edge">
<title>Node4&#45;&gt;Node3</title>
<path fill="none" stroke="midnightblue" d="M250.41,-254.62C285.19,-248.55 338.56,-234.52 373,-203 394.13,-183.67 403.81,-149.46 407.34,-133.56"/>
<polygon fill="midnightblue" stroke="midnightblue" points="249.57,-251.21 240.26,-256.26 250.69,-258.12 249.57,-251.21"/>
</g>
<!-- Node4&#45;&gt;Node4 -->
<g id="edge11" class="edge">
<title>Node4&#45;&gt;Node4</title>
<path fill="none" stroke="#9a32cd" stroke-dasharray="5,2" d="M250.42,-265.29C254.98,-264.39 258,-262.63 258,-260 258,-255.69 249.86,-253.7 240.17,-254.04"/>
<polygon fill="#9a32cd" stroke="#9a32cd" points="249.92,-261.82 240.17,-265.96 250.38,-268.8 249.92,-261.82"/>
<text text-anchor="middle" x="283" y="-257.5" font-family="Helvetica,sans-Serif" font-size="10.00"> called_by</text>
</g>
<!-- Node6 -->
<g id="node6" class="node">
<title>Node6</title>
<g id="a_node6"><a xlink:href="class_split_flow_visit__base.html" target="_top" xlink:title=" ">
<polygon fill="white" stroke="black" points="0,-114.5 0,-133.5 112,-133.5 112,-114.5 0,-114.5"/>
<text text-anchor="middle" x="56" y="-121.5" font-family="Helvetica,sans-Serif" font-size="10.00">SplitFlowVisit_base</text>
</a>
</g>
</g>
<!-- Node4&#45;&gt;Node6 -->
<g id="edge10" class="edge">
<title>Node4&#45;&gt;Node6</title>
<path fill="none" stroke="#9a32cd" stroke-dasharray="5,2" d="M181.7,-256.52C153.38,-253.48 112.69,-246.75 80,-232 60.64,-223.26 51.42,-222.04 42,-203 30.53,-179.82 43.46,-148.62 51.13,-133.68"/>
<polygon fill="#9a32cd" stroke="#9a32cd" points="181.61,-260.03 191.9,-257.52 182.29,-253.06 181.61,-260.03"/>
<text text-anchor="middle" x="47" y="-189.5" font-family="Helvetica,sans-Serif" font-size="10.00"> v</text>
</g>
<!-- Node7 -->
<g id="node7" class="node">
<title>Node7</title>
<g id="a_node7"><a xlink:title=" ">
<polygon fill="white" stroke="#bfbfbf" points="150.5,-182.5 150.5,-201.5 281.5,-201.5 281.5,-182.5 150.5,-182.5"/>
<text text-anchor="middle" x="216" y="-189.5" font-family="Helvetica,sans-Serif" font-size="10.00">std::vector&lt; Visitor * &gt;</text>
</a>
</g>
</g>
<!-- Node4&#45;&gt;Node7 -->
<g id="edge9" class="edge">
<title>Node4&#45;&gt;Node7</title>
<path fill="none" stroke="#9a32cd" stroke-dasharray="5,2" d="M216,-240.04C216,-227.47 216,-211.56 216,-201.84"/>
<polygon fill="#9a32cd" stroke="#9a32cd" points="212.5,-240.37 216,-250.37 219.5,-240.37 212.5,-240.37"/>
<text text-anchor="middle" x="240.5" y="-224" font-family="Helvetica,sans-Serif" font-size="10.00"> elements</text>
</g>
<!-- Node8 -->
<g id="node8" class="node">
<title>Node8</title>
<g id="a_node8"><a xlink:href="class_backtrack.html" target="_top" xlink:title=" ">
<polygon fill="white" stroke="black" points="299.5,-182.5 299.5,-201.5 364.5,-201.5 364.5,-182.5 299.5,-182.5"/>
<text text-anchor="middle" x="332" y="-189.5" font-family="Helvetica,sans-Serif" font-size="10.00">Backtrack</text>
</a>
</g>
</g>
<!-- Node4&#45;&gt;Node8 -->
<g id="edge13" class="edge">
<title>Node4&#45;&gt;Node8</title>
<path fill="none" stroke="midnightblue" d="M242.92,-245.83C251.35,-241.56 260.63,-236.71 269,-232 286.49,-222.16 306.06,-209.83 318.68,-201.7"/>
<polygon fill="midnightblue" stroke="midnightblue" points="241.24,-242.76 233.86,-250.36 244.37,-249.02 241.24,-242.76"/>
</g>
<!-- Node5 -->
<g id="node5" class="node">
<title>Node5</title>
<g id="a_node5"><a xlink:href="classcstring.html" target="_top" xlink:title=" ">
<polygon fill="white" stroke="black" points="191,-318.5 191,-337.5 241,-337.5 241,-318.5 191,-318.5"/>
<text text-anchor="middle" x="216" y="-325.5" font-family="Helvetica,sans-Serif" font-size="10.00">cstring</text>
</a>
</g>
</g>
<!-- Node5&#45;&gt;Node4 -->
<g id="edge4" class="edge">
<title>Node5&#45;&gt;Node4</title>
<path fill="none" stroke="#9a32cd" stroke-dasharray="5,2" d="M216,-308.04C216,-295.47 216,-279.56 216,-269.84"/>
<polygon fill="#9a32cd" stroke="#9a32cd" points="212.5,-308.37 216,-318.37 219.5,-308.37 212.5,-308.37"/>
<text text-anchor="middle" x="251" y="-291" font-family="Helvetica,sans-Serif" font-size="10.00"> internalName</text>
</g>
<!-- Node5&#45;&gt;Node5 -->
<g id="edge5" class="edge">
<title>Node5&#45;&gt;Node5</title>
<path fill="none" stroke="#9a32cd" stroke-dasharray="5,2" d="M251.45,-333.58C256,-332.61 259,-330.75 259,-328 259,-323.48 250.91,-321.37 241.18,-321.65"/>
<polygon fill="#9a32cd" stroke="#9a32cd" points="250.89,-330.11 241.18,-334.35 251.41,-337.1 250.89,-330.11"/>
<text text-anchor="middle" x="278.5" y="-331" font-family="Helvetica,sans-Serif" font-size="10.00"> empty</text>
<text text-anchor="middle" x="278.5" y="-320" font-family="Helvetica,sans-Serif" font-size="10.00">newline</text>
</g>
<!-- Node6&#45;&gt;Node4 -->
<g id="edge6" class="edge">
<title>Node6&#45;&gt;Node4</title>
<path fill="none" stroke="#9a32cd" stroke-dasharray="5,2" d="M53.06,-143.52C51.4,-160.74 51.82,-186.2 65,-203 95.98,-242.49 157.75,-254.13 191.91,-257.56"/>
<polygon fill="#9a32cd" stroke="#9a32cd" points="56.54,-143.93 54.34,-133.57 49.59,-143.04 56.54,-143.93"/>
<text text-anchor="middle" x="103" y="-195" font-family="Helvetica,sans-Serif" font-size="10.00"> split_link</text>
<text text-anchor="middle" x="103" y="-184" font-family="Helvetica,sans-Serif" font-size="10.00">split_link_mem</text>
</g>
<!-- Node6&#45;&gt;Node6 -->
<g id="edge7" class="edge">
<title>Node6&#45;&gt;Node6</title>
<path fill="none" stroke="#9a32cd" stroke-dasharray="5,2" d="M122.4,-127.85C127.12,-126.97 130,-125.69 130,-124 130,-121.29 122.62,-119.63 112.15,-119.02"/>
<polygon fill="#9a32cd" stroke="#9a32cd" points="121.7,-124.4 112.15,-128.98 122.47,-131.36 121.7,-124.4"/>
<text text-anchor="middle" x="142.5" y="-121.5" font-family="Helvetica,sans-Serif" font-size="10.00"> prev</text>
</g>
<!-- Node7&#45;&gt;Node6 -->
<g id="edge8" class="edge">
<title>Node7&#45;&gt;Node6</title>
<path fill="none" stroke="#9a32cd" stroke-dasharray="5,2" d="M185.78,-178.54C153.87,-165.37 104.41,-144.97 76.67,-133.53"/>
<polygon fill="#9a32cd" stroke="#9a32cd" points="184.5,-181.79 195.08,-182.37 187.17,-175.32 184.5,-181.79"/>
<text text-anchor="middle" x="166" y="-155" font-family="Helvetica,sans-Serif" font-size="10.00"> visitors</text>
</g>
<!-- Node8&#45;&gt;Node3 -->
<g id="edge12" class="edge">
<title>Node8&#45;&gt;Node3</title>
<path fill="none" stroke="midnightblue" d="M349.76,-175.77C364.92,-162.78 386.19,-144.56 398.69,-133.84"/>
<polygon fill="midnightblue" stroke="midnightblue" points="347.38,-173.21 342.07,-182.37 351.94,-178.52 347.38,-173.21"/>
</g>
<!-- Node9 -->
<g id="node9" class="node">
<title>Node9</title>
<g id="a_node9"><a xlink:href="classsafe__vector.html" target="_top" xlink:title=" ">
<polygon fill="white" stroke="black" points="421.5,-182.5 421.5,-201.5 574.5,-201.5 574.5,-182.5 421.5,-182.5"/>
<text text-anchor="middle" x="498" y="-189.5" font-family="Helvetica,sans-Serif" font-size="10.00">safe_vector&lt; DebugHook &gt;</text>
</a>
</g>
</g>
<!-- Node9&#45;&gt;Node3 -->
<g id="edge14" class="edge">
<title>Node9&#45;&gt;Node3</title>
<path fill="none" stroke="#9a32cd" stroke-dasharray="5,2" d="M477.9,-176.1C460.24,-163 435.16,-144.4 420.64,-133.63"/>
<polygon fill="#9a32cd" stroke="#9a32cd" points="476.25,-179.23 486.36,-182.37 480.42,-173.6 476.25,-179.23"/>
<text text-anchor="middle" x="491" y="-155" font-family="Helvetica,sans-Serif" font-size="10.00"> debugHooks</text>
</g>
<!-- Node10 -->
<g id="node10" class="node">
<title>Node10</title>
<g id="a_node10"><a xlink:title=" ">
<polygon fill="white" stroke="#bfbfbf" points="530.5,-250.5 530.5,-269.5 627.5,-269.5 627.5,-250.5 530.5,-250.5"/>
<text text-anchor="middle" x="579" y="-257.5" font-family="Helvetica,sans-Serif" font-size="10.00">std::vector&lt; T &gt;</text>
</a>
</g>
</g>
<!-- Node10&#45;&gt;Node9 -->
<g id="edge15" class="edge">
<title>Node10&#45;&gt;Node9</title>
<path fill="none" stroke="midnightblue" d="M560.26,-243.73C544.22,-230.66 521.69,-212.3 508.59,-201.63"/>
<polygon fill="midnightblue" stroke="midnightblue" points="558.45,-246.77 568.41,-250.37 562.87,-241.34 558.45,-246.77"/>
</g>
<!-- Node12 -->
<g id="node12" class="node">
<title>Node12</title>
<g id="a_node12"><a xlink:href="classsafe__vector.html" target="_top" xlink:title=" ">
<polygon fill="white" stroke="black" points="593,-182.5 593,-201.5 729,-201.5 729,-182.5 593,-182.5"/>
<text text-anchor="middle" x="661" y="-189.5" font-family="Helvetica,sans-Serif" font-size="10.00">safe_vector&lt; Visitor * &gt;</text>
</a>
</g>
</g>
<!-- Node10&#45;&gt;Node12 -->
<g id="edge18" class="edge">
<title>Node10&#45;&gt;Node12</title>
<path fill="none" stroke="midnightblue" d="M597.52,-244.1C613.79,-231 636.89,-212.4 650.28,-201.63"/>
<polygon fill="midnightblue" stroke="midnightblue" points="595.32,-241.37 589.72,-250.37 599.7,-246.83 595.32,-241.37"/>
</g>
<!-- Node11 -->
<g id="node11" class="node">
<title>Node11</title>
<g id="a_node11"><a xlink:title=" ">
<polygon fill="white" stroke="#bfbfbf" points="564.5,-318.5 564.5,-337.5 593.5,-337.5 593.5,-318.5 564.5,-318.5"/>
<text text-anchor="middle" x="579" y="-325.5" font-family="Helvetica,sans-Serif" font-size="10.00">T</text>
</a>
</g>
</g>
<!-- Node11&#45;&gt;Node10 -->
<g id="edge16" class="edge">
<title>Node11&#45;&gt;Node10</title>
<path fill="none" stroke="#9a32cd" stroke-dasharray="5,2" d="M579,-308.04C579,-295.47 579,-279.56 579,-269.84"/>
<polygon fill="#9a32cd" stroke="#9a32cd" points="575.5,-308.37 579,-318.37 582.5,-308.37 575.5,-308.37"/>
<text text-anchor="middle" x="603.5" y="-291" font-family="Helvetica,sans-Serif" font-size="10.00"> elements</text>
</g>
<!-- Node12&#45;&gt;Node3 -->
<g id="edge17" class="edge">
<title>Node12&#45;&gt;Node3</title>
<path fill="none" stroke="#9a32cd" stroke-dasharray="5,2" d="M623.68,-179.5C596.88,-171.41 559.86,-160.53 527,-152 501.17,-145.29 471.92,-138.59 449.01,-133.55"/>
<polygon fill="#9a32cd" stroke="#9a32cd" points="622.83,-182.9 633.41,-182.46 624.86,-176.21 622.83,-182.9"/>
<text text-anchor="middle" x="582.5" y="-155" font-family="Helvetica,sans-Serif" font-size="10.00"> passes</text>
</g>
</g>
</svg>
        <g id="navigator" transform="translate(0 0)" fill="#404254">
                <rect fill="#f2f5e9" fill-opacity="0.5" stroke="#606060" stroke-width=".5" x="0" y="0" width="60" height="60"/>
                <use id="zoomplus" xlink:href="#zoomPlus" x="17" y="9" onmousedown="handleZoom(evt,'in')"/>
                <use id="zoomminus" xlink:href="#zoomMin" x="42" y="9" onmousedown="handleZoom(evt,'out')"/>
                <use id="reset" xlink:href="#resetDef" x="30" y="36" onmousedown="handleReset()"/>
                <g id="arrowUp" xlink:href="#dirArrow" transform="translate(30 24)" onmousedown="handlePan(0,-1)">
                  <use xlink:href="#rim" fill="#404040">
                        <set attributeName="fill" to="#808080" begin="arrowUp.mouseover" end="arrowUp.mouseout"/>
                  </use>
                  <path fill="none" stroke="white" stroke-width="1.5" d="M0,-3.0v7 M-2.5,-0.5L0,-3.0L2.5,-0.5"/>
                </g>
                <g id="arrowRight" xlink:href="#dirArrow" transform="rotate(90) translate(36 -43)" onmousedown="handlePan(1,0)">
                  <use xlink:href="#rim" fill="#404040">
                        <set attributeName="fill" to="#808080" begin="arrowRight.mouseover" end="arrowRight.mouseout"/>
                  </use>
                  <path fill="none" stroke="white" stroke-width="1.5" d="M0,-3.0v7 M-2.5,-0.5L0,-3.0L2.5,-0.5"/>
                </g>
                <g id="arrowDown" xlink:href="#dirArrow" transform="rotate(180) translate(-30 -48)" onmousedown="handlePan(0,1)">
                  <use xlink:href="#rim" fill="#404040">
                        <set attributeName="fill" to="#808080" begin="arrowDown.mouseover" end="arrowDown.mouseout"/>
                  </use>
                  <path fill="none" stroke="white" stroke-width="1.5" d="M0,-3.0v7 M-2.5,-0.5L0,-3.0L2.5,-0.5"/>
                </g>
                <g id="arrowLeft" xlink:href="#dirArrow" transform="rotate(270) translate(-36 17)" onmousedown="handlePan(-1,0)">
                  <use xlink:href="#rim" fill="#404040">
                        <set attributeName="fill" to="#808080" begin="arrowLeft.mouseover" end="arrowLeft.mouseout"/>
                  </use>
                  <path fill="none" stroke="white" stroke-width="1.5" d="M0,-3.0v7 M-2.5,-0.5L0,-3.0L2.5,-0.5"/>
                </g>
        </g>
        <svg viewBox="0 0 15 15" width="100%" height="30px" preserveAspectRatio="xMaxYMin meet">
         <g id="arrow_out" transform="scale(0.3 0.3)">
          <a xlink:href="class_p4_1_1_specialize_all__coll__graph_org.svg" target="_base">
           <rect id="button" ry="5" rx="5" y="6" x="6" height="38" width="38"
                fill="#f2f5e9" fill-opacity="0.5" stroke="#606060" stroke-width="1.0"/>
           <path id="arrow"
             d="M 11.500037,31.436501 C 11.940474,20.09759 22.043105,11.32322 32.158766,21.979434 L 37.068811,17.246167 C 37.068811,17.246167 37.088388,32 37.088388,32 L 22.160133,31.978069 C 22.160133,31.978069 26.997745,27.140456 26.997745,27.140456 C 18.528582,18.264221 13.291696,25.230495 11.500037,31.436501 z"
             style="fill:#404040;"/>
          </a>
         </g>
        </svg>
</svg>
