<?xml version="1.0" encoding="UTF-8" standalone="no"?>
<!DOCTYPE svg PUBLIC "-//W3C//DTD SVG 1.1//EN"
 "http://www.w3.org/Graphics/SVG/1.1/DTD/svg11.dtd">
<!-- Generated by graphviz version 2.43.0 (0)
 -->
<!-- Title: IR::Node Pages: 1 -->
<svg width="419pt" height="232pt"
 viewBox="0.00 0.00 418.50 232.00" xmlns="http://www.w3.org/2000/svg" xmlns:xlink="http://www.w3.org/1999/xlink">
<g id="graph0" class="graph" transform="scale(1 1) rotate(0) translate(4 228)">
<title>IR::Node</title>
<polygon fill="white" stroke="transparent" points="-4,4 -4,-228 414.5,-228 414.5,4 -4,4"/>
<!-- Node1 -->
<g id="node1" class="node">
<title>Node1</title>
<g id="a_node1"><a xlink:title=" ">
<polygon fill="#bfbfbf" stroke="black" points="207.5,-0.5 207.5,-19.5 265.5,-19.5 265.5,-0.5 207.5,-0.5"/>
<text text-anchor="middle" x="236.5" y="-7.5" font-family="Helvetica,sans-Serif" font-size="10.00">IR::Node</text>
</a>
</g>
</g>
<!-- Node2 -->
<g id="node2" class="node">
<title>Node2</title>
<g id="a_node2"><a xlink:href="class_i_r_1_1_i_node.html" target="_top" xlink:title=" ">
<polygon fill="white" stroke="black" points="159,-67.5 159,-86.5 220,-86.5 220,-67.5 159,-67.5"/>
<text text-anchor="middle" x="189.5" y="-74.5" font-family="Helvetica,sans-Serif" font-size="10.00">IR::INode</text>
</a>
</g>
</g>
<!-- Node2&#45;&gt;Node1 -->
<g id="edge1" class="edge">
<title>Node2&#45;&gt;Node1</title>
<path fill="none" stroke="midnightblue" d="M201.86,-58.9C210.99,-46.27 223.05,-29.6 230.26,-19.63"/>
<polygon fill="midnightblue" stroke="midnightblue" points="198.86,-57.08 195.84,-67.23 204.53,-61.18 198.86,-57.08"/>
</g>
<!-- Node3 -->
<g id="node3" class="node">
<title>Node3</title>
<g id="a_node3"><a xlink:href="class_util_1_1_i_has_source_info.html" target="_top" xlink:title=" ">
<polygon fill="white" stroke="black" points="0,-146.5 0,-165.5 113,-165.5 113,-146.5 0,-146.5"/>
<text text-anchor="middle" x="56.5" y="-153.5" font-family="Helvetica,sans-Serif" font-size="10.00">Util::IHasSourceInfo</text>
</a>
</g>
</g>
<!-- Node3&#45;&gt;Node2 -->
<g id="edge2" class="edge">
<title>Node3&#45;&gt;Node2</title>
<path fill="none" stroke="midnightblue" d="M80.16,-141.3C107.54,-125.45 151.78,-99.84 174.69,-86.57"/>
<polygon fill="midnightblue" stroke="midnightblue" points="78.14,-138.43 71.24,-146.47 81.65,-144.48 78.14,-138.43"/>
</g>
<!-- Node4 -->
<g id="node4" class="node">
<title>Node4</title>
<g id="a_node4"><a xlink:href="class_i_has_db_print.html" target="_top" xlink:title=" ">
<polygon fill="white" stroke="black" points="131.5,-146.5 131.5,-165.5 205.5,-165.5 205.5,-146.5 131.5,-146.5"/>
<text text-anchor="middle" x="168.5" y="-153.5" font-family="Helvetica,sans-Serif" font-size="10.00">IHasDbPrint</text>
</a>
</g>
</g>
<!-- Node4&#45;&gt;Node2 -->
<g id="edge3" class="edge">
<title>Node4&#45;&gt;Node2</title>
<path fill="none" stroke="midnightblue" d="M173.47,-136.77C177.77,-121.02 183.79,-98.92 187.1,-86.81"/>
<polygon fill="midnightblue" stroke="midnightblue" points="170.08,-135.9 170.83,-146.47 176.84,-137.74 170.08,-135.9"/>
</g>
<!-- Node5 -->
<g id="node5" class="node">
<title>Node5</title>
<g id="a_node5"><a xlink:href="class_i_castable.html" target="_top" xlink:title=" ">
<polygon fill="white" stroke="black" points="223.5,-146.5 223.5,-165.5 285.5,-165.5 285.5,-146.5 223.5,-146.5"/>
<text text-anchor="middle" x="254.5" y="-153.5" font-family="Helvetica,sans-Serif" font-size="10.00">ICastable</text>
</a>
</g>
</g>
<!-- Node5&#45;&gt;Node2 -->
<g id="edge4" class="edge">
<title>Node5&#45;&gt;Node2</title>
<path fill="none" stroke="midnightblue" d="M240.62,-138.56C227.26,-122.73 207.56,-99.39 196.94,-86.81"/>
<polygon fill="midnightblue" stroke="midnightblue" points="238.17,-141.08 247.3,-146.47 243.52,-136.57 238.17,-141.08"/>
</g>
<!-- Node6 -->
<g id="node6" class="node">
<title>Node6</title>
<g id="a_node6"><a xlink:href="struct_r_t_t_i_1_1_base.html" target="_top" xlink:title=" ">
<polygon fill="white" stroke="black" points="220.5,-204.5 220.5,-223.5 288.5,-223.5 288.5,-204.5 220.5,-204.5"/>
<text text-anchor="middle" x="254.5" y="-211.5" font-family="Helvetica,sans-Serif" font-size="10.00">RTTI::Base</text>
</a>
</g>
</g>
<!-- Node6&#45;&gt;Node5 -->
<g id="edge5" class="edge">
<title>Node6&#45;&gt;Node5</title>
<path fill="none" stroke="midnightblue" d="M254.5,-193.95C254.5,-184.29 254.5,-173.03 254.5,-165.51"/>
<polygon fill="midnightblue" stroke="midnightblue" points="251,-194.25 254.5,-204.25 258,-194.25 251,-194.25"/>
</g>
<!-- Node7 -->
<g id="node7" class="node">
<title>Node7</title>
<g id="a_node7"><a xlink:href="class_util_1_1_source_info.html" target="_top" xlink:title=" ">
<polygon fill="white" stroke="black" points="248.5,-67.5 248.5,-86.5 340.5,-86.5 340.5,-67.5 248.5,-67.5"/>
<text text-anchor="middle" x="294.5" y="-74.5" font-family="Helvetica,sans-Serif" font-size="10.00">Util::SourceInfo</text>
</a>
</g>
</g>
<!-- Node7&#45;&gt;Node1 -->
<g id="edge6" class="edge">
<title>Node7&#45;&gt;Node1</title>
<path fill="none" stroke="#9a32cd" stroke-dasharray="5,2" d="M279.9,-59.63C268.55,-46.92 253.27,-29.8 244.2,-19.63"/>
<polygon fill="#9a32cd" stroke="#9a32cd" points="277.41,-62.1 286.68,-67.23 282.63,-57.44 277.41,-62.1"/>
<text text-anchor="middle" x="288" y="-41" font-family="Helvetica,sans-Serif" font-size="10.00"> srcInfo</text>
</g>
<!-- Node8 -->
<g id="node8" class="node">
<title>Node8</title>
<g id="a_node8"><a xlink:href="classcstring.html" target="_top" xlink:title=" ">
<polygon fill="white" stroke="black" points="303.5,-146.5 303.5,-165.5 353.5,-165.5 353.5,-146.5 303.5,-146.5"/>
<text text-anchor="middle" x="328.5" y="-153.5" font-family="Helvetica,sans-Serif" font-size="10.00">cstring</text>
</a>
</g>
</g>
<!-- Node8&#45;&gt;Node7 -->
<g id="edge7" class="edge">
<title>Node8&#45;&gt;Node7</title>
<path fill="none" stroke="#9a32cd" stroke-dasharray="5,2" d="M320.65,-137.22C313.68,-121.44 303.79,-99.04 298.39,-86.81"/>
<polygon fill="#9a32cd" stroke="#9a32cd" points="317.49,-138.73 324.73,-146.47 323.89,-135.9 317.49,-138.73"/>
<text text-anchor="middle" x="338.5" y="-119" font-family="Helvetica,sans-Serif" font-size="10.00"> filename</text>
<text text-anchor="middle" x="338.5" y="-108" font-family="Helvetica,sans-Serif" font-size="10.00">srcBrief</text>
</g>
<!-- Node8&#45;&gt;Node8 -->
<g id="edge8" class="edge">
<title>Node8&#45;&gt;Node8</title>
<path fill="none" stroke="#9a32cd" stroke-dasharray="5,2" d="M363.95,-160.6C368.5,-159.8 371.5,-158.27 371.5,-156 371.5,-152.28 363.41,-150.54 353.68,-150.77"/>
<polygon fill="#9a32cd" stroke="#9a32cd" points="363.44,-157.12 353.68,-161.23 363.87,-164.11 363.44,-157.12"/>
<text text-anchor="middle" x="391" y="-159" font-family="Helvetica,sans-Serif" font-size="10.00"> empty</text>
<text text-anchor="middle" x="391" y="-148" font-family="Helvetica,sans-Serif" font-size="10.00">newline</text>
</g>
</g>
</svg>
