<?xml version="1.0" encoding="UTF-8" standalone="no"?>
<!DOCTYPE svg PUBLIC "-//W3C//DTD SVG 1.1//EN"
 "http://www.w3.org/Graphics/SVG/1.1/DTD/svg11.dtd">
<!-- Generated by graphviz version 2.43.0 (0)
 -->
<!-- Title: IR::Node Pages: 1 -->
<svg width="1018pt" height="976pt"
 viewBox="0.00 0.00 1018.00 976.00" xmlns="http://www.w3.org/2000/svg" xmlns:xlink="http://www.w3.org/1999/xlink">
<g id="graph0" class="graph" transform="scale(1 1) rotate(0) translate(4 972)">
<title>IR::Node</title>
<!-- Node1 -->
<g id="Node000001" class="node">
<title>Node1</title>
<g id="a_Node000001"><a xlink:title=" ">
<polygon fill="#999999" stroke="#666666" points="408,-678 350,-678 350,-659 408,-659 408,-678"/>
<text text-anchor="middle" x="379" y="-666" font-family="Helvetica,sans-Serif" font-size="10.00">IR::Node</text>
</a>
</g>
</g>
<!-- Node7 -->
<g id="Node000007" class="node">
<title>Node7</title>
<g id="a_Node000007"><a xlink:href="class_i_r_1_1_name_map.html" target="_top" xlink:title=" ">
<polygon fill="white" stroke="#bfbfbf" points="584,-731.5 453,-731.5 453,-701.5 584,-701.5 584,-731.5"/>
<text text-anchor="start" x="461" y="-719.5" font-family="Helvetica,sans-Serif" font-size="10.00">IR::NameMap&lt; T, MAP,</text>
<text text-anchor="middle" x="518.5" y="-708.5" font-family="Helvetica,sans-Serif" font-size="10.00"> COMP, ALLOC &gt;</text>
</a>
</g>
</g>
<!-- Node1&#45;&gt;Node7 -->
<g id="edge6_Node000001_Node000007" class="edge">
<title>Node1&#45;&gt;Node7</title>
<g id="a_edge6_Node000001_Node000007"><a xlink:title=" ">
<path fill="none" stroke="#63b8ff" d="M414.41,-681.72C423.96,-685.3 434.36,-689.12 444,-692.5 452.49,-695.48 461.57,-698.54 470.35,-701.44"/>
<polygon fill="#63b8ff" stroke="#63b8ff" points="415.42,-678.36 404.83,-678.1 412.95,-684.9 415.42,-678.36"/>
</a>
</g>
</g>
<!-- Node8 -->
<g id="Node000008" class="node">
<title>Node8</title>
<g id="a_Node000008"><a xlink:href="class_i_r_1_1_node_map.html" target="_top" xlink:title=" ">
<polygon fill="white" stroke="#bfbfbf" points="593,-683.5 444,-683.5 444,-653.5 593,-653.5 593,-683.5"/>
<text text-anchor="start" x="452" y="-671.5" font-family="Helvetica,sans-Serif" font-size="10.00">IR::NodeMap&lt; KEY, VALUE,</text>
<text text-anchor="middle" x="518.5" y="-660.5" font-family="Helvetica,sans-Serif" font-size="10.00"> MAP, COMP, ALLOC &gt;</text>
</a>
</g>
</g>
<!-- Node1&#45;&gt;Node8 -->
<g id="edge7_Node000001_Node000008" class="edge">
<title>Node1&#45;&gt;Node8</title>
<g id="a_edge7_Node000001_Node000008"><a xlink:title=" ">
<path fill="none" stroke="#63b8ff" d="M418.28,-668.5C426.33,-668.5 435.07,-668.5 443.92,-668.5"/>
<polygon fill="#63b8ff" stroke="#63b8ff" points="418.16,-665 408.16,-668.5 418.16,-672 418.16,-665"/>
</a>
</g>
</g>
<!-- Node9 -->
<g id="Node000009" class="node">
<title>Node9</title>
<g id="a_Node000009"><a xlink:href="class_i_r_1_1_vector_base.html" target="_top" xlink:title=" ">
<polygon fill="white" stroke="#bfbfbf" points="562,-635 475,-635 475,-616 562,-616 562,-635"/>
<text text-anchor="middle" x="518.5" y="-623" font-family="Helvetica,sans-Serif" font-size="10.00">IR::VectorBase</text>
</a>
</g>
</g>
<!-- Node1&#45;&gt;Node9 -->
<g id="edge8_Node000001_Node000009" class="edge">
<title>Node1&#45;&gt;Node9</title>
<g id="a_edge8_Node000001_Node000009"><a xlink:title=" ">
<path fill="none" stroke="#63b8ff" d="M413.23,-655.28C423.06,-651.57 433.9,-647.69 444,-644.5 454.68,-641.13 466.37,-637.9 477.23,-635.09"/>
<polygon fill="#63b8ff" stroke="#63b8ff" points="411.89,-652.04 403.8,-658.89 414.39,-658.58 411.89,-652.04"/>
</a>
</g>
</g>
<!-- Node2 -->
<g id="Node000002" class="node">
<title>Node2</title>
<g id="a_Node000002"><a xlink:href="class_i_r_1_1_i_node.html" target="_top" xlink:title=" ">
<polygon fill="white" stroke="#bfbfbf" points="314,-678 253,-678 253,-659 314,-659 314,-678"/>
<text text-anchor="middle" x="283.5" y="-666" font-family="Helvetica,sans-Serif" font-size="10.00">IR::INode</text>
</a>
</g>
</g>
<!-- Node2&#45;&gt;Node1 -->
<g id="edge1_Node000001_Node000002" class="edge">
<title>Node2&#45;&gt;Node1</title>
<g id="a_edge1_Node000001_Node000002"><a xlink:title=" ">
<path fill="none" stroke="#63b8ff" d="M324.33,-668.5C332.93,-668.5 341.85,-668.5 349.88,-668.5"/>
<polygon fill="#63b8ff" stroke="#63b8ff" points="324.08,-665 314.08,-668.5 324.08,-672 324.08,-665"/>
</a>
</g>
</g>
<!-- Node3 -->
<g id="Node000003" class="node">
<title>Node3</title>
<g id="a_Node000003"><a xlink:href="class_util_1_1_i_has_source_info.html" target="_top" xlink:title=" ">
<polygon fill="white" stroke="#bfbfbf" points="217,-715 104,-715 104,-696 217,-696 217,-715"/>
<text text-anchor="middle" x="160.5" y="-703" font-family="Helvetica,sans-Serif" font-size="10.00">Util::IHasSourceInfo</text>
</a>
</g>
</g>
<!-- Node3&#45;&gt;Node2 -->
<g id="edge2_Node000002_Node000003" class="edge">
<title>Node3&#45;&gt;Node2</title>
<g id="a_edge2_Node000002_Node000003"><a xlink:title=" ">
<path fill="none" stroke="#63b8ff" d="M202.57,-692.94C219.01,-687.91 237.59,-682.23 252.7,-677.61"/>
<polygon fill="#63b8ff" stroke="#63b8ff" points="201.2,-689.7 192.66,-695.97 203.25,-696.39 201.2,-689.7"/>
</a>
</g>
</g>
<!-- Node4 -->
<g id="Node000004" class="node">
<title>Node4</title>
<g id="a_Node000004"><a xlink:href="class_i_has_db_print.html" target="_top" xlink:title=" ">
<polygon fill="white" stroke="#bfbfbf" points="197.5,-678 123.5,-678 123.5,-659 197.5,-659 197.5,-678"/>
<text text-anchor="middle" x="160.5" y="-666" font-family="Helvetica,sans-Serif" font-size="10.00">IHasDbPrint</text>
</a>
</g>
</g>
<!-- Node4&#45;&gt;Node2 -->
<g id="edge3_Node000002_Node000004" class="edge">
<title>Node4&#45;&gt;Node2</title>
<g id="a_edge3_Node000002_Node000004"><a xlink:title=" ">
<path fill="none" stroke="#63b8ff" d="M207.97,-668.5C223,-668.5 239.25,-668.5 252.73,-668.5"/>
<polygon fill="#63b8ff" stroke="#63b8ff" points="207.8,-665 197.8,-668.5 207.8,-672 207.8,-665"/>
</a>
</g>
</g>
<!-- Node5 -->
<g id="Node000005" class="node">
<title>Node5</title>
<g id="a_Node000005"><a xlink:href="class_i_castable.html" target="_top" xlink:title=" ">
<polygon fill="white" stroke="#666666" points="191.5,-641 129.5,-641 129.5,-622 191.5,-622 191.5,-641"/>
<text text-anchor="middle" x="160.5" y="-629" font-family="Helvetica,sans-Serif" font-size="10.00">ICastable</text>
</a>
</g>
</g>
<!-- Node5&#45;&gt;Node2 -->
<g id="edge4_Node000002_Node000005" class="edge">
<title>Node5&#45;&gt;Node2</title>
<g id="a_edge4_Node000002_Node000005"><a xlink:title=" ">
<path fill="none" stroke="#63b8ff" d="M201.73,-643.8C218.36,-648.89 237.3,-654.68 252.66,-659.38"/>
<polygon fill="#63b8ff" stroke="#63b8ff" points="202.31,-640.32 191.72,-640.74 200.26,-647.01 202.31,-640.32"/>
</a>
</g>
</g>
<!-- Node6 -->
<g id="Node000006" class="node">
<title>Node6</title>
<g id="a_Node000006"><a xlink:href="struct_r_t_t_i_1_1_base.html" target="_top" xlink:title=" ">
<polygon fill="white" stroke="#bfbfbf" points="68,-641 0,-641 0,-622 68,-622 68,-641"/>
<text text-anchor="middle" x="34" y="-629" font-family="Helvetica,sans-Serif" font-size="10.00">RTTI::Base</text>
</a>
</g>
</g>
<!-- Node6&#45;&gt;Node5 -->
<g id="edge5_Node000005_Node000006" class="edge">
<title>Node6&#45;&gt;Node5</title>
<g id="a_edge5_Node000005_Node000006"><a xlink:title=" ">
<path fill="none" stroke="#63b8ff" d="M78.21,-631.5C95.06,-631.5 113.96,-631.5 129.3,-631.5"/>
<polygon fill="#63b8ff" stroke="#63b8ff" points="78.04,-628 68.04,-631.5 78.04,-635 78.04,-628"/>
</a>
</g>
</g>
<!-- Node10 -->
<g id="Node000010" class="node">
<title>Node10</title>
<g id="a_Node000010"><a xlink:href="class_i_r_1_1_vector.html" target="_top" xlink:title=" ">
<polygon fill="white" stroke="#bfbfbf" points="829,-968 629,-968 629,-949 829,-949 829,-968"/>
<text text-anchor="middle" x="729" y="-956" font-family="Helvetica,sans-Serif" font-size="10.00">IR::Vector&lt; IR::DpdkAsmStatement &gt;</text>
</a>
</g>
</g>
<!-- Node9&#45;&gt;Node10 -->
<g id="edge9_Node000009_Node000010" class="edge">
<title>Node9&#45;&gt;Node10</title>
<g id="a_edge9_Node000009_Node000010"><a xlink:title=" ">
<path fill="none" stroke="#63b8ff" d="M571.88,-630.73C579.91,-633.7 587.38,-638.09 593,-644.5 680.33,-744.18 538.09,-844.08 629,-940.5 632,-943.68 635.35,-946.41 638.97,-948.74"/>
<polygon fill="#63b8ff" stroke="#63b8ff" points="572.86,-627.37 562.27,-627.85 570.85,-634.07 572.86,-627.37"/>
</a>
</g>
</g>
<!-- Node11 -->
<g id="Node000011" class="node">
<title>Node11</title>
<g id="a_Node000011"><a xlink:href="class_i_r_1_1_vector.html" target="_top" xlink:title=" ">
<polygon fill="white" stroke="#bfbfbf" points="792.5,-931 665.5,-931 665.5,-912 792.5,-912 792.5,-931"/>
<text text-anchor="middle" x="729" y="-919" font-family="Helvetica,sans-Serif" font-size="10.00">IR::Vector&lt; IR::Node &gt;</text>
</a>
</g>
</g>
<!-- Node9&#45;&gt;Node11 -->
<g id="edge10_Node000009_Node000011" class="edge">
<title>Node9&#45;&gt;Node11</title>
<g id="a_edge10_Node000009_Node000011"><a xlink:title=" ">
<path fill="none" stroke="#63b8ff" d="M571.79,-630.81C579.83,-633.77 587.33,-638.14 593,-644.5 670.33,-731.26 548.55,-819.62 629,-903.5 638.61,-913.52 651.8,-919.06 665.42,-921.92"/>
<polygon fill="#63b8ff" stroke="#63b8ff" points="572.76,-627.45 562.18,-627.94 570.76,-634.15 572.76,-627.45"/>
</a>
</g>
</g>
<!-- Node12 -->
<g id="Node000012" class="node">
<title>Node12</title>
<g id="a_Node000012"><a xlink:href="class_i_r_1_1_vector.html" target="_top" xlink:title=" ">
<polygon fill="white" stroke="#bfbfbf" points="808,-894 650,-894 650,-875 808,-875 808,-894"/>
<text text-anchor="middle" x="729" y="-882" font-family="Helvetica,sans-Serif" font-size="10.00">IR::Vector&lt; IR::Declaration &gt;</text>
</a>
</g>
</g>
<!-- Node9&#45;&gt;Node12 -->
<g id="edge11_Node000009_Node000012" class="edge">
<title>Node9&#45;&gt;Node12</title>
<g id="a_edge11_Node000009_Node000012"><a xlink:title=" ">
<path fill="none" stroke="#63b8ff" d="M571.67,-630.92C579.72,-633.87 587.26,-638.2 593,-644.5 660.35,-718.36 559,-795.15 629,-866.5 634.87,-872.49 642.02,-876.86 649.77,-880.02"/>
<polygon fill="#63b8ff" stroke="#63b8ff" points="572.64,-627.55 562.05,-628.05 570.63,-634.26 572.64,-627.55"/>
</a>
</g>
</g>
<!-- Node13 -->
<g id="Node000013" class="node">
<title>Node13</title>
<g id="a_Node000013"><a xlink:href="class_i_r_1_1_vector.html" target="_top" xlink:title=" ">
<polygon fill="white" stroke="#bfbfbf" points="806,-857 652,-857 652,-838 806,-838 806,-857"/>
<text text-anchor="middle" x="729" y="-845" font-family="Helvetica,sans-Serif" font-size="10.00">IR::Vector&lt; IR::StatOrDecl &gt;</text>
</a>
</g>
</g>
<!-- Node9&#45;&gt;Node13 -->
<g id="edge12_Node000009_Node000013" class="edge">
<title>Node9&#45;&gt;Node13</title>
<g id="a_edge12_Node000009_Node000013"><a xlink:title=" ">
<path fill="none" stroke="#63b8ff" d="M572.03,-631.27C579.91,-634.19 587.29,-638.43 593,-644.5 650.4,-705.5 569.41,-770.64 629,-829.5 635.46,-835.88 643.38,-840.42 651.91,-843.59"/>
<polygon fill="#63b8ff" stroke="#63b8ff" points="572.85,-627.86 562.26,-628.3 570.82,-634.55 572.85,-627.86"/>
</a>
</g>
</g>
<!-- Node14 -->
<g id="Node000014" class="node">
<title>Node14</title>
<g id="a_Node000014"><a xlink:href="class_i_r_1_1_vector.html" target="_top" xlink:title=" ">
<polygon fill="white" stroke="#bfbfbf" points="805,-820 653,-820 653,-801 805,-801 805,-820"/>
<text text-anchor="middle" x="729" y="-808" font-family="Helvetica,sans-Serif" font-size="10.00">IR::Vector&lt; IR::DpdkTable &gt;</text>
</a>
</g>
</g>
<!-- Node9&#45;&gt;Node14 -->
<g id="edge13_Node000009_Node000014" class="edge">
<title>Node9&#45;&gt;Node14</title>
<g id="a_edge13_Node000009_Node000014"><a xlink:title=" ">
<path fill="none" stroke="#63b8ff" d="M571.8,-631.49C579.7,-634.4 587.15,-638.56 593,-644.5 640.52,-692.71 579.75,-746.06 629,-792.5 635.74,-798.85 643.93,-803.35 652.68,-806.48"/>
<polygon fill="#63b8ff" stroke="#63b8ff" points="572.6,-628.08 562.01,-628.54 570.58,-634.78 572.6,-628.08"/>
</a>
</g>
</g>
<!-- Node15 -->
<g id="Node000015" class="node">
<title>Node15</title>
<g id="a_Node000015"><a xlink:href="class_i_r_1_1_vector.html" target="_top" xlink:title=" ">
<polygon fill="white" stroke="#bfbfbf" points="812.5,-783 645.5,-783 645.5,-764 812.5,-764 812.5,-783"/>
<text text-anchor="middle" x="729" y="-771" font-family="Helvetica,sans-Serif" font-size="10.00">IR::Vector&lt; IR::DpdkSelector &gt;</text>
</a>
</g>
</g>
<!-- Node9&#45;&gt;Node15 -->
<g id="edge14_Node000009_Node000015" class="edge">
<title>Node9&#45;&gt;Node15</title>
<g id="a_edge14_Node000009_Node000015"><a xlink:title=" ">
<path fill="none" stroke="#63b8ff" d="M571.69,-631.97C579.54,-634.83 587,-638.85 593,-644.5 630.77,-680.04 589.96,-721.36 629,-755.5 633.87,-759.75 639.39,-763.16 645.29,-765.86"/>
<polygon fill="#63b8ff" stroke="#63b8ff" points="572.59,-628.59 562,-629.04 570.56,-635.29 572.59,-628.59"/>
</a>
</g>
</g>
<!-- Node16 -->
<g id="Node000016" class="node">
<title>Node16</title>
<g id="a_Node000016"><a xlink:href="class_i_r_1_1_vector.html" target="_top" xlink:title=" ">
<polygon fill="white" stroke="#bfbfbf" points="811,-746 647,-746 647,-727 811,-727 811,-746"/>
<text text-anchor="middle" x="729" y="-734" font-family="Helvetica,sans-Serif" font-size="10.00">IR::Vector&lt; IR::DpdkLearner &gt;</text>
</a>
</g>
</g>
<!-- Node9&#45;&gt;Node16 -->
<g id="edge15_Node000009_Node000016" class="edge">
<title>Node9&#45;&gt;Node16</title>
<g id="a_edge15_Node000009_Node000016"><a xlink:title=" ">
<path fill="none" stroke="#63b8ff" d="M571.84,-632.99C579.47,-635.73 586.83,-639.45 593,-644.5 621.31,-667.65 599.86,-696.4 629,-718.5 634.43,-722.62 640.5,-725.9 646.89,-728.5"/>
<polygon fill="#63b8ff" stroke="#63b8ff" points="572.67,-629.58 562.08,-630.02 570.63,-636.28 572.67,-629.58"/>
</a>
</g>
</g>
<!-- Node17 -->
<g id="Node000017" class="node">
<title>Node17</title>
<g id="a_Node000017"><a xlink:href="class_i_r_1_1_vector.html" target="_top" xlink:title=" ">
<polygon fill="white" stroke="#bfbfbf" points="808,-709 650,-709 650,-690 808,-690 808,-709"/>
<text text-anchor="middle" x="729" y="-697" font-family="Helvetica,sans-Serif" font-size="10.00">IR::Vector&lt; IR::DpdkAction &gt;</text>
</a>
</g>
</g>
<!-- Node9&#45;&gt;Node17 -->
<g id="edge16_Node000009_Node000017" class="edge">
<title>Node9&#45;&gt;Node17</title>
<g id="a_edge16_Node000009_Node000017"><a xlink:title=" ">
<path fill="none" stroke="#63b8ff" d="M572.16,-635.34C579.41,-637.76 586.57,-640.77 593,-644.5 612.84,-656.02 608.75,-670.71 629,-681.5 635.55,-684.99 642.66,-687.82 649.95,-690.11"/>
<polygon fill="#63b8ff" stroke="#63b8ff" points="572.84,-631.89 562.25,-632.38 570.83,-638.59 572.84,-631.89"/>
</a>
</g>
</g>
<!-- Node18 -->
<g id="Node000018" class="node">
<title>Node18</title>
<g id="a_Node000018"><a xlink:href="class_i_r_1_1_vector.html" target="_top" xlink:title=" ">
<polygon fill="white" stroke="#bfbfbf" points="805,-672 653,-672 653,-653 805,-653 805,-672"/>
<text text-anchor="middle" x="729" y="-660" font-family="Helvetica,sans-Serif" font-size="10.00">IR::Vector&lt; IR::Parameter &gt;</text>
</a>
</g>
</g>
<!-- Node9&#45;&gt;Node18 -->
<g id="edge17_Node000009_Node000018" class="edge">
<title>Node9&#45;&gt;Node18</title>
<g id="a_edge17_Node000009_Node000018"><a xlink:title=" ">
<path fill="none" stroke="#63b8ff" d="M572.43,-634.89C603.59,-640.42 642.91,-647.4 674.22,-652.96"/>
<polygon fill="#63b8ff" stroke="#63b8ff" points="572.65,-631.38 562.2,-633.08 571.43,-638.27 572.65,-631.38"/>
</a>
</g>
</g>
<!-- Node19 -->
<g id="Node000019" class="node">
<title>Node19</title>
<g id="a_Node000019"><a xlink:href="class_i_r_1_1_vector.html" target="_top" xlink:title=" ">
<polygon fill="white" stroke="#bfbfbf" points="820.5,-635 637.5,-635 637.5,-616 820.5,-616 820.5,-635"/>
<text text-anchor="middle" x="729" y="-623" font-family="Helvetica,sans-Serif" font-size="10.00">IR::Vector&lt; IR::DpdkDeclaration &gt;</text>
</a>
</g>
</g>
<!-- Node9&#45;&gt;Node19 -->
<g id="edge18_Node000009_Node000019" class="edge">
<title>Node9&#45;&gt;Node19</title>
<g id="a_edge18_Node000009_Node000019"><a xlink:title=" ">
<path fill="none" stroke="#63b8ff" d="M572.47,-625.5C592.15,-625.5 615.07,-625.5 637.18,-625.5"/>
<polygon fill="#63b8ff" stroke="#63b8ff" points="572.2,-622 562.2,-625.5 572.2,-629 572.2,-622"/>
</a>
</g>
</g>
<!-- Node20 -->
<g id="Node000020" class="node">
<title>Node20</title>
<g id="a_Node000020"><a xlink:href="class_i_r_1_1_vector.html" target="_top" xlink:title=" ">
<polygon fill="white" stroke="#bfbfbf" points="805.5,-598 652.5,-598 652.5,-579 805.5,-579 805.5,-598"/>
<text text-anchor="middle" x="729" y="-586" font-family="Helvetica,sans-Serif" font-size="10.00">IR::Vector&lt; IR::StructField &gt;</text>
</a>
</g>
</g>
<!-- Node9&#45;&gt;Node20 -->
<g id="edge19_Node000009_Node000020" class="edge">
<title>Node9&#45;&gt;Node20</title>
<g id="a_edge19_Node000009_Node000020"><a xlink:title=" ">
<path fill="none" stroke="#63b8ff" d="M572.43,-616.11C603.59,-610.58 642.91,-603.6 674.22,-598.04"/>
<polygon fill="#63b8ff" stroke="#63b8ff" points="571.43,-612.73 562.2,-617.92 572.65,-619.62 571.43,-612.73"/>
</a>
</g>
</g>
<!-- Node21 -->
<g id="Node000021" class="node">
<title>Node21</title>
<g id="a_Node000021"><a xlink:href="class_i_r_1_1_vector.html" target="_top" xlink:title=" ">
<polygon fill="white" stroke="#bfbfbf" points="791,-561 667,-561 667,-542 791,-542 791,-561"/>
<text text-anchor="middle" x="729" y="-549" font-family="Helvetica,sans-Serif" font-size="10.00">IR::Vector&lt; IR::Type &gt;</text>
</a>
</g>
</g>
<!-- Node9&#45;&gt;Node21 -->
<g id="edge20_Node000009_Node000021" class="edge">
<title>Node9&#45;&gt;Node21</title>
<g id="a_edge20_Node000009_Node000021"><a xlink:title=" ">
<path fill="none" stroke="#63b8ff" d="M543.62,-610.54C565.23,-597.8 598.17,-579.93 629,-569.5 641,-565.44 654.14,-562.24 666.82,-559.73"/>
<polygon fill="#63b8ff" stroke="#63b8ff" points="541.59,-607.68 534.82,-615.83 545.2,-613.68 541.59,-607.68"/>
</a>
</g>
</g>
<!-- Node22 -->
<g id="Node000022" class="node">
<title>Node22</title>
<g id="a_Node000022"><a xlink:href="class_i_r_1_1_vector.html" target="_top" xlink:title=" ">
<polygon fill="white" stroke="#bfbfbf" points="803.5,-524 654.5,-524 654.5,-505 803.5,-505 803.5,-524"/>
<text text-anchor="middle" x="729" y="-512" font-family="Helvetica,sans-Serif" font-size="10.00">IR::Vector&lt; IR::Argument &gt;</text>
</a>
</g>
</g>
<!-- Node9&#45;&gt;Node22 -->
<g id="edge21_Node000009_Node000022" class="edge">
<title>Node9&#45;&gt;Node22</title>
<g id="a_edge21_Node000009_Node000022"><a xlink:title=" ">
<path fill="none" stroke="#63b8ff" d="M534.56,-608.01C554.06,-586.58 590.19,-550.87 629,-532.5 636.97,-528.73 645.65,-525.74 654.45,-523.38"/>
<polygon fill="#63b8ff" stroke="#63b8ff" points="531.73,-605.92 527.7,-615.72 536.96,-610.57 531.73,-605.92"/>
</a>
</g>
</g>
<!-- Node23 -->
<g id="Node000023" class="node">
<title>Node23</title>
<g id="a_Node000023"><a xlink:href="class_i_r_1_1_vector.html" target="_top" xlink:title=" ">
<polygon fill="white" stroke="#bfbfbf" points="807.5,-487 650.5,-487 650.5,-468 807.5,-468 807.5,-487"/>
<text text-anchor="middle" x="729" y="-475" font-family="Helvetica,sans-Serif" font-size="10.00">IR::Vector&lt; IR::ParserState &gt;</text>
</a>
</g>
</g>
<!-- Node9&#45;&gt;Node23 -->
<g id="edge22_Node000009_Node000023" class="edge">
<title>Node9&#45;&gt;Node23</title>
<g id="a_edge22_Node000009_Node000023"><a xlink:title=" ">
<path fill="none" stroke="#63b8ff" d="M529.63,-606.6C546.25,-577.6 582.18,-522.64 629,-495.5 635.65,-491.65 642.94,-488.58 650.45,-486.16"/>
<polygon fill="#63b8ff" stroke="#63b8ff" points="526.38,-605.25 524.57,-615.69 532.5,-608.65 526.38,-605.25"/>
</a>
</g>
</g>
<!-- Node24 -->
<g id="Node000024" class="node">
<title>Node24</title>
<g id="a_Node000024"><a xlink:href="class_i_r_1_1_vector.html" target="_top" xlink:title=" ">
<polygon fill="white" stroke="#bfbfbf" points="806.5,-450 651.5,-450 651.5,-431 806.5,-431 806.5,-450"/>
<text text-anchor="middle" x="729" y="-438" font-family="Helvetica,sans-Serif" font-size="10.00">IR::Vector&lt; IR::SelectCase &gt;</text>
</a>
</g>
</g>
<!-- Node9&#45;&gt;Node24 -->
<g id="edge23_Node000009_Node000024" class="edge">
<title>Node9&#45;&gt;Node24</title>
<g id="a_edge23_Node000009_Node000024"><a xlink:title=" ">
<path fill="none" stroke="#63b8ff" d="M526.18,-606.37C539.62,-570.92 573.47,-495.29 629,-458.5 635.84,-453.97 643.51,-450.49 651.47,-447.83"/>
<polygon fill="#63b8ff" stroke="#63b8ff" points="522.81,-605.4 522.66,-615.99 529.38,-607.8 522.81,-605.4"/>
</a>
</g>
</g>
<!-- Node25 -->
<g id="Node000025" class="node">
<title>Node25</title>
<g id="a_Node000025"><a xlink:href="class_i_r_1_1_vector.html" target="_top" xlink:title=" ">
<polygon fill="white" stroke="#bfbfbf" points="806.5,-413 651.5,-413 651.5,-394 806.5,-394 806.5,-413"/>
<text text-anchor="middle" x="729" y="-401" font-family="Helvetica,sans-Serif" font-size="10.00">IR::Vector&lt; IR::Expression &gt;</text>
</a>
</g>
</g>
<!-- Node9&#45;&gt;Node25 -->
<g id="edge24_Node000009_Node000025" class="edge">
<title>Node9&#45;&gt;Node25</title>
<g id="a_edge24_Node000009_Node000025"><a xlink:title=" ">
<path fill="none" stroke="#63b8ff" d="M523.93,-605.95C534.38,-564.61 564.69,-468.29 629,-421.5 635.71,-416.62 643.34,-412.93 651.31,-410.16"/>
<polygon fill="#63b8ff" stroke="#63b8ff" points="520.48,-605.31 521.54,-615.86 527.29,-606.95 520.48,-605.31"/>
</a>
</g>
</g>
<!-- Node26 -->
<g id="Node000026" class="node">
<title>Node26</title>
<g id="a_Node000026"><a xlink:href="class_i_r_1_1_vector.html" target="_top" xlink:title=" ">
<polygon fill="white" stroke="#bfbfbf" points="775.5,-376 682.5,-376 682.5,-357 775.5,-357 775.5,-376"/>
<text text-anchor="middle" x="729" y="-364" font-family="Helvetica,sans-Serif" font-size="10.00">IR::Vector&lt; N &gt;</text>
</a>
</g>
</g>
<!-- Node9&#45;&gt;Node26 -->
<g id="edge25_Node000009_Node000026" class="edge">
<title>Node9&#45;&gt;Node26</title>
<g id="a_edge25_Node000009_Node000026"><a xlink:title=" ">
<path fill="none" stroke="#63b8ff" d="M522.2,-606.01C529.74,-559.53 555.5,-441.79 629,-384.5 644.02,-372.79 664.2,-367.79 682.42,-365.91"/>
<polygon fill="#63b8ff" stroke="#63b8ff" points="518.73,-605.57 520.69,-615.98 525.65,-606.62 518.73,-605.57"/>
</a>
</g>
</g>
<!-- Node27 -->
<g id="Node000027" class="node">
<title>Node27</title>
<g id="a_Node000027"><a xlink:href="class_i_r_1_1_vector.html" target="_top" xlink:title=" ">
<polygon fill="white" stroke="#bfbfbf" points="806.5,-339 651.5,-339 651.5,-320 806.5,-320 806.5,-339"/>
<text text-anchor="middle" x="729" y="-327" font-family="Helvetica,sans-Serif" font-size="10.00">IR::Vector&lt; IR::Annotation &gt;</text>
</a>
</g>
</g>
<!-- Node9&#45;&gt;Node27 -->
<g id="edge26_Node000009_Node000027" class="edge">
<title>Node9&#45;&gt;Node27</title>
<g id="a_edge26_Node000009_Node000027"><a xlink:title=" ">
<path fill="none" stroke="#63b8ff" d="M520.92,-605.88C525.76,-554.53 546.27,-415.46 629,-347.5 635.61,-342.07 643.32,-338.05 651.47,-335.12"/>
<polygon fill="#63b8ff" stroke="#63b8ff" points="517.43,-605.7 520.07,-615.96 524.4,-606.29 517.43,-605.7"/>
</a>
</g>
</g>
<!-- Node28 -->
<g id="Node000028" class="node">
<title>Node28</title>
<g id="a_Node000028"><a xlink:href="class_i_r_1_1_vector.html" target="_top" xlink:title=" ">
<polygon fill="white" stroke="#bfbfbf" points="775,-302 683,-302 683,-283 775,-283 775,-302"/>
<text text-anchor="middle" x="729" y="-290" font-family="Helvetica,sans-Serif" font-size="10.00">IR::Vector&lt; T &gt;</text>
</a>
</g>
</g>
<!-- Node9&#45;&gt;Node28 -->
<g id="edge27_Node000009_Node000028" class="edge">
<title>Node9&#45;&gt;Node28</title>
<g id="a_edge27_Node000009_Node000028"><a xlink:title=" ">
<path fill="none" stroke="#63b8ff" d="M519.92,-605.6C522.25,-549.54 537.03,-389.24 629,-310.5 643.73,-297.89 664.3,-292.83 682.87,-291.15"/>
<polygon fill="#63b8ff" stroke="#63b8ff" points="516.41,-605.81 519.59,-615.92 523.41,-606.04 516.41,-605.81"/>
</a>
</g>
</g>
<!-- Node29 -->
<g id="Node000029" class="node">
<title>Node29</title>
<g id="a_Node000029"><a xlink:href="class_i_r_1_1_indexed_vector.html" target="_top" xlink:title=" ">
<polygon fill="white" stroke="#666666" points="1010,-595.5 865,-595.5 865,-565.5 1010,-565.5 1010,-595.5"/>
<text text-anchor="start" x="873" y="-583.5" font-family="Helvetica,sans-Serif" font-size="10.00">IR::IndexedVector&lt;</text>
<text text-anchor="middle" x="937.5" y="-572.5" font-family="Helvetica,sans-Serif" font-size="10.00"> IR::DpdkAsmStatement &gt;</text>
</a>
</g>
</g>
<!-- Node28&#45;&gt;Node29 -->
<g id="edge28_Node000028_Node000029" class="edge">
<title>Node28&#45;&gt;Node29</title>
<g id="a_edge28_Node000028_Node000029"><a xlink:title=" ">
<path fill="none" stroke="#63b8ff" d="M785.06,-290.81C801.22,-293.13 817.59,-298.69 829,-310.5 905.77,-389.97 794.14,-471.71 865,-556.5 867.85,-559.92 871.21,-562.85 874.89,-565.36"/>
<polygon fill="#63b8ff" stroke="#63b8ff" points="785.38,-287.33 775.07,-289.77 784.65,-294.29 785.38,-287.33"/>
</a>
</g>
</g>
<!-- Node30 -->
<g id="Node000030" class="node">
<title>Node30</title>
<g id="a_Node000030"><a xlink:href="class_i_r_1_1_indexed_vector.html" target="_top" xlink:title=" ">
<polygon fill="white" stroke="#666666" points="992.5,-547.5 882.5,-547.5 882.5,-517.5 992.5,-517.5 992.5,-547.5"/>
<text text-anchor="start" x="890.5" y="-535.5" font-family="Helvetica,sans-Serif" font-size="10.00">IR::IndexedVector&lt;</text>
<text text-anchor="middle" x="937.5" y="-524.5" font-family="Helvetica,sans-Serif" font-size="10.00"> IR::Node &gt;</text>
</a>
</g>
</g>
<!-- Node28&#45;&gt;Node30 -->
<g id="edge29_Node000028_Node000030" class="edge">
<title>Node28&#45;&gt;Node30</title>
<g id="a_edge29_Node000028_Node000030"><a xlink:title=" ">
<path fill="none" stroke="#63b8ff" d="M785.48,-291.15C801.41,-293.53 817.55,-299.05 829,-310.5 892.25,-373.75 806.47,-440.87 865,-508.5 869.71,-513.95 875.7,-518.16 882.2,-521.42"/>
<polygon fill="#63b8ff" stroke="#63b8ff" points="785.42,-287.62 775.1,-290.01 784.65,-294.58 785.42,-287.62"/>
</a>
</g>
</g>
<!-- Node31 -->
<g id="Node000031" class="node">
<title>Node31</title>
<g id="a_Node000031"><a xlink:href="class_i_r_1_1_indexed_vector.html" target="_top" xlink:title=" ">
<polygon fill="white" stroke="#666666" points="992.5,-499.5 882.5,-499.5 882.5,-469.5 992.5,-469.5 992.5,-499.5"/>
<text text-anchor="start" x="890.5" y="-487.5" font-family="Helvetica,sans-Serif" font-size="10.00">IR::IndexedVector&lt;</text>
<text text-anchor="middle" x="937.5" y="-476.5" font-family="Helvetica,sans-Serif" font-size="10.00"> IR::Declaration &gt;</text>
</a>
</g>
</g>
<!-- Node28&#45;&gt;Node31 -->
<g id="edge30_Node000028_Node000031" class="edge">
<title>Node28&#45;&gt;Node31</title>
<g id="a_edge30_Node000028_Node000031"><a xlink:title=" ">
<path fill="none" stroke="#63b8ff" d="M785.52,-291.61C801.3,-294.04 817.34,-299.47 829,-310.5 878.81,-357.61 818.71,-409.93 865,-460.5 869.86,-465.81 875.94,-469.95 882.48,-473.17"/>
<polygon fill="#63b8ff" stroke="#63b8ff" points="785.58,-288.09 775.24,-290.42 784.77,-295.05 785.58,-288.09"/>
</a>
</g>
</g>
<!-- Node32 -->
<g id="Node000032" class="node">
<title>Node32</title>
<g id="a_Node000032"><a xlink:href="class_i_r_1_1_indexed_vector.html" target="_top" xlink:title=" ">
<polygon fill="white" stroke="#666666" points="992.5,-451.5 882.5,-451.5 882.5,-421.5 992.5,-421.5 992.5,-451.5"/>
<text text-anchor="start" x="890.5" y="-439.5" font-family="Helvetica,sans-Serif" font-size="10.00">IR::IndexedVector&lt;</text>
<text text-anchor="middle" x="937.5" y="-428.5" font-family="Helvetica,sans-Serif" font-size="10.00"> IR::StatOrDecl &gt;</text>
</a>
</g>
</g>
<!-- Node28&#45;&gt;Node32 -->
<g id="edge31_Node000028_Node000032" class="edge">
<title>Node28&#45;&gt;Node32</title>
<g id="a_edge31_Node000028_Node000032"><a xlink:title=" ">
<path fill="none" stroke="#63b8ff" d="M785.26,-292.44C800.87,-294.93 816.89,-300.18 829,-310.5 865.59,-341.68 830.75,-378.77 865,-412.5 869.94,-417.37 875.91,-421.25 882.25,-424.35"/>
<polygon fill="#63b8ff" stroke="#63b8ff" points="785.45,-288.94 775.1,-291.18 784.59,-295.88 785.45,-288.94"/>
</a>
</g>
</g>
<!-- Node33 -->
<g id="Node000033" class="node">
<title>Node33</title>
<g id="a_Node000033"><a xlink:href="class_i_r_1_1_indexed_vector.html" target="_top" xlink:title=" ">
<polygon fill="white" stroke="#666666" points="992.5,-403.5 882.5,-403.5 882.5,-373.5 992.5,-373.5 992.5,-403.5"/>
<text text-anchor="start" x="890.5" y="-391.5" font-family="Helvetica,sans-Serif" font-size="10.00">IR::IndexedVector&lt;</text>
<text text-anchor="middle" x="937.5" y="-380.5" font-family="Helvetica,sans-Serif" font-size="10.00"> IR::DpdkTable &gt;</text>
</a>
</g>
</g>
<!-- Node28&#45;&gt;Node33 -->
<g id="edge32_Node000028_Node000033" class="edge">
<title>Node28&#45;&gt;Node33</title>
<g id="a_edge32_Node000028_Node000033"><a xlink:title=" ">
<path fill="none" stroke="#63b8ff" d="M785.48,-294.7C800.53,-297.32 816.19,-302.08 829,-310.5 853.11,-326.34 842.1,-346.97 865,-364.5 870.2,-368.48 876.09,-371.82 882.22,-374.62"/>
<polygon fill="#63b8ff" stroke="#63b8ff" points="785.6,-291.18 775.2,-293.2 784.59,-298.11 785.6,-291.18"/>
</a>
</g>
</g>
<!-- Node34 -->
<g id="Node000034" class="node">
<title>Node34</title>
<g id="a_Node000034"><a xlink:href="class_i_r_1_1_indexed_vector.html" target="_top" xlink:title=" ">
<polygon fill="white" stroke="#666666" points="993.5,-355.5 881.5,-355.5 881.5,-325.5 993.5,-325.5 993.5,-355.5"/>
<text text-anchor="start" x="889.5" y="-343.5" font-family="Helvetica,sans-Serif" font-size="10.00">IR::IndexedVector&lt;</text>
<text text-anchor="middle" x="937.5" y="-332.5" font-family="Helvetica,sans-Serif" font-size="10.00"> IR::DpdkSelector &gt;</text>
</a>
</g>
</g>
<!-- Node28&#45;&gt;Node34 -->
<g id="edge33_Node000028_Node000034" class="edge">
<title>Node28&#45;&gt;Node34</title>
<g id="a_edge33_Node000028_Node000034"><a xlink:title=" ">
<path fill="none" stroke="#63b8ff" d="M785.23,-301.61C799.54,-304.23 814.89,-307.26 829,-310.5 847.88,-314.84 868.42,-320.37 886.43,-325.49"/>
<polygon fill="#63b8ff" stroke="#63b8ff" points="785.49,-298.1 775.03,-299.78 784.25,-304.99 785.49,-298.1"/>
</a>
</g>
</g>
<!-- Node35 -->
<g id="Node000035" class="node">
<title>Node35</title>
<g id="a_Node000035"><a xlink:href="class_i_r_1_1_indexed_vector.html" target="_top" xlink:title=" ">
<polygon fill="white" stroke="#666666" points="992.5,-307.5 882.5,-307.5 882.5,-277.5 992.5,-277.5 992.5,-307.5"/>
<text text-anchor="start" x="890.5" y="-295.5" font-family="Helvetica,sans-Serif" font-size="10.00">IR::IndexedVector&lt;</text>
<text text-anchor="middle" x="937.5" y="-284.5" font-family="Helvetica,sans-Serif" font-size="10.00"> IR::DpdkLearner &gt;</text>
</a>
</g>
</g>
<!-- Node28&#45;&gt;Node35 -->
<g id="edge34_Node000028_Node000035" class="edge">
<title>Node28&#45;&gt;Node35</title>
<g id="a_edge34_Node000028_Node000035"><a xlink:title=" ">
<path fill="none" stroke="#63b8ff" d="M785.39,-292.5C815.46,-292.5 852.49,-292.5 882.37,-292.5"/>
<polygon fill="#63b8ff" stroke="#63b8ff" points="785.06,-289 775.06,-292.5 785.06,-296 785.06,-289"/>
</a>
</g>
</g>
<!-- Node36 -->
<g id="Node000036" class="node">
<title>Node36</title>
<g id="a_Node000036"><a xlink:href="class_i_r_1_1_indexed_vector.html" target="_top" xlink:title=" ">
<polygon fill="white" stroke="#666666" points="992.5,-259.5 882.5,-259.5 882.5,-229.5 992.5,-229.5 992.5,-259.5"/>
<text text-anchor="start" x="890.5" y="-247.5" font-family="Helvetica,sans-Serif" font-size="10.00">IR::IndexedVector&lt;</text>
<text text-anchor="middle" x="937.5" y="-236.5" font-family="Helvetica,sans-Serif" font-size="10.00"> IR::DpdkAction &gt;</text>
</a>
</g>
</g>
<!-- Node28&#45;&gt;Node36 -->
<g id="edge35_Node000028_Node000036" class="edge">
<title>Node28&#45;&gt;Node36</title>
<g id="a_edge35_Node000028_Node000036"><a xlink:title=" ">
<path fill="none" stroke="#63b8ff" d="M781.37,-280.56C812.11,-273.41 851.13,-264.34 882.35,-257.09"/>
<polygon fill="#63b8ff" stroke="#63b8ff" points="780.24,-277.23 771.29,-282.9 781.82,-284.05 780.24,-277.23"/>
</a>
</g>
</g>
<!-- Node37 -->
<g id="Node000037" class="node">
<title>Node37</title>
<g id="a_Node000037"><a xlink:href="class_i_r_1_1_indexed_vector.html" target="_top" xlink:title=" ">
<polygon fill="white" stroke="#666666" points="992.5,-211.5 882.5,-211.5 882.5,-181.5 992.5,-181.5 992.5,-211.5"/>
<text text-anchor="start" x="890.5" y="-199.5" font-family="Helvetica,sans-Serif" font-size="10.00">IR::IndexedVector&lt;</text>
<text text-anchor="middle" x="937.5" y="-188.5" font-family="Helvetica,sans-Serif" font-size="10.00"> IR::Parameter &gt;</text>
</a>
</g>
</g>
<!-- Node28&#45;&gt;Node37 -->
<g id="edge36_Node000028_Node000037" class="edge">
<title>Node28&#45;&gt;Node37</title>
<g id="a_edge36_Node000028_Node000037"><a xlink:title=" ">
<path fill="none" stroke="#63b8ff" d="M754.42,-277.88C781,-262.35 825.07,-237.71 865,-220.5 872.34,-217.34 880.23,-214.32 888.01,-211.56"/>
<polygon fill="#63b8ff" stroke="#63b8ff" points="752.62,-274.88 745.78,-282.97 756.17,-280.91 752.62,-274.88"/>
</a>
</g>
</g>
<!-- Node38 -->
<g id="Node000038" class="node">
<title>Node38</title>
<g id="a_Node000038"><a xlink:href="class_i_r_1_1_indexed_vector.html" target="_top" xlink:title=" ">
<polygon fill="white" stroke="#666666" points="1001.5,-163.5 873.5,-163.5 873.5,-133.5 1001.5,-133.5 1001.5,-163.5"/>
<text text-anchor="start" x="881.5" y="-151.5" font-family="Helvetica,sans-Serif" font-size="10.00">IR::IndexedVector&lt;</text>
<text text-anchor="middle" x="937.5" y="-140.5" font-family="Helvetica,sans-Serif" font-size="10.00"> IR::DpdkDeclaration &gt;</text>
</a>
</g>
</g>
<!-- Node28&#45;&gt;Node38 -->
<g id="edge37_Node000028_Node000038" class="edge">
<title>Node28&#45;&gt;Node38</title>
<g id="a_edge37_Node000028_Node000038"><a xlink:title=" ">
<path fill="none" stroke="#63b8ff" d="M744.84,-275.51C768.08,-249.84 815.55,-201.16 865,-172.5 870.78,-169.15 877.09,-166.18 883.5,-163.58"/>
<polygon fill="#63b8ff" stroke="#63b8ff" points="742.22,-273.18 738.17,-282.97 747.44,-277.84 742.22,-273.18"/>
</a>
</g>
</g>
<!-- Node39 -->
<g id="Node000039" class="node">
<title>Node39</title>
<g id="a_Node000039"><a xlink:href="class_i_r_1_1_indexed_vector.html" target="_top" xlink:title=" ">
<polygon fill="white" stroke="#666666" points="992.5,-115.5 882.5,-115.5 882.5,-85.5 992.5,-85.5 992.5,-115.5"/>
<text text-anchor="start" x="890.5" y="-103.5" font-family="Helvetica,sans-Serif" font-size="10.00">IR::IndexedVector&lt;</text>
<text text-anchor="middle" x="937.5" y="-92.5" font-family="Helvetica,sans-Serif" font-size="10.00"> IR::StructField &gt;</text>
</a>
</g>
</g>
<!-- Node28&#45;&gt;Node39 -->
<g id="edge38_Node000028_Node000039" class="edge">
<title>Node28&#45;&gt;Node39</title>
<g id="a_edge38_Node000028_Node000039"><a xlink:title=" ">
<path fill="none" stroke="#63b8ff" d="M740.03,-273.98C759.58,-239.58 806.06,-165.6 865,-124.5 870.26,-120.83 876.13,-117.69 882.18,-115"/>
<polygon fill="#63b8ff" stroke="#63b8ff" points="736.85,-272.5 735.04,-282.94 742.97,-275.9 736.85,-272.5"/>
</a>
</g>
</g>
<!-- Node40 -->
<g id="Node000040" class="node">
<title>Node40</title>
<g id="a_Node000040"><a xlink:href="class_i_r_1_1_indexed_vector.html" target="_top" xlink:title=" ">
<polygon fill="white" stroke="#666666" points="992.5,-67.5 882.5,-67.5 882.5,-37.5 992.5,-37.5 992.5,-67.5"/>
<text text-anchor="start" x="890.5" y="-55.5" font-family="Helvetica,sans-Serif" font-size="10.00">IR::IndexedVector&lt;</text>
<text text-anchor="middle" x="937.5" y="-44.5" font-family="Helvetica,sans-Serif" font-size="10.00"> IR::ParserState &gt;</text>
</a>
</g>
</g>
<!-- Node28&#45;&gt;Node40 -->
<g id="edge39_Node000028_Node000040" class="edge">
<title>Node28&#45;&gt;Node40</title>
<g id="a_edge39_Node000028_Node000040"><a xlink:title=" ">
<path fill="none" stroke="#63b8ff" d="M736.89,-273.06C752.79,-231 796.02,-130.93 865,-76.5 870.24,-72.36 876.23,-68.92 882.47,-66.06"/>
<polygon fill="#63b8ff" stroke="#63b8ff" points="733.53,-272.07 733.37,-282.66 740.1,-274.48 733.53,-272.07"/>
</a>
</g>
</g>
<!-- Node41 -->
<g id="Node000041" class="node">
<title>Node41</title>
<g id="a_Node000041"><a xlink:href="class_i_r_1_1_indexed_vector.html" target="_top" xlink:title=" ">
<polygon fill="white" stroke="#666666" points="1002.5,-19 872.5,-19 872.5,0 1002.5,0 1002.5,-19"/>
<text text-anchor="middle" x="937.5" y="-7" font-family="Helvetica,sans-Serif" font-size="10.00">IR::IndexedVector&lt; T &gt;</text>
</a>
</g>
</g>
<!-- Node28&#45;&gt;Node41 -->
<g id="edge40_Node000028_Node000041" class="edge">
<title>Node28&#45;&gt;Node41</title>
<g id="a_edge40_Node000028_Node000041"><a xlink:title=" ">
<path fill="none" stroke="#63b8ff" d="M734.23,-272.82C745.87,-223.65 783.04,-94.63 865,-28.5 869.8,-24.63 875.31,-21.54 881.1,-19.08"/>
<polygon fill="#63b8ff" stroke="#63b8ff" points="730.77,-272.26 731.97,-282.79 737.6,-273.81 730.77,-272.26"/>
</a>
</g>
</g>
</g>
</svg>
