<?xml version="1.0" encoding="UTF-8" standalone="no"?>
<!DOCTYPE svg PUBLIC "-//W3C//DTD SVG 1.1//EN"
 "http://www.w3.org/Graphics/SVG/1.1/DTD/svg11.dtd">
<!-- Generated by graphviz version 2.43.0 (0)
 -->
<!-- Title: P4::ProgramPoint Pages: 1 -->
<svg width="185pt" height="85pt"
 viewBox="0.00 0.00 185.00 85.00" xmlns="http://www.w3.org/2000/svg" xmlns:xlink="http://www.w3.org/1999/xlink">
<g id="graph0" class="graph" transform="scale(1 1) rotate(0) translate(4 81)">
<title>P4::ProgramPoint</title>
<polygon fill="white" stroke="transparent" points="-4,4 -4,-81 181,-81 181,4 -4,4"/>
<!-- Node1 -->
<g id="node1" class="node">
<title>Node1</title>
<g id="a_node1"><a xlink:title="Indicates a statement in the program.">
<polygon fill="#bfbfbf" stroke="black" points="0,-0.5 0,-19.5 101,-19.5 101,-0.5 0,-0.5"/>
<text text-anchor="middle" x="50.5" y="-7.5" font-family="Helvetica,sans-Serif" font-size="10.00">P4::ProgramPoint</text>
</a>
</g>
</g>
<!-- Node1&#45;&gt;Node1 -->
<g id="edge2" class="edge">
<title>Node1&#45;&gt;Node1</title>
<path fill="none" stroke="#9a32cd" stroke-dasharray="5,2" d="M111.43,-13.95C116.11,-13.08 119,-11.76 119,-10 119,-7.18 111.61,-5.5 101.28,-4.95"/>
<polygon fill="#9a32cd" stroke="#9a32cd" points="110.85,-10.49 101.28,-15.05 111.6,-17.45 110.85,-10.49"/>
<text text-anchor="middle" x="148" y="-7.5" font-family="Helvetica,sans-Serif" font-size="10.00"> beforeStart</text>
</g>
<!-- Node2 -->
<g id="node2" class="node">
<title>Node2</title>
<g id="a_node2"><a xlink:href="class_i_has_db_print.html" target="_top" xlink:title=" ">
<polygon fill="white" stroke="black" points="13.5,-57.5 13.5,-76.5 87.5,-76.5 87.5,-57.5 13.5,-57.5"/>
<text text-anchor="middle" x="50.5" y="-64.5" font-family="Helvetica,sans-Serif" font-size="10.00">IHasDbPrint</text>
</a>
</g>
</g>
<!-- Node2&#45;&gt;Node1 -->
<g id="edge1" class="edge">
<title>Node2&#45;&gt;Node1</title>
<path fill="none" stroke="midnightblue" d="M50.5,-47.12C50.5,-37.82 50.5,-27.06 50.5,-19.71"/>
<polygon fill="midnightblue" stroke="midnightblue" points="47,-47.41 50.5,-57.41 54,-47.41 47,-47.41"/>
</g>
</g>
</svg>
