<?xml version="1.0" encoding="UTF-8" standalone="no"?>
<!DOCTYPE svg PUBLIC "-//W3C//DTD SVG 1.1//EN"
 "http://www.w3.org/Graphics/SVG/1.1/DTD/svg11.dtd">
<!-- Generated by graphviz version 2.43.0 (0)
 -->
<!-- Title: P4::IndexedLocation Pages: 1 -->
<svg width="287pt" height="211pt"
 viewBox="0.00 0.00 287.00 211.00" xmlns="http://www.w3.org/2000/svg" xmlns:xlink="http://www.w3.org/1999/xlink">
<g id="graph0" class="graph" transform="scale(1 1) rotate(0) translate(4 207)">
<title>P4::IndexedLocation</title>
<polygon fill="white" stroke="transparent" points="-4,4 -4,-207 283,-207 283,4 -4,4"/>
<!-- Node1 -->
<g id="node1" class="node">
<title>Node1</title>
<g id="a_node1"><a xlink:title="Interface for locations that support an index operation.">
<polygon fill="#bfbfbf" stroke="black" points="66,-0.5 66,-19.5 180,-19.5 180,-0.5 66,-0.5"/>
<text text-anchor="middle" x="123" y="-7.5" font-family="Helvetica,sans-Serif" font-size="10.00">P4::IndexedLocation</text>
</a>
</g>
</g>
<!-- Node2 -->
<g id="node2" class="node">
<title>Node2</title>
<g id="a_node2"><a xlink:href="class_p4_1_1_storage_location.html" target="_top" xlink:title="Abstraction for something that is has a left value (variable, parameter)">
<polygon fill="white" stroke="black" points="66.5,-57.5 66.5,-76.5 179.5,-76.5 179.5,-57.5 66.5,-57.5"/>
<text text-anchor="middle" x="123" y="-64.5" font-family="Helvetica,sans-Serif" font-size="10.00">P4::StorageLocation</text>
</a>
</g>
</g>
<!-- Node2&#45;&gt;Node1 -->
<g id="edge1" class="edge">
<title>Node2&#45;&gt;Node1</title>
<path fill="none" stroke="midnightblue" d="M123,-47.12C123,-37.82 123,-27.06 123,-19.71"/>
<polygon fill="midnightblue" stroke="midnightblue" points="119.5,-47.41 123,-57.41 126.5,-47.41 119.5,-47.41"/>
</g>
<!-- Node3 -->
<g id="node3" class="node">
<title>Node3</title>
<g id="a_node3"><a xlink:href="class_i_has_db_print.html" target="_top" xlink:title=" ">
<polygon fill="white" stroke="black" points="0,-125.5 0,-144.5 74,-144.5 74,-125.5 0,-125.5"/>
<text text-anchor="middle" x="37" y="-132.5" font-family="Helvetica,sans-Serif" font-size="10.00">IHasDbPrint</text>
</a>
</g>
</g>
<!-- Node3&#45;&gt;Node2 -->
<g id="edge2" class="edge">
<title>Node3&#45;&gt;Node2</title>
<path fill="none" stroke="midnightblue" d="M56.42,-119.1C73.48,-106 97.72,-87.4 111.75,-76.63"/>
<polygon fill="midnightblue" stroke="midnightblue" points="54.05,-116.51 48.24,-125.37 58.31,-122.06 54.05,-116.51"/>
</g>
<!-- Node4 -->
<g id="node4" class="node">
<title>Node4</title>
<g id="a_node4"><a xlink:href="class_i_castable.html" target="_top" xlink:title=" ">
<polygon fill="white" stroke="black" points="92,-125.5 92,-144.5 154,-144.5 154,-125.5 92,-125.5"/>
<text text-anchor="middle" x="123" y="-132.5" font-family="Helvetica,sans-Serif" font-size="10.00">ICastable</text>
</a>
</g>
</g>
<!-- Node4&#45;&gt;Node2 -->
<g id="edge3" class="edge">
<title>Node4&#45;&gt;Node2</title>
<path fill="none" stroke="midnightblue" d="M123,-115.04C123,-102.47 123,-86.56 123,-76.84"/>
<polygon fill="midnightblue" stroke="midnightblue" points="119.5,-115.37 123,-125.37 126.5,-115.37 119.5,-115.37"/>
</g>
<!-- Node5 -->
<g id="node5" class="node">
<title>Node5</title>
<g id="a_node5"><a xlink:href="struct_r_t_t_i_1_1_base.html" target="_top" xlink:title=" ">
<polygon fill="white" stroke="black" points="89,-183.5 89,-202.5 157,-202.5 157,-183.5 89,-183.5"/>
<text text-anchor="middle" x="123" y="-190.5" font-family="Helvetica,sans-Serif" font-size="10.00">RTTI::Base</text>
</a>
</g>
</g>
<!-- Node5&#45;&gt;Node4 -->
<g id="edge4" class="edge">
<title>Node5&#45;&gt;Node4</title>
<path fill="none" stroke="midnightblue" d="M123,-172.95C123,-163.29 123,-152.03 123,-144.51"/>
<polygon fill="midnightblue" stroke="midnightblue" points="119.5,-173.25 123,-183.25 126.5,-173.25 119.5,-173.25"/>
</g>
<!-- Node6 -->
<g id="node6" class="node">
<title>Node6</title>
<g id="a_node6"><a xlink:href="classcstring.html" target="_top" xlink:title=" ">
<polygon fill="white" stroke="black" points="172,-125.5 172,-144.5 222,-144.5 222,-125.5 172,-125.5"/>
<text text-anchor="middle" x="197" y="-132.5" font-family="Helvetica,sans-Serif" font-size="10.00">cstring</text>
</a>
</g>
</g>
<!-- Node6&#45;&gt;Node2 -->
<g id="edge5" class="edge">
<title>Node6&#45;&gt;Node2</title>
<path fill="none" stroke="#9a32cd" stroke-dasharray="5,2" d="M179.52,-118.41C164.99,-105.45 144.81,-87.46 132.91,-76.84"/>
<polygon fill="#9a32cd" stroke="#9a32cd" points="177.53,-121.33 187.33,-125.37 182.19,-116.1 177.53,-121.33"/>
<text text-anchor="middle" x="180.5" y="-98" font-family="Helvetica,sans-Serif" font-size="10.00"> name</text>
</g>
<!-- Node6&#45;&gt;Node6 -->
<g id="edge6" class="edge">
<title>Node6&#45;&gt;Node6</title>
<path fill="none" stroke="#9a32cd" stroke-dasharray="5,2" d="M232.45,-139.6C237,-138.8 240,-137.27 240,-135 240,-131.28 231.91,-129.54 222.18,-129.77"/>
<polygon fill="#9a32cd" stroke="#9a32cd" points="231.94,-136.12 222.18,-140.23 232.37,-143.11 231.94,-136.12"/>
<text text-anchor="middle" x="259.5" y="-138" font-family="Helvetica,sans-Serif" font-size="10.00"> empty</text>
<text text-anchor="middle" x="259.5" y="-127" font-family="Helvetica,sans-Serif" font-size="10.00">newline</text>
</g>
</g>
</svg>
