<?xml version="1.0" encoding="UTF-8" standalone="no"?>
<!DOCTYPE svg PUBLIC "-//W3C//DTD SVG 1.1//EN"
 "http://www.w3.org/Graphics/SVG/1.1/DTD/svg11.dtd">
<!-- Generated by graphviz version 2.43.0 (0)
 -->
<!-- Title: DPDK::CopyMatchKeysToSingleStruct Pages: 1 -->
<svg width="1096pt" height="370pt"
 viewBox="0.00 0.00 1096.00 369.50" xmlns="http://www.w3.org/2000/svg" xmlns:xlink="http://www.w3.org/1999/xlink">
<g id="graph0" class="graph" transform="scale(1 1) rotate(0) translate(4 365.5)">
<title>DPDK::CopyMatchKeysToSingleStruct</title>
<polygon fill="white" stroke="transparent" points="-4,4 -4,-365.5 1092,-365.5 1092,4 -4,4"/>
<!-- Node1 -->
<g id="node1" class="node">
<title>Node1</title>
<g id="a_node1"><a xlink:title=" ">
<polygon fill="#bfbfbf" stroke="black" points="919,-117.5 919,-147.5 1088,-147.5 1088,-117.5 919,-117.5"/>
<text text-anchor="start" x="927" y="-135.5" font-family="Helvetica,sans-Serif" font-size="10.00">DPDK::CopyMatchKeysToSingle</text>
<text text-anchor="middle" x="1003.5" y="-124.5" font-family="Helvetica,sans-Serif" font-size="10.00">Struct</text>
</a>
</g>
</g>
<!-- Node2 -->
<g id="node2" class="node">
<title>Node2</title>
<g id="a_node2"><a xlink:href="class_p4_1_1_key_side_effect.html" target="_top" xlink:title=" ">
<polygon fill="white" stroke="black" points="775.5,-123 775.5,-142 876.5,-142 876.5,-123 775.5,-123"/>
<text text-anchor="middle" x="826" y="-130" font-family="Helvetica,sans-Serif" font-size="10.00">P4::KeySideEffect</text>
</a>
</g>
</g>
<!-- Node2&#45;&gt;Node1 -->
<g id="edge1" class="edge">
<title>Node2&#45;&gt;Node1</title>
<path fill="none" stroke="midnightblue" d="M886.86,-132.5C897.12,-132.5 907.94,-132.5 918.68,-132.5"/>
<polygon fill="midnightblue" stroke="midnightblue" points="886.82,-129 876.82,-132.5 886.82,-136 886.82,-129"/>
</g>
<!-- Node3 -->
<g id="node3" class="node">
<title>Node3</title>
<g id="a_node3"><a xlink:href="class_transform.html" target="_top" xlink:title=" ">
<polygon fill="white" stroke="black" points="540,-199 540,-218 605,-218 605,-199 540,-199"/>
<text text-anchor="middle" x="572.5" y="-206" font-family="Helvetica,sans-Serif" font-size="10.00">Transform</text>
</a>
</g>
</g>
<!-- Node3&#45;&gt;Node2 -->
<g id="edge2" class="edge">
<title>Node3&#45;&gt;Node2</title>
<path fill="none" stroke="midnightblue" d="M615.55,-203.25C652.33,-197.86 706.77,-187.88 752,-171.5 773.21,-163.82 795.86,-150.89 810.21,-142.04"/>
<polygon fill="midnightblue" stroke="midnightblue" points="614.61,-199.85 605.2,-204.72 615.6,-206.78 614.61,-199.85"/>
</g>
<!-- Node4 -->
<g id="node4" class="node">
<title>Node4</title>
<g id="a_node4"><a xlink:href="class_visitor.html" target="_top" xlink:title=" ">
<polygon fill="white" stroke="black" points="308.5,-245 308.5,-264 356.5,-264 356.5,-245 308.5,-245"/>
<text text-anchor="middle" x="332.5" y="-252" font-family="Helvetica,sans-Serif" font-size="10.00">Visitor</text>
</a>
</g>
</g>
<!-- Node4&#45;&gt;Node3 -->
<g id="edge3" class="edge">
<title>Node4&#45;&gt;Node3</title>
<path fill="none" stroke="midnightblue" d="M366.79,-248.07C412.71,-239.19 494.91,-223.3 539.91,-214.6"/>
<polygon fill="midnightblue" stroke="midnightblue" points="365.91,-244.67 356.75,-250.01 367.24,-251.54 365.91,-244.67"/>
</g>
<!-- Node4&#45;&gt;Node4 -->
<g id="edge11" class="edge">
<title>Node4&#45;&gt;Node4</title>
<path fill="none" stroke="#9a32cd" stroke-dasharray="5,2" d="M313.24,-273.9C314.53,-278.81 320.95,-282.5 332.5,-282.5 350.98,-282.5 356.33,-273.07 348.53,-264.26"/>
<polygon fill="#9a32cd" stroke="#9a32cd" points="316.61,-274.85 316.47,-264.26 309.98,-272.63 316.61,-274.85"/>
<text text-anchor="middle" x="332.5" y="-285.5" font-family="Helvetica,sans-Serif" font-size="10.00"> called_by</text>
</g>
<!-- Node6 -->
<g id="node6" class="node">
<title>Node6</title>
<g id="a_node6"><a xlink:href="class_split_flow_visit__base.html" target="_top" xlink:title=" ">
<polygon fill="white" stroke="black" points="770,-292 770,-311 882,-311 882,-292 770,-292"/>
<text text-anchor="middle" x="826" y="-299" font-family="Helvetica,sans-Serif" font-size="10.00">SplitFlowVisit_base</text>
</a>
</g>
</g>
<!-- Node4&#45;&gt;Node6 -->
<g id="edge10" class="edge">
<title>Node4&#45;&gt;Node6</title>
<path fill="none" stroke="#9a32cd" stroke-dasharray="5,2" d="M366.55,-252.57C426.39,-249.64 556.57,-245.83 665,-260.5 711.74,-266.82 764.48,-281.95 796.21,-291.95"/>
<polygon fill="#9a32cd" stroke="#9a32cd" points="366.35,-249.08 356.55,-253.09 366.71,-256.07 366.35,-249.08"/>
<text text-anchor="middle" x="572.5" y="-263.5" font-family="Helvetica,sans-Serif" font-size="10.00"> v</text>
</g>
<!-- Node7 -->
<g id="node7" class="node">
<title>Node7</title>
<g id="a_node7"><a xlink:title=" ">
<polygon fill="white" stroke="#bfbfbf" points="507,-342 507,-361 638,-361 638,-342 507,-342"/>
<text text-anchor="middle" x="572.5" y="-349" font-family="Helvetica,sans-Serif" font-size="10.00">std::vector&lt; Visitor * &gt;</text>
</a>
</g>
</g>
<!-- Node4&#45;&gt;Node7 -->
<g id="edge9" class="edge">
<title>Node4&#45;&gt;Node7</title>
<path fill="none" stroke="#9a32cd" stroke-dasharray="5,2" d="M350.9,-271.46C366.09,-285.33 389.35,-304.4 413,-315.5 442.38,-329.29 477.34,-337.96 506.95,-343.32"/>
<polygon fill="#9a32cd" stroke="#9a32cd" points="353.03,-268.66 343.34,-264.37 348.24,-273.77 353.03,-268.66"/>
<text text-anchor="middle" x="437.5" y="-334.5" font-family="Helvetica,sans-Serif" font-size="10.00"> elements</text>
</g>
<!-- Node5 -->
<g id="node5" class="node">
<title>Node5</title>
<g id="a_node5"><a xlink:href="classcstring.html" target="_top" xlink:title=" ">
<polygon fill="white" stroke="black" points="57,-227 57,-246 107,-246 107,-227 57,-227"/>
<text text-anchor="middle" x="82" y="-234" font-family="Helvetica,sans-Serif" font-size="10.00">cstring</text>
</a>
</g>
</g>
<!-- Node5&#45;&gt;Node4 -->
<g id="edge4" class="edge">
<title>Node5&#45;&gt;Node4</title>
<path fill="none" stroke="#9a32cd" stroke-dasharray="5,2" d="M117.55,-239C168.97,-242.73 264.28,-249.63 308.21,-252.81"/>
<polygon fill="#9a32cd" stroke="#9a32cd" points="117.51,-235.49 107.28,-238.26 117,-242.47 117.51,-235.49"/>
<text text-anchor="middle" x="217" y="-251.5" font-family="Helvetica,sans-Serif" font-size="10.00"> internalName</text>
</g>
<!-- Node5&#45;&gt;Node5 -->
<g id="edge5" class="edge">
<title>Node5&#45;&gt;Node5</title>
<path fill="none" stroke="#9a32cd" stroke-dasharray="5,2" d="M57.07,-255.53C58.43,-260.63 66.74,-264.5 82,-264.5 105.82,-264.5 112.7,-255.07 102.65,-246.26"/>
<polygon fill="#9a32cd" stroke="#9a32cd" points="60.34,-256.8 61.35,-246.26 53.98,-253.87 60.34,-256.8"/>
<text text-anchor="middle" x="82" y="-278.5" font-family="Helvetica,sans-Serif" font-size="10.00"> empty</text>
<text text-anchor="middle" x="82" y="-267.5" font-family="Helvetica,sans-Serif" font-size="10.00">newline</text>
</g>
<!-- Node9 -->
<g id="node9" class="node">
<title>Node9</title>
<g id="a_node9"><a xlink:href="class_p4_1_1_program_map.html" target="_top" xlink:title=" ">
<polygon fill="white" stroke="black" points="284,-173 284,-192 381,-192 381,-173 284,-173"/>
<text text-anchor="middle" x="332.5" y="-180" font-family="Helvetica,sans-Serif" font-size="10.00">P4::ProgramMap</text>
</a>
</g>
</g>
<!-- Node5&#45;&gt;Node9 -->
<g id="edge15" class="edge">
<title>Node5&#45;&gt;Node9</title>
<path fill="none" stroke="#9a32cd" stroke-dasharray="5,2" d="M117.28,-229.05C161.63,-219.41 238.96,-202.61 287.57,-192.05"/>
<polygon fill="#9a32cd" stroke="#9a32cd" points="116.31,-225.68 107.28,-231.22 117.79,-232.52 116.31,-225.68"/>
<text text-anchor="middle" x="217" y="-216.5" font-family="Helvetica,sans-Serif" font-size="10.00"> mapKind</text>
</g>
<!-- Node6&#45;&gt;Node4 -->
<g id="edge6" class="edge">
<title>Node6&#45;&gt;Node4</title>
<path fill="none" stroke="#9a32cd" stroke-dasharray="5,2" d="M759.75,-298.18C678.35,-293.6 535.01,-284.09 413,-268.5 393.96,-266.07 372.53,-262.23 356.72,-259.19"/>
<polygon fill="#9a32cd" stroke="#9a32cd" points="759.67,-301.68 769.85,-298.74 760.06,-294.69 759.67,-301.68"/>
<text text-anchor="middle" x="572.5" y="-305.5" font-family="Helvetica,sans-Serif" font-size="10.00"> split_link</text>
<text text-anchor="middle" x="572.5" y="-294.5" font-family="Helvetica,sans-Serif" font-size="10.00">split_link_mem</text>
</g>
<!-- Node6&#45;&gt;Node6 -->
<g id="edge7" class="edge">
<title>Node6&#45;&gt;Node6</title>
<path fill="none" stroke="#9a32cd" stroke-dasharray="5,2" d="M812.37,-321.27C813.44,-326 817.99,-329.5 826,-329.5 839.15,-329.5 842.95,-320.07 837.41,-311.26"/>
<polygon fill="#9a32cd" stroke="#9a32cd" points="815.84,-321.78 814.59,-311.26 809.01,-320.26 815.84,-321.78"/>
<text text-anchor="middle" x="826" y="-332.5" font-family="Helvetica,sans-Serif" font-size="10.00"> prev</text>
</g>
<!-- Node7&#45;&gt;Node6 -->
<g id="edge8" class="edge">
<title>Node7&#45;&gt;Node6</title>
<path fill="none" stroke="#9a32cd" stroke-dasharray="5,2" d="M631.39,-339.99C675.46,-331.23 735.39,-319.31 776.85,-311.07"/>
<polygon fill="#9a32cd" stroke="#9a32cd" points="630.52,-336.59 621.4,-341.98 631.89,-343.46 630.52,-336.59"/>
<text text-anchor="middle" x="717.5" y="-331.5" font-family="Helvetica,sans-Serif" font-size="10.00"> visitors</text>
</g>
<!-- Node8 -->
<g id="node8" class="node">
<title>Node8</title>
<g id="a_node8"><a xlink:href="class_p4_1_1_type_map.html" target="_top" xlink:title=" ">
<polygon fill="white" stroke="black" points="533.5,-161 533.5,-180 611.5,-180 611.5,-161 533.5,-161"/>
<text text-anchor="middle" x="572.5" y="-168" font-family="Helvetica,sans-Serif" font-size="10.00">P4::TypeMap</text>
</a>
</g>
</g>
<!-- Node8&#45;&gt;Node2 -->
<g id="edge12" class="edge">
<title>Node8&#45;&gt;Node2</title>
<path fill="none" stroke="#9a32cd" stroke-dasharray="5,2" d="M621.76,-164.75C657.74,-160.29 708.04,-153.66 752,-146.5 760.15,-145.17 768.79,-143.63 777.16,-142.07"/>
<polygon fill="#9a32cd" stroke="#9a32cd" points="621.04,-161.31 611.55,-166.01 621.9,-168.26 621.04,-161.31"/>
<text text-anchor="middle" x="717.5" y="-159.5" font-family="Helvetica,sans-Serif" font-size="10.00"> typeMap</text>
</g>
<!-- Node9&#45;&gt;Node8 -->
<g id="edge13" class="edge">
<title>Node9&#45;&gt;Node8</title>
<path fill="none" stroke="midnightblue" d="M391.11,-179.6C435.29,-177.37 495.01,-174.36 533.4,-172.42"/>
<polygon fill="midnightblue" stroke="midnightblue" points="390.9,-176.1 381.09,-180.1 391.25,-183.09 390.9,-176.1"/>
</g>
<!-- Node11 -->
<g id="node11" class="node">
<title>Node11</title>
<g id="a_node11"><a xlink:href="class_p4_1_1_reference_map.html" target="_top" xlink:title="Class used to encode maps from paths to declarations.">
<polygon fill="white" stroke="black" points="520,-123 520,-142 625,-142 625,-123 520,-123"/>
<text text-anchor="middle" x="572.5" y="-130" font-family="Helvetica,sans-Serif" font-size="10.00">P4::ReferenceMap</text>
</a>
</g>
</g>
<!-- Node9&#45;&gt;Node11 -->
<g id="edge17" class="edge">
<title>Node9&#45;&gt;Node11</title>
<path fill="none" stroke="midnightblue" d="M388.21,-170.87C415.74,-165.03 449.63,-157.87 480,-151.5 494.77,-148.4 510.88,-145.05 525.41,-142.03"/>
<polygon fill="midnightblue" stroke="midnightblue" points="387.43,-167.46 378.37,-172.96 388.88,-174.31 387.43,-167.46"/>
</g>
<!-- Node10 -->
<g id="node10" class="node">
<title>Node10</title>
<g id="a_node10"><a xlink:href="class_i_has_db_print.html" target="_top" xlink:title=" ">
<polygon fill="white" stroke="black" points="45,-173 45,-192 119,-192 119,-173 45,-173"/>
<text text-anchor="middle" x="82" y="-180" font-family="Helvetica,sans-Serif" font-size="10.00">IHasDbPrint</text>
</a>
</g>
</g>
<!-- Node10&#45;&gt;Node9 -->
<g id="edge14" class="edge">
<title>Node10&#45;&gt;Node9</title>
<path fill="none" stroke="midnightblue" d="M129.28,-182.5C173.33,-182.5 239.32,-182.5 283.82,-182.5"/>
<polygon fill="midnightblue" stroke="midnightblue" points="129.13,-179 119.13,-182.5 129.13,-186 129.13,-179"/>
</g>
<!-- Node11&#45;&gt;Node2 -->
<g id="edge16" class="edge">
<title>Node11&#45;&gt;Node2</title>
<path fill="none" stroke="#9a32cd" stroke-dasharray="5,2" d="M635.09,-132.5C678.2,-132.5 735.05,-132.5 775.28,-132.5"/>
<polygon fill="#9a32cd" stroke="#9a32cd" points="635,-129 625,-132.5 635,-136 635,-129"/>
<text text-anchor="middle" x="717.5" y="-135.5" font-family="Helvetica,sans-Serif" font-size="10.00"> refMap</text>
</g>
<!-- Node12 -->
<g id="node12" class="node">
<title>Node12</title>
<g id="a_node12"><a xlink:href="class_p4_1_1_name_generator.html" target="_top" xlink:title=" ">
<polygon fill="white" stroke="black" points="276,-85 276,-104 389,-104 389,-85 276,-85"/>
<text text-anchor="middle" x="332.5" y="-92" font-family="Helvetica,sans-Serif" font-size="10.00">P4::NameGenerator</text>
</a>
</g>
</g>
<!-- Node12&#45;&gt;Node11 -->
<g id="edge18" class="edge">
<title>Node12&#45;&gt;Node11</title>
<path fill="none" stroke="midnightblue" d="M398.99,-104.96C437.13,-111.05 484.53,-118.61 519.99,-124.28"/>
<polygon fill="midnightblue" stroke="midnightblue" points="399.43,-101.48 389,-103.36 398.32,-108.39 399.43,-101.48"/>
</g>
<!-- Node13 -->
<g id="node13" class="node">
<title>Node13</title>
<g id="a_node13"><a xlink:href="class_p4_1_1_declaration_lookup.html" target="_top" xlink:title=" ">
<polygon fill="white" stroke="black" points="270,-123 270,-142 395,-142 395,-123 270,-123"/>
<text text-anchor="middle" x="332.5" y="-130" font-family="Helvetica,sans-Serif" font-size="10.00">P4::DeclarationLookup</text>
</a>
</g>
</g>
<!-- Node13&#45;&gt;Node11 -->
<g id="edge19" class="edge">
<title>Node13&#45;&gt;Node11</title>
<path fill="none" stroke="midnightblue" d="M405.3,-132.5C442.19,-132.5 486.31,-132.5 519.81,-132.5"/>
<polygon fill="midnightblue" stroke="midnightblue" points="405.1,-129 395.1,-132.5 405.1,-136 405.1,-129"/>
</g>
<!-- Node14 -->
<g id="node14" class="node">
<title>Node14</title>
<g id="a_node14"><a xlink:title=" ">
<polygon fill="white" stroke="#bfbfbf" points="480,-24.5 480,-54.5 665,-54.5 665,-24.5 480,-24.5"/>
<text text-anchor="start" x="488" y="-42.5" font-family="Helvetica,sans-Serif" font-size="10.00">std::map&lt; const IR</text>
<text text-anchor="middle" x="572.5" y="-31.5" font-family="Helvetica,sans-Serif" font-size="10.00">::P4Table *, P4::TableInsertions * &gt;</text>
</a>
</g>
</g>
<!-- Node14&#45;&gt;Node2 -->
<g id="edge20" class="edge">
<title>Node14&#45;&gt;Node2</title>
<path fill="none" stroke="#9a32cd" stroke-dasharray="5,2" d="M651.17,-57.07C683.06,-65.46 719.94,-76.71 752,-90.5 773.36,-99.69 796.34,-113.66 810.7,-122.94"/>
<polygon fill="#9a32cd" stroke="#9a32cd" points="652.01,-53.67 641.45,-54.56 650.26,-60.45 652.01,-53.67"/>
<text text-anchor="middle" x="717.5" y="-93.5" font-family="Helvetica,sans-Serif" font-size="10.00"> toInsert</text>
</g>
<!-- Node15 -->
<g id="node15" class="node">
<title>Node15</title>
<g id="a_node15"><a xlink:href="namespace_p4.html#class_p4_1_1_table_insertions" target="_top" xlink:title=" ">
<polygon fill="white" stroke="black" points="278.5,-30 278.5,-49 386.5,-49 386.5,-30 278.5,-30"/>
<text text-anchor="middle" x="332.5" y="-37" font-family="Helvetica,sans-Serif" font-size="10.00">P4::TableInsertions</text>
</a>
</g>
</g>
<!-- Node15&#45;&gt;Node14 -->
<g id="edge21" class="edge">
<title>Node15&#45;&gt;Node14</title>
<path fill="none" stroke="#9a32cd" stroke-dasharray="5,2" d="M396.85,-39.5C422.26,-39.5 452.04,-39.5 479.73,-39.5"/>
<polygon fill="#9a32cd" stroke="#9a32cd" points="396.62,-36 386.62,-39.5 396.62,-43 396.62,-36"/>
<text text-anchor="middle" x="437.5" y="-42.5" font-family="Helvetica,sans-Serif" font-size="10.00"> elements</text>
</g>
<!-- Node16 -->
<g id="node16" class="node">
<title>Node16</title>
<g id="a_node16"><a xlink:title=" ">
<polygon fill="white" stroke="#bfbfbf" points="4,-0.5 4,-30.5 160,-30.5 160,-0.5 4,-0.5"/>
<text text-anchor="start" x="12" y="-18.5" font-family="Helvetica,sans-Serif" font-size="10.00">std::vector&lt; const</text>
<text text-anchor="middle" x="82" y="-7.5" font-family="Helvetica,sans-Serif" font-size="10.00"> IR::Declaration_Variable * &gt;</text>
</a>
</g>
</g>
<!-- Node16&#45;&gt;Node15 -->
<g id="edge22" class="edge">
<title>Node16&#45;&gt;Node15</title>
<path fill="none" stroke="#9a32cd" stroke-dasharray="5,2" d="M170.68,-23.7C196.85,-26.18 225.59,-28.92 252,-31.5 260.56,-32.34 269.64,-33.24 278.48,-34.12"/>
<polygon fill="#9a32cd" stroke="#9a32cd" points="170.7,-20.19 160.41,-22.73 170.04,-27.16 170.7,-20.19"/>
<text text-anchor="middle" x="217" y="-34.5" font-family="Helvetica,sans-Serif" font-size="10.00"> declarations</text>
</g>
<!-- Node17 -->
<g id="node17" class="node">
<title>Node17</title>
<g id="a_node17"><a xlink:title=" ">
<polygon fill="white" stroke="#bfbfbf" points="0,-49.5 0,-79.5 164,-79.5 164,-49.5 0,-49.5"/>
<text text-anchor="start" x="8" y="-67.5" font-family="Helvetica,sans-Serif" font-size="10.00">std::vector&lt; const</text>
<text text-anchor="middle" x="82" y="-56.5" font-family="Helvetica,sans-Serif" font-size="10.00"> IR::AssignmentStatement * &gt;</text>
</a>
</g>
</g>
<!-- Node17&#45;&gt;Node15 -->
<g id="edge23" class="edge">
<title>Node17&#45;&gt;Node15</title>
<path fill="none" stroke="#9a32cd" stroke-dasharray="5,2" d="M174.27,-55.32C209.3,-51.79 248.09,-47.89 278.38,-44.84"/>
<polygon fill="#9a32cd" stroke="#9a32cd" points="173.62,-51.87 164.02,-56.35 174.32,-58.83 173.62,-51.87"/>
<text text-anchor="middle" x="217" y="-56.5" font-family="Helvetica,sans-Serif" font-size="10.00"> statements</text>
</g>
<!-- Node18 -->
<g id="node18" class="node">
<title>Node18</title>
<g id="a_node18"><a xlink:title=" ">
<polygon fill="white" stroke="#bfbfbf" points="521,-73.5 521,-103.5 624,-103.5 624,-73.5 521,-73.5"/>
<text text-anchor="start" x="529" y="-91.5" font-family="Helvetica,sans-Serif" font-size="10.00">std::set&lt; const IR</text>
<text text-anchor="middle" x="572.5" y="-80.5" font-family="Helvetica,sans-Serif" font-size="10.00">::P4Table * &gt;</text>
</a>
</g>
</g>
<!-- Node18&#45;&gt;Node2 -->
<g id="edge24" class="edge">
<title>Node18&#45;&gt;Node2</title>
<path fill="none" stroke="#9a32cd" stroke-dasharray="5,2" d="M634.32,-97.74C668.89,-103.15 712.94,-110.32 752,-117.5 761.03,-119.16 770.67,-121.06 779.89,-122.92"/>
<polygon fill="#9a32cd" stroke="#9a32cd" points="634.8,-94.27 624.38,-96.19 633.72,-101.19 634.8,-94.27"/>
<text text-anchor="middle" x="717.5" y="-120.5" font-family="Helvetica,sans-Serif" font-size="10.00"> invokedInKey</text>
</g>
</g>
</svg>
