<?xml version="1.0" encoding="UTF-8" standalone="no"?>
<!DOCTYPE svg PUBLIC "-//W3C//DTD SVG 1.1//EN"
 "http://www.w3.org/Graphics/SVG/1.1/DTD/svg11.dtd">
<!-- Generated by graphviz version 2.43.0 (0)
 -->
<!-- Title: P4::DoRemoveMiss Pages: 1 -->
<svg width="381pt" height="233pt"
 viewBox="0.00 0.00 380.50 233.00" xmlns="http://www.w3.org/2000/svg" xmlns:xlink="http://www.w3.org/1999/xlink">
<g id="graph0" class="graph" transform="scale(1 1) rotate(0) translate(4 229)">
<title>P4::DoRemoveMiss</title>
<polygon fill="white" stroke="transparent" points="-4,4 -4,-229 376.5,-229 376.5,4 -4,4"/>
<!-- Node1 -->
<g id="node1" class="node">
<title>Node1</title>
<g id="a_node1"><a xlink:title=" ">
<polygon fill="#bfbfbf" stroke="black" points="0,-0.5 0,-19.5 111,-19.5 111,-0.5 0,-0.5"/>
<text text-anchor="middle" x="55.5" y="-7.5" font-family="Helvetica,sans-Serif" font-size="10.00">P4::DoRemoveMiss</text>
</a>
</g>
</g>
<!-- Node2 -->
<g id="node2" class="node">
<title>Node2</title>
<g id="a_node2"><a xlink:href="class_transform.html" target="_top" xlink:title=" ">
<polygon fill="white" stroke="black" points="23,-68.5 23,-87.5 88,-87.5 88,-68.5 23,-68.5"/>
<text text-anchor="middle" x="55.5" y="-75.5" font-family="Helvetica,sans-Serif" font-size="10.00">Transform</text>
</a>
</g>
</g>
<!-- Node2&#45;&gt;Node1 -->
<g id="edge1" class="edge">
<title>Node2&#45;&gt;Node1</title>
<path fill="none" stroke="midnightblue" d="M55.5,-58.04C55.5,-45.47 55.5,-29.56 55.5,-19.84"/>
<polygon fill="midnightblue" stroke="midnightblue" points="52,-58.37 55.5,-68.37 59,-58.37 52,-58.37"/>
</g>
<!-- Node3 -->
<g id="node3" class="node">
<title>Node3</title>
<g id="a_node3"><a xlink:href="class_visitor.html" target="_top" xlink:title=" ">
<polygon fill="white" stroke="black" points="132.5,-136.5 132.5,-155.5 180.5,-155.5 180.5,-136.5 132.5,-136.5"/>
<text text-anchor="middle" x="156.5" y="-143.5" font-family="Helvetica,sans-Serif" font-size="10.00">Visitor</text>
</a>
</g>
</g>
<!-- Node3&#45;&gt;Node2 -->
<g id="edge2" class="edge">
<title>Node3&#45;&gt;Node2</title>
<path fill="none" stroke="midnightblue" d="M131.91,-131.09C124.92,-127 117.34,-122.42 110.5,-118 95.16,-108.09 78.09,-95.77 67.1,-87.67"/>
<polygon fill="midnightblue" stroke="midnightblue" points="130.56,-134.35 140.97,-136.33 134.06,-128.29 130.56,-134.35"/>
</g>
<!-- Node3&#45;&gt;Node3 -->
<g id="edge10" class="edge">
<title>Node3&#45;&gt;Node3</title>
<path fill="none" stroke="#9a32cd" stroke-dasharray="5,2" d="M190.92,-151.29C195.48,-150.39 198.5,-148.63 198.5,-146 198.5,-141.69 190.36,-139.7 180.67,-140.04"/>
<polygon fill="#9a32cd" stroke="#9a32cd" points="190.42,-147.82 180.67,-151.96 190.88,-154.8 190.42,-147.82"/>
<text text-anchor="middle" x="223.5" y="-143.5" font-family="Helvetica,sans-Serif" font-size="10.00"> called_by</text>
</g>
<!-- Node5 -->
<g id="node5" class="node">
<title>Node5</title>
<g id="a_node5"><a xlink:href="class_split_flow_visit__base.html" target="_top" xlink:title=" ">
<polygon fill="white" stroke="black" points="162.5,-0.5 162.5,-19.5 274.5,-19.5 274.5,-0.5 162.5,-0.5"/>
<text text-anchor="middle" x="218.5" y="-7.5" font-family="Helvetica,sans-Serif" font-size="10.00">SplitFlowVisit_base</text>
</a>
</g>
</g>
<!-- Node3&#45;&gt;Node5 -->
<g id="edge9" class="edge">
<title>Node3&#45;&gt;Node5</title>
<path fill="none" stroke="#9a32cd" stroke-dasharray="5,2" d="M144.16,-127.83C134.04,-111.48 122.98,-86.53 133.5,-67 146.24,-43.35 173.82,-28.04 194.12,-19.51"/>
<polygon fill="#9a32cd" stroke="#9a32cd" points="141.38,-129.97 149.83,-136.36 147.2,-126.1 141.38,-129.97"/>
<text text-anchor="middle" x="138.5" y="-75.5" font-family="Helvetica,sans-Serif" font-size="10.00"> v</text>
</g>
<!-- Node6 -->
<g id="node6" class="node">
<title>Node6</title>
<g id="a_node6"><a xlink:title=" ">
<polygon fill="white" stroke="#bfbfbf" points="153,-68.5 153,-87.5 284,-87.5 284,-68.5 153,-68.5"/>
<text text-anchor="middle" x="218.5" y="-75.5" font-family="Helvetica,sans-Serif" font-size="10.00">std::vector&lt; Visitor * &gt;</text>
</a>
</g>
</g>
<!-- Node3&#45;&gt;Node6 -->
<g id="edge8" class="edge">
<title>Node3&#45;&gt;Node6</title>
<path fill="none" stroke="#9a32cd" stroke-dasharray="5,2" d="M171.49,-129.05C183.64,-116.11 200.32,-98.36 210.19,-87.84"/>
<polygon fill="#9a32cd" stroke="#9a32cd" points="168.9,-126.69 164.61,-136.37 174,-131.48 168.9,-126.69"/>
<text text-anchor="middle" x="216" y="-110" font-family="Helvetica,sans-Serif" font-size="10.00"> elements</text>
</g>
<!-- Node4 -->
<g id="node4" class="node">
<title>Node4</title>
<g id="a_node4"><a xlink:href="classcstring.html" target="_top" xlink:title=" ">
<polygon fill="white" stroke="black" points="131.5,-204.5 131.5,-223.5 181.5,-223.5 181.5,-204.5 131.5,-204.5"/>
<text text-anchor="middle" x="156.5" y="-211.5" font-family="Helvetica,sans-Serif" font-size="10.00">cstring</text>
</a>
</g>
</g>
<!-- Node4&#45;&gt;Node3 -->
<g id="edge3" class="edge">
<title>Node4&#45;&gt;Node3</title>
<path fill="none" stroke="#9a32cd" stroke-dasharray="5,2" d="M156.5,-194.04C156.5,-181.47 156.5,-165.56 156.5,-155.84"/>
<polygon fill="#9a32cd" stroke="#9a32cd" points="153,-194.37 156.5,-204.37 160,-194.37 153,-194.37"/>
<text text-anchor="middle" x="191.5" y="-177" font-family="Helvetica,sans-Serif" font-size="10.00"> internalName</text>
</g>
<!-- Node4&#45;&gt;Node4 -->
<g id="edge4" class="edge">
<title>Node4&#45;&gt;Node4</title>
<path fill="none" stroke="#9a32cd" stroke-dasharray="5,2" d="M191.95,-219.58C196.5,-218.61 199.5,-216.75 199.5,-214 199.5,-209.48 191.41,-207.37 181.68,-207.65"/>
<polygon fill="#9a32cd" stroke="#9a32cd" points="191.39,-216.11 181.68,-220.35 191.91,-223.1 191.39,-216.11"/>
<text text-anchor="middle" x="219" y="-217" font-family="Helvetica,sans-Serif" font-size="10.00"> empty</text>
<text text-anchor="middle" x="219" y="-206" font-family="Helvetica,sans-Serif" font-size="10.00">newline</text>
</g>
<!-- Node5&#45;&gt;Node3 -->
<g id="edge5" class="edge">
<title>Node5&#45;&gt;Node3</title>
<path fill="none" stroke="#9a32cd" stroke-dasharray="5,2" d="M247.55,-24.16C274.57,-38.38 308.57,-62.58 293.5,-89 270.85,-128.73 213.46,-140.29 180.6,-143.64"/>
<polygon fill="#9a32cd" stroke="#9a32cd" points="248.88,-20.91 238.38,-19.56 245.75,-27.17 248.88,-20.91"/>
<text text-anchor="middle" x="334.5" y="-81" font-family="Helvetica,sans-Serif" font-size="10.00"> split_link</text>
<text text-anchor="middle" x="334.5" y="-70" font-family="Helvetica,sans-Serif" font-size="10.00">split_link_mem</text>
</g>
<!-- Node5&#45;&gt;Node5 -->
<g id="edge6" class="edge">
<title>Node5&#45;&gt;Node5</title>
<path fill="none" stroke="#9a32cd" stroke-dasharray="5,2" d="M284.9,-14.4C289.62,-13.4 292.5,-11.93 292.5,-10 292.5,-6.91 285.12,-5.01 274.65,-4.31"/>
<polygon fill="#9a32cd" stroke="#9a32cd" points="284.13,-10.97 274.65,-15.69 285.01,-17.91 284.13,-10.97"/>
<text text-anchor="middle" x="305" y="-7.5" font-family="Helvetica,sans-Serif" font-size="10.00"> prev</text>
</g>
<!-- Node6&#45;&gt;Node5 -->
<g id="edge7" class="edge">
<title>Node6&#45;&gt;Node5</title>
<path fill="none" stroke="#9a32cd" stroke-dasharray="5,2" d="M218.5,-58.04C218.5,-45.47 218.5,-29.56 218.5,-19.84"/>
<polygon fill="#9a32cd" stroke="#9a32cd" points="215,-58.37 218.5,-68.37 222,-58.37 215,-58.37"/>
<text text-anchor="middle" x="238.5" y="-41" font-family="Helvetica,sans-Serif" font-size="10.00"> visitors</text>
</g>
</g>
</svg>
