<?xml version="1.0" encoding="UTF-8" standalone="no"?>
<!DOCTYPE svg PUBLIC "-//W3C//DTD SVG 1.1//EN"
 "http://www.w3.org/Graphics/SVG/1.1/DTD/svg11.dtd">
<!-- Generated by graphviz version 2.43.0 (0)
 -->
<!-- Title: TypeCheck::AssignActionArgTypes Pages: 1 -->
<svg width="398pt" height="244pt"
 viewBox="0.00 0.00 397.50 244.00" xmlns="http://www.w3.org/2000/svg" xmlns:xlink="http://www.w3.org/1999/xlink">
<g id="graph0" class="graph" transform="scale(1 1) rotate(0) translate(4 240)">
<title>TypeCheck::AssignActionArgTypes</title>
<polygon fill="white" stroke="transparent" points="-4,4 -4,-240 393.5,-240 393.5,4 -4,4"/>
<!-- Node1 -->
<g id="node1" class="node">
<title>Node1</title>
<g id="a_node1"><a xlink:title=" ">
<polygon fill="#bfbfbf" stroke="black" points="0,-0.5 0,-30.5 155,-30.5 155,-0.5 0,-0.5"/>
<text text-anchor="start" x="8" y="-18.5" font-family="Helvetica,sans-Serif" font-size="10.00">TypeCheck::AssignActionArg</text>
<text text-anchor="middle" x="77.5" y="-7.5" font-family="Helvetica,sans-Serif" font-size="10.00">Types</text>
</a>
</g>
</g>
<!-- Node2 -->
<g id="node2" class="node">
<title>Node2</title>
<g id="a_node2"><a xlink:href="class_modifier.html" target="_top" xlink:title=" ">
<polygon fill="white" stroke="black" points="49.5,-79.5 49.5,-98.5 105.5,-98.5 105.5,-79.5 49.5,-79.5"/>
<text text-anchor="middle" x="77.5" y="-86.5" font-family="Helvetica,sans-Serif" font-size="10.00">Modifier</text>
</a>
</g>
</g>
<!-- Node2&#45;&gt;Node1 -->
<g id="edge1" class="edge">
<title>Node2&#45;&gt;Node1</title>
<path fill="none" stroke="midnightblue" d="M77.5,-68.9C77.5,-56.82 77.5,-41.47 77.5,-30.51"/>
<polygon fill="midnightblue" stroke="midnightblue" points="74,-69.23 77.5,-79.23 81,-69.23 74,-69.23"/>
</g>
<!-- Node3 -->
<g id="node3" class="node">
<title>Node3</title>
<g id="a_node3"><a xlink:href="class_visitor.html" target="_top" xlink:title=" ">
<polygon fill="white" stroke="black" points="149.5,-147.5 149.5,-166.5 197.5,-166.5 197.5,-147.5 149.5,-147.5"/>
<text text-anchor="middle" x="173.5" y="-154.5" font-family="Helvetica,sans-Serif" font-size="10.00">Visitor</text>
</a>
</g>
</g>
<!-- Node3&#45;&gt;Node2 -->
<g id="edge2" class="edge">
<title>Node3&#45;&gt;Node2</title>
<path fill="none" stroke="midnightblue" d="M148.78,-142.29C141.78,-138.2 134.24,-133.58 127.5,-129 113.29,-119.35 97.83,-106.98 87.92,-98.79"/>
<polygon fill="midnightblue" stroke="midnightblue" points="147.44,-145.56 157.85,-147.49 150.92,-139.49 147.44,-145.56"/>
</g>
<!-- Node3&#45;&gt;Node3 -->
<g id="edge10" class="edge">
<title>Node3&#45;&gt;Node3</title>
<path fill="none" stroke="#9a32cd" stroke-dasharray="5,2" d="M207.92,-162.29C212.48,-161.39 215.5,-159.63 215.5,-157 215.5,-152.69 207.36,-150.7 197.67,-151.04"/>
<polygon fill="#9a32cd" stroke="#9a32cd" points="207.42,-158.82 197.67,-162.96 207.88,-165.8 207.42,-158.82"/>
<text text-anchor="middle" x="240.5" y="-154.5" font-family="Helvetica,sans-Serif" font-size="10.00"> called_by</text>
</g>
<!-- Node5 -->
<g id="node5" class="node">
<title>Node5</title>
<g id="a_node5"><a xlink:href="class_split_flow_visit__base.html" target="_top" xlink:title=" ">
<polygon fill="white" stroke="black" points="179.5,-6 179.5,-25 291.5,-25 291.5,-6 179.5,-6"/>
<text text-anchor="middle" x="235.5" y="-13" font-family="Helvetica,sans-Serif" font-size="10.00">SplitFlowVisit_base</text>
</a>
</g>
</g>
<!-- Node3&#45;&gt;Node5 -->
<g id="edge9" class="edge">
<title>Node3&#45;&gt;Node5</title>
<path fill="none" stroke="#9a32cd" stroke-dasharray="5,2" d="M161.35,-138.93C151.37,-122.65 140.41,-97.76 150.5,-78 163.76,-52.05 193.65,-34.51 214.2,-25.01"/>
<polygon fill="#9a32cd" stroke="#9a32cd" points="158.51,-140.99 166.94,-147.42 164.36,-137.14 158.51,-140.99"/>
<text text-anchor="middle" x="155.5" y="-86.5" font-family="Helvetica,sans-Serif" font-size="10.00"> v</text>
</g>
<!-- Node6 -->
<g id="node6" class="node">
<title>Node6</title>
<g id="a_node6"><a xlink:title=" ">
<polygon fill="white" stroke="#bfbfbf" points="170,-79.5 170,-98.5 301,-98.5 301,-79.5 170,-79.5"/>
<text text-anchor="middle" x="235.5" y="-86.5" font-family="Helvetica,sans-Serif" font-size="10.00">std::vector&lt; Visitor * &gt;</text>
</a>
</g>
</g>
<!-- Node3&#45;&gt;Node6 -->
<g id="edge8" class="edge">
<title>Node3&#45;&gt;Node6</title>
<path fill="none" stroke="#9a32cd" stroke-dasharray="5,2" d="M188.49,-140.05C200.64,-127.11 217.32,-109.36 227.19,-98.84"/>
<polygon fill="#9a32cd" stroke="#9a32cd" points="185.9,-137.69 181.61,-147.37 191,-142.48 185.9,-137.69"/>
<text text-anchor="middle" x="233" y="-121" font-family="Helvetica,sans-Serif" font-size="10.00"> elements</text>
</g>
<!-- Node4 -->
<g id="node4" class="node">
<title>Node4</title>
<g id="a_node4"><a xlink:href="classcstring.html" target="_top" xlink:title=" ">
<polygon fill="white" stroke="black" points="148.5,-215.5 148.5,-234.5 198.5,-234.5 198.5,-215.5 148.5,-215.5"/>
<text text-anchor="middle" x="173.5" y="-222.5" font-family="Helvetica,sans-Serif" font-size="10.00">cstring</text>
</a>
</g>
</g>
<!-- Node4&#45;&gt;Node3 -->
<g id="edge3" class="edge">
<title>Node4&#45;&gt;Node3</title>
<path fill="none" stroke="#9a32cd" stroke-dasharray="5,2" d="M173.5,-205.04C173.5,-192.47 173.5,-176.56 173.5,-166.84"/>
<polygon fill="#9a32cd" stroke="#9a32cd" points="170,-205.37 173.5,-215.37 177,-205.37 170,-205.37"/>
<text text-anchor="middle" x="208.5" y="-188" font-family="Helvetica,sans-Serif" font-size="10.00"> internalName</text>
</g>
<!-- Node4&#45;&gt;Node4 -->
<g id="edge4" class="edge">
<title>Node4&#45;&gt;Node4</title>
<path fill="none" stroke="#9a32cd" stroke-dasharray="5,2" d="M208.95,-230.58C213.5,-229.61 216.5,-227.75 216.5,-225 216.5,-220.48 208.41,-218.37 198.68,-218.65"/>
<polygon fill="#9a32cd" stroke="#9a32cd" points="208.39,-227.11 198.68,-231.35 208.91,-234.1 208.39,-227.11"/>
<text text-anchor="middle" x="236" y="-228" font-family="Helvetica,sans-Serif" font-size="10.00"> empty</text>
<text text-anchor="middle" x="236" y="-217" font-family="Helvetica,sans-Serif" font-size="10.00">newline</text>
</g>
<!-- Node5&#45;&gt;Node3 -->
<g id="edge5" class="edge">
<title>Node5&#45;&gt;Node3</title>
<path fill="none" stroke="#9a32cd" stroke-dasharray="5,2" d="M263.07,-29.98C290.53,-45.35 326.46,-72.02 310.5,-100 287.85,-139.73 230.46,-151.29 197.6,-154.64"/>
<polygon fill="#9a32cd" stroke="#9a32cd" points="264.64,-26.85 254.18,-25.21 261.34,-33.02 264.64,-26.85"/>
<text text-anchor="middle" x="351.5" y="-92" font-family="Helvetica,sans-Serif" font-size="10.00"> split_link</text>
<text text-anchor="middle" x="351.5" y="-81" font-family="Helvetica,sans-Serif" font-size="10.00">split_link_mem</text>
</g>
<!-- Node5&#45;&gt;Node5 -->
<g id="edge6" class="edge">
<title>Node5&#45;&gt;Node5</title>
<path fill="none" stroke="#9a32cd" stroke-dasharray="5,2" d="M301.54,-20.81C306.47,-19.62 309.5,-17.85 309.5,-15.5 309.5,-11.83 302.12,-9.57 291.65,-8.74"/>
<polygon fill="#9a32cd" stroke="#9a32cd" points="301.03,-17.35 291.65,-22.26 302.05,-24.27 301.03,-17.35"/>
<text text-anchor="middle" x="322" y="-13" font-family="Helvetica,sans-Serif" font-size="10.00"> prev</text>
</g>
<!-- Node6&#45;&gt;Node5 -->
<g id="edge7" class="edge">
<title>Node6&#45;&gt;Node5</title>
<path fill="none" stroke="#9a32cd" stroke-dasharray="5,2" d="M235.5,-69.09C235.5,-54.93 235.5,-36.2 235.5,-25.34"/>
<polygon fill="#9a32cd" stroke="#9a32cd" points="232,-69.23 235.5,-79.23 239,-69.23 232,-69.23"/>
<text text-anchor="middle" x="255.5" y="-52" font-family="Helvetica,sans-Serif" font-size="10.00"> visitors</text>
</g>
</g>
</svg>
