<?xml version="1.0" encoding="UTF-8" standalone="no"?>
<!DOCTYPE svg PUBLIC "-//W3C//DTD SVG 1.1//EN"
 "http://www.w3.org/Graphics/SVG/1.1/DTD/svg11.dtd">
<!-- Generated by graphviz version 2.43.0 (0)
 -->
<!-- Title: DPDK::CollectUseDefInfo Pages: 1 -->
<!--zoomable 301 -->
<svg id="main" version="1.1" xmlns="http://www.w3.org/2000/svg" xmlns:xlink="http://www.w3.org/1999/xlink" xml:space="preserve" onload="init(evt)">
<style type="text/css"><![CDATA[
.edge:hover path { stroke: red; }
.edge:hover polygon { stroke: red; fill: red; }
]]></style>
<script type="text/javascript"><![CDATA[
var edges = document.getElementsByTagName('g');
if (edges && edges.length) {
  for (var i=0;i<edges.length;i++) {
    if (edges[i].id.substr(0,4)=='edge') {
      edges[i].setAttribute('class','edge');
    }
  }
}
]]></script>
        <defs>
                <circle id="rim" cx="0" cy="0" r="7"/>
                <circle id="rim2" cx="0" cy="0" r="3.5"/>
                <g id="zoomPlus">
                        <use xlink:href="#rim" fill="#404040">
                                <set attributeName="fill" to="#808080" begin="zoomplus.mouseover" end="zoomplus.mouseout"/>
                        </use>
                        <path d="M-4,0h8M0,-4v8" fill="none" stroke="white" stroke-width="1.5" pointer-events="none"/>
                </g>
                <g id="zoomMin">
                        <use xlink:href="#rim" fill="#404040">
                                <set attributeName="fill" to="#808080" begin="zoomminus.mouseover" end="zoomminus.mouseout"/>
                        </use>
                        <path d="M-4,0h8" fill="none" stroke="white" stroke-width="1.5" pointer-events="none"/>
                </g>
                <g id="dirArrow">
                        <path fill="none" stroke="white" stroke-width="1.5" d="M0,-3.0v7 M-2.5,-0.5L0,-3.0L2.5,-0.5"/>
                </g>
               <g id="resetDef">
                       <use xlink:href="#rim2" fill="#404040">
                               <set attributeName="fill" to="#808080" begin="reset.mouseover" end="reset.mouseout"/>
                       </use>
               </g>
        </defs>

<script type="text/javascript">
var viewWidth = 774;
var viewHeight = 301;
var sectionId = 'dynsection-1';
</script>
<script xlink:href="svgpan.js"/>
<svg id="graph" class="graph">
<g id="viewport">
<title>DPDK::CollectUseDefInfo</title>
<polygon fill="white" stroke="transparent" points="-4,4 -4,-296.5 770,-296.5 770,4 -4,4"/>
<!-- Node1 -->
<g id="node1" class="node">
<title>Node1</title>
<g id="a_node1"><a xlink:title=" ">
<polygon fill="#bfbfbf" stroke="black" points="627,-80 627,-99 766,-99 766,-80 627,-80"/>
<text text-anchor="middle" x="696.5" y="-87" font-family="Helvetica,sans-Serif" font-size="10.00">DPDK::CollectUseDefInfo</text>
</a>
</g>
</g>
<!-- Node2 -->
<g id="node2" class="node">
<title>Node2</title>
<g id="a_node2"><a xlink:href="class_inspector.html" target="_top" xlink:title=" ">
<polygon fill="white" stroke="black" points="454.5,-148 454.5,-167 516.5,-167 516.5,-148 454.5,-148"/>
<text text-anchor="middle" x="485.5" y="-155" font-family="Helvetica,sans-Serif" font-size="10.00">Inspector</text>
</a>
</g>
</g>
<!-- Node2&#45;&gt;Node1 -->
<g id="edge1" class="edge">
<title>Node2&#45;&gt;Node1</title>
<path fill="none" stroke="midnightblue" d="M526.47,-152.04C550.75,-148.06 582.15,-141.74 609,-132.5 634.69,-123.66 662.51,-108.79 679.47,-99.06"/>
<polygon fill="midnightblue" stroke="midnightblue" points="525.87,-148.59 516.53,-153.6 526.95,-155.51 525.87,-148.59"/>
</g>
<!-- Node3 -->
<g id="node3" class="node">
<title>Node3</title>
<g id="a_node3"><a xlink:href="class_visitor.html" target="_top" xlink:title=" ">
<polygon fill="white" stroke="black" points="189,-194 189,-213 237,-213 237,-194 189,-194"/>
<text text-anchor="middle" x="213" y="-201" font-family="Helvetica,sans-Serif" font-size="10.00">Visitor</text>
</a>
</g>
</g>
<!-- Node3&#45;&gt;Node2 -->
<g id="edge2" class="edge">
<title>Node3&#45;&gt;Node2</title>
<path fill="none" stroke="midnightblue" d="M247.44,-196.99C260.13,-194.56 274.72,-191.84 288,-189.5 346.89,-179.14 415.92,-168.17 454.5,-162.14"/>
<polygon fill="midnightblue" stroke="midnightblue" points="246.46,-193.61 237.3,-198.93 247.78,-200.48 246.46,-193.61"/>
</g>
<!-- Node3&#45;&gt;Node3 -->
<g id="edge10" class="edge">
<title>Node3&#45;&gt;Node3</title>
<path fill="none" stroke="#9a32cd" stroke-dasharray="5,2" d="M192.63,-222.9C193.99,-227.81 200.78,-231.5 213,-231.5 232.55,-231.5 238.2,-222.07 229.95,-213.26"/>
<polygon fill="#9a32cd" stroke="#9a32cd" points="196.01,-223.85 196.05,-213.26 189.41,-221.51 196.01,-223.85"/>
<text text-anchor="middle" x="213" y="-234.5" font-family="Helvetica,sans-Serif" font-size="10.00"> called_by</text>
</g>
<!-- Node5 -->
<g id="node5" class="node">
<title>Node5</title>
<g id="a_node5"><a xlink:href="class_split_flow_visit__base.html" target="_top" xlink:title=" ">
<polygon fill="white" stroke="black" points="640.5,-244 640.5,-263 752.5,-263 752.5,-244 640.5,-244"/>
<text text-anchor="middle" x="696.5" y="-251" font-family="Helvetica,sans-Serif" font-size="10.00">SplitFlowVisit_base</text>
</a>
</g>
</g>
<!-- Node3&#45;&gt;Node5 -->
<g id="edge9" class="edge">
<title>Node3&#45;&gt;Node5</title>
<path fill="none" stroke="#9a32cd" stroke-dasharray="5,2" d="M233.18,-219.6C247.4,-230.66 267.76,-244.7 288,-252.5 413.27,-300.75 576.72,-278.02 652.92,-263.03"/>
<polygon fill="#9a32cd" stroke="#9a32cd" points="235.16,-216.71 225.17,-213.19 230.78,-222.17 235.16,-216.71"/>
<text text-anchor="middle" x="485.5" y="-284.5" font-family="Helvetica,sans-Serif" font-size="10.00"> v</text>
</g>
<!-- Node6 -->
<g id="node6" class="node">
<title>Node6</title>
<g id="a_node6"><a xlink:title=" ">
<polygon fill="white" stroke="#bfbfbf" points="420,-244 420,-263 551,-263 551,-244 420,-244"/>
<text text-anchor="middle" x="485.5" y="-251" font-family="Helvetica,sans-Serif" font-size="10.00">std::vector&lt; Visitor * &gt;</text>
</a>
</g>
</g>
<!-- Node3&#45;&gt;Node6 -->
<g id="edge8" class="edge">
<title>Node3&#45;&gt;Node6</title>
<path fill="none" stroke="#9a32cd" stroke-dasharray="5,2" d="M247.47,-209.87C260.16,-212.28 274.74,-215.03 288,-217.5 336.76,-226.58 392.36,-236.75 431.94,-243.96"/>
<polygon fill="#9a32cd" stroke="#9a32cd" points="247.8,-206.37 237.32,-207.95 246.5,-213.25 247.8,-206.37"/>
<text text-anchor="middle" x="345" y="-240.5" font-family="Helvetica,sans-Serif" font-size="10.00"> elements</text>
</g>
<!-- Node4 -->
<g id="node4" class="node">
<title>Node4</title>
<g id="a_node4"><a xlink:href="classcstring.html" target="_top" xlink:title=" ">
<polygon fill="white" stroke="black" points="0,-80 0,-99 50,-99 50,-80 0,-80"/>
<text text-anchor="middle" x="25" y="-87" font-family="Helvetica,sans-Serif" font-size="10.00">cstring</text>
</a>
</g>
</g>
<!-- Node4&#45;&gt;Node3 -->
<g id="edge3" class="edge">
<title>Node4&#45;&gt;Node3</title>
<path fill="none" stroke="#9a32cd" stroke-dasharray="5,2" d="M41.97,-106.81C49.44,-114.33 58.72,-122.9 68,-129.5 107.64,-157.67 159.46,-181.56 188.9,-194.09"/>
<polygon fill="#9a32cd" stroke="#9a32cd" points="44.12,-104 34.67,-99.21 39.08,-108.85 44.12,-104"/>
<text text-anchor="middle" x="103" y="-172.5" font-family="Helvetica,sans-Serif" font-size="10.00"> internalName</text>
</g>
<!-- Node4&#45;&gt;Node4 -->
<g id="edge4" class="edge">
<title>Node4&#45;&gt;Node4</title>
<path fill="none" stroke="#9a32cd" stroke-dasharray="5,2" d="M10.64,-109.27C11.76,-114 16.55,-117.5 25,-117.5 38.86,-117.5 42.87,-108.07 37.02,-99.26"/>
<polygon fill="#9a32cd" stroke="#9a32cd" points="14.11,-109.79 12.98,-99.26 7.29,-108.2 14.11,-109.79"/>
<text text-anchor="middle" x="25" y="-131.5" font-family="Helvetica,sans-Serif" font-size="10.00"> empty</text>
<text text-anchor="middle" x="25" y="-120.5" font-family="Helvetica,sans-Serif" font-size="10.00">newline</text>
</g>
<!-- Node7 -->
<g id="node7" class="node">
<title>Node7</title>
<g id="a_node7"><a xlink:title=" ">
<polygon fill="white" stroke="#bfbfbf" points="288,-95 288,-136 402,-136 402,-95 288,-95"/>
<text text-anchor="start" x="296" y="-124" font-family="Helvetica,sans-Serif" font-size="10.00">std::unordered_map</text>
<text text-anchor="start" x="296" y="-113" font-family="Helvetica,sans-Serif" font-size="10.00">&lt; cstring, const IR</text>
<text text-anchor="middle" x="345" y="-102" font-family="Helvetica,sans-Serif" font-size="10.00">::Expression * &gt;</text>
</a>
</g>
</g>
<!-- Node4&#45;&gt;Node7 -->
<g id="edge12" class="edge">
<title>Node4&#45;&gt;Node7</title>
<path fill="none" stroke="#9a32cd" stroke-dasharray="5,2" d="M60.35,-92.31C114.91,-96.77 221.94,-105.52 287.79,-110.9"/>
<polygon fill="#9a32cd" stroke="#9a32cd" points="60.41,-88.8 50.16,-91.48 59.84,-95.78 60.41,-88.8"/>
<text text-anchor="middle" x="103" y="-101.5" font-family="Helvetica,sans-Serif" font-size="10.00"> keys</text>
</g>
<!-- Node8 -->
<g id="node8" class="node">
<title>Node8</title>
<g id="a_node8"><a xlink:title=" ">
<polygon fill="white" stroke="#bfbfbf" points="288,-50.5 288,-80.5 402,-80.5 402,-50.5 288,-50.5"/>
<text text-anchor="start" x="296" y="-68.5" font-family="Helvetica,sans-Serif" font-size="10.00">std::unordered_map</text>
<text text-anchor="middle" x="345" y="-57.5" font-family="Helvetica,sans-Serif" font-size="10.00">&lt; cstring, int &gt;</text>
</a>
</g>
</g>
<!-- Node4&#45;&gt;Node8 -->
<g id="edge14" class="edge">
<title>Node4&#45;&gt;Node8</title>
<path fill="none" stroke="#9a32cd" stroke-dasharray="5,2" d="M60.3,-82.59C62.9,-82.18 65.49,-81.81 68,-81.5 143.74,-72.13 231.86,-68.23 287.77,-66.62"/>
<polygon fill="#9a32cd" stroke="#9a32cd" points="59.6,-79.16 50.35,-84.31 60.79,-86.05 59.6,-79.16"/>
<text text-anchor="middle" x="103" y="-84.5" font-family="Helvetica,sans-Serif" font-size="10.00"> keys</text>
</g>
<!-- Node9 -->
<g id="node9" class="node">
<title>Node9</title>
<g id="a_node9"><a xlink:title=" ">
<polygon fill="white" stroke="#bfbfbf" points="156,-0.5 156,-30.5 270,-30.5 270,-0.5 156,-0.5"/>
<text text-anchor="start" x="164" y="-18.5" font-family="Helvetica,sans-Serif" font-size="10.00">std::unordered_map</text>
<text text-anchor="middle" x="213" y="-7.5" font-family="Helvetica,sans-Serif" font-size="10.00">&lt; cstring, bool &gt;</text>
</a>
</g>
</g>
<!-- Node4&#45;&gt;Node9 -->
<g id="edge16" class="edge">
<title>Node4&#45;&gt;Node9</title>
<path fill="none" stroke="#9a32cd" stroke-dasharray="5,2" d="M36.28,-70.7C43.58,-59.21 54.48,-45.27 68,-37.5 94.42,-22.32 127.88,-16.55 155.89,-14.71"/>
<polygon fill="#9a32cd" stroke="#9a32cd" points="33.1,-69.2 31.01,-79.59 39.12,-72.77 33.1,-69.2"/>
<text text-anchor="middle" x="103" y="-40.5" font-family="Helvetica,sans-Serif" font-size="10.00"> keys</text>
</g>
<!-- Node5&#45;&gt;Node3 -->
<g id="edge5" class="edge">
<title>Node5&#45;&gt;Node3</title>
<path fill="none" stroke="#9a32cd" stroke-dasharray="5,2" d="M659.65,-240.62C630.74,-230.9 588.82,-218.28 551,-212.5 434.13,-194.65 291.87,-199.36 237.06,-202.15"/>
<polygon fill="#9a32cd" stroke="#9a32cd" points="658.71,-244 669.31,-243.92 660.98,-237.37 658.71,-244"/>
<text text-anchor="middle" x="485.5" y="-226.5" font-family="Helvetica,sans-Serif" font-size="10.00"> split_link</text>
<text text-anchor="middle" x="485.5" y="-215.5" font-family="Helvetica,sans-Serif" font-size="10.00">split_link_mem</text>
</g>
<!-- Node5&#45;&gt;Node5 -->
<g id="edge6" class="edge">
<title>Node5&#45;&gt;Node5</title>
<path fill="none" stroke="#9a32cd" stroke-dasharray="5,2" d="M676.87,-272.9C678.18,-277.81 684.73,-281.5 696.5,-281.5 715.34,-281.5 720.79,-272.07 712.84,-263.26"/>
<polygon fill="#9a32cd" stroke="#9a32cd" points="680.24,-273.85 680.16,-263.26 673.62,-271.59 680.24,-273.85"/>
<text text-anchor="middle" x="696.5" y="-284.5" font-family="Helvetica,sans-Serif" font-size="10.00"> prev</text>
</g>
<!-- Node6&#45;&gt;Node5 -->
<g id="edge7" class="edge">
<title>Node6&#45;&gt;Node5</title>
<path fill="none" stroke="#9a32cd" stroke-dasharray="5,2" d="M561.4,-253.5C587.43,-253.5 616.12,-253.5 640.27,-253.5"/>
<polygon fill="#9a32cd" stroke="#9a32cd" points="561.2,-250 551.2,-253.5 561.2,-257 561.2,-250"/>
<text text-anchor="middle" x="589" y="-256.5" font-family="Helvetica,sans-Serif" font-size="10.00"> visitors</text>
</g>
<!-- Node7&#45;&gt;Node1 -->
<g id="edge11" class="edge">
<title>Node7&#45;&gt;Node1</title>
<path fill="none" stroke="#9a32cd" stroke-dasharray="5,2" d="M412.13,-110.58C473.55,-106.01 564.66,-99.23 626.88,-94.61"/>
<polygon fill="#9a32cd" stroke="#9a32cd" points="411.87,-107.09 402.15,-111.32 412.39,-114.07 411.87,-107.09"/>
<text text-anchor="middle" x="485.5" y="-112.5" font-family="Helvetica,sans-Serif" font-size="10.00"> replacementMap</text>
</g>
<!-- Node8&#45;&gt;Node1 -->
<g id="edge13" class="edge">
<title>Node8&#45;&gt;Node1</title>
<path fill="none" stroke="#9a32cd" stroke-dasharray="5,2" d="M412.38,-67.41C452.54,-68.82 504.75,-71.09 551,-74.5 575.78,-76.33 602.88,-78.97 626.85,-81.53"/>
<polygon fill="#9a32cd" stroke="#9a32cd" points="412.29,-63.91 402.17,-67.06 412.05,-70.9 412.29,-63.91"/>
<text text-anchor="middle" x="485.5" y="-88.5" font-family="Helvetica,sans-Serif" font-size="10.00"> defInfo</text>
<text text-anchor="middle" x="485.5" y="-77.5" font-family="Helvetica,sans-Serif" font-size="10.00">usesInfo</text>
</g>
<!-- Node9&#45;&gt;Node1 -->
<g id="edge15" class="edge">
<title>Node9&#45;&gt;Node1</title>
<path fill="none" stroke="#9a32cd" stroke-dasharray="5,2" d="M280.28,-20C348.53,-25.28 457.78,-35.54 551,-52.5 590.24,-59.64 634.56,-71.58 663.65,-79.96"/>
<polygon fill="#9a32cd" stroke="#9a32cd" points="280.34,-16.49 270.1,-19.22 279.81,-23.47 280.34,-16.49"/>
<text text-anchor="middle" x="485.5" y="-55.5" font-family="Helvetica,sans-Serif" font-size="10.00"> dontEliminate</text>
</g>
</g>
</svg>
        <g id="navigator" transform="translate(0 0)" fill="#404254">
                <rect fill="#f2f5e9" fill-opacity="0.5" stroke="#606060" stroke-width=".5" x="0" y="0" width="60" height="60"/>
                <use id="zoomplus" xlink:href="#zoomPlus" x="17" y="9" onmousedown="handleZoom(evt,'in')"/>
                <use id="zoomminus" xlink:href="#zoomMin" x="42" y="9" onmousedown="handleZoom(evt,'out')"/>
                <use id="reset" xlink:href="#resetDef" x="30" y="36" onmousedown="handleReset()"/>
                <g id="arrowUp" xlink:href="#dirArrow" transform="translate(30 24)" onmousedown="handlePan(0,-1)">
                  <use xlink:href="#rim" fill="#404040">
                        <set attributeName="fill" to="#808080" begin="arrowUp.mouseover" end="arrowUp.mouseout"/>
                  </use>
                  <path fill="none" stroke="white" stroke-width="1.5" d="M0,-3.0v7 M-2.5,-0.5L0,-3.0L2.5,-0.5"/>
                </g>
                <g id="arrowRight" xlink:href="#dirArrow" transform="rotate(90) translate(36 -43)" onmousedown="handlePan(1,0)">
                  <use xlink:href="#rim" fill="#404040">
                        <set attributeName="fill" to="#808080" begin="arrowRight.mouseover" end="arrowRight.mouseout"/>
                  </use>
                  <path fill="none" stroke="white" stroke-width="1.5" d="M0,-3.0v7 M-2.5,-0.5L0,-3.0L2.5,-0.5"/>
                </g>
                <g id="arrowDown" xlink:href="#dirArrow" transform="rotate(180) translate(-30 -48)" onmousedown="handlePan(0,1)">
                  <use xlink:href="#rim" fill="#404040">
                        <set attributeName="fill" to="#808080" begin="arrowDown.mouseover" end="arrowDown.mouseout"/>
                  </use>
                  <path fill="none" stroke="white" stroke-width="1.5" d="M0,-3.0v7 M-2.5,-0.5L0,-3.0L2.5,-0.5"/>
                </g>
                <g id="arrowLeft" xlink:href="#dirArrow" transform="rotate(270) translate(-36 17)" onmousedown="handlePan(-1,0)">
                  <use xlink:href="#rim" fill="#404040">
                        <set attributeName="fill" to="#808080" begin="arrowLeft.mouseover" end="arrowLeft.mouseout"/>
                  </use>
                  <path fill="none" stroke="white" stroke-width="1.5" d="M0,-3.0v7 M-2.5,-0.5L0,-3.0L2.5,-0.5"/>
                </g>
        </g>
        <svg viewBox="0 0 15 15" width="100%" height="30px" preserveAspectRatio="xMaxYMin meet">
         <g id="arrow_out" transform="scale(0.3 0.3)">
          <a xlink:href="class_d_p_d_k_1_1_collect_use_def_info__coll__graph_org.svg" target="_base">
           <rect id="button" ry="5" rx="5" y="6" x="6" height="38" width="38"
                fill="#f2f5e9" fill-opacity="0.5" stroke="#606060" stroke-width="1.0"/>
           <path id="arrow"
             d="M 11.500037,31.436501 C 11.940474,20.09759 22.043105,11.32322 32.158766,21.979434 L 37.068811,17.246167 C 37.068811,17.246167 37.088388,32 37.088388,32 L 22.160133,31.978069 C 22.160133,31.978069 26.997745,27.140456 26.997745,27.140456 C 18.528582,18.264221 13.291696,25.230495 11.500037,31.436501 z"
             style="fill:#404040;"/>
          </a>
         </g>
        </svg>
</svg>
