<?xml version="1.0" encoding="UTF-8" standalone="no"?>
<!DOCTYPE svg PUBLIC "-//W3C//DTD SVG 1.1//EN"
 "http://www.w3.org/Graphics/SVG/1.1/DTD/svg11.dtd">
<!-- Generated by graphviz version 2.43.0 (0)
 -->
<!-- Title: P4::StorageMap Pages: 1 -->
<svg width="445pt" height="221pt"
 viewBox="0.00 0.00 444.50 221.00" xmlns="http://www.w3.org/2000/svg" xmlns:xlink="http://www.w3.org/1999/xlink">
<g id="graph0" class="graph" transform="scale(1 1) rotate(0) translate(4 217)">
<title>P4::StorageMap</title>
<polygon fill="white" stroke="transparent" points="-4,4 -4,-217 440.5,-217 440.5,4 -4,4"/>
<!-- Node1 -->
<g id="node1" class="node">
<title>Node1</title>
<g id="a_node1"><a xlink:title="Maps a declaration to its associated storage.">
<polygon fill="#bfbfbf" stroke="black" points="67.5,-0.5 67.5,-19.5 160.5,-19.5 160.5,-0.5 67.5,-0.5"/>
<text text-anchor="middle" x="114" y="-7.5" font-family="Helvetica,sans-Serif" font-size="10.00">P4::StorageMap</text>
</a>
</g>
</g>
<!-- Node2 -->
<g id="node2" class="node">
<title>Node2</title>
<g id="a_node2"><a xlink:href="class_i_has_db_print.html" target="_top" xlink:title=" ">
<polygon fill="white" stroke="black" points="0,-192.5 0,-211.5 74,-211.5 74,-192.5 0,-192.5"/>
<text text-anchor="middle" x="37" y="-199.5" font-family="Helvetica,sans-Serif" font-size="10.00">IHasDbPrint</text>
</a>
</g>
</g>
<!-- Node2&#45;&gt;Node1 -->
<g id="edge1" class="edge">
<title>Node2&#45;&gt;Node1</title>
<path fill="none" stroke="midnightblue" d="M38.17,-182.09C40.45,-155.23 47.1,-105.07 66,-67 75.45,-47.96 92.83,-30.07 103.88,-19.84"/>
<polygon fill="midnightblue" stroke="midnightblue" points="34.65,-182.14 37.41,-192.37 41.63,-182.65 34.65,-182.14"/>
</g>
<!-- Node4 -->
<g id="node4" class="node">
<title>Node4</title>
<g id="a_node4"><a xlink:href="class_p4_1_1_program_map.html" target="_top" xlink:title=" ">
<polygon fill="white" stroke="black" points="65.5,-124.5 65.5,-143.5 162.5,-143.5 162.5,-124.5 65.5,-124.5"/>
<text text-anchor="middle" x="114" y="-131.5" font-family="Helvetica,sans-Serif" font-size="10.00">P4::ProgramMap</text>
</a>
</g>
</g>
<!-- Node2&#45;&gt;Node4 -->
<g id="edge4" class="edge">
<title>Node2&#45;&gt;Node4</title>
<path fill="none" stroke="midnightblue" d="M54.76,-185.77C69.92,-172.78 91.19,-154.56 103.69,-143.84"/>
<polygon fill="midnightblue" stroke="midnightblue" points="52.38,-183.21 47.07,-192.37 56.94,-188.52 52.38,-183.21"/>
</g>
<!-- Node3 -->
<g id="node3" class="node">
<title>Node3</title>
<g id="a_node3"><a xlink:href="class_p4_1_1_type_map.html" target="_top" xlink:title=" ">
<polygon fill="white" stroke="black" points="75,-67.5 75,-86.5 153,-86.5 153,-67.5 75,-67.5"/>
<text text-anchor="middle" x="114" y="-74.5" font-family="Helvetica,sans-Serif" font-size="10.00">P4::TypeMap</text>
</a>
</g>
</g>
<!-- Node3&#45;&gt;Node1 -->
<g id="edge2" class="edge">
<title>Node3&#45;&gt;Node1</title>
<path fill="none" stroke="#9a32cd" stroke-dasharray="5,2" d="M114,-57.04C114,-44.67 114,-29.12 114,-19.63"/>
<polygon fill="#9a32cd" stroke="#9a32cd" points="110.5,-57.23 114,-67.23 117.5,-57.23 110.5,-57.23"/>
<text text-anchor="middle" x="137" y="-41" font-family="Helvetica,sans-Serif" font-size="10.00"> typeMap</text>
</g>
<!-- Node4&#45;&gt;Node3 -->
<g id="edge3" class="edge">
<title>Node4&#45;&gt;Node3</title>
<path fill="none" stroke="midnightblue" d="M114,-114.12C114,-104.82 114,-94.06 114,-86.71"/>
<polygon fill="midnightblue" stroke="midnightblue" points="110.5,-114.41 114,-124.41 117.5,-114.41 110.5,-114.41"/>
</g>
<!-- Node6 -->
<g id="node6" class="node">
<title>Node6</title>
<g id="a_node6"><a xlink:href="class_p4_1_1_reference_map.html" target="_top" xlink:title="Class used to encode maps from paths to declarations.">
<polygon fill="white" stroke="black" points="178.5,-67.5 178.5,-86.5 283.5,-86.5 283.5,-67.5 178.5,-67.5"/>
<text text-anchor="middle" x="231" y="-74.5" font-family="Helvetica,sans-Serif" font-size="10.00">P4::ReferenceMap</text>
</a>
</g>
</g>
<!-- Node4&#45;&gt;Node6 -->
<g id="edge8" class="edge">
<title>Node4&#45;&gt;Node6</title>
<path fill="none" stroke="midnightblue" d="M141.45,-120.1C163.47,-109.75 193.75,-95.51 212.85,-86.53"/>
<polygon fill="midnightblue" stroke="midnightblue" points="139.84,-116.98 132.28,-124.41 142.82,-123.32 139.84,-116.98"/>
</g>
<!-- Node5 -->
<g id="node5" class="node">
<title>Node5</title>
<g id="a_node5"><a xlink:href="classcstring.html" target="_top" xlink:title=" ">
<polygon fill="white" stroke="black" points="92,-192.5 92,-211.5 142,-211.5 142,-192.5 92,-192.5"/>
<text text-anchor="middle" x="117" y="-199.5" font-family="Helvetica,sans-Serif" font-size="10.00">cstring</text>
</a>
</g>
</g>
<!-- Node5&#45;&gt;Node4 -->
<g id="edge5" class="edge">
<title>Node5&#45;&gt;Node4</title>
<path fill="none" stroke="#9a32cd" stroke-dasharray="5,2" d="M116.14,-182.04C115.57,-169.47 114.84,-153.56 114.4,-143.84"/>
<polygon fill="#9a32cd" stroke="#9a32cd" points="112.66,-182.54 116.61,-192.37 119.65,-182.22 112.66,-182.54"/>
<text text-anchor="middle" x="138.5" y="-165" font-family="Helvetica,sans-Serif" font-size="10.00"> mapKind</text>
</g>
<!-- Node5&#45;&gt;Node5 -->
<g id="edge6" class="edge">
<title>Node5&#45;&gt;Node5</title>
<path fill="none" stroke="#9a32cd" stroke-dasharray="5,2" d="M152.45,-207.58C157,-206.61 160,-204.75 160,-202 160,-197.48 151.91,-195.37 142.18,-195.65"/>
<polygon fill="#9a32cd" stroke="#9a32cd" points="151.89,-204.11 142.18,-208.35 152.41,-211.1 151.89,-204.11"/>
<text text-anchor="middle" x="179.5" y="-205" font-family="Helvetica,sans-Serif" font-size="10.00"> empty</text>
<text text-anchor="middle" x="179.5" y="-194" font-family="Helvetica,sans-Serif" font-size="10.00">newline</text>
</g>
<!-- Node6&#45;&gt;Node1 -->
<g id="edge7" class="edge">
<title>Node6&#45;&gt;Node1</title>
<path fill="none" stroke="#9a32cd" stroke-dasharray="5,2" d="M207.1,-62.29C194.35,-55.01 178.36,-45.95 164,-38 152.78,-31.79 140.06,-24.92 130.26,-19.67"/>
<polygon fill="#9a32cd" stroke="#9a32cd" points="205.73,-65.53 216.15,-67.46 209.2,-59.46 205.73,-65.53"/>
<text text-anchor="middle" x="201" y="-41" font-family="Helvetica,sans-Serif" font-size="10.00"> refMap</text>
</g>
<!-- Node7 -->
<g id="node7" class="node">
<title>Node7</title>
<g id="a_node7"><a xlink:href="class_p4_1_1_name_generator.html" target="_top" xlink:title=" ">
<polygon fill="white" stroke="black" points="180.5,-124.5 180.5,-143.5 293.5,-143.5 293.5,-124.5 180.5,-124.5"/>
<text text-anchor="middle" x="237" y="-131.5" font-family="Helvetica,sans-Serif" font-size="10.00">P4::NameGenerator</text>
</a>
</g>
</g>
<!-- Node7&#45;&gt;Node6 -->
<g id="edge9" class="edge">
<title>Node7&#45;&gt;Node6</title>
<path fill="none" stroke="midnightblue" d="M234.97,-114.42C233.95,-105.05 232.76,-94.14 231.95,-86.71"/>
<polygon fill="midnightblue" stroke="midnightblue" points="231.5,-114.84 236.06,-124.41 238.46,-114.09 231.5,-114.84"/>
</g>
<!-- Node8 -->
<g id="node8" class="node">
<title>Node8</title>
<g id="a_node8"><a xlink:href="class_p4_1_1_declaration_lookup.html" target="_top" xlink:title=" ">
<polygon fill="white" stroke="black" points="311.5,-124.5 311.5,-143.5 436.5,-143.5 436.5,-124.5 311.5,-124.5"/>
<text text-anchor="middle" x="374" y="-131.5" font-family="Helvetica,sans-Serif" font-size="10.00">P4::DeclarationLookup</text>
</a>
</g>
</g>
<!-- Node8&#45;&gt;Node6 -->
<g id="edge10" class="edge">
<title>Node8&#45;&gt;Node6</title>
<path fill="none" stroke="midnightblue" d="M342.24,-120.79C315.2,-110.39 277.05,-95.71 253.19,-86.53"/>
<polygon fill="midnightblue" stroke="midnightblue" points="341.07,-124.08 351.66,-124.41 343.58,-117.55 341.07,-124.08"/>
</g>
</g>
</svg>
