<?xml version="1.0" encoding="UTF-8" standalone="no"?>
<!DOCTYPE svg PUBLIC "-//W3C//DTD SVG 1.1//EN"
 "http://www.w3.org/Graphics/SVG/1.1/DTD/svg11.dtd">
<!-- Generated by graphviz version 2.43.0 (0)
 -->
<!-- Title: Util::Options Pages: 1 -->
<svg width="782pt" height="304pt"
 viewBox="0.00 0.00 782.00 304.00" xmlns="http://www.w3.org/2000/svg" xmlns:xlink="http://www.w3.org/1999/xlink">
<g id="graph0" class="graph" transform="scale(1 1) rotate(0) translate(4 300)">
<title>Util::Options</title>
<!-- Node1 -->
<g id="Node000001" class="node">
<title>Node1</title>
<g id="a_Node000001"><a xlink:title=" ">
<polygon fill="#999999" stroke="#666666" points="77,-169 0,-169 0,-150 77,-150 77,-169"/>
<text text-anchor="middle" x="38.5" y="-157" font-family="Helvetica,sans-Serif" font-size="10.00">Util::Options</text>
</a>
</g>
</g>
<!-- Node2 -->
<g id="Node000002" class="node">
<title>Node2</title>
<g id="a_Node000002"><a xlink:href="class_p4_tools_1_1_abstract_p4c_tool_options.html" target="_top" xlink:title=" ">
<polygon fill="white" stroke="#666666" points="250,-196.5 113,-196.5 113,-166.5 250,-166.5 250,-196.5"/>
<text text-anchor="start" x="121" y="-184.5" font-family="Helvetica,sans-Serif" font-size="10.00">P4Tools::AbstractP4cTool</text>
<text text-anchor="middle" x="181.5" y="-173.5" font-family="Helvetica,sans-Serif" font-size="10.00">Options</text>
</a>
</g>
</g>
<!-- Node1&#45;&gt;Node2 -->
<g id="edge1_Node000001_Node000002" class="edge">
<title>Node1&#45;&gt;Node2</title>
<g id="a_edge1_Node000001_Node000002"><a xlink:title=" ">
<path fill="none" stroke="darkgreen" d="M87.42,-166.98C95.64,-168.26 104.32,-169.61 112.94,-170.96"/>
<polygon fill="darkgreen" stroke="darkgreen" points="87.71,-163.48 77.29,-165.4 86.63,-170.4 87.71,-163.48"/>
</a>
</g>
</g>
<!-- Node4 -->
<g id="Node000004" class="node">
<title>Node4</title>
<g id="a_Node000004"><a xlink:href="class_parser_options.html" target="_top" xlink:title=" ">
<polygon fill="white" stroke="#bfbfbf" points="223.5,-148 139.5,-148 139.5,-129 223.5,-129 223.5,-148"/>
<text text-anchor="middle" x="181.5" y="-136" font-family="Helvetica,sans-Serif" font-size="10.00">ParserOptions</text>
</a>
</g>
</g>
<!-- Node1&#45;&gt;Node4 -->
<g id="edge3_Node000001_Node000004" class="edge">
<title>Node1&#45;&gt;Node4</title>
<g id="a_edge3_Node000001_Node000004"><a xlink:title=" ">
<path fill="none" stroke="#63b8ff" d="M87.5,-152.35C104.36,-149.84 123.14,-147.04 139.39,-144.62"/>
<polygon fill="#63b8ff" stroke="#63b8ff" points="86.66,-148.94 77.29,-153.87 87.69,-155.86 86.66,-148.94"/>
</a>
</g>
</g>
<!-- Node3 -->
<g id="Node000003" class="node">
<title>Node3</title>
<g id="a_Node000003"><a xlink:href="class_p4_tools_1_1_p4_testgen_1_1_testgen_options.html" target="_top" xlink:title="Encapsulates and processes command&#45;line options for P4Testgen.">
<polygon fill="white" stroke="#666666" points="395,-196.5 286,-196.5 286,-166.5 395,-166.5 395,-196.5"/>
<text text-anchor="start" x="294" y="-184.5" font-family="Helvetica,sans-Serif" font-size="10.00">P4Tools::P4Testgen</text>
<text text-anchor="middle" x="340.5" y="-173.5" font-family="Helvetica,sans-Serif" font-size="10.00">::TestgenOptions</text>
</a>
</g>
</g>
<!-- Node2&#45;&gt;Node3 -->
<g id="edge2_Node000002_Node000003" class="edge">
<title>Node2&#45;&gt;Node3</title>
<g id="a_edge2_Node000002_Node000003"><a xlink:title=" ">
<path fill="none" stroke="#63b8ff" d="M260.71,-181.5C269.14,-181.5 277.58,-181.5 285.64,-181.5"/>
<polygon fill="#63b8ff" stroke="#63b8ff" points="260.45,-178 250.45,-181.5 260.45,-185 260.45,-178"/>
</a>
</g>
</g>
<!-- Node5 -->
<g id="Node000005" class="node">
<title>Node5</title>
<g id="a_Node000005"><a xlink:href="class_compiler_options.html" target="_top" xlink:title=" ">
<polygon fill="white" stroke="#bfbfbf" points="389.5,-148 291.5,-148 291.5,-129 389.5,-129 389.5,-148"/>
<text text-anchor="middle" x="340.5" y="-136" font-family="Helvetica,sans-Serif" font-size="10.00">CompilerOptions</text>
</a>
</g>
</g>
<!-- Node4&#45;&gt;Node5 -->
<g id="edge4_Node000004_Node000005" class="edge">
<title>Node4&#45;&gt;Node5</title>
<g id="a_edge4_Node000004_Node000005"><a xlink:title=" ">
<path fill="none" stroke="#63b8ff" d="M233.76,-138.5C252.26,-138.5 273.06,-138.5 291.29,-138.5"/>
<polygon fill="#63b8ff" stroke="#63b8ff" points="233.75,-135 223.75,-138.5 233.75,-142 233.75,-135"/>
</a>
</g>
</g>
<!-- Node6 -->
<g id="Node000006" class="node">
<title>Node6</title>
<g id="a_Node000006"><a xlink:href="class_b_m_v2_1_1_b_m_v2_options.html" target="_top" xlink:title=" ">
<polygon fill="white" stroke="#bfbfbf" points="565.5,-278 448.5,-278 448.5,-259 565.5,-259 565.5,-278"/>
<text text-anchor="middle" x="507" y="-266" font-family="Helvetica,sans-Serif" font-size="10.00">BMV2::BMV2Options</text>
</a>
</g>
</g>
<!-- Node5&#45;&gt;Node6 -->
<g id="edge5_Node000005_Node000006" class="edge">
<title>Node5&#45;&gt;Node6</title>
<g id="a_edge5_Node000005_Node000006"><a xlink:title=" ">
<path fill="none" stroke="#63b8ff" d="M389.7,-153.12C391.58,-154.46 393.36,-155.91 395,-157.5 426.54,-188.05 398.08,-220.45 431,-249.5 436.04,-253.94 441.97,-257.38 448.25,-260.02"/>
<polygon fill="#63b8ff" stroke="#63b8ff" points="391.31,-150.01 380.91,-148.01 387.79,-156.06 391.31,-150.01"/>
</a>
</g>
</g>
<!-- Node9 -->
<g id="Node000009" class="node">
<title>Node9</title>
<g id="a_Node000009"><a xlink:href="class_d_p_d_k_1_1_dpdk_options.html" target="_top" xlink:title=" ">
<polygon fill="white" stroke="#bfbfbf" points="563.5,-241 450.5,-241 450.5,-222 563.5,-222 563.5,-241"/>
<text text-anchor="middle" x="507" y="-229" font-family="Helvetica,sans-Serif" font-size="10.00">DPDK::DpdkOptions</text>
</a>
</g>
</g>
<!-- Node5&#45;&gt;Node9 -->
<g id="edge8_Node000005_Node000009" class="edge">
<title>Node5&#45;&gt;Node9</title>
<g id="a_edge8_Node000005_Node000009"><a xlink:title=" ">
<path fill="none" stroke="#63b8ff" d="M387.66,-152.58C390.24,-154.06 392.71,-155.7 395,-157.5 417.97,-175.56 407.22,-195.53 431,-212.5 436.8,-216.63 443.41,-219.87 450.25,-222.41"/>
<polygon fill="#63b8ff" stroke="#63b8ff" points="389.07,-149.37 378.55,-148.07 385.96,-155.64 389.07,-149.37"/>
</a>
</g>
</g>
<!-- Node10 -->
<g id="Node000010" class="node">
<title>Node10</title>
<g id="a_Node000010"><a xlink:href="class_ebpf_options.html" target="_top" xlink:title=" ">
<polygon fill="white" stroke="#bfbfbf" points="545,-204 469,-204 469,-185 545,-185 545,-204"/>
<text text-anchor="middle" x="507" y="-192" font-family="Helvetica,sans-Serif" font-size="10.00">EbpfOptions</text>
</a>
</g>
</g>
<!-- Node5&#45;&gt;Node10 -->
<g id="edge9_Node000005_Node000010" class="edge">
<title>Node5&#45;&gt;Node10</title>
<g id="a_edge9_Node000005_Node000010"><a xlink:title=" ">
<path fill="none" stroke="#63b8ff" d="M380,-151.53C385.08,-153.44 390.19,-155.45 395,-157.5 411.46,-164.51 414.23,-169.27 431,-175.5 443.09,-179.99 456.66,-183.79 468.89,-186.78"/>
<polygon fill="#63b8ff" stroke="#63b8ff" points="380.94,-148.15 370.35,-148.02 378.55,-154.73 380.94,-148.15"/>
</a>
</g>
</g>
<!-- Node11 -->
<g id="Node000011" class="node">
<title>Node11</title>
<g id="a_Node000011"><a xlink:href="class_p4_test_options.html" target="_top" xlink:title=" ">
<polygon fill="white" stroke="#bfbfbf" points="550,-167 464,-167 464,-148 550,-148 550,-167"/>
<text text-anchor="middle" x="507" y="-155" font-family="Helvetica,sans-Serif" font-size="10.00">P4TestOptions</text>
</a>
</g>
</g>
<!-- Node5&#45;&gt;Node11 -->
<g id="edge10_Node000005_Node000011" class="edge">
<title>Node5&#45;&gt;Node11</title>
<g id="a_edge10_Node000005_Node000011"><a xlink:title=" ">
<path fill="none" stroke="#63b8ff" d="M399.69,-145.22C420.83,-147.66 444.29,-150.37 463.79,-152.62"/>
<polygon fill="#63b8ff" stroke="#63b8ff" points="399.86,-141.72 389.52,-144.05 399.05,-148.67 399.86,-141.72"/>
</a>
</g>
</g>
<!-- Node12 -->
<g id="Node000012" class="node">
<title>Node12</title>
<g id="a_Node000012"><a xlink:href="class_t_c_1_1_t_c_options.html" target="_top" xlink:title=" ">
<polygon fill="white" stroke="#bfbfbf" points="549,-130 465,-130 465,-111 549,-111 549,-130"/>
<text text-anchor="middle" x="507" y="-118" font-family="Helvetica,sans-Serif" font-size="10.00">TC::TCOptions</text>
</a>
</g>
</g>
<!-- Node5&#45;&gt;Node12 -->
<g id="edge11_Node000005_Node000012" class="edge">
<title>Node5&#45;&gt;Node12</title>
<g id="a_edge11_Node000005_Node000012"><a xlink:title=" ">
<path fill="none" stroke="#63b8ff" d="M399.56,-132.15C421.13,-129.79 445.14,-127.16 464.88,-125"/>
<polygon fill="#63b8ff" stroke="#63b8ff" points="399.08,-128.68 389.52,-133.25 399.84,-135.64 399.08,-128.68"/>
</a>
</g>
</g>
<!-- Node13 -->
<g id="Node000013" class="node">
<title>Node13</title>
<g id="a_Node000013"><a xlink:href="class_test_1_1_p4_reachability_options.html" target="_top" xlink:title=" ">
<polygon fill="white" stroke="#bfbfbf" points="583,-93 431,-93 431,-74 583,-74 583,-93"/>
<text text-anchor="middle" x="507" y="-81" font-family="Helvetica,sans-Serif" font-size="10.00">Test::P4ReachabilityOptions</text>
</a>
</g>
</g>
<!-- Node5&#45;&gt;Node13 -->
<g id="edge12_Node000005_Node000013" class="edge">
<title>Node5&#45;&gt;Node13</title>
<g id="a_edge12_Node000005_Node000013"><a xlink:title=" ">
<path fill="none" stroke="#63b8ff" d="M371.62,-124.67C388.77,-117.14 410.81,-108.05 431,-101.5 440.68,-98.36 451.22,-95.5 461.26,-93.02"/>
<polygon fill="#63b8ff" stroke="#63b8ff" points="369.84,-121.62 362.13,-128.89 372.69,-128.02 369.84,-121.62"/>
</a>
</g>
</g>
<!-- Node14 -->
<g id="Node000014" class="node">
<title>Node14</title>
<g id="a_Node000014"><a xlink:href="class_test_1_1_p4_test_options.html" target="_top" xlink:title=" ">
<polygon fill="white" stroke="#bfbfbf" points="562.5,-56 451.5,-56 451.5,-37 562.5,-37 562.5,-56"/>
<text text-anchor="middle" x="507" y="-44" font-family="Helvetica,sans-Serif" font-size="10.00">Test::P4TestOptions</text>
</a>
</g>
</g>
<!-- Node5&#45;&gt;Node14 -->
<g id="edge13_Node000005_Node000014" class="edge">
<title>Node5&#45;&gt;Node14</title>
<g id="a_edge13_Node000005_Node000014"><a xlink:title=" ">
<path fill="none" stroke="#63b8ff" d="M357.42,-121.39C374.15,-104.44 402.01,-78.98 431,-64.5 437.83,-61.09 445.33,-58.31 452.88,-56.04"/>
<polygon fill="#63b8ff" stroke="#63b8ff" points="354.57,-119.31 350.15,-128.94 359.61,-124.17 354.57,-119.31"/>
</a>
</g>
</g>
<!-- Node15 -->
<g id="Node000015" class="node">
<title>Node15</title>
<g id="a_Node000015"><a xlink:href="classgraphs_1_1_options.html" target="_top" xlink:title=" ">
<polygon fill="white" stroke="#bfbfbf" points="553.5,-19 460.5,-19 460.5,0 553.5,0 553.5,-19"/>
<text text-anchor="middle" x="507" y="-7" font-family="Helvetica,sans-Serif" font-size="10.00">graphs::Options</text>
</a>
</g>
</g>
<!-- Node5&#45;&gt;Node15 -->
<g id="edge14_Node000005_Node000015" class="edge">
<title>Node5&#45;&gt;Node15</title>
<g id="a_edge14_Node000005_Node000015"><a xlink:title=" ">
<path fill="none" stroke="#63b8ff" d="M351.33,-119.82C365.5,-94.8 394.06,-50.86 431,-27.5 439.83,-21.92 450.24,-18.07 460.45,-15.41"/>
<polygon fill="#63b8ff" stroke="#63b8ff" points="348.21,-118.24 346.47,-128.69 354.35,-121.6 348.21,-118.24"/>
</a>
</g>
</g>
<!-- Node7 -->
<g id="Node000007" class="node">
<title>Node7</title>
<g id="a_Node000007"><a xlink:href="class_b_m_v2_1_1_psa_switch_options.html" target="_top" xlink:title=" ">
<polygon fill="white" stroke="#bfbfbf" points="765.5,-296 627.5,-296 627.5,-277 765.5,-277 765.5,-296"/>
<text text-anchor="middle" x="696.5" y="-284" font-family="Helvetica,sans-Serif" font-size="10.00">BMV2::PsaSwitchOptions</text>
</a>
</g>
</g>
<!-- Node6&#45;&gt;Node7 -->
<g id="edge6_Node000006_Node000007" class="edge">
<title>Node6&#45;&gt;Node7</title>
<g id="a_edge6_Node000006_Node000007"><a xlink:title=" ">
<path fill="none" stroke="#63b8ff" d="M575.77,-275.01C592.51,-276.61 610.44,-278.33 627.2,-279.94"/>
<polygon fill="#63b8ff" stroke="#63b8ff" points="575.82,-271.49 565.53,-274.02 575.15,-278.46 575.82,-271.49"/>
</a>
</g>
</g>
<!-- Node8 -->
<g id="Node000008" class="node">
<title>Node8</title>
<g id="a_Node000008"><a xlink:href="class_b_m_v2_1_1_simple_switch_options.html" target="_top" xlink:title=" ">
<polygon fill="white" stroke="#bfbfbf" points="774,-259 619,-259 619,-240 774,-240 774,-259"/>
<text text-anchor="middle" x="696.5" y="-247" font-family="Helvetica,sans-Serif" font-size="10.00">BMV2::SimpleSwitchOptions</text>
</a>
</g>
</g>
<!-- Node6&#45;&gt;Node8 -->
<g id="edge7_Node000006_Node000008" class="edge">
<title>Node6&#45;&gt;Node8</title>
<g id="a_edge7_Node000006_Node000008"><a xlink:title=" ">
<path fill="none" stroke="#63b8ff" d="M575.56,-261.65C589.57,-260.23 604.42,-258.73 618.73,-257.28"/>
<polygon fill="#63b8ff" stroke="#63b8ff" points="575.13,-258.18 565.53,-262.67 575.83,-265.14 575.13,-258.18"/>
</a>
</g>
</g>
</g>
</svg>
