<?xml version="1.0" encoding="UTF-8" standalone="no"?>
<!DOCTYPE svg PUBLIC "-//W3C//DTD SVG 1.1//EN"
 "http://www.w3.org/Graphics/SVG/1.1/DTD/svg11.dtd">
<!-- Generated by graphviz version 2.43.0 (0)
 -->
<!-- Title: Modifier Pages: 1 -->
<svg width="348pt" height="233pt"
 viewBox="0.00 0.00 348.00 233.00" xmlns="http://www.w3.org/2000/svg" xmlns:xlink="http://www.w3.org/1999/xlink">
<g id="graph0" class="graph" transform="scale(1 1) rotate(0) translate(4 229)">
<title>Modifier</title>
<polygon fill="white" stroke="transparent" points="-4,4 -4,-229 344,-229 344,4 -4,4"/>
<!-- Node1 -->
<g id="node1" class="node">
<title>Node1</title>
<g id="a_node1"><a xlink:title=" ">
<polygon fill="#bfbfbf" stroke="black" points="0,-68.5 0,-87.5 56,-87.5 56,-68.5 0,-68.5"/>
<text text-anchor="middle" x="28" y="-75.5" font-family="Helvetica,sans-Serif" font-size="10.00">Modifier</text>
</a>
</g>
</g>
<!-- Node2 -->
<g id="node2" class="node">
<title>Node2</title>
<g id="a_node2"><a xlink:href="class_visitor.html" target="_top" xlink:title=" ">
<polygon fill="white" stroke="black" points="100,-136.5 100,-155.5 148,-155.5 148,-136.5 100,-136.5"/>
<text text-anchor="middle" x="124" y="-143.5" font-family="Helvetica,sans-Serif" font-size="10.00">Visitor</text>
</a>
</g>
</g>
<!-- Node2&#45;&gt;Node1 -->
<g id="edge1" class="edge">
<title>Node2&#45;&gt;Node1</title>
<path fill="none" stroke="midnightblue" d="M99.28,-131.29C92.28,-127.2 84.74,-122.58 78,-118 63.79,-108.35 48.33,-95.98 38.42,-87.79"/>
<polygon fill="midnightblue" stroke="midnightblue" points="97.94,-134.56 108.35,-136.49 101.42,-128.49 97.94,-134.56"/>
</g>
<!-- Node2&#45;&gt;Node2 -->
<g id="edge9" class="edge">
<title>Node2&#45;&gt;Node2</title>
<path fill="none" stroke="#9a32cd" stroke-dasharray="5,2" d="M158.42,-151.29C162.98,-150.39 166,-148.63 166,-146 166,-141.69 157.86,-139.7 148.17,-140.04"/>
<polygon fill="#9a32cd" stroke="#9a32cd" points="157.92,-147.82 148.17,-151.96 158.38,-154.8 157.92,-147.82"/>
<text text-anchor="middle" x="191" y="-143.5" font-family="Helvetica,sans-Serif" font-size="10.00"> called_by</text>
</g>
<!-- Node4 -->
<g id="node4" class="node">
<title>Node4</title>
<g id="a_node4"><a xlink:href="class_split_flow_visit__base.html" target="_top" xlink:title=" ">
<polygon fill="white" stroke="black" points="130,-0.5 130,-19.5 242,-19.5 242,-0.5 130,-0.5"/>
<text text-anchor="middle" x="186" y="-7.5" font-family="Helvetica,sans-Serif" font-size="10.00">SplitFlowVisit_base</text>
</a>
</g>
</g>
<!-- Node2&#45;&gt;Node4 -->
<g id="edge8" class="edge">
<title>Node2&#45;&gt;Node4</title>
<path fill="none" stroke="#9a32cd" stroke-dasharray="5,2" d="M111.66,-127.83C101.54,-111.48 90.48,-86.53 101,-67 113.74,-43.35 141.32,-28.04 161.62,-19.51"/>
<polygon fill="#9a32cd" stroke="#9a32cd" points="108.88,-129.97 117.33,-136.36 114.7,-126.1 108.88,-129.97"/>
<text text-anchor="middle" x="106" y="-75.5" font-family="Helvetica,sans-Serif" font-size="10.00"> v</text>
</g>
<!-- Node5 -->
<g id="node5" class="node">
<title>Node5</title>
<g id="a_node5"><a xlink:title=" ">
<polygon fill="white" stroke="#bfbfbf" points="120.5,-68.5 120.5,-87.5 251.5,-87.5 251.5,-68.5 120.5,-68.5"/>
<text text-anchor="middle" x="186" y="-75.5" font-family="Helvetica,sans-Serif" font-size="10.00">std::vector&lt; Visitor * &gt;</text>
</a>
</g>
</g>
<!-- Node2&#45;&gt;Node5 -->
<g id="edge7" class="edge">
<title>Node2&#45;&gt;Node5</title>
<path fill="none" stroke="#9a32cd" stroke-dasharray="5,2" d="M138.99,-129.05C151.14,-116.11 167.82,-98.36 177.69,-87.84"/>
<polygon fill="#9a32cd" stroke="#9a32cd" points="136.4,-126.69 132.11,-136.37 141.5,-131.48 136.4,-126.69"/>
<text text-anchor="middle" x="183.5" y="-110" font-family="Helvetica,sans-Serif" font-size="10.00"> elements</text>
</g>
<!-- Node3 -->
<g id="node3" class="node">
<title>Node3</title>
<g id="a_node3"><a xlink:href="classcstring.html" target="_top" xlink:title=" ">
<polygon fill="white" stroke="black" points="99,-204.5 99,-223.5 149,-223.5 149,-204.5 99,-204.5"/>
<text text-anchor="middle" x="124" y="-211.5" font-family="Helvetica,sans-Serif" font-size="10.00">cstring</text>
</a>
</g>
</g>
<!-- Node3&#45;&gt;Node2 -->
<g id="edge2" class="edge">
<title>Node3&#45;&gt;Node2</title>
<path fill="none" stroke="#9a32cd" stroke-dasharray="5,2" d="M124,-194.04C124,-181.47 124,-165.56 124,-155.84"/>
<polygon fill="#9a32cd" stroke="#9a32cd" points="120.5,-194.37 124,-204.37 127.5,-194.37 120.5,-194.37"/>
<text text-anchor="middle" x="159" y="-177" font-family="Helvetica,sans-Serif" font-size="10.00"> internalName</text>
</g>
<!-- Node3&#45;&gt;Node3 -->
<g id="edge3" class="edge">
<title>Node3&#45;&gt;Node3</title>
<path fill="none" stroke="#9a32cd" stroke-dasharray="5,2" d="M159.45,-219.58C164,-218.61 167,-216.75 167,-214 167,-209.48 158.91,-207.37 149.18,-207.65"/>
<polygon fill="#9a32cd" stroke="#9a32cd" points="158.89,-216.11 149.18,-220.35 159.41,-223.1 158.89,-216.11"/>
<text text-anchor="middle" x="186.5" y="-217" font-family="Helvetica,sans-Serif" font-size="10.00"> empty</text>
<text text-anchor="middle" x="186.5" y="-206" font-family="Helvetica,sans-Serif" font-size="10.00">newline</text>
</g>
<!-- Node4&#45;&gt;Node2 -->
<g id="edge4" class="edge">
<title>Node4&#45;&gt;Node2</title>
<path fill="none" stroke="#9a32cd" stroke-dasharray="5,2" d="M215.05,-24.16C242.07,-38.38 276.07,-62.58 261,-89 238.35,-128.73 180.96,-140.29 148.1,-143.64"/>
<polygon fill="#9a32cd" stroke="#9a32cd" points="216.38,-20.91 205.88,-19.56 213.25,-27.17 216.38,-20.91"/>
<text text-anchor="middle" x="302" y="-81" font-family="Helvetica,sans-Serif" font-size="10.00"> split_link</text>
<text text-anchor="middle" x="302" y="-70" font-family="Helvetica,sans-Serif" font-size="10.00">split_link_mem</text>
</g>
<!-- Node4&#45;&gt;Node4 -->
<g id="edge5" class="edge">
<title>Node4&#45;&gt;Node4</title>
<path fill="none" stroke="#9a32cd" stroke-dasharray="5,2" d="M252.4,-14.4C257.12,-13.4 260,-11.93 260,-10 260,-6.91 252.62,-5.01 242.15,-4.31"/>
<polygon fill="#9a32cd" stroke="#9a32cd" points="251.63,-10.97 242.15,-15.69 252.51,-17.91 251.63,-10.97"/>
<text text-anchor="middle" x="272.5" y="-7.5" font-family="Helvetica,sans-Serif" font-size="10.00"> prev</text>
</g>
<!-- Node5&#45;&gt;Node4 -->
<g id="edge6" class="edge">
<title>Node5&#45;&gt;Node4</title>
<path fill="none" stroke="#9a32cd" stroke-dasharray="5,2" d="M186,-58.04C186,-45.47 186,-29.56 186,-19.84"/>
<polygon fill="#9a32cd" stroke="#9a32cd" points="182.5,-58.37 186,-68.37 189.5,-58.37 182.5,-58.37"/>
<text text-anchor="middle" x="206" y="-41" font-family="Helvetica,sans-Serif" font-size="10.00"> visitors</text>
</g>
</g>
</svg>
