<?xml version="1.0" encoding="UTF-8" standalone="no"?>
<!DOCTYPE svg PUBLIC "-//W3C//DTD SVG 1.1//EN"
 "http://www.w3.org/Graphics/SVG/1.1/DTD/svg11.dtd">
<!-- Generated by graphviz version 2.43.0 (0)
 -->
<!-- Title: P4Tools::P4Testgen::Bmv2::AssertsParser Pages: 1 -->
<svg width="387pt" height="244pt"
 viewBox="0.00 0.00 386.50 244.00" xmlns="http://www.w3.org/2000/svg" xmlns:xlink="http://www.w3.org/1999/xlink">
<g id="graph0" class="graph" transform="scale(1 1) rotate(0) translate(4 240)">
<title>P4Tools::P4Testgen::Bmv2::AssertsParser</title>
<polygon fill="white" stroke="transparent" points="-4,4 -4,-240 382.5,-240 382.5,4 -4,4"/>
<!-- Node1 -->
<g id="node1" class="node">
<title>Node1</title>
<g id="a_node1"><a xlink:title=" ">
<polygon fill="#bfbfbf" stroke="black" points="0,-0.5 0,-30.5 123,-30.5 123,-0.5 0,-0.5"/>
<text text-anchor="start" x="8" y="-18.5" font-family="Helvetica,sans-Serif" font-size="10.00">P4Tools::P4Testgen</text>
<text text-anchor="middle" x="61.5" y="-7.5" font-family="Helvetica,sans-Serif" font-size="10.00">::Bmv2::AssertsParser</text>
</a>
</g>
</g>
<!-- Node2 -->
<g id="node2" class="node">
<title>Node2</title>
<g id="a_node2"><a xlink:href="class_transform.html" target="_top" xlink:title=" ">
<polygon fill="white" stroke="black" points="29,-79.5 29,-98.5 94,-98.5 94,-79.5 29,-79.5"/>
<text text-anchor="middle" x="61.5" y="-86.5" font-family="Helvetica,sans-Serif" font-size="10.00">Transform</text>
</a>
</g>
</g>
<!-- Node2&#45;&gt;Node1 -->
<g id="edge1" class="edge">
<title>Node2&#45;&gt;Node1</title>
<path fill="none" stroke="midnightblue" d="M61.5,-68.9C61.5,-56.82 61.5,-41.47 61.5,-30.51"/>
<polygon fill="midnightblue" stroke="midnightblue" points="58,-69.23 61.5,-79.23 65,-69.23 58,-69.23"/>
</g>
<!-- Node3 -->
<g id="node3" class="node">
<title>Node3</title>
<g id="a_node3"><a xlink:href="class_visitor.html" target="_top" xlink:title=" ">
<polygon fill="white" stroke="black" points="138.5,-147.5 138.5,-166.5 186.5,-166.5 186.5,-147.5 138.5,-147.5"/>
<text text-anchor="middle" x="162.5" y="-154.5" font-family="Helvetica,sans-Serif" font-size="10.00">Visitor</text>
</a>
</g>
</g>
<!-- Node3&#45;&gt;Node2 -->
<g id="edge2" class="edge">
<title>Node3&#45;&gt;Node2</title>
<path fill="none" stroke="midnightblue" d="M137.91,-142.09C130.92,-138 123.34,-133.42 116.5,-129 101.16,-119.09 84.09,-106.77 73.1,-98.67"/>
<polygon fill="midnightblue" stroke="midnightblue" points="136.56,-145.35 146.97,-147.33 140.06,-139.29 136.56,-145.35"/>
</g>
<!-- Node3&#45;&gt;Node3 -->
<g id="edge10" class="edge">
<title>Node3&#45;&gt;Node3</title>
<path fill="none" stroke="#9a32cd" stroke-dasharray="5,2" d="M196.92,-162.29C201.48,-161.39 204.5,-159.63 204.5,-157 204.5,-152.69 196.36,-150.7 186.67,-151.04"/>
<polygon fill="#9a32cd" stroke="#9a32cd" points="196.42,-158.82 186.67,-162.96 196.88,-165.8 196.42,-158.82"/>
<text text-anchor="middle" x="229.5" y="-154.5" font-family="Helvetica,sans-Serif" font-size="10.00"> called_by</text>
</g>
<!-- Node5 -->
<g id="node5" class="node">
<title>Node5</title>
<g id="a_node5"><a xlink:href="class_split_flow_visit__base.html" target="_top" xlink:title=" ">
<polygon fill="white" stroke="black" points="168.5,-6 168.5,-25 280.5,-25 280.5,-6 168.5,-6"/>
<text text-anchor="middle" x="224.5" y="-13" font-family="Helvetica,sans-Serif" font-size="10.00">SplitFlowVisit_base</text>
</a>
</g>
</g>
<!-- Node3&#45;&gt;Node5 -->
<g id="edge9" class="edge">
<title>Node3&#45;&gt;Node5</title>
<path fill="none" stroke="#9a32cd" stroke-dasharray="5,2" d="M150.35,-138.93C140.37,-122.65 129.41,-97.76 139.5,-78 152.76,-52.05 182.65,-34.51 203.2,-25.01"/>
<polygon fill="#9a32cd" stroke="#9a32cd" points="147.51,-140.99 155.94,-147.42 153.36,-137.14 147.51,-140.99"/>
<text text-anchor="middle" x="144.5" y="-86.5" font-family="Helvetica,sans-Serif" font-size="10.00"> v</text>
</g>
<!-- Node6 -->
<g id="node6" class="node">
<title>Node6</title>
<g id="a_node6"><a xlink:title=" ">
<polygon fill="white" stroke="#bfbfbf" points="159,-79.5 159,-98.5 290,-98.5 290,-79.5 159,-79.5"/>
<text text-anchor="middle" x="224.5" y="-86.5" font-family="Helvetica,sans-Serif" font-size="10.00">std::vector&lt; Visitor * &gt;</text>
</a>
</g>
</g>
<!-- Node3&#45;&gt;Node6 -->
<g id="edge8" class="edge">
<title>Node3&#45;&gt;Node6</title>
<path fill="none" stroke="#9a32cd" stroke-dasharray="5,2" d="M177.49,-140.05C189.64,-127.11 206.32,-109.36 216.19,-98.84"/>
<polygon fill="#9a32cd" stroke="#9a32cd" points="174.9,-137.69 170.61,-147.37 180,-142.48 174.9,-137.69"/>
<text text-anchor="middle" x="222" y="-121" font-family="Helvetica,sans-Serif" font-size="10.00"> elements</text>
</g>
<!-- Node4 -->
<g id="node4" class="node">
<title>Node4</title>
<g id="a_node4"><a xlink:href="classcstring.html" target="_top" xlink:title=" ">
<polygon fill="white" stroke="black" points="137.5,-215.5 137.5,-234.5 187.5,-234.5 187.5,-215.5 137.5,-215.5"/>
<text text-anchor="middle" x="162.5" y="-222.5" font-family="Helvetica,sans-Serif" font-size="10.00">cstring</text>
</a>
</g>
</g>
<!-- Node4&#45;&gt;Node3 -->
<g id="edge3" class="edge">
<title>Node4&#45;&gt;Node3</title>
<path fill="none" stroke="#9a32cd" stroke-dasharray="5,2" d="M162.5,-205.04C162.5,-192.47 162.5,-176.56 162.5,-166.84"/>
<polygon fill="#9a32cd" stroke="#9a32cd" points="159,-205.37 162.5,-215.37 166,-205.37 159,-205.37"/>
<text text-anchor="middle" x="197.5" y="-188" font-family="Helvetica,sans-Serif" font-size="10.00"> internalName</text>
</g>
<!-- Node4&#45;&gt;Node4 -->
<g id="edge4" class="edge">
<title>Node4&#45;&gt;Node4</title>
<path fill="none" stroke="#9a32cd" stroke-dasharray="5,2" d="M197.95,-230.58C202.5,-229.61 205.5,-227.75 205.5,-225 205.5,-220.48 197.41,-218.37 187.68,-218.65"/>
<polygon fill="#9a32cd" stroke="#9a32cd" points="197.39,-227.11 187.68,-231.35 197.91,-234.1 197.39,-227.11"/>
<text text-anchor="middle" x="225" y="-228" font-family="Helvetica,sans-Serif" font-size="10.00"> empty</text>
<text text-anchor="middle" x="225" y="-217" font-family="Helvetica,sans-Serif" font-size="10.00">newline</text>
</g>
<!-- Node5&#45;&gt;Node3 -->
<g id="edge5" class="edge">
<title>Node5&#45;&gt;Node3</title>
<path fill="none" stroke="#9a32cd" stroke-dasharray="5,2" d="M252.07,-29.98C279.53,-45.35 315.46,-72.02 299.5,-100 276.85,-139.73 219.46,-151.29 186.6,-154.64"/>
<polygon fill="#9a32cd" stroke="#9a32cd" points="253.64,-26.85 243.18,-25.21 250.34,-33.02 253.64,-26.85"/>
<text text-anchor="middle" x="340.5" y="-92" font-family="Helvetica,sans-Serif" font-size="10.00"> split_link</text>
<text text-anchor="middle" x="340.5" y="-81" font-family="Helvetica,sans-Serif" font-size="10.00">split_link_mem</text>
</g>
<!-- Node5&#45;&gt;Node5 -->
<g id="edge6" class="edge">
<title>Node5&#45;&gt;Node5</title>
<path fill="none" stroke="#9a32cd" stroke-dasharray="5,2" d="M290.54,-20.81C295.47,-19.62 298.5,-17.85 298.5,-15.5 298.5,-11.83 291.12,-9.57 280.65,-8.74"/>
<polygon fill="#9a32cd" stroke="#9a32cd" points="290.03,-17.35 280.65,-22.26 291.05,-24.27 290.03,-17.35"/>
<text text-anchor="middle" x="311" y="-13" font-family="Helvetica,sans-Serif" font-size="10.00"> prev</text>
</g>
<!-- Node6&#45;&gt;Node5 -->
<g id="edge7" class="edge">
<title>Node6&#45;&gt;Node5</title>
<path fill="none" stroke="#9a32cd" stroke-dasharray="5,2" d="M224.5,-69.09C224.5,-54.93 224.5,-36.2 224.5,-25.34"/>
<polygon fill="#9a32cd" stroke="#9a32cd" points="221,-69.23 224.5,-79.23 228,-69.23 221,-69.23"/>
<text text-anchor="middle" x="244.5" y="-52" font-family="Helvetica,sans-Serif" font-size="10.00"> visitors</text>
</g>
</g>
</svg>
