<?xml version="1.0" encoding="UTF-8" standalone="no"?>
<!DOCTYPE svg PUBLIC "-//W3C//DTD SVG 1.1//EN"
 "http://www.w3.org/Graphics/SVG/1.1/DTD/svg11.dtd">
<!-- Generated by graphviz version 2.43.0 (0)
 -->
<!-- Title: InlineControlFlow Pages: 1 -->
<svg width="376pt" height="233pt"
 viewBox="0.00 0.00 376.00 233.00" xmlns="http://www.w3.org/2000/svg" xmlns:xlink="http://www.w3.org/1999/xlink">
<g id="graph0" class="graph" transform="scale(1 1) rotate(0) translate(4 229)">
<title>InlineControlFlow</title>
<polygon fill="white" stroke="transparent" points="-4,4 -4,-229 372,-229 372,4 -4,4"/>
<!-- Node1 -->
<g id="node1" class="node">
<title>Node1</title>
<g id="a_node1"><a xlink:title=" ">
<polygon fill="#bfbfbf" stroke="black" points="0,-0.5 0,-19.5 102,-19.5 102,-0.5 0,-0.5"/>
<text text-anchor="middle" x="51" y="-7.5" font-family="Helvetica,sans-Serif" font-size="10.00">InlineControlFlow</text>
</a>
</g>
</g>
<!-- Node2 -->
<g id="node2" class="node">
<title>Node2</title>
<g id="a_node2"><a xlink:href="class_transform.html" target="_top" xlink:title=" ">
<polygon fill="white" stroke="black" points="18.5,-68.5 18.5,-87.5 83.5,-87.5 83.5,-68.5 18.5,-68.5"/>
<text text-anchor="middle" x="51" y="-75.5" font-family="Helvetica,sans-Serif" font-size="10.00">Transform</text>
</a>
</g>
</g>
<!-- Node2&#45;&gt;Node1 -->
<g id="edge1" class="edge">
<title>Node2&#45;&gt;Node1</title>
<path fill="none" stroke="midnightblue" d="M51,-58.04C51,-45.47 51,-29.56 51,-19.84"/>
<polygon fill="midnightblue" stroke="midnightblue" points="47.5,-58.37 51,-68.37 54.5,-58.37 47.5,-58.37"/>
</g>
<!-- Node3 -->
<g id="node3" class="node">
<title>Node3</title>
<g id="a_node3"><a xlink:href="class_visitor.html" target="_top" xlink:title=" ">
<polygon fill="white" stroke="black" points="128,-136.5 128,-155.5 176,-155.5 176,-136.5 128,-136.5"/>
<text text-anchor="middle" x="152" y="-143.5" font-family="Helvetica,sans-Serif" font-size="10.00">Visitor</text>
</a>
</g>
</g>
<!-- Node3&#45;&gt;Node2 -->
<g id="edge2" class="edge">
<title>Node3&#45;&gt;Node2</title>
<path fill="none" stroke="midnightblue" d="M127.41,-131.09C120.42,-127 112.84,-122.42 106,-118 90.66,-108.09 73.59,-95.77 62.6,-87.67"/>
<polygon fill="midnightblue" stroke="midnightblue" points="126.06,-134.35 136.47,-136.33 129.56,-128.29 126.06,-134.35"/>
</g>
<!-- Node3&#45;&gt;Node3 -->
<g id="edge10" class="edge">
<title>Node3&#45;&gt;Node3</title>
<path fill="none" stroke="#9a32cd" stroke-dasharray="5,2" d="M186.42,-151.29C190.98,-150.39 194,-148.63 194,-146 194,-141.69 185.86,-139.7 176.17,-140.04"/>
<polygon fill="#9a32cd" stroke="#9a32cd" points="185.92,-147.82 176.17,-151.96 186.38,-154.8 185.92,-147.82"/>
<text text-anchor="middle" x="219" y="-143.5" font-family="Helvetica,sans-Serif" font-size="10.00"> called_by</text>
</g>
<!-- Node5 -->
<g id="node5" class="node">
<title>Node5</title>
<g id="a_node5"><a xlink:href="class_split_flow_visit__base.html" target="_top" xlink:title=" ">
<polygon fill="white" stroke="black" points="158,-0.5 158,-19.5 270,-19.5 270,-0.5 158,-0.5"/>
<text text-anchor="middle" x="214" y="-7.5" font-family="Helvetica,sans-Serif" font-size="10.00">SplitFlowVisit_base</text>
</a>
</g>
</g>
<!-- Node3&#45;&gt;Node5 -->
<g id="edge9" class="edge">
<title>Node3&#45;&gt;Node5</title>
<path fill="none" stroke="#9a32cd" stroke-dasharray="5,2" d="M139.66,-127.83C129.54,-111.48 118.48,-86.53 129,-67 141.74,-43.35 169.32,-28.04 189.62,-19.51"/>
<polygon fill="#9a32cd" stroke="#9a32cd" points="136.88,-129.97 145.33,-136.36 142.7,-126.1 136.88,-129.97"/>
<text text-anchor="middle" x="134" y="-75.5" font-family="Helvetica,sans-Serif" font-size="10.00"> v</text>
</g>
<!-- Node6 -->
<g id="node6" class="node">
<title>Node6</title>
<g id="a_node6"><a xlink:title=" ">
<polygon fill="white" stroke="#bfbfbf" points="148.5,-68.5 148.5,-87.5 279.5,-87.5 279.5,-68.5 148.5,-68.5"/>
<text text-anchor="middle" x="214" y="-75.5" font-family="Helvetica,sans-Serif" font-size="10.00">std::vector&lt; Visitor * &gt;</text>
</a>
</g>
</g>
<!-- Node3&#45;&gt;Node6 -->
<g id="edge8" class="edge">
<title>Node3&#45;&gt;Node6</title>
<path fill="none" stroke="#9a32cd" stroke-dasharray="5,2" d="M166.99,-129.05C179.14,-116.11 195.82,-98.36 205.69,-87.84"/>
<polygon fill="#9a32cd" stroke="#9a32cd" points="164.4,-126.69 160.11,-136.37 169.5,-131.48 164.4,-126.69"/>
<text text-anchor="middle" x="211.5" y="-110" font-family="Helvetica,sans-Serif" font-size="10.00"> elements</text>
</g>
<!-- Node4 -->
<g id="node4" class="node">
<title>Node4</title>
<g id="a_node4"><a xlink:href="classcstring.html" target="_top" xlink:title=" ">
<polygon fill="white" stroke="black" points="127,-204.5 127,-223.5 177,-223.5 177,-204.5 127,-204.5"/>
<text text-anchor="middle" x="152" y="-211.5" font-family="Helvetica,sans-Serif" font-size="10.00">cstring</text>
</a>
</g>
</g>
<!-- Node4&#45;&gt;Node3 -->
<g id="edge3" class="edge">
<title>Node4&#45;&gt;Node3</title>
<path fill="none" stroke="#9a32cd" stroke-dasharray="5,2" d="M152,-194.04C152,-181.47 152,-165.56 152,-155.84"/>
<polygon fill="#9a32cd" stroke="#9a32cd" points="148.5,-194.37 152,-204.37 155.5,-194.37 148.5,-194.37"/>
<text text-anchor="middle" x="187" y="-177" font-family="Helvetica,sans-Serif" font-size="10.00"> internalName</text>
</g>
<!-- Node4&#45;&gt;Node4 -->
<g id="edge4" class="edge">
<title>Node4&#45;&gt;Node4</title>
<path fill="none" stroke="#9a32cd" stroke-dasharray="5,2" d="M187.45,-219.58C192,-218.61 195,-216.75 195,-214 195,-209.48 186.91,-207.37 177.18,-207.65"/>
<polygon fill="#9a32cd" stroke="#9a32cd" points="186.89,-216.11 177.18,-220.35 187.41,-223.1 186.89,-216.11"/>
<text text-anchor="middle" x="214.5" y="-217" font-family="Helvetica,sans-Serif" font-size="10.00"> empty</text>
<text text-anchor="middle" x="214.5" y="-206" font-family="Helvetica,sans-Serif" font-size="10.00">newline</text>
</g>
<!-- Node5&#45;&gt;Node3 -->
<g id="edge5" class="edge">
<title>Node5&#45;&gt;Node3</title>
<path fill="none" stroke="#9a32cd" stroke-dasharray="5,2" d="M243.05,-24.16C270.07,-38.38 304.07,-62.58 289,-89 266.35,-128.73 208.96,-140.29 176.1,-143.64"/>
<polygon fill="#9a32cd" stroke="#9a32cd" points="244.38,-20.91 233.88,-19.56 241.25,-27.17 244.38,-20.91"/>
<text text-anchor="middle" x="330" y="-81" font-family="Helvetica,sans-Serif" font-size="10.00"> split_link</text>
<text text-anchor="middle" x="330" y="-70" font-family="Helvetica,sans-Serif" font-size="10.00">split_link_mem</text>
</g>
<!-- Node5&#45;&gt;Node5 -->
<g id="edge6" class="edge">
<title>Node5&#45;&gt;Node5</title>
<path fill="none" stroke="#9a32cd" stroke-dasharray="5,2" d="M280.4,-14.4C285.12,-13.4 288,-11.93 288,-10 288,-6.91 280.62,-5.01 270.15,-4.31"/>
<polygon fill="#9a32cd" stroke="#9a32cd" points="279.63,-10.97 270.15,-15.69 280.51,-17.91 279.63,-10.97"/>
<text text-anchor="middle" x="300.5" y="-7.5" font-family="Helvetica,sans-Serif" font-size="10.00"> prev</text>
</g>
<!-- Node6&#45;&gt;Node5 -->
<g id="edge7" class="edge">
<title>Node6&#45;&gt;Node5</title>
<path fill="none" stroke="#9a32cd" stroke-dasharray="5,2" d="M214,-58.04C214,-45.47 214,-29.56 214,-19.84"/>
<polygon fill="#9a32cd" stroke="#9a32cd" points="210.5,-58.37 214,-68.37 217.5,-58.37 210.5,-58.37"/>
<text text-anchor="middle" x="234" y="-41" font-family="Helvetica,sans-Serif" font-size="10.00"> visitors</text>
</g>
</g>
</svg>
