<?xml version="1.0" encoding="UTF-8" standalone="no"?>
<!DOCTYPE svg PUBLIC "-//W3C//DTD SVG 1.1//EN"
 "http://www.w3.org/Graphics/SVG/1.1/DTD/svg11.dtd">
<!-- Generated by graphviz version 2.43.0 (0)
 -->
<!-- Title: P4Tools::P4Testgen::Bmv2::PropagateP4RuntimeTranslation Pages: 1 -->
<svg width="406pt" height="255pt"
 viewBox="0.00 0.00 406.00 255.00" xmlns="http://www.w3.org/2000/svg" xmlns:xlink="http://www.w3.org/1999/xlink">
<g id="graph0" class="graph" transform="scale(1 1) rotate(0) translate(4 251)">
<title>P4Tools::P4Testgen::Bmv2::PropagateP4RuntimeTranslation</title>
<polygon fill="white" stroke="transparent" points="-4,4 -4,-251 402,-251 402,4 -4,4"/>
<!-- Node1 -->
<g id="node1" class="node">
<title>Node1</title>
<g id="a_node1"><a xlink:title=" ">
<polygon fill="#bfbfbf" stroke="black" points="0,-0.5 0,-41.5 160,-41.5 160,-0.5 0,-0.5"/>
<text text-anchor="start" x="8" y="-29.5" font-family="Helvetica,sans-Serif" font-size="10.00">P4Tools::P4Testgen</text>
<text text-anchor="start" x="8" y="-18.5" font-family="Helvetica,sans-Serif" font-size="10.00">::Bmv2::PropagateP4Runtime</text>
<text text-anchor="middle" x="80" y="-7.5" font-family="Helvetica,sans-Serif" font-size="10.00">Translation</text>
</a>
</g>
</g>
<!-- Node2 -->
<g id="node2" class="node">
<title>Node2</title>
<g id="a_node2"><a xlink:href="class_transform.html" target="_top" xlink:title=" ">
<polygon fill="white" stroke="black" points="47.5,-90.5 47.5,-109.5 112.5,-109.5 112.5,-90.5 47.5,-90.5"/>
<text text-anchor="middle" x="80" y="-97.5" font-family="Helvetica,sans-Serif" font-size="10.00">Transform</text>
</a>
</g>
</g>
<!-- Node2&#45;&gt;Node1 -->
<g id="edge1" class="edge">
<title>Node2&#45;&gt;Node1</title>
<path fill="none" stroke="midnightblue" d="M80,-80.15C80,-68.5 80,-53.58 80,-41.77"/>
<polygon fill="midnightblue" stroke="midnightblue" points="76.5,-80.47 80,-90.47 83.5,-80.47 76.5,-80.47"/>
</g>
<!-- Node3 -->
<g id="node3" class="node">
<title>Node3</title>
<g id="a_node3"><a xlink:href="class_visitor.html" target="_top" xlink:title=" ">
<polygon fill="white" stroke="black" points="157,-158.5 157,-177.5 205,-177.5 205,-158.5 157,-158.5"/>
<text text-anchor="middle" x="181" y="-165.5" font-family="Helvetica,sans-Serif" font-size="10.00">Visitor</text>
</a>
</g>
</g>
<!-- Node3&#45;&gt;Node2 -->
<g id="edge2" class="edge">
<title>Node3&#45;&gt;Node2</title>
<path fill="none" stroke="midnightblue" d="M156.41,-153.09C149.42,-149 141.84,-144.42 135,-140 119.66,-130.09 102.59,-117.77 91.6,-109.67"/>
<polygon fill="midnightblue" stroke="midnightblue" points="155.06,-156.35 165.47,-158.33 158.56,-150.29 155.06,-156.35"/>
</g>
<!-- Node3&#45;&gt;Node3 -->
<g id="edge10" class="edge">
<title>Node3&#45;&gt;Node3</title>
<path fill="none" stroke="#9a32cd" stroke-dasharray="5,2" d="M215.42,-173.29C219.98,-172.39 223,-170.63 223,-168 223,-163.69 214.86,-161.7 205.17,-162.04"/>
<polygon fill="#9a32cd" stroke="#9a32cd" points="214.92,-169.82 205.17,-173.96 215.38,-176.8 214.92,-169.82"/>
<text text-anchor="middle" x="248" y="-165.5" font-family="Helvetica,sans-Serif" font-size="10.00"> called_by</text>
</g>
<!-- Node5 -->
<g id="node5" class="node">
<title>Node5</title>
<g id="a_node5"><a xlink:href="class_split_flow_visit__base.html" target="_top" xlink:title=" ">
<polygon fill="white" stroke="black" points="187,-11.5 187,-30.5 299,-30.5 299,-11.5 187,-11.5"/>
<text text-anchor="middle" x="243" y="-18.5" font-family="Helvetica,sans-Serif" font-size="10.00">SplitFlowVisit_base</text>
</a>
</g>
</g>
<!-- Node3&#45;&gt;Node5 -->
<g id="edge9" class="edge">
<title>Node3&#45;&gt;Node5</title>
<path fill="none" stroke="#9a32cd" stroke-dasharray="5,2" d="M169.03,-150.02C159.19,-133.81 148.32,-108.96 158,-89 171.61,-60.94 203.31,-41.1 223.92,-30.61"/>
<polygon fill="#9a32cd" stroke="#9a32cd" points="166.15,-152.01 174.54,-158.47 172.01,-148.18 166.15,-152.01"/>
<text text-anchor="middle" x="163" y="-97.5" font-family="Helvetica,sans-Serif" font-size="10.00"> v</text>
</g>
<!-- Node6 -->
<g id="node6" class="node">
<title>Node6</title>
<g id="a_node6"><a xlink:title=" ">
<polygon fill="white" stroke="#bfbfbf" points="177.5,-90.5 177.5,-109.5 308.5,-109.5 308.5,-90.5 177.5,-90.5"/>
<text text-anchor="middle" x="243" y="-97.5" font-family="Helvetica,sans-Serif" font-size="10.00">std::vector&lt; Visitor * &gt;</text>
</a>
</g>
</g>
<!-- Node3&#45;&gt;Node6 -->
<g id="edge8" class="edge">
<title>Node3&#45;&gt;Node6</title>
<path fill="none" stroke="#9a32cd" stroke-dasharray="5,2" d="M195.99,-151.05C208.14,-138.11 224.82,-120.36 234.69,-109.84"/>
<polygon fill="#9a32cd" stroke="#9a32cd" points="193.4,-148.69 189.11,-158.37 198.5,-153.48 193.4,-148.69"/>
<text text-anchor="middle" x="240.5" y="-132" font-family="Helvetica,sans-Serif" font-size="10.00"> elements</text>
</g>
<!-- Node4 -->
<g id="node4" class="node">
<title>Node4</title>
<g id="a_node4"><a xlink:href="classcstring.html" target="_top" xlink:title=" ">
<polygon fill="white" stroke="black" points="156,-226.5 156,-245.5 206,-245.5 206,-226.5 156,-226.5"/>
<text text-anchor="middle" x="181" y="-233.5" font-family="Helvetica,sans-Serif" font-size="10.00">cstring</text>
</a>
</g>
</g>
<!-- Node4&#45;&gt;Node3 -->
<g id="edge3" class="edge">
<title>Node4&#45;&gt;Node3</title>
<path fill="none" stroke="#9a32cd" stroke-dasharray="5,2" d="M181,-216.04C181,-203.47 181,-187.56 181,-177.84"/>
<polygon fill="#9a32cd" stroke="#9a32cd" points="177.5,-216.37 181,-226.37 184.5,-216.37 177.5,-216.37"/>
<text text-anchor="middle" x="216" y="-199" font-family="Helvetica,sans-Serif" font-size="10.00"> internalName</text>
</g>
<!-- Node4&#45;&gt;Node4 -->
<g id="edge4" class="edge">
<title>Node4&#45;&gt;Node4</title>
<path fill="none" stroke="#9a32cd" stroke-dasharray="5,2" d="M216.45,-241.58C221,-240.61 224,-238.75 224,-236 224,-231.48 215.91,-229.37 206.18,-229.65"/>
<polygon fill="#9a32cd" stroke="#9a32cd" points="215.89,-238.11 206.18,-242.35 216.41,-245.1 215.89,-238.11"/>
<text text-anchor="middle" x="243.5" y="-239" font-family="Helvetica,sans-Serif" font-size="10.00"> empty</text>
<text text-anchor="middle" x="243.5" y="-228" font-family="Helvetica,sans-Serif" font-size="10.00">newline</text>
</g>
<!-- Node5&#45;&gt;Node3 -->
<g id="edge5" class="edge">
<title>Node5&#45;&gt;Node3</title>
<path fill="none" stroke="#9a32cd" stroke-dasharray="5,2" d="M269.01,-35.6C296.85,-52.08 334.9,-81.35 318,-111 295.35,-150.73 237.96,-162.29 205.1,-165.64"/>
<polygon fill="#9a32cd" stroke="#9a32cd" points="270.47,-32.41 260.05,-30.52 267.02,-38.5 270.47,-32.41"/>
<text text-anchor="middle" x="360" y="-103" font-family="Helvetica,sans-Serif" font-size="10.00"> split_link</text>
<text text-anchor="middle" x="360" y="-92" font-family="Helvetica,sans-Serif" font-size="10.00">split_link_mem</text>
</g>
<!-- Node5&#45;&gt;Node5 -->
<g id="edge6" class="edge">
<title>Node5&#45;&gt;Node5</title>
<path fill="none" stroke="#9a32cd" stroke-dasharray="5,2" d="M309.04,-27.15C313.97,-25.78 317,-23.73 317,-21 317,-16.75 309.62,-14.14 299.15,-13.17"/>
<polygon fill="#9a32cd" stroke="#9a32cd" points="308.42,-23.71 299.15,-28.83 309.59,-30.61 308.42,-23.71"/>
<text text-anchor="middle" x="329.5" y="-18.5" font-family="Helvetica,sans-Serif" font-size="10.00"> prev</text>
</g>
<!-- Node6&#45;&gt;Node5 -->
<g id="edge7" class="edge">
<title>Node6&#45;&gt;Node5</title>
<path fill="none" stroke="#9a32cd" stroke-dasharray="5,2" d="M243,-80.31C243,-64.59 243,-42.81 243,-30.81"/>
<polygon fill="#9a32cd" stroke="#9a32cd" points="239.5,-80.47 243,-90.47 246.5,-80.47 239.5,-80.47"/>
<text text-anchor="middle" x="263" y="-63" font-family="Helvetica,sans-Serif" font-size="10.00"> visitors</text>
</g>
</g>
</svg>
