<?xml version="1.0" encoding="UTF-8" standalone="no"?>
<!DOCTYPE svg PUBLIC "-//W3C//DTD SVG 1.1//EN"
 "http://www.w3.org/Graphics/SVG/1.1/DTD/svg11.dtd">
<!-- Generated by graphviz version 2.43.0 (0)
 -->
<!-- Title: P4V1::ComputeCallGraph Pages: 1 -->
<svg width="393pt" height="233pt"
 viewBox="0.00 0.00 393.00 233.00" xmlns="http://www.w3.org/2000/svg" xmlns:xlink="http://www.w3.org/1999/xlink">
<g id="graph0" class="graph" transform="scale(1 1) rotate(0) translate(4 229)">
<title>P4V1::ComputeCallGraph</title>
<polygon fill="white" stroke="transparent" points="-4,4 -4,-229 389,-229 389,4 -4,4"/>
<!-- Node1 -->
<g id="node1" class="node">
<title>Node1</title>
<g id="a_node1"><a xlink:title=" ">
<polygon fill="#bfbfbf" stroke="black" points="0,-0.5 0,-19.5 140,-19.5 140,-0.5 0,-0.5"/>
<text text-anchor="middle" x="70" y="-7.5" font-family="Helvetica,sans-Serif" font-size="10.00">P4V1::ComputeCallGraph</text>
</a>
</g>
</g>
<!-- Node2 -->
<g id="node2" class="node">
<title>Node2</title>
<g id="a_node2"><a xlink:href="class_inspector.html" target="_top" xlink:title=" ">
<polygon fill="white" stroke="black" points="39,-68.5 39,-87.5 101,-87.5 101,-68.5 39,-68.5"/>
<text text-anchor="middle" x="70" y="-75.5" font-family="Helvetica,sans-Serif" font-size="10.00">Inspector</text>
</a>
</g>
</g>
<!-- Node2&#45;&gt;Node1 -->
<g id="edge1" class="edge">
<title>Node2&#45;&gt;Node1</title>
<path fill="none" stroke="midnightblue" d="M70,-58.04C70,-45.47 70,-29.56 70,-19.84"/>
<polygon fill="midnightblue" stroke="midnightblue" points="66.5,-58.37 70,-68.37 73.5,-58.37 66.5,-58.37"/>
</g>
<!-- Node3 -->
<g id="node3" class="node">
<title>Node3</title>
<g id="a_node3"><a xlink:href="class_visitor.html" target="_top" xlink:title=" ">
<polygon fill="white" stroke="black" points="145,-136.5 145,-155.5 193,-155.5 193,-136.5 145,-136.5"/>
<text text-anchor="middle" x="169" y="-143.5" font-family="Helvetica,sans-Serif" font-size="10.00">Visitor</text>
</a>
</g>
</g>
<!-- Node3&#45;&gt;Node2 -->
<g id="edge2" class="edge">
<title>Node3&#45;&gt;Node2</title>
<path fill="none" stroke="midnightblue" d="M144.36,-131.17C137.37,-127.07 129.8,-122.48 123,-118 108.12,-108.19 91.69,-95.86 81.13,-87.72"/>
<polygon fill="midnightblue" stroke="midnightblue" points="143.01,-134.43 153.42,-136.39 146.51,-128.37 143.01,-134.43"/>
</g>
<!-- Node3&#45;&gt;Node3 -->
<g id="edge10" class="edge">
<title>Node3&#45;&gt;Node3</title>
<path fill="none" stroke="#9a32cd" stroke-dasharray="5,2" d="M203.42,-151.29C207.98,-150.39 211,-148.63 211,-146 211,-141.69 202.86,-139.7 193.17,-140.04"/>
<polygon fill="#9a32cd" stroke="#9a32cd" points="202.92,-147.82 193.17,-151.96 203.38,-154.8 202.92,-147.82"/>
<text text-anchor="middle" x="236" y="-143.5" font-family="Helvetica,sans-Serif" font-size="10.00"> called_by</text>
</g>
<!-- Node5 -->
<g id="node5" class="node">
<title>Node5</title>
<g id="a_node5"><a xlink:href="class_split_flow_visit__base.html" target="_top" xlink:title=" ">
<polygon fill="white" stroke="black" points="175,-0.5 175,-19.5 287,-19.5 287,-0.5 175,-0.5"/>
<text text-anchor="middle" x="231" y="-7.5" font-family="Helvetica,sans-Serif" font-size="10.00">SplitFlowVisit_base</text>
</a>
</g>
</g>
<!-- Node3&#45;&gt;Node5 -->
<g id="edge9" class="edge">
<title>Node3&#45;&gt;Node5</title>
<path fill="none" stroke="#9a32cd" stroke-dasharray="5,2" d="M156.66,-127.83C146.54,-111.48 135.48,-86.53 146,-67 158.74,-43.35 186.32,-28.04 206.62,-19.51"/>
<polygon fill="#9a32cd" stroke="#9a32cd" points="153.88,-129.97 162.33,-136.36 159.7,-126.1 153.88,-129.97"/>
<text text-anchor="middle" x="151" y="-75.5" font-family="Helvetica,sans-Serif" font-size="10.00"> v</text>
</g>
<!-- Node6 -->
<g id="node6" class="node">
<title>Node6</title>
<g id="a_node6"><a xlink:title=" ">
<polygon fill="white" stroke="#bfbfbf" points="165.5,-68.5 165.5,-87.5 296.5,-87.5 296.5,-68.5 165.5,-68.5"/>
<text text-anchor="middle" x="231" y="-75.5" font-family="Helvetica,sans-Serif" font-size="10.00">std::vector&lt; Visitor * &gt;</text>
</a>
</g>
</g>
<!-- Node3&#45;&gt;Node6 -->
<g id="edge8" class="edge">
<title>Node3&#45;&gt;Node6</title>
<path fill="none" stroke="#9a32cd" stroke-dasharray="5,2" d="M183.99,-129.05C196.14,-116.11 212.82,-98.36 222.69,-87.84"/>
<polygon fill="#9a32cd" stroke="#9a32cd" points="181.4,-126.69 177.11,-136.37 186.5,-131.48 181.4,-126.69"/>
<text text-anchor="middle" x="228.5" y="-110" font-family="Helvetica,sans-Serif" font-size="10.00"> elements</text>
</g>
<!-- Node4 -->
<g id="node4" class="node">
<title>Node4</title>
<g id="a_node4"><a xlink:href="classcstring.html" target="_top" xlink:title=" ">
<polygon fill="white" stroke="black" points="144,-204.5 144,-223.5 194,-223.5 194,-204.5 144,-204.5"/>
<text text-anchor="middle" x="169" y="-211.5" font-family="Helvetica,sans-Serif" font-size="10.00">cstring</text>
</a>
</g>
</g>
<!-- Node4&#45;&gt;Node3 -->
<g id="edge3" class="edge">
<title>Node4&#45;&gt;Node3</title>
<path fill="none" stroke="#9a32cd" stroke-dasharray="5,2" d="M169,-194.04C169,-181.47 169,-165.56 169,-155.84"/>
<polygon fill="#9a32cd" stroke="#9a32cd" points="165.5,-194.37 169,-204.37 172.5,-194.37 165.5,-194.37"/>
<text text-anchor="middle" x="204" y="-177" font-family="Helvetica,sans-Serif" font-size="10.00"> internalName</text>
</g>
<!-- Node4&#45;&gt;Node4 -->
<g id="edge4" class="edge">
<title>Node4&#45;&gt;Node4</title>
<path fill="none" stroke="#9a32cd" stroke-dasharray="5,2" d="M204.45,-219.58C209,-218.61 212,-216.75 212,-214 212,-209.48 203.91,-207.37 194.18,-207.65"/>
<polygon fill="#9a32cd" stroke="#9a32cd" points="203.89,-216.11 194.18,-220.35 204.41,-223.1 203.89,-216.11"/>
<text text-anchor="middle" x="231.5" y="-217" font-family="Helvetica,sans-Serif" font-size="10.00"> empty</text>
<text text-anchor="middle" x="231.5" y="-206" font-family="Helvetica,sans-Serif" font-size="10.00">newline</text>
</g>
<!-- Node5&#45;&gt;Node3 -->
<g id="edge5" class="edge">
<title>Node5&#45;&gt;Node3</title>
<path fill="none" stroke="#9a32cd" stroke-dasharray="5,2" d="M260.05,-24.16C287.07,-38.38 321.07,-62.58 306,-89 283.35,-128.73 225.96,-140.29 193.1,-143.64"/>
<polygon fill="#9a32cd" stroke="#9a32cd" points="261.38,-20.91 250.88,-19.56 258.25,-27.17 261.38,-20.91"/>
<text text-anchor="middle" x="347" y="-81" font-family="Helvetica,sans-Serif" font-size="10.00"> split_link</text>
<text text-anchor="middle" x="347" y="-70" font-family="Helvetica,sans-Serif" font-size="10.00">split_link_mem</text>
</g>
<!-- Node5&#45;&gt;Node5 -->
<g id="edge6" class="edge">
<title>Node5&#45;&gt;Node5</title>
<path fill="none" stroke="#9a32cd" stroke-dasharray="5,2" d="M297.4,-14.4C302.12,-13.4 305,-11.93 305,-10 305,-6.91 297.62,-5.01 287.15,-4.31"/>
<polygon fill="#9a32cd" stroke="#9a32cd" points="296.63,-10.97 287.15,-15.69 297.51,-17.91 296.63,-10.97"/>
<text text-anchor="middle" x="317.5" y="-7.5" font-family="Helvetica,sans-Serif" font-size="10.00"> prev</text>
</g>
<!-- Node6&#45;&gt;Node5 -->
<g id="edge7" class="edge">
<title>Node6&#45;&gt;Node5</title>
<path fill="none" stroke="#9a32cd" stroke-dasharray="5,2" d="M231,-58.04C231,-45.47 231,-29.56 231,-19.84"/>
<polygon fill="#9a32cd" stroke="#9a32cd" points="227.5,-58.37 231,-68.37 234.5,-58.37 227.5,-58.37"/>
<text text-anchor="middle" x="251" y="-41" font-family="Helvetica,sans-Serif" font-size="10.00"> visitors</text>
</g>
</g>
</svg>
