<?xml version="1.0" encoding="UTF-8" standalone="no"?>
<!DOCTYPE svg PUBLIC "-//W3C//DTD SVG 1.1//EN"
 "http://www.w3.org/Graphics/SVG/1.1/DTD/svg11.dtd">
<!-- Generated by graphviz version 2.43.0 (0)
 -->
<!-- Title: P4::ControlPlaneAPI::TypeSpecConverter Pages: 1 -->
<svg width="381pt" height="244pt"
 viewBox="0.00 0.00 381.00 244.00" xmlns="http://www.w3.org/2000/svg" xmlns:xlink="http://www.w3.org/1999/xlink">
<g id="graph0" class="graph" transform="scale(1 1) rotate(0) translate(4 240)">
<title>P4::ControlPlaneAPI::TypeSpecConverter</title>
<polygon fill="white" stroke="transparent" points="-4,4 -4,-240 377,-240 377,4 -4,4"/>
<!-- Node1 -->
<g id="node1" class="node">
<title>Node1</title>
<g id="a_node1"><a xlink:title="Generates the appropriate p4.P4DataTypeSpec for a given IR::Type node.">
<polygon fill="#bfbfbf" stroke="black" points="0,-0.5 0,-30.5 116,-30.5 116,-0.5 0,-0.5"/>
<text text-anchor="start" x="8" y="-18.5" font-family="Helvetica,sans-Serif" font-size="10.00">P4::ControlPlaneAPI</text>
<text text-anchor="middle" x="58" y="-7.5" font-family="Helvetica,sans-Serif" font-size="10.00">::TypeSpecConverter</text>
</a>
</g>
</g>
<!-- Node2 -->
<g id="node2" class="node">
<title>Node2</title>
<g id="a_node2"><a xlink:href="class_inspector.html" target="_top" xlink:title=" ">
<polygon fill="white" stroke="black" points="27,-79.5 27,-98.5 89,-98.5 89,-79.5 27,-79.5"/>
<text text-anchor="middle" x="58" y="-86.5" font-family="Helvetica,sans-Serif" font-size="10.00">Inspector</text>
</a>
</g>
</g>
<!-- Node2&#45;&gt;Node1 -->
<g id="edge1" class="edge">
<title>Node2&#45;&gt;Node1</title>
<path fill="none" stroke="midnightblue" d="M58,-68.9C58,-56.82 58,-41.47 58,-30.51"/>
<polygon fill="midnightblue" stroke="midnightblue" points="54.5,-69.23 58,-79.23 61.5,-69.23 54.5,-69.23"/>
</g>
<!-- Node3 -->
<g id="node3" class="node">
<title>Node3</title>
<g id="a_node3"><a xlink:href="class_visitor.html" target="_top" xlink:title=" ">
<polygon fill="white" stroke="black" points="133,-147.5 133,-166.5 181,-166.5 181,-147.5 133,-147.5"/>
<text text-anchor="middle" x="157" y="-154.5" font-family="Helvetica,sans-Serif" font-size="10.00">Visitor</text>
</a>
</g>
</g>
<!-- Node3&#45;&gt;Node2 -->
<g id="edge2" class="edge">
<title>Node3&#45;&gt;Node2</title>
<path fill="none" stroke="midnightblue" d="M132.36,-142.17C125.37,-138.07 117.8,-133.48 111,-129 96.12,-119.19 79.69,-106.86 69.13,-98.72"/>
<polygon fill="midnightblue" stroke="midnightblue" points="131.01,-145.43 141.42,-147.39 134.51,-139.37 131.01,-145.43"/>
</g>
<!-- Node3&#45;&gt;Node3 -->
<g id="edge10" class="edge">
<title>Node3&#45;&gt;Node3</title>
<path fill="none" stroke="#9a32cd" stroke-dasharray="5,2" d="M191.42,-162.29C195.98,-161.39 199,-159.63 199,-157 199,-152.69 190.86,-150.7 181.17,-151.04"/>
<polygon fill="#9a32cd" stroke="#9a32cd" points="190.92,-158.82 181.17,-162.96 191.38,-165.8 190.92,-158.82"/>
<text text-anchor="middle" x="224" y="-154.5" font-family="Helvetica,sans-Serif" font-size="10.00"> called_by</text>
</g>
<!-- Node5 -->
<g id="node5" class="node">
<title>Node5</title>
<g id="a_node5"><a xlink:href="class_split_flow_visit__base.html" target="_top" xlink:title=" ">
<polygon fill="white" stroke="black" points="163,-6 163,-25 275,-25 275,-6 163,-6"/>
<text text-anchor="middle" x="219" y="-13" font-family="Helvetica,sans-Serif" font-size="10.00">SplitFlowVisit_base</text>
</a>
</g>
</g>
<!-- Node3&#45;&gt;Node5 -->
<g id="edge9" class="edge">
<title>Node3&#45;&gt;Node5</title>
<path fill="none" stroke="#9a32cd" stroke-dasharray="5,2" d="M144.85,-138.93C134.87,-122.65 123.91,-97.76 134,-78 147.26,-52.05 177.15,-34.51 197.7,-25.01"/>
<polygon fill="#9a32cd" stroke="#9a32cd" points="142.01,-140.99 150.44,-147.42 147.86,-137.14 142.01,-140.99"/>
<text text-anchor="middle" x="139" y="-86.5" font-family="Helvetica,sans-Serif" font-size="10.00"> v</text>
</g>
<!-- Node6 -->
<g id="node6" class="node">
<title>Node6</title>
<g id="a_node6"><a xlink:title=" ">
<polygon fill="white" stroke="#bfbfbf" points="153.5,-79.5 153.5,-98.5 284.5,-98.5 284.5,-79.5 153.5,-79.5"/>
<text text-anchor="middle" x="219" y="-86.5" font-family="Helvetica,sans-Serif" font-size="10.00">std::vector&lt; Visitor * &gt;</text>
</a>
</g>
</g>
<!-- Node3&#45;&gt;Node6 -->
<g id="edge8" class="edge">
<title>Node3&#45;&gt;Node6</title>
<path fill="none" stroke="#9a32cd" stroke-dasharray="5,2" d="M171.99,-140.05C184.14,-127.11 200.82,-109.36 210.69,-98.84"/>
<polygon fill="#9a32cd" stroke="#9a32cd" points="169.4,-137.69 165.11,-147.37 174.5,-142.48 169.4,-137.69"/>
<text text-anchor="middle" x="216.5" y="-121" font-family="Helvetica,sans-Serif" font-size="10.00"> elements</text>
</g>
<!-- Node4 -->
<g id="node4" class="node">
<title>Node4</title>
<g id="a_node4"><a xlink:href="classcstring.html" target="_top" xlink:title=" ">
<polygon fill="white" stroke="black" points="132,-215.5 132,-234.5 182,-234.5 182,-215.5 132,-215.5"/>
<text text-anchor="middle" x="157" y="-222.5" font-family="Helvetica,sans-Serif" font-size="10.00">cstring</text>
</a>
</g>
</g>
<!-- Node4&#45;&gt;Node3 -->
<g id="edge3" class="edge">
<title>Node4&#45;&gt;Node3</title>
<path fill="none" stroke="#9a32cd" stroke-dasharray="5,2" d="M157,-205.04C157,-192.47 157,-176.56 157,-166.84"/>
<polygon fill="#9a32cd" stroke="#9a32cd" points="153.5,-205.37 157,-215.37 160.5,-205.37 153.5,-205.37"/>
<text text-anchor="middle" x="192" y="-188" font-family="Helvetica,sans-Serif" font-size="10.00"> internalName</text>
</g>
<!-- Node4&#45;&gt;Node4 -->
<g id="edge4" class="edge">
<title>Node4&#45;&gt;Node4</title>
<path fill="none" stroke="#9a32cd" stroke-dasharray="5,2" d="M192.45,-230.58C197,-229.61 200,-227.75 200,-225 200,-220.48 191.91,-218.37 182.18,-218.65"/>
<polygon fill="#9a32cd" stroke="#9a32cd" points="191.89,-227.11 182.18,-231.35 192.41,-234.1 191.89,-227.11"/>
<text text-anchor="middle" x="219.5" y="-228" font-family="Helvetica,sans-Serif" font-size="10.00"> empty</text>
<text text-anchor="middle" x="219.5" y="-217" font-family="Helvetica,sans-Serif" font-size="10.00">newline</text>
</g>
<!-- Node5&#45;&gt;Node3 -->
<g id="edge5" class="edge">
<title>Node5&#45;&gt;Node3</title>
<path fill="none" stroke="#9a32cd" stroke-dasharray="5,2" d="M246.57,-29.98C274.03,-45.35 309.96,-72.02 294,-100 271.35,-139.73 213.96,-151.29 181.1,-154.64"/>
<polygon fill="#9a32cd" stroke="#9a32cd" points="248.14,-26.85 237.68,-25.21 244.84,-33.02 248.14,-26.85"/>
<text text-anchor="middle" x="335" y="-92" font-family="Helvetica,sans-Serif" font-size="10.00"> split_link</text>
<text text-anchor="middle" x="335" y="-81" font-family="Helvetica,sans-Serif" font-size="10.00">split_link_mem</text>
</g>
<!-- Node5&#45;&gt;Node5 -->
<g id="edge6" class="edge">
<title>Node5&#45;&gt;Node5</title>
<path fill="none" stroke="#9a32cd" stroke-dasharray="5,2" d="M285.04,-20.81C289.97,-19.62 293,-17.85 293,-15.5 293,-11.83 285.62,-9.57 275.15,-8.74"/>
<polygon fill="#9a32cd" stroke="#9a32cd" points="284.53,-17.35 275.15,-22.26 285.55,-24.27 284.53,-17.35"/>
<text text-anchor="middle" x="305.5" y="-13" font-family="Helvetica,sans-Serif" font-size="10.00"> prev</text>
</g>
<!-- Node6&#45;&gt;Node5 -->
<g id="edge7" class="edge">
<title>Node6&#45;&gt;Node5</title>
<path fill="none" stroke="#9a32cd" stroke-dasharray="5,2" d="M219,-69.09C219,-54.93 219,-36.2 219,-25.34"/>
<polygon fill="#9a32cd" stroke="#9a32cd" points="215.5,-69.23 219,-79.23 222.5,-69.23 215.5,-69.23"/>
<text text-anchor="middle" x="239" y="-52" font-family="Helvetica,sans-Serif" font-size="10.00"> visitors</text>
</g>
</g>
</svg>
