<?xml version="1.0" encoding="UTF-8" standalone="no"?>
<!DOCTYPE svg PUBLIC "-//W3C//DTD SVG 1.1//EN"
 "http://www.w3.org/Graphics/SVG/1.1/DTD/svg11.dtd">
<!-- Generated by graphviz version 2.43.0 (0)
 -->
<!-- Title: P4::AnalyzeParser Pages: 1 -->
<svg width="375pt" height="233pt"
 viewBox="0.00 0.00 375.00 233.00" xmlns="http://www.w3.org/2000/svg" xmlns:xlink="http://www.w3.org/1999/xlink">
<g id="graph0" class="graph" transform="scale(1 1) rotate(0) translate(4 229)">
<title>P4::AnalyzeParser</title>
<polygon fill="white" stroke="transparent" points="-4,4 -4,-229 371,-229 371,4 -4,4"/>
<!-- Node1 -->
<g id="node1" class="node">
<title>Node1</title>
<g id="a_node1"><a xlink:title=" ">
<polygon fill="#bfbfbf" stroke="black" points="0,-0.5 0,-19.5 104,-19.5 104,-0.5 0,-0.5"/>
<text text-anchor="middle" x="52" y="-7.5" font-family="Helvetica,sans-Serif" font-size="10.00">P4::AnalyzeParser</text>
</a>
</g>
</g>
<!-- Node2 -->
<g id="node2" class="node">
<title>Node2</title>
<g id="a_node2"><a xlink:href="class_inspector.html" target="_top" xlink:title=" ">
<polygon fill="white" stroke="black" points="21,-68.5 21,-87.5 83,-87.5 83,-68.5 21,-68.5"/>
<text text-anchor="middle" x="52" y="-75.5" font-family="Helvetica,sans-Serif" font-size="10.00">Inspector</text>
</a>
</g>
</g>
<!-- Node2&#45;&gt;Node1 -->
<g id="edge1" class="edge">
<title>Node2&#45;&gt;Node1</title>
<path fill="none" stroke="midnightblue" d="M52,-58.04C52,-45.47 52,-29.56 52,-19.84"/>
<polygon fill="midnightblue" stroke="midnightblue" points="48.5,-58.37 52,-68.37 55.5,-58.37 48.5,-58.37"/>
</g>
<!-- Node3 -->
<g id="node3" class="node">
<title>Node3</title>
<g id="a_node3"><a xlink:href="class_visitor.html" target="_top" xlink:title=" ">
<polygon fill="white" stroke="black" points="127,-136.5 127,-155.5 175,-155.5 175,-136.5 127,-136.5"/>
<text text-anchor="middle" x="151" y="-143.5" font-family="Helvetica,sans-Serif" font-size="10.00">Visitor</text>
</a>
</g>
</g>
<!-- Node3&#45;&gt;Node2 -->
<g id="edge2" class="edge">
<title>Node3&#45;&gt;Node2</title>
<path fill="none" stroke="midnightblue" d="M126.36,-131.17C119.37,-127.07 111.8,-122.48 105,-118 90.12,-108.19 73.69,-95.86 63.13,-87.72"/>
<polygon fill="midnightblue" stroke="midnightblue" points="125.01,-134.43 135.42,-136.39 128.51,-128.37 125.01,-134.43"/>
</g>
<!-- Node3&#45;&gt;Node3 -->
<g id="edge10" class="edge">
<title>Node3&#45;&gt;Node3</title>
<path fill="none" stroke="#9a32cd" stroke-dasharray="5,2" d="M185.42,-151.29C189.98,-150.39 193,-148.63 193,-146 193,-141.69 184.86,-139.7 175.17,-140.04"/>
<polygon fill="#9a32cd" stroke="#9a32cd" points="184.92,-147.82 175.17,-151.96 185.38,-154.8 184.92,-147.82"/>
<text text-anchor="middle" x="218" y="-143.5" font-family="Helvetica,sans-Serif" font-size="10.00"> called_by</text>
</g>
<!-- Node5 -->
<g id="node5" class="node">
<title>Node5</title>
<g id="a_node5"><a xlink:href="class_split_flow_visit__base.html" target="_top" xlink:title=" ">
<polygon fill="white" stroke="black" points="157,-0.5 157,-19.5 269,-19.5 269,-0.5 157,-0.5"/>
<text text-anchor="middle" x="213" y="-7.5" font-family="Helvetica,sans-Serif" font-size="10.00">SplitFlowVisit_base</text>
</a>
</g>
</g>
<!-- Node3&#45;&gt;Node5 -->
<g id="edge9" class="edge">
<title>Node3&#45;&gt;Node5</title>
<path fill="none" stroke="#9a32cd" stroke-dasharray="5,2" d="M138.66,-127.83C128.54,-111.48 117.48,-86.53 128,-67 140.74,-43.35 168.32,-28.04 188.62,-19.51"/>
<polygon fill="#9a32cd" stroke="#9a32cd" points="135.88,-129.97 144.33,-136.36 141.7,-126.1 135.88,-129.97"/>
<text text-anchor="middle" x="133" y="-75.5" font-family="Helvetica,sans-Serif" font-size="10.00"> v</text>
</g>
<!-- Node6 -->
<g id="node6" class="node">
<title>Node6</title>
<g id="a_node6"><a xlink:title=" ">
<polygon fill="white" stroke="#bfbfbf" points="147.5,-68.5 147.5,-87.5 278.5,-87.5 278.5,-68.5 147.5,-68.5"/>
<text text-anchor="middle" x="213" y="-75.5" font-family="Helvetica,sans-Serif" font-size="10.00">std::vector&lt; Visitor * &gt;</text>
</a>
</g>
</g>
<!-- Node3&#45;&gt;Node6 -->
<g id="edge8" class="edge">
<title>Node3&#45;&gt;Node6</title>
<path fill="none" stroke="#9a32cd" stroke-dasharray="5,2" d="M165.99,-129.05C178.14,-116.11 194.82,-98.36 204.69,-87.84"/>
<polygon fill="#9a32cd" stroke="#9a32cd" points="163.4,-126.69 159.11,-136.37 168.5,-131.48 163.4,-126.69"/>
<text text-anchor="middle" x="210.5" y="-110" font-family="Helvetica,sans-Serif" font-size="10.00"> elements</text>
</g>
<!-- Node4 -->
<g id="node4" class="node">
<title>Node4</title>
<g id="a_node4"><a xlink:href="classcstring.html" target="_top" xlink:title=" ">
<polygon fill="white" stroke="black" points="126,-204.5 126,-223.5 176,-223.5 176,-204.5 126,-204.5"/>
<text text-anchor="middle" x="151" y="-211.5" font-family="Helvetica,sans-Serif" font-size="10.00">cstring</text>
</a>
</g>
</g>
<!-- Node4&#45;&gt;Node3 -->
<g id="edge3" class="edge">
<title>Node4&#45;&gt;Node3</title>
<path fill="none" stroke="#9a32cd" stroke-dasharray="5,2" d="M151,-194.04C151,-181.47 151,-165.56 151,-155.84"/>
<polygon fill="#9a32cd" stroke="#9a32cd" points="147.5,-194.37 151,-204.37 154.5,-194.37 147.5,-194.37"/>
<text text-anchor="middle" x="186" y="-177" font-family="Helvetica,sans-Serif" font-size="10.00"> internalName</text>
</g>
<!-- Node4&#45;&gt;Node4 -->
<g id="edge4" class="edge">
<title>Node4&#45;&gt;Node4</title>
<path fill="none" stroke="#9a32cd" stroke-dasharray="5,2" d="M186.45,-219.58C191,-218.61 194,-216.75 194,-214 194,-209.48 185.91,-207.37 176.18,-207.65"/>
<polygon fill="#9a32cd" stroke="#9a32cd" points="185.89,-216.11 176.18,-220.35 186.41,-223.1 185.89,-216.11"/>
<text text-anchor="middle" x="213.5" y="-217" font-family="Helvetica,sans-Serif" font-size="10.00"> empty</text>
<text text-anchor="middle" x="213.5" y="-206" font-family="Helvetica,sans-Serif" font-size="10.00">newline</text>
</g>
<!-- Node5&#45;&gt;Node3 -->
<g id="edge5" class="edge">
<title>Node5&#45;&gt;Node3</title>
<path fill="none" stroke="#9a32cd" stroke-dasharray="5,2" d="M242.05,-24.16C269.07,-38.38 303.07,-62.58 288,-89 265.35,-128.73 207.96,-140.29 175.1,-143.64"/>
<polygon fill="#9a32cd" stroke="#9a32cd" points="243.38,-20.91 232.88,-19.56 240.25,-27.17 243.38,-20.91"/>
<text text-anchor="middle" x="329" y="-81" font-family="Helvetica,sans-Serif" font-size="10.00"> split_link</text>
<text text-anchor="middle" x="329" y="-70" font-family="Helvetica,sans-Serif" font-size="10.00">split_link_mem</text>
</g>
<!-- Node5&#45;&gt;Node5 -->
<g id="edge6" class="edge">
<title>Node5&#45;&gt;Node5</title>
<path fill="none" stroke="#9a32cd" stroke-dasharray="5,2" d="M279.4,-14.4C284.12,-13.4 287,-11.93 287,-10 287,-6.91 279.62,-5.01 269.15,-4.31"/>
<polygon fill="#9a32cd" stroke="#9a32cd" points="278.63,-10.97 269.15,-15.69 279.51,-17.91 278.63,-10.97"/>
<text text-anchor="middle" x="299.5" y="-7.5" font-family="Helvetica,sans-Serif" font-size="10.00"> prev</text>
</g>
<!-- Node6&#45;&gt;Node5 -->
<g id="edge7" class="edge">
<title>Node6&#45;&gt;Node5</title>
<path fill="none" stroke="#9a32cd" stroke-dasharray="5,2" d="M213,-58.04C213,-45.47 213,-29.56 213,-19.84"/>
<polygon fill="#9a32cd" stroke="#9a32cd" points="209.5,-58.37 213,-68.37 216.5,-58.37 209.5,-58.37"/>
<text text-anchor="middle" x="233" y="-41" font-family="Helvetica,sans-Serif" font-size="10.00"> visitors</text>
</g>
</g>
</svg>
