<?xml version="1.0" encoding="UTF-8" standalone="no"?>
<!DOCTYPE svg PUBLIC "-//W3C//DTD SVG 1.1//EN"
 "http://www.w3.org/Graphics/SVG/1.1/DTD/svg11.dtd">
<!-- Generated by graphviz version 2.43.0 (0)
 -->
<!-- Title: P4::FunctionsInliner Pages: 1 -->
<svg width="399pt" height="312pt"
 viewBox="0.00 0.00 399.00 312.00" xmlns="http://www.w3.org/2000/svg" xmlns:xlink="http://www.w3.org/1999/xlink">
<g id="graph0" class="graph" transform="scale(1 1) rotate(0) translate(4 308)">
<title>P4::FunctionsInliner</title>
<polygon fill="white" stroke="transparent" points="-4,4 -4,-308 395,-308 395,4 -4,4"/>
<!-- Node1 -->
<g id="node1" class="node">
<title>Node1</title>
<g id="a_node1"><a xlink:title=" ">
<polygon fill="#bfbfbf" stroke="black" points="17,-0.5 17,-19.5 129,-19.5 129,-0.5 17,-0.5"/>
<text text-anchor="middle" x="73" y="-7.5" font-family="Helvetica,sans-Serif" font-size="10.00">P4::FunctionsInliner</text>
</a>
</g>
</g>
<!-- Node2 -->
<g id="node2" class="node">
<title>Node2</title>
<g id="a_node2"><a xlink:href="class_p4_1_1_abstract_inliner.html" target="_top" xlink:title=" ">
<polygon fill="white" stroke="black" points="0,-57.5 0,-98.5 146,-98.5 146,-57.5 0,-57.5"/>
<text text-anchor="start" x="8" y="-86.5" font-family="Helvetica,sans-Serif" font-size="10.00">P4::AbstractInliner</text>
<text text-anchor="start" x="8" y="-75.5" font-family="Helvetica,sans-Serif" font-size="10.00">&lt; FunctionsInlineList,</text>
<text text-anchor="middle" x="73" y="-64.5" font-family="Helvetica,sans-Serif" font-size="10.00"> FunctionsInlineWorkList &gt;</text>
</a>
</g>
</g>
<!-- Node2&#45;&gt;Node1 -->
<g id="edge1" class="edge">
<title>Node2&#45;&gt;Node1</title>
<path fill="none" stroke="midnightblue" d="M73,-47.12C73,-37.17 73,-26.84 73,-19.79"/>
<polygon fill="midnightblue" stroke="midnightblue" points="69.5,-47.2 73,-57.2 76.5,-47.2 69.5,-47.2"/>
</g>
<!-- Node3 -->
<g id="node3" class="node">
<title>Node3</title>
<g id="a_node3"><a xlink:href="class_transform.html" target="_top" xlink:title=" ">
<polygon fill="white" stroke="black" points="40.5,-147.5 40.5,-166.5 105.5,-166.5 105.5,-147.5 40.5,-147.5"/>
<text text-anchor="middle" x="73" y="-154.5" font-family="Helvetica,sans-Serif" font-size="10.00">Transform</text>
</a>
</g>
</g>
<!-- Node3&#45;&gt;Node2 -->
<g id="edge2" class="edge">
<title>Node3&#45;&gt;Node2</title>
<path fill="none" stroke="midnightblue" d="M73,-137.15C73,-125.5 73,-110.58 73,-98.77"/>
<polygon fill="midnightblue" stroke="midnightblue" points="69.5,-137.47 73,-147.47 76.5,-137.47 69.5,-137.47"/>
</g>
<!-- Node4 -->
<g id="node4" class="node">
<title>Node4</title>
<g id="a_node4"><a xlink:href="class_visitor.html" target="_top" xlink:title=" ">
<polygon fill="white" stroke="black" points="150,-215.5 150,-234.5 198,-234.5 198,-215.5 150,-215.5"/>
<text text-anchor="middle" x="174" y="-222.5" font-family="Helvetica,sans-Serif" font-size="10.00">Visitor</text>
</a>
</g>
</g>
<!-- Node4&#45;&gt;Node3 -->
<g id="edge3" class="edge">
<title>Node4&#45;&gt;Node3</title>
<path fill="none" stroke="midnightblue" d="M149.41,-210.09C142.42,-206 134.84,-201.42 128,-197 112.66,-187.09 95.59,-174.77 84.6,-166.67"/>
<polygon fill="midnightblue" stroke="midnightblue" points="148.06,-213.35 158.47,-215.33 151.56,-207.29 148.06,-213.35"/>
</g>
<!-- Node4&#45;&gt;Node4 -->
<g id="edge11" class="edge">
<title>Node4&#45;&gt;Node4</title>
<path fill="none" stroke="#9a32cd" stroke-dasharray="5,2" d="M208.42,-230.29C212.98,-229.39 216,-227.63 216,-225 216,-220.69 207.86,-218.7 198.17,-219.04"/>
<polygon fill="#9a32cd" stroke="#9a32cd" points="207.92,-226.82 198.17,-230.96 208.38,-233.8 207.92,-226.82"/>
<text text-anchor="middle" x="241" y="-222.5" font-family="Helvetica,sans-Serif" font-size="10.00"> called_by</text>
</g>
<!-- Node6 -->
<g id="node6" class="node">
<title>Node6</title>
<g id="a_node6"><a xlink:href="class_split_flow_visit__base.html" target="_top" xlink:title=" ">
<polygon fill="white" stroke="black" points="180,-68.5 180,-87.5 292,-87.5 292,-68.5 180,-68.5"/>
<text text-anchor="middle" x="236" y="-75.5" font-family="Helvetica,sans-Serif" font-size="10.00">SplitFlowVisit_base</text>
</a>
</g>
</g>
<!-- Node4&#45;&gt;Node6 -->
<g id="edge10" class="edge">
<title>Node4&#45;&gt;Node6</title>
<path fill="none" stroke="#9a32cd" stroke-dasharray="5,2" d="M162.03,-207.02C152.19,-190.81 141.32,-165.96 151,-146 164.61,-117.94 196.31,-98.1 216.92,-87.61"/>
<polygon fill="#9a32cd" stroke="#9a32cd" points="159.15,-209.01 167.54,-215.47 165.01,-205.18 159.15,-209.01"/>
<text text-anchor="middle" x="156" y="-154.5" font-family="Helvetica,sans-Serif" font-size="10.00"> v</text>
</g>
<!-- Node7 -->
<g id="node7" class="node">
<title>Node7</title>
<g id="a_node7"><a xlink:title=" ">
<polygon fill="white" stroke="#bfbfbf" points="170.5,-147.5 170.5,-166.5 301.5,-166.5 301.5,-147.5 170.5,-147.5"/>
<text text-anchor="middle" x="236" y="-154.5" font-family="Helvetica,sans-Serif" font-size="10.00">std::vector&lt; Visitor * &gt;</text>
</a>
</g>
</g>
<!-- Node4&#45;&gt;Node7 -->
<g id="edge9" class="edge">
<title>Node4&#45;&gt;Node7</title>
<path fill="none" stroke="#9a32cd" stroke-dasharray="5,2" d="M188.99,-208.05C201.14,-195.11 217.82,-177.36 227.69,-166.84"/>
<polygon fill="#9a32cd" stroke="#9a32cd" points="186.4,-205.69 182.11,-215.37 191.5,-210.48 186.4,-205.69"/>
<text text-anchor="middle" x="233.5" y="-189" font-family="Helvetica,sans-Serif" font-size="10.00"> elements</text>
</g>
<!-- Node5 -->
<g id="node5" class="node">
<title>Node5</title>
<g id="a_node5"><a xlink:href="classcstring.html" target="_top" xlink:title=" ">
<polygon fill="white" stroke="black" points="149,-283.5 149,-302.5 199,-302.5 199,-283.5 149,-283.5"/>
<text text-anchor="middle" x="174" y="-290.5" font-family="Helvetica,sans-Serif" font-size="10.00">cstring</text>
</a>
</g>
</g>
<!-- Node5&#45;&gt;Node4 -->
<g id="edge4" class="edge">
<title>Node5&#45;&gt;Node4</title>
<path fill="none" stroke="#9a32cd" stroke-dasharray="5,2" d="M174,-273.04C174,-260.47 174,-244.56 174,-234.84"/>
<polygon fill="#9a32cd" stroke="#9a32cd" points="170.5,-273.37 174,-283.37 177.5,-273.37 170.5,-273.37"/>
<text text-anchor="middle" x="209" y="-256" font-family="Helvetica,sans-Serif" font-size="10.00"> internalName</text>
</g>
<!-- Node5&#45;&gt;Node5 -->
<g id="edge5" class="edge">
<title>Node5&#45;&gt;Node5</title>
<path fill="none" stroke="#9a32cd" stroke-dasharray="5,2" d="M209.45,-298.58C214,-297.61 217,-295.75 217,-293 217,-288.48 208.91,-286.37 199.18,-286.65"/>
<polygon fill="#9a32cd" stroke="#9a32cd" points="208.89,-295.11 199.18,-299.35 209.41,-302.1 208.89,-295.11"/>
<text text-anchor="middle" x="236.5" y="-296" font-family="Helvetica,sans-Serif" font-size="10.00"> empty</text>
<text text-anchor="middle" x="236.5" y="-285" font-family="Helvetica,sans-Serif" font-size="10.00">newline</text>
</g>
<!-- Node6&#45;&gt;Node4 -->
<g id="edge6" class="edge">
<title>Node6&#45;&gt;Node4</title>
<path fill="none" stroke="#9a32cd" stroke-dasharray="5,2" d="M262.01,-92.6C289.85,-109.08 327.9,-138.35 311,-168 288.35,-207.73 230.96,-219.29 198.1,-222.64"/>
<polygon fill="#9a32cd" stroke="#9a32cd" points="263.47,-89.41 253.05,-87.52 260.02,-95.5 263.47,-89.41"/>
<text text-anchor="middle" x="353" y="-160" font-family="Helvetica,sans-Serif" font-size="10.00"> split_link</text>
<text text-anchor="middle" x="353" y="-149" font-family="Helvetica,sans-Serif" font-size="10.00">split_link_mem</text>
</g>
<!-- Node6&#45;&gt;Node6 -->
<g id="edge7" class="edge">
<title>Node6&#45;&gt;Node6</title>
<path fill="none" stroke="#9a32cd" stroke-dasharray="5,2" d="M302.04,-83.31C306.97,-82.12 310,-80.35 310,-78 310,-74.33 302.62,-72.07 292.15,-71.24"/>
<polygon fill="#9a32cd" stroke="#9a32cd" points="301.53,-79.85 292.15,-84.76 302.55,-86.77 301.53,-79.85"/>
<text text-anchor="middle" x="322.5" y="-75.5" font-family="Helvetica,sans-Serif" font-size="10.00"> prev</text>
</g>
<!-- Node7&#45;&gt;Node6 -->
<g id="edge8" class="edge">
<title>Node7&#45;&gt;Node6</title>
<path fill="none" stroke="#9a32cd" stroke-dasharray="5,2" d="M236,-137.31C236,-121.59 236,-99.81 236,-87.81"/>
<polygon fill="#9a32cd" stroke="#9a32cd" points="232.5,-137.47 236,-147.47 239.5,-137.47 232.5,-137.47"/>
<text text-anchor="middle" x="256" y="-120" font-family="Helvetica,sans-Serif" font-size="10.00"> visitors</text>
</g>
</g>
</svg>
