<?xml version="1.0" encoding="UTF-8" standalone="no"?>
<!DOCTYPE svg PUBLIC "-//W3C//DTD SVG 1.1//EN"
 "http://www.w3.org/Graphics/SVG/1.1/DTD/svg11.dtd">
<!-- Generated by graphviz version 2.43.0 (0)
 -->
<!-- Title: Util::NamedSymbol Pages: 1 -->
<svg width="355pt" height="320pt"
 viewBox="0.00 0.00 355.00 320.00" xmlns="http://www.w3.org/2000/svg" xmlns:xlink="http://www.w3.org/1999/xlink">
<g id="graph0" class="graph" transform="scale(1 1) rotate(0) translate(4 316)">
<title>Util::NamedSymbol</title>
<polygon fill="white" stroke="transparent" points="-4,4 -4,-316 351,-316 351,4 -4,4"/>
<!-- Node1 -->
<g id="node1" class="node">
<title>Node1</title>
<g id="a_node1"><a xlink:title=" ">
<polygon fill="#bfbfbf" stroke="black" points="169,-145.5 169,-164.5 281,-164.5 281,-145.5 169,-145.5"/>
<text text-anchor="middle" x="225" y="-152.5" font-family="Helvetica,sans-Serif" font-size="10.00">Util::NamedSymbol</text>
</a>
</g>
</g>
<!-- Node4 -->
<g id="node4" class="node">
<title>Node4</title>
<g id="a_node4"><a xlink:href="class_util_1_1_namespace.html" target="_top" xlink:title=" ">
<polygon fill="white" stroke="black" points="169,-0.5 169,-19.5 267,-19.5 267,-0.5 169,-0.5"/>
<text text-anchor="middle" x="218" y="-7.5" font-family="Helvetica,sans-Serif" font-size="10.00">Util::Namespace</text>
</a>
</g>
</g>
<!-- Node1&#45;&gt;Node4 -->
<g id="edge4" class="edge">
<title>Node1&#45;&gt;Node4</title>
<path fill="none" stroke="midnightblue" d="M239.27,-137.44C247.37,-126.91 256.73,-112.55 261,-98 264.88,-84.78 265.43,-80.05 261,-67 254.46,-47.73 238.32,-29.91 227.78,-19.75"/>
<polygon fill="midnightblue" stroke="midnightblue" points="236.47,-135.33 232.9,-145.3 241.91,-139.73 236.47,-135.33"/>
</g>
<!-- Node5 -->
<g id="node5" class="node">
<title>Node5</title>
<g id="a_node5"><a xlink:title=" ">
<polygon fill="white" stroke="#bfbfbf" points="0,-67.5 0,-97.5 182,-97.5 182,-67.5 0,-67.5"/>
<text text-anchor="start" x="8" y="-85.5" font-family="Helvetica,sans-Serif" font-size="10.00">std::unordered_map</text>
<text text-anchor="middle" x="91" y="-74.5" font-family="Helvetica,sans-Serif" font-size="10.00">&lt; cstring, Util::NamedSymbol * &gt;</text>
</a>
</g>
</g>
<!-- Node1&#45;&gt;Node5 -->
<g id="edge9" class="edge">
<title>Node1&#45;&gt;Node5</title>
<path fill="none" stroke="#9a32cd" stroke-dasharray="5,2" d="M189.26,-142.02C178.06,-137.79 165.8,-132.66 155,-127 138.82,-118.52 121.76,-106.77 109.34,-97.62"/>
<polygon fill="#9a32cd" stroke="#9a32cd" points="188.19,-145.35 198.78,-145.5 190.59,-138.77 188.19,-145.35"/>
<text text-anchor="middle" x="179.5" y="-119" font-family="Helvetica,sans-Serif" font-size="10.00"> elements</text>
</g>
<!-- Node2 -->
<g id="node2" class="node">
<title>Node2</title>
<g id="a_node2"><a xlink:href="class_i_castable.html" target="_top" xlink:title=" ">
<polygon fill="white" stroke="black" points="282,-212.5 282,-231.5 344,-231.5 344,-212.5 282,-212.5"/>
<text text-anchor="middle" x="313" y="-219.5" font-family="Helvetica,sans-Serif" font-size="10.00">ICastable</text>
</a>
</g>
</g>
<!-- Node2&#45;&gt;Node1 -->
<g id="edge1" class="edge">
<title>Node2&#45;&gt;Node1</title>
<path fill="none" stroke="midnightblue" d="M292.78,-206.07C275.41,-193.24 250.97,-175.19 236.68,-164.63"/>
<polygon fill="midnightblue" stroke="midnightblue" points="291.01,-209.11 301.13,-212.23 295.17,-203.48 291.01,-209.11"/>
</g>
<!-- Node3 -->
<g id="node3" class="node">
<title>Node3</title>
<g id="a_node3"><a xlink:href="struct_r_t_t_i_1_1_base.html" target="_top" xlink:title=" ">
<polygon fill="white" stroke="black" points="279,-291.5 279,-310.5 347,-310.5 347,-291.5 279,-291.5"/>
<text text-anchor="middle" x="313" y="-298.5" font-family="Helvetica,sans-Serif" font-size="10.00">RTTI::Base</text>
</a>
</g>
</g>
<!-- Node3&#45;&gt;Node2 -->
<g id="edge2" class="edge">
<title>Node3&#45;&gt;Node2</title>
<path fill="none" stroke="midnightblue" d="M313,-281.31C313,-265.59 313,-243.81 313,-231.81"/>
<polygon fill="midnightblue" stroke="midnightblue" points="309.5,-281.47 313,-291.47 316.5,-281.47 309.5,-281.47"/>
</g>
<!-- Node4&#45;&gt;Node1 -->
<g id="edge3" class="edge">
<title>Node4&#45;&gt;Node1</title>
<path fill="none" stroke="#9a32cd" stroke-dasharray="5,2" d="M218.91,-29.68C220.45,-61 223.48,-122.88 224.58,-145.48"/>
<polygon fill="#9a32cd" stroke="#9a32cd" points="222.41,-29.47 218.42,-19.65 215.42,-29.81 222.41,-29.47"/>
<text text-anchor="middle" x="239.5" y="-80" font-family="Helvetica,sans-Serif" font-size="10.00"> parent</text>
</g>
<!-- Node4&#45;&gt;Node4 -->
<g id="edge5" class="edge">
<title>Node4&#45;&gt;Node4</title>
<path fill="none" stroke="#9a32cd" stroke-dasharray="5,2" d="M277.32,-14.58C282.06,-13.58 285,-12.05 285,-10 285,-6.72 277.49,-4.78 267.08,-4.19"/>
<polygon fill="#9a32cd" stroke="#9a32cd" points="276.59,-11.14 267.08,-15.81 277.43,-18.09 276.59,-11.14"/>
<text text-anchor="middle" x="302.5" y="-7.5" font-family="Helvetica,sans-Serif" font-size="10.00"> empty</text>
</g>
<!-- Node5&#45;&gt;Node4 -->
<g id="edge6" class="edge">
<title>Node5&#45;&gt;Node4</title>
<path fill="none" stroke="#9a32cd" stroke-dasharray="5,2" d="M119.5,-61.62C131.19,-53.84 145,-45.09 158,-38 170.53,-31.16 185.13,-24.57 196.79,-19.6"/>
<polygon fill="#9a32cd" stroke="#9a32cd" points="117.36,-58.84 111.03,-67.34 121.28,-64.64 117.36,-58.84"/>
<text text-anchor="middle" x="181" y="-41" font-family="Helvetica,sans-Serif" font-size="10.00"> contents</text>
</g>
<!-- Node6 -->
<g id="node6" class="node">
<title>Node6</title>
<g id="a_node6"><a xlink:href="classcstring.html" target="_top" xlink:title=" ">
<polygon fill="white" stroke="black" points="126,-291.5 126,-310.5 176,-310.5 176,-291.5 126,-291.5"/>
<text text-anchor="middle" x="151" y="-298.5" font-family="Helvetica,sans-Serif" font-size="10.00">cstring</text>
</a>
</g>
</g>
<!-- Node6&#45;&gt;Node1 -->
<g id="edge12" class="edge">
<title>Node6&#45;&gt;Node1</title>
<path fill="none" stroke="#9a32cd" stroke-dasharray="5,2" d="M183.94,-286.74C190.39,-282.84 196.53,-277.96 201,-272 226.05,-238.6 226.46,-185.23 225.56,-164.56"/>
<polygon fill="#9a32cd" stroke="#9a32cd" points="182.25,-283.68 175.09,-291.49 185.56,-289.85 182.25,-283.68"/>
<text text-anchor="middle" x="238.5" y="-219.5" font-family="Helvetica,sans-Serif" font-size="10.00"> name</text>
</g>
<!-- Node6&#45;&gt;Node5 -->
<g id="edge7" class="edge">
<title>Node6&#45;&gt;Node5</title>
<path fill="none" stroke="#9a32cd" stroke-dasharray="5,2" d="M133.04,-284.13C120.11,-271.47 103.64,-252.5 96,-232 78.61,-185.35 84.6,-124.64 88.6,-97.58"/>
<polygon fill="#9a32cd" stroke="#9a32cd" points="130.84,-286.87 140.53,-291.16 135.63,-281.76 130.84,-286.87"/>
<text text-anchor="middle" x="100" y="-186" font-family="Helvetica,sans-Serif" font-size="10.00"> keys</text>
</g>
<!-- Node6&#45;&gt;Node6 -->
<g id="edge8" class="edge">
<title>Node6&#45;&gt;Node6</title>
<path fill="none" stroke="#9a32cd" stroke-dasharray="5,2" d="M186.45,-307.57C191,-306.43 194,-304.24 194,-301 194,-295.69 185.91,-293.2 176.18,-293.53"/>
<polygon fill="#9a32cd" stroke="#9a32cd" points="185.83,-304.11 176.18,-308.47 186.44,-311.08 185.83,-304.11"/>
<text text-anchor="middle" x="213.5" y="-304" font-family="Helvetica,sans-Serif" font-size="10.00"> empty</text>
<text text-anchor="middle" x="213.5" y="-293" font-family="Helvetica,sans-Serif" font-size="10.00">newline</text>
</g>
<!-- Node7 -->
<g id="node7" class="node">
<title>Node7</title>
<g id="a_node7"><a xlink:href="class_util_1_1_source_info.html" target="_top" xlink:title=" ">
<polygon fill="white" stroke="black" points="105,-212.5 105,-231.5 197,-231.5 197,-212.5 105,-212.5"/>
<text text-anchor="middle" x="151" y="-219.5" font-family="Helvetica,sans-Serif" font-size="10.00">Util::SourceInfo</text>
</a>
</g>
</g>
<!-- Node6&#45;&gt;Node7 -->
<g id="edge11" class="edge">
<title>Node6&#45;&gt;Node7</title>
<path fill="none" stroke="#9a32cd" stroke-dasharray="5,2" d="M151,-281.31C151,-265.59 151,-243.81 151,-231.81"/>
<polygon fill="#9a32cd" stroke="#9a32cd" points="147.5,-281.47 151,-291.47 154.5,-281.47 147.5,-281.47"/>
<text text-anchor="middle" x="174" y="-264" font-family="Helvetica,sans-Serif" font-size="10.00"> filename</text>
<text text-anchor="middle" x="174" y="-253" font-family="Helvetica,sans-Serif" font-size="10.00">srcBrief</text>
</g>
<!-- Node7&#45;&gt;Node1 -->
<g id="edge10" class="edge">
<title>Node7&#45;&gt;Node1</title>
<path fill="none" stroke="#9a32cd" stroke-dasharray="5,2" d="M154.07,-202.57C155.98,-195.76 159.05,-188.4 164,-183 171.67,-174.63 182.41,-168.72 192.74,-164.6"/>
<polygon fill="#9a32cd" stroke="#9a32cd" points="150.63,-201.93 151.93,-212.45 157.47,-203.41 150.63,-201.93"/>
<text text-anchor="middle" x="191.5" y="-186" font-family="Helvetica,sans-Serif" font-size="10.00"> sourceInfo</text>
</g>
</g>
</svg>
