<?xml version="1.0" encoding="UTF-8" standalone="no"?>
<!DOCTYPE svg PUBLIC "-//W3C//DTD SVG 1.1//EN"
 "http://www.w3.org/Graphics/SVG/1.1/DTD/svg11.dtd">
<!-- Generated by graphviz version 2.43.0 (0)
 -->
<!-- Title: P4::DoLocalCopyPropagation::RewriteTableKeys Pages: 1 -->
<svg width="404pt" height="244pt"
 viewBox="0.00 0.00 403.50 244.00" xmlns="http://www.w3.org/2000/svg" xmlns:xlink="http://www.w3.org/1999/xlink">
<g id="graph0" class="graph" transform="scale(1 1) rotate(0) translate(4 240)">
<title>P4::DoLocalCopyPropagation::RewriteTableKeys</title>
<polygon fill="white" stroke="transparent" points="-4,4 -4,-240 399.5,-240 399.5,4 -4,4"/>
<!-- Node1 -->
<g id="node1" class="node">
<title>Node1</title>
<g id="a_node1"><a xlink:title=" ">
<polygon fill="#bfbfbf" stroke="black" points="0,-0.5 0,-30.5 157,-30.5 157,-0.5 0,-0.5"/>
<text text-anchor="start" x="8" y="-18.5" font-family="Helvetica,sans-Serif" font-size="10.00">P4::DoLocalCopyPropagation</text>
<text text-anchor="middle" x="78.5" y="-7.5" font-family="Helvetica,sans-Serif" font-size="10.00">::RewriteTableKeys</text>
</a>
</g>
</g>
<!-- Node2 -->
<g id="node2" class="node">
<title>Node2</title>
<g id="a_node2"><a xlink:href="class_transform.html" target="_top" xlink:title=" ">
<polygon fill="white" stroke="black" points="46,-79.5 46,-98.5 111,-98.5 111,-79.5 46,-79.5"/>
<text text-anchor="middle" x="78.5" y="-86.5" font-family="Helvetica,sans-Serif" font-size="10.00">Transform</text>
</a>
</g>
</g>
<!-- Node2&#45;&gt;Node1 -->
<g id="edge1" class="edge">
<title>Node2&#45;&gt;Node1</title>
<path fill="none" stroke="midnightblue" d="M78.5,-68.9C78.5,-56.82 78.5,-41.47 78.5,-30.51"/>
<polygon fill="midnightblue" stroke="midnightblue" points="75,-69.23 78.5,-79.23 82,-69.23 75,-69.23"/>
</g>
<!-- Node3 -->
<g id="node3" class="node">
<title>Node3</title>
<g id="a_node3"><a xlink:href="class_visitor.html" target="_top" xlink:title=" ">
<polygon fill="white" stroke="black" points="155.5,-147.5 155.5,-166.5 203.5,-166.5 203.5,-147.5 155.5,-147.5"/>
<text text-anchor="middle" x="179.5" y="-154.5" font-family="Helvetica,sans-Serif" font-size="10.00">Visitor</text>
</a>
</g>
</g>
<!-- Node3&#45;&gt;Node2 -->
<g id="edge2" class="edge">
<title>Node3&#45;&gt;Node2</title>
<path fill="none" stroke="midnightblue" d="M154.91,-142.09C147.92,-138 140.34,-133.42 133.5,-129 118.16,-119.09 101.09,-106.77 90.1,-98.67"/>
<polygon fill="midnightblue" stroke="midnightblue" points="153.56,-145.35 163.97,-147.33 157.06,-139.29 153.56,-145.35"/>
</g>
<!-- Node3&#45;&gt;Node3 -->
<g id="edge10" class="edge">
<title>Node3&#45;&gt;Node3</title>
<path fill="none" stroke="#9a32cd" stroke-dasharray="5,2" d="M213.92,-162.29C218.48,-161.39 221.5,-159.63 221.5,-157 221.5,-152.69 213.36,-150.7 203.67,-151.04"/>
<polygon fill="#9a32cd" stroke="#9a32cd" points="213.42,-158.82 203.67,-162.96 213.88,-165.8 213.42,-158.82"/>
<text text-anchor="middle" x="246.5" y="-154.5" font-family="Helvetica,sans-Serif" font-size="10.00"> called_by</text>
</g>
<!-- Node5 -->
<g id="node5" class="node">
<title>Node5</title>
<g id="a_node5"><a xlink:href="class_split_flow_visit__base.html" target="_top" xlink:title=" ">
<polygon fill="white" stroke="black" points="185.5,-6 185.5,-25 297.5,-25 297.5,-6 185.5,-6"/>
<text text-anchor="middle" x="241.5" y="-13" font-family="Helvetica,sans-Serif" font-size="10.00">SplitFlowVisit_base</text>
</a>
</g>
</g>
<!-- Node3&#45;&gt;Node5 -->
<g id="edge9" class="edge">
<title>Node3&#45;&gt;Node5</title>
<path fill="none" stroke="#9a32cd" stroke-dasharray="5,2" d="M167.35,-138.93C157.37,-122.65 146.41,-97.76 156.5,-78 169.76,-52.05 199.65,-34.51 220.2,-25.01"/>
<polygon fill="#9a32cd" stroke="#9a32cd" points="164.51,-140.99 172.94,-147.42 170.36,-137.14 164.51,-140.99"/>
<text text-anchor="middle" x="161.5" y="-86.5" font-family="Helvetica,sans-Serif" font-size="10.00"> v</text>
</g>
<!-- Node6 -->
<g id="node6" class="node">
<title>Node6</title>
<g id="a_node6"><a xlink:title=" ">
<polygon fill="white" stroke="#bfbfbf" points="176,-79.5 176,-98.5 307,-98.5 307,-79.5 176,-79.5"/>
<text text-anchor="middle" x="241.5" y="-86.5" font-family="Helvetica,sans-Serif" font-size="10.00">std::vector&lt; Visitor * &gt;</text>
</a>
</g>
</g>
<!-- Node3&#45;&gt;Node6 -->
<g id="edge8" class="edge">
<title>Node3&#45;&gt;Node6</title>
<path fill="none" stroke="#9a32cd" stroke-dasharray="5,2" d="M194.49,-140.05C206.64,-127.11 223.32,-109.36 233.19,-98.84"/>
<polygon fill="#9a32cd" stroke="#9a32cd" points="191.9,-137.69 187.61,-147.37 197,-142.48 191.9,-137.69"/>
<text text-anchor="middle" x="239" y="-121" font-family="Helvetica,sans-Serif" font-size="10.00"> elements</text>
</g>
<!-- Node4 -->
<g id="node4" class="node">
<title>Node4</title>
<g id="a_node4"><a xlink:href="classcstring.html" target="_top" xlink:title=" ">
<polygon fill="white" stroke="black" points="154.5,-215.5 154.5,-234.5 204.5,-234.5 204.5,-215.5 154.5,-215.5"/>
<text text-anchor="middle" x="179.5" y="-222.5" font-family="Helvetica,sans-Serif" font-size="10.00">cstring</text>
</a>
</g>
</g>
<!-- Node4&#45;&gt;Node3 -->
<g id="edge3" class="edge">
<title>Node4&#45;&gt;Node3</title>
<path fill="none" stroke="#9a32cd" stroke-dasharray="5,2" d="M179.5,-205.04C179.5,-192.47 179.5,-176.56 179.5,-166.84"/>
<polygon fill="#9a32cd" stroke="#9a32cd" points="176,-205.37 179.5,-215.37 183,-205.37 176,-205.37"/>
<text text-anchor="middle" x="214.5" y="-188" font-family="Helvetica,sans-Serif" font-size="10.00"> internalName</text>
</g>
<!-- Node4&#45;&gt;Node4 -->
<g id="edge4" class="edge">
<title>Node4&#45;&gt;Node4</title>
<path fill="none" stroke="#9a32cd" stroke-dasharray="5,2" d="M214.95,-230.58C219.5,-229.61 222.5,-227.75 222.5,-225 222.5,-220.48 214.41,-218.37 204.68,-218.65"/>
<polygon fill="#9a32cd" stroke="#9a32cd" points="214.39,-227.11 204.68,-231.35 214.91,-234.1 214.39,-227.11"/>
<text text-anchor="middle" x="242" y="-228" font-family="Helvetica,sans-Serif" font-size="10.00"> empty</text>
<text text-anchor="middle" x="242" y="-217" font-family="Helvetica,sans-Serif" font-size="10.00">newline</text>
</g>
<!-- Node5&#45;&gt;Node3 -->
<g id="edge5" class="edge">
<title>Node5&#45;&gt;Node3</title>
<path fill="none" stroke="#9a32cd" stroke-dasharray="5,2" d="M269.07,-29.98C296.53,-45.35 332.46,-72.02 316.5,-100 293.85,-139.73 236.46,-151.29 203.6,-154.64"/>
<polygon fill="#9a32cd" stroke="#9a32cd" points="270.64,-26.85 260.18,-25.21 267.34,-33.02 270.64,-26.85"/>
<text text-anchor="middle" x="357.5" y="-92" font-family="Helvetica,sans-Serif" font-size="10.00"> split_link</text>
<text text-anchor="middle" x="357.5" y="-81" font-family="Helvetica,sans-Serif" font-size="10.00">split_link_mem</text>
</g>
<!-- Node5&#45;&gt;Node5 -->
<g id="edge6" class="edge">
<title>Node5&#45;&gt;Node5</title>
<path fill="none" stroke="#9a32cd" stroke-dasharray="5,2" d="M307.54,-20.81C312.47,-19.62 315.5,-17.85 315.5,-15.5 315.5,-11.83 308.12,-9.57 297.65,-8.74"/>
<polygon fill="#9a32cd" stroke="#9a32cd" points="307.03,-17.35 297.65,-22.26 308.05,-24.27 307.03,-17.35"/>
<text text-anchor="middle" x="328" y="-13" font-family="Helvetica,sans-Serif" font-size="10.00"> prev</text>
</g>
<!-- Node6&#45;&gt;Node5 -->
<g id="edge7" class="edge">
<title>Node6&#45;&gt;Node5</title>
<path fill="none" stroke="#9a32cd" stroke-dasharray="5,2" d="M241.5,-69.09C241.5,-54.93 241.5,-36.2 241.5,-25.34"/>
<polygon fill="#9a32cd" stroke="#9a32cd" points="238,-69.23 241.5,-79.23 245,-69.23 238,-69.23"/>
<text text-anchor="middle" x="261.5" y="-52" font-family="Helvetica,sans-Serif" font-size="10.00"> visitors</text>
</g>
</g>
</svg>
