<?xml version="1.0" encoding="UTF-8" standalone="no"?>
<!DOCTYPE svg PUBLIC "-//W3C//DTD SVG 1.1//EN"
 "http://www.w3.org/Graphics/SVG/1.1/DTD/svg11.dtd">
<!-- Generated by graphviz version 2.43.0 (0)
 -->
<!-- Title: P4::TypeSubstitutionVisitor Pages: 1 -->
<svg width="532pt" height="312pt"
 viewBox="0.00 0.00 532.44 312.00" xmlns="http://www.w3.org/2000/svg" xmlns:xlink="http://www.w3.org/1999/xlink">
<g id="graph0" class="graph" transform="scale(1 1) rotate(0) translate(4 308)">
<title>P4::TypeSubstitutionVisitor</title>
<polygon fill="white" stroke="transparent" points="-4,4 -4,-308 528.44,-308 528.44,4 -4,4"/>
<!-- Node1 -->
<g id="node1" class="node">
<title>Node1</title>
<g id="a_node1"><a xlink:title=" ">
<polygon fill="#bfbfbf" stroke="black" points="309.44,-0.5 309.44,-19.5 456.44,-19.5 456.44,-0.5 309.44,-0.5"/>
<text text-anchor="middle" x="382.94" y="-7.5" font-family="Helvetica,sans-Serif" font-size="10.00">P4::TypeSubstitutionVisitor</text>
</a>
</g>
</g>
<!-- Node2 -->
<g id="node2" class="node">
<title>Node2</title>
<g id="a_node2"><a xlink:href="class_p4_1_1_type_variable_substitution_visitor.html" target="_top" xlink:title=" ">
<polygon fill="white" stroke="black" points="305.44,-57.5 305.44,-87.5 460.44,-87.5 460.44,-57.5 305.44,-57.5"/>
<text text-anchor="start" x="313.44" y="-75.5" font-family="Helvetica,sans-Serif" font-size="10.00">P4::TypeVariableSubstitution</text>
<text text-anchor="middle" x="382.94" y="-64.5" font-family="Helvetica,sans-Serif" font-size="10.00">Visitor</text>
</a>
</g>
</g>
<!-- Node2&#45;&gt;Node1 -->
<g id="edge1" class="edge">
<title>Node2&#45;&gt;Node1</title>
<path fill="none" stroke="midnightblue" d="M382.94,-47.35C382.94,-37.51 382.94,-26.78 382.94,-19.54"/>
<polygon fill="midnightblue" stroke="midnightblue" points="379.44,-47.47 382.94,-57.47 386.44,-47.47 379.44,-47.47"/>
</g>
<!-- Node3 -->
<g id="node3" class="node">
<title>Node3</title>
<g id="a_node3"><a xlink:href="class_transform.html" target="_top" xlink:title=" ">
<polygon fill="white" stroke="black" points="286.44,-136.5 286.44,-155.5 351.44,-155.5 351.44,-136.5 286.44,-136.5"/>
<text text-anchor="middle" x="318.94" y="-143.5" font-family="Helvetica,sans-Serif" font-size="10.00">Transform</text>
</a>
</g>
</g>
<!-- Node3&#45;&gt;Node2 -->
<g id="edge2" class="edge">
<title>Node3&#45;&gt;Node2</title>
<path fill="none" stroke="midnightblue" d="M333.75,-128.46C344.85,-116.05 359.89,-99.26 370.4,-87.51"/>
<polygon fill="midnightblue" stroke="midnightblue" points="330.85,-126.45 326.79,-136.23 336.07,-131.12 330.85,-126.45"/>
</g>
<!-- Node4 -->
<g id="node4" class="node">
<title>Node4</title>
<g id="a_node4"><a xlink:href="class_visitor.html" target="_top" xlink:title=" ">
<polygon fill="white" stroke="black" points="116.94,-210 116.94,-229 164.94,-229 164.94,-210 116.94,-210"/>
<text text-anchor="middle" x="140.94" y="-217" font-family="Helvetica,sans-Serif" font-size="10.00">Visitor</text>
</a>
</g>
</g>
<!-- Node4&#45;&gt;Node3 -->
<g id="edge3" class="edge">
<title>Node4&#45;&gt;Node3</title>
<path fill="none" stroke="midnightblue" d="M171.94,-206.05C207.95,-191.58 266.43,-168.09 297.67,-155.54"/>
<polygon fill="midnightblue" stroke="midnightblue" points="170.39,-202.9 162.41,-209.88 173,-209.4 170.39,-202.9"/>
</g>
<!-- Node4&#45;&gt;Node4 -->
<g id="edge11" class="edge">
<title>Node4&#45;&gt;Node4</title>
<path fill="none" stroke="#9a32cd" stroke-dasharray="5,2" d="M175.37,-225.79C179.92,-224.72 182.94,-222.62 182.94,-219.5 182.94,-214.38 174.81,-212.02 165.11,-212.42"/>
<polygon fill="#9a32cd" stroke="#9a32cd" points="174.81,-222.32 165.11,-226.58 175.35,-229.3 174.81,-222.32"/>
<text text-anchor="middle" x="207.94" y="-217" font-family="Helvetica,sans-Serif" font-size="10.00"> called_by</text>
</g>
<!-- Node6 -->
<g id="node6" class="node">
<title>Node6</title>
<g id="a_node6"><a xlink:href="class_split_flow_visit__base.html" target="_top" xlink:title=" ">
<polygon fill="white" stroke="black" points="33.94,-63 33.94,-82 145.94,-82 145.94,-63 33.94,-63"/>
<text text-anchor="middle" x="89.94" y="-70" font-family="Helvetica,sans-Serif" font-size="10.00">SplitFlowVisit_base</text>
</a>
</g>
</g>
<!-- Node4&#45;&gt;Node6 -->
<g id="edge10" class="edge">
<title>Node4&#45;&gt;Node6</title>
<path fill="none" stroke="#9a32cd" stroke-dasharray="5,2" d="M106.95,-213.65C74.49,-207.01 27.32,-191.68 4.94,-157 -15.7,-125.02 37.24,-95.87 68.66,-82.01"/>
<polygon fill="#9a32cd" stroke="#9a32cd" points="106.44,-217.11 116.92,-215.51 107.73,-210.23 106.44,-217.11"/>
<text text-anchor="middle" x="9.94" y="-143.5" font-family="Helvetica,sans-Serif" font-size="10.00"> v</text>
</g>
<!-- Node7 -->
<g id="node7" class="node">
<title>Node7</title>
<g id="a_node7"><a xlink:title=" ">
<polygon fill="white" stroke="#bfbfbf" points="24.44,-136.5 24.44,-155.5 155.44,-155.5 155.44,-136.5 24.44,-136.5"/>
<text text-anchor="middle" x="89.94" y="-143.5" font-family="Helvetica,sans-Serif" font-size="10.00">std::vector&lt; Visitor * &gt;</text>
</a>
</g>
</g>
<!-- Node4&#45;&gt;Node7 -->
<g id="edge9" class="edge">
<title>Node4&#45;&gt;Node7</title>
<path fill="none" stroke="#9a32cd" stroke-dasharray="5,2" d="M128.64,-201.25C118.42,-186.93 104.3,-167.13 96.25,-155.84"/>
<polygon fill="#9a32cd" stroke="#9a32cd" points="126.03,-203.62 134.69,-209.73 131.73,-199.56 126.03,-203.62"/>
<text text-anchor="middle" x="142.44" y="-178" font-family="Helvetica,sans-Serif" font-size="10.00"> elements</text>
</g>
<!-- Node5 -->
<g id="node5" class="node">
<title>Node5</title>
<g id="a_node5"><a xlink:href="classcstring.html" target="_top" xlink:title=" ">
<polygon fill="white" stroke="black" points="115.94,-283.5 115.94,-302.5 165.94,-302.5 165.94,-283.5 115.94,-283.5"/>
<text text-anchor="middle" x="140.94" y="-290.5" font-family="Helvetica,sans-Serif" font-size="10.00">cstring</text>
</a>
</g>
</g>
<!-- Node5&#45;&gt;Node4 -->
<g id="edge4" class="edge">
<title>Node5&#45;&gt;Node4</title>
<path fill="none" stroke="#9a32cd" stroke-dasharray="5,2" d="M140.94,-273.09C140.94,-258.93 140.94,-240.2 140.94,-229.34"/>
<polygon fill="#9a32cd" stroke="#9a32cd" points="137.44,-273.23 140.94,-283.23 144.44,-273.23 137.44,-273.23"/>
<text text-anchor="middle" x="175.94" y="-256" font-family="Helvetica,sans-Serif" font-size="10.00"> internalName</text>
</g>
<!-- Node5&#45;&gt;Node5 -->
<g id="edge5" class="edge">
<title>Node5&#45;&gt;Node5</title>
<path fill="none" stroke="#9a32cd" stroke-dasharray="5,2" d="M176.39,-298.58C180.94,-297.61 183.94,-295.75 183.94,-293 183.94,-288.48 175.85,-286.37 166.12,-286.65"/>
<polygon fill="#9a32cd" stroke="#9a32cd" points="175.83,-295.11 166.12,-299.35 176.35,-302.1 175.83,-295.11"/>
<text text-anchor="middle" x="203.44" y="-296" font-family="Helvetica,sans-Serif" font-size="10.00"> empty</text>
<text text-anchor="middle" x="203.44" y="-285" font-family="Helvetica,sans-Serif" font-size="10.00">newline</text>
</g>
<!-- Node6&#45;&gt;Node4 -->
<g id="edge6" class="edge">
<title>Node6&#45;&gt;Node4</title>
<path fill="none" stroke="#9a32cd" stroke-dasharray="5,2" d="M115.29,-87.39C132.11,-98.07 153.04,-114.46 163.94,-135 172.18,-150.53 175.93,-173.24 170.94,-186 167.2,-195.58 159.15,-204.04 152.34,-209.92"/>
<polygon fill="#9a32cd" stroke="#9a32cd" points="116.82,-84.23 106.45,-82.06 113.2,-90.22 116.82,-84.23"/>
<text text-anchor="middle" x="209.94" y="-149" font-family="Helvetica,sans-Serif" font-size="10.00"> split_link</text>
<text text-anchor="middle" x="209.94" y="-138" font-family="Helvetica,sans-Serif" font-size="10.00">split_link_mem</text>
</g>
<!-- Node6&#45;&gt;Node6 -->
<g id="edge7" class="edge">
<title>Node6&#45;&gt;Node6</title>
<path fill="none" stroke="#9a32cd" stroke-dasharray="5,2" d="M156.34,-77.17C161.06,-76.11 163.94,-74.55 163.94,-72.5 163.94,-69.21 156.56,-67.2 146.09,-66.45"/>
<polygon fill="#9a32cd" stroke="#9a32cd" points="155.53,-73.75 146.09,-78.55 156.46,-80.69 155.53,-73.75"/>
<text text-anchor="middle" x="176.44" y="-70" font-family="Helvetica,sans-Serif" font-size="10.00"> prev</text>
</g>
<!-- Node7&#45;&gt;Node6 -->
<g id="edge8" class="edge">
<title>Node7&#45;&gt;Node6</title>
<path fill="none" stroke="#9a32cd" stroke-dasharray="5,2" d="M89.94,-126.09C89.94,-111.93 89.94,-93.2 89.94,-82.34"/>
<polygon fill="#9a32cd" stroke="#9a32cd" points="86.44,-126.23 89.94,-136.23 93.44,-126.23 86.44,-126.23"/>
<text text-anchor="middle" x="109.94" y="-109" font-family="Helvetica,sans-Serif" font-size="10.00"> visitors</text>
</g>
<!-- Node8 -->
<g id="node8" class="node">
<title>Node8</title>
<g id="a_node8"><a xlink:href="class_p4_1_1_type_variable_substitution.html" target="_top" xlink:title=" ">
<polygon fill="white" stroke="black" points="369.44,-136.5 369.44,-155.5 524.44,-155.5 524.44,-136.5 369.44,-136.5"/>
<text text-anchor="middle" x="446.94" y="-143.5" font-family="Helvetica,sans-Serif" font-size="10.00">P4::TypeVariableSubstitution</text>
</a>
</g>
</g>
<!-- Node8&#45;&gt;Node2 -->
<g id="edge12" class="edge">
<title>Node8&#45;&gt;Node2</title>
<path fill="none" stroke="#9a32cd" stroke-dasharray="5,2" d="M432.14,-128.46C421.03,-116.05 406,-99.26 395.48,-87.51"/>
<polygon fill="#9a32cd" stroke="#9a32cd" points="429.82,-131.12 439.09,-136.23 435.03,-126.45 429.82,-131.12"/>
<text text-anchor="middle" x="443.44" y="-109" font-family="Helvetica,sans-Serif" font-size="10.00"> bindings</text>
</g>
<!-- Node9 -->
<g id="node9" class="node">
<title>Node9</title>
<g id="a_node9"><a xlink:href="class_p4_1_1_type_substitution.html" target="_top" xlink:title=" ">
<polygon fill="white" stroke="black" points="379.94,-204.5 379.94,-234.5 513.94,-234.5 513.94,-204.5 379.94,-204.5"/>
<text text-anchor="start" x="387.94" y="-222.5" font-family="Helvetica,sans-Serif" font-size="10.00">P4::TypeSubstitution</text>
<text text-anchor="middle" x="446.94" y="-211.5" font-family="Helvetica,sans-Serif" font-size="10.00">&lt; const IR::ITypeVar * &gt;</text>
</a>
</g>
</g>
<!-- Node9&#45;&gt;Node8 -->
<g id="edge13" class="edge">
<title>Node9&#45;&gt;Node8</title>
<path fill="none" stroke="midnightblue" d="M446.94,-194.36C446.94,-181.01 446.94,-165.25 446.94,-155.7"/>
<polygon fill="midnightblue" stroke="midnightblue" points="443.44,-194.37 446.94,-204.37 450.44,-194.37 443.44,-194.37"/>
</g>
<!-- Node10 -->
<g id="node10" class="node">
<title>Node10</title>
<g id="a_node10"><a xlink:href="class_i_has_db_print.html" target="_top" xlink:title=" ">
<polygon fill="white" stroke="black" points="409.94,-283.5 409.94,-302.5 483.94,-302.5 483.94,-283.5 409.94,-283.5"/>
<text text-anchor="middle" x="446.94" y="-290.5" font-family="Helvetica,sans-Serif" font-size="10.00">IHasDbPrint</text>
</a>
</g>
</g>
<!-- Node10&#45;&gt;Node9 -->
<g id="edge14" class="edge">
<title>Node10&#45;&gt;Node9</title>
<path fill="none" stroke="midnightblue" d="M446.94,-272.9C446.94,-260.82 446.94,-245.47 446.94,-234.51"/>
<polygon fill="midnightblue" stroke="midnightblue" points="443.44,-273.23 446.94,-283.23 450.44,-273.23 443.44,-273.23"/>
</g>
</g>
</svg>
