<?xml version="1.0" encoding="UTF-8" standalone="no"?>
<!DOCTYPE svg PUBLIC "-//W3C//DTD SVG 1.1//EN"
 "http://www.w3.org/Graphics/SVG/1.1/DTD/svg11.dtd">
<!-- Generated by graphviz version 2.43.0 (0)
 -->
<!-- Title: P4::IsNonConstantArrayIndex Pages: 1 -->
<svg width="469pt" height="233pt"
 viewBox="0.00 0.00 468.50 233.00" xmlns="http://www.w3.org/2000/svg" xmlns:xlink="http://www.w3.org/1999/xlink">
<g id="graph0" class="graph" transform="scale(1 1) rotate(0) translate(4 229)">
<title>P4::IsNonConstantArrayIndex</title>
<polygon fill="white" stroke="transparent" points="-4,4 -4,-229 464.5,-229 464.5,4 -4,4"/>
<!-- Node1 -->
<g id="node1" class="node">
<title>Node1</title>
<g id="a_node1"><a xlink:title=" ">
<polygon fill="#bfbfbf" stroke="black" points="0,-0.5 0,-19.5 159,-19.5 159,-0.5 0,-0.5"/>
<text text-anchor="middle" x="79.5" y="-7.5" font-family="Helvetica,sans-Serif" font-size="10.00">P4::IsNonConstantArrayIndex</text>
</a>
</g>
</g>
<!-- Node2 -->
<g id="node2" class="node">
<title>Node2</title>
<g id="a_node2"><a xlink:href="class_p4_1_1_key_is_simple.html" target="_top" xlink:title=" ">
<polygon fill="white" stroke="black" points="1,-68.5 1,-87.5 96,-87.5 96,-68.5 1,-68.5"/>
<text text-anchor="middle" x="48.5" y="-75.5" font-family="Helvetica,sans-Serif" font-size="10.00">P4::KeyIsSimple</text>
</a>
</g>
</g>
<!-- Node2&#45;&gt;Node1 -->
<g id="edge1" class="edge">
<title>Node2&#45;&gt;Node1</title>
<path fill="none" stroke="midnightblue" d="M56.87,-59.19C62.85,-46.45 70.64,-29.86 75.35,-19.84"/>
<polygon fill="midnightblue" stroke="midnightblue" points="53.64,-57.83 52.55,-68.37 59.97,-60.81 53.64,-57.83"/>
</g>
<!-- Node3 -->
<g id="node3" class="node">
<title>Node3</title>
<g id="a_node3"><a xlink:href="class_inspector.html" target="_top" xlink:title=" ">
<polygon fill="white" stroke="black" points="114.5,-68.5 114.5,-87.5 176.5,-87.5 176.5,-68.5 114.5,-68.5"/>
<text text-anchor="middle" x="145.5" y="-75.5" font-family="Helvetica,sans-Serif" font-size="10.00">Inspector</text>
</a>
</g>
</g>
<!-- Node3&#45;&gt;Node1 -->
<g id="edge2" class="edge">
<title>Node3&#45;&gt;Node1</title>
<path fill="none" stroke="midnightblue" d="M129.55,-61.05C116.61,-48.11 98.86,-30.36 88.34,-19.84"/>
<polygon fill="midnightblue" stroke="midnightblue" points="127.33,-63.78 136.87,-68.37 132.28,-58.83 127.33,-63.78"/>
</g>
<!-- Node4 -->
<g id="node4" class="node">
<title>Node4</title>
<g id="a_node4"><a xlink:href="class_visitor.html" target="_top" xlink:title=" ">
<polygon fill="white" stroke="black" points="220.5,-136.5 220.5,-155.5 268.5,-155.5 268.5,-136.5 220.5,-136.5"/>
<text text-anchor="middle" x="244.5" y="-143.5" font-family="Helvetica,sans-Serif" font-size="10.00">Visitor</text>
</a>
</g>
</g>
<!-- Node4&#45;&gt;Node3 -->
<g id="edge3" class="edge">
<title>Node4&#45;&gt;Node3</title>
<path fill="none" stroke="midnightblue" d="M219.86,-131.17C212.87,-127.07 205.3,-122.48 198.5,-118 183.62,-108.19 167.19,-95.86 156.63,-87.72"/>
<polygon fill="midnightblue" stroke="midnightblue" points="218.51,-134.43 228.92,-136.39 222.01,-128.37 218.51,-134.43"/>
</g>
<!-- Node4&#45;&gt;Node4 -->
<g id="edge11" class="edge">
<title>Node4&#45;&gt;Node4</title>
<path fill="none" stroke="#9a32cd" stroke-dasharray="5,2" d="M278.92,-151.29C283.48,-150.39 286.5,-148.63 286.5,-146 286.5,-141.69 278.36,-139.7 268.67,-140.04"/>
<polygon fill="#9a32cd" stroke="#9a32cd" points="278.42,-147.82 268.67,-151.96 278.88,-154.8 278.42,-147.82"/>
<text text-anchor="middle" x="311.5" y="-143.5" font-family="Helvetica,sans-Serif" font-size="10.00"> called_by</text>
</g>
<!-- Node6 -->
<g id="node6" class="node">
<title>Node6</title>
<g id="a_node6"><a xlink:href="class_split_flow_visit__base.html" target="_top" xlink:title=" ">
<polygon fill="white" stroke="black" points="250.5,-0.5 250.5,-19.5 362.5,-19.5 362.5,-0.5 250.5,-0.5"/>
<text text-anchor="middle" x="306.5" y="-7.5" font-family="Helvetica,sans-Serif" font-size="10.00">SplitFlowVisit_base</text>
</a>
</g>
</g>
<!-- Node4&#45;&gt;Node6 -->
<g id="edge10" class="edge">
<title>Node4&#45;&gt;Node6</title>
<path fill="none" stroke="#9a32cd" stroke-dasharray="5,2" d="M232.16,-127.83C222.04,-111.48 210.98,-86.53 221.5,-67 234.24,-43.35 261.82,-28.04 282.12,-19.51"/>
<polygon fill="#9a32cd" stroke="#9a32cd" points="229.38,-129.97 237.83,-136.36 235.2,-126.1 229.38,-129.97"/>
<text text-anchor="middle" x="226.5" y="-75.5" font-family="Helvetica,sans-Serif" font-size="10.00"> v</text>
</g>
<!-- Node7 -->
<g id="node7" class="node">
<title>Node7</title>
<g id="a_node7"><a xlink:title=" ">
<polygon fill="white" stroke="#bfbfbf" points="241,-68.5 241,-87.5 372,-87.5 372,-68.5 241,-68.5"/>
<text text-anchor="middle" x="306.5" y="-75.5" font-family="Helvetica,sans-Serif" font-size="10.00">std::vector&lt; Visitor * &gt;</text>
</a>
</g>
</g>
<!-- Node4&#45;&gt;Node7 -->
<g id="edge9" class="edge">
<title>Node4&#45;&gt;Node7</title>
<path fill="none" stroke="#9a32cd" stroke-dasharray="5,2" d="M259.49,-129.05C271.64,-116.11 288.32,-98.36 298.19,-87.84"/>
<polygon fill="#9a32cd" stroke="#9a32cd" points="256.9,-126.69 252.61,-136.37 262,-131.48 256.9,-126.69"/>
<text text-anchor="middle" x="304" y="-110" font-family="Helvetica,sans-Serif" font-size="10.00"> elements</text>
</g>
<!-- Node5 -->
<g id="node5" class="node">
<title>Node5</title>
<g id="a_node5"><a xlink:href="classcstring.html" target="_top" xlink:title=" ">
<polygon fill="white" stroke="black" points="219.5,-204.5 219.5,-223.5 269.5,-223.5 269.5,-204.5 219.5,-204.5"/>
<text text-anchor="middle" x="244.5" y="-211.5" font-family="Helvetica,sans-Serif" font-size="10.00">cstring</text>
</a>
</g>
</g>
<!-- Node5&#45;&gt;Node4 -->
<g id="edge4" class="edge">
<title>Node5&#45;&gt;Node4</title>
<path fill="none" stroke="#9a32cd" stroke-dasharray="5,2" d="M244.5,-194.04C244.5,-181.47 244.5,-165.56 244.5,-155.84"/>
<polygon fill="#9a32cd" stroke="#9a32cd" points="241,-194.37 244.5,-204.37 248,-194.37 241,-194.37"/>
<text text-anchor="middle" x="279.5" y="-177" font-family="Helvetica,sans-Serif" font-size="10.00"> internalName</text>
</g>
<!-- Node5&#45;&gt;Node5 -->
<g id="edge5" class="edge">
<title>Node5&#45;&gt;Node5</title>
<path fill="none" stroke="#9a32cd" stroke-dasharray="5,2" d="M279.95,-219.58C284.5,-218.61 287.5,-216.75 287.5,-214 287.5,-209.48 279.41,-207.37 269.68,-207.65"/>
<polygon fill="#9a32cd" stroke="#9a32cd" points="279.39,-216.11 269.68,-220.35 279.91,-223.1 279.39,-216.11"/>
<text text-anchor="middle" x="307" y="-217" font-family="Helvetica,sans-Serif" font-size="10.00"> empty</text>
<text text-anchor="middle" x="307" y="-206" font-family="Helvetica,sans-Serif" font-size="10.00">newline</text>
</g>
<!-- Node6&#45;&gt;Node4 -->
<g id="edge6" class="edge">
<title>Node6&#45;&gt;Node4</title>
<path fill="none" stroke="#9a32cd" stroke-dasharray="5,2" d="M335.55,-24.16C362.57,-38.38 396.57,-62.58 381.5,-89 358.85,-128.73 301.46,-140.29 268.6,-143.64"/>
<polygon fill="#9a32cd" stroke="#9a32cd" points="336.88,-20.91 326.38,-19.56 333.75,-27.17 336.88,-20.91"/>
<text text-anchor="middle" x="422.5" y="-81" font-family="Helvetica,sans-Serif" font-size="10.00"> split_link</text>
<text text-anchor="middle" x="422.5" y="-70" font-family="Helvetica,sans-Serif" font-size="10.00">split_link_mem</text>
</g>
<!-- Node6&#45;&gt;Node6 -->
<g id="edge7" class="edge">
<title>Node6&#45;&gt;Node6</title>
<path fill="none" stroke="#9a32cd" stroke-dasharray="5,2" d="M372.9,-14.4C377.62,-13.4 380.5,-11.93 380.5,-10 380.5,-6.91 373.12,-5.01 362.65,-4.31"/>
<polygon fill="#9a32cd" stroke="#9a32cd" points="372.13,-10.97 362.65,-15.69 373.01,-17.91 372.13,-10.97"/>
<text text-anchor="middle" x="393" y="-7.5" font-family="Helvetica,sans-Serif" font-size="10.00"> prev</text>
</g>
<!-- Node7&#45;&gt;Node6 -->
<g id="edge8" class="edge">
<title>Node7&#45;&gt;Node6</title>
<path fill="none" stroke="#9a32cd" stroke-dasharray="5,2" d="M306.5,-58.04C306.5,-45.47 306.5,-29.56 306.5,-19.84"/>
<polygon fill="#9a32cd" stroke="#9a32cd" points="303,-58.37 306.5,-68.37 310,-58.37 303,-58.37"/>
<text text-anchor="middle" x="326.5" y="-41" font-family="Helvetica,sans-Serif" font-size="10.00"> visitors</text>
</g>
</g>
</svg>
