<?xml version="1.0" encoding="UTF-8" standalone="no"?>
<!DOCTYPE svg PUBLIC "-//W3C//DTD SVG 1.1//EN"
 "http://www.w3.org/Graphics/SVG/1.1/DTD/svg11.dtd">
<!-- Generated by graphviz version 2.43.0 (0)
 -->
<!-- Title: P4::IfInParser Pages: 1 -->
<svg width="363pt" height="233pt"
 viewBox="0.00 0.00 363.00 233.00" xmlns="http://www.w3.org/2000/svg" xmlns:xlink="http://www.w3.org/1999/xlink">
<g id="graph0" class="graph" transform="scale(1 1) rotate(0) translate(4 229)">
<title>P4::IfInParser</title>
<polygon fill="white" stroke="transparent" points="-4,4 -4,-229 359,-229 359,4 -4,4"/>
<!-- Node1 -->
<g id="node1" class="node">
<title>Node1</title>
<g id="a_node1"><a xlink:title="Detect whether the program contains an &#39;if&#39; statement in a parser.">
<polygon fill="#bfbfbf" stroke="black" points="0,-0.5 0,-19.5 80,-19.5 80,-0.5 0,-0.5"/>
<text text-anchor="middle" x="40" y="-7.5" font-family="Helvetica,sans-Serif" font-size="10.00">P4::IfInParser</text>
</a>
</g>
</g>
<!-- Node2 -->
<g id="node2" class="node">
<title>Node2</title>
<g id="a_node2"><a xlink:href="class_inspector.html" target="_top" xlink:title=" ">
<polygon fill="white" stroke="black" points="9,-68.5 9,-87.5 71,-87.5 71,-68.5 9,-68.5"/>
<text text-anchor="middle" x="40" y="-75.5" font-family="Helvetica,sans-Serif" font-size="10.00">Inspector</text>
</a>
</g>
</g>
<!-- Node2&#45;&gt;Node1 -->
<g id="edge1" class="edge">
<title>Node2&#45;&gt;Node1</title>
<path fill="none" stroke="midnightblue" d="M40,-58.04C40,-45.47 40,-29.56 40,-19.84"/>
<polygon fill="midnightblue" stroke="midnightblue" points="36.5,-58.37 40,-68.37 43.5,-58.37 36.5,-58.37"/>
</g>
<!-- Node3 -->
<g id="node3" class="node">
<title>Node3</title>
<g id="a_node3"><a xlink:href="class_visitor.html" target="_top" xlink:title=" ">
<polygon fill="white" stroke="black" points="115,-136.5 115,-155.5 163,-155.5 163,-136.5 115,-136.5"/>
<text text-anchor="middle" x="139" y="-143.5" font-family="Helvetica,sans-Serif" font-size="10.00">Visitor</text>
</a>
</g>
</g>
<!-- Node3&#45;&gt;Node2 -->
<g id="edge2" class="edge">
<title>Node3&#45;&gt;Node2</title>
<path fill="none" stroke="midnightblue" d="M114.36,-131.17C107.37,-127.07 99.8,-122.48 93,-118 78.12,-108.19 61.69,-95.86 51.13,-87.72"/>
<polygon fill="midnightblue" stroke="midnightblue" points="113.01,-134.43 123.42,-136.39 116.51,-128.37 113.01,-134.43"/>
</g>
<!-- Node3&#45;&gt;Node3 -->
<g id="edge10" class="edge">
<title>Node3&#45;&gt;Node3</title>
<path fill="none" stroke="#9a32cd" stroke-dasharray="5,2" d="M173.42,-151.29C177.98,-150.39 181,-148.63 181,-146 181,-141.69 172.86,-139.7 163.17,-140.04"/>
<polygon fill="#9a32cd" stroke="#9a32cd" points="172.92,-147.82 163.17,-151.96 173.38,-154.8 172.92,-147.82"/>
<text text-anchor="middle" x="206" y="-143.5" font-family="Helvetica,sans-Serif" font-size="10.00"> called_by</text>
</g>
<!-- Node5 -->
<g id="node5" class="node">
<title>Node5</title>
<g id="a_node5"><a xlink:href="class_split_flow_visit__base.html" target="_top" xlink:title=" ">
<polygon fill="white" stroke="black" points="145,-0.5 145,-19.5 257,-19.5 257,-0.5 145,-0.5"/>
<text text-anchor="middle" x="201" y="-7.5" font-family="Helvetica,sans-Serif" font-size="10.00">SplitFlowVisit_base</text>
</a>
</g>
</g>
<!-- Node3&#45;&gt;Node5 -->
<g id="edge9" class="edge">
<title>Node3&#45;&gt;Node5</title>
<path fill="none" stroke="#9a32cd" stroke-dasharray="5,2" d="M126.66,-127.83C116.54,-111.48 105.48,-86.53 116,-67 128.74,-43.35 156.32,-28.04 176.62,-19.51"/>
<polygon fill="#9a32cd" stroke="#9a32cd" points="123.88,-129.97 132.33,-136.36 129.7,-126.1 123.88,-129.97"/>
<text text-anchor="middle" x="121" y="-75.5" font-family="Helvetica,sans-Serif" font-size="10.00"> v</text>
</g>
<!-- Node6 -->
<g id="node6" class="node">
<title>Node6</title>
<g id="a_node6"><a xlink:title=" ">
<polygon fill="white" stroke="#bfbfbf" points="135.5,-68.5 135.5,-87.5 266.5,-87.5 266.5,-68.5 135.5,-68.5"/>
<text text-anchor="middle" x="201" y="-75.5" font-family="Helvetica,sans-Serif" font-size="10.00">std::vector&lt; Visitor * &gt;</text>
</a>
</g>
</g>
<!-- Node3&#45;&gt;Node6 -->
<g id="edge8" class="edge">
<title>Node3&#45;&gt;Node6</title>
<path fill="none" stroke="#9a32cd" stroke-dasharray="5,2" d="M153.99,-129.05C166.14,-116.11 182.82,-98.36 192.69,-87.84"/>
<polygon fill="#9a32cd" stroke="#9a32cd" points="151.4,-126.69 147.11,-136.37 156.5,-131.48 151.4,-126.69"/>
<text text-anchor="middle" x="198.5" y="-110" font-family="Helvetica,sans-Serif" font-size="10.00"> elements</text>
</g>
<!-- Node4 -->
<g id="node4" class="node">
<title>Node4</title>
<g id="a_node4"><a xlink:href="classcstring.html" target="_top" xlink:title=" ">
<polygon fill="white" stroke="black" points="114,-204.5 114,-223.5 164,-223.5 164,-204.5 114,-204.5"/>
<text text-anchor="middle" x="139" y="-211.5" font-family="Helvetica,sans-Serif" font-size="10.00">cstring</text>
</a>
</g>
</g>
<!-- Node4&#45;&gt;Node3 -->
<g id="edge3" class="edge">
<title>Node4&#45;&gt;Node3</title>
<path fill="none" stroke="#9a32cd" stroke-dasharray="5,2" d="M139,-194.04C139,-181.47 139,-165.56 139,-155.84"/>
<polygon fill="#9a32cd" stroke="#9a32cd" points="135.5,-194.37 139,-204.37 142.5,-194.37 135.5,-194.37"/>
<text text-anchor="middle" x="174" y="-177" font-family="Helvetica,sans-Serif" font-size="10.00"> internalName</text>
</g>
<!-- Node4&#45;&gt;Node4 -->
<g id="edge4" class="edge">
<title>Node4&#45;&gt;Node4</title>
<path fill="none" stroke="#9a32cd" stroke-dasharray="5,2" d="M174.45,-219.58C179,-218.61 182,-216.75 182,-214 182,-209.48 173.91,-207.37 164.18,-207.65"/>
<polygon fill="#9a32cd" stroke="#9a32cd" points="173.89,-216.11 164.18,-220.35 174.41,-223.1 173.89,-216.11"/>
<text text-anchor="middle" x="201.5" y="-217" font-family="Helvetica,sans-Serif" font-size="10.00"> empty</text>
<text text-anchor="middle" x="201.5" y="-206" font-family="Helvetica,sans-Serif" font-size="10.00">newline</text>
</g>
<!-- Node5&#45;&gt;Node3 -->
<g id="edge5" class="edge">
<title>Node5&#45;&gt;Node3</title>
<path fill="none" stroke="#9a32cd" stroke-dasharray="5,2" d="M230.05,-24.16C257.07,-38.38 291.07,-62.58 276,-89 253.35,-128.73 195.96,-140.29 163.1,-143.64"/>
<polygon fill="#9a32cd" stroke="#9a32cd" points="231.38,-20.91 220.88,-19.56 228.25,-27.17 231.38,-20.91"/>
<text text-anchor="middle" x="317" y="-81" font-family="Helvetica,sans-Serif" font-size="10.00"> split_link</text>
<text text-anchor="middle" x="317" y="-70" font-family="Helvetica,sans-Serif" font-size="10.00">split_link_mem</text>
</g>
<!-- Node5&#45;&gt;Node5 -->
<g id="edge6" class="edge">
<title>Node5&#45;&gt;Node5</title>
<path fill="none" stroke="#9a32cd" stroke-dasharray="5,2" d="M267.4,-14.4C272.12,-13.4 275,-11.93 275,-10 275,-6.91 267.62,-5.01 257.15,-4.31"/>
<polygon fill="#9a32cd" stroke="#9a32cd" points="266.63,-10.97 257.15,-15.69 267.51,-17.91 266.63,-10.97"/>
<text text-anchor="middle" x="287.5" y="-7.5" font-family="Helvetica,sans-Serif" font-size="10.00"> prev</text>
</g>
<!-- Node6&#45;&gt;Node5 -->
<g id="edge7" class="edge">
<title>Node6&#45;&gt;Node5</title>
<path fill="none" stroke="#9a32cd" stroke-dasharray="5,2" d="M201,-58.04C201,-45.47 201,-29.56 201,-19.84"/>
<polygon fill="#9a32cd" stroke="#9a32cd" points="197.5,-58.37 201,-68.37 204.5,-58.37 197.5,-58.37"/>
<text text-anchor="middle" x="221" y="-41" font-family="Helvetica,sans-Serif" font-size="10.00"> visitors</text>
</g>
</g>
</svg>
