<?xml version="1.0" encoding="UTF-8" standalone="no"?>
<!DOCTYPE svg PUBLIC "-//W3C//DTD SVG 1.1//EN"
 "http://www.w3.org/Graphics/SVG/1.1/DTD/svg11.dtd">
<!-- Generated by graphviz version 2.43.0 (0)
 -->
<!-- Title: P4::DoLocalCopyPropagation Pages: 1 -->
<!--zoomable 233 -->
<svg id="main" version="1.1" xmlns="http://www.w3.org/2000/svg" xmlns:xlink="http://www.w3.org/1999/xlink" xml:space="preserve" onload="init(evt)">
<style type="text/css"><![CDATA[
.edge:hover path { stroke: red; }
.edge:hover polygon { stroke: red; fill: red; }
]]></style>
<script type="text/javascript"><![CDATA[
var edges = document.getElementsByTagName('g');
if (edges && edges.length) {
  for (var i=0;i<edges.length;i++) {
    if (edges[i].id.substr(0,4)=='edge') {
      edges[i].setAttribute('class','edge');
    }
  }
}
]]></script>
        <defs>
                <circle id="rim" cx="0" cy="0" r="7"/>
                <circle id="rim2" cx="0" cy="0" r="3.5"/>
                <g id="zoomPlus">
                        <use xlink:href="#rim" fill="#404040">
                                <set attributeName="fill" to="#808080" begin="zoomplus.mouseover" end="zoomplus.mouseout"/>
                        </use>
                        <path d="M-4,0h8M0,-4v8" fill="none" stroke="white" stroke-width="1.5" pointer-events="none"/>
                </g>
                <g id="zoomMin">
                        <use xlink:href="#rim" fill="#404040">
                                <set attributeName="fill" to="#808080" begin="zoomminus.mouseover" end="zoomminus.mouseout"/>
                        </use>
                        <path d="M-4,0h8" fill="none" stroke="white" stroke-width="1.5" pointer-events="none"/>
                </g>
                <g id="dirArrow">
                        <path fill="none" stroke="white" stroke-width="1.5" d="M0,-3.0v7 M-2.5,-0.5L0,-3.0L2.5,-0.5"/>
                </g>
               <g id="resetDef">
                       <use xlink:href="#rim2" fill="#404040">
                               <set attributeName="fill" to="#808080" begin="reset.mouseover" end="reset.mouseout"/>
                       </use>
               </g>
        </defs>

<script type="text/javascript">
var viewWidth = 646;
var viewHeight = 233;
var sectionId = 'dynsection-1';
</script>
<script xlink:href="svgpan.js"/>
<svg id="graph" class="graph">
<g id="viewport">
<title>P4::DoLocalCopyPropagation</title>
<polygon fill="white" stroke="transparent" points="-4,4 -4,-229 641.5,-229 641.5,4 -4,4"/>
<!-- Node1 -->
<g id="node1" class="node">
<title>Node1</title>
<g id="a_node1"><a xlink:title=" ">
<polygon fill="#bfbfbf" stroke="black" points="359,-0.5 359,-19.5 516,-19.5 516,-0.5 359,-0.5"/>
<text text-anchor="middle" x="437.5" y="-7.5" font-family="Helvetica,sans-Serif" font-size="10.00">P4::DoLocalCopyPropagation</text>
</a>
</g>
</g>
<!-- Node2 -->
<g id="node2" class="node">
<title>Node2</title>
<g id="a_node2"><a xlink:href="class_control_flow_visitor.html" target="_top" xlink:title=" ">
<polygon fill="white" stroke="black" points="502,-68.5 502,-87.5 609,-87.5 609,-68.5 502,-68.5"/>
<text text-anchor="middle" x="555.5" y="-75.5" font-family="Helvetica,sans-Serif" font-size="10.00">ControlFlowVisitor</text>
</a>
</g>
</g>
<!-- Node2&#45;&gt;Node1 -->
<g id="edge1" class="edge">
<title>Node2&#45;&gt;Node1</title>
<path fill="none" stroke="midnightblue" d="M531.08,-63.34C507.59,-50.2 472.81,-30.75 452.93,-19.63"/>
<polygon fill="midnightblue" stroke="midnightblue" points="529.64,-66.54 540.07,-68.37 533.05,-60.44 529.64,-66.54"/>
</g>
<!-- Node3 -->
<g id="node3" class="node">
<title>Node3</title>
<g id="a_node3"><a xlink:href="class_visitor.html" target="_top" xlink:title=" ">
<polygon fill="white" stroke="black" points="277.5,-136.5 277.5,-155.5 325.5,-155.5 325.5,-136.5 277.5,-136.5"/>
<text text-anchor="middle" x="301.5" y="-143.5" font-family="Helvetica,sans-Serif" font-size="10.00">Visitor</text>
</a>
</g>
</g>
<!-- Node3&#45;&gt;Node2 -->
<g id="edge2" class="edge">
<title>Node3&#45;&gt;Node2</title>
<path fill="none" stroke="midnightblue" d="M335.66,-136.12C384.62,-123.4 474.17,-100.13 522.49,-87.58"/>
<polygon fill="midnightblue" stroke="midnightblue" points="334.65,-132.77 325.85,-138.67 336.41,-139.54 334.65,-132.77"/>
</g>
<!-- Node3&#45;&gt;Node3 -->
<g id="edge10" class="edge">
<title>Node3&#45;&gt;Node3</title>
<path fill="none" stroke="#9a32cd" stroke-dasharray="5,2" d="M335.92,-151.29C340.48,-150.39 343.5,-148.63 343.5,-146 343.5,-141.69 335.36,-139.7 325.67,-140.04"/>
<polygon fill="#9a32cd" stroke="#9a32cd" points="335.42,-147.82 325.67,-151.96 335.88,-154.8 335.42,-147.82"/>
<text text-anchor="middle" x="368.5" y="-143.5" font-family="Helvetica,sans-Serif" font-size="10.00"> called_by</text>
</g>
<!-- Node5 -->
<g id="node5" class="node">
<title>Node5</title>
<g id="a_node5"><a xlink:href="class_split_flow_visit__base.html" target="_top" xlink:title=" ">
<polygon fill="white" stroke="black" points="111.5,-0.5 111.5,-19.5 223.5,-19.5 223.5,-0.5 111.5,-0.5"/>
<text text-anchor="middle" x="167.5" y="-7.5" font-family="Helvetica,sans-Serif" font-size="10.00">SplitFlowVisit_base</text>
</a>
</g>
</g>
<!-- Node3&#45;&gt;Node5 -->
<g id="edge9" class="edge">
<title>Node3&#45;&gt;Node5</title>
<path fill="none" stroke="#9a32cd" stroke-dasharray="5,2" d="M294.47,-127.05C287.16,-110.08 274.42,-84.67 257.5,-67 237,-45.6 206.69,-28.97 187.02,-19.57"/>
<polygon fill="#9a32cd" stroke="#9a32cd" points="291.27,-128.46 298.31,-136.37 297.74,-125.79 291.27,-128.46"/>
<text text-anchor="middle" x="279.5" y="-75.5" font-family="Helvetica,sans-Serif" font-size="10.00"> v</text>
</g>
<!-- Node6 -->
<g id="node6" class="node">
<title>Node6</title>
<g id="a_node6"><a xlink:title=" ">
<polygon fill="white" stroke="#bfbfbf" points="0,-68.5 0,-87.5 131,-87.5 131,-68.5 0,-68.5"/>
<text text-anchor="middle" x="65.5" y="-75.5" font-family="Helvetica,sans-Serif" font-size="10.00">std::vector&lt; Visitor * &gt;</text>
</a>
</g>
</g>
<!-- Node3&#45;&gt;Node6 -->
<g id="edge8" class="edge">
<title>Node3&#45;&gt;Node6</title>
<path fill="none" stroke="#9a32cd" stroke-dasharray="5,2" d="M267.3,-142.94C218.68,-139.57 132.37,-131.84 104.5,-118 90.43,-111.02 78.38,-96.98 71.54,-87.78"/>
<polygon fill="#9a32cd" stroke="#9a32cd" points="267.15,-146.44 277.36,-143.61 267.61,-139.46 267.15,-146.44"/>
<text text-anchor="middle" x="129" y="-110" font-family="Helvetica,sans-Serif" font-size="10.00"> elements</text>
</g>
<!-- Node10 -->
<g id="node10" class="node">
<title>Node10</title>
<g id="a_node10"><a xlink:href="class_transform.html" target="_top" xlink:title=" ">
<polygon fill="white" stroke="black" points="308,-68.5 308,-87.5 373,-87.5 373,-68.5 308,-68.5"/>
<text text-anchor="middle" x="340.5" y="-75.5" font-family="Helvetica,sans-Serif" font-size="10.00">Transform</text>
</a>
</g>
</g>
<!-- Node3&#45;&gt;Node10 -->
<g id="edge15" class="edge">
<title>Node3&#45;&gt;Node10</title>
<path fill="none" stroke="midnightblue" d="M311.8,-127.56C319.36,-114.78 329.3,-97.96 335.28,-87.84"/>
<polygon fill="midnightblue" stroke="midnightblue" points="308.67,-125.98 306.6,-136.37 314.7,-129.54 308.67,-125.98"/>
</g>
<!-- Node11 -->
<g id="node11" class="node">
<title>Node11</title>
<g id="a_node11"><a xlink:href="class_p4_write_context.html" target="_top" xlink:title=" ">
<polygon fill="white" stroke="black" points="391,-68.5 391,-87.5 484,-87.5 484,-68.5 391,-68.5"/>
<text text-anchor="middle" x="437.5" y="-75.5" font-family="Helvetica,sans-Serif" font-size="10.00">P4WriteContext</text>
</a>
</g>
</g>
<!-- Node3&#45;&gt;Node11 -->
<g id="edge17" class="edge">
<title>Node3&#45;&gt;Node11</title>
<path fill="none" stroke="midnightblue" d="M328.57,-131.86C355.64,-118.72 396.5,-98.9 419.72,-87.63"/>
<polygon fill="midnightblue" stroke="midnightblue" points="326.75,-128.86 319.28,-136.37 329.8,-135.15 326.75,-128.86"/>
</g>
<!-- Node4 -->
<g id="node4" class="node">
<title>Node4</title>
<g id="a_node4"><a xlink:href="classcstring.html" target="_top" xlink:title=" ">
<polygon fill="white" stroke="black" points="276.5,-204.5 276.5,-223.5 326.5,-223.5 326.5,-204.5 276.5,-204.5"/>
<text text-anchor="middle" x="301.5" y="-211.5" font-family="Helvetica,sans-Serif" font-size="10.00">cstring</text>
</a>
</g>
</g>
<!-- Node4&#45;&gt;Node3 -->
<g id="edge3" class="edge">
<title>Node4&#45;&gt;Node3</title>
<path fill="none" stroke="#9a32cd" stroke-dasharray="5,2" d="M301.5,-194.04C301.5,-181.47 301.5,-165.56 301.5,-155.84"/>
<polygon fill="#9a32cd" stroke="#9a32cd" points="298,-194.37 301.5,-204.37 305,-194.37 298,-194.37"/>
<text text-anchor="middle" x="336.5" y="-177" font-family="Helvetica,sans-Serif" font-size="10.00"> internalName</text>
</g>
<!-- Node4&#45;&gt;Node4 -->
<g id="edge4" class="edge">
<title>Node4&#45;&gt;Node4</title>
<path fill="none" stroke="#9a32cd" stroke-dasharray="5,2" d="M336.95,-219.58C341.5,-218.61 344.5,-216.75 344.5,-214 344.5,-209.48 336.41,-207.37 326.68,-207.65"/>
<polygon fill="#9a32cd" stroke="#9a32cd" points="336.39,-216.11 326.68,-220.35 336.91,-223.1 336.39,-216.11"/>
<text text-anchor="middle" x="364" y="-217" font-family="Helvetica,sans-Serif" font-size="10.00"> empty</text>
<text text-anchor="middle" x="364" y="-206" font-family="Helvetica,sans-Serif" font-size="10.00">newline</text>
</g>
<!-- Node5&#45;&gt;Node3 -->
<g id="edge5" class="edge">
<title>Node5&#45;&gt;Node3</title>
<path fill="none" stroke="#9a32cd" stroke-dasharray="5,2" d="M166.24,-30.16C166.13,-47.27 168.55,-72.17 181.5,-89 205.05,-119.61 249.37,-134.16 277.06,-140.55"/>
<polygon fill="#9a32cd" stroke="#9a32cd" points="169.76,-29.87 166.63,-19.75 162.76,-29.61 169.76,-29.87"/>
<text text-anchor="middle" x="219.5" y="-81" font-family="Helvetica,sans-Serif" font-size="10.00"> split_link</text>
<text text-anchor="middle" x="219.5" y="-70" font-family="Helvetica,sans-Serif" font-size="10.00">split_link_mem</text>
</g>
<!-- Node5&#45;&gt;Node5 -->
<g id="edge6" class="edge">
<title>Node5&#45;&gt;Node5</title>
<path fill="none" stroke="#9a32cd" stroke-dasharray="5,2" d="M233.9,-14.4C238.62,-13.4 241.5,-11.93 241.5,-10 241.5,-6.91 234.12,-5.01 223.65,-4.31"/>
<polygon fill="#9a32cd" stroke="#9a32cd" points="233.13,-10.97 223.65,-15.69 234.01,-17.91 233.13,-10.97"/>
<text text-anchor="middle" x="254" y="-7.5" font-family="Helvetica,sans-Serif" font-size="10.00"> prev</text>
</g>
<!-- Node6&#45;&gt;Node5 -->
<g id="edge7" class="edge">
<title>Node6&#45;&gt;Node5</title>
<path fill="none" stroke="#9a32cd" stroke-dasharray="5,2" d="M82.64,-61.54C91.5,-53.95 102.7,-44.97 113.5,-38 124.42,-30.95 137.43,-24.4 147.95,-19.51"/>
<polygon fill="#9a32cd" stroke="#9a32cd" points="80.17,-59.05 74.95,-68.27 84.78,-64.32 80.17,-59.05"/>
<text text-anchor="middle" x="133.5" y="-41" font-family="Helvetica,sans-Serif" font-size="10.00"> visitors</text>
</g>
<!-- Node7 -->
<g id="node7" class="node">
<title>Node7</title>
<g id="a_node7"><a xlink:title=" ">
<polygon fill="white" stroke="#bfbfbf" points="505,-136.5 505,-155.5 606,-155.5 606,-136.5 505,-136.5"/>
<text text-anchor="middle" x="555.5" y="-143.5" font-family="Helvetica,sans-Serif" font-size="10.00">std::map&lt; K, T &gt;</text>
</a>
</g>
</g>
<!-- Node7&#45;&gt;Node2 -->
<g id="edge11" class="edge">
<title>Node7&#45;&gt;Node2</title>
<path fill="none" stroke="#9a32cd" stroke-dasharray="5,2" d="M555.5,-126.04C555.5,-113.47 555.5,-97.56 555.5,-87.84"/>
<polygon fill="#9a32cd" stroke="#9a32cd" points="552,-126.37 555.5,-136.37 559,-126.37 552,-126.37"/>
<text text-anchor="middle" x="596.5" y="-110" font-family="Helvetica,sans-Serif" font-size="10.00"> flow_join_points</text>
</g>
<!-- Node8 -->
<g id="node8" class="node">
<title>Node8</title>
<g id="a_node8"><a xlink:title=" ">
<polygon fill="white" stroke="#bfbfbf" points="577,-204.5 577,-223.5 606,-223.5 606,-204.5 577,-204.5"/>
<text text-anchor="middle" x="591.5" y="-211.5" font-family="Helvetica,sans-Serif" font-size="10.00">K</text>
</a>
</g>
</g>
<!-- Node8&#45;&gt;Node7 -->
<g id="edge12" class="edge">
<title>Node8&#45;&gt;Node7</title>
<path fill="none" stroke="#9a32cd" stroke-dasharray="5,2" d="M581.99,-195.56C575.02,-182.78 565.84,-165.96 560.32,-155.84"/>
<polygon fill="#9a32cd" stroke="#9a32cd" points="578.93,-197.27 586.79,-204.37 585.08,-193.92 578.93,-197.27"/>
<text text-anchor="middle" x="588.5" y="-177" font-family="Helvetica,sans-Serif" font-size="10.00"> keys</text>
</g>
<!-- Node9 -->
<g id="node9" class="node">
<title>Node9</title>
<g id="a_node9"><a xlink:title=" ">
<polygon fill="white" stroke="#bfbfbf" points="505,-204.5 505,-223.5 534,-223.5 534,-204.5 505,-204.5"/>
<text text-anchor="middle" x="519.5" y="-211.5" font-family="Helvetica,sans-Serif" font-size="10.00">T</text>
</a>
</g>
</g>
<!-- Node9&#45;&gt;Node7 -->
<g id="edge13" class="edge">
<title>Node9&#45;&gt;Node7</title>
<path fill="none" stroke="#9a32cd" stroke-dasharray="5,2" d="M514.11,-194.63C513.1,-187.82 513.23,-180.24 516.5,-174 520.63,-166.12 528.21,-160.09 535.61,-155.74"/>
<polygon fill="#9a32cd" stroke="#9a32cd" points="510.7,-195.43 516.33,-204.41 517.53,-193.88 510.7,-195.43"/>
<text text-anchor="middle" x="541" y="-177" font-family="Helvetica,sans-Serif" font-size="10.00"> elements</text>
</g>
<!-- Node10&#45;&gt;Node1 -->
<g id="edge14" class="edge">
<title>Node10&#45;&gt;Node1</title>
<path fill="none" stroke="#8b1a1a" d="M361.61,-62.63C380.9,-49.51 408.77,-30.55 424.82,-19.63"/>
<polygon fill="#8b1a1a" stroke="#8b1a1a" points="359.48,-59.85 353.18,-68.37 363.42,-65.64 359.48,-59.85"/>
</g>
<!-- Node11&#45;&gt;Node1 -->
<g id="edge16" class="edge">
<title>Node11&#45;&gt;Node1</title>
<path fill="none" stroke="#8b1a1a" d="M437.5,-58.04C437.5,-45.47 437.5,-29.56 437.5,-19.84"/>
<polygon fill="#8b1a1a" stroke="#8b1a1a" points="434,-58.37 437.5,-68.37 441,-58.37 434,-58.37"/>
</g>
</g>
</svg>
        <g id="navigator" transform="translate(0 0)" fill="#404254">
                <rect fill="#f2f5e9" fill-opacity="0.5" stroke="#606060" stroke-width=".5" x="0" y="0" width="60" height="60"/>
                <use id="zoomplus" xlink:href="#zoomPlus" x="17" y="9" onmousedown="handleZoom(evt,'in')"/>
                <use id="zoomminus" xlink:href="#zoomMin" x="42" y="9" onmousedown="handleZoom(evt,'out')"/>
                <use id="reset" xlink:href="#resetDef" x="30" y="36" onmousedown="handleReset()"/>
                <g id="arrowUp" xlink:href="#dirArrow" transform="translate(30 24)" onmousedown="handlePan(0,-1)">
                  <use xlink:href="#rim" fill="#404040">
                        <set attributeName="fill" to="#808080" begin="arrowUp.mouseover" end="arrowUp.mouseout"/>
                  </use>
                  <path fill="none" stroke="white" stroke-width="1.5" d="M0,-3.0v7 M-2.5,-0.5L0,-3.0L2.5,-0.5"/>
                </g>
                <g id="arrowRight" xlink:href="#dirArrow" transform="rotate(90) translate(36 -43)" onmousedown="handlePan(1,0)">
                  <use xlink:href="#rim" fill="#404040">
                        <set attributeName="fill" to="#808080" begin="arrowRight.mouseover" end="arrowRight.mouseout"/>
                  </use>
                  <path fill="none" stroke="white" stroke-width="1.5" d="M0,-3.0v7 M-2.5,-0.5L0,-3.0L2.5,-0.5"/>
                </g>
                <g id="arrowDown" xlink:href="#dirArrow" transform="rotate(180) translate(-30 -48)" onmousedown="handlePan(0,1)">
                  <use xlink:href="#rim" fill="#404040">
                        <set attributeName="fill" to="#808080" begin="arrowDown.mouseover" end="arrowDown.mouseout"/>
                  </use>
                  <path fill="none" stroke="white" stroke-width="1.5" d="M0,-3.0v7 M-2.5,-0.5L0,-3.0L2.5,-0.5"/>
                </g>
                <g id="arrowLeft" xlink:href="#dirArrow" transform="rotate(270) translate(-36 17)" onmousedown="handlePan(-1,0)">
                  <use xlink:href="#rim" fill="#404040">
                        <set attributeName="fill" to="#808080" begin="arrowLeft.mouseover" end="arrowLeft.mouseout"/>
                  </use>
                  <path fill="none" stroke="white" stroke-width="1.5" d="M0,-3.0v7 M-2.5,-0.5L0,-3.0L2.5,-0.5"/>
                </g>
        </g>
        <svg viewBox="0 0 15 15" width="100%" height="30px" preserveAspectRatio="xMaxYMin meet">
         <g id="arrow_out" transform="scale(0.3 0.3)">
          <a xlink:href="class_p4_1_1_do_local_copy_propagation__coll__graph_org.svg" target="_base">
           <rect id="button" ry="5" rx="5" y="6" x="6" height="38" width="38"
                fill="#f2f5e9" fill-opacity="0.5" stroke="#606060" stroke-width="1.0"/>
           <path id="arrow"
             d="M 11.500037,31.436501 C 11.940474,20.09759 22.043105,11.32322 32.158766,21.979434 L 37.068811,17.246167 C 37.068811,17.246167 37.088388,32 37.088388,32 L 22.160133,31.978069 C 22.160133,31.978069 26.997745,27.140456 26.997745,27.140456 C 18.528582,18.264221 13.291696,25.230495 11.500037,31.436501 z"
             style="fill:#404040;"/>
          </a>
         </g>
        </svg>
</svg>
