<?xml version="1.0" encoding="UTF-8" standalone="no"?>
<!DOCTYPE svg PUBLIC "-//W3C//DTD SVG 1.1//EN"
 "http://www.w3.org/Graphics/SVG/1.1/DTD/svg11.dtd">
<!-- Generated by graphviz version 2.43.0 (0)
 -->
<!-- Title: Util::CompilerBug Pages: 1 -->
<svg width="219pt" height="154pt"
 viewBox="0.00 0.00 219.00 154.00" xmlns="http://www.w3.org/2000/svg" xmlns:xlink="http://www.w3.org/1999/xlink">
<g id="graph0" class="graph" transform="scale(1 1) rotate(0) translate(4 150)">
<title>Util::CompilerBug</title>
<polygon fill="white" stroke="transparent" points="-4,4 -4,-150 215,-150 215,4 -4,4"/>
<!-- Node1 -->
<g id="node1" class="node">
<title>Node1</title>
<g id="a_node1"><a xlink:title="This class indicates a bug in the compiler.">
<polygon fill="#bfbfbf" stroke="black" points="20.5,-0.5 20.5,-19.5 123.5,-19.5 123.5,-0.5 20.5,-0.5"/>
<text text-anchor="middle" x="72" y="-7.5" font-family="Helvetica,sans-Serif" font-size="10.00">Util::CompilerBug</text>
</a>
</g>
</g>
<!-- Node2 -->
<g id="node2" class="node">
<title>Node2</title>
<g id="a_node2"><a xlink:href="class_util_1_1_p4_c_exception_base.html" target="_top" xlink:title=" ">
<polygon fill="white" stroke="black" points="6.5,-57.5 6.5,-76.5 137.5,-76.5 137.5,-57.5 6.5,-57.5"/>
<text text-anchor="middle" x="72" y="-64.5" font-family="Helvetica,sans-Serif" font-size="10.00">Util::P4CExceptionBase</text>
</a>
</g>
</g>
<!-- Node2&#45;&gt;Node1 -->
<g id="edge1" class="edge">
<title>Node2&#45;&gt;Node1</title>
<path fill="none" stroke="midnightblue" d="M72,-47.12C72,-37.82 72,-27.06 72,-19.71"/>
<polygon fill="midnightblue" stroke="midnightblue" points="68.5,-47.41 72,-57.41 75.5,-47.41 68.5,-47.41"/>
</g>
<!-- Node3 -->
<g id="node3" class="node">
<title>Node3</title>
<g id="a_node3"><a xlink:title=" ">
<polygon fill="white" stroke="#bfbfbf" points="0,-125.5 0,-144.5 86,-144.5 86,-125.5 0,-125.5"/>
<text text-anchor="middle" x="43" y="-132.5" font-family="Helvetica,sans-Serif" font-size="10.00">std::exception</text>
</a>
</g>
</g>
<!-- Node3&#45;&gt;Node2 -->
<g id="edge2" class="edge">
<title>Node3&#45;&gt;Node2</title>
<path fill="none" stroke="midnightblue" d="M50.83,-116.19C56.42,-103.45 63.71,-86.86 68.12,-76.84"/>
<polygon fill="midnightblue" stroke="midnightblue" points="47.61,-114.81 46.79,-125.37 54.02,-117.62 47.61,-114.81"/>
</g>
<!-- Node4 -->
<g id="node4" class="node">
<title>Node4</title>
<g id="a_node4"><a xlink:href="classcstring.html" target="_top" xlink:title=" ">
<polygon fill="white" stroke="black" points="104,-125.5 104,-144.5 154,-144.5 154,-125.5 104,-125.5"/>
<text text-anchor="middle" x="129" y="-132.5" font-family="Helvetica,sans-Serif" font-size="10.00">cstring</text>
</a>
</g>
</g>
<!-- Node4&#45;&gt;Node2 -->
<g id="edge3" class="edge">
<title>Node4&#45;&gt;Node2</title>
<path fill="none" stroke="#9a32cd" stroke-dasharray="5,2" d="M114.91,-117.68C103.76,-104.78 88.63,-87.26 79.64,-76.84"/>
<polygon fill="#9a32cd" stroke="#9a32cd" points="112.36,-120.09 121.55,-125.37 117.66,-115.52 112.36,-120.09"/>
<text text-anchor="middle" x="127" y="-98" font-family="Helvetica,sans-Serif" font-size="10.00"> message</text>
</g>
<!-- Node4&#45;&gt;Node4 -->
<g id="edge4" class="edge">
<title>Node4&#45;&gt;Node4</title>
<path fill="none" stroke="#9a32cd" stroke-dasharray="5,2" d="M164.45,-140.58C169,-139.61 172,-137.75 172,-135 172,-130.48 163.91,-128.37 154.18,-128.65"/>
<polygon fill="#9a32cd" stroke="#9a32cd" points="163.89,-137.11 154.18,-141.35 164.41,-144.1 163.89,-137.11"/>
<text text-anchor="middle" x="191.5" y="-138" font-family="Helvetica,sans-Serif" font-size="10.00"> empty</text>
<text text-anchor="middle" x="191.5" y="-127" font-family="Helvetica,sans-Serif" font-size="10.00">newline</text>
</g>
</g>
</svg>
