<?xml version="1.0" encoding="UTF-8" standalone="no"?>
<!DOCTYPE svg PUBLIC "-//W3C//DTD SVG 1.1//EN"
 "http://www.w3.org/Graphics/SVG/1.1/DTD/svg11.dtd">
<!-- Generated by graphviz version 2.43.0 (0)
 -->
<!-- Title: DPDK::BreakLogicalExpressionParenthesis Pages: 1 -->
<svg width="409pt" height="244pt"
 viewBox="0.00 0.00 408.50 244.00" xmlns="http://www.w3.org/2000/svg" xmlns:xlink="http://www.w3.org/1999/xlink">
<g id="graph0" class="graph" transform="scale(1 1) rotate(0) translate(4 240)">
<title>DPDK::BreakLogicalExpressionParenthesis</title>
<polygon fill="white" stroke="transparent" points="-4,4 -4,-240 404.5,-240 404.5,4 -4,4"/>
<!-- Node1 -->
<g id="node1" class="node">
<title>Node1</title>
<g id="a_node1"><a xlink:title=" ">
<polygon fill="#bfbfbf" stroke="black" points="0,-0.5 0,-30.5 167,-30.5 167,-0.5 0,-0.5"/>
<text text-anchor="start" x="8" y="-18.5" font-family="Helvetica,sans-Serif" font-size="10.00">DPDK::BreakLogicalExpression</text>
<text text-anchor="middle" x="83.5" y="-7.5" font-family="Helvetica,sans-Serif" font-size="10.00">Parenthesis</text>
</a>
</g>
</g>
<!-- Node2 -->
<g id="node2" class="node">
<title>Node2</title>
<g id="a_node2"><a xlink:href="class_transform.html" target="_top" xlink:title=" ">
<polygon fill="white" stroke="black" points="51,-79.5 51,-98.5 116,-98.5 116,-79.5 51,-79.5"/>
<text text-anchor="middle" x="83.5" y="-86.5" font-family="Helvetica,sans-Serif" font-size="10.00">Transform</text>
</a>
</g>
</g>
<!-- Node2&#45;&gt;Node1 -->
<g id="edge1" class="edge">
<title>Node2&#45;&gt;Node1</title>
<path fill="none" stroke="midnightblue" d="M83.5,-68.9C83.5,-56.82 83.5,-41.47 83.5,-30.51"/>
<polygon fill="midnightblue" stroke="midnightblue" points="80,-69.23 83.5,-79.23 87,-69.23 80,-69.23"/>
</g>
<!-- Node3 -->
<g id="node3" class="node">
<title>Node3</title>
<g id="a_node3"><a xlink:href="class_visitor.html" target="_top" xlink:title=" ">
<polygon fill="white" stroke="black" points="160.5,-147.5 160.5,-166.5 208.5,-166.5 208.5,-147.5 160.5,-147.5"/>
<text text-anchor="middle" x="184.5" y="-154.5" font-family="Helvetica,sans-Serif" font-size="10.00">Visitor</text>
</a>
</g>
</g>
<!-- Node3&#45;&gt;Node2 -->
<g id="edge2" class="edge">
<title>Node3&#45;&gt;Node2</title>
<path fill="none" stroke="midnightblue" d="M159.91,-142.09C152.92,-138 145.34,-133.42 138.5,-129 123.16,-119.09 106.09,-106.77 95.1,-98.67"/>
<polygon fill="midnightblue" stroke="midnightblue" points="158.56,-145.35 168.97,-147.33 162.06,-139.29 158.56,-145.35"/>
</g>
<!-- Node3&#45;&gt;Node3 -->
<g id="edge10" class="edge">
<title>Node3&#45;&gt;Node3</title>
<path fill="none" stroke="#9a32cd" stroke-dasharray="5,2" d="M218.92,-162.29C223.48,-161.39 226.5,-159.63 226.5,-157 226.5,-152.69 218.36,-150.7 208.67,-151.04"/>
<polygon fill="#9a32cd" stroke="#9a32cd" points="218.42,-158.82 208.67,-162.96 218.88,-165.8 218.42,-158.82"/>
<text text-anchor="middle" x="251.5" y="-154.5" font-family="Helvetica,sans-Serif" font-size="10.00"> called_by</text>
</g>
<!-- Node5 -->
<g id="node5" class="node">
<title>Node5</title>
<g id="a_node5"><a xlink:href="class_split_flow_visit__base.html" target="_top" xlink:title=" ">
<polygon fill="white" stroke="black" points="190.5,-6 190.5,-25 302.5,-25 302.5,-6 190.5,-6"/>
<text text-anchor="middle" x="246.5" y="-13" font-family="Helvetica,sans-Serif" font-size="10.00">SplitFlowVisit_base</text>
</a>
</g>
</g>
<!-- Node3&#45;&gt;Node5 -->
<g id="edge9" class="edge">
<title>Node3&#45;&gt;Node5</title>
<path fill="none" stroke="#9a32cd" stroke-dasharray="5,2" d="M172.35,-138.93C162.37,-122.65 151.41,-97.76 161.5,-78 174.76,-52.05 204.65,-34.51 225.2,-25.01"/>
<polygon fill="#9a32cd" stroke="#9a32cd" points="169.51,-140.99 177.94,-147.42 175.36,-137.14 169.51,-140.99"/>
<text text-anchor="middle" x="166.5" y="-86.5" font-family="Helvetica,sans-Serif" font-size="10.00"> v</text>
</g>
<!-- Node6 -->
<g id="node6" class="node">
<title>Node6</title>
<g id="a_node6"><a xlink:title=" ">
<polygon fill="white" stroke="#bfbfbf" points="181,-79.5 181,-98.5 312,-98.5 312,-79.5 181,-79.5"/>
<text text-anchor="middle" x="246.5" y="-86.5" font-family="Helvetica,sans-Serif" font-size="10.00">std::vector&lt; Visitor * &gt;</text>
</a>
</g>
</g>
<!-- Node3&#45;&gt;Node6 -->
<g id="edge8" class="edge">
<title>Node3&#45;&gt;Node6</title>
<path fill="none" stroke="#9a32cd" stroke-dasharray="5,2" d="M199.49,-140.05C211.64,-127.11 228.32,-109.36 238.19,-98.84"/>
<polygon fill="#9a32cd" stroke="#9a32cd" points="196.9,-137.69 192.61,-147.37 202,-142.48 196.9,-137.69"/>
<text text-anchor="middle" x="244" y="-121" font-family="Helvetica,sans-Serif" font-size="10.00"> elements</text>
</g>
<!-- Node4 -->
<g id="node4" class="node">
<title>Node4</title>
<g id="a_node4"><a xlink:href="classcstring.html" target="_top" xlink:title=" ">
<polygon fill="white" stroke="black" points="159.5,-215.5 159.5,-234.5 209.5,-234.5 209.5,-215.5 159.5,-215.5"/>
<text text-anchor="middle" x="184.5" y="-222.5" font-family="Helvetica,sans-Serif" font-size="10.00">cstring</text>
</a>
</g>
</g>
<!-- Node4&#45;&gt;Node3 -->
<g id="edge3" class="edge">
<title>Node4&#45;&gt;Node3</title>
<path fill="none" stroke="#9a32cd" stroke-dasharray="5,2" d="M184.5,-205.04C184.5,-192.47 184.5,-176.56 184.5,-166.84"/>
<polygon fill="#9a32cd" stroke="#9a32cd" points="181,-205.37 184.5,-215.37 188,-205.37 181,-205.37"/>
<text text-anchor="middle" x="219.5" y="-188" font-family="Helvetica,sans-Serif" font-size="10.00"> internalName</text>
</g>
<!-- Node4&#45;&gt;Node4 -->
<g id="edge4" class="edge">
<title>Node4&#45;&gt;Node4</title>
<path fill="none" stroke="#9a32cd" stroke-dasharray="5,2" d="M219.95,-230.58C224.5,-229.61 227.5,-227.75 227.5,-225 227.5,-220.48 219.41,-218.37 209.68,-218.65"/>
<polygon fill="#9a32cd" stroke="#9a32cd" points="219.39,-227.11 209.68,-231.35 219.91,-234.1 219.39,-227.11"/>
<text text-anchor="middle" x="247" y="-228" font-family="Helvetica,sans-Serif" font-size="10.00"> empty</text>
<text text-anchor="middle" x="247" y="-217" font-family="Helvetica,sans-Serif" font-size="10.00">newline</text>
</g>
<!-- Node5&#45;&gt;Node3 -->
<g id="edge5" class="edge">
<title>Node5&#45;&gt;Node3</title>
<path fill="none" stroke="#9a32cd" stroke-dasharray="5,2" d="M274.07,-29.98C301.53,-45.35 337.46,-72.02 321.5,-100 298.85,-139.73 241.46,-151.29 208.6,-154.64"/>
<polygon fill="#9a32cd" stroke="#9a32cd" points="275.64,-26.85 265.18,-25.21 272.34,-33.02 275.64,-26.85"/>
<text text-anchor="middle" x="362.5" y="-92" font-family="Helvetica,sans-Serif" font-size="10.00"> split_link</text>
<text text-anchor="middle" x="362.5" y="-81" font-family="Helvetica,sans-Serif" font-size="10.00">split_link_mem</text>
</g>
<!-- Node5&#45;&gt;Node5 -->
<g id="edge6" class="edge">
<title>Node5&#45;&gt;Node5</title>
<path fill="none" stroke="#9a32cd" stroke-dasharray="5,2" d="M312.54,-20.81C317.47,-19.62 320.5,-17.85 320.5,-15.5 320.5,-11.83 313.12,-9.57 302.65,-8.74"/>
<polygon fill="#9a32cd" stroke="#9a32cd" points="312.03,-17.35 302.65,-22.26 313.05,-24.27 312.03,-17.35"/>
<text text-anchor="middle" x="333" y="-13" font-family="Helvetica,sans-Serif" font-size="10.00"> prev</text>
</g>
<!-- Node6&#45;&gt;Node5 -->
<g id="edge7" class="edge">
<title>Node6&#45;&gt;Node5</title>
<path fill="none" stroke="#9a32cd" stroke-dasharray="5,2" d="M246.5,-69.09C246.5,-54.93 246.5,-36.2 246.5,-25.34"/>
<polygon fill="#9a32cd" stroke="#9a32cd" points="243,-69.23 246.5,-79.23 250,-69.23 243,-69.23"/>
<text text-anchor="middle" x="266.5" y="-52" font-family="Helvetica,sans-Serif" font-size="10.00"> visitors</text>
</g>
</g>
</svg>
