<?xml version="1.0" encoding="UTF-8" standalone="no"?>
<!DOCTYPE svg PUBLIC "-//W3C//DTD SVG 1.1//EN"
 "http://www.w3.org/Graphics/SVG/1.1/DTD/svg11.dtd">
<!-- Generated by graphviz version 2.43.0 (0)
 -->
<!-- Title: P4Tools::P4Testgen::Bmv2::RefersToParser Pages: 1 -->
<svg width="388pt" height="244pt"
 viewBox="0.00 0.00 387.50 244.00" xmlns="http://www.w3.org/2000/svg" xmlns:xlink="http://www.w3.org/1999/xlink">
<g id="graph0" class="graph" transform="scale(1 1) rotate(0) translate(4 240)">
<title>P4Tools::P4Testgen::Bmv2::RefersToParser</title>
<polygon fill="white" stroke="transparent" points="-4,4 -4,-240 383.5,-240 383.5,4 -4,4"/>
<!-- Node1 -->
<g id="node1" class="node">
<title>Node1</title>
<g id="a_node1"><a xlink:title=" ">
<polygon fill="#bfbfbf" stroke="black" points="0,-0.5 0,-30.5 129,-30.5 129,-0.5 0,-0.5"/>
<text text-anchor="start" x="8" y="-18.5" font-family="Helvetica,sans-Serif" font-size="10.00">P4Tools::P4Testgen</text>
<text text-anchor="middle" x="64.5" y="-7.5" font-family="Helvetica,sans-Serif" font-size="10.00">::Bmv2::RefersToParser</text>
</a>
</g>
</g>
<!-- Node2 -->
<g id="node2" class="node">
<title>Node2</title>
<g id="a_node2"><a xlink:href="class_inspector.html" target="_top" xlink:title=" ">
<polygon fill="white" stroke="black" points="33.5,-79.5 33.5,-98.5 95.5,-98.5 95.5,-79.5 33.5,-79.5"/>
<text text-anchor="middle" x="64.5" y="-86.5" font-family="Helvetica,sans-Serif" font-size="10.00">Inspector</text>
</a>
</g>
</g>
<!-- Node2&#45;&gt;Node1 -->
<g id="edge1" class="edge">
<title>Node2&#45;&gt;Node1</title>
<path fill="none" stroke="midnightblue" d="M64.5,-68.9C64.5,-56.82 64.5,-41.47 64.5,-30.51"/>
<polygon fill="midnightblue" stroke="midnightblue" points="61,-69.23 64.5,-79.23 68,-69.23 61,-69.23"/>
</g>
<!-- Node3 -->
<g id="node3" class="node">
<title>Node3</title>
<g id="a_node3"><a xlink:href="class_visitor.html" target="_top" xlink:title=" ">
<polygon fill="white" stroke="black" points="139.5,-147.5 139.5,-166.5 187.5,-166.5 187.5,-147.5 139.5,-147.5"/>
<text text-anchor="middle" x="163.5" y="-154.5" font-family="Helvetica,sans-Serif" font-size="10.00">Visitor</text>
</a>
</g>
</g>
<!-- Node3&#45;&gt;Node2 -->
<g id="edge2" class="edge">
<title>Node3&#45;&gt;Node2</title>
<path fill="none" stroke="midnightblue" d="M138.86,-142.17C131.87,-138.07 124.3,-133.48 117.5,-129 102.62,-119.19 86.19,-106.86 75.63,-98.72"/>
<polygon fill="midnightblue" stroke="midnightblue" points="137.51,-145.43 147.92,-147.39 141.01,-139.37 137.51,-145.43"/>
</g>
<!-- Node3&#45;&gt;Node3 -->
<g id="edge10" class="edge">
<title>Node3&#45;&gt;Node3</title>
<path fill="none" stroke="#9a32cd" stroke-dasharray="5,2" d="M197.92,-162.29C202.48,-161.39 205.5,-159.63 205.5,-157 205.5,-152.69 197.36,-150.7 187.67,-151.04"/>
<polygon fill="#9a32cd" stroke="#9a32cd" points="197.42,-158.82 187.67,-162.96 197.88,-165.8 197.42,-158.82"/>
<text text-anchor="middle" x="230.5" y="-154.5" font-family="Helvetica,sans-Serif" font-size="10.00"> called_by</text>
</g>
<!-- Node5 -->
<g id="node5" class="node">
<title>Node5</title>
<g id="a_node5"><a xlink:href="class_split_flow_visit__base.html" target="_top" xlink:title=" ">
<polygon fill="white" stroke="black" points="169.5,-6 169.5,-25 281.5,-25 281.5,-6 169.5,-6"/>
<text text-anchor="middle" x="225.5" y="-13" font-family="Helvetica,sans-Serif" font-size="10.00">SplitFlowVisit_base</text>
</a>
</g>
</g>
<!-- Node3&#45;&gt;Node5 -->
<g id="edge9" class="edge">
<title>Node3&#45;&gt;Node5</title>
<path fill="none" stroke="#9a32cd" stroke-dasharray="5,2" d="M151.35,-138.93C141.37,-122.65 130.41,-97.76 140.5,-78 153.76,-52.05 183.65,-34.51 204.2,-25.01"/>
<polygon fill="#9a32cd" stroke="#9a32cd" points="148.51,-140.99 156.94,-147.42 154.36,-137.14 148.51,-140.99"/>
<text text-anchor="middle" x="145.5" y="-86.5" font-family="Helvetica,sans-Serif" font-size="10.00"> v</text>
</g>
<!-- Node6 -->
<g id="node6" class="node">
<title>Node6</title>
<g id="a_node6"><a xlink:title=" ">
<polygon fill="white" stroke="#bfbfbf" points="160,-79.5 160,-98.5 291,-98.5 291,-79.5 160,-79.5"/>
<text text-anchor="middle" x="225.5" y="-86.5" font-family="Helvetica,sans-Serif" font-size="10.00">std::vector&lt; Visitor * &gt;</text>
</a>
</g>
</g>
<!-- Node3&#45;&gt;Node6 -->
<g id="edge8" class="edge">
<title>Node3&#45;&gt;Node6</title>
<path fill="none" stroke="#9a32cd" stroke-dasharray="5,2" d="M178.49,-140.05C190.64,-127.11 207.32,-109.36 217.19,-98.84"/>
<polygon fill="#9a32cd" stroke="#9a32cd" points="175.9,-137.69 171.61,-147.37 181,-142.48 175.9,-137.69"/>
<text text-anchor="middle" x="223" y="-121" font-family="Helvetica,sans-Serif" font-size="10.00"> elements</text>
</g>
<!-- Node4 -->
<g id="node4" class="node">
<title>Node4</title>
<g id="a_node4"><a xlink:href="classcstring.html" target="_top" xlink:title=" ">
<polygon fill="white" stroke="black" points="138.5,-215.5 138.5,-234.5 188.5,-234.5 188.5,-215.5 138.5,-215.5"/>
<text text-anchor="middle" x="163.5" y="-222.5" font-family="Helvetica,sans-Serif" font-size="10.00">cstring</text>
</a>
</g>
</g>
<!-- Node4&#45;&gt;Node3 -->
<g id="edge3" class="edge">
<title>Node4&#45;&gt;Node3</title>
<path fill="none" stroke="#9a32cd" stroke-dasharray="5,2" d="M163.5,-205.04C163.5,-192.47 163.5,-176.56 163.5,-166.84"/>
<polygon fill="#9a32cd" stroke="#9a32cd" points="160,-205.37 163.5,-215.37 167,-205.37 160,-205.37"/>
<text text-anchor="middle" x="198.5" y="-188" font-family="Helvetica,sans-Serif" font-size="10.00"> internalName</text>
</g>
<!-- Node4&#45;&gt;Node4 -->
<g id="edge4" class="edge">
<title>Node4&#45;&gt;Node4</title>
<path fill="none" stroke="#9a32cd" stroke-dasharray="5,2" d="M198.95,-230.58C203.5,-229.61 206.5,-227.75 206.5,-225 206.5,-220.48 198.41,-218.37 188.68,-218.65"/>
<polygon fill="#9a32cd" stroke="#9a32cd" points="198.39,-227.11 188.68,-231.35 198.91,-234.1 198.39,-227.11"/>
<text text-anchor="middle" x="226" y="-228" font-family="Helvetica,sans-Serif" font-size="10.00"> empty</text>
<text text-anchor="middle" x="226" y="-217" font-family="Helvetica,sans-Serif" font-size="10.00">newline</text>
</g>
<!-- Node5&#45;&gt;Node3 -->
<g id="edge5" class="edge">
<title>Node5&#45;&gt;Node3</title>
<path fill="none" stroke="#9a32cd" stroke-dasharray="5,2" d="M253.07,-29.98C280.53,-45.35 316.46,-72.02 300.5,-100 277.85,-139.73 220.46,-151.29 187.6,-154.64"/>
<polygon fill="#9a32cd" stroke="#9a32cd" points="254.64,-26.85 244.18,-25.21 251.34,-33.02 254.64,-26.85"/>
<text text-anchor="middle" x="341.5" y="-92" font-family="Helvetica,sans-Serif" font-size="10.00"> split_link</text>
<text text-anchor="middle" x="341.5" y="-81" font-family="Helvetica,sans-Serif" font-size="10.00">split_link_mem</text>
</g>
<!-- Node5&#45;&gt;Node5 -->
<g id="edge6" class="edge">
<title>Node5&#45;&gt;Node5</title>
<path fill="none" stroke="#9a32cd" stroke-dasharray="5,2" d="M291.54,-20.81C296.47,-19.62 299.5,-17.85 299.5,-15.5 299.5,-11.83 292.12,-9.57 281.65,-8.74"/>
<polygon fill="#9a32cd" stroke="#9a32cd" points="291.03,-17.35 281.65,-22.26 292.05,-24.27 291.03,-17.35"/>
<text text-anchor="middle" x="312" y="-13" font-family="Helvetica,sans-Serif" font-size="10.00"> prev</text>
</g>
<!-- Node6&#45;&gt;Node5 -->
<g id="edge7" class="edge">
<title>Node6&#45;&gt;Node5</title>
<path fill="none" stroke="#9a32cd" stroke-dasharray="5,2" d="M225.5,-69.09C225.5,-54.93 225.5,-36.2 225.5,-25.34"/>
<polygon fill="#9a32cd" stroke="#9a32cd" points="222,-69.23 225.5,-79.23 229,-69.23 222,-69.23"/>
<text text-anchor="middle" x="245.5" y="-52" font-family="Helvetica,sans-Serif" font-size="10.00"> visitors</text>
</g>
</g>
</svg>
