<?xml version="1.0" encoding="UTF-8" standalone="no"?>
<!DOCTYPE svg PUBLIC "-//W3C//DTD SVG 1.1//EN"
 "http://www.w3.org/Graphics/SVG/1.1/DTD/svg11.dtd">
<!-- Generated by graphviz version 2.43.0 (0)
 -->
<!-- Title: CompilerOptions Pages: 1 -->
<svg width="718pt" height="313pt"
 viewBox="0.00 0.00 718.00 313.00" xmlns="http://www.w3.org/2000/svg" xmlns:xlink="http://www.w3.org/1999/xlink">
<g id="graph0" class="graph" transform="scale(1 1) rotate(0) translate(4 309)">
<title>CompilerOptions</title>
<polygon fill="white" stroke="transparent" points="-4,4 -4,-309 714,-309 714,4 -4,4"/>
<!-- Node1 -->
<g id="node1" class="node">
<title>Node1</title>
<g id="a_node1"><a xlink:title=" ">
<polygon fill="#bfbfbf" stroke="black" points="233,-133.5 233,-152.5 331,-152.5 331,-133.5 233,-133.5"/>
<text text-anchor="middle" x="282" y="-140.5" font-family="Helvetica,sans-Serif" font-size="10.00">CompilerOptions</text>
</a>
</g>
</g>
<!-- Node4 -->
<g id="node4" class="node">
<title>Node4</title>
<g id="a_node4"><a xlink:href="class_b_m_v2_1_1_b_m_v2_options.html" target="_top" xlink:title=" ">
<polygon fill="white" stroke="black" points="384.5,-266.5 384.5,-285.5 501.5,-285.5 501.5,-266.5 384.5,-266.5"/>
<text text-anchor="middle" x="443" y="-273.5" font-family="Helvetica,sans-Serif" font-size="10.00">BMV2::BMV2Options</text>
</a>
</g>
</g>
<!-- Node1&#45;&gt;Node4 -->
<g id="edge3" class="edge">
<title>Node1&#45;&gt;Node4</title>
<path fill="none" stroke="midnightblue" d="M291.65,-161.74C304.43,-187.29 330.8,-232.66 367,-257 372.8,-260.9 379.33,-264 386.07,-266.46"/>
<polygon fill="midnightblue" stroke="midnightblue" points="294.79,-160.19 287.29,-152.71 288.48,-163.23 294.79,-160.19"/>
</g>
<!-- Node7 -->
<g id="node7" class="node">
<title>Node7</title>
<g id="a_node7"><a xlink:href="class_d_p_d_k_1_1_dpdk_options.html" target="_top" xlink:title=" ">
<polygon fill="white" stroke="black" points="386.5,-228.5 386.5,-247.5 499.5,-247.5 499.5,-228.5 386.5,-228.5"/>
<text text-anchor="middle" x="443" y="-235.5" font-family="Helvetica,sans-Serif" font-size="10.00">DPDK::DpdkOptions</text>
</a>
</g>
</g>
<!-- Node1&#45;&gt;Node7 -->
<g id="edge6" class="edge">
<title>Node1&#45;&gt;Node7</title>
<path fill="none" stroke="midnightblue" d="M297.43,-160.27C312.88,-177.66 338.99,-204 367,-219 374.22,-222.87 382.26,-225.97 390.32,-228.46"/>
<polygon fill="midnightblue" stroke="midnightblue" points="299.92,-157.81 290.73,-152.54 294.63,-162.39 299.92,-157.81"/>
</g>
<!-- Node8 -->
<g id="node8" class="node">
<title>Node8</title>
<g id="a_node8"><a xlink:href="class_ebpf_options.html" target="_top" xlink:title=" ">
<polygon fill="white" stroke="black" points="405,-190.5 405,-209.5 481,-209.5 481,-190.5 405,-190.5"/>
<text text-anchor="middle" x="443" y="-197.5" font-family="Helvetica,sans-Serif" font-size="10.00">EbpfOptions</text>
</a>
</g>
</g>
<!-- Node1&#45;&gt;Node8 -->
<g id="edge7" class="edge">
<title>Node1&#45;&gt;Node8</title>
<path fill="none" stroke="midnightblue" d="M310.99,-157.16C327.09,-164.93 347.86,-174.3 367,-181 379.17,-185.26 392.76,-188.99 404.99,-192"/>
<polygon fill="midnightblue" stroke="midnightblue" points="312.15,-153.83 301.63,-152.58 309.07,-160.12 312.15,-153.83"/>
</g>
<!-- Node9 -->
<g id="node9" class="node">
<title>Node9</title>
<g id="a_node9"><a xlink:href="class_p4_test_options.html" target="_top" xlink:title=" ">
<polygon fill="white" stroke="black" points="400,-152.5 400,-171.5 486,-171.5 486,-152.5 400,-152.5"/>
<text text-anchor="middle" x="443" y="-159.5" font-family="Helvetica,sans-Serif" font-size="10.00">P4TestOptions</text>
</a>
</g>
</g>
<!-- Node1&#45;&gt;Node9 -->
<g id="edge8" class="edge">
<title>Node1&#45;&gt;Node9</title>
<path fill="none" stroke="midnightblue" d="M341.13,-149.95C360.61,-152.27 381.94,-154.82 399.95,-156.98"/>
<polygon fill="midnightblue" stroke="midnightblue" points="341.48,-146.46 331.14,-148.75 340.65,-153.41 341.48,-146.46"/>
</g>
<!-- Node10 -->
<g id="node10" class="node">
<title>Node10</title>
<g id="a_node10"><a xlink:href="class_t_c_1_1_t_c_options.html" target="_top" xlink:title=" ">
<polygon fill="white" stroke="black" points="401,-114.5 401,-133.5 485,-133.5 485,-114.5 401,-114.5"/>
<text text-anchor="middle" x="443" y="-121.5" font-family="Helvetica,sans-Serif" font-size="10.00">TC::TCOptions</text>
</a>
</g>
</g>
<!-- Node1&#45;&gt;Node10 -->
<g id="edge9" class="edge">
<title>Node1&#45;&gt;Node10</title>
<path fill="none" stroke="midnightblue" d="M341.26,-136.04C360.99,-133.68 382.61,-131.1 400.74,-128.93"/>
<polygon fill="midnightblue" stroke="midnightblue" points="340.65,-132.59 331.14,-137.25 341.48,-139.54 340.65,-132.59"/>
</g>
<!-- Node11 -->
<g id="node11" class="node">
<title>Node11</title>
<g id="a_node11"><a xlink:href="class_test_1_1_p4_reachability_options.html" target="_top" xlink:title=" ">
<polygon fill="white" stroke="black" points="367,-76.5 367,-95.5 519,-95.5 519,-76.5 367,-76.5"/>
<text text-anchor="middle" x="443" y="-83.5" font-family="Helvetica,sans-Serif" font-size="10.00">Test::P4ReachabilityOptions</text>
</a>
</g>
</g>
<!-- Node1&#45;&gt;Node11 -->
<g id="edge10" class="edge">
<title>Node1&#45;&gt;Node11</title>
<path fill="none" stroke="midnightblue" d="M310.99,-128.84C327.09,-121.07 347.86,-111.7 367,-105 377.14,-101.45 388.27,-98.27 398.78,-95.56"/>
<polygon fill="midnightblue" stroke="midnightblue" points="309.07,-125.88 301.63,-133.42 312.15,-132.17 309.07,-125.88"/>
</g>
<!-- Node12 -->
<g id="node12" class="node">
<title>Node12</title>
<g id="a_node12"><a xlink:href="class_test_1_1_p4_test_options.html" target="_top" xlink:title=" ">
<polygon fill="white" stroke="black" points="387.5,-38.5 387.5,-57.5 498.5,-57.5 498.5,-38.5 387.5,-38.5"/>
<text text-anchor="middle" x="443" y="-45.5" font-family="Helvetica,sans-Serif" font-size="10.00">Test::P4TestOptions</text>
</a>
</g>
</g>
<!-- Node1&#45;&gt;Node12 -->
<g id="edge11" class="edge">
<title>Node1&#45;&gt;Node12</title>
<path fill="none" stroke="midnightblue" d="M297.43,-125.73C312.88,-108.34 338.99,-82 367,-67 374.22,-63.13 382.26,-60.03 390.32,-57.54"/>
<polygon fill="midnightblue" stroke="midnightblue" points="294.63,-123.61 290.73,-133.46 299.92,-128.19 294.63,-123.61"/>
</g>
<!-- Node13 -->
<g id="node13" class="node">
<title>Node13</title>
<g id="a_node13"><a xlink:href="classgraphs_1_1_options.html" target="_top" xlink:title=" ">
<polygon fill="white" stroke="black" points="396.5,-0.5 396.5,-19.5 489.5,-19.5 489.5,-0.5 396.5,-0.5"/>
<text text-anchor="middle" x="443" y="-7.5" font-family="Helvetica,sans-Serif" font-size="10.00">graphs::Options</text>
</a>
</g>
</g>
<!-- Node1&#45;&gt;Node13 -->
<g id="edge12" class="edge">
<title>Node1&#45;&gt;Node13</title>
<path fill="none" stroke="midnightblue" d="M291.65,-124.26C304.43,-98.71 330.8,-53.34 367,-29 375.69,-23.15 386.05,-19.11 396.26,-16.3"/>
<polygon fill="midnightblue" stroke="midnightblue" points="288.48,-122.77 287.29,-133.29 294.79,-125.81 288.48,-122.77"/>
</g>
<!-- Node2 -->
<g id="node2" class="node">
<title>Node2</title>
<g id="a_node2"><a xlink:href="class_parser_options.html" target="_top" xlink:title=" ">
<polygon fill="white" stroke="black" points="113,-133.5 113,-152.5 197,-152.5 197,-133.5 113,-133.5"/>
<text text-anchor="middle" x="155" y="-140.5" font-family="Helvetica,sans-Serif" font-size="10.00">ParserOptions</text>
</a>
</g>
</g>
<!-- Node2&#45;&gt;Node1 -->
<g id="edge1" class="edge">
<title>Node2&#45;&gt;Node1</title>
<path fill="none" stroke="midnightblue" d="M207.37,-143C215.79,-143 224.49,-143 232.83,-143"/>
<polygon fill="midnightblue" stroke="midnightblue" points="207.28,-139.5 197.28,-143 207.28,-146.5 207.28,-139.5"/>
</g>
<!-- Node3 -->
<g id="node3" class="node">
<title>Node3</title>
<g id="a_node3"><a xlink:href="class_util_1_1_options.html" target="_top" xlink:title=" ">
<polygon fill="white" stroke="black" points="0,-133.5 0,-152.5 77,-152.5 77,-133.5 0,-133.5"/>
<text text-anchor="middle" x="38.5" y="-140.5" font-family="Helvetica,sans-Serif" font-size="10.00">Util::Options</text>
</a>
</g>
</g>
<!-- Node3&#45;&gt;Node2 -->
<g id="edge2" class="edge">
<title>Node3&#45;&gt;Node2</title>
<path fill="none" stroke="midnightblue" d="M87.38,-143C95.78,-143 104.47,-143 112.68,-143"/>
<polygon fill="midnightblue" stroke="midnightblue" points="87.31,-139.5 77.31,-143 87.31,-146.5 87.31,-139.5"/>
</g>
<!-- Node5 -->
<g id="node5" class="node">
<title>Node5</title>
<g id="a_node5"><a xlink:href="class_b_m_v2_1_1_psa_switch_options.html" target="_top" xlink:title=" ">
<polygon fill="white" stroke="black" points="563.5,-285.5 563.5,-304.5 701.5,-304.5 701.5,-285.5 563.5,-285.5"/>
<text text-anchor="middle" x="632.5" y="-292.5" font-family="Helvetica,sans-Serif" font-size="10.00">BMV2::PsaSwitchOptions</text>
</a>
</g>
</g>
<!-- Node4&#45;&gt;Node5 -->
<g id="edge4" class="edge">
<title>Node4&#45;&gt;Node5</title>
<path fill="none" stroke="midnightblue" d="M511.77,-282.87C528.51,-284.56 546.44,-286.38 563.2,-288.08"/>
<polygon fill="midnightblue" stroke="midnightblue" points="511.83,-279.36 501.53,-281.83 511.13,-286.32 511.83,-279.36"/>
</g>
<!-- Node6 -->
<g id="node6" class="node">
<title>Node6</title>
<g id="a_node6"><a xlink:href="class_b_m_v2_1_1_simple_switch_options.html" target="_top" xlink:title=" ">
<polygon fill="white" stroke="black" points="555,-247.5 555,-266.5 710,-266.5 710,-247.5 555,-247.5"/>
<text text-anchor="middle" x="632.5" y="-254.5" font-family="Helvetica,sans-Serif" font-size="10.00">BMV2::SimpleSwitchOptions</text>
</a>
</g>
</g>
<!-- Node4&#45;&gt;Node6 -->
<g id="edge5" class="edge">
<title>Node4&#45;&gt;Node6</title>
<path fill="none" stroke="midnightblue" d="M511.56,-269.15C525.57,-267.73 540.42,-266.23 554.73,-264.78"/>
<polygon fill="midnightblue" stroke="midnightblue" points="511.13,-265.68 501.53,-270.17 511.83,-272.64 511.13,-265.68"/>
</g>
</g>
</svg>
