<?xml version="1.0" encoding="UTF-8" standalone="no"?>
<!DOCTYPE svg PUBLIC "-//W3C//DTD SVG 1.1//EN"
 "http://www.w3.org/Graphics/SVG/1.1/DTD/svg11.dtd">
<!-- Generated by graphviz version 2.43.0 (0)
 -->
<!-- Title: P4::ExternInstantiation Pages: 1 -->
<svg width="1550pt" height="343pt"
 viewBox="0.00 0.00 1550.00 342.50" xmlns="http://www.w3.org/2000/svg" xmlns:xlink="http://www.w3.org/1999/xlink">
<g id="graph0" class="graph" transform="scale(1 1) rotate(0) translate(4 338.5)">
<title>P4::ExternInstantiation</title>
<polygon fill="white" stroke="transparent" points="-4,4 -4,-338.5 1546,-338.5 1546,4 -4,4"/>
<!-- Node1 -->
<g id="node1" class="node">
<title>Node1</title>
<g id="a_node1"><a xlink:title=" ">
<polygon fill="#bfbfbf" stroke="black" points="1414,-189 1414,-208 1542,-208 1542,-189 1414,-189"/>
<text text-anchor="middle" x="1478" y="-196" font-family="Helvetica,sans-Serif" font-size="10.00">P4::ExternInstantiation</text>
</a>
</g>
</g>
<!-- Node2 -->
<g id="node2" class="node">
<title>Node2</title>
<g id="a_node2"><a xlink:href="class_p4_1_1_instantiation.html" target="_top" xlink:title="Used to resolve a Declaration_Instance.">
<polygon fill="white" stroke="black" points="1281,-189 1281,-208 1377,-208 1377,-189 1281,-189"/>
<text text-anchor="middle" x="1329" y="-196" font-family="Helvetica,sans-Serif" font-size="10.00">P4::Instantiation</text>
</a>
</g>
</g>
<!-- Node2&#45;&gt;Node1 -->
<g id="edge1" class="edge">
<title>Node2&#45;&gt;Node1</title>
<path fill="none" stroke="midnightblue" d="M1387.37,-198.5C1396.09,-198.5 1405.12,-198.5 1413.95,-198.5"/>
<polygon fill="midnightblue" stroke="midnightblue" points="1387.32,-195 1377.32,-198.5 1387.32,-202 1387.32,-195"/>
</g>
<!-- Node3 -->
<g id="node3" class="node">
<title>Node3</title>
<g id="a_node3"><a xlink:href="class_p4_1_1_instance_base.html" target="_top" xlink:title=" ">
<polygon fill="white" stroke="black" points="847,-145 847,-164 947,-164 947,-145 847,-145"/>
<text text-anchor="middle" x="897" y="-152" font-family="Helvetica,sans-Serif" font-size="10.00">P4::InstanceBase</text>
</a>
</g>
</g>
<!-- Node3&#45;&gt;Node2 -->
<g id="edge2" class="edge">
<title>Node3&#45;&gt;Node2</title>
<path fill="none" stroke="midnightblue" d="M957.49,-160.59C1043.82,-169.42 1202.11,-185.62 1280.88,-193.68"/>
<polygon fill="midnightblue" stroke="midnightblue" points="957.63,-157.08 947.33,-159.55 956.92,-164.05 957.63,-157.08"/>
</g>
<!-- Node4 -->
<g id="node4" class="node">
<title>Node4</title>
<g id="a_node4"><a xlink:href="class_i_castable.html" target="_top" xlink:title=" ">
<polygon fill="white" stroke="black" points="130.5,-315 130.5,-334 192.5,-334 192.5,-315 130.5,-315"/>
<text text-anchor="middle" x="161.5" y="-322" font-family="Helvetica,sans-Serif" font-size="10.00">ICastable</text>
</a>
</g>
</g>
<!-- Node4&#45;&gt;Node3 -->
<g id="edge3" class="edge">
<title>Node4&#45;&gt;Node3</title>
<path fill="none" stroke="midnightblue" d="M202.76,-326.82C297.47,-330.9 540.48,-333.22 727,-264.5 793.03,-240.17 859.55,-186.24 885.09,-164.18"/>
<polygon fill="midnightblue" stroke="midnightblue" points="202.89,-323.33 192.74,-326.36 202.57,-330.32 202.89,-323.33"/>
</g>
<!-- Node17 -->
<g id="node17" class="node">
<title>Node17</title>
<g id="a_node17"><a xlink:href="class_i_r_1_1_i_node.html" target="_top" xlink:title=" ">
<polygon fill="white" stroke="black" points="336.5,-274 336.5,-293 397.5,-293 397.5,-274 336.5,-274"/>
<text text-anchor="middle" x="367" y="-281" font-family="Helvetica,sans-Serif" font-size="10.00">IR::INode</text>
</a>
</g>
</g>
<!-- Node4&#45;&gt;Node17 -->
<g id="edge22" class="edge">
<title>Node4&#45;&gt;Node17</title>
<path fill="none" stroke="midnightblue" d="M202.56,-316.43C241.85,-308.51 300.85,-296.63 336.18,-289.51"/>
<polygon fill="midnightblue" stroke="midnightblue" points="201.64,-313.04 192.53,-318.45 203.02,-319.91 201.64,-313.04"/>
</g>
<!-- Node5 -->
<g id="node5" class="node">
<title>Node5</title>
<g id="a_node5"><a xlink:href="struct_r_t_t_i_1_1_base.html" target="_top" xlink:title=" ">
<polygon fill="white" stroke="black" points="0,-315 0,-334 68,-334 68,-315 0,-315"/>
<text text-anchor="middle" x="34" y="-322" font-family="Helvetica,sans-Serif" font-size="10.00">RTTI::Base</text>
</a>
</g>
</g>
<!-- Node5&#45;&gt;Node4 -->
<g id="edge4" class="edge">
<title>Node5&#45;&gt;Node4</title>
<path fill="none" stroke="midnightblue" d="M78.64,-324.5C95.75,-324.5 114.97,-324.5 130.48,-324.5"/>
<polygon fill="midnightblue" stroke="midnightblue" points="78.3,-321 68.3,-324.5 78.3,-328 78.3,-321"/>
</g>
<!-- Node6 -->
<g id="node6" class="node">
<title>Node6</title>
<g id="a_node6"><a xlink:href="class_p4_1_1_parameter_substitution.html" target="_top" xlink:title=" ">
<polygon fill="white" stroke="black" points="578,-143 578,-162 721,-162 721,-143 578,-143"/>
<text text-anchor="middle" x="649.5" y="-150" font-family="Helvetica,sans-Serif" font-size="10.00">P4::ParameterSubstitution</text>
</a>
</g>
</g>
<!-- Node6&#45;&gt;Node3 -->
<g id="edge5" class="edge">
<title>Node6&#45;&gt;Node3</title>
<path fill="none" stroke="#9a32cd" stroke-dasharray="5,2" d="M731.25,-153.16C769.42,-153.47 813.75,-153.83 846.81,-154.1"/>
<polygon fill="#9a32cd" stroke="#9a32cd" points="731.21,-149.66 721.18,-153.08 731.15,-156.66 731.21,-149.66"/>
<text text-anchor="middle" x="787" y="-157.5" font-family="Helvetica,sans-Serif" font-size="10.00"> substitution</text>
</g>
<!-- Node7 -->
<g id="node7" class="node">
<title>Node7</title>
<g id="a_node7"><a xlink:href="class_i_has_db_print.html" target="_top" xlink:title=" ">
<polygon fill="white" stroke="black" points="124.5,-99 124.5,-118 198.5,-118 198.5,-99 124.5,-99"/>
<text text-anchor="middle" x="161.5" y="-106" font-family="Helvetica,sans-Serif" font-size="10.00">IHasDbPrint</text>
</a>
</g>
</g>
<!-- Node7&#45;&gt;Node6 -->
<g id="edge6" class="edge">
<title>Node7&#45;&gt;Node6</title>
<path fill="none" stroke="midnightblue" d="M208.85,-111.09C262.94,-114.27 355.05,-120.14 434,-127.5 481.97,-131.97 535.83,-138.25 577.57,-143.4"/>
<polygon fill="midnightblue" stroke="midnightblue" points="208.74,-107.58 198.56,-110.49 208.34,-114.57 208.74,-107.58"/>
</g>
<!-- Node13 -->
<g id="node13" class="node">
<title>Node13</title>
<g id="a_node13"><a xlink:href="class_p4_1_1_type_substitution.html" target="_top" xlink:title=" ">
<polygon fill="white" stroke="black" points="300,-0.5 300,-30.5 434,-30.5 434,-0.5 300,-0.5"/>
<text text-anchor="start" x="308" y="-18.5" font-family="Helvetica,sans-Serif" font-size="10.00">P4::TypeSubstitution</text>
<text text-anchor="middle" x="367" y="-7.5" font-family="Helvetica,sans-Serif" font-size="10.00">&lt; const IR::ITypeVar * &gt;</text>
</a>
</g>
</g>
<!-- Node7&#45;&gt;Node13 -->
<g id="edge15" class="edge">
<title>Node7&#45;&gt;Node13</title>
<path fill="none" stroke="midnightblue" d="M188.93,-94.08C216.3,-79.43 260.51,-56.52 300,-39.5 307.17,-36.41 314.87,-33.37 322.4,-30.54"/>
<polygon fill="midnightblue" stroke="midnightblue" points="187.13,-91.07 179.99,-98.9 190.45,-97.24 187.13,-91.07"/>
</g>
<!-- Node7&#45;&gt;Node17 -->
<g id="edge21" class="edge">
<title>Node7&#45;&gt;Node17</title>
<path fill="none" stroke="midnightblue" d="M186.16,-123.63C217.17,-143.91 269.13,-179.52 282,-198.5 299.06,-223.67 278.65,-242.85 300,-264.5 309.54,-274.18 323.68,-279.01 336.42,-281.38"/>
<polygon fill="midnightblue" stroke="midnightblue" points="187.94,-120.62 177.65,-118.11 184.13,-126.49 187.94,-120.62"/>
</g>
<!-- Node8 -->
<g id="node8" class="node">
<title>Node8</title>
<g id="a_node8"><a xlink:title=" ">
<polygon fill="white" stroke="#bfbfbf" points="300,-186.5 300,-216.5 434,-216.5 434,-186.5 300,-186.5"/>
<text text-anchor="start" x="308" y="-204.5" font-family="Helvetica,sans-Serif" font-size="10.00">std::map&lt; cstring,</text>
<text text-anchor="middle" x="367" y="-193.5" font-family="Helvetica,sans-Serif" font-size="10.00"> const IR::Parameter * &gt;</text>
</a>
</g>
</g>
<!-- Node8&#45;&gt;Node6 -->
<g id="edge7" class="edge">
<title>Node8&#45;&gt;Node6</title>
<path fill="none" stroke="#9a32cd" stroke-dasharray="5,2" d="M444.01,-188.22C491.29,-179.96 551,-169.53 593.66,-162.08"/>
<polygon fill="#9a32cd" stroke="#9a32cd" points="443.37,-184.78 434.12,-189.95 444.57,-191.68 443.37,-184.78"/>
<text text-anchor="middle" x="503" y="-189.5" font-family="Helvetica,sans-Serif" font-size="10.00"> parametersByName</text>
</g>
<!-- Node9 -->
<g id="node9" class="node">
<title>Node9</title>
<g id="a_node9"><a xlink:href="classcstring.html" target="_top" xlink:title=" ">
<polygon fill="white" stroke="black" points="136.5,-193 136.5,-212 186.5,-212 186.5,-193 136.5,-193"/>
<text text-anchor="middle" x="161.5" y="-200" font-family="Helvetica,sans-Serif" font-size="10.00">cstring</text>
</a>
</g>
</g>
<!-- Node9&#45;&gt;Node8 -->
<g id="edge8" class="edge">
<title>Node9&#45;&gt;Node8</title>
<path fill="none" stroke="#9a32cd" stroke-dasharray="5,2" d="M196.74,-202.33C224.78,-202.19 265.29,-201.99 299.65,-201.83"/>
<polygon fill="#9a32cd" stroke="#9a32cd" points="196.63,-198.83 186.64,-202.38 196.66,-205.83 196.63,-198.83"/>
<text text-anchor="middle" x="259" y="-205.5" font-family="Helvetica,sans-Serif" font-size="10.00"> keys</text>
</g>
<!-- Node9&#45;&gt;Node9 -->
<g id="edge9" class="edge">
<title>Node9&#45;&gt;Node9</title>
<path fill="none" stroke="#9a32cd" stroke-dasharray="5,2" d="M147.87,-222.27C148.94,-227 153.49,-230.5 161.5,-230.5 174.65,-230.5 178.45,-221.07 172.91,-212.26"/>
<polygon fill="#9a32cd" stroke="#9a32cd" points="151.34,-222.78 150.09,-212.26 144.51,-221.26 151.34,-222.78"/>
<text text-anchor="middle" x="161.5" y="-244.5" font-family="Helvetica,sans-Serif" font-size="10.00"> empty</text>
<text text-anchor="middle" x="161.5" y="-233.5" font-family="Helvetica,sans-Serif" font-size="10.00">newline</text>
</g>
<!-- Node10 -->
<g id="node10" class="node">
<title>Node10</title>
<g id="a_node10"><a xlink:title=" ">
<polygon fill="white" stroke="#bfbfbf" points="301,-137.5 301,-167.5 433,-167.5 433,-137.5 301,-137.5"/>
<text text-anchor="start" x="309" y="-155.5" font-family="Helvetica,sans-Serif" font-size="10.00">std::map&lt; cstring,</text>
<text text-anchor="middle" x="367" y="-144.5" font-family="Helvetica,sans-Serif" font-size="10.00"> const IR::Argument * &gt;</text>
</a>
</g>
</g>
<!-- Node9&#45;&gt;Node10 -->
<g id="edge11" class="edge">
<title>Node9&#45;&gt;Node10</title>
<path fill="none" stroke="#9a32cd" stroke-dasharray="5,2" d="M196.46,-194.16C225.95,-186.91 269.38,-176.24 304.9,-167.51"/>
<polygon fill="#9a32cd" stroke="#9a32cd" points="195.52,-190.78 186.64,-196.57 197.19,-197.58 195.52,-190.78"/>
<text text-anchor="middle" x="259" y="-186.5" font-family="Helvetica,sans-Serif" font-size="10.00"> keys</text>
</g>
<!-- Node19 -->
<g id="node19" class="node">
<title>Node19</title>
<g id="a_node19"><a xlink:href="class_util_1_1_source_info.html" target="_top" xlink:title=" ">
<polygon fill="white" stroke="black" points="321,-236 321,-255 413,-255 413,-236 321,-236"/>
<text text-anchor="middle" x="367" y="-243" font-family="Helvetica,sans-Serif" font-size="10.00">Util::SourceInfo</text>
</a>
</g>
</g>
<!-- Node9&#45;&gt;Node19 -->
<g id="edge24" class="edge">
<title>Node9&#45;&gt;Node19</title>
<path fill="none" stroke="#9a32cd" stroke-dasharray="5,2" d="M196.58,-209.7C230.63,-216.9 283.17,-228 320.71,-235.93"/>
<polygon fill="#9a32cd" stroke="#9a32cd" points="197.15,-206.24 186.64,-207.6 195.7,-213.09 197.15,-206.24"/>
<text text-anchor="middle" x="259" y="-241.5" font-family="Helvetica,sans-Serif" font-size="10.00"> filename</text>
<text text-anchor="middle" x="259" y="-230.5" font-family="Helvetica,sans-Serif" font-size="10.00">srcBrief</text>
</g>
<!-- Node10&#45;&gt;Node6 -->
<g id="edge10" class="edge">
<title>Node10&#45;&gt;Node6</title>
<path fill="none" stroke="#9a32cd" stroke-dasharray="5,2" d="M443.19,-152.5C485.04,-152.5 536.81,-152.5 577.9,-152.5"/>
<polygon fill="#9a32cd" stroke="#9a32cd" points="443.06,-149 433.06,-152.5 443.06,-156 443.06,-149"/>
<text text-anchor="middle" x="503" y="-155.5" font-family="Helvetica,sans-Serif" font-size="10.00"> parameterValues</text>
</g>
<!-- Node11 -->
<g id="node11" class="node">
<title>Node11</title>
<g id="a_node11"><a xlink:title=" ">
<polygon fill="white" stroke="#bfbfbf" points="314,-49.5 314,-79.5 420,-79.5 420,-49.5 314,-49.5"/>
<text text-anchor="start" x="322" y="-67.5" font-family="Helvetica,sans-Serif" font-size="10.00">std::vector&lt; const</text>
<text text-anchor="middle" x="367" y="-56.5" font-family="Helvetica,sans-Serif" font-size="10.00"> IR::Parameter * &gt;</text>
</a>
</g>
</g>
<!-- Node11&#45;&gt;Node6 -->
<g id="edge12" class="edge">
<title>Node11&#45;&gt;Node6</title>
<path fill="none" stroke="#9a32cd" stroke-dasharray="5,2" d="M430.36,-62.8C467.4,-63.74 514.66,-68.41 554,-83.5 589.28,-97.03 623.18,-127.32 639.08,-142.88"/>
<polygon fill="#9a32cd" stroke="#9a32cd" points="430.26,-59.3 420.2,-62.63 430.14,-66.3 430.26,-59.3"/>
<text text-anchor="middle" x="503" y="-86.5" font-family="Helvetica,sans-Serif" font-size="10.00"> parameters</text>
</g>
<!-- Node12 -->
<g id="node12" class="node">
<title>Node12</title>
<g id="a_node12"><a xlink:href="class_p4_1_1_type_variable_substitution.html" target="_top" xlink:title=" ">
<polygon fill="white" stroke="black" points="572,-60 572,-79 727,-79 727,-60 572,-60"/>
<text text-anchor="middle" x="649.5" y="-67" font-family="Helvetica,sans-Serif" font-size="10.00">P4::TypeVariableSubstitution</text>
</a>
</g>
</g>
<!-- Node12&#45;&gt;Node3 -->
<g id="edge13" class="edge">
<title>Node12&#45;&gt;Node3</title>
<path fill="none" stroke="#9a32cd" stroke-dasharray="5,2" d="M687.9,-82.45C737.6,-99.66 824.25,-129.66 868.42,-144.95"/>
<polygon fill="#9a32cd" stroke="#9a32cd" points="688.78,-79.05 678.18,-79.09 686.49,-85.66 688.78,-79.05"/>
<text text-anchor="middle" x="787" y="-132.5" font-family="Helvetica,sans-Serif" font-size="10.00"> typeSubstitution</text>
</g>
<!-- Node13&#45;&gt;Node12 -->
<g id="edge14" class="edge">
<title>Node13&#45;&gt;Node12</title>
<path fill="none" stroke="midnightblue" d="M444.5,-24.25C478.25,-28.72 518.29,-34.84 554,-42.5 576.02,-47.22 600.46,-54.25 618.96,-59.96"/>
<polygon fill="midnightblue" stroke="midnightblue" points="444.6,-20.74 434.24,-22.92 443.7,-27.68 444.6,-20.74"/>
</g>
<!-- Node14 -->
<g id="node14" class="node">
<title>Node14</title>
<g id="a_node14"><a xlink:href="class_i_r_1_1_vector.html" target="_top" xlink:title=" ">
<polygon fill="white" stroke="black" points="984,-189 984,-208 1133,-208 1133,-189 984,-189"/>
<text text-anchor="middle" x="1058.5" y="-196" font-family="Helvetica,sans-Serif" font-size="10.00">IR::Vector&lt; IR::Argument &gt;</text>
</a>
</g>
</g>
<!-- Node14&#45;&gt;Node2 -->
<g id="edge16" class="edge">
<title>Node14&#45;&gt;Node2</title>
<path fill="none" stroke="#9a32cd" stroke-dasharray="5,2" d="M1143.32,-198.5C1188.55,-198.5 1242.71,-198.5 1280.65,-198.5"/>
<polygon fill="#9a32cd" stroke="#9a32cd" points="1143.22,-195 1133.22,-198.5 1143.22,-202 1143.22,-195"/>
<text text-anchor="middle" x="1207" y="-201.5" font-family="Helvetica,sans-Serif" font-size="10.00"> constructorArguments</text>
</g>
<!-- Node15 -->
<g id="node15" class="node">
<title>Node15</title>
<g id="a_node15"><a xlink:href="class_i_r_1_1_vector_base.html" target="_top" xlink:title=" ">
<polygon fill="white" stroke="black" points="853.5,-227 853.5,-246 940.5,-246 940.5,-227 853.5,-227"/>
<text text-anchor="middle" x="897" y="-234" font-family="Helvetica,sans-Serif" font-size="10.00">IR::VectorBase</text>
</a>
</g>
</g>
<!-- Node15&#45;&gt;Node14 -->
<g id="edge17" class="edge">
<title>Node15&#45;&gt;Node14</title>
<path fill="none" stroke="midnightblue" d="M948.23,-224.53C970.59,-219.21 996.54,-213.02 1017.54,-208.02"/>
<polygon fill="midnightblue" stroke="midnightblue" points="947.17,-221.19 938.25,-226.91 948.79,-228 947.17,-221.19"/>
</g>
<!-- Node20 -->
<g id="node20" class="node">
<title>Node20</title>
<g id="a_node20"><a xlink:href="class_i_r_1_1_vector.html" target="_top" xlink:title=" ">
<polygon fill="white" stroke="black" points="996.5,-227 996.5,-246 1120.5,-246 1120.5,-227 996.5,-227"/>
<text text-anchor="middle" x="1058.5" y="-234" font-family="Helvetica,sans-Serif" font-size="10.00">IR::Vector&lt; IR::Type &gt;</text>
</a>
</g>
</g>
<!-- Node15&#45;&gt;Node20 -->
<g id="edge26" class="edge">
<title>Node15&#45;&gt;Node20</title>
<path fill="none" stroke="midnightblue" d="M951.05,-236.5C965.56,-236.5 981.42,-236.5 996.35,-236.5"/>
<polygon fill="midnightblue" stroke="midnightblue" points="950.74,-233 940.74,-236.5 950.74,-240 950.74,-233"/>
</g>
<!-- Node16 -->
<g id="node16" class="node">
<title>Node16</title>
<g id="a_node16"><a xlink:href="class_i_r_1_1_node.html" target="_top" xlink:title=" ">
<polygon fill="white" stroke="black" points="620.5,-236 620.5,-255 678.5,-255 678.5,-236 620.5,-236"/>
<text text-anchor="middle" x="649.5" y="-243" font-family="Helvetica,sans-Serif" font-size="10.00">IR::Node</text>
</a>
</g>
</g>
<!-- Node16&#45;&gt;Node15 -->
<g id="edge18" class="edge">
<title>Node16&#45;&gt;Node15</title>
<path fill="none" stroke="midnightblue" d="M688.81,-244.1C733.45,-242.46 806.99,-239.76 853.39,-238.06"/>
<polygon fill="midnightblue" stroke="midnightblue" points="688.53,-240.6 678.66,-244.47 688.78,-247.6 688.53,-240.6"/>
</g>
<!-- Node17&#45;&gt;Node16 -->
<g id="edge19" class="edge">
<title>Node17&#45;&gt;Node16</title>
<path fill="none" stroke="midnightblue" d="M407.74,-278.99C445.44,-274.61 503.64,-267.61 554,-260.5 576.37,-257.34 601.64,-253.31 620.42,-250.22"/>
<polygon fill="midnightblue" stroke="midnightblue" points="407.21,-275.52 397.68,-280.15 408.01,-282.48 407.21,-275.52"/>
</g>
<!-- Node18 -->
<g id="node18" class="node">
<title>Node18</title>
<g id="a_node18"><a xlink:href="class_util_1_1_i_has_source_info.html" target="_top" xlink:title=" ">
<polygon fill="white" stroke="black" points="105,-271 105,-290 218,-290 218,-271 105,-271"/>
<text text-anchor="middle" x="161.5" y="-278" font-family="Helvetica,sans-Serif" font-size="10.00">Util::IHasSourceInfo</text>
</a>
</g>
</g>
<!-- Node18&#45;&gt;Node17 -->
<g id="edge20" class="edge">
<title>Node18&#45;&gt;Node17</title>
<path fill="none" stroke="midnightblue" d="M228.16,-281.47C264.54,-282 307.99,-282.64 336.25,-283.06"/>
<polygon fill="midnightblue" stroke="midnightblue" points="228.16,-277.97 218.11,-281.32 228.05,-284.97 228.16,-277.97"/>
</g>
<!-- Node19&#45;&gt;Node16 -->
<g id="edge23" class="edge">
<title>Node19&#45;&gt;Node16</title>
<path fill="none" stroke="#9a32cd" stroke-dasharray="5,2" d="M423.37,-245.5C482.62,-245.5 574.26,-245.5 620.2,-245.5"/>
<polygon fill="#9a32cd" stroke="#9a32cd" points="423.07,-242 413.07,-245.5 423.07,-249 423.07,-242"/>
<text text-anchor="middle" x="503" y="-248.5" font-family="Helvetica,sans-Serif" font-size="10.00"> srcInfo</text>
</g>
<!-- Node20&#45;&gt;Node2 -->
<g id="edge25" class="edge">
<title>Node20&#45;&gt;Node2</title>
<path fill="none" stroke="#9a32cd" stroke-dasharray="5,2" d="M1130.7,-229.77C1169.87,-225.65 1219.26,-219.77 1263,-212.5 1270.63,-211.23 1278.72,-209.67 1286.5,-208.05"/>
<polygon fill="#9a32cd" stroke="#9a32cd" points="1130.3,-226.3 1120.71,-230.81 1131.02,-233.26 1130.3,-226.3"/>
<text text-anchor="middle" x="1207" y="-230.5" font-family="Helvetica,sans-Serif" font-size="10.00"> typeArguments</text>
</g>
</g>
</svg>
