<?xml version="1.0" encoding="UTF-8" standalone="no"?>
<!DOCTYPE svg PUBLIC "-//W3C//DTD SVG 1.1//EN"
 "http://www.w3.org/Graphics/SVG/1.1/DTD/svg11.dtd">
<!-- Generated by graphviz version 2.43.0 (0)
 -->
<!-- Title: P4Tools::P4Testgen::Bmv2::Bmv2V1ModelCompilerTarget Pages: 1 -->
<svg width="268pt" height="445pt"
 viewBox="0.00 0.00 268.00 445.00" xmlns="http://www.w3.org/2000/svg" xmlns:xlink="http://www.w3.org/1999/xlink">
<g id="graph0" class="graph" transform="scale(1 1) rotate(0) translate(4 441)">
<title>P4Tools::P4Testgen::Bmv2::Bmv2V1ModelCompilerTarget</title>
<polygon fill="white" stroke="transparent" points="-4,4 -4,-441 264,-441 264,4 -4,4"/>
<!-- Node1 -->
<g id="node1" class="node">
<title>Node1</title>
<g id="a_node1"><a xlink:title=" ">
<polygon fill="#bfbfbf" stroke="black" points="0,-0.5 0,-41.5 173,-41.5 173,-0.5 0,-0.5"/>
<text text-anchor="start" x="8" y="-29.5" font-family="Helvetica,sans-Serif" font-size="10.00">P4Tools::P4Testgen</text>
<text text-anchor="start" x="8" y="-18.5" font-family="Helvetica,sans-Serif" font-size="10.00">::Bmv2::Bmv2V1ModelCompiler</text>
<text text-anchor="middle" x="86.5" y="-7.5" font-family="Helvetica,sans-Serif" font-size="10.00">Target</text>
</a>
</g>
</g>
<!-- Node2 -->
<g id="node2" class="node">
<title>Node2</title>
<g id="a_node2"><a xlink:href="class_p4_tools_1_1_p4_testgen_1_1_testgen_compiler_target.html" target="_top" xlink:title=" ">
<polygon fill="white" stroke="black" points="19.5,-79.5 19.5,-109.5 153.5,-109.5 153.5,-79.5 19.5,-79.5"/>
<text text-anchor="start" x="27.5" y="-97.5" font-family="Helvetica,sans-Serif" font-size="10.00">P4Tools::P4Testgen</text>
<text text-anchor="middle" x="86.5" y="-86.5" font-family="Helvetica,sans-Serif" font-size="10.00">::TestgenCompilerTarget</text>
</a>
</g>
</g>
<!-- Node2&#45;&gt;Node1 -->
<g id="edge1" class="edge">
<title>Node2&#45;&gt;Node1</title>
<path fill="none" stroke="midnightblue" d="M86.5,-69.1C86.5,-60.1 86.5,-50.02 86.5,-41.51"/>
<polygon fill="midnightblue" stroke="midnightblue" points="83,-69.37 86.5,-79.37 90,-69.37 83,-69.37"/>
</g>
<!-- Node3 -->
<g id="node3" class="node">
<title>Node3</title>
<g id="a_node3"><a xlink:href="class_p4_tools_1_1_compiler_target.html" target="_top" xlink:title="Encapsulates the details of invoking the P4 compiler for a target device and architecture.">
<polygon fill="white" stroke="black" points="19.5,-147.5 19.5,-166.5 153.5,-166.5 153.5,-147.5 19.5,-147.5"/>
<text text-anchor="middle" x="86.5" y="-154.5" font-family="Helvetica,sans-Serif" font-size="10.00">P4Tools::CompilerTarget</text>
</a>
</g>
</g>
<!-- Node3&#45;&gt;Node2 -->
<g id="edge2" class="edge">
<title>Node3&#45;&gt;Node2</title>
<path fill="none" stroke="midnightblue" d="M86.5,-137.22C86.5,-128.36 86.5,-117.96 86.5,-109.76"/>
<polygon fill="midnightblue" stroke="midnightblue" points="83,-137.33 86.5,-147.33 90,-137.33 83,-137.33"/>
</g>
<!-- Node4 -->
<g id="node4" class="node">
<title>Node4</title>
<g id="a_node4"><a xlink:href="class_p4_tools_1_1_target.html" target="_top" xlink:title=" ">
<polygon fill="white" stroke="black" points="42,-204.5 42,-223.5 131,-223.5 131,-204.5 42,-204.5"/>
<text text-anchor="middle" x="86.5" y="-211.5" font-family="Helvetica,sans-Serif" font-size="10.00">P4Tools::Target</text>
</a>
</g>
</g>
<!-- Node4&#45;&gt;Node3 -->
<g id="edge3" class="edge">
<title>Node4&#45;&gt;Node3</title>
<path fill="none" stroke="midnightblue" d="M86.5,-194.12C86.5,-184.82 86.5,-174.06 86.5,-166.71"/>
<polygon fill="midnightblue" stroke="midnightblue" points="83,-194.41 86.5,-204.41 90,-194.41 83,-194.41"/>
</g>
<!-- Node5 -->
<g id="node5" class="node">
<title>Node5</title>
<g id="a_node5"><a xlink:title=" ">
<polygon fill="white" stroke="#bfbfbf" points="54,-349.5 54,-368.5 119,-368.5 119,-349.5 54,-349.5"/>
<text text-anchor="middle" x="86.5" y="-356.5" font-family="Helvetica,sans-Serif" font-size="10.00">std::string</text>
</a>
</g>
</g>
<!-- Node5&#45;&gt;Node4 -->
<g id="edge4" class="edge">
<title>Node5&#45;&gt;Node4</title>
<path fill="none" stroke="#9a32cd" stroke-dasharray="5,2" d="M83.89,-339.29C81.74,-321.68 79.24,-294.56 80.5,-271 81.4,-254.21 83.8,-234.7 85.28,-223.71"/>
<polygon fill="#9a32cd" stroke="#9a32cd" points="80.44,-339.9 85.2,-349.36 87.38,-338.99 80.44,-339.9"/>
<text text-anchor="middle" x="106.5" y="-278.5" font-family="Helvetica,sans-Serif" font-size="10.00"> toolName</text>
</g>
<!-- Node7 -->
<g id="node7" class="node">
<title>Node7</title>
<g id="a_node7"><a xlink:href="struct_p4_tools_1_1_target_1_1_spec.html" target="_top" xlink:title="Specifies a target device and architecture by their names in lower case.">
<polygon fill="white" stroke="black" points="141,-271.5 141,-290.5 260,-290.5 260,-271.5 141,-271.5"/>
<text text-anchor="middle" x="200.5" y="-278.5" font-family="Helvetica,sans-Serif" font-size="10.00">P4Tools::Target::Spec</text>
</a>
</g>
</g>
<!-- Node5&#45;&gt;Node7 -->
<g id="edge7" class="edge">
<title>Node5&#45;&gt;Node7</title>
<path fill="none" stroke="#9a32cd" stroke-dasharray="5,2" d="M108.15,-343.57C131.6,-327.93 168.25,-303.5 187.58,-290.62"/>
<polygon fill="#9a32cd" stroke="#9a32cd" points="105.96,-340.82 99.58,-349.28 109.84,-346.65 105.96,-340.82"/>
<text text-anchor="middle" x="187.5" y="-323" font-family="Helvetica,sans-Serif" font-size="10.00"> archName</text>
<text text-anchor="middle" x="187.5" y="-312" font-family="Helvetica,sans-Serif" font-size="10.00">deviceName</text>
</g>
<!-- Node6 -->
<g id="node6" class="node">
<title>Node6</title>
<g id="a_node6"><a xlink:title=" ">
<polygon fill="white" stroke="#bfbfbf" points="34.5,-406.5 34.5,-436.5 138.5,-436.5 138.5,-406.5 34.5,-406.5"/>
<text text-anchor="start" x="42.5" y="-424.5" font-family="Helvetica,sans-Serif" font-size="10.00">std::basic_string&lt;</text>
<text text-anchor="middle" x="86.5" y="-413.5" font-family="Helvetica,sans-Serif" font-size="10.00"> Char &gt;</text>
</a>
</g>
</g>
<!-- Node6&#45;&gt;Node5 -->
<g id="edge5" class="edge">
<title>Node6&#45;&gt;Node5</title>
<path fill="none" stroke="midnightblue" d="M86.5,-396.35C86.5,-386.51 86.5,-375.78 86.5,-368.54"/>
<polygon fill="midnightblue" stroke="midnightblue" points="83,-396.47 86.5,-406.47 90,-396.47 83,-396.47"/>
</g>
<!-- Node7&#45;&gt;Node4 -->
<g id="edge6" class="edge">
<title>Node7&#45;&gt;Node4</title>
<path fill="none" stroke="#9a32cd" stroke-dasharray="5,2" d="M176.15,-266.12C153.56,-253.24 120.66,-234.48 101.63,-223.63"/>
<polygon fill="#9a32cd" stroke="#9a32cd" points="174.7,-269.32 185.13,-271.23 178.17,-263.24 174.7,-269.32"/>
<text text-anchor="middle" x="162.5" y="-245" font-family="Helvetica,sans-Serif" font-size="10.00"> spec</text>
</g>
</g>
</svg>
