<?xml version="1.0" encoding="UTF-8" standalone="no"?>
<!DOCTYPE svg PUBLIC "-//W3C//DTD SVG 1.1//EN"
 "http://www.w3.org/Graphics/SVG/1.1/DTD/svg11.dtd">
<!-- Generated by graphviz version 2.43.0 (0)
 -->
<!-- Title: P4::P4Exception_Model Pages: 1 -->
<svg width="155pt" height="154pt"
 viewBox="0.00 0.00 155.00 154.00" xmlns="http://www.w3.org/2000/svg" xmlns:xlink="http://www.w3.org/1999/xlink">
<g id="graph0" class="graph" transform="scale(1 1) rotate(0) translate(4 150)">
<title>P4::P4Exception_Model</title>
<polygon fill="white" stroke="transparent" points="-4,4 -4,-150 151,-150 151,4 -4,4"/>
<!-- Node1 -->
<g id="node1" class="node">
<title>Node1</title>
<g id="a_node1"><a xlink:title=" ">
<polygon fill="#bfbfbf" stroke="black" points="0,-0.5 0,-19.5 130,-19.5 130,-0.5 0,-0.5"/>
<text text-anchor="middle" x="65" y="-7.5" font-family="Helvetica,sans-Serif" font-size="10.00">P4::P4Exception_Model</text>
</a>
</g>
</g>
<!-- Node2 -->
<g id="node2" class="node">
<title>Node2</title>
<g id="a_node2"><a xlink:href="struct_model_1_1_elem.html" target="_top" xlink:title=" ">
<polygon fill="white" stroke="black" points="26.5,-57.5 26.5,-76.5 103.5,-76.5 103.5,-57.5 26.5,-57.5"/>
<text text-anchor="middle" x="65" y="-64.5" font-family="Helvetica,sans-Serif" font-size="10.00">Model::Elem</text>
</a>
</g>
</g>
<!-- Node2&#45;&gt;Node1 -->
<g id="edge1" class="edge">
<title>Node2&#45;&gt;Node1</title>
<path fill="none" stroke="midnightblue" d="M65,-47.12C65,-37.82 65,-27.06 65,-19.71"/>
<polygon fill="midnightblue" stroke="midnightblue" points="61.5,-47.41 65,-57.41 68.5,-47.41 61.5,-47.41"/>
</g>
<!-- Node3 -->
<g id="node3" class="node">
<title>Node3</title>
<g id="a_node3"><a xlink:href="classcstring.html" target="_top" xlink:title=" ">
<polygon fill="white" stroke="black" points="40,-125.5 40,-144.5 90,-144.5 90,-125.5 40,-125.5"/>
<text text-anchor="middle" x="65" y="-132.5" font-family="Helvetica,sans-Serif" font-size="10.00">cstring</text>
</a>
</g>
</g>
<!-- Node3&#45;&gt;Node2 -->
<g id="edge2" class="edge">
<title>Node3&#45;&gt;Node2</title>
<path fill="none" stroke="#9a32cd" stroke-dasharray="5,2" d="M65,-115.04C65,-102.47 65,-86.56 65,-76.84"/>
<polygon fill="#9a32cd" stroke="#9a32cd" points="61.5,-115.37 65,-125.37 68.5,-115.37 61.5,-115.37"/>
<text text-anchor="middle" x="80.5" y="-98" font-family="Helvetica,sans-Serif" font-size="10.00"> name</text>
</g>
<!-- Node3&#45;&gt;Node3 -->
<g id="edge3" class="edge">
<title>Node3&#45;&gt;Node3</title>
<path fill="none" stroke="#9a32cd" stroke-dasharray="5,2" d="M100.45,-140.58C105,-139.61 108,-137.75 108,-135 108,-130.48 99.91,-128.37 90.18,-128.65"/>
<polygon fill="#9a32cd" stroke="#9a32cd" points="99.89,-137.11 90.18,-141.35 100.41,-144.1 99.89,-137.11"/>
<text text-anchor="middle" x="127.5" y="-138" font-family="Helvetica,sans-Serif" font-size="10.00"> empty</text>
<text text-anchor="middle" x="127.5" y="-127" font-family="Helvetica,sans-Serif" font-size="10.00">newline</text>
</g>
</g>
</svg>
