<?xml version="1.0" encoding="UTF-8" standalone="no"?>
<!DOCTYPE svg PUBLIC "-//W3C//DTD SVG 1.1//EN"
 "http://www.w3.org/Graphics/SVG/1.1/DTD/svg11.dtd">
<!-- Generated by graphviz version 2.43.0 (0)
 -->
<!-- Title: P4::SymbolicHeader Pages: 1 -->
<svg width="298pt" height="356pt"
 viewBox="0.00 0.00 297.50 356.00" xmlns="http://www.w3.org/2000/svg" xmlns:xlink="http://www.w3.org/1999/xlink">
<g id="graph0" class="graph" transform="scale(1 1) rotate(0) translate(4 352)">
<title>P4::SymbolicHeader</title>
<polygon fill="white" stroke="transparent" points="-4,4 -4,-352 293.5,-352 293.5,4 -4,4"/>
<!-- Node1 -->
<g id="node1" class="node">
<title>Node1</title>
<g id="a_node1"><a xlink:title=" ">
<polygon fill="#bfbfbf" stroke="black" points="119.5,-0.5 119.5,-19.5 234.5,-19.5 234.5,-0.5 119.5,-0.5"/>
<text text-anchor="middle" x="177" y="-7.5" font-family="Helvetica,sans-Serif" font-size="10.00">P4::SymbolicHeader</text>
</a>
</g>
</g>
<!-- Node2 -->
<g id="node2" class="node">
<title>Node2</title>
<g id="a_node2"><a xlink:href="class_p4_1_1_symbolic_struct.html" target="_top" xlink:title=" ">
<polygon fill="white" stroke="black" points="62,-67.5 62,-86.5 170,-86.5 170,-67.5 62,-67.5"/>
<text text-anchor="middle" x="116" y="-74.5" font-family="Helvetica,sans-Serif" font-size="10.00">P4::SymbolicStruct</text>
</a>
</g>
</g>
<!-- Node2&#45;&gt;Node1 -->
<g id="edge1" class="edge">
<title>Node2&#45;&gt;Node1</title>
<path fill="none" stroke="midnightblue" d="M131.36,-59.63C143.29,-46.92 159.36,-29.8 168.9,-19.63"/>
<polygon fill="midnightblue" stroke="midnightblue" points="128.52,-57.55 124.23,-67.23 133.62,-62.34 128.52,-57.55"/>
</g>
<!-- Node3 -->
<g id="node3" class="node">
<title>Node3</title>
<g id="a_node3"><a xlink:href="class_p4_1_1_symbolic_value.html" target="_top" xlink:title=" ">
<polygon fill="white" stroke="black" points="125.5,-213.5 125.5,-232.5 232.5,-232.5 232.5,-213.5 125.5,-213.5"/>
<text text-anchor="middle" x="179" y="-220.5" font-family="Helvetica,sans-Serif" font-size="10.00">P4::SymbolicValue</text>
</a>
</g>
</g>
<!-- Node3&#45;&gt;Node2 -->
<g id="edge2" class="edge">
<title>Node3&#45;&gt;Node2</title>
<path fill="none" stroke="midnightblue" d="M178.31,-203.23C176.61,-178.79 170.79,-135.58 151,-105 146.16,-97.53 138.52,-91.28 131.61,-86.69"/>
<polygon fill="midnightblue" stroke="midnightblue" points="174.82,-203.51 178.85,-213.31 181.81,-203.13 174.82,-203.51"/>
</g>
<!-- Node7 -->
<g id="node7" class="node">
<title>Node7</title>
<g id="a_node7"><a xlink:title=" ">
<polygon fill="white" stroke="#bfbfbf" points="7.5,-134.5 7.5,-164.5 136.5,-164.5 136.5,-134.5 7.5,-134.5"/>
<text text-anchor="start" x="15.5" y="-152.5" font-family="Helvetica,sans-Serif" font-size="10.00">std::map&lt; cstring,</text>
<text text-anchor="middle" x="72" y="-141.5" font-family="Helvetica,sans-Serif" font-size="10.00"> P4::SymbolicValue * &gt;</text>
</a>
</g>
</g>
<!-- Node3&#45;&gt;Node7 -->
<g id="edge9" class="edge">
<title>Node3&#45;&gt;Node7</title>
<path fill="none" stroke="#9a32cd" stroke-dasharray="5,2" d="M131.86,-210.07C121.38,-206.05 110.79,-200.79 102,-194 91.98,-186.26 84.05,-174.22 78.86,-164.77"/>
<polygon fill="#9a32cd" stroke="#9a32cd" points="130.8,-213.41 141.39,-213.42 133.12,-206.8 130.8,-213.41"/>
<text text-anchor="middle" x="126.5" y="-186" font-family="Helvetica,sans-Serif" font-size="10.00"> elements</text>
</g>
<!-- Node10 -->
<g id="node10" class="node">
<title>Node10</title>
<g id="a_node10"><a xlink:href="class_p4_1_1_scalar_value.html" target="_top" xlink:title=" ">
<polygon fill="white" stroke="black" points="193,-140 193,-159 285,-159 285,-140 193,-140"/>
<text text-anchor="middle" x="239" y="-147" font-family="Helvetica,sans-Serif" font-size="10.00">P4::ScalarValue</text>
</a>
</g>
</g>
<!-- Node3&#45;&gt;Node10 -->
<g id="edge12" class="edge">
<title>Node3&#45;&gt;Node10</title>
<path fill="none" stroke="midnightblue" d="M192.79,-205.57C204.86,-191.19 221.93,-170.85 231.58,-159.34"/>
<polygon fill="midnightblue" stroke="midnightblue" points="190.1,-203.32 186.36,-213.23 195.47,-207.82 190.1,-203.32"/>
</g>
<!-- Node4 -->
<g id="node4" class="node">
<title>Node4</title>
<g id="a_node4"><a xlink:href="class_i_has_db_print.html" target="_top" xlink:title=" ">
<polygon fill="white" stroke="black" points="115,-271.5 115,-290.5 189,-290.5 189,-271.5 115,-271.5"/>
<text text-anchor="middle" x="152" y="-278.5" font-family="Helvetica,sans-Serif" font-size="10.00">IHasDbPrint</text>
</a>
</g>
</g>
<!-- Node4&#45;&gt;Node3 -->
<g id="edge3" class="edge">
<title>Node4&#45;&gt;Node3</title>
<path fill="none" stroke="midnightblue" d="M160.58,-262.2C165.37,-252.27 171.11,-240.36 174.9,-232.51"/>
<polygon fill="midnightblue" stroke="midnightblue" points="157.41,-260.72 156.22,-271.25 163.71,-263.76 157.41,-260.72"/>
</g>
<!-- Node5 -->
<g id="node5" class="node">
<title>Node5</title>
<g id="a_node5"><a xlink:href="class_i_castable.html" target="_top" xlink:title=" ">
<polygon fill="white" stroke="black" points="207,-271.5 207,-290.5 269,-290.5 269,-271.5 207,-271.5"/>
<text text-anchor="middle" x="238" y="-278.5" font-family="Helvetica,sans-Serif" font-size="10.00">ICastable</text>
</a>
</g>
</g>
<!-- Node5&#45;&gt;Node3 -->
<g id="edge4" class="edge">
<title>Node5&#45;&gt;Node3</title>
<path fill="none" stroke="midnightblue" d="M221.78,-264.6C210.91,-254.28 197,-241.08 188.05,-232.59"/>
<polygon fill="midnightblue" stroke="midnightblue" points="219.38,-267.15 229.04,-271.49 224.2,-262.07 219.38,-267.15"/>
</g>
<!-- Node6 -->
<g id="node6" class="node">
<title>Node6</title>
<g id="a_node6"><a xlink:href="struct_r_t_t_i_1_1_base.html" target="_top" xlink:title=" ">
<polygon fill="white" stroke="black" points="204,-328.5 204,-347.5 272,-347.5 272,-328.5 204,-328.5"/>
<text text-anchor="middle" x="238" y="-335.5" font-family="Helvetica,sans-Serif" font-size="10.00">RTTI::Base</text>
</a>
</g>
</g>
<!-- Node6&#45;&gt;Node5 -->
<g id="edge5" class="edge">
<title>Node6&#45;&gt;Node5</title>
<path fill="none" stroke="midnightblue" d="M238,-318.12C238,-308.82 238,-298.06 238,-290.71"/>
<polygon fill="midnightblue" stroke="midnightblue" points="234.5,-318.41 238,-328.41 241.5,-318.41 234.5,-318.41"/>
</g>
<!-- Node7&#45;&gt;Node2 -->
<g id="edge6" class="edge">
<title>Node7&#45;&gt;Node2</title>
<path fill="none" stroke="#9a32cd" stroke-dasharray="5,2" d="M86.07,-125.77C90.23,-119.07 94.79,-111.74 99,-105 102.88,-98.8 107.27,-91.82 110.63,-86.5"/>
<polygon fill="#9a32cd" stroke="#9a32cd" points="83.03,-124.04 80.73,-134.38 88.98,-127.73 83.03,-124.04"/>
<text text-anchor="middle" x="125" y="-108" font-family="Helvetica,sans-Serif" font-size="10.00"> fieldValue</text>
</g>
<!-- Node8 -->
<g id="node8" class="node">
<title>Node8</title>
<g id="a_node8"><a xlink:href="classcstring.html" target="_top" xlink:title=" ">
<polygon fill="white" stroke="black" points="0,-213.5 0,-232.5 50,-232.5 50,-213.5 0,-213.5"/>
<text text-anchor="middle" x="25" y="-220.5" font-family="Helvetica,sans-Serif" font-size="10.00">cstring</text>
</a>
</g>
</g>
<!-- Node8&#45;&gt;Node7 -->
<g id="edge7" class="edge">
<title>Node8&#45;&gt;Node7</title>
<path fill="none" stroke="#9a32cd" stroke-dasharray="5,2" d="M35.58,-204.27C39.68,-197.55 44.47,-189.86 49,-183 53.04,-176.89 57.68,-170.26 61.72,-164.6"/>
<polygon fill="#9a32cd" stroke="#9a32cd" points="32.35,-202.85 30.18,-213.23 38.34,-206.47 32.35,-202.85"/>
<text text-anchor="middle" x="62" y="-186" font-family="Helvetica,sans-Serif" font-size="10.00"> keys</text>
</g>
<!-- Node8&#45;&gt;Node8 -->
<g id="edge8" class="edge">
<title>Node8&#45;&gt;Node8</title>
<path fill="none" stroke="#9a32cd" stroke-dasharray="5,2" d="M60.45,-227.6C65,-226.8 68,-225.27 68,-223 68,-219.28 59.91,-217.54 50.18,-217.77"/>
<polygon fill="#9a32cd" stroke="#9a32cd" points="59.94,-224.12 50.18,-228.23 60.37,-231.11 59.94,-224.12"/>
<text text-anchor="middle" x="87.5" y="-226" font-family="Helvetica,sans-Serif" font-size="10.00"> empty</text>
<text text-anchor="middle" x="87.5" y="-215" font-family="Helvetica,sans-Serif" font-size="10.00">newline</text>
</g>
<!-- Node9 -->
<g id="node9" class="node">
<title>Node9</title>
<g id="a_node9"><a xlink:href="class_p4_1_1_symbolic_bool.html" target="_top" xlink:title=" ">
<polygon fill="white" stroke="black" points="188.5,-67.5 188.5,-86.5 289.5,-86.5 289.5,-67.5 188.5,-67.5"/>
<text text-anchor="middle" x="239" y="-74.5" font-family="Helvetica,sans-Serif" font-size="10.00">P4::SymbolicBool</text>
</a>
</g>
</g>
<!-- Node9&#45;&gt;Node1 -->
<g id="edge10" class="edge">
<title>Node9&#45;&gt;Node1</title>
<path fill="none" stroke="#9a32cd" stroke-dasharray="5,2" d="M223.74,-60C211.58,-47.25 195.02,-29.89 185.23,-19.63"/>
<polygon fill="#9a32cd" stroke="#9a32cd" points="221.2,-62.41 230.64,-67.23 226.27,-57.58 221.2,-62.41"/>
<text text-anchor="middle" x="225" y="-41" font-family="Helvetica,sans-Serif" font-size="10.00"> valid</text>
</g>
<!-- Node10&#45;&gt;Node9 -->
<g id="edge11" class="edge">
<title>Node10&#45;&gt;Node9</title>
<path fill="none" stroke="midnightblue" d="M239,-129.44C239,-115.53 239,-97.32 239,-86.72"/>
<polygon fill="midnightblue" stroke="midnightblue" points="235.5,-129.86 239,-139.86 242.5,-129.86 235.5,-129.86"/>
</g>
</g>
</svg>
