<?xml version="1.0" encoding="UTF-8" standalone="no"?>
<!DOCTYPE svg PUBLIC "-//W3C//DTD SVG 1.1//EN"
 "http://www.w3.org/Graphics/SVG/1.1/DTD/svg11.dtd">
<!-- Generated by graphviz version 2.43.0 (0)
 -->
<!-- Title: DPDK::CollectExternDeclaration Pages: 1 -->
<svg width="409pt" height="233pt"
 viewBox="0.00 0.00 409.00 233.00" xmlns="http://www.w3.org/2000/svg" xmlns:xlink="http://www.w3.org/1999/xlink">
<g id="graph0" class="graph" transform="scale(1 1) rotate(0) translate(4 229)">
<title>DPDK::CollectExternDeclaration</title>
<polygon fill="white" stroke="transparent" points="-4,4 -4,-229 405,-229 405,4 -4,4"/>
<!-- Node1 -->
<g id="node1" class="node">
<title>Node1</title>
<g id="a_node1"><a xlink:title=" ">
<polygon fill="#bfbfbf" stroke="black" points="0,-0.5 0,-19.5 172,-19.5 172,-0.5 0,-0.5"/>
<text text-anchor="middle" x="86" y="-7.5" font-family="Helvetica,sans-Serif" font-size="10.00">DPDK::CollectExternDeclaration</text>
</a>
</g>
</g>
<!-- Node2 -->
<g id="node2" class="node">
<title>Node2</title>
<g id="a_node2"><a xlink:href="class_inspector.html" target="_top" xlink:title=" ">
<polygon fill="white" stroke="black" points="55,-68.5 55,-87.5 117,-87.5 117,-68.5 55,-68.5"/>
<text text-anchor="middle" x="86" y="-75.5" font-family="Helvetica,sans-Serif" font-size="10.00">Inspector</text>
</a>
</g>
</g>
<!-- Node2&#45;&gt;Node1 -->
<g id="edge1" class="edge">
<title>Node2&#45;&gt;Node1</title>
<path fill="none" stroke="midnightblue" d="M86,-58.04C86,-45.47 86,-29.56 86,-19.84"/>
<polygon fill="midnightblue" stroke="midnightblue" points="82.5,-58.37 86,-68.37 89.5,-58.37 82.5,-58.37"/>
</g>
<!-- Node3 -->
<g id="node3" class="node">
<title>Node3</title>
<g id="a_node3"><a xlink:href="class_visitor.html" target="_top" xlink:title=" ">
<polygon fill="white" stroke="black" points="161,-136.5 161,-155.5 209,-155.5 209,-136.5 161,-136.5"/>
<text text-anchor="middle" x="185" y="-143.5" font-family="Helvetica,sans-Serif" font-size="10.00">Visitor</text>
</a>
</g>
</g>
<!-- Node3&#45;&gt;Node2 -->
<g id="edge2" class="edge">
<title>Node3&#45;&gt;Node2</title>
<path fill="none" stroke="midnightblue" d="M160.36,-131.17C153.37,-127.07 145.8,-122.48 139,-118 124.12,-108.19 107.69,-95.86 97.13,-87.72"/>
<polygon fill="midnightblue" stroke="midnightblue" points="159.01,-134.43 169.42,-136.39 162.51,-128.37 159.01,-134.43"/>
</g>
<!-- Node3&#45;&gt;Node3 -->
<g id="edge10" class="edge">
<title>Node3&#45;&gt;Node3</title>
<path fill="none" stroke="#9a32cd" stroke-dasharray="5,2" d="M219.42,-151.29C223.98,-150.39 227,-148.63 227,-146 227,-141.69 218.86,-139.7 209.17,-140.04"/>
<polygon fill="#9a32cd" stroke="#9a32cd" points="218.92,-147.82 209.17,-151.96 219.38,-154.8 218.92,-147.82"/>
<text text-anchor="middle" x="252" y="-143.5" font-family="Helvetica,sans-Serif" font-size="10.00"> called_by</text>
</g>
<!-- Node5 -->
<g id="node5" class="node">
<title>Node5</title>
<g id="a_node5"><a xlink:href="class_split_flow_visit__base.html" target="_top" xlink:title=" ">
<polygon fill="white" stroke="black" points="191,-0.5 191,-19.5 303,-19.5 303,-0.5 191,-0.5"/>
<text text-anchor="middle" x="247" y="-7.5" font-family="Helvetica,sans-Serif" font-size="10.00">SplitFlowVisit_base</text>
</a>
</g>
</g>
<!-- Node3&#45;&gt;Node5 -->
<g id="edge9" class="edge">
<title>Node3&#45;&gt;Node5</title>
<path fill="none" stroke="#9a32cd" stroke-dasharray="5,2" d="M172.66,-127.83C162.54,-111.48 151.48,-86.53 162,-67 174.74,-43.35 202.32,-28.04 222.62,-19.51"/>
<polygon fill="#9a32cd" stroke="#9a32cd" points="169.88,-129.97 178.33,-136.36 175.7,-126.1 169.88,-129.97"/>
<text text-anchor="middle" x="167" y="-75.5" font-family="Helvetica,sans-Serif" font-size="10.00"> v</text>
</g>
<!-- Node6 -->
<g id="node6" class="node">
<title>Node6</title>
<g id="a_node6"><a xlink:title=" ">
<polygon fill="white" stroke="#bfbfbf" points="181.5,-68.5 181.5,-87.5 312.5,-87.5 312.5,-68.5 181.5,-68.5"/>
<text text-anchor="middle" x="247" y="-75.5" font-family="Helvetica,sans-Serif" font-size="10.00">std::vector&lt; Visitor * &gt;</text>
</a>
</g>
</g>
<!-- Node3&#45;&gt;Node6 -->
<g id="edge8" class="edge">
<title>Node3&#45;&gt;Node6</title>
<path fill="none" stroke="#9a32cd" stroke-dasharray="5,2" d="M199.99,-129.05C212.14,-116.11 228.82,-98.36 238.69,-87.84"/>
<polygon fill="#9a32cd" stroke="#9a32cd" points="197.4,-126.69 193.11,-136.37 202.5,-131.48 197.4,-126.69"/>
<text text-anchor="middle" x="244.5" y="-110" font-family="Helvetica,sans-Serif" font-size="10.00"> elements</text>
</g>
<!-- Node4 -->
<g id="node4" class="node">
<title>Node4</title>
<g id="a_node4"><a xlink:href="classcstring.html" target="_top" xlink:title=" ">
<polygon fill="white" stroke="black" points="160,-204.5 160,-223.5 210,-223.5 210,-204.5 160,-204.5"/>
<text text-anchor="middle" x="185" y="-211.5" font-family="Helvetica,sans-Serif" font-size="10.00">cstring</text>
</a>
</g>
</g>
<!-- Node4&#45;&gt;Node3 -->
<g id="edge3" class="edge">
<title>Node4&#45;&gt;Node3</title>
<path fill="none" stroke="#9a32cd" stroke-dasharray="5,2" d="M185,-194.04C185,-181.47 185,-165.56 185,-155.84"/>
<polygon fill="#9a32cd" stroke="#9a32cd" points="181.5,-194.37 185,-204.37 188.5,-194.37 181.5,-194.37"/>
<text text-anchor="middle" x="220" y="-177" font-family="Helvetica,sans-Serif" font-size="10.00"> internalName</text>
</g>
<!-- Node4&#45;&gt;Node4 -->
<g id="edge4" class="edge">
<title>Node4&#45;&gt;Node4</title>
<path fill="none" stroke="#9a32cd" stroke-dasharray="5,2" d="M220.45,-219.58C225,-218.61 228,-216.75 228,-214 228,-209.48 219.91,-207.37 210.18,-207.65"/>
<polygon fill="#9a32cd" stroke="#9a32cd" points="219.89,-216.11 210.18,-220.35 220.41,-223.1 219.89,-216.11"/>
<text text-anchor="middle" x="247.5" y="-217" font-family="Helvetica,sans-Serif" font-size="10.00"> empty</text>
<text text-anchor="middle" x="247.5" y="-206" font-family="Helvetica,sans-Serif" font-size="10.00">newline</text>
</g>
<!-- Node5&#45;&gt;Node3 -->
<g id="edge5" class="edge">
<title>Node5&#45;&gt;Node3</title>
<path fill="none" stroke="#9a32cd" stroke-dasharray="5,2" d="M276.05,-24.16C303.07,-38.38 337.07,-62.58 322,-89 299.35,-128.73 241.96,-140.29 209.1,-143.64"/>
<polygon fill="#9a32cd" stroke="#9a32cd" points="277.38,-20.91 266.88,-19.56 274.25,-27.17 277.38,-20.91"/>
<text text-anchor="middle" x="363" y="-81" font-family="Helvetica,sans-Serif" font-size="10.00"> split_link</text>
<text text-anchor="middle" x="363" y="-70" font-family="Helvetica,sans-Serif" font-size="10.00">split_link_mem</text>
</g>
<!-- Node5&#45;&gt;Node5 -->
<g id="edge6" class="edge">
<title>Node5&#45;&gt;Node5</title>
<path fill="none" stroke="#9a32cd" stroke-dasharray="5,2" d="M313.4,-14.4C318.12,-13.4 321,-11.93 321,-10 321,-6.91 313.62,-5.01 303.15,-4.31"/>
<polygon fill="#9a32cd" stroke="#9a32cd" points="312.63,-10.97 303.15,-15.69 313.51,-17.91 312.63,-10.97"/>
<text text-anchor="middle" x="333.5" y="-7.5" font-family="Helvetica,sans-Serif" font-size="10.00"> prev</text>
</g>
<!-- Node6&#45;&gt;Node5 -->
<g id="edge7" class="edge">
<title>Node6&#45;&gt;Node5</title>
<path fill="none" stroke="#9a32cd" stroke-dasharray="5,2" d="M247,-58.04C247,-45.47 247,-29.56 247,-19.84"/>
<polygon fill="#9a32cd" stroke="#9a32cd" points="243.5,-58.37 247,-68.37 250.5,-58.37 243.5,-58.37"/>
<text text-anchor="middle" x="267" y="-41" font-family="Helvetica,sans-Serif" font-size="10.00"> visitors</text>
</g>
</g>
</svg>
