<?xml version="1.0" encoding="UTF-8" standalone="no"?>
<!DOCTYPE svg PUBLIC "-//W3C//DTD SVG 1.1//EN"
 "http://www.w3.org/Graphics/SVG/1.1/DTD/svg11.dtd">
<!-- Generated by graphviz version 2.43.0 (0)
 -->
<!-- Title: P4::SymbolicStruct Pages: 1 -->
<svg width="280pt" height="289pt"
 viewBox="0.00 0.00 280.00 289.00" xmlns="http://www.w3.org/2000/svg" xmlns:xlink="http://www.w3.org/1999/xlink">
<g id="graph0" class="graph" transform="scale(1 1) rotate(0) translate(4 285)">
<title>P4::SymbolicStruct</title>
<polygon fill="white" stroke="transparent" points="-4,4 -4,-285 276,-285 276,4 -4,4"/>
<!-- Node1 -->
<g id="node1" class="node">
<title>Node1</title>
<g id="a_node1"><a xlink:title=" ">
<polygon fill="#bfbfbf" stroke="black" points="78,-0.5 78,-19.5 186,-19.5 186,-0.5 78,-0.5"/>
<text text-anchor="middle" x="132" y="-7.5" font-family="Helvetica,sans-Serif" font-size="10.00">P4::SymbolicStruct</text>
</a>
</g>
</g>
<!-- Node2 -->
<g id="node2" class="node">
<title>Node2</title>
<g id="a_node2"><a xlink:href="class_p4_1_1_symbolic_value.html" target="_top" xlink:title=" ">
<polygon fill="white" stroke="black" points="125.5,-146.5 125.5,-165.5 232.5,-165.5 232.5,-146.5 125.5,-146.5"/>
<text text-anchor="middle" x="179" y="-153.5" font-family="Helvetica,sans-Serif" font-size="10.00">P4::SymbolicValue</text>
</a>
</g>
</g>
<!-- Node2&#45;&gt;Node1 -->
<g id="edge1" class="edge">
<title>Node2&#45;&gt;Node1</title>
<path fill="none" stroke="midnightblue" d="M180.87,-136.44C182.44,-112.23 182.17,-69.27 165,-38 160.87,-30.47 153.7,-24.22 147.11,-19.64"/>
<polygon fill="midnightblue" stroke="midnightblue" points="177.38,-136.16 180.05,-146.41 184.36,-136.74 177.38,-136.16"/>
</g>
<!-- Node6 -->
<g id="node6" class="node">
<title>Node6</title>
<g id="a_node6"><a xlink:title=" ">
<polygon fill="white" stroke="#bfbfbf" points="21.5,-67.5 21.5,-97.5 150.5,-97.5 150.5,-67.5 21.5,-67.5"/>
<text text-anchor="start" x="29.5" y="-85.5" font-family="Helvetica,sans-Serif" font-size="10.00">std::map&lt; cstring,</text>
<text text-anchor="middle" x="86" y="-74.5" font-family="Helvetica,sans-Serif" font-size="10.00"> P4::SymbolicValue * &gt;</text>
</a>
</g>
</g>
<!-- Node2&#45;&gt;Node6 -->
<g id="edge8" class="edge">
<title>Node2&#45;&gt;Node6</title>
<path fill="none" stroke="#9a32cd" stroke-dasharray="5,2" d="M141.84,-142.52C132.82,-138.44 123.59,-133.3 116,-127 106.26,-118.92 98.3,-106.91 93.04,-97.55"/>
<polygon fill="#9a32cd" stroke="#9a32cd" points="140.53,-145.76 151.1,-146.39 143.23,-139.31 140.53,-145.76"/>
<text text-anchor="middle" x="140.5" y="-119" font-family="Helvetica,sans-Serif" font-size="10.00"> elements</text>
</g>
<!-- Node3 -->
<g id="node3" class="node">
<title>Node3</title>
<g id="a_node3"><a xlink:href="class_i_has_db_print.html" target="_top" xlink:title=" ">
<polygon fill="white" stroke="black" points="115,-204.5 115,-223.5 189,-223.5 189,-204.5 115,-204.5"/>
<text text-anchor="middle" x="152" y="-211.5" font-family="Helvetica,sans-Serif" font-size="10.00">IHasDbPrint</text>
</a>
</g>
</g>
<!-- Node3&#45;&gt;Node2 -->
<g id="edge2" class="edge">
<title>Node3&#45;&gt;Node2</title>
<path fill="none" stroke="midnightblue" d="M160.58,-195.2C165.37,-185.27 171.11,-173.36 174.9,-165.51"/>
<polygon fill="midnightblue" stroke="midnightblue" points="157.41,-193.72 156.22,-204.25 163.71,-196.76 157.41,-193.72"/>
</g>
<!-- Node4 -->
<g id="node4" class="node">
<title>Node4</title>
<g id="a_node4"><a xlink:href="class_i_castable.html" target="_top" xlink:title=" ">
<polygon fill="white" stroke="black" points="207,-204.5 207,-223.5 269,-223.5 269,-204.5 207,-204.5"/>
<text text-anchor="middle" x="238" y="-211.5" font-family="Helvetica,sans-Serif" font-size="10.00">ICastable</text>
</a>
</g>
</g>
<!-- Node4&#45;&gt;Node2 -->
<g id="edge3" class="edge">
<title>Node4&#45;&gt;Node2</title>
<path fill="none" stroke="midnightblue" d="M221.78,-197.6C210.91,-187.28 197,-174.08 188.05,-165.59"/>
<polygon fill="midnightblue" stroke="midnightblue" points="219.38,-200.15 229.04,-204.49 224.2,-195.07 219.38,-200.15"/>
</g>
<!-- Node5 -->
<g id="node5" class="node">
<title>Node5</title>
<g id="a_node5"><a xlink:href="struct_r_t_t_i_1_1_base.html" target="_top" xlink:title=" ">
<polygon fill="white" stroke="black" points="204,-261.5 204,-280.5 272,-280.5 272,-261.5 204,-261.5"/>
<text text-anchor="middle" x="238" y="-268.5" font-family="Helvetica,sans-Serif" font-size="10.00">RTTI::Base</text>
</a>
</g>
</g>
<!-- Node5&#45;&gt;Node4 -->
<g id="edge4" class="edge">
<title>Node5&#45;&gt;Node4</title>
<path fill="none" stroke="midnightblue" d="M238,-251.12C238,-241.82 238,-231.06 238,-223.71"/>
<polygon fill="midnightblue" stroke="midnightblue" points="234.5,-251.41 238,-261.41 241.5,-251.41 234.5,-251.41"/>
</g>
<!-- Node6&#45;&gt;Node1 -->
<g id="edge5" class="edge">
<title>Node6&#45;&gt;Node1</title>
<path fill="none" stroke="#9a32cd" stroke-dasharray="5,2" d="M99.86,-58.63C104,-51.93 108.62,-44.63 113,-38 117.05,-31.88 121.8,-25.13 125.54,-19.91"/>
<polygon fill="#9a32cd" stroke="#9a32cd" points="96.8,-56.91 94.55,-67.26 102.77,-60.57 96.8,-56.91"/>
<text text-anchor="middle" x="139" y="-41" font-family="Helvetica,sans-Serif" font-size="10.00"> fieldValue</text>
</g>
<!-- Node7 -->
<g id="node7" class="node">
<title>Node7</title>
<g id="a_node7"><a xlink:href="classcstring.html" target="_top" xlink:title=" ">
<polygon fill="white" stroke="black" points="0,-146.5 0,-165.5 50,-165.5 50,-146.5 0,-146.5"/>
<text text-anchor="middle" x="25" y="-153.5" font-family="Helvetica,sans-Serif" font-size="10.00">cstring</text>
</a>
</g>
</g>
<!-- Node7&#45;&gt;Node6 -->
<g id="edge6" class="edge">
<title>Node7&#45;&gt;Node6</title>
<path fill="none" stroke="#9a32cd" stroke-dasharray="5,2" d="M38.51,-138.23C44.16,-131.29 50.83,-123.21 57,-116 62.21,-109.91 68.08,-103.29 73.17,-97.63"/>
<polygon fill="#9a32cd" stroke="#9a32cd" points="35.59,-136.27 32.02,-146.24 41.03,-140.67 35.59,-136.27"/>
<text text-anchor="middle" x="70" y="-119" font-family="Helvetica,sans-Serif" font-size="10.00"> keys</text>
</g>
<!-- Node7&#45;&gt;Node7 -->
<g id="edge7" class="edge">
<title>Node7&#45;&gt;Node7</title>
<path fill="none" stroke="#9a32cd" stroke-dasharray="5,2" d="M60.45,-160.6C65,-159.8 68,-158.27 68,-156 68,-152.28 59.91,-150.54 50.18,-150.77"/>
<polygon fill="#9a32cd" stroke="#9a32cd" points="59.94,-157.12 50.18,-161.23 60.37,-164.11 59.94,-157.12"/>
<text text-anchor="middle" x="87.5" y="-159" font-family="Helvetica,sans-Serif" font-size="10.00"> empty</text>
<text text-anchor="middle" x="87.5" y="-148" font-family="Helvetica,sans-Serif" font-size="10.00">newline</text>
</g>
</g>
</svg>
