<?xml version="1.0" encoding="UTF-8" standalone="no"?>
<!DOCTYPE svg PUBLIC "-//W3C//DTD SVG 1.1//EN"
 "http://www.w3.org/Graphics/SVG/1.1/DTD/svg11.dtd">
<!-- Generated by graphviz version 2.43.0 (0)
 -->
<!-- Title: P4::ControlPlaneAPI::ParseP4RuntimeAnnotations Pages: 1 -->
<svg width="401pt" height="301pt"
 viewBox="0.00 0.00 400.50 301.00" xmlns="http://www.w3.org/2000/svg" xmlns:xlink="http://www.w3.org/1999/xlink">
<g id="graph0" class="graph" transform="scale(1 1) rotate(0) translate(4 297)">
<title>P4::ControlPlaneAPI::ParseP4RuntimeAnnotations</title>
<polygon fill="white" stroke="transparent" points="-4,4 -4,-297 396.5,-297 396.5,4 -4,4"/>
<!-- Node1 -->
<g id="node1" class="node">
<title>Node1</title>
<g id="a_node1"><a xlink:title="Parses P4Runtime&#45;specific annotations.">
<polygon fill="#bfbfbf" stroke="black" points="0,-0.5 0,-30.5 161,-30.5 161,-0.5 0,-0.5"/>
<text text-anchor="start" x="8" y="-18.5" font-family="Helvetica,sans-Serif" font-size="10.00">P4::ControlPlaneAPI</text>
<text text-anchor="middle" x="80.5" y="-7.5" font-family="Helvetica,sans-Serif" font-size="10.00">::ParseP4RuntimeAnnotations</text>
</a>
</g>
</g>
<!-- Node2 -->
<g id="node2" class="node">
<title>Node2</title>
<g id="a_node2"><a xlink:href="class_p4_1_1_parse_annotations.html" target="_top" xlink:title=" ">
<polygon fill="white" stroke="black" points="21,-68.5 21,-87.5 140,-87.5 140,-68.5 21,-68.5"/>
<text text-anchor="middle" x="80.5" y="-75.5" font-family="Helvetica,sans-Serif" font-size="10.00">P4::ParseAnnotations</text>
</a>
</g>
</g>
<!-- Node2&#45;&gt;Node1 -->
<g id="edge1" class="edge">
<title>Node2&#45;&gt;Node1</title>
<path fill="none" stroke="midnightblue" d="M80.5,-58.22C80.5,-49.36 80.5,-38.96 80.5,-30.76"/>
<polygon fill="midnightblue" stroke="midnightblue" points="77,-58.33 80.5,-68.33 84,-58.33 77,-58.33"/>
</g>
<!-- Node3 -->
<g id="node3" class="node">
<title>Node3</title>
<g id="a_node3"><a xlink:href="class_modifier.html" target="_top" xlink:title=" ">
<polygon fill="white" stroke="black" points="52.5,-136.5 52.5,-155.5 108.5,-155.5 108.5,-136.5 52.5,-136.5"/>
<text text-anchor="middle" x="80.5" y="-143.5" font-family="Helvetica,sans-Serif" font-size="10.00">Modifier</text>
</a>
</g>
</g>
<!-- Node3&#45;&gt;Node2 -->
<g id="edge2" class="edge">
<title>Node3&#45;&gt;Node2</title>
<path fill="none" stroke="midnightblue" d="M80.5,-126.04C80.5,-113.47 80.5,-97.56 80.5,-87.84"/>
<polygon fill="midnightblue" stroke="midnightblue" points="77,-126.37 80.5,-136.37 84,-126.37 77,-126.37"/>
</g>
<!-- Node4 -->
<g id="node4" class="node">
<title>Node4</title>
<g id="a_node4"><a xlink:href="class_visitor.html" target="_top" xlink:title=" ">
<polygon fill="white" stroke="black" points="152.5,-204.5 152.5,-223.5 200.5,-223.5 200.5,-204.5 152.5,-204.5"/>
<text text-anchor="middle" x="176.5" y="-211.5" font-family="Helvetica,sans-Serif" font-size="10.00">Visitor</text>
</a>
</g>
</g>
<!-- Node4&#45;&gt;Node3 -->
<g id="edge3" class="edge">
<title>Node4&#45;&gt;Node3</title>
<path fill="none" stroke="midnightblue" d="M151.78,-199.29C144.78,-195.2 137.24,-190.58 130.5,-186 116.29,-176.35 100.83,-163.98 90.92,-155.79"/>
<polygon fill="midnightblue" stroke="midnightblue" points="150.44,-202.56 160.85,-204.49 153.92,-196.49 150.44,-202.56"/>
</g>
<!-- Node4&#45;&gt;Node4 -->
<g id="edge11" class="edge">
<title>Node4&#45;&gt;Node4</title>
<path fill="none" stroke="#9a32cd" stroke-dasharray="5,2" d="M210.92,-219.29C215.48,-218.39 218.5,-216.63 218.5,-214 218.5,-209.69 210.36,-207.7 200.67,-208.04"/>
<polygon fill="#9a32cd" stroke="#9a32cd" points="210.42,-215.82 200.67,-219.96 210.88,-222.8 210.42,-215.82"/>
<text text-anchor="middle" x="243.5" y="-211.5" font-family="Helvetica,sans-Serif" font-size="10.00"> called_by</text>
</g>
<!-- Node6 -->
<g id="node6" class="node">
<title>Node6</title>
<g id="a_node6"><a xlink:href="class_split_flow_visit__base.html" target="_top" xlink:title=" ">
<polygon fill="white" stroke="black" points="182.5,-68.5 182.5,-87.5 294.5,-87.5 294.5,-68.5 182.5,-68.5"/>
<text text-anchor="middle" x="238.5" y="-75.5" font-family="Helvetica,sans-Serif" font-size="10.00">SplitFlowVisit_base</text>
</a>
</g>
</g>
<!-- Node4&#45;&gt;Node6 -->
<g id="edge10" class="edge">
<title>Node4&#45;&gt;Node6</title>
<path fill="none" stroke="#9a32cd" stroke-dasharray="5,2" d="M164.16,-195.83C154.04,-179.48 142.98,-154.53 153.5,-135 166.24,-111.35 193.82,-96.04 214.12,-87.51"/>
<polygon fill="#9a32cd" stroke="#9a32cd" points="161.38,-197.97 169.83,-204.36 167.2,-194.1 161.38,-197.97"/>
<text text-anchor="middle" x="158.5" y="-143.5" font-family="Helvetica,sans-Serif" font-size="10.00"> v</text>
</g>
<!-- Node7 -->
<g id="node7" class="node">
<title>Node7</title>
<g id="a_node7"><a xlink:title=" ">
<polygon fill="white" stroke="#bfbfbf" points="173,-136.5 173,-155.5 304,-155.5 304,-136.5 173,-136.5"/>
<text text-anchor="middle" x="238.5" y="-143.5" font-family="Helvetica,sans-Serif" font-size="10.00">std::vector&lt; Visitor * &gt;</text>
</a>
</g>
</g>
<!-- Node4&#45;&gt;Node7 -->
<g id="edge9" class="edge">
<title>Node4&#45;&gt;Node7</title>
<path fill="none" stroke="#9a32cd" stroke-dasharray="5,2" d="M191.49,-197.05C203.64,-184.11 220.32,-166.36 230.19,-155.84"/>
<polygon fill="#9a32cd" stroke="#9a32cd" points="188.9,-194.69 184.61,-204.37 194,-199.48 188.9,-194.69"/>
<text text-anchor="middle" x="236" y="-178" font-family="Helvetica,sans-Serif" font-size="10.00"> elements</text>
</g>
<!-- Node5 -->
<g id="node5" class="node">
<title>Node5</title>
<g id="a_node5"><a xlink:href="classcstring.html" target="_top" xlink:title=" ">
<polygon fill="white" stroke="black" points="151.5,-272.5 151.5,-291.5 201.5,-291.5 201.5,-272.5 151.5,-272.5"/>
<text text-anchor="middle" x="176.5" y="-279.5" font-family="Helvetica,sans-Serif" font-size="10.00">cstring</text>
</a>
</g>
</g>
<!-- Node5&#45;&gt;Node4 -->
<g id="edge4" class="edge">
<title>Node5&#45;&gt;Node4</title>
<path fill="none" stroke="#9a32cd" stroke-dasharray="5,2" d="M176.5,-262.04C176.5,-249.47 176.5,-233.56 176.5,-223.84"/>
<polygon fill="#9a32cd" stroke="#9a32cd" points="173,-262.37 176.5,-272.37 180,-262.37 173,-262.37"/>
<text text-anchor="middle" x="211.5" y="-245" font-family="Helvetica,sans-Serif" font-size="10.00"> internalName</text>
</g>
<!-- Node5&#45;&gt;Node5 -->
<g id="edge5" class="edge">
<title>Node5&#45;&gt;Node5</title>
<path fill="none" stroke="#9a32cd" stroke-dasharray="5,2" d="M211.95,-287.58C216.5,-286.61 219.5,-284.75 219.5,-282 219.5,-277.48 211.41,-275.37 201.68,-275.65"/>
<polygon fill="#9a32cd" stroke="#9a32cd" points="211.39,-284.11 201.68,-288.35 211.91,-291.1 211.39,-284.11"/>
<text text-anchor="middle" x="239" y="-285" font-family="Helvetica,sans-Serif" font-size="10.00"> empty</text>
<text text-anchor="middle" x="239" y="-274" font-family="Helvetica,sans-Serif" font-size="10.00">newline</text>
</g>
<!-- Node6&#45;&gt;Node4 -->
<g id="edge6" class="edge">
<title>Node6&#45;&gt;Node4</title>
<path fill="none" stroke="#9a32cd" stroke-dasharray="5,2" d="M267.55,-92.16C294.57,-106.38 328.57,-130.58 313.5,-157 290.85,-196.73 233.46,-208.29 200.6,-211.64"/>
<polygon fill="#9a32cd" stroke="#9a32cd" points="268.88,-88.91 258.38,-87.56 265.75,-95.17 268.88,-88.91"/>
<text text-anchor="middle" x="354.5" y="-149" font-family="Helvetica,sans-Serif" font-size="10.00"> split_link</text>
<text text-anchor="middle" x="354.5" y="-138" font-family="Helvetica,sans-Serif" font-size="10.00">split_link_mem</text>
</g>
<!-- Node6&#45;&gt;Node6 -->
<g id="edge7" class="edge">
<title>Node6&#45;&gt;Node6</title>
<path fill="none" stroke="#9a32cd" stroke-dasharray="5,2" d="M304.9,-81.85C309.62,-80.97 312.5,-79.69 312.5,-78 312.5,-75.29 305.12,-73.63 294.65,-73.02"/>
<polygon fill="#9a32cd" stroke="#9a32cd" points="304.2,-78.4 294.65,-82.98 304.97,-85.36 304.2,-78.4"/>
<text text-anchor="middle" x="325" y="-75.5" font-family="Helvetica,sans-Serif" font-size="10.00"> prev</text>
</g>
<!-- Node7&#45;&gt;Node6 -->
<g id="edge8" class="edge">
<title>Node7&#45;&gt;Node6</title>
<path fill="none" stroke="#9a32cd" stroke-dasharray="5,2" d="M238.5,-126.04C238.5,-113.47 238.5,-97.56 238.5,-87.84"/>
<polygon fill="#9a32cd" stroke="#9a32cd" points="235,-126.37 238.5,-136.37 242,-126.37 235,-126.37"/>
<text text-anchor="middle" x="258.5" y="-109" font-family="Helvetica,sans-Serif" font-size="10.00"> visitors</text>
</g>
</g>
</svg>
