<?xml version="1.0" encoding="UTF-8" standalone="no"?>
<!DOCTYPE svg PUBLIC "-//W3C//DTD SVG 1.1//EN"
 "http://www.w3.org/Graphics/SVG/1.1/DTD/svg11.dtd">
<!-- Generated by graphviz version 2.43.0 (0)
 -->
<!-- Title: BMV2::V1ProgramStructure Pages: 1 -->
<svg width="766pt" height="544pt"
 viewBox="0.00 0.00 766.00 543.50" xmlns="http://www.w3.org/2000/svg" xmlns:xlink="http://www.w3.org/1999/xlink">
<g id="graph0" class="graph" transform="scale(1 1) rotate(0) translate(4 539.5)">
<title>BMV2::V1ProgramStructure</title>
<polygon fill="white" stroke="transparent" points="-4,4 -4,-539.5 762,-539.5 762,4 -4,4"/>
<!-- Node1 -->
<g id="node1" class="node">
<title>Node1</title>
<g id="a_node1"><a xlink:title=" ">
<polygon fill="#bfbfbf" stroke="black" points="609,-420 609,-439 758,-439 758,-420 609,-420"/>
<text text-anchor="middle" x="683.5" y="-427" font-family="Helvetica,sans-Serif" font-size="10.00">BMV2::V1ProgramStructure</text>
</a>
</g>
</g>
<!-- Node2 -->
<g id="node2" class="node">
<title>Node2</title>
<g id="a_node2"><a xlink:href="class_b_m_v2_1_1_program_structure.html" target="_top" xlink:title=" ">
<polygon fill="white" stroke="black" points="435,-300 435,-319 572,-319 572,-300 435,-300"/>
<text text-anchor="middle" x="503.5" y="-307" font-family="Helvetica,sans-Serif" font-size="10.00">BMV2::ProgramStructure</text>
</a>
</g>
</g>
<!-- Node2&#45;&gt;Node1 -->
<g id="edge1" class="edge">
<title>Node2&#45;&gt;Node1</title>
<path fill="none" stroke="midnightblue" d="M527.43,-324.96C564.71,-350.09 637.38,-399.08 668.17,-419.84"/>
<polygon fill="midnightblue" stroke="midnightblue" points="529.01,-321.81 518.77,-319.12 525.1,-327.61 529.01,-321.81"/>
</g>
<!-- Node3 -->
<g id="node3" class="node">
<title>Node3</title>
<g id="a_node3"><a xlink:href="classordered__map.html" target="_top" xlink:title=" ">
<polygon fill="white" stroke="black" points="139,-466.5 139,-496.5 287,-496.5 287,-466.5 139,-466.5"/>
<text text-anchor="start" x="147" y="-484.5" font-family="Helvetica,sans-Serif" font-size="10.00">ordered_map&lt; const</text>
<text text-anchor="middle" x="213" y="-473.5" font-family="Helvetica,sans-Serif" font-size="10.00"> IR::P4Action *, unsigned &gt;</text>
</a>
</g>
</g>
<!-- Node3&#45;&gt;Node2 -->
<g id="edge2" class="edge">
<title>Node3&#45;&gt;Node2</title>
<path fill="none" stroke="#9a32cd" stroke-dasharray="5,2" d="M297.15,-464.81C344.08,-454.27 397.19,-440.11 417,-426.5 458.88,-397.71 487.9,-341.51 498.28,-319.08"/>
<polygon fill="#9a32cd" stroke="#9a32cd" points="296.25,-461.42 287.25,-467 297.77,-468.26 296.25,-461.42"/>
<text text-anchor="middle" x="363" y="-463.5" font-family="Helvetica,sans-Serif" font-size="10.00"> ids</text>
</g>
<!-- Node4 -->
<g id="node4" class="node">
<title>Node4</title>
<g id="a_node4"><a xlink:href="classordered__map.html" target="_top" xlink:title=" ">
<polygon fill="white" stroke="black" points="146,-406 146,-447 280,-447 280,-406 146,-406"/>
<text text-anchor="start" x="154" y="-435" font-family="Helvetica,sans-Serif" font-size="10.00">ordered_map&lt; const</text>
<text text-anchor="start" x="154" y="-424" font-family="Helvetica,sans-Serif" font-size="10.00"> IR::Node *, const IR</text>
<text text-anchor="middle" x="213" y="-413" font-family="Helvetica,sans-Serif" font-size="10.00">::CompileTimeValue * &gt;</text>
</a>
</g>
</g>
<!-- Node4&#45;&gt;Node2 -->
<g id="edge3" class="edge">
<title>Node4&#45;&gt;Node2</title>
<path fill="none" stroke="#9a32cd" stroke-dasharray="5,2" d="M290.46,-415.57C329.66,-408.03 377.37,-395.79 417,-376.5 447.86,-361.48 478.05,-333.95 492.93,-319.29"/>
<polygon fill="#9a32cd" stroke="#9a32cd" points="289.62,-412.17 280.42,-417.43 290.89,-419.05 289.62,-412.17"/>
<text text-anchor="middle" x="363" y="-414.5" font-family="Helvetica,sans-Serif" font-size="10.00"> resourceMap</text>
</g>
<!-- Node5 -->
<g id="node5" class="node">
<title>Node5</title>
<g id="a_node5"><a xlink:title=" ">
<polygon fill="white" stroke="#bfbfbf" points="135,-318.5 135,-348.5 291,-348.5 291,-318.5 135,-318.5"/>
<text text-anchor="start" x="143" y="-336.5" font-family="Helvetica,sans-Serif" font-size="10.00">std::vector&lt; const</text>
<text text-anchor="middle" x="213" y="-325.5" font-family="Helvetica,sans-Serif" font-size="10.00"> IR::Declaration_Variable * &gt;</text>
</a>
</g>
</g>
<!-- Node5&#45;&gt;Node2 -->
<g id="edge4" class="edge">
<title>Node5&#45;&gt;Node2</title>
<path fill="none" stroke="#9a32cd" stroke-dasharray="5,2" d="M301.45,-326.23C344.25,-322.66 395,-318.44 434.8,-315.13"/>
<polygon fill="#9a32cd" stroke="#9a32cd" points="300.99,-322.75 291.31,-327.07 301.57,-329.73 300.99,-322.75"/>
<text text-anchor="middle" x="363" y="-327.5" font-family="Helvetica,sans-Serif" font-size="10.00"> variables</text>
</g>
<!-- Node6 -->
<g id="node6" class="node">
<title>Node6</title>
<g id="a_node6"><a xlink:href="classordered__set.html" target="_top" xlink:title=" ">
<polygon fill="white" stroke="black" points="157,-269.5 157,-299.5 269,-299.5 269,-269.5 157,-269.5"/>
<text text-anchor="start" x="165" y="-287.5" font-family="Helvetica,sans-Serif" font-size="10.00">ordered_set&lt; const</text>
<text text-anchor="middle" x="213" y="-276.5" font-family="Helvetica,sans-Serif" font-size="10.00"> IR::Parameter * &gt;</text>
</a>
</g>
</g>
<!-- Node6&#45;&gt;Node2 -->
<g id="edge5" class="edge">
<title>Node6&#45;&gt;Node2</title>
<path fill="none" stroke="#9a32cd" stroke-dasharray="5,2" d="M279.26,-289.8C319.07,-293.08 370.98,-297.42 417,-301.5 422.79,-302.01 428.8,-302.56 434.83,-303.11"/>
<polygon fill="#9a32cd" stroke="#9a32cd" points="279.41,-286.3 269.15,-288.97 278.83,-293.28 279.41,-286.3"/>
<text text-anchor="middle" x="363" y="-304.5" font-family="Helvetica,sans-Serif" font-size="10.00"> nonActionParameters</text>
</g>
<!-- Node7 -->
<g id="node7" class="node">
<title>Node7</title>
<g id="a_node7"><a xlink:title=" ">
<polygon fill="white" stroke="#bfbfbf" points="159,-516 159,-535 267,-535 267,-516 159,-516"/>
<text text-anchor="middle" x="213" y="-523" font-family="Helvetica,sans-Serif" font-size="10.00">std::set&lt; cstring &gt;</text>
</a>
</g>
</g>
<!-- Node7&#45;&gt;Node1 -->
<g id="edge16" class="edge">
<title>Node7&#45;&gt;Node1</title>
<path fill="none" stroke="#9a32cd" stroke-dasharray="5,2" d="M277.63,-524.87C317.88,-523.54 370.84,-520.1 417,-511.5 508.06,-494.53 611.87,-456.89 658.09,-439.13"/>
<polygon fill="#9a32cd" stroke="#9a32cd" points="277.32,-521.38 267.42,-525.17 277.52,-528.37 277.32,-521.38"/>
<text text-anchor="middle" x="503.5" y="-521.5" font-family="Helvetica,sans-Serif" font-size="10.00"> non_pipeline_controls</text>
<text text-anchor="middle" x="503.5" y="-510.5" font-family="Helvetica,sans-Serif" font-size="10.00">pipeline_controls</text>
</g>
<!-- Node7&#45;&gt;Node2 -->
<g id="edge6" class="edge">
<title>Node7&#45;&gt;Node2</title>
<path fill="none" stroke="#9a32cd" stroke-dasharray="5,2" d="M265.29,-513.45C273.91,-511.25 282.73,-508.89 291,-506.5 299.1,-504.15 300.88,-502.79 309,-500.5 356.42,-487.14 378.12,-505.76 417,-475.5 470.98,-433.49 494.06,-347.96 500.51,-319.19"/>
<polygon fill="#9a32cd" stroke="#9a32cd" points="264.17,-510.12 255.32,-515.95 265.87,-516.91 264.17,-510.12"/>
<text text-anchor="middle" x="363" y="-503.5" font-family="Helvetica,sans-Serif" font-size="10.00"> match_kinds</text>
</g>
<!-- Node8 -->
<g id="node8" class="node">
<title>Node8</title>
<g id="a_node8"><a xlink:href="classcstring.html" target="_top" xlink:title=" ">
<polygon fill="white" stroke="black" points="0,-371 0,-390 50,-390 50,-371 0,-371"/>
<text text-anchor="middle" x="25" y="-378" font-family="Helvetica,sans-Serif" font-size="10.00">cstring</text>
</a>
</g>
</g>
<!-- Node8&#45;&gt;Node7 -->
<g id="edge7" class="edge">
<title>Node8&#45;&gt;Node7</title>
<path fill="none" stroke="#9a32cd" stroke-dasharray="5,2" d="M36.67,-398.88C53.77,-426.64 90,-478.92 135,-506.5 142.28,-510.96 150.55,-514.37 158.9,-516.99"/>
<polygon fill="#9a32cd" stroke="#9a32cd" points="39.59,-396.94 31.44,-390.17 33.58,-400.54 39.59,-396.94"/>
<text text-anchor="middle" x="92.5" y="-496.5" font-family="Helvetica,sans-Serif" font-size="10.00"> keys</text>
</g>
<!-- Node8&#45;&gt;Node8 -->
<g id="edge8" class="edge">
<title>Node8&#45;&gt;Node8</title>
<path fill="none" stroke="#9a32cd" stroke-dasharray="5,2" d="M12.85,-400.27C13.8,-405 17.85,-408.5 25,-408.5 36.73,-408.5 40.12,-399.07 35.17,-390.26"/>
<polygon fill="#9a32cd" stroke="#9a32cd" points="16.32,-400.75 14.83,-390.26 9.45,-399.39 16.32,-400.75"/>
<text text-anchor="middle" x="25" y="-422.5" font-family="Helvetica,sans-Serif" font-size="10.00"> empty</text>
<text text-anchor="middle" x="25" y="-411.5" font-family="Helvetica,sans-Serif" font-size="10.00">newline</text>
</g>
<!-- Node14 -->
<g id="node14" class="node">
<title>Node14</title>
<g id="a_node14"><a xlink:title=" ">
<polygon fill="white" stroke="#bfbfbf" points="146.5,-220.5 146.5,-250.5 279.5,-250.5 279.5,-220.5 146.5,-220.5"/>
<text text-anchor="start" x="154.5" y="-238.5" font-family="Helvetica,sans-Serif" font-size="10.00">std::map&lt; const IR</text>
<text text-anchor="middle" x="213" y="-227.5" font-family="Helvetica,sans-Serif" font-size="10.00">::StructField *, cstring &gt;</text>
</a>
</g>
</g>
<!-- Node8&#45;&gt;Node14 -->
<g id="edge15" class="edge">
<title>Node8&#45;&gt;Node14</title>
<path fill="none" stroke="#9a32cd" stroke-dasharray="5,2" d="M37.89,-362.28C55.89,-336.1 92.47,-287.98 135,-260.5 140.9,-256.69 147.44,-253.41 154.13,-250.6"/>
<polygon fill="#9a32cd" stroke="#9a32cd" points="34.8,-360.6 32.13,-370.85 40.61,-364.51 34.8,-360.6"/>
<text text-anchor="middle" x="92.5" y="-322.5" font-family="Helvetica,sans-Serif" font-size="10.00"> elements</text>
</g>
<!-- Node9 -->
<g id="node9" class="node">
<title>Node9</title>
<g id="a_node9"><a xlink:href="classordered__map.html" target="_top" xlink:title=" ">
<polygon fill="white" stroke="black" points="153.5,-160 153.5,-201 272.5,-201 272.5,-160 153.5,-160"/>
<text text-anchor="start" x="161.5" y="-189" font-family="Helvetica,sans-Serif" font-size="10.00">ordered_map&lt; const</text>
<text text-anchor="start" x="161.5" y="-178" font-family="Helvetica,sans-Serif" font-size="10.00"> IR::P4Action *, const</text>
<text text-anchor="middle" x="213" y="-167" font-family="Helvetica,sans-Serif" font-size="10.00"> IR::P4Control * &gt;</text>
</a>
</g>
</g>
<!-- Node9&#45;&gt;Node2 -->
<g id="edge9" class="edge">
<title>Node9&#45;&gt;Node2</title>
<path fill="none" stroke="#9a32cd" stroke-dasharray="5,2" d="M282.37,-191.6C323.12,-200.07 374.94,-214.17 417,-236.5 449.07,-253.52 479.67,-284.34 494.01,-299.93"/>
<polygon fill="#9a32cd" stroke="#9a32cd" points="283.02,-188.16 272.52,-189.62 281.64,-195.02 283.02,-188.16"/>
<text text-anchor="middle" x="363" y="-239.5" font-family="Helvetica,sans-Serif" font-size="10.00"> actions</text>
</g>
<!-- Node10 -->
<g id="node10" class="node">
<title>Node10</title>
<g id="a_node10"><a xlink:href="classordered__map.html" target="_top" xlink:title=" ">
<polygon fill="white" stroke="black" points="149,-110.5 149,-140.5 277,-140.5 277,-110.5 149,-110.5"/>
<text text-anchor="start" x="157" y="-128.5" font-family="Helvetica,sans-Serif" font-size="10.00">ordered_map&lt; cstring,</text>
<text text-anchor="middle" x="213" y="-117.5" font-family="Helvetica,sans-Serif" font-size="10.00"> const IR::P4Table * &gt;</text>
</a>
</g>
</g>
<!-- Node10&#45;&gt;Node2 -->
<g id="edge10" class="edge">
<title>Node10&#45;&gt;Node2</title>
<path fill="none" stroke="#9a32cd" stroke-dasharray="5,2" d="M287.07,-133.42C328.32,-140.81 379.04,-155.06 417,-182.5 460.94,-214.27 489.14,-276.05 498.79,-299.84"/>
<polygon fill="#9a32cd" stroke="#9a32cd" points="287.52,-129.94 277.07,-131.73 286.35,-136.85 287.52,-129.94"/>
<text text-anchor="middle" x="363" y="-185.5" font-family="Helvetica,sans-Serif" font-size="10.00"> directCounterMap</text>
</g>
<!-- Node11 -->
<g id="node11" class="node">
<title>Node11</title>
<g id="a_node11"><a xlink:href="classordered__map.html" target="_top" xlink:title=" ">
<polygon fill="white" stroke="black" points="153.5,-50 153.5,-91 272.5,-91 272.5,-50 153.5,-50"/>
<text text-anchor="start" x="161.5" y="-79" font-family="Helvetica,sans-Serif" font-size="10.00">ordered_map&lt; const</text>
<text text-anchor="start" x="161.5" y="-68" font-family="Helvetica,sans-Serif" font-size="10.00"> IR::IDeclaration *,</text>
<text text-anchor="middle" x="213" y="-57" font-family="Helvetica,sans-Serif" font-size="10.00"> unsigned int &gt;</text>
</a>
</g>
</g>
<!-- Node11&#45;&gt;Node2 -->
<g id="edge11" class="edge">
<title>Node11&#45;&gt;Node2</title>
<path fill="none" stroke="#9a32cd" stroke-dasharray="5,2" d="M282.65,-73.75C325.54,-79.05 379.53,-92.09 417,-123.5 475.01,-172.13 495.68,-268.6 500.98,-299.64"/>
<polygon fill="#9a32cd" stroke="#9a32cd" points="282.9,-70.25 272.57,-72.62 282.12,-77.21 282.9,-70.25"/>
<text text-anchor="middle" x="363" y="-126.5" font-family="Helvetica,sans-Serif" font-size="10.00"> errorCodesMap</text>
</g>
<!-- Node12 -->
<g id="node12" class="node">
<title>Node12</title>
<g id="a_node12"><a xlink:href="classordered__map.html" target="_top" xlink:title=" ">
<polygon fill="white" stroke="black" points="135.5,-0.5 135.5,-30.5 290.5,-30.5 290.5,-0.5 135.5,-0.5"/>
<text text-anchor="start" x="143.5" y="-18.5" font-family="Helvetica,sans-Serif" font-size="10.00">ordered_map&lt; const</text>
<text text-anchor="middle" x="213" y="-7.5" font-family="Helvetica,sans-Serif" font-size="10.00"> IR::Parameter *, unsigned &gt;</text>
</a>
</g>
</g>
<!-- Node12&#45;&gt;Node2 -->
<g id="edge12" class="edge">
<title>Node12&#45;&gt;Node2</title>
<path fill="none" stroke="#9a32cd" stroke-dasharray="5,2" d="M300.65,-17.47C340.38,-22.63 385.53,-35.09 417,-63.5 490.67,-130 500.87,-263.31 502.27,-299.98"/>
<polygon fill="#9a32cd" stroke="#9a32cd" points="301.02,-13.99 290.68,-16.31 300.21,-20.94 301.02,-13.99"/>
<text text-anchor="middle" x="363" y="-66.5" font-family="Helvetica,sans-Serif" font-size="10.00"> index</text>
</g>
<!-- Node13 -->
<g id="node13" class="node">
<title>Node13</title>
<g id="a_node13"><a xlink:href="class_b_m_v2_1_1_direct_meter_map.html" target="_top" xlink:title=" ">
<polygon fill="white" stroke="black" points="148,-368 148,-387 278,-387 278,-368 148,-368"/>
<text text-anchor="middle" x="213" y="-375" font-family="Helvetica,sans-Serif" font-size="10.00">BMV2::DirectMeterMap</text>
</a>
</g>
</g>
<!-- Node13&#45;&gt;Node2 -->
<g id="edge13" class="edge">
<title>Node13&#45;&gt;Node2</title>
<path fill="none" stroke="#9a32cd" stroke-dasharray="5,2" d="M288.25,-366.39C326.95,-359.9 374.87,-350.76 417,-339.5 438.12,-333.85 461.52,-325.49 478.48,-319.03"/>
<polygon fill="#9a32cd" stroke="#9a32cd" points="287.4,-362.99 278.11,-368.07 288.54,-369.89 287.4,-362.99"/>
<text text-anchor="middle" x="363" y="-364.5" font-family="Helvetica,sans-Serif" font-size="10.00"> directMeterMap</text>
</g>
<!-- Node14&#45;&gt;Node2 -->
<g id="edge14" class="edge">
<title>Node14&#45;&gt;Node2</title>
<path fill="none" stroke="#9a32cd" stroke-dasharray="5,2" d="M289.69,-247.65C328.19,-254.61 375.49,-264.39 417,-276.5 439.15,-282.96 463.64,-292.69 480.71,-299.91"/>
<polygon fill="#9a32cd" stroke="#9a32cd" points="290.05,-244.15 279.59,-245.85 288.82,-251.05 290.05,-244.15"/>
<text text-anchor="middle" x="363" y="-279.5" font-family="Helvetica,sans-Serif" font-size="10.00"> scalarMetadataFields</text>
</g>
</g>
</svg>
