<?xml version="1.0" encoding="UTF-8" standalone="no"?>
<!DOCTYPE svg PUBLIC "-//W3C//DTD SVG 1.1//EN"
 "http://www.w3.org/Graphics/SVG/1.1/DTD/svg11.dtd">
<!-- Generated by graphviz version 2.43.0 (0)
 -->
<!-- Title: EBPF::EbpfCodeGenerator Pages: 1 -->
<svg width="1739pt" height="521pt"
 viewBox="0.00 0.00 1739.00 521.00" xmlns="http://www.w3.org/2000/svg" xmlns:xlink="http://www.w3.org/1999/xlink">
<g id="graph0" class="graph" transform="scale(1 1) rotate(0) translate(4 517)">
<title>EBPF::EbpfCodeGenerator</title>
<polygon fill="white" stroke="transparent" points="-4,4 -4,-517 1735,-517 1735,4 -4,4"/>
<!-- Node1 -->
<g id="node1" class="node">
<title>Node1</title>
<g id="a_node1"><a xlink:title=" ">
<polygon fill="#bfbfbf" stroke="black" points="1589,-466 1589,-485 1731,-485 1731,-466 1589,-466"/>
<text text-anchor="middle" x="1660" y="-473" font-family="Helvetica,sans-Serif" font-size="10.00">EBPF::EbpfCodeGenerator</text>
</a>
</g>
</g>
<!-- Node2 -->
<g id="node2" class="node">
<title>Node2</title>
<g id="a_node2"><a xlink:title=" ">
<polygon fill="white" stroke="#bfbfbf" points="1390,-482.5 1390,-512.5 1500,-512.5 1500,-482.5 1390,-482.5"/>
<text text-anchor="start" x="1398" y="-500.5" font-family="Helvetica,sans-Serif" font-size="10.00">std::vector&lt; EBPF::</text>
<text text-anchor="middle" x="1445" y="-489.5" font-family="Helvetica,sans-Serif" font-size="10.00">EBPFType * &gt;</text>
</a>
</g>
</g>
<!-- Node2&#45;&gt;Node1 -->
<g id="edge1" class="edge">
<title>Node2&#45;&gt;Node1</title>
<path fill="none" stroke="#9a32cd" stroke-dasharray="5,2" d="M1510.08,-490.88C1534.95,-488.31 1563.5,-485.36 1588.92,-482.74"/>
<polygon fill="#9a32cd" stroke="#9a32cd" points="1509.61,-487.41 1500.02,-491.92 1510.33,-494.37 1509.61,-487.41"/>
<text text-anchor="middle" x="1544.5" y="-492.5" font-family="Helvetica,sans-Serif" font-size="10.00"> ebpfTypes</text>
</g>
<!-- Node3 -->
<g id="node3" class="node">
<title>Node3</title>
<g id="a_node3"><a xlink:href="class_e_b_p_f_1_1_e_b_p_f_type.html" target="_top" xlink:title=" ">
<polygon fill="white" stroke="black" points="1209.5,-488 1209.5,-507 1302.5,-507 1302.5,-488 1209.5,-488"/>
<text text-anchor="middle" x="1256" y="-495" font-family="Helvetica,sans-Serif" font-size="10.00">EBPF::EBPFType</text>
</a>
</g>
</g>
<!-- Node3&#45;&gt;Node2 -->
<g id="edge2" class="edge">
<title>Node3&#45;&gt;Node2</title>
<path fill="none" stroke="#9a32cd" stroke-dasharray="5,2" d="M1312.9,-497.5C1337.22,-497.5 1365.62,-497.5 1389.76,-497.5"/>
<polygon fill="#9a32cd" stroke="#9a32cd" points="1312.75,-494 1302.75,-497.5 1312.75,-501 1312.75,-494"/>
<text text-anchor="middle" x="1347.5" y="-500.5" font-family="Helvetica,sans-Serif" font-size="10.00"> elements</text>
</g>
<!-- Node4 -->
<g id="node4" class="node">
<title>Node4</title>
<g id="a_node4"><a xlink:href="class_e_b_p_f_1_1_e_b_p_f_object.html" target="_top" xlink:title=" ">
<polygon fill="white" stroke="black" points="1067,-488 1067,-507 1170,-507 1170,-488 1067,-488"/>
<text text-anchor="middle" x="1118.5" y="-495" font-family="Helvetica,sans-Serif" font-size="10.00">EBPF::EBPFObject</text>
</a>
</g>
</g>
<!-- Node4&#45;&gt;Node3 -->
<g id="edge3" class="edge">
<title>Node4&#45;&gt;Node3</title>
<path fill="none" stroke="midnightblue" d="M1180.35,-497.5C1190.06,-497.5 1199.95,-497.5 1209.23,-497.5"/>
<polygon fill="midnightblue" stroke="midnightblue" points="1180.34,-494 1170.34,-497.5 1180.34,-501 1180.34,-494"/>
</g>
<!-- Node5 -->
<g id="node5" class="node">
<title>Node5</title>
<g id="a_node5"><a xlink:href="class_i_castable.html" target="_top" xlink:title=" ">
<polygon fill="white" stroke="black" points="834.5,-488 834.5,-507 896.5,-507 896.5,-488 834.5,-488"/>
<text text-anchor="middle" x="865.5" y="-495" font-family="Helvetica,sans-Serif" font-size="10.00">ICastable</text>
</a>
</g>
</g>
<!-- Node5&#45;&gt;Node4 -->
<g id="edge4" class="edge">
<title>Node5&#45;&gt;Node4</title>
<path fill="none" stroke="midnightblue" d="M906.98,-497.5C950.44,-497.5 1019.6,-497.5 1066.69,-497.5"/>
<polygon fill="midnightblue" stroke="midnightblue" points="906.78,-494 896.78,-497.5 906.78,-501 906.78,-494"/>
</g>
<!-- Node6 -->
<g id="node6" class="node">
<title>Node6</title>
<g id="a_node6"><a xlink:href="struct_r_t_t_i_1_1_base.html" target="_top" xlink:title=" ">
<polygon fill="white" stroke="black" points="585,-488 585,-507 653,-507 653,-488 585,-488"/>
<text text-anchor="middle" x="619" y="-495" font-family="Helvetica,sans-Serif" font-size="10.00">RTTI::Base</text>
</a>
</g>
</g>
<!-- Node6&#45;&gt;Node5 -->
<g id="edge5" class="edge">
<title>Node6&#45;&gt;Node5</title>
<path fill="none" stroke="midnightblue" d="M663.25,-497.5C712.45,-497.5 791.5,-497.5 834.42,-497.5"/>
<polygon fill="midnightblue" stroke="midnightblue" points="663.23,-494 653.23,-497.5 663.23,-501 663.23,-494"/>
</g>
<!-- Node7 -->
<g id="node7" class="node">
<title>Node7</title>
<g id="a_node7"><a xlink:href="class_ebpf_options.html" target="_top" xlink:title=" ">
<polygon fill="white" stroke="black" points="1407,-444 1407,-463 1483,-463 1483,-444 1407,-444"/>
<text text-anchor="middle" x="1445" y="-451" font-family="Helvetica,sans-Serif" font-size="10.00">EbpfOptions</text>
</a>
</g>
</g>
<!-- Node7&#45;&gt;Node1 -->
<g id="edge6" class="edge">
<title>Node7&#45;&gt;Node1</title>
<path fill="none" stroke="#9a32cd" stroke-dasharray="5,2" d="M1493.06,-458.36C1521.15,-461.26 1557.36,-465 1588.78,-468.25"/>
<polygon fill="#9a32cd" stroke="#9a32cd" points="1493.41,-454.88 1483.1,-457.33 1492.69,-461.84 1493.41,-454.88"/>
<text text-anchor="middle" x="1544.5" y="-468.5" font-family="Helvetica,sans-Serif" font-size="10.00"> options</text>
</g>
<!-- Node8 -->
<g id="node8" class="node">
<title>Node8</title>
<g id="a_node8"><a xlink:href="class_compiler_options.html" target="_top" xlink:title=" ">
<polygon fill="white" stroke="black" points="1207,-289 1207,-308 1305,-308 1305,-289 1207,-289"/>
<text text-anchor="middle" x="1256" y="-296" font-family="Helvetica,sans-Serif" font-size="10.00">CompilerOptions</text>
</a>
</g>
</g>
<!-- Node8&#45;&gt;Node7 -->
<g id="edge7" class="edge">
<title>Node8&#45;&gt;Node7</title>
<path fill="none" stroke="midnightblue" d="M1276.67,-314.8C1315.53,-347.02 1401.09,-417.93 1432.31,-443.81"/>
<polygon fill="midnightblue" stroke="midnightblue" points="1278.63,-311.88 1268.7,-308.2 1274.16,-317.27 1278.63,-311.88"/>
</g>
<!-- Node9 -->
<g id="node9" class="node">
<title>Node9</title>
<g id="a_node9"><a xlink:href="class_parser_options.html" target="_top" xlink:title=" ">
<polygon fill="white" stroke="black" points="1076.5,-200 1076.5,-219 1160.5,-219 1160.5,-200 1076.5,-200"/>
<text text-anchor="middle" x="1118.5" y="-207" font-family="Helvetica,sans-Serif" font-size="10.00">ParserOptions</text>
</a>
</g>
</g>
<!-- Node9&#45;&gt;Node8 -->
<g id="edge8" class="edge">
<title>Node9&#45;&gt;Node8</title>
<path fill="none" stroke="midnightblue" d="M1166.43,-222.49C1174.25,-225.54 1182.06,-229.2 1189,-233.5 1213.6,-248.76 1236.24,-274.69 1247.51,-288.75"/>
<polygon fill="midnightblue" stroke="midnightblue" points="1167.55,-219.17 1156.95,-219.05 1165.16,-225.75 1167.55,-219.17"/>
</g>
<!-- Node10 -->
<g id="node10" class="node">
<title>Node10</title>
<g id="a_node10"><a xlink:href="class_util_1_1_options.html" target="_top" xlink:title=" ">
<polygon fill="white" stroke="black" points="827,-135 827,-154 904,-154 904,-135 827,-135"/>
<text text-anchor="middle" x="865.5" y="-142" font-family="Helvetica,sans-Serif" font-size="10.00">Util::Options</text>
</a>
</g>
</g>
<!-- Node10&#45;&gt;Node9 -->
<g id="edge9" class="edge">
<title>Node10&#45;&gt;Node9</title>
<path fill="none" stroke="midnightblue" d="M913.17,-156.59C961.56,-169.12 1036.22,-188.45 1080.64,-199.95"/>
<polygon fill="midnightblue" stroke="midnightblue" points="913.82,-153.14 903.27,-154.02 912.07,-159.92 913.82,-153.14"/>
</g>
<!-- Node11 -->
<g id="node11" class="node">
<title>Node11</title>
<g id="a_node11"><a xlink:title=" ">
<polygon fill="white" stroke="#bfbfbf" points="564,-44 564,-85 674,-85 674,-44 564,-44"/>
<text text-anchor="start" x="572" y="-73" font-family="Helvetica,sans-Serif" font-size="10.00">std::map&lt; cstring,</text>
<text text-anchor="start" x="572" y="-62" font-family="Helvetica,sans-Serif" font-size="10.00"> const Util::Options</text>
<text text-anchor="middle" x="619" y="-51" font-family="Helvetica,sans-Serif" font-size="10.00">::Option * &gt;</text>
</a>
</g>
</g>
<!-- Node11&#45;&gt;Node10 -->
<g id="edge10" class="edge">
<title>Node11&#45;&gt;Node10</title>
<path fill="none" stroke="#9a32cd" stroke-dasharray="5,2" d="M684.76,-67.37C722.48,-71.06 770.12,-79.3 809,-97.5 828.21,-106.49 846.11,-123.92 856.14,-134.84"/>
<polygon fill="#9a32cd" stroke="#9a32cd" points="684.67,-63.85 674.4,-66.44 684.05,-70.82 684.67,-63.85"/>
<text text-anchor="middle" x="754" y="-100.5" font-family="Helvetica,sans-Serif" font-size="10.00"> options</text>
</g>
<!-- Node12 -->
<g id="node12" class="node">
<title>Node12</title>
<g id="a_node12"><a xlink:href="classcstring.html" target="_top" xlink:title=" ">
<polygon fill="white" stroke="black" points="156,-204 156,-223 206,-223 206,-204 156,-204"/>
<text text-anchor="middle" x="181" y="-211" font-family="Helvetica,sans-Serif" font-size="10.00">cstring</text>
</a>
</g>
</g>
<!-- Node12&#45;&gt;Node7 -->
<g id="edge27" class="edge">
<title>Node12&#45;&gt;Node7</title>
<path fill="none" stroke="#9a32cd" stroke-dasharray="5,2" d="M186.88,-232.69C202.75,-290.09 258.55,-456.5 372,-456.5 372,-456.5 372,-456.5 1257,-456.5 1308.95,-456.5 1369.01,-455.33 1406.75,-454.45"/>
<polygon fill="#9a32cd" stroke="#9a32cd" points="190.26,-231.79 184.31,-223.03 183.5,-233.59 190.26,-231.79"/>
<text text-anchor="middle" x="865.5" y="-459.5" font-family="Helvetica,sans-Serif" font-size="10.00"> outputFile</text>
</g>
<!-- Node12&#45;&gt;Node8 -->
<g id="edge25" class="edge">
<title>Node12&#45;&gt;Node8</title>
<path fill="none" stroke="#9a32cd" stroke-dasharray="5,2" d="M194.26,-231.69C221.44,-269.58 290.79,-353.5 372,-353.5 372,-353.5 372,-353.5 1119.5,-353.5 1167.23,-353.5 1217.93,-323.84 1241.5,-308.08"/>
<polygon fill="#9a32cd" stroke="#9a32cd" points="196.88,-229.32 188.28,-223.12 191.14,-233.33 196.88,-229.32"/>
<text text-anchor="middle" x="754" y="-433.5" font-family="Helvetica,sans-Serif" font-size="10.00"> arch</text>
<text text-anchor="middle" x="754" y="-422.5" font-family="Helvetica,sans-Serif" font-size="10.00">dumpJsonFile</text>
<text text-anchor="middle" x="754" y="-411.5" font-family="Helvetica,sans-Serif" font-size="10.00">p4RuntimeEntriesFile</text>
<text text-anchor="middle" x="754" y="-400.5" font-family="Helvetica,sans-Serif" font-size="10.00">p4RuntimeEntriesFiles</text>
<text text-anchor="middle" x="754" y="-389.5" font-family="Helvetica,sans-Serif" font-size="10.00">p4RuntimeFile</text>
<text text-anchor="middle" x="754" y="-378.5" font-family="Helvetica,sans-Serif" font-size="10.00">p4RuntimeFiles</text>
<text text-anchor="middle" x="754" y="-367.5" font-family="Helvetica,sans-Serif" font-size="10.00">prettyPrintFile</text>
<text text-anchor="middle" x="754" y="-356.5" font-family="Helvetica,sans-Serif" font-size="10.00">target</text>
</g>
<!-- Node12&#45;&gt;Node9 -->
<g id="edge23" class="edge">
<title>Node12&#45;&gt;Node9</title>
<path fill="none" stroke="#9a32cd" stroke-dasharray="5,2" d="M216.01,-220.08C230.46,-222.69 247.51,-225.53 263,-227.5 554.52,-264.56 628.37,-269.49 922,-281.5 978.4,-283.81 997.13,-303.75 1049,-281.5 1078.97,-268.65 1102.02,-235.53 1112.04,-219.07"/>
<polygon fill="#9a32cd" stroke="#9a32cd" points="216.49,-216.6 206.02,-218.23 215.22,-223.49 216.49,-216.6"/>
<text text-anchor="middle" x="619" y="-327.5" font-family="Helvetica,sans-Serif" font-size="10.00"> compilerVersion</text>
<text text-anchor="middle" x="619" y="-316.5" font-family="Helvetica,sans-Serif" font-size="10.00">dumpFolder</text>
<text text-anchor="middle" x="619" y="-305.5" font-family="Helvetica,sans-Serif" font-size="10.00">exe_name</text>
<text text-anchor="middle" x="619" y="-294.5" font-family="Helvetica,sans-Serif" font-size="10.00">file</text>
<text text-anchor="start" x="578" y="-283.5" font-family="Helvetica,sans-Serif" font-size="10.00">preprocessor</text>
<text text-anchor="middle" x="619" y="-272.5" font-family="Helvetica,sans-Serif" font-size="10.00">_options</text>
</g>
<!-- Node12&#45;&gt;Node10 -->
<g id="edge16" class="edge">
<title>Node12&#45;&gt;Node10</title>
<path fill="none" stroke="#9a32cd" stroke-dasharray="5,2" d="M216.32,-208.06C267.07,-200.18 365.16,-185.53 449,-176.5 588.01,-161.53 753.92,-150.93 826.9,-146.63"/>
<polygon fill="#9a32cd" stroke="#9a32cd" points="215.58,-204.64 206.24,-209.64 216.66,-211.55 215.58,-204.64"/>
<text text-anchor="middle" x="494" y="-201.5" font-family="Helvetica,sans-Serif" font-size="10.00"> buildDate</text>
<text text-anchor="middle" x="494" y="-190.5" font-family="Helvetica,sans-Serif" font-size="10.00">compileCommand</text>
<text text-anchor="middle" x="494" y="-179.5" font-family="Helvetica,sans-Serif" font-size="10.00">message</text>
</g>
<!-- Node12&#45;&gt;Node11 -->
<g id="edge11" class="edge">
<title>Node12&#45;&gt;Node11</title>
<path fill="none" stroke="#9a32cd" stroke-dasharray="5,2" d="M194.05,-195.28C214.66,-166.14 259.83,-110.47 315,-92.5 398.76,-65.22 501.96,-61.6 563.74,-62.39"/>
<polygon fill="#9a32cd" stroke="#9a32cd" points="191.02,-193.51 188.24,-203.73 196.79,-197.48 191.02,-193.51"/>
<text text-anchor="middle" x="373" y="-95.5" font-family="Helvetica,sans-Serif" font-size="10.00"> keys</text>
</g>
<!-- Node12&#45;&gt;Node12 -->
<g id="edge12" class="edge">
<title>Node12&#45;&gt;Node12</title>
<path fill="none" stroke="#9a32cd" stroke-dasharray="5,2" d="M165.9,-233.27C167.09,-238 172.12,-241.5 181,-241.5 195.57,-241.5 199.79,-232.07 193.64,-223.26"/>
<polygon fill="#9a32cd" stroke="#9a32cd" points="169.37,-233.8 168.36,-223.26 162.57,-232.13 169.37,-233.8"/>
<text text-anchor="middle" x="181" y="-255.5" font-family="Helvetica,sans-Serif" font-size="10.00"> empty</text>
<text text-anchor="middle" x="181" y="-244.5" font-family="Helvetica,sans-Serif" font-size="10.00">newline</text>
</g>
<!-- Node13 -->
<g id="node13" class="node">
<title>Node13</title>
<g id="a_node13"><a xlink:href="class_util_1_1_options.html#struct_util_1_1_options_1_1_option" target="_top" xlink:title=" ">
<polygon fill="white" stroke="black" points="315,-113 315,-132 431,-132 431,-113 315,-113"/>
<text text-anchor="middle" x="373" y="-120" font-family="Helvetica,sans-Serif" font-size="10.00">Util::Options::Option</text>
</a>
</g>
</g>
<!-- Node12&#45;&gt;Node13 -->
<g id="edge14" class="edge">
<title>Node12&#45;&gt;Node13</title>
<path fill="none" stroke="#9a32cd" stroke-dasharray="5,2" d="M195.3,-196.15C209.87,-178.51 234.92,-151.94 263,-138.5 278.96,-130.86 297.62,-126.66 314.94,-124.4"/>
<polygon fill="#9a32cd" stroke="#9a32cd" points="192.54,-194 189.03,-203.99 198.01,-198.37 192.54,-194"/>
<text text-anchor="middle" x="280" y="-141.5" font-family="Helvetica,sans-Serif" font-size="10.00"> option</text>
</g>
<!-- Node15 -->
<g id="node15" class="node">
<title>Node15</title>
<g id="a_node15"><a xlink:title=" ">
<polygon fill="white" stroke="#bfbfbf" points="557,-204 557,-223 681,-223 681,-204 557,-204"/>
<text text-anchor="middle" x="619" y="-211" font-family="Helvetica,sans-Serif" font-size="10.00">std::vector&lt; cstring &gt;</text>
</a>
</g>
</g>
<!-- Node12&#45;&gt;Node15 -->
<g id="edge18" class="edge">
<title>Node12&#45;&gt;Node15</title>
<path fill="none" stroke="#9a32cd" stroke-dasharray="5,2" d="M216.16,-213.5C289.71,-213.5 463.91,-213.5 556.95,-213.5"/>
<polygon fill="#9a32cd" stroke="#9a32cd" points="216.06,-210 206.06,-213.5 216.06,-217 216.06,-210"/>
<text text-anchor="middle" x="373" y="-216.5" font-family="Helvetica,sans-Serif" font-size="10.00"> elements</text>
</g>
<!-- Node13&#45;&gt;Node11 -->
<g id="edge13" class="edge">
<title>Node13&#45;&gt;Node11</title>
<path fill="none" stroke="#9a32cd" stroke-dasharray="5,2" d="M433.61,-110.97C465.08,-104.6 504.28,-96.22 539,-87.5 547.04,-85.48 555.48,-83.2 563.75,-80.87"/>
<polygon fill="#9a32cd" stroke="#9a32cd" points="432.79,-107.56 423.68,-112.96 434.17,-114.43 432.79,-107.56"/>
<text text-anchor="middle" x="494" y="-110.5" font-family="Helvetica,sans-Serif" font-size="10.00"> elements</text>
</g>
<!-- Node14 -->
<g id="node14" class="node">
<title>Node14</title>
<g id="a_node14"><a xlink:title=" ">
<polygon fill="white" stroke="#bfbfbf" points="566,-104.5 566,-134.5 672,-134.5 672,-104.5 566,-104.5"/>
<text text-anchor="start" x="574" y="-122.5" font-family="Helvetica,sans-Serif" font-size="10.00">std::vector&lt; const</text>
<text text-anchor="middle" x="619" y="-111.5" font-family="Helvetica,sans-Serif" font-size="10.00"> char * &gt;</text>
</a>
</g>
</g>
<!-- Node14&#45;&gt;Node10 -->
<g id="edge15" class="edge">
<title>Node14&#45;&gt;Node10</title>
<path fill="none" stroke="#9a32cd" stroke-dasharray="5,2" d="M682.51,-113.6C719.65,-111.63 767.46,-111.79 809,-120.5 822.36,-123.3 836.46,-129.45 847.11,-134.82"/>
<polygon fill="#9a32cd" stroke="#9a32cd" points="682.11,-110.11 672.33,-114.2 682.52,-117.1 682.11,-110.11"/>
<text text-anchor="middle" x="754" y="-134.5" font-family="Helvetica,sans-Serif" font-size="10.00"> additionalUsage</text>
<text text-anchor="middle" x="754" y="-123.5" font-family="Helvetica,sans-Serif" font-size="10.00">remainingOptions</text>
</g>
<!-- Node15&#45;&gt;Node8 -->
<g id="edge26" class="edge">
<title>Node15&#45;&gt;Node8</title>
<path fill="none" stroke="#9a32cd" stroke-dasharray="5,2" d="M691.31,-224.4C693.91,-224.77 696.48,-225.14 699,-225.5 886.73,-252.08 1110.6,-280.47 1206.99,-292.53"/>
<polygon fill="#9a32cd" stroke="#9a32cd" points="691.63,-220.91 681.22,-222.92 690.61,-227.83 691.63,-220.91"/>
<text text-anchor="middle" x="985.5" y="-296.5" font-family="Helvetica,sans-Serif" font-size="10.00"> passesToExcludeBackend</text>
<text text-anchor="middle" x="985.5" y="-285.5" font-family="Helvetica,sans-Serif" font-size="10.00">passesToExcludeFrontend</text>
<text text-anchor="middle" x="985.5" y="-274.5" font-family="Helvetica,sans-Serif" font-size="10.00">passesToExcludeMidend</text>
</g>
<!-- Node15&#45;&gt;Node9 -->
<g id="edge24" class="edge">
<title>Node15&#45;&gt;Node9</title>
<path fill="none" stroke="#9a32cd" stroke-dasharray="5,2" d="M691.25,-212.93C796.84,-212.08 991.5,-210.51 1076.26,-209.83"/>
<polygon fill="#9a32cd" stroke="#9a32cd" points="690.97,-209.43 681,-213.01 691.03,-216.43 690.97,-209.43"/>
<text text-anchor="middle" x="865.5" y="-214.5" font-family="Helvetica,sans-Serif" font-size="10.00"> top4</text>
</g>
<!-- Node15&#45;&gt;Node10 -->
<g id="edge17" class="edge">
<title>Node15&#45;&gt;Node10</title>
<path fill="none" stroke="#9a32cd" stroke-dasharray="5,2" d="M660.22,-201.14C672.6,-197.51 686.31,-193.67 699,-190.5 747.46,-178.4 761.28,-182.24 809,-167.5 820.86,-163.84 833.69,-158.61 844.02,-154.06"/>
<polygon fill="#9a32cd" stroke="#9a32cd" points="659.21,-197.79 650.61,-203.99 661.2,-204.5 659.21,-197.79"/>
<text text-anchor="middle" x="754" y="-193.5" font-family="Helvetica,sans-Serif" font-size="10.00"> optionOrder</text>
</g>
<!-- Node16 -->
<g id="node16" class="node">
<title>Node16</title>
<g id="a_node16"><a xlink:title=" ">
<polygon fill="white" stroke="#bfbfbf" points="580,-6 580,-25 658,-25 658,-6 580,-6"/>
<text text-anchor="middle" x="619" y="-13" font-family="Helvetica,sans-Serif" font-size="10.00">std::ostream</text>
</a>
</g>
</g>
<!-- Node16&#45;&gt;Node10 -->
<g id="edge19" class="edge">
<title>Node16&#45;&gt;Node10</title>
<path fill="none" stroke="#9a32cd" stroke-dasharray="5,2" d="M668.5,-15.16C709.35,-17.14 767.59,-25.51 809,-54.5 838.17,-74.93 855,-116.08 861.44,-134.81"/>
<polygon fill="#9a32cd" stroke="#9a32cd" points="668.37,-11.65 658.24,-14.78 668.11,-18.65 668.37,-11.65"/>
<text text-anchor="middle" x="754" y="-57.5" font-family="Helvetica,sans-Serif" font-size="10.00"> outStream</text>
</g>
<!-- Node17 -->
<g id="node17" class="node">
<title>Node17</title>
<g id="a_node17"><a xlink:title=" ">
<polygon fill="white" stroke="#bfbfbf" points="318.5,-0.5 318.5,-30.5 427.5,-30.5 427.5,-0.5 318.5,-0.5"/>
<text text-anchor="start" x="326.5" y="-18.5" font-family="Helvetica,sans-Serif" font-size="10.00">std::basic_ostream</text>
<text text-anchor="middle" x="373" y="-7.5" font-family="Helvetica,sans-Serif" font-size="10.00">&lt; Char &gt;</text>
</a>
</g>
</g>
<!-- Node17&#45;&gt;Node16 -->
<g id="edge20" class="edge">
<title>Node17&#45;&gt;Node16</title>
<path fill="none" stroke="midnightblue" d="M437.81,-15.5C482.86,-15.5 541.74,-15.5 579.72,-15.5"/>
<polygon fill="midnightblue" stroke="midnightblue" points="437.55,-12 427.55,-15.5 437.55,-19 437.55,-12"/>
</g>
<!-- Node18 -->
<g id="node18" class="node">
<title>Node18</title>
<g id="a_node18"><a xlink:title=" ">
<polygon fill="white" stroke="#bfbfbf" points="117,-6 117,-25 245,-25 245,-6 117,-6"/>
<text text-anchor="middle" x="181" y="-13" font-family="Helvetica,sans-Serif" font-size="10.00">std::basic_ios&lt; Char &gt;</text>
</a>
</g>
</g>
<!-- Node18&#45;&gt;Node17 -->
<g id="edge21" class="edge">
<title>Node18&#45;&gt;Node17</title>
<path fill="none" stroke="midnightblue" d="M255.19,-15.5C276.22,-15.5 298.77,-15.5 318.38,-15.5"/>
<polygon fill="midnightblue" stroke="midnightblue" points="255,-12 245,-15.5 255,-19 255,-12"/>
</g>
<!-- Node19 -->
<g id="node19" class="node">
<title>Node19</title>
<g id="a_node19"><a xlink:title=" ">
<polygon fill="white" stroke="#bfbfbf" points="0,-6 0,-25 80,-25 80,-6 0,-6"/>
<text text-anchor="middle" x="40" y="-13" font-family="Helvetica,sans-Serif" font-size="10.00">std::ios_base</text>
</a>
</g>
</g>
<!-- Node19&#45;&gt;Node18 -->
<g id="edge22" class="edge">
<title>Node19&#45;&gt;Node18</title>
<path fill="none" stroke="midnightblue" d="M90.28,-15.5C98.85,-15.5 107.87,-15.5 116.75,-15.5"/>
<polygon fill="midnightblue" stroke="midnightblue" points="90.09,-12 80.09,-15.5 90.09,-19 90.09,-12"/>
</g>
</g>
</svg>
