<?xml version="1.0" encoding="UTF-8" standalone="no"?>
<!DOCTYPE svg PUBLIC "-//W3C//DTD SVG 1.1//EN"
 "http://www.w3.org/Graphics/SVG/1.1/DTD/svg11.dtd">
<!-- Generated by graphviz version 2.43.0 (0)
 -->
<!-- Title: P4::ControlPlaneAPI::Standard::BFRuntimeArchHandler&lt; arch &gt; Pages: 1 -->
<!--zoomable 314 -->
<svg id="main" version="1.1" xmlns="http://www.w3.org/2000/svg" xmlns:xlink="http://www.w3.org/1999/xlink" xml:space="preserve" onload="init(evt)">
<style type="text/css"><![CDATA[
.edge:hover path { stroke: red; }
.edge:hover polygon { stroke: red; fill: red; }
]]></style>
<script type="text/javascript"><![CDATA[
var edges = document.getElementsByTagName('g');
if (edges && edges.length) {
  for (var i=0;i<edges.length;i++) {
    if (edges[i].id.substr(0,4)=='edge') {
      edges[i].setAttribute('class','edge');
    }
  }
}
]]></script>
        <defs>
                <circle id="rim" cx="0" cy="0" r="7"/>
                <circle id="rim2" cx="0" cy="0" r="3.5"/>
                <g id="zoomPlus">
                        <use xlink:href="#rim" fill="#404040">
                                <set attributeName="fill" to="#808080" begin="zoomplus.mouseover" end="zoomplus.mouseout"/>
                        </use>
                        <path d="M-4,0h8M0,-4v8" fill="none" stroke="white" stroke-width="1.5" pointer-events="none"/>
                </g>
                <g id="zoomMin">
                        <use xlink:href="#rim" fill="#404040">
                                <set attributeName="fill" to="#808080" begin="zoomminus.mouseover" end="zoomminus.mouseout"/>
                        </use>
                        <path d="M-4,0h8" fill="none" stroke="white" stroke-width="1.5" pointer-events="none"/>
                </g>
                <g id="dirArrow">
                        <path fill="none" stroke="white" stroke-width="1.5" d="M0,-3.0v7 M-2.5,-0.5L0,-3.0L2.5,-0.5"/>
                </g>
               <g id="resetDef">
                       <use xlink:href="#rim2" fill="#404040">
                               <set attributeName="fill" to="#808080" begin="reset.mouseover" end="reset.mouseout"/>
                       </use>
               </g>
        </defs>

<script type="text/javascript">
var viewWidth = 1154;
var viewHeight = 314;
var sectionId = 'dynsection-1';
</script>
<script xlink:href="svgpan.js"/>
<svg id="graph" class="graph">
<g id="viewport">
<title>P4::ControlPlaneAPI::Standard::BFRuntimeArchHandler&lt; arch &gt;</title>
<polygon fill="white" stroke="transparent" points="-4,4 -4,-309.5 1150,-309.5 1150,4 -4,4"/>
<!-- Node1 -->
<g id="node1" class="node">
<title>Node1</title>
<g id="a_node1"><a xlink:title=" ">
<polygon fill="#bfbfbf" stroke="black" points="960,-51.5 960,-92.5 1146,-92.5 1146,-51.5 960,-51.5"/>
<text text-anchor="start" x="968" y="-80.5" font-family="Helvetica,sans-Serif" font-size="10.00">P4::ControlPlaneAPI</text>
<text text-anchor="start" x="968" y="-69.5" font-family="Helvetica,sans-Serif" font-size="10.00">::Standard::BFRuntimeArchHandler</text>
<text text-anchor="middle" x="1053" y="-58.5" font-family="Helvetica,sans-Serif" font-size="10.00">&lt; arch &gt;</text>
</a>
</g>
</g>
<!-- Node2 -->
<g id="node2" class="node">
<title>Node2</title>
<g id="a_node2"><a xlink:href="class_p4_1_1_control_plane_a_p_i_1_1_standard_1_1_p4_runtime_arch_handler_common.html" target="_top" xlink:title=" ">
<polygon fill="white" stroke="black" points="738,-149.5 738,-190.5 923,-190.5 923,-149.5 738,-149.5"/>
<text text-anchor="start" x="746" y="-178.5" font-family="Helvetica,sans-Serif" font-size="10.00">P4::ControlPlaneAPI</text>
<text text-anchor="start" x="746" y="-167.5" font-family="Helvetica,sans-Serif" font-size="10.00">::Standard::P4RuntimeArchHandler</text>
<text text-anchor="middle" x="830.5" y="-156.5" font-family="Helvetica,sans-Serif" font-size="10.00">Common&lt; arch &gt;</text>
</a>
</g>
</g>
<!-- Node2&#45;&gt;Node1 -->
<g id="edge1" class="edge">
<title>Node2&#45;&gt;Node1</title>
<path fill="none" stroke="midnightblue" d="M887.28,-145.21C923.93,-128.92 971.31,-107.86 1005.84,-92.52"/>
<polygon fill="midnightblue" stroke="midnightblue" points="885.44,-142.2 877.72,-149.46 888.28,-148.59 885.44,-142.2"/>
</g>
<!-- Node3 -->
<g id="node3" class="node">
<title>Node3</title>
<g id="a_node3"><a xlink:href="class_p4_1_1_control_plane_a_p_i_1_1_p4_runtime_arch_handler_iface.html" target="_top" xlink:title=" ">
<polygon fill="white" stroke="black" points="434,-275 434,-305 594,-305 594,-275 434,-275"/>
<text text-anchor="start" x="442" y="-293" font-family="Helvetica,sans-Serif" font-size="10.00">P4::ControlPlaneAPI</text>
<text text-anchor="middle" x="514" y="-282" font-family="Helvetica,sans-Serif" font-size="10.00">::P4RuntimeArchHandlerIface</text>
</a>
</g>
</g>
<!-- Node3&#45;&gt;Node2 -->
<g id="edge2" class="edge">
<title>Node3&#45;&gt;Node2</title>
<path fill="none" stroke="midnightblue" d="M604.47,-279.95C641.31,-273.72 683.77,-263.77 720,-248 752.74,-233.75 785.46,-208.67 806.49,-190.8"/>
<polygon fill="midnightblue" stroke="midnightblue" points="603.55,-276.56 594.23,-281.61 604.67,-283.47 603.55,-276.56"/>
</g>
<!-- Node4 -->
<g id="node4" class="node">
<title>Node4</title>
<g id="a_node4"><a xlink:title=" ">
<polygon fill="white" stroke="#bfbfbf" points="455,-236.5 455,-255.5 573,-255.5 573,-236.5 455,-236.5"/>
<text text-anchor="middle" x="514" y="-243.5" font-family="Helvetica,sans-Serif" font-size="10.00">std::set&lt; p4rt_id_t &gt;</text>
</a>
</g>
</g>
<!-- Node4&#45;&gt;Node2 -->
<g id="edge3" class="edge">
<title>Node4&#45;&gt;Node2</title>
<path fill="none" stroke="#9a32cd" stroke-dasharray="5,2" d="M583.08,-238.22C623.34,-232.75 675.07,-224.21 720,-212 740.83,-206.34 763.18,-198.17 782.23,-190.53"/>
<polygon fill="#9a32cd" stroke="#9a32cd" points="582.56,-234.76 573.11,-239.54 583.48,-241.69 582.56,-234.76"/>
<text text-anchor="middle" x="666" y="-236" font-family="Helvetica,sans-Serif" font-size="10.00"> serializedInstances</text>
</g>
<!-- Node5 -->
<g id="node5" class="node">
<title>Node5</title>
<g id="a_node5"><a xlink:title=" ">
<polygon fill="white" stroke="#bfbfbf" points="192,-242.5 192,-261.5 251,-261.5 251,-242.5 192,-242.5"/>
<text text-anchor="middle" x="221.5" y="-249.5" font-family="Helvetica,sans-Serif" font-size="10.00">p4rt_id_t</text>
</a>
</g>
</g>
<!-- Node5&#45;&gt;Node4 -->
<g id="edge4" class="edge">
<title>Node5&#45;&gt;Node4</title>
<path fill="none" stroke="#9a32cd" stroke-dasharray="5,2" d="M261.15,-251.2C310.77,-250.18 397.32,-248.39 454.89,-247.2"/>
<polygon fill="#9a32cd" stroke="#9a32cd" points="261.07,-247.7 251.15,-251.41 261.22,-254.7 261.07,-247.7"/>
<text text-anchor="middle" x="359" y="-253" font-family="Helvetica,sans-Serif" font-size="10.00"> keys</text>
</g>
<!-- Node6 -->
<g id="node6" class="node">
<title>Node6</title>
<g id="a_node6"><a xlink:title=" ">
<polygon fill="white" stroke="#bfbfbf" points="465.5,-198.5 465.5,-217.5 562.5,-217.5 562.5,-198.5 465.5,-198.5"/>
<text text-anchor="middle" x="514" y="-205.5" font-family="Helvetica,sans-Serif" font-size="10.00">JsonPrintOptions</text>
</a>
</g>
</g>
<!-- Node6&#45;&gt;Node2 -->
<g id="edge5" class="edge">
<title>Node6&#45;&gt;Node2</title>
<path fill="none" stroke="#9a32cd" stroke-dasharray="5,2" d="M572.78,-201.9C613.87,-197.47 670.36,-191.18 720,-185 725.81,-184.28 731.79,-183.51 737.81,-182.73"/>
<polygon fill="#9a32cd" stroke="#9a32cd" points="572.24,-198.44 562.67,-202.98 572.99,-205.4 572.24,-198.44"/>
<text text-anchor="middle" x="666" y="-200" font-family="Helvetica,sans-Serif" font-size="10.00"> jsonPrintOptions</text>
</g>
<!-- Node7 -->
<g id="node7" class="node">
<title>Node7</title>
<g id="a_node7"><a xlink:href="class_p4_1_1_type_map.html" target="_top" xlink:title=" ">
<polygon fill="white" stroke="black" points="475,-122.5 475,-141.5 553,-141.5 553,-122.5 475,-122.5"/>
<text text-anchor="middle" x="514" y="-129.5" font-family="Helvetica,sans-Serif" font-size="10.00">P4::TypeMap</text>
</a>
</g>
</g>
<!-- Node7&#45;&gt;Node2 -->
<g id="edge6" class="edge">
<title>Node7&#45;&gt;Node2</title>
<path fill="none" stroke="#9a32cd" stroke-dasharray="5,2" d="M563.31,-137.08C604.88,-141.54 666.43,-148.33 720,-155 725.81,-155.72 731.79,-156.49 737.81,-157.27"/>
<polygon fill="#9a32cd" stroke="#9a32cd" points="563.51,-133.59 553.19,-136 562.76,-140.55 563.51,-133.59"/>
<text text-anchor="middle" x="666" y="-158" font-family="Helvetica,sans-Serif" font-size="10.00"> typeMap</text>
</g>
<!-- Node8 -->
<g id="node8" class="node">
<title>Node8</title>
<g id="a_node8"><a xlink:href="class_p4_1_1_program_map.html" target="_top" xlink:title=" ">
<polygon fill="white" stroke="black" points="173,-128.5 173,-147.5 270,-147.5 270,-128.5 173,-128.5"/>
<text text-anchor="middle" x="221.5" y="-135.5" font-family="Helvetica,sans-Serif" font-size="10.00">P4::ProgramMap</text>
</a>
</g>
</g>
<!-- Node8&#45;&gt;Node7 -->
<g id="edge7" class="edge">
<title>Node8&#45;&gt;Node7</title>
<path fill="none" stroke="midnightblue" d="M280.2,-136.81C337.88,-135.62 424.92,-133.82 474.62,-132.79"/>
<polygon fill="midnightblue" stroke="midnightblue" points="280.07,-133.31 270.14,-137.02 280.22,-140.31 280.07,-133.31"/>
</g>
<!-- Node11 -->
<g id="node11" class="node">
<title>Node11</title>
<g id="a_node11"><a xlink:href="class_p4_1_1_reference_map.html" target="_top" xlink:title="Class used to encode maps from paths to declarations.">
<polygon fill="white" stroke="black" points="461.5,-160.5 461.5,-179.5 566.5,-179.5 566.5,-160.5 461.5,-160.5"/>
<text text-anchor="middle" x="514" y="-167.5" font-family="Helvetica,sans-Serif" font-size="10.00">P4::ReferenceMap</text>
</a>
</g>
</g>
<!-- Node8&#45;&gt;Node11 -->
<g id="edge12" class="edge">
<title>Node8&#45;&gt;Node11</title>
<path fill="none" stroke="midnightblue" d="M280.37,-144.37C333.22,-150.2 410.63,-158.72 461.41,-164.32"/>
<polygon fill="midnightblue" stroke="midnightblue" points="280.47,-140.86 270.14,-143.25 279.7,-147.82 280.47,-140.86"/>
</g>
<!-- Node9 -->
<g id="node9" class="node">
<title>Node9</title>
<g id="a_node9"><a xlink:href="class_i_has_db_print.html" target="_top" xlink:title=" ">
<polygon fill="white" stroke="black" points="0,-148.5 0,-167.5 74,-167.5 74,-148.5 0,-148.5"/>
<text text-anchor="middle" x="37" y="-155.5" font-family="Helvetica,sans-Serif" font-size="10.00">IHasDbPrint</text>
</a>
</g>
</g>
<!-- Node9&#45;&gt;Node8 -->
<g id="edge8" class="edge">
<title>Node9&#45;&gt;Node8</title>
<path fill="none" stroke="midnightblue" d="M84.06,-152.95C111.16,-149.98 145.37,-146.23 172.76,-143.23"/>
<polygon fill="midnightblue" stroke="midnightblue" points="83.62,-149.48 74.06,-154.05 84.38,-156.44 83.62,-149.48"/>
</g>
<!-- Node10 -->
<g id="node10" class="node">
<title>Node10</title>
<g id="a_node10"><a xlink:href="classcstring.html" target="_top" xlink:title=" ">
<polygon fill="white" stroke="black" points="12,-57.5 12,-76.5 62,-76.5 62,-57.5 12,-57.5"/>
<text text-anchor="middle" x="37" y="-64.5" font-family="Helvetica,sans-Serif" font-size="10.00">cstring</text>
</a>
</g>
</g>
<!-- Node10&#45;&gt;Node8 -->
<g id="edge9" class="edge">
<title>Node10&#45;&gt;Node8</title>
<path fill="none" stroke="#9a32cd" stroke-dasharray="5,2" d="M54.95,-83.87C64.95,-92.91 78.3,-103.49 92,-110 117.26,-122 147.77,-128.93 172.72,-132.89"/>
<polygon fill="#9a32cd" stroke="#9a32cd" points="57.08,-81.07 47.4,-76.77 52.28,-86.17 57.08,-81.07"/>
<text text-anchor="middle" x="116.5" y="-129" font-family="Helvetica,sans-Serif" font-size="10.00"> mapKind</text>
</g>
<!-- Node10&#45;&gt;Node10 -->
<g id="edge10" class="edge">
<title>Node10&#45;&gt;Node10</title>
<path fill="none" stroke="#9a32cd" stroke-dasharray="5,2" d="M22.64,-86.77C23.76,-91.5 28.55,-95 37,-95 50.86,-95 54.87,-85.57 49.02,-76.76"/>
<polygon fill="#9a32cd" stroke="#9a32cd" points="26.11,-87.29 24.98,-76.76 19.29,-85.7 26.11,-87.29"/>
<text text-anchor="middle" x="37" y="-109" font-family="Helvetica,sans-Serif" font-size="10.00"> empty</text>
<text text-anchor="middle" x="37" y="-98" font-family="Helvetica,sans-Serif" font-size="10.00">newline</text>
</g>
<!-- Node14 -->
<g id="node14" class="node">
<title>Node14</title>
<g id="a_node14"><a xlink:title=" ">
<polygon fill="white" stroke="#bfbfbf" points="457,-62.5 457,-103.5 571,-103.5 571,-62.5 457,-62.5"/>
<text text-anchor="start" x="465" y="-91.5" font-family="Helvetica,sans-Serif" font-size="10.00">std::unordered_map</text>
<text text-anchor="start" x="465" y="-80.5" font-family="Helvetica,sans-Serif" font-size="10.00">&lt; cstring, std::set</text>
<text text-anchor="middle" x="514" y="-69.5" font-family="Helvetica,sans-Serif" font-size="10.00">&lt; cstring &gt; &gt;</text>
</a>
</g>
</g>
<!-- Node10&#45;&gt;Node14 -->
<g id="edge16" class="edge">
<title>Node10&#45;&gt;Node14</title>
<path fill="none" stroke="#9a32cd" stroke-dasharray="5,2" d="M72.07,-74.84C78.65,-76.1 85.51,-77.24 92,-78 235.05,-94.83 271.97,-86.48 416,-85 429.22,-84.86 443.46,-84.62 456.84,-84.35"/>
<polygon fill="#9a32cd" stroke="#9a32cd" points="72.55,-71.37 62.05,-72.8 71.15,-78.23 72.55,-71.37"/>
<text text-anchor="middle" x="221.5" y="-91" font-family="Helvetica,sans-Serif" font-size="10.00"> keys</text>
</g>
<!-- Node15 -->
<g id="node15" class="node">
<title>Node15</title>
<g id="a_node15"><a xlink:title=" ">
<polygon fill="white" stroke="#bfbfbf" points="167.5,-43.5 167.5,-62.5 275.5,-62.5 275.5,-43.5 167.5,-43.5"/>
<text text-anchor="middle" x="221.5" y="-50.5" font-family="Helvetica,sans-Serif" font-size="10.00">std::set&lt; cstring &gt;</text>
</a>
</g>
</g>
<!-- Node10&#45;&gt;Node15 -->
<g id="edge18" class="edge">
<title>Node10&#45;&gt;Node15</title>
<path fill="none" stroke="#9a32cd" stroke-dasharray="5,2" d="M72.27,-64.37C99.01,-62.32 136.65,-59.43 167.3,-57.08"/>
<polygon fill="#9a32cd" stroke="#9a32cd" points="71.94,-60.89 62.23,-65.14 72.47,-67.87 71.94,-60.89"/>
<text text-anchor="middle" x="116.5" y="-66" font-family="Helvetica,sans-Serif" font-size="10.00"> keys</text>
</g>
<!-- Node16 -->
<g id="node16" class="node">
<title>Node16</title>
<g id="a_node16"><a xlink:title=" ">
<polygon fill="white" stroke="#bfbfbf" points="302,-0.5 302,-41.5 416,-41.5 416,-0.5 302,-0.5"/>
<text text-anchor="start" x="310" y="-29.5" font-family="Helvetica,sans-Serif" font-size="10.00">std::unordered_map</text>
<text text-anchor="start" x="310" y="-18.5" font-family="Helvetica,sans-Serif" font-size="10.00">&lt; const IR::Block *,</text>
<text text-anchor="middle" x="359" y="-7.5" font-family="Helvetica,sans-Serif" font-size="10.00"> cstring &gt;</text>
</a>
</g>
</g>
<!-- Node10&#45;&gt;Node16 -->
<g id="edge20" class="edge">
<title>Node10&#45;&gt;Node16</title>
<path fill="none" stroke="#9a32cd" stroke-dasharray="5,2" d="M67.78,-53.48C75.54,-50.34 83.98,-47.26 92,-45 162.51,-25.12 247.31,-20.64 301.9,-20.12"/>
<polygon fill="#9a32cd" stroke="#9a32cd" points="66.25,-50.32 58.39,-57.43 68.96,-56.78 66.25,-50.32"/>
<text text-anchor="middle" x="116.5" y="-48" font-family="Helvetica,sans-Serif" font-size="10.00"> elements</text>
</g>
<!-- Node11&#45;&gt;Node2 -->
<g id="edge11" class="edge">
<title>Node11&#45;&gt;Node2</title>
<path fill="none" stroke="#9a32cd" stroke-dasharray="5,2" d="M576.68,-170C622.59,-170 686.01,-170 737.84,-170"/>
<polygon fill="#9a32cd" stroke="#9a32cd" points="576.58,-166.5 566.58,-170 576.58,-173.5 576.58,-166.5"/>
<text text-anchor="middle" x="666" y="-173" font-family="Helvetica,sans-Serif" font-size="10.00"> refMap</text>
</g>
<!-- Node12 -->
<g id="node12" class="node">
<title>Node12</title>
<g id="a_node12"><a xlink:href="class_p4_1_1_name_generator.html" target="_top" xlink:title=" ">
<polygon fill="white" stroke="black" points="165,-204.5 165,-223.5 278,-223.5 278,-204.5 165,-204.5"/>
<text text-anchor="middle" x="221.5" y="-211.5" font-family="Helvetica,sans-Serif" font-size="10.00">P4::NameGenerator</text>
</a>
</g>
</g>
<!-- Node12&#45;&gt;Node11 -->
<g id="edge13" class="edge">
<title>Node12&#45;&gt;Node11</title>
<path fill="none" stroke="midnightblue" d="M288.32,-205.39C325.8,-200.35 373.58,-193.67 416,-187 430.78,-184.67 446.79,-181.95 461.46,-179.38"/>
<polygon fill="midnightblue" stroke="midnightblue" points="287.49,-201.97 278.04,-206.77 288.42,-208.91 287.49,-201.97"/>
</g>
<!-- Node13 -->
<g id="node13" class="node">
<title>Node13</title>
<g id="a_node13"><a xlink:href="class_p4_1_1_declaration_lookup.html" target="_top" xlink:title=" ">
<polygon fill="white" stroke="black" points="159,-166.5 159,-185.5 284,-185.5 284,-166.5 159,-166.5"/>
<text text-anchor="middle" x="221.5" y="-173.5" font-family="Helvetica,sans-Serif" font-size="10.00">P4::DeclarationLookup</text>
</a>
</g>
</g>
<!-- Node13&#45;&gt;Node11 -->
<g id="edge14" class="edge">
<title>Node13&#45;&gt;Node11</title>
<path fill="none" stroke="midnightblue" d="M294.22,-174.52C346,-173.45 414.69,-172.03 461.19,-171.07"/>
<polygon fill="midnightblue" stroke="midnightblue" points="294.03,-171.02 284.11,-174.73 294.18,-178.02 294.03,-171.02"/>
</g>
<!-- Node14&#45;&gt;Node2 -->
<g id="edge15" class="edge">
<title>Node14&#45;&gt;Node2</title>
<path fill="none" stroke="#9a32cd" stroke-dasharray="5,2" d="M581.33,-94.4C621.81,-102.05 674.38,-113.25 720,-127 740.73,-133.25 763.06,-141.7 782.12,-149.45"/>
<polygon fill="#9a32cd" stroke="#9a32cd" points="581.78,-90.92 571.31,-92.53 580.5,-97.8 581.78,-90.92"/>
<text text-anchor="middle" x="666" y="-130" font-family="Helvetica,sans-Serif" font-size="10.00"> actionProfilesRefs</text>
</g>
<!-- Node15&#45;&gt;Node14 -->
<g id="edge17" class="edge">
<title>Node15&#45;&gt;Node14</title>
<path fill="none" stroke="#9a32cd" stroke-dasharray="5,2" d="M286.02,-59.56C337.01,-64.83 407.91,-72.15 456.84,-77.2"/>
<polygon fill="#9a32cd" stroke="#9a32cd" points="286.09,-56.05 275.78,-58.5 285.37,-63.01 286.09,-56.05"/>
<text text-anchor="middle" x="359" y="-75" font-family="Helvetica,sans-Serif" font-size="10.00"> elements</text>
</g>
<!-- Node16&#45;&gt;Node1 -->
<g id="edge19" class="edge">
<title>Node16&#45;&gt;Node1</title>
<path fill="none" stroke="#9a32cd" stroke-dasharray="5,2" d="M426.16,-25.88C550.26,-35.02 818.18,-54.77 959.85,-65.21"/>
<polygon fill="#9a32cd" stroke="#9a32cd" points="426.27,-22.37 416.04,-25.13 425.76,-29.36 426.27,-22.37"/>
<text text-anchor="middle" x="666" y="-51" font-family="Helvetica,sans-Serif" font-size="10.00"> blockNamePrefixMap</text>
</g>
</g>
</svg>
        <g id="navigator" transform="translate(0 0)" fill="#404254">
                <rect fill="#f2f5e9" fill-opacity="0.5" stroke="#606060" stroke-width=".5" x="0" y="0" width="60" height="60"/>
                <use id="zoomplus" xlink:href="#zoomPlus" x="17" y="9" onmousedown="handleZoom(evt,'in')"/>
                <use id="zoomminus" xlink:href="#zoomMin" x="42" y="9" onmousedown="handleZoom(evt,'out')"/>
                <use id="reset" xlink:href="#resetDef" x="30" y="36" onmousedown="handleReset()"/>
                <g id="arrowUp" xlink:href="#dirArrow" transform="translate(30 24)" onmousedown="handlePan(0,-1)">
                  <use xlink:href="#rim" fill="#404040">
                        <set attributeName="fill" to="#808080" begin="arrowUp.mouseover" end="arrowUp.mouseout"/>
                  </use>
                  <path fill="none" stroke="white" stroke-width="1.5" d="M0,-3.0v7 M-2.5,-0.5L0,-3.0L2.5,-0.5"/>
                </g>
                <g id="arrowRight" xlink:href="#dirArrow" transform="rotate(90) translate(36 -43)" onmousedown="handlePan(1,0)">
                  <use xlink:href="#rim" fill="#404040">
                        <set attributeName="fill" to="#808080" begin="arrowRight.mouseover" end="arrowRight.mouseout"/>
                  </use>
                  <path fill="none" stroke="white" stroke-width="1.5" d="M0,-3.0v7 M-2.5,-0.5L0,-3.0L2.5,-0.5"/>
                </g>
                <g id="arrowDown" xlink:href="#dirArrow" transform="rotate(180) translate(-30 -48)" onmousedown="handlePan(0,1)">
                  <use xlink:href="#rim" fill="#404040">
                        <set attributeName="fill" to="#808080" begin="arrowDown.mouseover" end="arrowDown.mouseout"/>
                  </use>
                  <path fill="none" stroke="white" stroke-width="1.5" d="M0,-3.0v7 M-2.5,-0.5L0,-3.0L2.5,-0.5"/>
                </g>
                <g id="arrowLeft" xlink:href="#dirArrow" transform="rotate(270) translate(-36 17)" onmousedown="handlePan(-1,0)">
                  <use xlink:href="#rim" fill="#404040">
                        <set attributeName="fill" to="#808080" begin="arrowLeft.mouseover" end="arrowLeft.mouseout"/>
                  </use>
                  <path fill="none" stroke="white" stroke-width="1.5" d="M0,-3.0v7 M-2.5,-0.5L0,-3.0L2.5,-0.5"/>
                </g>
        </g>
        <svg viewBox="0 0 15 15" width="100%" height="30px" preserveAspectRatio="xMaxYMin meet">
         <g id="arrow_out" transform="scale(0.3 0.3)">
          <a xlink:href="class_p4_1_1_control_plane_a_p_i_1_1_standard_1_1_b_f_runtime_arch_handler__coll__graph_org.svg" target="_base">
           <rect id="button" ry="5" rx="5" y="6" x="6" height="38" width="38"
                fill="#f2f5e9" fill-opacity="0.5" stroke="#606060" stroke-width="1.0"/>
           <path id="arrow"
             d="M 11.500037,31.436501 C 11.940474,20.09759 22.043105,11.32322 32.158766,21.979434 L 37.068811,17.246167 C 37.068811,17.246167 37.088388,32 37.088388,32 L 22.160133,31.978069 C 22.160133,31.978069 26.997745,27.140456 26.997745,27.140456 C 18.528582,18.264221 13.291696,25.230495 11.500037,31.436501 z"
             style="fill:#404040;"/>
          </a>
         </g>
        </svg>
</svg>
