<?xml version="1.0" encoding="UTF-8" standalone="no"?>
<!DOCTYPE svg PUBLIC "-//W3C//DTD SVG 1.1//EN"
 "http://www.w3.org/Graphics/SVG/1.1/DTD/svg11.dtd">
<!-- Generated by graphviz version 2.43.0 (0)
 -->
<!-- Title: P4::RemoveUnusedActionParameters Pages: 1 -->
<svg width="431pt" height="233pt"
 viewBox="0.00 0.00 431.00 233.00" xmlns="http://www.w3.org/2000/svg" xmlns:xlink="http://www.w3.org/1999/xlink">
<g id="graph0" class="graph" transform="scale(1 1) rotate(0) translate(4 229)">
<title>P4::RemoveUnusedActionParameters</title>
<polygon fill="white" stroke="transparent" points="-4,4 -4,-229 427,-229 427,4 -4,4"/>
<!-- Node1 -->
<g id="node1" class="node">
<title>Node1</title>
<g id="a_node1"><a xlink:title=" ">
<polygon fill="#bfbfbf" stroke="black" points="0,-0.5 0,-19.5 198,-19.5 198,-0.5 0,-0.5"/>
<text text-anchor="middle" x="99" y="-7.5" font-family="Helvetica,sans-Serif" font-size="10.00">P4::RemoveUnusedActionParameters</text>
</a>
</g>
</g>
<!-- Node2 -->
<g id="node2" class="node">
<title>Node2</title>
<g id="a_node2"><a xlink:href="class_transform.html" target="_top" xlink:title=" ">
<polygon fill="white" stroke="black" points="71.5,-68.5 71.5,-87.5 136.5,-87.5 136.5,-68.5 71.5,-68.5"/>
<text text-anchor="middle" x="104" y="-75.5" font-family="Helvetica,sans-Serif" font-size="10.00">Transform</text>
</a>
</g>
</g>
<!-- Node2&#45;&gt;Node1 -->
<g id="edge1" class="edge">
<title>Node2&#45;&gt;Node1</title>
<path fill="none" stroke="midnightblue" d="M102.56,-58.04C101.61,-45.47 100.41,-29.56 99.67,-19.84"/>
<polygon fill="midnightblue" stroke="midnightblue" points="99.1,-58.66 103.35,-68.37 106.08,-58.14 99.1,-58.66"/>
</g>
<!-- Node3 -->
<g id="node3" class="node">
<title>Node3</title>
<g id="a_node3"><a xlink:href="class_visitor.html" target="_top" xlink:title=" ">
<polygon fill="white" stroke="black" points="183,-136.5 183,-155.5 231,-155.5 231,-136.5 183,-136.5"/>
<text text-anchor="middle" x="207" y="-143.5" font-family="Helvetica,sans-Serif" font-size="10.00">Visitor</text>
</a>
</g>
</g>
<!-- Node3&#45;&gt;Node2 -->
<g id="edge2" class="edge">
<title>Node3&#45;&gt;Node2</title>
<path fill="none" stroke="midnightblue" d="M182.46,-131.02C175.47,-126.92 167.88,-122.37 161,-118 145.21,-107.98 127.49,-95.69 116.07,-87.62"/>
<polygon fill="midnightblue" stroke="midnightblue" points="181.1,-134.28 191.51,-136.26 184.61,-128.22 181.1,-134.28"/>
</g>
<!-- Node3&#45;&gt;Node3 -->
<g id="edge10" class="edge">
<title>Node3&#45;&gt;Node3</title>
<path fill="none" stroke="#9a32cd" stroke-dasharray="5,2" d="M241.42,-151.29C245.98,-150.39 249,-148.63 249,-146 249,-141.69 240.86,-139.7 231.17,-140.04"/>
<polygon fill="#9a32cd" stroke="#9a32cd" points="240.92,-147.82 231.17,-151.96 241.38,-154.8 240.92,-147.82"/>
<text text-anchor="middle" x="274" y="-143.5" font-family="Helvetica,sans-Serif" font-size="10.00"> called_by</text>
</g>
<!-- Node5 -->
<g id="node5" class="node">
<title>Node5</title>
<g id="a_node5"><a xlink:href="class_split_flow_visit__base.html" target="_top" xlink:title=" ">
<polygon fill="white" stroke="black" points="216,-0.5 216,-19.5 328,-19.5 328,-0.5 216,-0.5"/>
<text text-anchor="middle" x="272" y="-7.5" font-family="Helvetica,sans-Serif" font-size="10.00">SplitFlowVisit_base</text>
</a>
</g>
</g>
<!-- Node3&#45;&gt;Node5 -->
<g id="edge9" class="edge">
<title>Node3&#45;&gt;Node5</title>
<path fill="none" stroke="#9a32cd" stroke-dasharray="5,2" d="M194.59,-127.79C184.42,-111.41 173.32,-86.45 184,-67 197.07,-43.19 225.04,-28.05 245.96,-19.61"/>
<polygon fill="#9a32cd" stroke="#9a32cd" points="191.83,-129.96 200.29,-136.34 197.65,-126.08 191.83,-129.96"/>
<text text-anchor="middle" x="189" y="-75.5" font-family="Helvetica,sans-Serif" font-size="10.00"> v</text>
</g>
<!-- Node6 -->
<g id="node6" class="node">
<title>Node6</title>
<g id="a_node6"><a xlink:title=" ">
<polygon fill="white" stroke="#bfbfbf" points="203.5,-68.5 203.5,-87.5 334.5,-87.5 334.5,-68.5 203.5,-68.5"/>
<text text-anchor="middle" x="269" y="-75.5" font-family="Helvetica,sans-Serif" font-size="10.00">std::vector&lt; Visitor * &gt;</text>
</a>
</g>
</g>
<!-- Node3&#45;&gt;Node6 -->
<g id="edge8" class="edge">
<title>Node3&#45;&gt;Node6</title>
<path fill="none" stroke="#9a32cd" stroke-dasharray="5,2" d="M221.99,-129.05C234.14,-116.11 250.82,-98.36 260.69,-87.84"/>
<polygon fill="#9a32cd" stroke="#9a32cd" points="219.4,-126.69 215.11,-136.37 224.5,-131.48 219.4,-126.69"/>
<text text-anchor="middle" x="266.5" y="-110" font-family="Helvetica,sans-Serif" font-size="10.00"> elements</text>
</g>
<!-- Node4 -->
<g id="node4" class="node">
<title>Node4</title>
<g id="a_node4"><a xlink:href="classcstring.html" target="_top" xlink:title=" ">
<polygon fill="white" stroke="black" points="182,-204.5 182,-223.5 232,-223.5 232,-204.5 182,-204.5"/>
<text text-anchor="middle" x="207" y="-211.5" font-family="Helvetica,sans-Serif" font-size="10.00">cstring</text>
</a>
</g>
</g>
<!-- Node4&#45;&gt;Node3 -->
<g id="edge3" class="edge">
<title>Node4&#45;&gt;Node3</title>
<path fill="none" stroke="#9a32cd" stroke-dasharray="5,2" d="M207,-194.04C207,-181.47 207,-165.56 207,-155.84"/>
<polygon fill="#9a32cd" stroke="#9a32cd" points="203.5,-194.37 207,-204.37 210.5,-194.37 203.5,-194.37"/>
<text text-anchor="middle" x="242" y="-177" font-family="Helvetica,sans-Serif" font-size="10.00"> internalName</text>
</g>
<!-- Node4&#45;&gt;Node4 -->
<g id="edge4" class="edge">
<title>Node4&#45;&gt;Node4</title>
<path fill="none" stroke="#9a32cd" stroke-dasharray="5,2" d="M242.45,-219.58C247,-218.61 250,-216.75 250,-214 250,-209.48 241.91,-207.37 232.18,-207.65"/>
<polygon fill="#9a32cd" stroke="#9a32cd" points="241.89,-216.11 232.18,-220.35 242.41,-223.1 241.89,-216.11"/>
<text text-anchor="middle" x="269.5" y="-217" font-family="Helvetica,sans-Serif" font-size="10.00"> empty</text>
<text text-anchor="middle" x="269.5" y="-206" font-family="Helvetica,sans-Serif" font-size="10.00">newline</text>
</g>
<!-- Node5&#45;&gt;Node3 -->
<g id="edge5" class="edge">
<title>Node5&#45;&gt;Node3</title>
<path fill="none" stroke="#9a32cd" stroke-dasharray="5,2" d="M300.36,-24.55C326.35,-38.96 358.71,-63.19 344,-89 321.35,-128.73 263.96,-140.29 231.1,-143.64"/>
<polygon fill="#9a32cd" stroke="#9a32cd" points="301.65,-21.27 291.17,-19.7 298.38,-27.46 301.65,-21.27"/>
<text text-anchor="middle" x="385" y="-81" font-family="Helvetica,sans-Serif" font-size="10.00"> split_link</text>
<text text-anchor="middle" x="385" y="-70" font-family="Helvetica,sans-Serif" font-size="10.00">split_link_mem</text>
</g>
<!-- Node5&#45;&gt;Node5 -->
<g id="edge6" class="edge">
<title>Node5&#45;&gt;Node5</title>
<path fill="none" stroke="#9a32cd" stroke-dasharray="5,2" d="M338.4,-14.4C343.12,-13.4 346,-11.93 346,-10 346,-6.91 338.62,-5.01 328.15,-4.31"/>
<polygon fill="#9a32cd" stroke="#9a32cd" points="337.63,-10.97 328.15,-15.69 338.51,-17.91 337.63,-10.97"/>
<text text-anchor="middle" x="358.5" y="-7.5" font-family="Helvetica,sans-Serif" font-size="10.00"> prev</text>
</g>
<!-- Node6&#45;&gt;Node5 -->
<g id="edge7" class="edge">
<title>Node6&#45;&gt;Node5</title>
<path fill="none" stroke="#9a32cd" stroke-dasharray="5,2" d="M269.86,-58.04C270.43,-45.47 271.16,-29.56 271.6,-19.84"/>
<polygon fill="#9a32cd" stroke="#9a32cd" points="266.35,-58.22 269.39,-68.37 273.34,-58.54 266.35,-58.22"/>
<text text-anchor="middle" x="290" y="-41" font-family="Helvetica,sans-Serif" font-size="10.00"> visitors</text>
</g>
</g>
</svg>
