<?xml version="1.0" encoding="UTF-8" standalone="no"?>
<!DOCTYPE svg PUBLIC "-//W3C//DTD SVG 1.1//EN"
 "http://www.w3.org/Graphics/SVG/1.1/DTD/svg11.dtd">
<!-- Generated by graphviz version 2.43.0 (0)
 -->
<!-- Title: P4WriteContext Pages: 1 -->
<svg width="386pt" height="261pt"
 viewBox="0.00 0.00 386.00 260.50" xmlns="http://www.w3.org/2000/svg" xmlns:xlink="http://www.w3.org/1999/xlink">
<g id="graph0" class="graph" transform="scale(1 1) rotate(0) translate(4 256.5)">
<title>P4WriteContext</title>
<!-- Node1 -->
<g id="Node000001" class="node">
<title>Node1</title>
<g id="a_Node000001"><a xlink:title=" ">
<polygon fill="#999999" stroke="#666666" points="177,-141.5 84,-141.5 84,-122.5 177,-122.5 177,-141.5"/>
<text text-anchor="middle" x="130.5" y="-129.5" font-family="Helvetica,sans-Serif" font-size="10.00">P4WriteContext</text>
</a>
</g>
</g>
<!-- Node3 -->
<g id="Node000003" class="node">
<title>Node3</title>
<g id="a_Node000003"><a xlink:href="class_p4_1_1_compute_def_use.html" target="_top" xlink:title="Compute defuse info within P4Parser and P4Control blocks in the midend.">
<polygon fill="white" stroke="#666666" points="353,-252.5 238,-252.5 238,-233.5 353,-233.5 353,-252.5"/>
<text text-anchor="middle" x="295.5" y="-240.5" font-family="Helvetica,sans-Serif" font-size="10.00">P4::ComputeDefUse</text>
</a>
</g>
</g>
<!-- Node1&#45;&gt;Node3 -->
<g id="edge2_Node000001_Node000003" class="edge">
<title>Node1&#45;&gt;Node3</title>
<g id="a_edge2_Node000001_Node000003"><a xlink:title=" ">
<path fill="none" stroke="#63b8ff" d="M142.31,-150.19C156,-171.56 181.62,-206.43 213,-225 220.61,-229.5 229.22,-232.88 237.92,-235.41"/>
<polygon fill="#63b8ff" stroke="#63b8ff" points="145.29,-148.35 137.04,-141.69 139.34,-152.04 145.29,-148.35"/>
</a>
</g>
</g>
<!-- Node4 -->
<g id="Node000004" class="node">
<title>Node4</title>
<g id="a_Node000004"><a xlink:href="class_p4_1_1_do_local_copy_propagation.html" target="_top" xlink:title=" ">
<polygon fill="white" stroke="#666666" points="374,-215.5 217,-215.5 217,-196.5 374,-196.5 374,-215.5"/>
<text text-anchor="middle" x="295.5" y="-203.5" font-family="Helvetica,sans-Serif" font-size="10.00">P4::DoLocalCopyPropagation</text>
</a>
</g>
</g>
<!-- Node1&#45;&gt;Node4 -->
<g id="edge3_Node000001_Node000004" class="edge">
<title>Node1&#45;&gt;Node4</title>
<g id="a_edge3_Node000001_Node000004"><a xlink:title=" ">
<path fill="none" stroke="#8b1a1a" d="M150.44,-148.18C166.21,-160.82 189.75,-177.9 213,-188 220.84,-191.41 229.4,-194.2 237.92,-196.48"/>
<polygon fill="#8b1a1a" stroke="#8b1a1a" points="152.49,-145.32 142.54,-141.68 148.04,-150.73 152.49,-145.32"/>
</a>
</g>
</g>
<!-- Node5 -->
<g id="Node000005" class="node">
<title>Node5</title>
<g id="a_Node000005"><a xlink:href="class_p4_1_1_do_simplify_expressions.html" target="_top" xlink:title="Convert expressions so that each expression contains at most one side effect.">
<polygon fill="white" stroke="#666666" points="368.5,-178.5 222.5,-178.5 222.5,-159.5 368.5,-159.5 368.5,-178.5"/>
<text text-anchor="middle" x="295.5" y="-166.5" font-family="Helvetica,sans-Serif" font-size="10.00">P4::DoSimplifyExpressions</text>
</a>
</g>
</g>
<!-- Node1&#45;&gt;Node5 -->
<g id="edge4_Node000001_Node000005" class="edge">
<title>Node1&#45;&gt;Node5</title>
<g id="a_edge4_Node000001_Node000005"><a xlink:title=" ">
<path fill="none" stroke="#8b1a1a" d="M182.13,-143.9C192.34,-146.27 203.01,-148.73 213,-151 225.29,-153.79 238.64,-156.76 250.91,-159.47"/>
<polygon fill="#8b1a1a" stroke="#8b1a1a" points="182.64,-140.42 172.1,-141.56 181.05,-147.24 182.64,-140.42"/>
</a>
</g>
</g>
<!-- Node6 -->
<g id="Node000006" class="node">
<title>Node6</title>
<g id="a_Node000006"><a xlink:href="class_p4_1_1_replace_headers.html" target="_top" xlink:title=" ">
<polygon fill="white" stroke="#666666" points="352.5,-141.5 238.5,-141.5 238.5,-122.5 352.5,-122.5 352.5,-141.5"/>
<text text-anchor="middle" x="295.5" y="-129.5" font-family="Helvetica,sans-Serif" font-size="10.00">P4::ReplaceHeaders</text>
</a>
</g>
</g>
<!-- Node1&#45;&gt;Node6 -->
<g id="edge5_Node000001_Node000006" class="edge">
<title>Node1&#45;&gt;Node6</title>
<g id="a_edge5_Node000001_Node000006"><a xlink:title=" ">
<path fill="none" stroke="#8b1a1a" d="M187.35,-132C203.8,-132 221.81,-132 238.28,-132"/>
<polygon fill="#8b1a1a" stroke="#8b1a1a" points="187.34,-128.5 177.34,-132 187.34,-135.5 187.34,-128.5"/>
</a>
</g>
</g>
<!-- Node7 -->
<g id="Node000007" class="node">
<title>Node7</title>
<g id="a_Node000007"><a xlink:href="class_p4_1_1_replace_log_msg.html" target="_top" xlink:title=" ">
<polygon fill="white" stroke="#666666" points="351,-104.5 240,-104.5 240,-85.5 351,-85.5 351,-104.5"/>
<text text-anchor="middle" x="295.5" y="-92.5" font-family="Helvetica,sans-Serif" font-size="10.00">P4::ReplaceLogMsg</text>
</a>
</g>
</g>
<!-- Node1&#45;&gt;Node7 -->
<g id="edge6_Node000001_Node000007" class="edge">
<title>Node1&#45;&gt;Node7</title>
<g id="a_edge6_Node000001_Node000007"><a xlink:title=" ">
<path fill="none" stroke="#8b1a1a" d="M182.13,-120.1C192.34,-117.73 203.01,-115.27 213,-113 225.29,-110.21 238.64,-107.24 250.91,-104.53"/>
<polygon fill="#8b1a1a" stroke="#8b1a1a" points="181.05,-116.76 172.1,-122.44 182.64,-123.58 181.05,-116.76"/>
</a>
</g>
</g>
<!-- Node8 -->
<g id="Node000008" class="node">
<title>Node8</title>
<g id="a_Node000008"><a xlink:href="class_p4_1_1_replace_structs.html" target="_top" xlink:title=" ">
<polygon fill="white" stroke="#666666" points="349,-67.5 242,-67.5 242,-48.5 349,-48.5 349,-67.5"/>
<text text-anchor="middle" x="295.5" y="-55.5" font-family="Helvetica,sans-Serif" font-size="10.00">P4::ReplaceStructs</text>
</a>
</g>
</g>
<!-- Node1&#45;&gt;Node8 -->
<g id="edge7_Node000001_Node000008" class="edge">
<title>Node1&#45;&gt;Node8</title>
<g id="a_edge7_Node000001_Node000008"><a xlink:title=" ">
<path fill="none" stroke="#8b1a1a" d="M150.44,-115.82C166.21,-103.18 189.75,-86.1 213,-76 222.04,-72.08 232.02,-68.97 241.82,-66.51"/>
<polygon fill="#8b1a1a" stroke="#8b1a1a" points="148.04,-113.27 142.54,-122.32 152.49,-118.68 148.04,-113.27"/>
</a>
</g>
</g>
<!-- Node9 -->
<g id="Node000009" class="node">
<title>Node9</title>
<g id="a_Node000009"><a xlink:href="class_type_check_1_1_make_implicit_casts_explicit.html" target="_top" xlink:title=" ">
<polygon fill="white" stroke="#bfbfbf" points="378,-30 213,-30 213,0 378,0 378,-30"/>
<text text-anchor="start" x="221" y="-18" font-family="Helvetica,sans-Serif" font-size="10.00">TypeCheck::MakeImplicitCasts</text>
<text text-anchor="middle" x="295.5" y="-7" font-family="Helvetica,sans-Serif" font-size="10.00">Explicit</text>
</a>
</g>
</g>
<!-- Node1&#45;&gt;Node9 -->
<g id="edge8_Node000001_Node000009" class="edge">
<title>Node1&#45;&gt;Node9</title>
<g id="a_edge8_Node000001_Node000009"><a xlink:title=" ">
<path fill="none" stroke="#8b1a1a" d="M142.94,-113.56C156.94,-92.5 182.57,-58.45 213,-39 218.34,-35.58 224.19,-32.64 230.22,-30.1"/>
<polygon fill="#8b1a1a" stroke="#8b1a1a" points="139.83,-111.92 137.35,-122.22 145.71,-115.72 139.83,-111.92"/>
</a>
</g>
</g>
<!-- Node2 -->
<g id="Node000002" class="node">
<title>Node2</title>
<g id="a_Node000002"><a xlink:href="class_visitor.html" target="_top" xlink:title=" ">
<polygon fill="white" stroke="#bfbfbf" points="48,-141.5 0,-141.5 0,-122.5 48,-122.5 48,-141.5"/>
<text text-anchor="middle" x="24" y="-129.5" font-family="Helvetica,sans-Serif" font-size="10.00">Visitor</text>
</a>
</g>
</g>
<!-- Node2&#45;&gt;Node1 -->
<g id="edge1_Node000001_Node000002" class="edge">
<title>Node2&#45;&gt;Node1</title>
<g id="a_edge1_Node000001_Node000002"><a xlink:title=" ">
<path fill="none" stroke="#63b8ff" d="M58.31,-132C66.37,-132 75.13,-132 83.66,-132"/>
<polygon fill="#63b8ff" stroke="#63b8ff" points="58.19,-128.5 48.19,-132 58.19,-135.5 58.19,-128.5"/>
</a>
</g>
</g>
</g>
</svg>
