<?xml version="1.0" encoding="UTF-8" standalone="no"?>
<!DOCTYPE svg PUBLIC "-//W3C//DTD SVG 1.1//EN"
 "http://www.w3.org/Graphics/SVG/1.1/DTD/svg11.dtd">
<!-- Generated by graphviz version 2.43.0 (0)
 -->
<!-- Title: HeaderTypeMaxLengthCalculator Pages: 1 -->
<svg width="412pt" height="233pt"
 viewBox="0.00 0.00 412.00 233.00" xmlns="http://www.w3.org/2000/svg" xmlns:xlink="http://www.w3.org/1999/xlink">
<g id="graph0" class="graph" transform="scale(1 1) rotate(0) translate(4 229)">
<title>HeaderTypeMaxLengthCalculator</title>
<polygon fill="white" stroke="transparent" points="-4,4 -4,-229 408,-229 408,4 -4,4"/>
<!-- Node1 -->
<g id="node1" class="node">
<title>Node1</title>
<g id="a_node1"><a xlink:title=" ">
<polygon fill="#bfbfbf" stroke="black" points="0,-0.5 0,-19.5 178,-19.5 178,-0.5 0,-0.5"/>
<text text-anchor="middle" x="89" y="-7.5" font-family="Helvetica,sans-Serif" font-size="10.00">HeaderTypeMaxLengthCalculator</text>
</a>
</g>
</g>
<!-- Node2 -->
<g id="node2" class="node">
<title>Node2</title>
<g id="a_node2"><a xlink:href="class_modifier.html" target="_top" xlink:title=" ">
<polygon fill="white" stroke="black" points="63,-68.5 63,-87.5 119,-87.5 119,-68.5 63,-68.5"/>
<text text-anchor="middle" x="91" y="-75.5" font-family="Helvetica,sans-Serif" font-size="10.00">Modifier</text>
</a>
</g>
</g>
<!-- Node2&#45;&gt;Node1 -->
<g id="edge1" class="edge">
<title>Node2&#45;&gt;Node1</title>
<path fill="none" stroke="midnightblue" d="M90.43,-58.04C90.04,-45.47 89.56,-29.56 89.27,-19.84"/>
<polygon fill="midnightblue" stroke="midnightblue" points="86.94,-58.48 90.74,-68.37 93.93,-58.27 86.94,-58.48"/>
</g>
<!-- Node3 -->
<g id="node3" class="node">
<title>Node3</title>
<g id="a_node3"><a xlink:href="class_visitor.html" target="_top" xlink:title=" ">
<polygon fill="white" stroke="black" points="164,-136.5 164,-155.5 212,-155.5 212,-136.5 164,-136.5"/>
<text text-anchor="middle" x="188" y="-143.5" font-family="Helvetica,sans-Serif" font-size="10.00">Visitor</text>
</a>
</g>
</g>
<!-- Node3&#45;&gt;Node2 -->
<g id="edge2" class="edge">
<title>Node3&#45;&gt;Node2</title>
<path fill="none" stroke="midnightblue" d="M163.31,-131.25C156.31,-127.16 148.76,-122.55 142,-118 127.57,-108.3 111.79,-95.94 101.66,-87.76"/>
<polygon fill="midnightblue" stroke="midnightblue" points="161.96,-134.52 172.38,-136.46 165.45,-128.44 161.96,-134.52"/>
</g>
<!-- Node3&#45;&gt;Node3 -->
<g id="edge10" class="edge">
<title>Node3&#45;&gt;Node3</title>
<path fill="none" stroke="#9a32cd" stroke-dasharray="5,2" d="M222.42,-151.29C226.98,-150.39 230,-148.63 230,-146 230,-141.69 221.86,-139.7 212.17,-140.04"/>
<polygon fill="#9a32cd" stroke="#9a32cd" points="221.92,-147.82 212.17,-151.96 222.38,-154.8 221.92,-147.82"/>
<text text-anchor="middle" x="255" y="-143.5" font-family="Helvetica,sans-Serif" font-size="10.00"> called_by</text>
</g>
<!-- Node5 -->
<g id="node5" class="node">
<title>Node5</title>
<g id="a_node5"><a xlink:href="class_split_flow_visit__base.html" target="_top" xlink:title=" ">
<polygon fill="white" stroke="black" points="196,-0.5 196,-19.5 308,-19.5 308,-0.5 196,-0.5"/>
<text text-anchor="middle" x="252" y="-7.5" font-family="Helvetica,sans-Serif" font-size="10.00">SplitFlowVisit_base</text>
</a>
</g>
</g>
<!-- Node3&#45;&gt;Node5 -->
<g id="edge9" class="edge">
<title>Node3&#45;&gt;Node5</title>
<path fill="none" stroke="#9a32cd" stroke-dasharray="5,2" d="M175.61,-127.81C165.46,-111.44 154.37,-86.48 165,-67 177.99,-43.19 205.92,-27.98 226.65,-19.52"/>
<polygon fill="#9a32cd" stroke="#9a32cd" points="172.84,-129.97 181.3,-136.35 178.67,-126.08 172.84,-129.97"/>
<text text-anchor="middle" x="170" y="-75.5" font-family="Helvetica,sans-Serif" font-size="10.00"> v</text>
</g>
<!-- Node6 -->
<g id="node6" class="node">
<title>Node6</title>
<g id="a_node6"><a xlink:title=" ">
<polygon fill="white" stroke="#bfbfbf" points="184.5,-68.5 184.5,-87.5 315.5,-87.5 315.5,-68.5 184.5,-68.5"/>
<text text-anchor="middle" x="250" y="-75.5" font-family="Helvetica,sans-Serif" font-size="10.00">std::vector&lt; Visitor * &gt;</text>
</a>
</g>
</g>
<!-- Node3&#45;&gt;Node6 -->
<g id="edge8" class="edge">
<title>Node3&#45;&gt;Node6</title>
<path fill="none" stroke="#9a32cd" stroke-dasharray="5,2" d="M202.99,-129.05C215.14,-116.11 231.82,-98.36 241.69,-87.84"/>
<polygon fill="#9a32cd" stroke="#9a32cd" points="200.4,-126.69 196.11,-136.37 205.5,-131.48 200.4,-126.69"/>
<text text-anchor="middle" x="247.5" y="-110" font-family="Helvetica,sans-Serif" font-size="10.00"> elements</text>
</g>
<!-- Node4 -->
<g id="node4" class="node">
<title>Node4</title>
<g id="a_node4"><a xlink:href="classcstring.html" target="_top" xlink:title=" ">
<polygon fill="white" stroke="black" points="163,-204.5 163,-223.5 213,-223.5 213,-204.5 163,-204.5"/>
<text text-anchor="middle" x="188" y="-211.5" font-family="Helvetica,sans-Serif" font-size="10.00">cstring</text>
</a>
</g>
</g>
<!-- Node4&#45;&gt;Node3 -->
<g id="edge3" class="edge">
<title>Node4&#45;&gt;Node3</title>
<path fill="none" stroke="#9a32cd" stroke-dasharray="5,2" d="M188,-194.04C188,-181.47 188,-165.56 188,-155.84"/>
<polygon fill="#9a32cd" stroke="#9a32cd" points="184.5,-194.37 188,-204.37 191.5,-194.37 184.5,-194.37"/>
<text text-anchor="middle" x="223" y="-177" font-family="Helvetica,sans-Serif" font-size="10.00"> internalName</text>
</g>
<!-- Node4&#45;&gt;Node4 -->
<g id="edge4" class="edge">
<title>Node4&#45;&gt;Node4</title>
<path fill="none" stroke="#9a32cd" stroke-dasharray="5,2" d="M223.45,-219.58C228,-218.61 231,-216.75 231,-214 231,-209.48 222.91,-207.37 213.18,-207.65"/>
<polygon fill="#9a32cd" stroke="#9a32cd" points="222.89,-216.11 213.18,-220.35 223.41,-223.1 222.89,-216.11"/>
<text text-anchor="middle" x="250.5" y="-217" font-family="Helvetica,sans-Serif" font-size="10.00"> empty</text>
<text text-anchor="middle" x="250.5" y="-206" font-family="Helvetica,sans-Serif" font-size="10.00">newline</text>
</g>
<!-- Node5&#45;&gt;Node3 -->
<g id="edge5" class="edge">
<title>Node5&#45;&gt;Node3</title>
<path fill="none" stroke="#9a32cd" stroke-dasharray="5,2" d="M280.36,-24.29C306.73,-38.62 339.87,-62.91 325,-89 302.35,-128.73 244.96,-140.29 212.1,-143.64"/>
<polygon fill="#9a32cd" stroke="#9a32cd" points="281.9,-21.15 271.41,-19.65 278.68,-27.36 281.9,-21.15"/>
<text text-anchor="middle" x="366" y="-81" font-family="Helvetica,sans-Serif" font-size="10.00"> split_link</text>
<text text-anchor="middle" x="366" y="-70" font-family="Helvetica,sans-Serif" font-size="10.00">split_link_mem</text>
</g>
<!-- Node5&#45;&gt;Node5 -->
<g id="edge6" class="edge">
<title>Node5&#45;&gt;Node5</title>
<path fill="none" stroke="#9a32cd" stroke-dasharray="5,2" d="M318.4,-14.4C323.12,-13.4 326,-11.93 326,-10 326,-6.91 318.62,-5.01 308.15,-4.31"/>
<polygon fill="#9a32cd" stroke="#9a32cd" points="317.63,-10.97 308.15,-15.69 318.51,-17.91 317.63,-10.97"/>
<text text-anchor="middle" x="338.5" y="-7.5" font-family="Helvetica,sans-Serif" font-size="10.00"> prev</text>
</g>
<!-- Node6&#45;&gt;Node5 -->
<g id="edge7" class="edge">
<title>Node6&#45;&gt;Node5</title>
<path fill="none" stroke="#9a32cd" stroke-dasharray="5,2" d="M250.57,-58.04C250.96,-45.47 251.44,-29.56 251.73,-19.84"/>
<polygon fill="#9a32cd" stroke="#9a32cd" points="247.07,-58.27 250.26,-68.37 254.06,-58.48 247.07,-58.27"/>
<text text-anchor="middle" x="271" y="-41" font-family="Helvetica,sans-Serif" font-size="10.00"> visitors</text>
</g>
</g>
</svg>
