<?xml version="1.0" encoding="UTF-8" standalone="no"?>
<!DOCTYPE svg PUBLIC "-//W3C//DTD SVG 1.1//EN"
 "http://www.w3.org/Graphics/SVG/1.1/DTD/svg11.dtd">
<!-- Generated by graphviz version 2.43.0 (0)
 -->
<!-- Title: P4::TypeConstraint Pages: 1 -->
<svg width="419pt" height="299pt"
 viewBox="0.00 0.00 419.00 299.00" xmlns="http://www.w3.org/2000/svg" xmlns:xlink="http://www.w3.org/1999/xlink">
<g id="graph0" class="graph" transform="scale(1 1) rotate(0) translate(4 295)">
<title>P4::TypeConstraint</title>
<polygon fill="white" stroke="transparent" points="-4,4 -4,-295 415,-295 415,4 -4,4"/>
<!-- Node1 -->
<g id="node1" class="node">
<title>Node1</title>
<g id="a_node1"><a xlink:title=" ">
<polygon fill="#bfbfbf" stroke="black" points="51.5,-0.5 51.5,-19.5 158.5,-19.5 158.5,-0.5 51.5,-0.5"/>
<text text-anchor="middle" x="105" y="-7.5" font-family="Helvetica,sans-Serif" font-size="10.00">P4::TypeConstraint</text>
</a>
</g>
</g>
<!-- Node1&#45;&gt;Node1 -->
<g id="edge4" class="edge">
<title>Node1&#45;&gt;Node1</title>
<path fill="none" stroke="#9a32cd" stroke-dasharray="5,2" d="M168.88,-14.46C173.6,-13.46 176.5,-11.97 176.5,-10 176.5,-6.84 169.08,-4.93 158.63,-4.27"/>
<polygon fill="#9a32cd" stroke="#9a32cd" points="168.12,-11.03 158.63,-15.73 168.99,-17.97 168.12,-11.03"/>
<text text-anchor="middle" x="209" y="-7.5" font-family="Helvetica,sans-Serif" font-size="10.00"> derivedFrom</text>
</g>
<!-- Node2 -->
<g id="node2" class="node">
<title>Node2</title>
<g id="a_node2"><a xlink:href="class_i_has_db_print.html" target="_top" xlink:title=" ">
<polygon fill="white" stroke="black" points="0,-213.5 0,-232.5 74,-232.5 74,-213.5 0,-213.5"/>
<text text-anchor="middle" x="37" y="-220.5" font-family="Helvetica,sans-Serif" font-size="10.00">IHasDbPrint</text>
</a>
</g>
</g>
<!-- Node2&#45;&gt;Node1 -->
<g id="edge1" class="edge">
<title>Node2&#45;&gt;Node1</title>
<path fill="none" stroke="midnightblue" d="M42.82,-203.93C56.81,-160.54 91.88,-51.7 102.14,-19.87"/>
<polygon fill="midnightblue" stroke="midnightblue" points="39.49,-202.88 39.75,-213.47 46.15,-205.02 39.49,-202.88"/>
</g>
<!-- Node6 -->
<g id="node6" class="node">
<title>Node6</title>
<g id="a_node6"><a xlink:href="class_i_r_1_1_i_node.html" target="_top" xlink:title=" ">
<polygon fill="white" stroke="black" points="133.5,-134.5 133.5,-153.5 194.5,-153.5 194.5,-134.5 133.5,-134.5"/>
<text text-anchor="middle" x="164" y="-141.5" font-family="Helvetica,sans-Serif" font-size="10.00">IR::INode</text>
</a>
</g>
</g>
<!-- Node2&#45;&gt;Node6 -->
<g id="edge8" class="edge">
<title>Node2&#45;&gt;Node6</title>
<path fill="none" stroke="midnightblue" d="M59.94,-208.09C86.1,-192.23 128.08,-166.78 149.86,-153.57"/>
<polygon fill="midnightblue" stroke="midnightblue" points="57.81,-205.29 51.08,-213.47 61.44,-211.27 57.81,-205.29"/>
</g>
<!-- Node3 -->
<g id="node3" class="node">
<title>Node3</title>
<g id="a_node3"><a xlink:href="class_i_castable.html" target="_top" xlink:title=" ">
<polygon fill="white" stroke="black" points="92,-213.5 92,-232.5 154,-232.5 154,-213.5 92,-213.5"/>
<text text-anchor="middle" x="123" y="-220.5" font-family="Helvetica,sans-Serif" font-size="10.00">ICastable</text>
</a>
</g>
</g>
<!-- Node3&#45;&gt;Node1 -->
<g id="edge2" class="edge">
<title>Node3&#45;&gt;Node1</title>
<path fill="none" stroke="midnightblue" d="M121.41,-203.38C117.68,-159.62 108.46,-51.57 105.76,-19.87"/>
<polygon fill="midnightblue" stroke="midnightblue" points="117.93,-203.8 122.27,-213.47 124.91,-203.21 117.93,-203.8"/>
</g>
<!-- Node3&#45;&gt;Node6 -->
<g id="edge9" class="edge">
<title>Node3&#45;&gt;Node6</title>
<path fill="none" stroke="midnightblue" d="M132.47,-204.22C140.87,-188.44 152.8,-166.04 159.31,-153.81"/>
<polygon fill="midnightblue" stroke="midnightblue" points="129.16,-202.99 127.54,-213.47 135.33,-206.28 129.16,-202.99"/>
</g>
<!-- Node4 -->
<g id="node4" class="node">
<title>Node4</title>
<g id="a_node4"><a xlink:href="struct_r_t_t_i_1_1_base.html" target="_top" xlink:title=" ">
<polygon fill="white" stroke="black" points="89,-271.5 89,-290.5 157,-290.5 157,-271.5 89,-271.5"/>
<text text-anchor="middle" x="123" y="-278.5" font-family="Helvetica,sans-Serif" font-size="10.00">RTTI::Base</text>
</a>
</g>
</g>
<!-- Node4&#45;&gt;Node3 -->
<g id="edge3" class="edge">
<title>Node4&#45;&gt;Node3</title>
<path fill="none" stroke="midnightblue" d="M123,-260.95C123,-251.29 123,-240.03 123,-232.51"/>
<polygon fill="midnightblue" stroke="midnightblue" points="119.5,-261.25 123,-271.25 126.5,-261.25 119.5,-261.25"/>
</g>
<!-- Node5 -->
<g id="node5" class="node">
<title>Node5</title>
<g id="a_node5"><a xlink:href="class_i_r_1_1_node.html" target="_top" xlink:title=" ">
<polygon fill="white" stroke="black" points="135,-67.5 135,-86.5 193,-86.5 193,-67.5 135,-67.5"/>
<text text-anchor="middle" x="164" y="-74.5" font-family="Helvetica,sans-Serif" font-size="10.00">IR::Node</text>
</a>
</g>
</g>
<!-- Node5&#45;&gt;Node1 -->
<g id="edge5" class="edge">
<title>Node5&#45;&gt;Node1</title>
<path fill="none" stroke="#9a32cd" stroke-dasharray="5,2" d="M149.15,-59.63C137.61,-46.92 122.06,-29.8 112.83,-19.63"/>
<polygon fill="#9a32cd" stroke="#9a32cd" points="146.73,-62.18 156.04,-67.23 151.91,-57.48 146.73,-62.18"/>
<text text-anchor="middle" x="154.5" y="-41" font-family="Helvetica,sans-Serif" font-size="10.00"> origin</text>
</g>
<!-- Node6&#45;&gt;Node5 -->
<g id="edge6" class="edge">
<title>Node6&#45;&gt;Node5</title>
<path fill="none" stroke="midnightblue" d="M164,-124.04C164,-111.67 164,-96.12 164,-86.63"/>
<polygon fill="midnightblue" stroke="midnightblue" points="160.5,-124.23 164,-134.23 167.5,-124.23 160.5,-124.23"/>
</g>
<!-- Node7 -->
<g id="node7" class="node">
<title>Node7</title>
<g id="a_node7"><a xlink:href="class_util_1_1_i_has_source_info.html" target="_top" xlink:title=" ">
<polygon fill="white" stroke="black" points="172.5,-213.5 172.5,-232.5 285.5,-232.5 285.5,-213.5 172.5,-213.5"/>
<text text-anchor="middle" x="229" y="-220.5" font-family="Helvetica,sans-Serif" font-size="10.00">Util::IHasSourceInfo</text>
</a>
</g>
</g>
<!-- Node7&#45;&gt;Node6 -->
<g id="edge7" class="edge">
<title>Node7&#45;&gt;Node6</title>
<path fill="none" stroke="midnightblue" d="M215.12,-205.56C201.76,-189.73 182.06,-166.39 171.44,-153.81"/>
<polygon fill="midnightblue" stroke="midnightblue" points="212.67,-208.08 221.8,-213.47 218.02,-203.57 212.67,-208.08"/>
</g>
<!-- Node8 -->
<g id="node8" class="node">
<title>Node8</title>
<g id="a_node8"><a xlink:href="class_util_1_1_source_info.html" target="_top" xlink:title=" ">
<polygon fill="white" stroke="black" points="225,-134.5 225,-153.5 317,-153.5 317,-134.5 225,-134.5"/>
<text text-anchor="middle" x="271" y="-141.5" font-family="Helvetica,sans-Serif" font-size="10.00">Util::SourceInfo</text>
</a>
</g>
</g>
<!-- Node8&#45;&gt;Node5 -->
<g id="edge10" class="edge">
<title>Node8&#45;&gt;Node5</title>
<path fill="none" stroke="#9a32cd" stroke-dasharray="5,2" d="M247.86,-128.94C226.67,-116.07 195.98,-97.43 178.2,-86.63"/>
<polygon fill="#9a32cd" stroke="#9a32cd" points="246.21,-132.03 256.57,-134.23 249.84,-126.05 246.21,-132.03"/>
<text text-anchor="middle" x="242.5" y="-108" font-family="Helvetica,sans-Serif" font-size="10.00"> srcInfo</text>
</g>
<!-- Node9 -->
<g id="node9" class="node">
<title>Node9</title>
<g id="a_node9"><a xlink:href="classcstring.html" target="_top" xlink:title=" ">
<polygon fill="white" stroke="black" points="304,-213.5 304,-232.5 354,-232.5 354,-213.5 304,-213.5"/>
<text text-anchor="middle" x="329" y="-220.5" font-family="Helvetica,sans-Serif" font-size="10.00">cstring</text>
</a>
</g>
</g>
<!-- Node9&#45;&gt;Node8 -->
<g id="edge11" class="edge">
<title>Node9&#45;&gt;Node8</title>
<path fill="none" stroke="#9a32cd" stroke-dasharray="5,2" d="M316.28,-205.12C304.37,-189.3 287.02,-166.27 277.64,-153.81"/>
<polygon fill="#9a32cd" stroke="#9a32cd" points="313.76,-207.58 322.57,-213.47 319.35,-203.37 313.76,-207.58"/>
<text text-anchor="middle" x="329" y="-186" font-family="Helvetica,sans-Serif" font-size="10.00"> filename</text>
<text text-anchor="middle" x="329" y="-175" font-family="Helvetica,sans-Serif" font-size="10.00">srcBrief</text>
</g>
<!-- Node9&#45;&gt;Node9 -->
<g id="edge12" class="edge">
<title>Node9&#45;&gt;Node9</title>
<path fill="none" stroke="#9a32cd" stroke-dasharray="5,2" d="M364.45,-227.6C369,-226.8 372,-225.27 372,-223 372,-219.28 363.91,-217.54 354.18,-217.77"/>
<polygon fill="#9a32cd" stroke="#9a32cd" points="363.94,-224.12 354.18,-228.23 364.37,-231.11 363.94,-224.12"/>
<text text-anchor="middle" x="391.5" y="-226" font-family="Helvetica,sans-Serif" font-size="10.00"> empty</text>
<text text-anchor="middle" x="391.5" y="-215" font-family="Helvetica,sans-Serif" font-size="10.00">newline</text>
</g>
</g>
</svg>
