<?xml version="1.0" encoding="UTF-8" standalone="no"?>
<!DOCTYPE svg PUBLIC "-//W3C//DTD SVG 1.1//EN"
 "http://www.w3.org/Graphics/SVG/1.1/DTD/svg11.dtd">
<!-- Generated by graphviz version 2.43.0 (0)
 -->
<!-- Title: EBPF::MidEnd Pages: 1 -->
<svg width="531pt" height="221pt"
 viewBox="0.00 0.00 530.50 221.00" xmlns="http://www.w3.org/2000/svg" xmlns:xlink="http://www.w3.org/1999/xlink">
<g id="graph0" class="graph" transform="scale(1 1) rotate(0) translate(4 217)">
<title>EBPF::MidEnd</title>
<polygon fill="white" stroke="transparent" points="-4,4 -4,-217 526.5,-217 526.5,4 -4,4"/>
<!-- Node1 -->
<g id="node1" class="node">
<title>Node1</title>
<g id="a_node1"><a xlink:title=" ">
<polygon fill="#bfbfbf" stroke="black" points="276,-0.5 276,-19.5 359,-19.5 359,-0.5 276,-0.5"/>
<text text-anchor="middle" x="317.5" y="-7.5" font-family="Helvetica,sans-Serif" font-size="10.00">EBPF::MidEnd</text>
</a>
</g>
</g>
<!-- Node2 -->
<g id="node2" class="node">
<title>Node2</title>
<g id="a_node2"><a xlink:href="class_p4_1_1_type_map.html" target="_top" xlink:title=" ">
<polygon fill="white" stroke="black" points="278.5,-67.5 278.5,-86.5 356.5,-86.5 356.5,-67.5 278.5,-67.5"/>
<text text-anchor="middle" x="317.5" y="-74.5" font-family="Helvetica,sans-Serif" font-size="10.00">P4::TypeMap</text>
</a>
</g>
</g>
<!-- Node2&#45;&gt;Node1 -->
<g id="edge1" class="edge">
<title>Node2&#45;&gt;Node1</title>
<path fill="none" stroke="#9a32cd" stroke-dasharray="5,2" d="M317.5,-57.04C317.5,-44.67 317.5,-29.12 317.5,-19.63"/>
<polygon fill="#9a32cd" stroke="#9a32cd" points="314,-57.23 317.5,-67.23 321,-57.23 314,-57.23"/>
<text text-anchor="middle" x="340.5" y="-41" font-family="Helvetica,sans-Serif" font-size="10.00"> typeMap</text>
</g>
<!-- Node3 -->
<g id="node3" class="node">
<title>Node3</title>
<g id="a_node3"><a xlink:href="class_p4_1_1_program_map.html" target="_top" xlink:title=" ">
<polygon fill="white" stroke="black" points="274,-124.5 274,-143.5 371,-143.5 371,-124.5 274,-124.5"/>
<text text-anchor="middle" x="322.5" y="-131.5" font-family="Helvetica,sans-Serif" font-size="10.00">P4::ProgramMap</text>
</a>
</g>
</g>
<!-- Node3&#45;&gt;Node2 -->
<g id="edge2" class="edge">
<title>Node3&#45;&gt;Node2</title>
<path fill="none" stroke="midnightblue" d="M320.81,-114.42C319.96,-105.05 318.97,-94.14 318.29,-86.71"/>
<polygon fill="midnightblue" stroke="midnightblue" points="317.33,-114.76 321.72,-124.41 324.3,-114.13 317.33,-114.76"/>
</g>
<!-- Node6 -->
<g id="node6" class="node">
<title>Node6</title>
<g id="a_node6"><a xlink:href="class_p4_1_1_reference_map.html" target="_top" xlink:title="Class used to encode maps from paths to declarations.">
<polygon fill="white" stroke="black" points="150,-67.5 150,-86.5 255,-86.5 255,-67.5 150,-67.5"/>
<text text-anchor="middle" x="202.5" y="-74.5" font-family="Helvetica,sans-Serif" font-size="10.00">P4::ReferenceMap</text>
</a>
</g>
</g>
<!-- Node3&#45;&gt;Node6 -->
<g id="edge7" class="edge">
<title>Node3&#45;&gt;Node6</title>
<path fill="none" stroke="midnightblue" d="M294.65,-120.23C272.04,-109.87 240.79,-95.55 221.12,-86.53"/>
<polygon fill="midnightblue" stroke="midnightblue" points="293.2,-123.42 303.75,-124.41 296.12,-117.06 293.2,-123.42"/>
</g>
<!-- Node4 -->
<g id="node4" class="node">
<title>Node4</title>
<g id="a_node4"><a xlink:href="class_i_has_db_print.html" target="_top" xlink:title=" ">
<polygon fill="white" stroke="black" points="257.5,-192.5 257.5,-211.5 331.5,-211.5 331.5,-192.5 257.5,-192.5"/>
<text text-anchor="middle" x="294.5" y="-199.5" font-family="Helvetica,sans-Serif" font-size="10.00">IHasDbPrint</text>
</a>
</g>
</g>
<!-- Node4&#45;&gt;Node3 -->
<g id="edge3" class="edge">
<title>Node4&#45;&gt;Node3</title>
<path fill="none" stroke="midnightblue" d="M302.22,-182.81C307.6,-170.12 314.54,-153.76 318.75,-143.84"/>
<polygon fill="midnightblue" stroke="midnightblue" points="298.84,-181.8 298.16,-192.37 305.29,-184.53 298.84,-181.8"/>
</g>
<!-- Node5 -->
<g id="node5" class="node">
<title>Node5</title>
<g id="a_node5"><a xlink:href="classcstring.html" target="_top" xlink:title=" ">
<polygon fill="white" stroke="black" points="349.5,-192.5 349.5,-211.5 399.5,-211.5 399.5,-192.5 349.5,-192.5"/>
<text text-anchor="middle" x="374.5" y="-199.5" font-family="Helvetica,sans-Serif" font-size="10.00">cstring</text>
</a>
</g>
</g>
<!-- Node5&#45;&gt;Node3 -->
<g id="edge4" class="edge">
<title>Node5&#45;&gt;Node3</title>
<path fill="none" stroke="#9a32cd" stroke-dasharray="5,2" d="M361.35,-184.31C351.21,-171.44 337.59,-154.16 329.47,-143.84"/>
<polygon fill="#9a32cd" stroke="#9a32cd" points="358.76,-186.68 367.7,-192.37 364.26,-182.35 358.76,-186.68"/>
<text text-anchor="middle" x="375" y="-165" font-family="Helvetica,sans-Serif" font-size="10.00"> mapKind</text>
</g>
<!-- Node5&#45;&gt;Node5 -->
<g id="edge5" class="edge">
<title>Node5&#45;&gt;Node5</title>
<path fill="none" stroke="#9a32cd" stroke-dasharray="5,2" d="M409.95,-207.58C414.5,-206.61 417.5,-204.75 417.5,-202 417.5,-197.48 409.41,-195.37 399.68,-195.65"/>
<polygon fill="#9a32cd" stroke="#9a32cd" points="409.39,-204.11 399.68,-208.35 409.91,-211.1 409.39,-204.11"/>
<text text-anchor="middle" x="437" y="-205" font-family="Helvetica,sans-Serif" font-size="10.00"> empty</text>
<text text-anchor="middle" x="437" y="-194" font-family="Helvetica,sans-Serif" font-size="10.00">newline</text>
</g>
<!-- Node6&#45;&gt;Node1 -->
<g id="edge6" class="edge">
<title>Node6&#45;&gt;Node1</title>
<path fill="none" stroke="#9a32cd" stroke-dasharray="5,2" d="M226.76,-62.29C249.55,-49.4 282.96,-30.52 302.24,-19.63"/>
<polygon fill="#9a32cd" stroke="#9a32cd" points="224.99,-59.27 218.01,-67.23 228.44,-65.36 224.99,-59.27"/>
<text text-anchor="middle" x="286.5" y="-41" font-family="Helvetica,sans-Serif" font-size="10.00"> refMap</text>
</g>
<!-- Node7 -->
<g id="node7" class="node">
<title>Node7</title>
<g id="a_node7"><a xlink:href="class_p4_1_1_name_generator.html" target="_top" xlink:title=" ">
<polygon fill="white" stroke="black" points="0,-124.5 0,-143.5 113,-143.5 113,-124.5 0,-124.5"/>
<text text-anchor="middle" x="56.5" y="-131.5" font-family="Helvetica,sans-Serif" font-size="10.00">P4::NameGenerator</text>
</a>
</g>
</g>
<!-- Node7&#45;&gt;Node6 -->
<g id="edge8" class="edge">
<title>Node7&#45;&gt;Node6</title>
<path fill="none" stroke="midnightblue" d="M88.92,-120.79C116.53,-110.39 155.48,-95.71 179.85,-86.53"/>
<polygon fill="midnightblue" stroke="midnightblue" points="87.44,-117.61 79.31,-124.41 89.9,-124.16 87.44,-117.61"/>
</g>
<!-- Node8 -->
<g id="node8" class="node">
<title>Node8</title>
<g id="a_node8"><a xlink:href="class_p4_1_1_declaration_lookup.html" target="_top" xlink:title=" ">
<polygon fill="white" stroke="black" points="131,-124.5 131,-143.5 256,-143.5 256,-124.5 131,-124.5"/>
<text text-anchor="middle" x="193.5" y="-131.5" font-family="Helvetica,sans-Serif" font-size="10.00">P4::DeclarationLookup</text>
</a>
</g>
</g>
<!-- Node8&#45;&gt;Node6 -->
<g id="edge9" class="edge">
<title>Node8&#45;&gt;Node6</title>
<path fill="none" stroke="midnightblue" d="M196.54,-114.42C198.07,-105.05 199.86,-94.14 201.07,-86.71"/>
<polygon fill="midnightblue" stroke="midnightblue" points="193.07,-113.97 194.91,-124.41 199.98,-115.1 193.07,-113.97"/>
</g>
<!-- Node9 -->
<g id="node9" class="node">
<title>Node9</title>
<g id="a_node9"><a xlink:title=" ">
<polygon fill="white" stroke="#bfbfbf" points="374.5,-67.5 374.5,-86.5 522.5,-86.5 522.5,-67.5 374.5,-67.5"/>
<text text-anchor="middle" x="448.5" y="-74.5" font-family="Helvetica,sans-Serif" font-size="10.00">std::vector&lt; DebugHook &gt;</text>
</a>
</g>
</g>
<!-- Node9&#45;&gt;Node1 -->
<g id="edge10" class="edge">
<title>Node9&#45;&gt;Node1</title>
<path fill="none" stroke="#9a32cd" stroke-dasharray="5,2" d="M421.84,-62.77C395.9,-49.9 357.22,-30.71 334.97,-19.67"/>
<polygon fill="#9a32cd" stroke="#9a32cd" points="420.59,-66.06 431.1,-67.37 423.7,-59.79 420.59,-66.06"/>
<text text-anchor="middle" x="407" y="-41" font-family="Helvetica,sans-Serif" font-size="10.00"> hooks</text>
</g>
</g>
</svg>
