<?xml version="1.0" encoding="UTF-8" standalone="no"?>
<!DOCTYPE svg PUBLIC "-//W3C//DTD SVG 1.1//EN"
 "http://www.w3.org/Graphics/SVG/1.1/DTD/svg11.dtd">
<!-- Generated by graphviz version 2.43.0 (0)
 -->
<!-- Title: P4::AnyElement Pages: 1 -->
<svg width="298pt" height="413pt"
 viewBox="0.00 0.00 297.50 413.00" xmlns="http://www.w3.org/2000/svg" xmlns:xlink="http://www.w3.org/1999/xlink">
<g id="graph0" class="graph" transform="scale(1 1) rotate(0) translate(4 409)">
<title>P4::AnyElement</title>
<polygon fill="white" stroke="transparent" points="-4,4 -4,-409 293.5,-409 293.5,4 -4,4"/>
<!-- Node1 -->
<g id="node1" class="node">
<title>Node1</title>
<g id="a_node1"><a xlink:title=" ">
<polygon fill="#bfbfbf" stroke="black" points="130,-0.5 130,-19.5 224,-19.5 224,-0.5 130,-0.5"/>
<text text-anchor="middle" x="177" y="-7.5" font-family="Helvetica,sans-Serif" font-size="10.00">P4::AnyElement</text>
</a>
</g>
</g>
<!-- Node2 -->
<g id="node2" class="node">
<title>Node2</title>
<g id="a_node2"><a xlink:href="class_p4_1_1_symbolic_header.html" target="_top" xlink:title=" ">
<polygon fill="white" stroke="black" points="119.5,-57.5 119.5,-76.5 234.5,-76.5 234.5,-57.5 119.5,-57.5"/>
<text text-anchor="middle" x="177" y="-64.5" font-family="Helvetica,sans-Serif" font-size="10.00">P4::SymbolicHeader</text>
</a>
</g>
</g>
<!-- Node2&#45;&gt;Node1 -->
<g id="edge1" class="edge">
<title>Node2&#45;&gt;Node1</title>
<path fill="none" stroke="midnightblue" d="M177,-47.12C177,-37.82 177,-27.06 177,-19.71"/>
<polygon fill="midnightblue" stroke="midnightblue" points="173.5,-47.41 177,-57.41 180.5,-47.41 173.5,-47.41"/>
</g>
<!-- Node3 -->
<g id="node3" class="node">
<title>Node3</title>
<g id="a_node3"><a xlink:href="class_p4_1_1_symbolic_struct.html" target="_top" xlink:title=" ">
<polygon fill="white" stroke="black" points="62,-124.5 62,-143.5 170,-143.5 170,-124.5 62,-124.5"/>
<text text-anchor="middle" x="116" y="-131.5" font-family="Helvetica,sans-Serif" font-size="10.00">P4::SymbolicStruct</text>
</a>
</g>
</g>
<!-- Node3&#45;&gt;Node2 -->
<g id="edge2" class="edge">
<title>Node3&#45;&gt;Node2</title>
<path fill="none" stroke="midnightblue" d="M131.36,-116.63C143.29,-103.92 159.36,-86.8 168.9,-76.63"/>
<polygon fill="midnightblue" stroke="midnightblue" points="128.52,-114.55 124.23,-124.23 133.62,-119.34 128.52,-114.55"/>
</g>
<!-- Node4 -->
<g id="node4" class="node">
<title>Node4</title>
<g id="a_node4"><a xlink:href="class_p4_1_1_symbolic_value.html" target="_top" xlink:title=" ">
<polygon fill="white" stroke="black" points="125.5,-270.5 125.5,-289.5 232.5,-289.5 232.5,-270.5 125.5,-270.5"/>
<text text-anchor="middle" x="179" y="-277.5" font-family="Helvetica,sans-Serif" font-size="10.00">P4::SymbolicValue</text>
</a>
</g>
</g>
<!-- Node4&#45;&gt;Node3 -->
<g id="edge3" class="edge">
<title>Node4&#45;&gt;Node3</title>
<path fill="none" stroke="midnightblue" d="M178.31,-260.23C176.61,-235.79 170.79,-192.58 151,-162 146.16,-154.53 138.52,-148.28 131.61,-143.69"/>
<polygon fill="midnightblue" stroke="midnightblue" points="174.82,-260.51 178.85,-270.31 181.81,-260.13 174.82,-260.51"/>
</g>
<!-- Node8 -->
<g id="node8" class="node">
<title>Node8</title>
<g id="a_node8"><a xlink:title=" ">
<polygon fill="white" stroke="#bfbfbf" points="7.5,-191.5 7.5,-221.5 136.5,-221.5 136.5,-191.5 7.5,-191.5"/>
<text text-anchor="start" x="15.5" y="-209.5" font-family="Helvetica,sans-Serif" font-size="10.00">std::map&lt; cstring,</text>
<text text-anchor="middle" x="72" y="-198.5" font-family="Helvetica,sans-Serif" font-size="10.00"> P4::SymbolicValue * &gt;</text>
</a>
</g>
</g>
<!-- Node4&#45;&gt;Node8 -->
<g id="edge10" class="edge">
<title>Node4&#45;&gt;Node8</title>
<path fill="none" stroke="#9a32cd" stroke-dasharray="5,2" d="M131.86,-267.07C121.38,-263.05 110.79,-257.79 102,-251 91.98,-243.26 84.05,-231.22 78.86,-221.77"/>
<polygon fill="#9a32cd" stroke="#9a32cd" points="130.8,-270.41 141.39,-270.42 133.12,-263.8 130.8,-270.41"/>
<text text-anchor="middle" x="126.5" y="-243" font-family="Helvetica,sans-Serif" font-size="10.00"> elements</text>
</g>
<!-- Node11 -->
<g id="node11" class="node">
<title>Node11</title>
<g id="a_node11"><a xlink:href="class_p4_1_1_scalar_value.html" target="_top" xlink:title=" ">
<polygon fill="white" stroke="black" points="193,-197 193,-216 285,-216 285,-197 193,-197"/>
<text text-anchor="middle" x="239" y="-204" font-family="Helvetica,sans-Serif" font-size="10.00">P4::ScalarValue</text>
</a>
</g>
</g>
<!-- Node4&#45;&gt;Node11 -->
<g id="edge13" class="edge">
<title>Node4&#45;&gt;Node11</title>
<path fill="none" stroke="midnightblue" d="M192.79,-262.57C204.86,-248.19 221.93,-227.85 231.58,-216.34"/>
<polygon fill="midnightblue" stroke="midnightblue" points="190.1,-260.32 186.36,-270.23 195.47,-264.82 190.1,-260.32"/>
</g>
<!-- Node5 -->
<g id="node5" class="node">
<title>Node5</title>
<g id="a_node5"><a xlink:href="class_i_has_db_print.html" target="_top" xlink:title=" ">
<polygon fill="white" stroke="black" points="115,-328.5 115,-347.5 189,-347.5 189,-328.5 115,-328.5"/>
<text text-anchor="middle" x="152" y="-335.5" font-family="Helvetica,sans-Serif" font-size="10.00">IHasDbPrint</text>
</a>
</g>
</g>
<!-- Node5&#45;&gt;Node4 -->
<g id="edge4" class="edge">
<title>Node5&#45;&gt;Node4</title>
<path fill="none" stroke="midnightblue" d="M160.58,-319.2C165.37,-309.27 171.11,-297.36 174.9,-289.51"/>
<polygon fill="midnightblue" stroke="midnightblue" points="157.41,-317.72 156.22,-328.25 163.71,-320.76 157.41,-317.72"/>
</g>
<!-- Node6 -->
<g id="node6" class="node">
<title>Node6</title>
<g id="a_node6"><a xlink:href="class_i_castable.html" target="_top" xlink:title=" ">
<polygon fill="white" stroke="black" points="207,-328.5 207,-347.5 269,-347.5 269,-328.5 207,-328.5"/>
<text text-anchor="middle" x="238" y="-335.5" font-family="Helvetica,sans-Serif" font-size="10.00">ICastable</text>
</a>
</g>
</g>
<!-- Node6&#45;&gt;Node4 -->
<g id="edge5" class="edge">
<title>Node6&#45;&gt;Node4</title>
<path fill="none" stroke="midnightblue" d="M221.78,-321.6C210.91,-311.28 197,-298.08 188.05,-289.59"/>
<polygon fill="midnightblue" stroke="midnightblue" points="219.38,-324.15 229.04,-328.49 224.2,-319.07 219.38,-324.15"/>
</g>
<!-- Node7 -->
<g id="node7" class="node">
<title>Node7</title>
<g id="a_node7"><a xlink:href="struct_r_t_t_i_1_1_base.html" target="_top" xlink:title=" ">
<polygon fill="white" stroke="black" points="204,-385.5 204,-404.5 272,-404.5 272,-385.5 204,-385.5"/>
<text text-anchor="middle" x="238" y="-392.5" font-family="Helvetica,sans-Serif" font-size="10.00">RTTI::Base</text>
</a>
</g>
</g>
<!-- Node7&#45;&gt;Node6 -->
<g id="edge6" class="edge">
<title>Node7&#45;&gt;Node6</title>
<path fill="none" stroke="midnightblue" d="M238,-375.12C238,-365.82 238,-355.06 238,-347.71"/>
<polygon fill="midnightblue" stroke="midnightblue" points="234.5,-375.41 238,-385.41 241.5,-375.41 234.5,-375.41"/>
</g>
<!-- Node8&#45;&gt;Node3 -->
<g id="edge7" class="edge">
<title>Node8&#45;&gt;Node3</title>
<path fill="none" stroke="#9a32cd" stroke-dasharray="5,2" d="M86.07,-182.77C90.23,-176.07 94.79,-168.74 99,-162 102.88,-155.8 107.27,-148.82 110.63,-143.5"/>
<polygon fill="#9a32cd" stroke="#9a32cd" points="83.03,-181.04 80.73,-191.38 88.98,-184.73 83.03,-181.04"/>
<text text-anchor="middle" x="125" y="-165" font-family="Helvetica,sans-Serif" font-size="10.00"> fieldValue</text>
</g>
<!-- Node9 -->
<g id="node9" class="node">
<title>Node9</title>
<g id="a_node9"><a xlink:href="classcstring.html" target="_top" xlink:title=" ">
<polygon fill="white" stroke="black" points="0,-270.5 0,-289.5 50,-289.5 50,-270.5 0,-270.5"/>
<text text-anchor="middle" x="25" y="-277.5" font-family="Helvetica,sans-Serif" font-size="10.00">cstring</text>
</a>
</g>
</g>
<!-- Node9&#45;&gt;Node8 -->
<g id="edge8" class="edge">
<title>Node9&#45;&gt;Node8</title>
<path fill="none" stroke="#9a32cd" stroke-dasharray="5,2" d="M35.58,-261.27C39.68,-254.55 44.47,-246.86 49,-240 53.04,-233.89 57.68,-227.26 61.72,-221.6"/>
<polygon fill="#9a32cd" stroke="#9a32cd" points="32.35,-259.85 30.18,-270.23 38.34,-263.47 32.35,-259.85"/>
<text text-anchor="middle" x="62" y="-243" font-family="Helvetica,sans-Serif" font-size="10.00"> keys</text>
</g>
<!-- Node9&#45;&gt;Node9 -->
<g id="edge9" class="edge">
<title>Node9&#45;&gt;Node9</title>
<path fill="none" stroke="#9a32cd" stroke-dasharray="5,2" d="M60.45,-284.6C65,-283.8 68,-282.27 68,-280 68,-276.28 59.91,-274.54 50.18,-274.77"/>
<polygon fill="#9a32cd" stroke="#9a32cd" points="59.94,-281.12 50.18,-285.23 60.37,-288.11 59.94,-281.12"/>
<text text-anchor="middle" x="87.5" y="-283" font-family="Helvetica,sans-Serif" font-size="10.00"> empty</text>
<text text-anchor="middle" x="87.5" y="-272" font-family="Helvetica,sans-Serif" font-size="10.00">newline</text>
</g>
<!-- Node10 -->
<g id="node10" class="node">
<title>Node10</title>
<g id="a_node10"><a xlink:href="class_p4_1_1_symbolic_bool.html" target="_top" xlink:title=" ">
<polygon fill="white" stroke="black" points="188.5,-124.5 188.5,-143.5 289.5,-143.5 289.5,-124.5 188.5,-124.5"/>
<text text-anchor="middle" x="239" y="-131.5" font-family="Helvetica,sans-Serif" font-size="10.00">P4::SymbolicBool</text>
</a>
</g>
</g>
<!-- Node10&#45;&gt;Node2 -->
<g id="edge11" class="edge">
<title>Node10&#45;&gt;Node2</title>
<path fill="none" stroke="#9a32cd" stroke-dasharray="5,2" d="M223.74,-117C211.58,-104.25 195.02,-86.89 185.23,-76.63"/>
<polygon fill="#9a32cd" stroke="#9a32cd" points="221.2,-119.41 230.64,-124.23 226.27,-114.58 221.2,-119.41"/>
<text text-anchor="middle" x="225" y="-98" font-family="Helvetica,sans-Serif" font-size="10.00"> valid</text>
</g>
<!-- Node11&#45;&gt;Node10 -->
<g id="edge12" class="edge">
<title>Node11&#45;&gt;Node10</title>
<path fill="none" stroke="midnightblue" d="M239,-186.44C239,-172.53 239,-154.32 239,-143.72"/>
<polygon fill="midnightblue" stroke="midnightblue" points="235.5,-186.86 239,-196.86 242.5,-186.86 235.5,-186.86"/>
</g>
</g>
</svg>
