<?xml version="1.0" encoding="UTF-8" standalone="no"?>
<!DOCTYPE svg PUBLIC "-//W3C//DTD SVG 1.1//EN"
 "http://www.w3.org/Graphics/SVG/1.1/DTD/svg11.dtd">
<!-- Generated by graphviz version 2.43.0 (0)
 -->
<!-- Title: P4Tools::AbstractP4cToolOptions Pages: 1 -->
<svg width="1099pt" height="228pt"
 viewBox="0.00 0.00 1099.00 228.00" xmlns="http://www.w3.org/2000/svg" xmlns:xlink="http://www.w3.org/1999/xlink">
<g id="graph0" class="graph" transform="scale(1 1) rotate(0) translate(4 224)">
<title>P4Tools::AbstractP4cToolOptions</title>
<polygon fill="white" stroke="transparent" points="-4,4 -4,-224 1095,-224 1095,4 -4,4"/>
<!-- Node1 -->
<g id="node1" class="node">
<title>Node1</title>
<g id="a_node1"><a xlink:title=" ">
<polygon fill="#bfbfbf" stroke="black" points="954,-25.5 954,-55.5 1091,-55.5 1091,-25.5 954,-25.5"/>
<text text-anchor="start" x="962" y="-43.5" font-family="Helvetica,sans-Serif" font-size="10.00">P4Tools::AbstractP4cTool</text>
<text text-anchor="middle" x="1022.5" y="-32.5" font-family="Helvetica,sans-Serif" font-size="10.00">Options</text>
</a>
</g>
</g>
<!-- Node2 -->
<g id="node2" class="node">
<title>Node2</title>
<g id="a_node2"><a xlink:href="class_util_1_1_options.html" target="_top" xlink:title=" ">
<polygon fill="white" stroke="black" points="840,-97 840,-116 917,-116 917,-97 840,-97"/>
<text text-anchor="middle" x="878.5" y="-104" font-family="Helvetica,sans-Serif" font-size="10.00">Util::Options</text>
</a>
</g>
</g>
<!-- Node2&#45;&gt;Node1 -->
<g id="edge1" class="edge">
<title>Node2&#45;&gt;Node1</title>
<path fill="none" stroke="darkgreen" d="M909.23,-92.68C932.55,-81.84 964.98,-66.77 989,-55.61"/>
<polygon fill="darkgreen" stroke="darkgreen" points="907.74,-89.51 900.15,-96.9 910.69,-95.86 907.74,-89.51"/>
</g>
<!-- Node3 -->
<g id="node3" class="node">
<title>Node3</title>
<g id="a_node3"><a xlink:title=" ">
<polygon fill="white" stroke="#bfbfbf" points="606,-50 606,-91 716,-91 716,-50 606,-50"/>
<text text-anchor="start" x="614" y="-79" font-family="Helvetica,sans-Serif" font-size="10.00">std::map&lt; cstring,</text>
<text text-anchor="start" x="614" y="-68" font-family="Helvetica,sans-Serif" font-size="10.00"> const Util::Options</text>
<text text-anchor="middle" x="661" y="-57" font-family="Helvetica,sans-Serif" font-size="10.00">::Option * &gt;</text>
</a>
</g>
</g>
<!-- Node3&#45;&gt;Node2 -->
<g id="edge2" class="edge">
<title>Node3&#45;&gt;Node2</title>
<path fill="none" stroke="#9a32cd" stroke-dasharray="5,2" d="M726.3,-79.19C755.57,-83.39 790.61,-88.76 822,-94.5 827.82,-95.56 833.96,-96.79 839.95,-98.04"/>
<polygon fill="#9a32cd" stroke="#9a32cd" points="726.6,-75.69 716.21,-77.75 725.61,-82.62 726.6,-75.69"/>
<text text-anchor="middle" x="778" y="-97.5" font-family="Helvetica,sans-Serif" font-size="10.00"> options</text>
</g>
<!-- Node4 -->
<g id="node4" class="node">
<title>Node4</title>
<g id="a_node4"><a xlink:href="classcstring.html" target="_top" xlink:title=" ">
<polygon fill="white" stroke="black" points="156,-91 156,-110 206,-110 206,-91 156,-91"/>
<text text-anchor="middle" x="181" y="-98" font-family="Helvetica,sans-Serif" font-size="10.00">cstring</text>
</a>
</g>
</g>
<!-- Node4&#45;&gt;Node2 -->
<g id="edge8" class="edge">
<title>Node4&#45;&gt;Node2</title>
<path fill="none" stroke="#9a32cd" stroke-dasharray="5,2" d="M216.09,-103.06C230.55,-104.03 247.59,-105.01 263,-105.5 481.33,-112.41 743.5,-108.91 839.73,-107.23"/>
<polygon fill="#9a32cd" stroke="#9a32cd" points="216.3,-99.57 206.08,-102.37 215.82,-106.55 216.3,-99.57"/>
<text text-anchor="middle" x="526" y="-135.5" font-family="Helvetica,sans-Serif" font-size="10.00"> buildDate</text>
<text text-anchor="middle" x="526" y="-124.5" font-family="Helvetica,sans-Serif" font-size="10.00">compileCommand</text>
<text text-anchor="middle" x="526" y="-113.5" font-family="Helvetica,sans-Serif" font-size="10.00">message</text>
</g>
<!-- Node4&#45;&gt;Node3 -->
<g id="edge3" class="edge">
<title>Node4&#45;&gt;Node3</title>
<path fill="none" stroke="#9a32cd" stroke-dasharray="5,2" d="M216.06,-98.36C297.99,-93.22 506.67,-80.12 605.94,-73.89"/>
<polygon fill="#9a32cd" stroke="#9a32cd" points="215.79,-94.87 206.03,-98.99 216.23,-101.86 215.79,-94.87"/>
<text text-anchor="middle" x="388" y="-94.5" font-family="Helvetica,sans-Serif" font-size="10.00"> keys</text>
</g>
<!-- Node4&#45;&gt;Node4 -->
<g id="edge4" class="edge">
<title>Node4&#45;&gt;Node4</title>
<path fill="none" stroke="#9a32cd" stroke-dasharray="5,2" d="M165.9,-120.27C167.09,-125 172.12,-128.5 181,-128.5 195.57,-128.5 199.79,-119.07 193.64,-110.26"/>
<polygon fill="#9a32cd" stroke="#9a32cd" points="169.37,-120.8 168.36,-110.26 162.57,-119.13 169.37,-120.8"/>
<text text-anchor="middle" x="181" y="-142.5" font-family="Helvetica,sans-Serif" font-size="10.00"> empty</text>
<text text-anchor="middle" x="181" y="-131.5" font-family="Helvetica,sans-Serif" font-size="10.00">newline</text>
</g>
<!-- Node5 -->
<g id="node5" class="node">
<title>Node5</title>
<g id="a_node5"><a xlink:href="class_util_1_1_options.html#struct_util_1_1_options_1_1_option" target="_top" xlink:title=" ">
<polygon fill="white" stroke="black" points="330,-25 330,-44 446,-44 446,-25 330,-25"/>
<text text-anchor="middle" x="388" y="-32" font-family="Helvetica,sans-Serif" font-size="10.00">Util::Options::Option</text>
</a>
</g>
</g>
<!-- Node4&#45;&gt;Node5 -->
<g id="edge6" class="edge">
<title>Node4&#45;&gt;Node5</title>
<path fill="none" stroke="#9a32cd" stroke-dasharray="5,2" d="M204.44,-85.3C220.17,-75.34 242.06,-62.85 263,-55.5 284.22,-48.05 308.44,-43.2 329.81,-40.06"/>
<polygon fill="#9a32cd" stroke="#9a32cd" points="202.42,-82.44 195.93,-90.82 206.23,-88.31 202.42,-82.44"/>
<text text-anchor="middle" x="287.5" y="-58.5" font-family="Helvetica,sans-Serif" font-size="10.00"> option</text>
</g>
<!-- Node7 -->
<g id="node7" class="node">
<title>Node7</title>
<g id="a_node7"><a xlink:title=" ">
<polygon fill="white" stroke="#bfbfbf" points="464,-158 464,-177 588,-177 588,-158 464,-158"/>
<text text-anchor="middle" x="526" y="-165" font-family="Helvetica,sans-Serif" font-size="10.00">std::vector&lt; cstring &gt;</text>
</a>
</g>
</g>
<!-- Node4&#45;&gt;Node7 -->
<g id="edge10" class="edge">
<title>Node4&#45;&gt;Node7</title>
<path fill="none" stroke="#9a32cd" stroke-dasharray="5,2" d="M210.84,-114.37C226.04,-121.13 245.17,-128.8 263,-133.5 330.41,-151.29 410.14,-159.94 463.79,-164.03"/>
<polygon fill="#9a32cd" stroke="#9a32cd" points="212.03,-111.07 201.48,-110.1 209.13,-117.44 212.03,-111.07"/>
<text text-anchor="middle" x="287.5" y="-147.5" font-family="Helvetica,sans-Serif" font-size="10.00"> elements</text>
</g>
<!-- Node5&#45;&gt;Node3 -->
<g id="edge5" class="edge">
<title>Node5&#45;&gt;Node3</title>
<path fill="none" stroke="#9a32cd" stroke-dasharray="5,2" d="M456.33,-39.91C494.99,-43.44 544.36,-48.67 588,-55.5 593.8,-56.41 599.84,-57.47 605.85,-58.61"/>
<polygon fill="#9a32cd" stroke="#9a32cd" points="456.51,-36.42 446.24,-39.01 455.89,-43.39 456.51,-36.42"/>
<text text-anchor="middle" x="526" y="-58.5" font-family="Helvetica,sans-Serif" font-size="10.00"> elements</text>
</g>
<!-- Node6 -->
<g id="node6" class="node">
<title>Node6</title>
<g id="a_node6"><a xlink:title=" ">
<polygon fill="white" stroke="#bfbfbf" points="608,-0.5 608,-30.5 714,-30.5 714,-0.5 608,-0.5"/>
<text text-anchor="start" x="616" y="-18.5" font-family="Helvetica,sans-Serif" font-size="10.00">std::vector&lt; const</text>
<text text-anchor="middle" x="661" y="-7.5" font-family="Helvetica,sans-Serif" font-size="10.00"> char * &gt;</text>
</a>
</g>
</g>
<!-- Node6&#45;&gt;Node1 -->
<g id="edge15" class="edge">
<title>Node6&#45;&gt;Node1</title>
<path fill="none" stroke="#9a32cd" stroke-dasharray="5,2" d="M724.64,-19.86C788.72,-24.31 887.96,-31.21 953.82,-35.79"/>
<polygon fill="#9a32cd" stroke="#9a32cd" points="724.49,-16.34 714.27,-19.14 724.01,-23.32 724.49,-16.34"/>
<text text-anchor="middle" x="878.5" y="-36.5" font-family="Helvetica,sans-Serif" font-size="10.00"> compilerArgs</text>
</g>
<!-- Node6&#45;&gt;Node2 -->
<g id="edge7" class="edge">
<title>Node6&#45;&gt;Node2</title>
<path fill="none" stroke="#9a32cd" stroke-dasharray="5,2" d="M724.12,-27.26C761.5,-34.98 805.03,-45.32 822,-54.5 841.97,-65.31 860.16,-85.07 869.95,-96.87"/>
<polygon fill="#9a32cd" stroke="#9a32cd" points="724.76,-23.82 714.27,-25.25 723.37,-30.68 724.76,-23.82"/>
<text text-anchor="middle" x="778" y="-68.5" font-family="Helvetica,sans-Serif" font-size="10.00"> additionalUsage</text>
<text text-anchor="middle" x="778" y="-57.5" font-family="Helvetica,sans-Serif" font-size="10.00">remainingOptions</text>
</g>
<!-- Node7&#45;&gt;Node2 -->
<g id="edge9" class="edge">
<title>Node7&#45;&gt;Node2</title>
<path fill="none" stroke="#9a32cd" stroke-dasharray="5,2" d="M598.29,-165.99C658.88,-163.13 747.61,-155.19 822,-133.5 835.99,-129.42 850.78,-122.05 861.57,-116.05"/>
<polygon fill="#9a32cd" stroke="#9a32cd" points="597.91,-162.51 588.07,-166.44 598.21,-169.5 597.91,-162.51"/>
<text text-anchor="middle" x="661" y="-169.5" font-family="Helvetica,sans-Serif" font-size="10.00"> optionOrder</text>
</g>
<!-- Node8 -->
<g id="node8" class="node">
<title>Node8</title>
<g id="a_node8"><a xlink:title=" ">
<polygon fill="white" stroke="#bfbfbf" points="622,-195 622,-214 700,-214 700,-195 622,-195"/>
<text text-anchor="middle" x="661" y="-202" font-family="Helvetica,sans-Serif" font-size="10.00">std::ostream</text>
</a>
</g>
</g>
<!-- Node8&#45;&gt;Node2 -->
<g id="edge11" class="edge">
<title>Node8&#45;&gt;Node2</title>
<path fill="none" stroke="#9a32cd" stroke-dasharray="5,2" d="M710.28,-206.16C743.79,-205.22 788.3,-199.6 822,-179.5 847.57,-164.25 865.4,-132.33 873.15,-116.23"/>
<polygon fill="#9a32cd" stroke="#9a32cd" points="710.2,-202.67 700.25,-206.32 710.3,-209.66 710.2,-202.67"/>
<text text-anchor="middle" x="778" y="-207.5" font-family="Helvetica,sans-Serif" font-size="10.00"> outStream</text>
</g>
<!-- Node9 -->
<g id="node9" class="node">
<title>Node9</title>
<g id="a_node9"><a xlink:title=" ">
<polygon fill="white" stroke="#bfbfbf" points="333.5,-189.5 333.5,-219.5 442.5,-219.5 442.5,-189.5 333.5,-189.5"/>
<text text-anchor="start" x="341.5" y="-207.5" font-family="Helvetica,sans-Serif" font-size="10.00">std::basic_ostream</text>
<text text-anchor="middle" x="388" y="-196.5" font-family="Helvetica,sans-Serif" font-size="10.00">&lt; Char &gt;</text>
</a>
</g>
</g>
<!-- Node9&#45;&gt;Node8 -->
<g id="edge12" class="edge">
<title>Node9&#45;&gt;Node8</title>
<path fill="none" stroke="midnightblue" d="M452.76,-204.5C505.27,-204.5 577.99,-204.5 621.86,-204.5"/>
<polygon fill="midnightblue" stroke="midnightblue" points="452.54,-201 442.54,-204.5 452.54,-208 452.54,-201"/>
</g>
<!-- Node10 -->
<g id="node10" class="node">
<title>Node10</title>
<g id="a_node10"><a xlink:title=" ">
<polygon fill="white" stroke="#bfbfbf" points="117,-195 117,-214 245,-214 245,-195 117,-195"/>
<text text-anchor="middle" x="181" y="-202" font-family="Helvetica,sans-Serif" font-size="10.00">std::basic_ios&lt; Char &gt;</text>
</a>
</g>
</g>
<!-- Node10&#45;&gt;Node9 -->
<g id="edge13" class="edge">
<title>Node10&#45;&gt;Node9</title>
<path fill="none" stroke="midnightblue" d="M255.28,-204.5C281.05,-204.5 309.51,-204.5 333.36,-204.5"/>
<polygon fill="midnightblue" stroke="midnightblue" points="255.18,-201 245.18,-204.5 255.18,-208 255.18,-201"/>
</g>
<!-- Node11 -->
<g id="node11" class="node">
<title>Node11</title>
<g id="a_node11"><a xlink:title=" ">
<polygon fill="white" stroke="#bfbfbf" points="0,-195 0,-214 80,-214 80,-195 0,-195"/>
<text text-anchor="middle" x="40" y="-202" font-family="Helvetica,sans-Serif" font-size="10.00">std::ios_base</text>
</a>
</g>
</g>
<!-- Node11&#45;&gt;Node10 -->
<g id="edge14" class="edge">
<title>Node11&#45;&gt;Node10</title>
<path fill="none" stroke="midnightblue" d="M90.28,-204.5C98.85,-204.5 107.87,-204.5 116.75,-204.5"/>
<polygon fill="midnightblue" stroke="midnightblue" points="90.09,-201 80.09,-204.5 90.09,-208 90.09,-201"/>
</g>
</g>
</svg>
