<?xml version="1.0" encoding="UTF-8" standalone="no"?>
<!DOCTYPE svg PUBLIC "-//W3C//DTD SVG 1.1//EN"
 "http://www.w3.org/Graphics/SVG/1.1/DTD/svg11.dtd">
<!-- Generated by graphviz version 2.43.0 (0)
 -->
<!-- Title: P4Tools::P4Testgen::TestgenCompilerTarget Pages: 1 -->
<svg width="646pt" height="149pt"
 viewBox="0.00 0.00 646.00 148.50" xmlns="http://www.w3.org/2000/svg" xmlns:xlink="http://www.w3.org/1999/xlink">
<g id="graph0" class="graph" transform="scale(1 1) rotate(0) translate(4 144.5)">
<title>P4Tools::P4Testgen::TestgenCompilerTarget</title>
<!-- Node1 -->
<g id="node1" class="node">
<title>Node1</title>
<g id="a_node1"><a xlink:title=" ">
<polygon fill="#bfbfbf" stroke="black" points="295,-49.5 295,-79.5 429,-79.5 429,-49.5 295,-49.5"/>
<text text-anchor="start" x="303" y="-67.5" font-family="Helvetica,sans-Serif" font-size="10.00">P4Tools::P4Testgen</text>
<text text-anchor="middle" x="362" y="-56.5" font-family="Helvetica,sans-Serif" font-size="10.00">::TestgenCompilerTarget</text>
</a>
</g>
</g>
<!-- Node4 -->
<g id="node4" class="node">
<title>Node4</title>
<g id="a_node4"><a xlink:href="class_p4_tools_1_1_p4_testgen_1_1_bmv2_1_1_bmv2_v1_model_compiler_target.html" target="_top" xlink:title=" ">
<polygon fill="none" stroke="black" points="465,-99 465,-140 638,-140 638,-99 465,-99"/>
<text text-anchor="start" x="473" y="-128" font-family="Helvetica,sans-Serif" font-size="10.00">P4Tools::P4Testgen</text>
<text text-anchor="start" x="473" y="-117" font-family="Helvetica,sans-Serif" font-size="10.00">::Bmv2::Bmv2V1ModelCompiler</text>
<text text-anchor="middle" x="551.5" y="-106" font-family="Helvetica,sans-Serif" font-size="10.00">Target</text>
</a>
</g>
</g>
<!-- Node1&#45;&gt;Node4 -->
<g id="edge3" class="edge">
<title>Node1&#45;&gt;Node4</title>
<path fill="none" stroke="midnightblue" d="M424.02,-82.4C442.01,-87.68 461.83,-93.49 480.35,-98.92"/>
<polygon fill="midnightblue" stroke="midnightblue" points="424.82,-78.99 414.24,-79.53 422.85,-85.7 424.82,-78.99"/>
</g>
<!-- Node5 -->
<g id="node5" class="node">
<title>Node5</title>
<g id="a_node5"><a xlink:href="class_p4_tools_1_1_p4_testgen_1_1_e_b_p_f_1_1_e_b_p_f_compiler_target.html" target="_top" xlink:title=" ">
<polygon fill="none" stroke="black" points="475.5,-49.5 475.5,-79.5 627.5,-79.5 627.5,-49.5 475.5,-49.5"/>
<text text-anchor="start" x="483.5" y="-67.5" font-family="Helvetica,sans-Serif" font-size="10.00">P4Tools::P4Testgen</text>
<text text-anchor="middle" x="551.5" y="-56.5" font-family="Helvetica,sans-Serif" font-size="10.00">::EBPF::EBPFCompilerTarget</text>
</a>
</g>
</g>
<!-- Node1&#45;&gt;Node5 -->
<g id="edge4" class="edge">
<title>Node1&#45;&gt;Node5</title>
<path fill="none" stroke="midnightblue" d="M439.42,-64.5C451.29,-64.5 463.55,-64.5 475.39,-64.5"/>
<polygon fill="midnightblue" stroke="midnightblue" points="439.11,-61 429.11,-64.5 439.11,-68 439.11,-61"/>
</g>
<!-- Node6 -->
<g id="node6" class="node">
<title>Node6</title>
<g id="a_node6"><a xlink:href="class_p4_tools_1_1_p4_testgen_1_1_pna_1_1_pna_dpdk_compiler_target.html" target="_top" xlink:title=" ">
<polygon fill="none" stroke="black" points="469.5,-0.5 469.5,-30.5 633.5,-30.5 633.5,-0.5 469.5,-0.5"/>
<text text-anchor="start" x="477.5" y="-18.5" font-family="Helvetica,sans-Serif" font-size="10.00">P4Tools::P4Testgen</text>
<text text-anchor="middle" x="551.5" y="-7.5" font-family="Helvetica,sans-Serif" font-size="10.00">::Pna::PnaDpdkCompilerTarget</text>
</a>
</g>
</g>
<!-- Node1&#45;&gt;Node6 -->
<g id="edge5" class="edge">
<title>Node1&#45;&gt;Node6</title>
<path fill="none" stroke="midnightblue" d="M430.43,-46.88C450.95,-41.52 473.29,-35.68 493.08,-30.51"/>
<polygon fill="midnightblue" stroke="midnightblue" points="429.32,-43.55 420.53,-49.47 431.09,-50.32 429.32,-43.55"/>
</g>
<!-- Node2 -->
<g id="node2" class="node">
<title>Node2</title>
<g id="a_node2"><a xlink:href="class_p4_tools_1_1_compiler_target.html" target="_top" xlink:title="Encapsulates the details of invoking the P4 compiler for a target device and architecture.">
<polygon fill="none" stroke="black" points="125,-55 125,-74 259,-74 259,-55 125,-55"/>
<text text-anchor="middle" x="192" y="-62" font-family="Helvetica,sans-Serif" font-size="10.00">P4Tools::CompilerTarget</text>
</a>
</g>
</g>
<!-- Node2&#45;&gt;Node1 -->
<g id="edge1" class="edge">
<title>Node2&#45;&gt;Node1</title>
<path fill="none" stroke="midnightblue" d="M269.59,-64.5C278.01,-64.5 286.53,-64.5 294.81,-64.5"/>
<polygon fill="midnightblue" stroke="midnightblue" points="269.4,-61 259.4,-64.5 269.4,-68 269.4,-61"/>
</g>
<!-- Node3 -->
<g id="node3" class="node">
<title>Node3</title>
<g id="a_node3"><a xlink:href="class_p4_tools_1_1_target.html" target="_top" xlink:title=" ">
<polygon fill="none" stroke="black" points="0,-55 0,-74 89,-74 89,-55 0,-55"/>
<text text-anchor="middle" x="44.5" y="-62" font-family="Helvetica,sans-Serif" font-size="10.00">P4Tools::Target</text>
</a>
</g>
</g>
<!-- Node3&#45;&gt;Node2 -->
<g id="edge2" class="edge">
<title>Node3&#45;&gt;Node2</title>
<path fill="none" stroke="midnightblue" d="M99.4,-64.5C107.67,-64.5 116.28,-64.5 124.77,-64.5"/>
<polygon fill="midnightblue" stroke="midnightblue" points="99.15,-61 89.15,-64.5 99.15,-68 99.15,-61"/>
</g>
</g>
</svg>
