<?xml version="1.0" encoding="UTF-8" standalone="no"?>
<!DOCTYPE svg PUBLIC "-//W3C//DTD SVG 1.1//EN"
 "http://www.w3.org/Graphics/SVG/1.1/DTD/svg11.dtd">
<!-- Generated by graphviz version 2.43.0 (0)
 -->
<!-- Title: TC::Extern Pages: 1 -->
<svg width="123pt" height="108pt"
 viewBox="0.00 0.00 123.00 108.00" xmlns="http://www.w3.org/2000/svg" xmlns:xlink="http://www.w3.org/1999/xlink">
<g id="graph0" class="graph" transform="scale(1 1) rotate(0) translate(4 104)">
<title>TC::Extern</title>
<polygon fill="white" stroke="transparent" points="-4,4 -4,-104 119,-104 119,4 -4,4"/>
<!-- Node1 -->
<g id="node1" class="node">
<title>Node1</title>
<g id="a_node1"><a xlink:title=" ">
<polygon fill="#bfbfbf" stroke="black" points="0,-0.5 0,-19.5 66,-19.5 66,-0.5 0,-0.5"/>
<text text-anchor="middle" x="33" y="-7.5" font-family="Helvetica,sans-Serif" font-size="10.00">TC::Extern</text>
</a>
</g>
</g>
<!-- Node2 -->
<g id="node2" class="node">
<title>Node2</title>
<g id="a_node2"><a xlink:href="classcstring.html" target="_top" xlink:title=" ">
<polygon fill="white" stroke="black" points="8,-79.5 8,-98.5 58,-98.5 58,-79.5 8,-79.5"/>
<text text-anchor="middle" x="33" y="-86.5" font-family="Helvetica,sans-Serif" font-size="10.00">cstring</text>
</a>
</g>
</g>
<!-- Node2&#45;&gt;Node1 -->
<g id="edge1" class="edge">
<title>Node2&#45;&gt;Node1</title>
<path fill="none" stroke="#9a32cd" stroke-dasharray="5,2" d="M33,-69.31C33,-53.59 33,-31.81 33,-19.81"/>
<polygon fill="#9a32cd" stroke="#9a32cd" points="29.5,-69.47 33,-79.47 36.5,-69.47 29.5,-69.47"/>
<text text-anchor="middle" x="61.5" y="-52" font-family="Helvetica,sans-Serif" font-size="10.00"> dropPacket</text>
<text text-anchor="middle" x="61.5" y="-41" font-family="Helvetica,sans-Serif" font-size="10.00">sendToPort</text>
</g>
<!-- Node2&#45;&gt;Node2 -->
<g id="edge2" class="edge">
<title>Node2&#45;&gt;Node2</title>
<path fill="none" stroke="#9a32cd" stroke-dasharray="5,2" d="M68.45,-95.57C73,-94.43 76,-92.24 76,-89 76,-83.69 67.91,-81.2 58.18,-81.53"/>
<polygon fill="#9a32cd" stroke="#9a32cd" points="67.83,-92.11 58.18,-96.47 68.44,-99.08 67.83,-92.11"/>
<text text-anchor="middle" x="95.5" y="-92" font-family="Helvetica,sans-Serif" font-size="10.00"> empty</text>
<text text-anchor="middle" x="95.5" y="-81" font-family="Helvetica,sans-Serif" font-size="10.00">newline</text>
</g>
</g>
</svg>
