<?xml version="1.0" encoding="UTF-8" standalone="no"?>
<!DOCTYPE svg PUBLIC "-//W3C//DTD SVG 1.1//EN"
 "http://www.w3.org/Graphics/SVG/1.1/DTD/svg11.dtd">
<!-- Generated by graphviz version 2.43.0 (0)
 -->
<!-- Title: BMV2::CFG::Edge Pages: 1 -->
<svg width="394pt" height="253pt"
 viewBox="0.00 0.00 393.50 253.00" xmlns="http://www.w3.org/2000/svg" xmlns:xlink="http://www.w3.org/1999/xlink">
<g id="graph0" class="graph" transform="scale(1 1) rotate(0) translate(4 249)">
<title>BMV2::CFG::Edge</title>
<polygon fill="white" stroke="transparent" points="-4,4 -4,-249 389.5,-249 389.5,4 -4,4"/>
<!-- Node1 -->
<g id="node1" class="node">
<title>Node1</title>
<g id="a_node1"><a xlink:title=" ">
<polygon fill="#bfbfbf" stroke="black" points="0,-0.5 0,-19.5 101,-19.5 101,-0.5 0,-0.5"/>
<text text-anchor="middle" x="50.5" y="-7.5" font-family="Helvetica,sans-Serif" font-size="10.00">BMV2::CFG::Edge</text>
</a>
</g>
</g>
<!-- Node2 -->
<g id="node2" class="node">
<title>Node2</title>
<g id="a_node2"><a xlink:href="classcstring.html" target="_top" xlink:title=" ">
<polygon fill="white" stroke="black" points="3.5,-146.5 3.5,-165.5 53.5,-165.5 53.5,-146.5 3.5,-146.5"/>
<text text-anchor="middle" x="28.5" y="-153.5" font-family="Helvetica,sans-Serif" font-size="10.00">cstring</text>
</a>
</g>
</g>
<!-- Node2&#45;&gt;Node1 -->
<g id="edge1" class="edge">
<title>Node2&#45;&gt;Node1</title>
<path fill="none" stroke="#9a32cd" stroke-dasharray="5,2" d="M31.34,-136.38C36.14,-104.97 45.67,-42.63 49.17,-19.71"/>
<polygon fill="#9a32cd" stroke="#9a32cd" points="27.86,-136.01 29.81,-146.42 34.78,-137.07 27.86,-136.01"/>
<text text-anchor="middle" x="56.5" y="-74.5" font-family="Helvetica,sans-Serif" font-size="10.00"> label</text>
</g>
<!-- Node2&#45;&gt;Node2 -->
<g id="edge2" class="edge">
<title>Node2&#45;&gt;Node2</title>
<path fill="none" stroke="#9a32cd" stroke-dasharray="5,2" d="M63.95,-161.58C68.5,-160.61 71.5,-158.75 71.5,-156 71.5,-151.48 63.41,-149.37 53.68,-149.65"/>
<polygon fill="#9a32cd" stroke="#9a32cd" points="63.39,-158.11 53.68,-162.35 63.91,-165.1 63.39,-158.11"/>
<text text-anchor="middle" x="91" y="-159" font-family="Helvetica,sans-Serif" font-size="10.00"> empty</text>
<text text-anchor="middle" x="91" y="-148" font-family="Helvetica,sans-Serif" font-size="10.00">newline</text>
</g>
<!-- Node3 -->
<g id="node3" class="node">
<title>Node3</title>
<g id="a_node3"><a xlink:href="class_b_m_v2_1_1_c_f_g_1_1_node.html" target="_top" xlink:title=" ">
<polygon fill="white" stroke="black" points="87,-67.5 87,-86.5 190,-86.5 190,-67.5 87,-67.5"/>
<text text-anchor="middle" x="138.5" y="-74.5" font-family="Helvetica,sans-Serif" font-size="10.00">BMV2::CFG::Node</text>
</a>
</g>
</g>
<!-- Node2&#45;&gt;Node3 -->
<g id="edge7" class="edge">
<title>Node2&#45;&gt;Node3</title>
<path fill="none" stroke="#9a32cd" stroke-dasharray="5,2" d="M46.82,-140C59.61,-129.75 77.25,-116.07 93.5,-105 103.14,-98.43 114.39,-91.68 123.23,-86.58"/>
<polygon fill="#9a32cd" stroke="#9a32cd" points="44.38,-137.47 38.81,-146.48 48.78,-142.91 44.38,-137.47"/>
<text text-anchor="middle" x="109" y="-113.5" font-family="Helvetica,sans-Serif" font-size="10.00"> name</text>
</g>
<!-- Node3&#45;&gt;Node1 -->
<g id="edge3" class="edge">
<title>Node3&#45;&gt;Node1</title>
<path fill="none" stroke="#9a32cd" stroke-dasharray="5,2" d="M118.28,-61.07C100.91,-48.24 76.47,-30.19 62.18,-19.63"/>
<polygon fill="#9a32cd" stroke="#9a32cd" points="116.51,-64.11 126.63,-67.23 120.67,-58.48 116.51,-64.11"/>
<text text-anchor="middle" x="123.5" y="-41" font-family="Helvetica,sans-Serif" font-size="10.00"> endpoint</text>
</g>
<!-- Node4 -->
<g id="node4" class="node">
<title>Node4</title>
<g id="a_node4"><a xlink:href="class_i_has_db_print.html" target="_top" xlink:title=" ">
<polygon fill="white" stroke="black" points="87.5,-220 87.5,-239 161.5,-239 161.5,-220 87.5,-220"/>
<text text-anchor="middle" x="124.5" y="-227" font-family="Helvetica,sans-Serif" font-size="10.00">IHasDbPrint</text>
</a>
</g>
</g>
<!-- Node4&#45;&gt;Node3 -->
<g id="edge4" class="edge">
<title>Node4&#45;&gt;Node3</title>
<path fill="none" stroke="midnightblue" d="M126.22,-209.97C129.26,-177.32 135.46,-110.73 137.68,-86.8"/>
<polygon fill="midnightblue" stroke="midnightblue" points="122.73,-209.7 125.29,-219.98 129.7,-210.34 122.73,-209.7"/>
</g>
<!-- Node7 -->
<g id="node7" class="node">
<title>Node7</title>
<g id="a_node7"><a xlink:href="class_b_m_v2_1_1_c_f_g_1_1_edge_set.html" target="_top" xlink:title=" ">
<polygon fill="white" stroke="black" points="167,-146.5 167,-165.5 284,-165.5 284,-146.5 167,-146.5"/>
<text text-anchor="middle" x="225.5" y="-153.5" font-family="Helvetica,sans-Serif" font-size="10.00">BMV2::CFG::EdgeSet</text>
</a>
</g>
</g>
<!-- Node4&#45;&gt;Node7 -->
<g id="edge9" class="edge">
<title>Node4&#45;&gt;Node7</title>
<path fill="none" stroke="midnightblue" d="M145.25,-213.81C165.76,-199.29 196.47,-177.55 213.33,-165.62"/>
<polygon fill="midnightblue" stroke="midnightblue" points="143.02,-211.1 136.88,-219.73 147.07,-216.81 143.02,-211.1"/>
</g>
<!-- Node5 -->
<g id="node5" class="node">
<title>Node5</title>
<g id="a_node5"><a xlink:href="class_i_castable.html" target="_top" xlink:title=" ">
<polygon fill="white" stroke="black" points="311.5,-146.5 311.5,-165.5 373.5,-165.5 373.5,-146.5 311.5,-146.5"/>
<text text-anchor="middle" x="342.5" y="-153.5" font-family="Helvetica,sans-Serif" font-size="10.00">ICastable</text>
</a>
</g>
</g>
<!-- Node5&#45;&gt;Node3 -->
<g id="edge5" class="edge">
<title>Node5&#45;&gt;Node3</title>
<path fill="none" stroke="midnightblue" d="M323.79,-140.26C308.62,-129.01 286.26,-113.96 264.5,-105 240.92,-95.29 213.35,-88.87 190.03,-84.74"/>
<polygon fill="midnightblue" stroke="midnightblue" points="321.75,-143.11 331.83,-146.37 325.99,-137.53 321.75,-143.11"/>
</g>
<!-- Node6 -->
<g id="node6" class="node">
<title>Node6</title>
<g id="a_node6"><a xlink:href="struct_r_t_t_i_1_1_base.html" target="_top" xlink:title=" ">
<polygon fill="white" stroke="black" points="317.5,-220 317.5,-239 385.5,-239 385.5,-220 317.5,-220"/>
<text text-anchor="middle" x="351.5" y="-227" font-family="Helvetica,sans-Serif" font-size="10.00">RTTI::Base</text>
</a>
</g>
</g>
<!-- Node6&#45;&gt;Node5 -->
<g id="edge6" class="edge">
<title>Node6&#45;&gt;Node5</title>
<path fill="none" stroke="midnightblue" d="M349.12,-209.59C347.34,-195.43 344.98,-176.7 343.61,-165.84"/>
<polygon fill="midnightblue" stroke="midnightblue" points="345.67,-210.25 350.4,-219.73 352.62,-209.37 345.67,-210.25"/>
</g>
<!-- Node7&#45;&gt;Node3 -->
<g id="edge8" class="edge">
<title>Node7&#45;&gt;Node3</title>
<path fill="none" stroke="#9a32cd" stroke-dasharray="5,2" d="M208.35,-139.82C190.36,-123.9 162.71,-99.43 148.19,-86.57"/>
<polygon fill="#9a32cd" stroke="#9a32cd" points="206.05,-142.46 215.86,-146.47 210.69,-137.22 206.05,-142.46"/>
<text text-anchor="middle" x="226.5" y="-119" font-family="Helvetica,sans-Serif" font-size="10.00"> predecessors</text>
<text text-anchor="middle" x="226.5" y="-108" font-family="Helvetica,sans-Serif" font-size="10.00">successors</text>
</g>
<!-- Node8 -->
<g id="node8" class="node">
<title>Node8</title>
<g id="a_node8"><a xlink:href="classordered__set.html" target="_top" xlink:title=" ">
<polygon fill="white" stroke="black" points="179.5,-214.5 179.5,-244.5 299.5,-244.5 299.5,-214.5 179.5,-214.5"/>
<text text-anchor="start" x="187.5" y="-232.5" font-family="Helvetica,sans-Serif" font-size="10.00">ordered_set&lt; BMV2::</text>
<text text-anchor="middle" x="239.5" y="-221.5" font-family="Helvetica,sans-Serif" font-size="10.00">CFG::Edge * &gt;</text>
</a>
</g>
</g>
<!-- Node8&#45;&gt;Node7 -->
<g id="edge10" class="edge">
<title>Node8&#45;&gt;Node7</title>
<path fill="none" stroke="#9a32cd" stroke-dasharray="5,2" d="M234.77,-204.36C232.16,-191.01 229.07,-175.25 227.2,-165.7"/>
<polygon fill="#9a32cd" stroke="#9a32cd" points="231.38,-205.23 236.73,-214.37 238.25,-203.89 231.38,-205.23"/>
<text text-anchor="middle" x="250" y="-188" font-family="Helvetica,sans-Serif" font-size="10.00"> edges</text>
</g>
</g>
</svg>
