<?xml version="1.0" encoding="UTF-8" standalone="no"?>
<!DOCTYPE svg PUBLIC "-//W3C//DTD SVG 1.1//EN"
 "http://www.w3.org/Graphics/SVG/1.1/DTD/svg11.dtd">
<!-- Generated by graphviz version 2.43.0 (0)
 -->
<!-- Title: DPDK::HaveNonHeaderLargeOperandAssignment Pages: 1 -->
<svg width="402pt" height="244pt"
 viewBox="0.00 0.00 402.00 244.00" xmlns="http://www.w3.org/2000/svg" xmlns:xlink="http://www.w3.org/1999/xlink">
<g id="graph0" class="graph" transform="scale(1 1) rotate(0) translate(4 240)">
<title>DPDK::HaveNonHeaderLargeOperandAssignment</title>
<polygon fill="white" stroke="transparent" points="-4,4 -4,-240 398,-240 398,4 -4,4"/>
<!-- Node1 -->
<g id="node1" class="node">
<title>Node1</title>
<g id="a_node1"><a xlink:title="This pass checks whether an assignment statement has large operands (&gt;64&#45;bit).">
<polygon fill="#bfbfbf" stroke="black" points="0,-0.5 0,-30.5 158,-30.5 158,-0.5 0,-0.5"/>
<text text-anchor="start" x="8" y="-18.5" font-family="Helvetica,sans-Serif" font-size="10.00">DPDK::HaveNonHeaderLarge</text>
<text text-anchor="middle" x="79" y="-7.5" font-family="Helvetica,sans-Serif" font-size="10.00">OperandAssignment</text>
</a>
</g>
</g>
<!-- Node2 -->
<g id="node2" class="node">
<title>Node2</title>
<g id="a_node2"><a xlink:href="class_inspector.html" target="_top" xlink:title=" ">
<polygon fill="white" stroke="black" points="48,-79.5 48,-98.5 110,-98.5 110,-79.5 48,-79.5"/>
<text text-anchor="middle" x="79" y="-86.5" font-family="Helvetica,sans-Serif" font-size="10.00">Inspector</text>
</a>
</g>
</g>
<!-- Node2&#45;&gt;Node1 -->
<g id="edge1" class="edge">
<title>Node2&#45;&gt;Node1</title>
<path fill="none" stroke="midnightblue" d="M79,-68.9C79,-56.82 79,-41.47 79,-30.51"/>
<polygon fill="midnightblue" stroke="midnightblue" points="75.5,-69.23 79,-79.23 82.5,-69.23 75.5,-69.23"/>
</g>
<!-- Node3 -->
<g id="node3" class="node">
<title>Node3</title>
<g id="a_node3"><a xlink:href="class_visitor.html" target="_top" xlink:title=" ">
<polygon fill="white" stroke="black" points="154,-147.5 154,-166.5 202,-166.5 202,-147.5 154,-147.5"/>
<text text-anchor="middle" x="178" y="-154.5" font-family="Helvetica,sans-Serif" font-size="10.00">Visitor</text>
</a>
</g>
</g>
<!-- Node3&#45;&gt;Node2 -->
<g id="edge2" class="edge">
<title>Node3&#45;&gt;Node2</title>
<path fill="none" stroke="midnightblue" d="M153.36,-142.17C146.37,-138.07 138.8,-133.48 132,-129 117.12,-119.19 100.69,-106.86 90.13,-98.72"/>
<polygon fill="midnightblue" stroke="midnightblue" points="152.01,-145.43 162.42,-147.39 155.51,-139.37 152.01,-145.43"/>
</g>
<!-- Node3&#45;&gt;Node3 -->
<g id="edge10" class="edge">
<title>Node3&#45;&gt;Node3</title>
<path fill="none" stroke="#9a32cd" stroke-dasharray="5,2" d="M212.42,-162.29C216.98,-161.39 220,-159.63 220,-157 220,-152.69 211.86,-150.7 202.17,-151.04"/>
<polygon fill="#9a32cd" stroke="#9a32cd" points="211.92,-158.82 202.17,-162.96 212.38,-165.8 211.92,-158.82"/>
<text text-anchor="middle" x="245" y="-154.5" font-family="Helvetica,sans-Serif" font-size="10.00"> called_by</text>
</g>
<!-- Node5 -->
<g id="node5" class="node">
<title>Node5</title>
<g id="a_node5"><a xlink:href="class_split_flow_visit__base.html" target="_top" xlink:title=" ">
<polygon fill="white" stroke="black" points="184,-6 184,-25 296,-25 296,-6 184,-6"/>
<text text-anchor="middle" x="240" y="-13" font-family="Helvetica,sans-Serif" font-size="10.00">SplitFlowVisit_base</text>
</a>
</g>
</g>
<!-- Node3&#45;&gt;Node5 -->
<g id="edge9" class="edge">
<title>Node3&#45;&gt;Node5</title>
<path fill="none" stroke="#9a32cd" stroke-dasharray="5,2" d="M165.85,-138.93C155.87,-122.65 144.91,-97.76 155,-78 168.26,-52.05 198.15,-34.51 218.7,-25.01"/>
<polygon fill="#9a32cd" stroke="#9a32cd" points="163.01,-140.99 171.44,-147.42 168.86,-137.14 163.01,-140.99"/>
<text text-anchor="middle" x="160" y="-86.5" font-family="Helvetica,sans-Serif" font-size="10.00"> v</text>
</g>
<!-- Node6 -->
<g id="node6" class="node">
<title>Node6</title>
<g id="a_node6"><a xlink:title=" ">
<polygon fill="white" stroke="#bfbfbf" points="174.5,-79.5 174.5,-98.5 305.5,-98.5 305.5,-79.5 174.5,-79.5"/>
<text text-anchor="middle" x="240" y="-86.5" font-family="Helvetica,sans-Serif" font-size="10.00">std::vector&lt; Visitor * &gt;</text>
</a>
</g>
</g>
<!-- Node3&#45;&gt;Node6 -->
<g id="edge8" class="edge">
<title>Node3&#45;&gt;Node6</title>
<path fill="none" stroke="#9a32cd" stroke-dasharray="5,2" d="M192.99,-140.05C205.14,-127.11 221.82,-109.36 231.69,-98.84"/>
<polygon fill="#9a32cd" stroke="#9a32cd" points="190.4,-137.69 186.11,-147.37 195.5,-142.48 190.4,-137.69"/>
<text text-anchor="middle" x="237.5" y="-121" font-family="Helvetica,sans-Serif" font-size="10.00"> elements</text>
</g>
<!-- Node4 -->
<g id="node4" class="node">
<title>Node4</title>
<g id="a_node4"><a xlink:href="classcstring.html" target="_top" xlink:title=" ">
<polygon fill="white" stroke="black" points="153,-215.5 153,-234.5 203,-234.5 203,-215.5 153,-215.5"/>
<text text-anchor="middle" x="178" y="-222.5" font-family="Helvetica,sans-Serif" font-size="10.00">cstring</text>
</a>
</g>
</g>
<!-- Node4&#45;&gt;Node3 -->
<g id="edge3" class="edge">
<title>Node4&#45;&gt;Node3</title>
<path fill="none" stroke="#9a32cd" stroke-dasharray="5,2" d="M178,-205.04C178,-192.47 178,-176.56 178,-166.84"/>
<polygon fill="#9a32cd" stroke="#9a32cd" points="174.5,-205.37 178,-215.37 181.5,-205.37 174.5,-205.37"/>
<text text-anchor="middle" x="213" y="-188" font-family="Helvetica,sans-Serif" font-size="10.00"> internalName</text>
</g>
<!-- Node4&#45;&gt;Node4 -->
<g id="edge4" class="edge">
<title>Node4&#45;&gt;Node4</title>
<path fill="none" stroke="#9a32cd" stroke-dasharray="5,2" d="M213.45,-230.58C218,-229.61 221,-227.75 221,-225 221,-220.48 212.91,-218.37 203.18,-218.65"/>
<polygon fill="#9a32cd" stroke="#9a32cd" points="212.89,-227.11 203.18,-231.35 213.41,-234.1 212.89,-227.11"/>
<text text-anchor="middle" x="240.5" y="-228" font-family="Helvetica,sans-Serif" font-size="10.00"> empty</text>
<text text-anchor="middle" x="240.5" y="-217" font-family="Helvetica,sans-Serif" font-size="10.00">newline</text>
</g>
<!-- Node5&#45;&gt;Node3 -->
<g id="edge5" class="edge">
<title>Node5&#45;&gt;Node3</title>
<path fill="none" stroke="#9a32cd" stroke-dasharray="5,2" d="M267.57,-29.98C295.03,-45.35 330.96,-72.02 315,-100 292.35,-139.73 234.96,-151.29 202.1,-154.64"/>
<polygon fill="#9a32cd" stroke="#9a32cd" points="269.14,-26.85 258.68,-25.21 265.84,-33.02 269.14,-26.85"/>
<text text-anchor="middle" x="356" y="-92" font-family="Helvetica,sans-Serif" font-size="10.00"> split_link</text>
<text text-anchor="middle" x="356" y="-81" font-family="Helvetica,sans-Serif" font-size="10.00">split_link_mem</text>
</g>
<!-- Node5&#45;&gt;Node5 -->
<g id="edge6" class="edge">
<title>Node5&#45;&gt;Node5</title>
<path fill="none" stroke="#9a32cd" stroke-dasharray="5,2" d="M306.04,-20.81C310.97,-19.62 314,-17.85 314,-15.5 314,-11.83 306.62,-9.57 296.15,-8.74"/>
<polygon fill="#9a32cd" stroke="#9a32cd" points="305.53,-17.35 296.15,-22.26 306.55,-24.27 305.53,-17.35"/>
<text text-anchor="middle" x="326.5" y="-13" font-family="Helvetica,sans-Serif" font-size="10.00"> prev</text>
</g>
<!-- Node6&#45;&gt;Node5 -->
<g id="edge7" class="edge">
<title>Node6&#45;&gt;Node5</title>
<path fill="none" stroke="#9a32cd" stroke-dasharray="5,2" d="M240,-69.09C240,-54.93 240,-36.2 240,-25.34"/>
<polygon fill="#9a32cd" stroke="#9a32cd" points="236.5,-69.23 240,-79.23 243.5,-69.23 236.5,-69.23"/>
<text text-anchor="middle" x="260" y="-52" font-family="Helvetica,sans-Serif" font-size="10.00"> visitors</text>
</g>
</g>
</svg>
