<?xml version="1.0" encoding="UTF-8" standalone="no"?>
<!DOCTYPE svg PUBLIC "-//W3C//DTD SVG 1.1//EN"
 "http://www.w3.org/Graphics/SVG/1.1/DTD/svg11.dtd">
<!-- Generated by graphviz version 2.43.0 (0)
 -->
<!-- Title: BMV2::V1ModelProperties Pages: 1 -->
<svg width="230pt" height="108pt"
 viewBox="0.00 0.00 229.50 108.00" xmlns="http://www.w3.org/2000/svg" xmlns:xlink="http://www.w3.org/1999/xlink">
<g id="graph0" class="graph" transform="scale(1 1) rotate(0) translate(4 104)">
<title>BMV2::V1ModelProperties</title>
<polygon fill="white" stroke="transparent" points="-4,4 -4,-104 225.5,-104 225.5,4 -4,4"/>
<!-- Node1 -->
<g id="node1" class="node">
<title>Node1</title>
<g id="a_node1"><a xlink:title=" ">
<polygon fill="#bfbfbf" stroke="black" points="0,-0.5 0,-19.5 143,-19.5 143,-0.5 0,-0.5"/>
<text text-anchor="middle" x="71.5" y="-7.5" font-family="Helvetica,sans-Serif" font-size="10.00">BMV2::V1ModelProperties</text>
</a>
</g>
</g>
<!-- Node2 -->
<g id="node2" class="node">
<title>Node2</title>
<g id="a_node2"><a xlink:href="classcstring.html" target="_top" xlink:title=" ">
<polygon fill="white" stroke="black" points="46.5,-79.5 46.5,-98.5 96.5,-98.5 96.5,-79.5 46.5,-79.5"/>
<text text-anchor="middle" x="71.5" y="-86.5" font-family="Helvetica,sans-Serif" font-size="10.00">cstring</text>
</a>
</g>
</g>
<!-- Node2&#45;&gt;Node1 -->
<g id="edge1" class="edge">
<title>Node2&#45;&gt;Node1</title>
<path fill="none" stroke="#9a32cd" stroke-dasharray="5,2" d="M71.5,-69.31C71.5,-53.59 71.5,-31.81 71.5,-19.81"/>
<polygon fill="#9a32cd" stroke="#9a32cd" points="68,-69.47 71.5,-79.47 75,-69.47 68,-69.47"/>
<text text-anchor="middle" x="146.5" y="-52" font-family="Helvetica,sans-Serif" font-size="10.00"> jsonMetadataParameterName</text>
<text text-anchor="middle" x="146.5" y="-41" font-family="Helvetica,sans-Serif" font-size="10.00">validField</text>
</g>
<!-- Node2&#45;&gt;Node2 -->
<g id="edge2" class="edge">
<title>Node2&#45;&gt;Node2</title>
<path fill="none" stroke="#9a32cd" stroke-dasharray="5,2" d="M106.95,-95.57C111.5,-94.43 114.5,-92.24 114.5,-89 114.5,-83.69 106.41,-81.2 96.68,-81.53"/>
<polygon fill="#9a32cd" stroke="#9a32cd" points="106.33,-92.11 96.68,-96.47 106.94,-99.08 106.33,-92.11"/>
<text text-anchor="middle" x="134" y="-92" font-family="Helvetica,sans-Serif" font-size="10.00"> empty</text>
<text text-anchor="middle" x="134" y="-81" font-family="Helvetica,sans-Serif" font-size="10.00">newline</text>
</g>
</g>
</svg>
