<?xml version="1.0" encoding="UTF-8" standalone="no"?>
<!DOCTYPE svg PUBLIC "-//W3C//DTD SVG 1.1//EN"
 "http://www.w3.org/Graphics/SVG/1.1/DTD/svg11.dtd">
<!-- Generated by graphviz version 2.43.0 (0)
 -->
<!-- Title: P4::DoEliminateSerEnums Pages: 1 -->
<svg width="397pt" height="233pt"
 viewBox="0.00 0.00 396.50 233.00" xmlns="http://www.w3.org/2000/svg" xmlns:xlink="http://www.w3.org/1999/xlink">
<g id="graph0" class="graph" transform="scale(1 1) rotate(0) translate(4 229)">
<title>P4::DoEliminateSerEnums</title>
<polygon fill="white" stroke="transparent" points="-4,4 -4,-229 392.5,-229 392.5,4 -4,4"/>
<!-- Node1 -->
<g id="node1" class="node">
<title>Node1</title>
<g id="a_node1"><a xlink:title=" ">
<polygon fill="#bfbfbf" stroke="black" points="0,-0.5 0,-19.5 143,-19.5 143,-0.5 0,-0.5"/>
<text text-anchor="middle" x="71.5" y="-7.5" font-family="Helvetica,sans-Serif" font-size="10.00">P4::DoEliminateSerEnums</text>
</a>
</g>
</g>
<!-- Node2 -->
<g id="node2" class="node">
<title>Node2</title>
<g id="a_node2"><a xlink:href="class_transform.html" target="_top" xlink:title=" ">
<polygon fill="white" stroke="black" points="39,-68.5 39,-87.5 104,-87.5 104,-68.5 39,-68.5"/>
<text text-anchor="middle" x="71.5" y="-75.5" font-family="Helvetica,sans-Serif" font-size="10.00">Transform</text>
</a>
</g>
</g>
<!-- Node2&#45;&gt;Node1 -->
<g id="edge1" class="edge">
<title>Node2&#45;&gt;Node1</title>
<path fill="none" stroke="midnightblue" d="M71.5,-58.04C71.5,-45.47 71.5,-29.56 71.5,-19.84"/>
<polygon fill="midnightblue" stroke="midnightblue" points="68,-58.37 71.5,-68.37 75,-58.37 68,-58.37"/>
</g>
<!-- Node3 -->
<g id="node3" class="node">
<title>Node3</title>
<g id="a_node3"><a xlink:href="class_visitor.html" target="_top" xlink:title=" ">
<polygon fill="white" stroke="black" points="148.5,-136.5 148.5,-155.5 196.5,-155.5 196.5,-136.5 148.5,-136.5"/>
<text text-anchor="middle" x="172.5" y="-143.5" font-family="Helvetica,sans-Serif" font-size="10.00">Visitor</text>
</a>
</g>
</g>
<!-- Node3&#45;&gt;Node2 -->
<g id="edge2" class="edge">
<title>Node3&#45;&gt;Node2</title>
<path fill="none" stroke="midnightblue" d="M147.91,-131.09C140.92,-127 133.34,-122.42 126.5,-118 111.16,-108.09 94.09,-95.77 83.1,-87.67"/>
<polygon fill="midnightblue" stroke="midnightblue" points="146.56,-134.35 156.97,-136.33 150.06,-128.29 146.56,-134.35"/>
</g>
<!-- Node3&#45;&gt;Node3 -->
<g id="edge10" class="edge">
<title>Node3&#45;&gt;Node3</title>
<path fill="none" stroke="#9a32cd" stroke-dasharray="5,2" d="M206.92,-151.29C211.48,-150.39 214.5,-148.63 214.5,-146 214.5,-141.69 206.36,-139.7 196.67,-140.04"/>
<polygon fill="#9a32cd" stroke="#9a32cd" points="206.42,-147.82 196.67,-151.96 206.88,-154.8 206.42,-147.82"/>
<text text-anchor="middle" x="239.5" y="-143.5" font-family="Helvetica,sans-Serif" font-size="10.00"> called_by</text>
</g>
<!-- Node5 -->
<g id="node5" class="node">
<title>Node5</title>
<g id="a_node5"><a xlink:href="class_split_flow_visit__base.html" target="_top" xlink:title=" ">
<polygon fill="white" stroke="black" points="178.5,-0.5 178.5,-19.5 290.5,-19.5 290.5,-0.5 178.5,-0.5"/>
<text text-anchor="middle" x="234.5" y="-7.5" font-family="Helvetica,sans-Serif" font-size="10.00">SplitFlowVisit_base</text>
</a>
</g>
</g>
<!-- Node3&#45;&gt;Node5 -->
<g id="edge9" class="edge">
<title>Node3&#45;&gt;Node5</title>
<path fill="none" stroke="#9a32cd" stroke-dasharray="5,2" d="M160.16,-127.83C150.04,-111.48 138.98,-86.53 149.5,-67 162.24,-43.35 189.82,-28.04 210.12,-19.51"/>
<polygon fill="#9a32cd" stroke="#9a32cd" points="157.38,-129.97 165.83,-136.36 163.2,-126.1 157.38,-129.97"/>
<text text-anchor="middle" x="154.5" y="-75.5" font-family="Helvetica,sans-Serif" font-size="10.00"> v</text>
</g>
<!-- Node6 -->
<g id="node6" class="node">
<title>Node6</title>
<g id="a_node6"><a xlink:title=" ">
<polygon fill="white" stroke="#bfbfbf" points="169,-68.5 169,-87.5 300,-87.5 300,-68.5 169,-68.5"/>
<text text-anchor="middle" x="234.5" y="-75.5" font-family="Helvetica,sans-Serif" font-size="10.00">std::vector&lt; Visitor * &gt;</text>
</a>
</g>
</g>
<!-- Node3&#45;&gt;Node6 -->
<g id="edge8" class="edge">
<title>Node3&#45;&gt;Node6</title>
<path fill="none" stroke="#9a32cd" stroke-dasharray="5,2" d="M187.49,-129.05C199.64,-116.11 216.32,-98.36 226.19,-87.84"/>
<polygon fill="#9a32cd" stroke="#9a32cd" points="184.9,-126.69 180.61,-136.37 190,-131.48 184.9,-126.69"/>
<text text-anchor="middle" x="232" y="-110" font-family="Helvetica,sans-Serif" font-size="10.00"> elements</text>
</g>
<!-- Node4 -->
<g id="node4" class="node">
<title>Node4</title>
<g id="a_node4"><a xlink:href="classcstring.html" target="_top" xlink:title=" ">
<polygon fill="white" stroke="black" points="147.5,-204.5 147.5,-223.5 197.5,-223.5 197.5,-204.5 147.5,-204.5"/>
<text text-anchor="middle" x="172.5" y="-211.5" font-family="Helvetica,sans-Serif" font-size="10.00">cstring</text>
</a>
</g>
</g>
<!-- Node4&#45;&gt;Node3 -->
<g id="edge3" class="edge">
<title>Node4&#45;&gt;Node3</title>
<path fill="none" stroke="#9a32cd" stroke-dasharray="5,2" d="M172.5,-194.04C172.5,-181.47 172.5,-165.56 172.5,-155.84"/>
<polygon fill="#9a32cd" stroke="#9a32cd" points="169,-194.37 172.5,-204.37 176,-194.37 169,-194.37"/>
<text text-anchor="middle" x="207.5" y="-177" font-family="Helvetica,sans-Serif" font-size="10.00"> internalName</text>
</g>
<!-- Node4&#45;&gt;Node4 -->
<g id="edge4" class="edge">
<title>Node4&#45;&gt;Node4</title>
<path fill="none" stroke="#9a32cd" stroke-dasharray="5,2" d="M207.95,-219.58C212.5,-218.61 215.5,-216.75 215.5,-214 215.5,-209.48 207.41,-207.37 197.68,-207.65"/>
<polygon fill="#9a32cd" stroke="#9a32cd" points="207.39,-216.11 197.68,-220.35 207.91,-223.1 207.39,-216.11"/>
<text text-anchor="middle" x="235" y="-217" font-family="Helvetica,sans-Serif" font-size="10.00"> empty</text>
<text text-anchor="middle" x="235" y="-206" font-family="Helvetica,sans-Serif" font-size="10.00">newline</text>
</g>
<!-- Node5&#45;&gt;Node3 -->
<g id="edge5" class="edge">
<title>Node5&#45;&gt;Node3</title>
<path fill="none" stroke="#9a32cd" stroke-dasharray="5,2" d="M263.55,-24.16C290.57,-38.38 324.57,-62.58 309.5,-89 286.85,-128.73 229.46,-140.29 196.6,-143.64"/>
<polygon fill="#9a32cd" stroke="#9a32cd" points="264.88,-20.91 254.38,-19.56 261.75,-27.17 264.88,-20.91"/>
<text text-anchor="middle" x="350.5" y="-81" font-family="Helvetica,sans-Serif" font-size="10.00"> split_link</text>
<text text-anchor="middle" x="350.5" y="-70" font-family="Helvetica,sans-Serif" font-size="10.00">split_link_mem</text>
</g>
<!-- Node5&#45;&gt;Node5 -->
<g id="edge6" class="edge">
<title>Node5&#45;&gt;Node5</title>
<path fill="none" stroke="#9a32cd" stroke-dasharray="5,2" d="M300.9,-14.4C305.62,-13.4 308.5,-11.93 308.5,-10 308.5,-6.91 301.12,-5.01 290.65,-4.31"/>
<polygon fill="#9a32cd" stroke="#9a32cd" points="300.13,-10.97 290.65,-15.69 301.01,-17.91 300.13,-10.97"/>
<text text-anchor="middle" x="321" y="-7.5" font-family="Helvetica,sans-Serif" font-size="10.00"> prev</text>
</g>
<!-- Node6&#45;&gt;Node5 -->
<g id="edge7" class="edge">
<title>Node6&#45;&gt;Node5</title>
<path fill="none" stroke="#9a32cd" stroke-dasharray="5,2" d="M234.5,-58.04C234.5,-45.47 234.5,-29.56 234.5,-19.84"/>
<polygon fill="#9a32cd" stroke="#9a32cd" points="231,-58.37 234.5,-68.37 238,-58.37 231,-58.37"/>
<text text-anchor="middle" x="254.5" y="-41" font-family="Helvetica,sans-Serif" font-size="10.00"> visitors</text>
</g>
</g>
</svg>
