<?xml version="1.0" encoding="UTF-8" standalone="no"?>
<!DOCTYPE svg PUBLIC "-//W3C//DTD SVG 1.1//EN"
 "http://www.w3.org/Graphics/SVG/1.1/DTD/svg11.dtd">
<!-- Generated by graphviz version 2.43.0 (0)
 -->
<!-- Title: P4::IsMask Pages: 1 -->
<svg width="468pt" height="290pt"
 viewBox="0.00 0.00 467.50 290.00" xmlns="http://www.w3.org/2000/svg" xmlns:xlink="http://www.w3.org/1999/xlink">
<g id="graph0" class="graph" transform="scale(1 1) rotate(0) translate(4 286)">
<title>P4::IsMask</title>
<polygon fill="white" stroke="transparent" points="-4,4 -4,-286 463.5,-286 463.5,4 -4,4"/>
<!-- Node1 -->
<g id="node1" class="node">
<title>Node1</title>
<g id="a_node1"><a xlink:title=" ">
<polygon fill="#bfbfbf" stroke="black" points="44,-0.5 44,-19.5 113,-19.5 113,-0.5 44,-0.5"/>
<text text-anchor="middle" x="78.5" y="-7.5" font-family="Helvetica,sans-Serif" font-size="10.00">P4::IsMask</text>
</a>
</g>
</g>
<!-- Node2 -->
<g id="node2" class="node">
<title>Node2</title>
<g id="a_node2"><a xlink:href="class_p4_1_1_is_like_left_value.html" target="_top" xlink:title=" ">
<polygon fill="white" stroke="black" points="25,-57.5 25,-76.5 132,-76.5 132,-57.5 25,-57.5"/>
<text text-anchor="middle" x="78.5" y="-64.5" font-family="Helvetica,sans-Serif" font-size="10.00">P4::IsLikeLeftValue</text>
</a>
</g>
</g>
<!-- Node2&#45;&gt;Node1 -->
<g id="edge1" class="edge">
<title>Node2&#45;&gt;Node1</title>
<path fill="none" stroke="midnightblue" d="M78.5,-47.12C78.5,-37.82 78.5,-27.06 78.5,-19.71"/>
<polygon fill="midnightblue" stroke="midnightblue" points="75,-47.41 78.5,-57.41 82,-47.41 75,-47.41"/>
</g>
<!-- Node3 -->
<g id="node3" class="node">
<title>Node3</title>
<g id="a_node3"><a xlink:href="class_p4_1_1_key_is_simple.html" target="_top" xlink:title=" ">
<polygon fill="white" stroke="black" points="0,-125.5 0,-144.5 95,-144.5 95,-125.5 0,-125.5"/>
<text text-anchor="middle" x="47.5" y="-132.5" font-family="Helvetica,sans-Serif" font-size="10.00">P4::KeyIsSimple</text>
</a>
</g>
</g>
<!-- Node3&#45;&gt;Node2 -->
<g id="edge2" class="edge">
<title>Node3&#45;&gt;Node2</title>
<path fill="none" stroke="midnightblue" d="M55.87,-116.19C61.85,-103.45 69.64,-86.86 74.35,-76.84"/>
<polygon fill="midnightblue" stroke="midnightblue" points="52.64,-114.83 51.55,-125.37 58.97,-117.81 52.64,-114.83"/>
</g>
<!-- Node4 -->
<g id="node4" class="node">
<title>Node4</title>
<g id="a_node4"><a xlink:href="class_inspector.html" target="_top" xlink:title=" ">
<polygon fill="white" stroke="black" points="113.5,-125.5 113.5,-144.5 175.5,-144.5 175.5,-125.5 113.5,-125.5"/>
<text text-anchor="middle" x="144.5" y="-132.5" font-family="Helvetica,sans-Serif" font-size="10.00">Inspector</text>
</a>
</g>
</g>
<!-- Node4&#45;&gt;Node2 -->
<g id="edge3" class="edge">
<title>Node4&#45;&gt;Node2</title>
<path fill="none" stroke="midnightblue" d="M128.55,-118.05C115.61,-105.11 97.86,-87.36 87.34,-76.84"/>
<polygon fill="midnightblue" stroke="midnightblue" points="126.33,-120.78 135.87,-125.37 131.28,-115.83 126.33,-120.78"/>
</g>
<!-- Node5 -->
<g id="node5" class="node">
<title>Node5</title>
<g id="a_node5"><a xlink:href="class_visitor.html" target="_top" xlink:title=" ">
<polygon fill="white" stroke="black" points="219.5,-193.5 219.5,-212.5 267.5,-212.5 267.5,-193.5 219.5,-193.5"/>
<text text-anchor="middle" x="243.5" y="-200.5" font-family="Helvetica,sans-Serif" font-size="10.00">Visitor</text>
</a>
</g>
</g>
<!-- Node5&#45;&gt;Node4 -->
<g id="edge4" class="edge">
<title>Node5&#45;&gt;Node4</title>
<path fill="none" stroke="midnightblue" d="M218.86,-188.17C211.87,-184.07 204.3,-179.48 197.5,-175 182.62,-165.19 166.19,-152.86 155.63,-144.72"/>
<polygon fill="midnightblue" stroke="midnightblue" points="217.51,-191.43 227.92,-193.39 221.01,-185.37 217.51,-191.43"/>
</g>
<!-- Node5&#45;&gt;Node5 -->
<g id="edge12" class="edge">
<title>Node5&#45;&gt;Node5</title>
<path fill="none" stroke="#9a32cd" stroke-dasharray="5,2" d="M277.92,-208.29C282.48,-207.39 285.5,-205.63 285.5,-203 285.5,-198.69 277.36,-196.7 267.67,-197.04"/>
<polygon fill="#9a32cd" stroke="#9a32cd" points="277.42,-204.82 267.67,-208.96 277.88,-211.8 277.42,-204.82"/>
<text text-anchor="middle" x="310.5" y="-200.5" font-family="Helvetica,sans-Serif" font-size="10.00"> called_by</text>
</g>
<!-- Node7 -->
<g id="node7" class="node">
<title>Node7</title>
<g id="a_node7"><a xlink:href="class_split_flow_visit__base.html" target="_top" xlink:title=" ">
<polygon fill="white" stroke="black" points="249.5,-57.5 249.5,-76.5 361.5,-76.5 361.5,-57.5 249.5,-57.5"/>
<text text-anchor="middle" x="305.5" y="-64.5" font-family="Helvetica,sans-Serif" font-size="10.00">SplitFlowVisit_base</text>
</a>
</g>
</g>
<!-- Node5&#45;&gt;Node7 -->
<g id="edge11" class="edge">
<title>Node5&#45;&gt;Node7</title>
<path fill="none" stroke="#9a32cd" stroke-dasharray="5,2" d="M231.16,-184.83C221.04,-168.48 209.98,-143.53 220.5,-124 233.24,-100.35 260.82,-85.04 281.12,-76.51"/>
<polygon fill="#9a32cd" stroke="#9a32cd" points="228.38,-186.97 236.83,-193.36 234.2,-183.1 228.38,-186.97"/>
<text text-anchor="middle" x="225.5" y="-132.5" font-family="Helvetica,sans-Serif" font-size="10.00"> v</text>
</g>
<!-- Node8 -->
<g id="node8" class="node">
<title>Node8</title>
<g id="a_node8"><a xlink:title=" ">
<polygon fill="white" stroke="#bfbfbf" points="240,-125.5 240,-144.5 371,-144.5 371,-125.5 240,-125.5"/>
<text text-anchor="middle" x="305.5" y="-132.5" font-family="Helvetica,sans-Serif" font-size="10.00">std::vector&lt; Visitor * &gt;</text>
</a>
</g>
</g>
<!-- Node5&#45;&gt;Node8 -->
<g id="edge10" class="edge">
<title>Node5&#45;&gt;Node8</title>
<path fill="none" stroke="#9a32cd" stroke-dasharray="5,2" d="M258.49,-186.05C270.64,-173.11 287.32,-155.36 297.19,-144.84"/>
<polygon fill="#9a32cd" stroke="#9a32cd" points="255.9,-183.69 251.61,-193.37 261,-188.48 255.9,-183.69"/>
<text text-anchor="middle" x="303" y="-167" font-family="Helvetica,sans-Serif" font-size="10.00"> elements</text>
</g>
<!-- Node6 -->
<g id="node6" class="node">
<title>Node6</title>
<g id="a_node6"><a xlink:href="classcstring.html" target="_top" xlink:title=" ">
<polygon fill="white" stroke="black" points="218.5,-261.5 218.5,-280.5 268.5,-280.5 268.5,-261.5 218.5,-261.5"/>
<text text-anchor="middle" x="243.5" y="-268.5" font-family="Helvetica,sans-Serif" font-size="10.00">cstring</text>
</a>
</g>
</g>
<!-- Node6&#45;&gt;Node5 -->
<g id="edge5" class="edge">
<title>Node6&#45;&gt;Node5</title>
<path fill="none" stroke="#9a32cd" stroke-dasharray="5,2" d="M243.5,-251.04C243.5,-238.47 243.5,-222.56 243.5,-212.84"/>
<polygon fill="#9a32cd" stroke="#9a32cd" points="240,-251.37 243.5,-261.37 247,-251.37 240,-251.37"/>
<text text-anchor="middle" x="278.5" y="-234" font-family="Helvetica,sans-Serif" font-size="10.00"> internalName</text>
</g>
<!-- Node6&#45;&gt;Node6 -->
<g id="edge6" class="edge">
<title>Node6&#45;&gt;Node6</title>
<path fill="none" stroke="#9a32cd" stroke-dasharray="5,2" d="M278.95,-276.58C283.5,-275.61 286.5,-273.75 286.5,-271 286.5,-266.48 278.41,-264.37 268.68,-264.65"/>
<polygon fill="#9a32cd" stroke="#9a32cd" points="278.39,-273.11 268.68,-277.35 278.91,-280.1 278.39,-273.11"/>
<text text-anchor="middle" x="306" y="-274" font-family="Helvetica,sans-Serif" font-size="10.00"> empty</text>
<text text-anchor="middle" x="306" y="-263" font-family="Helvetica,sans-Serif" font-size="10.00">newline</text>
</g>
<!-- Node7&#45;&gt;Node5 -->
<g id="edge7" class="edge">
<title>Node7&#45;&gt;Node5</title>
<path fill="none" stroke="#9a32cd" stroke-dasharray="5,2" d="M334.55,-81.16C361.57,-95.38 395.57,-119.58 380.5,-146 357.85,-185.73 300.46,-197.29 267.6,-200.64"/>
<polygon fill="#9a32cd" stroke="#9a32cd" points="335.88,-77.91 325.38,-76.56 332.75,-84.17 335.88,-77.91"/>
<text text-anchor="middle" x="421.5" y="-138" font-family="Helvetica,sans-Serif" font-size="10.00"> split_link</text>
<text text-anchor="middle" x="421.5" y="-127" font-family="Helvetica,sans-Serif" font-size="10.00">split_link_mem</text>
</g>
<!-- Node7&#45;&gt;Node7 -->
<g id="edge8" class="edge">
<title>Node7&#45;&gt;Node7</title>
<path fill="none" stroke="#9a32cd" stroke-dasharray="5,2" d="M371.9,-70.85C376.62,-69.97 379.5,-68.69 379.5,-67 379.5,-64.29 372.12,-62.63 361.65,-62.02"/>
<polygon fill="#9a32cd" stroke="#9a32cd" points="371.2,-67.4 361.65,-71.98 371.97,-74.36 371.2,-67.4"/>
<text text-anchor="middle" x="392" y="-64.5" font-family="Helvetica,sans-Serif" font-size="10.00"> prev</text>
</g>
<!-- Node8&#45;&gt;Node7 -->
<g id="edge9" class="edge">
<title>Node8&#45;&gt;Node7</title>
<path fill="none" stroke="#9a32cd" stroke-dasharray="5,2" d="M305.5,-115.04C305.5,-102.47 305.5,-86.56 305.5,-76.84"/>
<polygon fill="#9a32cd" stroke="#9a32cd" points="302,-115.37 305.5,-125.37 309,-115.37 302,-115.37"/>
<text text-anchor="middle" x="325.5" y="-98" font-family="Helvetica,sans-Serif" font-size="10.00"> visitors</text>
</g>
</g>
</svg>
