<?xml version="1.0" encoding="UTF-8" standalone="no"?>
<!DOCTYPE svg PUBLIC "-//W3C//DTD SVG 1.1//EN"
 "http://www.w3.org/Graphics/SVG/1.1/DTD/svg11.dtd">
<!-- Generated by graphviz version 2.43.0 (0)
 -->
<!-- Title: P4::ReplaceTypeUses Pages: 1 -->
<svg width="385pt" height="233pt"
 viewBox="0.00 0.00 385.00 233.00" xmlns="http://www.w3.org/2000/svg" xmlns:xlink="http://www.w3.org/1999/xlink">
<g id="graph0" class="graph" transform="scale(1 1) rotate(0) translate(4 229)">
<title>P4::ReplaceTypeUses</title>
<polygon fill="white" stroke="transparent" points="-4,4 -4,-229 381,-229 381,4 -4,4"/>
<!-- Node1 -->
<g id="node1" class="node">
<title>Node1</title>
<g id="a_node1"><a xlink:title=" ">
<polygon fill="#bfbfbf" stroke="black" points="0,-0.5 0,-19.5 120,-19.5 120,-0.5 0,-0.5"/>
<text text-anchor="middle" x="60" y="-7.5" font-family="Helvetica,sans-Serif" font-size="10.00">P4::ReplaceTypeUses</text>
</a>
</g>
</g>
<!-- Node2 -->
<g id="node2" class="node">
<title>Node2</title>
<g id="a_node2"><a xlink:href="class_transform.html" target="_top" xlink:title=" ">
<polygon fill="white" stroke="black" points="27.5,-68.5 27.5,-87.5 92.5,-87.5 92.5,-68.5 27.5,-68.5"/>
<text text-anchor="middle" x="60" y="-75.5" font-family="Helvetica,sans-Serif" font-size="10.00">Transform</text>
</a>
</g>
</g>
<!-- Node2&#45;&gt;Node1 -->
<g id="edge1" class="edge">
<title>Node2&#45;&gt;Node1</title>
<path fill="none" stroke="midnightblue" d="M60,-58.04C60,-45.47 60,-29.56 60,-19.84"/>
<polygon fill="midnightblue" stroke="midnightblue" points="56.5,-58.37 60,-68.37 63.5,-58.37 56.5,-58.37"/>
</g>
<!-- Node3 -->
<g id="node3" class="node">
<title>Node3</title>
<g id="a_node3"><a xlink:href="class_visitor.html" target="_top" xlink:title=" ">
<polygon fill="white" stroke="black" points="137,-136.5 137,-155.5 185,-155.5 185,-136.5 137,-136.5"/>
<text text-anchor="middle" x="161" y="-143.5" font-family="Helvetica,sans-Serif" font-size="10.00">Visitor</text>
</a>
</g>
</g>
<!-- Node3&#45;&gt;Node2 -->
<g id="edge2" class="edge">
<title>Node3&#45;&gt;Node2</title>
<path fill="none" stroke="midnightblue" d="M136.41,-131.09C129.42,-127 121.84,-122.42 115,-118 99.66,-108.09 82.59,-95.77 71.6,-87.67"/>
<polygon fill="midnightblue" stroke="midnightblue" points="135.06,-134.35 145.47,-136.33 138.56,-128.29 135.06,-134.35"/>
</g>
<!-- Node3&#45;&gt;Node3 -->
<g id="edge10" class="edge">
<title>Node3&#45;&gt;Node3</title>
<path fill="none" stroke="#9a32cd" stroke-dasharray="5,2" d="M195.42,-151.29C199.98,-150.39 203,-148.63 203,-146 203,-141.69 194.86,-139.7 185.17,-140.04"/>
<polygon fill="#9a32cd" stroke="#9a32cd" points="194.92,-147.82 185.17,-151.96 195.38,-154.8 194.92,-147.82"/>
<text text-anchor="middle" x="228" y="-143.5" font-family="Helvetica,sans-Serif" font-size="10.00"> called_by</text>
</g>
<!-- Node5 -->
<g id="node5" class="node">
<title>Node5</title>
<g id="a_node5"><a xlink:href="class_split_flow_visit__base.html" target="_top" xlink:title=" ">
<polygon fill="white" stroke="black" points="167,-0.5 167,-19.5 279,-19.5 279,-0.5 167,-0.5"/>
<text text-anchor="middle" x="223" y="-7.5" font-family="Helvetica,sans-Serif" font-size="10.00">SplitFlowVisit_base</text>
</a>
</g>
</g>
<!-- Node3&#45;&gt;Node5 -->
<g id="edge9" class="edge">
<title>Node3&#45;&gt;Node5</title>
<path fill="none" stroke="#9a32cd" stroke-dasharray="5,2" d="M148.66,-127.83C138.54,-111.48 127.48,-86.53 138,-67 150.74,-43.35 178.32,-28.04 198.62,-19.51"/>
<polygon fill="#9a32cd" stroke="#9a32cd" points="145.88,-129.97 154.33,-136.36 151.7,-126.1 145.88,-129.97"/>
<text text-anchor="middle" x="143" y="-75.5" font-family="Helvetica,sans-Serif" font-size="10.00"> v</text>
</g>
<!-- Node6 -->
<g id="node6" class="node">
<title>Node6</title>
<g id="a_node6"><a xlink:title=" ">
<polygon fill="white" stroke="#bfbfbf" points="157.5,-68.5 157.5,-87.5 288.5,-87.5 288.5,-68.5 157.5,-68.5"/>
<text text-anchor="middle" x="223" y="-75.5" font-family="Helvetica,sans-Serif" font-size="10.00">std::vector&lt; Visitor * &gt;</text>
</a>
</g>
</g>
<!-- Node3&#45;&gt;Node6 -->
<g id="edge8" class="edge">
<title>Node3&#45;&gt;Node6</title>
<path fill="none" stroke="#9a32cd" stroke-dasharray="5,2" d="M175.99,-129.05C188.14,-116.11 204.82,-98.36 214.69,-87.84"/>
<polygon fill="#9a32cd" stroke="#9a32cd" points="173.4,-126.69 169.11,-136.37 178.5,-131.48 173.4,-126.69"/>
<text text-anchor="middle" x="220.5" y="-110" font-family="Helvetica,sans-Serif" font-size="10.00"> elements</text>
</g>
<!-- Node4 -->
<g id="node4" class="node">
<title>Node4</title>
<g id="a_node4"><a xlink:href="classcstring.html" target="_top" xlink:title=" ">
<polygon fill="white" stroke="black" points="136,-204.5 136,-223.5 186,-223.5 186,-204.5 136,-204.5"/>
<text text-anchor="middle" x="161" y="-211.5" font-family="Helvetica,sans-Serif" font-size="10.00">cstring</text>
</a>
</g>
</g>
<!-- Node4&#45;&gt;Node3 -->
<g id="edge3" class="edge">
<title>Node4&#45;&gt;Node3</title>
<path fill="none" stroke="#9a32cd" stroke-dasharray="5,2" d="M161,-194.04C161,-181.47 161,-165.56 161,-155.84"/>
<polygon fill="#9a32cd" stroke="#9a32cd" points="157.5,-194.37 161,-204.37 164.5,-194.37 157.5,-194.37"/>
<text text-anchor="middle" x="196" y="-177" font-family="Helvetica,sans-Serif" font-size="10.00"> internalName</text>
</g>
<!-- Node4&#45;&gt;Node4 -->
<g id="edge4" class="edge">
<title>Node4&#45;&gt;Node4</title>
<path fill="none" stroke="#9a32cd" stroke-dasharray="5,2" d="M196.45,-219.58C201,-218.61 204,-216.75 204,-214 204,-209.48 195.91,-207.37 186.18,-207.65"/>
<polygon fill="#9a32cd" stroke="#9a32cd" points="195.89,-216.11 186.18,-220.35 196.41,-223.1 195.89,-216.11"/>
<text text-anchor="middle" x="223.5" y="-217" font-family="Helvetica,sans-Serif" font-size="10.00"> empty</text>
<text text-anchor="middle" x="223.5" y="-206" font-family="Helvetica,sans-Serif" font-size="10.00">newline</text>
</g>
<!-- Node5&#45;&gt;Node3 -->
<g id="edge5" class="edge">
<title>Node5&#45;&gt;Node3</title>
<path fill="none" stroke="#9a32cd" stroke-dasharray="5,2" d="M252.05,-24.16C279.07,-38.38 313.07,-62.58 298,-89 275.35,-128.73 217.96,-140.29 185.1,-143.64"/>
<polygon fill="#9a32cd" stroke="#9a32cd" points="253.38,-20.91 242.88,-19.56 250.25,-27.17 253.38,-20.91"/>
<text text-anchor="middle" x="339" y="-81" font-family="Helvetica,sans-Serif" font-size="10.00"> split_link</text>
<text text-anchor="middle" x="339" y="-70" font-family="Helvetica,sans-Serif" font-size="10.00">split_link_mem</text>
</g>
<!-- Node5&#45;&gt;Node5 -->
<g id="edge6" class="edge">
<title>Node5&#45;&gt;Node5</title>
<path fill="none" stroke="#9a32cd" stroke-dasharray="5,2" d="M289.4,-14.4C294.12,-13.4 297,-11.93 297,-10 297,-6.91 289.62,-5.01 279.15,-4.31"/>
<polygon fill="#9a32cd" stroke="#9a32cd" points="288.63,-10.97 279.15,-15.69 289.51,-17.91 288.63,-10.97"/>
<text text-anchor="middle" x="309.5" y="-7.5" font-family="Helvetica,sans-Serif" font-size="10.00"> prev</text>
</g>
<!-- Node6&#45;&gt;Node5 -->
<g id="edge7" class="edge">
<title>Node6&#45;&gt;Node5</title>
<path fill="none" stroke="#9a32cd" stroke-dasharray="5,2" d="M223,-58.04C223,-45.47 223,-29.56 223,-19.84"/>
<polygon fill="#9a32cd" stroke="#9a32cd" points="219.5,-58.37 223,-68.37 226.5,-58.37 219.5,-58.37"/>
<text text-anchor="middle" x="243" y="-41" font-family="Helvetica,sans-Serif" font-size="10.00"> visitors</text>
</g>
</g>
</svg>
