<?xml version="1.0" encoding="UTF-8" standalone="no"?>
<!DOCTYPE svg PUBLIC "-//W3C//DTD SVG 1.1//EN"
 "http://www.w3.org/Graphics/SVG/1.1/DTD/svg11.dtd">
<!-- Generated by graphviz version 2.43.0 (0)
 -->
<!-- Title: P4::CompileTimeOperations Pages: 1 -->
<svg width="400pt" height="233pt"
 viewBox="0.00 0.00 399.50 233.00" xmlns="http://www.w3.org/2000/svg" xmlns:xlink="http://www.w3.org/1999/xlink">
<g id="graph0" class="graph" transform="scale(1 1) rotate(0) translate(4 229)">
<title>P4::CompileTimeOperations</title>
<polygon fill="white" stroke="transparent" points="-4,4 -4,-229 395.5,-229 395.5,4 -4,4"/>
<!-- Node1 -->
<g id="node1" class="node">
<title>Node1</title>
<g id="a_node1"><a xlink:title=" ">
<polygon fill="#bfbfbf" stroke="black" points="0,-0.5 0,-19.5 153,-19.5 153,-0.5 0,-0.5"/>
<text text-anchor="middle" x="76.5" y="-7.5" font-family="Helvetica,sans-Serif" font-size="10.00">P4::CompileTimeOperations</text>
</a>
</g>
</g>
<!-- Node2 -->
<g id="node2" class="node">
<title>Node2</title>
<g id="a_node2"><a xlink:href="class_inspector.html" target="_top" xlink:title=" ">
<polygon fill="white" stroke="black" points="45.5,-68.5 45.5,-87.5 107.5,-87.5 107.5,-68.5 45.5,-68.5"/>
<text text-anchor="middle" x="76.5" y="-75.5" font-family="Helvetica,sans-Serif" font-size="10.00">Inspector</text>
</a>
</g>
</g>
<!-- Node2&#45;&gt;Node1 -->
<g id="edge1" class="edge">
<title>Node2&#45;&gt;Node1</title>
<path fill="none" stroke="midnightblue" d="M76.5,-58.04C76.5,-45.47 76.5,-29.56 76.5,-19.84"/>
<polygon fill="midnightblue" stroke="midnightblue" points="73,-58.37 76.5,-68.37 80,-58.37 73,-58.37"/>
</g>
<!-- Node3 -->
<g id="node3" class="node">
<title>Node3</title>
<g id="a_node3"><a xlink:href="class_visitor.html" target="_top" xlink:title=" ">
<polygon fill="white" stroke="black" points="151.5,-136.5 151.5,-155.5 199.5,-155.5 199.5,-136.5 151.5,-136.5"/>
<text text-anchor="middle" x="175.5" y="-143.5" font-family="Helvetica,sans-Serif" font-size="10.00">Visitor</text>
</a>
</g>
</g>
<!-- Node3&#45;&gt;Node2 -->
<g id="edge2" class="edge">
<title>Node3&#45;&gt;Node2</title>
<path fill="none" stroke="midnightblue" d="M150.86,-131.17C143.87,-127.07 136.3,-122.48 129.5,-118 114.62,-108.19 98.19,-95.86 87.63,-87.72"/>
<polygon fill="midnightblue" stroke="midnightblue" points="149.51,-134.43 159.92,-136.39 153.01,-128.37 149.51,-134.43"/>
</g>
<!-- Node3&#45;&gt;Node3 -->
<g id="edge10" class="edge">
<title>Node3&#45;&gt;Node3</title>
<path fill="none" stroke="#9a32cd" stroke-dasharray="5,2" d="M209.92,-151.29C214.48,-150.39 217.5,-148.63 217.5,-146 217.5,-141.69 209.36,-139.7 199.67,-140.04"/>
<polygon fill="#9a32cd" stroke="#9a32cd" points="209.42,-147.82 199.67,-151.96 209.88,-154.8 209.42,-147.82"/>
<text text-anchor="middle" x="242.5" y="-143.5" font-family="Helvetica,sans-Serif" font-size="10.00"> called_by</text>
</g>
<!-- Node5 -->
<g id="node5" class="node">
<title>Node5</title>
<g id="a_node5"><a xlink:href="class_split_flow_visit__base.html" target="_top" xlink:title=" ">
<polygon fill="white" stroke="black" points="181.5,-0.5 181.5,-19.5 293.5,-19.5 293.5,-0.5 181.5,-0.5"/>
<text text-anchor="middle" x="237.5" y="-7.5" font-family="Helvetica,sans-Serif" font-size="10.00">SplitFlowVisit_base</text>
</a>
</g>
</g>
<!-- Node3&#45;&gt;Node5 -->
<g id="edge9" class="edge">
<title>Node3&#45;&gt;Node5</title>
<path fill="none" stroke="#9a32cd" stroke-dasharray="5,2" d="M163.16,-127.83C153.04,-111.48 141.98,-86.53 152.5,-67 165.24,-43.35 192.82,-28.04 213.12,-19.51"/>
<polygon fill="#9a32cd" stroke="#9a32cd" points="160.38,-129.97 168.83,-136.36 166.2,-126.1 160.38,-129.97"/>
<text text-anchor="middle" x="157.5" y="-75.5" font-family="Helvetica,sans-Serif" font-size="10.00"> v</text>
</g>
<!-- Node6 -->
<g id="node6" class="node">
<title>Node6</title>
<g id="a_node6"><a xlink:title=" ">
<polygon fill="white" stroke="#bfbfbf" points="172,-68.5 172,-87.5 303,-87.5 303,-68.5 172,-68.5"/>
<text text-anchor="middle" x="237.5" y="-75.5" font-family="Helvetica,sans-Serif" font-size="10.00">std::vector&lt; Visitor * &gt;</text>
</a>
</g>
</g>
<!-- Node3&#45;&gt;Node6 -->
<g id="edge8" class="edge">
<title>Node3&#45;&gt;Node6</title>
<path fill="none" stroke="#9a32cd" stroke-dasharray="5,2" d="M190.49,-129.05C202.64,-116.11 219.32,-98.36 229.19,-87.84"/>
<polygon fill="#9a32cd" stroke="#9a32cd" points="187.9,-126.69 183.61,-136.37 193,-131.48 187.9,-126.69"/>
<text text-anchor="middle" x="235" y="-110" font-family="Helvetica,sans-Serif" font-size="10.00"> elements</text>
</g>
<!-- Node4 -->
<g id="node4" class="node">
<title>Node4</title>
<g id="a_node4"><a xlink:href="classcstring.html" target="_top" xlink:title=" ">
<polygon fill="white" stroke="black" points="150.5,-204.5 150.5,-223.5 200.5,-223.5 200.5,-204.5 150.5,-204.5"/>
<text text-anchor="middle" x="175.5" y="-211.5" font-family="Helvetica,sans-Serif" font-size="10.00">cstring</text>
</a>
</g>
</g>
<!-- Node4&#45;&gt;Node3 -->
<g id="edge3" class="edge">
<title>Node4&#45;&gt;Node3</title>
<path fill="none" stroke="#9a32cd" stroke-dasharray="5,2" d="M175.5,-194.04C175.5,-181.47 175.5,-165.56 175.5,-155.84"/>
<polygon fill="#9a32cd" stroke="#9a32cd" points="172,-194.37 175.5,-204.37 179,-194.37 172,-194.37"/>
<text text-anchor="middle" x="210.5" y="-177" font-family="Helvetica,sans-Serif" font-size="10.00"> internalName</text>
</g>
<!-- Node4&#45;&gt;Node4 -->
<g id="edge4" class="edge">
<title>Node4&#45;&gt;Node4</title>
<path fill="none" stroke="#9a32cd" stroke-dasharray="5,2" d="M210.95,-219.58C215.5,-218.61 218.5,-216.75 218.5,-214 218.5,-209.48 210.41,-207.37 200.68,-207.65"/>
<polygon fill="#9a32cd" stroke="#9a32cd" points="210.39,-216.11 200.68,-220.35 210.91,-223.1 210.39,-216.11"/>
<text text-anchor="middle" x="238" y="-217" font-family="Helvetica,sans-Serif" font-size="10.00"> empty</text>
<text text-anchor="middle" x="238" y="-206" font-family="Helvetica,sans-Serif" font-size="10.00">newline</text>
</g>
<!-- Node5&#45;&gt;Node3 -->
<g id="edge5" class="edge">
<title>Node5&#45;&gt;Node3</title>
<path fill="none" stroke="#9a32cd" stroke-dasharray="5,2" d="M266.55,-24.16C293.57,-38.38 327.57,-62.58 312.5,-89 289.85,-128.73 232.46,-140.29 199.6,-143.64"/>
<polygon fill="#9a32cd" stroke="#9a32cd" points="267.88,-20.91 257.38,-19.56 264.75,-27.17 267.88,-20.91"/>
<text text-anchor="middle" x="353.5" y="-81" font-family="Helvetica,sans-Serif" font-size="10.00"> split_link</text>
<text text-anchor="middle" x="353.5" y="-70" font-family="Helvetica,sans-Serif" font-size="10.00">split_link_mem</text>
</g>
<!-- Node5&#45;&gt;Node5 -->
<g id="edge6" class="edge">
<title>Node5&#45;&gt;Node5</title>
<path fill="none" stroke="#9a32cd" stroke-dasharray="5,2" d="M303.9,-14.4C308.62,-13.4 311.5,-11.93 311.5,-10 311.5,-6.91 304.12,-5.01 293.65,-4.31"/>
<polygon fill="#9a32cd" stroke="#9a32cd" points="303.13,-10.97 293.65,-15.69 304.01,-17.91 303.13,-10.97"/>
<text text-anchor="middle" x="324" y="-7.5" font-family="Helvetica,sans-Serif" font-size="10.00"> prev</text>
</g>
<!-- Node6&#45;&gt;Node5 -->
<g id="edge7" class="edge">
<title>Node6&#45;&gt;Node5</title>
<path fill="none" stroke="#9a32cd" stroke-dasharray="5,2" d="M237.5,-58.04C237.5,-45.47 237.5,-29.56 237.5,-19.84"/>
<polygon fill="#9a32cd" stroke="#9a32cd" points="234,-58.37 237.5,-68.37 241,-58.37 234,-58.37"/>
<text text-anchor="middle" x="257.5" y="-41" font-family="Helvetica,sans-Serif" font-size="10.00"> visitors</text>
</g>
</g>
</svg>
