<?xml version="1.0" encoding="UTF-8" standalone="no"?>
<!DOCTYPE svg PUBLIC "-//W3C//DTD SVG 1.1//EN"
 "http://www.w3.org/Graphics/SVG/1.1/DTD/svg11.dtd">
<!-- Generated by graphviz version 2.43.0 (0)
 -->
<!-- Title: P4Tools::P4Testgen::TestgenTarget Pages: 1 -->
<svg width="236pt" height="309pt"
 viewBox="0.00 0.00 236.00 309.00" xmlns="http://www.w3.org/2000/svg" xmlns:xlink="http://www.w3.org/1999/xlink">
<g id="graph0" class="graph" transform="scale(1 1) rotate(0) translate(4 305)">
<title>P4Tools::P4Testgen::TestgenTarget</title>
<polygon fill="white" stroke="transparent" points="-4,4 -4,-305 232,-305 232,4 -4,4"/>
<!-- Node1 -->
<g id="node1" class="node">
<title>Node1</title>
<g id="a_node1"><a xlink:title=" ">
<polygon fill="#bfbfbf" stroke="black" points="0,-0.5 0,-30.5 109,-30.5 109,-0.5 0,-0.5"/>
<text text-anchor="start" x="8" y="-18.5" font-family="Helvetica,sans-Serif" font-size="10.00">P4Tools::P4Testgen</text>
<text text-anchor="middle" x="54.5" y="-7.5" font-family="Helvetica,sans-Serif" font-size="10.00">::TestgenTarget</text>
</a>
</g>
</g>
<!-- Node2 -->
<g id="node2" class="node">
<title>Node2</title>
<g id="a_node2"><a xlink:href="class_p4_tools_1_1_target.html" target="_top" xlink:title=" ">
<polygon fill="white" stroke="black" points="10,-68.5 10,-87.5 99,-87.5 99,-68.5 10,-68.5"/>
<text text-anchor="middle" x="54.5" y="-75.5" font-family="Helvetica,sans-Serif" font-size="10.00">P4Tools::Target</text>
</a>
</g>
</g>
<!-- Node2&#45;&gt;Node1 -->
<g id="edge1" class="edge">
<title>Node2&#45;&gt;Node1</title>
<path fill="none" stroke="midnightblue" d="M54.5,-58.22C54.5,-49.36 54.5,-38.96 54.5,-30.76"/>
<polygon fill="midnightblue" stroke="midnightblue" points="51,-58.33 54.5,-68.33 58,-58.33 51,-58.33"/>
</g>
<!-- Node3 -->
<g id="node3" class="node">
<title>Node3</title>
<g id="a_node3"><a xlink:title=" ">
<polygon fill="white" stroke="#bfbfbf" points="22,-213.5 22,-232.5 87,-232.5 87,-213.5 22,-213.5"/>
<text text-anchor="middle" x="54.5" y="-220.5" font-family="Helvetica,sans-Serif" font-size="10.00">std::string</text>
</a>
</g>
</g>
<!-- Node3&#45;&gt;Node2 -->
<g id="edge2" class="edge">
<title>Node3&#45;&gt;Node2</title>
<path fill="none" stroke="#9a32cd" stroke-dasharray="5,2" d="M51.89,-203.29C49.74,-185.68 47.24,-158.56 48.5,-135 49.4,-118.21 51.8,-98.7 53.28,-87.71"/>
<polygon fill="#9a32cd" stroke="#9a32cd" points="48.44,-203.9 53.2,-213.36 55.38,-202.99 48.44,-203.9"/>
<text text-anchor="middle" x="74.5" y="-142.5" font-family="Helvetica,sans-Serif" font-size="10.00"> toolName</text>
</g>
<!-- Node5 -->
<g id="node5" class="node">
<title>Node5</title>
<g id="a_node5"><a xlink:href="struct_p4_tools_1_1_target_1_1_spec.html" target="_top" xlink:title="Specifies a target device and architecture by their names in lower case.">
<polygon fill="white" stroke="black" points="109,-135.5 109,-154.5 228,-154.5 228,-135.5 109,-135.5"/>
<text text-anchor="middle" x="168.5" y="-142.5" font-family="Helvetica,sans-Serif" font-size="10.00">P4Tools::Target::Spec</text>
</a>
</g>
</g>
<!-- Node3&#45;&gt;Node5 -->
<g id="edge5" class="edge">
<title>Node3&#45;&gt;Node5</title>
<path fill="none" stroke="#9a32cd" stroke-dasharray="5,2" d="M76.15,-207.57C99.6,-191.93 136.25,-167.5 155.58,-154.62"/>
<polygon fill="#9a32cd" stroke="#9a32cd" points="73.96,-204.82 67.58,-213.28 77.84,-210.65 73.96,-204.82"/>
<text text-anchor="middle" x="155.5" y="-187" font-family="Helvetica,sans-Serif" font-size="10.00"> archName</text>
<text text-anchor="middle" x="155.5" y="-176" font-family="Helvetica,sans-Serif" font-size="10.00">deviceName</text>
</g>
<!-- Node4 -->
<g id="node4" class="node">
<title>Node4</title>
<g id="a_node4"><a xlink:title=" ">
<polygon fill="white" stroke="#bfbfbf" points="2.5,-270.5 2.5,-300.5 106.5,-300.5 106.5,-270.5 2.5,-270.5"/>
<text text-anchor="start" x="10.5" y="-288.5" font-family="Helvetica,sans-Serif" font-size="10.00">std::basic_string&lt;</text>
<text text-anchor="middle" x="54.5" y="-277.5" font-family="Helvetica,sans-Serif" font-size="10.00"> Char &gt;</text>
</a>
</g>
</g>
<!-- Node4&#45;&gt;Node3 -->
<g id="edge3" class="edge">
<title>Node4&#45;&gt;Node3</title>
<path fill="none" stroke="midnightblue" d="M54.5,-260.35C54.5,-250.51 54.5,-239.78 54.5,-232.54"/>
<polygon fill="midnightblue" stroke="midnightblue" points="51,-260.47 54.5,-270.47 58,-260.47 51,-260.47"/>
</g>
<!-- Node5&#45;&gt;Node2 -->
<g id="edge4" class="edge">
<title>Node5&#45;&gt;Node2</title>
<path fill="none" stroke="#9a32cd" stroke-dasharray="5,2" d="M144.15,-130.12C121.56,-117.24 88.66,-98.48 69.63,-87.63"/>
<polygon fill="#9a32cd" stroke="#9a32cd" points="142.7,-133.32 153.13,-135.23 146.17,-127.24 142.7,-133.32"/>
<text text-anchor="middle" x="130.5" y="-109" font-family="Helvetica,sans-Serif" font-size="10.00"> spec</text>
</g>
</g>
</svg>
