<?xml version="1.0" encoding="UTF-8" standalone="no"?>
<!DOCTYPE svg PUBLIC "-//W3C//DTD SVG 1.1//EN"
 "http://www.w3.org/Graphics/SVG/1.1/DTD/svg11.dtd">
<!-- Generated by graphviz version 2.43.0 (0)
 -->
<!-- Title: P4::ApplyTypesToExpressions Pages: 1 -->
<svg width="405pt" height="233pt"
 viewBox="0.00 0.00 404.50 233.00" xmlns="http://www.w3.org/2000/svg" xmlns:xlink="http://www.w3.org/1999/xlink">
<g id="graph0" class="graph" transform="scale(1 1) rotate(0) translate(4 229)">
<title>P4::ApplyTypesToExpressions</title>
<polygon fill="white" stroke="transparent" points="-4,4 -4,-229 400.5,-229 400.5,4 -4,4"/>
<!-- Node1 -->
<g id="node1" class="node">
<title>Node1</title>
<g id="a_node1"><a xlink:title=" ">
<polygon fill="#bfbfbf" stroke="black" points="0,-0.5 0,-19.5 159,-19.5 159,-0.5 0,-0.5"/>
<text text-anchor="middle" x="79.5" y="-7.5" font-family="Helvetica,sans-Serif" font-size="10.00">P4::ApplyTypesToExpressions</text>
</a>
</g>
</g>
<!-- Node2 -->
<g id="node2" class="node">
<title>Node2</title>
<g id="a_node2"><a xlink:href="class_transform.html" target="_top" xlink:title=" ">
<polygon fill="white" stroke="black" points="47,-68.5 47,-87.5 112,-87.5 112,-68.5 47,-68.5"/>
<text text-anchor="middle" x="79.5" y="-75.5" font-family="Helvetica,sans-Serif" font-size="10.00">Transform</text>
</a>
</g>
</g>
<!-- Node2&#45;&gt;Node1 -->
<g id="edge1" class="edge">
<title>Node2&#45;&gt;Node1</title>
<path fill="none" stroke="midnightblue" d="M79.5,-58.04C79.5,-45.47 79.5,-29.56 79.5,-19.84"/>
<polygon fill="midnightblue" stroke="midnightblue" points="76,-58.37 79.5,-68.37 83,-58.37 76,-58.37"/>
</g>
<!-- Node3 -->
<g id="node3" class="node">
<title>Node3</title>
<g id="a_node3"><a xlink:href="class_visitor.html" target="_top" xlink:title=" ">
<polygon fill="white" stroke="black" points="156.5,-136.5 156.5,-155.5 204.5,-155.5 204.5,-136.5 156.5,-136.5"/>
<text text-anchor="middle" x="180.5" y="-143.5" font-family="Helvetica,sans-Serif" font-size="10.00">Visitor</text>
</a>
</g>
</g>
<!-- Node3&#45;&gt;Node2 -->
<g id="edge2" class="edge">
<title>Node3&#45;&gt;Node2</title>
<path fill="none" stroke="midnightblue" d="M155.91,-131.09C148.92,-127 141.34,-122.42 134.5,-118 119.16,-108.09 102.09,-95.77 91.1,-87.67"/>
<polygon fill="midnightblue" stroke="midnightblue" points="154.56,-134.35 164.97,-136.33 158.06,-128.29 154.56,-134.35"/>
</g>
<!-- Node3&#45;&gt;Node3 -->
<g id="edge10" class="edge">
<title>Node3&#45;&gt;Node3</title>
<path fill="none" stroke="#9a32cd" stroke-dasharray="5,2" d="M214.92,-151.29C219.48,-150.39 222.5,-148.63 222.5,-146 222.5,-141.69 214.36,-139.7 204.67,-140.04"/>
<polygon fill="#9a32cd" stroke="#9a32cd" points="214.42,-147.82 204.67,-151.96 214.88,-154.8 214.42,-147.82"/>
<text text-anchor="middle" x="247.5" y="-143.5" font-family="Helvetica,sans-Serif" font-size="10.00"> called_by</text>
</g>
<!-- Node5 -->
<g id="node5" class="node">
<title>Node5</title>
<g id="a_node5"><a xlink:href="class_split_flow_visit__base.html" target="_top" xlink:title=" ">
<polygon fill="white" stroke="black" points="186.5,-0.5 186.5,-19.5 298.5,-19.5 298.5,-0.5 186.5,-0.5"/>
<text text-anchor="middle" x="242.5" y="-7.5" font-family="Helvetica,sans-Serif" font-size="10.00">SplitFlowVisit_base</text>
</a>
</g>
</g>
<!-- Node3&#45;&gt;Node5 -->
<g id="edge9" class="edge">
<title>Node3&#45;&gt;Node5</title>
<path fill="none" stroke="#9a32cd" stroke-dasharray="5,2" d="M168.16,-127.83C158.04,-111.48 146.98,-86.53 157.5,-67 170.24,-43.35 197.82,-28.04 218.12,-19.51"/>
<polygon fill="#9a32cd" stroke="#9a32cd" points="165.38,-129.97 173.83,-136.36 171.2,-126.1 165.38,-129.97"/>
<text text-anchor="middle" x="162.5" y="-75.5" font-family="Helvetica,sans-Serif" font-size="10.00"> v</text>
</g>
<!-- Node6 -->
<g id="node6" class="node">
<title>Node6</title>
<g id="a_node6"><a xlink:title=" ">
<polygon fill="white" stroke="#bfbfbf" points="177,-68.5 177,-87.5 308,-87.5 308,-68.5 177,-68.5"/>
<text text-anchor="middle" x="242.5" y="-75.5" font-family="Helvetica,sans-Serif" font-size="10.00">std::vector&lt; Visitor * &gt;</text>
</a>
</g>
</g>
<!-- Node3&#45;&gt;Node6 -->
<g id="edge8" class="edge">
<title>Node3&#45;&gt;Node6</title>
<path fill="none" stroke="#9a32cd" stroke-dasharray="5,2" d="M195.49,-129.05C207.64,-116.11 224.32,-98.36 234.19,-87.84"/>
<polygon fill="#9a32cd" stroke="#9a32cd" points="192.9,-126.69 188.61,-136.37 198,-131.48 192.9,-126.69"/>
<text text-anchor="middle" x="240" y="-110" font-family="Helvetica,sans-Serif" font-size="10.00"> elements</text>
</g>
<!-- Node4 -->
<g id="node4" class="node">
<title>Node4</title>
<g id="a_node4"><a xlink:href="classcstring.html" target="_top" xlink:title=" ">
<polygon fill="white" stroke="black" points="155.5,-204.5 155.5,-223.5 205.5,-223.5 205.5,-204.5 155.5,-204.5"/>
<text text-anchor="middle" x="180.5" y="-211.5" font-family="Helvetica,sans-Serif" font-size="10.00">cstring</text>
</a>
</g>
</g>
<!-- Node4&#45;&gt;Node3 -->
<g id="edge3" class="edge">
<title>Node4&#45;&gt;Node3</title>
<path fill="none" stroke="#9a32cd" stroke-dasharray="5,2" d="M180.5,-194.04C180.5,-181.47 180.5,-165.56 180.5,-155.84"/>
<polygon fill="#9a32cd" stroke="#9a32cd" points="177,-194.37 180.5,-204.37 184,-194.37 177,-194.37"/>
<text text-anchor="middle" x="215.5" y="-177" font-family="Helvetica,sans-Serif" font-size="10.00"> internalName</text>
</g>
<!-- Node4&#45;&gt;Node4 -->
<g id="edge4" class="edge">
<title>Node4&#45;&gt;Node4</title>
<path fill="none" stroke="#9a32cd" stroke-dasharray="5,2" d="M215.95,-219.58C220.5,-218.61 223.5,-216.75 223.5,-214 223.5,-209.48 215.41,-207.37 205.68,-207.65"/>
<polygon fill="#9a32cd" stroke="#9a32cd" points="215.39,-216.11 205.68,-220.35 215.91,-223.1 215.39,-216.11"/>
<text text-anchor="middle" x="243" y="-217" font-family="Helvetica,sans-Serif" font-size="10.00"> empty</text>
<text text-anchor="middle" x="243" y="-206" font-family="Helvetica,sans-Serif" font-size="10.00">newline</text>
</g>
<!-- Node5&#45;&gt;Node3 -->
<g id="edge5" class="edge">
<title>Node5&#45;&gt;Node3</title>
<path fill="none" stroke="#9a32cd" stroke-dasharray="5,2" d="M271.55,-24.16C298.57,-38.38 332.57,-62.58 317.5,-89 294.85,-128.73 237.46,-140.29 204.6,-143.64"/>
<polygon fill="#9a32cd" stroke="#9a32cd" points="272.88,-20.91 262.38,-19.56 269.75,-27.17 272.88,-20.91"/>
<text text-anchor="middle" x="358.5" y="-81" font-family="Helvetica,sans-Serif" font-size="10.00"> split_link</text>
<text text-anchor="middle" x="358.5" y="-70" font-family="Helvetica,sans-Serif" font-size="10.00">split_link_mem</text>
</g>
<!-- Node5&#45;&gt;Node5 -->
<g id="edge6" class="edge">
<title>Node5&#45;&gt;Node5</title>
<path fill="none" stroke="#9a32cd" stroke-dasharray="5,2" d="M308.9,-14.4C313.62,-13.4 316.5,-11.93 316.5,-10 316.5,-6.91 309.12,-5.01 298.65,-4.31"/>
<polygon fill="#9a32cd" stroke="#9a32cd" points="308.13,-10.97 298.65,-15.69 309.01,-17.91 308.13,-10.97"/>
<text text-anchor="middle" x="329" y="-7.5" font-family="Helvetica,sans-Serif" font-size="10.00"> prev</text>
</g>
<!-- Node6&#45;&gt;Node5 -->
<g id="edge7" class="edge">
<title>Node6&#45;&gt;Node5</title>
<path fill="none" stroke="#9a32cd" stroke-dasharray="5,2" d="M242.5,-58.04C242.5,-45.47 242.5,-29.56 242.5,-19.84"/>
<polygon fill="#9a32cd" stroke="#9a32cd" points="239,-58.37 242.5,-68.37 246,-58.37 239,-58.37"/>
<text text-anchor="middle" x="262.5" y="-41" font-family="Helvetica,sans-Serif" font-size="10.00"> visitors</text>
</g>
</g>
</svg>
