<?xml version="1.0" encoding="UTF-8" standalone="no"?>
<!DOCTYPE svg PUBLIC "-//W3C//DTD SVG 1.1//EN"
 "http://www.w3.org/Graphics/SVG/1.1/DTD/svg11.dtd">
<!-- Generated by graphviz version 2.43.0 (0)
 -->
<!-- Title: P4::FindSymbols Pages: 1 -->
<svg width="372pt" height="233pt"
 viewBox="0.00 0.00 371.50 233.00" xmlns="http://www.w3.org/2000/svg" xmlns:xlink="http://www.w3.org/1999/xlink">
<g id="graph0" class="graph" transform="scale(1 1) rotate(0) translate(4 229)">
<title>P4::FindSymbols</title>
<polygon fill="white" stroke="transparent" points="-4,4 -4,-229 367.5,-229 367.5,4 -4,4"/>
<!-- Node1 -->
<g id="node1" class="node">
<title>Node1</title>
<g id="a_node1"><a xlink:title=" ">
<polygon fill="#bfbfbf" stroke="black" points="0,-0.5 0,-19.5 97,-19.5 97,-0.5 0,-0.5"/>
<text text-anchor="middle" x="48.5" y="-7.5" font-family="Helvetica,sans-Serif" font-size="10.00">P4::FindSymbols</text>
</a>
</g>
</g>
<!-- Node2 -->
<g id="node2" class="node">
<title>Node2</title>
<g id="a_node2"><a xlink:href="class_inspector.html" target="_top" xlink:title=" ">
<polygon fill="white" stroke="black" points="17.5,-68.5 17.5,-87.5 79.5,-87.5 79.5,-68.5 17.5,-68.5"/>
<text text-anchor="middle" x="48.5" y="-75.5" font-family="Helvetica,sans-Serif" font-size="10.00">Inspector</text>
</a>
</g>
</g>
<!-- Node2&#45;&gt;Node1 -->
<g id="edge1" class="edge">
<title>Node2&#45;&gt;Node1</title>
<path fill="none" stroke="midnightblue" d="M48.5,-58.04C48.5,-45.47 48.5,-29.56 48.5,-19.84"/>
<polygon fill="midnightblue" stroke="midnightblue" points="45,-58.37 48.5,-68.37 52,-58.37 45,-58.37"/>
</g>
<!-- Node3 -->
<g id="node3" class="node">
<title>Node3</title>
<g id="a_node3"><a xlink:href="class_visitor.html" target="_top" xlink:title=" ">
<polygon fill="white" stroke="black" points="123.5,-136.5 123.5,-155.5 171.5,-155.5 171.5,-136.5 123.5,-136.5"/>
<text text-anchor="middle" x="147.5" y="-143.5" font-family="Helvetica,sans-Serif" font-size="10.00">Visitor</text>
</a>
</g>
</g>
<!-- Node3&#45;&gt;Node2 -->
<g id="edge2" class="edge">
<title>Node3&#45;&gt;Node2</title>
<path fill="none" stroke="midnightblue" d="M122.86,-131.17C115.87,-127.07 108.3,-122.48 101.5,-118 86.62,-108.19 70.19,-95.86 59.63,-87.72"/>
<polygon fill="midnightblue" stroke="midnightblue" points="121.51,-134.43 131.92,-136.39 125.01,-128.37 121.51,-134.43"/>
</g>
<!-- Node3&#45;&gt;Node3 -->
<g id="edge10" class="edge">
<title>Node3&#45;&gt;Node3</title>
<path fill="none" stroke="#9a32cd" stroke-dasharray="5,2" d="M181.92,-151.29C186.48,-150.39 189.5,-148.63 189.5,-146 189.5,-141.69 181.36,-139.7 171.67,-140.04"/>
<polygon fill="#9a32cd" stroke="#9a32cd" points="181.42,-147.82 171.67,-151.96 181.88,-154.8 181.42,-147.82"/>
<text text-anchor="middle" x="214.5" y="-143.5" font-family="Helvetica,sans-Serif" font-size="10.00"> called_by</text>
</g>
<!-- Node5 -->
<g id="node5" class="node">
<title>Node5</title>
<g id="a_node5"><a xlink:href="class_split_flow_visit__base.html" target="_top" xlink:title=" ">
<polygon fill="white" stroke="black" points="153.5,-0.5 153.5,-19.5 265.5,-19.5 265.5,-0.5 153.5,-0.5"/>
<text text-anchor="middle" x="209.5" y="-7.5" font-family="Helvetica,sans-Serif" font-size="10.00">SplitFlowVisit_base</text>
</a>
</g>
</g>
<!-- Node3&#45;&gt;Node5 -->
<g id="edge9" class="edge">
<title>Node3&#45;&gt;Node5</title>
<path fill="none" stroke="#9a32cd" stroke-dasharray="5,2" d="M135.16,-127.83C125.04,-111.48 113.98,-86.53 124.5,-67 137.24,-43.35 164.82,-28.04 185.12,-19.51"/>
<polygon fill="#9a32cd" stroke="#9a32cd" points="132.38,-129.97 140.83,-136.36 138.2,-126.1 132.38,-129.97"/>
<text text-anchor="middle" x="129.5" y="-75.5" font-family="Helvetica,sans-Serif" font-size="10.00"> v</text>
</g>
<!-- Node6 -->
<g id="node6" class="node">
<title>Node6</title>
<g id="a_node6"><a xlink:title=" ">
<polygon fill="white" stroke="#bfbfbf" points="144,-68.5 144,-87.5 275,-87.5 275,-68.5 144,-68.5"/>
<text text-anchor="middle" x="209.5" y="-75.5" font-family="Helvetica,sans-Serif" font-size="10.00">std::vector&lt; Visitor * &gt;</text>
</a>
</g>
</g>
<!-- Node3&#45;&gt;Node6 -->
<g id="edge8" class="edge">
<title>Node3&#45;&gt;Node6</title>
<path fill="none" stroke="#9a32cd" stroke-dasharray="5,2" d="M162.49,-129.05C174.64,-116.11 191.32,-98.36 201.19,-87.84"/>
<polygon fill="#9a32cd" stroke="#9a32cd" points="159.9,-126.69 155.61,-136.37 165,-131.48 159.9,-126.69"/>
<text text-anchor="middle" x="207" y="-110" font-family="Helvetica,sans-Serif" font-size="10.00"> elements</text>
</g>
<!-- Node4 -->
<g id="node4" class="node">
<title>Node4</title>
<g id="a_node4"><a xlink:href="classcstring.html" target="_top" xlink:title=" ">
<polygon fill="white" stroke="black" points="122.5,-204.5 122.5,-223.5 172.5,-223.5 172.5,-204.5 122.5,-204.5"/>
<text text-anchor="middle" x="147.5" y="-211.5" font-family="Helvetica,sans-Serif" font-size="10.00">cstring</text>
</a>
</g>
</g>
<!-- Node4&#45;&gt;Node3 -->
<g id="edge3" class="edge">
<title>Node4&#45;&gt;Node3</title>
<path fill="none" stroke="#9a32cd" stroke-dasharray="5,2" d="M147.5,-194.04C147.5,-181.47 147.5,-165.56 147.5,-155.84"/>
<polygon fill="#9a32cd" stroke="#9a32cd" points="144,-194.37 147.5,-204.37 151,-194.37 144,-194.37"/>
<text text-anchor="middle" x="182.5" y="-177" font-family="Helvetica,sans-Serif" font-size="10.00"> internalName</text>
</g>
<!-- Node4&#45;&gt;Node4 -->
<g id="edge4" class="edge">
<title>Node4&#45;&gt;Node4</title>
<path fill="none" stroke="#9a32cd" stroke-dasharray="5,2" d="M182.95,-219.58C187.5,-218.61 190.5,-216.75 190.5,-214 190.5,-209.48 182.41,-207.37 172.68,-207.65"/>
<polygon fill="#9a32cd" stroke="#9a32cd" points="182.39,-216.11 172.68,-220.35 182.91,-223.1 182.39,-216.11"/>
<text text-anchor="middle" x="210" y="-217" font-family="Helvetica,sans-Serif" font-size="10.00"> empty</text>
<text text-anchor="middle" x="210" y="-206" font-family="Helvetica,sans-Serif" font-size="10.00">newline</text>
</g>
<!-- Node5&#45;&gt;Node3 -->
<g id="edge5" class="edge">
<title>Node5&#45;&gt;Node3</title>
<path fill="none" stroke="#9a32cd" stroke-dasharray="5,2" d="M238.55,-24.16C265.57,-38.38 299.57,-62.58 284.5,-89 261.85,-128.73 204.46,-140.29 171.6,-143.64"/>
<polygon fill="#9a32cd" stroke="#9a32cd" points="239.88,-20.91 229.38,-19.56 236.75,-27.17 239.88,-20.91"/>
<text text-anchor="middle" x="325.5" y="-81" font-family="Helvetica,sans-Serif" font-size="10.00"> split_link</text>
<text text-anchor="middle" x="325.5" y="-70" font-family="Helvetica,sans-Serif" font-size="10.00">split_link_mem</text>
</g>
<!-- Node5&#45;&gt;Node5 -->
<g id="edge6" class="edge">
<title>Node5&#45;&gt;Node5</title>
<path fill="none" stroke="#9a32cd" stroke-dasharray="5,2" d="M275.9,-14.4C280.62,-13.4 283.5,-11.93 283.5,-10 283.5,-6.91 276.12,-5.01 265.65,-4.31"/>
<polygon fill="#9a32cd" stroke="#9a32cd" points="275.13,-10.97 265.65,-15.69 276.01,-17.91 275.13,-10.97"/>
<text text-anchor="middle" x="296" y="-7.5" font-family="Helvetica,sans-Serif" font-size="10.00"> prev</text>
</g>
<!-- Node6&#45;&gt;Node5 -->
<g id="edge7" class="edge">
<title>Node6&#45;&gt;Node5</title>
<path fill="none" stroke="#9a32cd" stroke-dasharray="5,2" d="M209.5,-58.04C209.5,-45.47 209.5,-29.56 209.5,-19.84"/>
<polygon fill="#9a32cd" stroke="#9a32cd" points="206,-58.37 209.5,-68.37 213,-58.37 206,-58.37"/>
<text text-anchor="middle" x="229.5" y="-41" font-family="Helvetica,sans-Serif" font-size="10.00"> visitors</text>
</g>
</g>
</svg>
