<?xml version="1.0" encoding="UTF-8" standalone="no"?>
<!DOCTYPE svg PUBLIC "-//W3C//DTD SVG 1.1//EN"
 "http://www.w3.org/Graphics/SVG/1.1/DTD/svg11.dtd">
<!-- Generated by graphviz version 2.43.0 (0)
 -->
<!-- Title: DPDK::CollectLocalStructAndFlatten Pages: 1 -->
<svg width="737pt" height="301pt"
 viewBox="0.00 0.00 737.00 301.00" xmlns="http://www.w3.org/2000/svg" xmlns:xlink="http://www.w3.org/1999/xlink">
<g id="graph0" class="graph" transform="scale(1 1) rotate(0) translate(4 297)">
<title>DPDK::CollectLocalStructAndFlatten</title>
<polygon fill="white" stroke="transparent" points="-4,4 -4,-297 733,-297 733,4 -4,4"/>
<!-- Node1 -->
<g id="node1" class="node">
<title>Node1</title>
<g id="a_node1"><a xlink:title=" ">
<polygon fill="#bfbfbf" stroke="black" points="340,-0.5 340,-30.5 478,-30.5 478,-0.5 340,-0.5"/>
<text text-anchor="start" x="348" y="-18.5" font-family="Helvetica,sans-Serif" font-size="10.00">DPDK::CollectLocalStruct</text>
<text text-anchor="middle" x="409" y="-7.5" font-family="Helvetica,sans-Serif" font-size="10.00">AndFlatten</text>
</a>
</g>
</g>
<!-- Node2 -->
<g id="node2" class="node">
<title>Node2</title>
<g id="a_node2"><a xlink:href="class_pass_manager.html" target="_top" xlink:title=" ">
<polygon fill="white" stroke="black" points="368.5,-68.5 368.5,-87.5 449.5,-87.5 449.5,-68.5 368.5,-68.5"/>
<text text-anchor="middle" x="409" y="-75.5" font-family="Helvetica,sans-Serif" font-size="10.00">PassManager</text>
</a>
</g>
</g>
<!-- Node2&#45;&gt;Node1 -->
<g id="edge1" class="edge">
<title>Node2&#45;&gt;Node1</title>
<path fill="none" stroke="midnightblue" d="M409,-58.22C409,-49.36 409,-38.96 409,-30.76"/>
<polygon fill="midnightblue" stroke="midnightblue" points="405.5,-58.33 409,-68.33 412.5,-58.33 405.5,-58.33"/>
</g>
<!-- Node3 -->
<g id="node3" class="node">
<title>Node3</title>
<g id="a_node3"><a xlink:href="class_visitor.html" target="_top" xlink:title=" ">
<polygon fill="white" stroke="black" points="192,-204.5 192,-223.5 240,-223.5 240,-204.5 192,-204.5"/>
<text text-anchor="middle" x="216" y="-211.5" font-family="Helvetica,sans-Serif" font-size="10.00">Visitor</text>
</a>
</g>
</g>
<!-- Node3&#45;&gt;Node2 -->
<g id="edge2" class="edge">
<title>Node3&#45;&gt;Node2</title>
<path fill="none" stroke="midnightblue" d="M250.41,-208.62C285.19,-202.55 338.56,-188.52 373,-157 394.13,-137.67 403.81,-103.46 407.34,-87.56"/>
<polygon fill="midnightblue" stroke="midnightblue" points="249.57,-205.21 240.26,-210.26 250.69,-212.12 249.57,-205.21"/>
</g>
<!-- Node3&#45;&gt;Node3 -->
<g id="edge10" class="edge">
<title>Node3&#45;&gt;Node3</title>
<path fill="none" stroke="#9a32cd" stroke-dasharray="5,2" d="M250.42,-219.29C254.98,-218.39 258,-216.63 258,-214 258,-209.69 249.86,-207.7 240.17,-208.04"/>
<polygon fill="#9a32cd" stroke="#9a32cd" points="249.92,-215.82 240.17,-219.96 250.38,-222.8 249.92,-215.82"/>
<text text-anchor="middle" x="283" y="-211.5" font-family="Helvetica,sans-Serif" font-size="10.00"> called_by</text>
</g>
<!-- Node5 -->
<g id="node5" class="node">
<title>Node5</title>
<g id="a_node5"><a xlink:href="class_split_flow_visit__base.html" target="_top" xlink:title=" ">
<polygon fill="white" stroke="black" points="0,-68.5 0,-87.5 112,-87.5 112,-68.5 0,-68.5"/>
<text text-anchor="middle" x="56" y="-75.5" font-family="Helvetica,sans-Serif" font-size="10.00">SplitFlowVisit_base</text>
</a>
</g>
</g>
<!-- Node3&#45;&gt;Node5 -->
<g id="edge9" class="edge">
<title>Node3&#45;&gt;Node5</title>
<path fill="none" stroke="#9a32cd" stroke-dasharray="5,2" d="M181.7,-210.52C153.38,-207.48 112.69,-200.75 80,-186 60.64,-177.26 51.42,-176.04 42,-157 30.53,-133.82 43.46,-102.62 51.13,-87.68"/>
<polygon fill="#9a32cd" stroke="#9a32cd" points="181.61,-214.03 191.9,-211.52 182.29,-207.06 181.61,-214.03"/>
<text text-anchor="middle" x="47" y="-143.5" font-family="Helvetica,sans-Serif" font-size="10.00"> v</text>
</g>
<!-- Node6 -->
<g id="node6" class="node">
<title>Node6</title>
<g id="a_node6"><a xlink:title=" ">
<polygon fill="white" stroke="#bfbfbf" points="150.5,-136.5 150.5,-155.5 281.5,-155.5 281.5,-136.5 150.5,-136.5"/>
<text text-anchor="middle" x="216" y="-143.5" font-family="Helvetica,sans-Serif" font-size="10.00">std::vector&lt; Visitor * &gt;</text>
</a>
</g>
</g>
<!-- Node3&#45;&gt;Node6 -->
<g id="edge8" class="edge">
<title>Node3&#45;&gt;Node6</title>
<path fill="none" stroke="#9a32cd" stroke-dasharray="5,2" d="M216,-194.04C216,-181.47 216,-165.56 216,-155.84"/>
<polygon fill="#9a32cd" stroke="#9a32cd" points="212.5,-194.37 216,-204.37 219.5,-194.37 212.5,-194.37"/>
<text text-anchor="middle" x="240.5" y="-178" font-family="Helvetica,sans-Serif" font-size="10.00"> elements</text>
</g>
<!-- Node7 -->
<g id="node7" class="node">
<title>Node7</title>
<g id="a_node7"><a xlink:href="class_backtrack.html" target="_top" xlink:title=" ">
<polygon fill="white" stroke="black" points="299.5,-136.5 299.5,-155.5 364.5,-155.5 364.5,-136.5 299.5,-136.5"/>
<text text-anchor="middle" x="332" y="-143.5" font-family="Helvetica,sans-Serif" font-size="10.00">Backtrack</text>
</a>
</g>
</g>
<!-- Node3&#45;&gt;Node7 -->
<g id="edge12" class="edge">
<title>Node3&#45;&gt;Node7</title>
<path fill="none" stroke="midnightblue" d="M242.92,-199.83C251.35,-195.56 260.63,-190.71 269,-186 286.49,-176.16 306.06,-163.83 318.68,-155.7"/>
<polygon fill="midnightblue" stroke="midnightblue" points="241.24,-196.76 233.86,-204.36 244.37,-203.02 241.24,-196.76"/>
</g>
<!-- Node4 -->
<g id="node4" class="node">
<title>Node4</title>
<g id="a_node4"><a xlink:href="classcstring.html" target="_top" xlink:title=" ">
<polygon fill="white" stroke="black" points="191,-272.5 191,-291.5 241,-291.5 241,-272.5 191,-272.5"/>
<text text-anchor="middle" x="216" y="-279.5" font-family="Helvetica,sans-Serif" font-size="10.00">cstring</text>
</a>
</g>
</g>
<!-- Node4&#45;&gt;Node3 -->
<g id="edge3" class="edge">
<title>Node4&#45;&gt;Node3</title>
<path fill="none" stroke="#9a32cd" stroke-dasharray="5,2" d="M216,-262.04C216,-249.47 216,-233.56 216,-223.84"/>
<polygon fill="#9a32cd" stroke="#9a32cd" points="212.5,-262.37 216,-272.37 219.5,-262.37 212.5,-262.37"/>
<text text-anchor="middle" x="251" y="-245" font-family="Helvetica,sans-Serif" font-size="10.00"> internalName</text>
</g>
<!-- Node4&#45;&gt;Node4 -->
<g id="edge4" class="edge">
<title>Node4&#45;&gt;Node4</title>
<path fill="none" stroke="#9a32cd" stroke-dasharray="5,2" d="M251.45,-287.58C256,-286.61 259,-284.75 259,-282 259,-277.48 250.91,-275.37 241.18,-275.65"/>
<polygon fill="#9a32cd" stroke="#9a32cd" points="250.89,-284.11 241.18,-288.35 251.41,-291.1 250.89,-284.11"/>
<text text-anchor="middle" x="278.5" y="-285" font-family="Helvetica,sans-Serif" font-size="10.00"> empty</text>
<text text-anchor="middle" x="278.5" y="-274" font-family="Helvetica,sans-Serif" font-size="10.00">newline</text>
</g>
<!-- Node5&#45;&gt;Node3 -->
<g id="edge5" class="edge">
<title>Node5&#45;&gt;Node3</title>
<path fill="none" stroke="#9a32cd" stroke-dasharray="5,2" d="M53.06,-97.52C51.4,-114.74 51.82,-140.2 65,-157 95.98,-196.49 157.75,-208.13 191.91,-211.56"/>
<polygon fill="#9a32cd" stroke="#9a32cd" points="56.54,-97.93 54.34,-87.57 49.59,-97.04 56.54,-97.93"/>
<text text-anchor="middle" x="103" y="-149" font-family="Helvetica,sans-Serif" font-size="10.00"> split_link</text>
<text text-anchor="middle" x="103" y="-138" font-family="Helvetica,sans-Serif" font-size="10.00">split_link_mem</text>
</g>
<!-- Node5&#45;&gt;Node5 -->
<g id="edge6" class="edge">
<title>Node5&#45;&gt;Node5</title>
<path fill="none" stroke="#9a32cd" stroke-dasharray="5,2" d="M122.4,-81.85C127.12,-80.97 130,-79.69 130,-78 130,-75.29 122.62,-73.63 112.15,-73.02"/>
<polygon fill="#9a32cd" stroke="#9a32cd" points="121.7,-78.4 112.15,-82.98 122.47,-85.36 121.7,-78.4"/>
<text text-anchor="middle" x="142.5" y="-75.5" font-family="Helvetica,sans-Serif" font-size="10.00"> prev</text>
</g>
<!-- Node6&#45;&gt;Node5 -->
<g id="edge7" class="edge">
<title>Node6&#45;&gt;Node5</title>
<path fill="none" stroke="#9a32cd" stroke-dasharray="5,2" d="M185.78,-132.54C153.87,-119.37 104.41,-98.97 76.67,-87.53"/>
<polygon fill="#9a32cd" stroke="#9a32cd" points="184.5,-135.79 195.08,-136.37 187.17,-129.32 184.5,-135.79"/>
<text text-anchor="middle" x="166" y="-109" font-family="Helvetica,sans-Serif" font-size="10.00"> visitors</text>
</g>
<!-- Node7&#45;&gt;Node2 -->
<g id="edge11" class="edge">
<title>Node7&#45;&gt;Node2</title>
<path fill="none" stroke="midnightblue" d="M349.76,-129.77C364.92,-116.78 386.19,-98.56 398.69,-87.84"/>
<polygon fill="midnightblue" stroke="midnightblue" points="347.38,-127.21 342.07,-136.37 351.94,-132.52 347.38,-127.21"/>
</g>
<!-- Node8 -->
<g id="node8" class="node">
<title>Node8</title>
<g id="a_node8"><a xlink:href="classsafe__vector.html" target="_top" xlink:title=" ">
<polygon fill="white" stroke="black" points="421.5,-136.5 421.5,-155.5 574.5,-155.5 574.5,-136.5 421.5,-136.5"/>
<text text-anchor="middle" x="498" y="-143.5" font-family="Helvetica,sans-Serif" font-size="10.00">safe_vector&lt; DebugHook &gt;</text>
</a>
</g>
</g>
<!-- Node8&#45;&gt;Node2 -->
<g id="edge13" class="edge">
<title>Node8&#45;&gt;Node2</title>
<path fill="none" stroke="#9a32cd" stroke-dasharray="5,2" d="M477.9,-130.1C460.24,-117 435.16,-98.4 420.64,-87.63"/>
<polygon fill="#9a32cd" stroke="#9a32cd" points="476.25,-133.23 486.36,-136.37 480.42,-127.6 476.25,-133.23"/>
<text text-anchor="middle" x="491" y="-109" font-family="Helvetica,sans-Serif" font-size="10.00"> debugHooks</text>
</g>
<!-- Node9 -->
<g id="node9" class="node">
<title>Node9</title>
<g id="a_node9"><a xlink:title=" ">
<polygon fill="white" stroke="#bfbfbf" points="530.5,-204.5 530.5,-223.5 627.5,-223.5 627.5,-204.5 530.5,-204.5"/>
<text text-anchor="middle" x="579" y="-211.5" font-family="Helvetica,sans-Serif" font-size="10.00">std::vector&lt; T &gt;</text>
</a>
</g>
</g>
<!-- Node9&#45;&gt;Node8 -->
<g id="edge14" class="edge">
<title>Node9&#45;&gt;Node8</title>
<path fill="none" stroke="midnightblue" d="M560.26,-197.73C544.22,-184.66 521.69,-166.3 508.59,-155.63"/>
<polygon fill="midnightblue" stroke="midnightblue" points="558.45,-200.77 568.41,-204.37 562.87,-195.34 558.45,-200.77"/>
</g>
<!-- Node11 -->
<g id="node11" class="node">
<title>Node11</title>
<g id="a_node11"><a xlink:href="classsafe__vector.html" target="_top" xlink:title=" ">
<polygon fill="white" stroke="black" points="593,-136.5 593,-155.5 729,-155.5 729,-136.5 593,-136.5"/>
<text text-anchor="middle" x="661" y="-143.5" font-family="Helvetica,sans-Serif" font-size="10.00">safe_vector&lt; Visitor * &gt;</text>
</a>
</g>
</g>
<!-- Node9&#45;&gt;Node11 -->
<g id="edge17" class="edge">
<title>Node9&#45;&gt;Node11</title>
<path fill="none" stroke="midnightblue" d="M597.52,-198.1C613.79,-185 636.89,-166.4 650.28,-155.63"/>
<polygon fill="midnightblue" stroke="midnightblue" points="595.32,-195.37 589.72,-204.37 599.7,-200.83 595.32,-195.37"/>
</g>
<!-- Node10 -->
<g id="node10" class="node">
<title>Node10</title>
<g id="a_node10"><a xlink:title=" ">
<polygon fill="white" stroke="#bfbfbf" points="564.5,-272.5 564.5,-291.5 593.5,-291.5 593.5,-272.5 564.5,-272.5"/>
<text text-anchor="middle" x="579" y="-279.5" font-family="Helvetica,sans-Serif" font-size="10.00">T</text>
</a>
</g>
</g>
<!-- Node10&#45;&gt;Node9 -->
<g id="edge15" class="edge">
<title>Node10&#45;&gt;Node9</title>
<path fill="none" stroke="#9a32cd" stroke-dasharray="5,2" d="M579,-262.04C579,-249.47 579,-233.56 579,-223.84"/>
<polygon fill="#9a32cd" stroke="#9a32cd" points="575.5,-262.37 579,-272.37 582.5,-262.37 575.5,-262.37"/>
<text text-anchor="middle" x="603.5" y="-245" font-family="Helvetica,sans-Serif" font-size="10.00"> elements</text>
</g>
<!-- Node11&#45;&gt;Node2 -->
<g id="edge16" class="edge">
<title>Node11&#45;&gt;Node2</title>
<path fill="none" stroke="#9a32cd" stroke-dasharray="5,2" d="M623.68,-133.5C596.88,-125.41 559.86,-114.53 527,-106 501.17,-99.29 471.92,-92.59 449.01,-87.55"/>
<polygon fill="#9a32cd" stroke="#9a32cd" points="622.83,-136.9 633.41,-136.46 624.86,-130.21 622.83,-136.9"/>
<text text-anchor="middle" x="582.5" y="-109" font-family="Helvetica,sans-Serif" font-size="10.00"> passes</text>
</g>
</g>
</svg>
