<?xml version="1.0" encoding="UTF-8" standalone="no"?>
<!DOCTYPE svg PUBLIC "-//W3C//DTD SVG 1.1//EN"
 "http://www.w3.org/Graphics/SVG/1.1/DTD/svg11.dtd">
<!-- Generated by graphviz version 2.43.0 (0)
 -->
<!-- Title: graphs::ParserGraphs Pages: 1 -->
<svg width="1056pt" height="407pt"
 viewBox="0.00 0.00 1056.00 407.00" xmlns="http://www.w3.org/2000/svg" xmlns:xlink="http://www.w3.org/1999/xlink">
<g id="graph0" class="graph" transform="scale(1 1) rotate(0) translate(4 403)">
<title>graphs::ParserGraphs</title>
<polygon fill="white" stroke="transparent" points="-4,4 -4,-403 1052,-403 1052,4 -4,4"/>
<!-- Node1 -->
<g id="node1" class="node">
<title>Node1</title>
<g id="a_node1"><a xlink:title=" ">
<polygon fill="#bfbfbf" stroke="black" points="928,-80.5 928,-99.5 1048,-99.5 1048,-80.5 928,-80.5"/>
<text text-anchor="middle" x="988" y="-87.5" font-family="Helvetica,sans-Serif" font-size="10.00">graphs::ParserGraphs</text>
</a>
</g>
</g>
<!-- Node2 -->
<g id="node2" class="node">
<title>Node2</title>
<g id="a_node2"><a xlink:href="classgraphs_1_1_graphs.html" target="_top" xlink:title=" ">
<polygon fill="white" stroke="black" points="671.5,-185.5 671.5,-204.5 761.5,-204.5 761.5,-185.5 671.5,-185.5"/>
<text text-anchor="middle" x="716.5" y="-192.5" font-family="Helvetica,sans-Serif" font-size="10.00">graphs::Graphs</text>
</a>
</g>
</g>
<!-- Node2&#45;&gt;Node1 -->
<g id="edge1" class="edge">
<title>Node2&#45;&gt;Node1</title>
<path fill="none" stroke="midnightblue" d="M760.6,-182.52C800.09,-170.61 859.84,-151.35 910,-130 931.35,-120.92 954.87,-108.29 970.24,-99.66"/>
<polygon fill="midnightblue" stroke="midnightblue" points="759.35,-179.25 750.77,-185.47 761.36,-185.95 759.35,-179.25"/>
</g>
<!-- Node3 -->
<g id="node3" class="node">
<title>Node3</title>
<g id="a_node3"><a xlink:href="class_inspector.html" target="_top" xlink:title=" ">
<polygon fill="white" stroke="black" points="395,-203.5 395,-222.5 457,-222.5 457,-203.5 395,-203.5"/>
<text text-anchor="middle" x="426" y="-210.5" font-family="Helvetica,sans-Serif" font-size="10.00">Inspector</text>
</a>
</g>
</g>
<!-- Node3&#45;&gt;Node2 -->
<g id="edge2" class="edge">
<title>Node3&#45;&gt;Node2</title>
<path fill="none" stroke="midnightblue" d="M467.23,-210.49C520.97,-207.14 615.84,-201.22 671.45,-197.75"/>
<polygon fill="midnightblue" stroke="midnightblue" points="466.82,-207.01 457.06,-211.12 467.26,-214 466.82,-207.01"/>
</g>
<!-- Node4 -->
<g id="node4" class="node">
<title>Node4</title>
<g id="a_node4"><a xlink:href="class_visitor.html" target="_top" xlink:title=" ">
<polygon fill="white" stroke="black" points="180.5,-324.5 180.5,-343.5 228.5,-343.5 228.5,-324.5 180.5,-324.5"/>
<text text-anchor="middle" x="204.5" y="-331.5" font-family="Helvetica,sans-Serif" font-size="10.00">Visitor</text>
</a>
</g>
</g>
<!-- Node4&#45;&gt;Node3 -->
<g id="edge3" class="edge">
<title>Node4&#45;&gt;Node3</title>
<path fill="none" stroke="midnightblue" d="M222.64,-316.99C246.45,-294.35 291.85,-254.65 338,-233 355.96,-224.57 377.71,-219.57 394.97,-216.68"/>
<polygon fill="midnightblue" stroke="midnightblue" points="219.91,-314.77 215.15,-324.23 224.77,-319.8 219.91,-314.77"/>
</g>
<!-- Node4&#45;&gt;Node4 -->
<g id="edge11" class="edge">
<title>Node4&#45;&gt;Node4</title>
<path fill="none" stroke="#9a32cd" stroke-dasharray="5,2" d="M187.83,-353.4C188.95,-358.31 194.5,-362 204.5,-362 220.5,-362 225.12,-352.57 218.37,-343.76"/>
<polygon fill="#9a32cd" stroke="#9a32cd" points="191.21,-354.34 190.63,-343.76 184.48,-352.39 191.21,-354.34"/>
<text text-anchor="middle" x="204.5" y="-365" font-family="Helvetica,sans-Serif" font-size="10.00"> called_by</text>
</g>
<!-- Node6 -->
<g id="node6" class="node">
<title>Node6</title>
<g id="a_node6"><a xlink:href="class_split_flow_visit__base.html" target="_top" xlink:title=" ">
<polygon fill="white" stroke="black" points="660.5,-337.5 660.5,-356.5 772.5,-356.5 772.5,-337.5 660.5,-337.5"/>
<text text-anchor="middle" x="716.5" y="-344.5" font-family="Helvetica,sans-Serif" font-size="10.00">SplitFlowVisit_base</text>
</a>
</g>
</g>
<!-- Node4&#45;&gt;Node6 -->
<g id="edge10" class="edge">
<title>Node4&#45;&gt;Node6</title>
<path fill="none" stroke="#9a32cd" stroke-dasharray="5,2" d="M238.97,-334.85C324.98,-337.05 554.41,-342.89 660.41,-345.6"/>
<polygon fill="#9a32cd" stroke="#9a32cd" points="238.82,-331.35 228.74,-334.59 238.65,-338.35 238.82,-331.35"/>
<text text-anchor="middle" x="426" y="-344" font-family="Helvetica,sans-Serif" font-size="10.00"> v</text>
</g>
<!-- Node7 -->
<g id="node7" class="node">
<title>Node7</title>
<g id="a_node7"><a xlink:title=" ">
<polygon fill="white" stroke="#bfbfbf" points="360.5,-291.5 360.5,-310.5 491.5,-310.5 491.5,-291.5 360.5,-291.5"/>
<text text-anchor="middle" x="426" y="-298.5" font-family="Helvetica,sans-Serif" font-size="10.00">std::vector&lt; Visitor * &gt;</text>
</a>
</g>
</g>
<!-- Node4&#45;&gt;Node7 -->
<g id="edge9" class="edge">
<title>Node4&#45;&gt;Node7</title>
<path fill="none" stroke="#9a32cd" stroke-dasharray="5,2" d="M238.69,-327.62C249.02,-325.71 260.47,-323.68 271,-322 300.31,-317.32 332.87,-312.78 360.47,-309.13"/>
<polygon fill="#9a32cd" stroke="#9a32cd" points="237.98,-324.19 228.8,-329.46 239.27,-331.07 237.98,-324.19"/>
<text text-anchor="middle" x="295.5" y="-325" font-family="Helvetica,sans-Serif" font-size="10.00"> elements</text>
</g>
<!-- Node5 -->
<g id="node5" class="node">
<title>Node5</title>
<g id="a_node5"><a xlink:href="classcstring.html" target="_top" xlink:title=" ">
<polygon fill="white" stroke="black" points="0,-324.5 0,-343.5 50,-343.5 50,-324.5 0,-324.5"/>
<text text-anchor="middle" x="25" y="-331.5" font-family="Helvetica,sans-Serif" font-size="10.00">cstring</text>
</a>
</g>
</g>
<!-- Node5&#45;&gt;Node4 -->
<g id="edge4" class="edge">
<title>Node5&#45;&gt;Node4</title>
<path fill="none" stroke="#9a32cd" stroke-dasharray="5,2" d="M60.64,-334C95.98,-334 149.84,-334 180.33,-334"/>
<polygon fill="#9a32cd" stroke="#9a32cd" points="60.31,-330.5 50.31,-334 60.31,-337.5 60.31,-330.5"/>
<text text-anchor="middle" x="103" y="-337" font-family="Helvetica,sans-Serif" font-size="10.00"> internalName</text>
</g>
<!-- Node5&#45;&gt;Node5 -->
<g id="edge5" class="edge">
<title>Node5&#45;&gt;Node5</title>
<path fill="none" stroke="#9a32cd" stroke-dasharray="5,2" d="M10.64,-353.77C11.76,-358.5 16.55,-362 25,-362 38.86,-362 42.87,-352.57 37.02,-343.76"/>
<polygon fill="#9a32cd" stroke="#9a32cd" points="14.11,-354.29 12.98,-343.76 7.29,-352.7 14.11,-354.29"/>
<text text-anchor="middle" x="25" y="-376" font-family="Helvetica,sans-Serif" font-size="10.00"> empty</text>
<text text-anchor="middle" x="25" y="-365" font-family="Helvetica,sans-Serif" font-size="10.00">newline</text>
</g>
<!-- Node6&#45;&gt;Node4 -->
<g id="edge6" class="edge">
<title>Node6&#45;&gt;Node4</title>
<path fill="none" stroke="#9a32cd" stroke-dasharray="5,2" d="M650.28,-357.59C639.52,-358.98 628.47,-360.2 618,-361 464.22,-372.73 422.06,-392.09 271,-361 254.25,-357.55 236.38,-349.89 223.55,-343.6"/>
<polygon fill="#9a32cd" stroke="#9a32cd" points="651.03,-361.02 660.47,-356.21 650.09,-354.08 651.03,-361.02"/>
<text text-anchor="middle" x="426" y="-391" font-family="Helvetica,sans-Serif" font-size="10.00"> split_link</text>
<text text-anchor="middle" x="426" y="-380" font-family="Helvetica,sans-Serif" font-size="10.00">split_link_mem</text>
</g>
<!-- Node6&#45;&gt;Node6 -->
<g id="edge7" class="edge">
<title>Node6&#45;&gt;Node6</title>
<path fill="none" stroke="#9a32cd" stroke-dasharray="5,2" d="M690.46,-366.03C691.88,-371.13 700.56,-375 716.5,-375 741.38,-375 748.58,-365.57 738.08,-356.76"/>
<polygon fill="#9a32cd" stroke="#9a32cd" points="693.74,-367.29 694.92,-356.76 687.43,-364.25 693.74,-367.29"/>
<text text-anchor="middle" x="716.5" y="-378" font-family="Helvetica,sans-Serif" font-size="10.00"> prev</text>
</g>
<!-- Node7&#45;&gt;Node6 -->
<g id="edge8" class="edge">
<title>Node7&#45;&gt;Node6</title>
<path fill="none" stroke="#9a32cd" stroke-dasharray="5,2" d="M502.11,-306.78C537.45,-310.14 580.06,-315.09 618,-322 639.83,-325.98 664,-332.16 682.81,-337.38"/>
<polygon fill="#9a32cd" stroke="#9a32cd" points="502.15,-303.27 491.87,-305.84 501.5,-310.24 502.15,-303.27"/>
<text text-anchor="middle" x="575" y="-325" font-family="Helvetica,sans-Serif" font-size="10.00"> visitors</text>
</g>
<!-- Node8 -->
<g id="node8" class="node">
<title>Node8</title>
<g id="a_node8"><a xlink:title=" ">
<polygon fill="white" stroke="#bfbfbf" points="373,-242 373,-272 479,-272 479,-242 373,-242"/>
<text text-anchor="start" x="381" y="-260" font-family="Helvetica,sans-Serif" font-size="10.00">std::vector&lt; const</text>
<text text-anchor="middle" x="426" y="-249" font-family="Helvetica,sans-Serif" font-size="10.00"> IR::Statement * &gt;</text>
</a>
</g>
</g>
<!-- Node8&#45;&gt;Node2 -->
<g id="edge12" class="edge">
<title>Node8&#45;&gt;Node2</title>
<path fill="none" stroke="#9a32cd" stroke-dasharray="5,2" d="M489.56,-244.15C526.88,-236.43 575.18,-226.31 618,-217 636.31,-213.02 656.53,-208.48 673.78,-204.56"/>
<polygon fill="#9a32cd" stroke="#9a32cd" points="488.42,-240.81 479.33,-246.27 489.84,-247.67 488.42,-240.81"/>
<text text-anchor="middle" x="575" y="-237" font-family="Helvetica,sans-Serif" font-size="10.00"> statementsStack</text>
</g>
<!-- Node9 -->
<g id="node9" class="node">
<title>Node9</title>
<g id="a_node9"><a xlink:title=" ">
<polygon fill="white" stroke="#bfbfbf" points="338,-154 338,-184 514,-184 514,-154 338,-154"/>
<text text-anchor="start" x="346" y="-172" font-family="Helvetica,sans-Serif" font-size="10.00">std::vector&lt; std::pair</text>
<text text-anchor="middle" x="426" y="-161" font-family="Helvetica,sans-Serif" font-size="10.00">&lt; vertex_t, EdgeTypeIface * &gt; &gt;</text>
</a>
</g>
</g>
<!-- Node9&#45;&gt;Node2 -->
<g id="edge13" class="edge">
<title>Node9&#45;&gt;Node2</title>
<path fill="none" stroke="#9a32cd" stroke-dasharray="5,2" d="M524.08,-177.58C554.19,-180.26 587.47,-183.23 618,-186 635.44,-187.58 654.63,-189.35 671.34,-190.89"/>
<polygon fill="#9a32cd" stroke="#9a32cd" points="524.28,-174.08 514.01,-176.68 523.66,-181.05 524.28,-174.08"/>
<text text-anchor="middle" x="575" y="-189" font-family="Helvetica,sans-Serif" font-size="10.00"> parents</text>
</g>
<!-- Node10 -->
<g id="node10" class="node">
<title>Node10</title>
<g id="a_node10"><a xlink:title=" ">
<polygon fill="white" stroke="#bfbfbf" points="637,-110.5 637,-151.5 796,-151.5 796,-110.5 637,-110.5"/>
<text text-anchor="start" x="645" y="-139.5" font-family="Helvetica,sans-Serif" font-size="10.00">std::map&lt; const IR</text>
<text text-anchor="start" x="645" y="-128.5" font-family="Helvetica,sans-Serif" font-size="10.00">::P4Parser *, safe_vector</text>
<text text-anchor="middle" x="716.5" y="-117.5" font-family="Helvetica,sans-Serif" font-size="10.00">&lt; const IR::ParserState * &gt; &gt;</text>
</a>
</g>
</g>
<!-- Node10&#45;&gt;Node1 -->
<g id="edge14" class="edge">
<title>Node10&#45;&gt;Node1</title>
<path fill="none" stroke="#9a32cd" stroke-dasharray="5,2" d="M806.2,-117.51C846.17,-111.42 892.29,-104.41 927.95,-98.98"/>
<polygon fill="#9a32cd" stroke="#9a32cd" points="805.53,-114.07 796.18,-119.03 806.59,-120.99 805.53,-114.07"/>
<text text-anchor="middle" x="862.5" y="-118" font-family="Helvetica,sans-Serif" font-size="10.00"> states</text>
</g>
<!-- Node11 -->
<g id="node11" class="node">
<title>Node11</title>
<g id="a_node11"><a xlink:href="classsafe__vector.html" target="_top" xlink:title=" ">
<polygon fill="white" stroke="black" points="370.5,-105 370.5,-135 481.5,-135 481.5,-105 370.5,-105"/>
<text text-anchor="start" x="378.5" y="-123" font-family="Helvetica,sans-Serif" font-size="10.00">safe_vector&lt; const</text>
<text text-anchor="middle" x="426" y="-112" font-family="Helvetica,sans-Serif" font-size="10.00"> IR::ParserState * &gt;</text>
</a>
</g>
</g>
<!-- Node11&#45;&gt;Node10 -->
<g id="edge15" class="edge">
<title>Node11&#45;&gt;Node10</title>
<path fill="none" stroke="#9a32cd" stroke-dasharray="5,2" d="M491.66,-122.47C534.62,-124.1 591.3,-126.26 636.87,-128"/>
<polygon fill="#9a32cd" stroke="#9a32cd" points="491.73,-118.97 481.6,-122.08 491.46,-125.96 491.73,-118.97"/>
<text text-anchor="middle" x="575" y="-130" font-family="Helvetica,sans-Serif" font-size="10.00"> elements</text>
</g>
<!-- Node12 -->
<g id="node12" class="node">
<title>Node12</title>
<g id="a_node12"><a xlink:title=" ">
<polygon fill="white" stroke="#bfbfbf" points="156,-79.5 156,-98.5 253,-98.5 253,-79.5 156,-79.5"/>
<text text-anchor="middle" x="204.5" y="-86.5" font-family="Helvetica,sans-Serif" font-size="10.00">std::vector&lt; T &gt;</text>
</a>
</g>
</g>
<!-- Node12&#45;&gt;Node11 -->
<g id="edge16" class="edge">
<title>Node12&#45;&gt;Node11</title>
<path fill="none" stroke="midnightblue" d="M263.11,-97.14C296.19,-101.81 337.5,-107.64 370.11,-112.25"/>
<polygon fill="midnightblue" stroke="midnightblue" points="263.52,-93.66 253.13,-95.73 262.54,-100.59 263.52,-93.66"/>
</g>
<!-- Node16 -->
<g id="node16" class="node">
<title>Node16</title>
<g id="a_node16"><a xlink:href="classsafe__vector.html" target="_top" xlink:title=" ">
<polygon fill="white" stroke="black" points="364.5,-44.5 364.5,-85.5 487.5,-85.5 487.5,-44.5 364.5,-44.5"/>
<text text-anchor="start" x="372.5" y="-73.5" font-family="Helvetica,sans-Serif" font-size="10.00">safe_vector&lt; const</text>
<text text-anchor="start" x="372.5" y="-62.5" font-family="Helvetica,sans-Serif" font-size="10.00"> graphs::ParserGraphs</text>
<text text-anchor="middle" x="426" y="-51.5" font-family="Helvetica,sans-Serif" font-size="10.00">::TransitionEdge * &gt;</text>
</a>
</g>
</g>
<!-- Node12&#45;&gt;Node16 -->
<g id="edge21" class="edge">
<title>Node12&#45;&gt;Node16</title>
<path fill="none" stroke="midnightblue" d="M263.4,-82.67C294.55,-79.26 332.95,-75.06 364.5,-71.62"/>
<polygon fill="midnightblue" stroke="midnightblue" points="262.69,-79.23 253.13,-83.79 263.45,-86.18 262.69,-79.23"/>
</g>
<!-- Node13 -->
<g id="node13" class="node">
<title>Node13</title>
<g id="a_node13"><a xlink:title=" ">
<polygon fill="white" stroke="#bfbfbf" points="10.5,-79.5 10.5,-98.5 39.5,-98.5 39.5,-79.5 10.5,-79.5"/>
<text text-anchor="middle" x="25" y="-86.5" font-family="Helvetica,sans-Serif" font-size="10.00">T</text>
</a>
</g>
</g>
<!-- Node13&#45;&gt;Node12 -->
<g id="edge17" class="edge">
<title>Node13&#45;&gt;Node12</title>
<path fill="none" stroke="#9a32cd" stroke-dasharray="5,2" d="M49.7,-89C76.69,-89 121.48,-89 155.79,-89"/>
<polygon fill="#9a32cd" stroke="#9a32cd" points="49.63,-85.5 39.63,-89 49.63,-92.5 49.63,-85.5"/>
<text text-anchor="middle" x="103" y="-92" font-family="Helvetica,sans-Serif" font-size="10.00"> elements</text>
</g>
<!-- Node14 -->
<g id="node14" class="node">
<title>Node14</title>
<g id="a_node14"><a xlink:title=" ">
<polygon fill="white" stroke="#bfbfbf" points="652.5,-0.5 652.5,-19.5 780.5,-19.5 780.5,-0.5 652.5,-0.5"/>
<text text-anchor="middle" x="716.5" y="-7.5" font-family="Helvetica,sans-Serif" font-size="10.00">std::vector&lt; Graph * &gt;</text>
</a>
</g>
</g>
<!-- Node14&#45;&gt;Node1 -->
<g id="edge18" class="edge">
<title>Node14&#45;&gt;Node1</title>
<path fill="none" stroke="#9a32cd" stroke-dasharray="5,2" d="M772.01,-21.8C810.86,-30.71 864.13,-43.95 910,-59 929.03,-65.24 950.1,-73.85 965.38,-80.41"/>
<polygon fill="#9a32cd" stroke="#9a32cd" points="772.48,-18.31 761.95,-19.51 770.93,-25.14 772.48,-18.31"/>
<text text-anchor="middle" x="862.5" y="-62" font-family="Helvetica,sans-Serif" font-size="10.00"> parserGraphsArray</text>
</g>
<!-- Node15 -->
<g id="node15" class="node">
<title>Node15</title>
<g id="a_node15"><a xlink:title=" ">
<polygon fill="white" stroke="#bfbfbf" points="636,-39 636,-91 797,-91 797,-39 636,-39"/>
<text text-anchor="start" x="644" y="-79" font-family="Helvetica,sans-Serif" font-size="10.00">std::map&lt; const IR</text>
<text text-anchor="start" x="644" y="-68" font-family="Helvetica,sans-Serif" font-size="10.00">::P4Parser *, safe_vector</text>
<text text-anchor="start" x="644" y="-57" font-family="Helvetica,sans-Serif" font-size="10.00">&lt; const graphs::ParserGraphs</text>
<text text-anchor="middle" x="716.5" y="-46" font-family="Helvetica,sans-Serif" font-size="10.00">::TransitionEdge * &gt; &gt;</text>
</a>
</g>
</g>
<!-- Node15&#45;&gt;Node1 -->
<g id="edge19" class="edge">
<title>Node15&#45;&gt;Node1</title>
<path fill="none" stroke="#9a32cd" stroke-dasharray="5,2" d="M807.23,-73.32C846.98,-77.01 892.64,-81.25 927.99,-84.53"/>
<polygon fill="#9a32cd" stroke="#9a32cd" points="807.55,-69.84 797.27,-72.4 806.9,-76.81 807.55,-69.84"/>
<text text-anchor="middle" x="862.5" y="-85" font-family="Helvetica,sans-Serif" font-size="10.00"> transitions</text>
</g>
<!-- Node16&#45;&gt;Node15 -->
<g id="edge20" class="edge">
<title>Node16&#45;&gt;Node15</title>
<path fill="none" stroke="#9a32cd" stroke-dasharray="5,2" d="M497.92,-65C539.69,-65 592.64,-65 635.84,-65"/>
<polygon fill="#9a32cd" stroke="#9a32cd" points="497.83,-61.5 487.83,-65 497.83,-68.5 497.83,-61.5"/>
<text text-anchor="middle" x="575" y="-68" font-family="Helvetica,sans-Serif" font-size="10.00"> elements</text>
</g>
</g>
</svg>
