<?xml version="1.0" encoding="UTF-8" standalone="no"?>
<!DOCTYPE svg PUBLIC "-//W3C//DTD SVG 1.1//EN"
 "http://www.w3.org/Graphics/SVG/1.1/DTD/svg11.dtd">
<!-- Generated by graphviz version 2.43.0 (0)
 -->
<!-- Title: VisitFunctor Pages: 1 -->
<svg width="366pt" height="233pt"
 viewBox="0.00 0.00 366.00 233.00" xmlns="http://www.w3.org/2000/svg" xmlns:xlink="http://www.w3.org/1999/xlink">
<g id="graph0" class="graph" transform="scale(1 1) rotate(0) translate(4 229)">
<title>VisitFunctor</title>
<polygon fill="white" stroke="transparent" points="-4,4 -4,-229 362,-229 362,4 -4,4"/>
<!-- Node1 -->
<g id="node1" class="node">
<title>Node1</title>
<g id="a_node1"><a xlink:title=" ">
<polygon fill="#bfbfbf" stroke="black" points="0,-68.5 0,-87.5 74,-87.5 74,-68.5 0,-68.5"/>
<text text-anchor="middle" x="37" y="-75.5" font-family="Helvetica,sans-Serif" font-size="10.00">VisitFunctor</text>
</a>
</g>
</g>
<!-- Node2 -->
<g id="node2" class="node">
<title>Node2</title>
<g id="a_node2"><a xlink:href="class_visitor.html" target="_top" xlink:title=" ">
<polygon fill="white" stroke="black" points="118,-136.5 118,-155.5 166,-155.5 166,-136.5 118,-136.5"/>
<text text-anchor="middle" x="142" y="-143.5" font-family="Helvetica,sans-Serif" font-size="10.00">Visitor</text>
</a>
</g>
</g>
<!-- Node2&#45;&gt;Node1 -->
<g id="edge1" class="edge">
<title>Node2&#45;&gt;Node1</title>
<path fill="none" stroke="midnightblue" d="M118.31,-131.42C111.1,-127.2 103.18,-122.48 96,-118 79.75,-107.87 61.39,-95.6 49.53,-87.57"/>
<polygon fill="midnightblue" stroke="midnightblue" points="116.56,-134.45 126.96,-136.44 120.07,-128.4 116.56,-134.45"/>
</g>
<!-- Node2&#45;&gt;Node2 -->
<g id="edge9" class="edge">
<title>Node2&#45;&gt;Node2</title>
<path fill="none" stroke="#9a32cd" stroke-dasharray="5,2" d="M176.42,-151.29C180.98,-150.39 184,-148.63 184,-146 184,-141.69 175.86,-139.7 166.17,-140.04"/>
<polygon fill="#9a32cd" stroke="#9a32cd" points="175.92,-147.82 166.17,-151.96 176.38,-154.8 175.92,-147.82"/>
<text text-anchor="middle" x="209" y="-143.5" font-family="Helvetica,sans-Serif" font-size="10.00"> called_by</text>
</g>
<!-- Node4 -->
<g id="node4" class="node">
<title>Node4</title>
<g id="a_node4"><a xlink:href="class_split_flow_visit__base.html" target="_top" xlink:title=" ">
<polygon fill="white" stroke="black" points="148,-0.5 148,-19.5 260,-19.5 260,-0.5 148,-0.5"/>
<text text-anchor="middle" x="204" y="-7.5" font-family="Helvetica,sans-Serif" font-size="10.00">SplitFlowVisit_base</text>
</a>
</g>
</g>
<!-- Node2&#45;&gt;Node4 -->
<g id="edge8" class="edge">
<title>Node2&#45;&gt;Node4</title>
<path fill="none" stroke="#9a32cd" stroke-dasharray="5,2" d="M129.66,-127.83C119.54,-111.48 108.48,-86.53 119,-67 131.74,-43.35 159.32,-28.04 179.62,-19.51"/>
<polygon fill="#9a32cd" stroke="#9a32cd" points="126.88,-129.97 135.33,-136.36 132.7,-126.1 126.88,-129.97"/>
<text text-anchor="middle" x="124" y="-75.5" font-family="Helvetica,sans-Serif" font-size="10.00"> v</text>
</g>
<!-- Node5 -->
<g id="node5" class="node">
<title>Node5</title>
<g id="a_node5"><a xlink:title=" ">
<polygon fill="white" stroke="#bfbfbf" points="138.5,-68.5 138.5,-87.5 269.5,-87.5 269.5,-68.5 138.5,-68.5"/>
<text text-anchor="middle" x="204" y="-75.5" font-family="Helvetica,sans-Serif" font-size="10.00">std::vector&lt; Visitor * &gt;</text>
</a>
</g>
</g>
<!-- Node2&#45;&gt;Node5 -->
<g id="edge7" class="edge">
<title>Node2&#45;&gt;Node5</title>
<path fill="none" stroke="#9a32cd" stroke-dasharray="5,2" d="M156.99,-129.05C169.14,-116.11 185.82,-98.36 195.69,-87.84"/>
<polygon fill="#9a32cd" stroke="#9a32cd" points="154.4,-126.69 150.11,-136.37 159.5,-131.48 154.4,-126.69"/>
<text text-anchor="middle" x="201.5" y="-110" font-family="Helvetica,sans-Serif" font-size="10.00"> elements</text>
</g>
<!-- Node3 -->
<g id="node3" class="node">
<title>Node3</title>
<g id="a_node3"><a xlink:href="classcstring.html" target="_top" xlink:title=" ">
<polygon fill="white" stroke="black" points="117,-204.5 117,-223.5 167,-223.5 167,-204.5 117,-204.5"/>
<text text-anchor="middle" x="142" y="-211.5" font-family="Helvetica,sans-Serif" font-size="10.00">cstring</text>
</a>
</g>
</g>
<!-- Node3&#45;&gt;Node2 -->
<g id="edge2" class="edge">
<title>Node3&#45;&gt;Node2</title>
<path fill="none" stroke="#9a32cd" stroke-dasharray="5,2" d="M142,-194.04C142,-181.47 142,-165.56 142,-155.84"/>
<polygon fill="#9a32cd" stroke="#9a32cd" points="138.5,-194.37 142,-204.37 145.5,-194.37 138.5,-194.37"/>
<text text-anchor="middle" x="177" y="-177" font-family="Helvetica,sans-Serif" font-size="10.00"> internalName</text>
</g>
<!-- Node3&#45;&gt;Node3 -->
<g id="edge3" class="edge">
<title>Node3&#45;&gt;Node3</title>
<path fill="none" stroke="#9a32cd" stroke-dasharray="5,2" d="M177.45,-219.58C182,-218.61 185,-216.75 185,-214 185,-209.48 176.91,-207.37 167.18,-207.65"/>
<polygon fill="#9a32cd" stroke="#9a32cd" points="176.89,-216.11 167.18,-220.35 177.41,-223.1 176.89,-216.11"/>
<text text-anchor="middle" x="204.5" y="-217" font-family="Helvetica,sans-Serif" font-size="10.00"> empty</text>
<text text-anchor="middle" x="204.5" y="-206" font-family="Helvetica,sans-Serif" font-size="10.00">newline</text>
</g>
<!-- Node4&#45;&gt;Node2 -->
<g id="edge4" class="edge">
<title>Node4&#45;&gt;Node2</title>
<path fill="none" stroke="#9a32cd" stroke-dasharray="5,2" d="M233.05,-24.16C260.07,-38.38 294.07,-62.58 279,-89 256.35,-128.73 198.96,-140.29 166.1,-143.64"/>
<polygon fill="#9a32cd" stroke="#9a32cd" points="234.38,-20.91 223.88,-19.56 231.25,-27.17 234.38,-20.91"/>
<text text-anchor="middle" x="320" y="-81" font-family="Helvetica,sans-Serif" font-size="10.00"> split_link</text>
<text text-anchor="middle" x="320" y="-70" font-family="Helvetica,sans-Serif" font-size="10.00">split_link_mem</text>
</g>
<!-- Node4&#45;&gt;Node4 -->
<g id="edge5" class="edge">
<title>Node4&#45;&gt;Node4</title>
<path fill="none" stroke="#9a32cd" stroke-dasharray="5,2" d="M270.4,-14.4C275.12,-13.4 278,-11.93 278,-10 278,-6.91 270.62,-5.01 260.15,-4.31"/>
<polygon fill="#9a32cd" stroke="#9a32cd" points="269.63,-10.97 260.15,-15.69 270.51,-17.91 269.63,-10.97"/>
<text text-anchor="middle" x="290.5" y="-7.5" font-family="Helvetica,sans-Serif" font-size="10.00"> prev</text>
</g>
<!-- Node5&#45;&gt;Node4 -->
<g id="edge6" class="edge">
<title>Node5&#45;&gt;Node4</title>
<path fill="none" stroke="#9a32cd" stroke-dasharray="5,2" d="M204,-58.04C204,-45.47 204,-29.56 204,-19.84"/>
<polygon fill="#9a32cd" stroke="#9a32cd" points="200.5,-58.37 204,-68.37 207.5,-58.37 200.5,-58.37"/>
<text text-anchor="middle" x="224" y="-41" font-family="Helvetica,sans-Serif" font-size="10.00"> visitors</text>
</g>
</g>
</svg>
