<?xml version="1.0" encoding="UTF-8" standalone="no"?>
<!DOCTYPE svg PUBLIC "-//W3C//DTD SVG 1.1//EN"
 "http://www.w3.org/Graphics/SVG/1.1/DTD/svg11.dtd">
<!-- Generated by graphviz version 2.43.0 (0)
 -->
<!-- Title: DPDK::CollectAddOnMissTable Pages: 1 -->
<svg width="405pt" height="233pt"
 viewBox="0.00 0.00 405.00 233.00" xmlns="http://www.w3.org/2000/svg" xmlns:xlink="http://www.w3.org/1999/xlink">
<g id="graph0" class="graph" transform="scale(1 1) rotate(0) translate(4 229)">
<title>DPDK::CollectAddOnMissTable</title>
<polygon fill="white" stroke="transparent" points="-4,4 -4,-229 401,-229 401,4 -4,4"/>
<!-- Node1 -->
<g id="node1" class="node">
<title>Node1</title>
<g id="a_node1"><a xlink:title=" ">
<polygon fill="#bfbfbf" stroke="black" points="0,-0.5 0,-19.5 164,-19.5 164,-0.5 0,-0.5"/>
<text text-anchor="middle" x="82" y="-7.5" font-family="Helvetica,sans-Serif" font-size="10.00">DPDK::CollectAddOnMissTable</text>
</a>
</g>
</g>
<!-- Node2 -->
<g id="node2" class="node">
<title>Node2</title>
<g id="a_node2"><a xlink:href="class_inspector.html" target="_top" xlink:title=" ">
<polygon fill="white" stroke="black" points="51,-68.5 51,-87.5 113,-87.5 113,-68.5 51,-68.5"/>
<text text-anchor="middle" x="82" y="-75.5" font-family="Helvetica,sans-Serif" font-size="10.00">Inspector</text>
</a>
</g>
</g>
<!-- Node2&#45;&gt;Node1 -->
<g id="edge1" class="edge">
<title>Node2&#45;&gt;Node1</title>
<path fill="none" stroke="midnightblue" d="M82,-58.04C82,-45.47 82,-29.56 82,-19.84"/>
<polygon fill="midnightblue" stroke="midnightblue" points="78.5,-58.37 82,-68.37 85.5,-58.37 78.5,-58.37"/>
</g>
<!-- Node3 -->
<g id="node3" class="node">
<title>Node3</title>
<g id="a_node3"><a xlink:href="class_visitor.html" target="_top" xlink:title=" ">
<polygon fill="white" stroke="black" points="157,-136.5 157,-155.5 205,-155.5 205,-136.5 157,-136.5"/>
<text text-anchor="middle" x="181" y="-143.5" font-family="Helvetica,sans-Serif" font-size="10.00">Visitor</text>
</a>
</g>
</g>
<!-- Node3&#45;&gt;Node2 -->
<g id="edge2" class="edge">
<title>Node3&#45;&gt;Node2</title>
<path fill="none" stroke="midnightblue" d="M156.36,-131.17C149.37,-127.07 141.8,-122.48 135,-118 120.12,-108.19 103.69,-95.86 93.13,-87.72"/>
<polygon fill="midnightblue" stroke="midnightblue" points="155.01,-134.43 165.42,-136.39 158.51,-128.37 155.01,-134.43"/>
</g>
<!-- Node3&#45;&gt;Node3 -->
<g id="edge10" class="edge">
<title>Node3&#45;&gt;Node3</title>
<path fill="none" stroke="#9a32cd" stroke-dasharray="5,2" d="M215.42,-151.29C219.98,-150.39 223,-148.63 223,-146 223,-141.69 214.86,-139.7 205.17,-140.04"/>
<polygon fill="#9a32cd" stroke="#9a32cd" points="214.92,-147.82 205.17,-151.96 215.38,-154.8 214.92,-147.82"/>
<text text-anchor="middle" x="248" y="-143.5" font-family="Helvetica,sans-Serif" font-size="10.00"> called_by</text>
</g>
<!-- Node5 -->
<g id="node5" class="node">
<title>Node5</title>
<g id="a_node5"><a xlink:href="class_split_flow_visit__base.html" target="_top" xlink:title=" ">
<polygon fill="white" stroke="black" points="187,-0.5 187,-19.5 299,-19.5 299,-0.5 187,-0.5"/>
<text text-anchor="middle" x="243" y="-7.5" font-family="Helvetica,sans-Serif" font-size="10.00">SplitFlowVisit_base</text>
</a>
</g>
</g>
<!-- Node3&#45;&gt;Node5 -->
<g id="edge9" class="edge">
<title>Node3&#45;&gt;Node5</title>
<path fill="none" stroke="#9a32cd" stroke-dasharray="5,2" d="M168.66,-127.83C158.54,-111.48 147.48,-86.53 158,-67 170.74,-43.35 198.32,-28.04 218.62,-19.51"/>
<polygon fill="#9a32cd" stroke="#9a32cd" points="165.88,-129.97 174.33,-136.36 171.7,-126.1 165.88,-129.97"/>
<text text-anchor="middle" x="163" y="-75.5" font-family="Helvetica,sans-Serif" font-size="10.00"> v</text>
</g>
<!-- Node6 -->
<g id="node6" class="node">
<title>Node6</title>
<g id="a_node6"><a xlink:title=" ">
<polygon fill="white" stroke="#bfbfbf" points="177.5,-68.5 177.5,-87.5 308.5,-87.5 308.5,-68.5 177.5,-68.5"/>
<text text-anchor="middle" x="243" y="-75.5" font-family="Helvetica,sans-Serif" font-size="10.00">std::vector&lt; Visitor * &gt;</text>
</a>
</g>
</g>
<!-- Node3&#45;&gt;Node6 -->
<g id="edge8" class="edge">
<title>Node3&#45;&gt;Node6</title>
<path fill="none" stroke="#9a32cd" stroke-dasharray="5,2" d="M195.99,-129.05C208.14,-116.11 224.82,-98.36 234.69,-87.84"/>
<polygon fill="#9a32cd" stroke="#9a32cd" points="193.4,-126.69 189.11,-136.37 198.5,-131.48 193.4,-126.69"/>
<text text-anchor="middle" x="240.5" y="-110" font-family="Helvetica,sans-Serif" font-size="10.00"> elements</text>
</g>
<!-- Node4 -->
<g id="node4" class="node">
<title>Node4</title>
<g id="a_node4"><a xlink:href="classcstring.html" target="_top" xlink:title=" ">
<polygon fill="white" stroke="black" points="156,-204.5 156,-223.5 206,-223.5 206,-204.5 156,-204.5"/>
<text text-anchor="middle" x="181" y="-211.5" font-family="Helvetica,sans-Serif" font-size="10.00">cstring</text>
</a>
</g>
</g>
<!-- Node4&#45;&gt;Node3 -->
<g id="edge3" class="edge">
<title>Node4&#45;&gt;Node3</title>
<path fill="none" stroke="#9a32cd" stroke-dasharray="5,2" d="M181,-194.04C181,-181.47 181,-165.56 181,-155.84"/>
<polygon fill="#9a32cd" stroke="#9a32cd" points="177.5,-194.37 181,-204.37 184.5,-194.37 177.5,-194.37"/>
<text text-anchor="middle" x="216" y="-177" font-family="Helvetica,sans-Serif" font-size="10.00"> internalName</text>
</g>
<!-- Node4&#45;&gt;Node4 -->
<g id="edge4" class="edge">
<title>Node4&#45;&gt;Node4</title>
<path fill="none" stroke="#9a32cd" stroke-dasharray="5,2" d="M216.45,-219.58C221,-218.61 224,-216.75 224,-214 224,-209.48 215.91,-207.37 206.18,-207.65"/>
<polygon fill="#9a32cd" stroke="#9a32cd" points="215.89,-216.11 206.18,-220.35 216.41,-223.1 215.89,-216.11"/>
<text text-anchor="middle" x="243.5" y="-217" font-family="Helvetica,sans-Serif" font-size="10.00"> empty</text>
<text text-anchor="middle" x="243.5" y="-206" font-family="Helvetica,sans-Serif" font-size="10.00">newline</text>
</g>
<!-- Node5&#45;&gt;Node3 -->
<g id="edge5" class="edge">
<title>Node5&#45;&gt;Node3</title>
<path fill="none" stroke="#9a32cd" stroke-dasharray="5,2" d="M272.05,-24.16C299.07,-38.38 333.07,-62.58 318,-89 295.35,-128.73 237.96,-140.29 205.1,-143.64"/>
<polygon fill="#9a32cd" stroke="#9a32cd" points="273.38,-20.91 262.88,-19.56 270.25,-27.17 273.38,-20.91"/>
<text text-anchor="middle" x="359" y="-81" font-family="Helvetica,sans-Serif" font-size="10.00"> split_link</text>
<text text-anchor="middle" x="359" y="-70" font-family="Helvetica,sans-Serif" font-size="10.00">split_link_mem</text>
</g>
<!-- Node5&#45;&gt;Node5 -->
<g id="edge6" class="edge">
<title>Node5&#45;&gt;Node5</title>
<path fill="none" stroke="#9a32cd" stroke-dasharray="5,2" d="M309.4,-14.4C314.12,-13.4 317,-11.93 317,-10 317,-6.91 309.62,-5.01 299.15,-4.31"/>
<polygon fill="#9a32cd" stroke="#9a32cd" points="308.63,-10.97 299.15,-15.69 309.51,-17.91 308.63,-10.97"/>
<text text-anchor="middle" x="329.5" y="-7.5" font-family="Helvetica,sans-Serif" font-size="10.00"> prev</text>
</g>
<!-- Node6&#45;&gt;Node5 -->
<g id="edge7" class="edge">
<title>Node6&#45;&gt;Node5</title>
<path fill="none" stroke="#9a32cd" stroke-dasharray="5,2" d="M243,-58.04C243,-45.47 243,-29.56 243,-19.84"/>
<polygon fill="#9a32cd" stroke="#9a32cd" points="239.5,-58.37 243,-68.37 246.5,-58.37 239.5,-58.37"/>
<text text-anchor="middle" x="263" y="-41" font-family="Helvetica,sans-Serif" font-size="10.00"> visitors</text>
</g>
</g>
</svg>
