<?xml version="1.0" encoding="UTF-8" standalone="no"?>
<!DOCTYPE svg PUBLIC "-//W3C//DTD SVG 1.1//EN"
 "http://www.w3.org/Graphics/SVG/1.1/DTD/svg11.dtd">
<!-- Generated by graphviz version 2.43.0 (0)
 -->
<!-- Title: DPDK::UpdateActionForSwitch Pages: 1 -->
<svg width="407pt" height="233pt"
 viewBox="0.00 0.00 407.00 233.00" xmlns="http://www.w3.org/2000/svg" xmlns:xlink="http://www.w3.org/1999/xlink">
<g id="graph0" class="graph" transform="scale(1 1) rotate(0) translate(4 229)">
<title>DPDK::UpdateActionForSwitch</title>
<polygon fill="white" stroke="transparent" points="-4,4 -4,-229 403,-229 403,4 -4,4"/>
<!-- Node1 -->
<g id="node1" class="node">
<title>Node1</title>
<g id="a_node1"><a xlink:title=" ">
<polygon fill="#bfbfbf" stroke="black" points="0,-0.5 0,-19.5 164,-19.5 164,-0.5 0,-0.5"/>
<text text-anchor="middle" x="82" y="-7.5" font-family="Helvetica,sans-Serif" font-size="10.00">DPDK::UpdateActionForSwitch</text>
</a>
</g>
</g>
<!-- Node2 -->
<g id="node2" class="node">
<title>Node2</title>
<g id="a_node2"><a xlink:href="class_transform.html" target="_top" xlink:title=" ">
<polygon fill="white" stroke="black" points="49.5,-68.5 49.5,-87.5 114.5,-87.5 114.5,-68.5 49.5,-68.5"/>
<text text-anchor="middle" x="82" y="-75.5" font-family="Helvetica,sans-Serif" font-size="10.00">Transform</text>
</a>
</g>
</g>
<!-- Node2&#45;&gt;Node1 -->
<g id="edge1" class="edge">
<title>Node2&#45;&gt;Node1</title>
<path fill="none" stroke="midnightblue" d="M82,-58.04C82,-45.47 82,-29.56 82,-19.84"/>
<polygon fill="midnightblue" stroke="midnightblue" points="78.5,-58.37 82,-68.37 85.5,-58.37 78.5,-58.37"/>
</g>
<!-- Node3 -->
<g id="node3" class="node">
<title>Node3</title>
<g id="a_node3"><a xlink:href="class_visitor.html" target="_top" xlink:title=" ">
<polygon fill="white" stroke="black" points="159,-136.5 159,-155.5 207,-155.5 207,-136.5 159,-136.5"/>
<text text-anchor="middle" x="183" y="-143.5" font-family="Helvetica,sans-Serif" font-size="10.00">Visitor</text>
</a>
</g>
</g>
<!-- Node3&#45;&gt;Node2 -->
<g id="edge2" class="edge">
<title>Node3&#45;&gt;Node2</title>
<path fill="none" stroke="midnightblue" d="M158.41,-131.09C151.42,-127 143.84,-122.42 137,-118 121.66,-108.09 104.59,-95.77 93.6,-87.67"/>
<polygon fill="midnightblue" stroke="midnightblue" points="157.06,-134.35 167.47,-136.33 160.56,-128.29 157.06,-134.35"/>
</g>
<!-- Node3&#45;&gt;Node3 -->
<g id="edge10" class="edge">
<title>Node3&#45;&gt;Node3</title>
<path fill="none" stroke="#9a32cd" stroke-dasharray="5,2" d="M217.42,-151.29C221.98,-150.39 225,-148.63 225,-146 225,-141.69 216.86,-139.7 207.17,-140.04"/>
<polygon fill="#9a32cd" stroke="#9a32cd" points="216.92,-147.82 207.17,-151.96 217.38,-154.8 216.92,-147.82"/>
<text text-anchor="middle" x="250" y="-143.5" font-family="Helvetica,sans-Serif" font-size="10.00"> called_by</text>
</g>
<!-- Node5 -->
<g id="node5" class="node">
<title>Node5</title>
<g id="a_node5"><a xlink:href="class_split_flow_visit__base.html" target="_top" xlink:title=" ">
<polygon fill="white" stroke="black" points="189,-0.5 189,-19.5 301,-19.5 301,-0.5 189,-0.5"/>
<text text-anchor="middle" x="245" y="-7.5" font-family="Helvetica,sans-Serif" font-size="10.00">SplitFlowVisit_base</text>
</a>
</g>
</g>
<!-- Node3&#45;&gt;Node5 -->
<g id="edge9" class="edge">
<title>Node3&#45;&gt;Node5</title>
<path fill="none" stroke="#9a32cd" stroke-dasharray="5,2" d="M170.66,-127.83C160.54,-111.48 149.48,-86.53 160,-67 172.74,-43.35 200.32,-28.04 220.62,-19.51"/>
<polygon fill="#9a32cd" stroke="#9a32cd" points="167.88,-129.97 176.33,-136.36 173.7,-126.1 167.88,-129.97"/>
<text text-anchor="middle" x="165" y="-75.5" font-family="Helvetica,sans-Serif" font-size="10.00"> v</text>
</g>
<!-- Node6 -->
<g id="node6" class="node">
<title>Node6</title>
<g id="a_node6"><a xlink:title=" ">
<polygon fill="white" stroke="#bfbfbf" points="179.5,-68.5 179.5,-87.5 310.5,-87.5 310.5,-68.5 179.5,-68.5"/>
<text text-anchor="middle" x="245" y="-75.5" font-family="Helvetica,sans-Serif" font-size="10.00">std::vector&lt; Visitor * &gt;</text>
</a>
</g>
</g>
<!-- Node3&#45;&gt;Node6 -->
<g id="edge8" class="edge">
<title>Node3&#45;&gt;Node6</title>
<path fill="none" stroke="#9a32cd" stroke-dasharray="5,2" d="M197.99,-129.05C210.14,-116.11 226.82,-98.36 236.69,-87.84"/>
<polygon fill="#9a32cd" stroke="#9a32cd" points="195.4,-126.69 191.11,-136.37 200.5,-131.48 195.4,-126.69"/>
<text text-anchor="middle" x="242.5" y="-110" font-family="Helvetica,sans-Serif" font-size="10.00"> elements</text>
</g>
<!-- Node4 -->
<g id="node4" class="node">
<title>Node4</title>
<g id="a_node4"><a xlink:href="classcstring.html" target="_top" xlink:title=" ">
<polygon fill="white" stroke="black" points="158,-204.5 158,-223.5 208,-223.5 208,-204.5 158,-204.5"/>
<text text-anchor="middle" x="183" y="-211.5" font-family="Helvetica,sans-Serif" font-size="10.00">cstring</text>
</a>
</g>
</g>
<!-- Node4&#45;&gt;Node3 -->
<g id="edge3" class="edge">
<title>Node4&#45;&gt;Node3</title>
<path fill="none" stroke="#9a32cd" stroke-dasharray="5,2" d="M183,-194.04C183,-181.47 183,-165.56 183,-155.84"/>
<polygon fill="#9a32cd" stroke="#9a32cd" points="179.5,-194.37 183,-204.37 186.5,-194.37 179.5,-194.37"/>
<text text-anchor="middle" x="218" y="-177" font-family="Helvetica,sans-Serif" font-size="10.00"> internalName</text>
</g>
<!-- Node4&#45;&gt;Node4 -->
<g id="edge4" class="edge">
<title>Node4&#45;&gt;Node4</title>
<path fill="none" stroke="#9a32cd" stroke-dasharray="5,2" d="M218.45,-219.58C223,-218.61 226,-216.75 226,-214 226,-209.48 217.91,-207.37 208.18,-207.65"/>
<polygon fill="#9a32cd" stroke="#9a32cd" points="217.89,-216.11 208.18,-220.35 218.41,-223.1 217.89,-216.11"/>
<text text-anchor="middle" x="245.5" y="-217" font-family="Helvetica,sans-Serif" font-size="10.00"> empty</text>
<text text-anchor="middle" x="245.5" y="-206" font-family="Helvetica,sans-Serif" font-size="10.00">newline</text>
</g>
<!-- Node5&#45;&gt;Node3 -->
<g id="edge5" class="edge">
<title>Node5&#45;&gt;Node3</title>
<path fill="none" stroke="#9a32cd" stroke-dasharray="5,2" d="M274.05,-24.16C301.07,-38.38 335.07,-62.58 320,-89 297.35,-128.73 239.96,-140.29 207.1,-143.64"/>
<polygon fill="#9a32cd" stroke="#9a32cd" points="275.38,-20.91 264.88,-19.56 272.25,-27.17 275.38,-20.91"/>
<text text-anchor="middle" x="361" y="-81" font-family="Helvetica,sans-Serif" font-size="10.00"> split_link</text>
<text text-anchor="middle" x="361" y="-70" font-family="Helvetica,sans-Serif" font-size="10.00">split_link_mem</text>
</g>
<!-- Node5&#45;&gt;Node5 -->
<g id="edge6" class="edge">
<title>Node5&#45;&gt;Node5</title>
<path fill="none" stroke="#9a32cd" stroke-dasharray="5,2" d="M311.4,-14.4C316.12,-13.4 319,-11.93 319,-10 319,-6.91 311.62,-5.01 301.15,-4.31"/>
<polygon fill="#9a32cd" stroke="#9a32cd" points="310.63,-10.97 301.15,-15.69 311.51,-17.91 310.63,-10.97"/>
<text text-anchor="middle" x="331.5" y="-7.5" font-family="Helvetica,sans-Serif" font-size="10.00"> prev</text>
</g>
<!-- Node6&#45;&gt;Node5 -->
<g id="edge7" class="edge">
<title>Node6&#45;&gt;Node5</title>
<path fill="none" stroke="#9a32cd" stroke-dasharray="5,2" d="M245,-58.04C245,-45.47 245,-29.56 245,-19.84"/>
<polygon fill="#9a32cd" stroke="#9a32cd" points="241.5,-58.37 245,-68.37 248.5,-58.37 241.5,-58.37"/>
<text text-anchor="middle" x="265" y="-41" font-family="Helvetica,sans-Serif" font-size="10.00"> visitors</text>
</g>
</g>
</svg>
