<?xml version="1.0" encoding="UTF-8" standalone="no"?>
<!DOCTYPE svg PUBLIC "-//W3C//DTD SVG 1.1//EN"
 "http://www.w3.org/Graphics/SVG/1.1/DTD/svg11.dtd">
<!-- Generated by graphviz version 2.43.0 (0)
 -->
<!-- Title: BMV2::CFG::Node Pages: 1 -->
<svg width="410pt" height="186pt"
 viewBox="0.00 0.00 410.00 186.00" xmlns="http://www.w3.org/2000/svg" xmlns:xlink="http://www.w3.org/1999/xlink">
<g id="graph0" class="graph" transform="scale(1 1) rotate(0) translate(4 182)">
<title>BMV2::CFG::Node</title>
<polygon fill="white" stroke="transparent" points="-4,4 -4,-182 406,-182 406,4 -4,4"/>
<!-- Node1 -->
<g id="node1" class="node">
<title>Node1</title>
<g id="a_node1"><a xlink:title=" ">
<polygon fill="#bfbfbf" stroke="black" points="139.5,-0.5 139.5,-19.5 242.5,-19.5 242.5,-0.5 139.5,-0.5"/>
<text text-anchor="middle" x="191" y="-7.5" font-family="Helvetica,sans-Serif" font-size="10.00">BMV2::CFG::Node</text>
</a>
</g>
</g>
<!-- Node2 -->
<g id="node2" class="node">
<title>Node2</title>
<g id="a_node2"><a xlink:href="class_i_has_db_print.html" target="_top" xlink:title=" ">
<polygon fill="white" stroke="black" points="0,-153 0,-172 74,-172 74,-153 0,-153"/>
<text text-anchor="middle" x="37" y="-160" font-family="Helvetica,sans-Serif" font-size="10.00">IHasDbPrint</text>
</a>
</g>
</g>
<!-- Node2&#45;&gt;Node1 -->
<g id="edge1" class="edge">
<title>Node2&#45;&gt;Node1</title>
<path fill="none" stroke="midnightblue" d="M40.58,-142.65C44.89,-124.33 53.66,-96.63 70,-78 95.73,-48.67 137.55,-29.58 164.66,-19.54"/>
<polygon fill="midnightblue" stroke="midnightblue" points="37.11,-142.16 38.46,-152.67 43.96,-143.62 37.11,-142.16"/>
</g>
<!-- Node6 -->
<g id="node6" class="node">
<title>Node6</title>
<g id="a_node6"><a xlink:href="class_b_m_v2_1_1_c_f_g_1_1_edge_set.html" target="_top" xlink:title=" ">
<polygon fill="white" stroke="black" points="79.5,-79.5 79.5,-98.5 196.5,-98.5 196.5,-79.5 79.5,-79.5"/>
<text text-anchor="middle" x="138" y="-86.5" font-family="Helvetica,sans-Serif" font-size="10.00">BMV2::CFG::EdgeSet</text>
</a>
</g>
</g>
<!-- Node2&#45;&gt;Node6 -->
<g id="edge7" class="edge">
<title>Node2&#45;&gt;Node6</title>
<path fill="none" stroke="midnightblue" d="M57.75,-146.81C78.26,-132.29 108.97,-110.55 125.83,-98.62"/>
<polygon fill="midnightblue" stroke="midnightblue" points="55.52,-144.1 49.38,-152.73 59.57,-149.81 55.52,-144.1"/>
</g>
<!-- Node3 -->
<g id="node3" class="node">
<title>Node3</title>
<g id="a_node3"><a xlink:href="class_i_castable.html" target="_top" xlink:title=" ">
<polygon fill="white" stroke="black" points="215,-79.5 215,-98.5 277,-98.5 277,-79.5 215,-79.5"/>
<text text-anchor="middle" x="246" y="-86.5" font-family="Helvetica,sans-Serif" font-size="10.00">ICastable</text>
</a>
</g>
</g>
<!-- Node3&#45;&gt;Node1 -->
<g id="edge2" class="edge">
<title>Node3&#45;&gt;Node1</title>
<path fill="none" stroke="midnightblue" d="M240.7,-69.45C237.27,-59.49 232.1,-47.37 225,-38 219.54,-30.79 211.72,-24.41 204.97,-19.66"/>
<polygon fill="midnightblue" stroke="midnightblue" points="237.42,-70.69 243.76,-79.18 244.1,-68.59 237.42,-70.69"/>
</g>
<!-- Node4 -->
<g id="node4" class="node">
<title>Node4</title>
<g id="a_node4"><a xlink:href="struct_r_t_t_i_1_1_base.html" target="_top" xlink:title=" ">
<polygon fill="white" stroke="black" points="230,-153 230,-172 298,-172 298,-153 230,-153"/>
<text text-anchor="middle" x="264" y="-160" font-family="Helvetica,sans-Serif" font-size="10.00">RTTI::Base</text>
</a>
</g>
</g>
<!-- Node4&#45;&gt;Node3 -->
<g id="edge3" class="edge">
<title>Node4&#45;&gt;Node3</title>
<path fill="none" stroke="midnightblue" d="M259.35,-143.01C255.77,-128.8 250.99,-109.81 248.23,-98.84"/>
<polygon fill="midnightblue" stroke="midnightblue" points="255.96,-143.89 261.79,-152.73 262.75,-142.18 255.96,-143.89"/>
</g>
<!-- Node5 -->
<g id="node5" class="node">
<title>Node5</title>
<g id="a_node5"><a xlink:href="classcstring.html" target="_top" xlink:title=" ">
<polygon fill="white" stroke="black" points="295,-79.5 295,-98.5 345,-98.5 345,-79.5 295,-79.5"/>
<text text-anchor="middle" x="320" y="-86.5" font-family="Helvetica,sans-Serif" font-size="10.00">cstring</text>
</a>
</g>
</g>
<!-- Node5&#45;&gt;Node1 -->
<g id="edge4" class="edge">
<title>Node5&#45;&gt;Node1</title>
<path fill="none" stroke="#9a32cd" stroke-dasharray="5,2" d="M299.68,-73.45C284.83,-63.07 264.05,-49.06 245,-38 233.49,-31.32 220.11,-24.62 209.55,-19.57"/>
<polygon fill="#9a32cd" stroke="#9a32cd" points="297.9,-76.48 308.08,-79.38 301.93,-70.76 297.9,-76.48"/>
<text text-anchor="middle" x="293.5" y="-46.5" font-family="Helvetica,sans-Serif" font-size="10.00"> name</text>
</g>
<!-- Node5&#45;&gt;Node5 -->
<g id="edge5" class="edge">
<title>Node5&#45;&gt;Node5</title>
<path fill="none" stroke="#9a32cd" stroke-dasharray="5,2" d="M355.45,-94.58C360,-93.61 363,-91.75 363,-89 363,-84.48 354.91,-82.37 345.18,-82.65"/>
<polygon fill="#9a32cd" stroke="#9a32cd" points="354.89,-91.11 345.18,-95.35 355.41,-98.1 354.89,-91.11"/>
<text text-anchor="middle" x="382.5" y="-92" font-family="Helvetica,sans-Serif" font-size="10.00"> empty</text>
<text text-anchor="middle" x="382.5" y="-81" font-family="Helvetica,sans-Serif" font-size="10.00">newline</text>
</g>
<!-- Node6&#45;&gt;Node1 -->
<g id="edge6" class="edge">
<title>Node6&#45;&gt;Node1</title>
<path fill="none" stroke="#9a32cd" stroke-dasharray="5,2" d="M142.46,-69.44C145.47,-59.48 150.16,-47.36 157,-38 162.34,-30.7 170.14,-24.31 176.93,-19.58"/>
<polygon fill="#9a32cd" stroke="#9a32cd" points="139.06,-68.61 139.84,-79.18 145.82,-70.43 139.06,-68.61"/>
<text text-anchor="middle" x="191" y="-52" font-family="Helvetica,sans-Serif" font-size="10.00"> predecessors</text>
<text text-anchor="middle" x="191" y="-41" font-family="Helvetica,sans-Serif" font-size="10.00">successors</text>
</g>
<!-- Node7 -->
<g id="node7" class="node">
<title>Node7</title>
<g id="a_node7"><a xlink:href="classordered__set.html" target="_top" xlink:title=" ">
<polygon fill="white" stroke="black" points="92,-147.5 92,-177.5 212,-177.5 212,-147.5 92,-147.5"/>
<text text-anchor="start" x="100" y="-165.5" font-family="Helvetica,sans-Serif" font-size="10.00">ordered_set&lt; BMV2::</text>
<text text-anchor="middle" x="152" y="-154.5" font-family="Helvetica,sans-Serif" font-size="10.00">CFG::Edge * &gt;</text>
</a>
</g>
</g>
<!-- Node7&#45;&gt;Node6 -->
<g id="edge8" class="edge">
<title>Node7&#45;&gt;Node6</title>
<path fill="none" stroke="#9a32cd" stroke-dasharray="5,2" d="M147.27,-137.36C144.66,-124.01 141.57,-108.25 139.7,-98.7"/>
<polygon fill="#9a32cd" stroke="#9a32cd" points="143.88,-138.23 149.23,-147.37 150.75,-136.89 143.88,-138.23"/>
<text text-anchor="middle" x="162.5" y="-121" font-family="Helvetica,sans-Serif" font-size="10.00"> edges</text>
</g>
</g>
</svg>
