<?xml version="1.0" encoding="UTF-8" standalone="no"?>
<!DOCTYPE svg PUBLIC "-//W3C//DTD SVG 1.1//EN"
 "http://www.w3.org/Graphics/SVG/1.1/DTD/svg11.dtd">
<!-- Generated by graphviz version 2.43.0 (0)
 -->
<!-- Title: P4::ParserStructureImpl::ParserStateRewriter Pages: 1 -->
<svg width="391pt" height="244pt"
 viewBox="0.00 0.00 390.50 244.00" xmlns="http://www.w3.org/2000/svg" xmlns:xlink="http://www.w3.org/1999/xlink">
<g id="graph0" class="graph" transform="scale(1 1) rotate(0) translate(4 240)">
<title>P4::ParserStructureImpl::ParserStateRewriter</title>
<polygon fill="white" stroke="transparent" points="-4,4 -4,-240 386.5,-240 386.5,4 -4,4"/>
<!-- Node1 -->
<g id="node1" class="node">
<title>Node1</title>
<g id="a_node1"><a xlink:title=" ">
<polygon fill="#bfbfbf" stroke="black" points="0,-0.5 0,-30.5 131,-30.5 131,-0.5 0,-0.5"/>
<text text-anchor="start" x="8" y="-18.5" font-family="Helvetica,sans-Serif" font-size="10.00">P4::ParserStructureImpl</text>
<text text-anchor="middle" x="65.5" y="-7.5" font-family="Helvetica,sans-Serif" font-size="10.00">::ParserStateRewriter</text>
</a>
</g>
</g>
<!-- Node2 -->
<g id="node2" class="node">
<title>Node2</title>
<g id="a_node2"><a xlink:href="class_transform.html" target="_top" xlink:title=" ">
<polygon fill="white" stroke="black" points="33,-79.5 33,-98.5 98,-98.5 98,-79.5 33,-79.5"/>
<text text-anchor="middle" x="65.5" y="-86.5" font-family="Helvetica,sans-Serif" font-size="10.00">Transform</text>
</a>
</g>
</g>
<!-- Node2&#45;&gt;Node1 -->
<g id="edge1" class="edge">
<title>Node2&#45;&gt;Node1</title>
<path fill="none" stroke="midnightblue" d="M65.5,-68.9C65.5,-56.82 65.5,-41.47 65.5,-30.51"/>
<polygon fill="midnightblue" stroke="midnightblue" points="62,-69.23 65.5,-79.23 69,-69.23 62,-69.23"/>
</g>
<!-- Node3 -->
<g id="node3" class="node">
<title>Node3</title>
<g id="a_node3"><a xlink:href="class_visitor.html" target="_top" xlink:title=" ">
<polygon fill="white" stroke="black" points="142.5,-147.5 142.5,-166.5 190.5,-166.5 190.5,-147.5 142.5,-147.5"/>
<text text-anchor="middle" x="166.5" y="-154.5" font-family="Helvetica,sans-Serif" font-size="10.00">Visitor</text>
</a>
</g>
</g>
<!-- Node3&#45;&gt;Node2 -->
<g id="edge2" class="edge">
<title>Node3&#45;&gt;Node2</title>
<path fill="none" stroke="midnightblue" d="M141.91,-142.09C134.92,-138 127.34,-133.42 120.5,-129 105.16,-119.09 88.09,-106.77 77.1,-98.67"/>
<polygon fill="midnightblue" stroke="midnightblue" points="140.56,-145.35 150.97,-147.33 144.06,-139.29 140.56,-145.35"/>
</g>
<!-- Node3&#45;&gt;Node3 -->
<g id="edge10" class="edge">
<title>Node3&#45;&gt;Node3</title>
<path fill="none" stroke="#9a32cd" stroke-dasharray="5,2" d="M200.92,-162.29C205.48,-161.39 208.5,-159.63 208.5,-157 208.5,-152.69 200.36,-150.7 190.67,-151.04"/>
<polygon fill="#9a32cd" stroke="#9a32cd" points="200.42,-158.82 190.67,-162.96 200.88,-165.8 200.42,-158.82"/>
<text text-anchor="middle" x="233.5" y="-154.5" font-family="Helvetica,sans-Serif" font-size="10.00"> called_by</text>
</g>
<!-- Node5 -->
<g id="node5" class="node">
<title>Node5</title>
<g id="a_node5"><a xlink:href="class_split_flow_visit__base.html" target="_top" xlink:title=" ">
<polygon fill="white" stroke="black" points="172.5,-6 172.5,-25 284.5,-25 284.5,-6 172.5,-6"/>
<text text-anchor="middle" x="228.5" y="-13" font-family="Helvetica,sans-Serif" font-size="10.00">SplitFlowVisit_base</text>
</a>
</g>
</g>
<!-- Node3&#45;&gt;Node5 -->
<g id="edge9" class="edge">
<title>Node3&#45;&gt;Node5</title>
<path fill="none" stroke="#9a32cd" stroke-dasharray="5,2" d="M154.35,-138.93C144.37,-122.65 133.41,-97.76 143.5,-78 156.76,-52.05 186.65,-34.51 207.2,-25.01"/>
<polygon fill="#9a32cd" stroke="#9a32cd" points="151.51,-140.99 159.94,-147.42 157.36,-137.14 151.51,-140.99"/>
<text text-anchor="middle" x="148.5" y="-86.5" font-family="Helvetica,sans-Serif" font-size="10.00"> v</text>
</g>
<!-- Node6 -->
<g id="node6" class="node">
<title>Node6</title>
<g id="a_node6"><a xlink:title=" ">
<polygon fill="white" stroke="#bfbfbf" points="163,-79.5 163,-98.5 294,-98.5 294,-79.5 163,-79.5"/>
<text text-anchor="middle" x="228.5" y="-86.5" font-family="Helvetica,sans-Serif" font-size="10.00">std::vector&lt; Visitor * &gt;</text>
</a>
</g>
</g>
<!-- Node3&#45;&gt;Node6 -->
<g id="edge8" class="edge">
<title>Node3&#45;&gt;Node6</title>
<path fill="none" stroke="#9a32cd" stroke-dasharray="5,2" d="M181.49,-140.05C193.64,-127.11 210.32,-109.36 220.19,-98.84"/>
<polygon fill="#9a32cd" stroke="#9a32cd" points="178.9,-137.69 174.61,-147.37 184,-142.48 178.9,-137.69"/>
<text text-anchor="middle" x="226" y="-121" font-family="Helvetica,sans-Serif" font-size="10.00"> elements</text>
</g>
<!-- Node4 -->
<g id="node4" class="node">
<title>Node4</title>
<g id="a_node4"><a xlink:href="classcstring.html" target="_top" xlink:title=" ">
<polygon fill="white" stroke="black" points="141.5,-215.5 141.5,-234.5 191.5,-234.5 191.5,-215.5 141.5,-215.5"/>
<text text-anchor="middle" x="166.5" y="-222.5" font-family="Helvetica,sans-Serif" font-size="10.00">cstring</text>
</a>
</g>
</g>
<!-- Node4&#45;&gt;Node3 -->
<g id="edge3" class="edge">
<title>Node4&#45;&gt;Node3</title>
<path fill="none" stroke="#9a32cd" stroke-dasharray="5,2" d="M166.5,-205.04C166.5,-192.47 166.5,-176.56 166.5,-166.84"/>
<polygon fill="#9a32cd" stroke="#9a32cd" points="163,-205.37 166.5,-215.37 170,-205.37 163,-205.37"/>
<text text-anchor="middle" x="201.5" y="-188" font-family="Helvetica,sans-Serif" font-size="10.00"> internalName</text>
</g>
<!-- Node4&#45;&gt;Node4 -->
<g id="edge4" class="edge">
<title>Node4&#45;&gt;Node4</title>
<path fill="none" stroke="#9a32cd" stroke-dasharray="5,2" d="M201.95,-230.58C206.5,-229.61 209.5,-227.75 209.5,-225 209.5,-220.48 201.41,-218.37 191.68,-218.65"/>
<polygon fill="#9a32cd" stroke="#9a32cd" points="201.39,-227.11 191.68,-231.35 201.91,-234.1 201.39,-227.11"/>
<text text-anchor="middle" x="229" y="-228" font-family="Helvetica,sans-Serif" font-size="10.00"> empty</text>
<text text-anchor="middle" x="229" y="-217" font-family="Helvetica,sans-Serif" font-size="10.00">newline</text>
</g>
<!-- Node5&#45;&gt;Node3 -->
<g id="edge5" class="edge">
<title>Node5&#45;&gt;Node3</title>
<path fill="none" stroke="#9a32cd" stroke-dasharray="5,2" d="M256.07,-29.98C283.53,-45.35 319.46,-72.02 303.5,-100 280.85,-139.73 223.46,-151.29 190.6,-154.64"/>
<polygon fill="#9a32cd" stroke="#9a32cd" points="257.64,-26.85 247.18,-25.21 254.34,-33.02 257.64,-26.85"/>
<text text-anchor="middle" x="344.5" y="-92" font-family="Helvetica,sans-Serif" font-size="10.00"> split_link</text>
<text text-anchor="middle" x="344.5" y="-81" font-family="Helvetica,sans-Serif" font-size="10.00">split_link_mem</text>
</g>
<!-- Node5&#45;&gt;Node5 -->
<g id="edge6" class="edge">
<title>Node5&#45;&gt;Node5</title>
<path fill="none" stroke="#9a32cd" stroke-dasharray="5,2" d="M294.54,-20.81C299.47,-19.62 302.5,-17.85 302.5,-15.5 302.5,-11.83 295.12,-9.57 284.65,-8.74"/>
<polygon fill="#9a32cd" stroke="#9a32cd" points="294.03,-17.35 284.65,-22.26 295.05,-24.27 294.03,-17.35"/>
<text text-anchor="middle" x="315" y="-13" font-family="Helvetica,sans-Serif" font-size="10.00"> prev</text>
</g>
<!-- Node6&#45;&gt;Node5 -->
<g id="edge7" class="edge">
<title>Node6&#45;&gt;Node5</title>
<path fill="none" stroke="#9a32cd" stroke-dasharray="5,2" d="M228.5,-69.09C228.5,-54.93 228.5,-36.2 228.5,-25.34"/>
<polygon fill="#9a32cd" stroke="#9a32cd" points="225,-69.23 228.5,-79.23 232,-69.23 225,-69.23"/>
<text text-anchor="middle" x="248.5" y="-52" font-family="Helvetica,sans-Serif" font-size="10.00"> visitors</text>
</g>
</g>
</svg>
