<?xml version="1.0" encoding="UTF-8" standalone="no"?>
<!DOCTYPE svg PUBLIC "-//W3C//DTD SVG 1.1//EN"
 "http://www.w3.org/Graphics/SVG/1.1/DTD/svg11.dtd">
<!-- Generated by graphviz version 2.43.0 (0)
 -->
<!-- Title: P4::ApplyOptionsPragmas Pages: 1 -->
<svg width="395pt" height="233pt"
 viewBox="0.00 0.00 394.50 233.00" xmlns="http://www.w3.org/2000/svg" xmlns:xlink="http://www.w3.org/1999/xlink">
<g id="graph0" class="graph" transform="scale(1 1) rotate(0) translate(4 229)">
<title>P4::ApplyOptionsPragmas</title>
<polygon fill="white" stroke="transparent" points="-4,4 -4,-229 390.5,-229 390.5,4 -4,4"/>
<!-- Node1 -->
<g id="node1" class="node">
<title>Node1</title>
<g id="a_node1"><a xlink:title=" ">
<polygon fill="#bfbfbf" stroke="black" points="0,-0.5 0,-19.5 143,-19.5 143,-0.5 0,-0.5"/>
<text text-anchor="middle" x="71.5" y="-7.5" font-family="Helvetica,sans-Serif" font-size="10.00">P4::ApplyOptionsPragmas</text>
</a>
</g>
</g>
<!-- Node2 -->
<g id="node2" class="node">
<title>Node2</title>
<g id="a_node2"><a xlink:href="class_inspector.html" target="_top" xlink:title=" ">
<polygon fill="white" stroke="black" points="40.5,-68.5 40.5,-87.5 102.5,-87.5 102.5,-68.5 40.5,-68.5"/>
<text text-anchor="middle" x="71.5" y="-75.5" font-family="Helvetica,sans-Serif" font-size="10.00">Inspector</text>
</a>
</g>
</g>
<!-- Node2&#45;&gt;Node1 -->
<g id="edge1" class="edge">
<title>Node2&#45;&gt;Node1</title>
<path fill="none" stroke="midnightblue" d="M71.5,-58.04C71.5,-45.47 71.5,-29.56 71.5,-19.84"/>
<polygon fill="midnightblue" stroke="midnightblue" points="68,-58.37 71.5,-68.37 75,-58.37 68,-58.37"/>
</g>
<!-- Node3 -->
<g id="node3" class="node">
<title>Node3</title>
<g id="a_node3"><a xlink:href="class_visitor.html" target="_top" xlink:title=" ">
<polygon fill="white" stroke="black" points="146.5,-136.5 146.5,-155.5 194.5,-155.5 194.5,-136.5 146.5,-136.5"/>
<text text-anchor="middle" x="170.5" y="-143.5" font-family="Helvetica,sans-Serif" font-size="10.00">Visitor</text>
</a>
</g>
</g>
<!-- Node3&#45;&gt;Node2 -->
<g id="edge2" class="edge">
<title>Node3&#45;&gt;Node2</title>
<path fill="none" stroke="midnightblue" d="M145.86,-131.17C138.87,-127.07 131.3,-122.48 124.5,-118 109.62,-108.19 93.19,-95.86 82.63,-87.72"/>
<polygon fill="midnightblue" stroke="midnightblue" points="144.51,-134.43 154.92,-136.39 148.01,-128.37 144.51,-134.43"/>
</g>
<!-- Node3&#45;&gt;Node3 -->
<g id="edge10" class="edge">
<title>Node3&#45;&gt;Node3</title>
<path fill="none" stroke="#9a32cd" stroke-dasharray="5,2" d="M204.92,-151.29C209.48,-150.39 212.5,-148.63 212.5,-146 212.5,-141.69 204.36,-139.7 194.67,-140.04"/>
<polygon fill="#9a32cd" stroke="#9a32cd" points="204.42,-147.82 194.67,-151.96 204.88,-154.8 204.42,-147.82"/>
<text text-anchor="middle" x="237.5" y="-143.5" font-family="Helvetica,sans-Serif" font-size="10.00"> called_by</text>
</g>
<!-- Node5 -->
<g id="node5" class="node">
<title>Node5</title>
<g id="a_node5"><a xlink:href="class_split_flow_visit__base.html" target="_top" xlink:title=" ">
<polygon fill="white" stroke="black" points="176.5,-0.5 176.5,-19.5 288.5,-19.5 288.5,-0.5 176.5,-0.5"/>
<text text-anchor="middle" x="232.5" y="-7.5" font-family="Helvetica,sans-Serif" font-size="10.00">SplitFlowVisit_base</text>
</a>
</g>
</g>
<!-- Node3&#45;&gt;Node5 -->
<g id="edge9" class="edge">
<title>Node3&#45;&gt;Node5</title>
<path fill="none" stroke="#9a32cd" stroke-dasharray="5,2" d="M158.16,-127.83C148.04,-111.48 136.98,-86.53 147.5,-67 160.24,-43.35 187.82,-28.04 208.12,-19.51"/>
<polygon fill="#9a32cd" stroke="#9a32cd" points="155.38,-129.97 163.83,-136.36 161.2,-126.1 155.38,-129.97"/>
<text text-anchor="middle" x="152.5" y="-75.5" font-family="Helvetica,sans-Serif" font-size="10.00"> v</text>
</g>
<!-- Node6 -->
<g id="node6" class="node">
<title>Node6</title>
<g id="a_node6"><a xlink:title=" ">
<polygon fill="white" stroke="#bfbfbf" points="167,-68.5 167,-87.5 298,-87.5 298,-68.5 167,-68.5"/>
<text text-anchor="middle" x="232.5" y="-75.5" font-family="Helvetica,sans-Serif" font-size="10.00">std::vector&lt; Visitor * &gt;</text>
</a>
</g>
</g>
<!-- Node3&#45;&gt;Node6 -->
<g id="edge8" class="edge">
<title>Node3&#45;&gt;Node6</title>
<path fill="none" stroke="#9a32cd" stroke-dasharray="5,2" d="M185.49,-129.05C197.64,-116.11 214.32,-98.36 224.19,-87.84"/>
<polygon fill="#9a32cd" stroke="#9a32cd" points="182.9,-126.69 178.61,-136.37 188,-131.48 182.9,-126.69"/>
<text text-anchor="middle" x="230" y="-110" font-family="Helvetica,sans-Serif" font-size="10.00"> elements</text>
</g>
<!-- Node4 -->
<g id="node4" class="node">
<title>Node4</title>
<g id="a_node4"><a xlink:href="classcstring.html" target="_top" xlink:title=" ">
<polygon fill="white" stroke="black" points="145.5,-204.5 145.5,-223.5 195.5,-223.5 195.5,-204.5 145.5,-204.5"/>
<text text-anchor="middle" x="170.5" y="-211.5" font-family="Helvetica,sans-Serif" font-size="10.00">cstring</text>
</a>
</g>
</g>
<!-- Node4&#45;&gt;Node3 -->
<g id="edge3" class="edge">
<title>Node4&#45;&gt;Node3</title>
<path fill="none" stroke="#9a32cd" stroke-dasharray="5,2" d="M170.5,-194.04C170.5,-181.47 170.5,-165.56 170.5,-155.84"/>
<polygon fill="#9a32cd" stroke="#9a32cd" points="167,-194.37 170.5,-204.37 174,-194.37 167,-194.37"/>
<text text-anchor="middle" x="205.5" y="-177" font-family="Helvetica,sans-Serif" font-size="10.00"> internalName</text>
</g>
<!-- Node4&#45;&gt;Node4 -->
<g id="edge4" class="edge">
<title>Node4&#45;&gt;Node4</title>
<path fill="none" stroke="#9a32cd" stroke-dasharray="5,2" d="M205.95,-219.58C210.5,-218.61 213.5,-216.75 213.5,-214 213.5,-209.48 205.41,-207.37 195.68,-207.65"/>
<polygon fill="#9a32cd" stroke="#9a32cd" points="205.39,-216.11 195.68,-220.35 205.91,-223.1 205.39,-216.11"/>
<text text-anchor="middle" x="233" y="-217" font-family="Helvetica,sans-Serif" font-size="10.00"> empty</text>
<text text-anchor="middle" x="233" y="-206" font-family="Helvetica,sans-Serif" font-size="10.00">newline</text>
</g>
<!-- Node5&#45;&gt;Node3 -->
<g id="edge5" class="edge">
<title>Node5&#45;&gt;Node3</title>
<path fill="none" stroke="#9a32cd" stroke-dasharray="5,2" d="M261.55,-24.16C288.57,-38.38 322.57,-62.58 307.5,-89 284.85,-128.73 227.46,-140.29 194.6,-143.64"/>
<polygon fill="#9a32cd" stroke="#9a32cd" points="262.88,-20.91 252.38,-19.56 259.75,-27.17 262.88,-20.91"/>
<text text-anchor="middle" x="348.5" y="-81" font-family="Helvetica,sans-Serif" font-size="10.00"> split_link</text>
<text text-anchor="middle" x="348.5" y="-70" font-family="Helvetica,sans-Serif" font-size="10.00">split_link_mem</text>
</g>
<!-- Node5&#45;&gt;Node5 -->
<g id="edge6" class="edge">
<title>Node5&#45;&gt;Node5</title>
<path fill="none" stroke="#9a32cd" stroke-dasharray="5,2" d="M298.9,-14.4C303.62,-13.4 306.5,-11.93 306.5,-10 306.5,-6.91 299.12,-5.01 288.65,-4.31"/>
<polygon fill="#9a32cd" stroke="#9a32cd" points="298.13,-10.97 288.65,-15.69 299.01,-17.91 298.13,-10.97"/>
<text text-anchor="middle" x="319" y="-7.5" font-family="Helvetica,sans-Serif" font-size="10.00"> prev</text>
</g>
<!-- Node6&#45;&gt;Node5 -->
<g id="edge7" class="edge">
<title>Node6&#45;&gt;Node5</title>
<path fill="none" stroke="#9a32cd" stroke-dasharray="5,2" d="M232.5,-58.04C232.5,-45.47 232.5,-29.56 232.5,-19.84"/>
<polygon fill="#9a32cd" stroke="#9a32cd" points="229,-58.37 232.5,-68.37 236,-58.37 229,-58.37"/>
<text text-anchor="middle" x="252.5" y="-41" font-family="Helvetica,sans-Serif" font-size="10.00"> visitors</text>
</g>
</g>
</svg>
