<?xml version="1.0" encoding="UTF-8" standalone="no"?>
<!DOCTYPE svg PUBLIC "-//W3C//DTD SVG 1.1//EN"
 "http://www.w3.org/Graphics/SVG/1.1/DTD/svg11.dtd">
<!-- Generated by graphviz version 2.43.0 (0)
 -->
<!-- Title: P4::ControlPlaneAPI::Standard::P4RuntimeArchHandlerPNA Pages: 1 -->
<!--zoomable 285 -->
<svg id="main" version="1.1" xmlns="http://www.w3.org/2000/svg" xmlns:xlink="http://www.w3.org/1999/xlink" xml:space="preserve" onload="init(evt)">
<style type="text/css"><![CDATA[
.edge:hover path { stroke: red; }
.edge:hover polygon { stroke: red; fill: red; }
]]></style>
<script type="text/javascript"><![CDATA[
var edges = document.getElementsByTagName('g');
if (edges && edges.length) {
  for (var i=0;i<edges.length;i++) {
    if (edges[i].id.substr(0,4)=='edge') {
      edges[i].setAttribute('class','edge');
    }
  }
}
]]></script>
        <defs>
                <circle id="rim" cx="0" cy="0" r="7"/>
                <circle id="rim2" cx="0" cy="0" r="3.5"/>
                <g id="zoomPlus">
                        <use xlink:href="#rim" fill="#404040">
                                <set attributeName="fill" to="#808080" begin="zoomplus.mouseover" end="zoomplus.mouseout"/>
                        </use>
                        <path d="M-4,0h8M0,-4v8" fill="none" stroke="white" stroke-width="1.5" pointer-events="none"/>
                </g>
                <g id="zoomMin">
                        <use xlink:href="#rim" fill="#404040">
                                <set attributeName="fill" to="#808080" begin="zoomminus.mouseover" end="zoomminus.mouseout"/>
                        </use>
                        <path d="M-4,0h8" fill="none" stroke="white" stroke-width="1.5" pointer-events="none"/>
                </g>
                <g id="dirArrow">
                        <path fill="none" stroke="white" stroke-width="1.5" d="M0,-3.0v7 M-2.5,-0.5L0,-3.0L2.5,-0.5"/>
                </g>
               <g id="resetDef">
                       <use xlink:href="#rim2" fill="#404040">
                               <set attributeName="fill" to="#808080" begin="reset.mouseover" end="reset.mouseout"/>
                       </use>
               </g>
        </defs>

<script type="text/javascript">
var viewWidth = 1318;
var viewHeight = 285;
var sectionId = 'dynsection-1';
</script>
<script xlink:href="svgpan.js"/>
<svg id="graph" class="graph">
<g id="viewport">
<title>P4::ControlPlaneAPI::Standard::P4RuntimeArchHandlerPNA</title>
<polygon fill="white" stroke="transparent" points="-4,4 -4,-280.5 1314,-280.5 1314,4 -4,4"/>
<!-- Node1 -->
<g id="node1" class="node">
<title>Node1</title>
<g id="a_node1"><a xlink:title=" ">
<polygon fill="#bfbfbf" stroke="black" points="1104,-147 1104,-177 1310,-177 1310,-147 1104,-147"/>
<text text-anchor="start" x="1112" y="-165" font-family="Helvetica,sans-Serif" font-size="10.00">P4::ControlPlaneAPI</text>
<text text-anchor="middle" x="1207" y="-154" font-family="Helvetica,sans-Serif" font-size="10.00">::Standard::P4RuntimeArchHandlerPNA</text>
</a>
</g>
</g>
<!-- Node2 -->
<g id="node2" class="node">
<title>Node2</title>
<g id="a_node2"><a xlink:href="class_p4_1_1_control_plane_a_p_i_1_1_standard_1_1_p4_runtime_arch_handler_p_s_a_p_n_a.html" target="_top" xlink:title=" ">
<polygon fill="white" stroke="black" points="882,-141.5 882,-182.5 1067,-182.5 1067,-141.5 882,-141.5"/>
<text text-anchor="start" x="890" y="-170.5" font-family="Helvetica,sans-Serif" font-size="10.00">P4::ControlPlaneAPI</text>
<text text-anchor="start" x="890" y="-159.5" font-family="Helvetica,sans-Serif" font-size="10.00">::Standard::P4RuntimeArchHandler</text>
<text text-anchor="middle" x="974.5" y="-148.5" font-family="Helvetica,sans-Serif" font-size="10.00">PSAPNA&lt; Arch::PNA &gt;</text>
</a>
</g>
</g>
<!-- Node2&#45;&gt;Node1 -->
<g id="edge1" class="edge">
<title>Node2&#45;&gt;Node1</title>
<path fill="none" stroke="midnightblue" d="M1077.5,-162C1086.28,-162 1095.16,-162 1103.93,-162"/>
<polygon fill="midnightblue" stroke="midnightblue" points="1077.26,-158.5 1067.26,-162 1077.26,-165.5 1077.26,-158.5"/>
</g>
<!-- Node3 -->
<g id="node3" class="node">
<title>Node3</title>
<g id="a_node3"><a xlink:href="class_p4_1_1_control_plane_a_p_i_1_1_standard_1_1_p4_runtime_arch_handler_common.html" target="_top" xlink:title=" ">
<polygon fill="white" stroke="black" points="660,-141.5 660,-182.5 845,-182.5 845,-141.5 660,-141.5"/>
<text text-anchor="start" x="668" y="-170.5" font-family="Helvetica,sans-Serif" font-size="10.00">P4::ControlPlaneAPI</text>
<text text-anchor="start" x="668" y="-159.5" font-family="Helvetica,sans-Serif" font-size="10.00">::Standard::P4RuntimeArchHandler</text>
<text text-anchor="middle" x="752.5" y="-148.5" font-family="Helvetica,sans-Serif" font-size="10.00">Common&lt; arch &gt;</text>
</a>
</g>
</g>
<!-- Node3&#45;&gt;Node2 -->
<g id="edge2" class="edge">
<title>Node3&#45;&gt;Node2</title>
<path fill="none" stroke="midnightblue" d="M855.22,-162C864.14,-162 873.12,-162 881.94,-162"/>
<polygon fill="midnightblue" stroke="midnightblue" points="855.21,-158.5 845.21,-162 855.21,-165.5 855.21,-158.5"/>
</g>
<!-- Node4 -->
<g id="node4" class="node">
<title>Node4</title>
<g id="a_node4"><a xlink:href="class_p4_1_1_control_plane_a_p_i_1_1_p4_runtime_arch_handler_iface.html" target="_top" xlink:title=" ">
<polygon fill="white" stroke="black" points="367,-246 367,-276 527,-276 527,-246 367,-246"/>
<text text-anchor="start" x="375" y="-264" font-family="Helvetica,sans-Serif" font-size="10.00">P4::ControlPlaneAPI</text>
<text text-anchor="middle" x="447" y="-253" font-family="Helvetica,sans-Serif" font-size="10.00">::P4RuntimeArchHandlerIface</text>
</a>
</g>
</g>
<!-- Node4&#45;&gt;Node3 -->
<g id="edge3" class="edge">
<title>Node4&#45;&gt;Node3</title>
<path fill="none" stroke="midnightblue" d="M537.37,-246.15C570.73,-239.32 608.61,-230.02 642,-218 668.12,-208.6 695.95,-194.31 717.01,-182.51"/>
<polygon fill="midnightblue" stroke="midnightblue" points="536.28,-242.79 527.17,-248.19 537.66,-249.66 536.28,-242.79"/>
</g>
<!-- Node5 -->
<g id="node5" class="node">
<title>Node5</title>
<g id="a_node5"><a xlink:title=" ">
<polygon fill="white" stroke="#bfbfbf" points="388,-207.5 388,-226.5 506,-226.5 506,-207.5 388,-207.5"/>
<text text-anchor="middle" x="447" y="-214.5" font-family="Helvetica,sans-Serif" font-size="10.00">std::set&lt; p4rt_id_t &gt;</text>
</a>
</g>
</g>
<!-- Node5&#45;&gt;Node3 -->
<g id="edge4" class="edge">
<title>Node5&#45;&gt;Node3</title>
<path fill="none" stroke="#9a32cd" stroke-dasharray="5,2" d="M516.61,-208.19C553.84,-203.04 600.59,-196 642,-188 650.54,-186.35 659.41,-184.49 668.26,-182.54"/>
<polygon fill="#9a32cd" stroke="#9a32cd" points="515.8,-204.77 506.37,-209.59 516.75,-211.7 515.8,-204.77"/>
<text text-anchor="middle" x="593.5" y="-206" font-family="Helvetica,sans-Serif" font-size="10.00"> serializedInstances</text>
</g>
<!-- Node6 -->
<g id="node6" class="node">
<title>Node6</title>
<g id="a_node6"><a xlink:title=" ">
<polygon fill="white" stroke="#bfbfbf" points="190,-207.5 190,-226.5 249,-226.5 249,-207.5 190,-207.5"/>
<text text-anchor="middle" x="219.5" y="-214.5" font-family="Helvetica,sans-Serif" font-size="10.00">p4rt_id_t</text>
</a>
</g>
</g>
<!-- Node6&#45;&gt;Node5 -->
<g id="edge5" class="edge">
<title>Node6&#45;&gt;Node5</title>
<path fill="none" stroke="#9a32cd" stroke-dasharray="5,2" d="M259.45,-217C294.8,-217 347.44,-217 387.79,-217"/>
<polygon fill="#9a32cd" stroke="#9a32cd" points="259.06,-213.5 249.06,-217 259.06,-220.5 259.06,-213.5"/>
<text text-anchor="middle" x="324.5" y="-220" font-family="Helvetica,sans-Serif" font-size="10.00"> keys</text>
</g>
<!-- Node7 -->
<g id="node7" class="node">
<title>Node7</title>
<g id="a_node7"><a xlink:title=" ">
<polygon fill="white" stroke="#bfbfbf" points="398.5,-169.5 398.5,-188.5 495.5,-188.5 495.5,-169.5 398.5,-169.5"/>
<text text-anchor="middle" x="447" y="-176.5" font-family="Helvetica,sans-Serif" font-size="10.00">JsonPrintOptions</text>
</a>
</g>
</g>
<!-- Node7&#45;&gt;Node3 -->
<g id="edge6" class="edge">
<title>Node7&#45;&gt;Node3</title>
<path fill="none" stroke="#9a32cd" stroke-dasharray="5,2" d="M505.87,-175.76C549.32,-173.32 609.7,-169.94 659.71,-167.14"/>
<polygon fill="#9a32cd" stroke="#9a32cd" points="505.54,-172.27 495.76,-176.33 505.94,-179.26 505.54,-172.27"/>
<text text-anchor="middle" x="593.5" y="-176" font-family="Helvetica,sans-Serif" font-size="10.00"> jsonPrintOptions</text>
</g>
<!-- Node8 -->
<g id="node8" class="node">
<title>Node8</title>
<g id="a_node8"><a xlink:href="class_p4_1_1_type_map.html" target="_top" xlink:title=" ">
<polygon fill="white" stroke="black" points="408,-93.5 408,-112.5 486,-112.5 486,-93.5 408,-93.5"/>
<text text-anchor="middle" x="447" y="-100.5" font-family="Helvetica,sans-Serif" font-size="10.00">P4::TypeMap</text>
</a>
</g>
</g>
<!-- Node8&#45;&gt;Node3 -->
<g id="edge7" class="edge">
<title>Node8&#45;&gt;Node3</title>
<path fill="none" stroke="#9a32cd" stroke-dasharray="5,2" d="M496.31,-108.17C535.76,-112.82 592.81,-120.53 642,-131 655.82,-133.94 670.46,-137.66 684.38,-141.48"/>
<polygon fill="#9a32cd" stroke="#9a32cd" points="496.52,-104.67 486.18,-107 495.71,-111.62 496.52,-104.67"/>
<text text-anchor="middle" x="593.5" y="-134" font-family="Helvetica,sans-Serif" font-size="10.00"> typeMap</text>
</g>
<!-- Node9 -->
<g id="node9" class="node">
<title>Node9</title>
<g id="a_node9"><a xlink:href="class_p4_1_1_program_map.html" target="_top" xlink:title=" ">
<polygon fill="white" stroke="black" points="171,-89.5 171,-108.5 268,-108.5 268,-89.5 171,-89.5"/>
<text text-anchor="middle" x="219.5" y="-96.5" font-family="Helvetica,sans-Serif" font-size="10.00">P4::ProgramMap</text>
</a>
</g>
</g>
<!-- Node9&#45;&gt;Node8 -->
<g id="edge8" class="edge">
<title>Node9&#45;&gt;Node8</title>
<path fill="none" stroke="midnightblue" d="M278.11,-100.02C318.85,-100.74 372.32,-101.69 407.86,-102.32"/>
<polygon fill="midnightblue" stroke="midnightblue" points="278.11,-96.52 268.05,-99.84 277.98,-103.52 278.11,-96.52"/>
</g>
<!-- Node12 -->
<g id="node12" class="node">
<title>Node12</title>
<g id="a_node12"><a xlink:href="class_p4_1_1_reference_map.html" target="_top" xlink:title="Class used to encode maps from paths to declarations.">
<polygon fill="white" stroke="black" points="394.5,-131.5 394.5,-150.5 499.5,-150.5 499.5,-131.5 394.5,-131.5"/>
<text text-anchor="middle" x="447" y="-138.5" font-family="Helvetica,sans-Serif" font-size="10.00">P4::ReferenceMap</text>
</a>
</g>
</g>
<!-- Node9&#45;&gt;Node12 -->
<g id="edge13" class="edge">
<title>Node9&#45;&gt;Node12</title>
<path fill="none" stroke="midnightblue" d="M277.94,-109.7C314.04,-116.42 360.19,-125.02 394.99,-131.5"/>
<polygon fill="midnightblue" stroke="midnightblue" points="278.52,-106.25 268.05,-107.86 277.24,-113.13 278.52,-106.25"/>
</g>
<!-- Node10 -->
<g id="node10" class="node">
<title>Node10</title>
<g id="a_node10"><a xlink:href="class_i_has_db_print.html" target="_top" xlink:title=" ">
<polygon fill="white" stroke="black" points="0,-118.5 0,-137.5 74,-137.5 74,-118.5 0,-118.5"/>
<text text-anchor="middle" x="37" y="-125.5" font-family="Helvetica,sans-Serif" font-size="10.00">IHasDbPrint</text>
</a>
</g>
</g>
<!-- Node10&#45;&gt;Node9 -->
<g id="edge9" class="edge">
<title>Node10&#45;&gt;Node9</title>
<path fill="none" stroke="midnightblue" d="M84.34,-120.71C101.51,-117.99 121.15,-114.87 139,-112 149.22,-110.36 160.17,-108.58 170.58,-106.88"/>
<polygon fill="midnightblue" stroke="midnightblue" points="83.33,-117.32 74,-122.34 84.42,-124.24 83.33,-117.32"/>
</g>
<!-- Node11 -->
<g id="node11" class="node">
<title>Node11</title>
<g id="a_node11"><a xlink:href="classcstring.html" target="_top" xlink:title=" ">
<polygon fill="white" stroke="black" points="12,-40.5 12,-59.5 62,-59.5 62,-40.5 12,-40.5"/>
<text text-anchor="middle" x="37" y="-47.5" font-family="Helvetica,sans-Serif" font-size="10.00">cstring</text>
</a>
</g>
</g>
<!-- Node11&#45;&gt;Node9 -->
<g id="edge10" class="edge">
<title>Node11&#45;&gt;Node9</title>
<path fill="none" stroke="#9a32cd" stroke-dasharray="5,2" d="M71.32,-63.11C78.11,-65.56 85.24,-67.98 92,-70 117.8,-77.7 147.08,-84.53 170.96,-89.63"/>
<polygon fill="#9a32cd" stroke="#9a32cd" points="72.29,-59.73 61.7,-59.53 69.86,-66.3 72.29,-59.73"/>
<text text-anchor="middle" x="115.5" y="-84" font-family="Helvetica,sans-Serif" font-size="10.00"> mapKind</text>
</g>
<!-- Node11&#45;&gt;Node11 -->
<g id="edge11" class="edge">
<title>Node11&#45;&gt;Node11</title>
<path fill="none" stroke="#9a32cd" stroke-dasharray="5,2" d="M22.64,-69.77C23.76,-74.5 28.55,-78 37,-78 50.86,-78 54.87,-68.57 49.02,-59.76"/>
<polygon fill="#9a32cd" stroke="#9a32cd" points="26.11,-70.29 24.98,-59.76 19.29,-68.7 26.11,-70.29"/>
<text text-anchor="middle" x="37" y="-92" font-family="Helvetica,sans-Serif" font-size="10.00"> empty</text>
<text text-anchor="middle" x="37" y="-81" font-family="Helvetica,sans-Serif" font-size="10.00">newline</text>
</g>
<!-- Node15 -->
<g id="node15" class="node">
<title>Node15</title>
<g id="a_node15"><a xlink:title=" ">
<polygon fill="white" stroke="#bfbfbf" points="390,-33.5 390,-74.5 504,-74.5 504,-33.5 390,-33.5"/>
<text text-anchor="start" x="398" y="-62.5" font-family="Helvetica,sans-Serif" font-size="10.00">std::unordered_map</text>
<text text-anchor="start" x="398" y="-51.5" font-family="Helvetica,sans-Serif" font-size="10.00">&lt; cstring, std::set</text>
<text text-anchor="middle" x="447" y="-40.5" font-family="Helvetica,sans-Serif" font-size="10.00">&lt; cstring &gt; &gt;</text>
</a>
</g>
</g>
<!-- Node11&#45;&gt;Node15 -->
<g id="edge17" class="edge">
<title>Node11&#45;&gt;Node15</title>
<path fill="none" stroke="#9a32cd" stroke-dasharray="5,2" d="M72.41,-50.34C142.88,-51.03 304.16,-52.61 389.94,-53.45"/>
<polygon fill="#9a32cd" stroke="#9a32cd" points="72.33,-46.84 62.3,-50.24 72.27,-53.84 72.33,-46.84"/>
<text text-anchor="middle" x="219.5" y="-55" font-family="Helvetica,sans-Serif" font-size="10.00"> keys</text>
</g>
<!-- Node16 -->
<g id="node16" class="node">
<title>Node16</title>
<g id="a_node16"><a xlink:title=" ">
<polygon fill="white" stroke="#bfbfbf" points="165.5,-0.5 165.5,-19.5 273.5,-19.5 273.5,-0.5 165.5,-0.5"/>
<text text-anchor="middle" x="219.5" y="-7.5" font-family="Helvetica,sans-Serif" font-size="10.00">std::set&lt; cstring &gt;</text>
</a>
</g>
</g>
<!-- Node11&#45;&gt;Node16 -->
<g id="edge19" class="edge">
<title>Node11&#45;&gt;Node16</title>
<path fill="none" stroke="#9a32cd" stroke-dasharray="5,2" d="M71.66,-37.15C78.33,-34.89 85.34,-32.71 92,-31 115.83,-24.88 142.65,-20.13 165.45,-16.71"/>
<polygon fill="#9a32cd" stroke="#9a32cd" points="70.46,-33.86 62.19,-40.48 72.78,-40.46 70.46,-33.86"/>
<text text-anchor="middle" x="115.5" y="-34" font-family="Helvetica,sans-Serif" font-size="10.00"> keys</text>
</g>
<!-- Node12&#45;&gt;Node3 -->
<g id="edge12" class="edge">
<title>Node12&#45;&gt;Node3</title>
<path fill="none" stroke="#9a32cd" stroke-dasharray="5,2" d="M510.31,-144.53C548.36,-146.77 598.01,-149.83 642,-153 647.8,-153.42 653.78,-153.86 659.8,-154.33"/>
<polygon fill="#9a32cd" stroke="#9a32cd" points="510.08,-141.01 499.89,-143.92 509.67,-148 510.08,-141.01"/>
<text text-anchor="middle" x="593.5" y="-156" font-family="Helvetica,sans-Serif" font-size="10.00"> refMap</text>
</g>
<!-- Node13 -->
<g id="node13" class="node">
<title>Node13</title>
<g id="a_node13"><a xlink:href="class_p4_1_1_name_generator.html" target="_top" xlink:title=" ">
<polygon fill="white" stroke="black" points="163,-169.5 163,-188.5 276,-188.5 276,-169.5 163,-169.5"/>
<text text-anchor="middle" x="219.5" y="-176.5" font-family="Helvetica,sans-Serif" font-size="10.00">P4::NameGenerator</text>
</a>
</g>
</g>
<!-- Node13&#45;&gt;Node12 -->
<g id="edge14" class="edge">
<title>Node13&#45;&gt;Node12</title>
<path fill="none" stroke="midnightblue" d="M286.22,-167.93C320.67,-162.12 362.26,-155.11 394.37,-149.7"/>
<polygon fill="midnightblue" stroke="midnightblue" points="285.52,-164.49 276.24,-169.61 286.68,-171.4 285.52,-164.49"/>
</g>
<!-- Node14 -->
<g id="node14" class="node">
<title>Node14</title>
<g id="a_node14"><a xlink:href="class_p4_1_1_declaration_lookup.html" target="_top" xlink:title=" ">
<polygon fill="white" stroke="black" points="157,-131.5 157,-150.5 282,-150.5 282,-131.5 157,-131.5"/>
<text text-anchor="middle" x="219.5" y="-138.5" font-family="Helvetica,sans-Serif" font-size="10.00">P4::DeclarationLookup</text>
</a>
</g>
</g>
<!-- Node14&#45;&gt;Node12 -->
<g id="edge15" class="edge">
<title>Node14&#45;&gt;Node12</title>
<path fill="none" stroke="midnightblue" d="M292.23,-141C325.42,-141 364.11,-141 394.37,-141"/>
<polygon fill="midnightblue" stroke="midnightblue" points="292.12,-137.5 282.12,-141 292.12,-144.5 292.12,-137.5"/>
</g>
<!-- Node15&#45;&gt;Node3 -->
<g id="edge16" class="edge">
<title>Node15&#45;&gt;Node3</title>
<path fill="none" stroke="#9a32cd" stroke-dasharray="5,2" d="M514.06,-64.33C552.28,-71.53 600.8,-82.78 642,-99 670.16,-110.09 699.78,-127.53 721.1,-141.25"/>
<polygon fill="#9a32cd" stroke="#9a32cd" points="514.55,-60.86 504.08,-62.5 513.28,-67.75 514.55,-60.86"/>
<text text-anchor="middle" x="593.5" y="-102" font-family="Helvetica,sans-Serif" font-size="10.00"> actionProfilesRefs</text>
</g>
<!-- Node16&#45;&gt;Node15 -->
<g id="edge18" class="edge">
<title>Node16&#45;&gt;Node15</title>
<path fill="none" stroke="#9a32cd" stroke-dasharray="5,2" d="M283.8,-19.43C304.63,-22.78 327.86,-26.77 349,-31 362.32,-33.66 376.6,-36.86 389.98,-40"/>
<polygon fill="#9a32cd" stroke="#9a32cd" points="284.22,-15.95 273.79,-17.84 283.12,-22.87 284.22,-15.95"/>
<text text-anchor="middle" x="324.5" y="-34" font-family="Helvetica,sans-Serif" font-size="10.00"> elements</text>
</g>
</g>
</svg>
        <g id="navigator" transform="translate(0 0)" fill="#404254">
                <rect fill="#f2f5e9" fill-opacity="0.5" stroke="#606060" stroke-width=".5" x="0" y="0" width="60" height="60"/>
                <use id="zoomplus" xlink:href="#zoomPlus" x="17" y="9" onmousedown="handleZoom(evt,'in')"/>
                <use id="zoomminus" xlink:href="#zoomMin" x="42" y="9" onmousedown="handleZoom(evt,'out')"/>
                <use id="reset" xlink:href="#resetDef" x="30" y="36" onmousedown="handleReset()"/>
                <g id="arrowUp" xlink:href="#dirArrow" transform="translate(30 24)" onmousedown="handlePan(0,-1)">
                  <use xlink:href="#rim" fill="#404040">
                        <set attributeName="fill" to="#808080" begin="arrowUp.mouseover" end="arrowUp.mouseout"/>
                  </use>
                  <path fill="none" stroke="white" stroke-width="1.5" d="M0,-3.0v7 M-2.5,-0.5L0,-3.0L2.5,-0.5"/>
                </g>
                <g id="arrowRight" xlink:href="#dirArrow" transform="rotate(90) translate(36 -43)" onmousedown="handlePan(1,0)">
                  <use xlink:href="#rim" fill="#404040">
                        <set attributeName="fill" to="#808080" begin="arrowRight.mouseover" end="arrowRight.mouseout"/>
                  </use>
                  <path fill="none" stroke="white" stroke-width="1.5" d="M0,-3.0v7 M-2.5,-0.5L0,-3.0L2.5,-0.5"/>
                </g>
                <g id="arrowDown" xlink:href="#dirArrow" transform="rotate(180) translate(-30 -48)" onmousedown="handlePan(0,1)">
                  <use xlink:href="#rim" fill="#404040">
                        <set attributeName="fill" to="#808080" begin="arrowDown.mouseover" end="arrowDown.mouseout"/>
                  </use>
                  <path fill="none" stroke="white" stroke-width="1.5" d="M0,-3.0v7 M-2.5,-0.5L0,-3.0L2.5,-0.5"/>
                </g>
                <g id="arrowLeft" xlink:href="#dirArrow" transform="rotate(270) translate(-36 17)" onmousedown="handlePan(-1,0)">
                  <use xlink:href="#rim" fill="#404040">
                        <set attributeName="fill" to="#808080" begin="arrowLeft.mouseover" end="arrowLeft.mouseout"/>
                  </use>
                  <path fill="none" stroke="white" stroke-width="1.5" d="M0,-3.0v7 M-2.5,-0.5L0,-3.0L2.5,-0.5"/>
                </g>
        </g>
        <svg viewBox="0 0 15 15" width="100%" height="30px" preserveAspectRatio="xMaxYMin meet">
         <g id="arrow_out" transform="scale(0.3 0.3)">
          <a xlink:href="class_p4_1_1_control_plane_a_p_i_1_1_standard_1_1_p4_runtime_arch_handler_p_n_a__coll__graph_org.svg" target="_base">
           <rect id="button" ry="5" rx="5" y="6" x="6" height="38" width="38"
                fill="#f2f5e9" fill-opacity="0.5" stroke="#606060" stroke-width="1.0"/>
           <path id="arrow"
             d="M 11.500037,31.436501 C 11.940474,20.09759 22.043105,11.32322 32.158766,21.979434 L 37.068811,17.246167 C 37.068811,17.246167 37.088388,32 37.088388,32 L 22.160133,31.978069 C 22.160133,31.978069 26.997745,27.140456 26.997745,27.140456 C 18.528582,18.264221 13.291696,25.230495 11.500037,31.436501 z"
             style="fill:#404040;"/>
          </a>
         </g>
        </svg>
</svg>
