<?xml version="1.0" encoding="UTF-8" standalone="no"?>
<!DOCTYPE svg PUBLIC "-//W3C//DTD SVG 1.1//EN"
 "http://www.w3.org/Graphics/SVG/1.1/DTD/svg11.dtd">
<!-- Generated by graphviz version 2.43.0 (0)
 -->
<!-- Title: P4::RemoveUnusedHUDeclarations Pages: 1 -->
<svg width="422pt" height="233pt"
 viewBox="0.00 0.00 422.00 233.00" xmlns="http://www.w3.org/2000/svg" xmlns:xlink="http://www.w3.org/1999/xlink">
<g id="graph0" class="graph" transform="scale(1 1) rotate(0) translate(4 229)">
<title>P4::RemoveUnusedHUDeclarations</title>
<polygon fill="white" stroke="transparent" points="-4,4 -4,-229 418,-229 418,4 -4,4"/>
<!-- Node1 -->
<g id="node1" class="node">
<title>Node1</title>
<g id="a_node1"><a xlink:title=" ">
<polygon fill="#bfbfbf" stroke="black" points="0,-0.5 0,-19.5 188,-19.5 188,-0.5 0,-0.5"/>
<text text-anchor="middle" x="94" y="-7.5" font-family="Helvetica,sans-Serif" font-size="10.00">P4::RemoveUnusedHUDeclarations</text>
</a>
</g>
</g>
<!-- Node2 -->
<g id="node2" class="node">
<title>Node2</title>
<g id="a_node2"><a xlink:href="class_transform.html" target="_top" xlink:title=" ">
<polygon fill="white" stroke="black" points="63.5,-68.5 63.5,-87.5 128.5,-87.5 128.5,-68.5 63.5,-68.5"/>
<text text-anchor="middle" x="96" y="-75.5" font-family="Helvetica,sans-Serif" font-size="10.00">Transform</text>
</a>
</g>
</g>
<!-- Node2&#45;&gt;Node1 -->
<g id="edge1" class="edge">
<title>Node2&#45;&gt;Node1</title>
<path fill="none" stroke="midnightblue" d="M95.43,-58.04C95.04,-45.47 94.56,-29.56 94.27,-19.84"/>
<polygon fill="midnightblue" stroke="midnightblue" points="91.94,-58.48 95.74,-68.37 98.93,-58.27 91.94,-58.48"/>
</g>
<!-- Node3 -->
<g id="node3" class="node">
<title>Node3</title>
<g id="a_node3"><a xlink:href="class_visitor.html" target="_top" xlink:title=" ">
<polygon fill="white" stroke="black" points="174,-136.5 174,-155.5 222,-155.5 222,-136.5 174,-136.5"/>
<text text-anchor="middle" x="198" y="-143.5" font-family="Helvetica,sans-Serif" font-size="10.00">Visitor</text>
</a>
</g>
</g>
<!-- Node3&#45;&gt;Node2 -->
<g id="edge2" class="edge">
<title>Node3&#45;&gt;Node2</title>
<path fill="none" stroke="midnightblue" d="M173.44,-131.06C166.44,-126.96 158.86,-122.39 152,-118 136.44,-108.03 119.05,-95.73 107.83,-87.64"/>
<polygon fill="midnightblue" stroke="midnightblue" points="172.08,-134.31 182.49,-136.29 175.59,-128.26 172.08,-134.31"/>
</g>
<!-- Node3&#45;&gt;Node3 -->
<g id="edge10" class="edge">
<title>Node3&#45;&gt;Node3</title>
<path fill="none" stroke="#9a32cd" stroke-dasharray="5,2" d="M232.42,-151.29C236.98,-150.39 240,-148.63 240,-146 240,-141.69 231.86,-139.7 222.17,-140.04"/>
<polygon fill="#9a32cd" stroke="#9a32cd" points="231.92,-147.82 222.17,-151.96 232.38,-154.8 231.92,-147.82"/>
<text text-anchor="middle" x="265" y="-143.5" font-family="Helvetica,sans-Serif" font-size="10.00"> called_by</text>
</g>
<!-- Node5 -->
<g id="node5" class="node">
<title>Node5</title>
<g id="a_node5"><a xlink:href="class_split_flow_visit__base.html" target="_top" xlink:title=" ">
<polygon fill="white" stroke="black" points="206,-0.5 206,-19.5 318,-19.5 318,-0.5 206,-0.5"/>
<text text-anchor="middle" x="262" y="-7.5" font-family="Helvetica,sans-Serif" font-size="10.00">SplitFlowVisit_base</text>
</a>
</g>
</g>
<!-- Node3&#45;&gt;Node5 -->
<g id="edge9" class="edge">
<title>Node3&#45;&gt;Node5</title>
<path fill="none" stroke="#9a32cd" stroke-dasharray="5,2" d="M185.61,-127.81C175.46,-111.44 164.37,-86.48 175,-67 187.99,-43.19 215.92,-27.98 236.65,-19.52"/>
<polygon fill="#9a32cd" stroke="#9a32cd" points="182.84,-129.97 191.3,-136.35 188.67,-126.08 182.84,-129.97"/>
<text text-anchor="middle" x="180" y="-75.5" font-family="Helvetica,sans-Serif" font-size="10.00"> v</text>
</g>
<!-- Node6 -->
<g id="node6" class="node">
<title>Node6</title>
<g id="a_node6"><a xlink:title=" ">
<polygon fill="white" stroke="#bfbfbf" points="194.5,-68.5 194.5,-87.5 325.5,-87.5 325.5,-68.5 194.5,-68.5"/>
<text text-anchor="middle" x="260" y="-75.5" font-family="Helvetica,sans-Serif" font-size="10.00">std::vector&lt; Visitor * &gt;</text>
</a>
</g>
</g>
<!-- Node3&#45;&gt;Node6 -->
<g id="edge8" class="edge">
<title>Node3&#45;&gt;Node6</title>
<path fill="none" stroke="#9a32cd" stroke-dasharray="5,2" d="M212.99,-129.05C225.14,-116.11 241.82,-98.36 251.69,-87.84"/>
<polygon fill="#9a32cd" stroke="#9a32cd" points="210.4,-126.69 206.11,-136.37 215.5,-131.48 210.4,-126.69"/>
<text text-anchor="middle" x="257.5" y="-110" font-family="Helvetica,sans-Serif" font-size="10.00"> elements</text>
</g>
<!-- Node4 -->
<g id="node4" class="node">
<title>Node4</title>
<g id="a_node4"><a xlink:href="classcstring.html" target="_top" xlink:title=" ">
<polygon fill="white" stroke="black" points="173,-204.5 173,-223.5 223,-223.5 223,-204.5 173,-204.5"/>
<text text-anchor="middle" x="198" y="-211.5" font-family="Helvetica,sans-Serif" font-size="10.00">cstring</text>
</a>
</g>
</g>
<!-- Node4&#45;&gt;Node3 -->
<g id="edge3" class="edge">
<title>Node4&#45;&gt;Node3</title>
<path fill="none" stroke="#9a32cd" stroke-dasharray="5,2" d="M198,-194.04C198,-181.47 198,-165.56 198,-155.84"/>
<polygon fill="#9a32cd" stroke="#9a32cd" points="194.5,-194.37 198,-204.37 201.5,-194.37 194.5,-194.37"/>
<text text-anchor="middle" x="233" y="-177" font-family="Helvetica,sans-Serif" font-size="10.00"> internalName</text>
</g>
<!-- Node4&#45;&gt;Node4 -->
<g id="edge4" class="edge">
<title>Node4&#45;&gt;Node4</title>
<path fill="none" stroke="#9a32cd" stroke-dasharray="5,2" d="M233.45,-219.58C238,-218.61 241,-216.75 241,-214 241,-209.48 232.91,-207.37 223.18,-207.65"/>
<polygon fill="#9a32cd" stroke="#9a32cd" points="232.89,-216.11 223.18,-220.35 233.41,-223.1 232.89,-216.11"/>
<text text-anchor="middle" x="260.5" y="-217" font-family="Helvetica,sans-Serif" font-size="10.00"> empty</text>
<text text-anchor="middle" x="260.5" y="-206" font-family="Helvetica,sans-Serif" font-size="10.00">newline</text>
</g>
<!-- Node5&#45;&gt;Node3 -->
<g id="edge5" class="edge">
<title>Node5&#45;&gt;Node3</title>
<path fill="none" stroke="#9a32cd" stroke-dasharray="5,2" d="M290.36,-24.29C316.73,-38.62 349.87,-62.91 335,-89 312.35,-128.73 254.96,-140.29 222.1,-143.64"/>
<polygon fill="#9a32cd" stroke="#9a32cd" points="291.9,-21.15 281.41,-19.65 288.68,-27.36 291.9,-21.15"/>
<text text-anchor="middle" x="376" y="-81" font-family="Helvetica,sans-Serif" font-size="10.00"> split_link</text>
<text text-anchor="middle" x="376" y="-70" font-family="Helvetica,sans-Serif" font-size="10.00">split_link_mem</text>
</g>
<!-- Node5&#45;&gt;Node5 -->
<g id="edge6" class="edge">
<title>Node5&#45;&gt;Node5</title>
<path fill="none" stroke="#9a32cd" stroke-dasharray="5,2" d="M328.4,-14.4C333.12,-13.4 336,-11.93 336,-10 336,-6.91 328.62,-5.01 318.15,-4.31"/>
<polygon fill="#9a32cd" stroke="#9a32cd" points="327.63,-10.97 318.15,-15.69 328.51,-17.91 327.63,-10.97"/>
<text text-anchor="middle" x="348.5" y="-7.5" font-family="Helvetica,sans-Serif" font-size="10.00"> prev</text>
</g>
<!-- Node6&#45;&gt;Node5 -->
<g id="edge7" class="edge">
<title>Node6&#45;&gt;Node5</title>
<path fill="none" stroke="#9a32cd" stroke-dasharray="5,2" d="M260.57,-58.04C260.96,-45.47 261.44,-29.56 261.73,-19.84"/>
<polygon fill="#9a32cd" stroke="#9a32cd" points="257.07,-58.27 260.26,-68.37 264.06,-58.48 257.07,-58.27"/>
<text text-anchor="middle" x="281" y="-41" font-family="Helvetica,sans-Serif" font-size="10.00"> visitors</text>
</g>
</g>
</svg>
