<?xml version="1.0" encoding="UTF-8" standalone="no"?>
<!DOCTYPE svg PUBLIC "-//W3C//DTD SVG 1.1//EN"
 "http://www.w3.org/Graphics/SVG/1.1/DTD/svg11.dtd">
<!-- Generated by graphviz version 2.43.0 (0)
 -->
<!-- Title: DPDK::DismantleMuxExpressions Pages: 1 -->
<svg width="415pt" height="233pt"
 viewBox="0.00 0.00 415.00 233.00" xmlns="http://www.w3.org/2000/svg" xmlns:xlink="http://www.w3.org/1999/xlink">
<g id="graph0" class="graph" transform="scale(1 1) rotate(0) translate(4 229)">
<title>DPDK::DismantleMuxExpressions</title>
<polygon fill="white" stroke="transparent" points="-4,4 -4,-229 411,-229 411,4 -4,4"/>
<!-- Node1 -->
<g id="node1" class="node">
<title>Node1</title>
<g id="a_node1"><a xlink:title=" ">
<polygon fill="#bfbfbf" stroke="black" points="0,-0.5 0,-19.5 180,-19.5 180,-0.5 0,-0.5"/>
<text text-anchor="middle" x="90" y="-7.5" font-family="Helvetica,sans-Serif" font-size="10.00">DPDK::DismantleMuxExpressions</text>
</a>
</g>
</g>
<!-- Node2 -->
<g id="node2" class="node">
<title>Node2</title>
<g id="a_node2"><a xlink:href="class_transform.html" target="_top" xlink:title=" ">
<polygon fill="white" stroke="black" points="57.5,-68.5 57.5,-87.5 122.5,-87.5 122.5,-68.5 57.5,-68.5"/>
<text text-anchor="middle" x="90" y="-75.5" font-family="Helvetica,sans-Serif" font-size="10.00">Transform</text>
</a>
</g>
</g>
<!-- Node2&#45;&gt;Node1 -->
<g id="edge1" class="edge">
<title>Node2&#45;&gt;Node1</title>
<path fill="none" stroke="midnightblue" d="M90,-58.04C90,-45.47 90,-29.56 90,-19.84"/>
<polygon fill="midnightblue" stroke="midnightblue" points="86.5,-58.37 90,-68.37 93.5,-58.37 86.5,-58.37"/>
</g>
<!-- Node3 -->
<g id="node3" class="node">
<title>Node3</title>
<g id="a_node3"><a xlink:href="class_visitor.html" target="_top" xlink:title=" ">
<polygon fill="white" stroke="black" points="167,-136.5 167,-155.5 215,-155.5 215,-136.5 167,-136.5"/>
<text text-anchor="middle" x="191" y="-143.5" font-family="Helvetica,sans-Serif" font-size="10.00">Visitor</text>
</a>
</g>
</g>
<!-- Node3&#45;&gt;Node2 -->
<g id="edge2" class="edge">
<title>Node3&#45;&gt;Node2</title>
<path fill="none" stroke="midnightblue" d="M166.41,-131.09C159.42,-127 151.84,-122.42 145,-118 129.66,-108.09 112.59,-95.77 101.6,-87.67"/>
<polygon fill="midnightblue" stroke="midnightblue" points="165.06,-134.35 175.47,-136.33 168.56,-128.29 165.06,-134.35"/>
</g>
<!-- Node3&#45;&gt;Node3 -->
<g id="edge10" class="edge">
<title>Node3&#45;&gt;Node3</title>
<path fill="none" stroke="#9a32cd" stroke-dasharray="5,2" d="M225.42,-151.29C229.98,-150.39 233,-148.63 233,-146 233,-141.69 224.86,-139.7 215.17,-140.04"/>
<polygon fill="#9a32cd" stroke="#9a32cd" points="224.92,-147.82 215.17,-151.96 225.38,-154.8 224.92,-147.82"/>
<text text-anchor="middle" x="258" y="-143.5" font-family="Helvetica,sans-Serif" font-size="10.00"> called_by</text>
</g>
<!-- Node5 -->
<g id="node5" class="node">
<title>Node5</title>
<g id="a_node5"><a xlink:href="class_split_flow_visit__base.html" target="_top" xlink:title=" ">
<polygon fill="white" stroke="black" points="198,-0.5 198,-19.5 310,-19.5 310,-0.5 198,-0.5"/>
<text text-anchor="middle" x="254" y="-7.5" font-family="Helvetica,sans-Serif" font-size="10.00">SplitFlowVisit_base</text>
</a>
</g>
</g>
<!-- Node3&#45;&gt;Node5 -->
<g id="edge9" class="edge">
<title>Node3&#45;&gt;Node5</title>
<path fill="none" stroke="#9a32cd" stroke-dasharray="5,2" d="M178.63,-127.82C168.5,-111.46 157.43,-86.51 168,-67 180.82,-43.35 208.44,-28.12 228.94,-19.6"/>
<polygon fill="#9a32cd" stroke="#9a32cd" points="175.86,-129.97 184.32,-136.35 181.69,-126.09 175.86,-129.97"/>
<text text-anchor="middle" x="173" y="-75.5" font-family="Helvetica,sans-Serif" font-size="10.00"> v</text>
</g>
<!-- Node6 -->
<g id="node6" class="node">
<title>Node6</title>
<g id="a_node6"><a xlink:title=" ">
<polygon fill="white" stroke="#bfbfbf" points="187.5,-68.5 187.5,-87.5 318.5,-87.5 318.5,-68.5 187.5,-68.5"/>
<text text-anchor="middle" x="253" y="-75.5" font-family="Helvetica,sans-Serif" font-size="10.00">std::vector&lt; Visitor * &gt;</text>
</a>
</g>
</g>
<!-- Node3&#45;&gt;Node6 -->
<g id="edge8" class="edge">
<title>Node3&#45;&gt;Node6</title>
<path fill="none" stroke="#9a32cd" stroke-dasharray="5,2" d="M205.99,-129.05C218.14,-116.11 234.82,-98.36 244.69,-87.84"/>
<polygon fill="#9a32cd" stroke="#9a32cd" points="203.4,-126.69 199.11,-136.37 208.5,-131.48 203.4,-126.69"/>
<text text-anchor="middle" x="250.5" y="-110" font-family="Helvetica,sans-Serif" font-size="10.00"> elements</text>
</g>
<!-- Node4 -->
<g id="node4" class="node">
<title>Node4</title>
<g id="a_node4"><a xlink:href="classcstring.html" target="_top" xlink:title=" ">
<polygon fill="white" stroke="black" points="166,-204.5 166,-223.5 216,-223.5 216,-204.5 166,-204.5"/>
<text text-anchor="middle" x="191" y="-211.5" font-family="Helvetica,sans-Serif" font-size="10.00">cstring</text>
</a>
</g>
</g>
<!-- Node4&#45;&gt;Node3 -->
<g id="edge3" class="edge">
<title>Node4&#45;&gt;Node3</title>
<path fill="none" stroke="#9a32cd" stroke-dasharray="5,2" d="M191,-194.04C191,-181.47 191,-165.56 191,-155.84"/>
<polygon fill="#9a32cd" stroke="#9a32cd" points="187.5,-194.37 191,-204.37 194.5,-194.37 187.5,-194.37"/>
<text text-anchor="middle" x="226" y="-177" font-family="Helvetica,sans-Serif" font-size="10.00"> internalName</text>
</g>
<!-- Node4&#45;&gt;Node4 -->
<g id="edge4" class="edge">
<title>Node4&#45;&gt;Node4</title>
<path fill="none" stroke="#9a32cd" stroke-dasharray="5,2" d="M226.45,-219.58C231,-218.61 234,-216.75 234,-214 234,-209.48 225.91,-207.37 216.18,-207.65"/>
<polygon fill="#9a32cd" stroke="#9a32cd" points="225.89,-216.11 216.18,-220.35 226.41,-223.1 225.89,-216.11"/>
<text text-anchor="middle" x="253.5" y="-217" font-family="Helvetica,sans-Serif" font-size="10.00"> empty</text>
<text text-anchor="middle" x="253.5" y="-206" font-family="Helvetica,sans-Serif" font-size="10.00">newline</text>
</g>
<!-- Node5&#45;&gt;Node3 -->
<g id="edge5" class="edge">
<title>Node5&#45;&gt;Node3</title>
<path fill="none" stroke="#9a32cd" stroke-dasharray="5,2" d="M282.71,-24.22C309.4,-38.5 342.97,-62.75 328,-89 305.35,-128.73 247.96,-140.29 215.1,-143.64"/>
<polygon fill="#9a32cd" stroke="#9a32cd" points="284.14,-21.03 273.64,-19.6 280.96,-27.26 284.14,-21.03"/>
<text text-anchor="middle" x="369" y="-81" font-family="Helvetica,sans-Serif" font-size="10.00"> split_link</text>
<text text-anchor="middle" x="369" y="-70" font-family="Helvetica,sans-Serif" font-size="10.00">split_link_mem</text>
</g>
<!-- Node5&#45;&gt;Node5 -->
<g id="edge6" class="edge">
<title>Node5&#45;&gt;Node5</title>
<path fill="none" stroke="#9a32cd" stroke-dasharray="5,2" d="M320.4,-14.4C325.12,-13.4 328,-11.93 328,-10 328,-6.91 320.62,-5.01 310.15,-4.31"/>
<polygon fill="#9a32cd" stroke="#9a32cd" points="319.63,-10.97 310.15,-15.69 320.51,-17.91 319.63,-10.97"/>
<text text-anchor="middle" x="340.5" y="-7.5" font-family="Helvetica,sans-Serif" font-size="10.00"> prev</text>
</g>
<!-- Node6&#45;&gt;Node5 -->
<g id="edge7" class="edge">
<title>Node6&#45;&gt;Node5</title>
<path fill="none" stroke="#9a32cd" stroke-dasharray="5,2" d="M253.29,-58.04C253.48,-45.47 253.72,-29.56 253.87,-19.84"/>
<polygon fill="#9a32cd" stroke="#9a32cd" points="249.78,-58.32 253.13,-68.37 256.78,-58.43 249.78,-58.32"/>
<text text-anchor="middle" x="273" y="-41" font-family="Helvetica,sans-Serif" font-size="10.00"> visitors</text>
</g>
</g>
</svg>
