<?xml version="1.0" encoding="UTF-8" standalone="no"?>
<!DOCTYPE svg PUBLIC "-//W3C//DTD SVG 1.1//EN"
 "http://www.w3.org/Graphics/SVG/1.1/DTD/svg11.dtd">
<!-- Generated by graphviz version 2.43.0 (0)
 -->
<!-- Title: P4Tools::ExtendedCallGraph&lt; T &gt; Pages: 1 -->
<svg width="253pt" height="174pt"
 viewBox="0.00 0.00 252.50 174.00" xmlns="http://www.w3.org/2000/svg" xmlns:xlink="http://www.w3.org/1999/xlink">
<g id="graph0" class="graph" transform="scale(1 1) rotate(0) translate(4 170)">
<title>P4Tools::ExtendedCallGraph&lt; T &gt;</title>
<polygon fill="white" stroke="transparent" points="-4,4 -4,-170 248.5,-170 248.5,4 -4,4"/>
<!-- Node1 -->
<g id="node1" class="node">
<title>Node1</title>
<g id="a_node1"><a xlink:title=" ">
<polygon fill="#bfbfbf" stroke="black" points="14,-0.5 14,-19.5 196,-19.5 196,-0.5 14,-0.5"/>
<text text-anchor="middle" x="105" y="-7.5" font-family="Helvetica,sans-Serif" font-size="10.00">P4Tools::ExtendedCallGraph&lt; T &gt;</text>
</a>
</g>
</g>
<!-- Node2 -->
<g id="node2" class="node">
<title>Node2</title>
<g id="a_node2"><a xlink:href="class_p4_1_1_call_graph.html" target="_top" xlink:title=" ">
<polygon fill="white" stroke="black" points="49.5,-57.5 49.5,-76.5 160.5,-76.5 160.5,-57.5 49.5,-57.5"/>
<text text-anchor="middle" x="105" y="-64.5" font-family="Helvetica,sans-Serif" font-size="10.00">P4::CallGraph&lt; T &gt;</text>
</a>
</g>
</g>
<!-- Node2&#45;&gt;Node1 -->
<g id="edge1" class="edge">
<title>Node2&#45;&gt;Node1</title>
<path fill="none" stroke="midnightblue" d="M105,-47.12C105,-37.82 105,-27.06 105,-19.71"/>
<polygon fill="midnightblue" stroke="midnightblue" points="101.5,-47.41 105,-57.41 108.5,-47.41 101.5,-47.41"/>
</g>
<!-- Node3 -->
<g id="node3" class="node">
<title>Node3</title>
<g id="a_node3"><a xlink:href="classcstring.html" target="_top" xlink:title=" ">
<polygon fill="white" stroke="black" points="0,-141 0,-160 50,-160 50,-141 0,-141"/>
<text text-anchor="middle" x="25" y="-148" font-family="Helvetica,sans-Serif" font-size="10.00">cstring</text>
</a>
</g>
</g>
<!-- Node3&#45;&gt;Node2 -->
<g id="edge2" class="edge">
<title>Node3&#45;&gt;Node2</title>
<path fill="none" stroke="#9a32cd" stroke-dasharray="5,2" d="M40.96,-133.24C57.68,-116.21 83.31,-90.1 96.5,-76.66"/>
<polygon fill="#9a32cd" stroke="#9a32cd" points="38.07,-131.19 33.56,-140.78 43.06,-136.09 38.07,-131.19"/>
<text text-anchor="middle" x="92.5" y="-103.5" font-family="Helvetica,sans-Serif" font-size="10.00"> name</text>
</g>
<!-- Node3&#45;&gt;Node3 -->
<g id="edge3" class="edge">
<title>Node3&#45;&gt;Node3</title>
<path fill="none" stroke="#9a32cd" stroke-dasharray="5,2" d="M60.45,-157.72C65,-156.47 68,-154.06 68,-150.5 68,-144.66 59.91,-141.92 50.18,-142.28"/>
<polygon fill="#9a32cd" stroke="#9a32cd" points="59.79,-154.27 50.18,-158.72 60.47,-161.24 59.79,-154.27"/>
<text text-anchor="middle" x="87.5" y="-153.5" font-family="Helvetica,sans-Serif" font-size="10.00"> empty</text>
<text text-anchor="middle" x="87.5" y="-142.5" font-family="Helvetica,sans-Serif" font-size="10.00">newline</text>
</g>
<!-- Node4 -->
<g id="node4" class="node">
<title>Node4</title>
<g id="a_node4"><a xlink:href="classordered__map.html" target="_top" xlink:title=" ">
<polygon fill="white" stroke="black" points="125.5,-135.5 125.5,-165.5 244.5,-165.5 244.5,-135.5 125.5,-135.5"/>
<text text-anchor="start" x="133.5" y="-153.5" font-family="Helvetica,sans-Serif" font-size="10.00">ordered_map&lt; T, std</text>
<text text-anchor="middle" x="185" y="-142.5" font-family="Helvetica,sans-Serif" font-size="10.00">::vector&lt; T &gt; * &gt;</text>
</a>
</g>
</g>
<!-- Node4&#45;&gt;Node2 -->
<g id="edge4" class="edge">
<title>Node4&#45;&gt;Node2</title>
<path fill="none" stroke="#9a32cd" stroke-dasharray="5,2" d="M163.92,-128.03C147.39,-111.19 125.26,-88.64 113.38,-76.54"/>
<polygon fill="#9a32cd" stroke="#9a32cd" points="161.56,-130.62 171.07,-135.3 166.56,-125.72 161.56,-130.62"/>
<text text-anchor="middle" x="177.5" y="-109" font-family="Helvetica,sans-Serif" font-size="10.00"> in_edges</text>
<text text-anchor="middle" x="177.5" y="-98" font-family="Helvetica,sans-Serif" font-size="10.00">out_edges</text>
</g>
</g>
</svg>
