<?xml version="1.0" encoding="UTF-8" standalone="no"?>
<!DOCTYPE svg PUBLIC "-//W3C//DTD SVG 1.1//EN"
 "http://www.w3.org/Graphics/SVG/1.1/DTD/svg11.dtd">
<!-- Generated by graphviz version 2.43.0 (0)
 -->
<!-- Title: DPDK::InjectFixedMetadataField Pages: 1 -->
<svg width="400pt" height="244pt"
 viewBox="0.00 0.00 399.50 244.00" xmlns="http://www.w3.org/2000/svg" xmlns:xlink="http://www.w3.org/1999/xlink">
<g id="graph0" class="graph" transform="scale(1 1) rotate(0) translate(4 240)">
<title>DPDK::InjectFixedMetadataField</title>
<polygon fill="white" stroke="transparent" points="-4,4 -4,-240 395.5,-240 395.5,4 -4,4"/>
<!-- Node1 -->
<g id="node1" class="node">
<title>Node1</title>
<g id="a_node1"><a xlink:title=" ">
<polygon fill="#bfbfbf" stroke="black" points="0,-0.5 0,-30.5 149,-30.5 149,-0.5 0,-0.5"/>
<text text-anchor="start" x="8" y="-18.5" font-family="Helvetica,sans-Serif" font-size="10.00">DPDK::InjectFixedMetadata</text>
<text text-anchor="middle" x="74.5" y="-7.5" font-family="Helvetica,sans-Serif" font-size="10.00">Field</text>
</a>
</g>
</g>
<!-- Node2 -->
<g id="node2" class="node">
<title>Node2</title>
<g id="a_node2"><a xlink:href="class_transform.html" target="_top" xlink:title=" ">
<polygon fill="white" stroke="black" points="42,-79.5 42,-98.5 107,-98.5 107,-79.5 42,-79.5"/>
<text text-anchor="middle" x="74.5" y="-86.5" font-family="Helvetica,sans-Serif" font-size="10.00">Transform</text>
</a>
</g>
</g>
<!-- Node2&#45;&gt;Node1 -->
<g id="edge1" class="edge">
<title>Node2&#45;&gt;Node1</title>
<path fill="none" stroke="midnightblue" d="M74.5,-68.9C74.5,-56.82 74.5,-41.47 74.5,-30.51"/>
<polygon fill="midnightblue" stroke="midnightblue" points="71,-69.23 74.5,-79.23 78,-69.23 71,-69.23"/>
</g>
<!-- Node3 -->
<g id="node3" class="node">
<title>Node3</title>
<g id="a_node3"><a xlink:href="class_visitor.html" target="_top" xlink:title=" ">
<polygon fill="white" stroke="black" points="151.5,-147.5 151.5,-166.5 199.5,-166.5 199.5,-147.5 151.5,-147.5"/>
<text text-anchor="middle" x="175.5" y="-154.5" font-family="Helvetica,sans-Serif" font-size="10.00">Visitor</text>
</a>
</g>
</g>
<!-- Node3&#45;&gt;Node2 -->
<g id="edge2" class="edge">
<title>Node3&#45;&gt;Node2</title>
<path fill="none" stroke="midnightblue" d="M150.91,-142.09C143.92,-138 136.34,-133.42 129.5,-129 114.16,-119.09 97.09,-106.77 86.1,-98.67"/>
<polygon fill="midnightblue" stroke="midnightblue" points="149.56,-145.35 159.97,-147.33 153.06,-139.29 149.56,-145.35"/>
</g>
<!-- Node3&#45;&gt;Node3 -->
<g id="edge10" class="edge">
<title>Node3&#45;&gt;Node3</title>
<path fill="none" stroke="#9a32cd" stroke-dasharray="5,2" d="M209.92,-162.29C214.48,-161.39 217.5,-159.63 217.5,-157 217.5,-152.69 209.36,-150.7 199.67,-151.04"/>
<polygon fill="#9a32cd" stroke="#9a32cd" points="209.42,-158.82 199.67,-162.96 209.88,-165.8 209.42,-158.82"/>
<text text-anchor="middle" x="242.5" y="-154.5" font-family="Helvetica,sans-Serif" font-size="10.00"> called_by</text>
</g>
<!-- Node5 -->
<g id="node5" class="node">
<title>Node5</title>
<g id="a_node5"><a xlink:href="class_split_flow_visit__base.html" target="_top" xlink:title=" ">
<polygon fill="white" stroke="black" points="181.5,-6 181.5,-25 293.5,-25 293.5,-6 181.5,-6"/>
<text text-anchor="middle" x="237.5" y="-13" font-family="Helvetica,sans-Serif" font-size="10.00">SplitFlowVisit_base</text>
</a>
</g>
</g>
<!-- Node3&#45;&gt;Node5 -->
<g id="edge9" class="edge">
<title>Node3&#45;&gt;Node5</title>
<path fill="none" stroke="#9a32cd" stroke-dasharray="5,2" d="M163.35,-138.93C153.37,-122.65 142.41,-97.76 152.5,-78 165.76,-52.05 195.65,-34.51 216.2,-25.01"/>
<polygon fill="#9a32cd" stroke="#9a32cd" points="160.51,-140.99 168.94,-147.42 166.36,-137.14 160.51,-140.99"/>
<text text-anchor="middle" x="157.5" y="-86.5" font-family="Helvetica,sans-Serif" font-size="10.00"> v</text>
</g>
<!-- Node6 -->
<g id="node6" class="node">
<title>Node6</title>
<g id="a_node6"><a xlink:title=" ">
<polygon fill="white" stroke="#bfbfbf" points="172,-79.5 172,-98.5 303,-98.5 303,-79.5 172,-79.5"/>
<text text-anchor="middle" x="237.5" y="-86.5" font-family="Helvetica,sans-Serif" font-size="10.00">std::vector&lt; Visitor * &gt;</text>
</a>
</g>
</g>
<!-- Node3&#45;&gt;Node6 -->
<g id="edge8" class="edge">
<title>Node3&#45;&gt;Node6</title>
<path fill="none" stroke="#9a32cd" stroke-dasharray="5,2" d="M190.49,-140.05C202.64,-127.11 219.32,-109.36 229.19,-98.84"/>
<polygon fill="#9a32cd" stroke="#9a32cd" points="187.9,-137.69 183.61,-147.37 193,-142.48 187.9,-137.69"/>
<text text-anchor="middle" x="235" y="-121" font-family="Helvetica,sans-Serif" font-size="10.00"> elements</text>
</g>
<!-- Node4 -->
<g id="node4" class="node">
<title>Node4</title>
<g id="a_node4"><a xlink:href="classcstring.html" target="_top" xlink:title=" ">
<polygon fill="white" stroke="black" points="150.5,-215.5 150.5,-234.5 200.5,-234.5 200.5,-215.5 150.5,-215.5"/>
<text text-anchor="middle" x="175.5" y="-222.5" font-family="Helvetica,sans-Serif" font-size="10.00">cstring</text>
</a>
</g>
</g>
<!-- Node4&#45;&gt;Node3 -->
<g id="edge3" class="edge">
<title>Node4&#45;&gt;Node3</title>
<path fill="none" stroke="#9a32cd" stroke-dasharray="5,2" d="M175.5,-205.04C175.5,-192.47 175.5,-176.56 175.5,-166.84"/>
<polygon fill="#9a32cd" stroke="#9a32cd" points="172,-205.37 175.5,-215.37 179,-205.37 172,-205.37"/>
<text text-anchor="middle" x="210.5" y="-188" font-family="Helvetica,sans-Serif" font-size="10.00"> internalName</text>
</g>
<!-- Node4&#45;&gt;Node4 -->
<g id="edge4" class="edge">
<title>Node4&#45;&gt;Node4</title>
<path fill="none" stroke="#9a32cd" stroke-dasharray="5,2" d="M210.95,-230.58C215.5,-229.61 218.5,-227.75 218.5,-225 218.5,-220.48 210.41,-218.37 200.68,-218.65"/>
<polygon fill="#9a32cd" stroke="#9a32cd" points="210.39,-227.11 200.68,-231.35 210.91,-234.1 210.39,-227.11"/>
<text text-anchor="middle" x="238" y="-228" font-family="Helvetica,sans-Serif" font-size="10.00"> empty</text>
<text text-anchor="middle" x="238" y="-217" font-family="Helvetica,sans-Serif" font-size="10.00">newline</text>
</g>
<!-- Node5&#45;&gt;Node3 -->
<g id="edge5" class="edge">
<title>Node5&#45;&gt;Node3</title>
<path fill="none" stroke="#9a32cd" stroke-dasharray="5,2" d="M265.07,-29.98C292.53,-45.35 328.46,-72.02 312.5,-100 289.85,-139.73 232.46,-151.29 199.6,-154.64"/>
<polygon fill="#9a32cd" stroke="#9a32cd" points="266.64,-26.85 256.18,-25.21 263.34,-33.02 266.64,-26.85"/>
<text text-anchor="middle" x="353.5" y="-92" font-family="Helvetica,sans-Serif" font-size="10.00"> split_link</text>
<text text-anchor="middle" x="353.5" y="-81" font-family="Helvetica,sans-Serif" font-size="10.00">split_link_mem</text>
</g>
<!-- Node5&#45;&gt;Node5 -->
<g id="edge6" class="edge">
<title>Node5&#45;&gt;Node5</title>
<path fill="none" stroke="#9a32cd" stroke-dasharray="5,2" d="M303.54,-20.81C308.47,-19.62 311.5,-17.85 311.5,-15.5 311.5,-11.83 304.12,-9.57 293.65,-8.74"/>
<polygon fill="#9a32cd" stroke="#9a32cd" points="303.03,-17.35 293.65,-22.26 304.05,-24.27 303.03,-17.35"/>
<text text-anchor="middle" x="324" y="-13" font-family="Helvetica,sans-Serif" font-size="10.00"> prev</text>
</g>
<!-- Node6&#45;&gt;Node5 -->
<g id="edge7" class="edge">
<title>Node6&#45;&gt;Node5</title>
<path fill="none" stroke="#9a32cd" stroke-dasharray="5,2" d="M237.5,-69.09C237.5,-54.93 237.5,-36.2 237.5,-25.34"/>
<polygon fill="#9a32cd" stroke="#9a32cd" points="234,-69.23 237.5,-79.23 241,-69.23 234,-69.23"/>
<text text-anchor="middle" x="257.5" y="-52" font-family="Helvetica,sans-Serif" font-size="10.00"> visitors</text>
</g>
</g>
</svg>
