<?xml version="1.0" encoding="UTF-8" standalone="no"?>
<!DOCTYPE svg PUBLIC "-//W3C//DTD SVG 1.1//EN"
 "http://www.w3.org/Graphics/SVG/1.1/DTD/svg11.dtd">
<!-- Generated by graphviz version 2.43.0 (0)
 -->
<!-- Title: P4::ToP4 Pages: 1 -->
<!--zoomable 301 -->
<svg id="main" version="1.1" xmlns="http://www.w3.org/2000/svg" xmlns:xlink="http://www.w3.org/1999/xlink" xml:space="preserve" onload="init(evt)">
<style type="text/css"><![CDATA[
.edge:hover path { stroke: red; }
.edge:hover polygon { stroke: red; fill: red; }
]]></style>
<script type="text/javascript"><![CDATA[
var edges = document.getElementsByTagName('g');
if (edges && edges.length) {
  for (var i=0;i<edges.length;i++) {
    if (edges[i].id.substr(0,4)=='edge') {
      edges[i].setAttribute('class','edge');
    }
  }
}
]]></script>
        <defs>
                <circle id="rim" cx="0" cy="0" r="7"/>
                <circle id="rim2" cx="0" cy="0" r="3.5"/>
                <g id="zoomPlus">
                        <use xlink:href="#rim" fill="#404040">
                                <set attributeName="fill" to="#808080" begin="zoomplus.mouseover" end="zoomplus.mouseout"/>
                        </use>
                        <path d="M-4,0h8M0,-4v8" fill="none" stroke="white" stroke-width="1.5" pointer-events="none"/>
                </g>
                <g id="zoomMin">
                        <use xlink:href="#rim" fill="#404040">
                                <set attributeName="fill" to="#808080" begin="zoomminus.mouseover" end="zoomminus.mouseout"/>
                        </use>
                        <path d="M-4,0h8" fill="none" stroke="white" stroke-width="1.5" pointer-events="none"/>
                </g>
                <g id="dirArrow">
                        <path fill="none" stroke="white" stroke-width="1.5" d="M0,-3.0v7 M-2.5,-0.5L0,-3.0L2.5,-0.5"/>
                </g>
               <g id="resetDef">
                       <use xlink:href="#rim2" fill="#404040">
                               <set attributeName="fill" to="#808080" begin="reset.mouseover" end="reset.mouseout"/>
                       </use>
               </g>
        </defs>

<script type="text/javascript">
var viewWidth = 665;
var viewHeight = 301;
var sectionId = 'dynsection-1';
</script>
<script xlink:href="svgpan.js"/>
<svg id="graph" class="graph">
<g id="viewport">
<title>P4::ToP4</title>
<polygon fill="white" stroke="transparent" points="-4,4 -4,-297 661.32,-297 661.32,4 -4,4"/>
<!-- Node1 -->
<g id="node1" class="node">
<title>Node1</title>
<g id="a_node1"><a xlink:title=" ">
<polygon fill="#bfbfbf" stroke="black" points="394.82,-0.5 394.82,-19.5 451.82,-19.5 451.82,-0.5 394.82,-0.5"/>
<text text-anchor="middle" x="423.32" y="-7.5" font-family="Helvetica,sans-Serif" font-size="10.00">P4::ToP4</text>
</a>
</g>
</g>
<!-- Node2 -->
<g id="node2" class="node">
<title>Node2</title>
<g id="a_node2"><a xlink:href="class_inspector.html" target="_top" xlink:title=" ">
<polygon fill="white" stroke="black" points="286.32,-68.5 286.32,-87.5 348.32,-87.5 348.32,-68.5 286.32,-68.5"/>
<text text-anchor="middle" x="317.32" y="-75.5" font-family="Helvetica,sans-Serif" font-size="10.00">Inspector</text>
</a>
</g>
</g>
<!-- Node2&#45;&gt;Node1 -->
<g id="edge1" class="edge">
<title>Node2&#45;&gt;Node1</title>
<path fill="none" stroke="midnightblue" d="M333.06,-61.3C341.3,-53.63 351.84,-44.65 362.32,-38 373.96,-30.62 387.96,-24.26 399.61,-19.58"/>
<polygon fill="midnightblue" stroke="midnightblue" points="330.45,-58.95 325.67,-68.4 335.3,-64 330.45,-58.95"/>
</g>
<!-- Node3 -->
<g id="node3" class="node">
<title>Node3</title>
<g id="a_node3"><a xlink:href="class_visitor.html" target="_top" xlink:title=" ">
<polygon fill="white" stroke="black" points="168.32,-142 168.32,-161 216.32,-161 216.32,-142 168.32,-142"/>
<text text-anchor="middle" x="192.32" y="-149" font-family="Helvetica,sans-Serif" font-size="10.00">Visitor</text>
</a>
</g>
</g>
<!-- Node3&#45;&gt;Node2 -->
<g id="edge2" class="edge">
<title>Node3&#45;&gt;Node2</title>
<path fill="none" stroke="midnightblue" d="M216.64,-136.59C242.02,-122.07 281.01,-99.77 302.26,-87.62"/>
<polygon fill="midnightblue" stroke="midnightblue" points="214.59,-133.73 207.65,-141.73 218.06,-139.81 214.59,-133.73"/>
</g>
<!-- Node3&#45;&gt;Node3 -->
<g id="edge10" class="edge">
<title>Node3&#45;&gt;Node3</title>
<path fill="none" stroke="#9a32cd" stroke-dasharray="5,2" d="M226.74,-157.79C231.3,-156.72 234.32,-154.62 234.32,-151.5 234.32,-146.38 226.18,-144.02 216.49,-144.42"/>
<polygon fill="#9a32cd" stroke="#9a32cd" points="226.19,-154.32 216.49,-158.58 226.73,-161.3 226.19,-154.32"/>
<text text-anchor="middle" x="259.32" y="-149" font-family="Helvetica,sans-Serif" font-size="10.00"> called_by</text>
</g>
<!-- Node5 -->
<g id="node5" class="node">
<title>Node5</title>
<g id="a_node5"><a xlink:href="class_split_flow_visit__base.html" target="_top" xlink:title=" ">
<polygon fill="white" stroke="black" points="34.32,-0.5 34.32,-19.5 146.32,-19.5 146.32,-0.5 34.32,-0.5"/>
<text text-anchor="middle" x="90.32" y="-7.5" font-family="Helvetica,sans-Serif" font-size="10.00">SplitFlowVisit_base</text>
</a>
</g>
</g>
<!-- Node3&#45;&gt;Node5 -->
<g id="edge9" class="edge">
<title>Node3&#45;&gt;Node5</title>
<path fill="none" stroke="#9a32cd" stroke-dasharray="5,2" d="M157.89,-150.45C114.17,-148.29 40.21,-137.21 5.32,-89 -15.94,-59.63 35.36,-32.8 67.23,-19.6"/>
<polygon fill="#9a32cd" stroke="#9a32cd" points="157.93,-153.95 168.05,-150.81 158.18,-146.95 157.93,-153.95"/>
<text text-anchor="middle" x="10.32" y="-75.5" font-family="Helvetica,sans-Serif" font-size="10.00"> v</text>
</g>
<!-- Node6 -->
<g id="node6" class="node">
<title>Node6</title>
<g id="a_node6"><a xlink:title=" ">
<polygon fill="white" stroke="#bfbfbf" points="24.82,-68.5 24.82,-87.5 155.82,-87.5 155.82,-68.5 24.82,-68.5"/>
<text text-anchor="middle" x="90.32" y="-75.5" font-family="Helvetica,sans-Serif" font-size="10.00">std::vector&lt; Visitor * &gt;</text>
</a>
</g>
</g>
<!-- Node3&#45;&gt;Node6 -->
<g id="edge8" class="edge">
<title>Node3&#45;&gt;Node6</title>
<path fill="none" stroke="#9a32cd" stroke-dasharray="5,2" d="M162.64,-137.54C151.72,-132.18 139.54,-125.47 129.32,-118 116.95,-108.96 104.81,-95.99 97.44,-87.53"/>
<polygon fill="#9a32cd" stroke="#9a32cd" points="161.28,-140.77 171.82,-141.89 164.28,-134.45 161.28,-140.77"/>
<text text-anchor="middle" x="153.82" y="-110" font-family="Helvetica,sans-Serif" font-size="10.00"> elements</text>
</g>
<!-- Node4 -->
<g id="node4" class="node">
<title>Node4</title>
<g id="a_node4"><a xlink:href="classcstring.html" target="_top" xlink:title=" ">
<polygon fill="white" stroke="black" points="284.32,-215.5 284.32,-234.5 334.32,-234.5 334.32,-215.5 284.32,-215.5"/>
<text text-anchor="middle" x="309.32" y="-222.5" font-family="Helvetica,sans-Serif" font-size="10.00">cstring</text>
</a>
</g>
</g>
<!-- Node4&#45;&gt;Node1 -->
<g id="edge12" class="edge">
<title>Node4&#45;&gt;Node1</title>
<path fill="none" stroke="#9a32cd" stroke-dasharray="5,2" d="M325.91,-207.84C329.25,-204.13 332.58,-200.07 335.32,-196 370.6,-143.52 367.84,-123.95 395.32,-67 403.44,-50.16 413.29,-30.67 418.88,-19.69"/>
<polygon fill="#9a32cd" stroke="#9a32cd" points="323.16,-205.65 318.77,-215.29 328.21,-210.49 323.16,-205.65"/>
<text text-anchor="middle" x="401.32" y="-110" font-family="Helvetica,sans-Serif" font-size="10.00"> mainFile</text>
</g>
<!-- Node4&#45;&gt;Node3 -->
<g id="edge3" class="edge">
<title>Node4&#45;&gt;Node3</title>
<path fill="none" stroke="#9a32cd" stroke-dasharray="5,2" d="M286.24,-209.9C262.48,-195.37 226.21,-173.21 206.42,-161.12"/>
<polygon fill="#9a32cd" stroke="#9a32cd" points="284.61,-213 294.97,-215.23 288.27,-207.03 284.61,-213"/>
<text text-anchor="middle" x="296.32" y="-188" font-family="Helvetica,sans-Serif" font-size="10.00"> internalName</text>
</g>
<!-- Node4&#45;&gt;Node4 -->
<g id="edge4" class="edge">
<title>Node4&#45;&gt;Node4</title>
<path fill="none" stroke="#9a32cd" stroke-dasharray="5,2" d="M344.77,-229.6C349.31,-228.8 352.32,-227.27 352.32,-225 352.32,-221.28 344.23,-219.54 334.49,-219.77"/>
<polygon fill="#9a32cd" stroke="#9a32cd" points="344.26,-226.12 334.49,-230.23 344.69,-233.11 344.26,-226.12"/>
<text text-anchor="middle" x="371.82" y="-228" font-family="Helvetica,sans-Serif" font-size="10.00"> empty</text>
<text text-anchor="middle" x="371.82" y="-217" font-family="Helvetica,sans-Serif" font-size="10.00">newline</text>
</g>
<!-- Node5&#45;&gt;Node3 -->
<g id="edge5" class="edge">
<title>Node5&#45;&gt;Node3</title>
<path fill="none" stroke="#9a32cd" stroke-dasharray="5,2" d="M116.88,-24.7C133.02,-34.38 152.7,-48.85 164.32,-67 180.07,-91.59 187.9,-125.97 190.87,-141.84"/>
<polygon fill="#9a32cd" stroke="#9a32cd" points="118.29,-21.47 107.87,-19.56 114.82,-27.56 118.29,-21.47"/>
<text text-anchor="middle" x="214.32" y="-81" font-family="Helvetica,sans-Serif" font-size="10.00"> split_link</text>
<text text-anchor="middle" x="214.32" y="-70" font-family="Helvetica,sans-Serif" font-size="10.00">split_link_mem</text>
</g>
<!-- Node5&#45;&gt;Node5 -->
<g id="edge6" class="edge">
<title>Node5&#45;&gt;Node5</title>
<path fill="none" stroke="#9a32cd" stroke-dasharray="5,2" d="M156.72,-14.4C161.44,-13.4 164.32,-11.93 164.32,-10 164.32,-6.91 156.94,-5.01 146.47,-4.31"/>
<polygon fill="#9a32cd" stroke="#9a32cd" points="155.95,-10.97 146.47,-15.69 156.82,-17.91 155.95,-10.97"/>
<text text-anchor="middle" x="176.82" y="-7.5" font-family="Helvetica,sans-Serif" font-size="10.00"> prev</text>
</g>
<!-- Node6&#45;&gt;Node5 -->
<g id="edge7" class="edge">
<title>Node6&#45;&gt;Node5</title>
<path fill="none" stroke="#9a32cd" stroke-dasharray="5,2" d="M90.32,-58.04C90.32,-45.47 90.32,-29.56 90.32,-19.84"/>
<polygon fill="#9a32cd" stroke="#9a32cd" points="86.82,-58.37 90.32,-68.37 93.82,-58.37 86.82,-58.37"/>
<text text-anchor="middle" x="110.32" y="-41" font-family="Helvetica,sans-Serif" font-size="10.00"> visitors</text>
</g>
<!-- Node7 -->
<g id="node7" class="node">
<title>Node7</title>
<g id="a_node7"><a xlink:href="class_util_1_1_source_code_builder.html" target="_top" xlink:title=" ">
<polygon fill="white" stroke="black" points="404.32,-68.5 404.32,-87.5 536.32,-87.5 536.32,-68.5 404.32,-68.5"/>
<text text-anchor="middle" x="470.32" y="-75.5" font-family="Helvetica,sans-Serif" font-size="10.00">Util::SourceCodeBuilder</text>
</a>
</g>
</g>
<!-- Node7&#45;&gt;Node1 -->
<g id="edge11" class="edge">
<title>Node7&#45;&gt;Node1</title>
<path fill="none" stroke="#9a32cd" stroke-dasharray="5,2" d="M458.17,-59.94C449.04,-47.11 436.89,-30.06 429.62,-19.84"/>
<polygon fill="#9a32cd" stroke="#9a32cd" points="455.52,-62.26 464.17,-68.37 461.23,-58.2 455.52,-62.26"/>
<text text-anchor="middle" x="468.82" y="-41" font-family="Helvetica,sans-Serif" font-size="10.00"> builder</text>
</g>
<!-- Node8 -->
<g id="node8" class="node">
<title>Node8</title>
<g id="a_node8"><a xlink:title=" ">
<polygon fill="white" stroke="#bfbfbf" points="554.32,-68.5 554.32,-87.5 632.32,-87.5 632.32,-68.5 554.32,-68.5"/>
<text text-anchor="middle" x="593.32" y="-75.5" font-family="Helvetica,sans-Serif" font-size="10.00">std::ostream</text>
</a>
</g>
</g>
<!-- Node8&#45;&gt;Node1 -->
<g id="edge13" class="edge">
<title>Node8&#45;&gt;Node1</title>
<path fill="none" stroke="#9a32cd" stroke-dasharray="5,2" d="M561.65,-64.71C527.76,-51.55 474.88,-31.02 445.28,-19.53"/>
<polygon fill="#9a32cd" stroke="#9a32cd" points="560.51,-68.02 571.09,-68.37 563.04,-61.49 560.51,-68.02"/>
<text text-anchor="middle" x="546.82" y="-41" font-family="Helvetica,sans-Serif" font-size="10.00"> outStream</text>
</g>
<!-- Node9 -->
<g id="node9" class="node">
<title>Node9</title>
<g id="a_node9"><a xlink:title=" ">
<polygon fill="white" stroke="#bfbfbf" points="538.82,-136.5 538.82,-166.5 647.82,-166.5 647.82,-136.5 538.82,-136.5"/>
<text text-anchor="start" x="546.82" y="-154.5" font-family="Helvetica,sans-Serif" font-size="10.00">std::basic_ostream</text>
<text text-anchor="middle" x="593.32" y="-143.5" font-family="Helvetica,sans-Serif" font-size="10.00">&lt; Char &gt;</text>
</a>
</g>
</g>
<!-- Node9&#45;&gt;Node8 -->
<g id="edge14" class="edge">
<title>Node9&#45;&gt;Node8</title>
<path fill="none" stroke="midnightblue" d="M593.32,-126.36C593.32,-113.01 593.32,-97.25 593.32,-87.7"/>
<polygon fill="midnightblue" stroke="midnightblue" points="589.82,-126.37 593.32,-136.37 596.82,-126.37 589.82,-126.37"/>
</g>
<!-- Node10 -->
<g id="node10" class="node">
<title>Node10</title>
<g id="a_node10"><a xlink:title=" ">
<polygon fill="white" stroke="#bfbfbf" points="529.32,-215.5 529.32,-234.5 657.32,-234.5 657.32,-215.5 529.32,-215.5"/>
<text text-anchor="middle" x="593.32" y="-222.5" font-family="Helvetica,sans-Serif" font-size="10.00">std::basic_ios&lt; Char &gt;</text>
</a>
</g>
</g>
<!-- Node10&#45;&gt;Node9 -->
<g id="edge15" class="edge">
<title>Node10&#45;&gt;Node9</title>
<path fill="none" stroke="midnightblue" d="M593.32,-204.9C593.32,-192.82 593.32,-177.47 593.32,-166.51"/>
<polygon fill="midnightblue" stroke="midnightblue" points="589.82,-205.23 593.32,-215.23 596.82,-205.23 589.82,-205.23"/>
</g>
<!-- Node11 -->
<g id="node11" class="node">
<title>Node11</title>
<g id="a_node11"><a xlink:title=" ">
<polygon fill="white" stroke="#bfbfbf" points="553.32,-273.5 553.32,-292.5 633.32,-292.5 633.32,-273.5 553.32,-273.5"/>
<text text-anchor="middle" x="593.32" y="-280.5" font-family="Helvetica,sans-Serif" font-size="10.00">std::ios_base</text>
</a>
</g>
</g>
<!-- Node11&#45;&gt;Node10 -->
<g id="edge16" class="edge">
<title>Node11&#45;&gt;Node10</title>
<path fill="none" stroke="midnightblue" d="M593.32,-262.95C593.32,-253.29 593.32,-242.03 593.32,-234.51"/>
<polygon fill="midnightblue" stroke="midnightblue" points="589.82,-263.25 593.32,-273.25 596.82,-263.25 589.82,-263.25"/>
</g>
</g>
</svg>
        <g id="navigator" transform="translate(0 0)" fill="#404254">
                <rect fill="#f2f5e9" fill-opacity="0.5" stroke="#606060" stroke-width=".5" x="0" y="0" width="60" height="60"/>
                <use id="zoomplus" xlink:href="#zoomPlus" x="17" y="9" onmousedown="handleZoom(evt,'in')"/>
                <use id="zoomminus" xlink:href="#zoomMin" x="42" y="9" onmousedown="handleZoom(evt,'out')"/>
                <use id="reset" xlink:href="#resetDef" x="30" y="36" onmousedown="handleReset()"/>
                <g id="arrowUp" xlink:href="#dirArrow" transform="translate(30 24)" onmousedown="handlePan(0,-1)">
                  <use xlink:href="#rim" fill="#404040">
                        <set attributeName="fill" to="#808080" begin="arrowUp.mouseover" end="arrowUp.mouseout"/>
                  </use>
                  <path fill="none" stroke="white" stroke-width="1.5" d="M0,-3.0v7 M-2.5,-0.5L0,-3.0L2.5,-0.5"/>
                </g>
                <g id="arrowRight" xlink:href="#dirArrow" transform="rotate(90) translate(36 -43)" onmousedown="handlePan(1,0)">
                  <use xlink:href="#rim" fill="#404040">
                        <set attributeName="fill" to="#808080" begin="arrowRight.mouseover" end="arrowRight.mouseout"/>
                  </use>
                  <path fill="none" stroke="white" stroke-width="1.5" d="M0,-3.0v7 M-2.5,-0.5L0,-3.0L2.5,-0.5"/>
                </g>
                <g id="arrowDown" xlink:href="#dirArrow" transform="rotate(180) translate(-30 -48)" onmousedown="handlePan(0,1)">
                  <use xlink:href="#rim" fill="#404040">
                        <set attributeName="fill" to="#808080" begin="arrowDown.mouseover" end="arrowDown.mouseout"/>
                  </use>
                  <path fill="none" stroke="white" stroke-width="1.5" d="M0,-3.0v7 M-2.5,-0.5L0,-3.0L2.5,-0.5"/>
                </g>
                <g id="arrowLeft" xlink:href="#dirArrow" transform="rotate(270) translate(-36 17)" onmousedown="handlePan(-1,0)">
                  <use xlink:href="#rim" fill="#404040">
                        <set attributeName="fill" to="#808080" begin="arrowLeft.mouseover" end="arrowLeft.mouseout"/>
                  </use>
                  <path fill="none" stroke="white" stroke-width="1.5" d="M0,-3.0v7 M-2.5,-0.5L0,-3.0L2.5,-0.5"/>
                </g>
        </g>
        <svg viewBox="0 0 15 15" width="100%" height="30px" preserveAspectRatio="xMaxYMin meet">
         <g id="arrow_out" transform="scale(0.3 0.3)">
          <a xlink:href="class_p4_1_1_to_p4__coll__graph_org.svg" target="_base">
           <rect id="button" ry="5" rx="5" y="6" x="6" height="38" width="38"
                fill="#f2f5e9" fill-opacity="0.5" stroke="#606060" stroke-width="1.0"/>
           <path id="arrow"
             d="M 11.500037,31.436501 C 11.940474,20.09759 22.043105,11.32322 32.158766,21.979434 L 37.068811,17.246167 C 37.068811,17.246167 37.088388,32 37.088388,32 L 22.160133,31.978069 C 22.160133,31.978069 26.997745,27.140456 26.997745,27.140456 C 18.528582,18.264221 13.291696,25.230495 11.500037,31.436501 z"
             style="fill:#404040;"/>
          </a>
         </g>
        </svg>
</svg>
