<?xml version="1.0" encoding="UTF-8" standalone="no"?>
<!DOCTYPE svg PUBLIC "-//W3C//DTD SVG 1.1//EN"
 "http://www.w3.org/Graphics/SVG/1.1/DTD/svg11.dtd">
<!-- Generated by graphviz version 2.43.0 (0)
 -->
<!-- Title: IR::VectorBase Pages: 1 -->
<svg width="419pt" height="289pt"
 viewBox="0.00 0.00 418.50 289.00" xmlns="http://www.w3.org/2000/svg" xmlns:xlink="http://www.w3.org/1999/xlink">
<g id="graph0" class="graph" transform="scale(1 1) rotate(0) translate(4 285)">
<title>IR::VectorBase</title>
<polygon fill="white" stroke="transparent" points="-4,4 -4,-285 414.5,-285 414.5,4 -4,4"/>
<!-- Node1 -->
<g id="node1" class="node">
<title>Node1</title>
<g id="a_node1"><a xlink:title=" ">
<polygon fill="#bfbfbf" stroke="black" points="193,-0.5 193,-19.5 280,-19.5 280,-0.5 193,-0.5"/>
<text text-anchor="middle" x="236.5" y="-7.5" font-family="Helvetica,sans-Serif" font-size="10.00">IR::VectorBase</text>
</a>
</g>
</g>
<!-- Node2 -->
<g id="node2" class="node">
<title>Node2</title>
<g id="a_node2"><a xlink:href="class_i_r_1_1_node.html" target="_top" xlink:title=" ">
<polygon fill="white" stroke="black" points="207.5,-57.5 207.5,-76.5 265.5,-76.5 265.5,-57.5 207.5,-57.5"/>
<text text-anchor="middle" x="236.5" y="-64.5" font-family="Helvetica,sans-Serif" font-size="10.00">IR::Node</text>
</a>
</g>
</g>
<!-- Node2&#45;&gt;Node1 -->
<g id="edge1" class="edge">
<title>Node2&#45;&gt;Node1</title>
<path fill="none" stroke="midnightblue" d="M236.5,-47.12C236.5,-37.82 236.5,-27.06 236.5,-19.71"/>
<polygon fill="midnightblue" stroke="midnightblue" points="233,-47.41 236.5,-57.41 240,-47.41 233,-47.41"/>
</g>
<!-- Node3 -->
<g id="node3" class="node">
<title>Node3</title>
<g id="a_node3"><a xlink:href="class_i_r_1_1_i_node.html" target="_top" xlink:title=" ">
<polygon fill="white" stroke="black" points="159,-124.5 159,-143.5 220,-143.5 220,-124.5 159,-124.5"/>
<text text-anchor="middle" x="189.5" y="-131.5" font-family="Helvetica,sans-Serif" font-size="10.00">IR::INode</text>
</a>
</g>
</g>
<!-- Node3&#45;&gt;Node2 -->
<g id="edge2" class="edge">
<title>Node3&#45;&gt;Node2</title>
<path fill="none" stroke="midnightblue" d="M201.86,-115.9C210.99,-103.27 223.05,-86.6 230.26,-76.63"/>
<polygon fill="midnightblue" stroke="midnightblue" points="198.86,-114.08 195.84,-124.23 204.53,-118.18 198.86,-114.08"/>
</g>
<!-- Node4 -->
<g id="node4" class="node">
<title>Node4</title>
<g id="a_node4"><a xlink:href="class_util_1_1_i_has_source_info.html" target="_top" xlink:title=" ">
<polygon fill="white" stroke="black" points="0,-203.5 0,-222.5 113,-222.5 113,-203.5 0,-203.5"/>
<text text-anchor="middle" x="56.5" y="-210.5" font-family="Helvetica,sans-Serif" font-size="10.00">Util::IHasSourceInfo</text>
</a>
</g>
</g>
<!-- Node4&#45;&gt;Node3 -->
<g id="edge3" class="edge">
<title>Node4&#45;&gt;Node3</title>
<path fill="none" stroke="midnightblue" d="M80.16,-198.3C107.54,-182.45 151.78,-156.84 174.69,-143.57"/>
<polygon fill="midnightblue" stroke="midnightblue" points="78.14,-195.43 71.24,-203.47 81.65,-201.48 78.14,-195.43"/>
</g>
<!-- Node5 -->
<g id="node5" class="node">
<title>Node5</title>
<g id="a_node5"><a xlink:href="class_i_has_db_print.html" target="_top" xlink:title=" ">
<polygon fill="white" stroke="black" points="131.5,-203.5 131.5,-222.5 205.5,-222.5 205.5,-203.5 131.5,-203.5"/>
<text text-anchor="middle" x="168.5" y="-210.5" font-family="Helvetica,sans-Serif" font-size="10.00">IHasDbPrint</text>
</a>
</g>
</g>
<!-- Node5&#45;&gt;Node3 -->
<g id="edge4" class="edge">
<title>Node5&#45;&gt;Node3</title>
<path fill="none" stroke="midnightblue" d="M173.47,-193.77C177.77,-178.02 183.79,-155.92 187.1,-143.81"/>
<polygon fill="midnightblue" stroke="midnightblue" points="170.08,-192.9 170.83,-203.47 176.84,-194.74 170.08,-192.9"/>
</g>
<!-- Node6 -->
<g id="node6" class="node">
<title>Node6</title>
<g id="a_node6"><a xlink:href="class_i_castable.html" target="_top" xlink:title=" ">
<polygon fill="white" stroke="black" points="223.5,-203.5 223.5,-222.5 285.5,-222.5 285.5,-203.5 223.5,-203.5"/>
<text text-anchor="middle" x="254.5" y="-210.5" font-family="Helvetica,sans-Serif" font-size="10.00">ICastable</text>
</a>
</g>
</g>
<!-- Node6&#45;&gt;Node3 -->
<g id="edge5" class="edge">
<title>Node6&#45;&gt;Node3</title>
<path fill="none" stroke="midnightblue" d="M240.62,-195.56C227.26,-179.73 207.56,-156.39 196.94,-143.81"/>
<polygon fill="midnightblue" stroke="midnightblue" points="238.17,-198.08 247.3,-203.47 243.52,-193.57 238.17,-198.08"/>
</g>
<!-- Node7 -->
<g id="node7" class="node">
<title>Node7</title>
<g id="a_node7"><a xlink:href="struct_r_t_t_i_1_1_base.html" target="_top" xlink:title=" ">
<polygon fill="white" stroke="black" points="220.5,-261.5 220.5,-280.5 288.5,-280.5 288.5,-261.5 220.5,-261.5"/>
<text text-anchor="middle" x="254.5" y="-268.5" font-family="Helvetica,sans-Serif" font-size="10.00">RTTI::Base</text>
</a>
</g>
</g>
<!-- Node7&#45;&gt;Node6 -->
<g id="edge6" class="edge">
<title>Node7&#45;&gt;Node6</title>
<path fill="none" stroke="midnightblue" d="M254.5,-250.95C254.5,-241.29 254.5,-230.03 254.5,-222.51"/>
<polygon fill="midnightblue" stroke="midnightblue" points="251,-251.25 254.5,-261.25 258,-251.25 251,-251.25"/>
</g>
<!-- Node8 -->
<g id="node8" class="node">
<title>Node8</title>
<g id="a_node8"><a xlink:href="class_util_1_1_source_info.html" target="_top" xlink:title=" ">
<polygon fill="white" stroke="black" points="248.5,-124.5 248.5,-143.5 340.5,-143.5 340.5,-124.5 248.5,-124.5"/>
<text text-anchor="middle" x="294.5" y="-131.5" font-family="Helvetica,sans-Serif" font-size="10.00">Util::SourceInfo</text>
</a>
</g>
</g>
<!-- Node8&#45;&gt;Node2 -->
<g id="edge7" class="edge">
<title>Node8&#45;&gt;Node2</title>
<path fill="none" stroke="#9a32cd" stroke-dasharray="5,2" d="M279.9,-116.63C268.55,-103.92 253.27,-86.8 244.2,-76.63"/>
<polygon fill="#9a32cd" stroke="#9a32cd" points="277.41,-119.1 286.68,-124.23 282.63,-114.44 277.41,-119.1"/>
<text text-anchor="middle" x="288" y="-98" font-family="Helvetica,sans-Serif" font-size="10.00"> srcInfo</text>
</g>
<!-- Node9 -->
<g id="node9" class="node">
<title>Node9</title>
<g id="a_node9"><a xlink:href="classcstring.html" target="_top" xlink:title=" ">
<polygon fill="white" stroke="black" points="303.5,-203.5 303.5,-222.5 353.5,-222.5 353.5,-203.5 303.5,-203.5"/>
<text text-anchor="middle" x="328.5" y="-210.5" font-family="Helvetica,sans-Serif" font-size="10.00">cstring</text>
</a>
</g>
</g>
<!-- Node9&#45;&gt;Node8 -->
<g id="edge8" class="edge">
<title>Node9&#45;&gt;Node8</title>
<path fill="none" stroke="#9a32cd" stroke-dasharray="5,2" d="M320.65,-194.22C313.68,-178.44 303.79,-156.04 298.39,-143.81"/>
<polygon fill="#9a32cd" stroke="#9a32cd" points="317.49,-195.73 324.73,-203.47 323.89,-192.9 317.49,-195.73"/>
<text text-anchor="middle" x="338.5" y="-176" font-family="Helvetica,sans-Serif" font-size="10.00"> filename</text>
<text text-anchor="middle" x="338.5" y="-165" font-family="Helvetica,sans-Serif" font-size="10.00">srcBrief</text>
</g>
<!-- Node9&#45;&gt;Node9 -->
<g id="edge9" class="edge">
<title>Node9&#45;&gt;Node9</title>
<path fill="none" stroke="#9a32cd" stroke-dasharray="5,2" d="M363.95,-217.6C368.5,-216.8 371.5,-215.27 371.5,-213 371.5,-209.28 363.41,-207.54 353.68,-207.77"/>
<polygon fill="#9a32cd" stroke="#9a32cd" points="363.44,-214.12 353.68,-218.23 363.87,-221.11 363.44,-214.12"/>
<text text-anchor="middle" x="391" y="-216" font-family="Helvetica,sans-Serif" font-size="10.00"> empty</text>
<text text-anchor="middle" x="391" y="-205" font-family="Helvetica,sans-Serif" font-size="10.00">newline</text>
</g>
</g>
</svg>
