<?xml version="1.0" encoding="UTF-8" standalone="no"?>
<!DOCTYPE svg PUBLIC "-//W3C//DTD SVG 1.1//EN"
 "http://www.w3.org/Graphics/SVG/1.1/DTD/svg11.dtd">
<!-- Generated by graphviz version 2.43.0 (0)
 -->
<!-- Title: EBPF::EBPFModel Pages: 1 -->
<!--zoomable 406 -->
<svg id="main" version="1.1" xmlns="http://www.w3.org/2000/svg" xmlns:xlink="http://www.w3.org/1999/xlink" xml:space="preserve" onload="init(evt)">
<style type="text/css"><![CDATA[
.edge:hover path { stroke: red; }
.edge:hover polygon { stroke: red; fill: red; }
]]></style>
<script type="text/javascript"><![CDATA[
var edges = document.getElementsByTagName('g');
if (edges && edges.length) {
  for (var i=0;i<edges.length;i++) {
    if (edges[i].id.substr(0,4)=='edge') {
      edges[i].setAttribute('class','edge');
    }
  }
}
]]></script>
        <defs>
                <circle id="rim" cx="0" cy="0" r="7"/>
                <circle id="rim2" cx="0" cy="0" r="3.5"/>
                <g id="zoomPlus">
                        <use xlink:href="#rim" fill="#404040">
                                <set attributeName="fill" to="#808080" begin="zoomplus.mouseover" end="zoomplus.mouseout"/>
                        </use>
                        <path d="M-4,0h8M0,-4v8" fill="none" stroke="white" stroke-width="1.5" pointer-events="none"/>
                </g>
                <g id="zoomMin">
                        <use xlink:href="#rim" fill="#404040">
                                <set attributeName="fill" to="#808080" begin="zoomminus.mouseover" end="zoomminus.mouseout"/>
                        </use>
                        <path d="M-4,0h8" fill="none" stroke="white" stroke-width="1.5" pointer-events="none"/>
                </g>
                <g id="dirArrow">
                        <path fill="none" stroke="white" stroke-width="1.5" d="M0,-3.0v7 M-2.5,-0.5L0,-3.0L2.5,-0.5"/>
                </g>
               <g id="resetDef">
                       <use xlink:href="#rim2" fill="#404040">
                               <set attributeName="fill" to="#808080" begin="reset.mouseover" end="reset.mouseout"/>
                       </use>
               </g>
        </defs>

<script type="text/javascript">
var viewWidth = 1034;
var viewHeight = 406;
var sectionId = 'dynsection-1';
</script>
<script xlink:href="svgpan.js"/>
<svg id="graph" class="graph">
<g id="viewport">
<title>EBPF::EBPFModel</title>
<polygon fill="white" stroke="transparent" points="-4,4 -4,-402.41 1030,-402.41 1030,4 -4,4"/>
<!-- Node1 -->
<g id="node1" class="node">
<title>Node1</title>
<g id="a_node1"><a xlink:title=" ">
<polygon fill="#bfbfbf" stroke="black" points="925,-238.91 925,-257.91 1026,-257.91 1026,-238.91 925,-238.91"/>
<text text-anchor="middle" x="975.5" y="-245.91" font-family="Helvetica,sans-Serif" font-size="10.00">EBPF::EBPFModel</text>
</a>
</g>
</g>
<!-- Node1&#45;&gt;Node1 -->
<g id="edge11" class="edge">
<title>Node1&#45;&gt;Node1</title>
<path fill="none" stroke="#9a32cd" stroke-dasharray="5,2" d="M956.61,-267.81C957.87,-272.73 964.17,-276.41 975.5,-276.41 993.63,-276.41 998.87,-266.98 991.22,-258.17"/>
<polygon fill="#9a32cd" stroke="#9a32cd" points="959.98,-268.76 959.78,-258.17 953.33,-266.58 959.98,-268.76"/>
<text text-anchor="middle" x="975.5" y="-279.41" font-family="Helvetica,sans-Serif" font-size="10.00"> instance</text>
</g>
<!-- Node2 -->
<g id="node2" class="node">
<title>Node2</title>
<g id="a_node2"><a xlink:href="class_model_1_1_model.html" target="_top" xlink:title=" ">
<polygon fill="white" stroke="black" points="716,-378.91 716,-397.91 799,-397.91 799,-378.91 716,-378.91"/>
<text text-anchor="middle" x="757.5" y="-385.91" font-family="Helvetica,sans-Serif" font-size="10.00">Model::Model</text>
</a>
</g>
</g>
<!-- Node2&#45;&gt;Node1 -->
<g id="edge1" class="edge">
<title>Node2&#45;&gt;Node1</title>
<path fill="none" stroke="midnightblue" d="M809.22,-390.72C839.95,-389.71 878.57,-383.94 907,-364.41 945.79,-337.76 965.39,-280.94 971.94,-258.16"/>
<polygon fill="midnightblue" stroke="midnightblue" points="809.07,-387.22 799.13,-390.89 809.19,-394.22 809.07,-387.22"/>
</g>
<!-- Node3 -->
<g id="node3" class="node">
<title>Node3</title>
<g id="a_node3"><a xlink:href="struct_model_1_1_elem.html" target="_top" xlink:title=" ">
<polygon fill="white" stroke="black" points="117,-135.91 117,-154.91 194,-154.91 194,-135.91 117,-135.91"/>
<text text-anchor="middle" x="155.5" y="-142.91" font-family="Helvetica,sans-Serif" font-size="10.00">Model::Elem</text>
</a>
</g>
</g>
<!-- Node3&#45;&gt;Node1 -->
<g id="edge2" class="edge">
<title>Node3&#45;&gt;Node1</title>
<path fill="none" stroke="#9a32cd" stroke-dasharray="5,2" d="M166.02,-164.13C188.48,-205.36 249.03,-300.41 330,-300.41 330,-300.41 330,-300.41 758.5,-300.41 830.24,-300.41 911.76,-272.96 950.97,-257.95"/>
<polygon fill="#9a32cd" stroke="#9a32cd" points="169.02,-162.31 161.25,-155.11 162.83,-165.58 169.02,-162.31"/>
<text text-anchor="middle" x="571.5" y="-314.41" font-family="Helvetica,sans-Serif" font-size="10.00"> CPacketName</text>
<text text-anchor="middle" x="571.5" y="-303.41" font-family="Helvetica,sans-Serif" font-size="10.00">tableImplProperty</text>
</g>
<!-- Node5 -->
<g id="node5" class="node">
<title>Node5</title>
<g id="a_node5"><a xlink:href="struct_e_b_p_f_1_1_counter_array___model.html" target="_top" xlink:title=" ">
<polygon fill="white" stroke="black" points="702,-189.41 702,-219.41 813,-219.41 813,-189.41 702,-189.41"/>
<text text-anchor="start" x="710" y="-207.41" font-family="Helvetica,sans-Serif" font-size="10.00">EBPF::CounterArray</text>
<text text-anchor="middle" x="757.5" y="-196.41" font-family="Helvetica,sans-Serif" font-size="10.00">_Model</text>
</a>
</g>
</g>
<!-- Node3&#45;&gt;Node5 -->
<g id="edge9" class="edge">
<title>Node3&#45;&gt;Node5</title>
<path fill="none" stroke="#9a32cd" stroke-dasharray="5,2" d="M204.07,-146.18C269.53,-147.62 390.98,-151.61 494,-162.41 566.29,-169.99 648.99,-184.14 701.93,-193.91"/>
<polygon fill="#9a32cd" stroke="#9a32cd" points="204.13,-142.69 194.06,-145.98 203.98,-149.68 204.13,-142.69"/>
<text text-anchor="middle" x="449" y="-198.41" font-family="Helvetica,sans-Serif" font-size="10.00"> add</text>
<text text-anchor="middle" x="449" y="-187.41" font-family="Helvetica,sans-Serif" font-size="10.00">increment</text>
<text text-anchor="middle" x="449" y="-176.41" font-family="Helvetica,sans-Serif" font-size="10.00">max_index</text>
<text text-anchor="middle" x="449" y="-165.41" font-family="Helvetica,sans-Serif" font-size="10.00">sparse</text>
</g>
<!-- Node7 -->
<g id="node7" class="node">
<title>Node7</title>
<g id="a_node7"><a xlink:href="struct_model_1_1_type___model.html" target="_top" xlink:title=" ">
<polygon fill="white" stroke="black" points="276,-206.91 276,-225.91 386,-225.91 386,-206.91 276,-206.91"/>
<text text-anchor="middle" x="331" y="-213.91" font-family="Helvetica,sans-Serif" font-size="10.00">Model::Type_Model</text>
</a>
</g>
</g>
<!-- Node3&#45;&gt;Node7 -->
<g id="edge8" class="edge">
<title>Node3&#45;&gt;Node7</title>
<path fill="none" stroke="midnightblue" d="M185.31,-159.4C193.84,-163.41 203.25,-167.7 212,-171.41 242.88,-184.51 279,-198.03 303.06,-206.78"/>
<polygon fill="midnightblue" stroke="midnightblue" points="186.65,-156.16 176.12,-155.03 183.65,-162.49 186.65,-156.16"/>
</g>
<!-- Node8 -->
<g id="node8" class="node">
<title>Node8</title>
<g id="a_node8"><a xlink:href="struct_e_b_p_f_1_1_table_impl___model.html" target="_top" xlink:title=" ">
<polygon fill="white" stroke="black" points="693,-150.91 693,-169.91 822,-169.91 822,-150.91 693,-150.91"/>
<text text-anchor="middle" x="757.5" y="-157.91" font-family="Helvetica,sans-Serif" font-size="10.00">EBPF::TableImpl_Model</text>
</a>
</g>
</g>
<!-- Node3&#45;&gt;Node8 -->
<g id="edge14" class="edge">
<title>Node3&#45;&gt;Node8</title>
<path fill="none" stroke="#9a32cd" stroke-dasharray="5,2" d="M204.32,-140.14C254.12,-134.94 334.41,-127.36 404,-124.41 524.63,-119.3 555.71,-124.76 675,-143.41 688,-145.44 702.05,-148.18 714.77,-150.86"/>
<polygon fill="#9a32cd" stroke="#9a32cd" points="203.75,-136.69 194.17,-141.22 204.49,-143.65 203.75,-136.69"/>
<text text-anchor="middle" x="449" y="-127.41" font-family="Helvetica,sans-Serif" font-size="10.00"> size</text>
</g>
<!-- Node9 -->
<g id="node9" class="node">
<title>Node9</title>
<g id="a_node9"><a xlink:href="struct_e_b_p_f_1_1_xdp___model.html" target="_top" xlink:title=" ">
<polygon fill="white" stroke="black" points="280.5,-71.91 280.5,-90.91 381.5,-90.91 381.5,-71.91 280.5,-71.91"/>
<text text-anchor="middle" x="331" y="-78.91" font-family="Helvetica,sans-Serif" font-size="10.00">EBPF::Xdp_Model</text>
</a>
</g>
</g>
<!-- Node3&#45;&gt;Node9 -->
<g id="edge16" class="edge">
<title>Node3&#45;&gt;Node9</title>
<path fill="none" stroke="midnightblue" d="M186.62,-131.86C194.8,-128.32 203.69,-124.61 212,-121.41 241.47,-110.06 275.71,-98.65 299.69,-90.94"/>
<polygon fill="midnightblue" stroke="midnightblue" points="185.17,-128.67 177.42,-135.89 187.98,-135.08 185.17,-128.67"/>
</g>
<!-- Node3&#45;&gt;Node9 -->
<g id="edge17" class="edge">
<title>Node3&#45;&gt;Node9</title>
<path fill="none" stroke="#9a32cd" stroke-dasharray="5,2" d="M163.97,-126.52C172.49,-107.89 188.36,-80.51 212,-68.41 242.27,-52.91 282.54,-62.79 307.34,-71.78"/>
<polygon fill="#9a32cd" stroke="#9a32cd" points="160.71,-125.24 160,-135.81 167.15,-128 160.71,-125.24"/>
<text text-anchor="middle" x="235" y="-93.41" font-family="Helvetica,sans-Serif" font-size="10.00"> deparser</text>
<text text-anchor="middle" x="235" y="-82.41" font-family="Helvetica,sans-Serif" font-size="10.00">parser</text>
<text text-anchor="middle" x="235" y="-71.41" font-family="Helvetica,sans-Serif" font-size="10.00">switch_</text>
</g>
<!-- Node10 -->
<g id="node10" class="node">
<title>Node10</title>
<g id="a_node10"><a xlink:href="struct_e_b_p_f_1_1_filter___model.html" target="_top" xlink:title=" ">
<polygon fill="white" stroke="black" points="277.5,-16.91 277.5,-35.91 384.5,-35.91 384.5,-16.91 277.5,-16.91"/>
<text text-anchor="middle" x="331" y="-23.91" font-family="Helvetica,sans-Serif" font-size="10.00">EBPF::Filter_Model</text>
</a>
</g>
</g>
<!-- Node3&#45;&gt;Node10 -->
<g id="edge19" class="edge">
<title>Node3&#45;&gt;Node10</title>
<path fill="none" stroke="midnightblue" d="M163.46,-126.15C171.82,-105.74 187.84,-74.07 212,-56.41 230.86,-42.63 255.42,-35.16 277.25,-31.11"/>
<polygon fill="midnightblue" stroke="midnightblue" points="160.12,-125.07 159.77,-135.66 166.65,-127.6 160.12,-125.07"/>
</g>
<!-- Node3&#45;&gt;Node10 -->
<g id="edge20" class="edge">
<title>Node3&#45;&gt;Node10</title>
<path fill="none" stroke="#9a32cd" stroke-dasharray="5,2" d="M157.99,-125.72C161.49,-94.98 173.19,-36.42 212,-10.41 242.23,9.84 286.67,-5.31 311.49,-16.77"/>
<polygon fill="#9a32cd" stroke="#9a32cd" points="154.5,-125.39 157.03,-135.68 161.47,-126.06 154.5,-125.39"/>
<text text-anchor="middle" x="235" y="-24.41" font-family="Helvetica,sans-Serif" font-size="10.00"> filter</text>
<text text-anchor="middle" x="235" y="-13.41" font-family="Helvetica,sans-Serif" font-size="10.00">parser</text>
</g>
<!-- Node11 -->
<g id="node11" class="node">
<title>Node11</title>
<g id="a_node11"><a xlink:href="struct_model_1_1_param___model.html" target="_top" xlink:title="Param_Model : Elem.">
<polygon fill="white" stroke="black" points="512,-244.91 512,-263.91 631,-263.91 631,-244.91 512,-244.91"/>
<text text-anchor="middle" x="571.5" y="-251.91" font-family="Helvetica,sans-Serif" font-size="10.00">Model::Param_Model</text>
</a>
</g>
</g>
<!-- Node3&#45;&gt;Node11 -->
<g id="edge22" class="edge">
<title>Node3&#45;&gt;Node11</title>
<path fill="none" stroke="midnightblue" d="M172.51,-162.31C193.84,-183.6 233.83,-219.32 276,-235.41 353.55,-264.99 450.88,-264.74 511.91,-260.57"/>
<polygon fill="midnightblue" stroke="midnightblue" points="174.78,-159.63 165.28,-154.94 169.77,-164.53 174.78,-159.63"/>
</g>
<!-- Node4 -->
<g id="node4" class="node">
<title>Node4</title>
<g id="a_node4"><a xlink:href="classcstring.html" target="_top" xlink:title=" ">
<polygon fill="white" stroke="black" points="0,-238.91 0,-257.91 50,-257.91 50,-238.91 0,-238.91"/>
<text text-anchor="middle" x="25" y="-245.91" font-family="Helvetica,sans-Serif" font-size="10.00">cstring</text>
</a>
</g>
</g>
<!-- Node4&#45;&gt;Node1 -->
<g id="edge10" class="edge">
<title>Node4&#45;&gt;Node1</title>
<path fill="none" stroke="#9a32cd" stroke-dasharray="5,2" d="M37.43,-266.75C57.32,-296.11 101.3,-350.41 154.5,-350.41 154.5,-350.41 154.5,-350.41 758.5,-350.41 844.34,-350.41 932.59,-283.72 963.22,-258.19"/>
<polygon fill="#9a32cd" stroke="#9a32cd" points="40.24,-264.65 31.84,-258.19 34.38,-268.48 40.24,-264.65"/>
<text text-anchor="middle" x="449" y="-375.41" font-family="Helvetica,sans-Serif" font-size="10.00"> counterIndexType</text>
<text text-anchor="middle" x="449" y="-364.41" font-family="Helvetica,sans-Serif" font-size="10.00">counterValueType</text>
<text text-anchor="middle" x="449" y="-353.41" font-family="Helvetica,sans-Serif" font-size="10.00">reservedPrefix</text>
</g>
<!-- Node4&#45;&gt;Node3 -->
<g id="edge3" class="edge">
<title>Node4&#45;&gt;Node3</title>
<path fill="none" stroke="#9a32cd" stroke-dasharray="5,2" d="M45.83,-232.52C72.75,-210.94 120.06,-173.02 142.3,-155.19"/>
<polygon fill="#9a32cd" stroke="#9a32cd" points="43.47,-229.92 37.86,-238.91 47.85,-235.38 43.47,-229.92"/>
<text text-anchor="middle" x="83.5" y="-215.41" font-family="Helvetica,sans-Serif" font-size="10.00"> name</text>
</g>
<!-- Node4&#45;&gt;Node4 -->
<g id="edge4" class="edge">
<title>Node4&#45;&gt;Node4</title>
<path fill="none" stroke="#9a32cd" stroke-dasharray="5,2" d="M14.32,-268.18C15.16,-272.91 18.72,-276.41 25,-276.41 35.31,-276.41 38.29,-266.98 33.94,-258.17"/>
<polygon fill="#9a32cd" stroke="#9a32cd" points="17.79,-268.62 16.06,-258.17 10.9,-267.42 17.79,-268.62"/>
<text text-anchor="middle" x="25" y="-290.41" font-family="Helvetica,sans-Serif" font-size="10.00"> empty</text>
<text text-anchor="middle" x="25" y="-279.41" font-family="Helvetica,sans-Serif" font-size="10.00">newline</text>
</g>
<!-- Node5&#45;&gt;Node1 -->
<g id="edge5" class="edge">
<title>Node5&#45;&gt;Node1</title>
<path fill="none" stroke="#9a32cd" stroke-dasharray="5,2" d="M823.47,-215.25C849.51,-219.85 879.76,-225.51 907,-231.41 917.28,-233.64 928.36,-236.31 938.52,-238.88"/>
<polygon fill="#9a32cd" stroke="#9a32cd" points="823.79,-211.75 813.33,-213.48 822.58,-218.65 823.79,-211.75"/>
<text text-anchor="middle" x="873.5" y="-234.41" font-family="Helvetica,sans-Serif" font-size="10.00"> counterArray</text>
</g>
<!-- Node6 -->
<g id="node6" class="node">
<title>Node6</title>
<g id="a_node6"><a xlink:href="struct_model_1_1_extern___model.html" target="_top" xlink:title="Extern_Model : Type_Model.">
<polygon fill="white" stroke="black" points="512,-197.91 512,-216.91 631,-216.91 631,-197.91 512,-197.91"/>
<text text-anchor="middle" x="571.5" y="-204.91" font-family="Helvetica,sans-Serif" font-size="10.00">Model::Extern_Model</text>
</a>
</g>
</g>
<!-- Node6&#45;&gt;Node5 -->
<g id="edge6" class="edge">
<title>Node6&#45;&gt;Node5</title>
<path fill="none" stroke="midnightblue" d="M641.48,-206.29C661.39,-205.96 682.85,-205.61 701.77,-205.3"/>
<polygon fill="midnightblue" stroke="midnightblue" points="641.17,-202.79 631.22,-206.45 641.28,-209.79 641.17,-202.79"/>
</g>
<!-- Node6&#45;&gt;Node8 -->
<g id="edge13" class="edge">
<title>Node6&#45;&gt;Node8</title>
<path fill="none" stroke="midnightblue" d="M619.42,-195.42C650.32,-187.53 690.23,-177.34 719,-169.99"/>
<polygon fill="midnightblue" stroke="midnightblue" points="618.56,-192.03 609.74,-197.9 620.29,-198.82 618.56,-192.03"/>
</g>
<!-- Node7&#45;&gt;Node6 -->
<g id="edge7" class="edge">
<title>Node7&#45;&gt;Node6</title>
<path fill="none" stroke="midnightblue" d="M396.48,-213.98C432.34,-212.62 476.65,-210.95 511.58,-209.63"/>
<polygon fill="midnightblue" stroke="midnightblue" points="395.98,-210.49 386.12,-214.37 396.24,-217.49 395.98,-210.49"/>
</g>
<!-- Node7&#45;&gt;Node11 -->
<g id="edge23" class="edge">
<title>Node7&#45;&gt;Node11</title>
<path fill="none" stroke="#9a32cd" stroke-dasharray="5,2" d="M396.01,-226.61C431.96,-232.34 476.5,-239.43 511.58,-245.02"/>
<polygon fill="#9a32cd" stroke="#9a32cd" points="396.55,-223.15 386.12,-225.03 395.44,-230.06 396.55,-223.15"/>
<text text-anchor="middle" x="449" y="-245.41" font-family="Helvetica,sans-Serif" font-size="10.00"> type</text>
</g>
<!-- Node8&#45;&gt;Node1 -->
<g id="edge12" class="edge">
<title>Node8&#45;&gt;Node1</title>
<path fill="none" stroke="#9a32cd" stroke-dasharray="5,2" d="M832.09,-169.78C856.73,-174.71 883.81,-182.18 907,-193.41 930.67,-204.88 953.35,-226.17 965.45,-238.63"/>
<polygon fill="#9a32cd" stroke="#9a32cd" points="832.54,-166.3 822.06,-167.88 831.24,-173.18 832.54,-166.3"/>
<text text-anchor="middle" x="873.5" y="-207.41" font-family="Helvetica,sans-Serif" font-size="10.00"> array_table</text>
<text text-anchor="middle" x="873.5" y="-196.41" font-family="Helvetica,sans-Serif" font-size="10.00">hash_table</text>
</g>
<!-- Node9&#45;&gt;Node1 -->
<g id="edge15" class="edge">
<title>Node9&#45;&gt;Node1</title>
<path fill="none" stroke="#9a32cd" stroke-dasharray="5,2" d="M391.59,-85.12C484.43,-91.71 668.85,-108.01 822,-141.41 860.73,-149.86 874.04,-146.4 907,-168.41 935.56,-187.48 958.74,-222 968.92,-238.76"/>
<polygon fill="#9a32cd" stroke="#9a32cd" points="391.76,-81.63 381.54,-84.42 391.27,-88.61 391.76,-81.63"/>
<text text-anchor="middle" x="662" y="-118.41" font-family="Helvetica,sans-Serif" font-size="10.00"> xdp</text>
</g>
<!-- Node10&#45;&gt;Node1 -->
<g id="edge18" class="edge">
<title>Node10&#45;&gt;Node1</title>
<path fill="none" stroke="#9a32cd" stroke-dasharray="5,2" d="M394.99,-21.88C509.31,-17.04 753.29,-22.66 907,-141.41 941.59,-168.13 963.19,-217.97 971.1,-238.83"/>
<polygon fill="#9a32cd" stroke="#9a32cd" points="394.5,-18.4 384.67,-22.36 394.83,-25.39 394.5,-18.4"/>
<text text-anchor="middle" x="662" y="-45.41" font-family="Helvetica,sans-Serif" font-size="10.00"> filter</text>
</g>
<!-- Node11&#45;&gt;Node1 -->
<g id="edge21" class="edge">
<title>Node11&#45;&gt;Node1</title>
<path fill="none" stroke="#9a32cd" stroke-dasharray="5,2" d="M641.45,-253.38C722.14,-252.18 853.75,-250.21 924.96,-249.15"/>
<polygon fill="#9a32cd" stroke="#9a32cd" points="641.33,-249.88 631.38,-253.53 641.44,-256.88 641.33,-249.88"/>
<text text-anchor="middle" x="757.5" y="-256.41" font-family="Helvetica,sans-Serif" font-size="10.00"> packet</text>
</g>
</g>
</svg>
        <g id="navigator" transform="translate(0 0)" fill="#404254">
                <rect fill="#f2f5e9" fill-opacity="0.5" stroke="#606060" stroke-width=".5" x="0" y="0" width="60" height="60"/>
                <use id="zoomplus" xlink:href="#zoomPlus" x="17" y="9" onmousedown="handleZoom(evt,'in')"/>
                <use id="zoomminus" xlink:href="#zoomMin" x="42" y="9" onmousedown="handleZoom(evt,'out')"/>
                <use id="reset" xlink:href="#resetDef" x="30" y="36" onmousedown="handleReset()"/>
                <g id="arrowUp" xlink:href="#dirArrow" transform="translate(30 24)" onmousedown="handlePan(0,-1)">
                  <use xlink:href="#rim" fill="#404040">
                        <set attributeName="fill" to="#808080" begin="arrowUp.mouseover" end="arrowUp.mouseout"/>
                  </use>
                  <path fill="none" stroke="white" stroke-width="1.5" d="M0,-3.0v7 M-2.5,-0.5L0,-3.0L2.5,-0.5"/>
                </g>
                <g id="arrowRight" xlink:href="#dirArrow" transform="rotate(90) translate(36 -43)" onmousedown="handlePan(1,0)">
                  <use xlink:href="#rim" fill="#404040">
                        <set attributeName="fill" to="#808080" begin="arrowRight.mouseover" end="arrowRight.mouseout"/>
                  </use>
                  <path fill="none" stroke="white" stroke-width="1.5" d="M0,-3.0v7 M-2.5,-0.5L0,-3.0L2.5,-0.5"/>
                </g>
                <g id="arrowDown" xlink:href="#dirArrow" transform="rotate(180) translate(-30 -48)" onmousedown="handlePan(0,1)">
                  <use xlink:href="#rim" fill="#404040">
                        <set attributeName="fill" to="#808080" begin="arrowDown.mouseover" end="arrowDown.mouseout"/>
                  </use>
                  <path fill="none" stroke="white" stroke-width="1.5" d="M0,-3.0v7 M-2.5,-0.5L0,-3.0L2.5,-0.5"/>
                </g>
                <g id="arrowLeft" xlink:href="#dirArrow" transform="rotate(270) translate(-36 17)" onmousedown="handlePan(-1,0)">
                  <use xlink:href="#rim" fill="#404040">
                        <set attributeName="fill" to="#808080" begin="arrowLeft.mouseover" end="arrowLeft.mouseout"/>
                  </use>
                  <path fill="none" stroke="white" stroke-width="1.5" d="M0,-3.0v7 M-2.5,-0.5L0,-3.0L2.5,-0.5"/>
                </g>
        </g>
        <svg viewBox="0 0 15 15" width="100%" height="30px" preserveAspectRatio="xMaxYMin meet">
         <g id="arrow_out" transform="scale(0.3 0.3)">
          <a xlink:href="class_e_b_p_f_1_1_e_b_p_f_model__coll__graph_org.svg" target="_base">
           <rect id="button" ry="5" rx="5" y="6" x="6" height="38" width="38"
                fill="#f2f5e9" fill-opacity="0.5" stroke="#606060" stroke-width="1.0"/>
           <path id="arrow"
             d="M 11.500037,31.436501 C 11.940474,20.09759 22.043105,11.32322 32.158766,21.979434 L 37.068811,17.246167 C 37.068811,17.246167 37.088388,32 37.088388,32 L 22.160133,31.978069 C 22.160133,31.978069 26.997745,27.140456 26.997745,27.140456 C 18.528582,18.264221 13.291696,25.230495 11.500037,31.436501 z"
             style="fill:#404040;"/>
          </a>
         </g>
        </svg>
</svg>
