<?xml version="1.0" encoding="UTF-8" standalone="no"?>
<!DOCTYPE svg PUBLIC "-//W3C//DTD SVG 1.1//EN"
 "http://www.w3.org/Graphics/SVG/1.1/DTD/svg11.dtd">
<!-- Generated by graphviz version 2.43.0 (0)
 -->
<!-- Title: P4::BuiltInMethod Pages: 1 -->
<svg width="1134pt" height="454pt"
 viewBox="0.00 0.00 1134.00 453.50" xmlns="http://www.w3.org/2000/svg" xmlns:xlink="http://www.w3.org/1999/xlink">
<g id="graph0" class="graph" transform="scale(1 1) rotate(0) translate(4 449.5)">
<title>P4::BuiltInMethod</title>
<polygon fill="white" stroke="transparent" points="-4,4 -4,-449.5 1130,-449.5 1130,4 -4,4"/>
<!-- Node1 -->
<g id="node1" class="node">
<title>Node1</title>
<g id="a_node1"><a xlink:title=" ">
<polygon fill="#bfbfbf" stroke="black" points="1023,-113.5 1023,-132.5 1126,-132.5 1126,-113.5 1023,-113.5"/>
<text text-anchor="middle" x="1074.5" y="-120.5" font-family="Helvetica,sans-Serif" font-size="10.00">P4::BuiltInMethod</text>
</a>
</g>
</g>
<!-- Node2 -->
<g id="node2" class="node">
<title>Node2</title>
<g id="a_node2"><a xlink:href="class_p4_1_1_method_instance.html" target="_top" xlink:title=" ">
<polygon fill="white" stroke="black" points="873,-151.5 873,-170.5 986,-170.5 986,-151.5 873,-151.5"/>
<text text-anchor="middle" x="929.5" y="-158.5" font-family="Helvetica,sans-Serif" font-size="10.00">P4::MethodInstance</text>
</a>
</g>
</g>
<!-- Node2&#45;&gt;Node1 -->
<g id="edge1" class="edge">
<title>Node2&#45;&gt;Node1</title>
<path fill="none" stroke="midnightblue" d="M976.31,-148.83C996.09,-143.57 1018.88,-137.51 1037.43,-132.59"/>
<polygon fill="midnightblue" stroke="midnightblue" points="975.35,-145.46 966.58,-151.41 977.15,-152.23 975.35,-145.46"/>
</g>
<!-- Node3 -->
<g id="node3" class="node">
<title>Node3</title>
<g id="a_node3"><a xlink:href="class_p4_1_1_instance_base.html" target="_top" xlink:title=" ">
<polygon fill="white" stroke="black" points="703,-213.5 703,-232.5 803,-232.5 803,-213.5 703,-213.5"/>
<text text-anchor="middle" x="753" y="-220.5" font-family="Helvetica,sans-Serif" font-size="10.00">P4::InstanceBase</text>
</a>
</g>
</g>
<!-- Node3&#45;&gt;Node2 -->
<g id="edge2" class="edge">
<title>Node3&#45;&gt;Node2</title>
<path fill="none" stroke="midnightblue" d="M790.66,-209.98C823.81,-198.2 871.86,-181.13 901.59,-170.56"/>
<polygon fill="midnightblue" stroke="midnightblue" points="789.13,-206.8 780.88,-213.45 791.48,-213.4 789.13,-206.8"/>
</g>
<!-- Node4 -->
<g id="node4" class="node">
<title>Node4</title>
<g id="a_node4"><a xlink:href="class_i_castable.html" target="_top" xlink:title=" ">
<polygon fill="white" stroke="black" points="192,-151.5 192,-170.5 254,-170.5 254,-151.5 192,-151.5"/>
<text text-anchor="middle" x="223" y="-158.5" font-family="Helvetica,sans-Serif" font-size="10.00">ICastable</text>
</a>
</g>
</g>
<!-- Node4&#45;&gt;Node3 -->
<g id="edge3" class="edge">
<title>Node4&#45;&gt;Node3</title>
<path fill="none" stroke="midnightblue" d="M264.42,-168.22C278.22,-170.56 293.76,-173.05 308,-175 451.06,-194.64 620.97,-211.11 702.94,-218.63"/>
<polygon fill="midnightblue" stroke="midnightblue" points="264.71,-164.72 254.26,-166.48 263.53,-171.62 264.71,-164.72"/>
</g>
<!-- Node15 -->
<g id="node15" class="node">
<title>Node15</title>
<g id="a_node15"><a xlink:href="class_i_r_1_1_i_node.html" target="_top" xlink:title=" ">
<polygon fill="white" stroke="black" points="475,-151.5 475,-170.5 536,-170.5 536,-151.5 475,-151.5"/>
<text text-anchor="middle" x="505.5" y="-158.5" font-family="Helvetica,sans-Serif" font-size="10.00">IR::INode</text>
</a>
</g>
</g>
<!-- Node4&#45;&gt;Node15 -->
<g id="edge20" class="edge">
<title>Node4&#45;&gt;Node15</title>
<path fill="none" stroke="midnightblue" d="M264.09,-161C321.03,-161 424.02,-161 474.7,-161"/>
<polygon fill="midnightblue" stroke="midnightblue" points="264.02,-157.5 254.02,-161 264.02,-164.5 264.02,-157.5"/>
</g>
<!-- Node5 -->
<g id="node5" class="node">
<title>Node5</title>
<g id="a_node5"><a xlink:href="struct_r_t_t_i_1_1_base.html" target="_top" xlink:title=" ">
<polygon fill="white" stroke="black" points="3,-0.5 3,-19.5 71,-19.5 71,-0.5 3,-0.5"/>
<text text-anchor="middle" x="37" y="-7.5" font-family="Helvetica,sans-Serif" font-size="10.00">RTTI::Base</text>
</a>
</g>
</g>
<!-- Node5&#45;&gt;Node4 -->
<g id="edge4" class="edge">
<title>Node5&#45;&gt;Node4</title>
<path fill="none" stroke="midnightblue" d="M59.25,-25.69C81.22,-42.76 115.4,-71.81 138,-103 149.2,-118.46 141.51,-129.57 156,-142 165.95,-150.54 179.54,-155.25 191.8,-157.85"/>
<polygon fill="midnightblue" stroke="midnightblue" points="61.28,-22.83 51.21,-19.55 57.03,-28.4 61.28,-22.83"/>
</g>
<!-- Node6 -->
<g id="node6" class="node">
<title>Node6</title>
<g id="a_node6"><a xlink:href="class_p4_1_1_parameter_substitution.html" target="_top" xlink:title=" ">
<polygon fill="white" stroke="black" points="434,-298.5 434,-317.5 577,-317.5 577,-298.5 434,-298.5"/>
<text text-anchor="middle" x="505.5" y="-305.5" font-family="Helvetica,sans-Serif" font-size="10.00">P4::ParameterSubstitution</text>
</a>
</g>
</g>
<!-- Node6&#45;&gt;Node3 -->
<g id="edge5" class="edge">
<title>Node6&#45;&gt;Node3</title>
<path fill="none" stroke="#9a32cd" stroke-dasharray="5,2" d="M543.9,-295.05C593.6,-277.84 680.25,-247.84 724.42,-232.55"/>
<polygon fill="#9a32cd" stroke="#9a32cd" points="542.49,-291.84 534.18,-298.41 544.78,-298.45 542.49,-291.84"/>
<text text-anchor="middle" x="643" y="-276" font-family="Helvetica,sans-Serif" font-size="10.00"> substitution</text>
</g>
<!-- Node7 -->
<g id="node7" class="node">
<title>Node7</title>
<g id="a_node7"><a xlink:href="class_i_has_db_print.html" target="_top" xlink:title=" ">
<polygon fill="white" stroke="black" points="0,-376.5 0,-395.5 74,-395.5 74,-376.5 0,-376.5"/>
<text text-anchor="middle" x="37" y="-383.5" font-family="Helvetica,sans-Serif" font-size="10.00">IHasDbPrint</text>
</a>
</g>
</g>
<!-- Node7&#45;&gt;Node6 -->
<g id="edge6" class="edge">
<title>Node7&#45;&gt;Node6</title>
<path fill="none" stroke="midnightblue" d="M84.17,-386.04C155.45,-385 295.99,-378.51 410,-346 436.36,-338.48 465.44,-326.14 484.29,-317.57"/>
<polygon fill="midnightblue" stroke="midnightblue" points="84.12,-382.54 74.16,-386.16 84.2,-389.54 84.12,-382.54"/>
</g>
<!-- Node13 -->
<g id="node13" class="node">
<title>Node13</title>
<g id="a_node13"><a xlink:href="class_p4_1_1_type_substitution.html" target="_top" xlink:title=" ">
<polygon fill="white" stroke="black" points="156,-415 156,-445 290,-445 290,-415 156,-415"/>
<text text-anchor="start" x="164" y="-433" font-family="Helvetica,sans-Serif" font-size="10.00">P4::TypeSubstitution</text>
<text text-anchor="middle" x="223" y="-422" font-family="Helvetica,sans-Serif" font-size="10.00">&lt; const IR::ITypeVar * &gt;</text>
</a>
</g>
</g>
<!-- Node7&#45;&gt;Node13 -->
<g id="edge15" class="edge">
<title>Node7&#45;&gt;Node13</title>
<path fill="none" stroke="midnightblue" d="M84.04,-398.03C86.73,-398.7 89.4,-399.36 92,-400 112.7,-405.07 135.31,-410.37 155.78,-415.08"/>
<polygon fill="midnightblue" stroke="midnightblue" points="84.83,-394.61 74.28,-395.55 83.11,-401.4 84.83,-394.61"/>
</g>
<!-- Node7&#45;&gt;Node15 -->
<g id="edge19" class="edge">
<title>Node7&#45;&gt;Node15</title>
<path fill="none" stroke="midnightblue" d="M51.26,-368.07C71.18,-342.38 111.3,-295.32 156,-269 209.45,-237.53 230.69,-248.17 290,-230 356.77,-209.55 434.71,-184.07 475.78,-170.52"/>
<polygon fill="midnightblue" stroke="midnightblue" points="48.35,-366.12 45.08,-376.19 53.92,-370.35 48.35,-366.12"/>
</g>
<!-- Node8 -->
<g id="node8" class="node">
<title>Node8</title>
<g id="a_node8"><a xlink:title=" ">
<polygon fill="white" stroke="#bfbfbf" points="156,-190 156,-220 290,-220 290,-190 156,-190"/>
<text text-anchor="start" x="164" y="-208" font-family="Helvetica,sans-Serif" font-size="10.00">std::map&lt; cstring,</text>
<text text-anchor="middle" x="223" y="-197" font-family="Helvetica,sans-Serif" font-size="10.00"> const IR::Parameter * &gt;</text>
</a>
</g>
</g>
<!-- Node8&#45;&gt;Node6 -->
<g id="edge7" class="edge">
<title>Node8&#45;&gt;Node6</title>
<path fill="none" stroke="#9a32cd" stroke-dasharray="5,2" d="M274.74,-223.63C334.68,-245.64 432.1,-281.42 478.43,-298.43"/>
<polygon fill="#9a32cd" stroke="#9a32cd" points="275.68,-220.25 265.09,-220.09 273.27,-226.82 275.68,-220.25"/>
<text text-anchor="middle" x="359" y="-274" font-family="Helvetica,sans-Serif" font-size="10.00"> parametersByName</text>
</g>
<!-- Node9 -->
<g id="node9" class="node">
<title>Node9</title>
<g id="a_node9"><a xlink:href="classcstring.html" target="_top" xlink:title=" ">
<polygon fill="white" stroke="black" points="12,-120.5 12,-139.5 62,-139.5 62,-120.5 12,-120.5"/>
<text text-anchor="middle" x="37" y="-127.5" font-family="Helvetica,sans-Serif" font-size="10.00">cstring</text>
</a>
</g>
</g>
<!-- Node9&#45;&gt;Node8 -->
<g id="edge8" class="edge">
<title>Node9&#45;&gt;Node8</title>
<path fill="none" stroke="#9a32cd" stroke-dasharray="5,2" d="M69.29,-143.65C92.99,-153.89 126.42,-168.13 156,-180 164.19,-183.28 172.99,-186.7 181.42,-189.91"/>
<polygon fill="#9a32cd" stroke="#9a32cd" points="70.64,-140.42 60.08,-139.66 67.86,-146.84 70.64,-140.42"/>
<text text-anchor="middle" x="115" y="-175" font-family="Helvetica,sans-Serif" font-size="10.00"> keys</text>
</g>
<!-- Node9&#45;&gt;Node9 -->
<g id="edge9" class="edge">
<title>Node9&#45;&gt;Node9</title>
<path fill="none" stroke="#9a32cd" stroke-dasharray="5,2" d="M22.64,-149.77C23.76,-154.5 28.55,-158 37,-158 50.86,-158 54.87,-148.57 49.02,-139.76"/>
<polygon fill="#9a32cd" stroke="#9a32cd" points="26.11,-150.29 24.98,-139.76 19.29,-148.7 26.11,-150.29"/>
<text text-anchor="middle" x="37" y="-172" font-family="Helvetica,sans-Serif" font-size="10.00"> empty</text>
<text text-anchor="middle" x="37" y="-161" font-family="Helvetica,sans-Serif" font-size="10.00">newline</text>
</g>
<!-- Node10 -->
<g id="node10" class="node">
<title>Node10</title>
<g id="a_node10"><a xlink:title=" ">
<polygon fill="white" stroke="#bfbfbf" points="157,-278 157,-308 289,-308 289,-278 157,-278"/>
<text text-anchor="start" x="165" y="-296" font-family="Helvetica,sans-Serif" font-size="10.00">std::map&lt; cstring,</text>
<text text-anchor="middle" x="223" y="-285" font-family="Helvetica,sans-Serif" font-size="10.00"> const IR::Argument * &gt;</text>
</a>
</g>
</g>
<!-- Node9&#45;&gt;Node10 -->
<g id="edge11" class="edge">
<title>Node9&#45;&gt;Node10</title>
<path fill="none" stroke="#9a32cd" stroke-dasharray="5,2" d="M53.33,-147.31C63.85,-158.91 78.33,-174.31 92,-187 129.14,-221.47 175.85,-258.05 201.96,-277.95"/>
<polygon fill="#9a32cd" stroke="#9a32cd" points="55.72,-144.74 46.44,-139.64 50.52,-149.42 55.72,-144.74"/>
<text text-anchor="middle" x="115" y="-229" font-family="Helvetica,sans-Serif" font-size="10.00"> keys</text>
</g>
<!-- Node17 -->
<g id="node17" class="node">
<title>Node17</title>
<g id="a_node17"><a xlink:href="struct_i_r_1_1_i_d.html" target="_top" xlink:title=" ">
<polygon fill="white" stroke="black" points="484,-88.5 484,-107.5 527,-107.5 527,-88.5 484,-88.5"/>
<text text-anchor="middle" x="505.5" y="-95.5" font-family="Helvetica,sans-Serif" font-size="10.00">IR::ID</text>
</a>
</g>
</g>
<!-- Node9&#45;&gt;Node17 -->
<g id="edge25" class="edge">
<title>Node9&#45;&gt;Node17</title>
<path fill="none" stroke="#9a32cd" stroke-dasharray="5,2" d="M54.05,-112.99C75.11,-92.05 114.32,-57.58 156,-44 276.21,-4.84 429.25,-63.99 483.93,-88.33"/>
<polygon fill="#9a32cd" stroke="#9a32cd" points="51.4,-110.7 46.9,-120.29 56.4,-115.6 51.4,-110.7"/>
<text text-anchor="middle" x="223" y="-58" font-family="Helvetica,sans-Serif" font-size="10.00"> name</text>
<text text-anchor="middle" x="223" y="-47" font-family="Helvetica,sans-Serif" font-size="10.00">originalName</text>
</g>
<!-- Node18 -->
<g id="node18" class="node">
<title>Node18</title>
<g id="a_node18"><a xlink:href="class_util_1_1_source_info.html" target="_top" xlink:title=" ">
<polygon fill="white" stroke="black" points="177,-75.5 177,-94.5 269,-94.5 269,-75.5 177,-75.5"/>
<text text-anchor="middle" x="223" y="-82.5" font-family="Helvetica,sans-Serif" font-size="10.00">Util::SourceInfo</text>
</a>
</g>
</g>
<!-- Node9&#45;&gt;Node18 -->
<g id="edge24" class="edge">
<title>Node9&#45;&gt;Node18</title>
<path fill="none" stroke="#9a32cd" stroke-dasharray="5,2" d="M72.07,-121.67C103.43,-114 149.93,-102.63 182.81,-94.58"/>
<polygon fill="#9a32cd" stroke="#9a32cd" points="70.94,-118.34 62.05,-124.12 72.6,-125.14 70.94,-118.34"/>
<text text-anchor="middle" x="115" y="-130" font-family="Helvetica,sans-Serif" font-size="10.00"> filename</text>
<text text-anchor="middle" x="115" y="-119" font-family="Helvetica,sans-Serif" font-size="10.00">srcBrief</text>
</g>
<!-- Node10&#45;&gt;Node6 -->
<g id="edge10" class="edge">
<title>Node10&#45;&gt;Node6</title>
<path fill="none" stroke="#9a32cd" stroke-dasharray="5,2" d="M299.19,-297.02C341.04,-299.26 392.81,-302.03 433.9,-304.22"/>
<polygon fill="#9a32cd" stroke="#9a32cd" points="299.23,-293.52 289.06,-296.48 298.86,-300.51 299.23,-293.52"/>
<text text-anchor="middle" x="359" y="-305" font-family="Helvetica,sans-Serif" font-size="10.00"> parameterValues</text>
</g>
<!-- Node11 -->
<g id="node11" class="node">
<title>Node11</title>
<g id="a_node11"><a xlink:title=" ">
<polygon fill="white" stroke="#bfbfbf" points="170,-327 170,-357 276,-357 276,-327 170,-327"/>
<text text-anchor="start" x="178" y="-345" font-family="Helvetica,sans-Serif" font-size="10.00">std::vector&lt; const</text>
<text text-anchor="middle" x="223" y="-334" font-family="Helvetica,sans-Serif" font-size="10.00"> IR::Parameter * &gt;</text>
</a>
</g>
</g>
<!-- Node11&#45;&gt;Node6 -->
<g id="edge12" class="edge">
<title>Node11&#45;&gt;Node6</title>
<path fill="none" stroke="#9a32cd" stroke-dasharray="5,2" d="M286.04,-334.48C329.76,-329.18 388.39,-322.07 433.9,-316.56"/>
<polygon fill="#9a32cd" stroke="#9a32cd" points="285.61,-331.01 276.1,-335.68 286.45,-337.96 285.61,-331.01"/>
<text text-anchor="middle" x="359" y="-334" font-family="Helvetica,sans-Serif" font-size="10.00"> parameters</text>
</g>
<!-- Node12 -->
<g id="node12" class="node">
<title>Node12</title>
<g id="a_node12"><a xlink:href="class_p4_1_1_type_variable_substitution.html" target="_top" xlink:title=" ">
<polygon fill="white" stroke="black" points="428,-373.5 428,-392.5 583,-392.5 583,-373.5 428,-373.5"/>
<text text-anchor="middle" x="505.5" y="-380.5" font-family="Helvetica,sans-Serif" font-size="10.00">P4::TypeVariableSubstitution</text>
</a>
</g>
</g>
<!-- Node12&#45;&gt;Node3 -->
<g id="edge13" class="edge">
<title>Node12&#45;&gt;Node3</title>
<path fill="none" stroke="#9a32cd" stroke-dasharray="5,2" d="M538.39,-369.35C575.36,-352.79 637.34,-322.73 685,-288 708.32,-271.01 731.6,-246.22 743.62,-232.69"/>
<polygon fill="#9a32cd" stroke="#9a32cd" points="536.83,-366.21 529.1,-373.46 539.66,-372.61 536.83,-366.21"/>
<text text-anchor="middle" x="643" y="-339" font-family="Helvetica,sans-Serif" font-size="10.00"> typeSubstitution</text>
</g>
<!-- Node13&#45;&gt;Node12 -->
<g id="edge14" class="edge">
<title>Node13&#45;&gt;Node12</title>
<path fill="none" stroke="midnightblue" d="M300.55,-417.97C334.15,-412.61 374.06,-406.13 410,-400 423.8,-397.65 438.72,-395.01 452.54,-392.52"/>
<polygon fill="midnightblue" stroke="midnightblue" points="299.66,-414.57 290.33,-419.6 300.76,-421.48 299.66,-414.57"/>
</g>
<!-- Node14 -->
<g id="node14" class="node">
<title>Node14</title>
<g id="a_node14"><a xlink:href="class_i_r_1_1_i_declaration.html" target="_top" xlink:title="The Declaration interface, representing objects with names.">
<polygon fill="white" stroke="black" points="707,-151.5 707,-170.5 799,-170.5 799,-151.5 707,-151.5"/>
<text text-anchor="middle" x="753" y="-158.5" font-family="Helvetica,sans-Serif" font-size="10.00">IR::IDeclaration</text>
</a>
</g>
</g>
<!-- Node14&#45;&gt;Node2 -->
<g id="edge16" class="edge">
<title>Node14&#45;&gt;Node2</title>
<path fill="none" stroke="#9a32cd" stroke-dasharray="5,2" d="M809.67,-161C829.82,-161 852.58,-161 872.74,-161"/>
<polygon fill="#9a32cd" stroke="#9a32cd" points="809.39,-157.5 799.39,-161 809.39,-164.5 809.39,-157.5"/>
<text text-anchor="middle" x="838" y="-164" font-family="Helvetica,sans-Serif" font-size="10.00"> object</text>
</g>
<!-- Node15&#45;&gt;Node14 -->
<g id="edge17" class="edge">
<title>Node15&#45;&gt;Node14</title>
<path fill="none" stroke="midnightblue" d="M546.14,-161C590.08,-161 660.82,-161 706.86,-161"/>
<polygon fill="midnightblue" stroke="midnightblue" points="546.11,-157.5 536.11,-161 546.11,-164.5 546.11,-157.5"/>
</g>
<!-- Node16 -->
<g id="node16" class="node">
<title>Node16</title>
<g id="a_node16"><a xlink:href="class_util_1_1_i_has_source_info.html" target="_top" xlink:title=" ">
<polygon fill="white" stroke="black" points="166.5,-113.5 166.5,-132.5 279.5,-132.5 279.5,-113.5 166.5,-113.5"/>
<text text-anchor="middle" x="223" y="-120.5" font-family="Helvetica,sans-Serif" font-size="10.00">Util::IHasSourceInfo</text>
</a>
</g>
</g>
<!-- Node16&#45;&gt;Node15 -->
<g id="edge18" class="edge">
<title>Node16&#45;&gt;Node15</title>
<path fill="none" stroke="midnightblue" d="M290.01,-131.94C348.45,-139.86 431.06,-151.05 474.74,-156.97"/>
<polygon fill="midnightblue" stroke="midnightblue" points="290.13,-128.43 279.75,-130.55 289.19,-135.36 290.13,-128.43"/>
</g>
<!-- Node16&#45;&gt;Node17 -->
<g id="edge22" class="edge">
<title>Node16&#45;&gt;Node17</title>
<path fill="none" stroke="midnightblue" d="M289.97,-117.12C352.81,-111.52 443.6,-103.43 483.9,-99.84"/>
<polygon fill="midnightblue" stroke="midnightblue" points="289.4,-113.66 279.75,-118.03 290.02,-120.63 289.4,-113.66"/>
</g>
<!-- Node17&#45;&gt;Node1 -->
<g id="edge21" class="edge">
<title>Node17&#45;&gt;Node1</title>
<path fill="none" stroke="#9a32cd" stroke-dasharray="5,2" d="M537.13,-99.35C629.8,-103.44 907.84,-115.7 1022.85,-120.77"/>
<polygon fill="#9a32cd" stroke="#9a32cd" points="537.16,-95.85 527.01,-98.9 536.85,-102.84 537.16,-95.85"/>
<text text-anchor="middle" x="838" y="-116" font-family="Helvetica,sans-Serif" font-size="10.00"> name</text>
</g>
<!-- Node18&#45;&gt;Node17 -->
<g id="edge23" class="edge">
<title>Node18&#45;&gt;Node17</title>
<path fill="none" stroke="#9a32cd" stroke-dasharray="5,2" d="M279.25,-83.55C316.28,-83.01 366.11,-83.11 410,-86 435.58,-87.69 464.83,-91.73 483.92,-94.66"/>
<polygon fill="#9a32cd" stroke="#9a32cd" points="279.1,-80.05 269.16,-83.72 279.21,-87.05 279.1,-80.05"/>
<text text-anchor="middle" x="359" y="-89" font-family="Helvetica,sans-Serif" font-size="10.00"> srcInfo</text>
</g>
</g>
</svg>
