<?xml version="1.0" encoding="UTF-8" standalone="no"?>
<!DOCTYPE svg PUBLIC "-//W3C//DTD SVG 1.1//EN"
 "http://www.w3.org/Graphics/SVG/1.1/DTD/svg11.dtd">
<!-- Generated by graphviz version 2.43.0 (0)
 -->
<!-- Title: P4::SubstituteParameters Pages: 1 -->
<svg width="1028pt" height="422pt"
 viewBox="0.00 0.00 1028.00 421.50" xmlns="http://www.w3.org/2000/svg" xmlns:xlink="http://www.w3.org/1999/xlink">
<g id="graph0" class="graph" transform="scale(1 1) rotate(0) translate(4 417.5)">
<title>P4::SubstituteParameters</title>
<polygon fill="white" stroke="transparent" points="-4,4 -4,-417.5 1024,-417.5 1024,4 -4,4"/>
<!-- Node1 -->
<g id="node1" class="node">
<title>Node1</title>
<g id="a_node1"><a xlink:title=" ">
<polygon fill="#bfbfbf" stroke="black" points="880,-87.5 880,-106.5 1020,-106.5 1020,-87.5 880,-87.5"/>
<text text-anchor="middle" x="950" y="-94.5" font-family="Helvetica,sans-Serif" font-size="10.00">P4::SubstituteParameters</text>
</a>
</g>
</g>
<!-- Node2 -->
<g id="node2" class="node">
<title>Node2</title>
<g id="a_node2"><a xlink:href="class_p4_1_1_type_variable_substitution_visitor.html" target="_top" xlink:title=" ">
<polygon fill="white" stroke="black" points="688,-82 688,-112 843,-112 843,-82 688,-82"/>
<text text-anchor="start" x="696" y="-100" font-family="Helvetica,sans-Serif" font-size="10.00">P4::TypeVariableSubstitution</text>
<text text-anchor="middle" x="765.5" y="-89" font-family="Helvetica,sans-Serif" font-size="10.00">Visitor</text>
</a>
</g>
</g>
<!-- Node2&#45;&gt;Node1 -->
<g id="edge1" class="edge">
<title>Node2&#45;&gt;Node1</title>
<path fill="none" stroke="midnightblue" d="M853.17,-97C862.12,-97 871.13,-97 879.86,-97"/>
<polygon fill="midnightblue" stroke="midnightblue" points="853.1,-93.5 843.1,-97 853.1,-100.5 853.1,-93.5"/>
</g>
<!-- Node3 -->
<g id="node3" class="node">
<title>Node3</title>
<g id="a_node3"><a xlink:href="class_transform.html" target="_top" xlink:title=" ">
<polygon fill="white" stroke="black" points="497,-108.5 497,-127.5 562,-127.5 562,-108.5 497,-108.5"/>
<text text-anchor="middle" x="529.5" y="-115.5" font-family="Helvetica,sans-Serif" font-size="10.00">Transform</text>
</a>
</g>
</g>
<!-- Node3&#45;&gt;Node2 -->
<g id="edge2" class="edge">
<title>Node3&#45;&gt;Node2</title>
<path fill="none" stroke="midnightblue" d="M572.38,-114.24C604.37,-111.37 649.34,-107.33 687.73,-103.89"/>
<polygon fill="midnightblue" stroke="midnightblue" points="571.71,-110.79 562.06,-115.17 572.33,-117.76 571.71,-110.79"/>
</g>
<!-- Node4 -->
<g id="node4" class="node">
<title>Node4</title>
<g id="a_node4"><a xlink:href="class_visitor.html" target="_top" xlink:title=" ">
<polygon fill="white" stroke="black" points="223,-179.5 223,-198.5 271,-198.5 271,-179.5 223,-179.5"/>
<text text-anchor="middle" x="247" y="-186.5" font-family="Helvetica,sans-Serif" font-size="10.00">Visitor</text>
</a>
</g>
</g>
<!-- Node4&#45;&gt;Node3 -->
<g id="edge3" class="edge">
<title>Node4&#45;&gt;Node3</title>
<path fill="none" stroke="midnightblue" d="M280.82,-178.5C291.66,-174.53 303.59,-169.6 314,-164 322.69,-159.32 322.9,-154.81 332,-151 387.06,-127.99 457.13,-121 496.99,-118.9"/>
<polygon fill="midnightblue" stroke="midnightblue" points="279.53,-175.25 271.26,-181.87 281.85,-181.85 279.53,-175.25"/>
</g>
<!-- Node4&#45;&gt;Node4 -->
<g id="edge11" class="edge">
<title>Node4&#45;&gt;Node4</title>
<path fill="none" stroke="#9a32cd" stroke-dasharray="5,2" d="M224.68,-208.03C225.9,-213.13 233.34,-217 247,-217 268.33,-217 274.49,-207.57 265.5,-198.76"/>
<polygon fill="#9a32cd" stroke="#9a32cd" points="227.93,-209.34 228.5,-198.76 221.45,-206.67 227.93,-209.34"/>
<text text-anchor="middle" x="247" y="-220" font-family="Helvetica,sans-Serif" font-size="10.00"> called_by</text>
</g>
<!-- Node6 -->
<g id="node6" class="node">
<title>Node6</title>
<g id="a_node6"><a xlink:href="class_split_flow_visit__base.html" target="_top" xlink:title=" ">
<polygon fill="white" stroke="black" points="709.5,-201.5 709.5,-220.5 821.5,-220.5 821.5,-201.5 709.5,-201.5"/>
<text text-anchor="middle" x="765.5" y="-208.5" font-family="Helvetica,sans-Serif" font-size="10.00">SplitFlowVisit_base</text>
</a>
</g>
</g>
<!-- Node4&#45;&gt;Node6 -->
<g id="edge10" class="edge">
<title>Node4&#45;&gt;Node6</title>
<path fill="none" stroke="#9a32cd" stroke-dasharray="5,2" d="M281.37,-186.12C344.9,-181.15 487.55,-172.46 607,-183 646.56,-186.49 691.07,-194.82 722.65,-201.49"/>
<polygon fill="#9a32cd" stroke="#9a32cd" points="280.85,-182.65 271.16,-186.94 281.41,-189.63 280.85,-182.65"/>
<text text-anchor="middle" x="529.5" y="-186" font-family="Helvetica,sans-Serif" font-size="10.00"> v</text>
</g>
<!-- Node7 -->
<g id="node7" class="node">
<title>Node7</title>
<g id="a_node7"><a xlink:title=" ">
<polygon fill="white" stroke="#bfbfbf" points="464,-251.5 464,-270.5 595,-270.5 595,-251.5 464,-251.5"/>
<text text-anchor="middle" x="529.5" y="-258.5" font-family="Helvetica,sans-Serif" font-size="10.00">std::vector&lt; Visitor * &gt;</text>
</a>
</g>
</g>
<!-- Node4&#45;&gt;Node7 -->
<g id="edge9" class="edge">
<title>Node4&#45;&gt;Node7</title>
<path fill="none" stroke="#9a32cd" stroke-dasharray="5,2" d="M280.73,-198.82C296.22,-203.34 315,-208.66 332,-213 377.03,-224.5 388.86,-224.94 434,-236 453.78,-240.84 475.78,-246.64 493.57,-251.43"/>
<polygon fill="#9a32cd" stroke="#9a32cd" points="281.66,-195.44 271.08,-195.97 279.68,-202.16 281.66,-195.44"/>
<text text-anchor="middle" x="383" y="-239" font-family="Helvetica,sans-Serif" font-size="10.00"> elements</text>
</g>
<!-- Node5 -->
<g id="node5" class="node">
<title>Node5</title>
<g id="a_node5"><a xlink:href="classcstring.html" target="_top" xlink:title=" ">
<polygon fill="white" stroke="black" points="12,-312.5 12,-331.5 62,-331.5 62,-312.5 12,-312.5"/>
<text text-anchor="middle" x="37" y="-319.5" font-family="Helvetica,sans-Serif" font-size="10.00">cstring</text>
</a>
</g>
</g>
<!-- Node5&#45;&gt;Node4 -->
<g id="edge4" class="edge">
<title>Node5&#45;&gt;Node4</title>
<path fill="none" stroke="#9a32cd" stroke-dasharray="5,2" d="M61.65,-306.88C104.79,-279.29 195.08,-221.56 230.9,-198.66"/>
<polygon fill="#9a32cd" stroke="#9a32cd" points="59.5,-304.1 52.96,-312.43 63.27,-310 59.5,-304.1"/>
<text text-anchor="middle" x="127" y="-290" font-family="Helvetica,sans-Serif" font-size="10.00"> internalName</text>
</g>
<!-- Node5&#45;&gt;Node5 -->
<g id="edge5" class="edge">
<title>Node5&#45;&gt;Node5</title>
<path fill="none" stroke="#9a32cd" stroke-dasharray="5,2" d="M20.33,-341.4C21.45,-346.31 27,-350 37,-350 53,-350 57.62,-340.57 50.87,-331.76"/>
<polygon fill="#9a32cd" stroke="#9a32cd" points="23.71,-342.34 23.13,-331.76 16.98,-340.39 23.71,-342.34"/>
<text text-anchor="middle" x="37" y="-364" font-family="Helvetica,sans-Serif" font-size="10.00"> empty</text>
<text text-anchor="middle" x="37" y="-353" font-family="Helvetica,sans-Serif" font-size="10.00">newline</text>
</g>
<!-- Node12 -->
<g id="node12" class="node">
<title>Node12</title>
<g id="a_node12"><a xlink:title=" ">
<polygon fill="white" stroke="#bfbfbf" points="180,-383 180,-413 314,-413 314,-383 180,-383"/>
<text text-anchor="start" x="188" y="-401" font-family="Helvetica,sans-Serif" font-size="10.00">std::map&lt; cstring,</text>
<text text-anchor="middle" x="247" y="-390" font-family="Helvetica,sans-Serif" font-size="10.00"> const IR::Parameter * &gt;</text>
</a>
</g>
</g>
<!-- Node5&#45;&gt;Node12 -->
<g id="edge18" class="edge">
<title>Node5&#45;&gt;Node12</title>
<path fill="none" stroke="#9a32cd" stroke-dasharray="5,2" d="M61.77,-336.67C70.99,-341.96 81.77,-347.69 92,-352 121.7,-364.51 155.95,-375.1 184.6,-382.95"/>
<polygon fill="#9a32cd" stroke="#9a32cd" points="63.54,-333.65 53.15,-331.58 59.98,-339.68 63.54,-333.65"/>
<text text-anchor="middle" x="127" y="-378" font-family="Helvetica,sans-Serif" font-size="10.00"> keys</text>
</g>
<!-- Node13 -->
<g id="node13" class="node">
<title>Node13</title>
<g id="a_node13"><a xlink:title=" ">
<polygon fill="white" stroke="#bfbfbf" points="181,-334 181,-364 313,-364 313,-334 181,-334"/>
<text text-anchor="start" x="189" y="-352" font-family="Helvetica,sans-Serif" font-size="10.00">std::map&lt; cstring,</text>
<text text-anchor="middle" x="247" y="-341" font-family="Helvetica,sans-Serif" font-size="10.00"> const IR::Argument * &gt;</text>
</a>
</g>
</g>
<!-- Node5&#45;&gt;Node13 -->
<g id="edge20" class="edge">
<title>Node5&#45;&gt;Node13</title>
<path fill="none" stroke="#9a32cd" stroke-dasharray="5,2" d="M72.42,-326.47C101.76,-330.28 144.75,-335.86 180.61,-340.51"/>
<polygon fill="#9a32cd" stroke="#9a32cd" points="72.63,-322.97 62.27,-325.15 71.73,-329.91 72.63,-322.97"/>
<text text-anchor="middle" x="127" y="-340" font-family="Helvetica,sans-Serif" font-size="10.00"> keys</text>
</g>
<!-- Node16 -->
<g id="node16" class="node">
<title>Node16</title>
<g id="a_node16"><a xlink:href="class_p4_1_1_program_map.html" target="_top" xlink:title=" ">
<polygon fill="white" stroke="black" points="198.5,-86.5 198.5,-105.5 295.5,-105.5 295.5,-86.5 198.5,-86.5"/>
<text text-anchor="middle" x="247" y="-93.5" font-family="Helvetica,sans-Serif" font-size="10.00">P4::ProgramMap</text>
</a>
</g>
</g>
<!-- Node5&#45;&gt;Node16 -->
<g id="edge25" class="edge">
<title>Node5&#45;&gt;Node16</title>
<path fill="none" stroke="#9a32cd" stroke-dasharray="5,2" d="M47.87,-303.37C58.21,-284.28 75.24,-253.94 92,-229 96.46,-222.36 173.38,-119.5 180,-115 185.72,-111.11 192.24,-108.01 198.89,-105.54"/>
<polygon fill="#9a32cd" stroke="#9a32cd" points="44.76,-301.78 43.12,-312.24 50.93,-305.08 44.76,-301.78"/>
<text text-anchor="middle" x="127" y="-232" font-family="Helvetica,sans-Serif" font-size="10.00"> mapKind</text>
</g>
<!-- Node6&#45;&gt;Node4 -->
<g id="edge6" class="edge">
<title>Node6&#45;&gt;Node4</title>
<path fill="none" stroke="#9a32cd" stroke-dasharray="5,2" d="M699.28,-208.22C583.24,-203.28 346.08,-193.18 271.2,-189.99"/>
<polygon fill="#9a32cd" stroke="#9a32cd" points="699.3,-211.73 709.44,-208.65 699.6,-204.73 699.3,-211.73"/>
<text text-anchor="middle" x="529.5" y="-218" font-family="Helvetica,sans-Serif" font-size="10.00"> split_link</text>
<text text-anchor="middle" x="529.5" y="-207" font-family="Helvetica,sans-Serif" font-size="10.00">split_link_mem</text>
</g>
<!-- Node6&#45;&gt;Node6 -->
<g id="edge7" class="edge">
<title>Node6&#45;&gt;Node6</title>
<path fill="none" stroke="#9a32cd" stroke-dasharray="5,2" d="M747.72,-230.4C748.91,-235.31 754.84,-239 765.5,-239 782.56,-239 787.49,-229.57 780.3,-220.76"/>
<polygon fill="#9a32cd" stroke="#9a32cd" points="751.09,-231.34 750.7,-220.76 744.41,-229.28 751.09,-231.34"/>
<text text-anchor="middle" x="765.5" y="-242" font-family="Helvetica,sans-Serif" font-size="10.00"> prev</text>
</g>
<!-- Node7&#45;&gt;Node6 -->
<g id="edge8" class="edge">
<title>Node7&#45;&gt;Node6</title>
<path fill="none" stroke="#9a32cd" stroke-dasharray="5,2" d="M584.88,-249.38C625.83,-240.63 681.29,-228.78 719.7,-220.57"/>
<polygon fill="#9a32cd" stroke="#9a32cd" points="584.11,-245.97 575.06,-251.48 585.58,-252.81 584.11,-245.97"/>
<text text-anchor="middle" x="647.5" y="-244" font-family="Helvetica,sans-Serif" font-size="10.00"> visitors</text>
</g>
<!-- Node8 -->
<g id="node8" class="node">
<title>Node8</title>
<g id="a_node8"><a xlink:href="class_p4_1_1_type_variable_substitution.html" target="_top" xlink:title=" ">
<polygon fill="white" stroke="black" points="452,-70.5 452,-89.5 607,-89.5 607,-70.5 452,-70.5"/>
<text text-anchor="middle" x="529.5" y="-77.5" font-family="Helvetica,sans-Serif" font-size="10.00">P4::TypeVariableSubstitution</text>
</a>
</g>
</g>
<!-- Node8&#45;&gt;Node2 -->
<g id="edge12" class="edge">
<title>Node8&#45;&gt;Node2</title>
<path fill="none" stroke="#9a32cd" stroke-dasharray="5,2" d="M617.26,-86.3C640.37,-87.98 665.17,-89.78 687.71,-91.42"/>
<polygon fill="#9a32cd" stroke="#9a32cd" points="617.35,-82.8 607.12,-85.57 616.84,-89.78 617.35,-82.8"/>
<text text-anchor="middle" x="647.5" y="-94" font-family="Helvetica,sans-Serif" font-size="10.00"> bindings</text>
</g>
<!-- Node9 -->
<g id="node9" class="node">
<title>Node9</title>
<g id="a_node9"><a xlink:href="class_p4_1_1_type_substitution.html" target="_top" xlink:title=" ">
<polygon fill="white" stroke="black" points="180,-125 180,-155 314,-155 314,-125 180,-125"/>
<text text-anchor="start" x="188" y="-143" font-family="Helvetica,sans-Serif" font-size="10.00">P4::TypeSubstitution</text>
<text text-anchor="middle" x="247" y="-132" font-family="Helvetica,sans-Serif" font-size="10.00">&lt; const IR::ITypeVar * &gt;</text>
</a>
</g>
</g>
<!-- Node9&#45;&gt;Node8 -->
<g id="edge13" class="edge">
<title>Node9&#45;&gt;Node8</title>
<path fill="none" stroke="midnightblue" d="M324.14,-123.71C375.29,-112.77 440.92,-98.73 483.82,-89.56"/>
<polygon fill="midnightblue" stroke="midnightblue" points="323.17,-120.34 314.12,-125.86 324.63,-127.19 323.17,-120.34"/>
</g>
<!-- Node10 -->
<g id="node10" class="node">
<title>Node10</title>
<g id="a_node10"><a xlink:href="class_i_has_db_print.html" target="_top" xlink:title=" ">
<polygon fill="white" stroke="black" points="0,-130.5 0,-149.5 74,-149.5 74,-130.5 0,-130.5"/>
<text text-anchor="middle" x="37" y="-137.5" font-family="Helvetica,sans-Serif" font-size="10.00">IHasDbPrint</text>
</a>
</g>
</g>
<!-- Node10&#45;&gt;Node9 -->
<g id="edge14" class="edge">
<title>Node10&#45;&gt;Node9</title>
<path fill="none" stroke="midnightblue" d="M84.57,-140C112.68,-140 148.93,-140 179.96,-140"/>
<polygon fill="midnightblue" stroke="midnightblue" points="84.23,-136.5 74.23,-140 84.23,-143.5 84.23,-136.5"/>
</g>
<!-- Node11 -->
<g id="node11" class="node">
<title>Node11</title>
<g id="a_node11"><a xlink:href="class_p4_1_1_parameter_substitution.html" target="_top" xlink:title=" ">
<polygon fill="white" stroke="black" points="458,-290.5 458,-309.5 601,-309.5 601,-290.5 458,-290.5"/>
<text text-anchor="middle" x="529.5" y="-297.5" font-family="Helvetica,sans-Serif" font-size="10.00">P4::ParameterSubstitution</text>
</a>
</g>
</g>
<!-- Node10&#45;&gt;Node11 -->
<g id="edge16" class="edge">
<title>Node10&#45;&gt;Node11</title>
<path fill="none" stroke="midnightblue" d="M42.51,-159.47C49.1,-183.13 63.75,-222.34 92,-242 99.45,-247.19 336.28,-276.62 457.91,-291.46"/>
<polygon fill="midnightblue" stroke="midnightblue" points="45.84,-158.35 39.97,-149.53 39.06,-160.09 45.84,-158.35"/>
</g>
<!-- Node10&#45;&gt;Node16 -->
<g id="edge24" class="edge">
<title>Node10&#45;&gt;Node16</title>
<path fill="none" stroke="midnightblue" d="M84.12,-130.24C118.86,-122.9 166.23,-112.87 200.75,-105.57"/>
<polygon fill="midnightblue" stroke="midnightblue" points="83.29,-126.84 74.23,-132.34 84.74,-133.69 83.29,-126.84"/>
</g>
<!-- Node11&#45;&gt;Node1 -->
<g id="edge15" class="edge">
<title>Node11&#45;&gt;Node1</title>
<path fill="none" stroke="#9a32cd" stroke-dasharray="5,2" d="M611.37,-307.2C678.4,-309.22 773.59,-302.61 843,-259 903.05,-221.27 936.12,-135.68 945.89,-106.76"/>
<polygon fill="#9a32cd" stroke="#9a32cd" points="611.4,-303.7 601.28,-306.82 611.14,-310.69 611.4,-303.7"/>
<text text-anchor="middle" x="765.5" y="-307" font-family="Helvetica,sans-Serif" font-size="10.00"> subst</text>
</g>
<!-- Node12&#45;&gt;Node11 -->
<g id="edge17" class="edge">
<title>Node12&#45;&gt;Node11</title>
<path fill="none" stroke="#9a32cd" stroke-dasharray="5,2" d="M323.96,-381.36C358.12,-372.92 398.62,-361.57 434,-348 462.52,-337.06 493.79,-320.12 512.25,-309.57"/>
<polygon fill="#9a32cd" stroke="#9a32cd" points="322.93,-378.01 314.05,-383.78 324.59,-384.81 322.93,-378.01"/>
<text text-anchor="middle" x="383" y="-381" font-family="Helvetica,sans-Serif" font-size="10.00"> parametersByName</text>
</g>
<!-- Node13&#45;&gt;Node11 -->
<g id="edge19" class="edge">
<title>Node13&#45;&gt;Node11</title>
<path fill="none" stroke="#9a32cd" stroke-dasharray="5,2" d="M322.98,-335.9C370.44,-327.61 430.73,-317.08 473.71,-309.57"/>
<polygon fill="#9a32cd" stroke="#9a32cd" points="322.31,-332.47 313.06,-337.64 323.51,-339.36 322.31,-332.47"/>
<text text-anchor="middle" x="383" y="-336" font-family="Helvetica,sans-Serif" font-size="10.00"> parameterValues</text>
</g>
<!-- Node14 -->
<g id="node14" class="node">
<title>Node14</title>
<g id="a_node14"><a xlink:title=" ">
<polygon fill="white" stroke="#bfbfbf" points="194,-285 194,-315 300,-315 300,-285 194,-285"/>
<text text-anchor="start" x="202" y="-303" font-family="Helvetica,sans-Serif" font-size="10.00">std::vector&lt; const</text>
<text text-anchor="middle" x="247" y="-292" font-family="Helvetica,sans-Serif" font-size="10.00"> IR::Parameter * &gt;</text>
</a>
</g>
</g>
<!-- Node14&#45;&gt;Node11 -->
<g id="edge21" class="edge">
<title>Node14&#45;&gt;Node11</title>
<path fill="none" stroke="#9a32cd" stroke-dasharray="5,2" d="M310.31,-300C354,-300 412.48,-300 457.9,-300"/>
<polygon fill="#9a32cd" stroke="#9a32cd" points="310.1,-296.5 300.1,-300 310.1,-303.5 310.1,-296.5"/>
<text text-anchor="middle" x="383" y="-303" font-family="Helvetica,sans-Serif" font-size="10.00"> parameters</text>
</g>
<!-- Node15 -->
<g id="node15" class="node">
<title>Node15</title>
<g id="a_node15"><a xlink:href="class_p4_1_1_reference_map.html" target="_top" xlink:title="Class used to encode maps from paths to declarations.">
<polygon fill="white" stroke="black" points="477,-32.5 477,-51.5 582,-51.5 582,-32.5 477,-32.5"/>
<text text-anchor="middle" x="529.5" y="-39.5" font-family="Helvetica,sans-Serif" font-size="10.00">P4::ReferenceMap</text>
</a>
</g>
</g>
<!-- Node15&#45;&gt;Node1 -->
<g id="edge22" class="edge">
<title>Node15&#45;&gt;Node1</title>
<path fill="none" stroke="#9a32cd" stroke-dasharray="5,2" d="M592.43,-40.94C655.92,-40.97 757.24,-44.15 843,-61 872.75,-66.85 905.6,-78.94 926.73,-87.49"/>
<polygon fill="#9a32cd" stroke="#9a32cd" points="592.18,-37.44 582.18,-40.96 592.19,-44.44 592.18,-37.44"/>
<text text-anchor="middle" x="765.5" y="-64" font-family="Helvetica,sans-Serif" font-size="10.00"> refMap</text>
</g>
<!-- Node16&#45;&gt;Node15 -->
<g id="edge23" class="edge">
<title>Node16&#45;&gt;Node15</title>
<path fill="none" stroke="midnightblue" d="M305.47,-84.94C356.49,-75.11 430.27,-60.91 478.79,-51.57"/>
<polygon fill="midnightblue" stroke="midnightblue" points="304.74,-81.51 295.58,-86.84 306.06,-88.39 304.74,-81.51"/>
</g>
<!-- Node17 -->
<g id="node17" class="node">
<title>Node17</title>
<g id="a_node17"><a xlink:href="class_p4_1_1_name_generator.html" target="_top" xlink:title=" ">
<polygon fill="white" stroke="black" points="190.5,-0.5 190.5,-19.5 303.5,-19.5 303.5,-0.5 190.5,-0.5"/>
<text text-anchor="middle" x="247" y="-7.5" font-family="Helvetica,sans-Serif" font-size="10.00">P4::NameGenerator</text>
</a>
</g>
</g>
<!-- Node17&#45;&gt;Node15 -->
<g id="edge26" class="edge">
<title>Node17&#45;&gt;Node15</title>
<path fill="none" stroke="midnightblue" d="M313.76,-17.5C363.45,-23.17 430.72,-30.84 476.64,-36.08"/>
<polygon fill="midnightblue" stroke="midnightblue" points="314.09,-14.02 303.75,-16.36 313.29,-20.97 314.09,-14.02"/>
</g>
<!-- Node18 -->
<g id="node18" class="node">
<title>Node18</title>
<g id="a_node18"><a xlink:href="class_p4_1_1_declaration_lookup.html" target="_top" xlink:title=" ">
<polygon fill="white" stroke="black" points="184.5,-38.5 184.5,-57.5 309.5,-57.5 309.5,-38.5 184.5,-38.5"/>
<text text-anchor="middle" x="247" y="-45.5" font-family="Helvetica,sans-Serif" font-size="10.00">P4::DeclarationLookup</text>
</a>
</g>
</g>
<!-- Node18&#45;&gt;Node15 -->
<g id="edge27" class="edge">
<title>Node18&#45;&gt;Node15</title>
<path fill="none" stroke="midnightblue" d="M319.8,-46.46C368.91,-45.41 432.85,-44.05 476.95,-43.1"/>
<polygon fill="midnightblue" stroke="midnightblue" points="319.48,-42.97 309.56,-46.68 319.63,-49.97 319.48,-42.97"/>
</g>
</g>
</svg>
