<?xml version="1.0" encoding="UTF-8" standalone="no"?>
<!DOCTYPE svg PUBLIC "-//W3C//DTD SVG 1.1//EN"
 "http://www.w3.org/Graphics/SVG/1.1/DTD/svg11.dtd">
<!-- Generated by graphviz version 2.43.0 (0)
 -->
<!-- Title: P4::DoRemoveActionParameters Pages: 1 -->
<svg width="413pt" height="233pt"
 viewBox="0.00 0.00 412.50 233.00" xmlns="http://www.w3.org/2000/svg" xmlns:xlink="http://www.w3.org/1999/xlink">
<g id="graph0" class="graph" transform="scale(1 1) rotate(0) translate(4 229)">
<title>P4::DoRemoveActionParameters</title>
<polygon fill="white" stroke="transparent" points="-4,4 -4,-229 408.5,-229 408.5,4 -4,4"/>
<!-- Node1 -->
<g id="node1" class="node">
<title>Node1</title>
<g id="a_node1"><a xlink:title=" ">
<polygon fill="#bfbfbf" stroke="black" points="0,-0.5 0,-19.5 175,-19.5 175,-0.5 0,-0.5"/>
<text text-anchor="middle" x="87.5" y="-7.5" font-family="Helvetica,sans-Serif" font-size="10.00">P4::DoRemoveActionParameters</text>
</a>
</g>
</g>
<!-- Node2 -->
<g id="node2" class="node">
<title>Node2</title>
<g id="a_node2"><a xlink:href="class_transform.html" target="_top" xlink:title=" ">
<polygon fill="white" stroke="black" points="55,-68.5 55,-87.5 120,-87.5 120,-68.5 55,-68.5"/>
<text text-anchor="middle" x="87.5" y="-75.5" font-family="Helvetica,sans-Serif" font-size="10.00">Transform</text>
</a>
</g>
</g>
<!-- Node2&#45;&gt;Node1 -->
<g id="edge1" class="edge">
<title>Node2&#45;&gt;Node1</title>
<path fill="none" stroke="midnightblue" d="M87.5,-58.04C87.5,-45.47 87.5,-29.56 87.5,-19.84"/>
<polygon fill="midnightblue" stroke="midnightblue" points="84,-58.37 87.5,-68.37 91,-58.37 84,-58.37"/>
</g>
<!-- Node3 -->
<g id="node3" class="node">
<title>Node3</title>
<g id="a_node3"><a xlink:href="class_visitor.html" target="_top" xlink:title=" ">
<polygon fill="white" stroke="black" points="164.5,-136.5 164.5,-155.5 212.5,-155.5 212.5,-136.5 164.5,-136.5"/>
<text text-anchor="middle" x="188.5" y="-143.5" font-family="Helvetica,sans-Serif" font-size="10.00">Visitor</text>
</a>
</g>
</g>
<!-- Node3&#45;&gt;Node2 -->
<g id="edge2" class="edge">
<title>Node3&#45;&gt;Node2</title>
<path fill="none" stroke="midnightblue" d="M163.91,-131.09C156.92,-127 149.34,-122.42 142.5,-118 127.16,-108.09 110.09,-95.77 99.1,-87.67"/>
<polygon fill="midnightblue" stroke="midnightblue" points="162.56,-134.35 172.97,-136.33 166.06,-128.29 162.56,-134.35"/>
</g>
<!-- Node3&#45;&gt;Node3 -->
<g id="edge10" class="edge">
<title>Node3&#45;&gt;Node3</title>
<path fill="none" stroke="#9a32cd" stroke-dasharray="5,2" d="M222.92,-151.29C227.48,-150.39 230.5,-148.63 230.5,-146 230.5,-141.69 222.36,-139.7 212.67,-140.04"/>
<polygon fill="#9a32cd" stroke="#9a32cd" points="222.42,-147.82 212.67,-151.96 222.88,-154.8 222.42,-147.82"/>
<text text-anchor="middle" x="255.5" y="-143.5" font-family="Helvetica,sans-Serif" font-size="10.00"> called_by</text>
</g>
<!-- Node5 -->
<g id="node5" class="node">
<title>Node5</title>
<g id="a_node5"><a xlink:href="class_split_flow_visit__base.html" target="_top" xlink:title=" ">
<polygon fill="white" stroke="black" points="194.5,-0.5 194.5,-19.5 306.5,-19.5 306.5,-0.5 194.5,-0.5"/>
<text text-anchor="middle" x="250.5" y="-7.5" font-family="Helvetica,sans-Serif" font-size="10.00">SplitFlowVisit_base</text>
</a>
</g>
</g>
<!-- Node3&#45;&gt;Node5 -->
<g id="edge9" class="edge">
<title>Node3&#45;&gt;Node5</title>
<path fill="none" stroke="#9a32cd" stroke-dasharray="5,2" d="M176.16,-127.83C166.04,-111.48 154.98,-86.53 165.5,-67 178.24,-43.35 205.82,-28.04 226.12,-19.51"/>
<polygon fill="#9a32cd" stroke="#9a32cd" points="173.38,-129.97 181.83,-136.36 179.2,-126.1 173.38,-129.97"/>
<text text-anchor="middle" x="170.5" y="-75.5" font-family="Helvetica,sans-Serif" font-size="10.00"> v</text>
</g>
<!-- Node6 -->
<g id="node6" class="node">
<title>Node6</title>
<g id="a_node6"><a xlink:title=" ">
<polygon fill="white" stroke="#bfbfbf" points="185,-68.5 185,-87.5 316,-87.5 316,-68.5 185,-68.5"/>
<text text-anchor="middle" x="250.5" y="-75.5" font-family="Helvetica,sans-Serif" font-size="10.00">std::vector&lt; Visitor * &gt;</text>
</a>
</g>
</g>
<!-- Node3&#45;&gt;Node6 -->
<g id="edge8" class="edge">
<title>Node3&#45;&gt;Node6</title>
<path fill="none" stroke="#9a32cd" stroke-dasharray="5,2" d="M203.49,-129.05C215.64,-116.11 232.32,-98.36 242.19,-87.84"/>
<polygon fill="#9a32cd" stroke="#9a32cd" points="200.9,-126.69 196.61,-136.37 206,-131.48 200.9,-126.69"/>
<text text-anchor="middle" x="248" y="-110" font-family="Helvetica,sans-Serif" font-size="10.00"> elements</text>
</g>
<!-- Node4 -->
<g id="node4" class="node">
<title>Node4</title>
<g id="a_node4"><a xlink:href="classcstring.html" target="_top" xlink:title=" ">
<polygon fill="white" stroke="black" points="163.5,-204.5 163.5,-223.5 213.5,-223.5 213.5,-204.5 163.5,-204.5"/>
<text text-anchor="middle" x="188.5" y="-211.5" font-family="Helvetica,sans-Serif" font-size="10.00">cstring</text>
</a>
</g>
</g>
<!-- Node4&#45;&gt;Node3 -->
<g id="edge3" class="edge">
<title>Node4&#45;&gt;Node3</title>
<path fill="none" stroke="#9a32cd" stroke-dasharray="5,2" d="M188.5,-194.04C188.5,-181.47 188.5,-165.56 188.5,-155.84"/>
<polygon fill="#9a32cd" stroke="#9a32cd" points="185,-194.37 188.5,-204.37 192,-194.37 185,-194.37"/>
<text text-anchor="middle" x="223.5" y="-177" font-family="Helvetica,sans-Serif" font-size="10.00"> internalName</text>
</g>
<!-- Node4&#45;&gt;Node4 -->
<g id="edge4" class="edge">
<title>Node4&#45;&gt;Node4</title>
<path fill="none" stroke="#9a32cd" stroke-dasharray="5,2" d="M223.95,-219.58C228.5,-218.61 231.5,-216.75 231.5,-214 231.5,-209.48 223.41,-207.37 213.68,-207.65"/>
<polygon fill="#9a32cd" stroke="#9a32cd" points="223.39,-216.11 213.68,-220.35 223.91,-223.1 223.39,-216.11"/>
<text text-anchor="middle" x="251" y="-217" font-family="Helvetica,sans-Serif" font-size="10.00"> empty</text>
<text text-anchor="middle" x="251" y="-206" font-family="Helvetica,sans-Serif" font-size="10.00">newline</text>
</g>
<!-- Node5&#45;&gt;Node3 -->
<g id="edge5" class="edge">
<title>Node5&#45;&gt;Node3</title>
<path fill="none" stroke="#9a32cd" stroke-dasharray="5,2" d="M279.55,-24.16C306.57,-38.38 340.57,-62.58 325.5,-89 302.85,-128.73 245.46,-140.29 212.6,-143.64"/>
<polygon fill="#9a32cd" stroke="#9a32cd" points="280.88,-20.91 270.38,-19.56 277.75,-27.17 280.88,-20.91"/>
<text text-anchor="middle" x="366.5" y="-81" font-family="Helvetica,sans-Serif" font-size="10.00"> split_link</text>
<text text-anchor="middle" x="366.5" y="-70" font-family="Helvetica,sans-Serif" font-size="10.00">split_link_mem</text>
</g>
<!-- Node5&#45;&gt;Node5 -->
<g id="edge6" class="edge">
<title>Node5&#45;&gt;Node5</title>
<path fill="none" stroke="#9a32cd" stroke-dasharray="5,2" d="M316.9,-14.4C321.62,-13.4 324.5,-11.93 324.5,-10 324.5,-6.91 317.12,-5.01 306.65,-4.31"/>
<polygon fill="#9a32cd" stroke="#9a32cd" points="316.13,-10.97 306.65,-15.69 317.01,-17.91 316.13,-10.97"/>
<text text-anchor="middle" x="337" y="-7.5" font-family="Helvetica,sans-Serif" font-size="10.00"> prev</text>
</g>
<!-- Node6&#45;&gt;Node5 -->
<g id="edge7" class="edge">
<title>Node6&#45;&gt;Node5</title>
<path fill="none" stroke="#9a32cd" stroke-dasharray="5,2" d="M250.5,-58.04C250.5,-45.47 250.5,-29.56 250.5,-19.84"/>
<polygon fill="#9a32cd" stroke="#9a32cd" points="247,-58.37 250.5,-68.37 254,-58.37 247,-58.37"/>
<text text-anchor="middle" x="270.5" y="-41" font-family="Helvetica,sans-Serif" font-size="10.00"> visitors</text>
</g>
</g>
</svg>
