<?xml version="1.0" encoding="UTF-8" standalone="no"?>
<!DOCTYPE svg PUBLIC "-//W3C//DTD SVG 1.1//EN"
 "http://www.w3.org/Graphics/SVG/1.1/DTD/svg11.dtd">
<!-- Generated by graphviz version 2.43.0 (0)
 -->
<!-- Title: P4Tools::P4Testgen::TestgenCompilerResult Pages: 1 -->
<svg width="143pt" height="207pt"
 viewBox="0.00 0.00 143.00 207.00" xmlns="http://www.w3.org/2000/svg" xmlns:xlink="http://www.w3.org/1999/xlink">
<g id="graph0" class="graph" transform="scale(1 1) rotate(0) translate(4 203)">
<title>P4Tools::P4Testgen::TestgenCompilerResult</title>
<polygon fill="white" stroke="transparent" points="-4,4 -4,-203 139,-203 139,4 -4,4"/>
<!-- Node1 -->
<g id="node1" class="node">
<title>Node1</title>
<g id="a_node1"><a xlink:title="Extends the CompilerResult with the associated P4RuntimeApi.">
<polygon fill="#bfbfbf" stroke="black" points="0,-0.5 0,-30.5 135,-30.5 135,-0.5 0,-0.5"/>
<text text-anchor="start" x="8" y="-18.5" font-family="Helvetica,sans-Serif" font-size="10.00">P4Tools::P4Testgen</text>
<text text-anchor="middle" x="67.5" y="-7.5" font-family="Helvetica,sans-Serif" font-size="10.00">::TestgenCompilerResult</text>
</a>
</g>
</g>
<!-- Node2 -->
<g id="node2" class="node">
<title>Node2</title>
<g id="a_node2"><a xlink:href="class_p4_tools_1_1_compiler_result.html" target="_top" xlink:title=" ">
<polygon fill="white" stroke="black" points="0.5,-67.5 0.5,-86.5 134.5,-86.5 134.5,-67.5 0.5,-67.5"/>
<text text-anchor="middle" x="67.5" y="-74.5" font-family="Helvetica,sans-Serif" font-size="10.00">P4Tools::CompilerResult</text>
</a>
</g>
</g>
<!-- Node2&#45;&gt;Node1 -->
<g id="edge1" class="edge">
<title>Node2&#45;&gt;Node1</title>
<path fill="none" stroke="midnightblue" d="M67.5,-57.23C67.5,-48.59 67.5,-38.5 67.5,-30.52"/>
<polygon fill="midnightblue" stroke="midnightblue" points="64,-57.48 67.5,-67.48 71,-57.48 64,-57.48"/>
</g>
<!-- Node3 -->
<g id="node3" class="node">
<title>Node3</title>
<g id="a_node3"><a xlink:href="class_i_castable.html" target="_top" xlink:title=" ">
<polygon fill="white" stroke="black" points="36.5,-123.5 36.5,-142.5 98.5,-142.5 98.5,-123.5 36.5,-123.5"/>
<text text-anchor="middle" x="67.5" y="-130.5" font-family="Helvetica,sans-Serif" font-size="10.00">ICastable</text>
</a>
</g>
</g>
<!-- Node3&#45;&gt;Node2 -->
<g id="edge2" class="edge">
<title>Node3&#45;&gt;Node2</title>
<path fill="none" stroke="midnightblue" d="M67.5,-112.8C67.5,-103.91 67.5,-93.78 67.5,-86.75"/>
<polygon fill="midnightblue" stroke="midnightblue" points="64,-113.08 67.5,-123.08 71,-113.08 64,-113.08"/>
</g>
<!-- Node4 -->
<g id="node4" class="node">
<title>Node4</title>
<g id="a_node4"><a xlink:href="struct_r_t_t_i_1_1_base.html" target="_top" xlink:title=" ">
<polygon fill="white" stroke="black" points="33.5,-179.5 33.5,-198.5 101.5,-198.5 101.5,-179.5 33.5,-179.5"/>
<text text-anchor="middle" x="67.5" y="-186.5" font-family="Helvetica,sans-Serif" font-size="10.00">RTTI::Base</text>
</a>
</g>
</g>
<!-- Node4&#45;&gt;Node3 -->
<g id="edge3" class="edge">
<title>Node4&#45;&gt;Node3</title>
<path fill="none" stroke="midnightblue" d="M67.5,-168.8C67.5,-159.91 67.5,-149.78 67.5,-142.75"/>
<polygon fill="midnightblue" stroke="midnightblue" points="64,-169.08 67.5,-179.08 71,-169.08 64,-169.08"/>
</g>
</g>
</svg>
