<?xml version="1.0" encoding="UTF-8" standalone="no"?>
<!DOCTYPE svg PUBLIC "-//W3C//DTD SVG 1.1//EN"
 "http://www.w3.org/Graphics/SVG/1.1/DTD/svg11.dtd">
<!-- Generated by graphviz version 2.43.0 (0)
 -->
<!-- Title: P4::SymbolicHeaderUnion Pages: 1 -->
<svg width="280pt" height="346pt"
 viewBox="0.00 0.00 280.00 346.00" xmlns="http://www.w3.org/2000/svg" xmlns:xlink="http://www.w3.org/1999/xlink">
<g id="graph0" class="graph" transform="scale(1 1) rotate(0) translate(4 342)">
<title>P4::SymbolicHeaderUnion</title>
<polygon fill="white" stroke="transparent" points="-4,4 -4,-342 276,-342 276,4 -4,4"/>
<!-- Node1 -->
<g id="node1" class="node">
<title>Node1</title>
<g id="a_node1"><a xlink:title=" ">
<polygon fill="#bfbfbf" stroke="black" points="60.5,-0.5 60.5,-19.5 203.5,-19.5 203.5,-0.5 60.5,-0.5"/>
<text text-anchor="middle" x="132" y="-7.5" font-family="Helvetica,sans-Serif" font-size="10.00">P4::SymbolicHeaderUnion</text>
</a>
</g>
</g>
<!-- Node2 -->
<g id="node2" class="node">
<title>Node2</title>
<g id="a_node2"><a xlink:href="class_p4_1_1_symbolic_struct.html" target="_top" xlink:title=" ">
<polygon fill="white" stroke="black" points="78,-57.5 78,-76.5 186,-76.5 186,-57.5 78,-57.5"/>
<text text-anchor="middle" x="132" y="-64.5" font-family="Helvetica,sans-Serif" font-size="10.00">P4::SymbolicStruct</text>
</a>
</g>
</g>
<!-- Node2&#45;&gt;Node1 -->
<g id="edge1" class="edge">
<title>Node2&#45;&gt;Node1</title>
<path fill="none" stroke="midnightblue" d="M132,-47.12C132,-37.82 132,-27.06 132,-19.71"/>
<polygon fill="midnightblue" stroke="midnightblue" points="128.5,-47.41 132,-57.41 135.5,-47.41 128.5,-47.41"/>
</g>
<!-- Node3 -->
<g id="node3" class="node">
<title>Node3</title>
<g id="a_node3"><a xlink:href="class_p4_1_1_symbolic_value.html" target="_top" xlink:title=" ">
<polygon fill="white" stroke="black" points="125.5,-203.5 125.5,-222.5 232.5,-222.5 232.5,-203.5 125.5,-203.5"/>
<text text-anchor="middle" x="179" y="-210.5" font-family="Helvetica,sans-Serif" font-size="10.00">P4::SymbolicValue</text>
</a>
</g>
</g>
<!-- Node3&#45;&gt;Node2 -->
<g id="edge2" class="edge">
<title>Node3&#45;&gt;Node2</title>
<path fill="none" stroke="midnightblue" d="M180.87,-193.44C182.44,-169.23 182.17,-126.27 165,-95 160.87,-87.47 153.7,-81.22 147.11,-76.64"/>
<polygon fill="midnightblue" stroke="midnightblue" points="177.38,-193.16 180.05,-203.41 184.36,-193.74 177.38,-193.16"/>
</g>
<!-- Node7 -->
<g id="node7" class="node">
<title>Node7</title>
<g id="a_node7"><a xlink:title=" ">
<polygon fill="white" stroke="#bfbfbf" points="21.5,-124.5 21.5,-154.5 150.5,-154.5 150.5,-124.5 21.5,-124.5"/>
<text text-anchor="start" x="29.5" y="-142.5" font-family="Helvetica,sans-Serif" font-size="10.00">std::map&lt; cstring,</text>
<text text-anchor="middle" x="86" y="-131.5" font-family="Helvetica,sans-Serif" font-size="10.00"> P4::SymbolicValue * &gt;</text>
</a>
</g>
</g>
<!-- Node3&#45;&gt;Node7 -->
<g id="edge9" class="edge">
<title>Node3&#45;&gt;Node7</title>
<path fill="none" stroke="#9a32cd" stroke-dasharray="5,2" d="M141.84,-199.52C132.82,-195.44 123.59,-190.3 116,-184 106.26,-175.92 98.3,-163.91 93.04,-154.55"/>
<polygon fill="#9a32cd" stroke="#9a32cd" points="140.53,-202.76 151.1,-203.39 143.23,-196.31 140.53,-202.76"/>
<text text-anchor="middle" x="140.5" y="-176" font-family="Helvetica,sans-Serif" font-size="10.00"> elements</text>
</g>
<!-- Node4 -->
<g id="node4" class="node">
<title>Node4</title>
<g id="a_node4"><a xlink:href="class_i_has_db_print.html" target="_top" xlink:title=" ">
<polygon fill="white" stroke="black" points="115,-261.5 115,-280.5 189,-280.5 189,-261.5 115,-261.5"/>
<text text-anchor="middle" x="152" y="-268.5" font-family="Helvetica,sans-Serif" font-size="10.00">IHasDbPrint</text>
</a>
</g>
</g>
<!-- Node4&#45;&gt;Node3 -->
<g id="edge3" class="edge">
<title>Node4&#45;&gt;Node3</title>
<path fill="none" stroke="midnightblue" d="M160.58,-252.2C165.37,-242.27 171.11,-230.36 174.9,-222.51"/>
<polygon fill="midnightblue" stroke="midnightblue" points="157.41,-250.72 156.22,-261.25 163.71,-253.76 157.41,-250.72"/>
</g>
<!-- Node5 -->
<g id="node5" class="node">
<title>Node5</title>
<g id="a_node5"><a xlink:href="class_i_castable.html" target="_top" xlink:title=" ">
<polygon fill="white" stroke="black" points="207,-261.5 207,-280.5 269,-280.5 269,-261.5 207,-261.5"/>
<text text-anchor="middle" x="238" y="-268.5" font-family="Helvetica,sans-Serif" font-size="10.00">ICastable</text>
</a>
</g>
</g>
<!-- Node5&#45;&gt;Node3 -->
<g id="edge4" class="edge">
<title>Node5&#45;&gt;Node3</title>
<path fill="none" stroke="midnightblue" d="M221.78,-254.6C210.91,-244.28 197,-231.08 188.05,-222.59"/>
<polygon fill="midnightblue" stroke="midnightblue" points="219.38,-257.15 229.04,-261.49 224.2,-252.07 219.38,-257.15"/>
</g>
<!-- Node6 -->
<g id="node6" class="node">
<title>Node6</title>
<g id="a_node6"><a xlink:href="struct_r_t_t_i_1_1_base.html" target="_top" xlink:title=" ">
<polygon fill="white" stroke="black" points="204,-318.5 204,-337.5 272,-337.5 272,-318.5 204,-318.5"/>
<text text-anchor="middle" x="238" y="-325.5" font-family="Helvetica,sans-Serif" font-size="10.00">RTTI::Base</text>
</a>
</g>
</g>
<!-- Node6&#45;&gt;Node5 -->
<g id="edge5" class="edge">
<title>Node6&#45;&gt;Node5</title>
<path fill="none" stroke="midnightblue" d="M238,-308.12C238,-298.82 238,-288.06 238,-280.71"/>
<polygon fill="midnightblue" stroke="midnightblue" points="234.5,-308.41 238,-318.41 241.5,-308.41 234.5,-308.41"/>
</g>
<!-- Node7&#45;&gt;Node2 -->
<g id="edge6" class="edge">
<title>Node7&#45;&gt;Node2</title>
<path fill="none" stroke="#9a32cd" stroke-dasharray="5,2" d="M99.86,-115.63C104,-108.93 108.62,-101.63 113,-95 117.05,-88.88 121.8,-82.13 125.54,-76.91"/>
<polygon fill="#9a32cd" stroke="#9a32cd" points="96.8,-113.91 94.55,-124.26 102.77,-117.57 96.8,-113.91"/>
<text text-anchor="middle" x="139" y="-98" font-family="Helvetica,sans-Serif" font-size="10.00"> fieldValue</text>
</g>
<!-- Node8 -->
<g id="node8" class="node">
<title>Node8</title>
<g id="a_node8"><a xlink:href="classcstring.html" target="_top" xlink:title=" ">
<polygon fill="white" stroke="black" points="0,-203.5 0,-222.5 50,-222.5 50,-203.5 0,-203.5"/>
<text text-anchor="middle" x="25" y="-210.5" font-family="Helvetica,sans-Serif" font-size="10.00">cstring</text>
</a>
</g>
</g>
<!-- Node8&#45;&gt;Node7 -->
<g id="edge7" class="edge">
<title>Node8&#45;&gt;Node7</title>
<path fill="none" stroke="#9a32cd" stroke-dasharray="5,2" d="M38.51,-195.23C44.16,-188.29 50.83,-180.21 57,-173 62.21,-166.91 68.08,-160.29 73.17,-154.63"/>
<polygon fill="#9a32cd" stroke="#9a32cd" points="35.59,-193.27 32.02,-203.24 41.03,-197.67 35.59,-193.27"/>
<text text-anchor="middle" x="70" y="-176" font-family="Helvetica,sans-Serif" font-size="10.00"> keys</text>
</g>
<!-- Node8&#45;&gt;Node8 -->
<g id="edge8" class="edge">
<title>Node8&#45;&gt;Node8</title>
<path fill="none" stroke="#9a32cd" stroke-dasharray="5,2" d="M60.45,-217.6C65,-216.8 68,-215.27 68,-213 68,-209.28 59.91,-207.54 50.18,-207.77"/>
<polygon fill="#9a32cd" stroke="#9a32cd" points="59.94,-214.12 50.18,-218.23 60.37,-221.11 59.94,-214.12"/>
<text text-anchor="middle" x="87.5" y="-216" font-family="Helvetica,sans-Serif" font-size="10.00"> empty</text>
<text text-anchor="middle" x="87.5" y="-205" font-family="Helvetica,sans-Serif" font-size="10.00">newline</text>
</g>
</g>
</svg>
