<?xml version="1.0" encoding="UTF-8" standalone="no"?>
<!DOCTYPE svg PUBLIC "-//W3C//DTD SVG 1.1//EN"
 "http://www.w3.org/Graphics/SVG/1.1/DTD/svg11.dtd">
<!-- Generated by graphviz version 2.43.0 (0)
 -->
<!-- Title: P4Tools::P4Testgen::Pna::PnaDpdkCompilerTarget Pages: 1 -->
<svg width="264pt" height="434pt"
 viewBox="0.00 0.00 263.50 434.00" xmlns="http://www.w3.org/2000/svg" xmlns:xlink="http://www.w3.org/1999/xlink">
<g id="graph0" class="graph" transform="scale(1 1) rotate(0) translate(4 430)">
<title>P4Tools::P4Testgen::Pna::PnaDpdkCompilerTarget</title>
<polygon fill="white" stroke="transparent" points="-4,4 -4,-430 259.5,-430 259.5,4 -4,4"/>
<!-- Node1 -->
<g id="node1" class="node">
<title>Node1</title>
<g id="a_node1"><a xlink:title=" ">
<polygon fill="#bfbfbf" stroke="black" points="0,-0.5 0,-30.5 164,-30.5 164,-0.5 0,-0.5"/>
<text text-anchor="start" x="8" y="-18.5" font-family="Helvetica,sans-Serif" font-size="10.00">P4Tools::P4Testgen</text>
<text text-anchor="middle" x="82" y="-7.5" font-family="Helvetica,sans-Serif" font-size="10.00">::Pna::PnaDpdkCompilerTarget</text>
</a>
</g>
</g>
<!-- Node2 -->
<g id="node2" class="node">
<title>Node2</title>
<g id="a_node2"><a xlink:href="class_p4_tools_1_1_p4_testgen_1_1_testgen_compiler_target.html" target="_top" xlink:title=" ">
<polygon fill="white" stroke="black" points="15,-68.5 15,-98.5 149,-98.5 149,-68.5 15,-68.5"/>
<text text-anchor="start" x="23" y="-86.5" font-family="Helvetica,sans-Serif" font-size="10.00">P4Tools::P4Testgen</text>
<text text-anchor="middle" x="82" y="-75.5" font-family="Helvetica,sans-Serif" font-size="10.00">::TestgenCompilerTarget</text>
</a>
</g>
</g>
<!-- Node2&#45;&gt;Node1 -->
<g id="edge1" class="edge">
<title>Node2&#45;&gt;Node1</title>
<path fill="none" stroke="midnightblue" d="M82,-58.03C82,-48.86 82,-38.74 82,-30.79"/>
<polygon fill="midnightblue" stroke="midnightblue" points="78.5,-58.18 82,-68.18 85.5,-58.18 78.5,-58.18"/>
</g>
<!-- Node3 -->
<g id="node3" class="node">
<title>Node3</title>
<g id="a_node3"><a xlink:href="class_p4_tools_1_1_compiler_target.html" target="_top" xlink:title="Encapsulates the details of invoking the P4 compiler for a target device and architecture.">
<polygon fill="white" stroke="black" points="15,-136.5 15,-155.5 149,-155.5 149,-136.5 15,-136.5"/>
<text text-anchor="middle" x="82" y="-143.5" font-family="Helvetica,sans-Serif" font-size="10.00">P4Tools::CompilerTarget</text>
</a>
</g>
</g>
<!-- Node3&#45;&gt;Node2 -->
<g id="edge2" class="edge">
<title>Node3&#45;&gt;Node2</title>
<path fill="none" stroke="midnightblue" d="M82,-126.22C82,-117.36 82,-106.96 82,-98.76"/>
<polygon fill="midnightblue" stroke="midnightblue" points="78.5,-126.33 82,-136.33 85.5,-126.33 78.5,-126.33"/>
</g>
<!-- Node4 -->
<g id="node4" class="node">
<title>Node4</title>
<g id="a_node4"><a xlink:href="class_p4_tools_1_1_target.html" target="_top" xlink:title=" ">
<polygon fill="white" stroke="black" points="37.5,-193.5 37.5,-212.5 126.5,-212.5 126.5,-193.5 37.5,-193.5"/>
<text text-anchor="middle" x="82" y="-200.5" font-family="Helvetica,sans-Serif" font-size="10.00">P4Tools::Target</text>
</a>
</g>
</g>
<!-- Node4&#45;&gt;Node3 -->
<g id="edge3" class="edge">
<title>Node4&#45;&gt;Node3</title>
<path fill="none" stroke="midnightblue" d="M82,-183.12C82,-173.82 82,-163.06 82,-155.71"/>
<polygon fill="midnightblue" stroke="midnightblue" points="78.5,-183.41 82,-193.41 85.5,-183.41 78.5,-183.41"/>
</g>
<!-- Node5 -->
<g id="node5" class="node">
<title>Node5</title>
<g id="a_node5"><a xlink:title=" ">
<polygon fill="white" stroke="#bfbfbf" points="49.5,-338.5 49.5,-357.5 114.5,-357.5 114.5,-338.5 49.5,-338.5"/>
<text text-anchor="middle" x="82" y="-345.5" font-family="Helvetica,sans-Serif" font-size="10.00">std::string</text>
</a>
</g>
</g>
<!-- Node5&#45;&gt;Node4 -->
<g id="edge4" class="edge">
<title>Node5&#45;&gt;Node4</title>
<path fill="none" stroke="#9a32cd" stroke-dasharray="5,2" d="M79.39,-328.29C77.24,-310.68 74.74,-283.56 76,-260 76.9,-243.21 79.3,-223.7 80.78,-212.71"/>
<polygon fill="#9a32cd" stroke="#9a32cd" points="75.94,-328.9 80.7,-338.36 82.88,-327.99 75.94,-328.9"/>
<text text-anchor="middle" x="102" y="-267.5" font-family="Helvetica,sans-Serif" font-size="10.00"> toolName</text>
</g>
<!-- Node7 -->
<g id="node7" class="node">
<title>Node7</title>
<g id="a_node7"><a xlink:href="struct_p4_tools_1_1_target_1_1_spec.html" target="_top" xlink:title="Specifies a target device and architecture by their names in lower case.">
<polygon fill="white" stroke="black" points="136.5,-260.5 136.5,-279.5 255.5,-279.5 255.5,-260.5 136.5,-260.5"/>
<text text-anchor="middle" x="196" y="-267.5" font-family="Helvetica,sans-Serif" font-size="10.00">P4Tools::Target::Spec</text>
</a>
</g>
</g>
<!-- Node5&#45;&gt;Node7 -->
<g id="edge7" class="edge">
<title>Node5&#45;&gt;Node7</title>
<path fill="none" stroke="#9a32cd" stroke-dasharray="5,2" d="M103.65,-332.57C127.1,-316.93 163.75,-292.5 183.08,-279.62"/>
<polygon fill="#9a32cd" stroke="#9a32cd" points="101.46,-329.82 95.08,-338.28 105.34,-335.65 101.46,-329.82"/>
<text text-anchor="middle" x="183" y="-312" font-family="Helvetica,sans-Serif" font-size="10.00"> archName</text>
<text text-anchor="middle" x="183" y="-301" font-family="Helvetica,sans-Serif" font-size="10.00">deviceName</text>
</g>
<!-- Node6 -->
<g id="node6" class="node">
<title>Node6</title>
<g id="a_node6"><a xlink:title=" ">
<polygon fill="white" stroke="#bfbfbf" points="30,-395.5 30,-425.5 134,-425.5 134,-395.5 30,-395.5"/>
<text text-anchor="start" x="38" y="-413.5" font-family="Helvetica,sans-Serif" font-size="10.00">std::basic_string&lt;</text>
<text text-anchor="middle" x="82" y="-402.5" font-family="Helvetica,sans-Serif" font-size="10.00"> Char &gt;</text>
</a>
</g>
</g>
<!-- Node6&#45;&gt;Node5 -->
<g id="edge5" class="edge">
<title>Node6&#45;&gt;Node5</title>
<path fill="none" stroke="midnightblue" d="M82,-385.35C82,-375.51 82,-364.78 82,-357.54"/>
<polygon fill="midnightblue" stroke="midnightblue" points="78.5,-385.47 82,-395.47 85.5,-385.47 78.5,-385.47"/>
</g>
<!-- Node7&#45;&gt;Node4 -->
<g id="edge6" class="edge">
<title>Node7&#45;&gt;Node4</title>
<path fill="none" stroke="#9a32cd" stroke-dasharray="5,2" d="M171.65,-255.12C149.06,-242.24 116.16,-223.48 97.13,-212.63"/>
<polygon fill="#9a32cd" stroke="#9a32cd" points="170.2,-258.32 180.63,-260.23 173.67,-252.24 170.2,-258.32"/>
<text text-anchor="middle" x="158" y="-234" font-family="Helvetica,sans-Serif" font-size="10.00"> spec</text>
</g>
</g>
</svg>
