<?xml version="1.0" encoding="UTF-8" standalone="no"?>
<!DOCTYPE svg PUBLIC "-//W3C//DTD SVG 1.1//EN"
 "http://www.w3.org/Graphics/SVG/1.1/DTD/svg11.dtd">
<!-- Generated by graphviz version 2.43.0 (0)
 -->
<!-- Title: DPDK::CollectInternetChecksumInstance Pages: 1 -->
<svg width="410pt" height="244pt"
 viewBox="0.00 0.00 409.50 244.00" xmlns="http://www.w3.org/2000/svg" xmlns:xlink="http://www.w3.org/1999/xlink">
<g id="graph0" class="graph" transform="scale(1 1) rotate(0) translate(4 240)">
<title>DPDK::CollectInternetChecksumInstance</title>
<polygon fill="white" stroke="transparent" points="-4,4 -4,-240 405.5,-240 405.5,4 -4,4"/>
<!-- Node1 -->
<g id="node1" class="node">
<title>Node1</title>
<g id="a_node1"><a xlink:title=" ">
<polygon fill="#bfbfbf" stroke="black" points="0,-0.5 0,-30.5 173,-30.5 173,-0.5 0,-0.5"/>
<text text-anchor="start" x="8" y="-18.5" font-family="Helvetica,sans-Serif" font-size="10.00">DPDK::CollectInternetChecksum</text>
<text text-anchor="middle" x="86.5" y="-7.5" font-family="Helvetica,sans-Serif" font-size="10.00">Instance</text>
</a>
</g>
</g>
<!-- Node2 -->
<g id="node2" class="node">
<title>Node2</title>
<g id="a_node2"><a xlink:href="class_inspector.html" target="_top" xlink:title=" ">
<polygon fill="white" stroke="black" points="55.5,-79.5 55.5,-98.5 117.5,-98.5 117.5,-79.5 55.5,-79.5"/>
<text text-anchor="middle" x="86.5" y="-86.5" font-family="Helvetica,sans-Serif" font-size="10.00">Inspector</text>
</a>
</g>
</g>
<!-- Node2&#45;&gt;Node1 -->
<g id="edge1" class="edge">
<title>Node2&#45;&gt;Node1</title>
<path fill="none" stroke="midnightblue" d="M86.5,-68.9C86.5,-56.82 86.5,-41.47 86.5,-30.51"/>
<polygon fill="midnightblue" stroke="midnightblue" points="83,-69.23 86.5,-79.23 90,-69.23 83,-69.23"/>
</g>
<!-- Node3 -->
<g id="node3" class="node">
<title>Node3</title>
<g id="a_node3"><a xlink:href="class_visitor.html" target="_top" xlink:title=" ">
<polygon fill="white" stroke="black" points="161.5,-147.5 161.5,-166.5 209.5,-166.5 209.5,-147.5 161.5,-147.5"/>
<text text-anchor="middle" x="185.5" y="-154.5" font-family="Helvetica,sans-Serif" font-size="10.00">Visitor</text>
</a>
</g>
</g>
<!-- Node3&#45;&gt;Node2 -->
<g id="edge2" class="edge">
<title>Node3&#45;&gt;Node2</title>
<path fill="none" stroke="midnightblue" d="M160.86,-142.17C153.87,-138.07 146.3,-133.48 139.5,-129 124.62,-119.19 108.19,-106.86 97.63,-98.72"/>
<polygon fill="midnightblue" stroke="midnightblue" points="159.51,-145.43 169.92,-147.39 163.01,-139.37 159.51,-145.43"/>
</g>
<!-- Node3&#45;&gt;Node3 -->
<g id="edge10" class="edge">
<title>Node3&#45;&gt;Node3</title>
<path fill="none" stroke="#9a32cd" stroke-dasharray="5,2" d="M219.92,-162.29C224.48,-161.39 227.5,-159.63 227.5,-157 227.5,-152.69 219.36,-150.7 209.67,-151.04"/>
<polygon fill="#9a32cd" stroke="#9a32cd" points="219.42,-158.82 209.67,-162.96 219.88,-165.8 219.42,-158.82"/>
<text text-anchor="middle" x="252.5" y="-154.5" font-family="Helvetica,sans-Serif" font-size="10.00"> called_by</text>
</g>
<!-- Node5 -->
<g id="node5" class="node">
<title>Node5</title>
<g id="a_node5"><a xlink:href="class_split_flow_visit__base.html" target="_top" xlink:title=" ">
<polygon fill="white" stroke="black" points="191.5,-6 191.5,-25 303.5,-25 303.5,-6 191.5,-6"/>
<text text-anchor="middle" x="247.5" y="-13" font-family="Helvetica,sans-Serif" font-size="10.00">SplitFlowVisit_base</text>
</a>
</g>
</g>
<!-- Node3&#45;&gt;Node5 -->
<g id="edge9" class="edge">
<title>Node3&#45;&gt;Node5</title>
<path fill="none" stroke="#9a32cd" stroke-dasharray="5,2" d="M173.35,-138.93C163.37,-122.65 152.41,-97.76 162.5,-78 175.76,-52.05 205.65,-34.51 226.2,-25.01"/>
<polygon fill="#9a32cd" stroke="#9a32cd" points="170.51,-140.99 178.94,-147.42 176.36,-137.14 170.51,-140.99"/>
<text text-anchor="middle" x="167.5" y="-86.5" font-family="Helvetica,sans-Serif" font-size="10.00"> v</text>
</g>
<!-- Node6 -->
<g id="node6" class="node">
<title>Node6</title>
<g id="a_node6"><a xlink:title=" ">
<polygon fill="white" stroke="#bfbfbf" points="182,-79.5 182,-98.5 313,-98.5 313,-79.5 182,-79.5"/>
<text text-anchor="middle" x="247.5" y="-86.5" font-family="Helvetica,sans-Serif" font-size="10.00">std::vector&lt; Visitor * &gt;</text>
</a>
</g>
</g>
<!-- Node3&#45;&gt;Node6 -->
<g id="edge8" class="edge">
<title>Node3&#45;&gt;Node6</title>
<path fill="none" stroke="#9a32cd" stroke-dasharray="5,2" d="M200.49,-140.05C212.64,-127.11 229.32,-109.36 239.19,-98.84"/>
<polygon fill="#9a32cd" stroke="#9a32cd" points="197.9,-137.69 193.61,-147.37 203,-142.48 197.9,-137.69"/>
<text text-anchor="middle" x="245" y="-121" font-family="Helvetica,sans-Serif" font-size="10.00"> elements</text>
</g>
<!-- Node4 -->
<g id="node4" class="node">
<title>Node4</title>
<g id="a_node4"><a xlink:href="classcstring.html" target="_top" xlink:title=" ">
<polygon fill="white" stroke="black" points="160.5,-215.5 160.5,-234.5 210.5,-234.5 210.5,-215.5 160.5,-215.5"/>
<text text-anchor="middle" x="185.5" y="-222.5" font-family="Helvetica,sans-Serif" font-size="10.00">cstring</text>
</a>
</g>
</g>
<!-- Node4&#45;&gt;Node3 -->
<g id="edge3" class="edge">
<title>Node4&#45;&gt;Node3</title>
<path fill="none" stroke="#9a32cd" stroke-dasharray="5,2" d="M185.5,-205.04C185.5,-192.47 185.5,-176.56 185.5,-166.84"/>
<polygon fill="#9a32cd" stroke="#9a32cd" points="182,-205.37 185.5,-215.37 189,-205.37 182,-205.37"/>
<text text-anchor="middle" x="220.5" y="-188" font-family="Helvetica,sans-Serif" font-size="10.00"> internalName</text>
</g>
<!-- Node4&#45;&gt;Node4 -->
<g id="edge4" class="edge">
<title>Node4&#45;&gt;Node4</title>
<path fill="none" stroke="#9a32cd" stroke-dasharray="5,2" d="M220.95,-230.58C225.5,-229.61 228.5,-227.75 228.5,-225 228.5,-220.48 220.41,-218.37 210.68,-218.65"/>
<polygon fill="#9a32cd" stroke="#9a32cd" points="220.39,-227.11 210.68,-231.35 220.91,-234.1 220.39,-227.11"/>
<text text-anchor="middle" x="248" y="-228" font-family="Helvetica,sans-Serif" font-size="10.00"> empty</text>
<text text-anchor="middle" x="248" y="-217" font-family="Helvetica,sans-Serif" font-size="10.00">newline</text>
</g>
<!-- Node5&#45;&gt;Node3 -->
<g id="edge5" class="edge">
<title>Node5&#45;&gt;Node3</title>
<path fill="none" stroke="#9a32cd" stroke-dasharray="5,2" d="M275.07,-29.98C302.53,-45.35 338.46,-72.02 322.5,-100 299.85,-139.73 242.46,-151.29 209.6,-154.64"/>
<polygon fill="#9a32cd" stroke="#9a32cd" points="276.64,-26.85 266.18,-25.21 273.34,-33.02 276.64,-26.85"/>
<text text-anchor="middle" x="363.5" y="-92" font-family="Helvetica,sans-Serif" font-size="10.00"> split_link</text>
<text text-anchor="middle" x="363.5" y="-81" font-family="Helvetica,sans-Serif" font-size="10.00">split_link_mem</text>
</g>
<!-- Node5&#45;&gt;Node5 -->
<g id="edge6" class="edge">
<title>Node5&#45;&gt;Node5</title>
<path fill="none" stroke="#9a32cd" stroke-dasharray="5,2" d="M313.54,-20.81C318.47,-19.62 321.5,-17.85 321.5,-15.5 321.5,-11.83 314.12,-9.57 303.65,-8.74"/>
<polygon fill="#9a32cd" stroke="#9a32cd" points="313.03,-17.35 303.65,-22.26 314.05,-24.27 313.03,-17.35"/>
<text text-anchor="middle" x="334" y="-13" font-family="Helvetica,sans-Serif" font-size="10.00"> prev</text>
</g>
<!-- Node6&#45;&gt;Node5 -->
<g id="edge7" class="edge">
<title>Node6&#45;&gt;Node5</title>
<path fill="none" stroke="#9a32cd" stroke-dasharray="5,2" d="M247.5,-69.09C247.5,-54.93 247.5,-36.2 247.5,-25.34"/>
<polygon fill="#9a32cd" stroke="#9a32cd" points="244,-69.23 247.5,-79.23 251,-69.23 244,-69.23"/>
<text text-anchor="middle" x="267.5" y="-52" font-family="Helvetica,sans-Serif" font-size="10.00"> visitors</text>
</g>
</g>
</svg>
