<?xml version="1.0" encoding="UTF-8" standalone="no"?>
<!DOCTYPE svg PUBLIC "-//W3C//DTD SVG 1.1//EN"
 "http://www.w3.org/Graphics/SVG/1.1/DTD/svg11.dtd">
<!-- Generated by graphviz version 2.43.0 (0)
 -->
<!-- Title: BMV2::CFG::EdgeSet Pages: 1 -->
<svg width="220pt" height="106pt"
 viewBox="0.00 0.00 220.00 106.00" xmlns="http://www.w3.org/2000/svg" xmlns:xlink="http://www.w3.org/1999/xlink">
<g id="graph0" class="graph" transform="scale(1 1) rotate(0) translate(4 102)">
<title>BMV2::CFG::EdgeSet</title>
<polygon fill="white" stroke="transparent" points="-4,4 -4,-102 216,-102 216,4 -4,4"/>
<!-- Node1 -->
<g id="node1" class="node">
<title>Node1</title>
<g id="a_node1"><a xlink:title=" ">
<polygon fill="#bfbfbf" stroke="black" points="35.5,-0.5 35.5,-19.5 152.5,-19.5 152.5,-0.5 35.5,-0.5"/>
<text text-anchor="middle" x="94" y="-7.5" font-family="Helvetica,sans-Serif" font-size="10.00">BMV2::CFG::EdgeSet</text>
</a>
</g>
</g>
<!-- Node2 -->
<g id="node2" class="node">
<title>Node2</title>
<g id="a_node2"><a xlink:href="class_i_has_db_print.html" target="_top" xlink:title=" ">
<polygon fill="white" stroke="black" points="0,-73 0,-92 74,-92 74,-73 0,-73"/>
<text text-anchor="middle" x="37" y="-80" font-family="Helvetica,sans-Serif" font-size="10.00">IHasDbPrint</text>
</a>
</g>
</g>
<!-- Node2&#45;&gt;Node1 -->
<g id="edge1" class="edge">
<title>Node2&#45;&gt;Node1</title>
<path fill="none" stroke="midnightblue" d="M50.42,-64.9C61.87,-50.74 77.86,-30.96 86.95,-19.72"/>
<polygon fill="midnightblue" stroke="midnightblue" points="47.55,-62.88 43.99,-72.86 53,-67.28 47.55,-62.88"/>
</g>
<!-- Node3 -->
<g id="node3" class="node">
<title>Node3</title>
<g id="a_node3"><a xlink:href="classordered__set.html" target="_top" xlink:title=" ">
<polygon fill="white" stroke="black" points="92,-67.5 92,-97.5 212,-97.5 212,-67.5 92,-67.5"/>
<text text-anchor="start" x="100" y="-85.5" font-family="Helvetica,sans-Serif" font-size="10.00">ordered_set&lt; BMV2::</text>
<text text-anchor="middle" x="152" y="-74.5" font-family="Helvetica,sans-Serif" font-size="10.00">CFG::Edge * &gt;</text>
</a>
</g>
</g>
<!-- Node3&#45;&gt;Node1 -->
<g id="edge2" class="edge">
<title>Node3&#45;&gt;Node1</title>
<path fill="none" stroke="#9a32cd" stroke-dasharray="5,2" d="M133.81,-59.38C122.82,-46.04 109.43,-29.76 101.32,-19.89"/>
<polygon fill="#9a32cd" stroke="#9a32cd" points="131.21,-61.73 140.26,-67.23 136.61,-57.29 131.21,-61.73"/>
<text text-anchor="middle" x="140.5" y="-41" font-family="Helvetica,sans-Serif" font-size="10.00"> edges</text>
</g>
</g>
</svg>
