<?xml version="1.0" encoding="UTF-8" standalone="no"?>
<!DOCTYPE svg PUBLIC "-//W3C//DTD SVG 1.1//EN"
 "http://www.w3.org/Graphics/SVG/1.1/DTD/svg11.dtd">
<!-- Generated by graphviz version 2.43.0 (0)
 -->
<!-- Title: DPDK::ConvertBinaryOperationTo2Params Pages: 1 -->
<svg width="409pt" height="244pt"
 viewBox="0.00 0.00 409.00 244.00" xmlns="http://www.w3.org/2000/svg" xmlns:xlink="http://www.w3.org/1999/xlink">
<g id="graph0" class="graph" transform="scale(1 1) rotate(0) translate(4 240)">
<title>DPDK::ConvertBinaryOperationTo2Params</title>
<polygon fill="white" stroke="transparent" points="-4,4 -4,-240 405,-240 405,4 -4,4"/>
<!-- Node1 -->
<g id="node1" class="node">
<title>Node1</title>
<g id="a_node1"><a xlink:title=" ">
<polygon fill="#bfbfbf" stroke="black" points="0,-0.5 0,-30.5 168,-30.5 168,-0.5 0,-0.5"/>
<text text-anchor="start" x="8" y="-18.5" font-family="Helvetica,sans-Serif" font-size="10.00">DPDK::ConvertBinaryOperation</text>
<text text-anchor="middle" x="84" y="-7.5" font-family="Helvetica,sans-Serif" font-size="10.00">To2Params</text>
</a>
</g>
</g>
<!-- Node2 -->
<g id="node2" class="node">
<title>Node2</title>
<g id="a_node2"><a xlink:href="class_transform.html" target="_top" xlink:title=" ">
<polygon fill="white" stroke="black" points="51.5,-79.5 51.5,-98.5 116.5,-98.5 116.5,-79.5 51.5,-79.5"/>
<text text-anchor="middle" x="84" y="-86.5" font-family="Helvetica,sans-Serif" font-size="10.00">Transform</text>
</a>
</g>
</g>
<!-- Node2&#45;&gt;Node1 -->
<g id="edge1" class="edge">
<title>Node2&#45;&gt;Node1</title>
<path fill="none" stroke="midnightblue" d="M84,-68.9C84,-56.82 84,-41.47 84,-30.51"/>
<polygon fill="midnightblue" stroke="midnightblue" points="80.5,-69.23 84,-79.23 87.5,-69.23 80.5,-69.23"/>
</g>
<!-- Node3 -->
<g id="node3" class="node">
<title>Node3</title>
<g id="a_node3"><a xlink:href="class_visitor.html" target="_top" xlink:title=" ">
<polygon fill="white" stroke="black" points="161,-147.5 161,-166.5 209,-166.5 209,-147.5 161,-147.5"/>
<text text-anchor="middle" x="185" y="-154.5" font-family="Helvetica,sans-Serif" font-size="10.00">Visitor</text>
</a>
</g>
</g>
<!-- Node3&#45;&gt;Node2 -->
<g id="edge2" class="edge">
<title>Node3&#45;&gt;Node2</title>
<path fill="none" stroke="midnightblue" d="M160.41,-142.09C153.42,-138 145.84,-133.42 139,-129 123.66,-119.09 106.59,-106.77 95.6,-98.67"/>
<polygon fill="midnightblue" stroke="midnightblue" points="159.06,-145.35 169.47,-147.33 162.56,-139.29 159.06,-145.35"/>
</g>
<!-- Node3&#45;&gt;Node3 -->
<g id="edge10" class="edge">
<title>Node3&#45;&gt;Node3</title>
<path fill="none" stroke="#9a32cd" stroke-dasharray="5,2" d="M219.42,-162.29C223.98,-161.39 227,-159.63 227,-157 227,-152.69 218.86,-150.7 209.17,-151.04"/>
<polygon fill="#9a32cd" stroke="#9a32cd" points="218.92,-158.82 209.17,-162.96 219.38,-165.8 218.92,-158.82"/>
<text text-anchor="middle" x="252" y="-154.5" font-family="Helvetica,sans-Serif" font-size="10.00"> called_by</text>
</g>
<!-- Node5 -->
<g id="node5" class="node">
<title>Node5</title>
<g id="a_node5"><a xlink:href="class_split_flow_visit__base.html" target="_top" xlink:title=" ">
<polygon fill="white" stroke="black" points="191,-6 191,-25 303,-25 303,-6 191,-6"/>
<text text-anchor="middle" x="247" y="-13" font-family="Helvetica,sans-Serif" font-size="10.00">SplitFlowVisit_base</text>
</a>
</g>
</g>
<!-- Node3&#45;&gt;Node5 -->
<g id="edge9" class="edge">
<title>Node3&#45;&gt;Node5</title>
<path fill="none" stroke="#9a32cd" stroke-dasharray="5,2" d="M172.85,-138.93C162.87,-122.65 151.91,-97.76 162,-78 175.26,-52.05 205.15,-34.51 225.7,-25.01"/>
<polygon fill="#9a32cd" stroke="#9a32cd" points="170.01,-140.99 178.44,-147.42 175.86,-137.14 170.01,-140.99"/>
<text text-anchor="middle" x="167" y="-86.5" font-family="Helvetica,sans-Serif" font-size="10.00"> v</text>
</g>
<!-- Node6 -->
<g id="node6" class="node">
<title>Node6</title>
<g id="a_node6"><a xlink:title=" ">
<polygon fill="white" stroke="#bfbfbf" points="181.5,-79.5 181.5,-98.5 312.5,-98.5 312.5,-79.5 181.5,-79.5"/>
<text text-anchor="middle" x="247" y="-86.5" font-family="Helvetica,sans-Serif" font-size="10.00">std::vector&lt; Visitor * &gt;</text>
</a>
</g>
</g>
<!-- Node3&#45;&gt;Node6 -->
<g id="edge8" class="edge">
<title>Node3&#45;&gt;Node6</title>
<path fill="none" stroke="#9a32cd" stroke-dasharray="5,2" d="M199.99,-140.05C212.14,-127.11 228.82,-109.36 238.69,-98.84"/>
<polygon fill="#9a32cd" stroke="#9a32cd" points="197.4,-137.69 193.11,-147.37 202.5,-142.48 197.4,-137.69"/>
<text text-anchor="middle" x="244.5" y="-121" font-family="Helvetica,sans-Serif" font-size="10.00"> elements</text>
</g>
<!-- Node4 -->
<g id="node4" class="node">
<title>Node4</title>
<g id="a_node4"><a xlink:href="classcstring.html" target="_top" xlink:title=" ">
<polygon fill="white" stroke="black" points="160,-215.5 160,-234.5 210,-234.5 210,-215.5 160,-215.5"/>
<text text-anchor="middle" x="185" y="-222.5" font-family="Helvetica,sans-Serif" font-size="10.00">cstring</text>
</a>
</g>
</g>
<!-- Node4&#45;&gt;Node3 -->
<g id="edge3" class="edge">
<title>Node4&#45;&gt;Node3</title>
<path fill="none" stroke="#9a32cd" stroke-dasharray="5,2" d="M185,-205.04C185,-192.47 185,-176.56 185,-166.84"/>
<polygon fill="#9a32cd" stroke="#9a32cd" points="181.5,-205.37 185,-215.37 188.5,-205.37 181.5,-205.37"/>
<text text-anchor="middle" x="220" y="-188" font-family="Helvetica,sans-Serif" font-size="10.00"> internalName</text>
</g>
<!-- Node4&#45;&gt;Node4 -->
<g id="edge4" class="edge">
<title>Node4&#45;&gt;Node4</title>
<path fill="none" stroke="#9a32cd" stroke-dasharray="5,2" d="M220.45,-230.58C225,-229.61 228,-227.75 228,-225 228,-220.48 219.91,-218.37 210.18,-218.65"/>
<polygon fill="#9a32cd" stroke="#9a32cd" points="219.89,-227.11 210.18,-231.35 220.41,-234.1 219.89,-227.11"/>
<text text-anchor="middle" x="247.5" y="-228" font-family="Helvetica,sans-Serif" font-size="10.00"> empty</text>
<text text-anchor="middle" x="247.5" y="-217" font-family="Helvetica,sans-Serif" font-size="10.00">newline</text>
</g>
<!-- Node5&#45;&gt;Node3 -->
<g id="edge5" class="edge">
<title>Node5&#45;&gt;Node3</title>
<path fill="none" stroke="#9a32cd" stroke-dasharray="5,2" d="M274.57,-29.98C302.03,-45.35 337.96,-72.02 322,-100 299.35,-139.73 241.96,-151.29 209.1,-154.64"/>
<polygon fill="#9a32cd" stroke="#9a32cd" points="276.14,-26.85 265.68,-25.21 272.84,-33.02 276.14,-26.85"/>
<text text-anchor="middle" x="363" y="-92" font-family="Helvetica,sans-Serif" font-size="10.00"> split_link</text>
<text text-anchor="middle" x="363" y="-81" font-family="Helvetica,sans-Serif" font-size="10.00">split_link_mem</text>
</g>
<!-- Node5&#45;&gt;Node5 -->
<g id="edge6" class="edge">
<title>Node5&#45;&gt;Node5</title>
<path fill="none" stroke="#9a32cd" stroke-dasharray="5,2" d="M313.04,-20.81C317.97,-19.62 321,-17.85 321,-15.5 321,-11.83 313.62,-9.57 303.15,-8.74"/>
<polygon fill="#9a32cd" stroke="#9a32cd" points="312.53,-17.35 303.15,-22.26 313.55,-24.27 312.53,-17.35"/>
<text text-anchor="middle" x="333.5" y="-13" font-family="Helvetica,sans-Serif" font-size="10.00"> prev</text>
</g>
<!-- Node6&#45;&gt;Node5 -->
<g id="edge7" class="edge">
<title>Node6&#45;&gt;Node5</title>
<path fill="none" stroke="#9a32cd" stroke-dasharray="5,2" d="M247,-69.09C247,-54.93 247,-36.2 247,-25.34"/>
<polygon fill="#9a32cd" stroke="#9a32cd" points="243.5,-69.23 247,-79.23 250.5,-69.23 243.5,-69.23"/>
<text text-anchor="middle" x="267" y="-52" font-family="Helvetica,sans-Serif" font-size="10.00"> visitors</text>
</g>
</g>
</svg>
