<?xml version="1.0" encoding="UTF-8" standalone="no"?>
<!DOCTYPE svg PUBLIC "-//W3C//DTD SVG 1.1//EN"
 "http://www.w3.org/Graphics/SVG/1.1/DTD/svg11.dtd">
<!-- Generated by graphviz version 2.43.0 (0)
 -->
<!-- Title: P4Tools::P4Testgen::Bmv2::Bmv2V1ModelCompilerTarget Pages: 1 -->
<svg width="181pt" height="229pt"
 viewBox="0.00 0.00 181.00 229.00" xmlns="http://www.w3.org/2000/svg" xmlns:xlink="http://www.w3.org/1999/xlink">
<g id="graph0" class="graph" transform="scale(1 1) rotate(0) translate(4 225)">
<title>P4Tools::P4Testgen::Bmv2::Bmv2V1ModelCompilerTarget</title>
<polygon fill="white" stroke="transparent" points="-4,4 -4,-225 177,-225 177,4 -4,4"/>
<!-- Node1 -->
<g id="node1" class="node">
<title>Node1</title>
<g id="a_node1"><a xlink:title=" ">
<polygon fill="#bfbfbf" stroke="black" points="0,-0.5 0,-41.5 173,-41.5 173,-0.5 0,-0.5"/>
<text text-anchor="start" x="8" y="-29.5" font-family="Helvetica,sans-Serif" font-size="10.00">P4Tools::P4Testgen</text>
<text text-anchor="start" x="8" y="-18.5" font-family="Helvetica,sans-Serif" font-size="10.00">::Bmv2::Bmv2V1ModelCompiler</text>
<text text-anchor="middle" x="86.5" y="-7.5" font-family="Helvetica,sans-Serif" font-size="10.00">Target</text>
</a>
</g>
</g>
<!-- Node2 -->
<g id="node2" class="node">
<title>Node2</title>
<g id="a_node2"><a xlink:href="class_p4_tools_1_1_p4_testgen_1_1_testgen_compiler_target.html" target="_top" xlink:title=" ">
<polygon fill="white" stroke="black" points="19.5,-78.5 19.5,-108.5 153.5,-108.5 153.5,-78.5 19.5,-78.5"/>
<text text-anchor="start" x="27.5" y="-96.5" font-family="Helvetica,sans-Serif" font-size="10.00">P4Tools::P4Testgen</text>
<text text-anchor="middle" x="86.5" y="-85.5" font-family="Helvetica,sans-Serif" font-size="10.00">::TestgenCompilerTarget</text>
</a>
</g>
</g>
<!-- Node2&#45;&gt;Node1 -->
<g id="edge1" class="edge">
<title>Node2&#45;&gt;Node1</title>
<path fill="none" stroke="midnightblue" d="M86.5,-67.98C86.5,-59.35 86.5,-49.76 86.5,-41.59"/>
<polygon fill="midnightblue" stroke="midnightblue" points="83,-68.23 86.5,-78.23 90,-68.23 83,-68.23"/>
</g>
<!-- Node3 -->
<g id="node3" class="node">
<title>Node3</title>
<g id="a_node3"><a xlink:href="class_p4_tools_1_1_compiler_target.html" target="_top" xlink:title="Encapsulates the details of invoking the P4 compiler for a target device and architecture.">
<polygon fill="white" stroke="black" points="19.5,-145.5 19.5,-164.5 153.5,-164.5 153.5,-145.5 19.5,-145.5"/>
<text text-anchor="middle" x="86.5" y="-152.5" font-family="Helvetica,sans-Serif" font-size="10.00">P4Tools::CompilerTarget</text>
</a>
</g>
</g>
<!-- Node3&#45;&gt;Node2 -->
<g id="edge2" class="edge">
<title>Node3&#45;&gt;Node2</title>
<path fill="none" stroke="midnightblue" d="M86.5,-135.23C86.5,-126.59 86.5,-116.5 86.5,-108.52"/>
<polygon fill="midnightblue" stroke="midnightblue" points="83,-135.48 86.5,-145.48 90,-135.48 83,-135.48"/>
</g>
<!-- Node4 -->
<g id="node4" class="node">
<title>Node4</title>
<g id="a_node4"><a xlink:href="class_p4_tools_1_1_target.html" target="_top" xlink:title=" ">
<polygon fill="white" stroke="black" points="42,-201.5 42,-220.5 131,-220.5 131,-201.5 42,-201.5"/>
<text text-anchor="middle" x="86.5" y="-208.5" font-family="Helvetica,sans-Serif" font-size="10.00">P4Tools::Target</text>
</a>
</g>
</g>
<!-- Node4&#45;&gt;Node3 -->
<g id="edge3" class="edge">
<title>Node4&#45;&gt;Node3</title>
<path fill="none" stroke="midnightblue" d="M86.5,-190.8C86.5,-181.91 86.5,-171.78 86.5,-164.75"/>
<polygon fill="midnightblue" stroke="midnightblue" points="83,-191.08 86.5,-201.08 90,-191.08 83,-191.08"/>
</g>
</g>
</svg>
