<?xml version="1.0" encoding="UTF-8" standalone="no"?>
<!DOCTYPE svg PUBLIC "-//W3C//DTD SVG 1.1//EN"
 "http://www.w3.org/Graphics/SVG/1.1/DTD/svg11.dtd">
<!-- Generated by graphviz version 2.43.0 (0)
 -->
<!-- Title: P4::TypeMap Pages: 1 -->
<svg width="207pt" height="154pt"
 viewBox="0.00 0.00 207.00 154.00" xmlns="http://www.w3.org/2000/svg" xmlns:xlink="http://www.w3.org/1999/xlink">
<g id="graph0" class="graph" transform="scale(1 1) rotate(0) translate(4 150)">
<title>P4::TypeMap</title>
<polygon fill="white" stroke="transparent" points="-4,4 -4,-150 203,-150 203,4 -4,4"/>
<!-- Node1 -->
<g id="node1" class="node">
<title>Node1</title>
<g id="a_node1"><a xlink:title=" ">
<polygon fill="#bfbfbf" stroke="black" points="26,-0.5 26,-19.5 104,-19.5 104,-0.5 26,-0.5"/>
<text text-anchor="middle" x="65" y="-7.5" font-family="Helvetica,sans-Serif" font-size="10.00">P4::TypeMap</text>
</a>
</g>
</g>
<!-- Node2 -->
<g id="node2" class="node">
<title>Node2</title>
<g id="a_node2"><a xlink:href="class_p4_1_1_program_map.html" target="_top" xlink:title=" ">
<polygon fill="white" stroke="black" points="16.5,-57.5 16.5,-76.5 113.5,-76.5 113.5,-57.5 16.5,-57.5"/>
<text text-anchor="middle" x="65" y="-64.5" font-family="Helvetica,sans-Serif" font-size="10.00">P4::ProgramMap</text>
</a>
</g>
</g>
<!-- Node2&#45;&gt;Node1 -->
<g id="edge1" class="edge">
<title>Node2&#45;&gt;Node1</title>
<path fill="none" stroke="midnightblue" d="M65,-47.12C65,-37.82 65,-27.06 65,-19.71"/>
<polygon fill="midnightblue" stroke="midnightblue" points="61.5,-47.41 65,-57.41 68.5,-47.41 61.5,-47.41"/>
</g>
<!-- Node3 -->
<g id="node3" class="node">
<title>Node3</title>
<g id="a_node3"><a xlink:href="class_i_has_db_print.html" target="_top" xlink:title=" ">
<polygon fill="white" stroke="black" points="0,-125.5 0,-144.5 74,-144.5 74,-125.5 0,-125.5"/>
<text text-anchor="middle" x="37" y="-132.5" font-family="Helvetica,sans-Serif" font-size="10.00">IHasDbPrint</text>
</a>
</g>
</g>
<!-- Node3&#45;&gt;Node2 -->
<g id="edge2" class="edge">
<title>Node3&#45;&gt;Node2</title>
<path fill="none" stroke="midnightblue" d="M44.72,-115.81C50.1,-103.12 57.04,-86.76 61.25,-76.84"/>
<polygon fill="midnightblue" stroke="midnightblue" points="41.34,-114.8 40.66,-125.37 47.79,-117.53 41.34,-114.8"/>
</g>
<!-- Node4 -->
<g id="node4" class="node">
<title>Node4</title>
<g id="a_node4"><a xlink:href="classcstring.html" target="_top" xlink:title=" ">
<polygon fill="white" stroke="black" points="92,-125.5 92,-144.5 142,-144.5 142,-125.5 92,-125.5"/>
<text text-anchor="middle" x="117" y="-132.5" font-family="Helvetica,sans-Serif" font-size="10.00">cstring</text>
</a>
</g>
</g>
<!-- Node4&#45;&gt;Node2 -->
<g id="edge3" class="edge">
<title>Node4&#45;&gt;Node2</title>
<path fill="none" stroke="#9a32cd" stroke-dasharray="5,2" d="M103.85,-117.31C93.71,-104.44 80.09,-87.16 71.97,-76.84"/>
<polygon fill="#9a32cd" stroke="#9a32cd" points="101.26,-119.68 110.2,-125.37 106.76,-115.35 101.26,-119.68"/>
<text text-anchor="middle" x="117.5" y="-98" font-family="Helvetica,sans-Serif" font-size="10.00"> mapKind</text>
</g>
<!-- Node4&#45;&gt;Node4 -->
<g id="edge4" class="edge">
<title>Node4&#45;&gt;Node4</title>
<path fill="none" stroke="#9a32cd" stroke-dasharray="5,2" d="M152.45,-140.58C157,-139.61 160,-137.75 160,-135 160,-130.48 151.91,-128.37 142.18,-128.65"/>
<polygon fill="#9a32cd" stroke="#9a32cd" points="151.89,-137.11 142.18,-141.35 152.41,-144.1 151.89,-137.11"/>
<text text-anchor="middle" x="179.5" y="-138" font-family="Helvetica,sans-Serif" font-size="10.00"> empty</text>
<text text-anchor="middle" x="179.5" y="-127" font-family="Helvetica,sans-Serif" font-size="10.00">newline</text>
</g>
</g>
</svg>
