<?xml version="1.0" encoding="UTF-8" standalone="no"?>
<!DOCTYPE svg PUBLIC "-//W3C//DTD SVG 1.1//EN"
 "http://www.w3.org/Graphics/SVG/1.1/DTD/svg11.dtd">
<!-- Generated by graphviz version 2.43.0 (0)
 -->
<!-- Title: BMV2::JsonObjects Pages: 1 -->
<svg width="978pt" height="285pt"
 viewBox="0.00 0.00 978.00 284.50" xmlns="http://www.w3.org/2000/svg" xmlns:xlink="http://www.w3.org/1999/xlink">
<g id="graph0" class="graph" transform="scale(1 1) rotate(0) translate(4 280.5)">
<title>BMV2::JsonObjects</title>
<polygon fill="white" stroke="transparent" points="-4,4 -4,-280.5 974,-280.5 974,4 -4,4"/>
<!-- Node1 -->
<g id="node1" class="node">
<title>Node1</title>
<g id="a_node1"><a xlink:title=" ">
<polygon fill="#bfbfbf" stroke="black" points="862,-135 862,-154 970,-154 970,-135 862,-135"/>
<text text-anchor="middle" x="916" y="-142" font-family="Helvetica,sans-Serif" font-size="10.00">BMV2::JsonObjects</text>
</a>
</g>
</g>
<!-- Node2 -->
<g id="node2" class="node">
<title>Node2</title>
<g id="a_node2"><a xlink:href="class_util_1_1_json_array.html" target="_top" xlink:title=" ">
<polygon fill="white" stroke="black" points="420,-77 420,-96 506,-96 506,-77 420,-77"/>
<text text-anchor="middle" x="463" y="-84" font-family="Helvetica,sans-Serif" font-size="10.00">Util::JsonArray</text>
</a>
</g>
</g>
<!-- Node2&#45;&gt;Node1 -->
<g id="edge1" class="edge">
<title>Node2&#45;&gt;Node1</title>
<path fill="none" stroke="#9a32cd" stroke-dasharray="5,2" d="M516.13,-78.25C571.62,-70.99 661.75,-63.55 738,-77.5 798.44,-88.56 865.03,-119.21 896.53,-134.93"/>
<polygon fill="#9a32cd" stroke="#9a32cd" points="515.63,-74.79 506.19,-79.6 516.57,-81.73 515.63,-74.79"/>
<text text-anchor="middle" x="666" y="-190.5" font-family="Helvetica,sans-Serif" font-size="10.00"> actions</text>
<text text-anchor="middle" x="666" y="-179.5" font-family="Helvetica,sans-Serif" font-size="10.00">calculations</text>
<text text-anchor="middle" x="666" y="-168.5" font-family="Helvetica,sans-Serif" font-size="10.00">checksums</text>
<text text-anchor="middle" x="666" y="-157.5" font-family="Helvetica,sans-Serif" font-size="10.00">counters</text>
<text text-anchor="middle" x="666" y="-146.5" font-family="Helvetica,sans-Serif" font-size="10.00">deparsers</text>
<text text-anchor="middle" x="666" y="-135.5" font-family="Helvetica,sans-Serif" font-size="10.00">enums</text>
<text text-anchor="middle" x="666" y="-124.5" font-family="Helvetica,sans-Serif" font-size="10.00">errors</text>
<text text-anchor="middle" x="666" y="-113.5" font-family="Helvetica,sans-Serif" font-size="10.00">externs</text>
<text text-anchor="middle" x="666" y="-102.5" font-family="Helvetica,sans-Serif" font-size="10.00">field_aliases</text>
<text text-anchor="middle" x="666" y="-91.5" font-family="Helvetica,sans-Serif" font-size="10.00">field_lists</text>
<text text-anchor="middle" x="666" y="-80.5" font-family="Helvetica,sans-Serif" font-size="10.00">...</text>
</g>
<!-- Node3 -->
<g id="node3" class="node">
<title>Node3</title>
<g id="a_node3"><a xlink:href="class_util_1_1_i_json.html" target="_top" xlink:title=" ">
<polygon fill="white" stroke="black" points="284.5,-151 284.5,-170 347.5,-170 347.5,-151 284.5,-151"/>
<text text-anchor="middle" x="316" y="-158" font-family="Helvetica,sans-Serif" font-size="10.00">Util::IJson</text>
</a>
</g>
</g>
<!-- Node3&#45;&gt;Node2 -->
<g id="edge2" class="edge">
<title>Node3&#45;&gt;Node2</title>
<path fill="none" stroke="midnightblue" d="M344.79,-146.32C373.6,-131.61 417.87,-109.02 442.95,-96.22"/>
<polygon fill="midnightblue" stroke="midnightblue" points="342.98,-143.31 335.66,-150.98 346.16,-149.55 342.98,-143.31"/>
</g>
<!-- Node9 -->
<g id="node9" class="node">
<title>Node9</title>
<g id="a_node9"><a xlink:href="class_util_1_1_json_object.html" target="_top" xlink:title=" ">
<polygon fill="white" stroke="black" points="417,-213 417,-232 509,-232 509,-213 417,-213"/>
<text text-anchor="middle" x="463" y="-220" font-family="Helvetica,sans-Serif" font-size="10.00">Util::JsonObject</text>
</a>
</g>
</g>
<!-- Node3&#45;&gt;Node9 -->
<g id="edge9" class="edge">
<title>Node3&#45;&gt;Node9</title>
<path fill="none" stroke="midnightblue" d="M348.87,-174.13C376.26,-185.84 415.09,-202.44 439.4,-212.84"/>
<polygon fill="midnightblue" stroke="midnightblue" points="349.91,-170.77 339.34,-170.05 347.16,-177.2 349.91,-170.77"/>
</g>
<!-- Node4 -->
<g id="node4" class="node">
<title>Node4</title>
<g id="a_node4"><a xlink:href="class_i_castable.html" target="_top" xlink:title=" ">
<polygon fill="white" stroke="black" points="105,-151 105,-170 167,-170 167,-151 105,-151"/>
<text text-anchor="middle" x="136" y="-158" font-family="Helvetica,sans-Serif" font-size="10.00">ICastable</text>
</a>
</g>
</g>
<!-- Node4&#45;&gt;Node3 -->
<g id="edge3" class="edge">
<title>Node4&#45;&gt;Node3</title>
<path fill="none" stroke="midnightblue" d="M177.27,-160.5C209.75,-160.5 254.76,-160.5 284.36,-160.5"/>
<polygon fill="midnightblue" stroke="midnightblue" points="177.2,-157 167.2,-160.5 177.2,-164 177.2,-157"/>
</g>
<!-- Node5 -->
<g id="node5" class="node">
<title>Node5</title>
<g id="a_node5"><a xlink:href="struct_r_t_t_i_1_1_base.html" target="_top" xlink:title=" ">
<polygon fill="white" stroke="black" points="0,-151 0,-170 68,-170 68,-151 0,-151"/>
<text text-anchor="middle" x="34" y="-158" font-family="Helvetica,sans-Serif" font-size="10.00">RTTI::Base</text>
</a>
</g>
</g>
<!-- Node5&#45;&gt;Node4 -->
<g id="edge4" class="edge">
<title>Node5&#45;&gt;Node4</title>
<path fill="none" stroke="midnightblue" d="M78.28,-160.5C87.19,-160.5 96.39,-160.5 104.72,-160.5"/>
<polygon fill="midnightblue" stroke="midnightblue" points="78.02,-157 68.02,-160.5 78.02,-164 78.02,-157"/>
</g>
<!-- Node6 -->
<g id="node6" class="node">
<title>Node6</title>
<g id="a_node6"><a xlink:title=" ">
<polygon fill="white" stroke="#bfbfbf" points="267.5,-77 267.5,-96 364.5,-96 364.5,-77 267.5,-77"/>
<text text-anchor="middle" x="316" y="-84" font-family="Helvetica,sans-Serif" font-size="10.00">std::vector&lt; T &gt;</text>
</a>
</g>
</g>
<!-- Node6&#45;&gt;Node2 -->
<g id="edge5" class="edge">
<title>Node6&#45;&gt;Node2</title>
<path fill="none" stroke="midnightblue" d="M375.01,-86.5C389.89,-86.5 405.61,-86.5 419.54,-86.5"/>
<polygon fill="midnightblue" stroke="midnightblue" points="374.88,-83 364.88,-86.5 374.88,-90 374.88,-83"/>
</g>
<!-- Node7 -->
<g id="node7" class="node">
<title>Node7</title>
<g id="a_node7"><a xlink:title=" ">
<polygon fill="white" stroke="#bfbfbf" points="121.5,-77 121.5,-96 150.5,-96 150.5,-77 121.5,-77"/>
<text text-anchor="middle" x="136" y="-84" font-family="Helvetica,sans-Serif" font-size="10.00">T</text>
</a>
</g>
</g>
<!-- Node7&#45;&gt;Node6 -->
<g id="edge6" class="edge">
<title>Node7&#45;&gt;Node6</title>
<path fill="none" stroke="#9a32cd" stroke-dasharray="5,2" d="M160.77,-86.5C187.83,-86.5 232.75,-86.5 267.15,-86.5"/>
<polygon fill="#9a32cd" stroke="#9a32cd" points="160.67,-83 150.67,-86.5 160.67,-90 160.67,-83"/>
<text text-anchor="middle" x="209.5" y="-89.5" font-family="Helvetica,sans-Serif" font-size="10.00"> elements</text>
</g>
<!-- Node8 -->
<g id="node8" class="node">
<title>Node8</title>
<g id="a_node8"><a xlink:title=" ">
<polygon fill="white" stroke="#bfbfbf" points="607,-207.5 607,-237.5 725,-237.5 725,-207.5 607,-207.5"/>
<text text-anchor="start" x="615" y="-225.5" font-family="Helvetica,sans-Serif" font-size="10.00">std::map&lt; unsigned,</text>
<text text-anchor="middle" x="666" y="-214.5" font-family="Helvetica,sans-Serif" font-size="10.00"> Util::JsonObject * &gt;</text>
</a>
</g>
</g>
<!-- Node8&#45;&gt;Node1 -->
<g id="edge7" class="edge">
<title>Node8&#45;&gt;Node1</title>
<path fill="none" stroke="#9a32cd" stroke-dasharray="5,2" d="M724.51,-204.41C774.44,-188.71 844.78,-166.58 884.53,-154.08"/>
<polygon fill="#9a32cd" stroke="#9a32cd" points="723.31,-201.12 714.82,-207.46 725.41,-207.8 723.31,-201.12"/>
<text text-anchor="middle" x="800" y="-206.5" font-family="Helvetica,sans-Serif" font-size="10.00"> map_parser</text>
<text text-anchor="middle" x="800" y="-195.5" font-family="Helvetica,sans-Serif" font-size="10.00">map_parser_state</text>
</g>
<!-- Node9&#45;&gt;Node1 -->
<g id="edge12" class="edge">
<title>Node9&#45;&gt;Node1</title>
<path fill="none" stroke="#9a32cd" stroke-dasharray="5,2" d="M511.69,-234.31C516.84,-235.45 522.02,-236.54 527,-237.5 619.18,-255.32 644.95,-260 738,-247.5 786.41,-241 802.02,-243.47 844,-218.5 872.62,-201.48 897.31,-169.84 908.54,-154.02"/>
<polygon fill="#9a32cd" stroke="#9a32cd" points="512.39,-230.88 501.86,-232.07 510.84,-237.7 512.39,-230.88"/>
<text text-anchor="middle" x="666" y="-268.5" font-family="Helvetica,sans-Serif" font-size="10.00"> meta</text>
<text text-anchor="middle" x="666" y="-257.5" font-family="Helvetica,sans-Serif" font-size="10.00">toplevel</text>
</g>
<!-- Node9&#45;&gt;Node8 -->
<g id="edge8" class="edge">
<title>Node9&#45;&gt;Node8</title>
<path fill="none" stroke="#9a32cd" stroke-dasharray="5,2" d="M519.22,-222.5C546.38,-222.5 579.11,-222.5 606.67,-222.5"/>
<polygon fill="#9a32cd" stroke="#9a32cd" points="519.11,-219 509.11,-222.5 519.11,-226 519.11,-219"/>
<text text-anchor="middle" x="551.5" y="-225.5" font-family="Helvetica,sans-Serif" font-size="10.00"> elements</text>
</g>
<!-- Node10 -->
<g id="node10" class="node">
<title>Node10</title>
<g id="a_node10"><a xlink:href="classordered__map.html" target="_top" xlink:title=" ">
<polygon fill="white" stroke="black" points="252,-207.5 252,-237.5 380,-237.5 380,-207.5 252,-207.5"/>
<text text-anchor="start" x="260" y="-225.5" font-family="Helvetica,sans-Serif" font-size="10.00">ordered_map&lt; cstring,</text>
<text text-anchor="middle" x="316" y="-214.5" font-family="Helvetica,sans-Serif" font-size="10.00"> IJson * &gt;</text>
</a>
</g>
</g>
<!-- Node10&#45;&gt;Node9 -->
<g id="edge10" class="edge">
<title>Node10&#45;&gt;Node9</title>
<path fill="none" stroke="midnightblue" d="M390.37,-222.5C399.42,-222.5 408.45,-222.5 416.9,-222.5"/>
<polygon fill="midnightblue" stroke="midnightblue" points="390.18,-219 380.18,-222.5 390.18,-226 390.18,-219"/>
</g>
<!-- Node11 -->
<g id="node11" class="node">
<title>Node11</title>
<g id="a_node11"><a xlink:href="classordered__map.html" target="_top" xlink:title=" ">
<polygon fill="white" stroke="black" points="594,-0.5 594,-30.5 738,-30.5 738,-0.5 594,-0.5"/>
<text text-anchor="start" x="602" y="-18.5" font-family="Helvetica,sans-Serif" font-size="10.00">ordered_map&lt; std::string,</text>
<text text-anchor="middle" x="666" y="-7.5" font-family="Helvetica,sans-Serif" font-size="10.00"> unsigned &gt;</text>
</a>
</g>
</g>
<!-- Node11&#45;&gt;Node1 -->
<g id="edge11" class="edge">
<title>Node11&#45;&gt;Node1</title>
<path fill="none" stroke="#9a32cd" stroke-dasharray="5,2" d="M748.54,-7.92C780.36,-8.63 815.87,-14.26 844,-31.5 883.9,-55.96 905.04,-112.18 912.18,-134.8"/>
<polygon fill="#9a32cd" stroke="#9a32cd" points="748.38,-4.41 738.36,-7.85 748.33,-11.41 748.38,-4.41"/>
<text text-anchor="middle" x="800" y="-45.5" font-family="Helvetica,sans-Serif" font-size="10.00"> header_type_id</text>
<text text-anchor="middle" x="800" y="-34.5" font-family="Helvetica,sans-Serif" font-size="10.00">union_type_id</text>
</g>
</g>
</svg>
