<?xml version="1.0" encoding="UTF-8" standalone="no"?>
<!DOCTYPE svg PUBLIC "-//W3C//DTD SVG 1.1//EN"
 "http://www.w3.org/Graphics/SVG/1.1/DTD/svg11.dtd">
<!-- Generated by graphviz version 2.43.0 (0)
 -->
<!-- Title: P4::AbstractInliner&lt; InlineList, InlineWorkList &gt; Pages: 1 -->
<svg width="478pt" height="244pt"
 viewBox="0.00 0.00 478.00 244.00" xmlns="http://www.w3.org/2000/svg" xmlns:xlink="http://www.w3.org/1999/xlink">
<g id="graph0" class="graph" transform="scale(1 1) rotate(0) translate(4 240)">
<title>P4::AbstractInliner&lt; InlineList, InlineWorkList &gt;</title>
<polygon fill="white" stroke="transparent" points="-4,4 -4,-240 474,-240 474,4 -4,4"/>
<!-- Node1 -->
<g id="node1" class="node">
<title>Node1</title>
<g id="a_node1"><a xlink:title=" ">
<polygon fill="#bfbfbf" stroke="black" points="12.5,-0.5 12.5,-30.5 170.5,-30.5 170.5,-0.5 12.5,-0.5"/>
<text text-anchor="start" x="20.5" y="-18.5" font-family="Helvetica,sans-Serif" font-size="10.00">P4::AbstractInliner</text>
<text text-anchor="middle" x="91.5" y="-7.5" font-family="Helvetica,sans-Serif" font-size="10.00">&lt; InlineList, InlineWorkList &gt;</text>
</a>
</g>
</g>
<!-- Node2 -->
<g id="node2" class="node">
<title>Node2</title>
<g id="a_node2"><a xlink:href="class_transform.html" target="_top" xlink:title=" ">
<polygon fill="white" stroke="black" points="0,-79.5 0,-98.5 65,-98.5 65,-79.5 0,-79.5"/>
<text text-anchor="middle" x="32.5" y="-86.5" font-family="Helvetica,sans-Serif" font-size="10.00">Transform</text>
</a>
</g>
</g>
<!-- Node2&#45;&gt;Node1 -->
<g id="edge1" class="edge">
<title>Node2&#45;&gt;Node1</title>
<path fill="none" stroke="midnightblue" d="M46.15,-71.46C56.39,-59.05 70.25,-42.26 79.94,-30.51"/>
<polygon fill="midnightblue" stroke="midnightblue" points="43.4,-69.29 39.73,-79.23 48.8,-73.75 43.4,-69.29"/>
</g>
<!-- Node3 -->
<g id="node3" class="node">
<title>Node3</title>
<g id="a_node3"><a xlink:href="class_visitor.html" target="_top" xlink:title=" ">
<polygon fill="white" stroke="black" points="230.5,-147.5 230.5,-166.5 278.5,-166.5 278.5,-147.5 230.5,-147.5"/>
<text text-anchor="middle" x="254.5" y="-154.5" font-family="Helvetica,sans-Serif" font-size="10.00">Visitor</text>
</a>
</g>
</g>
<!-- Node3&#45;&gt;Node2 -->
<g id="edge2" class="edge">
<title>Node3&#45;&gt;Node2</title>
<path fill="none" stroke="midnightblue" d="M220.47,-145.88C176.86,-132.92 102.04,-110.68 61.19,-98.53"/>
<polygon fill="midnightblue" stroke="midnightblue" points="219.74,-149.32 230.32,-148.81 221.73,-142.61 219.74,-149.32"/>
</g>
<!-- Node3&#45;&gt;Node3 -->
<g id="edge10" class="edge">
<title>Node3&#45;&gt;Node3</title>
<path fill="none" stroke="#9a32cd" stroke-dasharray="5,2" d="M288.92,-162.29C293.48,-161.39 296.5,-159.63 296.5,-157 296.5,-152.69 288.36,-150.7 278.67,-151.04"/>
<polygon fill="#9a32cd" stroke="#9a32cd" points="288.42,-158.82 278.67,-162.96 288.88,-165.8 288.42,-158.82"/>
<text text-anchor="middle" x="321.5" y="-154.5" font-family="Helvetica,sans-Serif" font-size="10.00"> called_by</text>
</g>
<!-- Node5 -->
<g id="node5" class="node">
<title>Node5</title>
<g id="a_node5"><a xlink:href="class_split_flow_visit__base.html" target="_top" xlink:title=" ">
<polygon fill="white" stroke="black" points="254.5,-6 254.5,-25 366.5,-25 366.5,-6 254.5,-6"/>
<text text-anchor="middle" x="310.5" y="-13" font-family="Helvetica,sans-Serif" font-size="10.00">SplitFlowVisit_base</text>
</a>
</g>
</g>
<!-- Node3&#45;&gt;Node5 -->
<g id="edge9" class="edge">
<title>Node3&#45;&gt;Node5</title>
<path fill="none" stroke="#9a32cd" stroke-dasharray="5,2" d="M266.66,-138.91C273.84,-128.16 282.65,-113.76 288.5,-100 299.63,-73.78 306.36,-40.49 309.09,-25.06"/>
<polygon fill="#9a32cd" stroke="#9a32cd" points="263.66,-137.09 260.87,-147.31 269.43,-141.06 263.66,-137.09"/>
<text text-anchor="middle" x="300.5" y="-86.5" font-family="Helvetica,sans-Serif" font-size="10.00"> v</text>
</g>
<!-- Node6 -->
<g id="node6" class="node">
<title>Node6</title>
<g id="a_node6"><a xlink:title=" ">
<polygon fill="white" stroke="#bfbfbf" points="339,-79.5 339,-98.5 470,-98.5 470,-79.5 339,-79.5"/>
<text text-anchor="middle" x="404.5" y="-86.5" font-family="Helvetica,sans-Serif" font-size="10.00">std::vector&lt; Visitor * &gt;</text>
</a>
</g>
</g>
<!-- Node3&#45;&gt;Node6 -->
<g id="edge8" class="edge">
<title>Node3&#45;&gt;Node6</title>
<path fill="none" stroke="#9a32cd" stroke-dasharray="5,2" d="M287.5,-143.94C299.27,-139.46 312.56,-134.2 324.5,-129 346.74,-119.31 371.79,-106.84 387.84,-98.64"/>
<polygon fill="#9a32cd" stroke="#9a32cd" points="286.16,-140.7 278.04,-147.49 288.63,-147.25 286.16,-140.7"/>
<text text-anchor="middle" x="371" y="-121" font-family="Helvetica,sans-Serif" font-size="10.00"> elements</text>
</g>
<!-- Node4 -->
<g id="node4" class="node">
<title>Node4</title>
<g id="a_node4"><a xlink:href="classcstring.html" target="_top" xlink:title=" ">
<polygon fill="white" stroke="black" points="229.5,-215.5 229.5,-234.5 279.5,-234.5 279.5,-215.5 229.5,-215.5"/>
<text text-anchor="middle" x="254.5" y="-222.5" font-family="Helvetica,sans-Serif" font-size="10.00">cstring</text>
</a>
</g>
</g>
<!-- Node4&#45;&gt;Node3 -->
<g id="edge3" class="edge">
<title>Node4&#45;&gt;Node3</title>
<path fill="none" stroke="#9a32cd" stroke-dasharray="5,2" d="M254.5,-205.04C254.5,-192.47 254.5,-176.56 254.5,-166.84"/>
<polygon fill="#9a32cd" stroke="#9a32cd" points="251,-205.37 254.5,-215.37 258,-205.37 251,-205.37"/>
<text text-anchor="middle" x="289.5" y="-188" font-family="Helvetica,sans-Serif" font-size="10.00"> internalName</text>
</g>
<!-- Node4&#45;&gt;Node4 -->
<g id="edge4" class="edge">
<title>Node4&#45;&gt;Node4</title>
<path fill="none" stroke="#9a32cd" stroke-dasharray="5,2" d="M289.95,-230.58C294.5,-229.61 297.5,-227.75 297.5,-225 297.5,-220.48 289.41,-218.37 279.68,-218.65"/>
<polygon fill="#9a32cd" stroke="#9a32cd" points="289.39,-227.11 279.68,-231.35 289.91,-234.1 289.39,-227.11"/>
<text text-anchor="middle" x="317" y="-228" font-family="Helvetica,sans-Serif" font-size="10.00"> empty</text>
<text text-anchor="middle" x="317" y="-217" font-family="Helvetica,sans-Serif" font-size="10.00">newline</text>
</g>
<!-- Node5&#45;&gt;Node3 -->
<g id="edge5" class="edge">
<title>Node5&#45;&gt;Node3</title>
<path fill="none" stroke="#9a32cd" stroke-dasharray="5,2" d="M273.89,-29.01C251.82,-38.67 225.54,-54.42 212.5,-78 198.66,-103.03 227.1,-132.87 243.69,-147.31"/>
<polygon fill="#9a32cd" stroke="#9a32cd" points="275.44,-32.16 283.35,-25.12 272.77,-25.68 275.44,-32.16"/>
<text text-anchor="middle" x="250.5" y="-92" font-family="Helvetica,sans-Serif" font-size="10.00"> split_link</text>
<text text-anchor="middle" x="250.5" y="-81" font-family="Helvetica,sans-Serif" font-size="10.00">split_link_mem</text>
</g>
<!-- Node5&#45;&gt;Node5 -->
<g id="edge6" class="edge">
<title>Node5&#45;&gt;Node5</title>
<path fill="none" stroke="#9a32cd" stroke-dasharray="5,2" d="M376.54,-20.81C381.47,-19.62 384.5,-17.85 384.5,-15.5 384.5,-11.83 377.12,-9.57 366.65,-8.74"/>
<polygon fill="#9a32cd" stroke="#9a32cd" points="376.03,-17.35 366.65,-22.26 377.05,-24.27 376.03,-17.35"/>
<text text-anchor="middle" x="397" y="-13" font-family="Helvetica,sans-Serif" font-size="10.00"> prev</text>
</g>
<!-- Node6&#45;&gt;Node5 -->
<g id="edge7" class="edge">
<title>Node6&#45;&gt;Node5</title>
<path fill="none" stroke="#9a32cd" stroke-dasharray="5,2" d="M384.93,-73.12C365.84,-58.59 337.45,-37 321.83,-25.12"/>
<polygon fill="#9a32cd" stroke="#9a32cd" points="382.9,-75.96 392.97,-79.23 387.13,-70.39 382.9,-75.96"/>
<text text-anchor="middle" x="385.5" y="-52" font-family="Helvetica,sans-Serif" font-size="10.00"> visitors</text>
</g>
<!-- Node7 -->
<g id="node7" class="node">
<title>Node7</title>
<g id="a_node7"><a xlink:href="class_p4_1_1_inline_list.html" target="_top" xlink:title=" ">
<polygon fill="white" stroke="black" points="83,-79.5 83,-98.5 162,-98.5 162,-79.5 83,-79.5"/>
<text text-anchor="middle" x="122.5" y="-86.5" font-family="Helvetica,sans-Serif" font-size="10.00">P4::InlineList</text>
</a>
</g>
</g>
<!-- Node7&#45;&gt;Node1 -->
<g id="edge11" class="edge">
<title>Node7&#45;&gt;Node1</title>
<path fill="none" stroke="#9a32cd" stroke-dasharray="5,2" d="M114.7,-70.01C109.39,-57.77 102.47,-41.8 97.57,-30.51"/>
<polygon fill="#9a32cd" stroke="#9a32cd" points="111.51,-71.45 118.7,-79.23 117.93,-68.67 111.51,-71.45"/>
<text text-anchor="middle" x="119" y="-52" font-family="Helvetica,sans-Serif" font-size="10.00"> list</text>
</g>
</g>
</svg>
