<?xml version="1.0" encoding="UTF-8" standalone="no"?>
<!DOCTYPE svg PUBLIC "-//W3C//DTD SVG 1.1//EN"
 "http://www.w3.org/Graphics/SVG/1.1/DTD/svg11.dtd">
<!-- Generated by graphviz version 2.43.0 (0)
 -->
<!-- Title: EBPF::EBPFObject Pages: 1 -->
<svg width="947pt" height="989pt"
 viewBox="0.00 0.00 947.00 989.00" xmlns="http://www.w3.org/2000/svg" xmlns:xlink="http://www.w3.org/1999/xlink">
<g id="graph0" class="graph" transform="scale(1 1) rotate(0) translate(4 985)">
<title>EBPF::EBPFObject</title>
<!-- Node1 -->
<g id="Node000001" class="node">
<title>Node1</title>
<g id="a_Node000001"><a xlink:title=" ">
<polygon fill="#999999" stroke="#666666" points="305,-629 202,-629 202,-610 305,-610 305,-629"/>
<text text-anchor="middle" x="253.5" y="-617" font-family="Helvetica,sans-Serif" font-size="10.00">EBPF::EBPFObject</text>
</a>
</g>
</g>
<!-- Node4 -->
<g id="Node000004" class="node">
<title>Node4</title>
<g id="a_Node000004"><a xlink:href="class_e_b_p_f_1_1_e_b_p_f_checksum_p_s_a.html" target="_top" xlink:title=" ">
<polygon fill="white" stroke="#bfbfbf" points="494,-944 352,-944 352,-925 494,-925 494,-944"/>
<text text-anchor="middle" x="423" y="-932" font-family="Helvetica,sans-Serif" font-size="10.00">EBPF::EBPFChecksumPSA</text>
</a>
</g>
</g>
<!-- Node1&#45;&gt;Node4 -->
<g id="edge3_Node000001_Node000004" class="edge">
<title>Node1&#45;&gt;Node4</title>
<g id="a_edge3_Node000001_Node000004"><a xlink:title=" ">
<path fill="none" stroke="#63b8ff" d="M258.26,-639.54C267.08,-682.84 292.14,-787.14 341,-860.5 359.27,-887.93 389.84,-912.08 407.74,-924.86"/>
<polygon fill="#63b8ff" stroke="#63b8ff" points="261.64,-638.6 256.28,-629.46 254.77,-639.95 261.64,-638.6"/>
</a>
</g>
</g>
<!-- Node7 -->
<g id="Node000007" class="node">
<title>Node7</title>
<g id="a_Node000007"><a xlink:href="class_e_b_p_f_1_1_e_b_p_f_control.html" target="_top" xlink:title=" ">
<polygon fill="white" stroke="#bfbfbf" points="476.5,-852 369.5,-852 369.5,-833 476.5,-833 476.5,-852"/>
<text text-anchor="middle" x="423" y="-840" font-family="Helvetica,sans-Serif" font-size="10.00">EBPF::EBPFControl</text>
</a>
</g>
</g>
<!-- Node1&#45;&gt;Node7 -->
<g id="edge6_Node000001_Node000007" class="edge">
<title>Node1&#45;&gt;Node7</title>
<g id="a_edge6_Node000001_Node000007"><a xlink:title=" ">
<path fill="none" stroke="#63b8ff" d="M261.02,-638.96C272.87,-672.12 300.48,-740.48 341,-786.5 358.74,-806.65 385.18,-823.14 402.99,-832.89"/>
<polygon fill="#63b8ff" stroke="#63b8ff" points="264.2,-637.44 257.62,-629.14 257.59,-639.74 264.2,-637.44"/>
</a>
</g>
</g>
<!-- Node20 -->
<g id="Node000020" class="node">
<title>Node20</title>
<g id="a_Node000020"><a xlink:href="class_e_b_p_f_1_1_e_b_p_f_digest_p_s_a.html" target="_top" xlink:title=" ">
<polygon fill="white" stroke="#bfbfbf" points="484,-778 362,-778 362,-759 484,-759 484,-778"/>
<text text-anchor="middle" x="423" y="-766" font-family="Helvetica,sans-Serif" font-size="10.00">EBPF::EBPFDigestPSA</text>
</a>
</g>
</g>
<!-- Node1&#45;&gt;Node20 -->
<g id="edge11_Node000001_Node000020" class="edge">
<title>Node1&#45;&gt;Node20</title>
<g id="a_edge11_Node000001_Node000020"><a xlink:title=" ">
<path fill="none" stroke="#63b8ff" d="M261.73,-638.48C273.68,-667.18 300.35,-721.27 341,-749.5 347.29,-753.87 354.44,-757.24 361.84,-759.84"/>
<polygon fill="#63b8ff" stroke="#63b8ff" points="264.96,-637.13 258,-629.15 258.46,-639.73 264.96,-637.13"/>
</a>
</g>
</g>
<!-- Node21 -->
<g id="Node000021" class="node">
<title>Node21</title>
<g id="a_Node000021"><a xlink:href="class_e_b_p_f_1_1_e_b_p_f_hash_algorithm_p_s_a.html" target="_top" xlink:title=" ">
<polygon fill="white" stroke="#bfbfbf" points="505,-741 341,-741 341,-722 505,-722 505,-741"/>
<text text-anchor="middle" x="423" y="-729" font-family="Helvetica,sans-Serif" font-size="10.00">EBPF::EBPFHashAlgorithmPSA</text>
</a>
</g>
</g>
<!-- Node1&#45;&gt;Node21 -->
<g id="edge12_Node000001_Node000021" class="edge">
<title>Node1&#45;&gt;Node21</title>
<g id="a_edge12_Node000001_Node000021"><a xlink:title=" ">
<path fill="none" stroke="#63b8ff" d="M271.25,-636.25C287.92,-652.31 314.74,-676.55 341,-693.5 358.88,-705.04 380.82,-715.11 397.35,-721.98"/>
<polygon fill="#63b8ff" stroke="#63b8ff" points="273.52,-633.58 263.93,-629.09 268.63,-638.58 273.52,-633.58"/>
</a>
</g>
</g>
<!-- Node29 -->
<g id="Node000029" class="node">
<title>Node29</title>
<g id="a_Node000029"><a xlink:href="class_e_b_p_f_1_1_e_b_p_f_parser.html" target="_top" xlink:title=" ">
<polygon fill="white" stroke="#bfbfbf" points="473.5,-685 372.5,-685 372.5,-666 473.5,-666 473.5,-685"/>
<text text-anchor="middle" x="423" y="-673" font-family="Helvetica,sans-Serif" font-size="10.00">EBPF::EBPFParser</text>
</a>
</g>
</g>
<!-- Node1&#45;&gt;Node29 -->
<g id="edge18_Node000001_Node000029" class="edge">
<title>Node1&#45;&gt;Node29</title>
<g id="a_edge18_Node000001_Node000029"><a xlink:title=" ">
<path fill="none" stroke="#63b8ff" d="M283.22,-633.28C299.83,-640.86 321.28,-650.02 341,-656.5 351.84,-660.06 363.71,-663.23 374.93,-665.92"/>
<polygon fill="#63b8ff" stroke="#63b8ff" points="284.59,-630.06 274.05,-629.02 281.65,-636.41 284.59,-630.06"/>
</a>
</g>
</g>
<!-- Node33 -->
<g id="Node000033" class="node">
<title>Node33</title>
<g id="a_Node000033"><a xlink:href="class_e_b_p_f_1_1_e_b_p_f_parser_state.html" target="_top" xlink:title=" ">
<polygon fill="white" stroke="#bfbfbf" points="486.5,-648 359.5,-648 359.5,-629 486.5,-629 486.5,-648"/>
<text text-anchor="middle" x="423" y="-636" font-family="Helvetica,sans-Serif" font-size="10.00">EBPF::EBPFParserState</text>
</a>
</g>
</g>
<!-- Node1&#45;&gt;Node33 -->
<g id="edge22_Node000001_Node000033" class="edge">
<title>Node1&#45;&gt;Node33</title>
<g id="a_edge22_Node000001_Node000033"><a xlink:title=" ">
<path fill="none" stroke="#63b8ff" d="M315.42,-626.41C329.71,-628.03 344.96,-629.76 359.32,-631.39"/>
<polygon fill="#63b8ff" stroke="#63b8ff" points="315.54,-622.9 305.21,-625.25 314.75,-629.86 315.54,-622.9"/>
</a>
</g>
</g>
<!-- Node35 -->
<g id="Node000035" class="node">
<title>Node35</title>
<g id="a_Node000035"><a xlink:href="class_e_b_p_f_1_1_e_b_p_f_program.html" target="_top" xlink:title=" ">
<polygon fill="white" stroke="#bfbfbf" points="479.5,-611 366.5,-611 366.5,-592 479.5,-592 479.5,-611"/>
<text text-anchor="middle" x="423" y="-599" font-family="Helvetica,sans-Serif" font-size="10.00">EBPF::EBPFProgram</text>
</a>
</g>
</g>
<!-- Node1&#45;&gt;Node35 -->
<g id="edge24_Node000001_Node000035" class="edge">
<title>Node1&#45;&gt;Node35</title>
<g id="a_edge24_Node000001_Node000035"><a xlink:title=" ">
<path fill="none" stroke="#63b8ff" d="M315.41,-612.95C332.11,-611.16 350.12,-609.22 366.5,-607.46"/>
<polygon fill="#63b8ff" stroke="#63b8ff" points="314.78,-609.5 305.21,-614.05 315.53,-616.46 314.78,-609.5"/>
</a>
</g>
</g>
<!-- Node47 -->
<g id="Node000047" class="node">
<title>Node47</title>
<g id="a_Node000047"><a xlink:href="class_e_b_p_f_1_1_e_b_p_f_random_p_s_a.html" target="_top" xlink:title=" ">
<polygon fill="white" stroke="#bfbfbf" points="488.5,-574 357.5,-574 357.5,-555 488.5,-555 488.5,-574"/>
<text text-anchor="middle" x="423" y="-562" font-family="Helvetica,sans-Serif" font-size="10.00">EBPF::EBPFRandomPSA</text>
</a>
</g>
</g>
<!-- Node1&#45;&gt;Node47 -->
<g id="edge30_Node000001_Node000047" class="edge">
<title>Node1&#45;&gt;Node47</title>
<g id="a_edge30_Node000001_Node000047"><a xlink:title=" ">
<path fill="none" stroke="#63b8ff" d="M283.19,-605.64C299.79,-598.02 321.24,-588.86 341,-582.5 351.01,-579.28 361.9,-576.43 372.35,-574"/>
<polygon fill="#63b8ff" stroke="#63b8ff" points="281.61,-602.51 274.03,-609.91 284.57,-608.86 281.61,-602.51"/>
</a>
</g>
</g>
<!-- Node48 -->
<g id="Node000048" class="node">
<title>Node48</title>
<g id="a_Node000048"><a xlink:href="class_e_b_p_f_1_1_e_b_p_f_table_base.html" target="_top" xlink:title=" ">
<polygon fill="white" stroke="#bfbfbf" points="483,-445 363,-445 363,-426 483,-426 483,-445"/>
<text text-anchor="middle" x="423" y="-433" font-family="Helvetica,sans-Serif" font-size="10.00">EBPF::EBPFTableBase</text>
</a>
</g>
</g>
<!-- Node1&#45;&gt;Node48 -->
<g id="edge31_Node000001_Node000048" class="edge">
<title>Node1&#45;&gt;Node48</title>
<g id="a_edge31_Node000001_Node000048"><a xlink:title=" ">
<path fill="none" stroke="#63b8ff" d="M270.27,-602.18C304.88,-564.16 386.53,-474.47 413.32,-445.04"/>
<polygon fill="#63b8ff" stroke="#63b8ff" points="267.41,-600.12 263.27,-609.87 272.59,-604.83 267.41,-600.12"/>
</a>
</g>
</g>
<!-- Node60 -->
<g id="Node000060" class="node">
<title>Node60</title>
<g id="a_Node000060"><a xlink:href="class_e_b_p_f_1_1_e_b_p_f_type.html" target="_top" xlink:title=" ">
<polygon fill="white" stroke="#bfbfbf" points="469.5,-241 376.5,-241 376.5,-222 469.5,-222 469.5,-241"/>
<text text-anchor="middle" x="423" y="-229" font-family="Helvetica,sans-Serif" font-size="10.00">EBPF::EBPFType</text>
</a>
</g>
</g>
<!-- Node1&#45;&gt;Node60 -->
<g id="edge37_Node000001_Node000060" class="edge">
<title>Node1&#45;&gt;Node60</title>
<g id="a_edge37_Node000001_Node000060"><a xlink:title=" ">
<path fill="none" stroke="#63b8ff" d="M262.54,-600.47C277.74,-564.49 311.83,-484.04 341,-416.5 370.06,-349.23 405.66,-268.49 417.75,-241.12"/>
<polygon fill="#63b8ff" stroke="#63b8ff" points="259.28,-599.19 258.61,-609.77 265.72,-601.92 259.28,-599.19"/>
</a>
</g>
</g>
<!-- Node72 -->
<g id="Node000072" class="node">
<title>Node72</title>
<g id="a_Node000072"><a xlink:href="class_u_b_p_f_1_1_u_b_p_f_deparser.html" target="_top" xlink:title=" ">
<polygon fill="white" stroke="#bfbfbf" points="482.5,-204 363.5,-204 363.5,-185 482.5,-185 482.5,-204"/>
<text text-anchor="middle" x="423" y="-192" font-family="Helvetica,sans-Serif" font-size="10.00">UBPF::UBPFDeparser</text>
</a>
</g>
</g>
<!-- Node1&#45;&gt;Node72 -->
<g id="edge45_Node000001_Node000072" class="edge">
<title>Node1&#45;&gt;Node72</title>
<g id="a_edge45_Node000001_Node000072"><a xlink:title=" ">
<path fill="none" stroke="#63b8ff" d="M255.93,-599.77C261.65,-526.11 285.38,-268.64 341,-212.5 347.18,-206.26 355.02,-201.97 363.37,-199.06"/>
<polygon fill="#63b8ff" stroke="#63b8ff" points="252.42,-599.72 255.16,-609.95 259.4,-600.24 252.42,-599.72"/>
</a>
</g>
</g>
<!-- Node73 -->
<g id="Node000073" class="node">
<title>Node73</title>
<g id="a_Node000073"><a xlink:href="class_u_b_p_f_1_1_u_b_p_f_table_base.html" target="_top" xlink:title=" ">
<polygon fill="white" stroke="#bfbfbf" points="484.5,-56 361.5,-56 361.5,-37 484.5,-37 484.5,-56"/>
<text text-anchor="middle" x="423" y="-44" font-family="Helvetica,sans-Serif" font-size="10.00">UBPF::UBPFTableBase</text>
</a>
</g>
</g>
<!-- Node1&#45;&gt;Node73 -->
<g id="edge46_Node000001_Node000073" class="edge">
<title>Node1&#45;&gt;Node73</title>
<g id="a_edge46_Node000001_Node000073"><a xlink:title=" ">
<path fill="none" stroke="#63b8ff" d="M255.78,-599.5C260.41,-535.57 279.43,-331.22 341,-175.5 360.16,-127.05 397.8,-76.78 414.13,-56.18"/>
<polygon fill="#63b8ff" stroke="#63b8ff" points="252.27,-599.54 255.08,-609.76 259.25,-600.02 252.27,-599.54"/>
</a>
</g>
</g>
<!-- Node2 -->
<g id="Node000002" class="node">
<title>Node2</title>
<g id="a_Node000002"><a xlink:href="class_i_castable.html" target="_top" xlink:title=" ">
<polygon fill="white" stroke="#666666" points="166,-629 104,-629 104,-610 166,-610 166,-629"/>
<text text-anchor="middle" x="135" y="-617" font-family="Helvetica,sans-Serif" font-size="10.00">ICastable</text>
</a>
</g>
</g>
<!-- Node2&#45;&gt;Node1 -->
<g id="edge1_Node000001_Node000002" class="edge">
<title>Node2&#45;&gt;Node1</title>
<g id="a_edge1_Node000001_Node000002"><a xlink:title=" ">
<path fill="none" stroke="#63b8ff" d="M176.13,-619.5C184.41,-619.5 193.22,-619.5 201.81,-619.5"/>
<polygon fill="#63b8ff" stroke="#63b8ff" points="176,-616 166,-619.5 176,-623 176,-616"/>
</a>
</g>
</g>
<!-- Node3 -->
<g id="Node000003" class="node">
<title>Node3</title>
<g id="a_Node000003"><a xlink:href="struct_r_t_t_i_1_1_base.html" target="_top" xlink:title=" ">
<polygon fill="white" stroke="#bfbfbf" points="68,-629 0,-629 0,-610 68,-610 68,-629"/>
<text text-anchor="middle" x="34" y="-617" font-family="Helvetica,sans-Serif" font-size="10.00">RTTI::Base</text>
</a>
</g>
</g>
<!-- Node3&#45;&gt;Node2 -->
<g id="edge2_Node000002_Node000003" class="edge">
<title>Node3&#45;&gt;Node2</title>
<g id="a_edge2_Node000002_Node000003"><a xlink:title=" ">
<path fill="none" stroke="#63b8ff" d="M78.44,-619.5C86.95,-619.5 95.71,-619.5 103.68,-619.5"/>
<polygon fill="#63b8ff" stroke="#63b8ff" points="78.24,-616 68.24,-619.5 78.24,-623 78.24,-616"/>
</a>
</g>
</g>
<!-- Node5 -->
<g id="Node000005" class="node">
<title>Node5</title>
<g id="a_Node000005"><a xlink:href="class_e_b_p_f_1_1_e_b_p_f_hash_p_s_a.html" target="_top" xlink:title=" ">
<polygon fill="white" stroke="#bfbfbf" points="691,-981 575,-981 575,-962 691,-962 691,-981"/>
<text text-anchor="middle" x="633" y="-969" font-family="Helvetica,sans-Serif" font-size="10.00">EBPF::EBPFHashPSA</text>
</a>
</g>
</g>
<!-- Node4&#45;&gt;Node5 -->
<g id="edge4_Node000004_Node000005" class="edge">
<title>Node4&#45;&gt;Node5</title>
<g id="a_edge4_Node000004_Node000005"><a xlink:title=" ">
<path fill="none" stroke="#63b8ff" d="M487.6,-945.81C516.6,-950.97 550.56,-957.01 578.26,-961.94"/>
<polygon fill="#63b8ff" stroke="#63b8ff" points="488.02,-942.33 477.57,-944.03 486.8,-949.23 488.02,-942.33"/>
</a>
</g>
</g>
<!-- Node6 -->
<g id="Node000006" class="node">
<title>Node6</title>
<g id="a_Node000006"><a xlink:href="class_e_b_p_f_1_1_e_b_p_f_internet_checksum_p_s_a.html" target="_top" xlink:title=" ">
<polygon fill="white" stroke="#bfbfbf" points="723,-944 543,-944 543,-925 723,-925 723,-944"/>
<text text-anchor="middle" x="633" y="-932" font-family="Helvetica,sans-Serif" font-size="10.00">EBPF::EBPFInternetChecksumPSA</text>
</a>
</g>
</g>
<!-- Node4&#45;&gt;Node6 -->
<g id="edge5_Node000004_Node000006" class="edge">
<title>Node4&#45;&gt;Node6</title>
<g id="a_edge5_Node000004_Node000006"><a xlink:title=" ">
<path fill="none" stroke="#63b8ff" d="M504.19,-934.5C516.9,-934.5 530.1,-934.5 542.99,-934.5"/>
<polygon fill="#63b8ff" stroke="#63b8ff" points="504.13,-931 494.13,-934.5 504.13,-938 504.13,-931"/>
</a>
</g>
</g>
<!-- Node8 -->
<g id="Node000008" class="node">
<title>Node8</title>
<g id="a_Node000008"><a xlink:href="class_e_b_p_f_1_1_e_b_p_f_control_p_s_a.html" target="_top" xlink:title=" ">
<polygon fill="white" stroke="#bfbfbf" points="696,-907 570,-907 570,-888 696,-888 696,-907"/>
<text text-anchor="middle" x="633" y="-895" font-family="Helvetica,sans-Serif" font-size="10.00">EBPF::EBPFControlPSA</text>
</a>
</g>
</g>
<!-- Node7&#45;&gt;Node8 -->
<g id="edge7_Node000007_Node000008" class="edge">
<title>Node7&#45;&gt;Node8</title>
<g id="a_edge7_Node000007_Node000008"><a xlink:title=" ">
<path fill="none" stroke="#63b8ff" d="M462.25,-855.25C484.99,-862.58 514.47,-871.66 541,-878.5 554.28,-881.92 568.78,-885.17 582.22,-887.97"/>
<polygon fill="#63b8ff" stroke="#63b8ff" points="463.23,-851.89 452.64,-852.13 461.07,-858.55 463.23,-851.89"/>
</a>
</g>
</g>
<!-- Node9 -->
<g id="Node000009" class="node">
<title>Node9</title>
<g id="a_Node000009"><a xlink:href="class_e_b_p_f_1_1_e_b_p_f_deparser.html" target="_top" xlink:title=" ">
<polygon fill="white" stroke="#bfbfbf" points="691,-870 575,-870 575,-851 691,-851 691,-870"/>
<text text-anchor="middle" x="633" y="-858" font-family="Helvetica,sans-Serif" font-size="10.00">EBPF::EBPFDeparser</text>
</a>
</g>
</g>
<!-- Node7&#45;&gt;Node9 -->
<g id="edge8_Node000007_Node000009" class="edge">
<title>Node7&#45;&gt;Node9</title>
<g id="a_edge8_Node000007_Node000009"><a xlink:title=" ">
<path fill="none" stroke="#63b8ff" d="M486.84,-847.94C514.85,-850.36 547.61,-853.2 574.92,-855.56"/>
<polygon fill="#63b8ff" stroke="#63b8ff" points="487.02,-844.44 476.76,-847.07 486.42,-851.41 487.02,-844.44"/>
</a>
</g>
</g>
<!-- Node19 -->
<g id="Node000019" class="node">
<title>Node19</title>
<g id="a_Node000019"><a xlink:href="class_u_b_p_f_1_1_u_b_p_f_control.html" target="_top" xlink:title=" ">
<polygon fill="white" stroke="#bfbfbf" points="688,-833 578,-833 578,-814 688,-814 688,-833"/>
<text text-anchor="middle" x="633" y="-821" font-family="Helvetica,sans-Serif" font-size="10.00">UBPF::UBPFControl</text>
</a>
</g>
</g>
<!-- Node7&#45;&gt;Node19 -->
<g id="edge10_Node000007_Node000019" class="edge">
<title>Node7&#45;&gt;Node19</title>
<g id="a_edge10_Node000007_Node000019"><a xlink:title=" ">
<path fill="none" stroke="#63b8ff" d="M486.79,-836.76C515.83,-834.11 549.97,-830.99 577.85,-828.45"/>
<polygon fill="#63b8ff" stroke="#63b8ff" points="486.4,-833.29 476.76,-837.68 487.03,-840.26 486.4,-833.29"/>
</a>
</g>
</g>
<!-- Node10 -->
<g id="Node000010" class="node">
<title>Node10</title>
<g id="a_Node000010"><a xlink:href="class_e_b_p_f_1_1_e_b_p_f_deparser_p_s_a.html" target="_top" xlink:title=" ">
<polygon fill="white" stroke="orangered" points="917.5,-870 782.5,-870 782.5,-851 917.5,-851 917.5,-870"/>
<text text-anchor="middle" x="850" y="-858" font-family="Helvetica,sans-Serif" font-size="10.00">EBPF::EBPFDeparserPSA</text>
</a>
</g>
</g>
<!-- Node9&#45;&gt;Node10 -->
<g id="edge9_Node000009_Node000010" class="edge">
<title>Node9&#45;&gt;Node10</title>
<g id="a_edge9_Node000009_Node000010"><a xlink:title=" ">
<path fill="none" stroke="#63b8ff" d="M701.12,-860.5C726.92,-860.5 756.36,-860.5 782.14,-860.5"/>
<polygon fill="#63b8ff" stroke="#63b8ff" points="701.05,-857 691.05,-860.5 701.05,-864 701.05,-857"/>
</a>
</g>
</g>
<!-- Node22 -->
<g id="Node000022" class="node">
<title>Node22</title>
<g id="a_Node000022"><a xlink:href="class_e_b_p_f_1_1_c_r_c_checksum_algorithm.html" target="_top" xlink:title=" ">
<polygon fill="white" stroke="#bfbfbf" points="716,-796 550,-796 550,-777 716,-777 716,-796"/>
<text text-anchor="middle" x="633" y="-784" font-family="Helvetica,sans-Serif" font-size="10.00">EBPF::CRCChecksumAlgorithm</text>
</a>
</g>
</g>
<!-- Node21&#45;&gt;Node22 -->
<g id="edge13_Node000021_Node000022" class="edge">
<title>Node21&#45;&gt;Node22</title>
<g id="a_edge13_Node000021_Node000022"><a xlink:title=" ">
<path fill="none" stroke="#63b8ff" d="M486.08,-743.65C492.53,-745.4 498.94,-747.35 505,-749.5 521.86,-755.49 524.1,-761.62 541,-767.5 551.82,-771.26 563.64,-774.4 575.07,-776.97"/>
<polygon fill="#63b8ff" stroke="#63b8ff" points="486.51,-740.15 475.96,-741.06 484.78,-746.93 486.51,-740.15"/>
</a>
</g>
</g>
<!-- Node28 -->
<g id="Node000028" class="node">
<title>Node28</title>
<g id="a_Node000028"><a xlink:href="class_e_b_p_f_1_1_internet_checksum_algorithm.html" target="_top" xlink:title=" ">
<polygon fill="white" stroke="#bfbfbf" points="725,-759 541,-759 541,-740 725,-740 725,-759"/>
<text text-anchor="middle" x="633" y="-747" font-family="Helvetica,sans-Serif" font-size="10.00">EBPF::InternetChecksumAlgorithm</text>
</a>
</g>
</g>
<!-- Node21&#45;&gt;Node28 -->
<g id="edge17_Node000021_Node000028" class="edge">
<title>Node21&#45;&gt;Node28</title>
<g id="a_edge17_Node000021_Node000028"><a xlink:title=" ">
<path fill="none" stroke="#63b8ff" d="M515.01,-739.38C523.59,-740.12 532.28,-740.87 540.86,-741.61"/>
<polygon fill="#63b8ff" stroke="#63b8ff" points="515.28,-735.89 505.01,-738.51 514.67,-742.86 515.28,-735.89"/>
</a>
</g>
</g>
<!-- Node23 -->
<g id="Node000023" class="node">
<title>Node23</title>
<g id="a_Node000023"><a xlink:href="class_e_b_p_f_1_1_c_r_c16_checksum_algorithm.html" target="_top" xlink:title=" ">
<polygon fill="white" stroke="#666666" points="939,-833 761,-833 761,-814 939,-814 939,-833"/>
<text text-anchor="middle" x="850" y="-821" font-family="Helvetica,sans-Serif" font-size="10.00">EBPF::CRC16ChecksumAlgorithm</text>
</a>
</g>
</g>
<!-- Node22&#45;&gt;Node23 -->
<g id="edge14_Node000022_Node000023" class="edge">
<title>Node22&#45;&gt;Node23</title>
<g id="a_edge14_Node000022_Node000023"><a xlink:title=" ">
<path fill="none" stroke="#63b8ff" d="M699.34,-797.75C729.4,-802.92 764.69,-808.99 793.45,-813.94"/>
<polygon fill="#63b8ff" stroke="#63b8ff" points="699.82,-794.28 689.37,-796.03 698.63,-801.17 699.82,-794.28"/>
</a>
</g>
</g>
<!-- Node24 -->
<g id="Node000024" class="node">
<title>Node24</title>
<g id="a_Node000024"><a xlink:href="class_e_b_p_f_1_1_c_r_c32_checksum_algorithm.html" target="_top" xlink:title=" ">
<polygon fill="white" stroke="#666666" points="939,-796 761,-796 761,-777 939,-777 939,-796"/>
<text text-anchor="middle" x="850" y="-784" font-family="Helvetica,sans-Serif" font-size="10.00">EBPF::CRC32ChecksumAlgorithm</text>
</a>
</g>
</g>
<!-- Node22&#45;&gt;Node24 -->
<g id="edge15_Node000022_Node000024" class="edge">
<title>Node22&#45;&gt;Node24</title>
<g id="a_edge15_Node000022_Node000024"><a xlink:title=" ">
<path fill="none" stroke="#63b8ff" d="M726.55,-786.5C737.9,-786.5 749.48,-786.5 760.76,-786.5"/>
<polygon fill="#63b8ff" stroke="#63b8ff" points="726.2,-783 716.2,-786.5 726.2,-790 726.2,-783"/>
</a>
</g>
</g>
<!-- Node25 -->
<g id="Node000025" class="node">
<title>Node25</title>
<g id="a_Node000025"><a xlink:href="class_t_c_1_1_c_r_c_checksum_algorithm_p_n_a.html" target="_top" xlink:title=" ">
<polygon fill="white" stroke="orangered" points="937,-759 763,-759 763,-740 937,-740 937,-759"/>
<text text-anchor="middle" x="850" y="-747" font-family="Helvetica,sans-Serif" font-size="10.00">TC::CRCChecksumAlgorithmPNA</text>
</a>
</g>
</g>
<!-- Node22&#45;&gt;Node25 -->
<g id="edge16_Node000022_Node000025" class="edge">
<title>Node22&#45;&gt;Node25</title>
<g id="a_edge16_Node000022_Node000025"><a xlink:title=" ">
<path fill="none" stroke="#63b8ff" d="M699.34,-775.25C729.4,-770.08 764.69,-764.01 793.45,-759.06"/>
<polygon fill="#63b8ff" stroke="#63b8ff" points="698.63,-771.83 689.37,-776.97 699.82,-778.72 698.63,-771.83"/>
</a>
</g>
</g>
<!-- Node30 -->
<g id="Node000030" class="node">
<title>Node30</title>
<g id="a_Node000030"><a xlink:href="class_e_b_p_f_1_1_e_b_p_f_psa_parser.html" target="_top" xlink:title=" ">
<polygon fill="white" stroke="#bfbfbf" points="692.5,-722 573.5,-722 573.5,-703 692.5,-703 692.5,-722"/>
<text text-anchor="middle" x="633" y="-710" font-family="Helvetica,sans-Serif" font-size="10.00">EBPF::EBPFPsaParser</text>
</a>
</g>
</g>
<!-- Node29&#45;&gt;Node30 -->
<g id="edge19_Node000029_Node000030" class="edge">
<title>Node29&#45;&gt;Node30</title>
<g id="a_edge19_Node000029_Node000030"><a xlink:title=" ">
<path fill="none" stroke="#63b8ff" d="M483.46,-686.08C513.39,-691.4 549.39,-697.8 578.45,-702.97"/>
<polygon fill="#63b8ff" stroke="#63b8ff" points="484.02,-682.62 473.56,-684.32 482.79,-689.51 484.02,-682.62"/>
</a>
</g>
</g>
<!-- Node32 -->
<g id="Node000032" class="node">
<title>Node32</title>
<g id="a_Node000032"><a xlink:href="class_u_b_p_f_1_1_u_b_p_f_parser.html" target="_top" xlink:title=" ">
<polygon fill="white" stroke="#bfbfbf" points="685,-685 581,-685 581,-666 685,-666 685,-685"/>
<text text-anchor="middle" x="633" y="-673" font-family="Helvetica,sans-Serif" font-size="10.00">UBPF::UBPFParser</text>
</a>
</g>
</g>
<!-- Node29&#45;&gt;Node32 -->
<g id="edge21_Node000029_Node000032" class="edge">
<title>Node29&#45;&gt;Node32</title>
<g id="a_edge21_Node000029_Node000032"><a xlink:title=" ">
<path fill="none" stroke="#63b8ff" d="M483.69,-675.5C514.33,-675.5 551.29,-675.5 580.65,-675.5"/>
<polygon fill="#63b8ff" stroke="#63b8ff" points="483.56,-672 473.56,-675.5 483.56,-679 483.56,-672"/>
</a>
</g>
</g>
<!-- Node31 -->
<g id="Node000031" class="node">
<title>Node31</title>
<g id="a_Node000031"><a xlink:href="class_t_c_1_1_e_b_p_f_pna_parser.html" target="_top" xlink:title=" ">
<polygon fill="white" stroke="#bfbfbf" points="903.5,-722 796.5,-722 796.5,-703 903.5,-703 903.5,-722"/>
<text text-anchor="middle" x="850" y="-710" font-family="Helvetica,sans-Serif" font-size="10.00">TC::EBPFPnaParser</text>
</a>
</g>
</g>
<!-- Node30&#45;&gt;Node31 -->
<g id="edge20_Node000030_Node000031" class="edge">
<title>Node30&#45;&gt;Node31</title>
<g id="a_edge20_Node000030_Node000031"><a xlink:title=" ">
<path fill="none" stroke="#63b8ff" d="M702.81,-712.5C733.07,-712.5 768.05,-712.5 796.2,-712.5"/>
<polygon fill="#63b8ff" stroke="#63b8ff" points="702.75,-709 692.75,-712.5 702.75,-716 702.75,-709"/>
</a>
</g>
</g>
<!-- Node34 -->
<g id="Node000034" class="node">
<title>Node34</title>
<g id="a_Node000034"><a xlink:href="class_u_b_p_f_1_1_u_b_p_f_parser_state.html" target="_top" xlink:title=" ">
<polygon fill="white" stroke="#bfbfbf" points="698,-648 568,-648 568,-629 698,-629 698,-648"/>
<text text-anchor="middle" x="633" y="-636" font-family="Helvetica,sans-Serif" font-size="10.00">UBPF::UBPFParserState</text>
</a>
</g>
</g>
<!-- Node33&#45;&gt;Node34 -->
<g id="edge23_Node000033_Node000034" class="edge">
<title>Node33&#45;&gt;Node34</title>
<g id="a_edge23_Node000033_Node000034"><a xlink:title=" ">
<path fill="none" stroke="#63b8ff" d="M496.77,-638.5C519.85,-638.5 545.19,-638.5 567.64,-638.5"/>
<polygon fill="#63b8ff" stroke="#63b8ff" points="496.69,-635 486.69,-638.5 496.69,-642 496.69,-635"/>
</a>
</g>
</g>
<!-- Node36 -->
<g id="Node000036" class="node">
<title>Node36</title>
<g id="a_Node000036"><a xlink:href="class_e_b_p_f_1_1_e_b_p_f_pipeline.html" target="_top" xlink:title=" ">
<polygon fill="white" stroke="#bfbfbf" points="688,-611 578,-611 578,-592 688,-592 688,-611"/>
<text text-anchor="middle" x="633" y="-599" font-family="Helvetica,sans-Serif" font-size="10.00">EBPF::EBPFPipeline</text>
</a>
</g>
</g>
<!-- Node35&#45;&gt;Node36 -->
<g id="edge25_Node000035_Node000036" class="edge">
<title>Node35&#45;&gt;Node36</title>
<g id="a_edge25_Node000035_Node000036"><a xlink:title=" ">
<path fill="none" stroke="#63b8ff" d="M489.97,-601.5C518.31,-601.5 551.02,-601.5 577.9,-601.5"/>
<polygon fill="#63b8ff" stroke="#63b8ff" points="489.74,-598 479.74,-601.5 489.74,-605 489.74,-598"/>
</a>
</g>
</g>
<!-- Node45 -->
<g id="Node000045" class="node">
<title>Node45</title>
<g id="a_Node000045"><a xlink:href="class_e_b_p_f_1_1_x_d_p_help_program.html" target="_top" xlink:title=" ">
<polygon fill="white" stroke="#bfbfbf" points="698.5,-574 567.5,-574 567.5,-555 698.5,-555 698.5,-574"/>
<text text-anchor="middle" x="633" y="-562" font-family="Helvetica,sans-Serif" font-size="10.00">EBPF::XDPHelpProgram</text>
</a>
</g>
</g>
<!-- Node35&#45;&gt;Node45 -->
<g id="edge28_Node000035_Node000045" class="edge">
<title>Node35&#45;&gt;Node45</title>
<g id="a_edge28_Node000035_Node000045"><a xlink:title=" ">
<path fill="none" stroke="#63b8ff" d="M487.6,-590.19C516.6,-585.03 550.56,-578.99 578.26,-574.06"/>
<polygon fill="#63b8ff" stroke="#63b8ff" points="486.8,-586.77 477.57,-591.97 488.02,-593.67 486.8,-586.77"/>
</a>
</g>
</g>
<!-- Node46 -->
<g id="Node000046" class="node">
<title>Node46</title>
<g id="a_Node000046"><a xlink:href="class_u_b_p_f_1_1_u_b_p_f_program.html" target="_top" xlink:title=" ">
<polygon fill="white" stroke="#bfbfbf" points="691,-537 575,-537 575,-518 691,-518 691,-537"/>
<text text-anchor="middle" x="633" y="-525" font-family="Helvetica,sans-Serif" font-size="10.00">UBPF::UBPFProgram</text>
</a>
</g>
</g>
<!-- Node35&#45;&gt;Node46 -->
<g id="edge29_Node000035_Node000046" class="edge">
<title>Node35&#45;&gt;Node46</title>
<g id="a_edge29_Node000035_Node000046"><a xlink:title=" ">
<path fill="none" stroke="#63b8ff" d="M489.47,-589.63C494.88,-587.61 500.13,-585.26 505,-582.5 524.97,-571.2 520.83,-556.44 541,-545.5 551.33,-539.89 563.17,-536.02 574.82,-533.35"/>
<polygon fill="#63b8ff" stroke="#63b8ff" points="488.01,-586.43 479.62,-592.9 490.21,-593.07 488.01,-586.43"/>
</a>
</g>
</g>
<!-- Node37 -->
<g id="Node000037" class="node">
<title>Node37</title>
<g id="a_Node000037"><a xlink:href="class_e_b_p_f_1_1_e_b_p_f_egress_pipeline.html" target="_top" xlink:title=" ">
<polygon fill="white" stroke="orangered" points="921.5,-630 778.5,-630 778.5,-611 921.5,-611 921.5,-630"/>
<text text-anchor="middle" x="850" y="-618" font-family="Helvetica,sans-Serif" font-size="10.00">EBPF::EBPFEgressPipeline</text>
</a>
</g>
</g>
<!-- Node36&#45;&gt;Node37 -->
<g id="edge26_Node000036_Node000037" class="edge">
<title>Node36&#45;&gt;Node37</title>
<g id="a_edge26_Node000036_Node000037"><a xlink:title=" ">
<path fill="none" stroke="#63b8ff" d="M698.45,-607.2C723.68,-609.43 752.7,-611.99 778.49,-614.27"/>
<polygon fill="#63b8ff" stroke="#63b8ff" points="698.52,-603.69 688.25,-606.29 697.91,-610.66 698.52,-603.69"/>
</a>
</g>
</g>
<!-- Node40 -->
<g id="Node000040" class="node">
<title>Node40</title>
<g id="a_Node000040"><a xlink:href="class_e_b_p_f_1_1_e_b_p_f_ingress_pipeline.html" target="_top" xlink:title=" ">
<polygon fill="white" stroke="orangered" points="923,-593 777,-593 777,-574 923,-574 923,-593"/>
<text text-anchor="middle" x="850" y="-581" font-family="Helvetica,sans-Serif" font-size="10.00">EBPF::EBPFIngressPipeline</text>
</a>
</g>
</g>
<!-- Node36&#45;&gt;Node40 -->
<g id="edge27_Node000036_Node000040" class="edge">
<title>Node36&#45;&gt;Node40</title>
<g id="a_edge27_Node000036_Node000040"><a xlink:title=" ">
<path fill="none" stroke="#63b8ff" d="M698.26,-596.12C723.01,-594.05 751.44,-591.67 776.88,-589.54"/>
<polygon fill="#63b8ff" stroke="#63b8ff" points="697.93,-592.64 688.25,-596.96 698.51,-599.61 697.93,-592.64"/>
</a>
</g>
</g>
<!-- Node49 -->
<g id="Node000049" class="node">
<title>Node49</title>
<g id="a_Node000049"><a xlink:href="class_e_b_p_f_1_1_e_b_p_f_counter_table.html" target="_top" xlink:title=" ">
<polygon fill="white" stroke="orangered" points="700.5,-500 565.5,-500 565.5,-481 700.5,-481 700.5,-500"/>
<text text-anchor="middle" x="633" y="-488" font-family="Helvetica,sans-Serif" font-size="10.00">EBPF::EBPFCounterTable</text>
</a>
</g>
</g>
<!-- Node48&#45;&gt;Node49 -->
<g id="edge32_Node000048_Node000049" class="edge">
<title>Node48&#45;&gt;Node49</title>
<g id="a_edge32_Node000048_Node000049"><a xlink:title=" ">
<path fill="none" stroke="#63b8ff" d="M462.25,-448.25C484.99,-455.58 514.47,-464.66 541,-471.5 554.28,-474.92 568.78,-478.17 582.22,-480.97"/>
<polygon fill="#63b8ff" stroke="#63b8ff" points="463.23,-444.89 452.64,-445.13 461.07,-451.55 463.23,-444.89"/>
</a>
</g>
</g>
<!-- Node51 -->
<g id="Node000051" class="node">
<title>Node51</title>
<g id="a_Node000051"><a xlink:href="class_e_b_p_f_1_1_e_b_p_f_meter_p_s_a.html" target="_top" xlink:title=" ">
<polygon fill="white" stroke="#bfbfbf" points="692.5,-463 573.5,-463 573.5,-444 692.5,-444 692.5,-463"/>
<text text-anchor="middle" x="633" y="-451" font-family="Helvetica,sans-Serif" font-size="10.00">EBPF::EBPFMeterPSA</text>
</a>
</g>
</g>
<!-- Node48&#45;&gt;Node51 -->
<g id="edge33_Node000048_Node000051" class="edge">
<title>Node48&#45;&gt;Node51</title>
<g id="a_edge33_Node000048_Node000051"><a xlink:title=" ">
<path fill="none" stroke="#63b8ff" d="M493.18,-441.49C519.09,-443.73 548.27,-446.25 573.16,-448.41"/>
<polygon fill="#63b8ff" stroke="#63b8ff" points="493.31,-437.99 483.05,-440.61 492.71,-444.96 493.31,-437.99"/>
</a>
</g>
</g>
<!-- Node52 -->
<g id="Node000052" class="node">
<title>Node52</title>
<g id="a_Node000052"><a xlink:href="class_e_b_p_f_1_1_e_b_p_f_register_p_s_a.html" target="_top" xlink:title=" ">
<polygon fill="white" stroke="#bfbfbf" points="698.5,-426 567.5,-426 567.5,-407 698.5,-407 698.5,-426"/>
<text text-anchor="middle" x="633" y="-414" font-family="Helvetica,sans-Serif" font-size="10.00">EBPF::EBPFRegisterPSA</text>
</a>
</g>
</g>
<!-- Node48&#45;&gt;Node52 -->
<g id="edge34_Node000048_Node000052" class="edge">
<title>Node48&#45;&gt;Node52</title>
<g id="a_edge34_Node000048_Node000052"><a xlink:title=" ">
<path fill="none" stroke="#63b8ff" d="M493.12,-429.19C517.05,-427 543.77,-424.56 567.33,-422.41"/>
<polygon fill="#63b8ff" stroke="#63b8ff" points="492.69,-425.71 483.05,-430.11 493.33,-432.68 492.69,-425.71"/>
</a>
</g>
</g>
<!-- Node53 -->
<g id="Node000053" class="node">
<title>Node53</title>
<g id="a_Node000053"><a xlink:href="class_e_b_p_f_1_1_e_b_p_f_table.html" target="_top" xlink:title=" ">
<polygon fill="white" stroke="orangered" points="681,-389 585,-389 585,-370 681,-370 681,-389"/>
<text text-anchor="middle" x="633" y="-377" font-family="Helvetica,sans-Serif" font-size="10.00">EBPF::EBPFTable</text>
</a>
</g>
</g>
<!-- Node48&#45;&gt;Node53 -->
<g id="edge35_Node000048_Node000053" class="edge">
<title>Node48&#45;&gt;Node53</title>
<g id="a_edge35_Node000048_Node000053"><a xlink:title=" ">
<path fill="none" stroke="#63b8ff" d="M459.89,-422.62C482.88,-414.67 513.45,-404.67 541,-397.5 555.18,-393.81 570.78,-390.47 585,-387.69"/>
<polygon fill="#63b8ff" stroke="#63b8ff" points="458.51,-419.39 450.22,-425.99 460.82,-426 458.51,-419.39"/>
</a>
</g>
</g>
<!-- Node59 -->
<g id="Node000059" class="node">
<title>Node59</title>
<g id="a_Node000059"><a xlink:href="class_e_b_p_f_1_1_e_b_p_f_value_set.html" target="_top" xlink:title=" ">
<polygon fill="white" stroke="#bfbfbf" points="690,-352 576,-352 576,-333 690,-333 690,-352"/>
<text text-anchor="middle" x="633" y="-340" font-family="Helvetica,sans-Serif" font-size="10.00">EBPF::EBPFValueSet</text>
</a>
</g>
</g>
<!-- Node48&#45;&gt;Node59 -->
<g id="edge36_Node000048_Node000059" class="edge">
<title>Node48&#45;&gt;Node59</title>
<g id="a_edge36_Node000048_Node000059"><a xlink:title=" ">
<path fill="none" stroke="#63b8ff" d="M443.81,-419.47C466.1,-402.25 504.05,-375.37 541,-360.5 551.91,-356.11 563.99,-352.76 575.7,-350.21"/>
<polygon fill="#63b8ff" stroke="#63b8ff" points="441.5,-416.83 435.8,-425.76 445.82,-422.34 441.5,-416.83"/>
</a>
</g>
</g>
<!-- Node61 -->
<g id="Node000061" class="node">
<title>Node61</title>
<g id="a_Node000061"><a xlink:href="class_e_b_p_f_1_1_e_b_p_f_bool_type.html" target="_top" xlink:title=" ">
<polygon fill="white" stroke="orangered" points="691,-315 575,-315 575,-296 691,-296 691,-315"/>
<text text-anchor="middle" x="633" y="-303" font-family="Helvetica,sans-Serif" font-size="10.00">EBPF::EBPFBoolType</text>
</a>
</g>
</g>
<!-- Node60&#45;&gt;Node61 -->
<g id="edge38_Node000060_Node000061" class="edge">
<title>Node60&#45;&gt;Node61</title>
<g id="a_edge38_Node000060_Node000061"><a xlink:title=" ">
<path fill="none" stroke="#63b8ff" d="M449.79,-245.78C473.03,-258.11 508.45,-275.62 541,-286.5 552.17,-290.24 564.37,-293.39 576.11,-295.98"/>
<polygon fill="#63b8ff" stroke="#63b8ff" points="451.39,-242.66 440.92,-241 448.07,-248.82 451.39,-242.66"/>
</a>
</g>
</g>
<!-- Node63 -->
<g id="Node000063" class="node">
<title>Node63</title>
<g id="a_Node000063"><a xlink:href="class_e_b_p_f_1_1_e_b_p_f_enum_type.html" target="_top" xlink:title=" ">
<polygon fill="white" stroke="orangered" points="694,-278 572,-278 572,-259 694,-259 694,-278"/>
<text text-anchor="middle" x="633" y="-266" font-family="Helvetica,sans-Serif" font-size="10.00">EBPF::EBPFEnumType</text>
</a>
</g>
</g>
<!-- Node60&#45;&gt;Node63 -->
<g id="edge39_Node000060_Node000063" class="edge">
<title>Node60&#45;&gt;Node63</title>
<g id="a_edge39_Node000060_Node000063"><a xlink:title=" ">
<path fill="none" stroke="#63b8ff" d="M479.73,-241.41C510.33,-246.86 548.1,-253.58 578.36,-258.96"/>
<polygon fill="#63b8ff" stroke="#63b8ff" points="480.1,-237.93 469.65,-239.62 478.88,-244.82 480.1,-237.93"/>
</a>
</g>
</g>
<!-- Node65 -->
<g id="Node000065" class="node">
<title>Node65</title>
<g id="a_Node000065"><a xlink:href="class_e_b_p_f_1_1_e_b_p_f_scalar_type.html" target="_top" xlink:title=" ">
<polygon fill="white" stroke="orangered" points="694.5,-241 571.5,-241 571.5,-222 694.5,-222 694.5,-241"/>
<text text-anchor="middle" x="633" y="-229" font-family="Helvetica,sans-Serif" font-size="10.00">EBPF::EBPFScalarType</text>
</a>
</g>
</g>
<!-- Node60&#45;&gt;Node65 -->
<g id="edge40_Node000060_Node000065" class="edge">
<title>Node60&#45;&gt;Node65</title>
<g id="a_edge40_Node000060_Node000065"><a xlink:title=" ">
<path fill="none" stroke="#63b8ff" d="M479.78,-231.5C508.08,-231.5 542.51,-231.5 571.46,-231.5"/>
<polygon fill="#63b8ff" stroke="#63b8ff" points="479.65,-228 469.65,-231.5 479.65,-235 479.65,-228"/>
</a>
</g>
</g>
<!-- Node67 -->
<g id="Node000067" class="node">
<title>Node67</title>
<g id="a_Node000067"><a xlink:href="class_e_b_p_f_1_1_e_b_p_f_stack_type.html" target="_top" xlink:title=" ">
<polygon fill="white" stroke="#bfbfbf" points="693,-204 573,-204 573,-185 693,-185 693,-204"/>
<text text-anchor="middle" x="633" y="-192" font-family="Helvetica,sans-Serif" font-size="10.00">EBPF::EBPFStackType</text>
</a>
</g>
</g>
<!-- Node60&#45;&gt;Node67 -->
<g id="edge41_Node000060_Node000067" class="edge">
<title>Node60&#45;&gt;Node67</title>
<g id="a_edge41_Node000060_Node000067"><a xlink:title=" ">
<path fill="none" stroke="#63b8ff" d="M479.73,-221.59C510.33,-216.14 548.1,-209.42 578.36,-204.04"/>
<polygon fill="#63b8ff" stroke="#63b8ff" points="478.88,-218.18 469.65,-223.38 480.1,-225.07 478.88,-218.18"/>
</a>
</g>
</g>
<!-- Node68 -->
<g id="Node000068" class="node">
<title>Node68</title>
<g id="a_Node000068"><a xlink:href="class_e_b_p_f_1_1_e_b_p_f_struct_type.html" target="_top" xlink:title=" ">
<polygon fill="white" stroke="orangered" points="694,-167 572,-167 572,-148 694,-148 694,-167"/>
<text text-anchor="middle" x="633" y="-155" font-family="Helvetica,sans-Serif" font-size="10.00">EBPF::EBPFStructType</text>
</a>
</g>
</g>
<!-- Node60&#45;&gt;Node68 -->
<g id="edge42_Node000060_Node000068" class="edge">
<title>Node60&#45;&gt;Node68</title>
<g id="a_edge42_Node000060_Node000068"><a xlink:title=" ">
<path fill="none" stroke="#63b8ff" d="M479.72,-222.87C488.5,-220.27 497.24,-216.89 505,-212.5 524.97,-201.2 520.83,-186.44 541,-175.5 550.48,-170.35 561.24,-166.67 571.94,-164.03"/>
<polygon fill="#63b8ff" stroke="#63b8ff" points="478.61,-219.54 469.84,-225.48 480.4,-226.31 478.61,-219.54"/>
</a>
</g>
</g>
<!-- Node70 -->
<g id="Node000070" class="node">
<title>Node70</title>
<g id="a_Node000070"><a xlink:href="class_e_b_p_f_1_1_e_b_p_f_type_name.html" target="_top" xlink:title=" ">
<polygon fill="white" stroke="#bfbfbf" points="694,-130 572,-130 572,-111 694,-111 694,-130"/>
<text text-anchor="middle" x="633" y="-118" font-family="Helvetica,sans-Serif" font-size="10.00">EBPF::EBPFTypeName</text>
</a>
</g>
</g>
<!-- Node60&#45;&gt;Node70 -->
<g id="edge43_Node000060_Node000070" class="edge">
<title>Node60&#45;&gt;Node70</title>
<g id="a_edge43_Node000060_Node000070"><a xlink:title=" ">
<path fill="none" stroke="#63b8ff" d="M479.29,-225.48C488.55,-222.6 497.55,-218.46 505,-212.5 533.57,-189.67 512.03,-160.83 541,-138.5 549.93,-131.62 560.78,-127.15 571.83,-124.3"/>
<polygon fill="#63b8ff" stroke="#63b8ff" points="478.39,-222.1 469.62,-228.04 480.18,-228.87 478.39,-222.1"/>
</a>
</g>
</g>
<!-- Node71 -->
<g id="Node000071" class="node">
<title>Node71</title>
<g id="a_Node000071"><a xlink:href="class_u_b_p_f_1_1_u_b_p_f_list_type.html" target="_top" xlink:title=" ">
<polygon fill="white" stroke="#bfbfbf" points="690,-93 576,-93 576,-74 690,-74 690,-93"/>
<text text-anchor="middle" x="633" y="-81" font-family="Helvetica,sans-Serif" font-size="10.00">UBPF::UBPFListType</text>
</a>
</g>
</g>
<!-- Node60&#45;&gt;Node71 -->
<g id="edge44_Node000060_Node000071" class="edge">
<title>Node60&#45;&gt;Node71</title>
<g id="a_edge44_Node000060_Node000071"><a xlink:title=" ">
<path fill="none" stroke="#63b8ff" d="M479.39,-226.51C488.79,-223.55 497.82,-219.11 505,-212.5 543.17,-177.38 502.22,-135.94 541,-101.5 550.63,-92.94 563.13,-87.98 575.77,-85.19"/>
<polygon fill="#63b8ff" stroke="#63b8ff" points="478.31,-223.17 469.52,-229.09 480.08,-229.95 478.31,-223.17"/>
</a>
</g>
</g>
<!-- Node74 -->
<g id="Node000074" class="node">
<title>Node74</title>
<g id="a_Node000074"><a xlink:href="class_u_b_p_f_1_1_u_b_p_f_register.html" target="_top" xlink:title=" ">
<polygon fill="white" stroke="#bfbfbf" points="690.5,-56 575.5,-56 575.5,-37 690.5,-37 690.5,-56"/>
<text text-anchor="middle" x="633" y="-44" font-family="Helvetica,sans-Serif" font-size="10.00">UBPF::UBPFRegister</text>
</a>
</g>
</g>
<!-- Node73&#45;&gt;Node74 -->
<g id="edge47_Node000073_Node000074" class="edge">
<title>Node73&#45;&gt;Node74</title>
<g id="a_edge47_Node000073_Node000074"><a xlink:title=" ">
<path fill="none" stroke="#63b8ff" d="M495,-46.5C521.27,-46.5 550.67,-46.5 575.48,-46.5"/>
<polygon fill="#63b8ff" stroke="#63b8ff" points="494.72,-43 484.72,-46.5 494.72,-50 494.72,-43"/>
</a>
</g>
</g>
<!-- Node75 -->
<g id="Node000075" class="node">
<title>Node75</title>
<g id="a_Node000075"><a xlink:href="class_u_b_p_f_1_1_u_b_p_f_table.html" target="_top" xlink:title=" ">
<polygon fill="white" stroke="#bfbfbf" points="682.5,-19 583.5,-19 583.5,0 682.5,0 682.5,-19"/>
<text text-anchor="middle" x="633" y="-7" font-family="Helvetica,sans-Serif" font-size="10.00">UBPF::UBPFTable</text>
</a>
</g>
</g>
<!-- Node73&#45;&gt;Node75 -->
<g id="edge48_Node000073_Node000075" class="edge">
<title>Node73&#45;&gt;Node75</title>
<g id="a_edge48_Node000073_Node000075"><a xlink:title=" ">
<path fill="none" stroke="#63b8ff" d="M487.76,-35.16C518.49,-29.69 554.76,-23.24 583.24,-18.17"/>
<polygon fill="#63b8ff" stroke="#63b8ff" points="486.8,-31.77 477.57,-36.97 488.02,-38.67 486.8,-31.77"/>
</a>
</g>
</g>
</g>
</svg>
