<?xml version="1.0" encoding="UTF-8" standalone="no"?>
<!DOCTYPE svg PUBLIC "-//W3C//DTD SVG 1.1//EN"
 "http://www.w3.org/Graphics/SVG/1.1/DTD/svg11.dtd">
<!-- Generated by graphviz version 2.43.0 (0)
 -->
<!-- Title: P4::InstanceBase Pages: 1 -->
<svg width="791pt" height="264pt"
 viewBox="0.00 0.00 791.00 263.50" xmlns="http://www.w3.org/2000/svg" xmlns:xlink="http://www.w3.org/1999/xlink">
<g id="graph0" class="graph" transform="scale(1 1) rotate(0) translate(4 259.5)">
<title>P4::InstanceBase</title>
<polygon fill="white" stroke="transparent" points="-4,4 -4,-259.5 787,-259.5 787,4 -4,4"/>
<!-- Node1 -->
<g id="node1" class="node">
<title>Node1</title>
<g id="a_node1"><a xlink:title=" ">
<polygon fill="#bfbfbf" stroke="black" points="683,-192 683,-211 783,-211 783,-192 683,-192"/>
<text text-anchor="middle" x="733" y="-199" font-family="Helvetica,sans-Serif" font-size="10.00">P4::InstanceBase</text>
</a>
</g>
</g>
<!-- Node2 -->
<g id="node2" class="node">
<title>Node2</title>
<g id="a_node2"><a xlink:href="class_i_castable.html" target="_top" xlink:title=" ">
<polygon fill="white" stroke="black" points="454.5,-233 454.5,-252 516.5,-252 516.5,-233 454.5,-233"/>
<text text-anchor="middle" x="485.5" y="-240" font-family="Helvetica,sans-Serif" font-size="10.00">ICastable</text>
</a>
</g>
</g>
<!-- Node2&#45;&gt;Node1 -->
<g id="edge1" class="edge">
<title>Node2&#45;&gt;Node1</title>
<path fill="none" stroke="midnightblue" d="M526.8,-237.52C563.07,-232.82 617.77,-225.21 665,-216.5 673.67,-214.9 682.93,-212.97 691.71,-211.04"/>
<polygon fill="midnightblue" stroke="midnightblue" points="526.09,-234.08 516.62,-238.82 526.98,-241.02 526.09,-234.08"/>
</g>
<!-- Node3 -->
<g id="node3" class="node">
<title>Node3</title>
<g id="a_node3"><a xlink:href="struct_r_t_t_i_1_1_base.html" target="_top" xlink:title=" ">
<polygon fill="white" stroke="black" points="169,-236 169,-255 237,-255 237,-236 169,-236"/>
<text text-anchor="middle" x="203" y="-243" font-family="Helvetica,sans-Serif" font-size="10.00">RTTI::Base</text>
</a>
</g>
</g>
<!-- Node3&#45;&gt;Node2 -->
<g id="edge2" class="edge">
<title>Node3&#45;&gt;Node2</title>
<path fill="none" stroke="midnightblue" d="M247.19,-245.04C304.5,-244.43 404.24,-243.36 454.19,-242.82"/>
<polygon fill="midnightblue" stroke="midnightblue" points="246.96,-241.54 237,-245.15 247.04,-248.54 246.96,-241.54"/>
</g>
<!-- Node4 -->
<g id="node4" class="node">
<title>Node4</title>
<g id="a_node4"><a xlink:href="class_p4_1_1_parameter_substitution.html" target="_top" xlink:title=" ">
<polygon fill="white" stroke="black" points="414,-104 414,-123 557,-123 557,-104 414,-104"/>
<text text-anchor="middle" x="485.5" y="-111" font-family="Helvetica,sans-Serif" font-size="10.00">P4::ParameterSubstitution</text>
</a>
</g>
</g>
<!-- Node4&#45;&gt;Node1 -->
<g id="edge3" class="edge">
<title>Node4&#45;&gt;Node1</title>
<path fill="none" stroke="#9a32cd" stroke-dasharray="5,2" d="M522.66,-126.46C572.47,-144.32 661.04,-176.07 705.29,-191.93"/>
<polygon fill="#9a32cd" stroke="#9a32cd" points="523.83,-123.16 513.24,-123.09 521.47,-129.75 523.83,-123.16"/>
<text text-anchor="middle" x="623" y="-177.5" font-family="Helvetica,sans-Serif" font-size="10.00"> substitution</text>
</g>
<!-- Node5 -->
<g id="node5" class="node">
<title>Node5</title>
<g id="a_node5"><a xlink:href="class_i_has_db_print.html" target="_top" xlink:title=" ">
<polygon fill="white" stroke="black" points="0,-157 0,-176 74,-176 74,-157 0,-157"/>
<text text-anchor="middle" x="37" y="-164" font-family="Helvetica,sans-Serif" font-size="10.00">IHasDbPrint</text>
</a>
</g>
</g>
<!-- Node5&#45;&gt;Node4 -->
<g id="edge4" class="edge">
<title>Node5&#45;&gt;Node4</title>
<path fill="none" stroke="midnightblue" d="M84.32,-162.24C151.72,-155.88 280.69,-143.07 390,-128.5 402.18,-126.88 415.22,-124.94 427.6,-123"/>
<polygon fill="midnightblue" stroke="midnightblue" points="83.68,-158.79 74.05,-163.21 84.33,-165.76 83.68,-158.79"/>
</g>
<!-- Node11 -->
<g id="node11" class="node">
<title>Node11</title>
<g id="a_node11"><a xlink:href="class_p4_1_1_type_substitution.html" target="_top" xlink:title=" ">
<polygon fill="white" stroke="black" points="136,-186.5 136,-216.5 270,-216.5 270,-186.5 136,-186.5"/>
<text text-anchor="start" x="144" y="-204.5" font-family="Helvetica,sans-Serif" font-size="10.00">P4::TypeSubstitution</text>
<text text-anchor="middle" x="203" y="-193.5" font-family="Helvetica,sans-Serif" font-size="10.00">&lt; const IR::ITypeVar * &gt;</text>
</a>
</g>
</g>
<!-- Node5&#45;&gt;Node11 -->
<g id="edge13" class="edge">
<title>Node5&#45;&gt;Node11</title>
<path fill="none" stroke="midnightblue" d="M84.5,-176.42C100.4,-179.82 118.51,-183.68 135.68,-187.35"/>
<polygon fill="midnightblue" stroke="midnightblue" points="84.91,-172.93 74.4,-174.27 83.45,-179.78 84.91,-172.93"/>
</g>
<!-- Node6 -->
<g id="node6" class="node">
<title>Node6</title>
<g id="a_node6"><a xlink:title=" ">
<polygon fill="white" stroke="#bfbfbf" points="136,-0.5 136,-30.5 270,-30.5 270,-0.5 136,-0.5"/>
<text text-anchor="start" x="144" y="-18.5" font-family="Helvetica,sans-Serif" font-size="10.00">std::map&lt; cstring,</text>
<text text-anchor="middle" x="203" y="-7.5" font-family="Helvetica,sans-Serif" font-size="10.00"> const IR::Parameter * &gt;</text>
</a>
</g>
</g>
<!-- Node6&#45;&gt;Node4 -->
<g id="edge5" class="edge">
<title>Node6&#45;&gt;Node4</title>
<path fill="none" stroke="#9a32cd" stroke-dasharray="5,2" d="M280.03,-31.51C314.2,-39.73 354.69,-50.89 390,-64.5 418.8,-75.6 450.24,-93.07 468.62,-103.88"/>
<polygon fill="#9a32cd" stroke="#9a32cd" points="280.64,-28.06 270.11,-29.17 279.03,-34.87 280.64,-28.06"/>
<text text-anchor="middle" x="339" y="-67.5" font-family="Helvetica,sans-Serif" font-size="10.00"> parametersByName</text>
</g>
<!-- Node7 -->
<g id="node7" class="node">
<title>Node7</title>
<g id="a_node7"><a xlink:href="classcstring.html" target="_top" xlink:title=" ">
<polygon fill="white" stroke="black" points="12,-73 12,-92 62,-92 62,-73 12,-73"/>
<text text-anchor="middle" x="37" y="-80" font-family="Helvetica,sans-Serif" font-size="10.00">cstring</text>
</a>
</g>
</g>
<!-- Node7&#45;&gt;Node6 -->
<g id="edge6" class="edge">
<title>Node7&#45;&gt;Node6</title>
<path fill="none" stroke="#9a32cd" stroke-dasharray="5,2" d="M68.87,-68.87C88.09,-60.48 113.39,-49.62 136,-40.5 144.18,-37.2 152.98,-33.78 161.4,-30.56"/>
<polygon fill="#9a32cd" stroke="#9a32cd" points="67.44,-65.67 59.69,-72.89 70.25,-72.09 67.44,-65.67"/>
<text text-anchor="middle" x="105" y="-61.5" font-family="Helvetica,sans-Serif" font-size="10.00"> keys</text>
</g>
<!-- Node7&#45;&gt;Node7 -->
<g id="edge7" class="edge">
<title>Node7&#45;&gt;Node7</title>
<path fill="none" stroke="#9a32cd" stroke-dasharray="5,2" d="M24.48,-102.27C25.46,-107 29.64,-110.5 37,-110.5 49.09,-110.5 52.58,-101.07 47.48,-92.26"/>
<polygon fill="#9a32cd" stroke="#9a32cd" points="27.95,-102.75 26.52,-92.26 21.09,-101.36 27.95,-102.75"/>
<text text-anchor="middle" x="37" y="-124.5" font-family="Helvetica,sans-Serif" font-size="10.00"> empty</text>
<text text-anchor="middle" x="37" y="-113.5" font-family="Helvetica,sans-Serif" font-size="10.00">newline</text>
</g>
<!-- Node8 -->
<g id="node8" class="node">
<title>Node8</title>
<g id="a_node8"><a xlink:title=" ">
<polygon fill="white" stroke="#bfbfbf" points="137,-98.5 137,-128.5 269,-128.5 269,-98.5 137,-98.5"/>
<text text-anchor="start" x="145" y="-116.5" font-family="Helvetica,sans-Serif" font-size="10.00">std::map&lt; cstring,</text>
<text text-anchor="middle" x="203" y="-105.5" font-family="Helvetica,sans-Serif" font-size="10.00"> const IR::Argument * &gt;</text>
</a>
</g>
</g>
<!-- Node7&#45;&gt;Node8 -->
<g id="edge9" class="edge">
<title>Node7&#45;&gt;Node8</title>
<path fill="none" stroke="#9a32cd" stroke-dasharray="5,2" d="M72.05,-88.94C90.81,-92.48 114.74,-97.01 136.94,-101.2"/>
<polygon fill="#9a32cd" stroke="#9a32cd" points="72.67,-85.49 62.2,-87.07 71.37,-92.37 72.67,-85.49"/>
<text text-anchor="middle" x="105" y="-99.5" font-family="Helvetica,sans-Serif" font-size="10.00"> keys</text>
</g>
<!-- Node8&#45;&gt;Node4 -->
<g id="edge8" class="edge">
<title>Node8&#45;&gt;Node4</title>
<path fill="none" stroke="#9a32cd" stroke-dasharray="5,2" d="M279.19,-113.5C321.04,-113.5 372.81,-113.5 413.9,-113.5"/>
<polygon fill="#9a32cd" stroke="#9a32cd" points="279.06,-110 269.06,-113.5 279.06,-117 279.06,-110"/>
<text text-anchor="middle" x="339" y="-116.5" font-family="Helvetica,sans-Serif" font-size="10.00"> parameterValues</text>
</g>
<!-- Node9 -->
<g id="node9" class="node">
<title>Node9</title>
<g id="a_node9"><a xlink:title=" ">
<polygon fill="white" stroke="#bfbfbf" points="150,-49.5 150,-79.5 256,-79.5 256,-49.5 150,-49.5"/>
<text text-anchor="start" x="158" y="-67.5" font-family="Helvetica,sans-Serif" font-size="10.00">std::vector&lt; const</text>
<text text-anchor="middle" x="203" y="-56.5" font-family="Helvetica,sans-Serif" font-size="10.00"> IR::Parameter * &gt;</text>
</a>
</g>
</g>
<!-- Node9&#45;&gt;Node4 -->
<g id="edge10" class="edge">
<title>Node9&#45;&gt;Node4</title>
<path fill="none" stroke="#9a32cd" stroke-dasharray="5,2" d="M265.95,-75.32C314.97,-83.89 382.77,-95.73 429.8,-103.95"/>
<polygon fill="#9a32cd" stroke="#9a32cd" points="266.56,-71.87 256.1,-73.6 265.35,-78.77 266.56,-71.87"/>
<text text-anchor="middle" x="339" y="-98.5" font-family="Helvetica,sans-Serif" font-size="10.00"> parameters</text>
</g>
<!-- Node10 -->
<g id="node10" class="node">
<title>Node10</title>
<g id="a_node10"><a xlink:href="class_p4_1_1_type_variable_substitution.html" target="_top" xlink:title=" ">
<polygon fill="white" stroke="black" points="408,-192 408,-211 563,-211 563,-192 408,-192"/>
<text text-anchor="middle" x="485.5" y="-199" font-family="Helvetica,sans-Serif" font-size="10.00">P4::TypeVariableSubstitution</text>
</a>
</g>
</g>
<!-- Node10&#45;&gt;Node1 -->
<g id="edge11" class="edge">
<title>Node10&#45;&gt;Node1</title>
<path fill="none" stroke="#9a32cd" stroke-dasharray="5,2" d="M573.4,-201.5C610.17,-201.5 651.64,-201.5 682.95,-201.5"/>
<polygon fill="#9a32cd" stroke="#9a32cd" points="573.17,-198 563.17,-201.5 573.17,-205 573.17,-198"/>
<text text-anchor="middle" x="623" y="-204.5" font-family="Helvetica,sans-Serif" font-size="10.00"> typeSubstitution</text>
</g>
<!-- Node11&#45;&gt;Node10 -->
<g id="edge12" class="edge">
<title>Node11&#45;&gt;Node10</title>
<path fill="none" stroke="midnightblue" d="M280.26,-201.5C319.9,-201.5 368.21,-201.5 407.9,-201.5"/>
<polygon fill="midnightblue" stroke="midnightblue" points="280.12,-198 270.12,-201.5 280.12,-205 280.12,-198"/>
</g>
</g>
</svg>
