<?xml version="1.0" encoding="UTF-8" standalone="no"?>
<!DOCTYPE svg PUBLIC "-//W3C//DTD SVG 1.1//EN"
 "http://www.w3.org/Graphics/SVG/1.1/DTD/svg11.dtd">
<!-- Generated by graphviz version 2.43.0 (0)
 -->
<!-- Title: P4Tools::TraceEvents::Generic Pages: 1 -->
<svg width="247pt" height="222pt"
 viewBox="0.00 0.00 246.50 222.00" xmlns="http://www.w3.org/2000/svg" xmlns:xlink="http://www.w3.org/1999/xlink">
<g id="graph0" class="graph" transform="scale(1 1) rotate(0) translate(4 218)">
<title>P4Tools::TraceEvents::Generic</title>
<polygon fill="white" stroke="transparent" points="-4,4 -4,-218 242.5,-218 242.5,4 -4,4"/>
<!-- Node1 -->
<g id="node1" class="node">
<title>Node1</title>
<g id="a_node1"><a xlink:title="A generic event that only takes in a string as label.">
<polygon fill="#bfbfbf" stroke="black" points="46.5,-0.5 46.5,-30.5 164.5,-30.5 164.5,-0.5 46.5,-0.5"/>
<text text-anchor="start" x="54.5" y="-18.5" font-family="Helvetica,sans-Serif" font-size="10.00">P4Tools::TraceEvents</text>
<text text-anchor="middle" x="105.5" y="-7.5" font-family="Helvetica,sans-Serif" font-size="10.00">::Generic</text>
</a>
</g>
</g>
<!-- Node2 -->
<g id="node2" class="node">
<title>Node2</title>
<g id="a_node2"><a xlink:href="class_p4_tools_1_1_trace_event.html" target="_top" xlink:title="An event in a trace of the execution of a P4 program.">
<polygon fill="white" stroke="black" points="0,-79.5 0,-98.5 113,-98.5 113,-79.5 0,-79.5"/>
<text text-anchor="middle" x="56.5" y="-86.5" font-family="Helvetica,sans-Serif" font-size="10.00">P4Tools::TraceEvent</text>
</a>
</g>
</g>
<!-- Node2&#45;&gt;Node1 -->
<g id="edge1" class="edge">
<title>Node2&#45;&gt;Node1</title>
<path fill="none" stroke="midnightblue" d="M68.33,-70.74C76.78,-58.41 88,-42.03 95.9,-30.51"/>
<polygon fill="midnightblue" stroke="midnightblue" points="65.27,-69.01 62.51,-79.23 71.05,-72.96 65.27,-69.01"/>
</g>
<!-- Node3 -->
<g id="node3" class="node">
<title>Node3</title>
<g id="a_node3"><a xlink:href="class_i_castable.html" target="_top" xlink:title=" ">
<polygon fill="white" stroke="black" points="25.5,-137.5 25.5,-156.5 87.5,-156.5 87.5,-137.5 25.5,-137.5"/>
<text text-anchor="middle" x="56.5" y="-144.5" font-family="Helvetica,sans-Serif" font-size="10.00">ICastable</text>
</a>
</g>
</g>
<!-- Node3&#45;&gt;Node2 -->
<g id="edge2" class="edge">
<title>Node3&#45;&gt;Node2</title>
<path fill="none" stroke="midnightblue" d="M56.5,-126.95C56.5,-117.29 56.5,-106.03 56.5,-98.51"/>
<polygon fill="midnightblue" stroke="midnightblue" points="53,-127.25 56.5,-137.25 60,-127.25 53,-127.25"/>
</g>
<!-- Node4 -->
<g id="node4" class="node">
<title>Node4</title>
<g id="a_node4"><a xlink:href="struct_r_t_t_i_1_1_base.html" target="_top" xlink:title=" ">
<polygon fill="white" stroke="black" points="22.5,-194.5 22.5,-213.5 90.5,-213.5 90.5,-194.5 22.5,-194.5"/>
<text text-anchor="middle" x="56.5" y="-201.5" font-family="Helvetica,sans-Serif" font-size="10.00">RTTI::Base</text>
</a>
</g>
</g>
<!-- Node4&#45;&gt;Node3 -->
<g id="edge3" class="edge">
<title>Node4&#45;&gt;Node3</title>
<path fill="none" stroke="midnightblue" d="M56.5,-184.12C56.5,-174.82 56.5,-164.06 56.5,-156.71"/>
<polygon fill="midnightblue" stroke="midnightblue" points="53,-184.41 56.5,-194.41 60,-184.41 53,-184.41"/>
</g>
<!-- Node5 -->
<g id="node5" class="node">
<title>Node5</title>
<g id="a_node5"><a xlink:href="classcstring.html" target="_top" xlink:title=" ">
<polygon fill="white" stroke="black" points="131.5,-79.5 131.5,-98.5 181.5,-98.5 181.5,-79.5 131.5,-79.5"/>
<text text-anchor="middle" x="156.5" y="-86.5" font-family="Helvetica,sans-Serif" font-size="10.00">cstring</text>
</a>
</g>
</g>
<!-- Node5&#45;&gt;Node1 -->
<g id="edge4" class="edge">
<title>Node5&#45;&gt;Node1</title>
<path fill="none" stroke="#9a32cd" stroke-dasharray="5,2" d="M144.19,-70.74C135.39,-58.41 123.71,-42.03 115.49,-30.51"/>
<polygon fill="#9a32cd" stroke="#9a32cd" points="141.59,-73.12 150.25,-79.23 147.29,-69.06 141.59,-73.12"/>
<text text-anchor="middle" x="149.5" y="-52" font-family="Helvetica,sans-Serif" font-size="10.00"> label</text>
</g>
<!-- Node5&#45;&gt;Node5 -->
<g id="edge5" class="edge">
<title>Node5&#45;&gt;Node5</title>
<path fill="none" stroke="#9a32cd" stroke-dasharray="5,2" d="M191.95,-93.6C196.5,-92.8 199.5,-91.27 199.5,-89 199.5,-85.28 191.41,-83.54 181.68,-83.77"/>
<polygon fill="#9a32cd" stroke="#9a32cd" points="191.44,-90.12 181.68,-94.23 191.87,-97.11 191.44,-90.12"/>
<text text-anchor="middle" x="219" y="-92" font-family="Helvetica,sans-Serif" font-size="10.00"> empty</text>
<text text-anchor="middle" x="219" y="-81" font-family="Helvetica,sans-Serif" font-size="10.00">newline</text>
</g>
</g>
</svg>
