<?xml version="1.0" encoding="UTF-8" standalone="no"?>
<!DOCTYPE svg PUBLIC "-//W3C//DTD SVG 1.1//EN"
 "http://www.w3.org/Graphics/SVG/1.1/DTD/svg11.dtd">
<!-- Generated by graphviz version 2.43.0 (0)
 -->
<!-- Title: P4::EqualityConstraint Pages: 1 -->
<svg width="419pt" height="413pt"
 viewBox="0.00 0.00 419.00 413.00" xmlns="http://www.w3.org/2000/svg" xmlns:xlink="http://www.w3.org/1999/xlink">
<g id="graph0" class="graph" transform="scale(1 1) rotate(0) translate(4 409)">
<title>P4::EqualityConstraint</title>
<polygon fill="white" stroke="transparent" points="-4,4 -4,-409 415,-409 415,4 -4,4"/>
<!-- Node1 -->
<g id="node1" class="node">
<title>Node1</title>
<g id="a_node1"><a xlink:title="Requires two types to be equal.">
<polygon fill="#bfbfbf" stroke="black" points="42.5,-0.5 42.5,-19.5 167.5,-19.5 167.5,-0.5 42.5,-0.5"/>
<text text-anchor="middle" x="105" y="-7.5" font-family="Helvetica,sans-Serif" font-size="10.00">P4::EqualityConstraint</text>
</a>
</g>
</g>
<!-- Node2 -->
<g id="node2" class="node">
<title>Node2</title>
<g id="a_node2"><a xlink:href="class_p4_1_1_binary_constraint.html" target="_top" xlink:title="Base class for EqualityConstraint and CanBeImplicitlyCastConstraint.">
<polygon fill="white" stroke="black" points="47,-57.5 47,-76.5 163,-76.5 163,-57.5 47,-57.5"/>
<text text-anchor="middle" x="105" y="-64.5" font-family="Helvetica,sans-Serif" font-size="10.00">P4::BinaryConstraint</text>
</a>
</g>
</g>
<!-- Node2&#45;&gt;Node1 -->
<g id="edge1" class="edge">
<title>Node2&#45;&gt;Node1</title>
<path fill="none" stroke="midnightblue" d="M105,-47.12C105,-37.82 105,-27.06 105,-19.71"/>
<polygon fill="midnightblue" stroke="midnightblue" points="101.5,-47.41 105,-57.41 108.5,-47.41 101.5,-47.41"/>
</g>
<!-- Node3 -->
<g id="node3" class="node">
<title>Node3</title>
<g id="a_node3"><a xlink:href="class_p4_1_1_type_constraint.html" target="_top" xlink:title=" ">
<polygon fill="white" stroke="black" points="51.5,-114.5 51.5,-133.5 158.5,-133.5 158.5,-114.5 51.5,-114.5"/>
<text text-anchor="middle" x="105" y="-121.5" font-family="Helvetica,sans-Serif" font-size="10.00">P4::TypeConstraint</text>
</a>
</g>
</g>
<!-- Node3&#45;&gt;Node2 -->
<g id="edge2" class="edge">
<title>Node3&#45;&gt;Node2</title>
<path fill="none" stroke="midnightblue" d="M105,-104.12C105,-94.82 105,-84.06 105,-76.71"/>
<polygon fill="midnightblue" stroke="midnightblue" points="101.5,-104.41 105,-114.41 108.5,-104.41 101.5,-104.41"/>
</g>
<!-- Node3&#45;&gt;Node3 -->
<g id="edge6" class="edge">
<title>Node3&#45;&gt;Node3</title>
<path fill="none" stroke="#9a32cd" stroke-dasharray="5,2" d="M168.88,-127.9C173.6,-127.03 176.5,-125.73 176.5,-124 176.5,-121.24 169.08,-119.57 158.63,-118.98"/>
<polygon fill="#9a32cd" stroke="#9a32cd" points="168.19,-124.45 158.63,-129.02 168.95,-131.41 168.19,-124.45"/>
<text text-anchor="middle" x="209" y="-121.5" font-family="Helvetica,sans-Serif" font-size="10.00"> derivedFrom</text>
</g>
<!-- Node4 -->
<g id="node4" class="node">
<title>Node4</title>
<g id="a_node4"><a xlink:href="class_i_has_db_print.html" target="_top" xlink:title=" ">
<polygon fill="white" stroke="black" points="0,-327.5 0,-346.5 74,-346.5 74,-327.5 0,-327.5"/>
<text text-anchor="middle" x="37" y="-334.5" font-family="Helvetica,sans-Serif" font-size="10.00">IHasDbPrint</text>
</a>
</g>
</g>
<!-- Node4&#45;&gt;Node3 -->
<g id="edge3" class="edge">
<title>Node4&#45;&gt;Node3</title>
<path fill="none" stroke="midnightblue" d="M42.82,-317.93C56.81,-274.54 91.88,-165.7 102.14,-133.87"/>
<polygon fill="midnightblue" stroke="midnightblue" points="39.49,-316.88 39.75,-327.47 46.15,-319.02 39.49,-316.88"/>
</g>
<!-- Node8 -->
<g id="node8" class="node">
<title>Node8</title>
<g id="a_node8"><a xlink:href="class_i_r_1_1_i_node.html" target="_top" xlink:title=" ">
<polygon fill="white" stroke="black" points="133.5,-248.5 133.5,-267.5 194.5,-267.5 194.5,-248.5 133.5,-248.5"/>
<text text-anchor="middle" x="164" y="-255.5" font-family="Helvetica,sans-Serif" font-size="10.00">IR::INode</text>
</a>
</g>
</g>
<!-- Node4&#45;&gt;Node8 -->
<g id="edge10" class="edge">
<title>Node4&#45;&gt;Node8</title>
<path fill="none" stroke="midnightblue" d="M59.94,-322.09C86.1,-306.23 128.08,-280.78 149.86,-267.57"/>
<polygon fill="midnightblue" stroke="midnightblue" points="57.81,-319.29 51.08,-327.47 61.44,-325.27 57.81,-319.29"/>
</g>
<!-- Node5 -->
<g id="node5" class="node">
<title>Node5</title>
<g id="a_node5"><a xlink:href="class_i_castable.html" target="_top" xlink:title=" ">
<polygon fill="white" stroke="black" points="92,-327.5 92,-346.5 154,-346.5 154,-327.5 92,-327.5"/>
<text text-anchor="middle" x="123" y="-334.5" font-family="Helvetica,sans-Serif" font-size="10.00">ICastable</text>
</a>
</g>
</g>
<!-- Node5&#45;&gt;Node3 -->
<g id="edge4" class="edge">
<title>Node5&#45;&gt;Node3</title>
<path fill="none" stroke="midnightblue" d="M121.41,-317.38C117.68,-273.62 108.46,-165.57 105.76,-133.87"/>
<polygon fill="midnightblue" stroke="midnightblue" points="117.93,-317.8 122.27,-327.47 124.91,-317.21 117.93,-317.8"/>
</g>
<!-- Node5&#45;&gt;Node8 -->
<g id="edge11" class="edge">
<title>Node5&#45;&gt;Node8</title>
<path fill="none" stroke="midnightblue" d="M132.47,-318.22C140.87,-302.44 152.8,-280.04 159.31,-267.81"/>
<polygon fill="midnightblue" stroke="midnightblue" points="129.16,-316.99 127.54,-327.47 135.33,-320.28 129.16,-316.99"/>
</g>
<!-- Node6 -->
<g id="node6" class="node">
<title>Node6</title>
<g id="a_node6"><a xlink:href="struct_r_t_t_i_1_1_base.html" target="_top" xlink:title=" ">
<polygon fill="white" stroke="black" points="89,-385.5 89,-404.5 157,-404.5 157,-385.5 89,-385.5"/>
<text text-anchor="middle" x="123" y="-392.5" font-family="Helvetica,sans-Serif" font-size="10.00">RTTI::Base</text>
</a>
</g>
</g>
<!-- Node6&#45;&gt;Node5 -->
<g id="edge5" class="edge">
<title>Node6&#45;&gt;Node5</title>
<path fill="none" stroke="midnightblue" d="M123,-374.95C123,-365.29 123,-354.03 123,-346.51"/>
<polygon fill="midnightblue" stroke="midnightblue" points="119.5,-375.25 123,-385.25 126.5,-375.25 119.5,-375.25"/>
</g>
<!-- Node7 -->
<g id="node7" class="node">
<title>Node7</title>
<g id="a_node7"><a xlink:href="class_i_r_1_1_node.html" target="_top" xlink:title=" ">
<polygon fill="white" stroke="black" points="135,-181.5 135,-200.5 193,-200.5 193,-181.5 135,-181.5"/>
<text text-anchor="middle" x="164" y="-188.5" font-family="Helvetica,sans-Serif" font-size="10.00">IR::Node</text>
</a>
</g>
</g>
<!-- Node7&#45;&gt;Node3 -->
<g id="edge7" class="edge">
<title>Node7&#45;&gt;Node3</title>
<path fill="none" stroke="#9a32cd" stroke-dasharray="5,2" d="M149.15,-173.63C137.61,-160.92 122.06,-143.8 112.83,-133.63"/>
<polygon fill="#9a32cd" stroke="#9a32cd" points="146.73,-176.18 156.04,-181.23 151.91,-171.48 146.73,-176.18"/>
<text text-anchor="middle" x="154.5" y="-155" font-family="Helvetica,sans-Serif" font-size="10.00"> origin</text>
</g>
<!-- Node8&#45;&gt;Node7 -->
<g id="edge8" class="edge">
<title>Node8&#45;&gt;Node7</title>
<path fill="none" stroke="midnightblue" d="M164,-238.04C164,-225.67 164,-210.12 164,-200.63"/>
<polygon fill="midnightblue" stroke="midnightblue" points="160.5,-238.23 164,-248.23 167.5,-238.23 160.5,-238.23"/>
</g>
<!-- Node9 -->
<g id="node9" class="node">
<title>Node9</title>
<g id="a_node9"><a xlink:href="class_util_1_1_i_has_source_info.html" target="_top" xlink:title=" ">
<polygon fill="white" stroke="black" points="172.5,-327.5 172.5,-346.5 285.5,-346.5 285.5,-327.5 172.5,-327.5"/>
<text text-anchor="middle" x="229" y="-334.5" font-family="Helvetica,sans-Serif" font-size="10.00">Util::IHasSourceInfo</text>
</a>
</g>
</g>
<!-- Node9&#45;&gt;Node8 -->
<g id="edge9" class="edge">
<title>Node9&#45;&gt;Node8</title>
<path fill="none" stroke="midnightblue" d="M215.12,-319.56C201.76,-303.73 182.06,-280.39 171.44,-267.81"/>
<polygon fill="midnightblue" stroke="midnightblue" points="212.67,-322.08 221.8,-327.47 218.02,-317.57 212.67,-322.08"/>
</g>
<!-- Node10 -->
<g id="node10" class="node">
<title>Node10</title>
<g id="a_node10"><a xlink:href="class_util_1_1_source_info.html" target="_top" xlink:title=" ">
<polygon fill="white" stroke="black" points="225,-248.5 225,-267.5 317,-267.5 317,-248.5 225,-248.5"/>
<text text-anchor="middle" x="271" y="-255.5" font-family="Helvetica,sans-Serif" font-size="10.00">Util::SourceInfo</text>
</a>
</g>
</g>
<!-- Node10&#45;&gt;Node7 -->
<g id="edge12" class="edge">
<title>Node10&#45;&gt;Node7</title>
<path fill="none" stroke="#9a32cd" stroke-dasharray="5,2" d="M247.86,-242.94C226.67,-230.07 195.98,-211.43 178.2,-200.63"/>
<polygon fill="#9a32cd" stroke="#9a32cd" points="246.21,-246.03 256.57,-248.23 249.84,-240.05 246.21,-246.03"/>
<text text-anchor="middle" x="242.5" y="-222" font-family="Helvetica,sans-Serif" font-size="10.00"> srcInfo</text>
</g>
<!-- Node11 -->
<g id="node11" class="node">
<title>Node11</title>
<g id="a_node11"><a xlink:href="classcstring.html" target="_top" xlink:title=" ">
<polygon fill="white" stroke="black" points="304,-327.5 304,-346.5 354,-346.5 354,-327.5 304,-327.5"/>
<text text-anchor="middle" x="329" y="-334.5" font-family="Helvetica,sans-Serif" font-size="10.00">cstring</text>
</a>
</g>
</g>
<!-- Node11&#45;&gt;Node10 -->
<g id="edge13" class="edge">
<title>Node11&#45;&gt;Node10</title>
<path fill="none" stroke="#9a32cd" stroke-dasharray="5,2" d="M316.28,-319.12C304.37,-303.3 287.02,-280.27 277.64,-267.81"/>
<polygon fill="#9a32cd" stroke="#9a32cd" points="313.76,-321.58 322.57,-327.47 319.35,-317.37 313.76,-321.58"/>
<text text-anchor="middle" x="329" y="-300" font-family="Helvetica,sans-Serif" font-size="10.00"> filename</text>
<text text-anchor="middle" x="329" y="-289" font-family="Helvetica,sans-Serif" font-size="10.00">srcBrief</text>
</g>
<!-- Node11&#45;&gt;Node11 -->
<g id="edge14" class="edge">
<title>Node11&#45;&gt;Node11</title>
<path fill="none" stroke="#9a32cd" stroke-dasharray="5,2" d="M364.45,-341.6C369,-340.8 372,-339.27 372,-337 372,-333.28 363.91,-331.54 354.18,-331.77"/>
<polygon fill="#9a32cd" stroke="#9a32cd" points="363.94,-338.12 354.18,-342.23 364.37,-345.11 363.94,-338.12"/>
<text text-anchor="middle" x="391.5" y="-340" font-family="Helvetica,sans-Serif" font-size="10.00"> empty</text>
<text text-anchor="middle" x="391.5" y="-329" font-family="Helvetica,sans-Serif" font-size="10.00">newline</text>
</g>
</g>
</svg>
