<?xml version="1.0" encoding="UTF-8" standalone="no"?>
<!DOCTYPE svg PUBLIC "-//W3C//DTD SVG 1.1//EN"
 "http://www.w3.org/Graphics/SVG/1.1/DTD/svg11.dtd">
<!-- Generated by graphviz version 2.43.0 (0)
 -->
<!-- Title: TypeCheck::MakeImplicitCastsExplicit Pages: 1 -->
<svg width="492pt" height="244pt"
 viewBox="0.00 0.00 492.00 244.00" xmlns="http://www.w3.org/2000/svg" xmlns:xlink="http://www.w3.org/1999/xlink">
<g id="graph0" class="graph" transform="scale(1 1) rotate(0) translate(4 240)">
<title>TypeCheck::MakeImplicitCastsExplicit</title>
<polygon fill="white" stroke="transparent" points="-4,4 -4,-240 488,-240 488,4 -4,4"/>
<!-- Node1 -->
<g id="node1" class="node">
<title>Node1</title>
<g id="a_node1"><a xlink:title=" ">
<polygon fill="#bfbfbf" stroke="black" points="31,-0.5 31,-30.5 196,-30.5 196,-0.5 31,-0.5"/>
<text text-anchor="start" x="39" y="-18.5" font-family="Helvetica,sans-Serif" font-size="10.00">TypeCheck::MakeImplicitCasts</text>
<text text-anchor="middle" x="113.5" y="-7.5" font-family="Helvetica,sans-Serif" font-size="10.00">Explicit</text>
</a>
</g>
</g>
<!-- Node2 -->
<g id="node2" class="node">
<title>Node2</title>
<g id="a_node2"><a xlink:href="class_transform.html" target="_top" xlink:title=" ">
<polygon fill="white" stroke="black" points="111,-79.5 111,-98.5 176,-98.5 176,-79.5 111,-79.5"/>
<text text-anchor="middle" x="143.5" y="-86.5" font-family="Helvetica,sans-Serif" font-size="10.00">Transform</text>
</a>
</g>
</g>
<!-- Node2&#45;&gt;Node1 -->
<g id="edge1" class="edge">
<title>Node2&#45;&gt;Node1</title>
<path fill="none" stroke="midnightblue" d="M135.95,-70.01C130.82,-57.77 124.12,-41.8 119.38,-30.51"/>
<polygon fill="midnightblue" stroke="midnightblue" points="132.72,-71.37 139.82,-79.23 139.18,-68.66 132.72,-71.37"/>
</g>
<!-- Node3 -->
<g id="node3" class="node">
<title>Node3</title>
<g id="a_node3"><a xlink:href="class_visitor.html" target="_top" xlink:title=" ">
<polygon fill="white" stroke="black" points="188.5,-147.5 188.5,-166.5 236.5,-166.5 236.5,-147.5 188.5,-147.5"/>
<text text-anchor="middle" x="212.5" y="-154.5" font-family="Helvetica,sans-Serif" font-size="10.00">Visitor</text>
</a>
</g>
</g>
<!-- Node3&#45;&gt;Node2 -->
<g id="edge2" class="edge">
<title>Node3&#45;&gt;Node2</title>
<path fill="none" stroke="midnightblue" d="M196.2,-140.41C182.65,-127.45 163.84,-109.46 152.74,-98.84"/>
<polygon fill="midnightblue" stroke="midnightblue" points="193.83,-142.99 203.48,-147.37 198.67,-137.93 193.83,-142.99"/>
</g>
<!-- Node3&#45;&gt;Node3 -->
<g id="edge10" class="edge">
<title>Node3&#45;&gt;Node3</title>
<path fill="none" stroke="#9a32cd" stroke-dasharray="5,2" d="M246.92,-162.29C251.48,-161.39 254.5,-159.63 254.5,-157 254.5,-152.69 246.36,-150.7 236.67,-151.04"/>
<polygon fill="#9a32cd" stroke="#9a32cd" points="246.42,-158.82 236.67,-162.96 246.88,-165.8 246.42,-158.82"/>
<text text-anchor="middle" x="279.5" y="-154.5" font-family="Helvetica,sans-Serif" font-size="10.00"> called_by</text>
</g>
<!-- Node5 -->
<g id="node5" class="node">
<title>Node5</title>
<g id="a_node5"><a xlink:href="class_split_flow_visit__base.html" target="_top" xlink:title=" ">
<polygon fill="white" stroke="black" points="268.5,-6 268.5,-25 380.5,-25 380.5,-6 268.5,-6"/>
<text text-anchor="middle" x="324.5" y="-13" font-family="Helvetica,sans-Serif" font-size="10.00">SplitFlowVisit_base</text>
</a>
</g>
</g>
<!-- Node3&#45;&gt;Node5 -->
<g id="edge9" class="edge">
<title>Node3&#45;&gt;Node5</title>
<path fill="none" stroke="#9a32cd" stroke-dasharray="5,2" d="M244.71,-143.32C264.17,-134.08 287.94,-119.72 302.5,-100 319.59,-76.84 323.42,-41.45 324.27,-25.2"/>
<polygon fill="#9a32cd" stroke="#9a32cd" points="243.24,-140.14 235.56,-147.44 246.12,-146.52 243.24,-140.14"/>
<text text-anchor="middle" x="319.5" y="-86.5" font-family="Helvetica,sans-Serif" font-size="10.00"> v</text>
</g>
<!-- Node6 -->
<g id="node6" class="node">
<title>Node6</title>
<g id="a_node6"><a xlink:title=" ">
<polygon fill="white" stroke="#bfbfbf" points="353,-79.5 353,-98.5 484,-98.5 484,-79.5 353,-79.5"/>
<text text-anchor="middle" x="418.5" y="-86.5" font-family="Helvetica,sans-Serif" font-size="10.00">std::vector&lt; Visitor * &gt;</text>
</a>
</g>
</g>
<!-- Node3&#45;&gt;Node6 -->
<g id="edge8" class="edge">
<title>Node3&#45;&gt;Node6</title>
<path fill="none" stroke="#9a32cd" stroke-dasharray="5,2" d="M246.66,-150.99C272.36,-146.67 308.2,-139.46 338.5,-129 362.16,-120.83 387.91,-107.38 403.63,-98.61"/>
<polygon fill="#9a32cd" stroke="#9a32cd" points="245.97,-147.55 236.66,-152.61 247.09,-154.46 245.97,-147.55"/>
<text text-anchor="middle" x="387" y="-121" font-family="Helvetica,sans-Serif" font-size="10.00"> elements</text>
</g>
<!-- Node7 -->
<g id="node7" class="node">
<title>Node7</title>
<g id="a_node7"><a xlink:href="class_p4_write_context.html" target="_top" xlink:title=" ">
<polygon fill="white" stroke="black" points="0,-79.5 0,-98.5 93,-98.5 93,-79.5 0,-79.5"/>
<text text-anchor="middle" x="46.5" y="-86.5" font-family="Helvetica,sans-Serif" font-size="10.00">P4WriteContext</text>
</a>
</g>
</g>
<!-- Node3&#45;&gt;Node7 -->
<g id="edge12" class="edge">
<title>Node3&#45;&gt;Node7</title>
<path fill="none" stroke="midnightblue" d="M181.15,-143.54C148.04,-130.37 96.72,-109.97 67.94,-98.53"/>
<polygon fill="midnightblue" stroke="midnightblue" points="180.21,-146.93 190.8,-147.37 182.8,-140.42 180.21,-146.93"/>
</g>
<!-- Node4 -->
<g id="node4" class="node">
<title>Node4</title>
<g id="a_node4"><a xlink:href="classcstring.html" target="_top" xlink:title=" ">
<polygon fill="white" stroke="black" points="187.5,-215.5 187.5,-234.5 237.5,-234.5 237.5,-215.5 187.5,-215.5"/>
<text text-anchor="middle" x="212.5" y="-222.5" font-family="Helvetica,sans-Serif" font-size="10.00">cstring</text>
</a>
</g>
</g>
<!-- Node4&#45;&gt;Node3 -->
<g id="edge3" class="edge">
<title>Node4&#45;&gt;Node3</title>
<path fill="none" stroke="#9a32cd" stroke-dasharray="5,2" d="M212.5,-205.04C212.5,-192.47 212.5,-176.56 212.5,-166.84"/>
<polygon fill="#9a32cd" stroke="#9a32cd" points="209,-205.37 212.5,-215.37 216,-205.37 209,-205.37"/>
<text text-anchor="middle" x="247.5" y="-188" font-family="Helvetica,sans-Serif" font-size="10.00"> internalName</text>
</g>
<!-- Node4&#45;&gt;Node4 -->
<g id="edge4" class="edge">
<title>Node4&#45;&gt;Node4</title>
<path fill="none" stroke="#9a32cd" stroke-dasharray="5,2" d="M247.95,-230.58C252.5,-229.61 255.5,-227.75 255.5,-225 255.5,-220.48 247.41,-218.37 237.68,-218.65"/>
<polygon fill="#9a32cd" stroke="#9a32cd" points="247.39,-227.11 237.68,-231.35 247.91,-234.1 247.39,-227.11"/>
<text text-anchor="middle" x="275" y="-228" font-family="Helvetica,sans-Serif" font-size="10.00"> empty</text>
<text text-anchor="middle" x="275" y="-217" font-family="Helvetica,sans-Serif" font-size="10.00">newline</text>
</g>
<!-- Node5&#45;&gt;Node3 -->
<g id="edge5" class="edge">
<title>Node5&#45;&gt;Node3</title>
<path fill="none" stroke="#9a32cd" stroke-dasharray="5,2" d="M290.94,-29.09C269.13,-39.04 241.97,-55.09 226.5,-78 211.87,-99.66 211.24,-132.14 211.89,-147.44"/>
<polygon fill="#9a32cd" stroke="#9a32cd" points="292.43,-32.26 300.22,-25.07 289.65,-25.84 292.43,-32.26"/>
<text text-anchor="middle" x="264.5" y="-92" font-family="Helvetica,sans-Serif" font-size="10.00"> split_link</text>
<text text-anchor="middle" x="264.5" y="-81" font-family="Helvetica,sans-Serif" font-size="10.00">split_link_mem</text>
</g>
<!-- Node5&#45;&gt;Node5 -->
<g id="edge6" class="edge">
<title>Node5&#45;&gt;Node5</title>
<path fill="none" stroke="#9a32cd" stroke-dasharray="5,2" d="M390.54,-20.81C395.47,-19.62 398.5,-17.85 398.5,-15.5 398.5,-11.83 391.12,-9.57 380.65,-8.74"/>
<polygon fill="#9a32cd" stroke="#9a32cd" points="390.03,-17.35 380.65,-22.26 391.05,-24.27 390.03,-17.35"/>
<text text-anchor="middle" x="411" y="-13" font-family="Helvetica,sans-Serif" font-size="10.00"> prev</text>
</g>
<!-- Node6&#45;&gt;Node5 -->
<g id="edge7" class="edge">
<title>Node6&#45;&gt;Node5</title>
<path fill="none" stroke="#9a32cd" stroke-dasharray="5,2" d="M398.93,-73.12C379.84,-58.59 351.45,-37 335.83,-25.12"/>
<polygon fill="#9a32cd" stroke="#9a32cd" points="396.9,-75.96 406.97,-79.23 401.13,-70.39 396.9,-75.96"/>
<text text-anchor="middle" x="399.5" y="-52" font-family="Helvetica,sans-Serif" font-size="10.00"> visitors</text>
</g>
<!-- Node7&#45;&gt;Node1 -->
<g id="edge11" class="edge">
<title>Node7&#45;&gt;Node1</title>
<path fill="none" stroke="#8b1a1a" d="M61.66,-71.82C73.32,-59.38 89.26,-42.37 100.37,-30.51"/>
<polygon fill="#8b1a1a" stroke="#8b1a1a" points="59,-69.54 54.72,-79.23 64.11,-74.33 59,-69.54"/>
</g>
</g>
</svg>
