<?xml version="1.0" encoding="UTF-8" standalone="no"?>
<!DOCTYPE svg PUBLIC "-//W3C//DTD SVG 1.1//EN"
 "http://www.w3.org/Graphics/SVG/1.1/DTD/svg11.dtd">
<!-- Generated by graphviz version 2.43.0 (0)
 -->
<!-- Title: P4::StorageLocation Pages: 1 -->
<svg width="287pt" height="154pt"
 viewBox="0.00 0.00 287.00 154.00" xmlns="http://www.w3.org/2000/svg" xmlns:xlink="http://www.w3.org/1999/xlink">
<g id="graph0" class="graph" transform="scale(1 1) rotate(0) translate(4 150)">
<title>P4::StorageLocation</title>
<polygon fill="white" stroke="transparent" points="-4,4 -4,-150 283,-150 283,4 -4,4"/>
<!-- Node1 -->
<g id="node1" class="node">
<title>Node1</title>
<g id="a_node1"><a xlink:title="Abstraction for something that is has a left value (variable, parameter)">
<polygon fill="#bfbfbf" stroke="black" points="66.5,-0.5 66.5,-19.5 179.5,-19.5 179.5,-0.5 66.5,-0.5"/>
<text text-anchor="middle" x="123" y="-7.5" font-family="Helvetica,sans-Serif" font-size="10.00">P4::StorageLocation</text>
</a>
</g>
</g>
<!-- Node2 -->
<g id="node2" class="node">
<title>Node2</title>
<g id="a_node2"><a xlink:href="class_i_has_db_print.html" target="_top" xlink:title=" ">
<polygon fill="white" stroke="black" points="0,-68.5 0,-87.5 74,-87.5 74,-68.5 0,-68.5"/>
<text text-anchor="middle" x="37" y="-75.5" font-family="Helvetica,sans-Serif" font-size="10.00">IHasDbPrint</text>
</a>
</g>
</g>
<!-- Node2&#45;&gt;Node1 -->
<g id="edge1" class="edge">
<title>Node2&#45;&gt;Node1</title>
<path fill="none" stroke="midnightblue" d="M56.42,-62.1C73.48,-49 97.72,-30.4 111.75,-19.63"/>
<polygon fill="midnightblue" stroke="midnightblue" points="54.05,-59.51 48.24,-68.37 58.31,-65.06 54.05,-59.51"/>
</g>
<!-- Node3 -->
<g id="node3" class="node">
<title>Node3</title>
<g id="a_node3"><a xlink:href="class_i_castable.html" target="_top" xlink:title=" ">
<polygon fill="white" stroke="black" points="92,-68.5 92,-87.5 154,-87.5 154,-68.5 92,-68.5"/>
<text text-anchor="middle" x="123" y="-75.5" font-family="Helvetica,sans-Serif" font-size="10.00">ICastable</text>
</a>
</g>
</g>
<!-- Node3&#45;&gt;Node1 -->
<g id="edge2" class="edge">
<title>Node3&#45;&gt;Node1</title>
<path fill="none" stroke="midnightblue" d="M123,-58.04C123,-45.47 123,-29.56 123,-19.84"/>
<polygon fill="midnightblue" stroke="midnightblue" points="119.5,-58.37 123,-68.37 126.5,-58.37 119.5,-58.37"/>
</g>
<!-- Node4 -->
<g id="node4" class="node">
<title>Node4</title>
<g id="a_node4"><a xlink:href="struct_r_t_t_i_1_1_base.html" target="_top" xlink:title=" ">
<polygon fill="white" stroke="black" points="89,-126.5 89,-145.5 157,-145.5 157,-126.5 89,-126.5"/>
<text text-anchor="middle" x="123" y="-133.5" font-family="Helvetica,sans-Serif" font-size="10.00">RTTI::Base</text>
</a>
</g>
</g>
<!-- Node4&#45;&gt;Node3 -->
<g id="edge3" class="edge">
<title>Node4&#45;&gt;Node3</title>
<path fill="none" stroke="midnightblue" d="M123,-115.95C123,-106.29 123,-95.03 123,-87.51"/>
<polygon fill="midnightblue" stroke="midnightblue" points="119.5,-116.25 123,-126.25 126.5,-116.25 119.5,-116.25"/>
</g>
<!-- Node5 -->
<g id="node5" class="node">
<title>Node5</title>
<g id="a_node5"><a xlink:href="classcstring.html" target="_top" xlink:title=" ">
<polygon fill="white" stroke="black" points="172,-68.5 172,-87.5 222,-87.5 222,-68.5 172,-68.5"/>
<text text-anchor="middle" x="197" y="-75.5" font-family="Helvetica,sans-Serif" font-size="10.00">cstring</text>
</a>
</g>
</g>
<!-- Node5&#45;&gt;Node1 -->
<g id="edge4" class="edge">
<title>Node5&#45;&gt;Node1</title>
<path fill="none" stroke="#9a32cd" stroke-dasharray="5,2" d="M179.52,-61.41C164.99,-48.45 144.81,-30.46 132.91,-19.84"/>
<polygon fill="#9a32cd" stroke="#9a32cd" points="177.53,-64.33 187.33,-68.37 182.19,-59.1 177.53,-64.33"/>
<text text-anchor="middle" x="180.5" y="-41" font-family="Helvetica,sans-Serif" font-size="10.00"> name</text>
</g>
<!-- Node5&#45;&gt;Node5 -->
<g id="edge5" class="edge">
<title>Node5&#45;&gt;Node5</title>
<path fill="none" stroke="#9a32cd" stroke-dasharray="5,2" d="M232.45,-82.6C237,-81.8 240,-80.27 240,-78 240,-74.28 231.91,-72.54 222.18,-72.77"/>
<polygon fill="#9a32cd" stroke="#9a32cd" points="231.94,-79.12 222.18,-83.23 232.37,-86.11 231.94,-79.12"/>
<text text-anchor="middle" x="259.5" y="-81" font-family="Helvetica,sans-Serif" font-size="10.00"> empty</text>
<text text-anchor="middle" x="259.5" y="-70" font-family="Helvetica,sans-Serif" font-size="10.00">newline</text>
</g>
</g>
</svg>
