<?xml version="1.0" encoding="UTF-8" standalone="no"?>
<!DOCTYPE svg PUBLIC "-//W3C//DTD SVG 1.1//EN"
 "http://www.w3.org/Graphics/SVG/1.1/DTD/svg11.dtd">
<!-- Generated by graphviz version 2.43.0 (0)
 -->
<!-- Title: P4::ResolveReferences Pages: 1 -->
<svg width="499pt" height="233pt"
 viewBox="0.00 0.00 498.50 233.00" xmlns="http://www.w3.org/2000/svg" xmlns:xlink="http://www.w3.org/1999/xlink">
<g id="graph0" class="graph" transform="scale(1 1) rotate(0) translate(4 229)">
<title>P4::ResolveReferences</title>
<polygon fill="white" stroke="transparent" points="-4,4 -4,-229 494.5,-229 494.5,4 -4,4"/>
<!-- Node1 -->
<g id="node1" class="node">
<title>Node1</title>
<g id="a_node1"><a xlink:title=" ">
<polygon fill="#bfbfbf" stroke="black" points="55.5,-0.5 55.5,-19.5 183.5,-19.5 183.5,-0.5 55.5,-0.5"/>
<text text-anchor="middle" x="119.5" y="-7.5" font-family="Helvetica,sans-Serif" font-size="10.00">P4::ResolveReferences</text>
</a>
</g>
</g>
<!-- Node2 -->
<g id="node2" class="node">
<title>Node2</title>
<g id="a_node2"><a xlink:href="class_inspector.html" target="_top" xlink:title=" ">
<polygon fill="white" stroke="black" points="143.5,-68.5 143.5,-87.5 205.5,-87.5 205.5,-68.5 143.5,-68.5"/>
<text text-anchor="middle" x="174.5" y="-75.5" font-family="Helvetica,sans-Serif" font-size="10.00">Inspector</text>
</a>
</g>
</g>
<!-- Node2&#45;&gt;Node1 -->
<g id="edge1" class="edge">
<title>Node2&#45;&gt;Node1</title>
<path fill="none" stroke="midnightblue" d="M160.9,-60.68C150.15,-47.78 135.55,-30.26 126.87,-19.84"/>
<polygon fill="midnightblue" stroke="midnightblue" points="158.22,-62.93 167.31,-68.37 163.6,-58.45 158.22,-62.93"/>
</g>
<!-- Node3 -->
<g id="node3" class="node">
<title>Node3</title>
<g id="a_node3"><a xlink:href="class_visitor.html" target="_top" xlink:title=" ">
<polygon fill="white" stroke="black" points="217.5,-136.5 217.5,-155.5 265.5,-155.5 265.5,-136.5 217.5,-136.5"/>
<text text-anchor="middle" x="241.5" y="-143.5" font-family="Helvetica,sans-Serif" font-size="10.00">Visitor</text>
</a>
</g>
</g>
<!-- Node3&#45;&gt;Node2 -->
<g id="edge2" class="edge">
<title>Node3&#45;&gt;Node2</title>
<path fill="none" stroke="midnightblue" d="M225.31,-129.05C212.17,-116.11 194.15,-98.36 183.48,-87.84"/>
<polygon fill="midnightblue" stroke="midnightblue" points="223.16,-131.85 232.74,-136.37 228.07,-126.86 223.16,-131.85"/>
</g>
<!-- Node3&#45;&gt;Node3 -->
<g id="edge10" class="edge">
<title>Node3&#45;&gt;Node3</title>
<path fill="none" stroke="#9a32cd" stroke-dasharray="5,2" d="M275.92,-151.29C280.48,-150.39 283.5,-148.63 283.5,-146 283.5,-141.69 275.36,-139.7 265.67,-140.04"/>
<polygon fill="#9a32cd" stroke="#9a32cd" points="275.42,-147.82 265.67,-151.96 275.88,-154.8 275.42,-147.82"/>
<text text-anchor="middle" x="308.5" y="-143.5" font-family="Helvetica,sans-Serif" font-size="10.00"> called_by</text>
</g>
<!-- Node5 -->
<g id="node5" class="node">
<title>Node5</title>
<g id="a_node5"><a xlink:href="class_split_flow_visit__base.html" target="_top" xlink:title=" ">
<polygon fill="white" stroke="black" points="279.5,-0.5 279.5,-19.5 391.5,-19.5 391.5,-0.5 279.5,-0.5"/>
<text text-anchor="middle" x="335.5" y="-7.5" font-family="Helvetica,sans-Serif" font-size="10.00">SplitFlowVisit_base</text>
</a>
</g>
</g>
<!-- Node3&#45;&gt;Node5 -->
<g id="edge9" class="edge">
<title>Node3&#45;&gt;Node5</title>
<path fill="none" stroke="#9a32cd" stroke-dasharray="5,2" d="M239.7,-125.82C239.07,-109.07 240.51,-84.72 251.5,-67 265.73,-44.06 293.23,-28.46 312.9,-19.66"/>
<polygon fill="#9a32cd" stroke="#9a32cd" points="236.23,-126.28 240.38,-136.03 243.21,-125.82 236.23,-126.28"/>
<text text-anchor="middle" x="256.5" y="-75.5" font-family="Helvetica,sans-Serif" font-size="10.00"> v</text>
</g>
<!-- Node6 -->
<g id="node6" class="node">
<title>Node6</title>
<g id="a_node6"><a xlink:title=" ">
<polygon fill="white" stroke="#bfbfbf" points="270,-68.5 270,-87.5 401,-87.5 401,-68.5 270,-68.5"/>
<text text-anchor="middle" x="335.5" y="-75.5" font-family="Helvetica,sans-Serif" font-size="10.00">std::vector&lt; Visitor * &gt;</text>
</a>
</g>
</g>
<!-- Node3&#45;&gt;Node6 -->
<g id="edge8" class="edge">
<title>Node3&#45;&gt;Node6</title>
<path fill="none" stroke="#9a32cd" stroke-dasharray="5,2" d="M262.22,-130.46C280.89,-117.34 307.72,-98.5 323.21,-87.63"/>
<polygon fill="#9a32cd" stroke="#9a32cd" points="259.96,-127.76 253.79,-136.37 263.98,-133.49 259.96,-127.76"/>
<text text-anchor="middle" x="318" y="-110" font-family="Helvetica,sans-Serif" font-size="10.00"> elements</text>
</g>
<!-- Node7 -->
<g id="node7" class="node">
<title>Node7</title>
<g id="a_node7"><a xlink:href="class_p4_1_1_resolution_context.html" target="_top" xlink:title="Visitor mixin for looking up names in enclosing scopes from the Visitor::Context.">
<polygon fill="white" stroke="black" points="0,-68.5 0,-87.5 125,-87.5 125,-68.5 0,-68.5"/>
<text text-anchor="middle" x="62.5" y="-75.5" font-family="Helvetica,sans-Serif" font-size="10.00">P4::ResolutionContext</text>
</a>
</g>
</g>
<!-- Node3&#45;&gt;Node7 -->
<g id="edge12" class="edge">
<title>Node3&#45;&gt;Node7</title>
<path fill="none" stroke="midnightblue" d="M208.62,-132.87C172.95,-119.72 116.92,-99.07 85.62,-87.53"/>
<polygon fill="midnightblue" stroke="midnightblue" points="207.51,-136.2 218.1,-136.37 209.93,-129.63 207.51,-136.2"/>
</g>
<!-- Node4 -->
<g id="node4" class="node">
<title>Node4</title>
<g id="a_node4"><a xlink:href="classcstring.html" target="_top" xlink:title=" ">
<polygon fill="white" stroke="black" points="216.5,-204.5 216.5,-223.5 266.5,-223.5 266.5,-204.5 216.5,-204.5"/>
<text text-anchor="middle" x="241.5" y="-211.5" font-family="Helvetica,sans-Serif" font-size="10.00">cstring</text>
</a>
</g>
</g>
<!-- Node4&#45;&gt;Node3 -->
<g id="edge3" class="edge">
<title>Node4&#45;&gt;Node3</title>
<path fill="none" stroke="#9a32cd" stroke-dasharray="5,2" d="M241.5,-194.04C241.5,-181.47 241.5,-165.56 241.5,-155.84"/>
<polygon fill="#9a32cd" stroke="#9a32cd" points="238,-194.37 241.5,-204.37 245,-194.37 238,-194.37"/>
<text text-anchor="middle" x="276.5" y="-177" font-family="Helvetica,sans-Serif" font-size="10.00"> internalName</text>
</g>
<!-- Node4&#45;&gt;Node4 -->
<g id="edge4" class="edge">
<title>Node4&#45;&gt;Node4</title>
<path fill="none" stroke="#9a32cd" stroke-dasharray="5,2" d="M276.95,-219.58C281.5,-218.61 284.5,-216.75 284.5,-214 284.5,-209.48 276.41,-207.37 266.68,-207.65"/>
<polygon fill="#9a32cd" stroke="#9a32cd" points="276.39,-216.11 266.68,-220.35 276.91,-223.1 276.39,-216.11"/>
<text text-anchor="middle" x="304" y="-217" font-family="Helvetica,sans-Serif" font-size="10.00"> empty</text>
<text text-anchor="middle" x="304" y="-206" font-family="Helvetica,sans-Serif" font-size="10.00">newline</text>
</g>
<!-- Node5&#45;&gt;Node3 -->
<g id="edge5" class="edge">
<title>Node5&#45;&gt;Node3</title>
<path fill="none" stroke="#9a32cd" stroke-dasharray="5,2" d="M364.31,-24.08C391.93,-38.52 427.15,-63.18 410.5,-89 379.35,-137.32 304.25,-144.99 265.51,-145.57"/>
<polygon fill="#9a32cd" stroke="#9a32cd" points="365.83,-20.92 355.32,-19.58 362.7,-27.18 365.83,-20.92"/>
<text text-anchor="middle" x="452.5" y="-81" font-family="Helvetica,sans-Serif" font-size="10.00"> split_link</text>
<text text-anchor="middle" x="452.5" y="-70" font-family="Helvetica,sans-Serif" font-size="10.00">split_link_mem</text>
</g>
<!-- Node5&#45;&gt;Node5 -->
<g id="edge6" class="edge">
<title>Node5&#45;&gt;Node5</title>
<path fill="none" stroke="#9a32cd" stroke-dasharray="5,2" d="M401.9,-14.4C406.62,-13.4 409.5,-11.93 409.5,-10 409.5,-6.91 402.12,-5.01 391.65,-4.31"/>
<polygon fill="#9a32cd" stroke="#9a32cd" points="401.13,-10.97 391.65,-15.69 402.01,-17.91 401.13,-10.97"/>
<text text-anchor="middle" x="422" y="-7.5" font-family="Helvetica,sans-Serif" font-size="10.00"> prev</text>
</g>
<!-- Node6&#45;&gt;Node5 -->
<g id="edge7" class="edge">
<title>Node6&#45;&gt;Node5</title>
<path fill="none" stroke="#9a32cd" stroke-dasharray="5,2" d="M335.5,-58.04C335.5,-45.47 335.5,-29.56 335.5,-19.84"/>
<polygon fill="#9a32cd" stroke="#9a32cd" points="332,-58.37 335.5,-68.37 339,-58.37 332,-58.37"/>
<text text-anchor="middle" x="355.5" y="-41" font-family="Helvetica,sans-Serif" font-size="10.00"> visitors</text>
</g>
<!-- Node7&#45;&gt;Node1 -->
<g id="edge11" class="edge">
<title>Node7&#45;&gt;Node1</title>
<path fill="none" stroke="#8b1a1a" d="M76.59,-60.68C87.74,-47.78 102.87,-30.26 111.86,-19.84"/>
<polygon fill="#8b1a1a" stroke="#8b1a1a" points="73.84,-58.52 69.95,-68.37 79.14,-63.09 73.84,-58.52"/>
</g>
<!-- Node8 -->
<g id="node8" class="node">
<title>Node8</title>
<g id="a_node8"><a xlink:href="class_p4_1_1_declaration_lookup.html" target="_top" xlink:title=" ">
<polygon fill="white" stroke="black" points="0,-136.5 0,-155.5 125,-155.5 125,-136.5 0,-136.5"/>
<text text-anchor="middle" x="62.5" y="-143.5" font-family="Helvetica,sans-Serif" font-size="10.00">P4::DeclarationLookup</text>
</a>
</g>
</g>
<!-- Node8&#45;&gt;Node7 -->
<g id="edge13" class="edge">
<title>Node8&#45;&gt;Node7</title>
<path fill="none" stroke="midnightblue" d="M62.5,-126.04C62.5,-113.47 62.5,-97.56 62.5,-87.84"/>
<polygon fill="midnightblue" stroke="midnightblue" points="59,-126.37 62.5,-136.37 66,-126.37 59,-126.37"/>
</g>
</g>
</svg>
