<?xml version="1.0" encoding="UTF-8" standalone="no"?>
<!DOCTYPE svg PUBLIC "-//W3C//DTD SVG 1.1//EN"
 "http://www.w3.org/Graphics/SVG/1.1/DTD/svg11.dtd">
<!-- Generated by graphviz version 2.43.0 (0)
 -->
<!-- Title: P4Tools::P4Testgen::ConcolicResolver Pages: 1 -->
<svg width="378pt" height="244pt"
 viewBox="0.00 0.00 377.50 244.00" xmlns="http://www.w3.org/2000/svg" xmlns:xlink="http://www.w3.org/1999/xlink">
<g id="graph0" class="graph" transform="scale(1 1) rotate(0) translate(4 240)">
<title>P4Tools::P4Testgen::ConcolicResolver</title>
<polygon fill="white" stroke="transparent" points="-4,4 -4,-240 373.5,-240 373.5,4 -4,4"/>
<!-- Node1 -->
<g id="node1" class="node">
<title>Node1</title>
<g id="a_node1"><a xlink:title=" ">
<polygon fill="#bfbfbf" stroke="black" points="0,-0.5 0,-30.5 109,-30.5 109,-0.5 0,-0.5"/>
<text text-anchor="start" x="8" y="-18.5" font-family="Helvetica,sans-Serif" font-size="10.00">P4Tools::P4Testgen</text>
<text text-anchor="middle" x="54.5" y="-7.5" font-family="Helvetica,sans-Serif" font-size="10.00">::ConcolicResolver</text>
</a>
</g>
</g>
<!-- Node2 -->
<g id="node2" class="node">
<title>Node2</title>
<g id="a_node2"><a xlink:href="class_inspector.html" target="_top" xlink:title=" ">
<polygon fill="white" stroke="black" points="23.5,-79.5 23.5,-98.5 85.5,-98.5 85.5,-79.5 23.5,-79.5"/>
<text text-anchor="middle" x="54.5" y="-86.5" font-family="Helvetica,sans-Serif" font-size="10.00">Inspector</text>
</a>
</g>
</g>
<!-- Node2&#45;&gt;Node1 -->
<g id="edge1" class="edge">
<title>Node2&#45;&gt;Node1</title>
<path fill="none" stroke="midnightblue" d="M54.5,-68.9C54.5,-56.82 54.5,-41.47 54.5,-30.51"/>
<polygon fill="midnightblue" stroke="midnightblue" points="51,-69.23 54.5,-79.23 58,-69.23 51,-69.23"/>
</g>
<!-- Node3 -->
<g id="node3" class="node">
<title>Node3</title>
<g id="a_node3"><a xlink:href="class_visitor.html" target="_top" xlink:title=" ">
<polygon fill="white" stroke="black" points="129.5,-147.5 129.5,-166.5 177.5,-166.5 177.5,-147.5 129.5,-147.5"/>
<text text-anchor="middle" x="153.5" y="-154.5" font-family="Helvetica,sans-Serif" font-size="10.00">Visitor</text>
</a>
</g>
</g>
<!-- Node3&#45;&gt;Node2 -->
<g id="edge2" class="edge">
<title>Node3&#45;&gt;Node2</title>
<path fill="none" stroke="midnightblue" d="M128.86,-142.17C121.87,-138.07 114.3,-133.48 107.5,-129 92.62,-119.19 76.19,-106.86 65.63,-98.72"/>
<polygon fill="midnightblue" stroke="midnightblue" points="127.51,-145.43 137.92,-147.39 131.01,-139.37 127.51,-145.43"/>
</g>
<!-- Node3&#45;&gt;Node3 -->
<g id="edge10" class="edge">
<title>Node3&#45;&gt;Node3</title>
<path fill="none" stroke="#9a32cd" stroke-dasharray="5,2" d="M187.92,-162.29C192.48,-161.39 195.5,-159.63 195.5,-157 195.5,-152.69 187.36,-150.7 177.67,-151.04"/>
<polygon fill="#9a32cd" stroke="#9a32cd" points="187.42,-158.82 177.67,-162.96 187.88,-165.8 187.42,-158.82"/>
<text text-anchor="middle" x="220.5" y="-154.5" font-family="Helvetica,sans-Serif" font-size="10.00"> called_by</text>
</g>
<!-- Node5 -->
<g id="node5" class="node">
<title>Node5</title>
<g id="a_node5"><a xlink:href="class_split_flow_visit__base.html" target="_top" xlink:title=" ">
<polygon fill="white" stroke="black" points="159.5,-6 159.5,-25 271.5,-25 271.5,-6 159.5,-6"/>
<text text-anchor="middle" x="215.5" y="-13" font-family="Helvetica,sans-Serif" font-size="10.00">SplitFlowVisit_base</text>
</a>
</g>
</g>
<!-- Node3&#45;&gt;Node5 -->
<g id="edge9" class="edge">
<title>Node3&#45;&gt;Node5</title>
<path fill="none" stroke="#9a32cd" stroke-dasharray="5,2" d="M141.35,-138.93C131.37,-122.65 120.41,-97.76 130.5,-78 143.76,-52.05 173.65,-34.51 194.2,-25.01"/>
<polygon fill="#9a32cd" stroke="#9a32cd" points="138.51,-140.99 146.94,-147.42 144.36,-137.14 138.51,-140.99"/>
<text text-anchor="middle" x="135.5" y="-86.5" font-family="Helvetica,sans-Serif" font-size="10.00"> v</text>
</g>
<!-- Node6 -->
<g id="node6" class="node">
<title>Node6</title>
<g id="a_node6"><a xlink:title=" ">
<polygon fill="white" stroke="#bfbfbf" points="150,-79.5 150,-98.5 281,-98.5 281,-79.5 150,-79.5"/>
<text text-anchor="middle" x="215.5" y="-86.5" font-family="Helvetica,sans-Serif" font-size="10.00">std::vector&lt; Visitor * &gt;</text>
</a>
</g>
</g>
<!-- Node3&#45;&gt;Node6 -->
<g id="edge8" class="edge">
<title>Node3&#45;&gt;Node6</title>
<path fill="none" stroke="#9a32cd" stroke-dasharray="5,2" d="M168.49,-140.05C180.64,-127.11 197.32,-109.36 207.19,-98.84"/>
<polygon fill="#9a32cd" stroke="#9a32cd" points="165.9,-137.69 161.61,-147.37 171,-142.48 165.9,-137.69"/>
<text text-anchor="middle" x="213" y="-121" font-family="Helvetica,sans-Serif" font-size="10.00"> elements</text>
</g>
<!-- Node4 -->
<g id="node4" class="node">
<title>Node4</title>
<g id="a_node4"><a xlink:href="classcstring.html" target="_top" xlink:title=" ">
<polygon fill="white" stroke="black" points="128.5,-215.5 128.5,-234.5 178.5,-234.5 178.5,-215.5 128.5,-215.5"/>
<text text-anchor="middle" x="153.5" y="-222.5" font-family="Helvetica,sans-Serif" font-size="10.00">cstring</text>
</a>
</g>
</g>
<!-- Node4&#45;&gt;Node3 -->
<g id="edge3" class="edge">
<title>Node4&#45;&gt;Node3</title>
<path fill="none" stroke="#9a32cd" stroke-dasharray="5,2" d="M153.5,-205.04C153.5,-192.47 153.5,-176.56 153.5,-166.84"/>
<polygon fill="#9a32cd" stroke="#9a32cd" points="150,-205.37 153.5,-215.37 157,-205.37 150,-205.37"/>
<text text-anchor="middle" x="188.5" y="-188" font-family="Helvetica,sans-Serif" font-size="10.00"> internalName</text>
</g>
<!-- Node4&#45;&gt;Node4 -->
<g id="edge4" class="edge">
<title>Node4&#45;&gt;Node4</title>
<path fill="none" stroke="#9a32cd" stroke-dasharray="5,2" d="M188.95,-230.58C193.5,-229.61 196.5,-227.75 196.5,-225 196.5,-220.48 188.41,-218.37 178.68,-218.65"/>
<polygon fill="#9a32cd" stroke="#9a32cd" points="188.39,-227.11 178.68,-231.35 188.91,-234.1 188.39,-227.11"/>
<text text-anchor="middle" x="216" y="-228" font-family="Helvetica,sans-Serif" font-size="10.00"> empty</text>
<text text-anchor="middle" x="216" y="-217" font-family="Helvetica,sans-Serif" font-size="10.00">newline</text>
</g>
<!-- Node5&#45;&gt;Node3 -->
<g id="edge5" class="edge">
<title>Node5&#45;&gt;Node3</title>
<path fill="none" stroke="#9a32cd" stroke-dasharray="5,2" d="M243.07,-29.98C270.53,-45.35 306.46,-72.02 290.5,-100 267.85,-139.73 210.46,-151.29 177.6,-154.64"/>
<polygon fill="#9a32cd" stroke="#9a32cd" points="244.64,-26.85 234.18,-25.21 241.34,-33.02 244.64,-26.85"/>
<text text-anchor="middle" x="331.5" y="-92" font-family="Helvetica,sans-Serif" font-size="10.00"> split_link</text>
<text text-anchor="middle" x="331.5" y="-81" font-family="Helvetica,sans-Serif" font-size="10.00">split_link_mem</text>
</g>
<!-- Node5&#45;&gt;Node5 -->
<g id="edge6" class="edge">
<title>Node5&#45;&gt;Node5</title>
<path fill="none" stroke="#9a32cd" stroke-dasharray="5,2" d="M281.54,-20.81C286.47,-19.62 289.5,-17.85 289.5,-15.5 289.5,-11.83 282.12,-9.57 271.65,-8.74"/>
<polygon fill="#9a32cd" stroke="#9a32cd" points="281.03,-17.35 271.65,-22.26 282.05,-24.27 281.03,-17.35"/>
<text text-anchor="middle" x="302" y="-13" font-family="Helvetica,sans-Serif" font-size="10.00"> prev</text>
</g>
<!-- Node6&#45;&gt;Node5 -->
<g id="edge7" class="edge">
<title>Node6&#45;&gt;Node5</title>
<path fill="none" stroke="#9a32cd" stroke-dasharray="5,2" d="M215.5,-69.09C215.5,-54.93 215.5,-36.2 215.5,-25.34"/>
<polygon fill="#9a32cd" stroke="#9a32cd" points="212,-69.23 215.5,-79.23 219,-69.23 212,-69.23"/>
<text text-anchor="middle" x="235.5" y="-52" font-family="Helvetica,sans-Serif" font-size="10.00"> visitors</text>
</g>
</g>
</svg>
