<?xml version="1.0" encoding="UTF-8" standalone="no"?>
<!DOCTYPE svg PUBLIC "-//W3C//DTD SVG 1.1//EN"
 "http://www.w3.org/Graphics/SVG/1.1/DTD/svg11.dtd">
<!-- Generated by graphviz version 2.43.0 (0)
 -->
<!-- Title: UBPF::UBPFTypeFactory Pages: 1 -->
<svg width="208pt" height="278pt"
 viewBox="0.00 0.00 207.50 278.00" xmlns="http://www.w3.org/2000/svg" xmlns:xlink="http://www.w3.org/1999/xlink">
<g id="graph0" class="graph" transform="scale(1 1) rotate(0) translate(4 274)">
<title>UBPF::UBPFTypeFactory</title>
<polygon fill="white" stroke="transparent" points="-4,4 -4,-274 203.5,-274 203.5,4 -4,4"/>
<!-- Node1 -->
<g id="node1" class="node">
<title>Node1</title>
<g id="a_node1"><a xlink:title=" ">
<polygon fill="#bfbfbf" stroke="black" points="0,-0.5 0,-19.5 131,-19.5 131,-0.5 0,-0.5"/>
<text text-anchor="middle" x="65.5" y="-7.5" font-family="Helvetica,sans-Serif" font-size="10.00">UBPF::UBPFTypeFactory</text>
</a>
</g>
</g>
<!-- Node2 -->
<g id="node2" class="node">
<title>Node2</title>
<g id="a_node2"><a xlink:href="class_e_b_p_f_1_1_e_b_p_f_type_factory.html" target="_top" xlink:title=" ">
<polygon fill="white" stroke="black" points="1.5,-57.5 1.5,-76.5 129.5,-76.5 129.5,-57.5 1.5,-57.5"/>
<text text-anchor="middle" x="65.5" y="-64.5" font-family="Helvetica,sans-Serif" font-size="10.00">EBPF::EBPFTypeFactory</text>
</a>
</g>
</g>
<!-- Node2&#45;&gt;Node1 -->
<g id="edge1" class="edge">
<title>Node2&#45;&gt;Node1</title>
<path fill="none" stroke="midnightblue" d="M65.5,-47.12C65.5,-37.82 65.5,-27.06 65.5,-19.71"/>
<polygon fill="midnightblue" stroke="midnightblue" points="62,-47.41 65.5,-57.41 69,-47.41 62,-47.41"/>
</g>
<!-- Node2&#45;&gt;Node2 -->
<g id="edge7" class="edge">
<title>Node2&#45;&gt;Node2</title>
<path fill="none" stroke="#9a32cd" stroke-dasharray="5,2" d="M140.01,-70.69C144.68,-69.82 147.5,-68.59 147.5,-67 147.5,-64.46 140.29,-62.84 129.79,-62.14"/>
<polygon fill="#9a32cd" stroke="#9a32cd" points="139.32,-67.24 129.79,-71.86 140.12,-74.2 139.32,-67.24"/>
<text text-anchor="middle" x="170" y="-64.5" font-family="Helvetica,sans-Serif" font-size="10.00"> instance</text>
</g>
<!-- Node3 -->
<g id="node3" class="node">
<title>Node3</title>
<g id="a_node3"><a xlink:href="class_p4_1_1_type_map.html" target="_top" xlink:title=" ">
<polygon fill="white" stroke="black" points="26.5,-124.5 26.5,-143.5 104.5,-143.5 104.5,-124.5 26.5,-124.5"/>
<text text-anchor="middle" x="65.5" y="-131.5" font-family="Helvetica,sans-Serif" font-size="10.00">P4::TypeMap</text>
</a>
</g>
</g>
<!-- Node3&#45;&gt;Node2 -->
<g id="edge2" class="edge">
<title>Node3&#45;&gt;Node2</title>
<path fill="none" stroke="#9a32cd" stroke-dasharray="5,2" d="M65.5,-114.04C65.5,-101.67 65.5,-86.12 65.5,-76.63"/>
<polygon fill="#9a32cd" stroke="#9a32cd" points="62,-114.23 65.5,-124.23 69,-114.23 62,-114.23"/>
<text text-anchor="middle" x="88.5" y="-98" font-family="Helvetica,sans-Serif" font-size="10.00"> typeMap</text>
</g>
<!-- Node4 -->
<g id="node4" class="node">
<title>Node4</title>
<g id="a_node4"><a xlink:href="class_p4_1_1_program_map.html" target="_top" xlink:title=" ">
<polygon fill="white" stroke="black" points="17,-181.5 17,-200.5 114,-200.5 114,-181.5 17,-181.5"/>
<text text-anchor="middle" x="65.5" y="-188.5" font-family="Helvetica,sans-Serif" font-size="10.00">P4::ProgramMap</text>
</a>
</g>
</g>
<!-- Node4&#45;&gt;Node3 -->
<g id="edge3" class="edge">
<title>Node4&#45;&gt;Node3</title>
<path fill="none" stroke="midnightblue" d="M65.5,-171.12C65.5,-161.82 65.5,-151.06 65.5,-143.71"/>
<polygon fill="midnightblue" stroke="midnightblue" points="62,-171.41 65.5,-181.41 69,-171.41 62,-171.41"/>
</g>
<!-- Node5 -->
<g id="node5" class="node">
<title>Node5</title>
<g id="a_node5"><a xlink:href="class_i_has_db_print.html" target="_top" xlink:title=" ">
<polygon fill="white" stroke="black" points="0.5,-249.5 0.5,-268.5 74.5,-268.5 74.5,-249.5 0.5,-249.5"/>
<text text-anchor="middle" x="37.5" y="-256.5" font-family="Helvetica,sans-Serif" font-size="10.00">IHasDbPrint</text>
</a>
</g>
</g>
<!-- Node5&#45;&gt;Node4 -->
<g id="edge4" class="edge">
<title>Node5&#45;&gt;Node4</title>
<path fill="none" stroke="midnightblue" d="M45.22,-239.81C50.6,-227.12 57.54,-210.76 61.75,-200.84"/>
<polygon fill="midnightblue" stroke="midnightblue" points="41.84,-238.8 41.16,-249.37 48.29,-241.53 41.84,-238.8"/>
</g>
<!-- Node6 -->
<g id="node6" class="node">
<title>Node6</title>
<g id="a_node6"><a xlink:href="classcstring.html" target="_top" xlink:title=" ">
<polygon fill="white" stroke="black" points="92.5,-249.5 92.5,-268.5 142.5,-268.5 142.5,-249.5 92.5,-249.5"/>
<text text-anchor="middle" x="117.5" y="-256.5" font-family="Helvetica,sans-Serif" font-size="10.00">cstring</text>
</a>
</g>
</g>
<!-- Node6&#45;&gt;Node4 -->
<g id="edge5" class="edge">
<title>Node6&#45;&gt;Node4</title>
<path fill="none" stroke="#9a32cd" stroke-dasharray="5,2" d="M104.35,-241.31C94.21,-228.44 80.59,-211.16 72.47,-200.84"/>
<polygon fill="#9a32cd" stroke="#9a32cd" points="101.76,-243.68 110.7,-249.37 107.26,-239.35 101.76,-243.68"/>
<text text-anchor="middle" x="118" y="-222" font-family="Helvetica,sans-Serif" font-size="10.00"> mapKind</text>
</g>
<!-- Node6&#45;&gt;Node6 -->
<g id="edge6" class="edge">
<title>Node6&#45;&gt;Node6</title>
<path fill="none" stroke="#9a32cd" stroke-dasharray="5,2" d="M152.95,-264.58C157.5,-263.61 160.5,-261.75 160.5,-259 160.5,-254.48 152.41,-252.37 142.68,-252.65"/>
<polygon fill="#9a32cd" stroke="#9a32cd" points="152.39,-261.11 142.68,-265.35 152.91,-268.1 152.39,-261.11"/>
<text text-anchor="middle" x="180" y="-262" font-family="Helvetica,sans-Serif" font-size="10.00"> empty</text>
<text text-anchor="middle" x="180" y="-251" font-family="Helvetica,sans-Serif" font-size="10.00">newline</text>
</g>
</g>
</svg>
