<?xml version="1.0" encoding="UTF-8" standalone="no"?>
<!DOCTYPE svg PUBLIC "-//W3C//DTD SVG 1.1//EN"
 "http://www.w3.org/Graphics/SVG/1.1/DTD/svg11.dtd">
<!-- Generated by graphviz version 2.43.0 (0)
 -->
<!-- Title: JSONLoader Pages: 1 -->
<svg width="422pt" height="386pt"
 viewBox="0.00 0.00 422.00 386.00" xmlns="http://www.w3.org/2000/svg" xmlns:xlink="http://www.w3.org/1999/xlink">
<g id="graph0" class="graph" transform="scale(1 1) rotate(0) translate(4 382)">
<title>JSONLoader</title>
<polygon fill="white" stroke="transparent" points="-4,4 -4,-382 418,-382 418,4 -4,4"/>
<!-- Node1 -->
<g id="node1" class="node">
<title>Node1</title>
<g id="a_node1"><a xlink:title=" ">
<polygon fill="#bfbfbf" stroke="black" points="299,-0.5 299,-19.5 373,-19.5 373,-0.5 299,-0.5"/>
<text text-anchor="middle" x="336" y="-7.5" font-family="Helvetica,sans-Serif" font-size="10.00">JSONLoader</text>
</a>
</g>
</g>
<!-- Node2 -->
<g id="node2" class="node">
<title>Node2</title>
<g id="a_node2"><a xlink:title=" ">
<polygon fill="white" stroke="#bfbfbf" points="237,-67.5 237,-97.5 351,-97.5 351,-67.5 237,-67.5"/>
<text text-anchor="start" x="245" y="-85.5" font-family="Helvetica,sans-Serif" font-size="10.00">std::unordered_map</text>
<text text-anchor="middle" x="294" y="-74.5" font-family="Helvetica,sans-Serif" font-size="10.00">&lt; int, IR::Node * &gt;</text>
</a>
</g>
</g>
<!-- Node2&#45;&gt;Node1 -->
<g id="edge1" class="edge">
<title>Node2&#45;&gt;Node1</title>
<path fill="none" stroke="#9a32cd" stroke-dasharray="5,2" d="M302.77,-57.99C305.66,-51.32 309.13,-44.2 313,-38 317.05,-31.53 322.57,-24.99 327.19,-19.97"/>
<polygon fill="#9a32cd" stroke="#9a32cd" points="299.53,-56.68 299,-67.26 306.01,-59.32 299.53,-56.68"/>
<text text-anchor="middle" x="339" y="-41" font-family="Helvetica,sans-Serif" font-size="10.00"> node_refs</text>
</g>
<!-- Node3 -->
<g id="node3" class="node">
<title>Node3</title>
<g id="a_node3"><a xlink:href="class_i_r_1_1_node.html" target="_top" xlink:title=" ">
<polygon fill="white" stroke="black" points="265,-145.5 265,-164.5 323,-164.5 323,-145.5 265,-145.5"/>
<text text-anchor="middle" x="294" y="-152.5" font-family="Helvetica,sans-Serif" font-size="10.00">IR::Node</text>
</a>
</g>
</g>
<!-- Node3&#45;&gt;Node2 -->
<g id="edge2" class="edge">
<title>Node3&#45;&gt;Node2</title>
<path fill="none" stroke="#9a32cd" stroke-dasharray="5,2" d="M294,-135.24C294,-123.41 294,-108.38 294,-97.58"/>
<polygon fill="#9a32cd" stroke="#9a32cd" points="290.5,-135.36 294,-145.36 297.5,-135.36 290.5,-135.36"/>
<text text-anchor="middle" x="318.5" y="-119" font-family="Helvetica,sans-Serif" font-size="10.00"> elements</text>
</g>
<!-- Node4 -->
<g id="node4" class="node">
<title>Node4</title>
<g id="a_node4"><a xlink:href="class_i_r_1_1_i_node.html" target="_top" xlink:title=" ">
<polygon fill="white" stroke="black" points="263.5,-221.5 263.5,-240.5 324.5,-240.5 324.5,-221.5 263.5,-221.5"/>
<text text-anchor="middle" x="294" y="-228.5" font-family="Helvetica,sans-Serif" font-size="10.00">IR::INode</text>
</a>
</g>
</g>
<!-- Node4&#45;&gt;Node3 -->
<g id="edge3" class="edge">
<title>Node4&#45;&gt;Node3</title>
<path fill="none" stroke="midnightblue" d="M294,-211.07C294,-196.18 294,-176.11 294,-164.77"/>
<polygon fill="midnightblue" stroke="midnightblue" points="290.5,-211.22 294,-221.22 297.5,-211.22 290.5,-211.22"/>
</g>
<!-- Node5 -->
<g id="node5" class="node">
<title>Node5</title>
<g id="a_node5"><a xlink:href="class_util_1_1_i_has_source_info.html" target="_top" xlink:title=" ">
<polygon fill="white" stroke="black" points="125.5,-300.5 125.5,-319.5 238.5,-319.5 238.5,-300.5 125.5,-300.5"/>
<text text-anchor="middle" x="182" y="-307.5" font-family="Helvetica,sans-Serif" font-size="10.00">Util::IHasSourceInfo</text>
</a>
</g>
</g>
<!-- Node5&#45;&gt;Node4 -->
<g id="edge4" class="edge">
<title>Node5&#45;&gt;Node4</title>
<path fill="none" stroke="midnightblue" d="M202.84,-294.67C225.95,-278.78 262.49,-253.66 281.53,-240.57"/>
<polygon fill="midnightblue" stroke="midnightblue" points="200.67,-291.92 194.41,-300.47 204.64,-297.68 200.67,-291.92"/>
</g>
<!-- Node6 -->
<g id="node6" class="node">
<title>Node6</title>
<g id="a_node6"><a xlink:href="class_i_has_db_print.html" target="_top" xlink:title=" ">
<polygon fill="white" stroke="black" points="257,-300.5 257,-319.5 331,-319.5 331,-300.5 257,-300.5"/>
<text text-anchor="middle" x="294" y="-307.5" font-family="Helvetica,sans-Serif" font-size="10.00">IHasDbPrint</text>
</a>
</g>
</g>
<!-- Node6&#45;&gt;Node4 -->
<g id="edge5" class="edge">
<title>Node6&#45;&gt;Node4</title>
<path fill="none" stroke="midnightblue" d="M294,-290.31C294,-274.59 294,-252.81 294,-240.81"/>
<polygon fill="midnightblue" stroke="midnightblue" points="290.5,-290.47 294,-300.47 297.5,-290.47 290.5,-290.47"/>
</g>
<!-- Node7 -->
<g id="node7" class="node">
<title>Node7</title>
<g id="a_node7"><a xlink:href="class_i_castable.html" target="_top" xlink:title=" ">
<polygon fill="white" stroke="black" points="349,-300.5 349,-319.5 411,-319.5 411,-300.5 349,-300.5"/>
<text text-anchor="middle" x="380" y="-307.5" font-family="Helvetica,sans-Serif" font-size="10.00">ICastable</text>
</a>
</g>
</g>
<!-- Node7&#45;&gt;Node4 -->
<g id="edge6" class="edge">
<title>Node7&#45;&gt;Node4</title>
<path fill="none" stroke="midnightblue" d="M362.57,-293.39C344.77,-277.46 317.81,-253.32 303.57,-240.57"/>
<polygon fill="midnightblue" stroke="midnightblue" points="360.68,-296.4 370.47,-300.47 365.35,-291.19 360.68,-296.4"/>
</g>
<!-- Node11 -->
<g id="node11" class="node">
<title>Node11</title>
<g id="a_node11"><a xlink:href="class_json_data.html" target="_top" xlink:title=" ">
<polygon fill="white" stroke="black" points="349,-183.5 349,-202.5 409,-202.5 409,-183.5 349,-183.5"/>
<text text-anchor="middle" x="379" y="-190.5" font-family="Helvetica,sans-Serif" font-size="10.00">JsonData</text>
</a>
</g>
</g>
<!-- Node7&#45;&gt;Node11 -->
<g id="edge12" class="edge">
<title>Node7&#45;&gt;Node11</title>
<path fill="none" stroke="midnightblue" d="M379.84,-290.25C379.62,-265.06 379.24,-221.32 379.08,-202.74"/>
<polygon fill="midnightblue" stroke="midnightblue" points="376.34,-290.39 379.92,-300.36 383.34,-290.33 376.34,-290.39"/>
</g>
<!-- Node8 -->
<g id="node8" class="node">
<title>Node8</title>
<g id="a_node8"><a xlink:href="struct_r_t_t_i_1_1_base.html" target="_top" xlink:title=" ">
<polygon fill="white" stroke="black" points="346,-358.5 346,-377.5 414,-377.5 414,-358.5 346,-358.5"/>
<text text-anchor="middle" x="380" y="-365.5" font-family="Helvetica,sans-Serif" font-size="10.00">RTTI::Base</text>
</a>
</g>
</g>
<!-- Node8&#45;&gt;Node7 -->
<g id="edge7" class="edge">
<title>Node8&#45;&gt;Node7</title>
<path fill="none" stroke="midnightblue" d="M380,-347.95C380,-338.29 380,-327.03 380,-319.51"/>
<polygon fill="midnightblue" stroke="midnightblue" points="376.5,-348.25 380,-358.25 383.5,-348.25 376.5,-348.25"/>
</g>
<!-- Node9 -->
<g id="node9" class="node">
<title>Node9</title>
<g id="a_node9"><a xlink:href="class_util_1_1_source_info.html" target="_top" xlink:title=" ">
<polygon fill="white" stroke="black" points="114,-221.5 114,-240.5 206,-240.5 206,-221.5 114,-221.5"/>
<text text-anchor="middle" x="160" y="-228.5" font-family="Helvetica,sans-Serif" font-size="10.00">Util::SourceInfo</text>
</a>
</g>
</g>
<!-- Node9&#45;&gt;Node3 -->
<g id="edge8" class="edge">
<title>Node9&#45;&gt;Node3</title>
<path fill="none" stroke="#9a32cd" stroke-dasharray="5,2" d="M184.59,-216.42C211.98,-201.29 255.43,-177.3 278.47,-164.58"/>
<polygon fill="#9a32cd" stroke="#9a32cd" points="182.7,-213.47 175.63,-221.37 186.08,-219.6 182.7,-213.47"/>
<text text-anchor="middle" x="261.5" y="-190.5" font-family="Helvetica,sans-Serif" font-size="10.00"> srcInfo</text>
</g>
<!-- Node10 -->
<g id="node10" class="node">
<title>Node10</title>
<g id="a_node10"><a xlink:href="classcstring.html" target="_top" xlink:title=" ">
<polygon fill="white" stroke="black" points="0,-300.5 0,-319.5 50,-319.5 50,-300.5 0,-300.5"/>
<text text-anchor="middle" x="25" y="-307.5" font-family="Helvetica,sans-Serif" font-size="10.00">cstring</text>
</a>
</g>
</g>
<!-- Node10&#45;&gt;Node9 -->
<g id="edge9" class="edge">
<title>Node10&#45;&gt;Node9</title>
<path fill="none" stroke="#9a32cd" stroke-dasharray="5,2" d="M48.65,-295.51C76.41,-279.68 121.61,-253.89 144.97,-240.57"/>
<polygon fill="#9a32cd" stroke="#9a32cd" points="46.92,-292.47 39.96,-300.47 50.38,-298.55 46.92,-292.47"/>
<text text-anchor="middle" x="136" y="-273" font-family="Helvetica,sans-Serif" font-size="10.00"> filename</text>
<text text-anchor="middle" x="136" y="-262" font-family="Helvetica,sans-Serif" font-size="10.00">srcBrief</text>
</g>
<!-- Node10&#45;&gt;Node10 -->
<g id="edge10" class="edge">
<title>Node10&#45;&gt;Node10</title>
<path fill="none" stroke="#9a32cd" stroke-dasharray="5,2" d="M60.45,-314.6C65,-313.8 68,-312.27 68,-310 68,-306.28 59.91,-304.54 50.18,-304.77"/>
<polygon fill="#9a32cd" stroke="#9a32cd" points="59.94,-311.12 50.18,-315.23 60.37,-318.11 59.94,-311.12"/>
<text text-anchor="middle" x="87.5" y="-313" font-family="Helvetica,sans-Serif" font-size="10.00"> empty</text>
<text text-anchor="middle" x="87.5" y="-302" font-family="Helvetica,sans-Serif" font-size="10.00">newline</text>
</g>
<!-- Node11&#45;&gt;Node1 -->
<g id="edge11" class="edge">
<title>Node11&#45;&gt;Node1</title>
<path fill="none" stroke="#9a32cd" stroke-dasharray="5,2" d="M381.4,-173.48C384.43,-143.37 386.9,-82.67 365,-38 361.43,-30.71 354.99,-24.41 349.08,-19.73"/>
<polygon fill="#9a32cd" stroke="#9a32cd" points="377.92,-173.09 380.26,-183.43 384.87,-173.89 377.92,-173.09"/>
<text text-anchor="middle" x="395" y="-119" font-family="Helvetica,sans-Serif" font-size="10.00"> json</text>
</g>
</g>
</svg>
