<?xml version="1.0" encoding="UTF-8" standalone="no"?>
<!DOCTYPE svg PUBLIC "-//W3C//DTD SVG 1.1//EN"
 "http://www.w3.org/Graphics/SVG/1.1/DTD/svg11.dtd">
<!-- Generated by graphviz version 2.43.0 (0)
 -->
<!-- Title: ParserOptions Pages: 1 -->
<svg width="1011pt" height="334pt"
 viewBox="0.00 0.00 1011.00 333.50" xmlns="http://www.w3.org/2000/svg" xmlns:xlink="http://www.w3.org/1999/xlink">
<g id="graph0" class="graph" transform="scale(1 1) rotate(0) translate(4 329.5)">
<title>ParserOptions</title>
<polygon fill="white" stroke="transparent" points="-4,4 -4,-329.5 1007,-329.5 1007,4 -4,4"/>
<!-- Node1 -->
<g id="node1" class="node">
<title>Node1</title>
<g id="a_node1"><a xlink:title=" ">
<polygon fill="#bfbfbf" stroke="black" points="919,-211 919,-230 1003,-230 1003,-211 919,-211"/>
<text text-anchor="middle" x="961" y="-218" font-family="Helvetica,sans-Serif" font-size="10.00">ParserOptions</text>
</a>
</g>
</g>
<!-- Node2 -->
<g id="node2" class="node">
<title>Node2</title>
<g id="a_node2"><a xlink:href="class_util_1_1_options.html" target="_top" xlink:title=" ">
<polygon fill="white" stroke="black" points="805,-130 805,-149 882,-149 882,-130 805,-130"/>
<text text-anchor="middle" x="843.5" y="-137" font-family="Helvetica,sans-Serif" font-size="10.00">Util::Options</text>
</a>
</g>
</g>
<!-- Node2&#45;&gt;Node1 -->
<g id="edge1" class="edge">
<title>Node2&#45;&gt;Node1</title>
<path fill="none" stroke="midnightblue" d="M866.52,-154.94C890.05,-171.44 926.61,-197.09 946.31,-210.9"/>
<polygon fill="midnightblue" stroke="midnightblue" points="868.4,-151.99 858.2,-149.11 864.38,-157.72 868.4,-151.99"/>
</g>
<!-- Node3 -->
<g id="node3" class="node">
<title>Node3</title>
<g id="a_node3"><a xlink:title=" ">
<polygon fill="white" stroke="#bfbfbf" points="564,-94 564,-135 674,-135 674,-94 564,-94"/>
<text text-anchor="start" x="572" y="-123" font-family="Helvetica,sans-Serif" font-size="10.00">std::map&lt; cstring,</text>
<text text-anchor="start" x="572" y="-112" font-family="Helvetica,sans-Serif" font-size="10.00"> const Util::Options</text>
<text text-anchor="middle" x="619" y="-101" font-family="Helvetica,sans-Serif" font-size="10.00">::Option * &gt;</text>
</a>
</g>
</g>
<!-- Node3&#45;&gt;Node2 -->
<g id="edge2" class="edge">
<title>Node3&#45;&gt;Node2</title>
<path fill="none" stroke="#9a32cd" stroke-dasharray="5,2" d="M684.38,-121.73C723.46,-126.13 771.99,-131.58 804.9,-135.28"/>
<polygon fill="#9a32cd" stroke="#9a32cd" points="684.47,-118.22 674.15,-120.58 683.69,-125.18 684.47,-118.22"/>
<text text-anchor="middle" x="743" y="-135.5" font-family="Helvetica,sans-Serif" font-size="10.00"> options</text>
</g>
<!-- Node4 -->
<g id="node4" class="node">
<title>Node4</title>
<g id="a_node4"><a xlink:href="classcstring.html" target="_top" xlink:title=" ">
<polygon fill="white" stroke="black" points="156,-154 156,-173 206,-173 206,-154 156,-154"/>
<text text-anchor="middle" x="181" y="-161" font-family="Helvetica,sans-Serif" font-size="10.00">cstring</text>
</a>
</g>
</g>
<!-- Node4&#45;&gt;Node1 -->
<g id="edge15" class="edge">
<title>Node4&#45;&gt;Node1</title>
<path fill="none" stroke="#9a32cd" stroke-dasharray="5,2" d="M199.83,-179.74C231.8,-207.12 302.11,-259.5 372,-259.5 372,-259.5 372,-259.5 844.5,-259.5 881.11,-259.5 920.99,-241.69 943,-230.14"/>
<polygon fill="#9a32cd" stroke="#9a32cd" points="202.03,-177.02 192.2,-173.06 197.41,-182.28 202.03,-177.02"/>
<text text-anchor="middle" x="619" y="-317.5" font-family="Helvetica,sans-Serif" font-size="10.00"> compilerVersion</text>
<text text-anchor="middle" x="619" y="-306.5" font-family="Helvetica,sans-Serif" font-size="10.00">dumpFolder</text>
<text text-anchor="middle" x="619" y="-295.5" font-family="Helvetica,sans-Serif" font-size="10.00">exe_name</text>
<text text-anchor="middle" x="619" y="-284.5" font-family="Helvetica,sans-Serif" font-size="10.00">file</text>
<text text-anchor="start" x="578" y="-273.5" font-family="Helvetica,sans-Serif" font-size="10.00">preprocessor</text>
<text text-anchor="middle" x="619" y="-262.5" font-family="Helvetica,sans-Serif" font-size="10.00">_options</text>
</g>
<!-- Node4&#45;&gt;Node2 -->
<g id="edge8" class="edge">
<title>Node4&#45;&gt;Node2</title>
<path fill="none" stroke="#9a32cd" stroke-dasharray="5,2" d="M216.28,-163.12C327.08,-161.81 674.91,-157.03 787,-147.5 792.82,-147.01 798.96,-146.3 804.95,-145.52"/>
<polygon fill="#9a32cd" stroke="#9a32cd" points="215.97,-159.62 206.01,-163.24 216.05,-166.62 215.97,-159.62"/>
<text text-anchor="middle" x="494" y="-183.5" font-family="Helvetica,sans-Serif" font-size="10.00"> buildDate</text>
<text text-anchor="middle" x="494" y="-172.5" font-family="Helvetica,sans-Serif" font-size="10.00">compileCommand</text>
<text text-anchor="middle" x="494" y="-161.5" font-family="Helvetica,sans-Serif" font-size="10.00">message</text>
</g>
<!-- Node4&#45;&gt;Node3 -->
<g id="edge3" class="edge">
<title>Node4&#45;&gt;Node3</title>
<path fill="none" stroke="#9a32cd" stroke-dasharray="5,2" d="M216.4,-155.99C243.16,-150.4 281.28,-142.99 315,-138.5 401.7,-126.95 503.15,-120.3 563.9,-117.04"/>
<polygon fill="#9a32cd" stroke="#9a32cd" points="215.45,-152.61 206.39,-158.11 216.89,-159.46 215.45,-152.61"/>
<text text-anchor="middle" x="373" y="-141.5" font-family="Helvetica,sans-Serif" font-size="10.00"> keys</text>
</g>
<!-- Node4&#45;&gt;Node4 -->
<g id="edge4" class="edge">
<title>Node4&#45;&gt;Node4</title>
<path fill="none" stroke="#9a32cd" stroke-dasharray="5,2" d="M165.9,-183.27C167.09,-188 172.12,-191.5 181,-191.5 195.57,-191.5 199.79,-182.07 193.64,-173.26"/>
<polygon fill="#9a32cd" stroke="#9a32cd" points="169.37,-183.8 168.36,-173.26 162.57,-182.13 169.37,-183.8"/>
<text text-anchor="middle" x="181" y="-205.5" font-family="Helvetica,sans-Serif" font-size="10.00"> empty</text>
<text text-anchor="middle" x="181" y="-194.5" font-family="Helvetica,sans-Serif" font-size="10.00">newline</text>
</g>
<!-- Node5 -->
<g id="node5" class="node">
<title>Node5</title>
<g id="a_node5"><a xlink:href="class_util_1_1_options.html#struct_util_1_1_options_1_1_option" target="_top" xlink:title=" ">
<polygon fill="white" stroke="black" points="315,-69 315,-88 431,-88 431,-69 315,-69"/>
<text text-anchor="middle" x="373" y="-76" font-family="Helvetica,sans-Serif" font-size="10.00">Util::Options::Option</text>
</a>
</g>
</g>
<!-- Node4&#45;&gt;Node5 -->
<g id="edge6" class="edge">
<title>Node4&#45;&gt;Node5</title>
<path fill="none" stroke="#9a32cd" stroke-dasharray="5,2" d="M198.09,-146.87C213.38,-132.09 237.75,-111.07 263,-99.5 279.12,-92.12 297.73,-87.33 314.96,-84.22"/>
<polygon fill="#9a32cd" stroke="#9a32cd" points="195.59,-144.42 190.96,-153.95 200.52,-149.39 195.59,-144.42"/>
<text text-anchor="middle" x="280" y="-102.5" font-family="Helvetica,sans-Serif" font-size="10.00"> option</text>
</g>
<!-- Node7 -->
<g id="node7" class="node">
<title>Node7</title>
<g id="a_node7"><a xlink:title=" ">
<polygon fill="white" stroke="#bfbfbf" points="557,-202 557,-221 681,-221 681,-202 557,-202"/>
<text text-anchor="middle" x="619" y="-209" font-family="Helvetica,sans-Serif" font-size="10.00">std::vector&lt; cstring &gt;</text>
</a>
</g>
</g>
<!-- Node4&#45;&gt;Node7 -->
<g id="edge10" class="edge">
<title>Node4&#45;&gt;Node7</title>
<path fill="none" stroke="#9a32cd" stroke-dasharray="5,2" d="M216.04,-169.88C230.49,-172.46 247.53,-175.33 263,-177.5 365.7,-191.88 485.99,-202 556.88,-207.28"/>
<polygon fill="#9a32cd" stroke="#9a32cd" points="216.5,-166.41 206.04,-168.07 215.25,-173.3 216.5,-166.41"/>
<text text-anchor="middle" x="373" y="-199.5" font-family="Helvetica,sans-Serif" font-size="10.00"> elements</text>
</g>
<!-- Node5&#45;&gt;Node3 -->
<g id="edge5" class="edge">
<title>Node5&#45;&gt;Node3</title>
<path fill="none" stroke="#9a32cd" stroke-dasharray="5,2" d="M440.96,-86.08C471,-89.72 506.84,-94.41 539,-99.5 547,-100.77 555.43,-102.23 563.68,-103.73"/>
<polygon fill="#9a32cd" stroke="#9a32cd" points="441.36,-82.6 431.01,-84.89 440.52,-89.55 441.36,-82.6"/>
<text text-anchor="middle" x="494" y="-102.5" font-family="Helvetica,sans-Serif" font-size="10.00"> elements</text>
</g>
<!-- Node6 -->
<g id="node6" class="node">
<title>Node6</title>
<g id="a_node6"><a xlink:title=" ">
<polygon fill="white" stroke="#bfbfbf" points="566,-44.5 566,-74.5 672,-74.5 672,-44.5 566,-44.5"/>
<text text-anchor="start" x="574" y="-62.5" font-family="Helvetica,sans-Serif" font-size="10.00">std::vector&lt; const</text>
<text text-anchor="middle" x="619" y="-51.5" font-family="Helvetica,sans-Serif" font-size="10.00"> char * &gt;</text>
</a>
</g>
</g>
<!-- Node6&#45;&gt;Node2 -->
<g id="edge7" class="edge">
<title>Node6&#45;&gt;Node2</title>
<path fill="none" stroke="#9a32cd" stroke-dasharray="5,2" d="M682.48,-67.27C714.76,-72.87 754.16,-82.21 787,-97.5 804.53,-105.66 821.82,-120.03 832.33,-129.65"/>
<polygon fill="#9a32cd" stroke="#9a32cd" points="682.71,-63.76 672.27,-65.59 681.56,-70.67 682.71,-63.76"/>
<text text-anchor="middle" x="743" y="-111.5" font-family="Helvetica,sans-Serif" font-size="10.00"> additionalUsage</text>
<text text-anchor="middle" x="743" y="-100.5" font-family="Helvetica,sans-Serif" font-size="10.00">remainingOptions</text>
</g>
<!-- Node7&#45;&gt;Node1 -->
<g id="edge16" class="edge">
<title>Node7&#45;&gt;Node1</title>
<path fill="none" stroke="#9a32cd" stroke-dasharray="5,2" d="M691.51,-213.39C760.38,-215.22 862.17,-217.91 918.57,-219.4"/>
<polygon fill="#9a32cd" stroke="#9a32cd" points="691.27,-209.89 681.18,-213.12 691.08,-216.88 691.27,-209.89"/>
<text text-anchor="middle" x="843.5" y="-220.5" font-family="Helvetica,sans-Serif" font-size="10.00"> top4</text>
</g>
<!-- Node7&#45;&gt;Node2 -->
<g id="edge9" class="edge">
<title>Node7&#45;&gt;Node2</title>
<path fill="none" stroke="#9a32cd" stroke-dasharray="5,2" d="M678.22,-199.88C718.18,-191.53 767.4,-180.4 787,-172.5 802.18,-166.38 818.1,-156.51 828.97,-149.16"/>
<polygon fill="#9a32cd" stroke="#9a32cd" points="677.36,-196.48 668.28,-201.94 678.78,-203.34 677.36,-196.48"/>
<text text-anchor="middle" x="743" y="-197.5" font-family="Helvetica,sans-Serif" font-size="10.00"> optionOrder</text>
</g>
<!-- Node8 -->
<g id="node8" class="node">
<title>Node8</title>
<g id="a_node8"><a xlink:title=" ">
<polygon fill="white" stroke="#bfbfbf" points="580,-6 580,-25 658,-25 658,-6 580,-6"/>
<text text-anchor="middle" x="619" y="-13" font-family="Helvetica,sans-Serif" font-size="10.00">std::ostream</text>
</a>
</g>
</g>
<!-- Node8&#45;&gt;Node2 -->
<g id="edge11" class="edge">
<title>Node8&#45;&gt;Node2</title>
<path fill="none" stroke="#9a32cd" stroke-dasharray="5,2" d="M668.22,-17.68C703.83,-21.38 752,-30.98 787,-55.5 814.49,-74.75 831.96,-112.38 838.98,-129.98"/>
<polygon fill="#9a32cd" stroke="#9a32cd" points="668.34,-14.17 658.06,-16.74 667.7,-21.14 668.34,-14.17"/>
<text text-anchor="middle" x="743" y="-58.5" font-family="Helvetica,sans-Serif" font-size="10.00"> outStream</text>
</g>
<!-- Node9 -->
<g id="node9" class="node">
<title>Node9</title>
<g id="a_node9"><a xlink:title=" ">
<polygon fill="white" stroke="#bfbfbf" points="318.5,-0.5 318.5,-30.5 427.5,-30.5 427.5,-0.5 318.5,-0.5"/>
<text text-anchor="start" x="326.5" y="-18.5" font-family="Helvetica,sans-Serif" font-size="10.00">std::basic_ostream</text>
<text text-anchor="middle" x="373" y="-7.5" font-family="Helvetica,sans-Serif" font-size="10.00">&lt; Char &gt;</text>
</a>
</g>
</g>
<!-- Node9&#45;&gt;Node8 -->
<g id="edge12" class="edge">
<title>Node9&#45;&gt;Node8</title>
<path fill="none" stroke="midnightblue" d="M437.81,-15.5C482.86,-15.5 541.74,-15.5 579.72,-15.5"/>
<polygon fill="midnightblue" stroke="midnightblue" points="437.55,-12 427.55,-15.5 437.55,-19 437.55,-12"/>
</g>
<!-- Node10 -->
<g id="node10" class="node">
<title>Node10</title>
<g id="a_node10"><a xlink:title=" ">
<polygon fill="white" stroke="#bfbfbf" points="117,-6 117,-25 245,-25 245,-6 117,-6"/>
<text text-anchor="middle" x="181" y="-13" font-family="Helvetica,sans-Serif" font-size="10.00">std::basic_ios&lt; Char &gt;</text>
</a>
</g>
</g>
<!-- Node10&#45;&gt;Node9 -->
<g id="edge13" class="edge">
<title>Node10&#45;&gt;Node9</title>
<path fill="none" stroke="midnightblue" d="M255.19,-15.5C276.22,-15.5 298.77,-15.5 318.38,-15.5"/>
<polygon fill="midnightblue" stroke="midnightblue" points="255,-12 245,-15.5 255,-19 255,-12"/>
</g>
<!-- Node11 -->
<g id="node11" class="node">
<title>Node11</title>
<g id="a_node11"><a xlink:title=" ">
<polygon fill="white" stroke="#bfbfbf" points="0,-6 0,-25 80,-25 80,-6 0,-6"/>
<text text-anchor="middle" x="40" y="-13" font-family="Helvetica,sans-Serif" font-size="10.00">std::ios_base</text>
</a>
</g>
</g>
<!-- Node11&#45;&gt;Node10 -->
<g id="edge14" class="edge">
<title>Node11&#45;&gt;Node10</title>
<path fill="none" stroke="midnightblue" d="M90.28,-15.5C98.85,-15.5 107.87,-15.5 116.75,-15.5"/>
<polygon fill="midnightblue" stroke="midnightblue" points="90.09,-12 80.09,-15.5 90.09,-19 90.09,-12"/>
</g>
</g>
</svg>
