<?xml version="1.0" encoding="UTF-8" standalone="no"?>
<!DOCTYPE svg PUBLIC "-//W3C//DTD SVG 1.1//EN"
 "http://www.w3.org/Graphics/SVG/1.1/DTD/svg11.dtd">
<!-- Generated by graphviz version 2.43.0 (0)
 -->
<!-- Title: DPDK::ThreadJumps Pages: 1 -->
<svg width="382pt" height="233pt"
 viewBox="0.00 0.00 382.00 233.00" xmlns="http://www.w3.org/2000/svg" xmlns:xlink="http://www.w3.org/1999/xlink">
<g id="graph0" class="graph" transform="scale(1 1) rotate(0) translate(4 229)">
<title>DPDK::ThreadJumps</title>
<polygon fill="white" stroke="transparent" points="-4,4 -4,-229 378,-229 378,4 -4,4"/>
<!-- Node1 -->
<g id="node1" class="node">
<title>Node1</title>
<g id="a_node1"><a xlink:title=" ">
<polygon fill="#bfbfbf" stroke="black" points="0,-0.5 0,-19.5 114,-19.5 114,-0.5 0,-0.5"/>
<text text-anchor="middle" x="57" y="-7.5" font-family="Helvetica,sans-Serif" font-size="10.00">DPDK::ThreadJumps</text>
</a>
</g>
</g>
<!-- Node2 -->
<g id="node2" class="node">
<title>Node2</title>
<g id="a_node2"><a xlink:href="class_transform.html" target="_top" xlink:title=" ">
<polygon fill="white" stroke="black" points="24.5,-68.5 24.5,-87.5 89.5,-87.5 89.5,-68.5 24.5,-68.5"/>
<text text-anchor="middle" x="57" y="-75.5" font-family="Helvetica,sans-Serif" font-size="10.00">Transform</text>
</a>
</g>
</g>
<!-- Node2&#45;&gt;Node1 -->
<g id="edge1" class="edge">
<title>Node2&#45;&gt;Node1</title>
<path fill="none" stroke="midnightblue" d="M57,-58.04C57,-45.47 57,-29.56 57,-19.84"/>
<polygon fill="midnightblue" stroke="midnightblue" points="53.5,-58.37 57,-68.37 60.5,-58.37 53.5,-58.37"/>
</g>
<!-- Node3 -->
<g id="node3" class="node">
<title>Node3</title>
<g id="a_node3"><a xlink:href="class_visitor.html" target="_top" xlink:title=" ">
<polygon fill="white" stroke="black" points="134,-136.5 134,-155.5 182,-155.5 182,-136.5 134,-136.5"/>
<text text-anchor="middle" x="158" y="-143.5" font-family="Helvetica,sans-Serif" font-size="10.00">Visitor</text>
</a>
</g>
</g>
<!-- Node3&#45;&gt;Node2 -->
<g id="edge2" class="edge">
<title>Node3&#45;&gt;Node2</title>
<path fill="none" stroke="midnightblue" d="M133.41,-131.09C126.42,-127 118.84,-122.42 112,-118 96.66,-108.09 79.59,-95.77 68.6,-87.67"/>
<polygon fill="midnightblue" stroke="midnightblue" points="132.06,-134.35 142.47,-136.33 135.56,-128.29 132.06,-134.35"/>
</g>
<!-- Node3&#45;&gt;Node3 -->
<g id="edge10" class="edge">
<title>Node3&#45;&gt;Node3</title>
<path fill="none" stroke="#9a32cd" stroke-dasharray="5,2" d="M192.42,-151.29C196.98,-150.39 200,-148.63 200,-146 200,-141.69 191.86,-139.7 182.17,-140.04"/>
<polygon fill="#9a32cd" stroke="#9a32cd" points="191.92,-147.82 182.17,-151.96 192.38,-154.8 191.92,-147.82"/>
<text text-anchor="middle" x="225" y="-143.5" font-family="Helvetica,sans-Serif" font-size="10.00"> called_by</text>
</g>
<!-- Node5 -->
<g id="node5" class="node">
<title>Node5</title>
<g id="a_node5"><a xlink:href="class_split_flow_visit__base.html" target="_top" xlink:title=" ">
<polygon fill="white" stroke="black" points="164,-0.5 164,-19.5 276,-19.5 276,-0.5 164,-0.5"/>
<text text-anchor="middle" x="220" y="-7.5" font-family="Helvetica,sans-Serif" font-size="10.00">SplitFlowVisit_base</text>
</a>
</g>
</g>
<!-- Node3&#45;&gt;Node5 -->
<g id="edge9" class="edge">
<title>Node3&#45;&gt;Node5</title>
<path fill="none" stroke="#9a32cd" stroke-dasharray="5,2" d="M145.66,-127.83C135.54,-111.48 124.48,-86.53 135,-67 147.74,-43.35 175.32,-28.04 195.62,-19.51"/>
<polygon fill="#9a32cd" stroke="#9a32cd" points="142.88,-129.97 151.33,-136.36 148.7,-126.1 142.88,-129.97"/>
<text text-anchor="middle" x="140" y="-75.5" font-family="Helvetica,sans-Serif" font-size="10.00"> v</text>
</g>
<!-- Node6 -->
<g id="node6" class="node">
<title>Node6</title>
<g id="a_node6"><a xlink:title=" ">
<polygon fill="white" stroke="#bfbfbf" points="154.5,-68.5 154.5,-87.5 285.5,-87.5 285.5,-68.5 154.5,-68.5"/>
<text text-anchor="middle" x="220" y="-75.5" font-family="Helvetica,sans-Serif" font-size="10.00">std::vector&lt; Visitor * &gt;</text>
</a>
</g>
</g>
<!-- Node3&#45;&gt;Node6 -->
<g id="edge8" class="edge">
<title>Node3&#45;&gt;Node6</title>
<path fill="none" stroke="#9a32cd" stroke-dasharray="5,2" d="M172.99,-129.05C185.14,-116.11 201.82,-98.36 211.69,-87.84"/>
<polygon fill="#9a32cd" stroke="#9a32cd" points="170.4,-126.69 166.11,-136.37 175.5,-131.48 170.4,-126.69"/>
<text text-anchor="middle" x="217.5" y="-110" font-family="Helvetica,sans-Serif" font-size="10.00"> elements</text>
</g>
<!-- Node4 -->
<g id="node4" class="node">
<title>Node4</title>
<g id="a_node4"><a xlink:href="classcstring.html" target="_top" xlink:title=" ">
<polygon fill="white" stroke="black" points="133,-204.5 133,-223.5 183,-223.5 183,-204.5 133,-204.5"/>
<text text-anchor="middle" x="158" y="-211.5" font-family="Helvetica,sans-Serif" font-size="10.00">cstring</text>
</a>
</g>
</g>
<!-- Node4&#45;&gt;Node3 -->
<g id="edge3" class="edge">
<title>Node4&#45;&gt;Node3</title>
<path fill="none" stroke="#9a32cd" stroke-dasharray="5,2" d="M158,-194.04C158,-181.47 158,-165.56 158,-155.84"/>
<polygon fill="#9a32cd" stroke="#9a32cd" points="154.5,-194.37 158,-204.37 161.5,-194.37 154.5,-194.37"/>
<text text-anchor="middle" x="193" y="-177" font-family="Helvetica,sans-Serif" font-size="10.00"> internalName</text>
</g>
<!-- Node4&#45;&gt;Node4 -->
<g id="edge4" class="edge">
<title>Node4&#45;&gt;Node4</title>
<path fill="none" stroke="#9a32cd" stroke-dasharray="5,2" d="M193.45,-219.58C198,-218.61 201,-216.75 201,-214 201,-209.48 192.91,-207.37 183.18,-207.65"/>
<polygon fill="#9a32cd" stroke="#9a32cd" points="192.89,-216.11 183.18,-220.35 193.41,-223.1 192.89,-216.11"/>
<text text-anchor="middle" x="220.5" y="-217" font-family="Helvetica,sans-Serif" font-size="10.00"> empty</text>
<text text-anchor="middle" x="220.5" y="-206" font-family="Helvetica,sans-Serif" font-size="10.00">newline</text>
</g>
<!-- Node5&#45;&gt;Node3 -->
<g id="edge5" class="edge">
<title>Node5&#45;&gt;Node3</title>
<path fill="none" stroke="#9a32cd" stroke-dasharray="5,2" d="M249.05,-24.16C276.07,-38.38 310.07,-62.58 295,-89 272.35,-128.73 214.96,-140.29 182.1,-143.64"/>
<polygon fill="#9a32cd" stroke="#9a32cd" points="250.38,-20.91 239.88,-19.56 247.25,-27.17 250.38,-20.91"/>
<text text-anchor="middle" x="336" y="-81" font-family="Helvetica,sans-Serif" font-size="10.00"> split_link</text>
<text text-anchor="middle" x="336" y="-70" font-family="Helvetica,sans-Serif" font-size="10.00">split_link_mem</text>
</g>
<!-- Node5&#45;&gt;Node5 -->
<g id="edge6" class="edge">
<title>Node5&#45;&gt;Node5</title>
<path fill="none" stroke="#9a32cd" stroke-dasharray="5,2" d="M286.4,-14.4C291.12,-13.4 294,-11.93 294,-10 294,-6.91 286.62,-5.01 276.15,-4.31"/>
<polygon fill="#9a32cd" stroke="#9a32cd" points="285.63,-10.97 276.15,-15.69 286.51,-17.91 285.63,-10.97"/>
<text text-anchor="middle" x="306.5" y="-7.5" font-family="Helvetica,sans-Serif" font-size="10.00"> prev</text>
</g>
<!-- Node6&#45;&gt;Node5 -->
<g id="edge7" class="edge">
<title>Node6&#45;&gt;Node5</title>
<path fill="none" stroke="#9a32cd" stroke-dasharray="5,2" d="M220,-58.04C220,-45.47 220,-29.56 220,-19.84"/>
<polygon fill="#9a32cd" stroke="#9a32cd" points="216.5,-58.37 220,-68.37 223.5,-58.37 216.5,-58.37"/>
<text text-anchor="middle" x="240" y="-41" font-family="Helvetica,sans-Serif" font-size="10.00"> visitors</text>
</g>
</g>
</svg>
