<?xml version="1.0" encoding="UTF-8" standalone="no"?>
<!DOCTYPE svg PUBLIC "-//W3C//DTD SVG 1.1//EN"
 "http://www.w3.org/Graphics/SVG/1.1/DTD/svg11.dtd">
<!-- Generated by graphviz version 2.43.0 (0)
 -->
<!-- Title: NameGateways Pages: 1 -->
<svg width="373pt" height="233pt"
 viewBox="0.00 0.00 372.50 233.00" xmlns="http://www.w3.org/2000/svg" xmlns:xlink="http://www.w3.org/1999/xlink">
<g id="graph0" class="graph" transform="scale(1 1) rotate(0) translate(4 229)">
<title>NameGateways</title>
<polygon fill="white" stroke="transparent" points="-4,4 -4,-229 368.5,-229 368.5,4 -4,4"/>
<!-- Node1 -->
<g id="node1" class="node">
<title>Node1</title>
<g id="a_node1"><a xlink:title=" ">
<polygon fill="#bfbfbf" stroke="black" points="0,-0.5 0,-19.5 95,-19.5 95,-0.5 0,-0.5"/>
<text text-anchor="middle" x="47.5" y="-7.5" font-family="Helvetica,sans-Serif" font-size="10.00">NameGateways</text>
</a>
</g>
</g>
<!-- Node2 -->
<g id="node2" class="node">
<title>Node2</title>
<g id="a_node2"><a xlink:href="class_transform.html" target="_top" xlink:title=" ">
<polygon fill="white" stroke="black" points="15,-68.5 15,-87.5 80,-87.5 80,-68.5 15,-68.5"/>
<text text-anchor="middle" x="47.5" y="-75.5" font-family="Helvetica,sans-Serif" font-size="10.00">Transform</text>
</a>
</g>
</g>
<!-- Node2&#45;&gt;Node1 -->
<g id="edge1" class="edge">
<title>Node2&#45;&gt;Node1</title>
<path fill="none" stroke="midnightblue" d="M47.5,-58.04C47.5,-45.47 47.5,-29.56 47.5,-19.84"/>
<polygon fill="midnightblue" stroke="midnightblue" points="44,-58.37 47.5,-68.37 51,-58.37 44,-58.37"/>
</g>
<!-- Node3 -->
<g id="node3" class="node">
<title>Node3</title>
<g id="a_node3"><a xlink:href="class_visitor.html" target="_top" xlink:title=" ">
<polygon fill="white" stroke="black" points="124.5,-136.5 124.5,-155.5 172.5,-155.5 172.5,-136.5 124.5,-136.5"/>
<text text-anchor="middle" x="148.5" y="-143.5" font-family="Helvetica,sans-Serif" font-size="10.00">Visitor</text>
</a>
</g>
</g>
<!-- Node3&#45;&gt;Node2 -->
<g id="edge2" class="edge">
<title>Node3&#45;&gt;Node2</title>
<path fill="none" stroke="midnightblue" d="M123.91,-131.09C116.92,-127 109.34,-122.42 102.5,-118 87.16,-108.09 70.09,-95.77 59.1,-87.67"/>
<polygon fill="midnightblue" stroke="midnightblue" points="122.56,-134.35 132.97,-136.33 126.06,-128.29 122.56,-134.35"/>
</g>
<!-- Node3&#45;&gt;Node3 -->
<g id="edge10" class="edge">
<title>Node3&#45;&gt;Node3</title>
<path fill="none" stroke="#9a32cd" stroke-dasharray="5,2" d="M182.92,-151.29C187.48,-150.39 190.5,-148.63 190.5,-146 190.5,-141.69 182.36,-139.7 172.67,-140.04"/>
<polygon fill="#9a32cd" stroke="#9a32cd" points="182.42,-147.82 172.67,-151.96 182.88,-154.8 182.42,-147.82"/>
<text text-anchor="middle" x="215.5" y="-143.5" font-family="Helvetica,sans-Serif" font-size="10.00"> called_by</text>
</g>
<!-- Node5 -->
<g id="node5" class="node">
<title>Node5</title>
<g id="a_node5"><a xlink:href="class_split_flow_visit__base.html" target="_top" xlink:title=" ">
<polygon fill="white" stroke="black" points="154.5,-0.5 154.5,-19.5 266.5,-19.5 266.5,-0.5 154.5,-0.5"/>
<text text-anchor="middle" x="210.5" y="-7.5" font-family="Helvetica,sans-Serif" font-size="10.00">SplitFlowVisit_base</text>
</a>
</g>
</g>
<!-- Node3&#45;&gt;Node5 -->
<g id="edge9" class="edge">
<title>Node3&#45;&gt;Node5</title>
<path fill="none" stroke="#9a32cd" stroke-dasharray="5,2" d="M136.16,-127.83C126.04,-111.48 114.98,-86.53 125.5,-67 138.24,-43.35 165.82,-28.04 186.12,-19.51"/>
<polygon fill="#9a32cd" stroke="#9a32cd" points="133.38,-129.97 141.83,-136.36 139.2,-126.1 133.38,-129.97"/>
<text text-anchor="middle" x="130.5" y="-75.5" font-family="Helvetica,sans-Serif" font-size="10.00"> v</text>
</g>
<!-- Node6 -->
<g id="node6" class="node">
<title>Node6</title>
<g id="a_node6"><a xlink:title=" ">
<polygon fill="white" stroke="#bfbfbf" points="145,-68.5 145,-87.5 276,-87.5 276,-68.5 145,-68.5"/>
<text text-anchor="middle" x="210.5" y="-75.5" font-family="Helvetica,sans-Serif" font-size="10.00">std::vector&lt; Visitor * &gt;</text>
</a>
</g>
</g>
<!-- Node3&#45;&gt;Node6 -->
<g id="edge8" class="edge">
<title>Node3&#45;&gt;Node6</title>
<path fill="none" stroke="#9a32cd" stroke-dasharray="5,2" d="M163.49,-129.05C175.64,-116.11 192.32,-98.36 202.19,-87.84"/>
<polygon fill="#9a32cd" stroke="#9a32cd" points="160.9,-126.69 156.61,-136.37 166,-131.48 160.9,-126.69"/>
<text text-anchor="middle" x="208" y="-110" font-family="Helvetica,sans-Serif" font-size="10.00"> elements</text>
</g>
<!-- Node4 -->
<g id="node4" class="node">
<title>Node4</title>
<g id="a_node4"><a xlink:href="classcstring.html" target="_top" xlink:title=" ">
<polygon fill="white" stroke="black" points="123.5,-204.5 123.5,-223.5 173.5,-223.5 173.5,-204.5 123.5,-204.5"/>
<text text-anchor="middle" x="148.5" y="-211.5" font-family="Helvetica,sans-Serif" font-size="10.00">cstring</text>
</a>
</g>
</g>
<!-- Node4&#45;&gt;Node3 -->
<g id="edge3" class="edge">
<title>Node4&#45;&gt;Node3</title>
<path fill="none" stroke="#9a32cd" stroke-dasharray="5,2" d="M148.5,-194.04C148.5,-181.47 148.5,-165.56 148.5,-155.84"/>
<polygon fill="#9a32cd" stroke="#9a32cd" points="145,-194.37 148.5,-204.37 152,-194.37 145,-194.37"/>
<text text-anchor="middle" x="183.5" y="-177" font-family="Helvetica,sans-Serif" font-size="10.00"> internalName</text>
</g>
<!-- Node4&#45;&gt;Node4 -->
<g id="edge4" class="edge">
<title>Node4&#45;&gt;Node4</title>
<path fill="none" stroke="#9a32cd" stroke-dasharray="5,2" d="M183.95,-219.58C188.5,-218.61 191.5,-216.75 191.5,-214 191.5,-209.48 183.41,-207.37 173.68,-207.65"/>
<polygon fill="#9a32cd" stroke="#9a32cd" points="183.39,-216.11 173.68,-220.35 183.91,-223.1 183.39,-216.11"/>
<text text-anchor="middle" x="211" y="-217" font-family="Helvetica,sans-Serif" font-size="10.00"> empty</text>
<text text-anchor="middle" x="211" y="-206" font-family="Helvetica,sans-Serif" font-size="10.00">newline</text>
</g>
<!-- Node5&#45;&gt;Node3 -->
<g id="edge5" class="edge">
<title>Node5&#45;&gt;Node3</title>
<path fill="none" stroke="#9a32cd" stroke-dasharray="5,2" d="M239.55,-24.16C266.57,-38.38 300.57,-62.58 285.5,-89 262.85,-128.73 205.46,-140.29 172.6,-143.64"/>
<polygon fill="#9a32cd" stroke="#9a32cd" points="240.88,-20.91 230.38,-19.56 237.75,-27.17 240.88,-20.91"/>
<text text-anchor="middle" x="326.5" y="-81" font-family="Helvetica,sans-Serif" font-size="10.00"> split_link</text>
<text text-anchor="middle" x="326.5" y="-70" font-family="Helvetica,sans-Serif" font-size="10.00">split_link_mem</text>
</g>
<!-- Node5&#45;&gt;Node5 -->
<g id="edge6" class="edge">
<title>Node5&#45;&gt;Node5</title>
<path fill="none" stroke="#9a32cd" stroke-dasharray="5,2" d="M276.9,-14.4C281.62,-13.4 284.5,-11.93 284.5,-10 284.5,-6.91 277.12,-5.01 266.65,-4.31"/>
<polygon fill="#9a32cd" stroke="#9a32cd" points="276.13,-10.97 266.65,-15.69 277.01,-17.91 276.13,-10.97"/>
<text text-anchor="middle" x="297" y="-7.5" font-family="Helvetica,sans-Serif" font-size="10.00"> prev</text>
</g>
<!-- Node6&#45;&gt;Node5 -->
<g id="edge7" class="edge">
<title>Node6&#45;&gt;Node5</title>
<path fill="none" stroke="#9a32cd" stroke-dasharray="5,2" d="M210.5,-58.04C210.5,-45.47 210.5,-29.56 210.5,-19.84"/>
<polygon fill="#9a32cd" stroke="#9a32cd" points="207,-58.37 210.5,-68.37 214,-58.37 207,-58.37"/>
<text text-anchor="middle" x="230.5" y="-41" font-family="Helvetica,sans-Serif" font-size="10.00"> visitors</text>
</g>
</g>
</svg>
