<?xml version="1.0" encoding="UTF-8" standalone="no"?>
<!DOCTYPE svg PUBLIC "-//W3C//DTD SVG 1.1//EN"
 "http://www.w3.org/Graphics/SVG/1.1/DTD/svg11.dtd">
<!-- Generated by graphviz version 2.43.0 (0)
 -->
<!-- Title: P4Tools::P4Testgen::CoverableNodesScanner Pages: 1 -->
<svg width="394pt" height="244pt"
 viewBox="0.00 0.00 394.00 244.00" xmlns="http://www.w3.org/2000/svg" xmlns:xlink="http://www.w3.org/1999/xlink">
<g id="graph0" class="graph" transform="scale(1 1) rotate(0) translate(4 240)">
<title>P4Tools::P4Testgen::CoverableNodesScanner</title>
<polygon fill="white" stroke="transparent" points="-4,4 -4,-240 390,-240 390,4 -4,4"/>
<!-- Node1 -->
<g id="node1" class="node">
<title>Node1</title>
<g id="a_node1"><a xlink:title=" ">
<polygon fill="#bfbfbf" stroke="black" points="0,-0.5 0,-30.5 142,-30.5 142,-0.5 0,-0.5"/>
<text text-anchor="start" x="8" y="-18.5" font-family="Helvetica,sans-Serif" font-size="10.00">P4Tools::P4Testgen</text>
<text text-anchor="middle" x="71" y="-7.5" font-family="Helvetica,sans-Serif" font-size="10.00">::CoverableNodesScanner</text>
</a>
</g>
</g>
<!-- Node2 -->
<g id="node2" class="node">
<title>Node2</title>
<g id="a_node2"><a xlink:href="class_inspector.html" target="_top" xlink:title=" ">
<polygon fill="white" stroke="black" points="40,-79.5 40,-98.5 102,-98.5 102,-79.5 40,-79.5"/>
<text text-anchor="middle" x="71" y="-86.5" font-family="Helvetica,sans-Serif" font-size="10.00">Inspector</text>
</a>
</g>
</g>
<!-- Node2&#45;&gt;Node1 -->
<g id="edge1" class="edge">
<title>Node2&#45;&gt;Node1</title>
<path fill="none" stroke="midnightblue" d="M71,-68.9C71,-56.82 71,-41.47 71,-30.51"/>
<polygon fill="midnightblue" stroke="midnightblue" points="67.5,-69.23 71,-79.23 74.5,-69.23 67.5,-69.23"/>
</g>
<!-- Node3 -->
<g id="node3" class="node">
<title>Node3</title>
<g id="a_node3"><a xlink:href="class_visitor.html" target="_top" xlink:title=" ">
<polygon fill="white" stroke="black" points="146,-147.5 146,-166.5 194,-166.5 194,-147.5 146,-147.5"/>
<text text-anchor="middle" x="170" y="-154.5" font-family="Helvetica,sans-Serif" font-size="10.00">Visitor</text>
</a>
</g>
</g>
<!-- Node3&#45;&gt;Node2 -->
<g id="edge2" class="edge">
<title>Node3&#45;&gt;Node2</title>
<path fill="none" stroke="midnightblue" d="M145.36,-142.17C138.37,-138.07 130.8,-133.48 124,-129 109.12,-119.19 92.69,-106.86 82.13,-98.72"/>
<polygon fill="midnightblue" stroke="midnightblue" points="144.01,-145.43 154.42,-147.39 147.51,-139.37 144.01,-145.43"/>
</g>
<!-- Node3&#45;&gt;Node3 -->
<g id="edge10" class="edge">
<title>Node3&#45;&gt;Node3</title>
<path fill="none" stroke="#9a32cd" stroke-dasharray="5,2" d="M204.42,-162.29C208.98,-161.39 212,-159.63 212,-157 212,-152.69 203.86,-150.7 194.17,-151.04"/>
<polygon fill="#9a32cd" stroke="#9a32cd" points="203.92,-158.82 194.17,-162.96 204.38,-165.8 203.92,-158.82"/>
<text text-anchor="middle" x="237" y="-154.5" font-family="Helvetica,sans-Serif" font-size="10.00"> called_by</text>
</g>
<!-- Node5 -->
<g id="node5" class="node">
<title>Node5</title>
<g id="a_node5"><a xlink:href="class_split_flow_visit__base.html" target="_top" xlink:title=" ">
<polygon fill="white" stroke="black" points="176,-6 176,-25 288,-25 288,-6 176,-6"/>
<text text-anchor="middle" x="232" y="-13" font-family="Helvetica,sans-Serif" font-size="10.00">SplitFlowVisit_base</text>
</a>
</g>
</g>
<!-- Node3&#45;&gt;Node5 -->
<g id="edge9" class="edge">
<title>Node3&#45;&gt;Node5</title>
<path fill="none" stroke="#9a32cd" stroke-dasharray="5,2" d="M157.85,-138.93C147.87,-122.65 136.91,-97.76 147,-78 160.26,-52.05 190.15,-34.51 210.7,-25.01"/>
<polygon fill="#9a32cd" stroke="#9a32cd" points="155.01,-140.99 163.44,-147.42 160.86,-137.14 155.01,-140.99"/>
<text text-anchor="middle" x="152" y="-86.5" font-family="Helvetica,sans-Serif" font-size="10.00"> v</text>
</g>
<!-- Node6 -->
<g id="node6" class="node">
<title>Node6</title>
<g id="a_node6"><a xlink:title=" ">
<polygon fill="white" stroke="#bfbfbf" points="166.5,-79.5 166.5,-98.5 297.5,-98.5 297.5,-79.5 166.5,-79.5"/>
<text text-anchor="middle" x="232" y="-86.5" font-family="Helvetica,sans-Serif" font-size="10.00">std::vector&lt; Visitor * &gt;</text>
</a>
</g>
</g>
<!-- Node3&#45;&gt;Node6 -->
<g id="edge8" class="edge">
<title>Node3&#45;&gt;Node6</title>
<path fill="none" stroke="#9a32cd" stroke-dasharray="5,2" d="M184.99,-140.05C197.14,-127.11 213.82,-109.36 223.69,-98.84"/>
<polygon fill="#9a32cd" stroke="#9a32cd" points="182.4,-137.69 178.11,-147.37 187.5,-142.48 182.4,-137.69"/>
<text text-anchor="middle" x="229.5" y="-121" font-family="Helvetica,sans-Serif" font-size="10.00"> elements</text>
</g>
<!-- Node4 -->
<g id="node4" class="node">
<title>Node4</title>
<g id="a_node4"><a xlink:href="classcstring.html" target="_top" xlink:title=" ">
<polygon fill="white" stroke="black" points="145,-215.5 145,-234.5 195,-234.5 195,-215.5 145,-215.5"/>
<text text-anchor="middle" x="170" y="-222.5" font-family="Helvetica,sans-Serif" font-size="10.00">cstring</text>
</a>
</g>
</g>
<!-- Node4&#45;&gt;Node3 -->
<g id="edge3" class="edge">
<title>Node4&#45;&gt;Node3</title>
<path fill="none" stroke="#9a32cd" stroke-dasharray="5,2" d="M170,-205.04C170,-192.47 170,-176.56 170,-166.84"/>
<polygon fill="#9a32cd" stroke="#9a32cd" points="166.5,-205.37 170,-215.37 173.5,-205.37 166.5,-205.37"/>
<text text-anchor="middle" x="205" y="-188" font-family="Helvetica,sans-Serif" font-size="10.00"> internalName</text>
</g>
<!-- Node4&#45;&gt;Node4 -->
<g id="edge4" class="edge">
<title>Node4&#45;&gt;Node4</title>
<path fill="none" stroke="#9a32cd" stroke-dasharray="5,2" d="M205.45,-230.58C210,-229.61 213,-227.75 213,-225 213,-220.48 204.91,-218.37 195.18,-218.65"/>
<polygon fill="#9a32cd" stroke="#9a32cd" points="204.89,-227.11 195.18,-231.35 205.41,-234.1 204.89,-227.11"/>
<text text-anchor="middle" x="232.5" y="-228" font-family="Helvetica,sans-Serif" font-size="10.00"> empty</text>
<text text-anchor="middle" x="232.5" y="-217" font-family="Helvetica,sans-Serif" font-size="10.00">newline</text>
</g>
<!-- Node5&#45;&gt;Node3 -->
<g id="edge5" class="edge">
<title>Node5&#45;&gt;Node3</title>
<path fill="none" stroke="#9a32cd" stroke-dasharray="5,2" d="M259.57,-29.98C287.03,-45.35 322.96,-72.02 307,-100 284.35,-139.73 226.96,-151.29 194.1,-154.64"/>
<polygon fill="#9a32cd" stroke="#9a32cd" points="261.14,-26.85 250.68,-25.21 257.84,-33.02 261.14,-26.85"/>
<text text-anchor="middle" x="348" y="-92" font-family="Helvetica,sans-Serif" font-size="10.00"> split_link</text>
<text text-anchor="middle" x="348" y="-81" font-family="Helvetica,sans-Serif" font-size="10.00">split_link_mem</text>
</g>
<!-- Node5&#45;&gt;Node5 -->
<g id="edge6" class="edge">
<title>Node5&#45;&gt;Node5</title>
<path fill="none" stroke="#9a32cd" stroke-dasharray="5,2" d="M298.04,-20.81C302.97,-19.62 306,-17.85 306,-15.5 306,-11.83 298.62,-9.57 288.15,-8.74"/>
<polygon fill="#9a32cd" stroke="#9a32cd" points="297.53,-17.35 288.15,-22.26 298.55,-24.27 297.53,-17.35"/>
<text text-anchor="middle" x="318.5" y="-13" font-family="Helvetica,sans-Serif" font-size="10.00"> prev</text>
</g>
<!-- Node6&#45;&gt;Node5 -->
<g id="edge7" class="edge">
<title>Node6&#45;&gt;Node5</title>
<path fill="none" stroke="#9a32cd" stroke-dasharray="5,2" d="M232,-69.09C232,-54.93 232,-36.2 232,-25.34"/>
<polygon fill="#9a32cd" stroke="#9a32cd" points="228.5,-69.23 232,-79.23 235.5,-69.23 228.5,-69.23"/>
<text text-anchor="middle" x="252" y="-52" font-family="Helvetica,sans-Serif" font-size="10.00"> visitors</text>
</g>
</g>
</svg>
