<?xml version="1.0" encoding="UTF-8" standalone="no"?>
<!DOCTYPE svg PUBLIC "-//W3C//DTD SVG 1.1//EN"
 "http://www.w3.org/Graphics/SVG/1.1/DTD/svg11.dtd">
<!-- Generated by graphviz version 2.43.0 (0)
 -->
<!-- Title: SplitFlowVisit&lt; N &gt; Pages: 1 -->
<svg width="422pt" height="175pt"
 viewBox="0.00 0.00 421.50 175.00" xmlns="http://www.w3.org/2000/svg" xmlns:xlink="http://www.w3.org/1999/xlink">
<g id="graph0" class="graph" transform="scale(1 1) rotate(0) translate(4 171)">
<title>SplitFlowVisit&lt; N &gt;</title>
<polygon fill="white" stroke="transparent" points="-4,4 -4,-171 417.5,-171 417.5,4 -4,4"/>
<!-- Node1 -->
<g id="node1" class="node">
<title>Node1</title>
<g id="a_node1"><a xlink:title=" ">
<polygon fill="#bfbfbf" stroke="black" points="300.5,-67.5 300.5,-86.5 413.5,-86.5 413.5,-67.5 300.5,-67.5"/>
<text text-anchor="middle" x="357" y="-74.5" font-family="Helvetica,sans-Serif" font-size="10.00">SplitFlowVisit&lt; N &gt;</text>
</a>
</g>
</g>
<!-- Node2 -->
<g id="node2" class="node">
<title>Node2</title>
<g id="a_node2"><a xlink:href="class_split_flow_visit__base.html" target="_top" xlink:title=" ">
<polygon fill="white" stroke="black" points="173,-146.5 173,-165.5 285,-165.5 285,-146.5 173,-146.5"/>
<text text-anchor="middle" x="229" y="-153.5" font-family="Helvetica,sans-Serif" font-size="10.00">SplitFlowVisit_base</text>
</a>
</g>
</g>
<!-- Node2&#45;&gt;Node1 -->
<g id="edge1" class="edge">
<title>Node2&#45;&gt;Node1</title>
<path fill="none" stroke="midnightblue" d="M251.77,-141.3C278.12,-125.45 320.7,-99.84 342.75,-86.57"/>
<polygon fill="midnightblue" stroke="midnightblue" points="249.95,-138.31 243.19,-146.47 253.56,-144.31 249.95,-138.31"/>
</g>
<!-- Node2&#45;&gt;Node2 -->
<g id="edge2" class="edge">
<title>Node2&#45;&gt;Node2</title>
<path fill="none" stroke="#9a32cd" stroke-dasharray="5,2" d="M295.04,-161.59C299.97,-160.34 303,-158.48 303,-156 303,-152.13 295.62,-149.76 285.15,-148.88"/>
<polygon fill="#9a32cd" stroke="#9a32cd" points="294.5,-158.13 285.15,-163.12 295.56,-165.05 294.5,-158.13"/>
<text text-anchor="middle" x="315.5" y="-153.5" font-family="Helvetica,sans-Serif" font-size="10.00"> prev</text>
</g>
<!-- Node4 -->
<g id="node4" class="node">
<title>Node4</title>
<g id="a_node4"><a xlink:href="class_visitor.html" target="_top" xlink:title=" ">
<polygon fill="white" stroke="black" points="90,-67.5 90,-86.5 138,-86.5 138,-67.5 90,-67.5"/>
<text text-anchor="middle" x="114" y="-74.5" font-family="Helvetica,sans-Serif" font-size="10.00">Visitor</text>
</a>
</g>
</g>
<!-- Node2&#45;&gt;Node4 -->
<g id="edge7" class="edge">
<title>Node2&#45;&gt;Node4</title>
<path fill="none" stroke="#9a32cd" stroke-dasharray="5,2" d="M162.96,-144.69C143.35,-140.28 125.39,-134.4 119,-127 109.39,-115.86 110.44,-97.57 112.16,-86.77"/>
<polygon fill="#9a32cd" stroke="#9a32cd" points="162.48,-148.17 172.99,-146.8 163.92,-141.32 162.48,-148.17"/>
<text text-anchor="middle" x="157" y="-119" font-family="Helvetica,sans-Serif" font-size="10.00"> split_link</text>
<text text-anchor="middle" x="157" y="-108" font-family="Helvetica,sans-Serif" font-size="10.00">split_link_mem</text>
</g>
<!-- Node3 -->
<g id="node3" class="node">
<title>Node3</title>
<g id="a_node3"><a xlink:title=" ">
<polygon fill="white" stroke="#bfbfbf" points="112.5,-0.5 112.5,-19.5 243.5,-19.5 243.5,-0.5 112.5,-0.5"/>
<text text-anchor="middle" x="178" y="-7.5" font-family="Helvetica,sans-Serif" font-size="10.00">std::vector&lt; Visitor * &gt;</text>
</a>
</g>
</g>
<!-- Node3&#45;&gt;Node2 -->
<g id="edge3" class="edge">
<title>Node3&#45;&gt;Node2</title>
<path fill="none" stroke="#9a32cd" stroke-dasharray="5,2" d="M194.63,-27.12C197.65,-30.54 200.6,-34.25 203,-38 220.14,-64.76 222.47,-73.7 228,-105 230.54,-119.36 230.17,-136.41 229.63,-146.43"/>
<polygon fill="#9a32cd" stroke="#9a32cd" points="197.11,-24.65 187.68,-19.81 192.03,-29.47 197.11,-24.65"/>
<text text-anchor="middle" x="244" y="-74.5" font-family="Helvetica,sans-Serif" font-size="10.00"> visitors</text>
</g>
<!-- Node4&#45;&gt;Node2 -->
<g id="edge9" class="edge">
<title>Node4&#45;&gt;Node2</title>
<path fill="none" stroke="#9a32cd" stroke-dasharray="5,2" d="M148.01,-84.12C163.47,-88.15 181.33,-94.66 195,-105 209.57,-116.02 220.04,-135.16 225.25,-146.29"/>
<polygon fill="#9a32cd" stroke="#9a32cd" points="148.8,-80.71 138.26,-81.82 147.19,-87.52 148.8,-80.71"/>
<text text-anchor="middle" x="219" y="-113.5" font-family="Helvetica,sans-Serif" font-size="10.00"> v</text>
</g>
<!-- Node4&#45;&gt;Node3 -->
<g id="edge4" class="edge">
<title>Node4&#45;&gt;Node3</title>
<path fill="none" stroke="#9a32cd" stroke-dasharray="5,2" d="M129.76,-60C142.31,-47.25 159.4,-29.89 169.51,-19.63"/>
<polygon fill="#9a32cd" stroke="#9a32cd" points="127.15,-57.65 122.63,-67.23 132.14,-62.56 127.15,-57.65"/>
<text text-anchor="middle" x="174.5" y="-41" font-family="Helvetica,sans-Serif" font-size="10.00"> elements</text>
</g>
<!-- Node4&#45;&gt;Node4 -->
<g id="edge8" class="edge">
<title>Node4&#45;&gt;Node4</title>
<path fill="none" stroke="#9a32cd" stroke-dasharray="5,2" d="M148.42,-82.29C152.98,-81.39 156,-79.63 156,-77 156,-72.69 147.86,-70.7 138.17,-71.04"/>
<polygon fill="#9a32cd" stroke="#9a32cd" points="147.92,-78.82 138.17,-82.96 148.38,-85.8 147.92,-78.82"/>
<text text-anchor="middle" x="181" y="-74.5" font-family="Helvetica,sans-Serif" font-size="10.00"> called_by</text>
</g>
<!-- Node5 -->
<g id="node5" class="node">
<title>Node5</title>
<g id="a_node5"><a xlink:href="classcstring.html" target="_top" xlink:title=" ">
<polygon fill="white" stroke="black" points="0,-146.5 0,-165.5 50,-165.5 50,-146.5 0,-146.5"/>
<text text-anchor="middle" x="25" y="-153.5" font-family="Helvetica,sans-Serif" font-size="10.00">cstring</text>
</a>
</g>
</g>
<!-- Node5&#45;&gt;Node4 -->
<g id="edge5" class="edge">
<title>Node5&#45;&gt;Node4</title>
<path fill="none" stroke="#9a32cd" stroke-dasharray="5,2" d="M20.42,-136.24C19.06,-126.04 19.39,-113.75 26,-105 40.73,-85.48 69.29,-79.65 89.88,-78.12"/>
<polygon fill="#9a32cd" stroke="#9a32cd" points="17.02,-137.08 22.35,-146.23 23.89,-135.75 17.02,-137.08"/>
<text text-anchor="middle" x="61" y="-113.5" font-family="Helvetica,sans-Serif" font-size="10.00"> internalName</text>
</g>
<!-- Node5&#45;&gt;Node5 -->
<g id="edge6" class="edge">
<title>Node5&#45;&gt;Node5</title>
<path fill="none" stroke="#9a32cd" stroke-dasharray="5,2" d="M60.45,-162.57C65,-161.43 68,-159.24 68,-156 68,-150.69 59.91,-148.2 50.18,-148.53"/>
<polygon fill="#9a32cd" stroke="#9a32cd" points="59.83,-159.11 50.18,-163.47 60.44,-166.08 59.83,-159.11"/>
<text text-anchor="middle" x="87.5" y="-159" font-family="Helvetica,sans-Serif" font-size="10.00"> empty</text>
<text text-anchor="middle" x="87.5" y="-148" font-family="Helvetica,sans-Serif" font-size="10.00">newline</text>
</g>
</g>
</svg>
