<?xml version="1.0" encoding="UTF-8" standalone="no"?>
<!DOCTYPE svg PUBLIC "-//W3C//DTD SVG 1.1//EN"
 "http://www.w3.org/Graphics/SVG/1.1/DTD/svg11.dtd">
<!-- Generated by graphviz version 2.43.0 (0)
 -->
<!-- Title: UBPF::UBPFModel::getUBPFModelVersion Pages: 1 -->
<svg width="417pt" height="244pt"
 viewBox="0.00 0.00 417.00 244.00" xmlns="http://www.w3.org/2000/svg" xmlns:xlink="http://www.w3.org/1999/xlink">
<g id="graph0" class="graph" transform="scale(1 1) rotate(0) translate(4 240)">
<title>UBPF::UBPFModel::getUBPFModelVersion</title>
<polygon fill="white" stroke="transparent" points="-4,4 -4,-240 413,-240 413,4 -4,4"/>
<!-- Node1 -->
<g id="node1" class="node">
<title>Node1</title>
<g id="a_node1"><a xlink:title=" ">
<polygon fill="#bfbfbf" stroke="black" points="0,-0.5 0,-30.5 182,-30.5 182,-0.5 0,-0.5"/>
<text text-anchor="start" x="8" y="-18.5" font-family="Helvetica,sans-Serif" font-size="10.00">UBPF::UBPFModel::getUBPFModel</text>
<text text-anchor="middle" x="91" y="-7.5" font-family="Helvetica,sans-Serif" font-size="10.00">Version</text>
</a>
</g>
</g>
<!-- Node2 -->
<g id="node2" class="node">
<title>Node2</title>
<g id="a_node2"><a xlink:href="class_inspector.html" target="_top" xlink:title=" ">
<polygon fill="white" stroke="black" points="62,-79.5 62,-98.5 124,-98.5 124,-79.5 62,-79.5"/>
<text text-anchor="middle" x="93" y="-86.5" font-family="Helvetica,sans-Serif" font-size="10.00">Inspector</text>
</a>
</g>
</g>
<!-- Node2&#45;&gt;Node1 -->
<g id="edge1" class="edge">
<title>Node2&#45;&gt;Node1</title>
<path fill="none" stroke="midnightblue" d="M92.47,-68.9C92.13,-56.82 91.7,-41.47 91.39,-30.51"/>
<polygon fill="midnightblue" stroke="midnightblue" points="88.98,-69.33 92.75,-79.23 95.97,-69.14 88.98,-69.33"/>
</g>
<!-- Node3 -->
<g id="node3" class="node">
<title>Node3</title>
<g id="a_node3"><a xlink:href="class_visitor.html" target="_top" xlink:title=" ">
<polygon fill="white" stroke="black" points="169,-147.5 169,-166.5 217,-166.5 217,-147.5 169,-147.5"/>
<text text-anchor="middle" x="193" y="-154.5" font-family="Helvetica,sans-Serif" font-size="10.00">Visitor</text>
</a>
</g>
</g>
<!-- Node3&#45;&gt;Node2 -->
<g id="edge2" class="edge">
<title>Node3&#45;&gt;Node2</title>
<path fill="none" stroke="midnightblue" d="M168.39,-142.13C161.39,-138.04 153.82,-133.45 147,-129 131.89,-119.14 115.14,-106.82 104.37,-98.69"/>
<polygon fill="midnightblue" stroke="midnightblue" points="167.03,-145.39 177.45,-147.36 170.53,-139.33 167.03,-145.39"/>
</g>
<!-- Node3&#45;&gt;Node3 -->
<g id="edge10" class="edge">
<title>Node3&#45;&gt;Node3</title>
<path fill="none" stroke="#9a32cd" stroke-dasharray="5,2" d="M227.42,-162.29C231.98,-161.39 235,-159.63 235,-157 235,-152.69 226.86,-150.7 217.17,-151.04"/>
<polygon fill="#9a32cd" stroke="#9a32cd" points="226.92,-158.82 217.17,-162.96 227.38,-165.8 226.92,-158.82"/>
<text text-anchor="middle" x="260" y="-154.5" font-family="Helvetica,sans-Serif" font-size="10.00"> called_by</text>
</g>
<!-- Node5 -->
<g id="node5" class="node">
<title>Node5</title>
<g id="a_node5"><a xlink:href="class_split_flow_visit__base.html" target="_top" xlink:title=" ">
<polygon fill="white" stroke="black" points="200,-6 200,-25 312,-25 312,-6 200,-6"/>
<text text-anchor="middle" x="256" y="-13" font-family="Helvetica,sans-Serif" font-size="10.00">SplitFlowVisit_base</text>
</a>
</g>
</g>
<!-- Node3&#45;&gt;Node5 -->
<g id="edge9" class="edge">
<title>Node3&#45;&gt;Node5</title>
<path fill="none" stroke="#9a32cd" stroke-dasharray="5,2" d="M180.82,-138.92C170.83,-122.63 159.85,-97.73 170,-78 183.35,-52.05 213.29,-34.61 234.06,-25.12"/>
<polygon fill="#9a32cd" stroke="#9a32cd" points="178,-140.99 186.42,-147.41 183.84,-137.14 178,-140.99"/>
<text text-anchor="middle" x="175" y="-86.5" font-family="Helvetica,sans-Serif" font-size="10.00"> v</text>
</g>
<!-- Node6 -->
<g id="node6" class="node">
<title>Node6</title>
<g id="a_node6"><a xlink:title=" ">
<polygon fill="white" stroke="#bfbfbf" points="189.5,-79.5 189.5,-98.5 320.5,-98.5 320.5,-79.5 189.5,-79.5"/>
<text text-anchor="middle" x="255" y="-86.5" font-family="Helvetica,sans-Serif" font-size="10.00">std::vector&lt; Visitor * &gt;</text>
</a>
</g>
</g>
<!-- Node3&#45;&gt;Node6 -->
<g id="edge8" class="edge">
<title>Node3&#45;&gt;Node6</title>
<path fill="none" stroke="#9a32cd" stroke-dasharray="5,2" d="M207.99,-140.05C220.14,-127.11 236.82,-109.36 246.69,-98.84"/>
<polygon fill="#9a32cd" stroke="#9a32cd" points="205.4,-137.69 201.11,-147.37 210.5,-142.48 205.4,-137.69"/>
<text text-anchor="middle" x="252.5" y="-121" font-family="Helvetica,sans-Serif" font-size="10.00"> elements</text>
</g>
<!-- Node4 -->
<g id="node4" class="node">
<title>Node4</title>
<g id="a_node4"><a xlink:href="classcstring.html" target="_top" xlink:title=" ">
<polygon fill="white" stroke="black" points="168,-215.5 168,-234.5 218,-234.5 218,-215.5 168,-215.5"/>
<text text-anchor="middle" x="193" y="-222.5" font-family="Helvetica,sans-Serif" font-size="10.00">cstring</text>
</a>
</g>
</g>
<!-- Node4&#45;&gt;Node3 -->
<g id="edge3" class="edge">
<title>Node4&#45;&gt;Node3</title>
<path fill="none" stroke="#9a32cd" stroke-dasharray="5,2" d="M193,-205.04C193,-192.47 193,-176.56 193,-166.84"/>
<polygon fill="#9a32cd" stroke="#9a32cd" points="189.5,-205.37 193,-215.37 196.5,-205.37 189.5,-205.37"/>
<text text-anchor="middle" x="228" y="-188" font-family="Helvetica,sans-Serif" font-size="10.00"> internalName</text>
</g>
<!-- Node4&#45;&gt;Node4 -->
<g id="edge4" class="edge">
<title>Node4&#45;&gt;Node4</title>
<path fill="none" stroke="#9a32cd" stroke-dasharray="5,2" d="M228.45,-230.58C233,-229.61 236,-227.75 236,-225 236,-220.48 227.91,-218.37 218.18,-218.65"/>
<polygon fill="#9a32cd" stroke="#9a32cd" points="227.89,-227.11 218.18,-231.35 228.41,-234.1 227.89,-227.11"/>
<text text-anchor="middle" x="255.5" y="-228" font-family="Helvetica,sans-Serif" font-size="10.00"> empty</text>
<text text-anchor="middle" x="255.5" y="-217" font-family="Helvetica,sans-Serif" font-size="10.00">newline</text>
</g>
<!-- Node5&#45;&gt;Node3 -->
<g id="edge5" class="edge">
<title>Node5&#45;&gt;Node3</title>
<path fill="none" stroke="#9a32cd" stroke-dasharray="5,2" d="M282.81,-29.79C309.99,-45.18 345.95,-72.03 330,-100 307.35,-139.73 249.96,-151.29 217.1,-154.64"/>
<polygon fill="#9a32cd" stroke="#9a32cd" points="284.47,-26.71 274.01,-25.02 281.14,-32.86 284.47,-26.71"/>
<text text-anchor="middle" x="371" y="-92" font-family="Helvetica,sans-Serif" font-size="10.00"> split_link</text>
<text text-anchor="middle" x="371" y="-81" font-family="Helvetica,sans-Serif" font-size="10.00">split_link_mem</text>
</g>
<!-- Node5&#45;&gt;Node5 -->
<g id="edge6" class="edge">
<title>Node5&#45;&gt;Node5</title>
<path fill="none" stroke="#9a32cd" stroke-dasharray="5,2" d="M322.04,-20.81C326.97,-19.62 330,-17.85 330,-15.5 330,-11.83 322.62,-9.57 312.15,-8.74"/>
<polygon fill="#9a32cd" stroke="#9a32cd" points="321.53,-17.35 312.15,-22.26 322.55,-24.27 321.53,-17.35"/>
<text text-anchor="middle" x="342.5" y="-13" font-family="Helvetica,sans-Serif" font-size="10.00"> prev</text>
</g>
<!-- Node6&#45;&gt;Node5 -->
<g id="edge7" class="edge">
<title>Node6&#45;&gt;Node5</title>
<path fill="none" stroke="#9a32cd" stroke-dasharray="5,2" d="M255.26,-69.09C255.46,-54.93 255.72,-36.2 255.88,-25.34"/>
<polygon fill="#9a32cd" stroke="#9a32cd" points="251.76,-69.18 255.12,-79.23 258.76,-69.28 251.76,-69.18"/>
<text text-anchor="middle" x="275" y="-52" font-family="Helvetica,sans-Serif" font-size="10.00"> visitors</text>
</g>
</g>
</svg>
