<?xml version="1.0" encoding="UTF-8" standalone="no"?>
<!DOCTYPE svg PUBLIC "-//W3C//DTD SVG 1.1//EN"
 "http://www.w3.org/Graphics/SVG/1.1/DTD/svg11.dtd">
<!-- Generated by graphviz version 2.43.0 (0)
 -->
<!-- Title: BMV2::ParseAnnotations Pages: 1 -->
<svg width="388pt" height="290pt"
 viewBox="0.00 0.00 388.00 290.00" xmlns="http://www.w3.org/2000/svg" xmlns:xlink="http://www.w3.org/1999/xlink">
<g id="graph0" class="graph" transform="scale(1 1) rotate(0) translate(4 286)">
<title>BMV2::ParseAnnotations</title>
<polygon fill="white" stroke="transparent" points="-4,4 -4,-286 384,-286 384,4 -4,4"/>
<!-- Node1 -->
<g id="node1" class="node">
<title>Node1</title>
<g id="a_node1"><a xlink:title=" ">
<polygon fill="#bfbfbf" stroke="black" points="0,-0.5 0,-19.5 136,-19.5 136,-0.5 0,-0.5"/>
<text text-anchor="middle" x="68" y="-7.5" font-family="Helvetica,sans-Serif" font-size="10.00">BMV2::ParseAnnotations</text>
</a>
</g>
</g>
<!-- Node2 -->
<g id="node2" class="node">
<title>Node2</title>
<g id="a_node2"><a xlink:href="class_p4_1_1_parse_annotations.html" target="_top" xlink:title=" ">
<polygon fill="white" stroke="black" points="8.5,-57.5 8.5,-76.5 127.5,-76.5 127.5,-57.5 8.5,-57.5"/>
<text text-anchor="middle" x="68" y="-64.5" font-family="Helvetica,sans-Serif" font-size="10.00">P4::ParseAnnotations</text>
</a>
</g>
</g>
<!-- Node2&#45;&gt;Node1 -->
<g id="edge1" class="edge">
<title>Node2&#45;&gt;Node1</title>
<path fill="none" stroke="midnightblue" d="M68,-47.12C68,-37.82 68,-27.06 68,-19.71"/>
<polygon fill="midnightblue" stroke="midnightblue" points="64.5,-47.41 68,-57.41 71.5,-47.41 64.5,-47.41"/>
</g>
<!-- Node3 -->
<g id="node3" class="node">
<title>Node3</title>
<g id="a_node3"><a xlink:href="class_modifier.html" target="_top" xlink:title=" ">
<polygon fill="white" stroke="black" points="40,-125.5 40,-144.5 96,-144.5 96,-125.5 40,-125.5"/>
<text text-anchor="middle" x="68" y="-132.5" font-family="Helvetica,sans-Serif" font-size="10.00">Modifier</text>
</a>
</g>
</g>
<!-- Node3&#45;&gt;Node2 -->
<g id="edge2" class="edge">
<title>Node3&#45;&gt;Node2</title>
<path fill="none" stroke="midnightblue" d="M68,-115.04C68,-102.47 68,-86.56 68,-76.84"/>
<polygon fill="midnightblue" stroke="midnightblue" points="64.5,-115.37 68,-125.37 71.5,-115.37 64.5,-115.37"/>
</g>
<!-- Node4 -->
<g id="node4" class="node">
<title>Node4</title>
<g id="a_node4"><a xlink:href="class_visitor.html" target="_top" xlink:title=" ">
<polygon fill="white" stroke="black" points="140,-193.5 140,-212.5 188,-212.5 188,-193.5 140,-193.5"/>
<text text-anchor="middle" x="164" y="-200.5" font-family="Helvetica,sans-Serif" font-size="10.00">Visitor</text>
</a>
</g>
</g>
<!-- Node4&#45;&gt;Node3 -->
<g id="edge3" class="edge">
<title>Node4&#45;&gt;Node3</title>
<path fill="none" stroke="midnightblue" d="M139.28,-188.29C132.28,-184.2 124.74,-179.58 118,-175 103.79,-165.35 88.33,-152.98 78.42,-144.79"/>
<polygon fill="midnightblue" stroke="midnightblue" points="137.94,-191.56 148.35,-193.49 141.42,-185.49 137.94,-191.56"/>
</g>
<!-- Node4&#45;&gt;Node4 -->
<g id="edge11" class="edge">
<title>Node4&#45;&gt;Node4</title>
<path fill="none" stroke="#9a32cd" stroke-dasharray="5,2" d="M198.42,-208.29C202.98,-207.39 206,-205.63 206,-203 206,-198.69 197.86,-196.7 188.17,-197.04"/>
<polygon fill="#9a32cd" stroke="#9a32cd" points="197.92,-204.82 188.17,-208.96 198.38,-211.8 197.92,-204.82"/>
<text text-anchor="middle" x="231" y="-200.5" font-family="Helvetica,sans-Serif" font-size="10.00"> called_by</text>
</g>
<!-- Node6 -->
<g id="node6" class="node">
<title>Node6</title>
<g id="a_node6"><a xlink:href="class_split_flow_visit__base.html" target="_top" xlink:title=" ">
<polygon fill="white" stroke="black" points="170,-57.5 170,-76.5 282,-76.5 282,-57.5 170,-57.5"/>
<text text-anchor="middle" x="226" y="-64.5" font-family="Helvetica,sans-Serif" font-size="10.00">SplitFlowVisit_base</text>
</a>
</g>
</g>
<!-- Node4&#45;&gt;Node6 -->
<g id="edge10" class="edge">
<title>Node4&#45;&gt;Node6</title>
<path fill="none" stroke="#9a32cd" stroke-dasharray="5,2" d="M151.66,-184.83C141.54,-168.48 130.48,-143.53 141,-124 153.74,-100.35 181.32,-85.04 201.62,-76.51"/>
<polygon fill="#9a32cd" stroke="#9a32cd" points="148.88,-186.97 157.33,-193.36 154.7,-183.1 148.88,-186.97"/>
<text text-anchor="middle" x="146" y="-132.5" font-family="Helvetica,sans-Serif" font-size="10.00"> v</text>
</g>
<!-- Node7 -->
<g id="node7" class="node">
<title>Node7</title>
<g id="a_node7"><a xlink:title=" ">
<polygon fill="white" stroke="#bfbfbf" points="160.5,-125.5 160.5,-144.5 291.5,-144.5 291.5,-125.5 160.5,-125.5"/>
<text text-anchor="middle" x="226" y="-132.5" font-family="Helvetica,sans-Serif" font-size="10.00">std::vector&lt; Visitor * &gt;</text>
</a>
</g>
</g>
<!-- Node4&#45;&gt;Node7 -->
<g id="edge9" class="edge">
<title>Node4&#45;&gt;Node7</title>
<path fill="none" stroke="#9a32cd" stroke-dasharray="5,2" d="M178.99,-186.05C191.14,-173.11 207.82,-155.36 217.69,-144.84"/>
<polygon fill="#9a32cd" stroke="#9a32cd" points="176.4,-183.69 172.11,-193.37 181.5,-188.48 176.4,-183.69"/>
<text text-anchor="middle" x="223.5" y="-167" font-family="Helvetica,sans-Serif" font-size="10.00"> elements</text>
</g>
<!-- Node5 -->
<g id="node5" class="node">
<title>Node5</title>
<g id="a_node5"><a xlink:href="classcstring.html" target="_top" xlink:title=" ">
<polygon fill="white" stroke="black" points="139,-261.5 139,-280.5 189,-280.5 189,-261.5 139,-261.5"/>
<text text-anchor="middle" x="164" y="-268.5" font-family="Helvetica,sans-Serif" font-size="10.00">cstring</text>
</a>
</g>
</g>
<!-- Node5&#45;&gt;Node4 -->
<g id="edge4" class="edge">
<title>Node5&#45;&gt;Node4</title>
<path fill="none" stroke="#9a32cd" stroke-dasharray="5,2" d="M164,-251.04C164,-238.47 164,-222.56 164,-212.84"/>
<polygon fill="#9a32cd" stroke="#9a32cd" points="160.5,-251.37 164,-261.37 167.5,-251.37 160.5,-251.37"/>
<text text-anchor="middle" x="199" y="-234" font-family="Helvetica,sans-Serif" font-size="10.00"> internalName</text>
</g>
<!-- Node5&#45;&gt;Node5 -->
<g id="edge5" class="edge">
<title>Node5&#45;&gt;Node5</title>
<path fill="none" stroke="#9a32cd" stroke-dasharray="5,2" d="M199.45,-276.58C204,-275.61 207,-273.75 207,-271 207,-266.48 198.91,-264.37 189.18,-264.65"/>
<polygon fill="#9a32cd" stroke="#9a32cd" points="198.89,-273.11 189.18,-277.35 199.41,-280.1 198.89,-273.11"/>
<text text-anchor="middle" x="226.5" y="-274" font-family="Helvetica,sans-Serif" font-size="10.00"> empty</text>
<text text-anchor="middle" x="226.5" y="-263" font-family="Helvetica,sans-Serif" font-size="10.00">newline</text>
</g>
<!-- Node6&#45;&gt;Node4 -->
<g id="edge6" class="edge">
<title>Node6&#45;&gt;Node4</title>
<path fill="none" stroke="#9a32cd" stroke-dasharray="5,2" d="M255.05,-81.16C282.07,-95.38 316.07,-119.58 301,-146 278.35,-185.73 220.96,-197.29 188.1,-200.64"/>
<polygon fill="#9a32cd" stroke="#9a32cd" points="256.38,-77.91 245.88,-76.56 253.25,-84.17 256.38,-77.91"/>
<text text-anchor="middle" x="342" y="-138" font-family="Helvetica,sans-Serif" font-size="10.00"> split_link</text>
<text text-anchor="middle" x="342" y="-127" font-family="Helvetica,sans-Serif" font-size="10.00">split_link_mem</text>
</g>
<!-- Node6&#45;&gt;Node6 -->
<g id="edge7" class="edge">
<title>Node6&#45;&gt;Node6</title>
<path fill="none" stroke="#9a32cd" stroke-dasharray="5,2" d="M292.4,-70.85C297.12,-69.97 300,-68.69 300,-67 300,-64.29 292.62,-62.63 282.15,-62.02"/>
<polygon fill="#9a32cd" stroke="#9a32cd" points="291.7,-67.4 282.15,-71.98 292.47,-74.36 291.7,-67.4"/>
<text text-anchor="middle" x="312.5" y="-64.5" font-family="Helvetica,sans-Serif" font-size="10.00"> prev</text>
</g>
<!-- Node7&#45;&gt;Node6 -->
<g id="edge8" class="edge">
<title>Node7&#45;&gt;Node6</title>
<path fill="none" stroke="#9a32cd" stroke-dasharray="5,2" d="M226,-115.04C226,-102.47 226,-86.56 226,-76.84"/>
<polygon fill="#9a32cd" stroke="#9a32cd" points="222.5,-115.37 226,-125.37 229.5,-115.37 222.5,-115.37"/>
<text text-anchor="middle" x="246" y="-98" font-family="Helvetica,sans-Serif" font-size="10.00"> visitors</text>
</g>
</g>
</svg>
