<?xml version="1.0" encoding="UTF-8" standalone="no"?>
<!DOCTYPE svg PUBLIC "-//W3C//DTD SVG 1.1//EN"
 "http://www.w3.org/Graphics/SVG/1.1/DTD/svg11.dtd">
<!-- Generated by graphviz version 2.43.0 (0)
 -->
<!-- Title: P4::FillEnumMap Pages: 1 -->
<svg width="648pt" height="233pt"
 viewBox="0.00 0.00 647.98 233.00" xmlns="http://www.w3.org/2000/svg" xmlns:xlink="http://www.w3.org/1999/xlink">
<g id="graph0" class="graph" transform="scale(1 1) rotate(0) translate(4 229)">
<title>P4::FillEnumMap</title>
<polygon fill="white" stroke="transparent" points="-4,4 -4,-229 643.98,-229 643.98,4 -4,4"/>
<!-- Node1 -->
<g id="node1" class="node">
<title>Node1</title>
<g id="a_node1"><a xlink:title=" ">
<polygon fill="#bfbfbf" stroke="black" points="360.48,-0.5 360.48,-19.5 458.48,-19.5 458.48,-0.5 360.48,-0.5"/>
<text text-anchor="middle" x="409.48" y="-7.5" font-family="Helvetica,sans-Serif" font-size="10.00">P4::FillEnumMap</text>
</a>
</g>
</g>
<!-- Node2 -->
<g id="node2" class="node">
<title>Node2</title>
<g id="a_node2"><a xlink:href="class_transform.html" target="_top" xlink:title=" ">
<polygon fill="white" stroke="black" points="286.98,-68.5 286.98,-87.5 351.98,-87.5 351.98,-68.5 286.98,-68.5"/>
<text text-anchor="middle" x="319.48" y="-75.5" font-family="Helvetica,sans-Serif" font-size="10.00">Transform</text>
</a>
</g>
</g>
<!-- Node2&#45;&gt;Node1 -->
<g id="edge1" class="edge">
<title>Node2&#45;&gt;Node1</title>
<path fill="none" stroke="midnightblue" d="M339.31,-62.46C357.19,-49.34 382.88,-30.5 397.71,-19.63"/>
<polygon fill="midnightblue" stroke="midnightblue" points="337.24,-59.64 331.24,-68.37 341.38,-65.28 337.24,-59.64"/>
</g>
<!-- Node3 -->
<g id="node3" class="node">
<title>Node3</title>
<g id="a_node3"><a xlink:href="class_visitor.html" target="_top" xlink:title=" ">
<polygon fill="white" stroke="black" points="168.48,-136.5 168.48,-155.5 216.48,-155.5 216.48,-136.5 168.48,-136.5"/>
<text text-anchor="middle" x="192.48" y="-143.5" font-family="Helvetica,sans-Serif" font-size="10.00">Visitor</text>
</a>
</g>
</g>
<!-- Node3&#45;&gt;Node2 -->
<g id="edge2" class="edge">
<title>Node3&#45;&gt;Node2</title>
<path fill="none" stroke="midnightblue" d="M218.09,-131.69C243.37,-118.55 281.28,-98.85 302.87,-87.63"/>
<polygon fill="midnightblue" stroke="midnightblue" points="216.34,-128.65 209.08,-136.37 219.57,-134.87 216.34,-128.65"/>
</g>
<!-- Node3&#45;&gt;Node3 -->
<g id="edge10" class="edge">
<title>Node3&#45;&gt;Node3</title>
<path fill="none" stroke="#9a32cd" stroke-dasharray="5,2" d="M226.9,-151.29C231.45,-150.39 234.48,-148.63 234.48,-146 234.48,-141.69 226.34,-139.7 216.64,-140.04"/>
<polygon fill="#9a32cd" stroke="#9a32cd" points="226.4,-147.82 216.64,-151.96 226.85,-154.8 226.4,-147.82"/>
<text text-anchor="middle" x="259.48" y="-143.5" font-family="Helvetica,sans-Serif" font-size="10.00"> called_by</text>
</g>
<!-- Node5 -->
<g id="node5" class="node">
<title>Node5</title>
<g id="a_node5"><a xlink:href="class_split_flow_visit__base.html" target="_top" xlink:title=" ">
<polygon fill="white" stroke="black" points="34.48,-0.5 34.48,-19.5 146.48,-19.5 146.48,-0.5 34.48,-0.5"/>
<text text-anchor="middle" x="90.48" y="-7.5" font-family="Helvetica,sans-Serif" font-size="10.00">SplitFlowVisit_base</text>
</a>
</g>
</g>
<!-- Node3&#45;&gt;Node5 -->
<g id="edge9" class="edge">
<title>Node3&#45;&gt;Node5</title>
<path fill="none" stroke="#9a32cd" stroke-dasharray="5,2" d="M158.23,-139.7C109.44,-131.36 23.76,-113.57 5.48,-89 -16.23,-59.84 35.57,-32.82 67.55,-19.56"/>
<polygon fill="#9a32cd" stroke="#9a32cd" points="157.9,-143.19 168.34,-141.38 159.05,-136.28 157.9,-143.19"/>
<text text-anchor="middle" x="10.48" y="-75.5" font-family="Helvetica,sans-Serif" font-size="10.00"> v</text>
</g>
<!-- Node6 -->
<g id="node6" class="node">
<title>Node6</title>
<g id="a_node6"><a xlink:title=" ">
<polygon fill="white" stroke="#bfbfbf" points="24.98,-68.5 24.98,-87.5 155.98,-87.5 155.98,-68.5 24.98,-68.5"/>
<text text-anchor="middle" x="90.48" y="-75.5" font-family="Helvetica,sans-Serif" font-size="10.00">std::vector&lt; Visitor * &gt;</text>
</a>
</g>
</g>
<!-- Node3&#45;&gt;Node6 -->
<g id="edge8" class="edge">
<title>Node3&#45;&gt;Node6</title>
<path fill="none" stroke="#9a32cd" stroke-dasharray="5,2" d="M158.79,-133.34C148.94,-129.21 138.42,-124.05 129.48,-118 116.79,-109.41 104.73,-96.32 97.46,-87.72"/>
<polygon fill="#9a32cd" stroke="#9a32cd" points="157.75,-136.7 168.34,-137.13 160.34,-130.19 157.75,-136.7"/>
<text text-anchor="middle" x="153.98" y="-110" font-family="Helvetica,sans-Serif" font-size="10.00"> elements</text>
</g>
<!-- Node4 -->
<g id="node4" class="node">
<title>Node4</title>
<g id="a_node4"><a xlink:href="classcstring.html" target="_top" xlink:title=" ">
<polygon fill="white" stroke="black" points="197.48,-204.5 197.48,-223.5 247.48,-223.5 247.48,-204.5 197.48,-204.5"/>
<text text-anchor="middle" x="222.48" y="-211.5" font-family="Helvetica,sans-Serif" font-size="10.00">cstring</text>
</a>
</g>
</g>
<!-- Node4&#45;&gt;Node3 -->
<g id="edge3" class="edge">
<title>Node4&#45;&gt;Node3</title>
<path fill="none" stroke="#9a32cd" stroke-dasharray="5,2" d="M214.38,-195.19C208.59,-182.45 201.05,-165.86 196.49,-155.84"/>
<polygon fill="#9a32cd" stroke="#9a32cd" points="211.23,-196.72 218.55,-204.37 217.6,-193.82 211.23,-196.72"/>
<text text-anchor="middle" x="244.48" y="-177" font-family="Helvetica,sans-Serif" font-size="10.00"> internalName</text>
</g>
<!-- Node4&#45;&gt;Node4 -->
<g id="edge4" class="edge">
<title>Node4&#45;&gt;Node4</title>
<path fill="none" stroke="#9a32cd" stroke-dasharray="5,2" d="M257.92,-219.58C262.47,-218.61 265.48,-216.75 265.48,-214 265.48,-209.48 257.38,-207.37 247.65,-207.65"/>
<polygon fill="#9a32cd" stroke="#9a32cd" points="257.36,-216.11 247.65,-220.35 257.88,-223.1 257.36,-216.11"/>
<text text-anchor="middle" x="284.98" y="-217" font-family="Helvetica,sans-Serif" font-size="10.00"> empty</text>
<text text-anchor="middle" x="284.98" y="-206" font-family="Helvetica,sans-Serif" font-size="10.00">newline</text>
</g>
<!-- Node8 -->
<g id="node8" class="node">
<title>Node8</title>
<g id="a_node8"><a xlink:href="class_p4_1_1_program_map.html" target="_top" xlink:title=" ">
<polygon fill="white" stroke="black" points="331.98,-136.5 331.98,-155.5 428.98,-155.5 428.98,-136.5 331.98,-136.5"/>
<text text-anchor="middle" x="380.48" y="-143.5" font-family="Helvetica,sans-Serif" font-size="10.00">P4::ProgramMap</text>
</a>
</g>
</g>
<!-- Node4&#45;&gt;Node8 -->
<g id="edge14" class="edge">
<title>Node4&#45;&gt;Node8</title>
<path fill="none" stroke="#9a32cd" stroke-dasharray="5,2" d="M252.69,-200.38C284.13,-187.25 332.49,-167.05 359.81,-155.63"/>
<polygon fill="#9a32cd" stroke="#9a32cd" points="251.01,-197.29 243.13,-204.37 253.71,-203.75 251.01,-197.29"/>
<text text-anchor="middle" x="339.98" y="-177" font-family="Helvetica,sans-Serif" font-size="10.00"> mapKind</text>
</g>
<!-- Node5&#45;&gt;Node3 -->
<g id="edge5" class="edge">
<title>Node5&#45;&gt;Node3</title>
<path fill="none" stroke="#9a32cd" stroke-dasharray="5,2" d="M116.99,-24.73C133.11,-34.43 152.78,-48.9 164.48,-67 179.15,-89.72 187.37,-121.14 190.7,-136.22"/>
<polygon fill="#9a32cd" stroke="#9a32cd" points="118.41,-21.51 107.99,-19.58 114.93,-27.59 118.41,-21.51"/>
<text text-anchor="middle" x="214.48" y="-81" font-family="Helvetica,sans-Serif" font-size="10.00"> split_link</text>
<text text-anchor="middle" x="214.48" y="-70" font-family="Helvetica,sans-Serif" font-size="10.00">split_link_mem</text>
</g>
<!-- Node5&#45;&gt;Node5 -->
<g id="edge6" class="edge">
<title>Node5&#45;&gt;Node5</title>
<path fill="none" stroke="#9a32cd" stroke-dasharray="5,2" d="M156.87,-14.4C161.59,-13.4 164.48,-11.93 164.48,-10 164.48,-6.91 157.1,-5.01 146.62,-4.31"/>
<polygon fill="#9a32cd" stroke="#9a32cd" points="156.1,-10.97 146.62,-15.69 156.98,-17.91 156.1,-10.97"/>
<text text-anchor="middle" x="176.98" y="-7.5" font-family="Helvetica,sans-Serif" font-size="10.00"> prev</text>
</g>
<!-- Node6&#45;&gt;Node5 -->
<g id="edge7" class="edge">
<title>Node6&#45;&gt;Node5</title>
<path fill="none" stroke="#9a32cd" stroke-dasharray="5,2" d="M90.48,-58.04C90.48,-45.47 90.48,-29.56 90.48,-19.84"/>
<polygon fill="#9a32cd" stroke="#9a32cd" points="86.98,-58.37 90.48,-68.37 93.98,-58.37 86.98,-58.37"/>
<text text-anchor="middle" x="110.48" y="-41" font-family="Helvetica,sans-Serif" font-size="10.00"> visitors</text>
</g>
<!-- Node7 -->
<g id="node7" class="node">
<title>Node7</title>
<g id="a_node7"><a xlink:href="class_p4_1_1_type_map.html" target="_top" xlink:title=" ">
<polygon fill="white" stroke="black" points="370.48,-68.5 370.48,-87.5 448.48,-87.5 448.48,-68.5 370.48,-68.5"/>
<text text-anchor="middle" x="409.48" y="-75.5" font-family="Helvetica,sans-Serif" font-size="10.00">P4::TypeMap</text>
</a>
</g>
</g>
<!-- Node7&#45;&gt;Node1 -->
<g id="edge11" class="edge">
<title>Node7&#45;&gt;Node1</title>
<path fill="none" stroke="#9a32cd" stroke-dasharray="5,2" d="M409.48,-58.04C409.48,-45.47 409.48,-29.56 409.48,-19.84"/>
<polygon fill="#9a32cd" stroke="#9a32cd" points="405.98,-58.37 409.48,-68.37 412.98,-58.37 405.98,-58.37"/>
<text text-anchor="middle" x="432.48" y="-41" font-family="Helvetica,sans-Serif" font-size="10.00"> typeMap</text>
</g>
<!-- Node8&#45;&gt;Node7 -->
<g id="edge12" class="edge">
<title>Node8&#45;&gt;Node7</title>
<path fill="none" stroke="midnightblue" d="M388.3,-127.19C393.9,-114.45 401.19,-97.86 405.59,-87.84"/>
<polygon fill="midnightblue" stroke="midnightblue" points="385.08,-125.81 384.27,-136.37 391.49,-128.62 385.08,-125.81"/>
</g>
<!-- Node9 -->
<g id="node9" class="node">
<title>Node9</title>
<g id="a_node9"><a xlink:href="class_i_has_db_print.html" target="_top" xlink:title=" ">
<polygon fill="white" stroke="black" points="343.48,-204.5 343.48,-223.5 417.48,-223.5 417.48,-204.5 343.48,-204.5"/>
<text text-anchor="middle" x="380.48" y="-211.5" font-family="Helvetica,sans-Serif" font-size="10.00">IHasDbPrint</text>
</a>
</g>
</g>
<!-- Node9&#45;&gt;Node8 -->
<g id="edge13" class="edge">
<title>Node9&#45;&gt;Node8</title>
<path fill="none" stroke="midnightblue" d="M380.48,-194.04C380.48,-181.47 380.48,-165.56 380.48,-155.84"/>
<polygon fill="midnightblue" stroke="midnightblue" points="376.98,-194.37 380.48,-204.37 383.98,-194.37 376.98,-194.37"/>
</g>
<!-- Node10 -->
<g id="node10" class="node">
<title>Node10</title>
<g id="a_node10"><a xlink:href="class_p4_1_1_choose_enum_representation.html" target="_top" xlink:title=" ">
<polygon fill="white" stroke="black" points="466.98,-68.5 466.98,-87.5 639.98,-87.5 639.98,-68.5 466.98,-68.5"/>
<text text-anchor="middle" x="553.48" y="-75.5" font-family="Helvetica,sans-Serif" font-size="10.00">P4::ChooseEnumRepresentation</text>
</a>
</g>
</g>
<!-- Node10&#45;&gt;Node1 -->
<g id="edge15" class="edge">
<title>Node10&#45;&gt;Node1</title>
<path fill="none" stroke="#9a32cd" stroke-dasharray="5,2" d="M525.19,-64.03C496.53,-50.9 452.99,-30.95 428.31,-19.63"/>
<polygon fill="#9a32cd" stroke="#9a32cd" points="524.1,-67.39 534.65,-68.37 527.02,-61.02 524.1,-67.39"/>
<text text-anchor="middle" x="506.98" y="-41" font-family="Helvetica,sans-Serif" font-size="10.00"> policy</text>
</g>
</g>
</svg>
