<?xml version="1.0" encoding="UTF-8" standalone="no"?>
<!DOCTYPE svg PUBLIC "-//W3C//DTD SVG 1.1//EN"
 "http://www.w3.org/Graphics/SVG/1.1/DTD/svg11.dtd">
<!-- Generated by graphviz version 2.43.0 (0)
 -->
<!-- Title: DPDK::ElimHeaderCopy Pages: 1 -->
<svg width="391pt" height="233pt"
 viewBox="0.00 0.00 391.00 233.00" xmlns="http://www.w3.org/2000/svg" xmlns:xlink="http://www.w3.org/1999/xlink">
<g id="graph0" class="graph" transform="scale(1 1) rotate(0) translate(4 229)">
<title>DPDK::ElimHeaderCopy</title>
<polygon fill="white" stroke="transparent" points="-4,4 -4,-229 387,-229 387,4 -4,4"/>
<!-- Node1 -->
<g id="node1" class="node">
<title>Node1</title>
<g id="a_node1"><a xlink:title=" ">
<polygon fill="#bfbfbf" stroke="black" points="0,-0.5 0,-19.5 132,-19.5 132,-0.5 0,-0.5"/>
<text text-anchor="middle" x="66" y="-7.5" font-family="Helvetica,sans-Serif" font-size="10.00">DPDK::ElimHeaderCopy</text>
</a>
</g>
</g>
<!-- Node2 -->
<g id="node2" class="node">
<title>Node2</title>
<g id="a_node2"><a xlink:href="class_transform.html" target="_top" xlink:title=" ">
<polygon fill="white" stroke="black" points="33.5,-68.5 33.5,-87.5 98.5,-87.5 98.5,-68.5 33.5,-68.5"/>
<text text-anchor="middle" x="66" y="-75.5" font-family="Helvetica,sans-Serif" font-size="10.00">Transform</text>
</a>
</g>
</g>
<!-- Node2&#45;&gt;Node1 -->
<g id="edge1" class="edge">
<title>Node2&#45;&gt;Node1</title>
<path fill="none" stroke="midnightblue" d="M66,-58.04C66,-45.47 66,-29.56 66,-19.84"/>
<polygon fill="midnightblue" stroke="midnightblue" points="62.5,-58.37 66,-68.37 69.5,-58.37 62.5,-58.37"/>
</g>
<!-- Node3 -->
<g id="node3" class="node">
<title>Node3</title>
<g id="a_node3"><a xlink:href="class_visitor.html" target="_top" xlink:title=" ">
<polygon fill="white" stroke="black" points="143,-136.5 143,-155.5 191,-155.5 191,-136.5 143,-136.5"/>
<text text-anchor="middle" x="167" y="-143.5" font-family="Helvetica,sans-Serif" font-size="10.00">Visitor</text>
</a>
</g>
</g>
<!-- Node3&#45;&gt;Node2 -->
<g id="edge2" class="edge">
<title>Node3&#45;&gt;Node2</title>
<path fill="none" stroke="midnightblue" d="M142.41,-131.09C135.42,-127 127.84,-122.42 121,-118 105.66,-108.09 88.59,-95.77 77.6,-87.67"/>
<polygon fill="midnightblue" stroke="midnightblue" points="141.06,-134.35 151.47,-136.33 144.56,-128.29 141.06,-134.35"/>
</g>
<!-- Node3&#45;&gt;Node3 -->
<g id="edge10" class="edge">
<title>Node3&#45;&gt;Node3</title>
<path fill="none" stroke="#9a32cd" stroke-dasharray="5,2" d="M201.42,-151.29C205.98,-150.39 209,-148.63 209,-146 209,-141.69 200.86,-139.7 191.17,-140.04"/>
<polygon fill="#9a32cd" stroke="#9a32cd" points="200.92,-147.82 191.17,-151.96 201.38,-154.8 200.92,-147.82"/>
<text text-anchor="middle" x="234" y="-143.5" font-family="Helvetica,sans-Serif" font-size="10.00"> called_by</text>
</g>
<!-- Node5 -->
<g id="node5" class="node">
<title>Node5</title>
<g id="a_node5"><a xlink:href="class_split_flow_visit__base.html" target="_top" xlink:title=" ">
<polygon fill="white" stroke="black" points="173,-0.5 173,-19.5 285,-19.5 285,-0.5 173,-0.5"/>
<text text-anchor="middle" x="229" y="-7.5" font-family="Helvetica,sans-Serif" font-size="10.00">SplitFlowVisit_base</text>
</a>
</g>
</g>
<!-- Node3&#45;&gt;Node5 -->
<g id="edge9" class="edge">
<title>Node3&#45;&gt;Node5</title>
<path fill="none" stroke="#9a32cd" stroke-dasharray="5,2" d="M154.66,-127.83C144.54,-111.48 133.48,-86.53 144,-67 156.74,-43.35 184.32,-28.04 204.62,-19.51"/>
<polygon fill="#9a32cd" stroke="#9a32cd" points="151.88,-129.97 160.33,-136.36 157.7,-126.1 151.88,-129.97"/>
<text text-anchor="middle" x="149" y="-75.5" font-family="Helvetica,sans-Serif" font-size="10.00"> v</text>
</g>
<!-- Node6 -->
<g id="node6" class="node">
<title>Node6</title>
<g id="a_node6"><a xlink:title=" ">
<polygon fill="white" stroke="#bfbfbf" points="163.5,-68.5 163.5,-87.5 294.5,-87.5 294.5,-68.5 163.5,-68.5"/>
<text text-anchor="middle" x="229" y="-75.5" font-family="Helvetica,sans-Serif" font-size="10.00">std::vector&lt; Visitor * &gt;</text>
</a>
</g>
</g>
<!-- Node3&#45;&gt;Node6 -->
<g id="edge8" class="edge">
<title>Node3&#45;&gt;Node6</title>
<path fill="none" stroke="#9a32cd" stroke-dasharray="5,2" d="M181.99,-129.05C194.14,-116.11 210.82,-98.36 220.69,-87.84"/>
<polygon fill="#9a32cd" stroke="#9a32cd" points="179.4,-126.69 175.11,-136.37 184.5,-131.48 179.4,-126.69"/>
<text text-anchor="middle" x="226.5" y="-110" font-family="Helvetica,sans-Serif" font-size="10.00"> elements</text>
</g>
<!-- Node4 -->
<g id="node4" class="node">
<title>Node4</title>
<g id="a_node4"><a xlink:href="classcstring.html" target="_top" xlink:title=" ">
<polygon fill="white" stroke="black" points="142,-204.5 142,-223.5 192,-223.5 192,-204.5 142,-204.5"/>
<text text-anchor="middle" x="167" y="-211.5" font-family="Helvetica,sans-Serif" font-size="10.00">cstring</text>
</a>
</g>
</g>
<!-- Node4&#45;&gt;Node3 -->
<g id="edge3" class="edge">
<title>Node4&#45;&gt;Node3</title>
<path fill="none" stroke="#9a32cd" stroke-dasharray="5,2" d="M167,-194.04C167,-181.47 167,-165.56 167,-155.84"/>
<polygon fill="#9a32cd" stroke="#9a32cd" points="163.5,-194.37 167,-204.37 170.5,-194.37 163.5,-194.37"/>
<text text-anchor="middle" x="202" y="-177" font-family="Helvetica,sans-Serif" font-size="10.00"> internalName</text>
</g>
<!-- Node4&#45;&gt;Node4 -->
<g id="edge4" class="edge">
<title>Node4&#45;&gt;Node4</title>
<path fill="none" stroke="#9a32cd" stroke-dasharray="5,2" d="M202.45,-219.58C207,-218.61 210,-216.75 210,-214 210,-209.48 201.91,-207.37 192.18,-207.65"/>
<polygon fill="#9a32cd" stroke="#9a32cd" points="201.89,-216.11 192.18,-220.35 202.41,-223.1 201.89,-216.11"/>
<text text-anchor="middle" x="229.5" y="-217" font-family="Helvetica,sans-Serif" font-size="10.00"> empty</text>
<text text-anchor="middle" x="229.5" y="-206" font-family="Helvetica,sans-Serif" font-size="10.00">newline</text>
</g>
<!-- Node5&#45;&gt;Node3 -->
<g id="edge5" class="edge">
<title>Node5&#45;&gt;Node3</title>
<path fill="none" stroke="#9a32cd" stroke-dasharray="5,2" d="M258.05,-24.16C285.07,-38.38 319.07,-62.58 304,-89 281.35,-128.73 223.96,-140.29 191.1,-143.64"/>
<polygon fill="#9a32cd" stroke="#9a32cd" points="259.38,-20.91 248.88,-19.56 256.25,-27.17 259.38,-20.91"/>
<text text-anchor="middle" x="345" y="-81" font-family="Helvetica,sans-Serif" font-size="10.00"> split_link</text>
<text text-anchor="middle" x="345" y="-70" font-family="Helvetica,sans-Serif" font-size="10.00">split_link_mem</text>
</g>
<!-- Node5&#45;&gt;Node5 -->
<g id="edge6" class="edge">
<title>Node5&#45;&gt;Node5</title>
<path fill="none" stroke="#9a32cd" stroke-dasharray="5,2" d="M295.4,-14.4C300.12,-13.4 303,-11.93 303,-10 303,-6.91 295.62,-5.01 285.15,-4.31"/>
<polygon fill="#9a32cd" stroke="#9a32cd" points="294.63,-10.97 285.15,-15.69 295.51,-17.91 294.63,-10.97"/>
<text text-anchor="middle" x="315.5" y="-7.5" font-family="Helvetica,sans-Serif" font-size="10.00"> prev</text>
</g>
<!-- Node6&#45;&gt;Node5 -->
<g id="edge7" class="edge">
<title>Node6&#45;&gt;Node5</title>
<path fill="none" stroke="#9a32cd" stroke-dasharray="5,2" d="M229,-58.04C229,-45.47 229,-29.56 229,-19.84"/>
<polygon fill="#9a32cd" stroke="#9a32cd" points="225.5,-58.37 229,-68.37 232.5,-58.37 225.5,-58.37"/>
<text text-anchor="middle" x="249" y="-41" font-family="Helvetica,sans-Serif" font-size="10.00"> visitors</text>
</g>
</g>
</svg>
