<?xml version="1.0" encoding="UTF-8" standalone="no"?>
<!DOCTYPE svg PUBLIC "-//W3C//DTD SVG 1.1//EN"
 "http://www.w3.org/Graphics/SVG/1.1/DTD/svg11.dtd">
<!-- Generated by graphviz version 2.43.0 (0)
 -->
<!-- Title: P4Tools::P4Testgen::Pna::SharedPnaTableStepper Pages: 1 -->
<svg width="1657pt" height="543pt"
 viewBox="0.00 0.00 1657.00 543.00" xmlns="http://www.w3.org/2000/svg" xmlns:xlink="http://www.w3.org/1999/xlink">
<g id="graph0" class="graph" transform="scale(1 1) rotate(0) translate(4 539)">
<title>P4Tools::P4Testgen::Pna::SharedPnaTableStepper</title>
<polygon fill="white" stroke="transparent" points="-4,4 -4,-539 1653,-539 1653,4 -4,4"/>
<!-- Node1 -->
<g id="node1" class="node">
<title>Node1</title>
<g id="a_node1"><a xlink:title=" ">
<polygon fill="#bfbfbf" stroke="black" points="1488,-109.5 1488,-139.5 1649,-139.5 1649,-109.5 1488,-109.5"/>
<text text-anchor="start" x="1496" y="-127.5" font-family="Helvetica,sans-Serif" font-size="10.00">P4Tools::P4Testgen</text>
<text text-anchor="middle" x="1568.5" y="-116.5" font-family="Helvetica,sans-Serif" font-size="10.00">::Pna::SharedPnaTableStepper</text>
</a>
</g>
</g>
<!-- Node2 -->
<g id="node2" class="node">
<title>Node2</title>
<g id="a_node2"><a xlink:href="class_p4_tools_1_1_p4_testgen_1_1_table_stepper.html" target="_top" xlink:title="Implements small&#45;step operational semantics for tables.">
<polygon fill="white" stroke="black" points="1342,-147.5 1342,-177.5 1451,-177.5 1451,-147.5 1342,-147.5"/>
<text text-anchor="start" x="1350" y="-165.5" font-family="Helvetica,sans-Serif" font-size="10.00">P4Tools::P4Testgen</text>
<text text-anchor="middle" x="1396.5" y="-154.5" font-family="Helvetica,sans-Serif" font-size="10.00">::TableStepper</text>
</a>
</g>
</g>
<!-- Node2&#45;&gt;Node1 -->
<g id="edge1" class="edge">
<title>Node2&#45;&gt;Node1</title>
<path fill="none" stroke="midnightblue" d="M1461.33,-148.23C1474.06,-145.39 1487.47,-142.39 1500.31,-139.52"/>
<polygon fill="midnightblue" stroke="midnightblue" points="1460.28,-144.88 1451.29,-150.48 1461.81,-151.71 1460.28,-144.88"/>
</g>
<!-- Node3 -->
<g id="node3" class="node">
<title>Node3</title>
<g id="a_node3"><a xlink:href="class_p4_tools_1_1_p4_testgen_1_1_expr_stepper.html" target="_top" xlink:title="Implements small&#45;step operational semantics for expressions.">
<polygon fill="white" stroke="black" points="1131,-147.5 1131,-177.5 1240,-177.5 1240,-147.5 1131,-147.5"/>
<text text-anchor="start" x="1139" y="-165.5" font-family="Helvetica,sans-Serif" font-size="10.00">P4Tools::P4Testgen</text>
<text text-anchor="middle" x="1185.5" y="-154.5" font-family="Helvetica,sans-Serif" font-size="10.00">::ExprStepper</text>
</a>
</g>
</g>
<!-- Node3&#45;&gt;Node2 -->
<g id="edge2" class="edge">
<title>Node3&#45;&gt;Node2</title>
<path fill="none" stroke="#9a32cd" stroke-dasharray="5,2" d="M1250.17,-162.5C1279.44,-162.5 1313.78,-162.5 1341.73,-162.5"/>
<polygon fill="#9a32cd" stroke="#9a32cd" points="1250.05,-159 1240.05,-162.5 1250.05,-166 1250.05,-159"/>
<text text-anchor="middle" x="1304" y="-165.5" font-family="Helvetica,sans-Serif" font-size="10.00"> stepper</text>
</g>
<!-- Node4 -->
<g id="node4" class="node">
<title>Node4</title>
<g id="a_node4"><a xlink:href="class_p4_tools_1_1_p4_testgen_1_1_abstract_stepper.html" target="_top" xlink:title=" ">
<polygon fill="white" stroke="black" points="837,-147.5 837,-177.5 946,-177.5 946,-147.5 837,-147.5"/>
<text text-anchor="start" x="845" y="-165.5" font-family="Helvetica,sans-Serif" font-size="10.00">P4Tools::P4Testgen</text>
<text text-anchor="middle" x="891.5" y="-154.5" font-family="Helvetica,sans-Serif" font-size="10.00">::AbstractStepper</text>
</a>
</g>
</g>
<!-- Node4&#45;&gt;Node3 -->
<g id="edge3" class="edge">
<title>Node4&#45;&gt;Node3</title>
<path fill="none" stroke="midnightblue" d="M956.21,-162.5C1008.43,-162.5 1081.5,-162.5 1130.79,-162.5"/>
<polygon fill="midnightblue" stroke="midnightblue" points="956.06,-159 946.06,-162.5 956.06,-166 956.06,-159"/>
</g>
<!-- Node5 -->
<g id="node5" class="node">
<title>Node5</title>
<g id="a_node5"><a xlink:href="class_inspector.html" target="_top" xlink:title=" ">
<polygon fill="white" stroke="black" points="597.5,-235 597.5,-254 659.5,-254 659.5,-235 597.5,-235"/>
<text text-anchor="middle" x="628.5" y="-242" font-family="Helvetica,sans-Serif" font-size="10.00">Inspector</text>
</a>
</g>
</g>
<!-- Node5&#45;&gt;Node4 -->
<g id="edge4" class="edge">
<title>Node5&#45;&gt;Node4</title>
<path fill="none" stroke="midnightblue" d="M669.66,-237.04C703.11,-230.32 751.77,-219.38 793,-205.5 816.14,-197.71 841.34,-186.52 860.32,-177.51"/>
<polygon fill="midnightblue" stroke="midnightblue" points="668.93,-233.62 659.79,-238.99 670.28,-240.48 668.93,-233.62"/>
</g>
<!-- Node6 -->
<g id="node6" class="node">
<title>Node6</title>
<g id="a_node6"><a xlink:href="class_visitor.html" target="_top" xlink:title=" ">
<polygon fill="white" stroke="black" points="310.5,-319 310.5,-338 358.5,-338 358.5,-319 310.5,-319"/>
<text text-anchor="middle" x="334.5" y="-326" font-family="Helvetica,sans-Serif" font-size="10.00">Visitor</text>
</a>
</g>
</g>
<!-- Node6&#45;&gt;Node5 -->
<g id="edge5" class="edge">
<title>Node6&#45;&gt;Node5</title>
<path fill="none" stroke="midnightblue" d="M361.07,-313.87C378.8,-304.28 403.22,-292.16 426,-284.5 484.99,-264.67 557.19,-253.29 597.17,-248.05"/>
<polygon fill="midnightblue" stroke="midnightblue" points="359.03,-311 351.97,-318.89 362.41,-317.13 359.03,-311"/>
</g>
<!-- Node6&#45;&gt;Node6 -->
<g id="edge13" class="edge">
<title>Node6&#45;&gt;Node6</title>
<path fill="none" stroke="#9a32cd" stroke-dasharray="5,2" d="M311.06,-347.53C312.34,-352.63 320.15,-356.5 334.5,-356.5 356.89,-356.5 363.37,-347.07 353.92,-338.26"/>
<polygon fill="#9a32cd" stroke="#9a32cd" points="314.32,-348.82 315.08,-338.26 307.89,-346.04 314.32,-348.82"/>
<text text-anchor="middle" x="334.5" y="-359.5" font-family="Helvetica,sans-Serif" font-size="10.00"> called_by</text>
</g>
<!-- Node8 -->
<g id="node8" class="node">
<title>Node8</title>
<g id="a_node8"><a xlink:href="class_split_flow_visit__base.html" target="_top" xlink:title=" ">
<polygon fill="white" stroke="black" points="835.5,-319 835.5,-338 947.5,-338 947.5,-319 835.5,-319"/>
<text text-anchor="middle" x="891.5" y="-326" font-family="Helvetica,sans-Serif" font-size="10.00">SplitFlowVisit_base</text>
</a>
</g>
</g>
<!-- Node6&#45;&gt;Node8 -->
<g id="edge12" class="edge">
<title>Node6&#45;&gt;Node8</title>
<path fill="none" stroke="#9a32cd" stroke-dasharray="5,2" d="M368.57,-334.09C385.68,-336.86 406.93,-340.11 426,-342.5 549.59,-357.98 581.73,-363.03 706,-354.5 744.94,-351.83 754.35,-347.94 793,-342.5 806.72,-340.57 821.51,-338.46 835.34,-336.48"/>
<polygon fill="#9a32cd" stroke="#9a32cd" points="368.95,-330.6 358.51,-332.44 367.81,-337.51 368.95,-330.6"/>
<text text-anchor="middle" x="628.5" y="-361.5" font-family="Helvetica,sans-Serif" font-size="10.00"> v</text>
</g>
<!-- Node9 -->
<g id="node9" class="node">
<title>Node9</title>
<g id="a_node9"><a xlink:title=" ">
<polygon fill="white" stroke="#bfbfbf" points="563,-273 563,-292 694,-292 694,-273 563,-273"/>
<text text-anchor="middle" x="628.5" y="-280" font-family="Helvetica,sans-Serif" font-size="10.00">std::vector&lt; Visitor * &gt;</text>
</a>
</g>
</g>
<!-- Node6&#45;&gt;Node9 -->
<g id="edge11" class="edge">
<title>Node6&#45;&gt;Node9</title>
<path fill="none" stroke="#9a32cd" stroke-dasharray="5,2" d="M368.68,-317.91C385.67,-312.86 406.77,-307.13 426,-303.5 471.27,-294.95 522.98,-289.65 562.67,-286.51"/>
<polygon fill="#9a32cd" stroke="#9a32cd" points="367.24,-314.69 358.69,-320.95 369.28,-321.39 367.24,-314.69"/>
<text text-anchor="middle" x="479.5" y="-306.5" font-family="Helvetica,sans-Serif" font-size="10.00"> elements</text>
</g>
<!-- Node7 -->
<g id="node7" class="node">
<title>Node7</title>
<g id="a_node7"><a xlink:href="classcstring.html" target="_top" xlink:title=" ">
<polygon fill="white" stroke="black" points="52.5,-447 52.5,-466 102.5,-466 102.5,-447 52.5,-447"/>
<text text-anchor="middle" x="77.5" y="-454" font-family="Helvetica,sans-Serif" font-size="10.00">cstring</text>
</a>
</g>
</g>
<!-- Node7&#45;&gt;Node6 -->
<g id="edge6" class="edge">
<title>Node7&#45;&gt;Node6</title>
<path fill="none" stroke="#9a32cd" stroke-dasharray="5,2" d="M106.73,-442.33C159.1,-416.04 269.99,-360.38 314.46,-338.06"/>
<polygon fill="#9a32cd" stroke="#9a32cd" points="105.03,-439.26 97.67,-446.88 108.17,-445.52 105.03,-439.26"/>
<text text-anchor="middle" x="208" y="-410.5" font-family="Helvetica,sans-Serif" font-size="10.00"> internalName</text>
</g>
<!-- Node7&#45;&gt;Node7 -->
<g id="edge7" class="edge">
<title>Node7&#45;&gt;Node7</title>
<path fill="none" stroke="#9a32cd" stroke-dasharray="5,2" d="M53.32,-475.53C54.64,-480.63 62.7,-484.5 77.5,-484.5 100.61,-484.5 107.28,-475.07 97.54,-466.26"/>
<polygon fill="#9a32cd" stroke="#9a32cd" points="56.58,-476.81 57.46,-466.26 50.19,-473.96 56.58,-476.81"/>
<text text-anchor="middle" x="77.5" y="-498.5" font-family="Helvetica,sans-Serif" font-size="10.00"> empty</text>
<text text-anchor="middle" x="77.5" y="-487.5" font-family="Helvetica,sans-Serif" font-size="10.00">newline</text>
</g>
<!-- Node23 -->
<g id="node23" class="node">
<title>Node23</title>
<g id="a_node23"><a xlink:href="struct_p4_tools_1_1_table_utils_1_1_table_properties.html" target="_top" xlink:title="Basic table properties that are set when initializing the TableStepper.">
<polygon fill="white" stroke="black" points="838,-447.5 838,-477.5 945,-477.5 945,-447.5 838,-447.5"/>
<text text-anchor="start" x="846" y="-465.5" font-family="Helvetica,sans-Serif" font-size="10.00">P4Tools::TableUtils</text>
<text text-anchor="middle" x="891.5" y="-454.5" font-family="Helvetica,sans-Serif" font-size="10.00">::TableProperties</text>
</a>
</g>
</g>
<!-- Node7&#45;&gt;Node23 -->
<g id="edge33" class="edge">
<title>Node7&#45;&gt;Node23</title>
<path fill="none" stroke="#9a32cd" stroke-dasharray="5,2" d="M112.58,-458.73C130.55,-459.79 152.96,-460.96 173,-461.5 421.73,-468.25 719.14,-465.07 837.83,-463.35"/>
<polygon fill="#9a32cd" stroke="#9a32cd" points="112.76,-455.23 102.57,-458.12 112.34,-462.22 112.76,-455.23"/>
<text text-anchor="middle" x="479.5" y="-468.5" font-family="Helvetica,sans-Serif" font-size="10.00"> tableName</text>
</g>
<!-- Node25 -->
<g id="node25" class="node">
<title>Node25</title>
<g id="a_node25"><a xlink:href="struct_p4_tools_1_1_table_utils_1_1_key_properties.html" target="_top" xlink:title="KeyProperties define properties of table keys that are useful for execution.">
<polygon fill="white" stroke="black" points="281,-416.5 281,-446.5 388,-446.5 388,-416.5 281,-416.5"/>
<text text-anchor="start" x="289" y="-434.5" font-family="Helvetica,sans-Serif" font-size="10.00">P4Tools::TableUtils</text>
<text text-anchor="middle" x="334.5" y="-423.5" font-family="Helvetica,sans-Serif" font-size="10.00">::KeyProperties</text>
</a>
</g>
</g>
<!-- Node7&#45;&gt;Node25 -->
<g id="edge32" class="edge">
<title>Node7&#45;&gt;Node25</title>
<path fill="none" stroke="#9a32cd" stroke-dasharray="5,2" d="M112.81,-449.23C130.68,-445.73 152.93,-441.8 173,-439.5 208.9,-435.39 249.55,-433.39 280.95,-432.42"/>
<polygon fill="#9a32cd" stroke="#9a32cd" points="111.96,-445.83 102.85,-451.23 113.34,-452.7 111.96,-445.83"/>
<text text-anchor="middle" x="208" y="-453.5" font-family="Helvetica,sans-Serif" font-size="10.00"> matchType</text>
<text text-anchor="middle" x="208" y="-442.5" font-family="Helvetica,sans-Serif" font-size="10.00">name</text>
</g>
<!-- Node26 -->
<g id="node26" class="node">
<title>Node26</title>
<g id="a_node26"><a xlink:title=" ">
<polygon fill="white" stroke="#bfbfbf" points="426,-504.5 426,-534.5 533,-534.5 533,-504.5 426,-504.5"/>
<text text-anchor="start" x="434" y="-522.5" font-family="Helvetica,sans-Serif" font-size="10.00">std::map&lt; cstring,</text>
<text text-anchor="middle" x="479.5" y="-511.5" font-family="Helvetica,sans-Serif" font-size="10.00"> int &gt;</text>
</a>
</g>
</g>
<!-- Node7&#45;&gt;Node26 -->
<g id="edge35" class="edge">
<title>Node7&#45;&gt;Node26</title>
<path fill="none" stroke="#9a32cd" stroke-dasharray="5,2" d="M110.44,-469.79C128.49,-476.76 151.66,-484.8 173,-489.5 260.3,-508.74 364.37,-515.65 425.74,-518.12"/>
<polygon fill="#9a32cd" stroke="#9a32cd" points="111.56,-466.47 100.97,-466.06 108.99,-472.98 111.56,-466.47"/>
<text text-anchor="middle" x="208" y="-503.5" font-family="Helvetica,sans-Serif" font-size="10.00"> keys</text>
</g>
<!-- Node8&#45;&gt;Node6 -->
<g id="edge8" class="edge">
<title>Node8&#45;&gt;Node6</title>
<path fill="none" stroke="#9a32cd" stroke-dasharray="5,2" d="M825.18,-328.5C701.43,-328.5 438.06,-328.5 358.64,-328.5"/>
<polygon fill="#9a32cd" stroke="#9a32cd" points="825.28,-332 835.28,-328.5 825.28,-325 825.28,-332"/>
<text text-anchor="middle" x="628.5" y="-342.5" font-family="Helvetica,sans-Serif" font-size="10.00"> split_link</text>
<text text-anchor="middle" x="628.5" y="-331.5" font-family="Helvetica,sans-Serif" font-size="10.00">split_link_mem</text>
</g>
<!-- Node8&#45;&gt;Node8 -->
<g id="edge9" class="edge">
<title>Node8&#45;&gt;Node8</title>
<path fill="none" stroke="#9a32cd" stroke-dasharray="5,2" d="M866.95,-347.53C868.29,-352.63 876.47,-356.5 891.5,-356.5 914.96,-356.5 921.74,-347.07 911.85,-338.26"/>
<polygon fill="#9a32cd" stroke="#9a32cd" points="870.21,-348.81 871.15,-338.26 863.83,-345.92 870.21,-348.81"/>
<text text-anchor="middle" x="891.5" y="-359.5" font-family="Helvetica,sans-Serif" font-size="10.00"> prev</text>
</g>
<!-- Node9&#45;&gt;Node8 -->
<g id="edge10" class="edge">
<title>Node9&#45;&gt;Node8</title>
<path fill="none" stroke="#9a32cd" stroke-dasharray="5,2" d="M704.35,-290.15C732.29,-293.52 764.21,-297.98 793,-303.5 814.62,-307.64 838.58,-313.77 857.34,-318.91"/>
<polygon fill="#9a32cd" stroke="#9a32cd" points="704.59,-286.65 694.24,-288.96 703.77,-293.6 704.59,-286.65"/>
<text text-anchor="middle" x="758.5" y="-306.5" font-family="Helvetica,sans-Serif" font-size="10.00"> visitors</text>
</g>
<!-- Node10 -->
<g id="node10" class="node">
<title>Node10</title>
<g id="a_node10"><a xlink:href="class_p4_tools_1_1_p4_testgen_1_1_program_info.html" target="_top" xlink:title="Stores target&#45;specific information about a P4 program.">
<polygon fill="white" stroke="black" points="574,-146.5 574,-176.5 683,-176.5 683,-146.5 574,-146.5"/>
<text text-anchor="start" x="582" y="-164.5" font-family="Helvetica,sans-Serif" font-size="10.00">P4Tools::P4Testgen</text>
<text text-anchor="middle" x="628.5" y="-153.5" font-family="Helvetica,sans-Serif" font-size="10.00">::ProgramInfo</text>
</a>
</g>
</g>
<!-- Node10&#45;&gt;Node4 -->
<g id="edge14" class="edge">
<title>Node10&#45;&gt;Node4</title>
<path fill="none" stroke="#9a32cd" stroke-dasharray="5,2" d="M693.28,-161.74C737.29,-161.91 795.15,-162.13 836.81,-162.29"/>
<polygon fill="#9a32cd" stroke="#9a32cd" points="693.28,-158.24 683.26,-161.71 693.25,-165.24 693.28,-158.24"/>
<text text-anchor="middle" x="758.5" y="-165.5" font-family="Helvetica,sans-Serif" font-size="10.00"> programInfo</text>
</g>
<!-- Node11 -->
<g id="node11" class="node">
<title>Node11</title>
<g id="a_node11"><a xlink:href="class_i_castable.html" target="_top" xlink:title=" ">
<polygon fill="white" stroke="black" points="303.5,-10 303.5,-29 365.5,-29 365.5,-10 303.5,-10"/>
<text text-anchor="middle" x="334.5" y="-17" font-family="Helvetica,sans-Serif" font-size="10.00">ICastable</text>
</a>
</g>
</g>
<!-- Node11&#45;&gt;Node10 -->
<g id="edge15" class="edge">
<title>Node11&#45;&gt;Node10</title>
<path fill="none" stroke="midnightblue" d="M375.52,-26.2C386.48,-29.03 398.07,-32.99 408,-38.5 417.62,-43.84 417.33,-48.73 426,-55.5 429.25,-58.04 547.29,-133.71 551,-135.5 559.34,-139.51 568.47,-143.19 577.42,-146.43"/>
<polygon fill="midnightblue" stroke="midnightblue" points="376.23,-22.77 365.7,-23.91 374.64,-29.59 376.23,-22.77"/>
</g>
<!-- Node22 -->
<g id="node22" class="node">
<title>Node22</title>
<g id="a_node22"><a xlink:href="class_abstract_solver.html" target="_top" xlink:title="Provides a higher&#45;level interface for an SMT solver.">
<polygon fill="white" stroke="black" points="584.5,-55 584.5,-74 672.5,-74 672.5,-55 584.5,-55"/>
<text text-anchor="middle" x="628.5" y="-62" font-family="Helvetica,sans-Serif" font-size="10.00">AbstractSolver</text>
</a>
</g>
</g>
<!-- Node11&#45;&gt;Node22 -->
<g id="edge28" class="edge">
<title>Node11&#45;&gt;Node22</title>
<path fill="none" stroke="midnightblue" d="M375.68,-25.69C430.43,-34.13 528.08,-49.18 584.34,-57.85"/>
<polygon fill="midnightblue" stroke="midnightblue" points="376.07,-22.21 365.65,-24.15 375,-29.13 376.07,-22.21"/>
</g>
<!-- Node29 -->
<g id="node29" class="node">
<title>Node29</title>
<g id="a_node29"><a xlink:href="class_p4_tools_1_1_p4_testgen_1_1_test_object.html" target="_top" xlink:title=" ">
<polygon fill="white" stroke="black" points="574,-3.5 574,-33.5 683,-33.5 683,-3.5 574,-3.5"/>
<text text-anchor="start" x="582" y="-21.5" font-family="Helvetica,sans-Serif" font-size="10.00">P4Tools::P4Testgen</text>
<text text-anchor="middle" x="628.5" y="-10.5" font-family="Helvetica,sans-Serif" font-size="10.00">::TestObject</text>
</a>
</g>
</g>
<!-- Node11&#45;&gt;Node29 -->
<g id="edge39" class="edge">
<title>Node11&#45;&gt;Node29</title>
<path fill="none" stroke="midnightblue" d="M375.73,-19.36C427.22,-19.19 516.6,-18.88 573.85,-18.68"/>
<polygon fill="midnightblue" stroke="midnightblue" points="375.64,-15.86 365.65,-19.4 375.66,-22.86 375.64,-15.86"/>
</g>
<!-- Node12 -->
<g id="node12" class="node">
<title>Node12</title>
<g id="a_node12"><a xlink:href="struct_r_t_t_i_1_1_base.html" target="_top" xlink:title=" ">
<polygon fill="white" stroke="black" points="43.5,-10 43.5,-29 111.5,-29 111.5,-10 43.5,-10"/>
<text text-anchor="middle" x="77.5" y="-17" font-family="Helvetica,sans-Serif" font-size="10.00">RTTI::Base</text>
</a>
</g>
</g>
<!-- Node12&#45;&gt;Node11 -->
<g id="edge16" class="edge">
<title>Node12&#45;&gt;Node11</title>
<path fill="none" stroke="midnightblue" d="M121.74,-19.5C173.32,-19.5 258.23,-19.5 303.26,-19.5"/>
<polygon fill="midnightblue" stroke="midnightblue" points="121.58,-16 111.58,-19.5 121.58,-23 121.58,-16"/>
</g>
<!-- Node13 -->
<g id="node13" class="node">
<title>Node13</title>
<g id="a_node13"><a xlink:href="classordered__map.html" target="_top" xlink:title=" ">
<polygon fill="white" stroke="black" points="270.5,-195.5 270.5,-225.5 398.5,-225.5 398.5,-195.5 270.5,-195.5"/>
<text text-anchor="start" x="278.5" y="-213.5" font-family="Helvetica,sans-Serif" font-size="10.00">ordered_map&lt; cstring,</text>
<text text-anchor="middle" x="334.5" y="-202.5" font-family="Helvetica,sans-Serif" font-size="10.00"> cstring &gt;</text>
</a>
</g>
</g>
<!-- Node13&#45;&gt;Node10 -->
<g id="edge17" class="edge">
<title>Node13&#45;&gt;Node10</title>
<path fill="none" stroke="#9a32cd" stroke-dasharray="5,2" d="M408.55,-198.24C459.91,-189.62 527.5,-178.28 573.92,-170.49"/>
<polygon fill="#9a32cd" stroke="#9a32cd" points="407.78,-194.82 398.5,-199.93 408.94,-201.72 407.78,-194.82"/>
<text text-anchor="middle" x="479.5" y="-198.5" font-family="Helvetica,sans-Serif" font-size="10.00"> blockMap</text>
</g>
<!-- Node14 -->
<g id="node14" class="node">
<title>Node14</title>
<g id="a_node14"><a xlink:href="class_p4_tools_1_1_p4_testgen_1_1_concolic_method_impls.html" target="_top" xlink:title="Encapsulates a set of concolic method implementations.">
<polygon fill="white" stroke="black" points="270.5,-146.5 270.5,-176.5 398.5,-176.5 398.5,-146.5 270.5,-146.5"/>
<text text-anchor="start" x="278.5" y="-164.5" font-family="Helvetica,sans-Serif" font-size="10.00">P4Tools::P4Testgen</text>
<text text-anchor="middle" x="334.5" y="-153.5" font-family="Helvetica,sans-Serif" font-size="10.00">::ConcolicMethodImpls</text>
</a>
</g>
</g>
<!-- Node14&#45;&gt;Node10 -->
<g id="edge18" class="edge">
<title>Node14&#45;&gt;Node10</title>
<path fill="none" stroke="#9a32cd" stroke-dasharray="5,2" d="M408.55,-161.5C459.91,-161.5 527.5,-161.5 573.92,-161.5"/>
<polygon fill="#9a32cd" stroke="#9a32cd" points="408.5,-158 398.5,-161.5 408.5,-165 408.5,-158"/>
<text text-anchor="middle" x="479.5" y="-164.5" font-family="Helvetica,sans-Serif" font-size="10.00"> concolicMethodImpls</text>
</g>
<!-- Node15 -->
<g id="node15" class="node">
<title>Node15</title>
<g id="a_node15"><a xlink:title=" ">
<polygon fill="white" stroke="#bfbfbf" points="263.5,-97.5 263.5,-127.5 405.5,-127.5 405.5,-97.5 263.5,-97.5"/>
<text text-anchor="start" x="271.5" y="-115.5" font-family="Helvetica,sans-Serif" font-size="10.00">std::vector&lt; Continuation</text>
<text text-anchor="middle" x="334.5" y="-104.5" font-family="Helvetica,sans-Serif" font-size="10.00">::Command &gt;</text>
</a>
</g>
</g>
<!-- Node15&#45;&gt;Node10 -->
<g id="edge19" class="edge">
<title>Node15&#45;&gt;Node10</title>
<path fill="none" stroke="#9a32cd" stroke-dasharray="5,2" d="M415.69,-125.96C466,-134.4 529.5,-145.06 573.8,-152.49"/>
<polygon fill="#9a32cd" stroke="#9a32cd" points="416.25,-122.5 405.81,-124.3 415.1,-129.41 416.25,-122.5"/>
<text text-anchor="middle" x="479.5" y="-147.5" font-family="Helvetica,sans-Serif" font-size="10.00"> pipelineSequence</text>
</g>
<!-- Node16 -->
<g id="node16" class="node">
<title>Node16</title>
<g id="a_node16"><a xlink:href="class_p4_tools_1_1_p4_testgen_1_1_execution_state.html" target="_top" xlink:title="Represents state of execution after having reached a program point.">
<polygon fill="white" stroke="black" points="574,-96.5 574,-126.5 683,-126.5 683,-96.5 574,-96.5"/>
<text text-anchor="start" x="582" y="-114.5" font-family="Helvetica,sans-Serif" font-size="10.00">P4Tools::P4Testgen</text>
<text text-anchor="middle" x="628.5" y="-103.5" font-family="Helvetica,sans-Serif" font-size="10.00">::ExecutionState</text>
</a>
</g>
</g>
<!-- Node16&#45;&gt;Node4 -->
<g id="edge20" class="edge">
<title>Node16&#45;&gt;Node4</title>
<path fill="none" stroke="#9a32cd" stroke-dasharray="5,2" d="M693.28,-123.96C737.29,-132.56 795.15,-143.87 836.81,-152.01"/>
<polygon fill="#9a32cd" stroke="#9a32cd" points="693.75,-120.49 683.26,-122.01 692.41,-127.36 693.75,-120.49"/>
<text text-anchor="middle" x="758.5" y="-146.5" font-family="Helvetica,sans-Serif" font-size="10.00"> state</text>
</g>
<!-- Node17 -->
<g id="node17" class="node">
<title>Node17</title>
<g id="a_node17"><a xlink:href="class_p4_tools_1_1_abstract_execution_state.html" target="_top" xlink:title="Represents state of execution after having reached a program point.">
<polygon fill="white" stroke="black" points="261,-48.5 261,-78.5 408,-78.5 408,-48.5 261,-48.5"/>
<text text-anchor="start" x="269" y="-66.5" font-family="Helvetica,sans-Serif" font-size="10.00">P4Tools::AbstractExecution</text>
<text text-anchor="middle" x="334.5" y="-55.5" font-family="Helvetica,sans-Serif" font-size="10.00">State</text>
</a>
</g>
</g>
<!-- Node17&#45;&gt;Node16 -->
<g id="edge21" class="edge">
<title>Node17&#45;&gt;Node16</title>
<path fill="none" stroke="midnightblue" d="M418.18,-77.09C468.05,-85.29 530.14,-95.5 573.7,-102.66"/>
<polygon fill="midnightblue" stroke="midnightblue" points="418.49,-73.6 408.05,-75.43 417.35,-80.5 418.49,-73.6"/>
</g>
<!-- Node18 -->
<g id="node18" class="node">
<title>Node18</title>
<g id="a_node18"><a xlink:href="class_p4_tools_1_1_namespace_context.html" target="_top" xlink:title="Represents a stack of namespaces.">
<polygon fill="white" stroke="black" points="0,-89 0,-108 155,-108 155,-89 0,-89"/>
<text text-anchor="middle" x="77.5" y="-96" font-family="Helvetica,sans-Serif" font-size="10.00">P4Tools::NamespaceContext</text>
</a>
</g>
</g>
<!-- Node18&#45;&gt;Node17 -->
<g id="edge22" class="edge">
<title>Node18&#45;&gt;Node17</title>
<path fill="none" stroke="#9a32cd" stroke-dasharray="5,2" d="M157.86,-87.61C190.68,-83.1 228.49,-77.91 260.61,-73.5"/>
<polygon fill="#9a32cd" stroke="#9a32cd" points="157.27,-84.15 147.84,-88.98 158.23,-91.09 157.27,-84.15"/>
<text text-anchor="middle" x="208" y="-88.5" font-family="Helvetica,sans-Serif" font-size="10.00"> namespaces</text>
</g>
<!-- Node18&#45;&gt;Node18 -->
<g id="edge23" class="edge">
<title>Node18&#45;&gt;Node18</title>
<path fill="none" stroke="#9a32cd" stroke-dasharray="5,2" d="M53.32,-117.53C54.64,-122.63 62.7,-126.5 77.5,-126.5 100.61,-126.5 107.28,-117.07 97.54,-108.26"/>
<polygon fill="#9a32cd" stroke="#9a32cd" points="56.58,-118.81 57.46,-108.26 50.19,-115.96 56.58,-118.81"/>
<text text-anchor="middle" x="77.5" y="-129.5" font-family="Helvetica,sans-Serif" font-size="10.00"> Empty</text>
</g>
<!-- Node19 -->
<g id="node19" class="node">
<title>Node19</title>
<g id="a_node19"><a xlink:href="class_p4_tools_1_1_symbolic_env.html" target="_top" xlink:title=" ">
<polygon fill="white" stroke="black" points="16.5,-51 16.5,-70 138.5,-70 138.5,-51 16.5,-51"/>
<text text-anchor="middle" x="77.5" y="-58" font-family="Helvetica,sans-Serif" font-size="10.00">P4Tools::SymbolicEnv</text>
</a>
</g>
</g>
<!-- Node19&#45;&gt;Node17 -->
<g id="edge24" class="edge">
<title>Node19&#45;&gt;Node17</title>
<path fill="none" stroke="#9a32cd" stroke-dasharray="5,2" d="M148.69,-61.33C183.48,-61.74 225.46,-62.23 260.61,-62.64"/>
<polygon fill="#9a32cd" stroke="#9a32cd" points="148.65,-57.83 138.61,-61.21 148.57,-64.82 148.65,-57.83"/>
<text text-anchor="middle" x="208" y="-65.5" font-family="Helvetica,sans-Serif" font-size="10.00"> env</text>
</g>
<!-- Node20 -->
<g id="node20" class="node">
<title>Node20</title>
<g id="a_node20"><a xlink:title=" ">
<polygon fill="white" stroke="#bfbfbf" points="580,-197 580,-216 677,-216 677,-197 580,-197"/>
<text text-anchor="middle" x="628.5" y="-204" font-family="Helvetica,sans-Serif" font-size="10.00">std::vector&lt; T &gt;</text>
</a>
</g>
</g>
<!-- Node20&#45;&gt;Node4 -->
<g id="edge25" class="edge">
<title>Node20&#45;&gt;Node4</title>
<path fill="none" stroke="#9a32cd" stroke-dasharray="5,2" d="M687.19,-196.77C731.89,-189.24 793.35,-178.88 836.96,-171.53"/>
<polygon fill="#9a32cd" stroke="#9a32cd" points="686.35,-193.37 677.07,-198.48 687.51,-200.27 686.35,-193.37"/>
<text text-anchor="middle" x="758.5" y="-193.5" font-family="Helvetica,sans-Serif" font-size="10.00"> result</text>
</g>
<!-- Node21 -->
<g id="node21" class="node">
<title>Node21</title>
<g id="a_node21"><a xlink:title=" ">
<polygon fill="white" stroke="#bfbfbf" points="320,-245 320,-264 349,-264 349,-245 320,-245"/>
<text text-anchor="middle" x="334.5" y="-252" font-family="Helvetica,sans-Serif" font-size="10.00">T</text>
</a>
</g>
</g>
<!-- Node21&#45;&gt;Node20 -->
<g id="edge26" class="edge">
<title>Node21&#45;&gt;Node20</title>
<path fill="none" stroke="#9a32cd" stroke-dasharray="5,2" d="M359.23,-250.6C407.2,-242.71 516.49,-224.75 579.78,-214.34"/>
<polygon fill="#9a32cd" stroke="#9a32cd" points="358.49,-247.17 349.19,-252.25 359.63,-254.08 358.49,-247.17"/>
<text text-anchor="middle" x="479.5" y="-241.5" font-family="Helvetica,sans-Serif" font-size="10.00"> elements</text>
</g>
<!-- Node22&#45;&gt;Node4 -->
<g id="edge27" class="edge">
<title>Node22&#45;&gt;Node4</title>
<path fill="none" stroke="#9a32cd" stroke-dasharray="5,2" d="M674.09,-76.9C684.59,-79.94 695.71,-83.25 706,-86.5 745,-98.82 759.18,-93.5 793,-116.5 803.17,-123.41 800.74,-130.73 811,-137.5 818.85,-142.68 827.84,-146.84 836.88,-150.17"/>
<polygon fill="#9a32cd" stroke="#9a32cd" points="674.85,-73.48 664.27,-74.09 672.92,-80.21 674.85,-73.48"/>
<text text-anchor="middle" x="758.5" y="-119.5" font-family="Helvetica,sans-Serif" font-size="10.00"> solver</text>
</g>
<!-- Node23&#45;&gt;Node2 -->
<g id="edge29" class="edge">
<title>Node23&#45;&gt;Node2</title>
<path fill="none" stroke="#9a32cd" stroke-dasharray="5,2" d="M926.41,-442.28C1021.08,-385.81 1286.81,-227.32 1370.16,-177.61"/>
<polygon fill="#9a32cd" stroke="#9a32cd" points="924.58,-439.29 917.79,-447.42 928.17,-445.3 924.58,-439.29"/>
<text text-anchor="middle" x="1185.5" y="-334.5" font-family="Helvetica,sans-Serif" font-size="10.00"> properties</text>
</g>
<!-- Node24 -->
<g id="node24" class="node">
<title>Node24</title>
<g id="a_node24"><a xlink:title=" ">
<polygon fill="white" stroke="#bfbfbf" points="551,-416.5 551,-446.5 706,-446.5 706,-416.5 551,-416.5"/>
<text text-anchor="start" x="559" y="-434.5" font-family="Helvetica,sans-Serif" font-size="10.00">std::vector&lt; P4Tools</text>
<text text-anchor="middle" x="628.5" y="-423.5" font-family="Helvetica,sans-Serif" font-size="10.00">::TableUtils::KeyProperties &gt;</text>
</a>
</g>
</g>
<!-- Node24&#45;&gt;Node23 -->
<g id="edge30" class="edge">
<title>Node24&#45;&gt;Node23</title>
<path fill="none" stroke="#9a32cd" stroke-dasharray="5,2" d="M716.16,-441.46C740.98,-444.34 768.06,-447.52 793,-450.5 807.56,-452.24 823.35,-454.17 837.88,-455.96"/>
<polygon fill="#9a32cd" stroke="#9a32cd" points="716.37,-437.96 706.04,-440.29 715.57,-444.91 716.37,-437.96"/>
<text text-anchor="middle" x="758.5" y="-453.5" font-family="Helvetica,sans-Serif" font-size="10.00"> resolvedKeys</text>
</g>
<!-- Node25&#45;&gt;Node24 -->
<g id="edge31" class="edge">
<title>Node25&#45;&gt;Node24</title>
<path fill="none" stroke="#9a32cd" stroke-dasharray="5,2" d="M398.2,-431.5C442.93,-431.5 503.35,-431.5 550.94,-431.5"/>
<polygon fill="#9a32cd" stroke="#9a32cd" points="398.04,-428 388.04,-431.5 398.04,-435 398.04,-428"/>
<text text-anchor="middle" x="479.5" y="-434.5" font-family="Helvetica,sans-Serif" font-size="10.00"> elements</text>
</g>
<!-- Node26&#45;&gt;Node23 -->
<g id="edge34" class="edge">
<title>Node26&#45;&gt;Node23</title>
<path fill="none" stroke="#9a32cd" stroke-dasharray="5,2" d="M543.38,-516.69C606.8,-513.1 707.33,-505.35 793,-489.5 809.41,-486.46 827.06,-481.96 842.78,-477.5"/>
<polygon fill="#9a32cd" stroke="#9a32cd" points="542.93,-513.21 533.14,-517.25 543.32,-520.2 542.93,-513.21"/>
<text text-anchor="middle" x="628.5" y="-518.5" font-family="Helvetica,sans-Serif" font-size="10.00"> actionIdMap</text>
</g>
<!-- Node27 -->
<g id="node27" class="node">
<title>Node27</title>
<g id="a_node27"><a xlink:href="class_p4_tools_1_1_p4_testgen_1_1_pna_1_1_shared_pna_table_stepper.html#struct_p4_tools_1_1_p4_testgen_1_1_pna_1_1_shared_pna_table_stepper_1_1_shared_pna_properties" target="_top" xlink:title="Shared PNA table properties.">
<polygon fill="white" stroke="black" points="1105,-73 1105,-114 1266,-114 1266,-73 1105,-73"/>
<text text-anchor="start" x="1113" y="-102" font-family="Helvetica,sans-Serif" font-size="10.00">P4Tools::P4Testgen</text>
<text text-anchor="start" x="1113" y="-91" font-family="Helvetica,sans-Serif" font-size="10.00">::Pna::SharedPnaTableStepper</text>
<text text-anchor="middle" x="1185.5" y="-80" font-family="Helvetica,sans-Serif" font-size="10.00">::SharedPnaProperties</text>
</a>
</g>
</g>
<!-- Node27&#45;&gt;Node1 -->
<g id="edge36" class="edge">
<title>Node27&#45;&gt;Node1</title>
<path fill="none" stroke="#9a32cd" stroke-dasharray="5,2" d="M1276.47,-100.82C1340.6,-106.04 1426.04,-112.99 1487.74,-118.01"/>
<polygon fill="#9a32cd" stroke="#9a32cd" points="1276.62,-97.32 1266.37,-100 1276.05,-104.3 1276.62,-97.32"/>
<text text-anchor="middle" x="1396.5" y="-118.5" font-family="Helvetica,sans-Serif" font-size="10.00"> SharedPnaProperties</text>
</g>
<!-- Node28 -->
<g id="node28" class="node">
<title>Node28</title>
<g id="a_node28"><a xlink:href="class_p4_tools_1_1_p4_testgen_1_1_pna_1_1_pna_dpdk_action_selector.html" target="_top" xlink:title=" ">
<polygon fill="white" stroke="black" points="811,-0.5 811,-30.5 972,-30.5 972,-0.5 811,-0.5"/>
<text text-anchor="start" x="819" y="-18.5" font-family="Helvetica,sans-Serif" font-size="10.00">P4Tools::P4Testgen</text>
<text text-anchor="middle" x="891.5" y="-7.5" font-family="Helvetica,sans-Serif" font-size="10.00">::Pna::PnaDpdkActionSelector</text>
</a>
</g>
</g>
<!-- Node28&#45;&gt;Node27 -->
<g id="edge37" class="edge">
<title>Node28&#45;&gt;Node27</title>
<path fill="none" stroke="#9a32cd" stroke-dasharray="5,2" d="M975.52,-32.81C1010.18,-40.52 1050.74,-50.2 1087,-60.5 1099.98,-64.19 1113.78,-68.57 1126.8,-72.92"/>
<polygon fill="#9a32cd" stroke="#9a32cd" points="975.96,-29.32 965.44,-30.58 974.45,-36.16 975.96,-29.32"/>
<text text-anchor="middle" x="1038.5" y="-63.5" font-family="Helvetica,sans-Serif" font-size="10.00"> actionSelector</text>
</g>
<!-- Node29&#45;&gt;Node28 -->
<g id="edge38" class="edge">
<title>Node29&#45;&gt;Node28</title>
<path fill="none" stroke="midnightblue" d="M693.47,-17.76C728.86,-17.36 773.16,-16.85 810.79,-16.42"/>
<polygon fill="midnightblue" stroke="midnightblue" points="693.22,-14.27 683.26,-17.88 693.3,-21.27 693.22,-14.27"/>
</g>
<!-- Node30 -->
<g id="node30" class="node">
<title>Node30</title>
<g id="a_node30"><a xlink:href="class_p4_tools_1_1_p4_testgen_1_1_pna_1_1_pna_dpdk_action_profile.html" target="_top" xlink:title=" ">
<polygon fill="white" stroke="black" points="815.5,-49.5 815.5,-79.5 967.5,-79.5 967.5,-49.5 815.5,-49.5"/>
<text text-anchor="start" x="823.5" y="-67.5" font-family="Helvetica,sans-Serif" font-size="10.00">P4Tools::P4Testgen</text>
<text text-anchor="middle" x="891.5" y="-56.5" font-family="Helvetica,sans-Serif" font-size="10.00">::Pna::PnaDpdkActionProfile</text>
</a>
</g>
</g>
<!-- Node29&#45;&gt;Node30 -->
<g id="edge41" class="edge">
<title>Node29&#45;&gt;Node30</title>
<path fill="none" stroke="midnightblue" d="M693.36,-29.75C730.11,-36.23 776.49,-44.41 815.04,-51.2"/>
<polygon fill="midnightblue" stroke="midnightblue" points="693.72,-26.26 683.26,-27.98 692.5,-33.16 693.72,-26.26"/>
</g>
<!-- Node30&#45;&gt;Node27 -->
<g id="edge40" class="edge">
<title>Node30&#45;&gt;Node27</title>
<path fill="none" stroke="#9a32cd" stroke-dasharray="5,2" d="M977.74,-72.97C1017.91,-76.95 1065.54,-81.69 1104.96,-85.6"/>
<polygon fill="#9a32cd" stroke="#9a32cd" points="977.99,-69.47 967.7,-71.97 977.3,-76.44 977.99,-69.47"/>
<text text-anchor="middle" x="1038.5" y="-86.5" font-family="Helvetica,sans-Serif" font-size="10.00"> actionProfile</text>
</g>
<!-- Node31 -->
<g id="node31" class="node">
<title>Node31</title>
<g id="a_node31"><a xlink:title=" ">
<polygon fill="white" stroke="#bfbfbf" points="837.5,-98.5 837.5,-128.5 945.5,-128.5 945.5,-98.5 837.5,-98.5"/>
<text text-anchor="start" x="845.5" y="-116.5" font-family="Helvetica,sans-Serif" font-size="10.00">std::vector&lt; const</text>
<text text-anchor="middle" x="891.5" y="-105.5" font-family="Helvetica,sans-Serif" font-size="10.00"> IR::Expression * &gt;</text>
</a>
</g>
</g>
<!-- Node31&#45;&gt;Node27 -->
<g id="edge42" class="edge">
<title>Node31&#45;&gt;Node27</title>
<path fill="none" stroke="#9a32cd" stroke-dasharray="5,2" d="M955.94,-109.16C999.66,-106.16 1058.1,-102.16 1104.94,-98.95"/>
<polygon fill="#9a32cd" stroke="#9a32cd" points="955.46,-105.68 945.72,-109.85 955.93,-112.66 955.46,-105.68"/>
<text text-anchor="middle" x="1038.5" y="-109.5" font-family="Helvetica,sans-Serif" font-size="10.00"> actionSelectorKeys</text>
</g>
</g>
</svg>
