<?xml version="1.0" encoding="UTF-8" standalone="no"?>
<!DOCTYPE svg PUBLIC "-//W3C//DTD SVG 1.1//EN"
 "http://www.w3.org/Graphics/SVG/1.1/DTD/svg11.dtd">
<!-- Generated by graphviz version 2.43.0 (0)
 -->
<!-- Title: P4V1::Truncate Pages: 1 -->
<svg width="150pt" height="268pt"
 viewBox="0.00 0.00 149.50 268.00" xmlns="http://www.w3.org/2000/svg" xmlns:xlink="http://www.w3.org/1999/xlink">
<g id="graph0" class="graph" transform="scale(1 1) rotate(0) translate(4 264)">
<title>P4V1::Truncate</title>
<polygon fill="white" stroke="transparent" points="-4,4 -4,-264 145.5,-264 145.5,4 -4,4"/>
<!-- Node1 -->
<g id="node1" class="node">
<title>Node1</title>
<g id="a_node1"><a xlink:title=" ">
<polygon fill="#bfbfbf" stroke="black" points="15,-0.5 15,-19.5 104,-19.5 104,-0.5 15,-0.5"/>
<text text-anchor="middle" x="59.5" y="-7.5" font-family="Helvetica,sans-Serif" font-size="10.00">P4V1::Truncate</text>
</a>
</g>
</g>
<!-- Node2 -->
<g id="node2" class="node">
<title>Node2</title>
<g id="a_node2"><a xlink:href="struct_model_1_1_extern___model.html" target="_top" xlink:title="Extern_Model : Type_Model.">
<polygon fill="white" stroke="black" points="0,-57.5 0,-76.5 119,-76.5 119,-57.5 0,-57.5"/>
<text text-anchor="middle" x="59.5" y="-64.5" font-family="Helvetica,sans-Serif" font-size="10.00">Model::Extern_Model</text>
</a>
</g>
</g>
<!-- Node2&#45;&gt;Node1 -->
<g id="edge1" class="edge">
<title>Node2&#45;&gt;Node1</title>
<path fill="none" stroke="midnightblue" d="M59.5,-47.12C59.5,-37.82 59.5,-27.06 59.5,-19.71"/>
<polygon fill="midnightblue" stroke="midnightblue" points="56,-47.41 59.5,-57.41 63,-47.41 56,-47.41"/>
</g>
<!-- Node3 -->
<g id="node3" class="node">
<title>Node3</title>
<g id="a_node3"><a xlink:href="struct_model_1_1_type___model.html" target="_top" xlink:title=" ">
<polygon fill="white" stroke="black" points="4.5,-114.5 4.5,-133.5 114.5,-133.5 114.5,-114.5 4.5,-114.5"/>
<text text-anchor="middle" x="59.5" y="-121.5" font-family="Helvetica,sans-Serif" font-size="10.00">Model::Type_Model</text>
</a>
</g>
</g>
<!-- Node3&#45;&gt;Node2 -->
<g id="edge2" class="edge">
<title>Node3&#45;&gt;Node2</title>
<path fill="none" stroke="midnightblue" d="M59.5,-104.12C59.5,-94.82 59.5,-84.06 59.5,-76.71"/>
<polygon fill="midnightblue" stroke="midnightblue" points="56,-104.41 59.5,-114.41 63,-104.41 56,-104.41"/>
</g>
<!-- Node4 -->
<g id="node4" class="node">
<title>Node4</title>
<g id="a_node4"><a xlink:href="struct_model_1_1_elem.html" target="_top" xlink:title=" ">
<polygon fill="white" stroke="black" points="21,-171.5 21,-190.5 98,-190.5 98,-171.5 21,-171.5"/>
<text text-anchor="middle" x="59.5" y="-178.5" font-family="Helvetica,sans-Serif" font-size="10.00">Model::Elem</text>
</a>
</g>
</g>
<!-- Node4&#45;&gt;Node3 -->
<g id="edge3" class="edge">
<title>Node4&#45;&gt;Node3</title>
<path fill="none" stroke="midnightblue" d="M59.5,-161.12C59.5,-151.82 59.5,-141.06 59.5,-133.71"/>
<polygon fill="midnightblue" stroke="midnightblue" points="56,-161.41 59.5,-171.41 63,-161.41 56,-161.41"/>
</g>
<!-- Node5 -->
<g id="node5" class="node">
<title>Node5</title>
<g id="a_node5"><a xlink:href="classcstring.html" target="_top" xlink:title=" ">
<polygon fill="white" stroke="black" points="34.5,-239.5 34.5,-258.5 84.5,-258.5 84.5,-239.5 34.5,-239.5"/>
<text text-anchor="middle" x="59.5" y="-246.5" font-family="Helvetica,sans-Serif" font-size="10.00">cstring</text>
</a>
</g>
</g>
<!-- Node5&#45;&gt;Node4 -->
<g id="edge4" class="edge">
<title>Node5&#45;&gt;Node4</title>
<path fill="none" stroke="#9a32cd" stroke-dasharray="5,2" d="M59.5,-229.04C59.5,-216.47 59.5,-200.56 59.5,-190.84"/>
<polygon fill="#9a32cd" stroke="#9a32cd" points="56,-229.37 59.5,-239.37 63,-229.37 56,-229.37"/>
<text text-anchor="middle" x="75" y="-212" font-family="Helvetica,sans-Serif" font-size="10.00"> name</text>
</g>
<!-- Node5&#45;&gt;Node5 -->
<g id="edge5" class="edge">
<title>Node5&#45;&gt;Node5</title>
<path fill="none" stroke="#9a32cd" stroke-dasharray="5,2" d="M94.95,-254.58C99.5,-253.61 102.5,-251.75 102.5,-249 102.5,-244.48 94.41,-242.37 84.68,-242.65"/>
<polygon fill="#9a32cd" stroke="#9a32cd" points="94.39,-251.11 84.68,-255.35 94.91,-258.1 94.39,-251.11"/>
<text text-anchor="middle" x="122" y="-252" font-family="Helvetica,sans-Serif" font-size="10.00"> empty</text>
<text text-anchor="middle" x="122" y="-241" font-family="Helvetica,sans-Serif" font-size="10.00">newline</text>
</g>
</g>
</svg>
