<?xml version="1.0" encoding="UTF-8" standalone="no"?>
<!DOCTYPE svg PUBLIC "-//W3C//DTD SVG 1.1//EN"
 "http://www.w3.org/Graphics/SVG/1.1/DTD/svg11.dtd">
<!-- Generated by graphviz version 2.43.0 (0)
 -->
<!-- Title: P4::CheckExternInvocationCommon Pages: 1 -->
<!--zoomable 255 -->
<svg id="main" version="1.1" xmlns="http://www.w3.org/2000/svg" xmlns:xlink="http://www.w3.org/1999/xlink" xml:space="preserve" onload="init(evt)">
<style type="text/css"><![CDATA[
.edge:hover path { stroke: red; }
.edge:hover polygon { stroke: red; fill: red; }
]]></style>
<script type="text/javascript"><![CDATA[
var edges = document.getElementsByTagName('g');
if (edges && edges.length) {
  for (var i=0;i<edges.length;i++) {
    if (edges[i].id.substr(0,4)=='edge') {
      edges[i].setAttribute('class','edge');
    }
  }
}
]]></script>
        <defs>
                <circle id="rim" cx="0" cy="0" r="7"/>
                <circle id="rim2" cx="0" cy="0" r="3.5"/>
                <g id="zoomPlus">
                        <use xlink:href="#rim" fill="#404040">
                                <set attributeName="fill" to="#808080" begin="zoomplus.mouseover" end="zoomplus.mouseout"/>
                        </use>
                        <path d="M-4,0h8M0,-4v8" fill="none" stroke="white" stroke-width="1.5" pointer-events="none"/>
                </g>
                <g id="zoomMin">
                        <use xlink:href="#rim" fill="#404040">
                                <set attributeName="fill" to="#808080" begin="zoomminus.mouseover" end="zoomminus.mouseout"/>
                        </use>
                        <path d="M-4,0h8" fill="none" stroke="white" stroke-width="1.5" pointer-events="none"/>
                </g>
                <g id="dirArrow">
                        <path fill="none" stroke="white" stroke-width="1.5" d="M0,-3.0v7 M-2.5,-0.5L0,-3.0L2.5,-0.5"/>
                </g>
               <g id="resetDef">
                       <use xlink:href="#rim2" fill="#404040">
                               <set attributeName="fill" to="#808080" begin="reset.mouseover" end="reset.mouseout"/>
                       </use>
               </g>
        </defs>

<script type="text/javascript">
var viewWidth = 790;
var viewHeight = 255;
var sectionId = 'dynsection-1';
</script>
<script xlink:href="svgpan.js"/>
<svg id="graph" class="graph">
<g id="viewport">
<title>P4::CheckExternInvocationCommon</title>
<polygon fill="white" stroke="transparent" points="-4,4 -4,-251 786,-251 786,4 -4,4"/>
<!-- Node1 -->
<g id="node1" class="node">
<title>Node1</title>
<g id="a_node1"><a xlink:title="Base class which can be used to prepare classes for checking constraints for invocations of externs (...">
<polygon fill="#bfbfbf" stroke="black" points="200,-0.5 200,-30.5 347,-30.5 347,-0.5 200,-0.5"/>
<text text-anchor="start" x="208" y="-18.5" font-family="Helvetica,sans-Serif" font-size="10.00">P4::CheckExternInvocation</text>
<text text-anchor="middle" x="273.5" y="-7.5" font-family="Helvetica,sans-Serif" font-size="10.00">Common</text>
</a>
</g>
</g>
<!-- Node2 -->
<g id="node2" class="node">
<title>Node2</title>
<g id="a_node2"><a xlink:href="class_inspector.html" target="_top" xlink:title=" ">
<polygon fill="white" stroke="black" points="412.5,-79.5 412.5,-98.5 474.5,-98.5 474.5,-79.5 412.5,-79.5"/>
<text text-anchor="middle" x="443.5" y="-86.5" font-family="Helvetica,sans-Serif" font-size="10.00">Inspector</text>
</a>
</g>
</g>
<!-- Node2&#45;&gt;Node1 -->
<g id="edge1" class="edge">
<title>Node2&#45;&gt;Node1</title>
<path fill="none" stroke="midnightblue" d="M413.53,-75.39C383.68,-62.84 337.96,-43.61 306.95,-30.57"/>
<polygon fill="midnightblue" stroke="midnightblue" points="412.42,-78.72 422.99,-79.38 415.13,-72.27 412.42,-78.72"/>
</g>
<!-- Node3 -->
<g id="node3" class="node">
<title>Node3</title>
<g id="a_node3"><a xlink:href="class_visitor.html" target="_top" xlink:title=" ">
<polygon fill="white" stroke="black" points="514.5,-153 514.5,-172 562.5,-172 562.5,-153 514.5,-153"/>
<text text-anchor="middle" x="538.5" y="-160" font-family="Helvetica,sans-Serif" font-size="10.00">Visitor</text>
</a>
</g>
</g>
<!-- Node3&#45;&gt;Node2 -->
<g id="edge2" class="edge">
<title>Node3&#45;&gt;Node2</title>
<path fill="none" stroke="midnightblue" d="M518.73,-146.62C499.43,-132.09 470.74,-110.5 454.95,-98.62"/>
<polygon fill="midnightblue" stroke="midnightblue" points="516.76,-149.52 526.85,-152.73 520.97,-143.92 516.76,-149.52"/>
</g>
<!-- Node3&#45;&gt;Node3 -->
<g id="edge10" class="edge">
<title>Node3&#45;&gt;Node3</title>
<path fill="none" stroke="#9a32cd" stroke-dasharray="5,2" d="M572.92,-168.79C577.48,-167.72 580.5,-165.62 580.5,-162.5 580.5,-157.38 572.36,-155.02 562.67,-155.42"/>
<polygon fill="#9a32cd" stroke="#9a32cd" points="572.37,-165.32 562.67,-169.58 572.91,-172.3 572.37,-165.32"/>
<text text-anchor="middle" x="605.5" y="-160" font-family="Helvetica,sans-Serif" font-size="10.00"> called_by</text>
</g>
<!-- Node5 -->
<g id="node5" class="node">
<title>Node5</title>
<g id="a_node5"><a xlink:href="class_split_flow_visit__base.html" target="_top" xlink:title=" ">
<polygon fill="white" stroke="black" points="500.5,-6 500.5,-25 612.5,-25 612.5,-6 500.5,-6"/>
<text text-anchor="middle" x="556.5" y="-13" font-family="Helvetica,sans-Serif" font-size="10.00">SplitFlowVisit_base</text>
</a>
</g>
</g>
<!-- Node3&#45;&gt;Node5 -->
<g id="edge9" class="edge">
<title>Node3&#45;&gt;Node5</title>
<path fill="none" stroke="#9a32cd" stroke-dasharray="5,2" d="M534.36,-142.36C531.32,-125.33 528.39,-99.82 532.5,-78 536.19,-58.4 545.95,-37.03 551.83,-25.35"/>
<polygon fill="#9a32cd" stroke="#9a32cd" points="531.01,-143.51 536.39,-152.64 537.88,-142.15 531.01,-143.51"/>
<text text-anchor="middle" x="537.5" y="-86.5" font-family="Helvetica,sans-Serif" font-size="10.00"> v</text>
</g>
<!-- Node6 -->
<g id="node6" class="node">
<title>Node6</title>
<g id="a_node6"><a xlink:title=" ">
<polygon fill="white" stroke="#bfbfbf" points="651,-79.5 651,-98.5 782,-98.5 782,-79.5 651,-79.5"/>
<text text-anchor="middle" x="716.5" y="-86.5" font-family="Helvetica,sans-Serif" font-size="10.00">std::vector&lt; Visitor * &gt;</text>
</a>
</g>
</g>
<!-- Node3&#45;&gt;Node6 -->
<g id="edge8" class="edge">
<title>Node3&#45;&gt;Node6</title>
<path fill="none" stroke="#9a32cd" stroke-dasharray="5,2" d="M569.49,-149.05C605.51,-134.58 663.99,-111.09 695.23,-98.54"/>
<polygon fill="#9a32cd" stroke="#9a32cd" points="567.95,-145.9 559.97,-152.88 570.55,-152.4 567.95,-145.9"/>
<text text-anchor="middle" x="667" y="-121" font-family="Helvetica,sans-Serif" font-size="10.00"> elements</text>
</g>
<!-- Node4 -->
<g id="node4" class="node">
<title>Node4</title>
<g id="a_node4"><a xlink:href="classcstring.html" target="_top" xlink:title=" ">
<polygon fill="white" stroke="black" points="346.5,-226.5 346.5,-245.5 396.5,-245.5 396.5,-226.5 346.5,-226.5"/>
<text text-anchor="middle" x="371.5" y="-233.5" font-family="Helvetica,sans-Serif" font-size="10.00">cstring</text>
</a>
</g>
</g>
<!-- Node4&#45;&gt;Node3 -->
<g id="edge3" class="edge">
<title>Node4&#45;&gt;Node3</title>
<path fill="none" stroke="#9a32cd" stroke-dasharray="5,2" d="M386.21,-219.18C394.62,-211.06 405.8,-201.7 417.5,-196 452.99,-178.7 466.82,-189.8 504.5,-178 509.77,-176.35 515.33,-174.17 520.4,-172.01"/>
<polygon fill="#9a32cd" stroke="#9a32cd" points="383.6,-216.85 379.07,-226.43 388.58,-221.76 383.6,-216.85"/>
<text text-anchor="middle" x="452.5" y="-199" font-family="Helvetica,sans-Serif" font-size="10.00"> internalName</text>
</g>
<!-- Node4&#45;&gt;Node4 -->
<g id="edge4" class="edge">
<title>Node4&#45;&gt;Node4</title>
<path fill="none" stroke="#9a32cd" stroke-dasharray="5,2" d="M406.95,-241.58C411.5,-240.61 414.5,-238.75 414.5,-236 414.5,-231.48 406.41,-229.37 396.68,-229.65"/>
<polygon fill="#9a32cd" stroke="#9a32cd" points="406.39,-238.11 396.68,-242.35 406.91,-245.1 406.39,-238.11"/>
<text text-anchor="middle" x="434" y="-239" font-family="Helvetica,sans-Serif" font-size="10.00"> empty</text>
<text text-anchor="middle" x="434" y="-228" font-family="Helvetica,sans-Serif" font-size="10.00">newline</text>
</g>
<!-- Node8 -->
<g id="node8" class="node">
<title>Node8</title>
<g id="a_node8"><a xlink:href="class_p4_1_1_program_map.html" target="_top" xlink:title=" ">
<polygon fill="white" stroke="black" points="0,-153 0,-172 97,-172 97,-153 0,-153"/>
<text text-anchor="middle" x="48.5" y="-160" font-family="Helvetica,sans-Serif" font-size="10.00">P4::ProgramMap</text>
</a>
</g>
</g>
<!-- Node4&#45;&gt;Node8 -->
<g id="edge14" class="edge">
<title>Node4&#45;&gt;Node8</title>
<path fill="none" stroke="#9a32cd" stroke-dasharray="5,2" d="M336.66,-227.97C285.74,-217.61 188.1,-197.35 105.5,-178 97.65,-176.16 89.21,-174.08 81.3,-172.07"/>
<polygon fill="#9a32cd" stroke="#9a32cd" points="336,-231.41 346.49,-229.97 337.39,-224.55 336,-231.41"/>
<text text-anchor="middle" x="253" y="-199" font-family="Helvetica,sans-Serif" font-size="10.00"> mapKind</text>
</g>
<!-- Node13 -->
<g id="node13" class="node">
<title>Node13</title>
<g id="a_node13"><a xlink:title=" ">
<polygon fill="white" stroke="#bfbfbf" points="389,-147.5 389,-177.5 496,-177.5 496,-147.5 389,-147.5"/>
<text text-anchor="start" x="397" y="-165.5" font-family="Helvetica,sans-Serif" font-size="10.00">std::map&lt; cstring,</text>
<text text-anchor="middle" x="442.5" y="-154.5" font-family="Helvetica,sans-Serif" font-size="10.00"> bitvec &gt;</text>
</a>
</g>
</g>
<!-- Node4&#45;&gt;Node13 -->
<g id="edge21" class="edge">
<title>Node4&#45;&gt;Node13</title>
<path fill="none" stroke="#9a32cd" stroke-dasharray="5,2" d="M368.06,-216.51C367.73,-209.57 368.6,-201.95 372.5,-196 377.65,-188.16 385.21,-182.18 393.49,-177.62"/>
<polygon fill="#9a32cd" stroke="#9a32cd" points="364.59,-216.99 369.31,-226.48 371.54,-216.13 364.59,-216.99"/>
<text text-anchor="middle" x="385.5" y="-199" font-family="Helvetica,sans-Serif" font-size="10.00"> keys</text>
</g>
<!-- Node5&#45;&gt;Node3 -->
<g id="edge5" class="edge">
<title>Node5&#45;&gt;Node3</title>
<path fill="none" stroke="#9a32cd" stroke-dasharray="5,2" d="M554.15,-35.44C550.21,-67.2 542.42,-129.95 539.57,-152.86"/>
<polygon fill="#9a32cd" stroke="#9a32cd" points="557.65,-35.63 555.41,-25.27 550.71,-34.77 557.65,-35.63"/>
<text text-anchor="middle" x="587.5" y="-92" font-family="Helvetica,sans-Serif" font-size="10.00"> split_link</text>
<text text-anchor="middle" x="587.5" y="-81" font-family="Helvetica,sans-Serif" font-size="10.00">split_link_mem</text>
</g>
<!-- Node5&#45;&gt;Node5 -->
<g id="edge6" class="edge">
<title>Node5&#45;&gt;Node5</title>
<path fill="none" stroke="#9a32cd" stroke-dasharray="5,2" d="M622.54,-20.81C627.47,-19.62 630.5,-17.85 630.5,-15.5 630.5,-11.83 623.12,-9.57 612.65,-8.74"/>
<polygon fill="#9a32cd" stroke="#9a32cd" points="622.03,-17.35 612.65,-22.26 623.05,-24.27 622.03,-17.35"/>
<text text-anchor="middle" x="643" y="-13" font-family="Helvetica,sans-Serif" font-size="10.00"> prev</text>
</g>
<!-- Node6&#45;&gt;Node5 -->
<g id="edge7" class="edge">
<title>Node6&#45;&gt;Node5</title>
<path fill="none" stroke="#9a32cd" stroke-dasharray="5,2" d="M687.83,-75.19C655.49,-60.74 603.78,-37.63 575.87,-25.16"/>
<polygon fill="#9a32cd" stroke="#9a32cd" points="686.64,-78.49 697.2,-79.38 689.5,-72.1 686.64,-78.49"/>
<text text-anchor="middle" x="670.5" y="-52" font-family="Helvetica,sans-Serif" font-size="10.00"> visitors</text>
</g>
<!-- Node7 -->
<g id="node7" class="node">
<title>Node7</title>
<g id="a_node7"><a xlink:href="class_p4_1_1_type_map.html" target="_top" xlink:title=" ">
<polygon fill="white" stroke="black" points="42.5,-79.5 42.5,-98.5 120.5,-98.5 120.5,-79.5 42.5,-79.5"/>
<text text-anchor="middle" x="81.5" y="-86.5" font-family="Helvetica,sans-Serif" font-size="10.00">P4::TypeMap</text>
</a>
</g>
</g>
<!-- Node7&#45;&gt;Node1 -->
<g id="edge11" class="edge">
<title>Node7&#45;&gt;Node1</title>
<path fill="none" stroke="#9a32cd" stroke-dasharray="5,2" d="M110.86,-75.54C129.78,-67.65 154.96,-57.39 177.5,-49 194.65,-42.62 213.71,-36.06 230.3,-30.52"/>
<polygon fill="#9a32cd" stroke="#9a32cd" points="109.46,-72.34 101.59,-79.43 112.17,-78.79 109.46,-72.34"/>
<text text-anchor="middle" x="200.5" y="-52" font-family="Helvetica,sans-Serif" font-size="10.00"> typeMap</text>
</g>
<!-- Node8&#45;&gt;Node7 -->
<g id="edge12" class="edge">
<title>Node8&#45;&gt;Node7</title>
<path fill="none" stroke="midnightblue" d="M56.84,-143.43C63.42,-129.18 72.31,-109.92 77.42,-98.84"/>
<polygon fill="midnightblue" stroke="midnightblue" points="53.56,-142.19 52.55,-152.73 59.91,-145.12 53.56,-142.19"/>
</g>
<!-- Node10 -->
<g id="node10" class="node">
<title>Node10</title>
<g id="a_node10"><a xlink:href="class_p4_1_1_reference_map.html" target="_top" xlink:title="Class used to encode maps from paths to declarations.">
<polygon fill="white" stroke="black" points="142,-79.5 142,-98.5 247,-98.5 247,-79.5 142,-79.5"/>
<text text-anchor="middle" x="194.5" y="-86.5" font-family="Helvetica,sans-Serif" font-size="10.00">P4::ReferenceMap</text>
</a>
</g>
</g>
<!-- Node8&#45;&gt;Node10 -->
<g id="edge16" class="edge">
<title>Node8&#45;&gt;Node10</title>
<path fill="none" stroke="midnightblue" d="M75.43,-148.31C104.98,-133.84 151.58,-111.02 176.83,-98.66"/>
<polygon fill="midnightblue" stroke="midnightblue" points="73.55,-145.33 66.11,-152.88 76.63,-151.62 73.55,-145.33"/>
</g>
<!-- Node9 -->
<g id="node9" class="node">
<title>Node9</title>
<g id="a_node9"><a xlink:href="class_i_has_db_print.html" target="_top" xlink:title=" ">
<polygon fill="white" stroke="black" points="11.5,-226.5 11.5,-245.5 85.5,-245.5 85.5,-226.5 11.5,-226.5"/>
<text text-anchor="middle" x="48.5" y="-233.5" font-family="Helvetica,sans-Serif" font-size="10.00">IHasDbPrint</text>
</a>
</g>
</g>
<!-- Node9&#45;&gt;Node8 -->
<g id="edge13" class="edge">
<title>Node9&#45;&gt;Node8</title>
<path fill="none" stroke="midnightblue" d="M48.5,-216.09C48.5,-201.93 48.5,-183.2 48.5,-172.34"/>
<polygon fill="midnightblue" stroke="midnightblue" points="45,-216.23 48.5,-226.23 52,-216.23 45,-216.23"/>
</g>
<!-- Node10&#45;&gt;Node1 -->
<g id="edge15" class="edge">
<title>Node10&#45;&gt;Node1</title>
<path fill="none" stroke="#9a32cd" stroke-dasharray="5,2" d="M211.99,-72.17C225.77,-59.7 244.79,-42.48 258.02,-30.51"/>
<polygon fill="#9a32cd" stroke="#9a32cd" points="209.25,-69.93 204.19,-79.23 213.95,-75.12 209.25,-69.93"/>
<text text-anchor="middle" x="255.5" y="-52" font-family="Helvetica,sans-Serif" font-size="10.00"> refMap</text>
</g>
<!-- Node11 -->
<g id="node11" class="node">
<title>Node11</title>
<g id="a_node11"><a xlink:href="class_p4_1_1_name_generator.html" target="_top" xlink:title=" ">
<polygon fill="white" stroke="black" points="115,-153 115,-172 228,-172 228,-153 115,-153"/>
<text text-anchor="middle" x="171.5" y="-160" font-family="Helvetica,sans-Serif" font-size="10.00">P4::NameGenerator</text>
</a>
</g>
</g>
<!-- Node11&#45;&gt;Node10 -->
<g id="edge17" class="edge">
<title>Node11&#45;&gt;Node10</title>
<path fill="none" stroke="midnightblue" d="M177.45,-143.01C182.02,-128.8 188.13,-109.81 191.66,-98.84"/>
<polygon fill="midnightblue" stroke="midnightblue" points="174.05,-142.14 174.32,-152.73 180.71,-144.28 174.05,-142.14"/>
</g>
<!-- Node12 -->
<g id="node12" class="node">
<title>Node12</title>
<g id="a_node12"><a xlink:href="class_p4_1_1_declaration_lookup.html" target="_top" xlink:title=" ">
<polygon fill="white" stroke="black" points="246,-153 246,-172 371,-172 371,-153 246,-153"/>
<text text-anchor="middle" x="308.5" y="-160" font-family="Helvetica,sans-Serif" font-size="10.00">P4::DeclarationLookup</text>
</a>
</g>
</g>
<!-- Node12&#45;&gt;Node10 -->
<g id="edge18" class="edge">
<title>Node12&#45;&gt;Node10</title>
<path fill="none" stroke="midnightblue" d="M286.01,-147.4C262.86,-132.87 227.52,-110.71 208.24,-98.62"/>
<polygon fill="midnightblue" stroke="midnightblue" points="284.19,-150.38 294.52,-152.73 287.91,-144.45 284.19,-150.38"/>
</g>
<!-- Node13&#45;&gt;Node1 -->
<g id="edge19" class="edge">
<title>Node13&#45;&gt;Node1</title>
<path fill="none" stroke="#9a32cd" stroke-dasharray="5,2" d="M393.34,-143.47C370.24,-133.27 343.46,-118.75 323.5,-100 302.07,-79.87 286.67,-48.53 279.01,-30.52"/>
<polygon fill="#9a32cd" stroke="#9a32cd" points="392.08,-146.74 402.66,-147.45 394.83,-140.3 392.08,-146.74"/>
<text text-anchor="middle" x="363.5" y="-86.5" font-family="Helvetica,sans-Serif" font-size="10.00"> pipeConstraints</text>
</g>
<!-- Node14 -->
<g id="node14" class="node">
<title>Node14</title>
<g id="a_node14"><a xlink:href="classbitvec.html" target="_top" xlink:title=" ">
<polygon fill="white" stroke="black" points="490,-226.5 490,-245.5 537,-245.5 537,-226.5 490,-226.5"/>
<text text-anchor="middle" x="513.5" y="-233.5" font-family="Helvetica,sans-Serif" font-size="10.00">bitvec</text>
</a>
</g>
</g>
<!-- Node14&#45;&gt;Node13 -->
<g id="edge20" class="edge">
<title>Node14&#45;&gt;Node13</title>
<path fill="none" stroke="#9a32cd" stroke-dasharray="5,2" d="M505.49,-216.77C501.86,-209.78 497.12,-202.04 491.5,-196 484.96,-188.97 476.62,-182.73 468.68,-177.63"/>
<polygon fill="#9a32cd" stroke="#9a32cd" points="502.51,-218.66 509.97,-226.18 508.83,-215.65 502.51,-218.66"/>
<text text-anchor="middle" x="525" y="-199" font-family="Helvetica,sans-Serif" font-size="10.00"> elements</text>
</g>
</g>
</svg>
        <g id="navigator" transform="translate(0 0)" fill="#404254">
                <rect fill="#f2f5e9" fill-opacity="0.5" stroke="#606060" stroke-width=".5" x="0" y="0" width="60" height="60"/>
                <use id="zoomplus" xlink:href="#zoomPlus" x="17" y="9" onmousedown="handleZoom(evt,'in')"/>
                <use id="zoomminus" xlink:href="#zoomMin" x="42" y="9" onmousedown="handleZoom(evt,'out')"/>
                <use id="reset" xlink:href="#resetDef" x="30" y="36" onmousedown="handleReset()"/>
                <g id="arrowUp" xlink:href="#dirArrow" transform="translate(30 24)" onmousedown="handlePan(0,-1)">
                  <use xlink:href="#rim" fill="#404040">
                        <set attributeName="fill" to="#808080" begin="arrowUp.mouseover" end="arrowUp.mouseout"/>
                  </use>
                  <path fill="none" stroke="white" stroke-width="1.5" d="M0,-3.0v7 M-2.5,-0.5L0,-3.0L2.5,-0.5"/>
                </g>
                <g id="arrowRight" xlink:href="#dirArrow" transform="rotate(90) translate(36 -43)" onmousedown="handlePan(1,0)">
                  <use xlink:href="#rim" fill="#404040">
                        <set attributeName="fill" to="#808080" begin="arrowRight.mouseover" end="arrowRight.mouseout"/>
                  </use>
                  <path fill="none" stroke="white" stroke-width="1.5" d="M0,-3.0v7 M-2.5,-0.5L0,-3.0L2.5,-0.5"/>
                </g>
                <g id="arrowDown" xlink:href="#dirArrow" transform="rotate(180) translate(-30 -48)" onmousedown="handlePan(0,1)">
                  <use xlink:href="#rim" fill="#404040">
                        <set attributeName="fill" to="#808080" begin="arrowDown.mouseover" end="arrowDown.mouseout"/>
                  </use>
                  <path fill="none" stroke="white" stroke-width="1.5" d="M0,-3.0v7 M-2.5,-0.5L0,-3.0L2.5,-0.5"/>
                </g>
                <g id="arrowLeft" xlink:href="#dirArrow" transform="rotate(270) translate(-36 17)" onmousedown="handlePan(-1,0)">
                  <use xlink:href="#rim" fill="#404040">
                        <set attributeName="fill" to="#808080" begin="arrowLeft.mouseover" end="arrowLeft.mouseout"/>
                  </use>
                  <path fill="none" stroke="white" stroke-width="1.5" d="M0,-3.0v7 M-2.5,-0.5L0,-3.0L2.5,-0.5"/>
                </g>
        </g>
        <svg viewBox="0 0 15 15" width="100%" height="30px" preserveAspectRatio="xMaxYMin meet">
         <g id="arrow_out" transform="scale(0.3 0.3)">
          <a xlink:href="class_p4_1_1_check_extern_invocation_common__coll__graph_org.svg" target="_base">
           <rect id="button" ry="5" rx="5" y="6" x="6" height="38" width="38"
                fill="#f2f5e9" fill-opacity="0.5" stroke="#606060" stroke-width="1.0"/>
           <path id="arrow"
             d="M 11.500037,31.436501 C 11.940474,20.09759 22.043105,11.32322 32.158766,21.979434 L 37.068811,17.246167 C 37.068811,17.246167 37.088388,32 37.088388,32 L 22.160133,31.978069 C 22.160133,31.978069 26.997745,27.140456 26.997745,27.140456 C 18.528582,18.264221 13.291696,25.230495 11.500037,31.436501 z"
             style="fill:#404040;"/>
          </a>
         </g>
        </svg>
</svg>
