<?xml version="1.0" encoding="UTF-8" standalone="no"?>
<!DOCTYPE svg PUBLIC "-//W3C//DTD SVG 1.1//EN"
 "http://www.w3.org/Graphics/SVG/1.1/DTD/svg11.dtd">
<!-- Generated by graphviz version 2.43.0 (0)
 -->
<!-- Title: P4Tools::P4Testgen::TestgenCompilerTarget Pages: 1 -->
<svg width="249pt" height="366pt"
 viewBox="0.00 0.00 248.50 366.00" xmlns="http://www.w3.org/2000/svg" xmlns:xlink="http://www.w3.org/1999/xlink">
<g id="graph0" class="graph" transform="scale(1 1) rotate(0) translate(4 362)">
<title>P4Tools::P4Testgen::TestgenCompilerTarget</title>
<polygon fill="white" stroke="transparent" points="-4,4 -4,-362 244.5,-362 244.5,4 -4,4"/>
<!-- Node1 -->
<g id="node1" class="node">
<title>Node1</title>
<g id="a_node1"><a xlink:title=" ">
<polygon fill="#bfbfbf" stroke="black" points="0,-0.5 0,-30.5 134,-30.5 134,-0.5 0,-0.5"/>
<text text-anchor="start" x="8" y="-18.5" font-family="Helvetica,sans-Serif" font-size="10.00">P4Tools::P4Testgen</text>
<text text-anchor="middle" x="67" y="-7.5" font-family="Helvetica,sans-Serif" font-size="10.00">::TestgenCompilerTarget</text>
</a>
</g>
</g>
<!-- Node2 -->
<g id="node2" class="node">
<title>Node2</title>
<g id="a_node2"><a xlink:href="class_p4_tools_1_1_compiler_target.html" target="_top" xlink:title="Encapsulates the details of invoking the P4 compiler for a target device and architecture.">
<polygon fill="white" stroke="black" points="0,-68.5 0,-87.5 134,-87.5 134,-68.5 0,-68.5"/>
<text text-anchor="middle" x="67" y="-75.5" font-family="Helvetica,sans-Serif" font-size="10.00">P4Tools::CompilerTarget</text>
</a>
</g>
</g>
<!-- Node2&#45;&gt;Node1 -->
<g id="edge1" class="edge">
<title>Node2&#45;&gt;Node1</title>
<path fill="none" stroke="midnightblue" d="M67,-58.22C67,-49.36 67,-38.96 67,-30.76"/>
<polygon fill="midnightblue" stroke="midnightblue" points="63.5,-58.33 67,-68.33 70.5,-58.33 63.5,-58.33"/>
</g>
<!-- Node3 -->
<g id="node3" class="node">
<title>Node3</title>
<g id="a_node3"><a xlink:href="class_p4_tools_1_1_target.html" target="_top" xlink:title=" ">
<polygon fill="white" stroke="black" points="22.5,-125.5 22.5,-144.5 111.5,-144.5 111.5,-125.5 22.5,-125.5"/>
<text text-anchor="middle" x="67" y="-132.5" font-family="Helvetica,sans-Serif" font-size="10.00">P4Tools::Target</text>
</a>
</g>
</g>
<!-- Node3&#45;&gt;Node2 -->
<g id="edge2" class="edge">
<title>Node3&#45;&gt;Node2</title>
<path fill="none" stroke="midnightblue" d="M67,-115.12C67,-105.82 67,-95.06 67,-87.71"/>
<polygon fill="midnightblue" stroke="midnightblue" points="63.5,-115.41 67,-125.41 70.5,-115.41 63.5,-115.41"/>
</g>
<!-- Node4 -->
<g id="node4" class="node">
<title>Node4</title>
<g id="a_node4"><a xlink:title=" ">
<polygon fill="white" stroke="#bfbfbf" points="34.5,-270.5 34.5,-289.5 99.5,-289.5 99.5,-270.5 34.5,-270.5"/>
<text text-anchor="middle" x="67" y="-277.5" font-family="Helvetica,sans-Serif" font-size="10.00">std::string</text>
</a>
</g>
</g>
<!-- Node4&#45;&gt;Node3 -->
<g id="edge3" class="edge">
<title>Node4&#45;&gt;Node3</title>
<path fill="none" stroke="#9a32cd" stroke-dasharray="5,2" d="M64.39,-260.29C62.24,-242.68 59.74,-215.56 61,-192 61.9,-175.21 64.3,-155.7 65.78,-144.71"/>
<polygon fill="#9a32cd" stroke="#9a32cd" points="60.94,-260.9 65.7,-270.36 67.88,-259.99 60.94,-260.9"/>
<text text-anchor="middle" x="87" y="-199.5" font-family="Helvetica,sans-Serif" font-size="10.00"> toolName</text>
</g>
<!-- Node6 -->
<g id="node6" class="node">
<title>Node6</title>
<g id="a_node6"><a xlink:href="struct_p4_tools_1_1_target_1_1_spec.html" target="_top" xlink:title="Specifies a target device and architecture by their names in lower case.">
<polygon fill="white" stroke="black" points="121.5,-192.5 121.5,-211.5 240.5,-211.5 240.5,-192.5 121.5,-192.5"/>
<text text-anchor="middle" x="181" y="-199.5" font-family="Helvetica,sans-Serif" font-size="10.00">P4Tools::Target::Spec</text>
</a>
</g>
</g>
<!-- Node4&#45;&gt;Node6 -->
<g id="edge6" class="edge">
<title>Node4&#45;&gt;Node6</title>
<path fill="none" stroke="#9a32cd" stroke-dasharray="5,2" d="M88.65,-264.57C112.1,-248.93 148.75,-224.5 168.08,-211.62"/>
<polygon fill="#9a32cd" stroke="#9a32cd" points="86.46,-261.82 80.08,-270.28 90.34,-267.65 86.46,-261.82"/>
<text text-anchor="middle" x="168" y="-244" font-family="Helvetica,sans-Serif" font-size="10.00"> archName</text>
<text text-anchor="middle" x="168" y="-233" font-family="Helvetica,sans-Serif" font-size="10.00">deviceName</text>
</g>
<!-- Node5 -->
<g id="node5" class="node">
<title>Node5</title>
<g id="a_node5"><a xlink:title=" ">
<polygon fill="white" stroke="#bfbfbf" points="15,-327.5 15,-357.5 119,-357.5 119,-327.5 15,-327.5"/>
<text text-anchor="start" x="23" y="-345.5" font-family="Helvetica,sans-Serif" font-size="10.00">std::basic_string&lt;</text>
<text text-anchor="middle" x="67" y="-334.5" font-family="Helvetica,sans-Serif" font-size="10.00"> Char &gt;</text>
</a>
</g>
</g>
<!-- Node5&#45;&gt;Node4 -->
<g id="edge4" class="edge">
<title>Node5&#45;&gt;Node4</title>
<path fill="none" stroke="midnightblue" d="M67,-317.35C67,-307.51 67,-296.78 67,-289.54"/>
<polygon fill="midnightblue" stroke="midnightblue" points="63.5,-317.47 67,-327.47 70.5,-317.47 63.5,-317.47"/>
</g>
<!-- Node6&#45;&gt;Node3 -->
<g id="edge5" class="edge">
<title>Node6&#45;&gt;Node3</title>
<path fill="none" stroke="#9a32cd" stroke-dasharray="5,2" d="M156.65,-187.12C134.06,-174.24 101.16,-155.48 82.13,-144.63"/>
<polygon fill="#9a32cd" stroke="#9a32cd" points="155.2,-190.32 165.63,-192.23 158.67,-184.24 155.2,-190.32"/>
<text text-anchor="middle" x="143" y="-166" font-family="Helvetica,sans-Serif" font-size="10.00"> spec</text>
</g>
</g>
</svg>
