<?xml version="1.0" encoding="UTF-8" standalone="no"?>
<!DOCTYPE svg PUBLIC "-//W3C//DTD SVG 1.1//EN"
 "http://www.w3.org/Graphics/SVG/1.1/DTD/svg11.dtd">
<!-- Generated by graphviz version 2.43.0 (0)
 -->
<!-- Title: P4::ValueMap Pages: 1 -->
<svg width="294pt" height="355pt"
 viewBox="0.00 0.00 293.50 355.00" xmlns="http://www.w3.org/2000/svg" xmlns:xlink="http://www.w3.org/1999/xlink">
<g id="graph0" class="graph" transform="scale(1 1) rotate(0) translate(4 351)">
<title>P4::ValueMap</title>
<polygon fill="white" stroke="transparent" points="-4,4 -4,-351 289.5,-351 289.5,4 -4,4"/>
<!-- Node1 -->
<g id="node1" class="node">
<title>Node1</title>
<g id="a_node1"><a xlink:title=" ">
<polygon fill="#bfbfbf" stroke="black" points="10.5,-0.5 10.5,-19.5 93.5,-19.5 93.5,-0.5 10.5,-0.5"/>
<text text-anchor="middle" x="52" y="-7.5" font-family="Helvetica,sans-Serif" font-size="10.00">P4::ValueMap</text>
</a>
</g>
</g>
<!-- Node2 -->
<g id="node2" class="node">
<title>Node2</title>
<g id="a_node2"><a xlink:href="class_i_has_db_print.html" target="_top" xlink:title=" ">
<polygon fill="white" stroke="black" points="0,-270.5 0,-289.5 74,-289.5 74,-270.5 0,-270.5"/>
<text text-anchor="middle" x="37" y="-277.5" font-family="Helvetica,sans-Serif" font-size="10.00">IHasDbPrint</text>
</a>
</g>
</g>
<!-- Node2&#45;&gt;Node1 -->
<g id="edge1" class="edge">
<title>Node2&#45;&gt;Node1</title>
<path fill="none" stroke="midnightblue" d="M36.49,-260.24C36.24,-249.61 36,-236.06 36,-224 36,-224 36,-224 36,-87 36,-62.19 44.27,-33.78 48.92,-19.77"/>
<polygon fill="midnightblue" stroke="midnightblue" points="33,-260.52 36.75,-270.43 39.99,-260.34 33,-260.52"/>
</g>
<!-- Node4 -->
<g id="node4" class="node">
<title>Node4</title>
<g id="a_node4"><a xlink:href="class_p4_1_1_symbolic_value.html" target="_top" xlink:title=" ">
<polygon fill="white" stroke="black" points="64.5,-213.5 64.5,-232.5 171.5,-232.5 171.5,-213.5 64.5,-213.5"/>
<text text-anchor="middle" x="118" y="-220.5" font-family="Helvetica,sans-Serif" font-size="10.00">P4::SymbolicValue</text>
</a>
</g>
</g>
<!-- Node2&#45;&gt;Node4 -->
<g id="edge4" class="edge">
<title>Node2&#45;&gt;Node4</title>
<path fill="none" stroke="midnightblue" d="M58.3,-264.54C73.3,-254.35 92.86,-241.07 105.43,-232.53"/>
<polygon fill="midnightblue" stroke="midnightblue" points="55.96,-261.89 49.66,-270.41 59.9,-267.68 55.96,-261.89"/>
</g>
<!-- Node8 -->
<g id="node8" class="node">
<title>Node8</title>
<g id="a_node8"><a xlink:href="class_i_r_1_1_i_node.html" target="_top" xlink:title=" ">
<polygon fill="white" stroke="black" points="194.5,-213.5 194.5,-232.5 255.5,-232.5 255.5,-213.5 194.5,-213.5"/>
<text text-anchor="middle" x="225" y="-220.5" font-family="Helvetica,sans-Serif" font-size="10.00">IR::INode</text>
</a>
</g>
</g>
<!-- Node2&#45;&gt;Node8 -->
<g id="edge10" class="edge">
<title>Node2&#45;&gt;Node8</title>
<path fill="none" stroke="midnightblue" d="M75.97,-267.6C111.64,-257.16 163.63,-241.95 195.83,-232.53"/>
<polygon fill="midnightblue" stroke="midnightblue" points="74.99,-264.24 66.38,-270.41 76.96,-270.96 74.99,-264.24"/>
</g>
<!-- Node3 -->
<g id="node3" class="node">
<title>Node3</title>
<g id="a_node3"><a xlink:title=" ">
<polygon fill="white" stroke="#bfbfbf" points="64,-67.5 64,-108.5 178,-108.5 178,-67.5 64,-67.5"/>
<text text-anchor="start" x="72" y="-96.5" font-family="Helvetica,sans-Serif" font-size="10.00">std::map&lt; const IR</text>
<text text-anchor="start" x="72" y="-85.5" font-family="Helvetica,sans-Serif" font-size="10.00">::IDeclaration *, P4</text>
<text text-anchor="middle" x="121" y="-74.5" font-family="Helvetica,sans-Serif" font-size="10.00">::SymbolicValue * &gt;</text>
</a>
</g>
</g>
<!-- Node3&#45;&gt;Node1 -->
<g id="edge2" class="edge">
<title>Node3&#45;&gt;Node1</title>
<path fill="none" stroke="#9a32cd" stroke-dasharray="5,2" d="M96.34,-59.83C83.46,-45.65 68.6,-29.28 59.76,-19.55"/>
<polygon fill="#9a32cd" stroke="#9a32cd" points="93.92,-62.38 103.23,-67.43 99.1,-57.67 93.92,-62.38"/>
<text text-anchor="middle" x="99.5" y="-41" font-family="Helvetica,sans-Serif" font-size="10.00"> map</text>
</g>
<!-- Node4&#45;&gt;Node3 -->
<g id="edge3" class="edge">
<title>Node4&#45;&gt;Node3</title>
<path fill="none" stroke="#9a32cd" stroke-dasharray="5,2" d="M118.43,-202.95C118.99,-177.95 119.98,-134.28 120.55,-108.88"/>
<polygon fill="#9a32cd" stroke="#9a32cd" points="114.92,-203.2 118.2,-213.27 121.92,-203.36 114.92,-203.2"/>
<text text-anchor="middle" x="144.5" y="-163.5" font-family="Helvetica,sans-Serif" font-size="10.00"> elements</text>
</g>
<!-- Node5 -->
<g id="node5" class="node">
<title>Node5</title>
<g id="a_node5"><a xlink:href="class_i_castable.html" target="_top" xlink:title=" ">
<polygon fill="white" stroke="black" points="92,-270.5 92,-289.5 154,-289.5 154,-270.5 92,-270.5"/>
<text text-anchor="middle" x="123" y="-277.5" font-family="Helvetica,sans-Serif" font-size="10.00">ICastable</text>
</a>
</g>
</g>
<!-- Node5&#45;&gt;Node4 -->
<g id="edge5" class="edge">
<title>Node5&#45;&gt;Node4</title>
<path fill="none" stroke="midnightblue" d="M121.31,-260.42C120.46,-251.05 119.47,-240.14 118.79,-232.71"/>
<polygon fill="midnightblue" stroke="midnightblue" points="117.83,-260.76 122.22,-270.41 124.8,-260.13 117.83,-260.76"/>
</g>
<!-- Node5&#45;&gt;Node8 -->
<g id="edge11" class="edge">
<title>Node5&#45;&gt;Node8</title>
<path fill="none" stroke="midnightblue" d="M147.97,-265.54C167.07,-255.24 192.82,-241.35 209.17,-232.53"/>
<polygon fill="midnightblue" stroke="midnightblue" points="146.08,-262.58 138.94,-270.41 149.4,-268.74 146.08,-262.58"/>
</g>
<!-- Node6 -->
<g id="node6" class="node">
<title>Node6</title>
<g id="a_node6"><a xlink:href="struct_r_t_t_i_1_1_base.html" target="_top" xlink:title=" ">
<polygon fill="white" stroke="black" points="89,-327.5 89,-346.5 157,-346.5 157,-327.5 89,-327.5"/>
<text text-anchor="middle" x="123" y="-334.5" font-family="Helvetica,sans-Serif" font-size="10.00">RTTI::Base</text>
</a>
</g>
</g>
<!-- Node6&#45;&gt;Node5 -->
<g id="edge6" class="edge">
<title>Node6&#45;&gt;Node5</title>
<path fill="none" stroke="midnightblue" d="M123,-317.12C123,-307.82 123,-297.06 123,-289.71"/>
<polygon fill="midnightblue" stroke="midnightblue" points="119.5,-317.41 123,-327.41 126.5,-317.41 119.5,-317.41"/>
</g>
<!-- Node7 -->
<g id="node7" class="node">
<title>Node7</title>
<g id="a_node7"><a xlink:href="class_i_r_1_1_i_declaration.html" target="_top" xlink:title="The Declaration interface, representing objects with names.">
<polygon fill="white" stroke="black" points="180,-156.5 180,-175.5 272,-175.5 272,-156.5 180,-156.5"/>
<text text-anchor="middle" x="226" y="-163.5" font-family="Helvetica,sans-Serif" font-size="10.00">IR::IDeclaration</text>
</a>
</g>
</g>
<!-- Node7&#45;&gt;Node3 -->
<g id="edge7" class="edge">
<title>Node7&#45;&gt;Node3</title>
<path fill="none" stroke="#9a32cd" stroke-dasharray="5,2" d="M205.63,-150.26C189.26,-138.41 166.11,-121.65 148.16,-108.66"/>
<polygon fill="#9a32cd" stroke="#9a32cd" points="203.8,-153.25 213.96,-156.28 207.91,-147.58 203.8,-153.25"/>
<text text-anchor="middle" x="199" y="-130" font-family="Helvetica,sans-Serif" font-size="10.00"> keys</text>
</g>
<!-- Node8&#45;&gt;Node7 -->
<g id="edge8" class="edge">
<title>Node8&#45;&gt;Node7</title>
<path fill="none" stroke="midnightblue" d="M225.34,-203.12C225.51,-193.82 225.71,-183.06 225.84,-175.71"/>
<polygon fill="midnightblue" stroke="midnightblue" points="221.84,-203.34 225.16,-213.41 228.84,-203.47 221.84,-203.34"/>
</g>
<!-- Node9 -->
<g id="node9" class="node">
<title>Node9</title>
<g id="a_node9"><a xlink:href="class_util_1_1_i_has_source_info.html" target="_top" xlink:title=" ">
<polygon fill="white" stroke="black" points="172.5,-270.5 172.5,-289.5 285.5,-289.5 285.5,-270.5 172.5,-270.5"/>
<text text-anchor="middle" x="229" y="-277.5" font-family="Helvetica,sans-Serif" font-size="10.00">Util::IHasSourceInfo</text>
</a>
</g>
</g>
<!-- Node9&#45;&gt;Node8 -->
<g id="edge9" class="edge">
<title>Node9&#45;&gt;Node8</title>
<path fill="none" stroke="midnightblue" d="M227.65,-260.42C226.97,-251.05 226.17,-240.14 225.63,-232.71"/>
<polygon fill="midnightblue" stroke="midnightblue" points="224.16,-260.69 228.38,-270.41 231.14,-260.18 224.16,-260.69"/>
</g>
</g>
</svg>
