<?xml version="1.0" encoding="UTF-8" standalone="no"?>
<!DOCTYPE svg PUBLIC "-//W3C//DTD SVG 1.1//EN"
 "http://www.w3.org/Graphics/SVG/1.1/DTD/svg11.dtd">
<!-- Generated by graphviz version 2.43.0 (0)
 -->
<!-- Title: P4::TypeConstraints Pages: 1 -->
<svg width="600pt" height="322pt"
 viewBox="0.00 0.00 599.50 322.00" xmlns="http://www.w3.org/2000/svg" xmlns:xlink="http://www.w3.org/1999/xlink">
<g id="graph0" class="graph" transform="scale(1 1) rotate(0) translate(4 318)">
<title>P4::TypeConstraints</title>
<polygon fill="white" stroke="transparent" points="-4,4 -4,-318 595.5,-318 595.5,4 -4,4"/>
<!-- Node1 -->
<g id="node1" class="node">
<title>Node1</title>
<g id="a_node1"><a xlink:title=" ">
<polygon fill="#bfbfbf" stroke="black" points="0,-0.5 0,-19.5 113,-19.5 113,-0.5 0,-0.5"/>
<text text-anchor="middle" x="56.5" y="-7.5" font-family="Helvetica,sans-Serif" font-size="10.00">P4::TypeConstraints</text>
</a>
</g>
</g>
<!-- Node2 -->
<g id="node2" class="node">
<title>Node2</title>
<g id="a_node2"><a xlink:href="class_i_has_db_print.html" target="_top" xlink:title=" ">
<polygon fill="white" stroke="black" points="28.5,-293.5 28.5,-312.5 102.5,-312.5 102.5,-293.5 28.5,-293.5"/>
<text text-anchor="middle" x="65.5" y="-300.5" font-family="Helvetica,sans-Serif" font-size="10.00">IHasDbPrint</text>
</a>
</g>
</g>
<!-- Node2&#45;&gt;Node1 -->
<g id="edge1" class="edge">
<title>Node2&#45;&gt;Node1</title>
<path fill="none" stroke="midnightblue" d="M55.45,-284.04C48.5,-269.93 40.5,-249.55 40.5,-230.5 40.5,-230.5 40.5,-230.5 40.5,-81.5 40.5,-58.66 48.59,-32.66 53.26,-19.54"/>
<polygon fill="midnightblue" stroke="midnightblue" points="52.46,-285.86 60.2,-293.1 58.66,-282.61 52.46,-285.86"/>
</g>
<!-- Node10 -->
<g id="node10" class="node">
<title>Node10</title>
<g id="a_node10"><a xlink:href="class_p4_1_1_type_substitution.html" target="_top" xlink:title=" ">
<polygon fill="white" stroke="black" points="71.5,-214.5 71.5,-244.5 205.5,-244.5 205.5,-214.5 71.5,-214.5"/>
<text text-anchor="start" x="79.5" y="-232.5" font-family="Helvetica,sans-Serif" font-size="10.00">P4::TypeSubstitution</text>
<text text-anchor="middle" x="138.5" y="-221.5" font-family="Helvetica,sans-Serif" font-size="10.00">&lt; const IR::ITypeVar * &gt;</text>
</a>
</g>
</g>
<!-- Node2&#45;&gt;Node10 -->
<g id="edge15" class="edge">
<title>Node2&#45;&gt;Node10</title>
<path fill="none" stroke="midnightblue" d="M81.66,-286.17C94.39,-273.7 111.97,-256.48 124.2,-244.51"/>
<polygon fill="midnightblue" stroke="midnightblue" points="79.15,-283.73 74.45,-293.23 84.04,-288.74 79.15,-283.73"/>
</g>
<!-- Node3 -->
<g id="node3" class="node">
<title>Node3</title>
<g id="a_node3"><a xlink:href="class_p4_1_1_type_variable_substitution_visitor.html" target="_top" xlink:title=" ">
<polygon fill="white" stroke="black" points="69,-67.5 69,-97.5 224,-97.5 224,-67.5 69,-67.5"/>
<text text-anchor="start" x="77" y="-85.5" font-family="Helvetica,sans-Serif" font-size="10.00">P4::TypeVariableSubstitution</text>
<text text-anchor="middle" x="146.5" y="-74.5" font-family="Helvetica,sans-Serif" font-size="10.00">Visitor</text>
</a>
</g>
</g>
<!-- Node3&#45;&gt;Node1 -->
<g id="edge2" class="edge">
<title>Node3&#45;&gt;Node1</title>
<path fill="none" stroke="#9a32cd" stroke-dasharray="5,2" d="M120.13,-60.84C102.65,-47.15 80.62,-29.89 67.59,-19.69"/>
<polygon fill="#9a32cd" stroke="#9a32cd" points="118.26,-63.82 128.29,-67.23 122.57,-58.31 118.26,-63.82"/>
<text text-anchor="middle" x="147" y="-41" font-family="Helvetica,sans-Serif" font-size="10.00"> replaceVariables</text>
</g>
<!-- Node4 -->
<g id="node4" class="node">
<title>Node4</title>
<g id="a_node4"><a xlink:href="class_transform.html" target="_top" xlink:title=" ">
<polygon fill="white" stroke="black" points="242,-146.5 242,-165.5 307,-165.5 307,-146.5 242,-146.5"/>
<text text-anchor="middle" x="274.5" y="-153.5" font-family="Helvetica,sans-Serif" font-size="10.00">Transform</text>
</a>
</g>
</g>
<!-- Node4&#45;&gt;Node3 -->
<g id="edge3" class="edge">
<title>Node4&#45;&gt;Node3</title>
<path fill="none" stroke="midnightblue" d="M250.15,-141.4C227.67,-128.84 194.43,-110.27 171.69,-97.57"/>
<polygon fill="midnightblue" stroke="midnightblue" points="248.62,-144.55 259.06,-146.38 252.04,-138.44 248.62,-144.55"/>
</g>
<!-- Node5 -->
<g id="node5" class="node">
<title>Node5</title>
<g id="a_node5"><a xlink:href="class_visitor.html" target="_top" xlink:title=" ">
<polygon fill="white" stroke="black" points="351.5,-220 351.5,-239 399.5,-239 399.5,-220 351.5,-220"/>
<text text-anchor="middle" x="375.5" y="-227" font-family="Helvetica,sans-Serif" font-size="10.00">Visitor</text>
</a>
</g>
</g>
<!-- Node5&#45;&gt;Node4 -->
<g id="edge4" class="edge">
<title>Node5&#45;&gt;Node4</title>
<path fill="none" stroke="midnightblue" d="M355.03,-214.05C347.06,-208.42 337.85,-201.91 329.5,-196 314.79,-185.59 297.87,-173.59 286.73,-165.68"/>
<polygon fill="midnightblue" stroke="midnightblue" points="353.2,-217.04 363.39,-219.95 357.24,-211.32 353.2,-217.04"/>
</g>
<!-- Node5&#45;&gt;Node5 -->
<g id="edge12" class="edge">
<title>Node5&#45;&gt;Node5</title>
<path fill="none" stroke="#9a32cd" stroke-dasharray="5,2" d="M409.92,-235.79C414.48,-234.72 417.5,-232.62 417.5,-229.5 417.5,-224.38 409.36,-222.02 399.67,-222.42"/>
<polygon fill="#9a32cd" stroke="#9a32cd" points="409.37,-232.32 399.67,-236.58 409.91,-239.3 409.37,-232.32"/>
<text text-anchor="middle" x="442.5" y="-227" font-family="Helvetica,sans-Serif" font-size="10.00"> called_by</text>
</g>
<!-- Node7 -->
<g id="node7" class="node">
<title>Node7</title>
<g id="a_node7"><a xlink:href="class_split_flow_visit__base.html" target="_top" xlink:title=" ">
<polygon fill="white" stroke="black" points="381.5,-73 381.5,-92 493.5,-92 493.5,-73 381.5,-73"/>
<text text-anchor="middle" x="437.5" y="-80" font-family="Helvetica,sans-Serif" font-size="10.00">SplitFlowVisit_base</text>
</a>
</g>
</g>
<!-- Node5&#45;&gt;Node7 -->
<g id="edge11" class="edge">
<title>Node5&#45;&gt;Node7</title>
<path fill="none" stroke="#9a32cd" stroke-dasharray="5,2" d="M363.67,-211.22C353.32,-193.79 341.54,-166.47 352.5,-145 365.76,-119.05 395.65,-101.51 416.2,-92.01"/>
<polygon fill="#9a32cd" stroke="#9a32cd" points="360.79,-213.22 369.11,-219.78 366.7,-209.47 360.79,-213.22"/>
<text text-anchor="middle" x="357.5" y="-153.5" font-family="Helvetica,sans-Serif" font-size="10.00"> v</text>
</g>
<!-- Node8 -->
<g id="node8" class="node">
<title>Node8</title>
<g id="a_node8"><a xlink:title=" ">
<polygon fill="white" stroke="#bfbfbf" points="372,-146.5 372,-165.5 503,-165.5 503,-146.5 372,-146.5"/>
<text text-anchor="middle" x="437.5" y="-153.5" font-family="Helvetica,sans-Serif" font-size="10.00">std::vector&lt; Visitor * &gt;</text>
</a>
</g>
</g>
<!-- Node5&#45;&gt;Node8 -->
<g id="edge10" class="edge">
<title>Node5&#45;&gt;Node8</title>
<path fill="none" stroke="#9a32cd" stroke-dasharray="5,2" d="M389.75,-212.07C402.22,-197.69 419.86,-177.35 429.84,-165.84"/>
<polygon fill="#9a32cd" stroke="#9a32cd" points="387.01,-209.88 383.1,-219.73 392.3,-214.47 387.01,-209.88"/>
<text text-anchor="middle" x="436" y="-188" font-family="Helvetica,sans-Serif" font-size="10.00"> elements</text>
</g>
<!-- Node6 -->
<g id="node6" class="node">
<title>Node6</title>
<g id="a_node6"><a xlink:href="classcstring.html" target="_top" xlink:title=" ">
<polygon fill="white" stroke="black" points="350.5,-293.5 350.5,-312.5 400.5,-312.5 400.5,-293.5 350.5,-293.5"/>
<text text-anchor="middle" x="375.5" y="-300.5" font-family="Helvetica,sans-Serif" font-size="10.00">cstring</text>
</a>
</g>
</g>
<!-- Node6&#45;&gt;Node5 -->
<g id="edge5" class="edge">
<title>Node6&#45;&gt;Node5</title>
<path fill="none" stroke="#9a32cd" stroke-dasharray="5,2" d="M375.5,-283.09C375.5,-268.93 375.5,-250.2 375.5,-239.34"/>
<polygon fill="#9a32cd" stroke="#9a32cd" points="372,-283.23 375.5,-293.23 379,-283.23 372,-283.23"/>
<text text-anchor="middle" x="410.5" y="-266" font-family="Helvetica,sans-Serif" font-size="10.00"> internalName</text>
</g>
<!-- Node6&#45;&gt;Node6 -->
<g id="edge6" class="edge">
<title>Node6&#45;&gt;Node6</title>
<path fill="none" stroke="#9a32cd" stroke-dasharray="5,2" d="M410.95,-308.58C415.5,-307.61 418.5,-305.75 418.5,-303 418.5,-298.48 410.41,-296.37 400.68,-296.65"/>
<polygon fill="#9a32cd" stroke="#9a32cd" points="410.39,-305.11 400.68,-309.35 410.91,-312.1 410.39,-305.11"/>
<text text-anchor="middle" x="438" y="-306" font-family="Helvetica,sans-Serif" font-size="10.00"> empty</text>
<text text-anchor="middle" x="438" y="-295" font-family="Helvetica,sans-Serif" font-size="10.00">newline</text>
</g>
<!-- Node7&#45;&gt;Node5 -->
<g id="edge7" class="edge">
<title>Node7&#45;&gt;Node5</title>
<path fill="none" stroke="#9a32cd" stroke-dasharray="5,2" d="M465.03,-96.95C492.44,-112.3 528.33,-138.94 512.5,-167 489.7,-207.42 432.37,-221.36 399.55,-226.11"/>
<polygon fill="#9a32cd" stroke="#9a32cd" points="466.61,-93.83 456.14,-92.19 463.3,-100 466.61,-93.83"/>
<text text-anchor="middle" x="553.5" y="-159" font-family="Helvetica,sans-Serif" font-size="10.00"> split_link</text>
<text text-anchor="middle" x="553.5" y="-148" font-family="Helvetica,sans-Serif" font-size="10.00">split_link_mem</text>
</g>
<!-- Node7&#45;&gt;Node7 -->
<g id="edge8" class="edge">
<title>Node7&#45;&gt;Node7</title>
<path fill="none" stroke="#9a32cd" stroke-dasharray="5,2" d="M503.54,-87.81C508.47,-86.62 511.5,-84.85 511.5,-82.5 511.5,-78.83 504.12,-76.57 493.65,-75.74"/>
<polygon fill="#9a32cd" stroke="#9a32cd" points="503.03,-84.35 493.65,-89.26 504.05,-91.27 503.03,-84.35"/>
<text text-anchor="middle" x="524" y="-80" font-family="Helvetica,sans-Serif" font-size="10.00"> prev</text>
</g>
<!-- Node8&#45;&gt;Node7 -->
<g id="edge9" class="edge">
<title>Node8&#45;&gt;Node7</title>
<path fill="none" stroke="#9a32cd" stroke-dasharray="5,2" d="M437.5,-136.09C437.5,-121.93 437.5,-103.2 437.5,-92.34"/>
<polygon fill="#9a32cd" stroke="#9a32cd" points="434,-136.23 437.5,-146.23 441,-136.23 434,-136.23"/>
<text text-anchor="middle" x="457.5" y="-119" font-family="Helvetica,sans-Serif" font-size="10.00"> visitors</text>
</g>
<!-- Node9 -->
<g id="node9" class="node">
<title>Node9</title>
<g id="a_node9"><a xlink:href="class_p4_1_1_type_variable_substitution.html" target="_top" xlink:title=" ">
<polygon fill="white" stroke="black" points="69,-146.5 69,-165.5 224,-165.5 224,-146.5 69,-146.5"/>
<text text-anchor="middle" x="146.5" y="-153.5" font-family="Helvetica,sans-Serif" font-size="10.00">P4::TypeVariableSubstitution</text>
</a>
</g>
</g>
<!-- Node9&#45;&gt;Node3 -->
<g id="edge13" class="edge">
<title>Node9&#45;&gt;Node3</title>
<path fill="none" stroke="#9a32cd" stroke-dasharray="5,2" d="M146.5,-135.9C146.5,-123.82 146.5,-108.47 146.5,-97.51"/>
<polygon fill="#9a32cd" stroke="#9a32cd" points="143,-136.23 146.5,-146.23 150,-136.23 143,-136.23"/>
<text text-anchor="middle" x="169" y="-119" font-family="Helvetica,sans-Serif" font-size="10.00"> bindings</text>
</g>
<!-- Node10&#45;&gt;Node9 -->
<g id="edge14" class="edge">
<title>Node10&#45;&gt;Node9</title>
<path fill="none" stroke="midnightblue" d="M141.2,-204.36C142.69,-191.01 144.46,-175.25 145.53,-165.7"/>
<polygon fill="midnightblue" stroke="midnightblue" points="137.71,-204.05 140.08,-214.37 144.67,-204.83 137.71,-204.05"/>
</g>
</g>
</svg>
