<?xml version="1.0" encoding="UTF-8" standalone="no"?>
<!DOCTYPE svg PUBLIC "-//W3C//DTD SVG 1.1//EN"
 "http://www.w3.org/Graphics/SVG/1.1/DTD/svg11.dtd">
<!-- Generated by graphviz version 2.43.0 (0)
 -->
<!-- Title: hvec_map&lt; KEY, VAL, HASH, PRED, ALLOC &gt; Pages: 1 -->
<svg width="136pt" height="163pt"
 viewBox="0.00 0.00 136.00 163.00" xmlns="http://www.w3.org/2000/svg" xmlns:xlink="http://www.w3.org/1999/xlink">
<g id="graph0" class="graph" transform="scale(1 1) rotate(0) translate(4 159)">
<title>hvec_map&lt; KEY, VAL, HASH, PRED, ALLOC &gt;</title>
<polygon fill="white" stroke="transparent" points="-4,4 -4,-159 132,-159 132,4 -4,4"/>
<!-- Node1 -->
<g id="node1" class="node">
<title>Node1</title>
<g id="a_node1"><a xlink:title=" ">
<polygon fill="#bfbfbf" stroke="black" points="0,-0.5 0,-30.5 128,-30.5 128,-0.5 0,-0.5"/>
<text text-anchor="start" x="8" y="-18.5" font-family="Helvetica,sans-Serif" font-size="10.00">hvec_map&lt; KEY, VAL,</text>
<text text-anchor="middle" x="64" y="-7.5" font-family="Helvetica,sans-Serif" font-size="10.00"> HASH, PRED, ALLOC &gt;</text>
</a>
</g>
</g>
<!-- Node2 -->
<g id="node2" class="node">
<title>Node2</title>
<g id="a_node2"><a xlink:href="classhash__vector__base.html" target="_top" xlink:title=" ">
<polygon fill="white" stroke="black" points="12,-68.5 12,-87.5 116,-87.5 116,-68.5 12,-68.5"/>
<text text-anchor="middle" x="64" y="-75.5" font-family="Helvetica,sans-Serif" font-size="10.00">hash_vector_base</text>
</a>
</g>
</g>
<!-- Node2&#45;&gt;Node1 -->
<g id="edge1" class="edge">
<title>Node2&#45;&gt;Node1</title>
<path fill="none" stroke="#8b1a1a" d="M64,-58.22C64,-49.36 64,-38.96 64,-30.76"/>
<polygon fill="#8b1a1a" stroke="#8b1a1a" points="60.5,-58.33 64,-68.33 67.5,-58.33 60.5,-58.33"/>
</g>
<!-- Node3 -->
<g id="node3" class="node">
<title>Node3</title>
<g id="a_node3"><a xlink:href="classbitvec.html" target="_top" xlink:title=" ">
<polygon fill="white" stroke="black" points="40.5,-135.5 40.5,-154.5 87.5,-154.5 87.5,-135.5 40.5,-135.5"/>
<text text-anchor="middle" x="64" y="-142.5" font-family="Helvetica,sans-Serif" font-size="10.00">bitvec</text>
</a>
</g>
</g>
<!-- Node3&#45;&gt;Node2 -->
<g id="edge2" class="edge">
<title>Node3&#45;&gt;Node2</title>
<path fill="none" stroke="#9a32cd" stroke-dasharray="5,2" d="M64,-125.04C64,-112.67 64,-97.12 64,-87.63"/>
<polygon fill="#9a32cd" stroke="#9a32cd" points="60.5,-125.23 64,-135.23 67.5,-125.23 60.5,-125.23"/>
<text text-anchor="middle" x="82.5" y="-109" font-family="Helvetica,sans-Serif" font-size="10.00"> erased</text>
</g>
</g>
</svg>
