<?xml version="1.0" encoding="UTF-8" standalone="no"?>
<!DOCTYPE svg PUBLIC "-//W3C//DTD SVG 1.1//EN"
 "http://www.w3.org/Graphics/SVG/1.1/DTD/svg11.dtd">
<!-- Generated by graphviz version 2.43.0 (0)
 -->
<!-- Title: P4Tools::Target Pages: 1 -->
<svg width="678pt" height="259pt"
 viewBox="0.00 0.00 678.00 258.50" xmlns="http://www.w3.org/2000/svg" xmlns:xlink="http://www.w3.org/1999/xlink">
<g id="graph0" class="graph" transform="scale(1 1) rotate(0) translate(4 254.5)">
<title>P4Tools::Target</title>
<!-- Node1 -->
<g id="node1" class="node">
<title>Node1</title>
<g id="a_node1"><a xlink:title=" ">
<polygon fill="#bfbfbf" stroke="black" points="0,-104 0,-123 89,-123 89,-104 0,-104"/>
<text text-anchor="middle" x="44.5" y="-111" font-family="Helvetica,sans-Serif" font-size="10.00">P4Tools::Target</text>
</a>
</g>
</g>
<!-- Node2 -->
<g id="node2" class="node">
<title>Node2</title>
<g id="a_node2"><a xlink:href="class_p4_tools_1_1_compiler_target.html" target="_top" xlink:title="Encapsulates the details of invoking the P4 compiler for a target device and architecture.">
<polygon fill="none" stroke="black" points="125,-145 125,-164 259,-164 259,-145 125,-145"/>
<text text-anchor="middle" x="192" y="-152" font-family="Helvetica,sans-Serif" font-size="10.00">P4Tools::CompilerTarget</text>
</a>
</g>
</g>
<!-- Node1&#45;&gt;Node2 -->
<g id="edge1" class="edge">
<title>Node1&#45;&gt;Node2</title>
<path fill="none" stroke="midnightblue" d="M88.95,-125.74C110.79,-131.9 136.86,-139.24 157.18,-144.97"/>
<polygon fill="midnightblue" stroke="midnightblue" points="89.82,-122.35 79.25,-123.01 87.92,-129.09 89.82,-122.35"/>
</g>
<!-- Node7 -->
<g id="node7" class="node">
<title>Node7</title>
<g id="a_node7"><a xlink:href="class_p4_tools_1_1_p4_testgen_1_1_testgen_target.html" target="_top" xlink:title=" ">
<polygon fill="none" stroke="black" points="137.5,-76.5 137.5,-106.5 246.5,-106.5 246.5,-76.5 137.5,-76.5"/>
<text text-anchor="start" x="145.5" y="-94.5" font-family="Helvetica,sans-Serif" font-size="10.00">P4Tools::P4Testgen</text>
<text text-anchor="middle" x="192" y="-83.5" font-family="Helvetica,sans-Serif" font-size="10.00">::TestgenTarget</text>
</a>
</g>
</g>
<!-- Node1&#45;&gt;Node7 -->
<g id="edge6" class="edge">
<title>Node1&#45;&gt;Node7</title>
<path fill="none" stroke="midnightblue" d="M99.35,-105.36C111.75,-103.48 124.94,-101.49 137.34,-99.61"/>
<polygon fill="midnightblue" stroke="midnightblue" points="98.52,-101.94 89.15,-106.9 99.57,-108.86 98.52,-101.94"/>
</g>
<!-- Node3 -->
<g id="node3" class="node">
<title>Node3</title>
<g id="a_node3"><a xlink:href="class_p4_tools_1_1_p4_testgen_1_1_testgen_compiler_target.html" target="_top" xlink:title=" ">
<polygon fill="none" stroke="black" points="311,-159.5 311,-189.5 445,-189.5 445,-159.5 311,-159.5"/>
<text text-anchor="start" x="319" y="-177.5" font-family="Helvetica,sans-Serif" font-size="10.00">P4Tools::P4Testgen</text>
<text text-anchor="middle" x="378" y="-166.5" font-family="Helvetica,sans-Serif" font-size="10.00">::TestgenCompilerTarget</text>
</a>
</g>
</g>
<!-- Node2&#45;&gt;Node3 -->
<g id="edge2" class="edge">
<title>Node2&#45;&gt;Node3</title>
<path fill="none" stroke="midnightblue" d="M269.13,-162.78C282.96,-164.28 297.29,-165.84 310.8,-167.3"/>
<polygon fill="midnightblue" stroke="midnightblue" points="269.49,-159.29 259.17,-161.69 268.73,-166.25 269.49,-159.29"/>
</g>
<!-- Node4 -->
<g id="node4" class="node">
<title>Node4</title>
<g id="a_node4"><a xlink:href="class_p4_tools_1_1_p4_testgen_1_1_bmv2_1_1_bmv2_v1_model_compiler_target.html" target="_top" xlink:title=" ">
<polygon fill="none" stroke="black" points="497,-209 497,-250 670,-250 670,-209 497,-209"/>
<text text-anchor="start" x="505" y="-238" font-family="Helvetica,sans-Serif" font-size="10.00">P4Tools::P4Testgen</text>
<text text-anchor="start" x="505" y="-227" font-family="Helvetica,sans-Serif" font-size="10.00">::Bmv2::Bmv2V1ModelCompiler</text>
<text text-anchor="middle" x="583.5" y="-216" font-family="Helvetica,sans-Serif" font-size="10.00">Target</text>
</a>
</g>
</g>
<!-- Node3&#45;&gt;Node4 -->
<g id="edge3" class="edge">
<title>Node3&#45;&gt;Node4</title>
<path fill="none" stroke="midnightblue" d="M444.41,-192.18C464.15,-197.51 485.99,-203.42 506.36,-208.92"/>
<polygon fill="midnightblue" stroke="midnightblue" points="445.17,-188.76 434.61,-189.53 443.35,-195.52 445.17,-188.76"/>
</g>
<!-- Node5 -->
<g id="node5" class="node">
<title>Node5</title>
<g id="a_node5"><a xlink:href="class_p4_tools_1_1_p4_testgen_1_1_e_b_p_f_1_1_e_b_p_f_compiler_target.html" target="_top" xlink:title=" ">
<polygon fill="none" stroke="black" points="507.5,-159.5 507.5,-189.5 659.5,-189.5 659.5,-159.5 507.5,-159.5"/>
<text text-anchor="start" x="515.5" y="-177.5" font-family="Helvetica,sans-Serif" font-size="10.00">P4Tools::P4Testgen</text>
<text text-anchor="middle" x="583.5" y="-166.5" font-family="Helvetica,sans-Serif" font-size="10.00">::EBPF::EBPFCompilerTarget</text>
</a>
</g>
</g>
<!-- Node3&#45;&gt;Node5 -->
<g id="edge4" class="edge">
<title>Node3&#45;&gt;Node5</title>
<path fill="none" stroke="midnightblue" d="M455.47,-174.5C472.41,-174.5 490.34,-174.5 507.23,-174.5"/>
<polygon fill="midnightblue" stroke="midnightblue" points="455.07,-171 445.07,-174.5 455.07,-178 455.07,-171"/>
</g>
<!-- Node6 -->
<g id="node6" class="node">
<title>Node6</title>
<g id="a_node6"><a xlink:href="class_p4_tools_1_1_p4_testgen_1_1_pna_1_1_pna_dpdk_compiler_target.html" target="_top" xlink:title=" ">
<polygon fill="none" stroke="black" points="501.5,-110.5 501.5,-140.5 665.5,-140.5 665.5,-110.5 501.5,-110.5"/>
<text text-anchor="start" x="509.5" y="-128.5" font-family="Helvetica,sans-Serif" font-size="10.00">P4Tools::P4Testgen</text>
<text text-anchor="middle" x="583.5" y="-117.5" font-family="Helvetica,sans-Serif" font-size="10.00">::Pna::PnaDpdkCompilerTarget</text>
</a>
</g>
</g>
<!-- Node3&#45;&gt;Node6 -->
<g id="edge5" class="edge">
<title>Node3&#45;&gt;Node6</title>
<path fill="none" stroke="midnightblue" d="M451.28,-157.1C473.79,-151.68 498.41,-145.75 520.18,-140.51"/>
<polygon fill="midnightblue" stroke="midnightblue" points="450.34,-153.72 441.44,-159.47 451.98,-160.53 450.34,-153.72"/>
</g>
<!-- Node8 -->
<g id="node8" class="node">
<title>Node8</title>
<g id="a_node8"><a xlink:href="class_p4_tools_1_1_p4_testgen_1_1_bmv2_1_1_bmv2_v1_model_testgen_target.html" target="_top" xlink:title=" ">
<polygon fill="none" stroke="black" points="295,-99 295,-140 461,-140 461,-99 295,-99"/>
<text text-anchor="start" x="303" y="-128" font-family="Helvetica,sans-Serif" font-size="10.00">P4Tools::P4Testgen</text>
<text text-anchor="start" x="303" y="-117" font-family="Helvetica,sans-Serif" font-size="10.00">::Bmv2::Bmv2V1ModelTestgen</text>
<text text-anchor="middle" x="378" y="-106" font-family="Helvetica,sans-Serif" font-size="10.00">Target</text>
</a>
</g>
</g>
<!-- Node7&#45;&gt;Node8 -->
<g id="edge7" class="edge">
<title>Node7&#45;&gt;Node8</title>
<path fill="none" stroke="midnightblue" d="M256.82,-101.21C269.08,-103.08 282.07,-105.05 294.82,-106.99"/>
<polygon fill="midnightblue" stroke="midnightblue" points="257.13,-97.72 246.72,-99.67 256.07,-104.64 257.13,-97.72"/>
</g>
<!-- Node9 -->
<g id="node9" class="node">
<title>Node9</title>
<g id="a_node9"><a xlink:href="class_p4_tools_1_1_p4_testgen_1_1_e_b_p_f_1_1_e_b_p_f_testgen_target.html" target="_top" xlink:title=" ">
<polygon fill="none" stroke="black" points="306,-49.5 306,-79.5 450,-79.5 450,-49.5 306,-49.5"/>
<text text-anchor="start" x="314" y="-67.5" font-family="Helvetica,sans-Serif" font-size="10.00">P4Tools::P4Testgen</text>
<text text-anchor="middle" x="378" y="-56.5" font-family="Helvetica,sans-Serif" font-size="10.00">::EBPF::EBPFTestgenTarget</text>
</a>
</g>
</g>
<!-- Node7&#45;&gt;Node9 -->
<g id="edge8" class="edge">
<title>Node7&#45;&gt;Node9</title>
<path fill="none" stroke="midnightblue" d="M256.88,-82.13C272.66,-79.81 289.66,-77.32 305.76,-74.95"/>
<polygon fill="midnightblue" stroke="midnightblue" points="256.1,-78.7 246.72,-83.62 257.12,-85.63 256.1,-78.7"/>
</g>
<!-- Node10 -->
<g id="node10" class="node">
<title>Node10</title>
<g id="a_node10"><a xlink:href="class_p4_tools_1_1_p4_testgen_1_1_pna_1_1_pna_dpdk_testgen_target.html" target="_top" xlink:title=" ">
<polygon fill="none" stroke="black" points="299,-0.5 299,-30.5 457,-30.5 457,-0.5 299,-0.5"/>
<text text-anchor="start" x="307" y="-18.5" font-family="Helvetica,sans-Serif" font-size="10.00">P4Tools::P4Testgen</text>
<text text-anchor="middle" x="378" y="-7.5" font-family="Helvetica,sans-Serif" font-size="10.00">::Pna::PnaDpdkTestgenTarget</text>
</a>
</g>
</g>
<!-- Node7&#45;&gt;Node10 -->
<g id="edge9" class="edge">
<title>Node7&#45;&gt;Node10</title>
<path fill="none" stroke="midnightblue" d="M228.24,-71.48C247.55,-61.03 272.14,-48.58 295,-39.5 303.13,-36.27 311.87,-33.25 320.51,-30.52"/>
<polygon fill="midnightblue" stroke="midnightblue" points="226.3,-68.54 219.21,-76.42 229.66,-74.68 226.3,-68.54"/>
</g>
</g>
</svg>
