<?xml version="1.0" encoding="UTF-8" standalone="no"?>
<!DOCTYPE svg PUBLIC "-//W3C//DTD SVG 1.1//EN"
 "http://www.w3.org/Graphics/SVG/1.1/DTD/svg11.dtd">
<!-- Generated by graphviz version 2.43.0 (0)
 -->
<!-- Title: P4::SymbolicStaticError Pages: 1 -->
<svg width="422pt" height="356pt"
 viewBox="0.00 0.00 422.00 356.00" xmlns="http://www.w3.org/2000/svg" xmlns:xlink="http://www.w3.org/1999/xlink">
<g id="graph0" class="graph" transform="scale(1 1) rotate(0) translate(4 352)">
<title>P4::SymbolicStaticError</title>
<polygon fill="white" stroke="transparent" points="-4,4 -4,-352 418,-352 418,4 -4,4"/>
<!-- Node1 -->
<g id="node1" class="node">
<title>Node1</title>
<g id="a_node1"><a xlink:title=" ">
<polygon fill="#bfbfbf" stroke="black" points="197.5,-0.5 197.5,-19.5 328.5,-19.5 328.5,-0.5 197.5,-0.5"/>
<text text-anchor="middle" x="263" y="-7.5" font-family="Helvetica,sans-Serif" font-size="10.00">P4::SymbolicStaticError</text>
</a>
</g>
</g>
<!-- Node2 -->
<g id="node2" class="node">
<title>Node2</title>
<g id="a_node2"><a xlink:href="class_p4_1_1_symbolic_error.html" target="_top" xlink:title=" ">
<polygon fill="white" stroke="black" points="150.5,-57.5 150.5,-76.5 253.5,-76.5 253.5,-57.5 150.5,-57.5"/>
<text text-anchor="middle" x="202" y="-64.5" font-family="Helvetica,sans-Serif" font-size="10.00">P4::SymbolicError</text>
</a>
</g>
</g>
<!-- Node2&#45;&gt;Node1 -->
<g id="edge1" class="edge">
<title>Node2&#45;&gt;Node1</title>
<path fill="none" stroke="midnightblue" d="M218.96,-50.71C230.04,-40.72 244.12,-28.02 253.33,-19.71"/>
<polygon fill="midnightblue" stroke="midnightblue" points="216.61,-48.11 211.53,-57.41 221.3,-53.31 216.61,-48.11"/>
</g>
<!-- Node3 -->
<g id="node3" class="node">
<title>Node3</title>
<g id="a_node3"><a xlink:href="class_p4_1_1_symbolic_value.html" target="_top" xlink:title=" ">
<polygon fill="white" stroke="black" points="7.5,-191.5 7.5,-210.5 114.5,-210.5 114.5,-191.5 7.5,-191.5"/>
<text text-anchor="middle" x="61" y="-198.5" font-family="Helvetica,sans-Serif" font-size="10.00">P4::SymbolicValue</text>
</a>
</g>
</g>
<!-- Node3&#45;&gt;Node2 -->
<g id="edge2" class="edge">
<title>Node3&#45;&gt;Node2</title>
<path fill="none" stroke="midnightblue" d="M77.81,-184.26C107.83,-156.16 169.65,-98.28 192.9,-76.52"/>
<polygon fill="midnightblue" stroke="midnightblue" points="75.16,-181.95 70.25,-191.34 79.94,-187.06 75.16,-181.95"/>
</g>
<!-- Node4 -->
<g id="node4" class="node">
<title>Node4</title>
<g id="a_node4"><a xlink:href="class_i_has_db_print.html" target="_top" xlink:title=" ">
<polygon fill="white" stroke="black" points="83,-270.5 83,-289.5 157,-289.5 157,-270.5 83,-270.5"/>
<text text-anchor="middle" x="120" y="-277.5" font-family="Helvetica,sans-Serif" font-size="10.00">IHasDbPrint</text>
</a>
</g>
</g>
<!-- Node4&#45;&gt;Node3 -->
<g id="edge3" class="edge">
<title>Node4&#45;&gt;Node3</title>
<path fill="none" stroke="midnightblue" d="M107.06,-262.12C94.94,-246.3 77.3,-223.27 67.75,-210.81"/>
<polygon fill="midnightblue" stroke="midnightblue" points="104.6,-264.66 113.46,-270.47 110.16,-260.4 104.6,-264.66"/>
</g>
<!-- Node8 -->
<g id="node8" class="node">
<title>Node8</title>
<g id="a_node8"><a xlink:href="class_i_r_1_1_i_node.html" target="_top" xlink:title=" ">
<polygon fill="white" stroke="black" points="132.5,-191.5 132.5,-210.5 193.5,-210.5 193.5,-191.5 132.5,-191.5"/>
<text text-anchor="middle" x="163" y="-198.5" font-family="Helvetica,sans-Serif" font-size="10.00">IR::INode</text>
</a>
</g>
</g>
<!-- Node4&#45;&gt;Node8 -->
<g id="edge9" class="edge">
<title>Node4&#45;&gt;Node8</title>
<path fill="none" stroke="midnightblue" d="M129.68,-261.67C138.5,-245.87 151.18,-223.16 158.08,-210.81"/>
<polygon fill="midnightblue" stroke="midnightblue" points="126.59,-260.03 124.77,-270.47 132.7,-263.44 126.59,-260.03"/>
</g>
<!-- Node5 -->
<g id="node5" class="node">
<title>Node5</title>
<g id="a_node5"><a xlink:href="class_i_castable.html" target="_top" xlink:title=" ">
<polygon fill="white" stroke="black" points="3,-270.5 3,-289.5 65,-289.5 65,-270.5 3,-270.5"/>
<text text-anchor="middle" x="34" y="-277.5" font-family="Helvetica,sans-Serif" font-size="10.00">ICastable</text>
</a>
</g>
</g>
<!-- Node5&#45;&gt;Node3 -->
<g id="edge4" class="edge">
<title>Node5&#45;&gt;Node3</title>
<path fill="none" stroke="midnightblue" d="M40.39,-260.77C45.92,-245.02 53.66,-222.92 57.91,-210.81"/>
<polygon fill="midnightblue" stroke="midnightblue" points="37,-259.87 36.99,-270.47 43.6,-262.19 37,-259.87"/>
</g>
<!-- Node5&#45;&gt;Node8 -->
<g id="edge10" class="edge">
<title>Node5&#45;&gt;Node8</title>
<path fill="none" stroke="midnightblue" d="M56.95,-265.3C83.5,-249.45 126.42,-223.84 148.64,-210.57"/>
<polygon fill="midnightblue" stroke="midnightblue" points="55.09,-262.33 48.3,-270.47 58.68,-268.35 55.09,-262.33"/>
</g>
<!-- Node6 -->
<g id="node6" class="node">
<title>Node6</title>
<g id="a_node6"><a xlink:href="struct_r_t_t_i_1_1_base.html" target="_top" xlink:title=" ">
<polygon fill="white" stroke="black" points="0,-328.5 0,-347.5 68,-347.5 68,-328.5 0,-328.5"/>
<text text-anchor="middle" x="34" y="-335.5" font-family="Helvetica,sans-Serif" font-size="10.00">RTTI::Base</text>
</a>
</g>
</g>
<!-- Node6&#45;&gt;Node5 -->
<g id="edge5" class="edge">
<title>Node6&#45;&gt;Node5</title>
<path fill="none" stroke="midnightblue" d="M34,-317.95C34,-308.29 34,-297.03 34,-289.51"/>
<polygon fill="midnightblue" stroke="midnightblue" points="30.5,-318.25 34,-328.25 37.5,-318.25 30.5,-318.25"/>
</g>
<!-- Node7 -->
<g id="node7" class="node">
<title>Node7</title>
<g id="a_node7"><a xlink:href="class_i_r_1_1_node.html" target="_top" xlink:title=" ">
<polygon fill="white" stroke="black" points="173,-124.5 173,-143.5 231,-143.5 231,-124.5 173,-124.5"/>
<text text-anchor="middle" x="202" y="-131.5" font-family="Helvetica,sans-Serif" font-size="10.00">IR::Node</text>
</a>
</g>
</g>
<!-- Node7&#45;&gt;Node2 -->
<g id="edge6" class="edge">
<title>Node7&#45;&gt;Node2</title>
<path fill="none" stroke="#9a32cd" stroke-dasharray="5,2" d="M202,-114.04C202,-101.67 202,-86.12 202,-76.63"/>
<polygon fill="#9a32cd" stroke="#9a32cd" points="198.5,-114.23 202,-124.23 205.5,-114.23 198.5,-114.23"/>
<text text-anchor="middle" x="235" y="-98" font-family="Helvetica,sans-Serif" font-size="10.00"> errorPosition</text>
</g>
<!-- Node8&#45;&gt;Node7 -->
<g id="edge7" class="edge">
<title>Node8&#45;&gt;Node7</title>
<path fill="none" stroke="midnightblue" d="M173.48,-182.53C181.03,-169.95 190.9,-153.51 196.82,-143.63"/>
<polygon fill="midnightblue" stroke="midnightblue" points="170.4,-180.86 168.26,-191.23 176.41,-184.46 170.4,-180.86"/>
</g>
<!-- Node9 -->
<g id="node9" class="node">
<title>Node9</title>
<g id="a_node9"><a xlink:href="class_util_1_1_i_has_source_info.html" target="_top" xlink:title=" ">
<polygon fill="white" stroke="black" points="175.5,-270.5 175.5,-289.5 288.5,-289.5 288.5,-270.5 175.5,-270.5"/>
<text text-anchor="middle" x="232" y="-277.5" font-family="Helvetica,sans-Serif" font-size="10.00">Util::IHasSourceInfo</text>
</a>
</g>
</g>
<!-- Node9&#45;&gt;Node8 -->
<g id="edge8" class="edge">
<title>Node9&#45;&gt;Node8</title>
<path fill="none" stroke="midnightblue" d="M217.66,-263C203.47,-247.16 182.27,-223.51 170.89,-210.81"/>
<polygon fill="midnightblue" stroke="midnightblue" points="215.07,-265.35 224.35,-270.47 220.29,-260.68 215.07,-265.35"/>
</g>
<!-- Node10 -->
<g id="node10" class="node">
<title>Node10</title>
<g id="a_node10"><a xlink:href="class_util_1_1_source_info.html" target="_top" xlink:title=" ">
<polygon fill="white" stroke="black" points="212,-191.5 212,-210.5 304,-210.5 304,-191.5 212,-191.5"/>
<text text-anchor="middle" x="258" y="-198.5" font-family="Helvetica,sans-Serif" font-size="10.00">Util::SourceInfo</text>
</a>
</g>
</g>
<!-- Node10&#45;&gt;Node7 -->
<g id="edge11" class="edge">
<title>Node10&#45;&gt;Node7</title>
<path fill="none" stroke="#9a32cd" stroke-dasharray="5,2" d="M243.9,-183.63C232.95,-170.92 218.2,-153.8 209.43,-143.63"/>
<polygon fill="#9a32cd" stroke="#9a32cd" points="241.27,-185.94 250.45,-191.23 246.57,-181.37 241.27,-185.94"/>
<text text-anchor="middle" x="251.5" y="-165" font-family="Helvetica,sans-Serif" font-size="10.00"> srcInfo</text>
</g>
<!-- Node11 -->
<g id="node11" class="node">
<title>Node11</title>
<g id="a_node11"><a xlink:href="classcstring.html" target="_top" xlink:title=" ">
<polygon fill="white" stroke="black" points="307,-270.5 307,-289.5 357,-289.5 357,-270.5 307,-270.5"/>
<text text-anchor="middle" x="332" y="-277.5" font-family="Helvetica,sans-Serif" font-size="10.00">cstring</text>
</a>
</g>
</g>
<!-- Node11&#45;&gt;Node1 -->
<g id="edge14" class="edge">
<title>Node11&#45;&gt;Node1</title>
<path fill="none" stroke="#9a32cd" stroke-dasharray="5,2" d="M332,-260.08C332,-244.5 332,-221.81 332,-202 332,-202 332,-202 332,-66 332,-43.02 308.31,-28.09 288.69,-19.66"/>
<polygon fill="#9a32cd" stroke="#9a32cd" points="328.5,-260.45 332,-270.45 335.5,-260.45 328.5,-260.45"/>
<text text-anchor="middle" x="344.5" y="-131.5" font-family="Helvetica,sans-Serif" font-size="10.00"> msg</text>
</g>
<!-- Node11&#45;&gt;Node10 -->
<g id="edge12" class="edge">
<title>Node11&#45;&gt;Node10</title>
<path fill="none" stroke="#9a32cd" stroke-dasharray="5,2" d="M299.36,-266.61C287.52,-261.54 276.06,-255.76 272,-251 262.12,-239.42 259.2,-221.28 258.34,-210.63"/>
<polygon fill="#9a32cd" stroke="#9a32cd" points="298.21,-269.92 308.79,-270.48 300.87,-263.44 298.21,-269.92"/>
<text text-anchor="middle" x="295" y="-243" font-family="Helvetica,sans-Serif" font-size="10.00"> filename</text>
<text text-anchor="middle" x="295" y="-232" font-family="Helvetica,sans-Serif" font-size="10.00">srcBrief</text>
</g>
<!-- Node11&#45;&gt;Node11 -->
<g id="edge13" class="edge">
<title>Node11&#45;&gt;Node11</title>
<path fill="none" stroke="#9a32cd" stroke-dasharray="5,2" d="M367.45,-284.6C372,-283.8 375,-282.27 375,-280 375,-276.28 366.91,-274.54 357.18,-274.77"/>
<polygon fill="#9a32cd" stroke="#9a32cd" points="366.94,-281.12 357.18,-285.23 367.37,-288.11 366.94,-281.12"/>
<text text-anchor="middle" x="394.5" y="-283" font-family="Helvetica,sans-Serif" font-size="10.00"> empty</text>
<text text-anchor="middle" x="394.5" y="-272" font-family="Helvetica,sans-Serif" font-size="10.00">newline</text>
</g>
</g>
</svg>
