<?xml version="1.0" encoding="UTF-8" standalone="no"?>
<!DOCTYPE svg PUBLIC "-//W3C//DTD SVG 1.1//EN"
 "http://www.w3.org/Graphics/SVG/1.1/DTD/svg11.dtd">
<!-- Generated by graphviz version 2.43.0 (0)
 -->
<!-- Title: P4::MinimalNameGenerator Pages: 1 -->
<svg width="486pt" height="233pt"
 viewBox="0.00 0.00 485.50 233.00" xmlns="http://www.w3.org/2000/svg" xmlns:xlink="http://www.w3.org/1999/xlink">
<g id="graph0" class="graph" transform="scale(1 1) rotate(0) translate(4 229)">
<title>P4::MinimalNameGenerator</title>
<polygon fill="white" stroke="transparent" points="-4,4 -4,-229 481.5,-229 481.5,4 -4,4"/>
<!-- Node1 -->
<g id="node1" class="node">
<title>Node1</title>
<g id="a_node1"><a xlink:title=" ">
<polygon fill="#bfbfbf" stroke="black" points="13.5,-0.5 13.5,-19.5 165.5,-19.5 165.5,-0.5 13.5,-0.5"/>
<text text-anchor="middle" x="89.5" y="-7.5" font-family="Helvetica,sans-Serif" font-size="10.00">P4::MinimalNameGenerator</text>
</a>
</g>
</g>
<!-- Node2 -->
<g id="node2" class="node">
<title>Node2</title>
<g id="a_node2"><a xlink:href="class_p4_1_1_name_generator.html" target="_top" xlink:title=" ">
<polygon fill="white" stroke="black" points="0,-68.5 0,-87.5 113,-87.5 113,-68.5 0,-68.5"/>
<text text-anchor="middle" x="56.5" y="-75.5" font-family="Helvetica,sans-Serif" font-size="10.00">P4::NameGenerator</text>
</a>
</g>
</g>
<!-- Node2&#45;&gt;Node1 -->
<g id="edge1" class="edge">
<title>Node2&#45;&gt;Node1</title>
<path fill="none" stroke="midnightblue" d="M65.41,-59.19C71.77,-46.45 80.07,-29.86 85.08,-19.84"/>
<polygon fill="midnightblue" stroke="midnightblue" points="62.16,-57.86 60.81,-68.37 68.42,-60.99 62.16,-57.86"/>
</g>
<!-- Node3 -->
<g id="node3" class="node">
<title>Node3</title>
<g id="a_node3"><a xlink:href="class_inspector.html" target="_top" xlink:title=" ">
<polygon fill="white" stroke="black" points="131.5,-68.5 131.5,-87.5 193.5,-87.5 193.5,-68.5 131.5,-68.5"/>
<text text-anchor="middle" x="162.5" y="-75.5" font-family="Helvetica,sans-Serif" font-size="10.00">Inspector</text>
</a>
</g>
</g>
<!-- Node3&#45;&gt;Node1 -->
<g id="edge2" class="edge">
<title>Node3&#45;&gt;Node1</title>
<path fill="none" stroke="midnightblue" d="M145.26,-61.41C130.92,-48.45 111.02,-30.46 99.28,-19.84"/>
<polygon fill="midnightblue" stroke="midnightblue" points="143.19,-64.26 152.96,-68.37 147.89,-59.07 143.19,-64.26"/>
</g>
<!-- Node4 -->
<g id="node4" class="node">
<title>Node4</title>
<g id="a_node4"><a xlink:href="class_visitor.html" target="_top" xlink:title=" ">
<polygon fill="white" stroke="black" points="237.5,-136.5 237.5,-155.5 285.5,-155.5 285.5,-136.5 237.5,-136.5"/>
<text text-anchor="middle" x="261.5" y="-143.5" font-family="Helvetica,sans-Serif" font-size="10.00">Visitor</text>
</a>
</g>
</g>
<!-- Node4&#45;&gt;Node3 -->
<g id="edge3" class="edge">
<title>Node4&#45;&gt;Node3</title>
<path fill="none" stroke="midnightblue" d="M236.86,-131.17C229.87,-127.07 222.3,-122.48 215.5,-118 200.62,-108.19 184.19,-95.86 173.63,-87.72"/>
<polygon fill="midnightblue" stroke="midnightblue" points="235.51,-134.43 245.92,-136.39 239.01,-128.37 235.51,-134.43"/>
</g>
<!-- Node4&#45;&gt;Node4 -->
<g id="edge11" class="edge">
<title>Node4&#45;&gt;Node4</title>
<path fill="none" stroke="#9a32cd" stroke-dasharray="5,2" d="M295.92,-151.29C300.48,-150.39 303.5,-148.63 303.5,-146 303.5,-141.69 295.36,-139.7 285.67,-140.04"/>
<polygon fill="#9a32cd" stroke="#9a32cd" points="295.42,-147.82 285.67,-151.96 295.88,-154.8 295.42,-147.82"/>
<text text-anchor="middle" x="328.5" y="-143.5" font-family="Helvetica,sans-Serif" font-size="10.00"> called_by</text>
</g>
<!-- Node6 -->
<g id="node6" class="node">
<title>Node6</title>
<g id="a_node6"><a xlink:href="class_split_flow_visit__base.html" target="_top" xlink:title=" ">
<polygon fill="white" stroke="black" points="267.5,-0.5 267.5,-19.5 379.5,-19.5 379.5,-0.5 267.5,-0.5"/>
<text text-anchor="middle" x="323.5" y="-7.5" font-family="Helvetica,sans-Serif" font-size="10.00">SplitFlowVisit_base</text>
</a>
</g>
</g>
<!-- Node4&#45;&gt;Node6 -->
<g id="edge10" class="edge">
<title>Node4&#45;&gt;Node6</title>
<path fill="none" stroke="#9a32cd" stroke-dasharray="5,2" d="M249.16,-127.83C239.04,-111.48 227.98,-86.53 238.5,-67 251.24,-43.35 278.82,-28.04 299.12,-19.51"/>
<polygon fill="#9a32cd" stroke="#9a32cd" points="246.38,-129.97 254.83,-136.36 252.2,-126.1 246.38,-129.97"/>
<text text-anchor="middle" x="243.5" y="-75.5" font-family="Helvetica,sans-Serif" font-size="10.00"> v</text>
</g>
<!-- Node7 -->
<g id="node7" class="node">
<title>Node7</title>
<g id="a_node7"><a xlink:title=" ">
<polygon fill="white" stroke="#bfbfbf" points="258,-68.5 258,-87.5 389,-87.5 389,-68.5 258,-68.5"/>
<text text-anchor="middle" x="323.5" y="-75.5" font-family="Helvetica,sans-Serif" font-size="10.00">std::vector&lt; Visitor * &gt;</text>
</a>
</g>
</g>
<!-- Node4&#45;&gt;Node7 -->
<g id="edge9" class="edge">
<title>Node4&#45;&gt;Node7</title>
<path fill="none" stroke="#9a32cd" stroke-dasharray="5,2" d="M276.49,-129.05C288.64,-116.11 305.32,-98.36 315.19,-87.84"/>
<polygon fill="#9a32cd" stroke="#9a32cd" points="273.9,-126.69 269.61,-136.37 279,-131.48 273.9,-126.69"/>
<text text-anchor="middle" x="321" y="-110" font-family="Helvetica,sans-Serif" font-size="10.00"> elements</text>
</g>
<!-- Node5 -->
<g id="node5" class="node">
<title>Node5</title>
<g id="a_node5"><a xlink:href="classcstring.html" target="_top" xlink:title=" ">
<polygon fill="white" stroke="black" points="236.5,-204.5 236.5,-223.5 286.5,-223.5 286.5,-204.5 236.5,-204.5"/>
<text text-anchor="middle" x="261.5" y="-211.5" font-family="Helvetica,sans-Serif" font-size="10.00">cstring</text>
</a>
</g>
</g>
<!-- Node5&#45;&gt;Node4 -->
<g id="edge4" class="edge">
<title>Node5&#45;&gt;Node4</title>
<path fill="none" stroke="#9a32cd" stroke-dasharray="5,2" d="M261.5,-194.04C261.5,-181.47 261.5,-165.56 261.5,-155.84"/>
<polygon fill="#9a32cd" stroke="#9a32cd" points="258,-194.37 261.5,-204.37 265,-194.37 258,-194.37"/>
<text text-anchor="middle" x="296.5" y="-177" font-family="Helvetica,sans-Serif" font-size="10.00"> internalName</text>
</g>
<!-- Node5&#45;&gt;Node5 -->
<g id="edge5" class="edge">
<title>Node5&#45;&gt;Node5</title>
<path fill="none" stroke="#9a32cd" stroke-dasharray="5,2" d="M296.95,-219.58C301.5,-218.61 304.5,-216.75 304.5,-214 304.5,-209.48 296.41,-207.37 286.68,-207.65"/>
<polygon fill="#9a32cd" stroke="#9a32cd" points="296.39,-216.11 286.68,-220.35 296.91,-223.1 296.39,-216.11"/>
<text text-anchor="middle" x="324" y="-217" font-family="Helvetica,sans-Serif" font-size="10.00"> empty</text>
<text text-anchor="middle" x="324" y="-206" font-family="Helvetica,sans-Serif" font-size="10.00">newline</text>
</g>
<!-- Node6&#45;&gt;Node4 -->
<g id="edge6" class="edge">
<title>Node6&#45;&gt;Node4</title>
<path fill="none" stroke="#9a32cd" stroke-dasharray="5,2" d="M352.55,-24.16C379.57,-38.38 413.57,-62.58 398.5,-89 375.85,-128.73 318.46,-140.29 285.6,-143.64"/>
<polygon fill="#9a32cd" stroke="#9a32cd" points="353.88,-20.91 343.38,-19.56 350.75,-27.17 353.88,-20.91"/>
<text text-anchor="middle" x="439.5" y="-81" font-family="Helvetica,sans-Serif" font-size="10.00"> split_link</text>
<text text-anchor="middle" x="439.5" y="-70" font-family="Helvetica,sans-Serif" font-size="10.00">split_link_mem</text>
</g>
<!-- Node6&#45;&gt;Node6 -->
<g id="edge7" class="edge">
<title>Node6&#45;&gt;Node6</title>
<path fill="none" stroke="#9a32cd" stroke-dasharray="5,2" d="M389.9,-14.4C394.62,-13.4 397.5,-11.93 397.5,-10 397.5,-6.91 390.12,-5.01 379.65,-4.31"/>
<polygon fill="#9a32cd" stroke="#9a32cd" points="389.13,-10.97 379.65,-15.69 390.01,-17.91 389.13,-10.97"/>
<text text-anchor="middle" x="410" y="-7.5" font-family="Helvetica,sans-Serif" font-size="10.00"> prev</text>
</g>
<!-- Node7&#45;&gt;Node6 -->
<g id="edge8" class="edge">
<title>Node7&#45;&gt;Node6</title>
<path fill="none" stroke="#9a32cd" stroke-dasharray="5,2" d="M323.5,-58.04C323.5,-45.47 323.5,-29.56 323.5,-19.84"/>
<polygon fill="#9a32cd" stroke="#9a32cd" points="320,-58.37 323.5,-68.37 327,-58.37 320,-58.37"/>
<text text-anchor="middle" x="343.5" y="-41" font-family="Helvetica,sans-Serif" font-size="10.00"> visitors</text>
</g>
</g>
</svg>
