<?xml version="1.0" encoding="UTF-8" standalone="no"?>
<!DOCTYPE svg PUBLIC "-//W3C//DTD SVG 1.1//EN"
 "http://www.w3.org/Graphics/SVG/1.1/DTD/svg11.dtd">
<!-- Generated by graphviz version 2.43.0 (0)
 -->
<!-- Title: DPDK::CollectStructLocalVariables Pages: 1 -->
<!--zoomable 465 -->
<svg id="main" version="1.1" xmlns="http://www.w3.org/2000/svg" xmlns:xlink="http://www.w3.org/1999/xlink" xml:space="preserve" onload="init(evt)">
<style type="text/css"><![CDATA[
.edge:hover path { stroke: red; }
.edge:hover polygon { stroke: red; fill: red; }
]]></style>
<script type="text/javascript"><![CDATA[
var edges = document.getElementsByTagName('g');
if (edges && edges.length) {
  for (var i=0;i<edges.length;i++) {
    if (edges[i].id.substr(0,4)=='edge') {
      edges[i].setAttribute('class','edge');
    }
  }
}
]]></script>
        <defs>
                <circle id="rim" cx="0" cy="0" r="7"/>
                <circle id="rim2" cx="0" cy="0" r="3.5"/>
                <g id="zoomPlus">
                        <use xlink:href="#rim" fill="#404040">
                                <set attributeName="fill" to="#808080" begin="zoomplus.mouseover" end="zoomplus.mouseout"/>
                        </use>
                        <path d="M-4,0h8M0,-4v8" fill="none" stroke="white" stroke-width="1.5" pointer-events="none"/>
                </g>
                <g id="zoomMin">
                        <use xlink:href="#rim" fill="#404040">
                                <set attributeName="fill" to="#808080" begin="zoomminus.mouseover" end="zoomminus.mouseout"/>
                        </use>
                        <path d="M-4,0h8" fill="none" stroke="white" stroke-width="1.5" pointer-events="none"/>
                </g>
                <g id="dirArrow">
                        <path fill="none" stroke="white" stroke-width="1.5" d="M0,-3.0v7 M-2.5,-0.5L0,-3.0L2.5,-0.5"/>
                </g>
               <g id="resetDef">
                       <use xlink:href="#rim2" fill="#404040">
                               <set attributeName="fill" to="#808080" begin="reset.mouseover" end="reset.mouseout"/>
                       </use>
               </g>
        </defs>

<script type="text/javascript">
var viewWidth = 723;
var viewHeight = 465;
var sectionId = 'dynsection-1';
</script>
<script xlink:href="svgpan.js"/>
<svg id="graph" class="graph">
<g id="viewport">
<title>DPDK::CollectStructLocalVariables</title>
<polygon fill="white" stroke="transparent" points="-4,4 -4,-461 719,-461 719,4 -4,4"/>
<!-- Node1 -->
<g id="node1" class="node">
<title>Node1</title>
<g id="a_node1"><a xlink:title=" ">
<polygon fill="#bfbfbf" stroke="black" points="246.5,-0.5 246.5,-30.5 384.5,-30.5 384.5,-0.5 246.5,-0.5"/>
<text text-anchor="start" x="254.5" y="-18.5" font-family="Helvetica,sans-Serif" font-size="10.00">DPDK::CollectStructLocal</text>
<text text-anchor="middle" x="315.5" y="-7.5" font-family="Helvetica,sans-Serif" font-size="10.00">Variables</text>
</a>
</g>
</g>
<!-- Node2 -->
<g id="node2" class="node">
<title>Node2</title>
<g id="a_node2"><a xlink:href="class_transform.html" target="_top" xlink:title=" ">
<polygon fill="white" stroke="black" points="0,-173.5 0,-192.5 65,-192.5 65,-173.5 0,-173.5"/>
<text text-anchor="middle" x="32.5" y="-180.5" font-family="Helvetica,sans-Serif" font-size="10.00">Transform</text>
</a>
</g>
</g>
<!-- Node2&#45;&gt;Node1 -->
<g id="edge1" class="edge">
<title>Node2&#45;&gt;Node1</title>
<path fill="none" stroke="midnightblue" d="M56.02,-168.24C109.08,-137.22 237.6,-62.06 291.29,-30.66"/>
<polygon fill="midnightblue" stroke="midnightblue" points="54.18,-165.27 47.32,-173.34 57.72,-171.31 54.18,-165.27"/>
</g>
<!-- Node3 -->
<g id="node3" class="node">
<title>Node3</title>
<g id="a_node3"><a xlink:href="class_visitor.html" target="_top" xlink:title=" ">
<polygon fill="white" stroke="black" points="156.5,-300.5 156.5,-319.5 204.5,-319.5 204.5,-300.5 156.5,-300.5"/>
<text text-anchor="middle" x="180.5" y="-307.5" font-family="Helvetica,sans-Serif" font-size="10.00">Visitor</text>
</a>
</g>
</g>
<!-- Node3&#45;&gt;Node2 -->
<g id="edge2" class="edge">
<title>Node3&#45;&gt;Node2</title>
<path fill="none" stroke="midnightblue" d="M146.14,-305.36C104.86,-298.88 37.63,-281.12 9.5,-233 4.57,-224.56 6.12,-220.18 9.5,-211 12.05,-204.07 17.27,-197.7 22.08,-192.89"/>
<polygon fill="midnightblue" stroke="midnightblue" points="145.9,-308.86 156.29,-306.8 146.89,-301.93 145.9,-308.86"/>
</g>
<!-- Node3&#45;&gt;Node3 -->
<g id="edge10" class="edge">
<title>Node3&#45;&gt;Node3</title>
<path fill="none" stroke="#9a32cd" stroke-dasharray="5,2" d="M214.92,-316.29C219.48,-315.22 222.5,-313.12 222.5,-310 222.5,-304.88 214.36,-302.52 204.67,-302.92"/>
<polygon fill="#9a32cd" stroke="#9a32cd" points="214.37,-312.82 204.67,-317.08 214.91,-319.8 214.37,-312.82"/>
<text text-anchor="middle" x="247.5" y="-307.5" font-family="Helvetica,sans-Serif" font-size="10.00"> called_by</text>
</g>
<!-- Node5 -->
<g id="node5" class="node">
<title>Node5</title>
<g id="a_node5"><a xlink:href="class_split_flow_visit__base.html" target="_top" xlink:title=" ">
<polygon fill="white" stroke="black" points="130.5,-135.5 130.5,-154.5 242.5,-154.5 242.5,-135.5 130.5,-135.5"/>
<text text-anchor="middle" x="186.5" y="-142.5" font-family="Helvetica,sans-Serif" font-size="10.00">SplitFlowVisit_base</text>
</a>
</g>
</g>
<!-- Node3&#45;&gt;Node5 -->
<g id="edge9" class="edge">
<title>Node3&#45;&gt;Node5</title>
<path fill="none" stroke="#9a32cd" stroke-dasharray="5,2" d="M204.92,-295.03C225.12,-281.92 252.39,-260.28 264.5,-233 279.64,-198.88 232.72,-168.86 205.13,-154.68"/>
<polygon fill="#9a32cd" stroke="#9a32cd" points="202.86,-292.19 196.21,-300.44 206.55,-298.13 202.86,-292.19"/>
<text text-anchor="middle" x="272.5" y="-219.5" font-family="Helvetica,sans-Serif" font-size="10.00"> v</text>
</g>
<!-- Node6 -->
<g id="node6" class="node">
<title>Node6</title>
<g id="a_node6"><a xlink:title=" ">
<polygon fill="white" stroke="#bfbfbf" points="19,-212.5 19,-231.5 150,-231.5 150,-212.5 19,-212.5"/>
<text text-anchor="middle" x="84.5" y="-219.5" font-family="Helvetica,sans-Serif" font-size="10.00">std::vector&lt; Visitor * &gt;</text>
</a>
</g>
</g>
<!-- Node3&#45;&gt;Node6 -->
<g id="edge8" class="edge">
<title>Node3&#45;&gt;Node6</title>
<path fill="none" stroke="#9a32cd" stroke-dasharray="5,2" d="M147.16,-296.91C138.88,-292.95 130.41,-288 123.5,-282 106.8,-267.52 94.31,-244.23 88.36,-231.68"/>
<polygon fill="#9a32cd" stroke="#9a32cd" points="145.77,-300.12 156.33,-300.96 148.6,-293.72 145.77,-300.12"/>
<text text-anchor="middle" x="148" y="-264" font-family="Helvetica,sans-Serif" font-size="10.00"> elements</text>
</g>
<!-- Node4 -->
<g id="node4" class="node">
<title>Node4</title>
<g id="a_node4"><a xlink:href="classcstring.html" target="_top" xlink:title=" ">
<polygon fill="white" stroke="black" points="304.5,-379.5 304.5,-398.5 354.5,-398.5 354.5,-379.5 304.5,-379.5"/>
<text text-anchor="middle" x="329.5" y="-386.5" font-family="Helvetica,sans-Serif" font-size="10.00">cstring</text>
</a>
</g>
</g>
<!-- Node4&#45;&gt;Node3 -->
<g id="edge3" class="edge">
<title>Node4&#45;&gt;Node3</title>
<path fill="none" stroke="#9a32cd" stroke-dasharray="5,2" d="M294.87,-375.82C283.12,-371.3 270.05,-365.84 258.5,-360 234.1,-347.66 207.49,-329.94 192.52,-319.54"/>
<polygon fill="#9a32cd" stroke="#9a32cd" points="293.77,-379.15 304.36,-379.38 296.23,-372.59 293.77,-379.15"/>
<text text-anchor="middle" x="293.5" y="-346.5" font-family="Helvetica,sans-Serif" font-size="10.00"> internalName</text>
</g>
<!-- Node4&#45;&gt;Node4 -->
<g id="edge4" class="edge">
<title>Node4&#45;&gt;Node4</title>
<path fill="none" stroke="#9a32cd" stroke-dasharray="5,2" d="M364.95,-393.6C369.5,-392.8 372.5,-391.27 372.5,-389 372.5,-385.28 364.41,-383.54 354.68,-383.77"/>
<polygon fill="#9a32cd" stroke="#9a32cd" points="364.44,-390.12 354.68,-394.23 364.87,-397.11 364.44,-390.12"/>
<text text-anchor="middle" x="392" y="-392" font-family="Helvetica,sans-Serif" font-size="10.00"> empty</text>
<text text-anchor="middle" x="392" y="-381" font-family="Helvetica,sans-Serif" font-size="10.00">newline</text>
</g>
<!-- Node15 -->
<g id="node15" class="node">
<title>Node15</title>
<g id="a_node15"><a xlink:href="class_util_1_1_source_info.html" target="_top" xlink:title=" ">
<polygon fill="white" stroke="black" points="290.5,-300.5 290.5,-319.5 382.5,-319.5 382.5,-300.5 290.5,-300.5"/>
<text text-anchor="middle" x="336.5" y="-307.5" font-family="Helvetica,sans-Serif" font-size="10.00">Util::SourceInfo</text>
</a>
</g>
</g>
<!-- Node4&#45;&gt;Node15 -->
<g id="edge20" class="edge">
<title>Node4&#45;&gt;Node15</title>
<path fill="none" stroke="#9a32cd" stroke-dasharray="5,2" d="M331.2,-369.31C332.63,-353.59 334.61,-331.81 335.7,-319.81"/>
<polygon fill="#9a32cd" stroke="#9a32cd" points="327.7,-369.19 330.28,-379.47 334.67,-369.82 327.7,-369.19"/>
<text text-anchor="middle" x="357.5" y="-352" font-family="Helvetica,sans-Serif" font-size="10.00"> filename</text>
<text text-anchor="middle" x="357.5" y="-341" font-family="Helvetica,sans-Serif" font-size="10.00">srcBrief</text>
</g>
<!-- Node16 -->
<g id="node16" class="node">
<title>Node16</title>
<g id="a_node16"><a xlink:title=" ">
<polygon fill="white" stroke="#bfbfbf" points="404,-251.5 404,-281.5 511,-281.5 511,-251.5 404,-251.5"/>
<text text-anchor="start" x="412" y="-269.5" font-family="Helvetica,sans-Serif" font-size="10.00">std::map&lt; cstring,</text>
<text text-anchor="middle" x="457.5" y="-258.5" font-family="Helvetica,sans-Serif" font-size="10.00"> const IR::Type * &gt;</text>
</a>
</g>
</g>
<!-- Node4&#45;&gt;Node16 -->
<g id="edge22" class="edge">
<title>Node4&#45;&gt;Node16</title>
<path fill="none" stroke="#9a32cd" stroke-dasharray="5,2" d="M360.49,-375.15C368.74,-370.97 377.34,-365.87 384.5,-360 412.66,-336.91 436.95,-301.21 449.14,-281.6"/>
<polygon fill="#9a32cd" stroke="#9a32cd" points="358.95,-372.01 351.42,-379.47 361.96,-378.33 358.95,-372.01"/>
<text text-anchor="middle" x="419.5" y="-346.5" font-family="Helvetica,sans-Serif" font-size="10.00"> keys</text>
</g>
<!-- Node5&#45;&gt;Node3 -->
<g id="edge5" class="edge">
<title>Node5&#45;&gt;Node3</title>
<path fill="none" stroke="#9a32cd" stroke-dasharray="5,2" d="M185.79,-165.19C184.49,-200.58 181.76,-274.81 180.82,-300.24"/>
<polygon fill="#9a32cd" stroke="#9a32cd" points="189.31,-164.93 186.18,-154.81 182.31,-164.67 189.31,-164.93"/>
<text text-anchor="middle" x="222.5" y="-225" font-family="Helvetica,sans-Serif" font-size="10.00"> split_link</text>
<text text-anchor="middle" x="222.5" y="-214" font-family="Helvetica,sans-Serif" font-size="10.00">split_link_mem</text>
</g>
<!-- Node5&#45;&gt;Node5 -->
<g id="edge6" class="edge">
<title>Node5&#45;&gt;Node5</title>
<path fill="none" stroke="#9a32cd" stroke-dasharray="5,2" d="M252.9,-148.85C257.62,-147.97 260.5,-146.69 260.5,-145 260.5,-142.29 253.12,-140.63 242.65,-140.02"/>
<polygon fill="#9a32cd" stroke="#9a32cd" points="252.2,-145.4 242.65,-149.98 252.97,-152.36 252.2,-145.4"/>
<text text-anchor="middle" x="273" y="-142.5" font-family="Helvetica,sans-Serif" font-size="10.00"> prev</text>
</g>
<!-- Node6&#45;&gt;Node5 -->
<g id="edge7" class="edge">
<title>Node6&#45;&gt;Node5</title>
<path fill="none" stroke="#9a32cd" stroke-dasharray="5,2" d="M98.33,-204.71C107.36,-194.73 119.8,-182.15 132.5,-173 142.7,-165.65 155.21,-159.25 165.61,-154.54"/>
<polygon fill="#9a32cd" stroke="#9a32cd" points="95.58,-202.53 91.61,-212.35 100.84,-207.15 95.58,-202.53"/>
<text text-anchor="middle" x="152.5" y="-180.5" font-family="Helvetica,sans-Serif" font-size="10.00"> visitors</text>
</g>
<!-- Node7 -->
<g id="node7" class="node">
<title>Node7</title>
<g id="a_node7"><a xlink:href="class_i_r_1_1_vector.html" target="_top" xlink:title=" ">
<polygon fill="white" stroke="black" points="260,-78.5 260,-97.5 387,-97.5 387,-78.5 260,-78.5"/>
<text text-anchor="middle" x="323.5" y="-85.5" font-family="Helvetica,sans-Serif" font-size="10.00">IR::Vector&lt; IR::Node &gt;</text>
</a>
</g>
</g>
<!-- Node7&#45;&gt;Node1 -->
<g id="edge11" class="edge">
<title>Node7&#45;&gt;Node1</title>
<path fill="none" stroke="#9a32cd" stroke-dasharray="5,2" d="M318.04,-68.23C317.42,-65.49 316.87,-62.69 316.5,-60 315.15,-50.27 314.91,-39.21 315,-30.67"/>
<polygon fill="#9a32cd" stroke="#9a32cd" points="314.71,-69.32 320.64,-78.1 321.48,-67.54 314.71,-69.32"/>
<text text-anchor="middle" x="380" y="-52" font-family="Helvetica,sans-Serif" font-size="10.00"> type_tobe_moved_at_top</text>
</g>
<!-- Node8 -->
<g id="node8" class="node">
<title>Node8</title>
<g id="a_node8"><a xlink:href="class_i_r_1_1_vector_base.html" target="_top" xlink:title=" ">
<polygon fill="white" stroke="black" points="306,-135.5 306,-154.5 393,-154.5 393,-135.5 306,-135.5"/>
<text text-anchor="middle" x="349.5" y="-142.5" font-family="Helvetica,sans-Serif" font-size="10.00">IR::VectorBase</text>
</a>
</g>
</g>
<!-- Node8&#45;&gt;Node7 -->
<g id="edge12" class="edge">
<title>Node8&#45;&gt;Node7</title>
<path fill="none" stroke="midnightblue" d="M341.15,-126.33C336.63,-116.77 331.24,-105.38 327.62,-97.71"/>
<polygon fill="midnightblue" stroke="midnightblue" points="338,-127.86 345.44,-135.41 344.33,-124.87 338,-127.86"/>
</g>
<!-- Node9 -->
<g id="node9" class="node">
<title>Node9</title>
<g id="a_node9"><a xlink:href="class_i_r_1_1_node.html" target="_top" xlink:title=" ">
<polygon fill="white" stroke="black" points="326.5,-212.5 326.5,-231.5 384.5,-231.5 384.5,-212.5 326.5,-212.5"/>
<text text-anchor="middle" x="355.5" y="-219.5" font-family="Helvetica,sans-Serif" font-size="10.00">IR::Node</text>
</a>
</g>
</g>
<!-- Node9&#45;&gt;Node8 -->
<g id="edge13" class="edge">
<title>Node9&#45;&gt;Node8</title>
<path fill="none" stroke="midnightblue" d="M353.98,-202.02C352.76,-186.74 351.1,-165.98 350.18,-154.5"/>
<polygon fill="midnightblue" stroke="midnightblue" points="350.53,-202.71 354.81,-212.4 357.5,-202.15 350.53,-202.71"/>
</g>
<!-- Node10 -->
<g id="node10" class="node">
<title>Node10</title>
<g id="a_node10"><a xlink:href="class_i_r_1_1_i_node.html" target="_top" xlink:title=" ">
<polygon fill="white" stroke="black" points="483,-300.5 483,-319.5 544,-319.5 544,-300.5 483,-300.5"/>
<text text-anchor="middle" x="513.5" y="-307.5" font-family="Helvetica,sans-Serif" font-size="10.00">IR::INode</text>
</a>
</g>
</g>
<!-- Node10&#45;&gt;Node9 -->
<g id="edge14" class="edge">
<title>Node10&#45;&gt;Node9</title>
<path fill="none" stroke="midnightblue" d="M472.56,-305.52C450.42,-302.11 423.42,-295.36 402.5,-282 392.13,-275.37 371.64,-246.66 361.49,-231.87"/>
<polygon fill="midnightblue" stroke="midnightblue" points="472.28,-309.02 482.66,-306.9 473.23,-302.08 472.28,-309.02"/>
</g>
<!-- Node11 -->
<g id="node11" class="node">
<title>Node11</title>
<g id="a_node11"><a xlink:href="class_util_1_1_i_has_source_info.html" target="_top" xlink:title=" ">
<polygon fill="white" stroke="black" points="602,-379.5 602,-398.5 715,-398.5 715,-379.5 602,-379.5"/>
<text text-anchor="middle" x="658.5" y="-386.5" font-family="Helvetica,sans-Serif" font-size="10.00">Util::IHasSourceInfo</text>
</a>
</g>
</g>
<!-- Node11&#45;&gt;Node10 -->
<g id="edge15" class="edge">
<title>Node11&#45;&gt;Node10</title>
<path fill="none" stroke="midnightblue" d="M633.48,-374.72C603.7,-358.9 554.84,-332.95 529.64,-319.57"/>
<polygon fill="midnightblue" stroke="midnightblue" points="631.95,-377.87 642.43,-379.47 635.24,-371.68 631.95,-377.87"/>
</g>
<!-- Node12 -->
<g id="node12" class="node">
<title>Node12</title>
<g id="a_node12"><a xlink:href="class_i_has_db_print.html" target="_top" xlink:title=" ">
<polygon fill="white" stroke="black" points="429.5,-379.5 429.5,-398.5 503.5,-398.5 503.5,-379.5 429.5,-379.5"/>
<text text-anchor="middle" x="466.5" y="-386.5" font-family="Helvetica,sans-Serif" font-size="10.00">IHasDbPrint</text>
</a>
</g>
</g>
<!-- Node12&#45;&gt;Node10 -->
<g id="edge16" class="edge">
<title>Node12&#45;&gt;Node10</title>
<path fill="none" stroke="midnightblue" d="M477.08,-370.67C486.72,-354.87 500.59,-332.16 508.12,-319.81"/>
<polygon fill="midnightblue" stroke="midnightblue" points="473.93,-369.11 471.71,-379.47 479.91,-372.75 473.93,-369.11"/>
</g>
<!-- Node13 -->
<g id="node13" class="node">
<title>Node13</title>
<g id="a_node13"><a xlink:href="class_i_castable.html" target="_top" xlink:title=" ">
<polygon fill="white" stroke="black" points="521.5,-379.5 521.5,-398.5 583.5,-398.5 583.5,-379.5 521.5,-379.5"/>
<text text-anchor="middle" x="552.5" y="-386.5" font-family="Helvetica,sans-Serif" font-size="10.00">ICastable</text>
</a>
</g>
</g>
<!-- Node13&#45;&gt;Node10 -->
<g id="edge17" class="edge">
<title>Node13&#45;&gt;Node10</title>
<path fill="none" stroke="midnightblue" d="M543.5,-370.22C535.5,-354.44 524.16,-332.04 517.96,-319.81"/>
<polygon fill="midnightblue" stroke="midnightblue" points="540.54,-372.13 548.18,-379.47 546.78,-368.96 540.54,-372.13"/>
</g>
<!-- Node14 -->
<g id="node14" class="node">
<title>Node14</title>
<g id="a_node14"><a xlink:href="struct_r_t_t_i_1_1_base.html" target="_top" xlink:title=" ">
<polygon fill="white" stroke="black" points="518.5,-437.5 518.5,-456.5 586.5,-456.5 586.5,-437.5 518.5,-437.5"/>
<text text-anchor="middle" x="552.5" y="-444.5" font-family="Helvetica,sans-Serif" font-size="10.00">RTTI::Base</text>
</a>
</g>
</g>
<!-- Node14&#45;&gt;Node13 -->
<g id="edge18" class="edge">
<title>Node14&#45;&gt;Node13</title>
<path fill="none" stroke="midnightblue" d="M552.5,-426.95C552.5,-417.29 552.5,-406.03 552.5,-398.51"/>
<polygon fill="midnightblue" stroke="midnightblue" points="549,-427.25 552.5,-437.25 556,-427.25 549,-427.25"/>
</g>
<!-- Node15&#45;&gt;Node9 -->
<g id="edge19" class="edge">
<title>Node15&#45;&gt;Node9</title>
<path fill="none" stroke="#9a32cd" stroke-dasharray="5,2" d="M334.24,-289.92C333.5,-278.4 333.69,-263.58 337.5,-251 339.65,-243.92 344.15,-236.92 348.11,-231.69"/>
<polygon fill="#9a32cd" stroke="#9a32cd" points="330.77,-290.49 335.18,-300.12 337.74,-289.84 330.77,-290.49"/>
<text text-anchor="middle" x="356" y="-264" font-family="Helvetica,sans-Serif" font-size="10.00"> srcInfo</text>
</g>
<!-- Node16&#45;&gt;Node1 -->
<g id="edge21" class="edge">
<title>Node16&#45;&gt;Node1</title>
<path fill="none" stroke="#9a32cd" stroke-dasharray="5,2" d="M457.5,-241.14C457.5,-224.94 457.5,-203.2 457.5,-184 457.5,-184 457.5,-184 457.5,-87 457.5,-69 456.87,-61.05 443.5,-49 427.4,-34.5 405.75,-26.28 384.83,-21.67"/>
<polygon fill="#9a32cd" stroke="#9a32cd" points="454,-241.37 457.5,-251.37 461,-241.37 454,-241.37"/>
<text text-anchor="middle" x="495.5" y="-142.5" font-family="Helvetica,sans-Serif" font-size="10.00"> fieldNameType</text>
</g>
</g>
</svg>
        <g id="navigator" transform="translate(0 0)" fill="#404254">
                <rect fill="#f2f5e9" fill-opacity="0.5" stroke="#606060" stroke-width=".5" x="0" y="0" width="60" height="60"/>
                <use id="zoomplus" xlink:href="#zoomPlus" x="17" y="9" onmousedown="handleZoom(evt,'in')"/>
                <use id="zoomminus" xlink:href="#zoomMin" x="42" y="9" onmousedown="handleZoom(evt,'out')"/>
                <use id="reset" xlink:href="#resetDef" x="30" y="36" onmousedown="handleReset()"/>
                <g id="arrowUp" xlink:href="#dirArrow" transform="translate(30 24)" onmousedown="handlePan(0,-1)">
                  <use xlink:href="#rim" fill="#404040">
                        <set attributeName="fill" to="#808080" begin="arrowUp.mouseover" end="arrowUp.mouseout"/>
                  </use>
                  <path fill="none" stroke="white" stroke-width="1.5" d="M0,-3.0v7 M-2.5,-0.5L0,-3.0L2.5,-0.5"/>
                </g>
                <g id="arrowRight" xlink:href="#dirArrow" transform="rotate(90) translate(36 -43)" onmousedown="handlePan(1,0)">
                  <use xlink:href="#rim" fill="#404040">
                        <set attributeName="fill" to="#808080" begin="arrowRight.mouseover" end="arrowRight.mouseout"/>
                  </use>
                  <path fill="none" stroke="white" stroke-width="1.5" d="M0,-3.0v7 M-2.5,-0.5L0,-3.0L2.5,-0.5"/>
                </g>
                <g id="arrowDown" xlink:href="#dirArrow" transform="rotate(180) translate(-30 -48)" onmousedown="handlePan(0,1)">
                  <use xlink:href="#rim" fill="#404040">
                        <set attributeName="fill" to="#808080" begin="arrowDown.mouseover" end="arrowDown.mouseout"/>
                  </use>
                  <path fill="none" stroke="white" stroke-width="1.5" d="M0,-3.0v7 M-2.5,-0.5L0,-3.0L2.5,-0.5"/>
                </g>
                <g id="arrowLeft" xlink:href="#dirArrow" transform="rotate(270) translate(-36 17)" onmousedown="handlePan(-1,0)">
                  <use xlink:href="#rim" fill="#404040">
                        <set attributeName="fill" to="#808080" begin="arrowLeft.mouseover" end="arrowLeft.mouseout"/>
                  </use>
                  <path fill="none" stroke="white" stroke-width="1.5" d="M0,-3.0v7 M-2.5,-0.5L0,-3.0L2.5,-0.5"/>
                </g>
        </g>
        <svg viewBox="0 0 15 15" width="100%" height="30px" preserveAspectRatio="xMaxYMin meet">
         <g id="arrow_out" transform="scale(0.3 0.3)">
          <a xlink:href="class_d_p_d_k_1_1_collect_struct_local_variables__coll__graph_org.svg" target="_base">
           <rect id="button" ry="5" rx="5" y="6" x="6" height="38" width="38"
                fill="#f2f5e9" fill-opacity="0.5" stroke="#606060" stroke-width="1.0"/>
           <path id="arrow"
             d="M 11.500037,31.436501 C 11.940474,20.09759 22.043105,11.32322 32.158766,21.979434 L 37.068811,17.246167 C 37.068811,17.246167 37.088388,32 37.088388,32 L 22.160133,31.978069 C 22.160133,31.978069 26.997745,27.140456 26.997745,27.140456 C 18.528582,18.264221 13.291696,25.230495 11.500037,31.436501 z"
             style="fill:#404040;"/>
          </a>
         </g>
        </svg>
</svg>
