<?xml version="1.0" encoding="UTF-8" standalone="no"?>
<!DOCTYPE svg PUBLIC "-//W3C//DTD SVG 1.1//EN"
 "http://www.w3.org/Graphics/SVG/1.1/DTD/svg11.dtd">
<!-- Generated by graphviz version 2.43.0 (0)
 -->
<!-- Title: ControlFlowVisitor Pages: 1 -->
<svg width="430pt" height="233pt"
 viewBox="0.00 0.00 430.05 233.00" xmlns="http://www.w3.org/2000/svg" xmlns:xlink="http://www.w3.org/1999/xlink">
<g id="graph0" class="graph" transform="scale(1 1) rotate(0) translate(4 229)">
<title>ControlFlowVisitor</title>
<polygon fill="white" stroke="transparent" points="-4,4 -4,-229 426.05,-229 426.05,4 -4,4"/>
<!-- Node1 -->
<g id="node1" class="node">
<title>Node1</title>
<g id="a_node1"><a xlink:title=" ">
<polygon fill="#bfbfbf" stroke="black" points="286.55,-68.5 286.55,-87.5 393.55,-87.5 393.55,-68.5 286.55,-68.5"/>
<text text-anchor="middle" x="340.05" y="-75.5" font-family="Helvetica,sans-Serif" font-size="10.00">ControlFlowVisitor</text>
</a>
</g>
</g>
<!-- Node2 -->
<g id="node2" class="node">
<title>Node2</title>
<g id="a_node2"><a xlink:href="class_visitor.html" target="_top" xlink:title=" ">
<polygon fill="white" stroke="black" points="128.05,-136.5 128.05,-155.5 176.05,-155.5 176.05,-136.5 128.05,-136.5"/>
<text text-anchor="middle" x="152.05" y="-143.5" font-family="Helvetica,sans-Serif" font-size="10.00">Visitor</text>
</a>
</g>
</g>
<!-- Node2&#45;&gt;Node1 -->
<g id="edge1" class="edge">
<title>Node2&#45;&gt;Node1</title>
<path fill="none" stroke="midnightblue" d="M185.7,-133.19C223.07,-120.07 282.5,-99.2 315.65,-87.57"/>
<polygon fill="midnightblue" stroke="midnightblue" points="184.52,-129.89 176.24,-136.51 186.84,-136.5 184.52,-129.89"/>
</g>
<!-- Node2&#45;&gt;Node2 -->
<g id="edge9" class="edge">
<title>Node2&#45;&gt;Node2</title>
<path fill="none" stroke="#9a32cd" stroke-dasharray="5,2" d="M186.47,-151.29C191.03,-150.39 194.05,-148.63 194.05,-146 194.05,-141.69 185.91,-139.7 176.22,-140.04"/>
<polygon fill="#9a32cd" stroke="#9a32cd" points="185.97,-147.82 176.22,-151.96 186.42,-154.8 185.97,-147.82"/>
<text text-anchor="middle" x="219.05" y="-143.5" font-family="Helvetica,sans-Serif" font-size="10.00"> called_by</text>
</g>
<!-- Node4 -->
<g id="node4" class="node">
<title>Node4</title>
<g id="a_node4"><a xlink:href="class_split_flow_visit__base.html" target="_top" xlink:title=" ">
<polygon fill="white" stroke="black" points="34.05,-0.5 34.05,-19.5 146.05,-19.5 146.05,-0.5 34.05,-0.5"/>
<text text-anchor="middle" x="90.05" y="-7.5" font-family="Helvetica,sans-Serif" font-size="10.00">SplitFlowVisit_base</text>
</a>
</g>
</g>
<!-- Node2&#45;&gt;Node4 -->
<g id="edge8" class="edge">
<title>Node2&#45;&gt;Node4</title>
<path fill="none" stroke="#9a32cd" stroke-dasharray="5,2" d="M117.73,-142.68C82.78,-138.28 30.26,-125.58 5.05,-89 -15.47,-59.23 35.2,-32.67 66.88,-19.58"/>
<polygon fill="#9a32cd" stroke="#9a32cd" points="117.64,-146.19 127.97,-143.8 118.4,-139.24 117.64,-146.19"/>
<text text-anchor="middle" x="10.05" y="-75.5" font-family="Helvetica,sans-Serif" font-size="10.00"> v</text>
</g>
<!-- Node5 -->
<g id="node5" class="node">
<title>Node5</title>
<g id="a_node5"><a xlink:title=" ">
<polygon fill="white" stroke="#bfbfbf" points="24.55,-68.5 24.55,-87.5 155.55,-87.5 155.55,-68.5 24.55,-68.5"/>
<text text-anchor="middle" x="90.05" y="-75.5" font-family="Helvetica,sans-Serif" font-size="10.00">std::vector&lt; Visitor * &gt;</text>
</a>
</g>
</g>
<!-- Node2&#45;&gt;Node5 -->
<g id="edge7" class="edge">
<title>Node2&#45;&gt;Node5</title>
<path fill="none" stroke="#9a32cd" stroke-dasharray="5,2" d="M137.06,-129.05C124.91,-116.11 108.23,-98.36 98.35,-87.84"/>
<polygon fill="#9a32cd" stroke="#9a32cd" points="134.54,-131.48 143.94,-136.37 139.65,-126.69 134.54,-131.48"/>
<text text-anchor="middle" x="151.55" y="-110" font-family="Helvetica,sans-Serif" font-size="10.00"> elements</text>
</g>
<!-- Node3 -->
<g id="node3" class="node">
<title>Node3</title>
<g id="a_node3"><a xlink:href="classcstring.html" target="_top" xlink:title=" ">
<polygon fill="white" stroke="black" points="127.05,-204.5 127.05,-223.5 177.05,-223.5 177.05,-204.5 127.05,-204.5"/>
<text text-anchor="middle" x="152.05" y="-211.5" font-family="Helvetica,sans-Serif" font-size="10.00">cstring</text>
</a>
</g>
</g>
<!-- Node3&#45;&gt;Node2 -->
<g id="edge2" class="edge">
<title>Node3&#45;&gt;Node2</title>
<path fill="none" stroke="#9a32cd" stroke-dasharray="5,2" d="M152.05,-194.04C152.05,-181.47 152.05,-165.56 152.05,-155.84"/>
<polygon fill="#9a32cd" stroke="#9a32cd" points="148.55,-194.37 152.05,-204.37 155.55,-194.37 148.55,-194.37"/>
<text text-anchor="middle" x="187.05" y="-177" font-family="Helvetica,sans-Serif" font-size="10.00"> internalName</text>
</g>
<!-- Node3&#45;&gt;Node3 -->
<g id="edge3" class="edge">
<title>Node3&#45;&gt;Node3</title>
<path fill="none" stroke="#9a32cd" stroke-dasharray="5,2" d="M187.49,-219.58C192.04,-218.61 195.05,-216.75 195.05,-214 195.05,-209.48 186.96,-207.37 177.22,-207.65"/>
<polygon fill="#9a32cd" stroke="#9a32cd" points="186.94,-216.11 177.22,-220.35 187.46,-223.1 186.94,-216.11"/>
<text text-anchor="middle" x="214.55" y="-217" font-family="Helvetica,sans-Serif" font-size="10.00"> empty</text>
<text text-anchor="middle" x="214.55" y="-206" font-family="Helvetica,sans-Serif" font-size="10.00">newline</text>
</g>
<!-- Node4&#45;&gt;Node2 -->
<g id="edge4" class="edge">
<title>Node4&#45;&gt;Node2</title>
<path fill="none" stroke="#9a32cd" stroke-dasharray="5,2" d="M116.61,-24.7C132.75,-34.38 152.43,-48.85 164.05,-67 169.2,-75.05 184.65,-101.63 178.05,-118 175.13,-125.24 169.23,-131.63 163.79,-136.37"/>
<polygon fill="#9a32cd" stroke="#9a32cd" points="118.02,-21.47 107.6,-19.56 114.55,-27.56 118.02,-21.47"/>
<text text-anchor="middle" x="214.05" y="-81" font-family="Helvetica,sans-Serif" font-size="10.00"> split_link</text>
<text text-anchor="middle" x="214.05" y="-70" font-family="Helvetica,sans-Serif" font-size="10.00">split_link_mem</text>
</g>
<!-- Node4&#45;&gt;Node4 -->
<g id="edge5" class="edge">
<title>Node4&#45;&gt;Node4</title>
<path fill="none" stroke="#9a32cd" stroke-dasharray="5,2" d="M156.45,-14.4C161.17,-13.4 164.05,-11.93 164.05,-10 164.05,-6.91 156.67,-5.01 146.19,-4.31"/>
<polygon fill="#9a32cd" stroke="#9a32cd" points="155.68,-10.97 146.19,-15.69 156.55,-17.91 155.68,-10.97"/>
<text text-anchor="middle" x="176.55" y="-7.5" font-family="Helvetica,sans-Serif" font-size="10.00"> prev</text>
</g>
<!-- Node5&#45;&gt;Node4 -->
<g id="edge6" class="edge">
<title>Node5&#45;&gt;Node4</title>
<path fill="none" stroke="#9a32cd" stroke-dasharray="5,2" d="M90.05,-58.04C90.05,-45.47 90.05,-29.56 90.05,-19.84"/>
<polygon fill="#9a32cd" stroke="#9a32cd" points="86.55,-58.37 90.05,-68.37 93.55,-58.37 86.55,-58.37"/>
<text text-anchor="middle" x="110.05" y="-41" font-family="Helvetica,sans-Serif" font-size="10.00"> visitors</text>
</g>
<!-- Node6 -->
<g id="node6" class="node">
<title>Node6</title>
<g id="a_node6"><a xlink:title=" ">
<polygon fill="white" stroke="#bfbfbf" points="289.55,-136.5 289.55,-155.5 390.55,-155.5 390.55,-136.5 289.55,-136.5"/>
<text text-anchor="middle" x="340.05" y="-143.5" font-family="Helvetica,sans-Serif" font-size="10.00">std::map&lt; K, T &gt;</text>
</a>
</g>
</g>
<!-- Node6&#45;&gt;Node1 -->
<g id="edge10" class="edge">
<title>Node6&#45;&gt;Node1</title>
<path fill="none" stroke="#9a32cd" stroke-dasharray="5,2" d="M340.05,-126.04C340.05,-113.47 340.05,-97.56 340.05,-87.84"/>
<polygon fill="#9a32cd" stroke="#9a32cd" points="336.55,-126.37 340.05,-136.37 343.55,-126.37 336.55,-126.37"/>
<text text-anchor="middle" x="381.05" y="-110" font-family="Helvetica,sans-Serif" font-size="10.00"> flow_join_points</text>
</g>
<!-- Node7 -->
<g id="node7" class="node">
<title>Node7</title>
<g id="a_node7"><a xlink:title=" ">
<polygon fill="white" stroke="#bfbfbf" points="300.55,-204.5 300.55,-223.5 329.55,-223.5 329.55,-204.5 300.55,-204.5"/>
<text text-anchor="middle" x="315.05" y="-211.5" font-family="Helvetica,sans-Serif" font-size="10.00">K</text>
</a>
</g>
</g>
<!-- Node7&#45;&gt;Node6 -->
<g id="edge11" class="edge">
<title>Node7&#45;&gt;Node6</title>
<path fill="none" stroke="#9a32cd" stroke-dasharray="5,2" d="M315.52,-194.25C316.18,-187.66 317.5,-180.33 320.05,-174 322.75,-167.29 327.52,-160.74 331.73,-155.78"/>
<polygon fill="#9a32cd" stroke="#9a32cd" points="312.02,-194.13 314.92,-204.32 319.01,-194.54 312.02,-194.13"/>
<text text-anchor="middle" x="333.05" y="-177" font-family="Helvetica,sans-Serif" font-size="10.00"> keys</text>
</g>
<!-- Node8 -->
<g id="node8" class="node">
<title>Node8</title>
<g id="a_node8"><a xlink:title=" ">
<polygon fill="white" stroke="#bfbfbf" points="349.55,-204.5 349.55,-223.5 378.55,-223.5 378.55,-204.5 349.55,-204.5"/>
<text text-anchor="middle" x="364.05" y="-211.5" font-family="Helvetica,sans-Serif" font-size="10.00">T</text>
</a>
</g>
</g>
<!-- Node8&#45;&gt;Node6 -->
<g id="edge12" class="edge">
<title>Node8&#45;&gt;Node6</title>
<path fill="none" stroke="#9a32cd" stroke-dasharray="5,2" d="M357.43,-194.81C352.82,-182.12 346.87,-165.76 343.26,-155.84"/>
<polygon fill="#9a32cd" stroke="#9a32cd" points="354.2,-196.17 360.91,-204.37 360.78,-193.78 354.2,-196.17"/>
<text text-anchor="middle" x="378.55" y="-177" font-family="Helvetica,sans-Serif" font-size="10.00"> elements</text>
</g>
</g>
</svg>
