<?xml version="1.0" encoding="UTF-8" standalone="no"?>
<!DOCTYPE svg PUBLIC "-//W3C//DTD SVG 1.1//EN"
 "http://www.w3.org/Graphics/SVG/1.1/DTD/svg11.dtd">
<!-- Generated by graphviz version 2.43.0 (0)
 -->
<!-- Title: EBPF::EBPFTableBase Pages: 1 -->
<!--zoomable 180 -->
<svg id="main" version="1.1" xmlns="http://www.w3.org/2000/svg" xmlns:xlink="http://www.w3.org/1999/xlink" xml:space="preserve" onload="init(evt)">
<style type="text/css"><![CDATA[
.edge:hover path { stroke: red; }
.edge:hover polygon { stroke: red; fill: red; }
]]></style>
<script type="text/javascript"><![CDATA[
var edges = document.getElementsByTagName('g');
if (edges && edges.length) {
  for (var i=0;i<edges.length;i++) {
    if (edges[i].id.substr(0,4)=='edge') {
      edges[i].setAttribute('class','edge');
    }
  }
}
]]></script>
        <defs>
                <circle id="rim" cx="0" cy="0" r="7"/>
                <circle id="rim2" cx="0" cy="0" r="3.5"/>
                <g id="zoomPlus">
                        <use xlink:href="#rim" fill="#404040">
                                <set attributeName="fill" to="#808080" begin="zoomplus.mouseover" end="zoomplus.mouseout"/>
                        </use>
                        <path d="M-4,0h8M0,-4v8" fill="none" stroke="white" stroke-width="1.5" pointer-events="none"/>
                </g>
                <g id="zoomMin">
                        <use xlink:href="#rim" fill="#404040">
                                <set attributeName="fill" to="#808080" begin="zoomminus.mouseover" end="zoomminus.mouseout"/>
                        </use>
                        <path d="M-4,0h8" fill="none" stroke="white" stroke-width="1.5" pointer-events="none"/>
                </g>
                <g id="dirArrow">
                        <path fill="none" stroke="white" stroke-width="1.5" d="M0,-3.0v7 M-2.5,-0.5L0,-3.0L2.5,-0.5"/>
                </g>
               <g id="resetDef">
                       <use xlink:href="#rim2" fill="#404040">
                               <set attributeName="fill" to="#808080" begin="reset.mouseover" end="reset.mouseout"/>
                       </use>
               </g>
        </defs>

<script type="text/javascript">
var viewWidth = 1231;
var viewHeight = 180;
var sectionId = 'dynsection-0';
</script>
<script xlink:href="svgpan.js"/>
<svg id="graph" class="graph">
<g id="viewport">
<title>EBPF::EBPFTableBase</title>
<!-- Node1 -->
<g id="node1" class="node">
<title>Node1</title>
<g id="a_node1"><a xlink:title=" ">
<polygon fill="#bfbfbf" stroke="black" points="341,-76.5 341,-95.5 461,-95.5 461,-76.5 341,-76.5"/>
<text text-anchor="middle" x="401" y="-83.5" font-family="Helvetica,sans-Serif" font-size="10.00">EBPF::EBPFTableBase</text>
</a>
</g>
</g>
<!-- Node5 -->
<g id="node5" class="node">
<title>Node5</title>
<g id="a_node5"><a xlink:href="class_e_b_p_f_1_1_e_b_p_f_counter_table.html" target="_top" xlink:title=" ">
<polygon fill="none" stroke="black" points="497,-152.5 497,-171.5 632,-171.5 632,-152.5 497,-152.5"/>
<text text-anchor="middle" x="564.5" y="-159.5" font-family="Helvetica,sans-Serif" font-size="10.00">EBPF::EBPFCounterTable</text>
</a>
</g>
</g>
<!-- Node1&#45;&gt;Node5 -->
<g id="edge4" class="edge">
<title>Node1&#45;&gt;Node5</title>
<path fill="none" stroke="midnightblue" d="M423.94,-101.44C442.64,-114.03 470.62,-131.55 497,-143 505.37,-146.63 514.63,-149.78 523.52,-152.42"/>
<polygon fill="midnightblue" stroke="midnightblue" points="425.78,-98.45 415.55,-95.7 421.82,-104.23 425.78,-98.45"/>
</g>
<!-- Node7 -->
<g id="node7" class="node">
<title>Node7</title>
<g id="a_node7"><a xlink:href="class_e_b_p_f_1_1_e_b_p_f_meter_p_s_a.html" target="_top" xlink:title=" ">
<polygon fill="none" stroke="black" points="505,-114.5 505,-133.5 624,-133.5 624,-114.5 505,-114.5"/>
<text text-anchor="middle" x="564.5" y="-121.5" font-family="Helvetica,sans-Serif" font-size="10.00">EBPF::EBPFMeterPSA</text>
</a>
</g>
</g>
<!-- Node1&#45;&gt;Node7 -->
<g id="edge6" class="edge">
<title>Node1&#45;&gt;Node7</title>
<path fill="none" stroke="midnightblue" d="M452.56,-97.9C475.26,-103.24 501.68,-109.45 523.04,-114.48"/>
<polygon fill="midnightblue" stroke="midnightblue" points="453.29,-94.47 442.75,-95.59 451.69,-101.29 453.29,-94.47"/>
</g>
<!-- Node8 -->
<g id="node8" class="node">
<title>Node8</title>
<g id="a_node8"><a xlink:href="class_e_b_p_f_1_1_e_b_p_f_register_p_s_a.html" target="_top" xlink:title=" ">
<polygon fill="none" stroke="black" points="499,-76.5 499,-95.5 630,-95.5 630,-76.5 499,-76.5"/>
<text text-anchor="middle" x="564.5" y="-83.5" font-family="Helvetica,sans-Serif" font-size="10.00">EBPF::EBPFRegisterPSA</text>
</a>
</g>
</g>
<!-- Node1&#45;&gt;Node8 -->
<g id="edge7" class="edge">
<title>Node1&#45;&gt;Node8</title>
<path fill="none" stroke="midnightblue" d="M471.4,-86C480.51,-86 489.82,-86 498.84,-86"/>
<polygon fill="midnightblue" stroke="midnightblue" points="471.22,-82.5 461.22,-86 471.22,-89.5 471.22,-82.5"/>
</g>
<!-- Node9 -->
<g id="node9" class="node">
<title>Node9</title>
<g id="a_node9"><a xlink:href="class_e_b_p_f_1_1_e_b_p_f_table.html" target="_top" xlink:title=" ">
<polygon fill="none" stroke="black" points="516.5,-38.5 516.5,-57.5 612.5,-57.5 612.5,-38.5 516.5,-38.5"/>
<text text-anchor="middle" x="564.5" y="-45.5" font-family="Helvetica,sans-Serif" font-size="10.00">EBPF::EBPFTable</text>
</a>
</g>
</g>
<!-- Node1&#45;&gt;Node9 -->
<g id="edge8" class="edge">
<title>Node1&#45;&gt;Node9</title>
<path fill="none" stroke="midnightblue" d="M452.56,-74.1C475.26,-68.76 501.68,-62.55 523.04,-57.52"/>
<polygon fill="midnightblue" stroke="midnightblue" points="451.69,-70.71 442.75,-76.41 453.29,-77.53 451.69,-70.71"/>
</g>
<!-- Node15 -->
<g id="node15" class="node">
<title>Node15</title>
<g id="a_node15"><a xlink:href="class_e_b_p_f_1_1_e_b_p_f_value_set.html" target="_top" xlink:title=" ">
<polygon fill="none" stroke="black" points="507.5,-0.5 507.5,-19.5 621.5,-19.5 621.5,-0.5 507.5,-0.5"/>
<text text-anchor="middle" x="564.5" y="-7.5" font-family="Helvetica,sans-Serif" font-size="10.00">EBPF::EBPFValueSet</text>
</a>
</g>
</g>
<!-- Node1&#45;&gt;Node15 -->
<g id="edge14" class="edge">
<title>Node1&#45;&gt;Node15</title>
<path fill="none" stroke="midnightblue" d="M423.94,-70.56C442.64,-57.97 470.62,-40.45 497,-29 505.37,-25.37 514.63,-22.22 523.52,-19.58"/>
<polygon fill="midnightblue" stroke="midnightblue" points="421.82,-67.77 415.55,-76.3 425.78,-73.55 421.82,-67.77"/>
</g>
<!-- Node2 -->
<g id="node2" class="node">
<title>Node2</title>
<g id="a_node2"><a xlink:href="class_e_b_p_f_1_1_e_b_p_f_object.html" target="_top" xlink:title=" ">
<polygon fill="none" stroke="black" points="202,-76.5 202,-95.5 305,-95.5 305,-76.5 202,-76.5"/>
<text text-anchor="middle" x="253.5" y="-83.5" font-family="Helvetica,sans-Serif" font-size="10.00">EBPF::EBPFObject</text>
</a>
</g>
</g>
<!-- Node2&#45;&gt;Node1 -->
<g id="edge1" class="edge">
<title>Node2&#45;&gt;Node1</title>
<path fill="none" stroke="midnightblue" d="M315.51,-86C323.92,-86 332.54,-86 340.91,-86"/>
<polygon fill="midnightblue" stroke="midnightblue" points="315.39,-82.5 305.39,-86 315.39,-89.5 315.39,-82.5"/>
</g>
<!-- Node3 -->
<g id="node3" class="node">
<title>Node3</title>
<g id="a_node3"><a xlink:href="class_i_castable.html" target="_top" xlink:title=" ">
<polygon fill="none" stroke="black" points="104,-76.5 104,-95.5 166,-95.5 166,-76.5 104,-76.5"/>
<text text-anchor="middle" x="135" y="-83.5" font-family="Helvetica,sans-Serif" font-size="10.00">ICastable</text>
</a>
</g>
</g>
<!-- Node3&#45;&gt;Node2 -->
<g id="edge2" class="edge">
<title>Node3&#45;&gt;Node2</title>
<path fill="none" stroke="midnightblue" d="M176.13,-86C184.41,-86 193.22,-86 201.81,-86"/>
<polygon fill="midnightblue" stroke="midnightblue" points="176,-82.5 166,-86 176,-89.5 176,-82.5"/>
</g>
<!-- Node4 -->
<g id="node4" class="node">
<title>Node4</title>
<g id="a_node4"><a xlink:href="struct_r_t_t_i_1_1_base.html" target="_top" xlink:title=" ">
<polygon fill="none" stroke="black" points="0,-76.5 0,-95.5 68,-95.5 68,-76.5 0,-76.5"/>
<text text-anchor="middle" x="34" y="-83.5" font-family="Helvetica,sans-Serif" font-size="10.00">RTTI::Base</text>
</a>
</g>
</g>
<!-- Node4&#45;&gt;Node3 -->
<g id="edge3" class="edge">
<title>Node4&#45;&gt;Node3</title>
<path fill="none" stroke="midnightblue" d="M78.44,-86C86.95,-86 95.71,-86 103.68,-86"/>
<polygon fill="midnightblue" stroke="midnightblue" points="78.24,-82.5 68.24,-86 78.24,-89.5 78.24,-82.5"/>
</g>
<!-- Node6 -->
<g id="node6" class="node">
<title>Node6</title>
<g id="a_node6"><a xlink:href="class_e_b_p_f_1_1_e_b_p_f_counter_p_s_a.html" target="_top" xlink:title=" ">
<polygon fill="none" stroke="black" points="668,-152.5 668,-171.5 797,-171.5 797,-152.5 668,-152.5"/>
<text text-anchor="middle" x="732.5" y="-159.5" font-family="Helvetica,sans-Serif" font-size="10.00">EBPF::EBPFCounterPSA</text>
</a>
</g>
</g>
<!-- Node5&#45;&gt;Node6 -->
<g id="edge5" class="edge">
<title>Node5&#45;&gt;Node6</title>
<path fill="none" stroke="midnightblue" d="M642.12,-162C650.74,-162 659.46,-162 667.89,-162"/>
<polygon fill="midnightblue" stroke="midnightblue" points="642.06,-158.5 632.06,-162 642.06,-165.5 642.06,-158.5"/>
</g>
<!-- Node10 -->
<g id="node10" class="node">
<title>Node10</title>
<g id="a_node10"><a xlink:href="class_e_b_p_f_1_1_e_b_p_f_table_p_s_a.html" target="_top" xlink:title=" ">
<polygon fill="none" stroke="black" points="674.5,-38.5 674.5,-57.5 790.5,-57.5 790.5,-38.5 674.5,-38.5"/>
<text text-anchor="middle" x="732.5" y="-45.5" font-family="Helvetica,sans-Serif" font-size="10.00">EBPF::EBPFTablePSA</text>
</a>
</g>
</g>
<!-- Node9&#45;&gt;Node10 -->
<g id="edge9" class="edge">
<title>Node9&#45;&gt;Node10</title>
<path fill="none" stroke="midnightblue" d="M622.76,-48C639.41,-48 657.58,-48 674.23,-48"/>
<polygon fill="midnightblue" stroke="midnightblue" points="622.62,-44.5 612.62,-48 622.62,-51.5 622.62,-44.5"/>
</g>
<!-- Node11 -->
<g id="node11" class="node">
<title>Node11</title>
<g id="a_node11"><a xlink:href="class_e_b_p_f_1_1_e_b_p_f_table_implementation_p_s_a.html" target="_top" xlink:title=" ">
<polygon fill="none" stroke="black" points="833,-57.5 833,-76.5 1027,-76.5 1027,-57.5 833,-57.5"/>
<text text-anchor="middle" x="930" y="-64.5" font-family="Helvetica,sans-Serif" font-size="10.00">EBPF::EBPFTableImplementationPSA</text>
</a>
</g>
</g>
<!-- Node10&#45;&gt;Node11 -->
<g id="edge10" class="edge">
<title>Node10&#45;&gt;Node11</title>
<path fill="none" stroke="midnightblue" d="M800.76,-54.54C811.13,-55.54 822.01,-56.6 832.87,-57.66"/>
<polygon fill="midnightblue" stroke="midnightblue" points="800.86,-51.03 790.57,-53.55 800.19,-58 800.86,-51.03"/>
</g>
<!-- Node14 -->
<g id="node14" class="node">
<title>Node14</title>
<g id="a_node14"><a xlink:href="class_t_c_1_1_e_b_p_f_table_p_n_a.html" target="_top" xlink:title=" ">
<polygon fill="none" stroke="black" points="878,-19.5 878,-38.5 982,-38.5 982,-19.5 878,-19.5"/>
<text text-anchor="middle" x="930" y="-26.5" font-family="Helvetica,sans-Serif" font-size="10.00">TC::EBPFTablePNA</text>
</a>
</g>
</g>
<!-- Node10&#45;&gt;Node14 -->
<g id="edge13" class="edge">
<title>Node10&#45;&gt;Node14</title>
<path fill="none" stroke="midnightblue" d="M800.82,-41.46C826.06,-39 854.31,-36.26 877.86,-33.97"/>
<polygon fill="midnightblue" stroke="midnightblue" points="800.19,-38 790.57,-42.45 800.86,-44.97 800.19,-38"/>
</g>
<!-- Node12 -->
<g id="node12" class="node">
<title>Node12</title>
<g id="a_node12"><a xlink:href="class_e_b_p_f_1_1_e_b_p_f_action_profile_p_s_a.html" target="_top" xlink:title=" ">
<polygon fill="none" stroke="black" points="1067.5,-76.5 1067.5,-95.5 1218.5,-95.5 1218.5,-76.5 1067.5,-76.5"/>
<text text-anchor="middle" x="1143" y="-83.5" font-family="Helvetica,sans-Serif" font-size="10.00">EBPF::EBPFActionProfilePSA</text>
</a>
</g>
</g>
<!-- Node11&#45;&gt;Node12 -->
<g id="edge11" class="edge">
<title>Node11&#45;&gt;Node12</title>
<path fill="none" stroke="midnightblue" d="M1037.37,-76.58C1047.51,-77.49 1057.65,-78.4 1067.39,-79.28"/>
<polygon fill="midnightblue" stroke="midnightblue" points="1037.51,-73.08 1027.24,-75.67 1036.88,-80.05 1037.51,-73.08"/>
</g>
<!-- Node13 -->
<g id="node13" class="node">
<title>Node13</title>
<g id="a_node13"><a xlink:href="class_e_b_p_f_1_1_e_b_p_f_action_selector_p_s_a.html" target="_top" xlink:title=" ">
<polygon fill="none" stroke="black" points="1063,-38.5 1063,-57.5 1223,-57.5 1223,-38.5 1063,-38.5"/>
<text text-anchor="middle" x="1143" y="-45.5" font-family="Helvetica,sans-Serif" font-size="10.00">EBPF::EBPFActionSelectorPSA</text>
</a>
</g>
</g>
<!-- Node11&#45;&gt;Node13 -->
<g id="edge12" class="edge">
<title>Node11&#45;&gt;Node13</title>
<path fill="none" stroke="midnightblue" d="M1037.35,-57.42C1045.97,-56.65 1054.59,-55.87 1062.96,-55.12"/>
<polygon fill="midnightblue" stroke="midnightblue" points="1036.88,-53.95 1027.24,-58.33 1037.51,-60.92 1036.88,-53.95"/>
</g>
</g>
</svg>
        <g id="navigator" transform="translate(0 0)" fill="#404254">
                <rect fill="#f2f5e9" fill-opacity="0.5" stroke="#606060" stroke-width=".5" x="0" y="0" width="60" height="60"/>
                <use id="zoomplus" xlink:href="#zoomPlus" x="17" y="9" onmousedown="handleZoom(evt,'in')"/>
                <use id="zoomminus" xlink:href="#zoomMin" x="42" y="9" onmousedown="handleZoom(evt,'out')"/>
                <use id="reset" xlink:href="#resetDef" x="30" y="36" onmousedown="handleReset()"/>
                <g id="arrowUp" xlink:href="#dirArrow" transform="translate(30 24)" onmousedown="handlePan(0,-1)">
                  <use xlink:href="#rim" fill="#404040">
                        <set attributeName="fill" to="#808080" begin="arrowUp.mouseover" end="arrowUp.mouseout"/>
                  </use>
                  <path fill="none" stroke="white" stroke-width="1.5" d="M0,-3.0v7 M-2.5,-0.5L0,-3.0L2.5,-0.5"/>
                </g>
                <g id="arrowRight" xlink:href="#dirArrow" transform="rotate(90) translate(36 -43)" onmousedown="handlePan(1,0)">
                  <use xlink:href="#rim" fill="#404040">
                        <set attributeName="fill" to="#808080" begin="arrowRight.mouseover" end="arrowRight.mouseout"/>
                  </use>
                  <path fill="none" stroke="white" stroke-width="1.5" d="M0,-3.0v7 M-2.5,-0.5L0,-3.0L2.5,-0.5"/>
                </g>
                <g id="arrowDown" xlink:href="#dirArrow" transform="rotate(180) translate(-30 -48)" onmousedown="handlePan(0,1)">
                  <use xlink:href="#rim" fill="#404040">
                        <set attributeName="fill" to="#808080" begin="arrowDown.mouseover" end="arrowDown.mouseout"/>
                  </use>
                  <path fill="none" stroke="white" stroke-width="1.5" d="M0,-3.0v7 M-2.5,-0.5L0,-3.0L2.5,-0.5"/>
                </g>
                <g id="arrowLeft" xlink:href="#dirArrow" transform="rotate(270) translate(-36 17)" onmousedown="handlePan(-1,0)">
                  <use xlink:href="#rim" fill="#404040">
                        <set attributeName="fill" to="#808080" begin="arrowLeft.mouseover" end="arrowLeft.mouseout"/>
                  </use>
                  <path fill="none" stroke="white" stroke-width="1.5" d="M0,-3.0v7 M-2.5,-0.5L0,-3.0L2.5,-0.5"/>
                </g>
        </g>
        <svg viewBox="0 0 15 15" width="100%" height="30px" preserveAspectRatio="xMaxYMin meet">
         <g id="arrow_out" transform="scale(0.3 0.3)">
          <a xlink:href="class_e_b_p_f_1_1_e_b_p_f_table_base__inherit__graph_org.svg" target="_base">
           <rect id="button" ry="5" rx="5" y="6" x="6" height="38" width="38"
                fill="#f2f5e9" fill-opacity="0.5" stroke="#606060" stroke-width="1.0"/>
           <path id="arrow"
             d="M 11.500037,31.436501 C 11.940474,20.09759 22.043105,11.32322 32.158766,21.979434 L 37.068811,17.246167 C 37.068811,17.246167 37.088388,32 37.088388,32 L 22.160133,31.978069 C 22.160133,31.978069 26.997745,27.140456 26.997745,27.140456 C 18.528582,18.264221 13.291696,25.230495 11.500037,31.436501 z"
             style="fill:#404040;"/>
          </a>
         </g>
        </svg>
</svg>
