<?xml version="1.0" encoding="UTF-8" standalone="no"?>
<!DOCTYPE svg PUBLIC "-//W3C//DTD SVG 1.1//EN"
 "http://www.w3.org/Graphics/SVG/1.1/DTD/svg11.dtd">
<!-- Generated by graphviz version 2.43.0 (0)
 -->
<!-- Title: P4::FindTypesInLogMsgInvocationToReplace Pages: 1 -->
<svg width="415pt" height="244pt"
 viewBox="0.00 0.00 415.00 244.00" xmlns="http://www.w3.org/2000/svg" xmlns:xlink="http://www.w3.org/1999/xlink">
<g id="graph0" class="graph" transform="scale(1 1) rotate(0) translate(4 240)">
<title>P4::FindTypesInLogMsgInvocationToReplace</title>
<polygon fill="white" stroke="transparent" points="-4,4 -4,-240 411,-240 411,4 -4,4"/>
<!-- Node1 -->
<g id="node1" class="node">
<title>Node1</title>
<g id="a_node1"><a xlink:title=" ">
<polygon fill="#bfbfbf" stroke="black" points="0,-0.5 0,-30.5 180,-30.5 180,-0.5 0,-0.5"/>
<text text-anchor="start" x="8" y="-18.5" font-family="Helvetica,sans-Serif" font-size="10.00">P4::FindTypesInLogMsgInvocation</text>
<text text-anchor="middle" x="90" y="-7.5" font-family="Helvetica,sans-Serif" font-size="10.00">ToReplace</text>
</a>
</g>
</g>
<!-- Node2 -->
<g id="node2" class="node">
<title>Node2</title>
<g id="a_node2"><a xlink:href="class_inspector.html" target="_top" xlink:title=" ">
<polygon fill="white" stroke="black" points="60,-79.5 60,-98.5 122,-98.5 122,-79.5 60,-79.5"/>
<text text-anchor="middle" x="91" y="-86.5" font-family="Helvetica,sans-Serif" font-size="10.00">Inspector</text>
</a>
</g>
</g>
<!-- Node2&#45;&gt;Node1 -->
<g id="edge1" class="edge">
<title>Node2&#45;&gt;Node1</title>
<path fill="none" stroke="midnightblue" d="M90.73,-68.9C90.56,-56.82 90.35,-41.47 90.2,-30.51"/>
<polygon fill="midnightblue" stroke="midnightblue" points="87.24,-69.28 90.88,-79.23 94.24,-69.18 87.24,-69.28"/>
</g>
<!-- Node3 -->
<g id="node3" class="node">
<title>Node3</title>
<g id="a_node3"><a xlink:href="class_visitor.html" target="_top" xlink:title=" ">
<polygon fill="white" stroke="black" points="167,-147.5 167,-166.5 215,-166.5 215,-147.5 167,-147.5"/>
<text text-anchor="middle" x="191" y="-154.5" font-family="Helvetica,sans-Serif" font-size="10.00">Visitor</text>
</a>
</g>
</g>
<!-- Node3&#45;&gt;Node2 -->
<g id="edge2" class="edge">
<title>Node3&#45;&gt;Node2</title>
<path fill="none" stroke="midnightblue" d="M166.39,-142.13C159.39,-138.04 151.82,-133.45 145,-129 129.89,-119.14 113.14,-106.82 102.37,-98.69"/>
<polygon fill="midnightblue" stroke="midnightblue" points="165.03,-145.39 175.45,-147.36 168.53,-139.33 165.03,-145.39"/>
</g>
<!-- Node3&#45;&gt;Node3 -->
<g id="edge10" class="edge">
<title>Node3&#45;&gt;Node3</title>
<path fill="none" stroke="#9a32cd" stroke-dasharray="5,2" d="M225.42,-162.29C229.98,-161.39 233,-159.63 233,-157 233,-152.69 224.86,-150.7 215.17,-151.04"/>
<polygon fill="#9a32cd" stroke="#9a32cd" points="224.92,-158.82 215.17,-162.96 225.38,-165.8 224.92,-158.82"/>
<text text-anchor="middle" x="258" y="-154.5" font-family="Helvetica,sans-Serif" font-size="10.00"> called_by</text>
</g>
<!-- Node5 -->
<g id="node5" class="node">
<title>Node5</title>
<g id="a_node5"><a xlink:href="class_split_flow_visit__base.html" target="_top" xlink:title=" ">
<polygon fill="white" stroke="black" points="198,-6 198,-25 310,-25 310,-6 198,-6"/>
<text text-anchor="middle" x="254" y="-13" font-family="Helvetica,sans-Serif" font-size="10.00">SplitFlowVisit_base</text>
</a>
</g>
</g>
<!-- Node3&#45;&gt;Node5 -->
<g id="edge9" class="edge">
<title>Node3&#45;&gt;Node5</title>
<path fill="none" stroke="#9a32cd" stroke-dasharray="5,2" d="M178.82,-138.92C168.83,-122.63 157.85,-97.73 168,-78 181.35,-52.05 211.29,-34.61 232.06,-25.12"/>
<polygon fill="#9a32cd" stroke="#9a32cd" points="176,-140.99 184.42,-147.41 181.84,-137.14 176,-140.99"/>
<text text-anchor="middle" x="173" y="-86.5" font-family="Helvetica,sans-Serif" font-size="10.00"> v</text>
</g>
<!-- Node6 -->
<g id="node6" class="node">
<title>Node6</title>
<g id="a_node6"><a xlink:title=" ">
<polygon fill="white" stroke="#bfbfbf" points="187.5,-79.5 187.5,-98.5 318.5,-98.5 318.5,-79.5 187.5,-79.5"/>
<text text-anchor="middle" x="253" y="-86.5" font-family="Helvetica,sans-Serif" font-size="10.00">std::vector&lt; Visitor * &gt;</text>
</a>
</g>
</g>
<!-- Node3&#45;&gt;Node6 -->
<g id="edge8" class="edge">
<title>Node3&#45;&gt;Node6</title>
<path fill="none" stroke="#9a32cd" stroke-dasharray="5,2" d="M205.99,-140.05C218.14,-127.11 234.82,-109.36 244.69,-98.84"/>
<polygon fill="#9a32cd" stroke="#9a32cd" points="203.4,-137.69 199.11,-147.37 208.5,-142.48 203.4,-137.69"/>
<text text-anchor="middle" x="250.5" y="-121" font-family="Helvetica,sans-Serif" font-size="10.00"> elements</text>
</g>
<!-- Node4 -->
<g id="node4" class="node">
<title>Node4</title>
<g id="a_node4"><a xlink:href="classcstring.html" target="_top" xlink:title=" ">
<polygon fill="white" stroke="black" points="166,-215.5 166,-234.5 216,-234.5 216,-215.5 166,-215.5"/>
<text text-anchor="middle" x="191" y="-222.5" font-family="Helvetica,sans-Serif" font-size="10.00">cstring</text>
</a>
</g>
</g>
<!-- Node4&#45;&gt;Node3 -->
<g id="edge3" class="edge">
<title>Node4&#45;&gt;Node3</title>
<path fill="none" stroke="#9a32cd" stroke-dasharray="5,2" d="M191,-205.04C191,-192.47 191,-176.56 191,-166.84"/>
<polygon fill="#9a32cd" stroke="#9a32cd" points="187.5,-205.37 191,-215.37 194.5,-205.37 187.5,-205.37"/>
<text text-anchor="middle" x="226" y="-188" font-family="Helvetica,sans-Serif" font-size="10.00"> internalName</text>
</g>
<!-- Node4&#45;&gt;Node4 -->
<g id="edge4" class="edge">
<title>Node4&#45;&gt;Node4</title>
<path fill="none" stroke="#9a32cd" stroke-dasharray="5,2" d="M226.45,-230.58C231,-229.61 234,-227.75 234,-225 234,-220.48 225.91,-218.37 216.18,-218.65"/>
<polygon fill="#9a32cd" stroke="#9a32cd" points="225.89,-227.11 216.18,-231.35 226.41,-234.1 225.89,-227.11"/>
<text text-anchor="middle" x="253.5" y="-228" font-family="Helvetica,sans-Serif" font-size="10.00"> empty</text>
<text text-anchor="middle" x="253.5" y="-217" font-family="Helvetica,sans-Serif" font-size="10.00">newline</text>
</g>
<!-- Node5&#45;&gt;Node3 -->
<g id="edge5" class="edge">
<title>Node5&#45;&gt;Node3</title>
<path fill="none" stroke="#9a32cd" stroke-dasharray="5,2" d="M280.81,-29.79C307.99,-45.18 343.95,-72.03 328,-100 305.35,-139.73 247.96,-151.29 215.1,-154.64"/>
<polygon fill="#9a32cd" stroke="#9a32cd" points="282.47,-26.71 272.01,-25.02 279.14,-32.86 282.47,-26.71"/>
<text text-anchor="middle" x="369" y="-92" font-family="Helvetica,sans-Serif" font-size="10.00"> split_link</text>
<text text-anchor="middle" x="369" y="-81" font-family="Helvetica,sans-Serif" font-size="10.00">split_link_mem</text>
</g>
<!-- Node5&#45;&gt;Node5 -->
<g id="edge6" class="edge">
<title>Node5&#45;&gt;Node5</title>
<path fill="none" stroke="#9a32cd" stroke-dasharray="5,2" d="M320.04,-20.81C324.97,-19.62 328,-17.85 328,-15.5 328,-11.83 320.62,-9.57 310.15,-8.74"/>
<polygon fill="#9a32cd" stroke="#9a32cd" points="319.53,-17.35 310.15,-22.26 320.55,-24.27 319.53,-17.35"/>
<text text-anchor="middle" x="340.5" y="-13" font-family="Helvetica,sans-Serif" font-size="10.00"> prev</text>
</g>
<!-- Node6&#45;&gt;Node5 -->
<g id="edge7" class="edge">
<title>Node6&#45;&gt;Node5</title>
<path fill="none" stroke="#9a32cd" stroke-dasharray="5,2" d="M253.26,-69.09C253.46,-54.93 253.72,-36.2 253.88,-25.34"/>
<polygon fill="#9a32cd" stroke="#9a32cd" points="249.76,-69.18 253.12,-79.23 256.76,-69.28 249.76,-69.18"/>
<text text-anchor="middle" x="273" y="-52" font-family="Helvetica,sans-Serif" font-size="10.00"> visitors</text>
</g>
</g>
</svg>
