<?xml version="1.0" encoding="UTF-8" standalone="no"?>
<!DOCTYPE svg PUBLIC "-//W3C//DTD SVG 1.1//EN"
 "http://www.w3.org/Graphics/SVG/1.1/DTD/svg11.dtd">
<!-- Generated by graphviz version 2.43.0 (0)
 -->
<!-- Title: BMV2::CFG Pages: 1 -->
<svg width="400pt" height="275pt"
 viewBox="0.00 0.00 400.06 275.00" xmlns="http://www.w3.org/2000/svg" xmlns:xlink="http://www.w3.org/1999/xlink">
<g id="graph0" class="graph" transform="scale(1 1) rotate(0) translate(4 271)">
<title>BMV2::CFG</title>
<polygon fill="white" stroke="transparent" points="-4,4 -4,-271 396.06,-271 396.06,4 -4,4"/>
<!-- Node1 -->
<g id="node1" class="node">
<title>Node1</title>
<g id="a_node1"><a xlink:title=" ">
<polygon fill="#bfbfbf" stroke="black" points="50.56,-0.5 50.56,-19.5 121.56,-19.5 121.56,-0.5 50.56,-0.5"/>
<text text-anchor="middle" x="86.06" y="-7.5" font-family="Helvetica,sans-Serif" font-size="10.00">BMV2::CFG</text>
</a>
</g>
</g>
<!-- Node2 -->
<g id="node2" class="node">
<title>Node2</title>
<g id="a_node2"><a xlink:href="class_i_has_db_print.html" target="_top" xlink:title=" ">
<polygon fill="white" stroke="black" points="94.06,-242 94.06,-261 168.06,-261 168.06,-242 94.06,-242"/>
<text text-anchor="middle" x="131.06" y="-249" font-family="Helvetica,sans-Serif" font-size="10.00">IHasDbPrint</text>
</a>
</g>
</g>
<!-- Node2&#45;&gt;Node1 -->
<g id="edge1" class="edge">
<title>Node2&#45;&gt;Node1</title>
<path fill="none" stroke="midnightblue" d="M86.16,-238.67C61.11,-229.52 32.02,-214.06 17.06,-189 -8.22,-146.64 -2.15,-123.44 17.06,-78 28.18,-51.7 55.24,-30.64 71.97,-19.56"/>
<polygon fill="midnightblue" stroke="midnightblue" points="85.28,-242.07 95.88,-241.99 87.54,-235.44 85.28,-242.07"/>
</g>
<!-- Node4 -->
<g id="node4" class="node">
<title>Node4</title>
<g id="a_node4"><a xlink:href="class_b_m_v2_1_1_c_f_g_1_1_node.html" target="_top" xlink:title=" ">
<polygon fill="white" stroke="black" points="164.56,-84 164.56,-103 267.56,-103 267.56,-84 164.56,-84"/>
<text text-anchor="middle" x="216.06" y="-91" font-family="Helvetica,sans-Serif" font-size="10.00">BMV2::CFG::Node</text>
</a>
</g>
</g>
<!-- Node2&#45;&gt;Node4 -->
<g id="edge4" class="edge">
<title>Node2&#45;&gt;Node4</title>
<path fill="none" stroke="midnightblue" d="M140.84,-232.55C159.11,-199.02 197.81,-128 211.3,-103.24"/>
<polygon fill="midnightblue" stroke="midnightblue" points="137.59,-231.21 135.88,-241.67 143.74,-234.56 137.59,-231.21"/>
</g>
<!-- Node8 -->
<g id="node8" class="node">
<title>Node8</title>
<g id="a_node8"><a xlink:href="class_b_m_v2_1_1_c_f_g_1_1_edge_set.html" target="_top" xlink:title=" ">
<polygon fill="white" stroke="black" points="269.56,-168.5 269.56,-187.5 386.56,-187.5 386.56,-168.5 269.56,-168.5"/>
<text text-anchor="middle" x="328.06" y="-175.5" font-family="Helvetica,sans-Serif" font-size="10.00">BMV2::CFG::EdgeSet</text>
</a>
</g>
</g>
<!-- Node2&#45;&gt;Node8 -->
<g id="edge10" class="edge">
<title>Node2&#45;&gt;Node8</title>
<path fill="none" stroke="midnightblue" d="M164.35,-238.42C204.12,-223.98 269.65,-200.2 304.52,-187.54"/>
<polygon fill="midnightblue" stroke="midnightblue" points="163.03,-235.17 154.83,-241.88 165.42,-241.75 163.03,-235.17"/>
</g>
<!-- Node3 -->
<g id="node3" class="node">
<title>Node3</title>
<g id="a_node3"><a xlink:href="classordered__set.html" target="_top" xlink:title=" ">
<polygon fill="white" stroke="black" points="26.06,-78.5 26.06,-108.5 146.06,-108.5 146.06,-78.5 26.06,-78.5"/>
<text text-anchor="start" x="34.06" y="-96.5" font-family="Helvetica,sans-Serif" font-size="10.00">ordered_set&lt; BMV2::</text>
<text text-anchor="middle" x="86.06" y="-85.5" font-family="Helvetica,sans-Serif" font-size="10.00">CFG::Node * &gt;</text>
</a>
</g>
</g>
<!-- Node3&#45;&gt;Node1 -->
<g id="edge2" class="edge">
<title>Node3&#45;&gt;Node1</title>
<path fill="none" stroke="#9a32cd" stroke-dasharray="5,2" d="M86.06,-68.25C86.06,-51.78 86.06,-30.99 86.06,-19.54"/>
<polygon fill="#9a32cd" stroke="#9a32cd" points="82.56,-68.3 86.06,-78.3 89.56,-68.3 82.56,-68.3"/>
<text text-anchor="middle" x="109.06" y="-46.5" font-family="Helvetica,sans-Serif" font-size="10.00"> allNodes</text>
</g>
<!-- Node4&#45;&gt;Node1 -->
<g id="edge3" class="edge">
<title>Node4&#45;&gt;Node1</title>
<path fill="none" stroke="#9a32cd" stroke-dasharray="5,2" d="M195.88,-77.9C179.93,-66.57 156.95,-50.71 136.06,-38 125.28,-31.44 112.78,-24.69 102.97,-19.58"/>
<polygon fill="#9a32cd" stroke="#9a32cd" points="194.22,-81.01 204.39,-83.99 198.29,-75.32 194.22,-81.01"/>
<text text-anchor="middle" x="196.06" y="-52" font-family="Helvetica,sans-Serif" font-size="10.00"> entryPoint</text>
<text text-anchor="middle" x="196.06" y="-41" font-family="Helvetica,sans-Serif" font-size="10.00">exitPoint</text>
</g>
<!-- Node5 -->
<g id="node5" class="node">
<title>Node5</title>
<g id="a_node5"><a xlink:href="class_i_castable.html" target="_top" xlink:title=" ">
<polygon fill="white" stroke="black" points="189.06,-168.5 189.06,-187.5 251.06,-187.5 251.06,-168.5 189.06,-168.5"/>
<text text-anchor="middle" x="220.06" y="-175.5" font-family="Helvetica,sans-Serif" font-size="10.00">ICastable</text>
</a>
</g>
</g>
<!-- Node5&#45;&gt;Node4 -->
<g id="edge5" class="edge">
<title>Node5&#45;&gt;Node4</title>
<path fill="none" stroke="midnightblue" d="M219.16,-158.43C218.33,-141.13 217.11,-116.11 216.48,-103.1"/>
<polygon fill="midnightblue" stroke="midnightblue" points="215.67,-158.66 219.65,-168.48 222.66,-158.32 215.67,-158.66"/>
</g>
<!-- Node6 -->
<g id="node6" class="node">
<title>Node6</title>
<g id="a_node6"><a xlink:href="struct_r_t_t_i_1_1_base.html" target="_top" xlink:title=" ">
<polygon fill="white" stroke="black" points="186.06,-242 186.06,-261 254.06,-261 254.06,-242 186.06,-242"/>
<text text-anchor="middle" x="220.06" y="-249" font-family="Helvetica,sans-Serif" font-size="10.00">RTTI::Base</text>
</a>
</g>
</g>
<!-- Node6&#45;&gt;Node5 -->
<g id="edge6" class="edge">
<title>Node6&#45;&gt;Node5</title>
<path fill="none" stroke="midnightblue" d="M220.06,-231.59C220.06,-217.43 220.06,-198.7 220.06,-187.84"/>
<polygon fill="midnightblue" stroke="midnightblue" points="216.56,-231.73 220.06,-241.73 223.56,-231.73 216.56,-231.73"/>
</g>
<!-- Node7 -->
<g id="node7" class="node">
<title>Node7</title>
<g id="a_node7"><a xlink:href="classcstring.html" target="_top" xlink:title=" ">
<polygon fill="white" stroke="black" points="26.06,-168.5 26.06,-187.5 76.06,-187.5 76.06,-168.5 26.06,-168.5"/>
<text text-anchor="middle" x="51.06" y="-175.5" font-family="Helvetica,sans-Serif" font-size="10.00">cstring</text>
</a>
</g>
</g>
<!-- Node7&#45;&gt;Node4 -->
<g id="edge7" class="edge">
<title>Node7&#45;&gt;Node4</title>
<path fill="none" stroke="#9a32cd" stroke-dasharray="5,2" d="M67.78,-161.55C80.29,-150.65 98.26,-136.38 116.06,-127 136.09,-116.45 160.18,-108.49 179.69,-103.09"/>
<polygon fill="#9a32cd" stroke="#9a32cd" points="65.18,-159.18 60.05,-168.45 69.84,-164.4 65.18,-159.18"/>
<text text-anchor="middle" x="131.56" y="-135.5" font-family="Helvetica,sans-Serif" font-size="10.00"> name</text>
</g>
<!-- Node7&#45;&gt;Node7 -->
<g id="edge8" class="edge">
<title>Node7&#45;&gt;Node7</title>
<path fill="none" stroke="#9a32cd" stroke-dasharray="5,2" d="M86.51,-183.58C91.06,-182.61 94.06,-180.75 94.06,-178 94.06,-173.48 85.97,-171.37 76.24,-171.65"/>
<polygon fill="#9a32cd" stroke="#9a32cd" points="85.95,-180.11 76.24,-184.35 86.47,-187.1 85.95,-180.11"/>
<text text-anchor="middle" x="113.56" y="-181" font-family="Helvetica,sans-Serif" font-size="10.00"> empty</text>
<text text-anchor="middle" x="113.56" y="-170" font-family="Helvetica,sans-Serif" font-size="10.00">newline</text>
</g>
<!-- Node8&#45;&gt;Node4 -->
<g id="edge9" class="edge">
<title>Node8&#45;&gt;Node4</title>
<path fill="none" stroke="#9a32cd" stroke-dasharray="5,2" d="M308.34,-162.47C284.98,-145.26 246.83,-117.17 227.73,-103.1"/>
<polygon fill="#9a32cd" stroke="#9a32cd" points="306.37,-165.37 316.5,-168.48 310.52,-159.73 306.37,-165.37"/>
<text text-anchor="middle" x="322.06" y="-141" font-family="Helvetica,sans-Serif" font-size="10.00"> predecessors</text>
<text text-anchor="middle" x="322.06" y="-130" font-family="Helvetica,sans-Serif" font-size="10.00">successors</text>
</g>
<!-- Node9 -->
<g id="node9" class="node">
<title>Node9</title>
<g id="a_node9"><a xlink:href="classordered__set.html" target="_top" xlink:title=" ">
<polygon fill="white" stroke="black" points="272.06,-236.5 272.06,-266.5 392.06,-266.5 392.06,-236.5 272.06,-236.5"/>
<text text-anchor="start" x="280.06" y="-254.5" font-family="Helvetica,sans-Serif" font-size="10.00">ordered_set&lt; BMV2::</text>
<text text-anchor="middle" x="332.06" y="-243.5" font-family="Helvetica,sans-Serif" font-size="10.00">CFG::Edge * &gt;</text>
</a>
</g>
</g>
<!-- Node9&#45;&gt;Node8 -->
<g id="edge11" class="edge">
<title>Node9&#45;&gt;Node8</title>
<path fill="none" stroke="#9a32cd" stroke-dasharray="5,2" d="M330.71,-226.36C329.97,-213.01 329.09,-197.25 328.55,-187.7"/>
<polygon fill="#9a32cd" stroke="#9a32cd" points="327.22,-226.59 331.27,-236.37 334.21,-226.19 327.22,-226.59"/>
<text text-anchor="middle" x="346.56" y="-210" font-family="Helvetica,sans-Serif" font-size="10.00"> edges</text>
</g>
</g>
</svg>
