<?xml version="1.0" encoding="UTF-8" standalone="no"?>
<!DOCTYPE svg PUBLIC "-//W3C//DTD SVG 1.1//EN"
 "http://www.w3.org/Graphics/SVG/1.1/DTD/svg11.dtd">
<!-- Generated by graphviz version 2.43.0 (0)
 -->
<!-- Title: P4::WithFieldsLocation Pages: 1 -->
<svg width="429pt" height="242pt"
 viewBox="0.00 0.00 428.50 242.00" xmlns="http://www.w3.org/2000/svg" xmlns:xlink="http://www.w3.org/1999/xlink">
<g id="graph0" class="graph" transform="scale(1 1) rotate(0) translate(4 238)">
<title>P4::WithFieldsLocation</title>
<polygon fill="white" stroke="transparent" points="-4,4 -4,-238 424.5,-238 424.5,4 -4,4"/>
<!-- Node1 -->
<g id="node1" class="node">
<title>Node1</title>
<g id="a_node1"><a xlink:title="Base class for location sets that contain fields.">
<polygon fill="#bfbfbf" stroke="black" points="174.5,-0.5 174.5,-19.5 301.5,-19.5 301.5,-0.5 174.5,-0.5"/>
<text text-anchor="middle" x="238" y="-7.5" font-family="Helvetica,sans-Serif" font-size="10.00">P4::WithFieldsLocation</text>
</a>
</g>
</g>
<!-- Node2 -->
<g id="node2" class="node">
<title>Node2</title>
<g id="a_node2"><a xlink:href="class_p4_1_1_storage_location.html" target="_top" xlink:title="Abstraction for something that is has a left value (variable, parameter)">
<polygon fill="white" stroke="black" points="103.5,-73 103.5,-92 216.5,-92 216.5,-73 103.5,-73"/>
<text text-anchor="middle" x="160" y="-80" font-family="Helvetica,sans-Serif" font-size="10.00">P4::StorageLocation</text>
</a>
</g>
</g>
<!-- Node2&#45;&gt;Node1 -->
<g id="edge1" class="edge">
<title>Node2&#45;&gt;Node1</title>
<path fill="none" stroke="midnightblue" d="M177.05,-66.08C192.78,-51.87 215.57,-31.27 228.36,-19.72"/>
<polygon fill="midnightblue" stroke="midnightblue" points="174.64,-63.55 169.56,-72.86 179.33,-68.75 174.64,-63.55"/>
</g>
<!-- Node3 -->
<g id="node3" class="node">
<title>Node3</title>
<g id="a_node3"><a xlink:href="class_i_has_db_print.html" target="_top" xlink:title=" ">
<polygon fill="white" stroke="black" points="0,-146.5 0,-165.5 74,-165.5 74,-146.5 0,-146.5"/>
<text text-anchor="middle" x="37" y="-153.5" font-family="Helvetica,sans-Serif" font-size="10.00">IHasDbPrint</text>
</a>
</g>
</g>
<!-- Node3&#45;&gt;Node2 -->
<g id="edge2" class="edge">
<title>Node3&#45;&gt;Node2</title>
<path fill="none" stroke="midnightblue" d="M60.93,-141.09C85.91,-126.57 124.28,-104.27 145.18,-92.12"/>
<polygon fill="midnightblue" stroke="midnightblue" points="58.97,-138.18 52.08,-146.23 62.49,-144.23 58.97,-138.18"/>
</g>
<!-- Node4 -->
<g id="node4" class="node">
<title>Node4</title>
<g id="a_node4"><a xlink:href="class_i_castable.html" target="_top" xlink:title=" ">
<polygon fill="white" stroke="black" points="92,-146.5 92,-165.5 154,-165.5 154,-146.5 92,-146.5"/>
<text text-anchor="middle" x="123" y="-153.5" font-family="Helvetica,sans-Serif" font-size="10.00">ICastable</text>
</a>
</g>
</g>
<!-- Node4&#45;&gt;Node2 -->
<g id="edge3" class="edge">
<title>Node4&#45;&gt;Node2</title>
<path fill="none" stroke="midnightblue" d="M132.14,-137.34C139.53,-123.05 149.64,-103.52 155.43,-92.34"/>
<polygon fill="midnightblue" stroke="midnightblue" points="129.02,-135.74 127.54,-146.23 135.24,-138.96 129.02,-135.74"/>
</g>
<!-- Node5 -->
<g id="node5" class="node">
<title>Node5</title>
<g id="a_node5"><a xlink:href="struct_r_t_t_i_1_1_base.html" target="_top" xlink:title=" ">
<polygon fill="white" stroke="black" points="89,-214.5 89,-233.5 157,-233.5 157,-214.5 89,-214.5"/>
<text text-anchor="middle" x="123" y="-221.5" font-family="Helvetica,sans-Serif" font-size="10.00">RTTI::Base</text>
</a>
</g>
</g>
<!-- Node5&#45;&gt;Node4 -->
<g id="edge4" class="edge">
<title>Node5&#45;&gt;Node4</title>
<path fill="none" stroke="midnightblue" d="M123,-204.04C123,-191.47 123,-175.56 123,-165.84"/>
<polygon fill="midnightblue" stroke="midnightblue" points="119.5,-204.37 123,-214.37 126.5,-204.37 119.5,-204.37"/>
</g>
<!-- Node6 -->
<g id="node6" class="node">
<title>Node6</title>
<g id="a_node6"><a xlink:href="classcstring.html" target="_top" xlink:title=" ">
<polygon fill="white" stroke="black" points="172,-146.5 172,-165.5 222,-165.5 222,-146.5 172,-146.5"/>
<text text-anchor="middle" x="197" y="-153.5" font-family="Helvetica,sans-Serif" font-size="10.00">cstring</text>
</a>
</g>
</g>
<!-- Node6&#45;&gt;Node2 -->
<g id="edge5" class="edge">
<title>Node6&#45;&gt;Node2</title>
<path fill="none" stroke="#9a32cd" stroke-dasharray="5,2" d="M187.86,-137.34C180.47,-123.05 170.36,-103.52 164.57,-92.34"/>
<polygon fill="#9a32cd" stroke="#9a32cd" points="184.76,-138.96 192.46,-146.23 190.98,-135.74 184.76,-138.96"/>
<text text-anchor="middle" x="197.5" y="-119" font-family="Helvetica,sans-Serif" font-size="10.00"> name</text>
</g>
<!-- Node6&#45;&gt;Node6 -->
<g id="edge6" class="edge">
<title>Node6&#45;&gt;Node6</title>
<path fill="none" stroke="#9a32cd" stroke-dasharray="5,2" d="M232.45,-161.58C237,-160.61 240,-158.75 240,-156 240,-151.48 231.91,-149.37 222.18,-149.65"/>
<polygon fill="#9a32cd" stroke="#9a32cd" points="231.89,-158.11 222.18,-162.35 232.41,-165.1 231.89,-158.11"/>
<text text-anchor="middle" x="259.5" y="-159" font-family="Helvetica,sans-Serif" font-size="10.00"> empty</text>
<text text-anchor="middle" x="259.5" y="-148" font-family="Helvetica,sans-Serif" font-size="10.00">newline</text>
</g>
<!-- Node7 -->
<g id="node7" class="node">
<title>Node7</title>
<g id="a_node7"><a xlink:href="classhvec__map.html" target="_top" xlink:title=" ">
<polygon fill="white" stroke="black" points="255.5,-67.5 255.5,-97.5 420.5,-97.5 420.5,-67.5 255.5,-67.5"/>
<text text-anchor="start" x="263.5" y="-85.5" font-family="Helvetica,sans-Serif" font-size="10.00">hvec_map&lt; cstring,</text>
<text text-anchor="middle" x="338" y="-74.5" font-family="Helvetica,sans-Serif" font-size="10.00"> const P4::StorageLocation * &gt;</text>
</a>
</g>
</g>
<!-- Node7&#45;&gt;Node1 -->
<g id="edge7" class="edge">
<title>Node7&#45;&gt;Node1</title>
<path fill="none" stroke="#9a32cd" stroke-dasharray="5,2" d="M309.49,-61.4C289.95,-47.62 264.99,-30.03 250.33,-19.69"/>
<polygon fill="#9a32cd" stroke="#9a32cd" points="307.57,-64.33 317.76,-67.23 311.61,-58.61 307.57,-64.33"/>
<text text-anchor="middle" x="326.5" y="-41" font-family="Helvetica,sans-Serif" font-size="10.00"> fieldLocations</text>
</g>
<!-- Node8 -->
<g id="node8" class="node">
<title>Node8</title>
<g id="a_node8"><a xlink:href="classhash__vector__base.html" target="_top" xlink:title=" ">
<polygon fill="white" stroke="black" points="297,-146.5 297,-165.5 401,-165.5 401,-146.5 297,-146.5"/>
<text text-anchor="middle" x="349" y="-153.5" font-family="Helvetica,sans-Serif" font-size="10.00">hash_vector_base</text>
</a>
</g>
</g>
<!-- Node8&#45;&gt;Node7 -->
<g id="edge8" class="edge">
<title>Node8&#45;&gt;Node7</title>
<path fill="none" stroke="#8b1a1a" d="M346.12,-136.27C344.25,-124.13 341.86,-108.58 340.16,-97.51"/>
<polygon fill="#8b1a1a" stroke="#8b1a1a" points="342.67,-136.88 347.65,-146.23 349.59,-135.82 342.67,-136.88"/>
</g>
<!-- Node9 -->
<g id="node9" class="node">
<title>Node9</title>
<g id="a_node9"><a xlink:href="classbitvec.html" target="_top" xlink:title=" ">
<polygon fill="white" stroke="black" points="325.5,-214.5 325.5,-233.5 372.5,-233.5 372.5,-214.5 325.5,-214.5"/>
<text text-anchor="middle" x="349" y="-221.5" font-family="Helvetica,sans-Serif" font-size="10.00">bitvec</text>
</a>
</g>
</g>
<!-- Node9&#45;&gt;Node8 -->
<g id="edge9" class="edge">
<title>Node9&#45;&gt;Node8</title>
<path fill="none" stroke="#9a32cd" stroke-dasharray="5,2" d="M349,-204.04C349,-191.47 349,-175.56 349,-165.84"/>
<polygon fill="#9a32cd" stroke="#9a32cd" points="345.5,-204.37 349,-214.37 352.5,-204.37 345.5,-204.37"/>
<text text-anchor="middle" x="367.5" y="-188" font-family="Helvetica,sans-Serif" font-size="10.00"> erased</text>
</g>
</g>
</svg>
