<?xml version="1.0" encoding="UTF-8" standalone="no"?>
<!DOCTYPE svg PUBLIC "-//W3C//DTD SVG 1.1//EN"
 "http://www.w3.org/Graphics/SVG/1.1/DTD/svg11.dtd">
<!-- Generated by graphviz version 2.43.0 (0)
 -->
<!-- Title: P4::Predication Pages: 1 -->
<svg width="370pt" height="233pt"
 viewBox="0.00 0.00 369.50 233.00" xmlns="http://www.w3.org/2000/svg" xmlns:xlink="http://www.w3.org/1999/xlink">
<g id="graph0" class="graph" transform="scale(1 1) rotate(0) translate(4 229)">
<title>P4::Predication</title>
<polygon fill="white" stroke="transparent" points="-4,4 -4,-229 365.5,-229 365.5,4 -4,4"/>
<!-- Node1 -->
<g id="node1" class="node">
<title>Node1</title>
<g id="a_node1"><a xlink:title=" ">
<polygon fill="#bfbfbf" stroke="black" points="0,-0.5 0,-19.5 89,-19.5 89,-0.5 0,-0.5"/>
<text text-anchor="middle" x="44.5" y="-7.5" font-family="Helvetica,sans-Serif" font-size="10.00">P4::Predication</text>
</a>
</g>
</g>
<!-- Node2 -->
<g id="node2" class="node">
<title>Node2</title>
<g id="a_node2"><a xlink:href="class_transform.html" target="_top" xlink:title=" ">
<polygon fill="white" stroke="black" points="12,-68.5 12,-87.5 77,-87.5 77,-68.5 12,-68.5"/>
<text text-anchor="middle" x="44.5" y="-75.5" font-family="Helvetica,sans-Serif" font-size="10.00">Transform</text>
</a>
</g>
</g>
<!-- Node2&#45;&gt;Node1 -->
<g id="edge1" class="edge">
<title>Node2&#45;&gt;Node1</title>
<path fill="none" stroke="midnightblue" d="M44.5,-58.04C44.5,-45.47 44.5,-29.56 44.5,-19.84"/>
<polygon fill="midnightblue" stroke="midnightblue" points="41,-58.37 44.5,-68.37 48,-58.37 41,-58.37"/>
</g>
<!-- Node3 -->
<g id="node3" class="node">
<title>Node3</title>
<g id="a_node3"><a xlink:href="class_visitor.html" target="_top" xlink:title=" ">
<polygon fill="white" stroke="black" points="121.5,-136.5 121.5,-155.5 169.5,-155.5 169.5,-136.5 121.5,-136.5"/>
<text text-anchor="middle" x="145.5" y="-143.5" font-family="Helvetica,sans-Serif" font-size="10.00">Visitor</text>
</a>
</g>
</g>
<!-- Node3&#45;&gt;Node2 -->
<g id="edge2" class="edge">
<title>Node3&#45;&gt;Node2</title>
<path fill="none" stroke="midnightblue" d="M120.91,-131.09C113.92,-127 106.34,-122.42 99.5,-118 84.16,-108.09 67.09,-95.77 56.1,-87.67"/>
<polygon fill="midnightblue" stroke="midnightblue" points="119.56,-134.35 129.97,-136.33 123.06,-128.29 119.56,-134.35"/>
</g>
<!-- Node3&#45;&gt;Node3 -->
<g id="edge10" class="edge">
<title>Node3&#45;&gt;Node3</title>
<path fill="none" stroke="#9a32cd" stroke-dasharray="5,2" d="M179.92,-151.29C184.48,-150.39 187.5,-148.63 187.5,-146 187.5,-141.69 179.36,-139.7 169.67,-140.04"/>
<polygon fill="#9a32cd" stroke="#9a32cd" points="179.42,-147.82 169.67,-151.96 179.88,-154.8 179.42,-147.82"/>
<text text-anchor="middle" x="212.5" y="-143.5" font-family="Helvetica,sans-Serif" font-size="10.00"> called_by</text>
</g>
<!-- Node5 -->
<g id="node5" class="node">
<title>Node5</title>
<g id="a_node5"><a xlink:href="class_split_flow_visit__base.html" target="_top" xlink:title=" ">
<polygon fill="white" stroke="black" points="151.5,-0.5 151.5,-19.5 263.5,-19.5 263.5,-0.5 151.5,-0.5"/>
<text text-anchor="middle" x="207.5" y="-7.5" font-family="Helvetica,sans-Serif" font-size="10.00">SplitFlowVisit_base</text>
</a>
</g>
</g>
<!-- Node3&#45;&gt;Node5 -->
<g id="edge9" class="edge">
<title>Node3&#45;&gt;Node5</title>
<path fill="none" stroke="#9a32cd" stroke-dasharray="5,2" d="M133.16,-127.83C123.04,-111.48 111.98,-86.53 122.5,-67 135.24,-43.35 162.82,-28.04 183.12,-19.51"/>
<polygon fill="#9a32cd" stroke="#9a32cd" points="130.38,-129.97 138.83,-136.36 136.2,-126.1 130.38,-129.97"/>
<text text-anchor="middle" x="127.5" y="-75.5" font-family="Helvetica,sans-Serif" font-size="10.00"> v</text>
</g>
<!-- Node6 -->
<g id="node6" class="node">
<title>Node6</title>
<g id="a_node6"><a xlink:title=" ">
<polygon fill="white" stroke="#bfbfbf" points="142,-68.5 142,-87.5 273,-87.5 273,-68.5 142,-68.5"/>
<text text-anchor="middle" x="207.5" y="-75.5" font-family="Helvetica,sans-Serif" font-size="10.00">std::vector&lt; Visitor * &gt;</text>
</a>
</g>
</g>
<!-- Node3&#45;&gt;Node6 -->
<g id="edge8" class="edge">
<title>Node3&#45;&gt;Node6</title>
<path fill="none" stroke="#9a32cd" stroke-dasharray="5,2" d="M160.49,-129.05C172.64,-116.11 189.32,-98.36 199.19,-87.84"/>
<polygon fill="#9a32cd" stroke="#9a32cd" points="157.9,-126.69 153.61,-136.37 163,-131.48 157.9,-126.69"/>
<text text-anchor="middle" x="205" y="-110" font-family="Helvetica,sans-Serif" font-size="10.00"> elements</text>
</g>
<!-- Node4 -->
<g id="node4" class="node">
<title>Node4</title>
<g id="a_node4"><a xlink:href="classcstring.html" target="_top" xlink:title=" ">
<polygon fill="white" stroke="black" points="120.5,-204.5 120.5,-223.5 170.5,-223.5 170.5,-204.5 120.5,-204.5"/>
<text text-anchor="middle" x="145.5" y="-211.5" font-family="Helvetica,sans-Serif" font-size="10.00">cstring</text>
</a>
</g>
</g>
<!-- Node4&#45;&gt;Node3 -->
<g id="edge3" class="edge">
<title>Node4&#45;&gt;Node3</title>
<path fill="none" stroke="#9a32cd" stroke-dasharray="5,2" d="M145.5,-194.04C145.5,-181.47 145.5,-165.56 145.5,-155.84"/>
<polygon fill="#9a32cd" stroke="#9a32cd" points="142,-194.37 145.5,-204.37 149,-194.37 142,-194.37"/>
<text text-anchor="middle" x="180.5" y="-177" font-family="Helvetica,sans-Serif" font-size="10.00"> internalName</text>
</g>
<!-- Node4&#45;&gt;Node4 -->
<g id="edge4" class="edge">
<title>Node4&#45;&gt;Node4</title>
<path fill="none" stroke="#9a32cd" stroke-dasharray="5,2" d="M180.95,-219.58C185.5,-218.61 188.5,-216.75 188.5,-214 188.5,-209.48 180.41,-207.37 170.68,-207.65"/>
<polygon fill="#9a32cd" stroke="#9a32cd" points="180.39,-216.11 170.68,-220.35 180.91,-223.1 180.39,-216.11"/>
<text text-anchor="middle" x="208" y="-217" font-family="Helvetica,sans-Serif" font-size="10.00"> empty</text>
<text text-anchor="middle" x="208" y="-206" font-family="Helvetica,sans-Serif" font-size="10.00">newline</text>
</g>
<!-- Node5&#45;&gt;Node3 -->
<g id="edge5" class="edge">
<title>Node5&#45;&gt;Node3</title>
<path fill="none" stroke="#9a32cd" stroke-dasharray="5,2" d="M236.55,-24.16C263.57,-38.38 297.57,-62.58 282.5,-89 259.85,-128.73 202.46,-140.29 169.6,-143.64"/>
<polygon fill="#9a32cd" stroke="#9a32cd" points="237.88,-20.91 227.38,-19.56 234.75,-27.17 237.88,-20.91"/>
<text text-anchor="middle" x="323.5" y="-81" font-family="Helvetica,sans-Serif" font-size="10.00"> split_link</text>
<text text-anchor="middle" x="323.5" y="-70" font-family="Helvetica,sans-Serif" font-size="10.00">split_link_mem</text>
</g>
<!-- Node5&#45;&gt;Node5 -->
<g id="edge6" class="edge">
<title>Node5&#45;&gt;Node5</title>
<path fill="none" stroke="#9a32cd" stroke-dasharray="5,2" d="M273.9,-14.4C278.62,-13.4 281.5,-11.93 281.5,-10 281.5,-6.91 274.12,-5.01 263.65,-4.31"/>
<polygon fill="#9a32cd" stroke="#9a32cd" points="273.13,-10.97 263.65,-15.69 274.01,-17.91 273.13,-10.97"/>
<text text-anchor="middle" x="294" y="-7.5" font-family="Helvetica,sans-Serif" font-size="10.00"> prev</text>
</g>
<!-- Node6&#45;&gt;Node5 -->
<g id="edge7" class="edge">
<title>Node6&#45;&gt;Node5</title>
<path fill="none" stroke="#9a32cd" stroke-dasharray="5,2" d="M207.5,-58.04C207.5,-45.47 207.5,-29.56 207.5,-19.84"/>
<polygon fill="#9a32cd" stroke="#9a32cd" points="204,-58.37 207.5,-68.37 211,-58.37 204,-58.37"/>
<text text-anchor="middle" x="227.5" y="-41" font-family="Helvetica,sans-Serif" font-size="10.00"> visitors</text>
</g>
</g>
</svg>
