<?xml version="1.0" encoding="UTF-8" standalone="no"?>
<!DOCTYPE svg PUBLIC "-//W3C//DTD SVG 1.1//EN"
 "http://www.w3.org/Graphics/SVG/1.1/DTD/svg11.dtd">
<!-- Generated by graphviz version 2.43.0 (0)
 -->
<!-- Title: P4::SymbolicError Pages: 1 -->
<svg width="422pt" height="299pt"
 viewBox="0.00 0.00 422.00 299.00" xmlns="http://www.w3.org/2000/svg" xmlns:xlink="http://www.w3.org/1999/xlink">
<g id="graph0" class="graph" transform="scale(1 1) rotate(0) translate(4 295)">
<title>P4::SymbolicError</title>
<polygon fill="white" stroke="transparent" points="-4,4 -4,-295 418,-295 418,4 -4,4"/>
<!-- Node1 -->
<g id="node1" class="node">
<title>Node1</title>
<g id="a_node1"><a xlink:title=" ">
<polygon fill="#bfbfbf" stroke="black" points="49.5,-0.5 49.5,-19.5 152.5,-19.5 152.5,-0.5 49.5,-0.5"/>
<text text-anchor="middle" x="101" y="-7.5" font-family="Helvetica,sans-Serif" font-size="10.00">P4::SymbolicError</text>
</a>
</g>
</g>
<!-- Node2 -->
<g id="node2" class="node">
<title>Node2</title>
<g id="a_node2"><a xlink:href="class_p4_1_1_symbolic_value.html" target="_top" xlink:title=" ">
<polygon fill="white" stroke="black" points="8.5,-134.5 8.5,-153.5 115.5,-153.5 115.5,-134.5 8.5,-134.5"/>
<text text-anchor="middle" x="62" y="-141.5" font-family="Helvetica,sans-Serif" font-size="10.00">P4::SymbolicValue</text>
</a>
</g>
</g>
<!-- Node2&#45;&gt;Node1 -->
<g id="edge1" class="edge">
<title>Node2&#45;&gt;Node1</title>
<path fill="none" stroke="midnightblue" d="M67.42,-124.66C75.97,-95.73 92.25,-40.63 98.48,-19.52"/>
<polygon fill="midnightblue" stroke="midnightblue" points="64.04,-123.76 64.56,-134.34 70.75,-125.74 64.04,-123.76"/>
</g>
<!-- Node3 -->
<g id="node3" class="node">
<title>Node3</title>
<g id="a_node3"><a xlink:href="class_i_has_db_print.html" target="_top" xlink:title=" ">
<polygon fill="white" stroke="black" points="83,-213.5 83,-232.5 157,-232.5 157,-213.5 83,-213.5"/>
<text text-anchor="middle" x="120" y="-220.5" font-family="Helvetica,sans-Serif" font-size="10.00">IHasDbPrint</text>
</a>
</g>
</g>
<!-- Node3&#45;&gt;Node2 -->
<g id="edge2" class="edge">
<title>Node3&#45;&gt;Node2</title>
<path fill="none" stroke="midnightblue" d="M107.28,-205.12C95.37,-189.3 78.02,-166.27 68.64,-153.81"/>
<polygon fill="midnightblue" stroke="midnightblue" points="104.76,-207.58 113.57,-213.47 110.35,-203.37 104.76,-207.58"/>
</g>
<!-- Node7 -->
<g id="node7" class="node">
<title>Node7</title>
<g id="a_node7"><a xlink:href="class_i_r_1_1_i_node.html" target="_top" xlink:title=" ">
<polygon fill="white" stroke="black" points="133.5,-134.5 133.5,-153.5 194.5,-153.5 194.5,-134.5 133.5,-134.5"/>
<text text-anchor="middle" x="164" y="-141.5" font-family="Helvetica,sans-Serif" font-size="10.00">IR::INode</text>
</a>
</g>
</g>
<!-- Node3&#45;&gt;Node7 -->
<g id="edge8" class="edge">
<title>Node3&#45;&gt;Node7</title>
<path fill="none" stroke="midnightblue" d="M129.9,-204.67C138.93,-188.87 151.91,-166.16 158.97,-153.81"/>
<polygon fill="midnightblue" stroke="midnightblue" points="126.8,-203.05 124.88,-213.47 132.88,-206.52 126.8,-203.05"/>
</g>
<!-- Node4 -->
<g id="node4" class="node">
<title>Node4</title>
<g id="a_node4"><a xlink:href="class_i_castable.html" target="_top" xlink:title=" ">
<polygon fill="white" stroke="black" points="3,-213.5 3,-232.5 65,-232.5 65,-213.5 3,-213.5"/>
<text text-anchor="middle" x="34" y="-220.5" font-family="Helvetica,sans-Serif" font-size="10.00">ICastable</text>
</a>
</g>
</g>
<!-- Node4&#45;&gt;Node2 -->
<g id="edge3" class="edge">
<title>Node4&#45;&gt;Node2</title>
<path fill="none" stroke="midnightblue" d="M40.63,-203.77C46.36,-188.02 54.39,-165.92 58.8,-153.81"/>
<polygon fill="midnightblue" stroke="midnightblue" points="37.23,-202.87 37.1,-213.47 43.81,-205.26 37.23,-202.87"/>
</g>
<!-- Node4&#45;&gt;Node7 -->
<g id="edge9" class="edge">
<title>Node4&#45;&gt;Node7</title>
<path fill="none" stroke="midnightblue" d="M57.13,-208.3C83.89,-192.45 127.13,-166.84 149.53,-153.57"/>
<polygon fill="midnightblue" stroke="midnightblue" points="55.23,-205.36 48.41,-213.47 58.8,-211.38 55.23,-205.36"/>
</g>
<!-- Node5 -->
<g id="node5" class="node">
<title>Node5</title>
<g id="a_node5"><a xlink:href="struct_r_t_t_i_1_1_base.html" target="_top" xlink:title=" ">
<polygon fill="white" stroke="black" points="0,-271.5 0,-290.5 68,-290.5 68,-271.5 0,-271.5"/>
<text text-anchor="middle" x="34" y="-278.5" font-family="Helvetica,sans-Serif" font-size="10.00">RTTI::Base</text>
</a>
</g>
</g>
<!-- Node5&#45;&gt;Node4 -->
<g id="edge4" class="edge">
<title>Node5&#45;&gt;Node4</title>
<path fill="none" stroke="midnightblue" d="M34,-260.95C34,-251.29 34,-240.03 34,-232.51"/>
<polygon fill="midnightblue" stroke="midnightblue" points="30.5,-261.25 34,-271.25 37.5,-261.25 30.5,-261.25"/>
</g>
<!-- Node6 -->
<g id="node6" class="node">
<title>Node6</title>
<g id="a_node6"><a xlink:href="class_i_r_1_1_node.html" target="_top" xlink:title=" ">
<polygon fill="white" stroke="black" points="135,-67.5 135,-86.5 193,-86.5 193,-67.5 135,-67.5"/>
<text text-anchor="middle" x="164" y="-74.5" font-family="Helvetica,sans-Serif" font-size="10.00">IR::Node</text>
</a>
</g>
</g>
<!-- Node6&#45;&gt;Node1 -->
<g id="edge5" class="edge">
<title>Node6&#45;&gt;Node1</title>
<path fill="none" stroke="#9a32cd" stroke-dasharray="5,2" d="M148.49,-60C136.13,-47.25 119.31,-29.89 109.36,-19.63"/>
<polygon fill="#9a32cd" stroke="#9a32cd" points="146.03,-62.49 155.5,-67.23 151.06,-57.62 146.03,-62.49"/>
<text text-anchor="middle" x="170" y="-41" font-family="Helvetica,sans-Serif" font-size="10.00"> errorPosition</text>
</g>
<!-- Node7&#45;&gt;Node6 -->
<g id="edge6" class="edge">
<title>Node7&#45;&gt;Node6</title>
<path fill="none" stroke="midnightblue" d="M164,-124.04C164,-111.67 164,-96.12 164,-86.63"/>
<polygon fill="midnightblue" stroke="midnightblue" points="160.5,-124.23 164,-134.23 167.5,-124.23 160.5,-124.23"/>
</g>
<!-- Node8 -->
<g id="node8" class="node">
<title>Node8</title>
<g id="a_node8"><a xlink:href="class_util_1_1_i_has_source_info.html" target="_top" xlink:title=" ">
<polygon fill="white" stroke="black" points="175.5,-213.5 175.5,-232.5 288.5,-232.5 288.5,-213.5 175.5,-213.5"/>
<text text-anchor="middle" x="232" y="-220.5" font-family="Helvetica,sans-Serif" font-size="10.00">Util::IHasSourceInfo</text>
</a>
</g>
</g>
<!-- Node8&#45;&gt;Node7 -->
<g id="edge7" class="edge">
<title>Node8&#45;&gt;Node7</title>
<path fill="none" stroke="midnightblue" d="M217.48,-205.56C203.5,-189.73 182.89,-166.39 171.78,-153.81"/>
<polygon fill="midnightblue" stroke="midnightblue" points="215.22,-208.29 224.46,-213.47 220.47,-203.65 215.22,-208.29"/>
</g>
<!-- Node9 -->
<g id="node9" class="node">
<title>Node9</title>
<g id="a_node9"><a xlink:href="class_util_1_1_source_info.html" target="_top" xlink:title=" ">
<polygon fill="white" stroke="black" points="227,-134.5 227,-153.5 319,-153.5 319,-134.5 227,-134.5"/>
<text text-anchor="middle" x="273" y="-141.5" font-family="Helvetica,sans-Serif" font-size="10.00">Util::SourceInfo</text>
</a>
</g>
</g>
<!-- Node9&#45;&gt;Node6 -->
<g id="edge10" class="edge">
<title>Node9&#45;&gt;Node6</title>
<path fill="none" stroke="#9a32cd" stroke-dasharray="5,2" d="M249.43,-128.94C227.84,-116.07 196.58,-97.43 178.47,-86.63"/>
<polygon fill="#9a32cd" stroke="#9a32cd" points="247.92,-132.12 258.3,-134.23 251.5,-126.11 247.92,-132.12"/>
<text text-anchor="middle" x="244.5" y="-108" font-family="Helvetica,sans-Serif" font-size="10.00"> srcInfo</text>
</g>
<!-- Node10 -->
<g id="node10" class="node">
<title>Node10</title>
<g id="a_node10"><a xlink:href="classcstring.html" target="_top" xlink:title=" ">
<polygon fill="white" stroke="black" points="307,-213.5 307,-232.5 357,-232.5 357,-213.5 307,-213.5"/>
<text text-anchor="middle" x="332" y="-220.5" font-family="Helvetica,sans-Serif" font-size="10.00">cstring</text>
</a>
</g>
</g>
<!-- Node10&#45;&gt;Node9 -->
<g id="edge11" class="edge">
<title>Node10&#45;&gt;Node9</title>
<path fill="none" stroke="#9a32cd" stroke-dasharray="5,2" d="M319.06,-205.12C306.94,-189.3 289.3,-166.27 279.75,-153.81"/>
<polygon fill="#9a32cd" stroke="#9a32cd" points="316.6,-207.66 325.46,-213.47 322.16,-203.4 316.6,-207.66"/>
<text text-anchor="middle" x="332" y="-186" font-family="Helvetica,sans-Serif" font-size="10.00"> filename</text>
<text text-anchor="middle" x="332" y="-175" font-family="Helvetica,sans-Serif" font-size="10.00">srcBrief</text>
</g>
<!-- Node10&#45;&gt;Node10 -->
<g id="edge12" class="edge">
<title>Node10&#45;&gt;Node10</title>
<path fill="none" stroke="#9a32cd" stroke-dasharray="5,2" d="M367.45,-227.6C372,-226.8 375,-225.27 375,-223 375,-219.28 366.91,-217.54 357.18,-217.77"/>
<polygon fill="#9a32cd" stroke="#9a32cd" points="366.94,-224.12 357.18,-228.23 367.37,-231.11 366.94,-224.12"/>
<text text-anchor="middle" x="394.5" y="-226" font-family="Helvetica,sans-Serif" font-size="10.00"> empty</text>
<text text-anchor="middle" x="394.5" y="-215" font-family="Helvetica,sans-Serif" font-size="10.00">newline</text>
</g>
</g>
</svg>
