<?xml version="1.0" encoding="UTF-8" standalone="no"?>
<!DOCTYPE svg PUBLIC "-//W3C//DTD SVG 1.1//EN"
 "http://www.w3.org/Graphics/SVG/1.1/DTD/svg11.dtd">
<!-- Generated by graphviz version 2.43.0 (0)
 -->
<!-- Title: TypeCheck::InferExpressionsBottomUp Pages: 1 -->
<svg width="398pt" height="244pt"
 viewBox="0.00 0.00 398.00 244.00" xmlns="http://www.w3.org/2000/svg" xmlns:xlink="http://www.w3.org/1999/xlink">
<g id="graph0" class="graph" transform="scale(1 1) rotate(0) translate(4 240)">
<title>TypeCheck::InferExpressionsBottomUp</title>
<polygon fill="white" stroke="transparent" points="-4,4 -4,-240 394,-240 394,4 -4,4"/>
<!-- Node1 -->
<g id="node1" class="node">
<title>Node1</title>
<g id="a_node1"><a xlink:title="Bottom up type inferencing – set the types of expression nodes based on operands.">
<polygon fill="#bfbfbf" stroke="black" points="0,-0.5 0,-30.5 156,-30.5 156,-0.5 0,-0.5"/>
<text text-anchor="start" x="8" y="-18.5" font-family="Helvetica,sans-Serif" font-size="10.00">TypeCheck::InferExpressions</text>
<text text-anchor="middle" x="78" y="-7.5" font-family="Helvetica,sans-Serif" font-size="10.00">BottomUp</text>
</a>
</g>
</g>
<!-- Node2 -->
<g id="node2" class="node">
<title>Node2</title>
<g id="a_node2"><a xlink:href="class_modifier.html" target="_top" xlink:title=" ">
<polygon fill="white" stroke="black" points="50,-79.5 50,-98.5 106,-98.5 106,-79.5 50,-79.5"/>
<text text-anchor="middle" x="78" y="-86.5" font-family="Helvetica,sans-Serif" font-size="10.00">Modifier</text>
</a>
</g>
</g>
<!-- Node2&#45;&gt;Node1 -->
<g id="edge1" class="edge">
<title>Node2&#45;&gt;Node1</title>
<path fill="none" stroke="midnightblue" d="M78,-68.9C78,-56.82 78,-41.47 78,-30.51"/>
<polygon fill="midnightblue" stroke="midnightblue" points="74.5,-69.23 78,-79.23 81.5,-69.23 74.5,-69.23"/>
</g>
<!-- Node3 -->
<g id="node3" class="node">
<title>Node3</title>
<g id="a_node3"><a xlink:href="class_visitor.html" target="_top" xlink:title=" ">
<polygon fill="white" stroke="black" points="150,-147.5 150,-166.5 198,-166.5 198,-147.5 150,-147.5"/>
<text text-anchor="middle" x="174" y="-154.5" font-family="Helvetica,sans-Serif" font-size="10.00">Visitor</text>
</a>
</g>
</g>
<!-- Node3&#45;&gt;Node2 -->
<g id="edge2" class="edge">
<title>Node3&#45;&gt;Node2</title>
<path fill="none" stroke="midnightblue" d="M149.28,-142.29C142.28,-138.2 134.74,-133.58 128,-129 113.79,-119.35 98.33,-106.98 88.42,-98.79"/>
<polygon fill="midnightblue" stroke="midnightblue" points="147.94,-145.56 158.35,-147.49 151.42,-139.49 147.94,-145.56"/>
</g>
<!-- Node3&#45;&gt;Node3 -->
<g id="edge10" class="edge">
<title>Node3&#45;&gt;Node3</title>
<path fill="none" stroke="#9a32cd" stroke-dasharray="5,2" d="M208.42,-162.29C212.98,-161.39 216,-159.63 216,-157 216,-152.69 207.86,-150.7 198.17,-151.04"/>
<polygon fill="#9a32cd" stroke="#9a32cd" points="207.92,-158.82 198.17,-162.96 208.38,-165.8 207.92,-158.82"/>
<text text-anchor="middle" x="241" y="-154.5" font-family="Helvetica,sans-Serif" font-size="10.00"> called_by</text>
</g>
<!-- Node5 -->
<g id="node5" class="node">
<title>Node5</title>
<g id="a_node5"><a xlink:href="class_split_flow_visit__base.html" target="_top" xlink:title=" ">
<polygon fill="white" stroke="black" points="180,-6 180,-25 292,-25 292,-6 180,-6"/>
<text text-anchor="middle" x="236" y="-13" font-family="Helvetica,sans-Serif" font-size="10.00">SplitFlowVisit_base</text>
</a>
</g>
</g>
<!-- Node3&#45;&gt;Node5 -->
<g id="edge9" class="edge">
<title>Node3&#45;&gt;Node5</title>
<path fill="none" stroke="#9a32cd" stroke-dasharray="5,2" d="M161.85,-138.93C151.87,-122.65 140.91,-97.76 151,-78 164.26,-52.05 194.15,-34.51 214.7,-25.01"/>
<polygon fill="#9a32cd" stroke="#9a32cd" points="159.01,-140.99 167.44,-147.42 164.86,-137.14 159.01,-140.99"/>
<text text-anchor="middle" x="156" y="-86.5" font-family="Helvetica,sans-Serif" font-size="10.00"> v</text>
</g>
<!-- Node6 -->
<g id="node6" class="node">
<title>Node6</title>
<g id="a_node6"><a xlink:title=" ">
<polygon fill="white" stroke="#bfbfbf" points="170.5,-79.5 170.5,-98.5 301.5,-98.5 301.5,-79.5 170.5,-79.5"/>
<text text-anchor="middle" x="236" y="-86.5" font-family="Helvetica,sans-Serif" font-size="10.00">std::vector&lt; Visitor * &gt;</text>
</a>
</g>
</g>
<!-- Node3&#45;&gt;Node6 -->
<g id="edge8" class="edge">
<title>Node3&#45;&gt;Node6</title>
<path fill="none" stroke="#9a32cd" stroke-dasharray="5,2" d="M188.99,-140.05C201.14,-127.11 217.82,-109.36 227.69,-98.84"/>
<polygon fill="#9a32cd" stroke="#9a32cd" points="186.4,-137.69 182.11,-147.37 191.5,-142.48 186.4,-137.69"/>
<text text-anchor="middle" x="233.5" y="-121" font-family="Helvetica,sans-Serif" font-size="10.00"> elements</text>
</g>
<!-- Node4 -->
<g id="node4" class="node">
<title>Node4</title>
<g id="a_node4"><a xlink:href="classcstring.html" target="_top" xlink:title=" ">
<polygon fill="white" stroke="black" points="149,-215.5 149,-234.5 199,-234.5 199,-215.5 149,-215.5"/>
<text text-anchor="middle" x="174" y="-222.5" font-family="Helvetica,sans-Serif" font-size="10.00">cstring</text>
</a>
</g>
</g>
<!-- Node4&#45;&gt;Node3 -->
<g id="edge3" class="edge">
<title>Node4&#45;&gt;Node3</title>
<path fill="none" stroke="#9a32cd" stroke-dasharray="5,2" d="M174,-205.04C174,-192.47 174,-176.56 174,-166.84"/>
<polygon fill="#9a32cd" stroke="#9a32cd" points="170.5,-205.37 174,-215.37 177.5,-205.37 170.5,-205.37"/>
<text text-anchor="middle" x="209" y="-188" font-family="Helvetica,sans-Serif" font-size="10.00"> internalName</text>
</g>
<!-- Node4&#45;&gt;Node4 -->
<g id="edge4" class="edge">
<title>Node4&#45;&gt;Node4</title>
<path fill="none" stroke="#9a32cd" stroke-dasharray="5,2" d="M209.45,-230.58C214,-229.61 217,-227.75 217,-225 217,-220.48 208.91,-218.37 199.18,-218.65"/>
<polygon fill="#9a32cd" stroke="#9a32cd" points="208.89,-227.11 199.18,-231.35 209.41,-234.1 208.89,-227.11"/>
<text text-anchor="middle" x="236.5" y="-228" font-family="Helvetica,sans-Serif" font-size="10.00"> empty</text>
<text text-anchor="middle" x="236.5" y="-217" font-family="Helvetica,sans-Serif" font-size="10.00">newline</text>
</g>
<!-- Node5&#45;&gt;Node3 -->
<g id="edge5" class="edge">
<title>Node5&#45;&gt;Node3</title>
<path fill="none" stroke="#9a32cd" stroke-dasharray="5,2" d="M263.57,-29.98C291.03,-45.35 326.96,-72.02 311,-100 288.35,-139.73 230.96,-151.29 198.1,-154.64"/>
<polygon fill="#9a32cd" stroke="#9a32cd" points="265.14,-26.85 254.68,-25.21 261.84,-33.02 265.14,-26.85"/>
<text text-anchor="middle" x="352" y="-92" font-family="Helvetica,sans-Serif" font-size="10.00"> split_link</text>
<text text-anchor="middle" x="352" y="-81" font-family="Helvetica,sans-Serif" font-size="10.00">split_link_mem</text>
</g>
<!-- Node5&#45;&gt;Node5 -->
<g id="edge6" class="edge">
<title>Node5&#45;&gt;Node5</title>
<path fill="none" stroke="#9a32cd" stroke-dasharray="5,2" d="M302.04,-20.81C306.97,-19.62 310,-17.85 310,-15.5 310,-11.83 302.62,-9.57 292.15,-8.74"/>
<polygon fill="#9a32cd" stroke="#9a32cd" points="301.53,-17.35 292.15,-22.26 302.55,-24.27 301.53,-17.35"/>
<text text-anchor="middle" x="322.5" y="-13" font-family="Helvetica,sans-Serif" font-size="10.00"> prev</text>
</g>
<!-- Node6&#45;&gt;Node5 -->
<g id="edge7" class="edge">
<title>Node6&#45;&gt;Node5</title>
<path fill="none" stroke="#9a32cd" stroke-dasharray="5,2" d="M236,-69.09C236,-54.93 236,-36.2 236,-25.34"/>
<polygon fill="#9a32cd" stroke="#9a32cd" points="232.5,-69.23 236,-79.23 239.5,-69.23 232.5,-69.23"/>
<text text-anchor="middle" x="256" y="-52" font-family="Helvetica,sans-Serif" font-size="10.00"> visitors</text>
</g>
</g>
</svg>
