<?xml version="1.0" encoding="UTF-8" standalone="no"?>
<!DOCTYPE svg PUBLIC "-//W3C//DTD SVG 1.1//EN"
 "http://www.w3.org/Graphics/SVG/1.1/DTD/svg11.dtd">
<!-- Generated by graphviz version 2.43.0 (0)
 -->
<!-- Title: P4Tools::P4Testgen::TestgenOptions Pages: 1 -->
<svg width="1573pt" height="410pt"
 viewBox="0.00 0.00 1573.00 409.50" xmlns="http://www.w3.org/2000/svg" xmlns:xlink="http://www.w3.org/1999/xlink">
<g id="graph0" class="graph" transform="scale(1 1) rotate(0) translate(4 405.5)">
<title>P4Tools::P4Testgen::TestgenOptions</title>
<polygon fill="white" stroke="transparent" points="-4,4 -4,-405.5 1569,-405.5 1569,4 -4,4"/>
<!-- Node1 -->
<g id="node1" class="node">
<title>Node1</title>
<g id="a_node1"><a xlink:title="Encapsulates and processes command&#45;line options for P4Testgen.">
<polygon fill="#bfbfbf" stroke="black" points="1456,-229.5 1456,-259.5 1565,-259.5 1565,-229.5 1456,-229.5"/>
<text text-anchor="start" x="1464" y="-247.5" font-family="Helvetica,sans-Serif" font-size="10.00">P4Tools::P4Testgen</text>
<text text-anchor="middle" x="1510.5" y="-236.5" font-family="Helvetica,sans-Serif" font-size="10.00">::TestgenOptions</text>
</a>
</g>
</g>
<!-- Node2 -->
<g id="node2" class="node">
<title>Node2</title>
<g id="a_node2"><a xlink:href="class_p4_tools_1_1_abstract_p4c_tool_options.html" target="_top" xlink:title=" ">
<polygon fill="white" stroke="black" points="1159,-158.5 1159,-188.5 1296,-188.5 1296,-158.5 1159,-158.5"/>
<text text-anchor="start" x="1167" y="-176.5" font-family="Helvetica,sans-Serif" font-size="10.00">P4Tools::AbstractP4cTool</text>
<text text-anchor="middle" x="1227.5" y="-165.5" font-family="Helvetica,sans-Serif" font-size="10.00">Options</text>
</a>
</g>
</g>
<!-- Node2&#45;&gt;Node1 -->
<g id="edge1" class="edge">
<title>Node2&#45;&gt;Node1</title>
<path fill="none" stroke="midnightblue" d="M1306.12,-190.32C1345.75,-199.24 1394.62,-210.77 1438,-222.5 1445.9,-224.64 1454.24,-227.05 1462.33,-229.48"/>
<polygon fill="midnightblue" stroke="midnightblue" points="1306.78,-186.88 1296.26,-188.11 1305.25,-193.71 1306.78,-186.88"/>
</g>
<!-- Node3 -->
<g id="node3" class="node">
<title>Node3</title>
<g id="a_node3"><a xlink:href="class_util_1_1_options.html" target="_top" xlink:title=" ">
<polygon fill="white" stroke="black" points="873.5,-168 873.5,-187 950.5,-187 950.5,-168 873.5,-168"/>
<text text-anchor="middle" x="912" y="-175" font-family="Helvetica,sans-Serif" font-size="10.00">Util::Options</text>
</a>
</g>
</g>
<!-- Node3&#45;&gt;Node2 -->
<g id="edge2" class="edge">
<title>Node3&#45;&gt;Node2</title>
<path fill="none" stroke="darkgreen" d="M960.61,-176.89C1013.38,-176.22 1098.94,-175.13 1158.71,-174.36"/>
<polygon fill="darkgreen" stroke="darkgreen" points="960.46,-173.39 950.5,-177.02 960.55,-180.39 960.46,-173.39"/>
</g>
<!-- Node4 -->
<g id="node4" class="node">
<title>Node4</title>
<g id="a_node4"><a xlink:title=" ">
<polygon fill="white" stroke="#bfbfbf" points="606,-140 606,-181 716,-181 716,-140 606,-140"/>
<text text-anchor="start" x="614" y="-169" font-family="Helvetica,sans-Serif" font-size="10.00">std::map&lt; cstring,</text>
<text text-anchor="start" x="614" y="-158" font-family="Helvetica,sans-Serif" font-size="10.00"> const Util::Options</text>
<text text-anchor="middle" x="661" y="-147" font-family="Helvetica,sans-Serif" font-size="10.00">::Option * &gt;</text>
</a>
</g>
</g>
<!-- Node4&#45;&gt;Node3 -->
<g id="edge3" class="edge">
<title>Node4&#45;&gt;Node3</title>
<path fill="none" stroke="#9a32cd" stroke-dasharray="5,2" d="M726.04,-164.87C772.68,-168.06 834.26,-172.26 873.26,-174.92"/>
<polygon fill="#9a32cd" stroke="#9a32cd" points="726.24,-161.38 716.03,-164.19 725.77,-168.36 726.24,-161.38"/>
<text text-anchor="middle" x="788" y="-174.5" font-family="Helvetica,sans-Serif" font-size="10.00"> options</text>
</g>
<!-- Node5 -->
<g id="node5" class="node">
<title>Node5</title>
<g id="a_node5"><a xlink:href="classcstring.html" target="_top" xlink:title=" ">
<polygon fill="white" stroke="black" points="156,-228 156,-247 206,-247 206,-228 156,-228"/>
<text text-anchor="middle" x="181" y="-235" font-family="Helvetica,sans-Serif" font-size="10.00">cstring</text>
</a>
</g>
</g>
<!-- Node5&#45;&gt;Node1 -->
<g id="edge18" class="edge">
<title>Node5&#45;&gt;Node1</title>
<path fill="none" stroke="#9a32cd" stroke-dasharray="5,2" d="M207.8,-251.79C245.83,-271.46 319.69,-304.5 387,-304.5 387,-304.5 387,-304.5 1228.5,-304.5 1322.69,-304.5 1347.03,-296.93 1438,-272.5 1450.49,-269.15 1463.78,-264.31 1475.47,-259.6"/>
<polygon fill="#9a32cd" stroke="#9a32cd" points="209.41,-248.68 198.93,-247.1 206.14,-254.87 209.41,-248.68"/>
<text text-anchor="middle" x="788" y="-318.5" font-family="Helvetica,sans-Serif" font-size="10.00"> stopMetric</text>
<text text-anchor="middle" x="788" y="-307.5" font-family="Helvetica,sans-Serif" font-size="10.00">testBackend</text>
</g>
<!-- Node5&#45;&gt;Node3 -->
<g id="edge9" class="edge">
<title>Node5&#45;&gt;Node3</title>
<path fill="none" stroke="#9a32cd" stroke-dasharray="5,2" d="M216.09,-240.07C230.55,-241.04 247.59,-242.02 263,-242.5 284.77,-243.17 290.22,-242.82 312,-242.5 491.71,-239.9 537.43,-244.91 716,-224.5 772.27,-218.07 787.38,-220.47 842,-205.5 858.96,-200.85 877.37,-193.24 890.91,-187.12"/>
<polygon fill="#9a32cd" stroke="#9a32cd" points="216.3,-236.58 206.08,-239.38 215.82,-243.56 216.3,-236.58"/>
<text text-anchor="middle" x="526" y="-265.5" font-family="Helvetica,sans-Serif" font-size="10.00"> buildDate</text>
<text text-anchor="middle" x="526" y="-254.5" font-family="Helvetica,sans-Serif" font-size="10.00">compileCommand</text>
<text text-anchor="middle" x="526" y="-243.5" font-family="Helvetica,sans-Serif" font-size="10.00">message</text>
</g>
<!-- Node5&#45;&gt;Node4 -->
<g id="edge4" class="edge">
<title>Node5&#45;&gt;Node4</title>
<path fill="none" stroke="#9a32cd" stroke-dasharray="5,2" d="M216.17,-229.32C246.07,-222.36 290.74,-212.41 330,-205.5 426.67,-188.48 540.23,-174.25 605.78,-166.59"/>
<polygon fill="#9a32cd" stroke="#9a32cd" points="215.18,-225.96 206.24,-231.65 216.78,-232.78 215.18,-225.96"/>
<text text-anchor="middle" x="388" y="-208.5" font-family="Helvetica,sans-Serif" font-size="10.00"> keys</text>
</g>
<!-- Node5&#45;&gt;Node5 -->
<g id="edge5" class="edge">
<title>Node5&#45;&gt;Node5</title>
<path fill="none" stroke="#9a32cd" stroke-dasharray="5,2" d="M165.9,-257.27C167.09,-262 172.12,-265.5 181,-265.5 195.57,-265.5 199.79,-256.07 193.64,-247.26"/>
<polygon fill="#9a32cd" stroke="#9a32cd" points="169.37,-257.8 168.36,-247.26 162.57,-256.13 169.37,-257.8"/>
<text text-anchor="middle" x="181" y="-279.5" font-family="Helvetica,sans-Serif" font-size="10.00"> empty</text>
<text text-anchor="middle" x="181" y="-268.5" font-family="Helvetica,sans-Serif" font-size="10.00">newline</text>
</g>
<!-- Node6 -->
<g id="node6" class="node">
<title>Node6</title>
<g id="a_node6"><a xlink:href="class_util_1_1_options.html#struct_util_1_1_options_1_1_option" target="_top" xlink:title=" ">
<polygon fill="white" stroke="black" points="330,-124 330,-143 446,-143 446,-124 330,-124"/>
<text text-anchor="middle" x="388" y="-131" font-family="Helvetica,sans-Serif" font-size="10.00">Util::Options::Option</text>
</a>
</g>
</g>
<!-- Node5&#45;&gt;Node6 -->
<g id="edge7" class="edge">
<title>Node5&#45;&gt;Node6</title>
<path fill="none" stroke="#9a32cd" stroke-dasharray="5,2" d="M194.08,-219.6C208.2,-200.22 233.44,-169.99 263,-154.5 283.4,-143.81 308.05,-138.36 329.98,-135.65"/>
<polygon fill="#9a32cd" stroke="#9a32cd" points="191.14,-217.71 188.24,-227.9 196.86,-221.74 191.14,-217.71"/>
<text text-anchor="middle" x="287.5" y="-157.5" font-family="Helvetica,sans-Serif" font-size="10.00"> option</text>
</g>
<!-- Node8 -->
<g id="node8" class="node">
<title>Node8</title>
<g id="a_node8"><a xlink:title=" ">
<polygon fill="white" stroke="#bfbfbf" points="464,-208 464,-227 588,-227 588,-208 464,-208"/>
<text text-anchor="middle" x="526" y="-215" font-family="Helvetica,sans-Serif" font-size="10.00">std::vector&lt; cstring &gt;</text>
</a>
</g>
</g>
<!-- Node5&#45;&gt;Node8 -->
<g id="edge11" class="edge">
<title>Node5&#45;&gt;Node8</title>
<path fill="none" stroke="#9a32cd" stroke-dasharray="5,2" d="M216.1,-234.82C230.56,-233.72 247.6,-232.48 263,-231.5 331.76,-227.12 410.72,-223.03 463.84,-220.41"/>
<polygon fill="#9a32cd" stroke="#9a32cd" points="215.8,-231.33 206.09,-235.59 216.33,-238.31 215.8,-231.33"/>
<text text-anchor="middle" x="287.5" y="-234.5" font-family="Helvetica,sans-Serif" font-size="10.00"> elements</text>
</g>
<!-- Node17 -->
<g id="node17" class="node">
<title>Node17</title>
<g id="a_node17"><a xlink:title=" ">
<polygon fill="white" stroke="#bfbfbf" points="734,-339 734,-358 842,-358 842,-339 734,-339"/>
<text text-anchor="middle" x="788" y="-346" font-family="Helvetica,sans-Serif" font-size="10.00">std::set&lt; cstring &gt;</text>
</a>
</g>
</g>
<!-- Node5&#45;&gt;Node17 -->
<g id="edge23" class="edge">
<title>Node5&#45;&gt;Node17</title>
<path fill="none" stroke="#9a32cd" stroke-dasharray="5,2" d="M193.89,-255.58C207.83,-275.04 232.92,-305.02 263,-318.5 422.03,-389.77 635.9,-371.29 733.91,-357.39"/>
<polygon fill="#9a32cd" stroke="#9a32cd" points="196.68,-253.47 188.12,-247.23 190.92,-257.45 196.68,-253.47"/>
<text text-anchor="middle" x="388" y="-367.5" font-family="Helvetica,sans-Serif" font-size="10.00"> keys</text>
</g>
<!-- Node6&#45;&gt;Node4 -->
<g id="edge6" class="edge">
<title>Node6&#45;&gt;Node4</title>
<path fill="none" stroke="#9a32cd" stroke-dasharray="5,2" d="M456.34,-140.21C502.41,-144.8 562.71,-150.81 605.71,-155.09"/>
<polygon fill="#9a32cd" stroke="#9a32cd" points="456.44,-136.7 446.14,-139.19 455.74,-143.67 456.44,-136.7"/>
<text text-anchor="middle" x="526" y="-155.5" font-family="Helvetica,sans-Serif" font-size="10.00"> elements</text>
</g>
<!-- Node7 -->
<g id="node7" class="node">
<title>Node7</title>
<g id="a_node7"><a xlink:title=" ">
<polygon fill="white" stroke="#bfbfbf" points="608,-52.5 608,-82.5 714,-82.5 714,-52.5 608,-52.5"/>
<text text-anchor="start" x="616" y="-70.5" font-family="Helvetica,sans-Serif" font-size="10.00">std::vector&lt; const</text>
<text text-anchor="middle" x="661" y="-59.5" font-family="Helvetica,sans-Serif" font-size="10.00"> char * &gt;</text>
</a>
</g>
</g>
<!-- Node7&#45;&gt;Node2 -->
<g id="edge16" class="edge">
<title>Node7&#45;&gt;Node2</title>
<path fill="none" stroke="#9a32cd" stroke-dasharray="5,2" d="M724.26,-69.93C759.05,-71.89 803.11,-75.37 842,-81.5 962.86,-100.54 1101.82,-137.67 1175.09,-158.46"/>
<polygon fill="#9a32cd" stroke="#9a32cd" points="724.41,-66.43 714.24,-69.39 724.04,-73.42 724.41,-66.43"/>
<text text-anchor="middle" x="912" y="-106.5" font-family="Helvetica,sans-Serif" font-size="10.00"> compilerArgs</text>
</g>
<!-- Node7&#45;&gt;Node3 -->
<g id="edge8" class="edge">
<title>Node7&#45;&gt;Node3</title>
<path fill="none" stroke="#9a32cd" stroke-dasharray="5,2" d="M724.36,-77.23C774.25,-85.17 836.75,-95.55 842,-98.5 872.17,-115.44 895.56,-150.75 905.62,-167.83"/>
<polygon fill="#9a32cd" stroke="#9a32cd" points="724.67,-73.73 714.25,-75.62 723.57,-80.65 724.67,-73.73"/>
<text text-anchor="middle" x="788" y="-112.5" font-family="Helvetica,sans-Serif" font-size="10.00"> additionalUsage</text>
<text text-anchor="middle" x="788" y="-101.5" font-family="Helvetica,sans-Serif" font-size="10.00">remainingOptions</text>
</g>
<!-- Node8&#45;&gt;Node3 -->
<g id="edge10" class="edge">
<title>Node8&#45;&gt;Node3</title>
<path fill="none" stroke="#9a32cd" stroke-dasharray="5,2" d="M598,-211.16C661.89,-205.3 758.31,-196.07 842,-186.5 852.2,-185.33 863.24,-183.95 873.43,-182.62"/>
<polygon fill="#9a32cd" stroke="#9a32cd" points="597.68,-207.67 588.04,-212.07 598.31,-214.64 597.68,-207.67"/>
<text text-anchor="middle" x="661" y="-212.5" font-family="Helvetica,sans-Serif" font-size="10.00"> optionOrder</text>
</g>
<!-- Node9 -->
<g id="node9" class="node">
<title>Node9</title>
<g id="a_node9"><a xlink:title=" ">
<polygon fill="white" stroke="#bfbfbf" points="622,-102 622,-121 700,-121 700,-102 622,-102"/>
<text text-anchor="middle" x="661" y="-109" font-family="Helvetica,sans-Serif" font-size="10.00">std::ostream</text>
</a>
</g>
</g>
<!-- Node9&#45;&gt;Node3 -->
<g id="edge12" class="edge">
<title>Node9&#45;&gt;Node3</title>
<path fill="none" stroke="#9a32cd" stroke-dasharray="5,2" d="M709.93,-119.73C746.5,-126.52 797.93,-137.2 842,-150.5 858.13,-155.37 875.82,-162.33 889.25,-167.96"/>
<polygon fill="#9a32cd" stroke="#9a32cd" points="710.49,-116.27 700.03,-117.91 709.23,-123.16 710.49,-116.27"/>
<text text-anchor="middle" x="788" y="-153.5" font-family="Helvetica,sans-Serif" font-size="10.00"> outStream</text>
</g>
<!-- Node10 -->
<g id="node10" class="node">
<title>Node10</title>
<g id="a_node10"><a xlink:title=" ">
<polygon fill="white" stroke="#bfbfbf" points="333.5,-74.5 333.5,-104.5 442.5,-104.5 442.5,-74.5 333.5,-74.5"/>
<text text-anchor="start" x="341.5" y="-92.5" font-family="Helvetica,sans-Serif" font-size="10.00">std::basic_ostream</text>
<text text-anchor="middle" x="388" y="-81.5" font-family="Helvetica,sans-Serif" font-size="10.00">&lt; Char &gt;</text>
</a>
</g>
</g>
<!-- Node10&#45;&gt;Node9 -->
<g id="edge13" class="edge">
<title>Node10&#45;&gt;Node9</title>
<path fill="none" stroke="midnightblue" d="M452.76,-94.68C505.27,-98.94 577.99,-104.84 621.86,-108.4"/>
<polygon fill="midnightblue" stroke="midnightblue" points="452.79,-91.17 442.54,-93.85 452.22,-98.14 452.79,-91.17"/>
</g>
<!-- Node11 -->
<g id="node11" class="node">
<title>Node11</title>
<g id="a_node11"><a xlink:title=" ">
<polygon fill="white" stroke="#bfbfbf" points="117,-80 117,-99 245,-99 245,-80 117,-80"/>
<text text-anchor="middle" x="181" y="-87" font-family="Helvetica,sans-Serif" font-size="10.00">std::basic_ios&lt; Char &gt;</text>
</a>
</g>
</g>
<!-- Node11&#45;&gt;Node10 -->
<g id="edge14" class="edge">
<title>Node11&#45;&gt;Node10</title>
<path fill="none" stroke="midnightblue" d="M255.28,-89.5C281.05,-89.5 309.51,-89.5 333.36,-89.5"/>
<polygon fill="midnightblue" stroke="midnightblue" points="255.18,-86 245.18,-89.5 255.18,-93 255.18,-86"/>
</g>
<!-- Node12 -->
<g id="node12" class="node">
<title>Node12</title>
<g id="a_node12"><a xlink:title=" ">
<polygon fill="white" stroke="#bfbfbf" points="0,-80 0,-99 80,-99 80,-80 0,-80"/>
<text text-anchor="middle" x="40" y="-87" font-family="Helvetica,sans-Serif" font-size="10.00">std::ios_base</text>
</a>
</g>
</g>
<!-- Node12&#45;&gt;Node11 -->
<g id="edge15" class="edge">
<title>Node12&#45;&gt;Node11</title>
<path fill="none" stroke="midnightblue" d="M90.28,-89.5C98.85,-89.5 107.87,-89.5 116.75,-89.5"/>
<polygon fill="midnightblue" stroke="midnightblue" points="90.09,-86 80.09,-89.5 90.09,-93 90.09,-86"/>
</g>
<!-- Node13 -->
<g id="node13" class="node">
<title>Node13</title>
<g id="a_node13"><a xlink:href="namespace_p4_1_1_coverage.html#struct_p4_1_1_coverage_1_1_coverage_options" target="_top" xlink:title="Specifies general options and which IR nodes to track with this particular visitor.">
<polygon fill="white" stroke="black" points="1142,-257 1142,-276 1313,-276 1313,-257 1142,-257"/>
<text text-anchor="middle" x="1227.5" y="-264" font-family="Helvetica,sans-Serif" font-size="10.00">P4::Coverage::CoverageOptions</text>
</a>
</g>
</g>
<!-- Node13&#45;&gt;Node1 -->
<g id="edge17" class="edge">
<title>Node13&#45;&gt;Node1</title>
<path fill="none" stroke="#9a32cd" stroke-dasharray="5,2" d="M1323.39,-259.07C1367.59,-255.61 1418.55,-251.62 1455.96,-248.69"/>
<polygon fill="#9a32cd" stroke="#9a32cd" points="1322.89,-255.6 1313.19,-259.87 1323.43,-262.58 1322.89,-255.6"/>
<text text-anchor="middle" x="1384.5" y="-260.5" font-family="Helvetica,sans-Serif" font-size="10.00"> coverageOptions</text>
</g>
<!-- Node14 -->
<g id="node14" class="node">
<title>Node14</title>
<g id="a_node14"><a xlink:title=" ">
<polygon fill="white" stroke="#bfbfbf" points="1168,-207.5 1168,-237.5 1287,-237.5 1287,-207.5 1168,-207.5"/>
<text text-anchor="start" x="1176" y="-225.5" font-family="Helvetica,sans-Serif" font-size="10.00">std::vector&lt; std::pair</text>
<text text-anchor="middle" x="1227.5" y="-214.5" font-family="Helvetica,sans-Serif" font-size="10.00">&lt; int, int &gt; &gt;</text>
</a>
</g>
</g>
<!-- Node14&#45;&gt;Node1 -->
<g id="edge19" class="edge">
<title>Node14&#45;&gt;Node1</title>
<path fill="none" stroke="#9a32cd" stroke-dasharray="5,2" d="M1297.43,-225.03C1338.35,-226.88 1391.21,-229.9 1438,-234.5 1443.74,-235.06 1449.72,-235.75 1455.68,-236.49"/>
<polygon fill="#9a32cd" stroke="#9a32cd" points="1297.44,-221.53 1287.3,-224.58 1297.13,-228.52 1297.44,-221.53"/>
<text text-anchor="middle" x="1384.5" y="-237.5" font-family="Helvetica,sans-Serif" font-size="10.00"> permittedPortRanges</text>
</g>
<!-- Node15 -->
<g id="node15" class="node">
<title>Node15</title>
<g id="a_node15"><a xlink:title=" ">
<polygon fill="white" stroke="#bfbfbf" points="1195,-63 1195,-82 1260,-82 1260,-63 1195,-63"/>
<text text-anchor="middle" x="1227.5" y="-70" font-family="Helvetica,sans-Serif" font-size="10.00">std::string</text>
</a>
</g>
</g>
<!-- Node15&#45;&gt;Node1 -->
<g id="edge20" class="edge">
<title>Node15&#45;&gt;Node1</title>
<path fill="none" stroke="#9a32cd" stroke-dasharray="5,2" d="M1266.71,-85.54C1310.5,-101.54 1383.28,-131.43 1438,-170.5 1461.84,-187.52 1484.48,-213.11 1497.67,-229.29"/>
<polygon fill="#9a32cd" stroke="#9a32cd" points="1267.62,-82.15 1257.03,-82.05 1265.25,-88.73 1267.62,-82.15"/>
<text text-anchor="middle" x="1384.5" y="-184.5" font-family="Helvetica,sans-Serif" font-size="10.00"> pattern</text>
<text text-anchor="middle" x="1384.5" y="-173.5" font-family="Helvetica,sans-Serif" font-size="10.00">selectedBranches</text>
</g>
<!-- Node16 -->
<g id="node16" class="node">
<title>Node16</title>
<g id="a_node16"><a xlink:title=" ">
<polygon fill="white" stroke="#bfbfbf" points="860,-0.5 860,-30.5 964,-30.5 964,-0.5 860,-0.5"/>
<text text-anchor="start" x="868" y="-18.5" font-family="Helvetica,sans-Serif" font-size="10.00">std::basic_string&lt;</text>
<text text-anchor="middle" x="912" y="-7.5" font-family="Helvetica,sans-Serif" font-size="10.00"> Char &gt;</text>
</a>
</g>
</g>
<!-- Node16&#45;&gt;Node15 -->
<g id="edge21" class="edge">
<title>Node16&#45;&gt;Node15</title>
<path fill="none" stroke="midnightblue" d="M974.28,-26.45C1016.4,-34 1073.6,-44.29 1124,-53.5 1147.68,-57.83 1174.42,-62.79 1194.65,-66.55"/>
<polygon fill="midnightblue" stroke="midnightblue" points="974.64,-22.96 964.18,-24.64 973.4,-29.85 974.64,-22.96"/>
</g>
<!-- Node17&#45;&gt;Node1 -->
<g id="edge22" class="edge">
<title>Node17&#45;&gt;Node1</title>
<path fill="none" stroke="#9a32cd" stroke-dasharray="5,2" d="M848.17,-359.68C966.42,-379.12 1237.75,-408.98 1438,-318.5 1465.68,-306 1488.12,-277.47 1500.08,-259.71"/>
<polygon fill="#9a32cd" stroke="#9a32cd" points="848.67,-356.22 838.23,-358.01 847.51,-363.12 848.67,-356.22"/>
<text text-anchor="middle" x="1053" y="-393.5" font-family="Helvetica,sans-Serif" font-size="10.00"> SUPPORTED_STOP_METRICS</text>
<text text-anchor="middle" x="1053" y="-382.5" font-family="Helvetica,sans-Serif" font-size="10.00">skippedControlPlaneEntities</text>
</g>
</g>
</svg>
