<?xml version="1.0" encoding="UTF-8" standalone="no"?>
<!DOCTYPE svg PUBLIC "-//W3C//DTD SVG 1.1//EN"
 "http://www.w3.org/Graphics/SVG/1.1/DTD/svg11.dtd">
<!-- Generated by graphviz version 2.43.0 (0)
 -->
<!-- Title: P4::DoSynthesizeActions Pages: 1 -->
<svg width="394pt" height="233pt"
 viewBox="0.00 0.00 393.50 233.00" xmlns="http://www.w3.org/2000/svg" xmlns:xlink="http://www.w3.org/1999/xlink">
<g id="graph0" class="graph" transform="scale(1 1) rotate(0) translate(4 229)">
<title>P4::DoSynthesizeActions</title>
<polygon fill="white" stroke="transparent" points="-4,4 -4,-229 389.5,-229 389.5,4 -4,4"/>
<!-- Node1 -->
<g id="node1" class="node">
<title>Node1</title>
<g id="a_node1"><a xlink:title=" ">
<polygon fill="#bfbfbf" stroke="black" points="0,-0.5 0,-19.5 137,-19.5 137,-0.5 0,-0.5"/>
<text text-anchor="middle" x="68.5" y="-7.5" font-family="Helvetica,sans-Serif" font-size="10.00">P4::DoSynthesizeActions</text>
</a>
</g>
</g>
<!-- Node2 -->
<g id="node2" class="node">
<title>Node2</title>
<g id="a_node2"><a xlink:href="class_transform.html" target="_top" xlink:title=" ">
<polygon fill="white" stroke="black" points="36,-68.5 36,-87.5 101,-87.5 101,-68.5 36,-68.5"/>
<text text-anchor="middle" x="68.5" y="-75.5" font-family="Helvetica,sans-Serif" font-size="10.00">Transform</text>
</a>
</g>
</g>
<!-- Node2&#45;&gt;Node1 -->
<g id="edge1" class="edge">
<title>Node2&#45;&gt;Node1</title>
<path fill="none" stroke="midnightblue" d="M68.5,-58.04C68.5,-45.47 68.5,-29.56 68.5,-19.84"/>
<polygon fill="midnightblue" stroke="midnightblue" points="65,-58.37 68.5,-68.37 72,-58.37 65,-58.37"/>
</g>
<!-- Node3 -->
<g id="node3" class="node">
<title>Node3</title>
<g id="a_node3"><a xlink:href="class_visitor.html" target="_top" xlink:title=" ">
<polygon fill="white" stroke="black" points="145.5,-136.5 145.5,-155.5 193.5,-155.5 193.5,-136.5 145.5,-136.5"/>
<text text-anchor="middle" x="169.5" y="-143.5" font-family="Helvetica,sans-Serif" font-size="10.00">Visitor</text>
</a>
</g>
</g>
<!-- Node3&#45;&gt;Node2 -->
<g id="edge2" class="edge">
<title>Node3&#45;&gt;Node2</title>
<path fill="none" stroke="midnightblue" d="M144.91,-131.09C137.92,-127 130.34,-122.42 123.5,-118 108.16,-108.09 91.09,-95.77 80.1,-87.67"/>
<polygon fill="midnightblue" stroke="midnightblue" points="143.56,-134.35 153.97,-136.33 147.06,-128.29 143.56,-134.35"/>
</g>
<!-- Node3&#45;&gt;Node3 -->
<g id="edge10" class="edge">
<title>Node3&#45;&gt;Node3</title>
<path fill="none" stroke="#9a32cd" stroke-dasharray="5,2" d="M203.92,-151.29C208.48,-150.39 211.5,-148.63 211.5,-146 211.5,-141.69 203.36,-139.7 193.67,-140.04"/>
<polygon fill="#9a32cd" stroke="#9a32cd" points="203.42,-147.82 193.67,-151.96 203.88,-154.8 203.42,-147.82"/>
<text text-anchor="middle" x="236.5" y="-143.5" font-family="Helvetica,sans-Serif" font-size="10.00"> called_by</text>
</g>
<!-- Node5 -->
<g id="node5" class="node">
<title>Node5</title>
<g id="a_node5"><a xlink:href="class_split_flow_visit__base.html" target="_top" xlink:title=" ">
<polygon fill="white" stroke="black" points="175.5,-0.5 175.5,-19.5 287.5,-19.5 287.5,-0.5 175.5,-0.5"/>
<text text-anchor="middle" x="231.5" y="-7.5" font-family="Helvetica,sans-Serif" font-size="10.00">SplitFlowVisit_base</text>
</a>
</g>
</g>
<!-- Node3&#45;&gt;Node5 -->
<g id="edge9" class="edge">
<title>Node3&#45;&gt;Node5</title>
<path fill="none" stroke="#9a32cd" stroke-dasharray="5,2" d="M157.16,-127.83C147.04,-111.48 135.98,-86.53 146.5,-67 159.24,-43.35 186.82,-28.04 207.12,-19.51"/>
<polygon fill="#9a32cd" stroke="#9a32cd" points="154.38,-129.97 162.83,-136.36 160.2,-126.1 154.38,-129.97"/>
<text text-anchor="middle" x="151.5" y="-75.5" font-family="Helvetica,sans-Serif" font-size="10.00"> v</text>
</g>
<!-- Node6 -->
<g id="node6" class="node">
<title>Node6</title>
<g id="a_node6"><a xlink:title=" ">
<polygon fill="white" stroke="#bfbfbf" points="166,-68.5 166,-87.5 297,-87.5 297,-68.5 166,-68.5"/>
<text text-anchor="middle" x="231.5" y="-75.5" font-family="Helvetica,sans-Serif" font-size="10.00">std::vector&lt; Visitor * &gt;</text>
</a>
</g>
</g>
<!-- Node3&#45;&gt;Node6 -->
<g id="edge8" class="edge">
<title>Node3&#45;&gt;Node6</title>
<path fill="none" stroke="#9a32cd" stroke-dasharray="5,2" d="M184.49,-129.05C196.64,-116.11 213.32,-98.36 223.19,-87.84"/>
<polygon fill="#9a32cd" stroke="#9a32cd" points="181.9,-126.69 177.61,-136.37 187,-131.48 181.9,-126.69"/>
<text text-anchor="middle" x="229" y="-110" font-family="Helvetica,sans-Serif" font-size="10.00"> elements</text>
</g>
<!-- Node4 -->
<g id="node4" class="node">
<title>Node4</title>
<g id="a_node4"><a xlink:href="classcstring.html" target="_top" xlink:title=" ">
<polygon fill="white" stroke="black" points="144.5,-204.5 144.5,-223.5 194.5,-223.5 194.5,-204.5 144.5,-204.5"/>
<text text-anchor="middle" x="169.5" y="-211.5" font-family="Helvetica,sans-Serif" font-size="10.00">cstring</text>
</a>
</g>
</g>
<!-- Node4&#45;&gt;Node3 -->
<g id="edge3" class="edge">
<title>Node4&#45;&gt;Node3</title>
<path fill="none" stroke="#9a32cd" stroke-dasharray="5,2" d="M169.5,-194.04C169.5,-181.47 169.5,-165.56 169.5,-155.84"/>
<polygon fill="#9a32cd" stroke="#9a32cd" points="166,-194.37 169.5,-204.37 173,-194.37 166,-194.37"/>
<text text-anchor="middle" x="204.5" y="-177" font-family="Helvetica,sans-Serif" font-size="10.00"> internalName</text>
</g>
<!-- Node4&#45;&gt;Node4 -->
<g id="edge4" class="edge">
<title>Node4&#45;&gt;Node4</title>
<path fill="none" stroke="#9a32cd" stroke-dasharray="5,2" d="M204.95,-219.58C209.5,-218.61 212.5,-216.75 212.5,-214 212.5,-209.48 204.41,-207.37 194.68,-207.65"/>
<polygon fill="#9a32cd" stroke="#9a32cd" points="204.39,-216.11 194.68,-220.35 204.91,-223.1 204.39,-216.11"/>
<text text-anchor="middle" x="232" y="-217" font-family="Helvetica,sans-Serif" font-size="10.00"> empty</text>
<text text-anchor="middle" x="232" y="-206" font-family="Helvetica,sans-Serif" font-size="10.00">newline</text>
</g>
<!-- Node5&#45;&gt;Node3 -->
<g id="edge5" class="edge">
<title>Node5&#45;&gt;Node3</title>
<path fill="none" stroke="#9a32cd" stroke-dasharray="5,2" d="M260.55,-24.16C287.57,-38.38 321.57,-62.58 306.5,-89 283.85,-128.73 226.46,-140.29 193.6,-143.64"/>
<polygon fill="#9a32cd" stroke="#9a32cd" points="261.88,-20.91 251.38,-19.56 258.75,-27.17 261.88,-20.91"/>
<text text-anchor="middle" x="347.5" y="-81" font-family="Helvetica,sans-Serif" font-size="10.00"> split_link</text>
<text text-anchor="middle" x="347.5" y="-70" font-family="Helvetica,sans-Serif" font-size="10.00">split_link_mem</text>
</g>
<!-- Node5&#45;&gt;Node5 -->
<g id="edge6" class="edge">
<title>Node5&#45;&gt;Node5</title>
<path fill="none" stroke="#9a32cd" stroke-dasharray="5,2" d="M297.9,-14.4C302.62,-13.4 305.5,-11.93 305.5,-10 305.5,-6.91 298.12,-5.01 287.65,-4.31"/>
<polygon fill="#9a32cd" stroke="#9a32cd" points="297.13,-10.97 287.65,-15.69 298.01,-17.91 297.13,-10.97"/>
<text text-anchor="middle" x="318" y="-7.5" font-family="Helvetica,sans-Serif" font-size="10.00"> prev</text>
</g>
<!-- Node6&#45;&gt;Node5 -->
<g id="edge7" class="edge">
<title>Node6&#45;&gt;Node5</title>
<path fill="none" stroke="#9a32cd" stroke-dasharray="5,2" d="M231.5,-58.04C231.5,-45.47 231.5,-29.56 231.5,-19.84"/>
<polygon fill="#9a32cd" stroke="#9a32cd" points="228,-58.37 231.5,-68.37 235,-58.37 228,-58.37"/>
<text text-anchor="middle" x="251.5" y="-41" font-family="Helvetica,sans-Serif" font-size="10.00"> visitors</text>
</g>
</g>
</svg>
