<?xml version="1.0" encoding="UTF-8" standalone="no"?>
<!DOCTYPE svg PUBLIC "-//W3C//DTD SVG 1.1//EN"
 "http://www.w3.org/Graphics/SVG/1.1/DTD/svg11.dtd">
<!-- Generated by graphviz version 2.43.0 (0)
 -->
<!-- Title: P4::SimpleInlineWorkList&lt; Callable, CallNode, CallInfo &gt; Pages: 1 -->
<svg width="402pt" height="88pt"
 viewBox="0.00 0.00 402.00 88.00" xmlns="http://www.w3.org/2000/svg" xmlns:xlink="http://www.w3.org/1999/xlink">
<g id="graph0" class="graph" transform="scale(1 1) rotate(0) translate(4 84)">
<title>P4::SimpleInlineWorkList&lt; Callable, CallNode, CallInfo &gt;</title>
<polygon fill="white" stroke="transparent" points="-4,4 -4,-84 398,-84 398,4 -4,4"/>
<!-- Node1 -->
<g id="node1" class="node">
<title>Node1</title>
<g id="a_node1"><a xlink:title=" ">
<polygon fill="#bfbfbf" stroke="black" points="221,-30 221,-60 394,-60 394,-30 221,-30"/>
<text text-anchor="start" x="229" y="-48" font-family="Helvetica,sans-Serif" font-size="10.00">P4::SimpleInlineWorkList</text>
<text text-anchor="middle" x="307.5" y="-37" font-family="Helvetica,sans-Serif" font-size="10.00">&lt; Callable, CallNode, CallInfo &gt;</text>
</a>
</g>
</g>
<!-- Node2 -->
<g id="node2" class="node">
<title>Node2</title>
<g id="a_node2"><a xlink:href="class_i_has_db_print.html" target="_top" xlink:title=" ">
<polygon fill="white" stroke="black" points="42,-60.5 42,-79.5 116,-79.5 116,-60.5 42,-60.5"/>
<text text-anchor="middle" x="79" y="-67.5" font-family="Helvetica,sans-Serif" font-size="10.00">IHasDbPrint</text>
</a>
</g>
</g>
<!-- Node2&#45;&gt;Node1 -->
<g id="edge1" class="edge">
<title>Node2&#45;&gt;Node1</title>
<path fill="none" stroke="midnightblue" d="M126.13,-64.91C153.29,-61.91 188.51,-58.02 220.61,-54.48"/>
<polygon fill="midnightblue" stroke="midnightblue" points="125.7,-61.43 116.14,-66.01 126.46,-68.39 125.7,-61.43"/>
</g>
<!-- Node3 -->
<g id="node3" class="node">
<title>Node3</title>
<g id="a_node3"><a xlink:title=" ">
<polygon fill="white" stroke="#bfbfbf" points="0,-0.5 0,-41.5 158,-41.5 158,-0.5 0,-0.5"/>
<text text-anchor="start" x="8" y="-29.5" font-family="Helvetica,sans-Serif" font-size="10.00">std::map&lt; const Callable</text>
<text text-anchor="start" x="8" y="-18.5" font-family="Helvetica,sans-Serif" font-size="10.00"> *, std::map&lt; const CallNode</text>
<text text-anchor="middle" x="79" y="-7.5" font-family="Helvetica,sans-Serif" font-size="10.00"> *, const Callable * &gt; &gt;</text>
</a>
</g>
</g>
<!-- Node3&#45;&gt;Node1 -->
<g id="edge2" class="edge">
<title>Node3&#45;&gt;Node1</title>
<path fill="none" stroke="#9a32cd" stroke-dasharray="5,2" d="M168.33,-30.36C185.6,-32.19 203.69,-34.11 220.88,-35.93"/>
<polygon fill="#9a32cd" stroke="#9a32cd" points="168.58,-26.87 158.27,-29.29 167.84,-33.83 168.58,-26.87"/>
<text text-anchor="middle" x="189.5" y="-36" font-family="Helvetica,sans-Serif" font-size="10.00"> sites</text>
</g>
</g>
</svg>
