<?xml version="1.0" encoding="UTF-8" standalone="no"?>
<!DOCTYPE svg PUBLIC "-//W3C//DTD SVG 1.1//EN"
 "http://www.w3.org/Graphics/SVG/1.1/DTD/svg11.dtd">
<!-- Generated by graphviz version 2.43.0 (0)
 -->
<!-- Title: P4Tools::TraceEvents::GenericDescription Pages: 1 -->
<svg width="247pt" height="290pt"
 viewBox="0.00 0.00 246.50 290.00" xmlns="http://www.w3.org/2000/svg" xmlns:xlink="http://www.w3.org/1999/xlink">
<g id="graph0" class="graph" transform="scale(1 1) rotate(0) translate(4 286)">
<title>P4Tools::TraceEvents::GenericDescription</title>
<polygon fill="white" stroke="transparent" points="-4,4 -4,-286 242.5,-286 242.5,4 -4,4"/>
<!-- Node1 -->
<g id="node1" class="node">
<title>Node1</title>
<g id="a_node1"><a xlink:title=" ">
<polygon fill="#bfbfbf" stroke="black" points="49.5,-0.5 49.5,-30.5 167.5,-30.5 167.5,-0.5 49.5,-0.5"/>
<text text-anchor="start" x="57.5" y="-18.5" font-family="Helvetica,sans-Serif" font-size="10.00">P4Tools::TraceEvents</text>
<text text-anchor="middle" x="108.5" y="-7.5" font-family="Helvetica,sans-Serif" font-size="10.00">::GenericDescription</text>
</a>
</g>
</g>
<!-- Node2 -->
<g id="node2" class="node">
<title>Node2</title>
<g id="a_node2"><a xlink:href="class_p4_tools_1_1_trace_events_1_1_generic.html" target="_top" xlink:title="A generic event that only takes in a string as label.">
<polygon fill="white" stroke="black" points="2.5,-68.5 2.5,-98.5 120.5,-98.5 120.5,-68.5 2.5,-68.5"/>
<text text-anchor="start" x="10.5" y="-86.5" font-family="Helvetica,sans-Serif" font-size="10.00">P4Tools::TraceEvents</text>
<text text-anchor="middle" x="61.5" y="-75.5" font-family="Helvetica,sans-Serif" font-size="10.00">::Generic</text>
</a>
</g>
</g>
<!-- Node2&#45;&gt;Node1 -->
<g id="edge1" class="edge">
<title>Node2&#45;&gt;Node1</title>
<path fill="none" stroke="midnightblue" d="M77.66,-59.81C84.51,-50.19 92.29,-39.26 98.32,-30.79"/>
<polygon fill="midnightblue" stroke="midnightblue" points="74.65,-58 71.7,-68.18 80.35,-62.06 74.65,-58"/>
</g>
<!-- Node3 -->
<g id="node3" class="node">
<title>Node3</title>
<g id="a_node3"><a xlink:href="class_p4_tools_1_1_trace_event.html" target="_top" xlink:title="An event in a trace of the execution of a P4 program.">
<polygon fill="white" stroke="black" points="0,-147.5 0,-166.5 113,-166.5 113,-147.5 0,-147.5"/>
<text text-anchor="middle" x="56.5" y="-154.5" font-family="Helvetica,sans-Serif" font-size="10.00">P4Tools::TraceEvent</text>
</a>
</g>
</g>
<!-- Node3&#45;&gt;Node2 -->
<g id="edge2" class="edge">
<title>Node3&#45;&gt;Node2</title>
<path fill="none" stroke="midnightblue" d="M57.84,-136.9C58.68,-124.82 59.75,-109.47 60.52,-98.51"/>
<polygon fill="midnightblue" stroke="midnightblue" points="54.32,-137.01 57.11,-147.23 61.3,-137.5 54.32,-137.01"/>
</g>
<!-- Node4 -->
<g id="node4" class="node">
<title>Node4</title>
<g id="a_node4"><a xlink:href="class_i_castable.html" target="_top" xlink:title=" ">
<polygon fill="white" stroke="black" points="25.5,-205.5 25.5,-224.5 87.5,-224.5 87.5,-205.5 25.5,-205.5"/>
<text text-anchor="middle" x="56.5" y="-212.5" font-family="Helvetica,sans-Serif" font-size="10.00">ICastable</text>
</a>
</g>
</g>
<!-- Node4&#45;&gt;Node3 -->
<g id="edge3" class="edge">
<title>Node4&#45;&gt;Node3</title>
<path fill="none" stroke="midnightblue" d="M56.5,-194.95C56.5,-185.29 56.5,-174.03 56.5,-166.51"/>
<polygon fill="midnightblue" stroke="midnightblue" points="53,-195.25 56.5,-205.25 60,-195.25 53,-195.25"/>
</g>
<!-- Node5 -->
<g id="node5" class="node">
<title>Node5</title>
<g id="a_node5"><a xlink:href="struct_r_t_t_i_1_1_base.html" target="_top" xlink:title=" ">
<polygon fill="white" stroke="black" points="22.5,-262.5 22.5,-281.5 90.5,-281.5 90.5,-262.5 22.5,-262.5"/>
<text text-anchor="middle" x="56.5" y="-269.5" font-family="Helvetica,sans-Serif" font-size="10.00">RTTI::Base</text>
</a>
</g>
</g>
<!-- Node5&#45;&gt;Node4 -->
<g id="edge4" class="edge">
<title>Node5&#45;&gt;Node4</title>
<path fill="none" stroke="midnightblue" d="M56.5,-252.12C56.5,-242.82 56.5,-232.06 56.5,-224.71"/>
<polygon fill="midnightblue" stroke="midnightblue" points="53,-252.41 56.5,-262.41 60,-252.41 53,-252.41"/>
</g>
<!-- Node6 -->
<g id="node6" class="node">
<title>Node6</title>
<g id="a_node6"><a xlink:href="classcstring.html" target="_top" xlink:title=" ">
<polygon fill="white" stroke="black" points="131.5,-147.5 131.5,-166.5 181.5,-166.5 181.5,-147.5 131.5,-147.5"/>
<text text-anchor="middle" x="156.5" y="-154.5" font-family="Helvetica,sans-Serif" font-size="10.00">cstring</text>
</a>
</g>
</g>
<!-- Node6&#45;&gt;Node1 -->
<g id="edge7" class="edge">
<title>Node6&#45;&gt;Node1</title>
<path fill="none" stroke="#9a32cd" stroke-dasharray="5,2" d="M151.4,-137.7C146.29,-119.79 137.99,-91.81 129.5,-68 124.96,-55.27 119.11,-41.06 114.73,-30.8"/>
<polygon fill="#9a32cd" stroke="#9a32cd" points="148.06,-138.75 154.14,-147.42 154.8,-136.85 148.06,-138.75"/>
<text text-anchor="middle" x="168.5" y="-81" font-family="Helvetica,sans-Serif" font-size="10.00"> description</text>
</g>
<!-- Node6&#45;&gt;Node2 -->
<g id="edge5" class="edge">
<title>Node6&#45;&gt;Node2</title>
<path fill="none" stroke="#9a32cd" stroke-dasharray="5,2" d="M133.84,-141.49C127.49,-137.26 120.65,-132.56 114.5,-128 101.87,-118.65 88.18,-107.37 77.87,-98.65"/>
<polygon fill="#9a32cd" stroke="#9a32cd" points="132.36,-144.7 142.64,-147.26 136.2,-138.85 132.36,-144.7"/>
<text text-anchor="middle" x="128.5" y="-120" font-family="Helvetica,sans-Serif" font-size="10.00"> label</text>
</g>
<!-- Node6&#45;&gt;Node6 -->
<g id="edge6" class="edge">
<title>Node6&#45;&gt;Node6</title>
<path fill="none" stroke="#9a32cd" stroke-dasharray="5,2" d="M191.95,-161.6C196.5,-160.8 199.5,-159.27 199.5,-157 199.5,-153.28 191.41,-151.54 181.68,-151.77"/>
<polygon fill="#9a32cd" stroke="#9a32cd" points="191.44,-158.12 181.68,-162.23 191.87,-165.11 191.44,-158.12"/>
<text text-anchor="middle" x="219" y="-160" font-family="Helvetica,sans-Serif" font-size="10.00"> empty</text>
<text text-anchor="middle" x="219" y="-149" font-family="Helvetica,sans-Serif" font-size="10.00">newline</text>
</g>
</g>
</svg>
