<?xml version="1.0" encoding="UTF-8" standalone="no"?>
<!DOCTYPE svg PUBLIC "-//W3C//DTD SVG 1.1//EN"
 "http://www.w3.org/Graphics/SVG/1.1/DTD/svg11.dtd">
<!-- Generated by graphviz version 2.43.0 (0)
 -->
<!-- Title: P4::DoReplaceSelectRange Pages: 1 -->
<svg width="526pt" height="233pt"
 viewBox="0.00 0.00 526.00 233.00" xmlns="http://www.w3.org/2000/svg" xmlns:xlink="http://www.w3.org/1999/xlink">
<g id="graph0" class="graph" transform="scale(1 1) rotate(0) translate(4 229)">
<title>P4::DoReplaceSelectRange</title>
<polygon fill="white" stroke="transparent" points="-4,4 -4,-229 522,-229 522,4 -4,4"/>
<!-- Node1 -->
<g id="node1" class="node">
<title>Node1</title>
<g id="a_node1"><a xlink:title=" ">
<polygon fill="#bfbfbf" stroke="black" points="9.5,-0.5 9.5,-19.5 157.5,-19.5 157.5,-0.5 9.5,-0.5"/>
<text text-anchor="middle" x="83.5" y="-7.5" font-family="Helvetica,sans-Serif" font-size="10.00">P4::DoReplaceSelectRange</text>
</a>
</g>
</g>
<!-- Node2 -->
<g id="node2" class="node">
<title>Node2</title>
<g id="a_node2"><a xlink:href="class_transform.html" target="_top" xlink:title=" ">
<polygon fill="white" stroke="black" points="0,-68.5 0,-87.5 65,-87.5 65,-68.5 0,-68.5"/>
<text text-anchor="middle" x="32.5" y="-75.5" font-family="Helvetica,sans-Serif" font-size="10.00">Transform</text>
</a>
</g>
</g>
<!-- Node2&#45;&gt;Node1 -->
<g id="edge1" class="edge">
<title>Node2&#45;&gt;Node1</title>
<path fill="none" stroke="midnightblue" d="M45.4,-60.31C55.34,-47.44 68.7,-30.16 76.67,-19.84"/>
<polygon fill="midnightblue" stroke="midnightblue" points="42.51,-58.32 39.17,-68.37 48.05,-62.6 42.51,-58.32"/>
</g>
<!-- Node3 -->
<g id="node3" class="node">
<title>Node3</title>
<g id="a_node3"><a xlink:href="class_visitor.html" target="_top" xlink:title=" ">
<polygon fill="white" stroke="black" points="278.5,-136.5 278.5,-155.5 326.5,-155.5 326.5,-136.5 278.5,-136.5"/>
<text text-anchor="middle" x="302.5" y="-143.5" font-family="Helvetica,sans-Serif" font-size="10.00">Visitor</text>
</a>
</g>
</g>
<!-- Node3&#45;&gt;Node2 -->
<g id="edge2" class="edge">
<title>Node3&#45;&gt;Node2</title>
<path fill="none" stroke="midnightblue" d="M268.26,-136.63C215.96,-123.85 116.85,-99.62 65.38,-87.04"/>
<polygon fill="midnightblue" stroke="midnightblue" points="267.52,-140.05 278.06,-139.03 269.18,-133.25 267.52,-140.05"/>
</g>
<!-- Node3&#45;&gt;Node3 -->
<g id="edge10" class="edge">
<title>Node3&#45;&gt;Node3</title>
<path fill="none" stroke="#9a32cd" stroke-dasharray="5,2" d="M336.92,-151.29C341.48,-150.39 344.5,-148.63 344.5,-146 344.5,-141.69 336.36,-139.7 326.67,-140.04"/>
<polygon fill="#9a32cd" stroke="#9a32cd" points="336.42,-147.82 326.67,-151.96 336.88,-154.8 336.42,-147.82"/>
<text text-anchor="middle" x="369.5" y="-143.5" font-family="Helvetica,sans-Serif" font-size="10.00"> called_by</text>
</g>
<!-- Node5 -->
<g id="node5" class="node">
<title>Node5</title>
<g id="a_node5"><a xlink:href="class_split_flow_visit__base.html" target="_top" xlink:title=" ">
<polygon fill="white" stroke="black" points="302.5,-0.5 302.5,-19.5 414.5,-19.5 414.5,-0.5 302.5,-0.5"/>
<text text-anchor="middle" x="358.5" y="-7.5" font-family="Helvetica,sans-Serif" font-size="10.00">SplitFlowVisit_base</text>
</a>
</g>
</g>
<!-- Node3&#45;&gt;Node5 -->
<g id="edge9" class="edge">
<title>Node3&#45;&gt;Node5</title>
<path fill="none" stroke="#9a32cd" stroke-dasharray="5,2" d="M314.57,-127.88C321.73,-117.11 330.53,-102.71 336.5,-89 346.94,-65 353.82,-34.7 356.81,-19.92"/>
<polygon fill="#9a32cd" stroke="#9a32cd" points="311.58,-126.06 308.82,-136.29 317.35,-130.01 311.58,-126.06"/>
<text text-anchor="middle" x="349.5" y="-75.5" font-family="Helvetica,sans-Serif" font-size="10.00"> v</text>
</g>
<!-- Node6 -->
<g id="node6" class="node">
<title>Node6</title>
<g id="a_node6"><a xlink:title=" ">
<polygon fill="white" stroke="#bfbfbf" points="387,-68.5 387,-87.5 518,-87.5 518,-68.5 387,-68.5"/>
<text text-anchor="middle" x="452.5" y="-75.5" font-family="Helvetica,sans-Serif" font-size="10.00">std::vector&lt; Visitor * &gt;</text>
</a>
</g>
</g>
<!-- Node3&#45;&gt;Node6 -->
<g id="edge8" class="edge">
<title>Node3&#45;&gt;Node6</title>
<path fill="none" stroke="#9a32cd" stroke-dasharray="5,2" d="M335.5,-132.94C347.27,-128.46 360.56,-123.2 372.5,-118 394.74,-108.31 419.79,-95.84 435.84,-87.64"/>
<polygon fill="#9a32cd" stroke="#9a32cd" points="334.16,-129.7 326.04,-136.49 336.63,-136.25 334.16,-129.7"/>
<text text-anchor="middle" x="419" y="-110" font-family="Helvetica,sans-Serif" font-size="10.00"> elements</text>
</g>
<!-- Node4 -->
<g id="node4" class="node">
<title>Node4</title>
<g id="a_node4"><a xlink:href="classcstring.html" target="_top" xlink:title=" ">
<polygon fill="white" stroke="black" points="277.5,-204.5 277.5,-223.5 327.5,-223.5 327.5,-204.5 277.5,-204.5"/>
<text text-anchor="middle" x="302.5" y="-211.5" font-family="Helvetica,sans-Serif" font-size="10.00">cstring</text>
</a>
</g>
</g>
<!-- Node4&#45;&gt;Node3 -->
<g id="edge3" class="edge">
<title>Node4&#45;&gt;Node3</title>
<path fill="none" stroke="#9a32cd" stroke-dasharray="5,2" d="M302.5,-194.04C302.5,-181.47 302.5,-165.56 302.5,-155.84"/>
<polygon fill="#9a32cd" stroke="#9a32cd" points="299,-194.37 302.5,-204.37 306,-194.37 299,-194.37"/>
<text text-anchor="middle" x="337.5" y="-177" font-family="Helvetica,sans-Serif" font-size="10.00"> internalName</text>
</g>
<!-- Node4&#45;&gt;Node4 -->
<g id="edge4" class="edge">
<title>Node4&#45;&gt;Node4</title>
<path fill="none" stroke="#9a32cd" stroke-dasharray="5,2" d="M337.95,-219.58C342.5,-218.61 345.5,-216.75 345.5,-214 345.5,-209.48 337.41,-207.37 327.68,-207.65"/>
<polygon fill="#9a32cd" stroke="#9a32cd" points="337.39,-216.11 327.68,-220.35 337.91,-223.1 337.39,-216.11"/>
<text text-anchor="middle" x="365" y="-217" font-family="Helvetica,sans-Serif" font-size="10.00"> empty</text>
<text text-anchor="middle" x="365" y="-206" font-family="Helvetica,sans-Serif" font-size="10.00">newline</text>
</g>
<!-- Node5&#45;&gt;Node3 -->
<g id="edge5" class="edge">
<title>Node5&#45;&gt;Node3</title>
<path fill="none" stroke="#9a32cd" stroke-dasharray="5,2" d="M317.81,-23.19C296.73,-31.8 272.87,-45.69 260.5,-67 246.06,-91.88 275.13,-122.03 291.85,-136.48"/>
<polygon fill="#9a32cd" stroke="#9a32cd" points="319.15,-26.42 327.25,-19.59 316.66,-19.88 319.15,-26.42"/>
<text text-anchor="middle" x="298.5" y="-81" font-family="Helvetica,sans-Serif" font-size="10.00"> split_link</text>
<text text-anchor="middle" x="298.5" y="-70" font-family="Helvetica,sans-Serif" font-size="10.00">split_link_mem</text>
</g>
<!-- Node5&#45;&gt;Node5 -->
<g id="edge6" class="edge">
<title>Node5&#45;&gt;Node5</title>
<path fill="none" stroke="#9a32cd" stroke-dasharray="5,2" d="M424.9,-14.4C429.62,-13.4 432.5,-11.93 432.5,-10 432.5,-6.91 425.12,-5.01 414.65,-4.31"/>
<polygon fill="#9a32cd" stroke="#9a32cd" points="424.13,-10.97 414.65,-15.69 425.01,-17.91 424.13,-10.97"/>
<text text-anchor="middle" x="445" y="-7.5" font-family="Helvetica,sans-Serif" font-size="10.00"> prev</text>
</g>
<!-- Node6&#45;&gt;Node5 -->
<g id="edge7" class="edge">
<title>Node6&#45;&gt;Node5</title>
<path fill="none" stroke="#9a32cd" stroke-dasharray="5,2" d="M431.78,-62.46C413.11,-49.34 386.28,-30.5 370.79,-19.63"/>
<polygon fill="#9a32cd" stroke="#9a32cd" points="430.02,-65.49 440.21,-68.37 434.04,-59.76 430.02,-65.49"/>
<text text-anchor="middle" x="430.5" y="-41" font-family="Helvetica,sans-Serif" font-size="10.00"> visitors</text>
</g>
<!-- Node7 -->
<g id="node7" class="node">
<title>Node7</title>
<g id="a_node7"><a xlink:title=" ">
<polygon fill="white" stroke="#bfbfbf" points="83.5,-68.5 83.5,-87.5 187.5,-87.5 187.5,-68.5 83.5,-68.5"/>
<text text-anchor="middle" x="135.5" y="-75.5" font-family="Helvetica,sans-Serif" font-size="10.00">std::set&lt; size_t &gt;</text>
</a>
</g>
</g>
<!-- Node7&#45;&gt;Node1 -->
<g id="edge11" class="edge">
<title>Node7&#45;&gt;Node1</title>
<path fill="none" stroke="#9a32cd" stroke-dasharray="5,2" d="M121.57,-60.24C118.55,-56.56 115.4,-52.66 112.5,-49 104.57,-38.98 95.68,-27.26 89.86,-19.52"/>
<polygon fill="#9a32cd" stroke="#9a32cd" points="119.1,-62.75 128.17,-68.24 124.5,-58.3 119.1,-62.75"/>
<text text-anchor="middle" x="172.5" y="-41" font-family="Helvetica,sans-Serif" font-size="10.00"> signedIndicesToReplace</text>
</g>
</g>
</svg>
