<?xml version="1.0" encoding="UTF-8" standalone="no"?>
<!DOCTYPE svg PUBLIC "-//W3C//DTD SVG 1.1//EN"
 "http://www.w3.org/Graphics/SVG/1.1/DTD/svg11.dtd">
<!-- Generated by graphviz version 2.43.0 (0)
 -->
<!-- Title: P4::ParseAnnotations Pages: 1 -->
<svg width="380pt" height="233pt"
 viewBox="0.00 0.00 379.50 233.00" xmlns="http://www.w3.org/2000/svg" xmlns:xlink="http://www.w3.org/1999/xlink">
<g id="graph0" class="graph" transform="scale(1 1) rotate(0) translate(4 229)">
<title>P4::ParseAnnotations</title>
<polygon fill="white" stroke="transparent" points="-4,4 -4,-229 375.5,-229 375.5,4 -4,4"/>
<!-- Node1 -->
<g id="node1" class="node">
<title>Node1</title>
<g id="a_node1"><a xlink:title=" ">
<polygon fill="#bfbfbf" stroke="black" points="0,-0.5 0,-19.5 119,-19.5 119,-0.5 0,-0.5"/>
<text text-anchor="middle" x="59.5" y="-7.5" font-family="Helvetica,sans-Serif" font-size="10.00">P4::ParseAnnotations</text>
</a>
</g>
</g>
<!-- Node2 -->
<g id="node2" class="node">
<title>Node2</title>
<g id="a_node2"><a xlink:href="class_modifier.html" target="_top" xlink:title=" ">
<polygon fill="white" stroke="black" points="31.5,-68.5 31.5,-87.5 87.5,-87.5 87.5,-68.5 31.5,-68.5"/>
<text text-anchor="middle" x="59.5" y="-75.5" font-family="Helvetica,sans-Serif" font-size="10.00">Modifier</text>
</a>
</g>
</g>
<!-- Node2&#45;&gt;Node1 -->
<g id="edge1" class="edge">
<title>Node2&#45;&gt;Node1</title>
<path fill="none" stroke="midnightblue" d="M59.5,-58.04C59.5,-45.47 59.5,-29.56 59.5,-19.84"/>
<polygon fill="midnightblue" stroke="midnightblue" points="56,-58.37 59.5,-68.37 63,-58.37 56,-58.37"/>
</g>
<!-- Node3 -->
<g id="node3" class="node">
<title>Node3</title>
<g id="a_node3"><a xlink:href="class_visitor.html" target="_top" xlink:title=" ">
<polygon fill="white" stroke="black" points="131.5,-136.5 131.5,-155.5 179.5,-155.5 179.5,-136.5 131.5,-136.5"/>
<text text-anchor="middle" x="155.5" y="-143.5" font-family="Helvetica,sans-Serif" font-size="10.00">Visitor</text>
</a>
</g>
</g>
<!-- Node3&#45;&gt;Node2 -->
<g id="edge2" class="edge">
<title>Node3&#45;&gt;Node2</title>
<path fill="none" stroke="midnightblue" d="M130.78,-131.29C123.78,-127.2 116.24,-122.58 109.5,-118 95.29,-108.35 79.83,-95.98 69.92,-87.79"/>
<polygon fill="midnightblue" stroke="midnightblue" points="129.44,-134.56 139.85,-136.49 132.92,-128.49 129.44,-134.56"/>
</g>
<!-- Node3&#45;&gt;Node3 -->
<g id="edge10" class="edge">
<title>Node3&#45;&gt;Node3</title>
<path fill="none" stroke="#9a32cd" stroke-dasharray="5,2" d="M189.92,-151.29C194.48,-150.39 197.5,-148.63 197.5,-146 197.5,-141.69 189.36,-139.7 179.67,-140.04"/>
<polygon fill="#9a32cd" stroke="#9a32cd" points="189.42,-147.82 179.67,-151.96 189.88,-154.8 189.42,-147.82"/>
<text text-anchor="middle" x="222.5" y="-143.5" font-family="Helvetica,sans-Serif" font-size="10.00"> called_by</text>
</g>
<!-- Node5 -->
<g id="node5" class="node">
<title>Node5</title>
<g id="a_node5"><a xlink:href="class_split_flow_visit__base.html" target="_top" xlink:title=" ">
<polygon fill="white" stroke="black" points="161.5,-0.5 161.5,-19.5 273.5,-19.5 273.5,-0.5 161.5,-0.5"/>
<text text-anchor="middle" x="217.5" y="-7.5" font-family="Helvetica,sans-Serif" font-size="10.00">SplitFlowVisit_base</text>
</a>
</g>
</g>
<!-- Node3&#45;&gt;Node5 -->
<g id="edge9" class="edge">
<title>Node3&#45;&gt;Node5</title>
<path fill="none" stroke="#9a32cd" stroke-dasharray="5,2" d="M143.16,-127.83C133.04,-111.48 121.98,-86.53 132.5,-67 145.24,-43.35 172.82,-28.04 193.12,-19.51"/>
<polygon fill="#9a32cd" stroke="#9a32cd" points="140.38,-129.97 148.83,-136.36 146.2,-126.1 140.38,-129.97"/>
<text text-anchor="middle" x="137.5" y="-75.5" font-family="Helvetica,sans-Serif" font-size="10.00"> v</text>
</g>
<!-- Node6 -->
<g id="node6" class="node">
<title>Node6</title>
<g id="a_node6"><a xlink:title=" ">
<polygon fill="white" stroke="#bfbfbf" points="152,-68.5 152,-87.5 283,-87.5 283,-68.5 152,-68.5"/>
<text text-anchor="middle" x="217.5" y="-75.5" font-family="Helvetica,sans-Serif" font-size="10.00">std::vector&lt; Visitor * &gt;</text>
</a>
</g>
</g>
<!-- Node3&#45;&gt;Node6 -->
<g id="edge8" class="edge">
<title>Node3&#45;&gt;Node6</title>
<path fill="none" stroke="#9a32cd" stroke-dasharray="5,2" d="M170.49,-129.05C182.64,-116.11 199.32,-98.36 209.19,-87.84"/>
<polygon fill="#9a32cd" stroke="#9a32cd" points="167.9,-126.69 163.61,-136.37 173,-131.48 167.9,-126.69"/>
<text text-anchor="middle" x="215" y="-110" font-family="Helvetica,sans-Serif" font-size="10.00"> elements</text>
</g>
<!-- Node4 -->
<g id="node4" class="node">
<title>Node4</title>
<g id="a_node4"><a xlink:href="classcstring.html" target="_top" xlink:title=" ">
<polygon fill="white" stroke="black" points="130.5,-204.5 130.5,-223.5 180.5,-223.5 180.5,-204.5 130.5,-204.5"/>
<text text-anchor="middle" x="155.5" y="-211.5" font-family="Helvetica,sans-Serif" font-size="10.00">cstring</text>
</a>
</g>
</g>
<!-- Node4&#45;&gt;Node3 -->
<g id="edge3" class="edge">
<title>Node4&#45;&gt;Node3</title>
<path fill="none" stroke="#9a32cd" stroke-dasharray="5,2" d="M155.5,-194.04C155.5,-181.47 155.5,-165.56 155.5,-155.84"/>
<polygon fill="#9a32cd" stroke="#9a32cd" points="152,-194.37 155.5,-204.37 159,-194.37 152,-194.37"/>
<text text-anchor="middle" x="190.5" y="-177" font-family="Helvetica,sans-Serif" font-size="10.00"> internalName</text>
</g>
<!-- Node4&#45;&gt;Node4 -->
<g id="edge4" class="edge">
<title>Node4&#45;&gt;Node4</title>
<path fill="none" stroke="#9a32cd" stroke-dasharray="5,2" d="M190.95,-219.58C195.5,-218.61 198.5,-216.75 198.5,-214 198.5,-209.48 190.41,-207.37 180.68,-207.65"/>
<polygon fill="#9a32cd" stroke="#9a32cd" points="190.39,-216.11 180.68,-220.35 190.91,-223.1 190.39,-216.11"/>
<text text-anchor="middle" x="218" y="-217" font-family="Helvetica,sans-Serif" font-size="10.00"> empty</text>
<text text-anchor="middle" x="218" y="-206" font-family="Helvetica,sans-Serif" font-size="10.00">newline</text>
</g>
<!-- Node5&#45;&gt;Node3 -->
<g id="edge5" class="edge">
<title>Node5&#45;&gt;Node3</title>
<path fill="none" stroke="#9a32cd" stroke-dasharray="5,2" d="M246.55,-24.16C273.57,-38.38 307.57,-62.58 292.5,-89 269.85,-128.73 212.46,-140.29 179.6,-143.64"/>
<polygon fill="#9a32cd" stroke="#9a32cd" points="247.88,-20.91 237.38,-19.56 244.75,-27.17 247.88,-20.91"/>
<text text-anchor="middle" x="333.5" y="-81" font-family="Helvetica,sans-Serif" font-size="10.00"> split_link</text>
<text text-anchor="middle" x="333.5" y="-70" font-family="Helvetica,sans-Serif" font-size="10.00">split_link_mem</text>
</g>
<!-- Node5&#45;&gt;Node5 -->
<g id="edge6" class="edge">
<title>Node5&#45;&gt;Node5</title>
<path fill="none" stroke="#9a32cd" stroke-dasharray="5,2" d="M283.9,-14.4C288.62,-13.4 291.5,-11.93 291.5,-10 291.5,-6.91 284.12,-5.01 273.65,-4.31"/>
<polygon fill="#9a32cd" stroke="#9a32cd" points="283.13,-10.97 273.65,-15.69 284.01,-17.91 283.13,-10.97"/>
<text text-anchor="middle" x="304" y="-7.5" font-family="Helvetica,sans-Serif" font-size="10.00"> prev</text>
</g>
<!-- Node6&#45;&gt;Node5 -->
<g id="edge7" class="edge">
<title>Node6&#45;&gt;Node5</title>
<path fill="none" stroke="#9a32cd" stroke-dasharray="5,2" d="M217.5,-58.04C217.5,-45.47 217.5,-29.56 217.5,-19.84"/>
<polygon fill="#9a32cd" stroke="#9a32cd" points="214,-58.37 217.5,-68.37 221,-58.37 214,-58.37"/>
<text text-anchor="middle" x="237.5" y="-41" font-family="Helvetica,sans-Serif" font-size="10.00"> visitors</text>
</g>
</g>
</svg>
