<?xml version="1.0" encoding="UTF-8" standalone="no"?>
<!DOCTYPE svg PUBLIC "-//W3C//DTD SVG 1.1//EN"
 "http://www.w3.org/Graphics/SVG/1.1/DTD/svg11.dtd">
<!-- Generated by graphviz version 2.43.0 (0)
 -->
<!-- Title: P4::DoFlattenHeaderUnion Pages: 1 -->
<!--zoomable 395 -->
<svg id="main" version="1.1" xmlns="http://www.w3.org/2000/svg" xmlns:xlink="http://www.w3.org/1999/xlink" xml:space="preserve" onload="init(evt)">
<style type="text/css"><![CDATA[
.edge:hover path { stroke: red; }
.edge:hover polygon { stroke: red; fill: red; }
]]></style>
<script type="text/javascript"><![CDATA[
var edges = document.getElementsByTagName('g');
if (edges && edges.length) {
  for (var i=0;i<edges.length;i++) {
    if (edges[i].id.substr(0,4)=='edge') {
      edges[i].setAttribute('class','edge');
    }
  }
}
]]></script>
        <defs>
                <circle id="rim" cx="0" cy="0" r="7"/>
                <circle id="rim2" cx="0" cy="0" r="3.5"/>
                <g id="zoomPlus">
                        <use xlink:href="#rim" fill="#404040">
                                <set attributeName="fill" to="#808080" begin="zoomplus.mouseover" end="zoomplus.mouseout"/>
                        </use>
                        <path d="M-4,0h8M0,-4v8" fill="none" stroke="white" stroke-width="1.5" pointer-events="none"/>
                </g>
                <g id="zoomMin">
                        <use xlink:href="#rim" fill="#404040">
                                <set attributeName="fill" to="#808080" begin="zoomminus.mouseover" end="zoomminus.mouseout"/>
                        </use>
                        <path d="M-4,0h8" fill="none" stroke="white" stroke-width="1.5" pointer-events="none"/>
                </g>
                <g id="dirArrow">
                        <path fill="none" stroke="white" stroke-width="1.5" d="M0,-3.0v7 M-2.5,-0.5L0,-3.0L2.5,-0.5"/>
                </g>
               <g id="resetDef">
                       <use xlink:href="#rim2" fill="#404040">
                               <set attributeName="fill" to="#808080" begin="reset.mouseover" end="reset.mouseout"/>
                       </use>
               </g>
        </defs>

<script type="text/javascript">
var viewWidth = 1893;
var viewHeight = 395;
var sectionId = 'dynsection-1';
</script>
<script xlink:href="svgpan.js"/>
<svg id="graph" class="graph">
<g id="viewport">
<title>P4::DoFlattenHeaderUnion</title>
<polygon fill="white" stroke="transparent" points="-4,4 -4,-391 1889,-391 1889,4 -4,4"/>
<!-- Node1 -->
<g id="node1" class="node">
<title>Node1</title>
<g id="a_node1"><a xlink:title=" ">
<polygon fill="#bfbfbf" stroke="black" points="1739,-137.5 1739,-156.5 1885,-156.5 1885,-137.5 1739,-137.5"/>
<text text-anchor="middle" x="1812" y="-144.5" font-family="Helvetica,sans-Serif" font-size="10.00">P4::DoFlattenHeaderUnion</text>
</a>
</g>
</g>
<!-- Node2 -->
<g id="node2" class="node">
<title>Node2</title>
<g id="a_node2"><a xlink:href="class_transform.html" target="_top" xlink:title=" ">
<polygon fill="white" stroke="black" points="683,-297.5 683,-316.5 748,-316.5 748,-297.5 683,-297.5"/>
<text text-anchor="middle" x="715.5" y="-304.5" font-family="Helvetica,sans-Serif" font-size="10.00">Transform</text>
</a>
</g>
</g>
<!-- Node2&#45;&gt;Node1 -->
<g id="edge1" class="edge">
<title>Node2&#45;&gt;Node1</title>
<path fill="none" stroke="midnightblue" d="M758.17,-304.25C801.93,-301.6 872.77,-298 934,-298 934,-298 934,-298 1548.5,-298 1662.06,-298 1770.87,-190.5 1802.09,-156.91"/>
<polygon fill="midnightblue" stroke="midnightblue" points="757.95,-300.76 748.18,-304.87 758.38,-307.74 757.95,-300.76"/>
</g>
<!-- Node3 -->
<g id="node3" class="node">
<title>Node3</title>
<g id="a_node3"><a xlink:href="class_visitor.html" target="_top" xlink:title=" ">
<polygon fill="white" stroke="black" points="362.5,-241.5 362.5,-260.5 410.5,-260.5 410.5,-241.5 362.5,-241.5"/>
<text text-anchor="middle" x="386.5" y="-248.5" font-family="Helvetica,sans-Serif" font-size="10.00">Visitor</text>
</a>
</g>
</g>
<!-- Node3&#45;&gt;Node2 -->
<g id="edge2" class="edge">
<title>Node3&#45;&gt;Node2</title>
<path fill="none" stroke="midnightblue" d="M418.96,-264.42C433.43,-270.29 450.92,-276.97 467,-282 496.22,-291.14 503.69,-293.66 534,-298 585.71,-305.4 646.51,-306.98 682.7,-307.18"/>
<polygon fill="midnightblue" stroke="midnightblue" points="420.06,-261.09 409.48,-260.51 417.4,-267.56 420.06,-261.09"/>
</g>
<!-- Node3&#45;&gt;Node3 -->
<g id="edge10" class="edge">
<title>Node3&#45;&gt;Node3</title>
<path fill="none" stroke="#9a32cd" stroke-dasharray="5,2" d="M367.24,-270.4C368.53,-275.31 374.95,-279 386.5,-279 404.98,-279 410.33,-269.57 402.53,-260.76"/>
<polygon fill="#9a32cd" stroke="#9a32cd" points="370.61,-271.35 370.47,-260.76 363.98,-269.13 370.61,-271.35"/>
<text text-anchor="middle" x="386.5" y="-282" font-family="Helvetica,sans-Serif" font-size="10.00"> called_by</text>
</g>
<!-- Node5 -->
<g id="node5" class="node">
<title>Node5</title>
<g id="a_node5"><a xlink:href="class_split_flow_visit__base.html" target="_top" xlink:title=" ">
<polygon fill="white" stroke="black" points="766,-219.5 766,-238.5 878,-238.5 878,-219.5 766,-219.5"/>
<text text-anchor="middle" x="822" y="-226.5" font-family="Helvetica,sans-Serif" font-size="10.00">SplitFlowVisit_base</text>
</a>
</g>
</g>
<!-- Node3&#45;&gt;Node5 -->
<g id="edge9" class="edge">
<title>Node3&#45;&gt;Node5</title>
<path fill="none" stroke="#9a32cd" stroke-dasharray="5,2" d="M420.31,-241.12C449.75,-232.8 494.32,-221.54 534,-217 614.26,-207.81 707.87,-215.06 765.8,-221.62"/>
<polygon fill="#9a32cd" stroke="#9a32cd" points="419.2,-237.8 410.56,-243.92 421.13,-244.52 419.2,-237.8"/>
<text text-anchor="middle" x="599.5" y="-220" font-family="Helvetica,sans-Serif" font-size="10.00"> v</text>
</g>
<!-- Node6 -->
<g id="node6" class="node">
<title>Node6</title>
<g id="a_node6"><a xlink:title=" ">
<polygon fill="white" stroke="#bfbfbf" points="534,-269.5 534,-288.5 665,-288.5 665,-269.5 534,-269.5"/>
<text text-anchor="middle" x="599.5" y="-276.5" font-family="Helvetica,sans-Serif" font-size="10.00">std::vector&lt; Visitor * &gt;</text>
</a>
</g>
</g>
<!-- Node3&#45;&gt;Node6 -->
<g id="edge8" class="edge">
<title>Node3&#45;&gt;Node6</title>
<path fill="none" stroke="#9a32cd" stroke-dasharray="5,2" d="M420.89,-255.43C451.07,-259.44 496.35,-265.44 533.63,-270.39"/>
<polygon fill="#9a32cd" stroke="#9a32cd" points="421.26,-251.95 410.89,-254.1 420.34,-258.89 421.26,-251.95"/>
<text text-anchor="middle" x="491.5" y="-270" font-family="Helvetica,sans-Serif" font-size="10.00"> elements</text>
</g>
<!-- Node4 -->
<g id="node4" class="node">
<title>Node4</title>
<g id="a_node4"><a xlink:href="classcstring.html" target="_top" xlink:title=" ">
<polygon fill="white" stroke="black" points="136.5,-251.5 136.5,-270.5 186.5,-270.5 186.5,-251.5 136.5,-251.5"/>
<text text-anchor="middle" x="161.5" y="-258.5" font-family="Helvetica,sans-Serif" font-size="10.00">cstring</text>
</a>
</g>
</g>
<!-- Node4&#45;&gt;Node3 -->
<g id="edge3" class="edge">
<title>Node4&#45;&gt;Node3</title>
<path fill="none" stroke="#9a32cd" stroke-dasharray="5,2" d="M196.86,-259.46C242.75,-257.4 322.84,-253.81 362.25,-252.04"/>
<polygon fill="#9a32cd" stroke="#9a32cd" points="196.62,-255.97 186.79,-259.91 196.94,-262.96 196.62,-255.97"/>
<text text-anchor="middle" x="271" y="-260" font-family="Helvetica,sans-Serif" font-size="10.00"> internalName</text>
</g>
<!-- Node4&#45;&gt;Node4 -->
<g id="edge4" class="edge">
<title>Node4&#45;&gt;Node4</title>
<path fill="none" stroke="#9a32cd" stroke-dasharray="5,2" d="M147.87,-280.77C148.94,-285.5 153.49,-289 161.5,-289 174.65,-289 178.45,-279.57 172.91,-270.76"/>
<polygon fill="#9a32cd" stroke="#9a32cd" points="151.34,-281.28 150.09,-270.76 144.51,-279.76 151.34,-281.28"/>
<text text-anchor="middle" x="161.5" y="-303" font-family="Helvetica,sans-Serif" font-size="10.00"> empty</text>
<text text-anchor="middle" x="161.5" y="-292" font-family="Helvetica,sans-Serif" font-size="10.00">newline</text>
</g>
<!-- Node7 -->
<g id="node7" class="node">
<title>Node7</title>
<g id="a_node7"><a xlink:title=" ">
<polygon fill="white" stroke="#bfbfbf" points="544.5,-345.5 544.5,-386.5 654.5,-386.5 654.5,-345.5 544.5,-345.5"/>
<text text-anchor="start" x="552.5" y="-374.5" font-family="Helvetica,sans-Serif" font-size="10.00">std::map&lt; cstring,</text>
<text text-anchor="start" x="552.5" y="-363.5" font-family="Helvetica,sans-Serif" font-size="10.00"> std::map&lt; cstring,</text>
<text text-anchor="middle" x="599.5" y="-352.5" font-family="Helvetica,sans-Serif" font-size="10.00"> cstring &gt; &gt;</text>
</a>
</g>
</g>
<!-- Node4&#45;&gt;Node7 -->
<g id="edge12" class="edge">
<title>Node4&#45;&gt;Node7</title>
<path fill="none" stroke="#9a32cd" stroke-dasharray="5,2" d="M177.84,-278.13C191.7,-292.61 213.34,-312.88 236,-325 334.84,-377.89 470.29,-377.24 544.48,-371.81"/>
<polygon fill="#9a32cd" stroke="#9a32cd" points="180.36,-275.71 170.99,-270.77 175.24,-280.48 180.36,-275.71"/>
<text text-anchor="middle" x="386.5" y="-376" font-family="Helvetica,sans-Serif" font-size="10.00"> keys</text>
</g>
<!-- Node8 -->
<g id="node8" class="node">
<title>Node8</title>
<g id="a_node8"><a xlink:title=" ">
<polygon fill="white" stroke="#bfbfbf" points="333,-309 333,-339 440,-339 440,-309 333,-309"/>
<text text-anchor="start" x="341" y="-327" font-family="Helvetica,sans-Serif" font-size="10.00">std::map&lt; cstring,</text>
<text text-anchor="middle" x="386.5" y="-316" font-family="Helvetica,sans-Serif" font-size="10.00"> cstring &gt;</text>
</a>
</g>
</g>
<!-- Node4&#45;&gt;Node8 -->
<g id="edge14" class="edge">
<title>Node4&#45;&gt;Node8</title>
<path fill="none" stroke="#9a32cd" stroke-dasharray="5,2" d="M196.85,-270.71C233.06,-280.93 290.55,-297.18 332.56,-309.04"/>
<polygon fill="#9a32cd" stroke="#9a32cd" points="197.36,-267.21 186.79,-267.86 195.46,-273.95 197.36,-267.21"/>
<text text-anchor="middle" x="271" y="-313" font-family="Helvetica,sans-Serif" font-size="10.00"> elements</text>
<text text-anchor="middle" x="271" y="-302" font-family="Helvetica,sans-Serif" font-size="10.00">keys</text>
</g>
<!-- Node19 -->
<g id="node19" class="node">
<title>Node19</title>
<g id="a_node19"><a xlink:href="class_util_1_1_source_info.html" target="_top" xlink:title=" ">
<polygon fill="white" stroke="black" points="340.5,-178.5 340.5,-197.5 432.5,-197.5 432.5,-178.5 340.5,-178.5"/>
<text text-anchor="middle" x="386.5" y="-185.5" font-family="Helvetica,sans-Serif" font-size="10.00">Util::SourceInfo</text>
</a>
</g>
</g>
<!-- Node4&#45;&gt;Node19 -->
<g id="edge26" class="edge">
<title>Node4&#45;&gt;Node19</title>
<path fill="none" stroke="#9a32cd" stroke-dasharray="5,2" d="M190.73,-247.04C204.22,-240.71 220.73,-233.43 236,-228 271.31,-215.44 312.53,-204.69 342.74,-197.51"/>
<polygon fill="#9a32cd" stroke="#9a32cd" points="189.01,-243.99 181.5,-251.45 192.03,-250.3 189.01,-243.99"/>
<text text-anchor="middle" x="271" y="-242" font-family="Helvetica,sans-Serif" font-size="10.00"> filename</text>
<text text-anchor="middle" x="271" y="-231" font-family="Helvetica,sans-Serif" font-size="10.00">srcBrief</text>
</g>
<!-- Node21 -->
<g id="node21" class="node">
<title>Node21</title>
<g id="a_node21"><a xlink:href="class_p4_1_1_program_map.html" target="_top" xlink:title=" ">
<polygon fill="white" stroke="black" points="338,-76.5 338,-95.5 435,-95.5 435,-76.5 338,-76.5"/>
<text text-anchor="middle" x="386.5" y="-83.5" font-family="Helvetica,sans-Serif" font-size="10.00">P4::ProgramMap</text>
</a>
</g>
</g>
<!-- Node4&#45;&gt;Node21 -->
<g id="edge30" class="edge">
<title>Node4&#45;&gt;Node21</title>
<path fill="none" stroke="#9a32cd" stroke-dasharray="5,2" d="M179.48,-243.71C217.44,-205.2 307.16,-114.95 324,-105 330.45,-101.19 337.73,-98.07 344.97,-95.55"/>
<polygon fill="#9a32cd" stroke="#9a32cd" points="176.73,-241.52 172.21,-251.1 181.72,-246.43 176.73,-241.52"/>
<text text-anchor="middle" x="271" y="-186" font-family="Helvetica,sans-Serif" font-size="10.00"> mapKind</text>
</g>
<!-- Node5&#45;&gt;Node3 -->
<g id="edge5" class="edge">
<title>Node5&#45;&gt;Node3</title>
<path fill="none" stroke="#9a32cd" stroke-dasharray="5,2" d="M755.78,-229.98C697.58,-231.11 610.05,-233.44 534,-238 490.29,-240.62 439.39,-245.57 410.56,-248.54"/>
<polygon fill="#9a32cd" stroke="#9a32cd" points="756.01,-233.48 765.94,-229.79 755.87,-226.48 756.01,-233.48"/>
<text text-anchor="middle" x="599.5" y="-252" font-family="Helvetica,sans-Serif" font-size="10.00"> split_link</text>
<text text-anchor="middle" x="599.5" y="-241" font-family="Helvetica,sans-Serif" font-size="10.00">split_link_mem</text>
</g>
<!-- Node5&#45;&gt;Node5 -->
<g id="edge6" class="edge">
<title>Node5&#45;&gt;Node5</title>
<path fill="none" stroke="#9a32cd" stroke-dasharray="5,2" d="M802.37,-248.4C803.68,-253.31 810.23,-257 822,-257 840.84,-257 846.29,-247.57 838.34,-238.76"/>
<polygon fill="#9a32cd" stroke="#9a32cd" points="805.74,-249.35 805.66,-238.76 799.12,-247.09 805.74,-249.35"/>
<text text-anchor="middle" x="822" y="-260" font-family="Helvetica,sans-Serif" font-size="10.00"> prev</text>
</g>
<!-- Node6&#45;&gt;Node5 -->
<g id="edge7" class="edge">
<title>Node6&#45;&gt;Node5</title>
<path fill="none" stroke="#9a32cd" stroke-dasharray="5,2" d="M652.48,-267.21C690.99,-258.48 742.82,-246.73 778.79,-238.57"/>
<polygon fill="#9a32cd" stroke="#9a32cd" points="651.47,-263.85 642.49,-269.48 653.02,-270.68 651.47,-263.85"/>
<text text-anchor="middle" x="715.5" y="-262" font-family="Helvetica,sans-Serif" font-size="10.00"> visitors</text>
</g>
<!-- Node7&#45;&gt;Node1 -->
<g id="edge11" class="edge">
<title>Node7&#45;&gt;Node1</title>
<path fill="none" stroke="#9a32cd" stroke-dasharray="5,2" d="M664.62,-354.42C708.49,-347.48 768.07,-340 821,-340 821,-340 821,-340 1548.5,-340 1631.92,-340 1656.73,-319.19 1721,-266 1761.11,-232.81 1793.72,-178.38 1805.88,-156.52"/>
<polygon fill="#9a32cd" stroke="#9a32cd" points="663.97,-350.97 654.66,-356.02 665.09,-357.88 663.97,-350.97"/>
<text text-anchor="middle" x="1211" y="-343" font-family="Helvetica,sans-Serif" font-size="10.00"> replacementMap</text>
</g>
<!-- Node8&#45;&gt;Node7 -->
<g id="edge13" class="edge">
<title>Node8&#45;&gt;Node7</title>
<path fill="none" stroke="#9a32cd" stroke-dasharray="5,2" d="M450.12,-336.46C480.04,-342.42 515.51,-349.48 544.27,-355.21"/>
<polygon fill="#9a32cd" stroke="#9a32cd" points="450.69,-333.01 440.2,-334.49 449.32,-339.87 450.69,-333.01"/>
<text text-anchor="middle" x="491.5" y="-351" font-family="Helvetica,sans-Serif" font-size="10.00"> elements</text>
</g>
<!-- Node9 -->
<g id="node9" class="node">
<title>Node9</title>
<g id="a_node9"><a xlink:title=" ">
<polygon fill="white" stroke="#bfbfbf" points="1467,-126.5 1467,-167.5 1628,-167.5 1628,-126.5 1467,-126.5"/>
<text text-anchor="start" x="1475" y="-155.5" font-family="Helvetica,sans-Serif" font-size="10.00">std::map&lt; IR::Declaration</text>
<text text-anchor="start" x="1475" y="-144.5" font-family="Helvetica,sans-Serif" font-size="10.00">_Variable *, IR::IndexedVector</text>
<text text-anchor="middle" x="1547.5" y="-133.5" font-family="Helvetica,sans-Serif" font-size="10.00">&lt; IR::Declaration &gt; &gt;</text>
</a>
</g>
</g>
<!-- Node9&#45;&gt;Node1 -->
<g id="edge15" class="edge">
<title>Node9&#45;&gt;Node1</title>
<path fill="none" stroke="#9a32cd" stroke-dasharray="5,2" d="M1638.36,-147C1671.1,-147 1707.67,-147 1738.7,-147"/>
<polygon fill="#9a32cd" stroke="#9a32cd" points="1638.33,-143.5 1628.33,-147 1638.33,-150.5 1638.33,-143.5"/>
<text text-anchor="middle" x="1683.5" y="-150" font-family="Helvetica,sans-Serif" font-size="10.00"> replaceDVMap</text>
</g>
<!-- Node10 -->
<g id="node10" class="node">
<title>Node10</title>
<g id="a_node10"><a xlink:href="class_i_r_1_1_indexed_vector.html" target="_top" xlink:title=" ">
<polygon fill="white" stroke="black" points="1272,-130 1272,-160 1382,-160 1382,-130 1272,-130"/>
<text text-anchor="start" x="1280" y="-148" font-family="Helvetica,sans-Serif" font-size="10.00">IR::IndexedVector&lt;</text>
<text text-anchor="middle" x="1327" y="-137" font-family="Helvetica,sans-Serif" font-size="10.00"> IR::Declaration &gt;</text>
</a>
</g>
</g>
<!-- Node10&#45;&gt;Node9 -->
<g id="edge16" class="edge">
<title>Node10&#45;&gt;Node9</title>
<path fill="none" stroke="#9a32cd" stroke-dasharray="5,2" d="M1392.14,-145.59C1415.48,-145.8 1442.16,-146.04 1466.69,-146.27"/>
<polygon fill="#9a32cd" stroke="#9a32cd" points="1392.04,-142.09 1382.01,-145.49 1391.98,-149.09 1392.04,-142.09"/>
<text text-anchor="middle" x="1424.5" y="-149" font-family="Helvetica,sans-Serif" font-size="10.00"> elements</text>
</g>
<!-- Node11 -->
<g id="node11" class="node">
<title>Node11</title>
<g id="a_node11"><a xlink:href="class_i_r_1_1_vector.html" target="_top" xlink:title=" ">
<polygon fill="white" stroke="black" points="992,-129.5 992,-148.5 1150,-148.5 1150,-129.5 992,-129.5"/>
<text text-anchor="middle" x="1071" y="-136.5" font-family="Helvetica,sans-Serif" font-size="10.00">IR::Vector&lt; IR::Declaration &gt;</text>
</a>
</g>
</g>
<!-- Node11&#45;&gt;Node10 -->
<g id="edge17" class="edge">
<title>Node11&#45;&gt;Node10</title>
<path fill="none" stroke="midnightblue" d="M1160.58,-141.09C1197.58,-141.97 1239.39,-142.95 1271.72,-143.72"/>
<polygon fill="midnightblue" stroke="midnightblue" points="1160.36,-137.59 1150.28,-140.85 1160.2,-144.58 1160.36,-137.59"/>
</g>
<!-- Node12 -->
<g id="node12" class="node">
<title>Node12</title>
<g id="a_node12"><a xlink:href="class_i_r_1_1_vector_base.html" target="_top" xlink:title=" ">
<polygon fill="white" stroke="black" points="778.5,-128.5 778.5,-147.5 865.5,-147.5 865.5,-128.5 778.5,-128.5"/>
<text text-anchor="middle" x="822" y="-135.5" font-family="Helvetica,sans-Serif" font-size="10.00">IR::VectorBase</text>
</a>
</g>
</g>
<!-- Node12&#45;&gt;Node11 -->
<g id="edge18" class="edge">
<title>Node12&#45;&gt;Node11</title>
<path fill="none" stroke="midnightblue" d="M875.87,-138.21C909.66,-138.35 954.08,-138.53 991.9,-138.68"/>
<polygon fill="midnightblue" stroke="midnightblue" points="875.76,-134.71 865.74,-138.17 875.73,-141.71 875.76,-134.71"/>
</g>
<!-- Node13 -->
<g id="node13" class="node">
<title>Node13</title>
<g id="a_node13"><a xlink:href="class_i_r_1_1_node.html" target="_top" xlink:title=" ">
<polygon fill="white" stroke="black" points="570.5,-126.5 570.5,-145.5 628.5,-145.5 628.5,-126.5 570.5,-126.5"/>
<text text-anchor="middle" x="599.5" y="-133.5" font-family="Helvetica,sans-Serif" font-size="10.00">IR::Node</text>
</a>
</g>
</g>
<!-- Node13&#45;&gt;Node12 -->
<g id="edge19" class="edge">
<title>Node13&#45;&gt;Node12</title>
<path fill="none" stroke="midnightblue" d="M639.27,-136.35C678.23,-136.7 738.1,-137.25 778.37,-137.61"/>
<polygon fill="midnightblue" stroke="midnightblue" points="638.91,-132.85 628.88,-136.26 638.84,-139.85 638.91,-132.85"/>
</g>
<!-- Node14 -->
<g id="node14" class="node">
<title>Node14</title>
<g id="a_node14"><a xlink:href="class_i_r_1_1_i_node.html" target="_top" xlink:title=" ">
<polygon fill="white" stroke="black" points="356,-114.5 356,-133.5 417,-133.5 417,-114.5 356,-114.5"/>
<text text-anchor="middle" x="386.5" y="-121.5" font-family="Helvetica,sans-Serif" font-size="10.00">IR::INode</text>
</a>
</g>
</g>
<!-- Node14&#45;&gt;Node13 -->
<g id="edge20" class="edge">
<title>Node14&#45;&gt;Node13</title>
<path fill="none" stroke="midnightblue" d="M427.37,-126.27C469.06,-128.64 533.46,-132.3 570.22,-134.39"/>
<polygon fill="midnightblue" stroke="midnightblue" points="427.47,-122.77 417.28,-125.69 427.07,-129.76 427.47,-122.77"/>
</g>
<!-- Node15 -->
<g id="node15" class="node">
<title>Node15</title>
<g id="a_node15"><a xlink:href="class_util_1_1_i_has_source_info.html" target="_top" xlink:title=" ">
<polygon fill="white" stroke="black" points="105,-173.5 105,-192.5 218,-192.5 218,-173.5 105,-173.5"/>
<text text-anchor="middle" x="161.5" y="-180.5" font-family="Helvetica,sans-Serif" font-size="10.00">Util::IHasSourceInfo</text>
</a>
</g>
</g>
<!-- Node15&#45;&gt;Node14 -->
<g id="edge21" class="edge">
<title>Node15&#45;&gt;Node14</title>
<path fill="none" stroke="midnightblue" d="M228.15,-182.34C253,-180.61 281.25,-176.82 306,-169 331.25,-161.02 357.39,-144.3 372.51,-133.64"/>
<polygon fill="midnightblue" stroke="midnightblue" points="227.86,-178.85 218.09,-182.94 228.28,-185.84 227.86,-178.85"/>
</g>
<!-- Node16 -->
<g id="node16" class="node">
<title>Node16</title>
<g id="a_node16"><a xlink:href="class_i_has_db_print.html" target="_top" xlink:title=" ">
<polygon fill="white" stroke="black" points="124.5,-70.5 124.5,-89.5 198.5,-89.5 198.5,-70.5 124.5,-70.5"/>
<text text-anchor="middle" x="161.5" y="-77.5" font-family="Helvetica,sans-Serif" font-size="10.00">IHasDbPrint</text>
</a>
</g>
</g>
<!-- Node16&#45;&gt;Node14 -->
<g id="edge22" class="edge">
<title>Node16&#45;&gt;Node14</title>
<path fill="none" stroke="midnightblue" d="M208.75,-89.13C252.99,-97.85 318.37,-110.75 355.97,-118.17"/>
<polygon fill="midnightblue" stroke="midnightblue" points="209.31,-85.67 198.83,-87.17 207.96,-92.54 209.31,-85.67"/>
</g>
<!-- Node16&#45;&gt;Node21 -->
<g id="edge29" class="edge">
<title>Node16&#45;&gt;Node21</title>
<path fill="none" stroke="midnightblue" d="M209.05,-81.25C246.82,-82.27 299.86,-83.7 337.91,-84.72"/>
<polygon fill="midnightblue" stroke="midnightblue" points="208.92,-77.75 198.83,-80.98 208.73,-84.75 208.92,-77.75"/>
</g>
<!-- Node17 -->
<g id="node17" class="node">
<title>Node17</title>
<g id="a_node17"><a xlink:href="class_i_castable.html" target="_top" xlink:title=" ">
<polygon fill="white" stroke="black" points="130.5,-114.5 130.5,-133.5 192.5,-133.5 192.5,-114.5 130.5,-114.5"/>
<text text-anchor="middle" x="161.5" y="-121.5" font-family="Helvetica,sans-Serif" font-size="10.00">ICastable</text>
</a>
</g>
</g>
<!-- Node17&#45;&gt;Node14 -->
<g id="edge23" class="edge">
<title>Node17&#45;&gt;Node14</title>
<path fill="none" stroke="midnightblue" d="M202.66,-124C246.76,-124 316.52,-124 355.9,-124"/>
<polygon fill="midnightblue" stroke="midnightblue" points="202.57,-120.5 192.57,-124 202.57,-127.5 202.57,-120.5"/>
</g>
<!-- Node18 -->
<g id="node18" class="node">
<title>Node18</title>
<g id="a_node18"><a xlink:href="struct_r_t_t_i_1_1_base.html" target="_top" xlink:title=" ">
<polygon fill="white" stroke="black" points="0,-114.5 0,-133.5 68,-133.5 68,-114.5 0,-114.5"/>
<text text-anchor="middle" x="34" y="-121.5" font-family="Helvetica,sans-Serif" font-size="10.00">RTTI::Base</text>
</a>
</g>
</g>
<!-- Node18&#45;&gt;Node17 -->
<g id="edge24" class="edge">
<title>Node18&#45;&gt;Node17</title>
<path fill="none" stroke="midnightblue" d="M78.64,-124C95.75,-124 114.97,-124 130.48,-124"/>
<polygon fill="midnightblue" stroke="midnightblue" points="78.3,-120.5 68.3,-124 78.3,-127.5 78.3,-120.5"/>
</g>
<!-- Node19&#45;&gt;Node13 -->
<g id="edge25" class="edge">
<title>Node19&#45;&gt;Node13</title>
<path fill="none" stroke="#9a32cd" stroke-dasharray="5,2" d="M417.87,-174.4C432.48,-168.31 450.39,-161.51 467,-157 502.03,-147.49 543.55,-141.75 570.43,-138.73"/>
<polygon fill="#9a32cd" stroke="#9a32cd" points="416.17,-171.32 408.34,-178.46 418.92,-177.76 416.17,-171.32"/>
<text text-anchor="middle" x="491.5" y="-160" font-family="Helvetica,sans-Serif" font-size="10.00"> srcInfo</text>
</g>
<!-- Node20 -->
<g id="node20" class="node">
<title>Node20</title>
<g id="a_node20"><a xlink:href="class_p4_1_1_type_map.html" target="_top" xlink:title=" ">
<polygon fill="white" stroke="black" points="896,-88.5 896,-107.5 974,-107.5 974,-88.5 896,-88.5"/>
<text text-anchor="middle" x="935" y="-95.5" font-family="Helvetica,sans-Serif" font-size="10.00">P4::TypeMap</text>
</a>
</g>
</g>
<!-- Node20&#45;&gt;Node1 -->
<g id="edge27" class="edge">
<title>Node20&#45;&gt;Node1</title>
<path fill="none" stroke="#9a32cd" stroke-dasharray="5,2" d="M984.23,-98C1038.96,-98 1130.9,-98 1210,-98 1210,-98 1210,-98 1548.5,-98 1633.57,-98 1731.56,-123.18 1780.23,-137.44"/>
<polygon fill="#9a32cd" stroke="#9a32cd" points="984.12,-94.5 974.12,-98 984.12,-101.5 984.12,-94.5"/>
<text text-anchor="middle" x="1327" y="-101" font-family="Helvetica,sans-Serif" font-size="10.00"> typeMap</text>
</g>
<!-- Node21&#45;&gt;Node20 -->
<g id="edge28" class="edge">
<title>Node21&#45;&gt;Node20</title>
<path fill="none" stroke="midnightblue" d="M445.14,-87.27C557.18,-89.73 801.61,-95.09 895.87,-97.16"/>
<polygon fill="midnightblue" stroke="midnightblue" points="445.12,-83.76 435.04,-87.04 444.96,-90.76 445.12,-83.76"/>
</g>
<!-- Node22 -->
<g id="node22" class="node">
<title>Node22</title>
<g id="a_node22"><a xlink:href="class_p4_1_1_reference_map.html" target="_top" xlink:title="Class used to encode maps from paths to declarations.">
<polygon fill="white" stroke="black" points="547,-39.5 547,-58.5 652,-58.5 652,-39.5 547,-39.5"/>
<text text-anchor="middle" x="599.5" y="-46.5" font-family="Helvetica,sans-Serif" font-size="10.00">P4::ReferenceMap</text>
</a>
</g>
</g>
<!-- Node21&#45;&gt;Node22 -->
<g id="edge32" class="edge">
<title>Node21&#45;&gt;Node22</title>
<path fill="none" stroke="midnightblue" d="M445.17,-75.89C477,-70.31 516.2,-63.43 547,-58.03"/>
<polygon fill="midnightblue" stroke="midnightblue" points="444.36,-72.48 435.12,-77.65 445.57,-79.37 444.36,-72.48"/>
</g>
<!-- Node22&#45;&gt;Node1 -->
<g id="edge31" class="edge">
<title>Node22&#45;&gt;Node1</title>
<path fill="none" stroke="#9a32cd" stroke-dasharray="5,2" d="M662.2,-49.43C706.41,-49.7 767.37,-50 821,-50 821,-50 821,-50 1548.5,-50 1648.58,-50 1757.57,-112.81 1796.32,-137.34"/>
<polygon fill="#9a32cd" stroke="#9a32cd" points="662.2,-45.93 652.18,-49.37 662.16,-52.93 662.2,-45.93"/>
<text text-anchor="middle" x="1211" y="-53" font-family="Helvetica,sans-Serif" font-size="10.00"> refMap</text>
</g>
<!-- Node23 -->
<g id="node23" class="node">
<title>Node23</title>
<g id="a_node23"><a xlink:href="class_p4_1_1_name_generator.html" target="_top" xlink:title=" ">
<polygon fill="white" stroke="black" points="330,-0.5 330,-19.5 443,-19.5 443,-0.5 330,-0.5"/>
<text text-anchor="middle" x="386.5" y="-7.5" font-family="Helvetica,sans-Serif" font-size="10.00">P4::NameGenerator</text>
</a>
</g>
</g>
<!-- Node23&#45;&gt;Node22 -->
<g id="edge33" class="edge">
<title>Node23&#45;&gt;Node22</title>
<path fill="none" stroke="midnightblue" d="M448.99,-21.36C480.11,-27.12 517.47,-34.02 547.05,-39.49"/>
<polygon fill="midnightblue" stroke="midnightblue" points="449.59,-17.92 439.12,-19.54 448.31,-24.8 449.59,-17.92"/>
</g>
<!-- Node24 -->
<g id="node24" class="node">
<title>Node24</title>
<g id="a_node24"><a xlink:href="class_p4_1_1_declaration_lookup.html" target="_top" xlink:title=" ">
<polygon fill="white" stroke="black" points="324,-38.5 324,-57.5 449,-57.5 449,-38.5 324,-38.5"/>
<text text-anchor="middle" x="386.5" y="-45.5" font-family="Helvetica,sans-Serif" font-size="10.00">P4::DeclarationLookup</text>
</a>
</g>
</g>
<!-- Node24&#45;&gt;Node22 -->
<g id="edge34" class="edge">
<title>Node24&#45;&gt;Node22</title>
<path fill="none" stroke="midnightblue" d="M459.1,-48.34C487.87,-48.48 520.41,-48.63 546.81,-48.76"/>
<polygon fill="midnightblue" stroke="midnightblue" points="459.11,-44.84 449.1,-48.29 459.08,-51.84 459.11,-44.84"/>
</g>
</g>
</svg>
        <g id="navigator" transform="translate(0 0)" fill="#404254">
                <rect fill="#f2f5e9" fill-opacity="0.5" stroke="#606060" stroke-width=".5" x="0" y="0" width="60" height="60"/>
                <use id="zoomplus" xlink:href="#zoomPlus" x="17" y="9" onmousedown="handleZoom(evt,'in')"/>
                <use id="zoomminus" xlink:href="#zoomMin" x="42" y="9" onmousedown="handleZoom(evt,'out')"/>
                <use id="reset" xlink:href="#resetDef" x="30" y="36" onmousedown="handleReset()"/>
                <g id="arrowUp" xlink:href="#dirArrow" transform="translate(30 24)" onmousedown="handlePan(0,-1)">
                  <use xlink:href="#rim" fill="#404040">
                        <set attributeName="fill" to="#808080" begin="arrowUp.mouseover" end="arrowUp.mouseout"/>
                  </use>
                  <path fill="none" stroke="white" stroke-width="1.5" d="M0,-3.0v7 M-2.5,-0.5L0,-3.0L2.5,-0.5"/>
                </g>
                <g id="arrowRight" xlink:href="#dirArrow" transform="rotate(90) translate(36 -43)" onmousedown="handlePan(1,0)">
                  <use xlink:href="#rim" fill="#404040">
                        <set attributeName="fill" to="#808080" begin="arrowRight.mouseover" end="arrowRight.mouseout"/>
                  </use>
                  <path fill="none" stroke="white" stroke-width="1.5" d="M0,-3.0v7 M-2.5,-0.5L0,-3.0L2.5,-0.5"/>
                </g>
                <g id="arrowDown" xlink:href="#dirArrow" transform="rotate(180) translate(-30 -48)" onmousedown="handlePan(0,1)">
                  <use xlink:href="#rim" fill="#404040">
                        <set attributeName="fill" to="#808080" begin="arrowDown.mouseover" end="arrowDown.mouseout"/>
                  </use>
                  <path fill="none" stroke="white" stroke-width="1.5" d="M0,-3.0v7 M-2.5,-0.5L0,-3.0L2.5,-0.5"/>
                </g>
                <g id="arrowLeft" xlink:href="#dirArrow" transform="rotate(270) translate(-36 17)" onmousedown="handlePan(-1,0)">
                  <use xlink:href="#rim" fill="#404040">
                        <set attributeName="fill" to="#808080" begin="arrowLeft.mouseover" end="arrowLeft.mouseout"/>
                  </use>
                  <path fill="none" stroke="white" stroke-width="1.5" d="M0,-3.0v7 M-2.5,-0.5L0,-3.0L2.5,-0.5"/>
                </g>
        </g>
        <svg viewBox="0 0 15 15" width="100%" height="30px" preserveAspectRatio="xMaxYMin meet">
         <g id="arrow_out" transform="scale(0.3 0.3)">
          <a xlink:href="class_p4_1_1_do_flatten_header_union__coll__graph_org.svg" target="_base">
           <rect id="button" ry="5" rx="5" y="6" x="6" height="38" width="38"
                fill="#f2f5e9" fill-opacity="0.5" stroke="#606060" stroke-width="1.0"/>
           <path id="arrow"
             d="M 11.500037,31.436501 C 11.940474,20.09759 22.043105,11.32322 32.158766,21.979434 L 37.068811,17.246167 C 37.068811,17.246167 37.088388,32 37.088388,32 L 22.160133,31.978069 C 22.160133,31.978069 26.997745,27.140456 26.997745,27.140456 C 18.528582,18.264221 13.291696,25.230495 11.500037,31.436501 z"
             style="fill:#404040;"/>
          </a>
         </g>
        </svg>
</svg>
