<?xml version="1.0" encoding="UTF-8" standalone="no"?>
<!DOCTYPE svg PUBLIC "-//W3C//DTD SVG 1.1//EN"
 "http://www.w3.org/Graphics/SVG/1.1/DTD/svg11.dtd">
<!-- Generated by graphviz version 2.43.0 (0)
 -->
<!-- Title: exprUses Pages: 1 -->
<svg width="354pt" height="233pt"
 viewBox="0.00 0.00 354.00 233.00" xmlns="http://www.w3.org/2000/svg" xmlns:xlink="http://www.w3.org/1999/xlink">
<g id="graph0" class="graph" transform="scale(1 1) rotate(0) translate(4 229)">
<title>exprUses</title>
<polygon fill="white" stroke="transparent" points="-4,4 -4,-229 350,-229 350,4 -4,4"/>
<!-- Node1 -->
<g id="node1" class="node">
<title>Node1</title>
<g id="a_node1"><a xlink:title=" ">
<polygon fill="#bfbfbf" stroke="black" points="0,-0.5 0,-19.5 62,-19.5 62,-0.5 0,-0.5"/>
<text text-anchor="middle" x="31" y="-7.5" font-family="Helvetica,sans-Serif" font-size="10.00">exprUses</text>
</a>
</g>
</g>
<!-- Node2 -->
<g id="node2" class="node">
<title>Node2</title>
<g id="a_node2"><a xlink:href="class_inspector.html" target="_top" xlink:title=" ">
<polygon fill="white" stroke="black" points="0,-68.5 0,-87.5 62,-87.5 62,-68.5 0,-68.5"/>
<text text-anchor="middle" x="31" y="-75.5" font-family="Helvetica,sans-Serif" font-size="10.00">Inspector</text>
</a>
</g>
</g>
<!-- Node2&#45;&gt;Node1 -->
<g id="edge1" class="edge">
<title>Node2&#45;&gt;Node1</title>
<path fill="none" stroke="midnightblue" d="M31,-58.04C31,-45.47 31,-29.56 31,-19.84"/>
<polygon fill="midnightblue" stroke="midnightblue" points="27.5,-58.37 31,-68.37 34.5,-58.37 27.5,-58.37"/>
</g>
<!-- Node3 -->
<g id="node3" class="node">
<title>Node3</title>
<g id="a_node3"><a xlink:href="class_visitor.html" target="_top" xlink:title=" ">
<polygon fill="white" stroke="black" points="106,-136.5 106,-155.5 154,-155.5 154,-136.5 106,-136.5"/>
<text text-anchor="middle" x="130" y="-143.5" font-family="Helvetica,sans-Serif" font-size="10.00">Visitor</text>
</a>
</g>
</g>
<!-- Node3&#45;&gt;Node2 -->
<g id="edge2" class="edge">
<title>Node3&#45;&gt;Node2</title>
<path fill="none" stroke="midnightblue" d="M105.36,-131.17C98.37,-127.07 90.8,-122.48 84,-118 69.12,-108.19 52.69,-95.86 42.13,-87.72"/>
<polygon fill="midnightblue" stroke="midnightblue" points="104.01,-134.43 114.42,-136.39 107.51,-128.37 104.01,-134.43"/>
</g>
<!-- Node3&#45;&gt;Node3 -->
<g id="edge10" class="edge">
<title>Node3&#45;&gt;Node3</title>
<path fill="none" stroke="#9a32cd" stroke-dasharray="5,2" d="M164.42,-151.29C168.98,-150.39 172,-148.63 172,-146 172,-141.69 163.86,-139.7 154.17,-140.04"/>
<polygon fill="#9a32cd" stroke="#9a32cd" points="163.92,-147.82 154.17,-151.96 164.38,-154.8 163.92,-147.82"/>
<text text-anchor="middle" x="197" y="-143.5" font-family="Helvetica,sans-Serif" font-size="10.00"> called_by</text>
</g>
<!-- Node5 -->
<g id="node5" class="node">
<title>Node5</title>
<g id="a_node5"><a xlink:href="class_split_flow_visit__base.html" target="_top" xlink:title=" ">
<polygon fill="white" stroke="black" points="136,-0.5 136,-19.5 248,-19.5 248,-0.5 136,-0.5"/>
<text text-anchor="middle" x="192" y="-7.5" font-family="Helvetica,sans-Serif" font-size="10.00">SplitFlowVisit_base</text>
</a>
</g>
</g>
<!-- Node3&#45;&gt;Node5 -->
<g id="edge9" class="edge">
<title>Node3&#45;&gt;Node5</title>
<path fill="none" stroke="#9a32cd" stroke-dasharray="5,2" d="M117.66,-127.83C107.54,-111.48 96.48,-86.53 107,-67 119.74,-43.35 147.32,-28.04 167.62,-19.51"/>
<polygon fill="#9a32cd" stroke="#9a32cd" points="114.88,-129.97 123.33,-136.36 120.7,-126.1 114.88,-129.97"/>
<text text-anchor="middle" x="112" y="-75.5" font-family="Helvetica,sans-Serif" font-size="10.00"> v</text>
</g>
<!-- Node6 -->
<g id="node6" class="node">
<title>Node6</title>
<g id="a_node6"><a xlink:title=" ">
<polygon fill="white" stroke="#bfbfbf" points="126.5,-68.5 126.5,-87.5 257.5,-87.5 257.5,-68.5 126.5,-68.5"/>
<text text-anchor="middle" x="192" y="-75.5" font-family="Helvetica,sans-Serif" font-size="10.00">std::vector&lt; Visitor * &gt;</text>
</a>
</g>
</g>
<!-- Node3&#45;&gt;Node6 -->
<g id="edge8" class="edge">
<title>Node3&#45;&gt;Node6</title>
<path fill="none" stroke="#9a32cd" stroke-dasharray="5,2" d="M144.99,-129.05C157.14,-116.11 173.82,-98.36 183.69,-87.84"/>
<polygon fill="#9a32cd" stroke="#9a32cd" points="142.4,-126.69 138.11,-136.37 147.5,-131.48 142.4,-126.69"/>
<text text-anchor="middle" x="189.5" y="-110" font-family="Helvetica,sans-Serif" font-size="10.00"> elements</text>
</g>
<!-- Node4 -->
<g id="node4" class="node">
<title>Node4</title>
<g id="a_node4"><a xlink:href="classcstring.html" target="_top" xlink:title=" ">
<polygon fill="white" stroke="black" points="105,-204.5 105,-223.5 155,-223.5 155,-204.5 105,-204.5"/>
<text text-anchor="middle" x="130" y="-211.5" font-family="Helvetica,sans-Serif" font-size="10.00">cstring</text>
</a>
</g>
</g>
<!-- Node4&#45;&gt;Node3 -->
<g id="edge3" class="edge">
<title>Node4&#45;&gt;Node3</title>
<path fill="none" stroke="#9a32cd" stroke-dasharray="5,2" d="M130,-194.04C130,-181.47 130,-165.56 130,-155.84"/>
<polygon fill="#9a32cd" stroke="#9a32cd" points="126.5,-194.37 130,-204.37 133.5,-194.37 126.5,-194.37"/>
<text text-anchor="middle" x="165" y="-177" font-family="Helvetica,sans-Serif" font-size="10.00"> internalName</text>
</g>
<!-- Node4&#45;&gt;Node4 -->
<g id="edge4" class="edge">
<title>Node4&#45;&gt;Node4</title>
<path fill="none" stroke="#9a32cd" stroke-dasharray="5,2" d="M165.45,-219.58C170,-218.61 173,-216.75 173,-214 173,-209.48 164.91,-207.37 155.18,-207.65"/>
<polygon fill="#9a32cd" stroke="#9a32cd" points="164.89,-216.11 155.18,-220.35 165.41,-223.1 164.89,-216.11"/>
<text text-anchor="middle" x="192.5" y="-217" font-family="Helvetica,sans-Serif" font-size="10.00"> empty</text>
<text text-anchor="middle" x="192.5" y="-206" font-family="Helvetica,sans-Serif" font-size="10.00">newline</text>
</g>
<!-- Node5&#45;&gt;Node3 -->
<g id="edge5" class="edge">
<title>Node5&#45;&gt;Node3</title>
<path fill="none" stroke="#9a32cd" stroke-dasharray="5,2" d="M221.05,-24.16C248.07,-38.38 282.07,-62.58 267,-89 244.35,-128.73 186.96,-140.29 154.1,-143.64"/>
<polygon fill="#9a32cd" stroke="#9a32cd" points="222.38,-20.91 211.88,-19.56 219.25,-27.17 222.38,-20.91"/>
<text text-anchor="middle" x="308" y="-81" font-family="Helvetica,sans-Serif" font-size="10.00"> split_link</text>
<text text-anchor="middle" x="308" y="-70" font-family="Helvetica,sans-Serif" font-size="10.00">split_link_mem</text>
</g>
<!-- Node5&#45;&gt;Node5 -->
<g id="edge6" class="edge">
<title>Node5&#45;&gt;Node5</title>
<path fill="none" stroke="#9a32cd" stroke-dasharray="5,2" d="M258.4,-14.4C263.12,-13.4 266,-11.93 266,-10 266,-6.91 258.62,-5.01 248.15,-4.31"/>
<polygon fill="#9a32cd" stroke="#9a32cd" points="257.63,-10.97 248.15,-15.69 258.51,-17.91 257.63,-10.97"/>
<text text-anchor="middle" x="278.5" y="-7.5" font-family="Helvetica,sans-Serif" font-size="10.00"> prev</text>
</g>
<!-- Node6&#45;&gt;Node5 -->
<g id="edge7" class="edge">
<title>Node6&#45;&gt;Node5</title>
<path fill="none" stroke="#9a32cd" stroke-dasharray="5,2" d="M192,-58.04C192,-45.47 192,-29.56 192,-19.84"/>
<polygon fill="#9a32cd" stroke="#9a32cd" points="188.5,-58.37 192,-68.37 195.5,-58.37 188.5,-58.37"/>
<text text-anchor="middle" x="212" y="-41" font-family="Helvetica,sans-Serif" font-size="10.00"> visitors</text>
</g>
</g>
</svg>
