<?xml version="1.0" encoding="UTF-8" standalone="no"?>
<!DOCTYPE svg PUBLIC "-//W3C//DTD SVG 1.1//EN"
 "http://www.w3.org/Graphics/SVG/1.1/DTD/svg11.dtd">
<!-- Generated by graphviz version 2.43.0 (0)
 -->
<!-- Title: P4::DiscoverFunctionsInlining Pages: 1 -->
<svg width="403pt" height="233pt"
 viewBox="0.00 0.00 403.00 233.00" xmlns="http://www.w3.org/2000/svg" xmlns:xlink="http://www.w3.org/1999/xlink">
<g id="graph0" class="graph" transform="scale(1 1) rotate(0) translate(4 229)">
<title>P4::DiscoverFunctionsInlining</title>
<polygon fill="white" stroke="transparent" points="-4,4 -4,-229 399,-229 399,4 -4,4"/>
<!-- Node1 -->
<g id="node1" class="node">
<title>Node1</title>
<g id="a_node1"><a xlink:title=" ">
<polygon fill="#bfbfbf" stroke="black" points="0,-0.5 0,-19.5 160,-19.5 160,-0.5 0,-0.5"/>
<text text-anchor="middle" x="80" y="-7.5" font-family="Helvetica,sans-Serif" font-size="10.00">P4::DiscoverFunctionsInlining</text>
</a>
</g>
</g>
<!-- Node2 -->
<g id="node2" class="node">
<title>Node2</title>
<g id="a_node2"><a xlink:href="class_inspector.html" target="_top" xlink:title=" ">
<polygon fill="white" stroke="black" points="49,-68.5 49,-87.5 111,-87.5 111,-68.5 49,-68.5"/>
<text text-anchor="middle" x="80" y="-75.5" font-family="Helvetica,sans-Serif" font-size="10.00">Inspector</text>
</a>
</g>
</g>
<!-- Node2&#45;&gt;Node1 -->
<g id="edge1" class="edge">
<title>Node2&#45;&gt;Node1</title>
<path fill="none" stroke="midnightblue" d="M80,-58.04C80,-45.47 80,-29.56 80,-19.84"/>
<polygon fill="midnightblue" stroke="midnightblue" points="76.5,-58.37 80,-68.37 83.5,-58.37 76.5,-58.37"/>
</g>
<!-- Node3 -->
<g id="node3" class="node">
<title>Node3</title>
<g id="a_node3"><a xlink:href="class_visitor.html" target="_top" xlink:title=" ">
<polygon fill="white" stroke="black" points="155,-136.5 155,-155.5 203,-155.5 203,-136.5 155,-136.5"/>
<text text-anchor="middle" x="179" y="-143.5" font-family="Helvetica,sans-Serif" font-size="10.00">Visitor</text>
</a>
</g>
</g>
<!-- Node3&#45;&gt;Node2 -->
<g id="edge2" class="edge">
<title>Node3&#45;&gt;Node2</title>
<path fill="none" stroke="midnightblue" d="M154.36,-131.17C147.37,-127.07 139.8,-122.48 133,-118 118.12,-108.19 101.69,-95.86 91.13,-87.72"/>
<polygon fill="midnightblue" stroke="midnightblue" points="153.01,-134.43 163.42,-136.39 156.51,-128.37 153.01,-134.43"/>
</g>
<!-- Node3&#45;&gt;Node3 -->
<g id="edge10" class="edge">
<title>Node3&#45;&gt;Node3</title>
<path fill="none" stroke="#9a32cd" stroke-dasharray="5,2" d="M213.42,-151.29C217.98,-150.39 221,-148.63 221,-146 221,-141.69 212.86,-139.7 203.17,-140.04"/>
<polygon fill="#9a32cd" stroke="#9a32cd" points="212.92,-147.82 203.17,-151.96 213.38,-154.8 212.92,-147.82"/>
<text text-anchor="middle" x="246" y="-143.5" font-family="Helvetica,sans-Serif" font-size="10.00"> called_by</text>
</g>
<!-- Node5 -->
<g id="node5" class="node">
<title>Node5</title>
<g id="a_node5"><a xlink:href="class_split_flow_visit__base.html" target="_top" xlink:title=" ">
<polygon fill="white" stroke="black" points="185,-0.5 185,-19.5 297,-19.5 297,-0.5 185,-0.5"/>
<text text-anchor="middle" x="241" y="-7.5" font-family="Helvetica,sans-Serif" font-size="10.00">SplitFlowVisit_base</text>
</a>
</g>
</g>
<!-- Node3&#45;&gt;Node5 -->
<g id="edge9" class="edge">
<title>Node3&#45;&gt;Node5</title>
<path fill="none" stroke="#9a32cd" stroke-dasharray="5,2" d="M166.66,-127.83C156.54,-111.48 145.48,-86.53 156,-67 168.74,-43.35 196.32,-28.04 216.62,-19.51"/>
<polygon fill="#9a32cd" stroke="#9a32cd" points="163.88,-129.97 172.33,-136.36 169.7,-126.1 163.88,-129.97"/>
<text text-anchor="middle" x="161" y="-75.5" font-family="Helvetica,sans-Serif" font-size="10.00"> v</text>
</g>
<!-- Node6 -->
<g id="node6" class="node">
<title>Node6</title>
<g id="a_node6"><a xlink:title=" ">
<polygon fill="white" stroke="#bfbfbf" points="175.5,-68.5 175.5,-87.5 306.5,-87.5 306.5,-68.5 175.5,-68.5"/>
<text text-anchor="middle" x="241" y="-75.5" font-family="Helvetica,sans-Serif" font-size="10.00">std::vector&lt; Visitor * &gt;</text>
</a>
</g>
</g>
<!-- Node3&#45;&gt;Node6 -->
<g id="edge8" class="edge">
<title>Node3&#45;&gt;Node6</title>
<path fill="none" stroke="#9a32cd" stroke-dasharray="5,2" d="M193.99,-129.05C206.14,-116.11 222.82,-98.36 232.69,-87.84"/>
<polygon fill="#9a32cd" stroke="#9a32cd" points="191.4,-126.69 187.11,-136.37 196.5,-131.48 191.4,-126.69"/>
<text text-anchor="middle" x="238.5" y="-110" font-family="Helvetica,sans-Serif" font-size="10.00"> elements</text>
</g>
<!-- Node4 -->
<g id="node4" class="node">
<title>Node4</title>
<g id="a_node4"><a xlink:href="classcstring.html" target="_top" xlink:title=" ">
<polygon fill="white" stroke="black" points="154,-204.5 154,-223.5 204,-223.5 204,-204.5 154,-204.5"/>
<text text-anchor="middle" x="179" y="-211.5" font-family="Helvetica,sans-Serif" font-size="10.00">cstring</text>
</a>
</g>
</g>
<!-- Node4&#45;&gt;Node3 -->
<g id="edge3" class="edge">
<title>Node4&#45;&gt;Node3</title>
<path fill="none" stroke="#9a32cd" stroke-dasharray="5,2" d="M179,-194.04C179,-181.47 179,-165.56 179,-155.84"/>
<polygon fill="#9a32cd" stroke="#9a32cd" points="175.5,-194.37 179,-204.37 182.5,-194.37 175.5,-194.37"/>
<text text-anchor="middle" x="214" y="-177" font-family="Helvetica,sans-Serif" font-size="10.00"> internalName</text>
</g>
<!-- Node4&#45;&gt;Node4 -->
<g id="edge4" class="edge">
<title>Node4&#45;&gt;Node4</title>
<path fill="none" stroke="#9a32cd" stroke-dasharray="5,2" d="M214.45,-219.58C219,-218.61 222,-216.75 222,-214 222,-209.48 213.91,-207.37 204.18,-207.65"/>
<polygon fill="#9a32cd" stroke="#9a32cd" points="213.89,-216.11 204.18,-220.35 214.41,-223.1 213.89,-216.11"/>
<text text-anchor="middle" x="241.5" y="-217" font-family="Helvetica,sans-Serif" font-size="10.00"> empty</text>
<text text-anchor="middle" x="241.5" y="-206" font-family="Helvetica,sans-Serif" font-size="10.00">newline</text>
</g>
<!-- Node5&#45;&gt;Node3 -->
<g id="edge5" class="edge">
<title>Node5&#45;&gt;Node3</title>
<path fill="none" stroke="#9a32cd" stroke-dasharray="5,2" d="M270.05,-24.16C297.07,-38.38 331.07,-62.58 316,-89 293.35,-128.73 235.96,-140.29 203.1,-143.64"/>
<polygon fill="#9a32cd" stroke="#9a32cd" points="271.38,-20.91 260.88,-19.56 268.25,-27.17 271.38,-20.91"/>
<text text-anchor="middle" x="357" y="-81" font-family="Helvetica,sans-Serif" font-size="10.00"> split_link</text>
<text text-anchor="middle" x="357" y="-70" font-family="Helvetica,sans-Serif" font-size="10.00">split_link_mem</text>
</g>
<!-- Node5&#45;&gt;Node5 -->
<g id="edge6" class="edge">
<title>Node5&#45;&gt;Node5</title>
<path fill="none" stroke="#9a32cd" stroke-dasharray="5,2" d="M307.4,-14.4C312.12,-13.4 315,-11.93 315,-10 315,-6.91 307.62,-5.01 297.15,-4.31"/>
<polygon fill="#9a32cd" stroke="#9a32cd" points="306.63,-10.97 297.15,-15.69 307.51,-17.91 306.63,-10.97"/>
<text text-anchor="middle" x="327.5" y="-7.5" font-family="Helvetica,sans-Serif" font-size="10.00"> prev</text>
</g>
<!-- Node6&#45;&gt;Node5 -->
<g id="edge7" class="edge">
<title>Node6&#45;&gt;Node5</title>
<path fill="none" stroke="#9a32cd" stroke-dasharray="5,2" d="M241,-58.04C241,-45.47 241,-29.56 241,-19.84"/>
<polygon fill="#9a32cd" stroke="#9a32cd" points="237.5,-58.37 241,-68.37 244.5,-58.37 237.5,-58.37"/>
<text text-anchor="middle" x="261" y="-41" font-family="Helvetica,sans-Serif" font-size="10.00"> visitors</text>
</g>
</g>
</svg>
