<?xml version="1.0" encoding="UTF-8" standalone="no"?>
<!DOCTYPE svg PUBLIC "-//W3C//DTD SVG 1.1//EN"
 "http://www.w3.org/Graphics/SVG/1.1/DTD/svg11.dtd">
<!-- Generated by graphviz version 2.43.0 (0)
 -->
<!-- Title: P4Tools::P4Testgen::Continuation Pages: 1 -->
<svg width="124pt" height="117pt"
 viewBox="0.00 0.00 124.00 117.00" xmlns="http://www.w3.org/2000/svg" xmlns:xlink="http://www.w3.org/1999/xlink">
<g id="graph0" class="graph" transform="scale(1 1) rotate(0) translate(4 113)">
<title>P4Tools::P4Testgen::Continuation</title>
<polygon fill="white" stroke="transparent" points="-4,4 -4,-113 120,-113 120,4 -4,4"/>
<!-- Node1 -->
<g id="node1" class="node">
<title>Node1</title>
<g id="a_node1"><a xlink:title=" ">
<polygon fill="#bfbfbf" stroke="black" points="3.5,-0.5 3.5,-30.5 112.5,-30.5 112.5,-0.5 3.5,-0.5"/>
<text text-anchor="start" x="11.5" y="-18.5" font-family="Helvetica,sans-Serif" font-size="10.00">P4Tools::P4Testgen</text>
<text text-anchor="middle" x="58" y="-7.5" font-family="Helvetica,sans-Serif" font-size="10.00">::Continuation</text>
</a>
</g>
</g>
<!-- Node2 -->
<g id="node2" class="node">
<title>Node2</title>
<g id="a_node2"><a xlink:href="class_p4_tools_1_1_p4_testgen_1_1_continuation_1_1_body.html" target="_top" xlink:title="A continuation body is a list of commands.">
<polygon fill="white" stroke="black" points="0,-78.5 0,-108.5 116,-108.5 116,-78.5 0,-78.5"/>
<text text-anchor="start" x="8" y="-96.5" font-family="Helvetica,sans-Serif" font-size="10.00">P4Tools::P4Testgen</text>
<text text-anchor="middle" x="58" y="-85.5" font-family="Helvetica,sans-Serif" font-size="10.00">::Continuation::Body</text>
</a>
</g>
</g>
<!-- Node2&#45;&gt;Node1 -->
<g id="edge1" class="edge">
<title>Node2&#45;&gt;Node1</title>
<path fill="none" stroke="#9a32cd" stroke-dasharray="5,2" d="M58,-68.09C58,-55.76 58,-41.22 58,-30.73"/>
<polygon fill="#9a32cd" stroke="#9a32cd" points="54.5,-68.2 58,-78.2 61.5,-68.21 54.5,-68.2"/>
<text text-anchor="middle" x="72" y="-52" font-family="Helvetica,sans-Serif" font-size="10.00"> body</text>
</g>
</g>
</svg>
