<?xml version="1.0" encoding="UTF-8" standalone="no"?>
<!DOCTYPE svg PUBLIC "-//W3C//DTD SVG 1.1//EN"
 "http://www.w3.org/Graphics/SVG/1.1/DTD/svg11.dtd">
<!-- Generated by graphviz version 2.43.0 (0)
 -->
<!-- Title: P4::SwitchAddDefault Pages: 1 -->
<svg width="381pt" height="233pt"
 viewBox="0.00 0.00 381.00 233.00" xmlns="http://www.w3.org/2000/svg" xmlns:xlink="http://www.w3.org/1999/xlink">
<g id="graph0" class="graph" transform="scale(1 1) rotate(0) translate(4 229)">
<title>P4::SwitchAddDefault</title>
<polygon fill="white" stroke="transparent" points="-4,4 -4,-229 377,-229 377,4 -4,4"/>
<!-- Node1 -->
<g id="node1" class="node">
<title>Node1</title>
<g id="a_node1"><a xlink:title=" ">
<polygon fill="#bfbfbf" stroke="black" points="0,-0.5 0,-19.5 122,-19.5 122,-0.5 0,-0.5"/>
<text text-anchor="middle" x="61" y="-7.5" font-family="Helvetica,sans-Serif" font-size="10.00">P4::SwitchAddDefault</text>
</a>
</g>
</g>
<!-- Node2 -->
<g id="node2" class="node">
<title>Node2</title>
<g id="a_node2"><a xlink:href="class_modifier.html" target="_top" xlink:title=" ">
<polygon fill="white" stroke="black" points="33,-68.5 33,-87.5 89,-87.5 89,-68.5 33,-68.5"/>
<text text-anchor="middle" x="61" y="-75.5" font-family="Helvetica,sans-Serif" font-size="10.00">Modifier</text>
</a>
</g>
</g>
<!-- Node2&#45;&gt;Node1 -->
<g id="edge1" class="edge">
<title>Node2&#45;&gt;Node1</title>
<path fill="none" stroke="midnightblue" d="M61,-58.04C61,-45.47 61,-29.56 61,-19.84"/>
<polygon fill="midnightblue" stroke="midnightblue" points="57.5,-58.37 61,-68.37 64.5,-58.37 57.5,-58.37"/>
</g>
<!-- Node3 -->
<g id="node3" class="node">
<title>Node3</title>
<g id="a_node3"><a xlink:href="class_visitor.html" target="_top" xlink:title=" ">
<polygon fill="white" stroke="black" points="133,-136.5 133,-155.5 181,-155.5 181,-136.5 133,-136.5"/>
<text text-anchor="middle" x="157" y="-143.5" font-family="Helvetica,sans-Serif" font-size="10.00">Visitor</text>
</a>
</g>
</g>
<!-- Node3&#45;&gt;Node2 -->
<g id="edge2" class="edge">
<title>Node3&#45;&gt;Node2</title>
<path fill="none" stroke="midnightblue" d="M132.28,-131.29C125.28,-127.2 117.74,-122.58 111,-118 96.79,-108.35 81.33,-95.98 71.42,-87.79"/>
<polygon fill="midnightblue" stroke="midnightblue" points="130.94,-134.56 141.35,-136.49 134.42,-128.49 130.94,-134.56"/>
</g>
<!-- Node3&#45;&gt;Node3 -->
<g id="edge10" class="edge">
<title>Node3&#45;&gt;Node3</title>
<path fill="none" stroke="#9a32cd" stroke-dasharray="5,2" d="M191.42,-151.29C195.98,-150.39 199,-148.63 199,-146 199,-141.69 190.86,-139.7 181.17,-140.04"/>
<polygon fill="#9a32cd" stroke="#9a32cd" points="190.92,-147.82 181.17,-151.96 191.38,-154.8 190.92,-147.82"/>
<text text-anchor="middle" x="224" y="-143.5" font-family="Helvetica,sans-Serif" font-size="10.00"> called_by</text>
</g>
<!-- Node5 -->
<g id="node5" class="node">
<title>Node5</title>
<g id="a_node5"><a xlink:href="class_split_flow_visit__base.html" target="_top" xlink:title=" ">
<polygon fill="white" stroke="black" points="163,-0.5 163,-19.5 275,-19.5 275,-0.5 163,-0.5"/>
<text text-anchor="middle" x="219" y="-7.5" font-family="Helvetica,sans-Serif" font-size="10.00">SplitFlowVisit_base</text>
</a>
</g>
</g>
<!-- Node3&#45;&gt;Node5 -->
<g id="edge9" class="edge">
<title>Node3&#45;&gt;Node5</title>
<path fill="none" stroke="#9a32cd" stroke-dasharray="5,2" d="M144.66,-127.83C134.54,-111.48 123.48,-86.53 134,-67 146.74,-43.35 174.32,-28.04 194.62,-19.51"/>
<polygon fill="#9a32cd" stroke="#9a32cd" points="141.88,-129.97 150.33,-136.36 147.7,-126.1 141.88,-129.97"/>
<text text-anchor="middle" x="139" y="-75.5" font-family="Helvetica,sans-Serif" font-size="10.00"> v</text>
</g>
<!-- Node6 -->
<g id="node6" class="node">
<title>Node6</title>
<g id="a_node6"><a xlink:title=" ">
<polygon fill="white" stroke="#bfbfbf" points="153.5,-68.5 153.5,-87.5 284.5,-87.5 284.5,-68.5 153.5,-68.5"/>
<text text-anchor="middle" x="219" y="-75.5" font-family="Helvetica,sans-Serif" font-size="10.00">std::vector&lt; Visitor * &gt;</text>
</a>
</g>
</g>
<!-- Node3&#45;&gt;Node6 -->
<g id="edge8" class="edge">
<title>Node3&#45;&gt;Node6</title>
<path fill="none" stroke="#9a32cd" stroke-dasharray="5,2" d="M171.99,-129.05C184.14,-116.11 200.82,-98.36 210.69,-87.84"/>
<polygon fill="#9a32cd" stroke="#9a32cd" points="169.4,-126.69 165.11,-136.37 174.5,-131.48 169.4,-126.69"/>
<text text-anchor="middle" x="216.5" y="-110" font-family="Helvetica,sans-Serif" font-size="10.00"> elements</text>
</g>
<!-- Node4 -->
<g id="node4" class="node">
<title>Node4</title>
<g id="a_node4"><a xlink:href="classcstring.html" target="_top" xlink:title=" ">
<polygon fill="white" stroke="black" points="132,-204.5 132,-223.5 182,-223.5 182,-204.5 132,-204.5"/>
<text text-anchor="middle" x="157" y="-211.5" font-family="Helvetica,sans-Serif" font-size="10.00">cstring</text>
</a>
</g>
</g>
<!-- Node4&#45;&gt;Node3 -->
<g id="edge3" class="edge">
<title>Node4&#45;&gt;Node3</title>
<path fill="none" stroke="#9a32cd" stroke-dasharray="5,2" d="M157,-194.04C157,-181.47 157,-165.56 157,-155.84"/>
<polygon fill="#9a32cd" stroke="#9a32cd" points="153.5,-194.37 157,-204.37 160.5,-194.37 153.5,-194.37"/>
<text text-anchor="middle" x="192" y="-177" font-family="Helvetica,sans-Serif" font-size="10.00"> internalName</text>
</g>
<!-- Node4&#45;&gt;Node4 -->
<g id="edge4" class="edge">
<title>Node4&#45;&gt;Node4</title>
<path fill="none" stroke="#9a32cd" stroke-dasharray="5,2" d="M192.45,-219.58C197,-218.61 200,-216.75 200,-214 200,-209.48 191.91,-207.37 182.18,-207.65"/>
<polygon fill="#9a32cd" stroke="#9a32cd" points="191.89,-216.11 182.18,-220.35 192.41,-223.1 191.89,-216.11"/>
<text text-anchor="middle" x="219.5" y="-217" font-family="Helvetica,sans-Serif" font-size="10.00"> empty</text>
<text text-anchor="middle" x="219.5" y="-206" font-family="Helvetica,sans-Serif" font-size="10.00">newline</text>
</g>
<!-- Node5&#45;&gt;Node3 -->
<g id="edge5" class="edge">
<title>Node5&#45;&gt;Node3</title>
<path fill="none" stroke="#9a32cd" stroke-dasharray="5,2" d="M248.05,-24.16C275.07,-38.38 309.07,-62.58 294,-89 271.35,-128.73 213.96,-140.29 181.1,-143.64"/>
<polygon fill="#9a32cd" stroke="#9a32cd" points="249.38,-20.91 238.88,-19.56 246.25,-27.17 249.38,-20.91"/>
<text text-anchor="middle" x="335" y="-81" font-family="Helvetica,sans-Serif" font-size="10.00"> split_link</text>
<text text-anchor="middle" x="335" y="-70" font-family="Helvetica,sans-Serif" font-size="10.00">split_link_mem</text>
</g>
<!-- Node5&#45;&gt;Node5 -->
<g id="edge6" class="edge">
<title>Node5&#45;&gt;Node5</title>
<path fill="none" stroke="#9a32cd" stroke-dasharray="5,2" d="M285.4,-14.4C290.12,-13.4 293,-11.93 293,-10 293,-6.91 285.62,-5.01 275.15,-4.31"/>
<polygon fill="#9a32cd" stroke="#9a32cd" points="284.63,-10.97 275.15,-15.69 285.51,-17.91 284.63,-10.97"/>
<text text-anchor="middle" x="305.5" y="-7.5" font-family="Helvetica,sans-Serif" font-size="10.00"> prev</text>
</g>
<!-- Node6&#45;&gt;Node5 -->
<g id="edge7" class="edge">
<title>Node6&#45;&gt;Node5</title>
<path fill="none" stroke="#9a32cd" stroke-dasharray="5,2" d="M219,-58.04C219,-45.47 219,-29.56 219,-19.84"/>
<polygon fill="#9a32cd" stroke="#9a32cd" points="215.5,-58.37 219,-68.37 222.5,-58.37 215.5,-58.37"/>
<text text-anchor="middle" x="239" y="-41" font-family="Helvetica,sans-Serif" font-size="10.00"> visitors</text>
</g>
</g>
</svg>
