<?xml version="1.0" encoding="UTF-8" standalone="no"?>
<!DOCTYPE svg PUBLIC "-//W3C//DTD SVG 1.1//EN"
 "http://www.w3.org/Graphics/SVG/1.1/DTD/svg11.dtd">
<!-- Generated by graphviz version 2.43.0 (0)
 -->
<!-- Title: P4Tools::P4Testgen::EBPF::EBPFCompilerTarget Pages: 1 -->
<svg width="258pt" height="434pt"
 viewBox="0.00 0.00 257.50 434.00" xmlns="http://www.w3.org/2000/svg" xmlns:xlink="http://www.w3.org/1999/xlink">
<g id="graph0" class="graph" transform="scale(1 1) rotate(0) translate(4 430)">
<title>P4Tools::P4Testgen::EBPF::EBPFCompilerTarget</title>
<polygon fill="white" stroke="transparent" points="-4,4 -4,-430 253.5,-430 253.5,4 -4,4"/>
<!-- Node1 -->
<g id="node1" class="node">
<title>Node1</title>
<g id="a_node1"><a xlink:title=" ">
<polygon fill="#bfbfbf" stroke="black" points="0,-0.5 0,-30.5 152,-30.5 152,-0.5 0,-0.5"/>
<text text-anchor="start" x="8" y="-18.5" font-family="Helvetica,sans-Serif" font-size="10.00">P4Tools::P4Testgen</text>
<text text-anchor="middle" x="76" y="-7.5" font-family="Helvetica,sans-Serif" font-size="10.00">::EBPF::EBPFCompilerTarget</text>
</a>
</g>
</g>
<!-- Node2 -->
<g id="node2" class="node">
<title>Node2</title>
<g id="a_node2"><a xlink:href="class_p4_tools_1_1_p4_testgen_1_1_testgen_compiler_target.html" target="_top" xlink:title=" ">
<polygon fill="white" stroke="black" points="9,-68.5 9,-98.5 143,-98.5 143,-68.5 9,-68.5"/>
<text text-anchor="start" x="17" y="-86.5" font-family="Helvetica,sans-Serif" font-size="10.00">P4Tools::P4Testgen</text>
<text text-anchor="middle" x="76" y="-75.5" font-family="Helvetica,sans-Serif" font-size="10.00">::TestgenCompilerTarget</text>
</a>
</g>
</g>
<!-- Node2&#45;&gt;Node1 -->
<g id="edge1" class="edge">
<title>Node2&#45;&gt;Node1</title>
<path fill="none" stroke="midnightblue" d="M76,-58.03C76,-48.86 76,-38.74 76,-30.79"/>
<polygon fill="midnightblue" stroke="midnightblue" points="72.5,-58.18 76,-68.18 79.5,-58.18 72.5,-58.18"/>
</g>
<!-- Node3 -->
<g id="node3" class="node">
<title>Node3</title>
<g id="a_node3"><a xlink:href="class_p4_tools_1_1_compiler_target.html" target="_top" xlink:title="Encapsulates the details of invoking the P4 compiler for a target device and architecture.">
<polygon fill="white" stroke="black" points="9,-136.5 9,-155.5 143,-155.5 143,-136.5 9,-136.5"/>
<text text-anchor="middle" x="76" y="-143.5" font-family="Helvetica,sans-Serif" font-size="10.00">P4Tools::CompilerTarget</text>
</a>
</g>
</g>
<!-- Node3&#45;&gt;Node2 -->
<g id="edge2" class="edge">
<title>Node3&#45;&gt;Node2</title>
<path fill="none" stroke="midnightblue" d="M76,-126.22C76,-117.36 76,-106.96 76,-98.76"/>
<polygon fill="midnightblue" stroke="midnightblue" points="72.5,-126.33 76,-136.33 79.5,-126.33 72.5,-126.33"/>
</g>
<!-- Node4 -->
<g id="node4" class="node">
<title>Node4</title>
<g id="a_node4"><a xlink:href="class_p4_tools_1_1_target.html" target="_top" xlink:title=" ">
<polygon fill="white" stroke="black" points="31.5,-193.5 31.5,-212.5 120.5,-212.5 120.5,-193.5 31.5,-193.5"/>
<text text-anchor="middle" x="76" y="-200.5" font-family="Helvetica,sans-Serif" font-size="10.00">P4Tools::Target</text>
</a>
</g>
</g>
<!-- Node4&#45;&gt;Node3 -->
<g id="edge3" class="edge">
<title>Node4&#45;&gt;Node3</title>
<path fill="none" stroke="midnightblue" d="M76,-183.12C76,-173.82 76,-163.06 76,-155.71"/>
<polygon fill="midnightblue" stroke="midnightblue" points="72.5,-183.41 76,-193.41 79.5,-183.41 72.5,-183.41"/>
</g>
<!-- Node5 -->
<g id="node5" class="node">
<title>Node5</title>
<g id="a_node5"><a xlink:title=" ">
<polygon fill="white" stroke="#bfbfbf" points="43.5,-338.5 43.5,-357.5 108.5,-357.5 108.5,-338.5 43.5,-338.5"/>
<text text-anchor="middle" x="76" y="-345.5" font-family="Helvetica,sans-Serif" font-size="10.00">std::string</text>
</a>
</g>
</g>
<!-- Node5&#45;&gt;Node4 -->
<g id="edge4" class="edge">
<title>Node5&#45;&gt;Node4</title>
<path fill="none" stroke="#9a32cd" stroke-dasharray="5,2" d="M73.39,-328.29C71.24,-310.68 68.74,-283.56 70,-260 70.9,-243.21 73.3,-223.7 74.78,-212.71"/>
<polygon fill="#9a32cd" stroke="#9a32cd" points="69.94,-328.9 74.7,-338.36 76.88,-327.99 69.94,-328.9"/>
<text text-anchor="middle" x="96" y="-267.5" font-family="Helvetica,sans-Serif" font-size="10.00"> toolName</text>
</g>
<!-- Node7 -->
<g id="node7" class="node">
<title>Node7</title>
<g id="a_node7"><a xlink:href="struct_p4_tools_1_1_target_1_1_spec.html" target="_top" xlink:title="Specifies a target device and architecture by their names in lower case.">
<polygon fill="white" stroke="black" points="130.5,-260.5 130.5,-279.5 249.5,-279.5 249.5,-260.5 130.5,-260.5"/>
<text text-anchor="middle" x="190" y="-267.5" font-family="Helvetica,sans-Serif" font-size="10.00">P4Tools::Target::Spec</text>
</a>
</g>
</g>
<!-- Node5&#45;&gt;Node7 -->
<g id="edge7" class="edge">
<title>Node5&#45;&gt;Node7</title>
<path fill="none" stroke="#9a32cd" stroke-dasharray="5,2" d="M97.65,-332.57C121.1,-316.93 157.75,-292.5 177.08,-279.62"/>
<polygon fill="#9a32cd" stroke="#9a32cd" points="95.46,-329.82 89.08,-338.28 99.34,-335.65 95.46,-329.82"/>
<text text-anchor="middle" x="177" y="-312" font-family="Helvetica,sans-Serif" font-size="10.00"> archName</text>
<text text-anchor="middle" x="177" y="-301" font-family="Helvetica,sans-Serif" font-size="10.00">deviceName</text>
</g>
<!-- Node6 -->
<g id="node6" class="node">
<title>Node6</title>
<g id="a_node6"><a xlink:title=" ">
<polygon fill="white" stroke="#bfbfbf" points="24,-395.5 24,-425.5 128,-425.5 128,-395.5 24,-395.5"/>
<text text-anchor="start" x="32" y="-413.5" font-family="Helvetica,sans-Serif" font-size="10.00">std::basic_string&lt;</text>
<text text-anchor="middle" x="76" y="-402.5" font-family="Helvetica,sans-Serif" font-size="10.00"> Char &gt;</text>
</a>
</g>
</g>
<!-- Node6&#45;&gt;Node5 -->
<g id="edge5" class="edge">
<title>Node6&#45;&gt;Node5</title>
<path fill="none" stroke="midnightblue" d="M76,-385.35C76,-375.51 76,-364.78 76,-357.54"/>
<polygon fill="midnightblue" stroke="midnightblue" points="72.5,-385.47 76,-395.47 79.5,-385.47 72.5,-385.47"/>
</g>
<!-- Node7&#45;&gt;Node4 -->
<g id="edge6" class="edge">
<title>Node7&#45;&gt;Node4</title>
<path fill="none" stroke="#9a32cd" stroke-dasharray="5,2" d="M165.65,-255.12C143.06,-242.24 110.16,-223.48 91.13,-212.63"/>
<polygon fill="#9a32cd" stroke="#9a32cd" points="164.2,-258.32 174.63,-260.23 167.67,-252.24 164.2,-258.32"/>
<text text-anchor="middle" x="152" y="-234" font-family="Helvetica,sans-Serif" font-size="10.00"> spec</text>
</g>
</g>
</svg>
