<?xml version="1.0" encoding="UTF-8" standalone="no"?>
<!DOCTYPE svg PUBLIC "-//W3C//DTD SVG 1.1//EN"
 "http://www.w3.org/Graphics/SVG/1.1/DTD/svg11.dtd">
<!-- Generated by graphviz version 2.43.0 (0)
 -->
<!-- Title: EBPF::IHasWidth Pages: 1 -->
<svg width="628pt" height="256pt"
 viewBox="0.00 0.00 628.00 256.00" xmlns="http://www.w3.org/2000/svg" xmlns:xlink="http://www.w3.org/1999/xlink">
<g id="graph0" class="graph" transform="scale(1 1) rotate(0) translate(4 252)">
<title>EBPF::IHasWidth</title>
<!-- Node1 -->
<g id="node1" class="node">
<title>Node1</title>
<g id="a_node1"><a xlink:title=" ">
<polygon fill="#bfbfbf" stroke="black" points="202,-114.5 202,-133.5 299,-133.5 299,-114.5 202,-114.5"/>
<text text-anchor="middle" x="250.5" y="-121.5" font-family="Helvetica,sans-Serif" font-size="10.00">EBPF::IHasWidth</text>
</a>
</g>
</g>
<!-- Node4 -->
<g id="node4" class="node">
<title>Node4</title>
<g id="a_node4"><a xlink:href="class_e_b_p_f_1_1_e_b_p_f_bool_type.html" target="_top" xlink:title=" ">
<polygon fill="none" stroke="black" points="338.5,-228.5 338.5,-247.5 454.5,-247.5 454.5,-228.5 338.5,-228.5"/>
<text text-anchor="middle" x="396.5" y="-235.5" font-family="Helvetica,sans-Serif" font-size="10.00">EBPF::EBPFBoolType</text>
</a>
</g>
</g>
<!-- Node1&#45;&gt;Node4 -->
<g id="edge3" class="edge">
<title>Node1&#45;&gt;Node4</title>
<path fill="none" stroke="midnightblue" d="M262.88,-142.12C277.2,-163.48 303.74,-198.65 335,-219 340.91,-222.84 347.64,-225.95 354.42,-228.46"/>
<polygon fill="midnightblue" stroke="midnightblue" points="265.74,-140.1 257.35,-133.63 259.88,-143.92 265.74,-140.1"/>
</g>
<!-- Node6 -->
<g id="node6" class="node">
<title>Node6</title>
<g id="a_node6"><a xlink:href="class_e_b_p_f_1_1_e_b_p_f_enum_type.html" target="_top" xlink:title=" ">
<polygon fill="none" stroke="black" points="335.5,-190.5 335.5,-209.5 457.5,-209.5 457.5,-190.5 335.5,-190.5"/>
<text text-anchor="middle" x="396.5" y="-197.5" font-family="Helvetica,sans-Serif" font-size="10.00">EBPF::EBPFEnumType</text>
</a>
</g>
</g>
<!-- Node1&#45;&gt;Node6 -->
<g id="edge5" class="edge">
<title>Node1&#45;&gt;Node6</title>
<path fill="none" stroke="midnightblue" d="M271.46,-140.12C287.76,-152.66 311.82,-169.75 335,-181 342.53,-184.65 350.92,-187.81 359,-190.45"/>
<polygon fill="midnightblue" stroke="midnightblue" points="273.29,-137.11 263.26,-133.7 268.97,-142.62 273.29,-137.11"/>
</g>
<!-- Node8 -->
<g id="node8" class="node">
<title>Node8</title>
<g id="a_node8"><a xlink:href="class_e_b_p_f_1_1_e_b_p_f_scalar_type.html" target="_top" xlink:title=" ">
<polygon fill="none" stroke="black" points="335,-152.5 335,-171.5 458,-171.5 458,-152.5 335,-152.5"/>
<text text-anchor="middle" x="396.5" y="-159.5" font-family="Helvetica,sans-Serif" font-size="10.00">EBPF::EBPFScalarType</text>
</a>
</g>
</g>
<!-- Node1&#45;&gt;Node8 -->
<g id="edge7" class="edge">
<title>Node1&#45;&gt;Node8</title>
<path fill="none" stroke="midnightblue" d="M297.67,-136.18C317.66,-141.46 340.72,-147.54 359.42,-152.48"/>
<polygon fill="midnightblue" stroke="midnightblue" points="298.4,-132.76 287.84,-133.59 296.61,-139.52 298.4,-132.76"/>
</g>
<!-- Node10 -->
<g id="node10" class="node">
<title>Node10</title>
<g id="a_node10"><a xlink:href="class_e_b_p_f_1_1_e_b_p_f_stack_type.html" target="_top" xlink:title=" ">
<polygon fill="none" stroke="black" points="336.5,-114.5 336.5,-133.5 456.5,-133.5 456.5,-114.5 336.5,-114.5"/>
<text text-anchor="middle" x="396.5" y="-121.5" font-family="Helvetica,sans-Serif" font-size="10.00">EBPF::EBPFStackType</text>
</a>
</g>
</g>
<!-- Node1&#45;&gt;Node10 -->
<g id="edge9" class="edge">
<title>Node1&#45;&gt;Node10</title>
<path fill="none" stroke="midnightblue" d="M309.06,-124C318.07,-124 327.4,-124 336.44,-124"/>
<polygon fill="midnightblue" stroke="midnightblue" points="309.05,-120.5 299.05,-124 309.05,-127.5 309.05,-120.5"/>
</g>
<!-- Node11 -->
<g id="node11" class="node">
<title>Node11</title>
<g id="a_node11"><a xlink:href="class_e_b_p_f_1_1_e_b_p_f_struct_type.html" target="_top" xlink:title=" ">
<polygon fill="none" stroke="black" points="335.5,-76.5 335.5,-95.5 457.5,-95.5 457.5,-76.5 335.5,-76.5"/>
<text text-anchor="middle" x="396.5" y="-83.5" font-family="Helvetica,sans-Serif" font-size="10.00">EBPF::EBPFStructType</text>
</a>
</g>
</g>
<!-- Node1&#45;&gt;Node11 -->
<g id="edge10" class="edge">
<title>Node1&#45;&gt;Node11</title>
<path fill="none" stroke="midnightblue" d="M297.67,-111.82C317.66,-106.54 340.72,-100.46 359.42,-95.52"/>
<polygon fill="midnightblue" stroke="midnightblue" points="296.61,-108.48 287.84,-114.41 298.4,-115.24 296.61,-108.48"/>
</g>
<!-- Node13 -->
<g id="node13" class="node">
<title>Node13</title>
<g id="a_node13"><a xlink:href="class_e_b_p_f_1_1_e_b_p_f_type_name.html" target="_top" xlink:title=" ">
<polygon fill="none" stroke="black" points="335.5,-38.5 335.5,-57.5 457.5,-57.5 457.5,-38.5 335.5,-38.5"/>
<text text-anchor="middle" x="396.5" y="-45.5" font-family="Helvetica,sans-Serif" font-size="10.00">EBPF::EBPFTypeName</text>
</a>
</g>
</g>
<!-- Node1&#45;&gt;Node13 -->
<g id="edge12" class="edge">
<title>Node1&#45;&gt;Node13</title>
<path fill="none" stroke="midnightblue" d="M271.46,-107.88C287.76,-95.34 311.82,-78.25 335,-67 342.53,-63.35 350.92,-60.19 359,-57.55"/>
<polygon fill="midnightblue" stroke="midnightblue" points="268.97,-105.38 263.26,-114.3 273.29,-110.89 268.97,-105.38"/>
</g>
<!-- Node14 -->
<g id="node14" class="node">
<title>Node14</title>
<g id="a_node14"><a xlink:href="class_u_b_p_f_1_1_u_b_p_f_list_type.html" target="_top" xlink:title=" ">
<polygon fill="none" stroke="black" points="339.5,-0.5 339.5,-19.5 453.5,-19.5 453.5,-0.5 339.5,-0.5"/>
<text text-anchor="middle" x="396.5" y="-7.5" font-family="Helvetica,sans-Serif" font-size="10.00">UBPF::UBPFListType</text>
</a>
</g>
</g>
<!-- Node1&#45;&gt;Node14 -->
<g id="edge13" class="edge">
<title>Node1&#45;&gt;Node14</title>
<path fill="none" stroke="midnightblue" d="M262.88,-105.88C277.2,-84.52 303.74,-49.35 335,-29 340.91,-25.16 347.64,-22.05 354.42,-19.54"/>
<polygon fill="midnightblue" stroke="midnightblue" points="259.88,-104.08 257.35,-114.37 265.74,-107.9 259.88,-104.08"/>
</g>
<!-- Node2 -->
<g id="node2" class="node">
<title>Node2</title>
<g id="a_node2"><a xlink:href="class_i_castable.html" target="_top" xlink:title=" ">
<polygon fill="none" stroke="black" points="104,-114.5 104,-133.5 166,-133.5 166,-114.5 104,-114.5"/>
<text text-anchor="middle" x="135" y="-121.5" font-family="Helvetica,sans-Serif" font-size="10.00">ICastable</text>
</a>
</g>
</g>
<!-- Node2&#45;&gt;Node1 -->
<g id="edge1" class="edge">
<title>Node2&#45;&gt;Node1</title>
<path fill="none" stroke="midnightblue" d="M176.22,-124C184.45,-124 193.19,-124 201.67,-124"/>
<polygon fill="midnightblue" stroke="midnightblue" points="176.12,-120.5 166.12,-124 176.12,-127.5 176.12,-120.5"/>
</g>
<!-- Node3 -->
<g id="node3" class="node">
<title>Node3</title>
<g id="a_node3"><a xlink:href="struct_r_t_t_i_1_1_base.html" target="_top" xlink:title=" ">
<polygon fill="none" stroke="black" points="0,-114.5 0,-133.5 68,-133.5 68,-114.5 0,-114.5"/>
<text text-anchor="middle" x="34" y="-121.5" font-family="Helvetica,sans-Serif" font-size="10.00">RTTI::Base</text>
</a>
</g>
</g>
<!-- Node3&#45;&gt;Node2 -->
<g id="edge2" class="edge">
<title>Node3&#45;&gt;Node2</title>
<path fill="none" stroke="midnightblue" d="M78.44,-124C86.95,-124 95.71,-124 103.68,-124"/>
<polygon fill="midnightblue" stroke="midnightblue" points="78.24,-120.5 68.24,-124 78.24,-127.5 78.24,-120.5"/>
</g>
<!-- Node5 -->
<g id="node5" class="node">
<title>Node5</title>
<g id="a_node5"><a xlink:href="class_u_b_p_f_1_1_u_b_p_f_bool_type.html" target="_top" xlink:title=" ">
<polygon fill="none" stroke="black" points="497.5,-228.5 497.5,-247.5 616.5,-247.5 616.5,-228.5 497.5,-228.5"/>
<text text-anchor="middle" x="557" y="-235.5" font-family="Helvetica,sans-Serif" font-size="10.00">UBPF::UBPFBoolType</text>
</a>
</g>
</g>
<!-- Node4&#45;&gt;Node5 -->
<g id="edge4" class="edge">
<title>Node4&#45;&gt;Node5</title>
<path fill="none" stroke="midnightblue" d="M464.92,-238C475.67,-238 486.73,-238 497.26,-238"/>
<polygon fill="midnightblue" stroke="midnightblue" points="464.72,-234.5 454.72,-238 464.72,-241.5 464.72,-234.5"/>
</g>
<!-- Node7 -->
<g id="node7" class="node">
<title>Node7</title>
<g id="a_node7"><a xlink:href="class_u_b_p_f_1_1_u_b_p_f_enum_type.html" target="_top" xlink:title=" ">
<polygon fill="none" stroke="black" points="494.5,-190.5 494.5,-209.5 619.5,-209.5 619.5,-190.5 494.5,-190.5"/>
<text text-anchor="middle" x="557" y="-197.5" font-family="Helvetica,sans-Serif" font-size="10.00">UBPF::UBPFEnumType</text>
</a>
</g>
</g>
<!-- Node6&#45;&gt;Node7 -->
<g id="edge6" class="edge">
<title>Node6&#45;&gt;Node7</title>
<path fill="none" stroke="midnightblue" d="M468.11,-200C476.9,-200 485.84,-200 494.48,-200"/>
<polygon fill="midnightblue" stroke="midnightblue" points="467.87,-196.5 457.87,-200 467.87,-203.5 467.87,-196.5"/>
</g>
<!-- Node9 -->
<g id="node9" class="node">
<title>Node9</title>
<g id="a_node9"><a xlink:href="class_u_b_p_f_1_1_u_b_p_f_scalar_type.html" target="_top" xlink:title=" ">
<polygon fill="none" stroke="black" points="494,-152.5 494,-171.5 620,-171.5 620,-152.5 494,-152.5"/>
<text text-anchor="middle" x="557" y="-159.5" font-family="Helvetica,sans-Serif" font-size="10.00">UBPF::UBPFScalarType</text>
</a>
</g>
</g>
<!-- Node8&#45;&gt;Node9 -->
<g id="edge8" class="edge">
<title>Node8&#45;&gt;Node9</title>
<path fill="none" stroke="midnightblue" d="M468.51,-162C476.93,-162 485.48,-162 493.76,-162"/>
<polygon fill="midnightblue" stroke="midnightblue" points="468.33,-158.5 458.33,-162 468.33,-165.5 468.33,-158.5"/>
</g>
<!-- Node12 -->
<g id="node12" class="node">
<title>Node12</title>
<g id="a_node12"><a xlink:href="class_u_b_p_f_1_1_u_b_p_f_struct_type.html" target="_top" xlink:title=" ">
<polygon fill="none" stroke="black" points="494.5,-76.5 494.5,-95.5 619.5,-95.5 619.5,-76.5 494.5,-76.5"/>
<text text-anchor="middle" x="557" y="-83.5" font-family="Helvetica,sans-Serif" font-size="10.00">UBPF::UBPFStructType</text>
</a>
</g>
</g>
<!-- Node11&#45;&gt;Node12 -->
<g id="edge11" class="edge">
<title>Node11&#45;&gt;Node12</title>
<path fill="none" stroke="midnightblue" d="M468.11,-86C476.9,-86 485.84,-86 494.48,-86"/>
<polygon fill="midnightblue" stroke="midnightblue" points="467.87,-82.5 457.87,-86 467.87,-89.5 467.87,-82.5"/>
</g>
</g>
</svg>
