<?xml version="1.0" encoding="UTF-8" standalone="no"?>
<!DOCTYPE svg PUBLIC "-//W3C//DTD SVG 1.1//EN"
 "http://www.w3.org/Graphics/SVG/1.1/DTD/svg11.dtd">
<!-- Generated by graphviz version 2.43.0 (0)
 -->
<!-- Title: P4::ReplacementMap Pages: 1 -->
<svg width="232pt" height="221pt"
 viewBox="0.00 0.00 231.50 221.00" xmlns="http://www.w3.org/2000/svg" xmlns:xlink="http://www.w3.org/1999/xlink">
<g id="graph0" class="graph" transform="scale(1 1) rotate(0) translate(4 217)">
<title>P4::ReplacementMap</title>
<polygon fill="white" stroke="transparent" points="-4,4 -4,-217 227.5,-217 227.5,4 -4,4"/>
<!-- Node1 -->
<g id="node1" class="node">
<title>Node1</title>
<g id="a_node1"><a xlink:title=" ">
<polygon fill="#bfbfbf" stroke="black" points="50,-0.5 50,-19.5 170,-19.5 170,-0.5 50,-0.5"/>
<text text-anchor="middle" x="110" y="-7.5" font-family="Helvetica,sans-Serif" font-size="10.00">P4::ReplacementMap</text>
</a>
</g>
</g>
<!-- Node2 -->
<g id="node2" class="node">
<title>Node2</title>
<g id="a_node2"><a xlink:href="class_p4_1_1_type_map.html" target="_top" xlink:title=" ">
<polygon fill="white" stroke="black" points="14,-67.5 14,-86.5 92,-86.5 92,-67.5 14,-67.5"/>
<text text-anchor="middle" x="53" y="-74.5" font-family="Helvetica,sans-Serif" font-size="10.00">P4::TypeMap</text>
</a>
</g>
</g>
<!-- Node2&#45;&gt;Node1 -->
<g id="edge1" class="edge">
<title>Node2&#45;&gt;Node1</title>
<path fill="none" stroke="#9a32cd" stroke-dasharray="5,2" d="M67.35,-59.63C78.5,-46.92 93.52,-29.8 102.43,-19.63"/>
<polygon fill="#9a32cd" stroke="#9a32cd" points="64.65,-57.41 60.69,-67.23 69.91,-62.02 64.65,-57.41"/>
<text text-anchor="middle" x="108" y="-41" font-family="Helvetica,sans-Serif" font-size="10.00"> typeMap</text>
</g>
<!-- Node3 -->
<g id="node3" class="node">
<title>Node3</title>
<g id="a_node3"><a xlink:href="class_p4_1_1_program_map.html" target="_top" xlink:title=" ">
<polygon fill="white" stroke="black" points="4.5,-124.5 4.5,-143.5 101.5,-143.5 101.5,-124.5 4.5,-124.5"/>
<text text-anchor="middle" x="53" y="-131.5" font-family="Helvetica,sans-Serif" font-size="10.00">P4::ProgramMap</text>
</a>
</g>
</g>
<!-- Node3&#45;&gt;Node2 -->
<g id="edge2" class="edge">
<title>Node3&#45;&gt;Node2</title>
<path fill="none" stroke="midnightblue" d="M53,-114.12C53,-104.82 53,-94.06 53,-86.71"/>
<polygon fill="midnightblue" stroke="midnightblue" points="49.5,-114.41 53,-124.41 56.5,-114.41 49.5,-114.41"/>
</g>
<!-- Node4 -->
<g id="node4" class="node">
<title>Node4</title>
<g id="a_node4"><a xlink:href="class_i_has_db_print.html" target="_top" xlink:title=" ">
<polygon fill="white" stroke="black" points="0,-192.5 0,-211.5 74,-211.5 74,-192.5 0,-192.5"/>
<text text-anchor="middle" x="37" y="-199.5" font-family="Helvetica,sans-Serif" font-size="10.00">IHasDbPrint</text>
</a>
</g>
</g>
<!-- Node4&#45;&gt;Node3 -->
<g id="edge3" class="edge">
<title>Node4&#45;&gt;Node3</title>
<path fill="none" stroke="midnightblue" d="M41.5,-182.42C44.56,-169.8 48.48,-153.66 50.86,-143.84"/>
<polygon fill="midnightblue" stroke="midnightblue" points="38.05,-181.83 39.09,-192.37 44.85,-183.48 38.05,-181.83"/>
</g>
<!-- Node5 -->
<g id="node5" class="node">
<title>Node5</title>
<g id="a_node5"><a xlink:href="classcstring.html" target="_top" xlink:title=" ">
<polygon fill="white" stroke="black" points="92,-192.5 92,-211.5 142,-211.5 142,-192.5 92,-192.5"/>
<text text-anchor="middle" x="117" y="-199.5" font-family="Helvetica,sans-Serif" font-size="10.00">cstring</text>
</a>
</g>
</g>
<!-- Node5&#45;&gt;Node3 -->
<g id="edge4" class="edge">
<title>Node5&#45;&gt;Node3</title>
<path fill="none" stroke="#9a32cd" stroke-dasharray="5,2" d="M101.53,-185.05C88.99,-172.11 71.77,-154.36 61.57,-143.84"/>
<polygon fill="#9a32cd" stroke="#9a32cd" points="99.16,-187.63 108.63,-192.37 104.18,-182.76 99.16,-187.63"/>
<text text-anchor="middle" x="112.5" y="-165" font-family="Helvetica,sans-Serif" font-size="10.00"> mapKind</text>
</g>
<!-- Node5&#45;&gt;Node5 -->
<g id="edge5" class="edge">
<title>Node5&#45;&gt;Node5</title>
<path fill="none" stroke="#9a32cd" stroke-dasharray="5,2" d="M152.45,-207.58C157,-206.61 160,-204.75 160,-202 160,-197.48 151.91,-195.37 142.18,-195.65"/>
<polygon fill="#9a32cd" stroke="#9a32cd" points="151.89,-204.11 142.18,-208.35 152.41,-211.1 151.89,-204.11"/>
<text text-anchor="middle" x="179.5" y="-205" font-family="Helvetica,sans-Serif" font-size="10.00"> empty</text>
<text text-anchor="middle" x="179.5" y="-194" font-family="Helvetica,sans-Serif" font-size="10.00">newline</text>
</g>
<!-- Node6 -->
<g id="node6" class="node">
<title>Node6</title>
<g id="a_node6"><a xlink:href="class_p4_1_1_name_generator.html" target="_top" xlink:title=" ">
<polygon fill="white" stroke="black" points="110.5,-67.5 110.5,-86.5 223.5,-86.5 223.5,-67.5 110.5,-67.5"/>
<text text-anchor="middle" x="167" y="-74.5" font-family="Helvetica,sans-Serif" font-size="10.00">P4::NameGenerator</text>
</a>
</g>
</g>
<!-- Node6&#45;&gt;Node1 -->
<g id="edge6" class="edge">
<title>Node6&#45;&gt;Node1</title>
<path fill="none" stroke="#9a32cd" stroke-dasharray="5,2" d="M153.51,-59.64C147.86,-52.88 141.18,-45 135,-38 129.59,-31.87 123.34,-25.12 118.44,-19.9"/>
<polygon fill="#9a32cd" stroke="#9a32cd" points="150.91,-61.99 160,-67.45 156.3,-57.52 150.91,-61.99"/>
<text text-anchor="middle" x="151" y="-41" font-family="Helvetica,sans-Serif" font-size="10.00"> ng</text>
</g>
</g>
</svg>
