<?xml version="1.0" encoding="UTF-8" standalone="no"?>
<!DOCTYPE svg PUBLIC "-//W3C//DTD SVG 1.1//EN"
 "http://www.w3.org/Graphics/SVG/1.1/DTD/svg11.dtd">
<!-- Generated by graphviz version 2.43.0 (0)
 -->
<!-- Title: Util::P4CExceptionBase Pages: 1 -->
<svg width="219pt" height="97pt"
 viewBox="0.00 0.00 219.00 97.00" xmlns="http://www.w3.org/2000/svg" xmlns:xlink="http://www.w3.org/1999/xlink">
<g id="graph0" class="graph" transform="scale(1 1) rotate(0) translate(4 93)">
<title>Util::P4CExceptionBase</title>
<polygon fill="white" stroke="transparent" points="-4,4 -4,-93 215,-93 215,4 -4,4"/>
<!-- Node1 -->
<g id="node1" class="node">
<title>Node1</title>
<g id="a_node1"><a xlink:title=" ">
<polygon fill="#bfbfbf" stroke="black" points="6.5,-0.5 6.5,-19.5 137.5,-19.5 137.5,-0.5 6.5,-0.5"/>
<text text-anchor="middle" x="72" y="-7.5" font-family="Helvetica,sans-Serif" font-size="10.00">Util::P4CExceptionBase</text>
</a>
</g>
</g>
<!-- Node2 -->
<g id="node2" class="node">
<title>Node2</title>
<g id="a_node2"><a xlink:title=" ">
<polygon fill="white" stroke="#bfbfbf" points="0,-68.5 0,-87.5 86,-87.5 86,-68.5 0,-68.5"/>
<text text-anchor="middle" x="43" y="-75.5" font-family="Helvetica,sans-Serif" font-size="10.00">std::exception</text>
</a>
</g>
</g>
<!-- Node2&#45;&gt;Node1 -->
<g id="edge1" class="edge">
<title>Node2&#45;&gt;Node1</title>
<path fill="none" stroke="midnightblue" d="M50.83,-59.19C56.42,-46.45 63.71,-29.86 68.12,-19.84"/>
<polygon fill="midnightblue" stroke="midnightblue" points="47.61,-57.81 46.79,-68.37 54.02,-60.62 47.61,-57.81"/>
</g>
<!-- Node3 -->
<g id="node3" class="node">
<title>Node3</title>
<g id="a_node3"><a xlink:href="classcstring.html" target="_top" xlink:title=" ">
<polygon fill="white" stroke="black" points="104,-68.5 104,-87.5 154,-87.5 154,-68.5 104,-68.5"/>
<text text-anchor="middle" x="129" y="-75.5" font-family="Helvetica,sans-Serif" font-size="10.00">cstring</text>
</a>
</g>
</g>
<!-- Node3&#45;&gt;Node1 -->
<g id="edge2" class="edge">
<title>Node3&#45;&gt;Node1</title>
<path fill="none" stroke="#9a32cd" stroke-dasharray="5,2" d="M114.91,-60.68C103.76,-47.78 88.63,-30.26 79.64,-19.84"/>
<polygon fill="#9a32cd" stroke="#9a32cd" points="112.36,-63.09 121.55,-68.37 117.66,-58.52 112.36,-63.09"/>
<text text-anchor="middle" x="127" y="-41" font-family="Helvetica,sans-Serif" font-size="10.00"> message</text>
</g>
<!-- Node3&#45;&gt;Node3 -->
<g id="edge3" class="edge">
<title>Node3&#45;&gt;Node3</title>
<path fill="none" stroke="#9a32cd" stroke-dasharray="5,2" d="M164.45,-83.58C169,-82.61 172,-80.75 172,-78 172,-73.48 163.91,-71.37 154.18,-71.65"/>
<polygon fill="#9a32cd" stroke="#9a32cd" points="163.89,-80.11 154.18,-84.35 164.41,-87.1 163.89,-80.11"/>
<text text-anchor="middle" x="191.5" y="-81" font-family="Helvetica,sans-Serif" font-size="10.00"> empty</text>
<text text-anchor="middle" x="191.5" y="-70" font-family="Helvetica,sans-Serif" font-size="10.00">newline</text>
</g>
</g>
</svg>
