<?xml version="1.0" encoding="UTF-8" standalone="no"?>
<!DOCTYPE svg PUBLIC "-//W3C//DTD SVG 1.1//EN"
 "http://www.w3.org/Graphics/SVG/1.1/DTD/svg11.dtd">
<!-- Generated by graphviz version 2.43.0 (0)
 -->
<!-- Title: P4Tools::P4Testgen::TestgenUnimplemented Pages: 1 -->
<svg width="219pt" height="165pt"
 viewBox="0.00 0.00 219.00 165.00" xmlns="http://www.w3.org/2000/svg" xmlns:xlink="http://www.w3.org/1999/xlink">
<g id="graph0" class="graph" transform="scale(1 1) rotate(0) translate(4 161)">
<title>P4Tools::P4Testgen::TestgenUnimplemented</title>
<polygon fill="white" stroke="transparent" points="-4,4 -4,-161 215,-161 215,4 -4,4"/>
<!-- Node1 -->
<g id="node1" class="node">
<title>Node1</title>
<g id="a_node1"><a xlink:title=" ">
<polygon fill="#bfbfbf" stroke="black" points="2.5,-0.5 2.5,-30.5 141.5,-30.5 141.5,-0.5 2.5,-0.5"/>
<text text-anchor="start" x="10.5" y="-18.5" font-family="Helvetica,sans-Serif" font-size="10.00">P4Tools::P4Testgen</text>
<text text-anchor="middle" x="72" y="-7.5" font-family="Helvetica,sans-Serif" font-size="10.00">::TestgenUnimplemented</text>
</a>
</g>
</g>
<!-- Node2 -->
<g id="node2" class="node">
<title>Node2</title>
<g id="a_node2"><a xlink:href="class_util_1_1_p4_c_exception_base.html" target="_top" xlink:title=" ">
<polygon fill="white" stroke="black" points="6.5,-68.5 6.5,-87.5 137.5,-87.5 137.5,-68.5 6.5,-68.5"/>
<text text-anchor="middle" x="72" y="-75.5" font-family="Helvetica,sans-Serif" font-size="10.00">Util::P4CExceptionBase</text>
</a>
</g>
</g>
<!-- Node2&#45;&gt;Node1 -->
<g id="edge1" class="edge">
<title>Node2&#45;&gt;Node1</title>
<path fill="none" stroke="midnightblue" d="M72,-58.22C72,-49.36 72,-38.96 72,-30.76"/>
<polygon fill="midnightblue" stroke="midnightblue" points="68.5,-58.33 72,-68.33 75.5,-58.33 68.5,-58.33"/>
</g>
<!-- Node3 -->
<g id="node3" class="node">
<title>Node3</title>
<g id="a_node3"><a xlink:title=" ">
<polygon fill="white" stroke="#bfbfbf" points="0,-136.5 0,-155.5 86,-155.5 86,-136.5 0,-136.5"/>
<text text-anchor="middle" x="43" y="-143.5" font-family="Helvetica,sans-Serif" font-size="10.00">std::exception</text>
</a>
</g>
</g>
<!-- Node3&#45;&gt;Node2 -->
<g id="edge2" class="edge">
<title>Node3&#45;&gt;Node2</title>
<path fill="none" stroke="midnightblue" d="M50.83,-127.19C56.42,-114.45 63.71,-97.86 68.12,-87.84"/>
<polygon fill="midnightblue" stroke="midnightblue" points="47.61,-125.81 46.79,-136.37 54.02,-128.62 47.61,-125.81"/>
</g>
<!-- Node4 -->
<g id="node4" class="node">
<title>Node4</title>
<g id="a_node4"><a xlink:href="classcstring.html" target="_top" xlink:title=" ">
<polygon fill="white" stroke="black" points="104,-136.5 104,-155.5 154,-155.5 154,-136.5 104,-136.5"/>
<text text-anchor="middle" x="129" y="-143.5" font-family="Helvetica,sans-Serif" font-size="10.00">cstring</text>
</a>
</g>
</g>
<!-- Node4&#45;&gt;Node2 -->
<g id="edge3" class="edge">
<title>Node4&#45;&gt;Node2</title>
<path fill="none" stroke="#9a32cd" stroke-dasharray="5,2" d="M114.91,-128.68C103.76,-115.78 88.63,-98.26 79.64,-87.84"/>
<polygon fill="#9a32cd" stroke="#9a32cd" points="112.36,-131.09 121.55,-136.37 117.66,-126.52 112.36,-131.09"/>
<text text-anchor="middle" x="127" y="-109" font-family="Helvetica,sans-Serif" font-size="10.00"> message</text>
</g>
<!-- Node4&#45;&gt;Node4 -->
<g id="edge4" class="edge">
<title>Node4&#45;&gt;Node4</title>
<path fill="none" stroke="#9a32cd" stroke-dasharray="5,2" d="M164.45,-151.58C169,-150.61 172,-148.75 172,-146 172,-141.48 163.91,-139.37 154.18,-139.65"/>
<polygon fill="#9a32cd" stroke="#9a32cd" points="163.89,-148.11 154.18,-152.35 164.41,-155.1 163.89,-148.11"/>
<text text-anchor="middle" x="191.5" y="-149" font-family="Helvetica,sans-Serif" font-size="10.00"> empty</text>
<text text-anchor="middle" x="191.5" y="-138" font-family="Helvetica,sans-Serif" font-size="10.00">newline</text>
</g>
</g>
</svg>
