<?xml version="1.0" encoding="UTF-8" standalone="no"?>
<!DOCTYPE svg PUBLIC "-//W3C//DTD SVG 1.1//EN"
 "http://www.w3.org/Graphics/SVG/1.1/DTD/svg11.dtd">
<!-- Generated by graphviz version 2.43.0 (0)
 -->
<!-- Title: EBPF::ConvertToEBPFDeparserPSA Pages: 1 -->
<svg width="418pt" height="233pt"
 viewBox="0.00 0.00 418.00 233.00" xmlns="http://www.w3.org/2000/svg" xmlns:xlink="http://www.w3.org/1999/xlink">
<g id="graph0" class="graph" transform="scale(1 1) rotate(0) translate(4 229)">
<title>EBPF::ConvertToEBPFDeparserPSA</title>
<polygon fill="white" stroke="transparent" points="-4,4 -4,-229 414,-229 414,4 -4,4"/>
<!-- Node1 -->
<g id="node1" class="node">
<title>Node1</title>
<g id="a_node1"><a xlink:title=" ">
<polygon fill="#bfbfbf" stroke="black" points="0,-0.5 0,-19.5 184,-19.5 184,-0.5 0,-0.5"/>
<text text-anchor="middle" x="92" y="-7.5" font-family="Helvetica,sans-Serif" font-size="10.00">EBPF::ConvertToEBPFDeparserPSA</text>
</a>
</g>
</g>
<!-- Node2 -->
<g id="node2" class="node">
<title>Node2</title>
<g id="a_node2"><a xlink:href="class_inspector.html" target="_top" xlink:title=" ">
<polygon fill="white" stroke="black" points="63,-68.5 63,-87.5 125,-87.5 125,-68.5 63,-68.5"/>
<text text-anchor="middle" x="94" y="-75.5" font-family="Helvetica,sans-Serif" font-size="10.00">Inspector</text>
</a>
</g>
</g>
<!-- Node2&#45;&gt;Node1 -->
<g id="edge1" class="edge">
<title>Node2&#45;&gt;Node1</title>
<path fill="none" stroke="midnightblue" d="M93.43,-58.04C93.04,-45.47 92.56,-29.56 92.27,-19.84"/>
<polygon fill="midnightblue" stroke="midnightblue" points="89.94,-58.48 93.74,-68.37 96.93,-58.27 89.94,-58.48"/>
</g>
<!-- Node3 -->
<g id="node3" class="node">
<title>Node3</title>
<g id="a_node3"><a xlink:href="class_visitor.html" target="_top" xlink:title=" ">
<polygon fill="white" stroke="black" points="170,-136.5 170,-155.5 218,-155.5 218,-136.5 170,-136.5"/>
<text text-anchor="middle" x="194" y="-143.5" font-family="Helvetica,sans-Serif" font-size="10.00">Visitor</text>
</a>
</g>
</g>
<!-- Node3&#45;&gt;Node2 -->
<g id="edge2" class="edge">
<title>Node3&#45;&gt;Node2</title>
<path fill="none" stroke="midnightblue" d="M169.39,-131.13C162.39,-127.04 154.82,-122.45 148,-118 132.89,-108.14 116.14,-95.82 105.37,-87.69"/>
<polygon fill="midnightblue" stroke="midnightblue" points="168.03,-134.39 178.45,-136.36 171.53,-128.33 168.03,-134.39"/>
</g>
<!-- Node3&#45;&gt;Node3 -->
<g id="edge10" class="edge">
<title>Node3&#45;&gt;Node3</title>
<path fill="none" stroke="#9a32cd" stroke-dasharray="5,2" d="M228.42,-151.29C232.98,-150.39 236,-148.63 236,-146 236,-141.69 227.86,-139.7 218.17,-140.04"/>
<polygon fill="#9a32cd" stroke="#9a32cd" points="227.92,-147.82 218.17,-151.96 228.38,-154.8 227.92,-147.82"/>
<text text-anchor="middle" x="261" y="-143.5" font-family="Helvetica,sans-Serif" font-size="10.00"> called_by</text>
</g>
<!-- Node5 -->
<g id="node5" class="node">
<title>Node5</title>
<g id="a_node5"><a xlink:href="class_split_flow_visit__base.html" target="_top" xlink:title=" ">
<polygon fill="white" stroke="black" points="202,-0.5 202,-19.5 314,-19.5 314,-0.5 202,-0.5"/>
<text text-anchor="middle" x="258" y="-7.5" font-family="Helvetica,sans-Serif" font-size="10.00">SplitFlowVisit_base</text>
</a>
</g>
</g>
<!-- Node3&#45;&gt;Node5 -->
<g id="edge9" class="edge">
<title>Node3&#45;&gt;Node5</title>
<path fill="none" stroke="#9a32cd" stroke-dasharray="5,2" d="M181.61,-127.81C171.46,-111.44 160.37,-86.48 171,-67 183.99,-43.19 211.92,-27.98 232.65,-19.52"/>
<polygon fill="#9a32cd" stroke="#9a32cd" points="178.84,-129.97 187.3,-136.35 184.67,-126.08 178.84,-129.97"/>
<text text-anchor="middle" x="176" y="-75.5" font-family="Helvetica,sans-Serif" font-size="10.00"> v</text>
</g>
<!-- Node6 -->
<g id="node6" class="node">
<title>Node6</title>
<g id="a_node6"><a xlink:title=" ">
<polygon fill="white" stroke="#bfbfbf" points="190.5,-68.5 190.5,-87.5 321.5,-87.5 321.5,-68.5 190.5,-68.5"/>
<text text-anchor="middle" x="256" y="-75.5" font-family="Helvetica,sans-Serif" font-size="10.00">std::vector&lt; Visitor * &gt;</text>
</a>
</g>
</g>
<!-- Node3&#45;&gt;Node6 -->
<g id="edge8" class="edge">
<title>Node3&#45;&gt;Node6</title>
<path fill="none" stroke="#9a32cd" stroke-dasharray="5,2" d="M208.99,-129.05C221.14,-116.11 237.82,-98.36 247.69,-87.84"/>
<polygon fill="#9a32cd" stroke="#9a32cd" points="206.4,-126.69 202.11,-136.37 211.5,-131.48 206.4,-126.69"/>
<text text-anchor="middle" x="253.5" y="-110" font-family="Helvetica,sans-Serif" font-size="10.00"> elements</text>
</g>
<!-- Node4 -->
<g id="node4" class="node">
<title>Node4</title>
<g id="a_node4"><a xlink:href="classcstring.html" target="_top" xlink:title=" ">
<polygon fill="white" stroke="black" points="169,-204.5 169,-223.5 219,-223.5 219,-204.5 169,-204.5"/>
<text text-anchor="middle" x="194" y="-211.5" font-family="Helvetica,sans-Serif" font-size="10.00">cstring</text>
</a>
</g>
</g>
<!-- Node4&#45;&gt;Node3 -->
<g id="edge3" class="edge">
<title>Node4&#45;&gt;Node3</title>
<path fill="none" stroke="#9a32cd" stroke-dasharray="5,2" d="M194,-194.04C194,-181.47 194,-165.56 194,-155.84"/>
<polygon fill="#9a32cd" stroke="#9a32cd" points="190.5,-194.37 194,-204.37 197.5,-194.37 190.5,-194.37"/>
<text text-anchor="middle" x="229" y="-177" font-family="Helvetica,sans-Serif" font-size="10.00"> internalName</text>
</g>
<!-- Node4&#45;&gt;Node4 -->
<g id="edge4" class="edge">
<title>Node4&#45;&gt;Node4</title>
<path fill="none" stroke="#9a32cd" stroke-dasharray="5,2" d="M229.45,-219.58C234,-218.61 237,-216.75 237,-214 237,-209.48 228.91,-207.37 219.18,-207.65"/>
<polygon fill="#9a32cd" stroke="#9a32cd" points="228.89,-216.11 219.18,-220.35 229.41,-223.1 228.89,-216.11"/>
<text text-anchor="middle" x="256.5" y="-217" font-family="Helvetica,sans-Serif" font-size="10.00"> empty</text>
<text text-anchor="middle" x="256.5" y="-206" font-family="Helvetica,sans-Serif" font-size="10.00">newline</text>
</g>
<!-- Node5&#45;&gt;Node3 -->
<g id="edge5" class="edge">
<title>Node5&#45;&gt;Node3</title>
<path fill="none" stroke="#9a32cd" stroke-dasharray="5,2" d="M286.36,-24.29C312.73,-38.62 345.87,-62.91 331,-89 308.35,-128.73 250.96,-140.29 218.1,-143.64"/>
<polygon fill="#9a32cd" stroke="#9a32cd" points="287.9,-21.15 277.41,-19.65 284.68,-27.36 287.9,-21.15"/>
<text text-anchor="middle" x="372" y="-81" font-family="Helvetica,sans-Serif" font-size="10.00"> split_link</text>
<text text-anchor="middle" x="372" y="-70" font-family="Helvetica,sans-Serif" font-size="10.00">split_link_mem</text>
</g>
<!-- Node5&#45;&gt;Node5 -->
<g id="edge6" class="edge">
<title>Node5&#45;&gt;Node5</title>
<path fill="none" stroke="#9a32cd" stroke-dasharray="5,2" d="M324.4,-14.4C329.12,-13.4 332,-11.93 332,-10 332,-6.91 324.62,-5.01 314.15,-4.31"/>
<polygon fill="#9a32cd" stroke="#9a32cd" points="323.63,-10.97 314.15,-15.69 324.51,-17.91 323.63,-10.97"/>
<text text-anchor="middle" x="344.5" y="-7.5" font-family="Helvetica,sans-Serif" font-size="10.00"> prev</text>
</g>
<!-- Node6&#45;&gt;Node5 -->
<g id="edge7" class="edge">
<title>Node6&#45;&gt;Node5</title>
<path fill="none" stroke="#9a32cd" stroke-dasharray="5,2" d="M256.57,-58.04C256.96,-45.47 257.44,-29.56 257.73,-19.84"/>
<polygon fill="#9a32cd" stroke="#9a32cd" points="253.07,-58.27 256.26,-68.37 260.06,-58.48 253.07,-58.27"/>
<text text-anchor="middle" x="277" y="-41" font-family="Helvetica,sans-Serif" font-size="10.00"> visitors</text>
</g>
</g>
</svg>
