<?xml version="1.0" encoding="UTF-8" standalone="no"?>
<!DOCTYPE svg PUBLIC "-//W3C//DTD SVG 1.1//EN"
 "http://www.w3.org/Graphics/SVG/1.1/DTD/svg11.dtd">
<!-- Generated by graphviz version 2.43.0 (0)
 -->
<!-- Title: DPDK::BranchingInstructionGeneration Pages: 1 -->
<svg width="419pt" height="492pt"
 viewBox="0.00 0.00 418.50 492.00" xmlns="http://www.w3.org/2000/svg" xmlns:xlink="http://www.w3.org/1999/xlink">
<g id="graph0" class="graph" transform="scale(1 1) rotate(0) translate(4 488)">
<title>DPDK::BranchingInstructionGeneration</title>
<polygon fill="white" stroke="transparent" points="-4,4 -4,-488 414.5,-488 414.5,4 -4,4"/>
<!-- Node1 -->
<g id="node1" class="node">
<title>Node1</title>
<g id="a_node1"><a xlink:title=" ">
<polygon fill="#bfbfbf" stroke="black" points="161,-0.5 161,-30.5 312,-30.5 312,-0.5 161,-0.5"/>
<text text-anchor="start" x="169" y="-18.5" font-family="Helvetica,sans-Serif" font-size="10.00">DPDK::BranchingInstruction</text>
<text text-anchor="middle" x="236.5" y="-7.5" font-family="Helvetica,sans-Serif" font-size="10.00">Generation</text>
</a>
</g>
</g>
<!-- Node2 -->
<g id="node2" class="node">
<title>Node2</title>
<g id="a_node2"><a xlink:href="class_i_r_1_1_indexed_vector.html" target="_top" xlink:title=" ">
<polygon fill="white" stroke="black" points="164,-78.5 164,-108.5 309,-108.5 309,-78.5 164,-78.5"/>
<text text-anchor="start" x="172" y="-96.5" font-family="Helvetica,sans-Serif" font-size="10.00">IR::IndexedVector&lt;</text>
<text text-anchor="middle" x="236.5" y="-85.5" font-family="Helvetica,sans-Serif" font-size="10.00"> IR::DpdkAsmStatement &gt;</text>
</a>
</g>
</g>
<!-- Node2&#45;&gt;Node1 -->
<g id="edge1" class="edge">
<title>Node2&#45;&gt;Node1</title>
<path fill="none" stroke="#9a32cd" stroke-dasharray="5,2" d="M236.5,-68.09C236.5,-55.76 236.5,-41.22 236.5,-30.73"/>
<polygon fill="#9a32cd" stroke="#9a32cd" points="233,-68.2 236.5,-78.2 240,-68.21 233,-68.2"/>
<text text-anchor="middle" x="267" y="-52" font-family="Helvetica,sans-Serif" font-size="10.00"> instructions</text>
</g>
<!-- Node3 -->
<g id="node3" class="node">
<title>Node3</title>
<g id="a_node3"><a xlink:href="class_i_r_1_1_vector.html" target="_top" xlink:title=" ">
<polygon fill="white" stroke="black" points="190.5,-146.5 190.5,-165.5 282.5,-165.5 282.5,-146.5 190.5,-146.5"/>
<text text-anchor="middle" x="236.5" y="-153.5" font-family="Helvetica,sans-Serif" font-size="10.00">IR::Vector&lt; T &gt;</text>
</a>
</g>
</g>
<!-- Node3&#45;&gt;Node2 -->
<g id="edge2" class="edge">
<title>Node3&#45;&gt;Node2</title>
<path fill="none" stroke="midnightblue" d="M236.5,-136.22C236.5,-127.36 236.5,-116.96 236.5,-108.76"/>
<polygon fill="midnightblue" stroke="midnightblue" points="233,-136.33 236.5,-146.33 240,-136.33 233,-136.33"/>
</g>
<!-- Node4 -->
<g id="node4" class="node">
<title>Node4</title>
<g id="a_node4"><a xlink:href="class_i_r_1_1_vector_base.html" target="_top" xlink:title=" ">
<polygon fill="white" stroke="black" points="193,-203.5 193,-222.5 280,-222.5 280,-203.5 193,-203.5"/>
<text text-anchor="middle" x="236.5" y="-210.5" font-family="Helvetica,sans-Serif" font-size="10.00">IR::VectorBase</text>
</a>
</g>
</g>
<!-- Node4&#45;&gt;Node3 -->
<g id="edge3" class="edge">
<title>Node4&#45;&gt;Node3</title>
<path fill="none" stroke="midnightblue" d="M236.5,-193.12C236.5,-183.82 236.5,-173.06 236.5,-165.71"/>
<polygon fill="midnightblue" stroke="midnightblue" points="233,-193.41 236.5,-203.41 240,-193.41 233,-193.41"/>
</g>
<!-- Node5 -->
<g id="node5" class="node">
<title>Node5</title>
<g id="a_node5"><a xlink:href="class_i_r_1_1_node.html" target="_top" xlink:title=" ">
<polygon fill="white" stroke="black" points="207.5,-260.5 207.5,-279.5 265.5,-279.5 265.5,-260.5 207.5,-260.5"/>
<text text-anchor="middle" x="236.5" y="-267.5" font-family="Helvetica,sans-Serif" font-size="10.00">IR::Node</text>
</a>
</g>
</g>
<!-- Node5&#45;&gt;Node4 -->
<g id="edge4" class="edge">
<title>Node5&#45;&gt;Node4</title>
<path fill="none" stroke="midnightblue" d="M236.5,-250.12C236.5,-240.82 236.5,-230.06 236.5,-222.71"/>
<polygon fill="midnightblue" stroke="midnightblue" points="233,-250.41 236.5,-260.41 240,-250.41 233,-250.41"/>
</g>
<!-- Node6 -->
<g id="node6" class="node">
<title>Node6</title>
<g id="a_node6"><a xlink:href="class_i_r_1_1_i_node.html" target="_top" xlink:title=" ">
<polygon fill="white" stroke="black" points="159,-327.5 159,-346.5 220,-346.5 220,-327.5 159,-327.5"/>
<text text-anchor="middle" x="189.5" y="-334.5" font-family="Helvetica,sans-Serif" font-size="10.00">IR::INode</text>
</a>
</g>
</g>
<!-- Node6&#45;&gt;Node5 -->
<g id="edge5" class="edge">
<title>Node6&#45;&gt;Node5</title>
<path fill="none" stroke="midnightblue" d="M201.86,-318.9C210.99,-306.27 223.05,-289.6 230.26,-279.63"/>
<polygon fill="midnightblue" stroke="midnightblue" points="198.86,-317.08 195.84,-327.23 204.53,-321.18 198.86,-317.08"/>
</g>
<!-- Node7 -->
<g id="node7" class="node">
<title>Node7</title>
<g id="a_node7"><a xlink:href="class_util_1_1_i_has_source_info.html" target="_top" xlink:title=" ">
<polygon fill="white" stroke="black" points="0,-406.5 0,-425.5 113,-425.5 113,-406.5 0,-406.5"/>
<text text-anchor="middle" x="56.5" y="-413.5" font-family="Helvetica,sans-Serif" font-size="10.00">Util::IHasSourceInfo</text>
</a>
</g>
</g>
<!-- Node7&#45;&gt;Node6 -->
<g id="edge6" class="edge">
<title>Node7&#45;&gt;Node6</title>
<path fill="none" stroke="midnightblue" d="M80.16,-401.3C107.54,-385.45 151.78,-359.84 174.69,-346.57"/>
<polygon fill="midnightblue" stroke="midnightblue" points="78.14,-398.43 71.24,-406.47 81.65,-404.48 78.14,-398.43"/>
</g>
<!-- Node8 -->
<g id="node8" class="node">
<title>Node8</title>
<g id="a_node8"><a xlink:href="class_i_has_db_print.html" target="_top" xlink:title=" ">
<polygon fill="white" stroke="black" points="131.5,-406.5 131.5,-425.5 205.5,-425.5 205.5,-406.5 131.5,-406.5"/>
<text text-anchor="middle" x="168.5" y="-413.5" font-family="Helvetica,sans-Serif" font-size="10.00">IHasDbPrint</text>
</a>
</g>
</g>
<!-- Node8&#45;&gt;Node6 -->
<g id="edge7" class="edge">
<title>Node8&#45;&gt;Node6</title>
<path fill="none" stroke="midnightblue" d="M173.47,-396.77C177.77,-381.02 183.79,-358.92 187.1,-346.81"/>
<polygon fill="midnightblue" stroke="midnightblue" points="170.08,-395.9 170.83,-406.47 176.84,-397.74 170.08,-395.9"/>
</g>
<!-- Node9 -->
<g id="node9" class="node">
<title>Node9</title>
<g id="a_node9"><a xlink:href="class_i_castable.html" target="_top" xlink:title=" ">
<polygon fill="white" stroke="black" points="223.5,-406.5 223.5,-425.5 285.5,-425.5 285.5,-406.5 223.5,-406.5"/>
<text text-anchor="middle" x="254.5" y="-413.5" font-family="Helvetica,sans-Serif" font-size="10.00">ICastable</text>
</a>
</g>
</g>
<!-- Node9&#45;&gt;Node6 -->
<g id="edge8" class="edge">
<title>Node9&#45;&gt;Node6</title>
<path fill="none" stroke="midnightblue" d="M240.62,-398.56C227.26,-382.73 207.56,-359.39 196.94,-346.81"/>
<polygon fill="midnightblue" stroke="midnightblue" points="238.17,-401.08 247.3,-406.47 243.52,-396.57 238.17,-401.08"/>
</g>
<!-- Node10 -->
<g id="node10" class="node">
<title>Node10</title>
<g id="a_node10"><a xlink:href="struct_r_t_t_i_1_1_base.html" target="_top" xlink:title=" ">
<polygon fill="white" stroke="black" points="220.5,-464.5 220.5,-483.5 288.5,-483.5 288.5,-464.5 220.5,-464.5"/>
<text text-anchor="middle" x="254.5" y="-471.5" font-family="Helvetica,sans-Serif" font-size="10.00">RTTI::Base</text>
</a>
</g>
</g>
<!-- Node10&#45;&gt;Node9 -->
<g id="edge9" class="edge">
<title>Node10&#45;&gt;Node9</title>
<path fill="none" stroke="midnightblue" d="M254.5,-453.95C254.5,-444.29 254.5,-433.03 254.5,-425.51"/>
<polygon fill="midnightblue" stroke="midnightblue" points="251,-454.25 254.5,-464.25 258,-454.25 251,-454.25"/>
</g>
<!-- Node11 -->
<g id="node11" class="node">
<title>Node11</title>
<g id="a_node11"><a xlink:href="class_util_1_1_source_info.html" target="_top" xlink:title=" ">
<polygon fill="white" stroke="black" points="248.5,-327.5 248.5,-346.5 340.5,-346.5 340.5,-327.5 248.5,-327.5"/>
<text text-anchor="middle" x="294.5" y="-334.5" font-family="Helvetica,sans-Serif" font-size="10.00">Util::SourceInfo</text>
</a>
</g>
</g>
<!-- Node11&#45;&gt;Node5 -->
<g id="edge10" class="edge">
<title>Node11&#45;&gt;Node5</title>
<path fill="none" stroke="#9a32cd" stroke-dasharray="5,2" d="M279.9,-319.63C268.55,-306.92 253.27,-289.8 244.2,-279.63"/>
<polygon fill="#9a32cd" stroke="#9a32cd" points="277.41,-322.1 286.68,-327.23 282.63,-317.44 277.41,-322.1"/>
<text text-anchor="middle" x="288" y="-301" font-family="Helvetica,sans-Serif" font-size="10.00"> srcInfo</text>
</g>
<!-- Node12 -->
<g id="node12" class="node">
<title>Node12</title>
<g id="a_node12"><a xlink:href="classcstring.html" target="_top" xlink:title=" ">
<polygon fill="white" stroke="black" points="303.5,-406.5 303.5,-425.5 353.5,-425.5 353.5,-406.5 303.5,-406.5"/>
<text text-anchor="middle" x="328.5" y="-413.5" font-family="Helvetica,sans-Serif" font-size="10.00">cstring</text>
</a>
</g>
</g>
<!-- Node12&#45;&gt;Node11 -->
<g id="edge11" class="edge">
<title>Node12&#45;&gt;Node11</title>
<path fill="none" stroke="#9a32cd" stroke-dasharray="5,2" d="M320.65,-397.22C313.68,-381.44 303.79,-359.04 298.39,-346.81"/>
<polygon fill="#9a32cd" stroke="#9a32cd" points="317.49,-398.73 324.73,-406.47 323.89,-395.9 317.49,-398.73"/>
<text text-anchor="middle" x="338.5" y="-379" font-family="Helvetica,sans-Serif" font-size="10.00"> filename</text>
<text text-anchor="middle" x="338.5" y="-368" font-family="Helvetica,sans-Serif" font-size="10.00">srcBrief</text>
</g>
<!-- Node12&#45;&gt;Node12 -->
<g id="edge12" class="edge">
<title>Node12&#45;&gt;Node12</title>
<path fill="none" stroke="#9a32cd" stroke-dasharray="5,2" d="M363.95,-420.6C368.5,-419.8 371.5,-418.27 371.5,-416 371.5,-412.28 363.41,-410.54 353.68,-410.77"/>
<polygon fill="#9a32cd" stroke="#9a32cd" points="363.44,-417.12 353.68,-421.23 363.87,-424.11 363.44,-417.12"/>
<text text-anchor="middle" x="391" y="-419" font-family="Helvetica,sans-Serif" font-size="10.00"> empty</text>
<text text-anchor="middle" x="391" y="-408" font-family="Helvetica,sans-Serif" font-size="10.00">newline</text>
</g>
</g>
</svg>
