<?xml version="1.0" encoding="UTF-8" standalone="no"?>
<!DOCTYPE svg PUBLIC "-//W3C//DTD SVG 1.1//EN"
 "http://www.w3.org/Graphics/SVG/1.1/DTD/svg11.dtd">
<!-- Generated by graphviz version 2.43.0 (0)
 -->
<!-- Title: Util::Object Pages: 1 -->
<svg width="389pt" height="320pt"
 viewBox="0.00 0.00 388.50 320.00" xmlns="http://www.w3.org/2000/svg" xmlns:xlink="http://www.w3.org/1999/xlink">
<g id="graph0" class="graph" transform="scale(1 1) rotate(0) translate(4 316)">
<title>Util::Object</title>
<polygon fill="white" stroke="transparent" points="-4,4 -4,-316 384.5,-316 384.5,4 -4,4"/>
<!-- Node1 -->
<g id="node1" class="node">
<title>Node1</title>
<g id="a_node1"><a xlink:title=" ">
<polygon fill="#bfbfbf" stroke="black" points="309.5,-73 309.5,-92 380.5,-92 380.5,-73 309.5,-73"/>
<text text-anchor="middle" x="345" y="-80" font-family="Helvetica,sans-Serif" font-size="10.00">Util::Object</text>
</a>
</g>
</g>
<!-- Node2 -->
<g id="node2" class="node">
<title>Node2</title>
<g id="a_node2"><a xlink:href="class_util_1_1_named_symbol.html" target="_top" xlink:title=" ">
<polygon fill="white" stroke="black" points="191,-145.5 191,-164.5 303,-164.5 303,-145.5 191,-145.5"/>
<text text-anchor="middle" x="247" y="-152.5" font-family="Helvetica,sans-Serif" font-size="10.00">Util::NamedSymbol</text>
</a>
</g>
</g>
<!-- Node2&#45;&gt;Node1 -->
<g id="edge1" class="edge">
<title>Node2&#45;&gt;Node1</title>
<path fill="none" stroke="midnightblue" d="M267.35,-139.36C287.13,-125.13 316.52,-103.99 332.88,-92.22"/>
<polygon fill="midnightblue" stroke="midnightblue" points="265.09,-136.67 259.02,-145.36 269.18,-142.36 265.09,-136.67"/>
</g>
<!-- Node5 -->
<g id="node5" class="node">
<title>Node5</title>
<g id="a_node5"><a xlink:href="class_util_1_1_namespace.html" target="_top" xlink:title=" ">
<polygon fill="white" stroke="black" points="161,-0.5 161,-19.5 259,-19.5 259,-0.5 161,-0.5"/>
<text text-anchor="middle" x="210" y="-7.5" font-family="Helvetica,sans-Serif" font-size="10.00">Util::Namespace</text>
</a>
</g>
</g>
<!-- Node2&#45;&gt;Node5 -->
<g id="edge5" class="edge">
<title>Node2&#45;&gt;Node5</title>
<path fill="none" stroke="midnightblue" d="M240.63,-135.72C236.97,-124.84 232.42,-110.72 229,-98 221.36,-69.64 214.6,-35.45 211.61,-19.71"/>
<polygon fill="midnightblue" stroke="midnightblue" points="237.38,-137.02 243.93,-145.35 244,-134.75 237.38,-137.02"/>
</g>
<!-- Node6 -->
<g id="node6" class="node">
<title>Node6</title>
<g id="a_node6"><a xlink:title=" ">
<polygon fill="white" stroke="#bfbfbf" points="0,-67.5 0,-97.5 182,-97.5 182,-67.5 0,-67.5"/>
<text text-anchor="start" x="8" y="-85.5" font-family="Helvetica,sans-Serif" font-size="10.00">std::unordered_map</text>
<text text-anchor="middle" x="91" y="-74.5" font-family="Helvetica,sans-Serif" font-size="10.00">&lt; cstring, Util::NamedSymbol * &gt;</text>
</a>
</g>
</g>
<!-- Node2&#45;&gt;Node6 -->
<g id="edge10" class="edge">
<title>Node2&#45;&gt;Node6</title>
<path fill="none" stroke="#9a32cd" stroke-dasharray="5,2" d="M190.38,-142.89C175.82,-138.92 160.47,-133.71 147,-127 131.79,-119.43 116.71,-107.38 106.03,-97.88"/>
<polygon fill="#9a32cd" stroke="#9a32cd" points="189.75,-146.34 200.3,-145.44 191.49,-139.56 189.75,-146.34"/>
<text text-anchor="middle" x="171.5" y="-119" font-family="Helvetica,sans-Serif" font-size="10.00"> elements</text>
</g>
<!-- Node3 -->
<g id="node3" class="node">
<title>Node3</title>
<g id="a_node3"><a xlink:href="class_i_castable.html" target="_top" xlink:title=" ">
<polygon fill="white" stroke="black" points="296,-212.5 296,-231.5 358,-231.5 358,-212.5 296,-212.5"/>
<text text-anchor="middle" x="327" y="-219.5" font-family="Helvetica,sans-Serif" font-size="10.00">ICastable</text>
</a>
</g>
</g>
<!-- Node3&#45;&gt;Node2 -->
<g id="edge2" class="edge">
<title>Node3&#45;&gt;Node2</title>
<path fill="none" stroke="midnightblue" d="M308.19,-205.71C292.42,-192.91 270.49,-175.09 257.62,-164.63"/>
<polygon fill="midnightblue" stroke="midnightblue" points="306.24,-208.64 316.21,-212.23 310.66,-203.21 306.24,-208.64"/>
</g>
<!-- Node4 -->
<g id="node4" class="node">
<title>Node4</title>
<g id="a_node4"><a xlink:href="struct_r_t_t_i_1_1_base.html" target="_top" xlink:title=" ">
<polygon fill="white" stroke="black" points="293,-291.5 293,-310.5 361,-310.5 361,-291.5 293,-291.5"/>
<text text-anchor="middle" x="327" y="-298.5" font-family="Helvetica,sans-Serif" font-size="10.00">RTTI::Base</text>
</a>
</g>
</g>
<!-- Node4&#45;&gt;Node3 -->
<g id="edge3" class="edge">
<title>Node4&#45;&gt;Node3</title>
<path fill="none" stroke="midnightblue" d="M327,-281.31C327,-265.59 327,-243.81 327,-231.81"/>
<polygon fill="midnightblue" stroke="midnightblue" points="323.5,-281.47 327,-291.47 330.5,-281.47 323.5,-281.47"/>
</g>
<!-- Node5&#45;&gt;Node2 -->
<g id="edge4" class="edge">
<title>Node5&#45;&gt;Node2</title>
<path fill="none" stroke="#9a32cd" stroke-dasharray="5,2" d="M220.07,-28.69C221.54,-31.73 222.92,-34.91 224,-38 237.58,-76.75 243.98,-125.75 246.13,-145.34"/>
<polygon fill="#9a32cd" stroke="#9a32cd" points="223.09,-26.92 215.32,-19.72 216.9,-30.19 223.09,-26.92"/>
<text text-anchor="middle" x="256.5" y="-80" font-family="Helvetica,sans-Serif" font-size="10.00"> parent</text>
</g>
<!-- Node5&#45;&gt;Node5 -->
<g id="edge6" class="edge">
<title>Node5&#45;&gt;Node5</title>
<path fill="none" stroke="#9a32cd" stroke-dasharray="5,2" d="M269.32,-14.58C274.06,-13.58 277,-12.05 277,-10 277,-6.72 269.49,-4.78 259.08,-4.19"/>
<polygon fill="#9a32cd" stroke="#9a32cd" points="268.59,-11.14 259.08,-15.81 269.43,-18.09 268.59,-11.14"/>
<text text-anchor="middle" x="294.5" y="-7.5" font-family="Helvetica,sans-Serif" font-size="10.00"> empty</text>
</g>
<!-- Node6&#45;&gt;Node5 -->
<g id="edge7" class="edge">
<title>Node6&#45;&gt;Node5</title>
<path fill="none" stroke="#9a32cd" stroke-dasharray="5,2" d="M116.19,-61.09C126.36,-53.35 138.41,-44.77 150,-38 162.13,-30.91 176.45,-24.4 188.06,-19.55"/>
<polygon fill="#9a32cd" stroke="#9a32cd" points="113.89,-58.45 108.14,-67.34 118.19,-63.97 113.89,-58.45"/>
<text text-anchor="middle" x="173" y="-41" font-family="Helvetica,sans-Serif" font-size="10.00"> contents</text>
</g>
<!-- Node7 -->
<g id="node7" class="node">
<title>Node7</title>
<g id="a_node7"><a xlink:href="classcstring.html" target="_top" xlink:title=" ">
<polygon fill="white" stroke="black" points="140,-291.5 140,-310.5 190,-310.5 190,-291.5 140,-291.5"/>
<text text-anchor="middle" x="165" y="-298.5" font-family="Helvetica,sans-Serif" font-size="10.00">cstring</text>
</a>
</g>
</g>
<!-- Node7&#45;&gt;Node2 -->
<g id="edge13" class="edge">
<title>Node7&#45;&gt;Node2</title>
<path fill="none" stroke="#9a32cd" stroke-dasharray="5,2" d="M197.58,-286.71C204.1,-282.79 210.36,-277.92 215,-272 241.16,-238.62 245.95,-185.24 246.82,-164.57"/>
<polygon fill="#9a32cd" stroke="#9a32cd" points="195.82,-283.67 188.65,-291.47 199.12,-289.85 195.82,-283.67"/>
<text text-anchor="middle" x="256.5" y="-219.5" font-family="Helvetica,sans-Serif" font-size="10.00"> name</text>
</g>
<!-- Node7&#45;&gt;Node6 -->
<g id="edge8" class="edge">
<title>Node7&#45;&gt;Node6</title>
<path fill="none" stroke="#9a32cd" stroke-dasharray="5,2" d="M148.02,-284.35C135.32,-271.57 118.69,-252.35 110,-232 90.3,-185.87 89.5,-124.89 90.31,-97.67"/>
<polygon fill="#9a32cd" stroke="#9a32cd" points="145.7,-286.98 155.32,-291.43 150.58,-281.95 145.7,-286.98"/>
<text text-anchor="middle" x="111" y="-186" font-family="Helvetica,sans-Serif" font-size="10.00"> keys</text>
</g>
<!-- Node7&#45;&gt;Node7 -->
<g id="edge9" class="edge">
<title>Node7&#45;&gt;Node7</title>
<path fill="none" stroke="#9a32cd" stroke-dasharray="5,2" d="M200.45,-307.57C205,-306.43 208,-304.24 208,-301 208,-295.69 199.91,-293.2 190.18,-293.53"/>
<polygon fill="#9a32cd" stroke="#9a32cd" points="199.83,-304.11 190.18,-308.47 200.44,-311.08 199.83,-304.11"/>
<text text-anchor="middle" x="227.5" y="-304" font-family="Helvetica,sans-Serif" font-size="10.00"> empty</text>
<text text-anchor="middle" x="227.5" y="-293" font-family="Helvetica,sans-Serif" font-size="10.00">newline</text>
</g>
<!-- Node8 -->
<g id="node8" class="node">
<title>Node8</title>
<g id="a_node8"><a xlink:href="class_util_1_1_source_info.html" target="_top" xlink:title=" ">
<polygon fill="white" stroke="black" points="119,-212.5 119,-231.5 211,-231.5 211,-212.5 119,-212.5"/>
<text text-anchor="middle" x="165" y="-219.5" font-family="Helvetica,sans-Serif" font-size="10.00">Util::SourceInfo</text>
</a>
</g>
</g>
<!-- Node7&#45;&gt;Node8 -->
<g id="edge12" class="edge">
<title>Node7&#45;&gt;Node8</title>
<path fill="none" stroke="#9a32cd" stroke-dasharray="5,2" d="M165,-281.31C165,-265.59 165,-243.81 165,-231.81"/>
<polygon fill="#9a32cd" stroke="#9a32cd" points="161.5,-281.47 165,-291.47 168.5,-281.47 161.5,-281.47"/>
<text text-anchor="middle" x="188" y="-264" font-family="Helvetica,sans-Serif" font-size="10.00"> filename</text>
<text text-anchor="middle" x="188" y="-253" font-family="Helvetica,sans-Serif" font-size="10.00">srcBrief</text>
</g>
<!-- Node8&#45;&gt;Node2 -->
<g id="edge11" class="edge">
<title>Node8&#45;&gt;Node2</title>
<path fill="none" stroke="#9a32cd" stroke-dasharray="5,2" d="M167.95,-202.45C169.84,-195.63 172.94,-188.29 178,-183 186.18,-174.45 197.4,-168.56 208.41,-164.52"/>
<polygon fill="#9a32cd" stroke="#9a32cd" points="164.49,-201.87 165.86,-212.38 171.34,-203.31 164.49,-201.87"/>
<text text-anchor="middle" x="205.5" y="-186" font-family="Helvetica,sans-Serif" font-size="10.00"> sourceInfo</text>
</g>
</g>
</svg>
