<?xml version="1.0" encoding="UTF-8" standalone="no"?>
<!DOCTYPE svg PUBLIC "-//W3C//DTD SVG 1.1//EN"
 "http://www.w3.org/Graphics/SVG/1.1/DTD/svg11.dtd">
<!-- Generated by graphviz version 2.43.0 (0)
 -->
<!-- Title: P4Tools::P4Testgen::VariableSubstitution Pages: 1 -->
<svg width="386pt" height="244pt"
 viewBox="0.00 0.00 385.50 244.00" xmlns="http://www.w3.org/2000/svg" xmlns:xlink="http://www.w3.org/1999/xlink">
<g id="graph0" class="graph" transform="scale(1 1) rotate(0) translate(4 240)">
<title>P4Tools::P4Testgen::VariableSubstitution</title>
<polygon fill="white" stroke="transparent" points="-4,4 -4,-240 381.5,-240 381.5,4 -4,4"/>
<!-- Node1 -->
<g id="node1" class="node">
<title>Node1</title>
<g id="a_node1"><a xlink:title=" ">
<polygon fill="#bfbfbf" stroke="black" points="0,-0.5 0,-30.5 121,-30.5 121,-0.5 0,-0.5"/>
<text text-anchor="start" x="8" y="-18.5" font-family="Helvetica,sans-Serif" font-size="10.00">P4Tools::P4Testgen</text>
<text text-anchor="middle" x="60.5" y="-7.5" font-family="Helvetica,sans-Serif" font-size="10.00">::VariableSubstitution</text>
</a>
</g>
</g>
<!-- Node2 -->
<g id="node2" class="node">
<title>Node2</title>
<g id="a_node2"><a xlink:href="class_transform.html" target="_top" xlink:title=" ">
<polygon fill="white" stroke="black" points="28,-79.5 28,-98.5 93,-98.5 93,-79.5 28,-79.5"/>
<text text-anchor="middle" x="60.5" y="-86.5" font-family="Helvetica,sans-Serif" font-size="10.00">Transform</text>
</a>
</g>
</g>
<!-- Node2&#45;&gt;Node1 -->
<g id="edge1" class="edge">
<title>Node2&#45;&gt;Node1</title>
<path fill="none" stroke="midnightblue" d="M60.5,-68.9C60.5,-56.82 60.5,-41.47 60.5,-30.51"/>
<polygon fill="midnightblue" stroke="midnightblue" points="57,-69.23 60.5,-79.23 64,-69.23 57,-69.23"/>
</g>
<!-- Node3 -->
<g id="node3" class="node">
<title>Node3</title>
<g id="a_node3"><a xlink:href="class_visitor.html" target="_top" xlink:title=" ">
<polygon fill="white" stroke="black" points="137.5,-147.5 137.5,-166.5 185.5,-166.5 185.5,-147.5 137.5,-147.5"/>
<text text-anchor="middle" x="161.5" y="-154.5" font-family="Helvetica,sans-Serif" font-size="10.00">Visitor</text>
</a>
</g>
</g>
<!-- Node3&#45;&gt;Node2 -->
<g id="edge2" class="edge">
<title>Node3&#45;&gt;Node2</title>
<path fill="none" stroke="midnightblue" d="M136.91,-142.09C129.92,-138 122.34,-133.42 115.5,-129 100.16,-119.09 83.09,-106.77 72.1,-98.67"/>
<polygon fill="midnightblue" stroke="midnightblue" points="135.56,-145.35 145.97,-147.33 139.06,-139.29 135.56,-145.35"/>
</g>
<!-- Node3&#45;&gt;Node3 -->
<g id="edge10" class="edge">
<title>Node3&#45;&gt;Node3</title>
<path fill="none" stroke="#9a32cd" stroke-dasharray="5,2" d="M195.92,-162.29C200.48,-161.39 203.5,-159.63 203.5,-157 203.5,-152.69 195.36,-150.7 185.67,-151.04"/>
<polygon fill="#9a32cd" stroke="#9a32cd" points="195.42,-158.82 185.67,-162.96 195.88,-165.8 195.42,-158.82"/>
<text text-anchor="middle" x="228.5" y="-154.5" font-family="Helvetica,sans-Serif" font-size="10.00"> called_by</text>
</g>
<!-- Node5 -->
<g id="node5" class="node">
<title>Node5</title>
<g id="a_node5"><a xlink:href="class_split_flow_visit__base.html" target="_top" xlink:title=" ">
<polygon fill="white" stroke="black" points="167.5,-6 167.5,-25 279.5,-25 279.5,-6 167.5,-6"/>
<text text-anchor="middle" x="223.5" y="-13" font-family="Helvetica,sans-Serif" font-size="10.00">SplitFlowVisit_base</text>
</a>
</g>
</g>
<!-- Node3&#45;&gt;Node5 -->
<g id="edge9" class="edge">
<title>Node3&#45;&gt;Node5</title>
<path fill="none" stroke="#9a32cd" stroke-dasharray="5,2" d="M149.35,-138.93C139.37,-122.65 128.41,-97.76 138.5,-78 151.76,-52.05 181.65,-34.51 202.2,-25.01"/>
<polygon fill="#9a32cd" stroke="#9a32cd" points="146.51,-140.99 154.94,-147.42 152.36,-137.14 146.51,-140.99"/>
<text text-anchor="middle" x="143.5" y="-86.5" font-family="Helvetica,sans-Serif" font-size="10.00"> v</text>
</g>
<!-- Node6 -->
<g id="node6" class="node">
<title>Node6</title>
<g id="a_node6"><a xlink:title=" ">
<polygon fill="white" stroke="#bfbfbf" points="158,-79.5 158,-98.5 289,-98.5 289,-79.5 158,-79.5"/>
<text text-anchor="middle" x="223.5" y="-86.5" font-family="Helvetica,sans-Serif" font-size="10.00">std::vector&lt; Visitor * &gt;</text>
</a>
</g>
</g>
<!-- Node3&#45;&gt;Node6 -->
<g id="edge8" class="edge">
<title>Node3&#45;&gt;Node6</title>
<path fill="none" stroke="#9a32cd" stroke-dasharray="5,2" d="M176.49,-140.05C188.64,-127.11 205.32,-109.36 215.19,-98.84"/>
<polygon fill="#9a32cd" stroke="#9a32cd" points="173.9,-137.69 169.61,-147.37 179,-142.48 173.9,-137.69"/>
<text text-anchor="middle" x="221" y="-121" font-family="Helvetica,sans-Serif" font-size="10.00"> elements</text>
</g>
<!-- Node4 -->
<g id="node4" class="node">
<title>Node4</title>
<g id="a_node4"><a xlink:href="classcstring.html" target="_top" xlink:title=" ">
<polygon fill="white" stroke="black" points="136.5,-215.5 136.5,-234.5 186.5,-234.5 186.5,-215.5 136.5,-215.5"/>
<text text-anchor="middle" x="161.5" y="-222.5" font-family="Helvetica,sans-Serif" font-size="10.00">cstring</text>
</a>
</g>
</g>
<!-- Node4&#45;&gt;Node3 -->
<g id="edge3" class="edge">
<title>Node4&#45;&gt;Node3</title>
<path fill="none" stroke="#9a32cd" stroke-dasharray="5,2" d="M161.5,-205.04C161.5,-192.47 161.5,-176.56 161.5,-166.84"/>
<polygon fill="#9a32cd" stroke="#9a32cd" points="158,-205.37 161.5,-215.37 165,-205.37 158,-205.37"/>
<text text-anchor="middle" x="196.5" y="-188" font-family="Helvetica,sans-Serif" font-size="10.00"> internalName</text>
</g>
<!-- Node4&#45;&gt;Node4 -->
<g id="edge4" class="edge">
<title>Node4&#45;&gt;Node4</title>
<path fill="none" stroke="#9a32cd" stroke-dasharray="5,2" d="M196.95,-230.58C201.5,-229.61 204.5,-227.75 204.5,-225 204.5,-220.48 196.41,-218.37 186.68,-218.65"/>
<polygon fill="#9a32cd" stroke="#9a32cd" points="196.39,-227.11 186.68,-231.35 196.91,-234.1 196.39,-227.11"/>
<text text-anchor="middle" x="224" y="-228" font-family="Helvetica,sans-Serif" font-size="10.00"> empty</text>
<text text-anchor="middle" x="224" y="-217" font-family="Helvetica,sans-Serif" font-size="10.00">newline</text>
</g>
<!-- Node5&#45;&gt;Node3 -->
<g id="edge5" class="edge">
<title>Node5&#45;&gt;Node3</title>
<path fill="none" stroke="#9a32cd" stroke-dasharray="5,2" d="M251.07,-29.98C278.53,-45.35 314.46,-72.02 298.5,-100 275.85,-139.73 218.46,-151.29 185.6,-154.64"/>
<polygon fill="#9a32cd" stroke="#9a32cd" points="252.64,-26.85 242.18,-25.21 249.34,-33.02 252.64,-26.85"/>
<text text-anchor="middle" x="339.5" y="-92" font-family="Helvetica,sans-Serif" font-size="10.00"> split_link</text>
<text text-anchor="middle" x="339.5" y="-81" font-family="Helvetica,sans-Serif" font-size="10.00">split_link_mem</text>
</g>
<!-- Node5&#45;&gt;Node5 -->
<g id="edge6" class="edge">
<title>Node5&#45;&gt;Node5</title>
<path fill="none" stroke="#9a32cd" stroke-dasharray="5,2" d="M289.54,-20.81C294.47,-19.62 297.5,-17.85 297.5,-15.5 297.5,-11.83 290.12,-9.57 279.65,-8.74"/>
<polygon fill="#9a32cd" stroke="#9a32cd" points="289.03,-17.35 279.65,-22.26 290.05,-24.27 289.03,-17.35"/>
<text text-anchor="middle" x="310" y="-13" font-family="Helvetica,sans-Serif" font-size="10.00"> prev</text>
</g>
<!-- Node6&#45;&gt;Node5 -->
<g id="edge7" class="edge">
<title>Node6&#45;&gt;Node5</title>
<path fill="none" stroke="#9a32cd" stroke-dasharray="5,2" d="M223.5,-69.09C223.5,-54.93 223.5,-36.2 223.5,-25.34"/>
<polygon fill="#9a32cd" stroke="#9a32cd" points="220,-69.23 223.5,-79.23 227,-69.23 220,-69.23"/>
<text text-anchor="middle" x="243.5" y="-52" font-family="Helvetica,sans-Serif" font-size="10.00"> visitors</text>
</g>
</g>
</svg>
