<?xml version="1.0" encoding="UTF-8" standalone="no"?>
<!DOCTYPE svg PUBLIC "-//W3C//DTD SVG 1.1//EN"
 "http://www.w3.org/Graphics/SVG/1.1/DTD/svg11.dtd">
<!-- Generated by graphviz version 2.43.0 (0)
 -->
<!-- Title: P4::MoveInitializers Pages: 1 -->
<svg width="382pt" height="233pt"
 viewBox="0.00 0.00 381.50 233.00" xmlns="http://www.w3.org/2000/svg" xmlns:xlink="http://www.w3.org/1999/xlink">
<g id="graph0" class="graph" transform="scale(1 1) rotate(0) translate(4 229)">
<title>P4::MoveInitializers</title>
<polygon fill="white" stroke="transparent" points="-4,4 -4,-229 377.5,-229 377.5,4 -4,4"/>
<!-- Node1 -->
<g id="node1" class="node">
<title>Node1</title>
<g id="a_node1"><a xlink:title=" ">
<polygon fill="#bfbfbf" stroke="black" points="0,-0.5 0,-19.5 113,-19.5 113,-0.5 0,-0.5"/>
<text text-anchor="middle" x="56.5" y="-7.5" font-family="Helvetica,sans-Serif" font-size="10.00">P4::MoveInitializers</text>
</a>
</g>
</g>
<!-- Node2 -->
<g id="node2" class="node">
<title>Node2</title>
<g id="a_node2"><a xlink:href="class_transform.html" target="_top" xlink:title=" ">
<polygon fill="white" stroke="black" points="24,-68.5 24,-87.5 89,-87.5 89,-68.5 24,-68.5"/>
<text text-anchor="middle" x="56.5" y="-75.5" font-family="Helvetica,sans-Serif" font-size="10.00">Transform</text>
</a>
</g>
</g>
<!-- Node2&#45;&gt;Node1 -->
<g id="edge1" class="edge">
<title>Node2&#45;&gt;Node1</title>
<path fill="none" stroke="midnightblue" d="M56.5,-58.04C56.5,-45.47 56.5,-29.56 56.5,-19.84"/>
<polygon fill="midnightblue" stroke="midnightblue" points="53,-58.37 56.5,-68.37 60,-58.37 53,-58.37"/>
</g>
<!-- Node3 -->
<g id="node3" class="node">
<title>Node3</title>
<g id="a_node3"><a xlink:href="class_visitor.html" target="_top" xlink:title=" ">
<polygon fill="white" stroke="black" points="133.5,-136.5 133.5,-155.5 181.5,-155.5 181.5,-136.5 133.5,-136.5"/>
<text text-anchor="middle" x="157.5" y="-143.5" font-family="Helvetica,sans-Serif" font-size="10.00">Visitor</text>
</a>
</g>
</g>
<!-- Node3&#45;&gt;Node2 -->
<g id="edge2" class="edge">
<title>Node3&#45;&gt;Node2</title>
<path fill="none" stroke="midnightblue" d="M132.91,-131.09C125.92,-127 118.34,-122.42 111.5,-118 96.16,-108.09 79.09,-95.77 68.1,-87.67"/>
<polygon fill="midnightblue" stroke="midnightblue" points="131.56,-134.35 141.97,-136.33 135.06,-128.29 131.56,-134.35"/>
</g>
<!-- Node3&#45;&gt;Node3 -->
<g id="edge10" class="edge">
<title>Node3&#45;&gt;Node3</title>
<path fill="none" stroke="#9a32cd" stroke-dasharray="5,2" d="M191.92,-151.29C196.48,-150.39 199.5,-148.63 199.5,-146 199.5,-141.69 191.36,-139.7 181.67,-140.04"/>
<polygon fill="#9a32cd" stroke="#9a32cd" points="191.42,-147.82 181.67,-151.96 191.88,-154.8 191.42,-147.82"/>
<text text-anchor="middle" x="224.5" y="-143.5" font-family="Helvetica,sans-Serif" font-size="10.00"> called_by</text>
</g>
<!-- Node5 -->
<g id="node5" class="node">
<title>Node5</title>
<g id="a_node5"><a xlink:href="class_split_flow_visit__base.html" target="_top" xlink:title=" ">
<polygon fill="white" stroke="black" points="163.5,-0.5 163.5,-19.5 275.5,-19.5 275.5,-0.5 163.5,-0.5"/>
<text text-anchor="middle" x="219.5" y="-7.5" font-family="Helvetica,sans-Serif" font-size="10.00">SplitFlowVisit_base</text>
</a>
</g>
</g>
<!-- Node3&#45;&gt;Node5 -->
<g id="edge9" class="edge">
<title>Node3&#45;&gt;Node5</title>
<path fill="none" stroke="#9a32cd" stroke-dasharray="5,2" d="M145.16,-127.83C135.04,-111.48 123.98,-86.53 134.5,-67 147.24,-43.35 174.82,-28.04 195.12,-19.51"/>
<polygon fill="#9a32cd" stroke="#9a32cd" points="142.38,-129.97 150.83,-136.36 148.2,-126.1 142.38,-129.97"/>
<text text-anchor="middle" x="139.5" y="-75.5" font-family="Helvetica,sans-Serif" font-size="10.00"> v</text>
</g>
<!-- Node6 -->
<g id="node6" class="node">
<title>Node6</title>
<g id="a_node6"><a xlink:title=" ">
<polygon fill="white" stroke="#bfbfbf" points="154,-68.5 154,-87.5 285,-87.5 285,-68.5 154,-68.5"/>
<text text-anchor="middle" x="219.5" y="-75.5" font-family="Helvetica,sans-Serif" font-size="10.00">std::vector&lt; Visitor * &gt;</text>
</a>
</g>
</g>
<!-- Node3&#45;&gt;Node6 -->
<g id="edge8" class="edge">
<title>Node3&#45;&gt;Node6</title>
<path fill="none" stroke="#9a32cd" stroke-dasharray="5,2" d="M172.49,-129.05C184.64,-116.11 201.32,-98.36 211.19,-87.84"/>
<polygon fill="#9a32cd" stroke="#9a32cd" points="169.9,-126.69 165.61,-136.37 175,-131.48 169.9,-126.69"/>
<text text-anchor="middle" x="217" y="-110" font-family="Helvetica,sans-Serif" font-size="10.00"> elements</text>
</g>
<!-- Node4 -->
<g id="node4" class="node">
<title>Node4</title>
<g id="a_node4"><a xlink:href="classcstring.html" target="_top" xlink:title=" ">
<polygon fill="white" stroke="black" points="132.5,-204.5 132.5,-223.5 182.5,-223.5 182.5,-204.5 132.5,-204.5"/>
<text text-anchor="middle" x="157.5" y="-211.5" font-family="Helvetica,sans-Serif" font-size="10.00">cstring</text>
</a>
</g>
</g>
<!-- Node4&#45;&gt;Node3 -->
<g id="edge3" class="edge">
<title>Node4&#45;&gt;Node3</title>
<path fill="none" stroke="#9a32cd" stroke-dasharray="5,2" d="M157.5,-194.04C157.5,-181.47 157.5,-165.56 157.5,-155.84"/>
<polygon fill="#9a32cd" stroke="#9a32cd" points="154,-194.37 157.5,-204.37 161,-194.37 154,-194.37"/>
<text text-anchor="middle" x="192.5" y="-177" font-family="Helvetica,sans-Serif" font-size="10.00"> internalName</text>
</g>
<!-- Node4&#45;&gt;Node4 -->
<g id="edge4" class="edge">
<title>Node4&#45;&gt;Node4</title>
<path fill="none" stroke="#9a32cd" stroke-dasharray="5,2" d="M192.95,-219.58C197.5,-218.61 200.5,-216.75 200.5,-214 200.5,-209.48 192.41,-207.37 182.68,-207.65"/>
<polygon fill="#9a32cd" stroke="#9a32cd" points="192.39,-216.11 182.68,-220.35 192.91,-223.1 192.39,-216.11"/>
<text text-anchor="middle" x="220" y="-217" font-family="Helvetica,sans-Serif" font-size="10.00"> empty</text>
<text text-anchor="middle" x="220" y="-206" font-family="Helvetica,sans-Serif" font-size="10.00">newline</text>
</g>
<!-- Node5&#45;&gt;Node3 -->
<g id="edge5" class="edge">
<title>Node5&#45;&gt;Node3</title>
<path fill="none" stroke="#9a32cd" stroke-dasharray="5,2" d="M248.55,-24.16C275.57,-38.38 309.57,-62.58 294.5,-89 271.85,-128.73 214.46,-140.29 181.6,-143.64"/>
<polygon fill="#9a32cd" stroke="#9a32cd" points="249.88,-20.91 239.38,-19.56 246.75,-27.17 249.88,-20.91"/>
<text text-anchor="middle" x="335.5" y="-81" font-family="Helvetica,sans-Serif" font-size="10.00"> split_link</text>
<text text-anchor="middle" x="335.5" y="-70" font-family="Helvetica,sans-Serif" font-size="10.00">split_link_mem</text>
</g>
<!-- Node5&#45;&gt;Node5 -->
<g id="edge6" class="edge">
<title>Node5&#45;&gt;Node5</title>
<path fill="none" stroke="#9a32cd" stroke-dasharray="5,2" d="M285.9,-14.4C290.62,-13.4 293.5,-11.93 293.5,-10 293.5,-6.91 286.12,-5.01 275.65,-4.31"/>
<polygon fill="#9a32cd" stroke="#9a32cd" points="285.13,-10.97 275.65,-15.69 286.01,-17.91 285.13,-10.97"/>
<text text-anchor="middle" x="306" y="-7.5" font-family="Helvetica,sans-Serif" font-size="10.00"> prev</text>
</g>
<!-- Node6&#45;&gt;Node5 -->
<g id="edge7" class="edge">
<title>Node6&#45;&gt;Node5</title>
<path fill="none" stroke="#9a32cd" stroke-dasharray="5,2" d="M219.5,-58.04C219.5,-45.47 219.5,-29.56 219.5,-19.84"/>
<polygon fill="#9a32cd" stroke="#9a32cd" points="216,-58.37 219.5,-68.37 223,-58.37 216,-58.37"/>
<text text-anchor="middle" x="239.5" y="-41" font-family="Helvetica,sans-Serif" font-size="10.00"> visitors</text>
</g>
</g>
</svg>
