<?xml version="1.0" encoding="UTF-8" standalone="no"?>
<!DOCTYPE svg PUBLIC "-//W3C//DTD SVG 1.1//EN"
 "http://www.w3.org/Graphics/SVG/1.1/DTD/svg11.dtd">
<!-- Generated by graphviz version 2.43.0 (0)
 -->
<!-- Title: IR::IndexedVector&lt; T &gt; Pages: 1 -->
<svg width="419pt" height="403pt"
 viewBox="0.00 0.00 418.50 403.00" xmlns="http://www.w3.org/2000/svg" xmlns:xlink="http://www.w3.org/1999/xlink">
<g id="graph0" class="graph" transform="scale(1 1) rotate(0) translate(4 399)">
<title>IR::IndexedVector&lt; T &gt;</title>
<polygon fill="white" stroke="transparent" points="-4,4 -4,-399 414.5,-399 414.5,4 -4,4"/>
<!-- Node1 -->
<g id="node1" class="node">
<title>Node1</title>
<g id="a_node1"><a xlink:title=" ">
<polygon fill="#bfbfbf" stroke="black" points="171.5,-0.5 171.5,-19.5 301.5,-19.5 301.5,-0.5 171.5,-0.5"/>
<text text-anchor="middle" x="236.5" y="-7.5" font-family="Helvetica,sans-Serif" font-size="10.00">IR::IndexedVector&lt; T &gt;</text>
</a>
</g>
</g>
<!-- Node2 -->
<g id="node2" class="node">
<title>Node2</title>
<g id="a_node2"><a xlink:href="class_i_r_1_1_vector.html" target="_top" xlink:title=" ">
<polygon fill="white" stroke="black" points="190.5,-57.5 190.5,-76.5 282.5,-76.5 282.5,-57.5 190.5,-57.5"/>
<text text-anchor="middle" x="236.5" y="-64.5" font-family="Helvetica,sans-Serif" font-size="10.00">IR::Vector&lt; T &gt;</text>
</a>
</g>
</g>
<!-- Node2&#45;&gt;Node1 -->
<g id="edge1" class="edge">
<title>Node2&#45;&gt;Node1</title>
<path fill="none" stroke="midnightblue" d="M236.5,-47.12C236.5,-37.82 236.5,-27.06 236.5,-19.71"/>
<polygon fill="midnightblue" stroke="midnightblue" points="233,-47.41 236.5,-57.41 240,-47.41 233,-47.41"/>
</g>
<!-- Node3 -->
<g id="node3" class="node">
<title>Node3</title>
<g id="a_node3"><a xlink:href="class_i_r_1_1_vector_base.html" target="_top" xlink:title=" ">
<polygon fill="white" stroke="black" points="193,-114.5 193,-133.5 280,-133.5 280,-114.5 193,-114.5"/>
<text text-anchor="middle" x="236.5" y="-121.5" font-family="Helvetica,sans-Serif" font-size="10.00">IR::VectorBase</text>
</a>
</g>
</g>
<!-- Node3&#45;&gt;Node2 -->
<g id="edge2" class="edge">
<title>Node3&#45;&gt;Node2</title>
<path fill="none" stroke="midnightblue" d="M236.5,-104.12C236.5,-94.82 236.5,-84.06 236.5,-76.71"/>
<polygon fill="midnightblue" stroke="midnightblue" points="233,-104.41 236.5,-114.41 240,-104.41 233,-104.41"/>
</g>
<!-- Node4 -->
<g id="node4" class="node">
<title>Node4</title>
<g id="a_node4"><a xlink:href="class_i_r_1_1_node.html" target="_top" xlink:title=" ">
<polygon fill="white" stroke="black" points="207.5,-171.5 207.5,-190.5 265.5,-190.5 265.5,-171.5 207.5,-171.5"/>
<text text-anchor="middle" x="236.5" y="-178.5" font-family="Helvetica,sans-Serif" font-size="10.00">IR::Node</text>
</a>
</g>
</g>
<!-- Node4&#45;&gt;Node3 -->
<g id="edge3" class="edge">
<title>Node4&#45;&gt;Node3</title>
<path fill="none" stroke="midnightblue" d="M236.5,-161.12C236.5,-151.82 236.5,-141.06 236.5,-133.71"/>
<polygon fill="midnightblue" stroke="midnightblue" points="233,-161.41 236.5,-171.41 240,-161.41 233,-161.41"/>
</g>
<!-- Node5 -->
<g id="node5" class="node">
<title>Node5</title>
<g id="a_node5"><a xlink:href="class_i_r_1_1_i_node.html" target="_top" xlink:title=" ">
<polygon fill="white" stroke="black" points="159,-238.5 159,-257.5 220,-257.5 220,-238.5 159,-238.5"/>
<text text-anchor="middle" x="189.5" y="-245.5" font-family="Helvetica,sans-Serif" font-size="10.00">IR::INode</text>
</a>
</g>
</g>
<!-- Node5&#45;&gt;Node4 -->
<g id="edge4" class="edge">
<title>Node5&#45;&gt;Node4</title>
<path fill="none" stroke="midnightblue" d="M201.86,-229.9C210.99,-217.27 223.05,-200.6 230.26,-190.63"/>
<polygon fill="midnightblue" stroke="midnightblue" points="198.86,-228.08 195.84,-238.23 204.53,-232.18 198.86,-228.08"/>
</g>
<!-- Node6 -->
<g id="node6" class="node">
<title>Node6</title>
<g id="a_node6"><a xlink:href="class_util_1_1_i_has_source_info.html" target="_top" xlink:title=" ">
<polygon fill="white" stroke="black" points="0,-317.5 0,-336.5 113,-336.5 113,-317.5 0,-317.5"/>
<text text-anchor="middle" x="56.5" y="-324.5" font-family="Helvetica,sans-Serif" font-size="10.00">Util::IHasSourceInfo</text>
</a>
</g>
</g>
<!-- Node6&#45;&gt;Node5 -->
<g id="edge5" class="edge">
<title>Node6&#45;&gt;Node5</title>
<path fill="none" stroke="midnightblue" d="M80.16,-312.3C107.54,-296.45 151.78,-270.84 174.69,-257.57"/>
<polygon fill="midnightblue" stroke="midnightblue" points="78.14,-309.43 71.24,-317.47 81.65,-315.48 78.14,-309.43"/>
</g>
<!-- Node7 -->
<g id="node7" class="node">
<title>Node7</title>
<g id="a_node7"><a xlink:href="class_i_has_db_print.html" target="_top" xlink:title=" ">
<polygon fill="white" stroke="black" points="131.5,-317.5 131.5,-336.5 205.5,-336.5 205.5,-317.5 131.5,-317.5"/>
<text text-anchor="middle" x="168.5" y="-324.5" font-family="Helvetica,sans-Serif" font-size="10.00">IHasDbPrint</text>
</a>
</g>
</g>
<!-- Node7&#45;&gt;Node5 -->
<g id="edge6" class="edge">
<title>Node7&#45;&gt;Node5</title>
<path fill="none" stroke="midnightblue" d="M173.47,-307.77C177.77,-292.02 183.79,-269.92 187.1,-257.81"/>
<polygon fill="midnightblue" stroke="midnightblue" points="170.08,-306.9 170.83,-317.47 176.84,-308.74 170.08,-306.9"/>
</g>
<!-- Node8 -->
<g id="node8" class="node">
<title>Node8</title>
<g id="a_node8"><a xlink:href="class_i_castable.html" target="_top" xlink:title=" ">
<polygon fill="white" stroke="black" points="223.5,-317.5 223.5,-336.5 285.5,-336.5 285.5,-317.5 223.5,-317.5"/>
<text text-anchor="middle" x="254.5" y="-324.5" font-family="Helvetica,sans-Serif" font-size="10.00">ICastable</text>
</a>
</g>
</g>
<!-- Node8&#45;&gt;Node5 -->
<g id="edge7" class="edge">
<title>Node8&#45;&gt;Node5</title>
<path fill="none" stroke="midnightblue" d="M240.62,-309.56C227.26,-293.73 207.56,-270.39 196.94,-257.81"/>
<polygon fill="midnightblue" stroke="midnightblue" points="238.17,-312.08 247.3,-317.47 243.52,-307.57 238.17,-312.08"/>
</g>
<!-- Node9 -->
<g id="node9" class="node">
<title>Node9</title>
<g id="a_node9"><a xlink:href="struct_r_t_t_i_1_1_base.html" target="_top" xlink:title=" ">
<polygon fill="white" stroke="black" points="220.5,-375.5 220.5,-394.5 288.5,-394.5 288.5,-375.5 220.5,-375.5"/>
<text text-anchor="middle" x="254.5" y="-382.5" font-family="Helvetica,sans-Serif" font-size="10.00">RTTI::Base</text>
</a>
</g>
</g>
<!-- Node9&#45;&gt;Node8 -->
<g id="edge8" class="edge">
<title>Node9&#45;&gt;Node8</title>
<path fill="none" stroke="midnightblue" d="M254.5,-364.95C254.5,-355.29 254.5,-344.03 254.5,-336.51"/>
<polygon fill="midnightblue" stroke="midnightblue" points="251,-365.25 254.5,-375.25 258,-365.25 251,-365.25"/>
</g>
<!-- Node10 -->
<g id="node10" class="node">
<title>Node10</title>
<g id="a_node10"><a xlink:href="class_util_1_1_source_info.html" target="_top" xlink:title=" ">
<polygon fill="white" stroke="black" points="248.5,-238.5 248.5,-257.5 340.5,-257.5 340.5,-238.5 248.5,-238.5"/>
<text text-anchor="middle" x="294.5" y="-245.5" font-family="Helvetica,sans-Serif" font-size="10.00">Util::SourceInfo</text>
</a>
</g>
</g>
<!-- Node10&#45;&gt;Node4 -->
<g id="edge9" class="edge">
<title>Node10&#45;&gt;Node4</title>
<path fill="none" stroke="#9a32cd" stroke-dasharray="5,2" d="M279.9,-230.63C268.55,-217.92 253.27,-200.8 244.2,-190.63"/>
<polygon fill="#9a32cd" stroke="#9a32cd" points="277.41,-233.1 286.68,-238.23 282.63,-228.44 277.41,-233.1"/>
<text text-anchor="middle" x="288" y="-212" font-family="Helvetica,sans-Serif" font-size="10.00"> srcInfo</text>
</g>
<!-- Node11 -->
<g id="node11" class="node">
<title>Node11</title>
<g id="a_node11"><a xlink:href="classcstring.html" target="_top" xlink:title=" ">
<polygon fill="white" stroke="black" points="303.5,-317.5 303.5,-336.5 353.5,-336.5 353.5,-317.5 303.5,-317.5"/>
<text text-anchor="middle" x="328.5" y="-324.5" font-family="Helvetica,sans-Serif" font-size="10.00">cstring</text>
</a>
</g>
</g>
<!-- Node11&#45;&gt;Node10 -->
<g id="edge10" class="edge">
<title>Node11&#45;&gt;Node10</title>
<path fill="none" stroke="#9a32cd" stroke-dasharray="5,2" d="M320.65,-308.22C313.68,-292.44 303.79,-270.04 298.39,-257.81"/>
<polygon fill="#9a32cd" stroke="#9a32cd" points="317.49,-309.73 324.73,-317.47 323.89,-306.9 317.49,-309.73"/>
<text text-anchor="middle" x="338.5" y="-290" font-family="Helvetica,sans-Serif" font-size="10.00"> filename</text>
<text text-anchor="middle" x="338.5" y="-279" font-family="Helvetica,sans-Serif" font-size="10.00">srcBrief</text>
</g>
<!-- Node11&#45;&gt;Node11 -->
<g id="edge11" class="edge">
<title>Node11&#45;&gt;Node11</title>
<path fill="none" stroke="#9a32cd" stroke-dasharray="5,2" d="M363.95,-331.6C368.5,-330.8 371.5,-329.27 371.5,-327 371.5,-323.28 363.41,-321.54 353.68,-321.77"/>
<polygon fill="#9a32cd" stroke="#9a32cd" points="363.44,-328.12 353.68,-332.23 363.87,-335.11 363.44,-328.12"/>
<text text-anchor="middle" x="391" y="-330" font-family="Helvetica,sans-Serif" font-size="10.00"> empty</text>
<text text-anchor="middle" x="391" y="-319" font-family="Helvetica,sans-Serif" font-size="10.00">newline</text>
</g>
</g>
</svg>
