<?xml version="1.0" encoding="UTF-8" standalone="no"?>
<!DOCTYPE svg PUBLIC "-//W3C//DTD SVG 1.1//EN"
 "http://www.w3.org/Graphics/SVG/1.1/DTD/svg11.dtd">
<!-- Generated by graphviz version 2.43.0 (0)
 -->
<!-- Title: P4::DoSimplifyDefUse Pages: 1 -->
<svg width="387pt" height="233pt"
 viewBox="0.00 0.00 387.00 233.00" xmlns="http://www.w3.org/2000/svg" xmlns:xlink="http://www.w3.org/1999/xlink">
<g id="graph0" class="graph" transform="scale(1 1) rotate(0) translate(4 229)">
<title>P4::DoSimplifyDefUse</title>
<polygon fill="white" stroke="transparent" points="-4,4 -4,-229 383,-229 383,4 -4,4"/>
<!-- Node1 -->
<g id="node1" class="node">
<title>Node1</title>
<g id="a_node1"><a xlink:title=" ">
<polygon fill="#bfbfbf" stroke="black" points="0,-0.5 0,-19.5 124,-19.5 124,-0.5 0,-0.5"/>
<text text-anchor="middle" x="62" y="-7.5" font-family="Helvetica,sans-Serif" font-size="10.00">P4::DoSimplifyDefUse</text>
</a>
</g>
</g>
<!-- Node2 -->
<g id="node2" class="node">
<title>Node2</title>
<g id="a_node2"><a xlink:href="class_transform.html" target="_top" xlink:title=" ">
<polygon fill="white" stroke="black" points="29.5,-68.5 29.5,-87.5 94.5,-87.5 94.5,-68.5 29.5,-68.5"/>
<text text-anchor="middle" x="62" y="-75.5" font-family="Helvetica,sans-Serif" font-size="10.00">Transform</text>
</a>
</g>
</g>
<!-- Node2&#45;&gt;Node1 -->
<g id="edge1" class="edge">
<title>Node2&#45;&gt;Node1</title>
<path fill="none" stroke="midnightblue" d="M62,-58.04C62,-45.47 62,-29.56 62,-19.84"/>
<polygon fill="midnightblue" stroke="midnightblue" points="58.5,-58.37 62,-68.37 65.5,-58.37 58.5,-58.37"/>
</g>
<!-- Node3 -->
<g id="node3" class="node">
<title>Node3</title>
<g id="a_node3"><a xlink:href="class_visitor.html" target="_top" xlink:title=" ">
<polygon fill="white" stroke="black" points="139,-136.5 139,-155.5 187,-155.5 187,-136.5 139,-136.5"/>
<text text-anchor="middle" x="163" y="-143.5" font-family="Helvetica,sans-Serif" font-size="10.00">Visitor</text>
</a>
</g>
</g>
<!-- Node3&#45;&gt;Node2 -->
<g id="edge2" class="edge">
<title>Node3&#45;&gt;Node2</title>
<path fill="none" stroke="midnightblue" d="M138.41,-131.09C131.42,-127 123.84,-122.42 117,-118 101.66,-108.09 84.59,-95.77 73.6,-87.67"/>
<polygon fill="midnightblue" stroke="midnightblue" points="137.06,-134.35 147.47,-136.33 140.56,-128.29 137.06,-134.35"/>
</g>
<!-- Node3&#45;&gt;Node3 -->
<g id="edge10" class="edge">
<title>Node3&#45;&gt;Node3</title>
<path fill="none" stroke="#9a32cd" stroke-dasharray="5,2" d="M197.42,-151.29C201.98,-150.39 205,-148.63 205,-146 205,-141.69 196.86,-139.7 187.17,-140.04"/>
<polygon fill="#9a32cd" stroke="#9a32cd" points="196.92,-147.82 187.17,-151.96 197.38,-154.8 196.92,-147.82"/>
<text text-anchor="middle" x="230" y="-143.5" font-family="Helvetica,sans-Serif" font-size="10.00"> called_by</text>
</g>
<!-- Node5 -->
<g id="node5" class="node">
<title>Node5</title>
<g id="a_node5"><a xlink:href="class_split_flow_visit__base.html" target="_top" xlink:title=" ">
<polygon fill="white" stroke="black" points="169,-0.5 169,-19.5 281,-19.5 281,-0.5 169,-0.5"/>
<text text-anchor="middle" x="225" y="-7.5" font-family="Helvetica,sans-Serif" font-size="10.00">SplitFlowVisit_base</text>
</a>
</g>
</g>
<!-- Node3&#45;&gt;Node5 -->
<g id="edge9" class="edge">
<title>Node3&#45;&gt;Node5</title>
<path fill="none" stroke="#9a32cd" stroke-dasharray="5,2" d="M150.66,-127.83C140.54,-111.48 129.48,-86.53 140,-67 152.74,-43.35 180.32,-28.04 200.62,-19.51"/>
<polygon fill="#9a32cd" stroke="#9a32cd" points="147.88,-129.97 156.33,-136.36 153.7,-126.1 147.88,-129.97"/>
<text text-anchor="middle" x="145" y="-75.5" font-family="Helvetica,sans-Serif" font-size="10.00"> v</text>
</g>
<!-- Node6 -->
<g id="node6" class="node">
<title>Node6</title>
<g id="a_node6"><a xlink:title=" ">
<polygon fill="white" stroke="#bfbfbf" points="159.5,-68.5 159.5,-87.5 290.5,-87.5 290.5,-68.5 159.5,-68.5"/>
<text text-anchor="middle" x="225" y="-75.5" font-family="Helvetica,sans-Serif" font-size="10.00">std::vector&lt; Visitor * &gt;</text>
</a>
</g>
</g>
<!-- Node3&#45;&gt;Node6 -->
<g id="edge8" class="edge">
<title>Node3&#45;&gt;Node6</title>
<path fill="none" stroke="#9a32cd" stroke-dasharray="5,2" d="M177.99,-129.05C190.14,-116.11 206.82,-98.36 216.69,-87.84"/>
<polygon fill="#9a32cd" stroke="#9a32cd" points="175.4,-126.69 171.11,-136.37 180.5,-131.48 175.4,-126.69"/>
<text text-anchor="middle" x="222.5" y="-110" font-family="Helvetica,sans-Serif" font-size="10.00"> elements</text>
</g>
<!-- Node4 -->
<g id="node4" class="node">
<title>Node4</title>
<g id="a_node4"><a xlink:href="classcstring.html" target="_top" xlink:title=" ">
<polygon fill="white" stroke="black" points="138,-204.5 138,-223.5 188,-223.5 188,-204.5 138,-204.5"/>
<text text-anchor="middle" x="163" y="-211.5" font-family="Helvetica,sans-Serif" font-size="10.00">cstring</text>
</a>
</g>
</g>
<!-- Node4&#45;&gt;Node3 -->
<g id="edge3" class="edge">
<title>Node4&#45;&gt;Node3</title>
<path fill="none" stroke="#9a32cd" stroke-dasharray="5,2" d="M163,-194.04C163,-181.47 163,-165.56 163,-155.84"/>
<polygon fill="#9a32cd" stroke="#9a32cd" points="159.5,-194.37 163,-204.37 166.5,-194.37 159.5,-194.37"/>
<text text-anchor="middle" x="198" y="-177" font-family="Helvetica,sans-Serif" font-size="10.00"> internalName</text>
</g>
<!-- Node4&#45;&gt;Node4 -->
<g id="edge4" class="edge">
<title>Node4&#45;&gt;Node4</title>
<path fill="none" stroke="#9a32cd" stroke-dasharray="5,2" d="M198.45,-219.58C203,-218.61 206,-216.75 206,-214 206,-209.48 197.91,-207.37 188.18,-207.65"/>
<polygon fill="#9a32cd" stroke="#9a32cd" points="197.89,-216.11 188.18,-220.35 198.41,-223.1 197.89,-216.11"/>
<text text-anchor="middle" x="225.5" y="-217" font-family="Helvetica,sans-Serif" font-size="10.00"> empty</text>
<text text-anchor="middle" x="225.5" y="-206" font-family="Helvetica,sans-Serif" font-size="10.00">newline</text>
</g>
<!-- Node5&#45;&gt;Node3 -->
<g id="edge5" class="edge">
<title>Node5&#45;&gt;Node3</title>
<path fill="none" stroke="#9a32cd" stroke-dasharray="5,2" d="M254.05,-24.16C281.07,-38.38 315.07,-62.58 300,-89 277.35,-128.73 219.96,-140.29 187.1,-143.64"/>
<polygon fill="#9a32cd" stroke="#9a32cd" points="255.38,-20.91 244.88,-19.56 252.25,-27.17 255.38,-20.91"/>
<text text-anchor="middle" x="341" y="-81" font-family="Helvetica,sans-Serif" font-size="10.00"> split_link</text>
<text text-anchor="middle" x="341" y="-70" font-family="Helvetica,sans-Serif" font-size="10.00">split_link_mem</text>
</g>
<!-- Node5&#45;&gt;Node5 -->
<g id="edge6" class="edge">
<title>Node5&#45;&gt;Node5</title>
<path fill="none" stroke="#9a32cd" stroke-dasharray="5,2" d="M291.4,-14.4C296.12,-13.4 299,-11.93 299,-10 299,-6.91 291.62,-5.01 281.15,-4.31"/>
<polygon fill="#9a32cd" stroke="#9a32cd" points="290.63,-10.97 281.15,-15.69 291.51,-17.91 290.63,-10.97"/>
<text text-anchor="middle" x="311.5" y="-7.5" font-family="Helvetica,sans-Serif" font-size="10.00"> prev</text>
</g>
<!-- Node6&#45;&gt;Node5 -->
<g id="edge7" class="edge">
<title>Node6&#45;&gt;Node5</title>
<path fill="none" stroke="#9a32cd" stroke-dasharray="5,2" d="M225,-58.04C225,-45.47 225,-29.56 225,-19.84"/>
<polygon fill="#9a32cd" stroke="#9a32cd" points="221.5,-58.37 225,-68.37 228.5,-58.37 221.5,-58.37"/>
<text text-anchor="middle" x="245" y="-41" font-family="Helvetica,sans-Serif" font-size="10.00"> visitors</text>
</g>
</g>
</svg>
