<?xml version="1.0" encoding="UTF-8" standalone="no"?>
<!DOCTYPE svg PUBLIC "-//W3C//DTD SVG 1.1//EN"
 "http://www.w3.org/Graphics/SVG/1.1/DTD/svg11.dtd">
<!-- Generated by graphviz version 2.43.0 (0)
 -->
<!-- Title: P4::SerEnumInstance Pages: 1 -->
<!--zoomable 436 -->
<svg id="main" version="1.1" xmlns="http://www.w3.org/2000/svg" xmlns:xlink="http://www.w3.org/1999/xlink" xml:space="preserve" onload="init(evt)">
<style type="text/css"><![CDATA[
.edge:hover path { stroke: red; }
.edge:hover polygon { stroke: red; fill: red; }
]]></style>
<script type="text/javascript"><![CDATA[
var edges = document.getElementsByTagName('g');
if (edges && edges.length) {
  for (var i=0;i<edges.length;i++) {
    if (edges[i].id.substr(0,4)=='edge') {
      edges[i].setAttribute('class','edge');
    }
  }
}
]]></script>
        <defs>
                <circle id="rim" cx="0" cy="0" r="7"/>
                <circle id="rim2" cx="0" cy="0" r="3.5"/>
                <g id="zoomPlus">
                        <use xlink:href="#rim" fill="#404040">
                                <set attributeName="fill" to="#808080" begin="zoomplus.mouseover" end="zoomplus.mouseout"/>
                        </use>
                        <path d="M-4,0h8M0,-4v8" fill="none" stroke="white" stroke-width="1.5" pointer-events="none"/>
                </g>
                <g id="zoomMin">
                        <use xlink:href="#rim" fill="#404040">
                                <set attributeName="fill" to="#808080" begin="zoomminus.mouseover" end="zoomminus.mouseout"/>
                        </use>
                        <path d="M-4,0h8" fill="none" stroke="white" stroke-width="1.5" pointer-events="none"/>
                </g>
                <g id="dirArrow">
                        <path fill="none" stroke="white" stroke-width="1.5" d="M0,-3.0v7 M-2.5,-0.5L0,-3.0L2.5,-0.5"/>
                </g>
               <g id="resetDef">
                       <use xlink:href="#rim2" fill="#404040">
                               <set attributeName="fill" to="#808080" begin="reset.mouseover" end="reset.mouseout"/>
                       </use>
               </g>
        </defs>

<script type="text/javascript">
var viewWidth = 1109;
var viewHeight = 436;
var sectionId = 'dynsection-1';
</script>
<script xlink:href="svgpan.js"/>
<svg id="graph" class="graph">
<g id="viewport">
<title>P4::SerEnumInstance</title>
<polygon fill="white" stroke="transparent" points="-4,4 -4,-432 1105,-432 1105,4 -4,4"/>
<!-- Node1 -->
<g id="node1" class="node">
<title>Node1</title>
<g id="a_node1"><a xlink:title=" ">
<polygon fill="#bfbfbf" stroke="black" points="982,-326.5 982,-345.5 1101,-345.5 1101,-326.5 982,-326.5"/>
<text text-anchor="middle" x="1041.5" y="-333.5" font-family="Helvetica,sans-Serif" font-size="10.00">P4::SerEnumInstance</text>
</a>
</g>
</g>
<!-- Node2 -->
<g id="node2" class="node">
<title>Node2</title>
<g id="a_node2"><a xlink:href="class_p4_1_1_enum_instance.html" target="_top" xlink:title=" ">
<polygon fill="white" stroke="black" points="841,-326.5 841,-345.5 945,-345.5 945,-326.5 841,-326.5"/>
<text text-anchor="middle" x="893" y="-333.5" font-family="Helvetica,sans-Serif" font-size="10.00">P4::EnumInstance</text>
</a>
</g>
</g>
<!-- Node2&#45;&gt;Node1 -->
<g id="edge1" class="edge">
<title>Node2&#45;&gt;Node1</title>
<path fill="none" stroke="midnightblue" d="M955.36,-336C964.1,-336 973.08,-336 981.77,-336"/>
<polygon fill="midnightblue" stroke="midnightblue" points="955.24,-332.5 945.24,-336 955.24,-339.5 955.24,-332.5"/>
</g>
<!-- Node3 -->
<g id="node3" class="node">
<title>Node3</title>
<g id="a_node3"><a xlink:href="class_p4_1_1_instance_base.html" target="_top" xlink:title=" ">
<polygon fill="white" stroke="black" points="704,-326.5 704,-345.5 804,-345.5 804,-326.5 704,-326.5"/>
<text text-anchor="middle" x="754" y="-333.5" font-family="Helvetica,sans-Serif" font-size="10.00">P4::InstanceBase</text>
</a>
</g>
</g>
<!-- Node3&#45;&gt;Node2 -->
<g id="edge2" class="edge">
<title>Node3&#45;&gt;Node2</title>
<path fill="none" stroke="midnightblue" d="M814.35,-336C823.21,-336 832.29,-336 840.96,-336"/>
<polygon fill="midnightblue" stroke="midnightblue" points="814.07,-332.5 804.07,-336 814.07,-339.5 814.07,-332.5"/>
</g>
<!-- Node4 -->
<g id="node4" class="node">
<title>Node4</title>
<g id="a_node4"><a xlink:href="class_i_castable.html" target="_top" xlink:title=" ">
<polygon fill="white" stroke="black" points="475.5,-367.5 475.5,-386.5 537.5,-386.5 537.5,-367.5 475.5,-367.5"/>
<text text-anchor="middle" x="506.5" y="-374.5" font-family="Helvetica,sans-Serif" font-size="10.00">ICastable</text>
</a>
</g>
</g>
<!-- Node4&#45;&gt;Node3 -->
<g id="edge3" class="edge">
<title>Node4&#45;&gt;Node3</title>
<path fill="none" stroke="midnightblue" d="M547.8,-372.02C584.07,-367.32 638.77,-359.71 686,-351 694.67,-349.4 703.93,-347.47 712.71,-345.54"/>
<polygon fill="midnightblue" stroke="midnightblue" points="547.09,-368.58 537.62,-373.32 547.98,-375.52 547.09,-368.58"/>
</g>
<!-- Node5 -->
<g id="node5" class="node">
<title>Node5</title>
<g id="a_node5"><a xlink:href="struct_r_t_t_i_1_1_base.html" target="_top" xlink:title=" ">
<polygon fill="white" stroke="black" points="190,-370.5 190,-389.5 258,-389.5 258,-370.5 190,-370.5"/>
<text text-anchor="middle" x="224" y="-377.5" font-family="Helvetica,sans-Serif" font-size="10.00">RTTI::Base</text>
</a>
</g>
</g>
<!-- Node5&#45;&gt;Node4 -->
<g id="edge4" class="edge">
<title>Node5&#45;&gt;Node4</title>
<path fill="none" stroke="midnightblue" d="M268.19,-379.54C325.5,-378.93 425.24,-377.86 475.19,-377.32"/>
<polygon fill="midnightblue" stroke="midnightblue" points="267.96,-376.04 258,-379.65 268.04,-383.04 267.96,-376.04"/>
</g>
<!-- Node6 -->
<g id="node6" class="node">
<title>Node6</title>
<g id="a_node6"><a xlink:href="class_p4_1_1_parameter_substitution.html" target="_top" xlink:title=" ">
<polygon fill="white" stroke="black" points="435,-238.5 435,-257.5 578,-257.5 578,-238.5 435,-238.5"/>
<text text-anchor="middle" x="506.5" y="-245.5" font-family="Helvetica,sans-Serif" font-size="10.00">P4::ParameterSubstitution</text>
</a>
</g>
</g>
<!-- Node6&#45;&gt;Node3 -->
<g id="edge5" class="edge">
<title>Node6&#45;&gt;Node3</title>
<path fill="none" stroke="#9a32cd" stroke-dasharray="5,2" d="M543.66,-260.96C593.47,-278.82 682.04,-310.57 726.29,-326.43"/>
<polygon fill="#9a32cd" stroke="#9a32cd" points="544.83,-257.66 534.24,-257.59 542.47,-264.25 544.83,-257.66"/>
<text text-anchor="middle" x="644" y="-312" font-family="Helvetica,sans-Serif" font-size="10.00"> substitution</text>
</g>
<!-- Node7 -->
<g id="node7" class="node">
<title>Node7</title>
<g id="a_node7"><a xlink:href="class_i_has_db_print.html" target="_top" xlink:title=" ">
<polygon fill="white" stroke="black" points="0,-341.5 0,-360.5 74,-360.5 74,-341.5 0,-341.5"/>
<text text-anchor="middle" x="37" y="-348.5" font-family="Helvetica,sans-Serif" font-size="10.00">IHasDbPrint</text>
</a>
</g>
</g>
<!-- Node7&#45;&gt;Node6 -->
<g id="edge6" class="edge">
<title>Node7&#45;&gt;Node6</title>
<path fill="none" stroke="midnightblue" d="M53.59,-333.89C63.57,-324.07 77.37,-312.44 92,-306 157.48,-277.2 340.23,-273.39 411,-263 422.59,-261.3 434.96,-259.4 446.81,-257.54"/>
<polygon fill="midnightblue" stroke="midnightblue" points="50.9,-331.63 46.45,-341.25 55.93,-336.51 50.9,-331.63"/>
</g>
<!-- Node13 -->
<g id="node13" class="node">
<title>Node13</title>
<g id="a_node13"><a xlink:href="class_p4_1_1_type_substitution.html" target="_top" xlink:title=" ">
<polygon fill="white" stroke="black" points="157,-321 157,-351 291,-351 291,-321 157,-321"/>
<text text-anchor="start" x="165" y="-339" font-family="Helvetica,sans-Serif" font-size="10.00">P4::TypeSubstitution</text>
<text text-anchor="middle" x="224" y="-328" font-family="Helvetica,sans-Serif" font-size="10.00">&lt; const IR::ITypeVar * &gt;</text>
</a>
</g>
</g>
<!-- Node7&#45;&gt;Node13 -->
<g id="edge15" class="edge">
<title>Node7&#45;&gt;Node13</title>
<path fill="none" stroke="midnightblue" d="M84.14,-347.26C106.04,-345.48 132.63,-343.33 156.65,-341.38"/>
<polygon fill="midnightblue" stroke="midnightblue" points="83.79,-343.78 74.11,-348.07 84.36,-350.75 83.79,-343.78"/>
</g>
<!-- Node15 -->
<g id="node15" class="node">
<title>Node15</title>
<g id="a_node15"><a xlink:href="class_p4_1_1_program_map.html" target="_top" xlink:title=" ">
<polygon fill="white" stroke="black" points="175.5,-408.5 175.5,-427.5 272.5,-427.5 272.5,-408.5 175.5,-408.5"/>
<text text-anchor="middle" x="224" y="-415.5" font-family="Helvetica,sans-Serif" font-size="10.00">P4::ProgramMap</text>
</a>
</g>
</g>
<!-- Node7&#45;&gt;Node15 -->
<g id="edge18" class="edge">
<title>Node7&#45;&gt;Node15</title>
<path fill="none" stroke="midnightblue" d="M68.92,-364.49C92.74,-374.64 126.64,-388.54 157,-399 166.69,-402.34 177.32,-405.58 187.17,-408.41"/>
<polygon fill="midnightblue" stroke="midnightblue" points="70.25,-361.25 59.68,-360.53 67.49,-367.69 70.25,-361.25"/>
</g>
<!-- Node8 -->
<g id="node8" class="node">
<title>Node8</title>
<g id="a_node8"><a xlink:title=" ">
<polygon fill="white" stroke="#bfbfbf" points="157,-184 157,-214 291,-214 291,-184 157,-184"/>
<text text-anchor="start" x="165" y="-202" font-family="Helvetica,sans-Serif" font-size="10.00">std::map&lt; cstring,</text>
<text text-anchor="middle" x="224" y="-191" font-family="Helvetica,sans-Serif" font-size="10.00"> const IR::Parameter * &gt;</text>
</a>
</g>
</g>
<!-- Node8&#45;&gt;Node6 -->
<g id="edge7" class="edge">
<title>Node8&#45;&gt;Node6</title>
<path fill="none" stroke="#9a32cd" stroke-dasharray="5,2" d="M301.01,-212.28C348.29,-220.54 408,-230.97 450.66,-238.42"/>
<polygon fill="#9a32cd" stroke="#9a32cd" points="301.57,-208.82 291.12,-210.55 300.37,-215.72 301.57,-208.82"/>
<text text-anchor="middle" x="360" y="-233" font-family="Helvetica,sans-Serif" font-size="10.00"> parametersByName</text>
</g>
<!-- Node9 -->
<g id="node9" class="node">
<title>Node9</title>
<g id="a_node9"><a xlink:href="classcstring.html" target="_top" xlink:title=" ">
<polygon fill="white" stroke="black" points="12,-140.5 12,-159.5 62,-159.5 62,-140.5 12,-140.5"/>
<text text-anchor="middle" x="37" y="-147.5" font-family="Helvetica,sans-Serif" font-size="10.00">cstring</text>
</a>
</g>
</g>
<!-- Node9&#45;&gt;Node8 -->
<g id="edge8" class="edge">
<title>Node9&#45;&gt;Node8</title>
<path fill="none" stroke="#9a32cd" stroke-dasharray="5,2" d="M72.18,-159.59C78.75,-161.41 85.59,-163.28 92,-165 115.6,-171.34 141.64,-178.14 164.25,-183.98"/>
<polygon fill="#9a32cd" stroke="#9a32cd" points="72.74,-156.11 62.17,-156.81 70.87,-162.86 72.74,-156.11"/>
<text text-anchor="middle" x="115.5" y="-180" font-family="Helvetica,sans-Serif" font-size="10.00"> keys</text>
</g>
<!-- Node9&#45;&gt;Node9 -->
<g id="edge9" class="edge">
<title>Node9&#45;&gt;Node9</title>
<path fill="none" stroke="#9a32cd" stroke-dasharray="5,2" d="M22.64,-169.77C23.76,-174.5 28.55,-178 37,-178 50.86,-178 54.87,-168.57 49.02,-159.76"/>
<polygon fill="#9a32cd" stroke="#9a32cd" points="26.11,-170.29 24.98,-159.76 19.29,-168.7 26.11,-170.29"/>
<text text-anchor="middle" x="37" y="-192" font-family="Helvetica,sans-Serif" font-size="10.00"> empty</text>
<text text-anchor="middle" x="37" y="-181" font-family="Helvetica,sans-Serif" font-size="10.00">newline</text>
</g>
<!-- Node10 -->
<g id="node10" class="node">
<title>Node10</title>
<g id="a_node10"><a xlink:title=" ">
<polygon fill="white" stroke="#bfbfbf" points="158,-135 158,-165 290,-165 290,-135 158,-135"/>
<text text-anchor="start" x="166" y="-153" font-family="Helvetica,sans-Serif" font-size="10.00">std::map&lt; cstring,</text>
<text text-anchor="middle" x="224" y="-142" font-family="Helvetica,sans-Serif" font-size="10.00"> const IR::Argument * &gt;</text>
</a>
</g>
</g>
<!-- Node9&#45;&gt;Node10 -->
<g id="edge11" class="edge">
<title>Node9&#45;&gt;Node10</title>
<path fill="none" stroke="#9a32cd" stroke-dasharray="5,2" d="M72.2,-150C96.16,-150 128.93,-150 157.8,-150"/>
<polygon fill="#9a32cd" stroke="#9a32cd" points="72.19,-146.5 62.19,-150 72.19,-153.5 72.19,-146.5"/>
<text text-anchor="middle" x="115.5" y="-153" font-family="Helvetica,sans-Serif" font-size="10.00"> keys</text>
</g>
<!-- Node9&#45;&gt;Node15 -->
<g id="edge19" class="edge">
<title>Node9&#45;&gt;Node15</title>
<path fill="none" stroke="#9a32cd" stroke-dasharray="5,2" d="M47.08,-168.62C64.89,-205.2 105.58,-289.08 139,-360 147.14,-377.27 142.51,-386.57 157,-399 162.34,-403.58 168.72,-407.06 175.38,-409.7"/>
<polygon fill="#9a32cd" stroke="#9a32cd" points="50.21,-167.06 42.69,-159.6 43.92,-170.13 50.21,-167.06"/>
<text text-anchor="middle" x="115.5" y="-363" font-family="Helvetica,sans-Serif" font-size="10.00"> mapKind</text>
</g>
<!-- Node16 -->
<g id="node16" class="node">
<title>Node16</title>
<g id="a_node16"><a xlink:href="struct_i_r_1_1_i_d.html" target="_top" xlink:title=" ">
<polygon fill="white" stroke="black" points="485,-66.5 485,-85.5 528,-85.5 528,-66.5 485,-66.5"/>
<text text-anchor="middle" x="506.5" y="-73.5" font-family="Helvetica,sans-Serif" font-size="10.00">IR::ID</text>
</a>
</g>
</g>
<!-- Node9&#45;&gt;Node16 -->
<g id="edge24" class="edge">
<title>Node9&#45;&gt;Node16</title>
<path fill="none" stroke="#9a32cd" stroke-dasharray="5,2" d="M66.77,-136.17C90.42,-125.47 125.12,-111.28 157,-104 220.02,-89.61 419.43,-79.78 484.64,-76.89"/>
<polygon fill="#9a32cd" stroke="#9a32cd" points="65.28,-133 57.66,-140.37 68.2,-139.36 65.28,-133"/>
<text text-anchor="middle" x="224" y="-118" font-family="Helvetica,sans-Serif" font-size="10.00"> name</text>
<text text-anchor="middle" x="224" y="-107" font-family="Helvetica,sans-Serif" font-size="10.00">originalName</text>
</g>
<!-- Node18 -->
<g id="node18" class="node">
<title>Node18</title>
<g id="a_node18"><a xlink:href="class_util_1_1_source_info.html" target="_top" xlink:title=" ">
<polygon fill="white" stroke="black" points="178,-38.5 178,-57.5 270,-57.5 270,-38.5 178,-38.5"/>
<text text-anchor="middle" x="224" y="-45.5" font-family="Helvetica,sans-Serif" font-size="10.00">Util::SourceInfo</text>
</a>
</g>
</g>
<!-- Node9&#45;&gt;Node18 -->
<g id="edge23" class="edge">
<title>Node9&#45;&gt;Node18</title>
<path fill="none" stroke="#9a32cd" stroke-dasharray="5,2" d="M43.44,-130.57C50.66,-108.81 65.66,-74.45 92,-58 117.35,-42.18 151.06,-39.93 177.93,-41.51"/>
<polygon fill="#9a32cd" stroke="#9a32cd" points="40.02,-129.79 40.43,-140.38 46.71,-131.84 40.02,-129.79"/>
<text text-anchor="middle" x="115.5" y="-72" font-family="Helvetica,sans-Serif" font-size="10.00"> filename</text>
<text text-anchor="middle" x="115.5" y="-61" font-family="Helvetica,sans-Serif" font-size="10.00">srcBrief</text>
</g>
<!-- Node10&#45;&gt;Node6 -->
<g id="edge10" class="edge">
<title>Node10&#45;&gt;Node6</title>
<path fill="none" stroke="#9a32cd" stroke-dasharray="5,2" d="M300.21,-165.81C334.55,-174.05 375.41,-185.28 411,-199 439.8,-210.1 471.24,-227.57 489.62,-238.38"/>
<polygon fill="#9a32cd" stroke="#9a32cd" points="300.78,-162.35 290.24,-163.47 299.17,-169.17 300.78,-162.35"/>
<text text-anchor="middle" x="360" y="-202" font-family="Helvetica,sans-Serif" font-size="10.00"> parameterValues</text>
</g>
<!-- Node11 -->
<g id="node11" class="node">
<title>Node11</title>
<g id="a_node11"><a xlink:title=" ">
<polygon fill="white" stroke="#bfbfbf" points="171,-233 171,-263 277,-263 277,-233 171,-233"/>
<text text-anchor="start" x="179" y="-251" font-family="Helvetica,sans-Serif" font-size="10.00">std::vector&lt; const</text>
<text text-anchor="middle" x="224" y="-240" font-family="Helvetica,sans-Serif" font-size="10.00"> IR::Parameter * &gt;</text>
</a>
</g>
</g>
<!-- Node11&#45;&gt;Node6 -->
<g id="edge12" class="edge">
<title>Node11&#45;&gt;Node6</title>
<path fill="none" stroke="#9a32cd" stroke-dasharray="5,2" d="M287.31,-248C331,-248 389.48,-248 434.9,-248"/>
<polygon fill="#9a32cd" stroke="#9a32cd" points="287.1,-244.5 277.1,-248 287.1,-251.5 287.1,-244.5"/>
<text text-anchor="middle" x="360" y="-251" font-family="Helvetica,sans-Serif" font-size="10.00"> parameters</text>
</g>
<!-- Node12 -->
<g id="node12" class="node">
<title>Node12</title>
<g id="a_node12"><a xlink:href="class_p4_1_1_type_variable_substitution.html" target="_top" xlink:title=" ">
<polygon fill="white" stroke="black" points="429,-326.5 429,-345.5 584,-345.5 584,-326.5 429,-326.5"/>
<text text-anchor="middle" x="506.5" y="-333.5" font-family="Helvetica,sans-Serif" font-size="10.00">P4::TypeVariableSubstitution</text>
</a>
</g>
</g>
<!-- Node12&#45;&gt;Node3 -->
<g id="edge13" class="edge">
<title>Node12&#45;&gt;Node3</title>
<path fill="none" stroke="#9a32cd" stroke-dasharray="5,2" d="M594.4,-336C631.17,-336 672.64,-336 703.95,-336"/>
<polygon fill="#9a32cd" stroke="#9a32cd" points="594.17,-332.5 584.17,-336 594.17,-339.5 594.17,-332.5"/>
<text text-anchor="middle" x="644" y="-339" font-family="Helvetica,sans-Serif" font-size="10.00"> typeSubstitution</text>
</g>
<!-- Node13&#45;&gt;Node12 -->
<g id="edge14" class="edge">
<title>Node13&#45;&gt;Node12</title>
<path fill="none" stroke="midnightblue" d="M301.26,-336C340.9,-336 389.21,-336 428.9,-336"/>
<polygon fill="midnightblue" stroke="midnightblue" points="301.12,-332.5 291.12,-336 301.12,-339.5 301.12,-332.5"/>
</g>
<!-- Node14 -->
<g id="node14" class="node">
<title>Node14</title>
<g id="a_node14"><a xlink:href="class_p4_1_1_type_map.html" target="_top" xlink:title=" ">
<polygon fill="white" stroke="black" points="605,-392.5 605,-411.5 683,-411.5 683,-392.5 605,-392.5"/>
<text text-anchor="middle" x="644" y="-399.5" font-family="Helvetica,sans-Serif" font-size="10.00">P4::TypeMap</text>
</a>
</g>
</g>
<!-- Node14&#45;&gt;Node2 -->
<g id="edge16" class="edge">
<title>Node14&#45;&gt;Node2</title>
<path fill="none" stroke="#9a32cd" stroke-dasharray="5,2" d="M690.44,-389.86C738.27,-377.08 812.58,-357.22 856.36,-345.52"/>
<polygon fill="#9a32cd" stroke="#9a32cd" points="689.41,-386.51 680.65,-392.47 691.22,-393.27 689.41,-386.51"/>
<text text-anchor="middle" x="754" y="-388" font-family="Helvetica,sans-Serif" font-size="10.00"> typeMap</text>
</g>
<!-- Node15&#45;&gt;Node14 -->
<g id="edge17" class="edge">
<title>Node15&#45;&gt;Node14</title>
<path fill="none" stroke="midnightblue" d="M282.74,-415.79C369.5,-412.47 531.13,-406.28 604.73,-403.47"/>
<polygon fill="midnightblue" stroke="midnightblue" points="282.4,-412.3 272.54,-416.18 282.67,-419.3 282.4,-412.3"/>
</g>
<!-- Node16&#45;&gt;Node2 -->
<g id="edge20" class="edge">
<title>Node16&#45;&gt;Node2</title>
<path fill="none" stroke="#9a32cd" stroke-dasharray="5,2" d="M530.35,-91.45C601.83,-139.78 819.79,-287.17 877.73,-326.35"/>
<polygon fill="#9a32cd" stroke="#9a32cd" points="531.89,-88.26 521.64,-85.56 527.96,-94.06 531.89,-88.26"/>
<text text-anchor="middle" x="754" y="-279" font-family="Helvetica,sans-Serif" font-size="10.00"> name</text>
</g>
<!-- Node17 -->
<g id="node17" class="node">
<title>Node17</title>
<g id="a_node17"><a xlink:href="class_util_1_1_i_has_source_info.html" target="_top" xlink:title=" ">
<polygon fill="white" stroke="black" points="167.5,-0.5 167.5,-19.5 280.5,-19.5 280.5,-0.5 167.5,-0.5"/>
<text text-anchor="middle" x="224" y="-7.5" font-family="Helvetica,sans-Serif" font-size="10.00">Util::IHasSourceInfo</text>
</a>
</g>
</g>
<!-- Node17&#45;&gt;Node16 -->
<g id="edge21" class="edge">
<title>Node17&#45;&gt;Node16</title>
<path fill="none" stroke="midnightblue" d="M275.5,-21.88C337.84,-36.55 440.97,-60.82 484.78,-71.13"/>
<polygon fill="midnightblue" stroke="midnightblue" points="276.02,-18.41 265.49,-19.53 274.42,-25.22 276.02,-18.41"/>
</g>
<!-- Node18&#45;&gt;Node16 -->
<g id="edge22" class="edge">
<title>Node18&#45;&gt;Node16</title>
<path fill="none" stroke="#9a32cd" stroke-dasharray="5,2" d="M280.19,-53.51C342.93,-59.77 442.15,-69.68 484.85,-73.94"/>
<polygon fill="#9a32cd" stroke="#9a32cd" points="280.37,-50.01 270.07,-52.5 279.67,-56.97 280.37,-50.01"/>
<text text-anchor="middle" x="360" y="-70" font-family="Helvetica,sans-Serif" font-size="10.00"> srcInfo</text>
</g>
</g>
</svg>
        <g id="navigator" transform="translate(0 0)" fill="#404254">
                <rect fill="#f2f5e9" fill-opacity="0.5" stroke="#606060" stroke-width=".5" x="0" y="0" width="60" height="60"/>
                <use id="zoomplus" xlink:href="#zoomPlus" x="17" y="9" onmousedown="handleZoom(evt,'in')"/>
                <use id="zoomminus" xlink:href="#zoomMin" x="42" y="9" onmousedown="handleZoom(evt,'out')"/>
                <use id="reset" xlink:href="#resetDef" x="30" y="36" onmousedown="handleReset()"/>
                <g id="arrowUp" xlink:href="#dirArrow" transform="translate(30 24)" onmousedown="handlePan(0,-1)">
                  <use xlink:href="#rim" fill="#404040">
                        <set attributeName="fill" to="#808080" begin="arrowUp.mouseover" end="arrowUp.mouseout"/>
                  </use>
                  <path fill="none" stroke="white" stroke-width="1.5" d="M0,-3.0v7 M-2.5,-0.5L0,-3.0L2.5,-0.5"/>
                </g>
                <g id="arrowRight" xlink:href="#dirArrow" transform="rotate(90) translate(36 -43)" onmousedown="handlePan(1,0)">
                  <use xlink:href="#rim" fill="#404040">
                        <set attributeName="fill" to="#808080" begin="arrowRight.mouseover" end="arrowRight.mouseout"/>
                  </use>
                  <path fill="none" stroke="white" stroke-width="1.5" d="M0,-3.0v7 M-2.5,-0.5L0,-3.0L2.5,-0.5"/>
                </g>
                <g id="arrowDown" xlink:href="#dirArrow" transform="rotate(180) translate(-30 -48)" onmousedown="handlePan(0,1)">
                  <use xlink:href="#rim" fill="#404040">
                        <set attributeName="fill" to="#808080" begin="arrowDown.mouseover" end="arrowDown.mouseout"/>
                  </use>
                  <path fill="none" stroke="white" stroke-width="1.5" d="M0,-3.0v7 M-2.5,-0.5L0,-3.0L2.5,-0.5"/>
                </g>
                <g id="arrowLeft" xlink:href="#dirArrow" transform="rotate(270) translate(-36 17)" onmousedown="handlePan(-1,0)">
                  <use xlink:href="#rim" fill="#404040">
                        <set attributeName="fill" to="#808080" begin="arrowLeft.mouseover" end="arrowLeft.mouseout"/>
                  </use>
                  <path fill="none" stroke="white" stroke-width="1.5" d="M0,-3.0v7 M-2.5,-0.5L0,-3.0L2.5,-0.5"/>
                </g>
        </g>
        <svg viewBox="0 0 15 15" width="100%" height="30px" preserveAspectRatio="xMaxYMin meet">
         <g id="arrow_out" transform="scale(0.3 0.3)">
          <a xlink:href="class_p4_1_1_ser_enum_instance__coll__graph_org.svg" target="_base">
           <rect id="button" ry="5" rx="5" y="6" x="6" height="38" width="38"
                fill="#f2f5e9" fill-opacity="0.5" stroke="#606060" stroke-width="1.0"/>
           <path id="arrow"
             d="M 11.500037,31.436501 C 11.940474,20.09759 22.043105,11.32322 32.158766,21.979434 L 37.068811,17.246167 C 37.068811,17.246167 37.088388,32 37.088388,32 L 22.160133,31.978069 C 22.160133,31.978069 26.997745,27.140456 26.997745,27.140456 C 18.528582,18.264221 13.291696,25.230495 11.500037,31.436501 z"
             style="fill:#404040;"/>
          </a>
         </g>
        </svg>
</svg>
