<?xml version="1.0" encoding="UTF-8" standalone="no"?>
<!DOCTYPE svg PUBLIC "-//W3C//DTD SVG 1.1//EN"
 "http://www.w3.org/Graphics/SVG/1.1/DTD/svg11.dtd">
<!-- Generated by graphviz version 11.0.0 (20240428.1522)
 -->
<!-- Title: Graphical Class Hierarchy Pages: 1 -->
<svg width="450pt" height="104pt"
 viewBox="0.00 0.00 449.75 104.00" xmlns="http://www.w3.org/2000/svg" xmlns:xlink="http://www.w3.org/1999/xlink">
<g id="graph0" class="graph" transform="scale(1 1) rotate(0) translate(4 100)">
<title>Graphical Class Hierarchy</title>
<!-- Node0 -->
<g id="Node000000" class="node">
<title>Node0</title>
<g id="a_Node000000"><a xlink:href="class_p4_1_1_e_b_p_f_1_1_target.html" target="_top" xlink:title=" ">
<polygon fill="white" stroke="#666666" points="93.25,-58 0,-58 0,-38 93.25,-38 93.25,-58"/>
<text text-anchor="middle" x="46.62" y="-44.5" font-family="Helvetica,sans-Serif" font-size="10.00">P4::EBPF::Target</text>
</a>
</g>
</g>
<!-- Node1 -->
<g id="Node000001" class="node">
<title>Node1</title>
<g id="a_Node000001"><a xlink:href="class_p4_1_1_e_b_p_f_1_1_bcc_target.html" target="_top" xlink:title="Represents a target compiled by bcc that uses the TC.">
<polygon fill="white" stroke="#666666" points="264.12,-96 153.62,-96 153.62,-76 264.12,-76 264.12,-96"/>
<text text-anchor="middle" x="208.88" y="-82.5" font-family="Helvetica,sans-Serif" font-size="10.00">P4::EBPF::BccTarget</text>
</a>
</g>
</g>
<!-- Node0&#45;&gt;Node1 -->
<g id="edge971_Node000000_Node000001" class="edge">
<title>Node0&#45;&gt;Node1</title>
<g id="a_edge971_Node000000_Node000001"><a xlink:title=" ">
<path fill="none" stroke="#63b8ff" d="M102.94,-61.12C122.83,-65.83 144.99,-71.09 163.81,-75.55"/>
<polygon fill="#63b8ff" stroke="#63b8ff" points="103.85,-57.74 93.31,-58.83 102.23,-64.55 103.85,-57.74"/>
</a>
</g>
</g>
<!-- Node2 -->
<g id="Node000002" class="node">
<title>Node2</title>
<g id="a_Node000002"><a xlink:href="class_p4_1_1_e_b_p_f_1_1_kernel_samples_target.html" target="_top" xlink:title=" ">
<polygon fill="white" stroke="#666666" points="288.5,-58 129.25,-58 129.25,-38 288.5,-38 288.5,-58"/>
<text text-anchor="middle" x="208.88" y="-44.5" font-family="Helvetica,sans-Serif" font-size="10.00">P4::EBPF::KernelSamplesTarget</text>
</a>
</g>
</g>
<!-- Node0&#45;&gt;Node2 -->
<g id="edge972_Node000000_Node000002" class="edge">
<title>Node0&#45;&gt;Node2</title>
<g id="a_edge972_Node000000_Node000002"><a xlink:title=" ">
<path fill="none" stroke="#63b8ff" d="M105.05,-48C112.82,-48 120.9,-48 128.96,-48"/>
<polygon fill="#63b8ff" stroke="#63b8ff" points="105.06,-44.5 95.06,-48 105.06,-51.5 105.06,-44.5"/>
</a>
</g>
</g>
<!-- Node6 -->
<g id="Node000006" class="node">
<title>Node6</title>
<g id="a_Node000006"><a xlink:href="class_p4_1_1_u_b_p_f_1_1_ubpf_target.html" target="_top" xlink:title=" ">
<polygon fill="white" stroke="#666666" points="265.25,-20 152.5,-20 152.5,0 265.25,0 265.25,-20"/>
<text text-anchor="middle" x="208.88" y="-6.5" font-family="Helvetica,sans-Serif" font-size="10.00">P4::UBPF::UbpfTarget</text>
</a>
</g>
</g>
<!-- Node0&#45;&gt;Node6 -->
<g id="edge976_Node000000_Node000006" class="edge">
<title>Node0&#45;&gt;Node6</title>
<g id="a_edge976_Node000000_Node000006"><a xlink:title=" ">
<path fill="none" stroke="#63b8ff" d="M102.94,-34.88C122.83,-30.17 144.99,-24.91 163.81,-20.45"/>
<polygon fill="#63b8ff" stroke="#63b8ff" points="102.23,-31.45 93.31,-37.17 103.85,-38.26 102.23,-31.45"/>
</a>
</g>
</g>
<!-- Node3 -->
<g id="Node000003" class="node">
<title>Node3</title>
<g id="a_Node000003"><a xlink:href="class_p4_1_1_e_b_p_f_1_1_p4_t_c_target.html" target="_top" xlink:title=" ">
<polygon fill="white" stroke="#666666" points="441.75,-96 324.5,-96 324.5,-76 441.75,-76 441.75,-96"/>
<text text-anchor="middle" x="383.12" y="-82.5" font-family="Helvetica,sans-Serif" font-size="10.00">P4::EBPF::P4TCTarget</text>
</a>
</g>
</g>
<!-- Node2&#45;&gt;Node3 -->
<g id="edge973_Node000002_Node000003" class="edge">
<title>Node2&#45;&gt;Node3</title>
<g id="a_edge973_Node000002_Node000003"><a xlink:title=" ">
<path fill="none" stroke="#63b8ff" d="M268.43,-60.92C290.05,-65.69 314.25,-71.03 334.76,-75.55"/>
<polygon fill="#63b8ff" stroke="#63b8ff" points="269.4,-57.55 258.88,-58.81 267.89,-64.38 269.4,-57.55"/>
</a>
</g>
</g>
<!-- Node4 -->
<g id="Node000004" class="node">
<title>Node4</title>
<g id="a_Node000004"><a xlink:href="class_p4_1_1_e_b_p_f_1_1_test_target.html" target="_top" xlink:title=" ">
<polygon fill="white" stroke="#666666" points="439.12,-58 327.12,-58 327.12,-38 439.12,-38 439.12,-58"/>
<text text-anchor="middle" x="383.12" y="-44.5" font-family="Helvetica,sans-Serif" font-size="10.00">P4::EBPF::TestTarget</text>
</a>
</g>
</g>
<!-- Node2&#45;&gt;Node4 -->
<g id="edge974_Node000002_Node000004" class="edge">
<title>Node2&#45;&gt;Node4</title>
<g id="a_edge974_Node000002_Node000004"><a xlink:title=" ">
<path fill="none" stroke="#63b8ff" d="M300.31,-48C309.28,-48 318.19,-48 326.65,-48"/>
<polygon fill="#63b8ff" stroke="#63b8ff" points="300.46,-44.5 290.46,-48 300.46,-51.5 300.46,-44.5"/>
</a>
</g>
</g>
<!-- Node5 -->
<g id="Node000005" class="node">
<title>Node5</title>
<g id="a_Node000005"><a xlink:href="class_p4_1_1_e_b_p_f_1_1_xdp_target.html" target="_top" xlink:title="Target XDP.">
<polygon fill="white" stroke="#666666" points="437.62,-20 328.62,-20 328.62,0 437.62,0 437.62,-20"/>
<text text-anchor="middle" x="383.12" y="-6.5" font-family="Helvetica,sans-Serif" font-size="10.00">P4::EBPF::XdpTarget</text>
</a>
</g>
</g>
<!-- Node2&#45;&gt;Node5 -->
<g id="edge975_Node000002_Node000005" class="edge">
<title>Node2&#45;&gt;Node5</title>
<g id="a_edge975_Node000002_Node000005"><a xlink:title=" ">
<path fill="none" stroke="#63b8ff" d="M268.43,-35.08C290.05,-30.31 314.25,-24.97 334.76,-20.45"/>
<polygon fill="#63b8ff" stroke="#63b8ff" points="267.89,-31.62 258.88,-37.19 269.4,-38.45 267.89,-31.62"/>
</a>
</g>
</g>
</g>
</svg>
