<?xml version="1.0" encoding="UTF-8" standalone="no"?>
<!DOCTYPE svg PUBLIC "-//W3C//DTD SVG 1.1//EN"
 "http://www.w3.org/Graphics/SVG/1.1/DTD/svg11.dtd">
<!-- Generated by graphviz version 2.43.0 (0)
 -->
<!-- Title: Graphical Class Hierarchy Pages: 1 -->
<svg width="402pt" height="104pt"
 viewBox="0.00 0.00 402.00 104.00" xmlns="http://www.w3.org/2000/svg" xmlns:xlink="http://www.w3.org/1999/xlink">
<g id="graph0" class="graph" transform="scale(1 1) rotate(0) translate(4 100)">
<title>Graphical Class Hierarchy</title>
<polygon fill="white" stroke="transparent" points="-4,4 -4,-100 398,-100 398,4 -4,4"/>
<!-- Node0 -->
<g id="node1" class="node">
<title>Node0</title>
<g id="a_node1"><a xlink:href="class_e_b_p_f_1_1_target.html" target="_top" xlink:title=" ">
<polygon fill="white" stroke="black" points="0,-38.5 0,-57.5 77,-57.5 77,-38.5 0,-38.5"/>
<text text-anchor="middle" x="38.5" y="-45.5" font-family="Helvetica,sans-Serif" font-size="10.00">EBPF::Target</text>
</a>
</g>
</g>
<!-- Node1 -->
<g id="node2" class="node">
<title>Node1</title>
<g id="a_node2"><a xlink:href="class_e_b_p_f_1_1_bcc_target.html" target="_top" xlink:title=" ">
<polygon fill="white" stroke="black" points="140.5,-76.5 140.5,-95.5 234.5,-95.5 234.5,-76.5 140.5,-76.5"/>
<text text-anchor="middle" x="187.5" y="-83.5" font-family="Helvetica,sans-Serif" font-size="10.00">EBPF::BccTarget</text>
</a>
</g>
</g>
<!-- Node0&#45;&gt;Node1 -->
<g id="edge1" class="edge">
<title>Node0&#45;&gt;Node1</title>
<path fill="none" stroke="midnightblue" d="M86.35,-60.11C106.83,-65.4 130.49,-71.52 149.67,-76.48"/>
<polygon fill="midnightblue" stroke="midnightblue" points="87.15,-56.7 76.59,-57.59 85.4,-63.48 87.15,-56.7"/>
</g>
<!-- Node2 -->
<g id="node3" class="node">
<title>Node2</title>
<g id="a_node3"><a xlink:href="class_e_b_p_f_1_1_kernel_samples_target.html" target="_top" xlink:title=" ">
<polygon fill="white" stroke="black" points="113,-38.5 113,-57.5 262,-57.5 262,-38.5 113,-38.5"/>
<text text-anchor="middle" x="187.5" y="-45.5" font-family="Helvetica,sans-Serif" font-size="10.00">EBPF::KernelSamplesTarget</text>
</a>
</g>
</g>
<!-- Node0&#45;&gt;Node2 -->
<g id="edge2" class="edge">
<title>Node0&#45;&gt;Node2</title>
<path fill="none" stroke="midnightblue" d="M87.38,-48C95.53,-48 104.15,-48 112.78,-48"/>
<polygon fill="midnightblue" stroke="midnightblue" points="87.36,-44.5 77.36,-48 87.36,-51.5 87.36,-44.5"/>
</g>
<!-- Node5 -->
<g id="node6" class="node">
<title>Node5</title>
<g id="a_node6"><a xlink:href="class_u_b_p_f_1_1_ubpf_target.html" target="_top" xlink:title=" ">
<polygon fill="white" stroke="black" points="137,-0.5 137,-19.5 238,-19.5 238,-0.5 137,-0.5"/>
<text text-anchor="middle" x="187.5" y="-7.5" font-family="Helvetica,sans-Serif" font-size="10.00">UBPF::UbpfTarget</text>
</a>
</g>
</g>
<!-- Node0&#45;&gt;Node5 -->
<g id="edge5" class="edge">
<title>Node0&#45;&gt;Node5</title>
<path fill="none" stroke="midnightblue" d="M86.35,-35.89C106.83,-30.6 130.49,-24.48 149.67,-19.52"/>
<polygon fill="midnightblue" stroke="midnightblue" points="85.4,-32.52 76.59,-38.41 87.15,-39.3 85.4,-32.52"/>
</g>
<!-- Node3 -->
<g id="node4" class="node">
<title>Node3</title>
<g id="a_node4"><a xlink:href="class_e_b_p_f_1_1_test_target.html" target="_top" xlink:title=" ">
<polygon fill="white" stroke="black" points="298,-57.5 298,-76.5 394,-76.5 394,-57.5 298,-57.5"/>
<text text-anchor="middle" x="346" y="-64.5" font-family="Helvetica,sans-Serif" font-size="10.00">EBPF::TestTarget</text>
</a>
</g>
</g>
<!-- Node2&#45;&gt;Node3 -->
<g id="edge3" class="edge">
<title>Node2&#45;&gt;Node3</title>
<path fill="none" stroke="midnightblue" d="M272.34,-58.18C281,-59.23 289.56,-60.27 297.61,-61.25"/>
<polygon fill="midnightblue" stroke="midnightblue" points="272.52,-54.67 262.17,-56.94 271.67,-61.62 272.52,-54.67"/>
</g>
<!-- Node4 -->
<g id="node5" class="node">
<title>Node4</title>
<g id="a_node5"><a xlink:href="class_e_b_p_f_1_1_xdp_target.html" target="_top" xlink:title=" ">
<polygon fill="white" stroke="black" points="298.5,-19.5 298.5,-38.5 393.5,-38.5 393.5,-19.5 298.5,-19.5"/>
<text text-anchor="middle" x="346" y="-26.5" font-family="Helvetica,sans-Serif" font-size="10.00">EBPF::XdpTarget</text>
</a>
</g>
</g>
<!-- Node2&#45;&gt;Node4 -->
<g id="edge4" class="edge">
<title>Node2&#45;&gt;Node4</title>
<path fill="none" stroke="midnightblue" d="M272.32,-37.82C281.3,-36.73 290.18,-35.66 298.49,-34.65"/>
<polygon fill="midnightblue" stroke="midnightblue" points="271.67,-34.38 262.17,-39.06 272.52,-41.33 271.67,-34.38"/>
</g>
</g>
</svg>
