<?xml version="1.0" encoding="UTF-8" standalone="no"?>
<!DOCTYPE svg PUBLIC "-//W3C//DTD SVG 1.1//EN"
 "http://www.w3.org/Graphics/SVG/1.1/DTD/svg11.dtd">
<!-- Generated by graphviz version 2.43.0 (0)
 -->
<!-- Title: Graphical Class Hierarchy Pages: 1 -->
<svg width="328pt" height="116pt"
 viewBox="0.00 0.00 328.00 115.50" xmlns="http://www.w3.org/2000/svg" xmlns:xlink="http://www.w3.org/1999/xlink">
<g id="graph0" class="graph" transform="scale(1 1) rotate(0) translate(4 111.5)">
<title>Graphical Class Hierarchy</title>
<polygon fill="white" stroke="transparent" points="-4,4 -4,-111.5 324,-111.5 324,4 -4,4"/>
<!-- Node0 -->
<g id="node1" class="node">
<title>Node0</title>
<g id="a_node1"><a xlink:href="class_util_1_1_enumerator.html" target="_top" xlink:title="Type&#45;erased Enumerator interface.">
<polygon fill="white" stroke="black" points="0,-50 0,-69 125,-69 125,-50 0,-50"/>
<text text-anchor="middle" x="62.5" y="-57" font-family="Helvetica,sans-Serif" font-size="10.00">Util::Enumerator&lt; T &gt;</text>
</a>
</g>
</g>
<!-- Node1 -->
<g id="node2" class="node">
<title>Node1</title>
<g id="a_node2"><a xlink:href="class_util_1_1_concat_enumerator.html" target="_top" xlink:title="Concatenation.">
<polygon fill="white" stroke="black" points="161,-88 161,-107 320,-107 320,-88 161,-88"/>
<text text-anchor="middle" x="240.5" y="-95" font-family="Helvetica,sans-Serif" font-size="10.00">Util::ConcatEnumerator&lt; T &gt;</text>
</a>
</g>
</g>
<!-- Node0&#45;&gt;Node1 -->
<g id="edge1" class="edge">
<title>Node0&#45;&gt;Node1</title>
<path fill="none" stroke="midnightblue" d="M117.93,-71.25C142.82,-76.63 171.92,-82.91 195.41,-87.98"/>
<polygon fill="midnightblue" stroke="midnightblue" points="118.43,-67.78 107.91,-69.09 116.95,-74.62 118.43,-67.78"/>
</g>
<!-- Node2 -->
<g id="node3" class="node">
<title>Node2</title>
<g id="a_node3"><a xlink:href="class_util_1_1_empty_enumerator.html" target="_top" xlink:title="Always empty iterator (equivalent to end())">
<polygon fill="white" stroke="black" points="162,-50 162,-69 319,-69 319,-50 162,-50"/>
<text text-anchor="middle" x="240.5" y="-57" font-family="Helvetica,sans-Serif" font-size="10.00">Util::EmptyEnumerator&lt; T &gt;</text>
</a>
</g>
</g>
<!-- Node0&#45;&gt;Node2 -->
<g id="edge2" class="edge">
<title>Node0&#45;&gt;Node2</title>
<path fill="none" stroke="midnightblue" d="M135.24,-59.5C144.02,-59.5 153.03,-59.5 161.89,-59.5"/>
<polygon fill="midnightblue" stroke="midnightblue" points="135.06,-56 125.06,-59.5 135.06,-63 135.06,-56"/>
</g>
<!-- Node3 -->
<g id="node4" class="node">
<title>Node3</title>
<g id="a_node4"><a xlink:href="class_util_1_1_filter_enumerator.html" target="_top" xlink:title=" ">
<polygon fill="white" stroke="black" points="179.5,-0.5 179.5,-30.5 301.5,-30.5 301.5,-0.5 179.5,-0.5"/>
<text text-anchor="start" x="187.5" y="-18.5" font-family="Helvetica,sans-Serif" font-size="10.00">Util::FilterEnumerator</text>
<text text-anchor="middle" x="240.5" y="-7.5" font-family="Helvetica,sans-Serif" font-size="10.00">&lt; T, Filter &gt;</text>
</a>
</g>
</g>
<!-- Node0&#45;&gt;Node3 -->
<g id="edge3" class="edge">
<title>Node0&#45;&gt;Node3</title>
<path fill="none" stroke="midnightblue" d="M111.6,-47.47C132.48,-42.25 157.16,-36.09 179.24,-30.57"/>
<polygon fill="midnightblue" stroke="midnightblue" points="110.54,-44.13 101.69,-49.95 112.24,-50.92 110.54,-44.13"/>
</g>
</g>
</svg>
