<?xml version="1.0" encoding="UTF-8" standalone="no"?>
<!DOCTYPE svg PUBLIC "-//W3C//DTD SVG 1.1//EN"
 "http://www.w3.org/Graphics/SVG/1.1/DTD/svg11.dtd">
<!-- Generated by graphviz version 2.43.0 (0)
 -->
<!-- Title: Graphical Class Hierarchy Pages: 1 -->
<svg width="328pt" height="113pt"
 viewBox="0.00 0.00 328.00 112.50" xmlns="http://www.w3.org/2000/svg" xmlns:xlink="http://www.w3.org/1999/xlink">
<g id="graph0" class="graph" transform="scale(1 1) rotate(0) translate(4 108.5)">
<title>Graphical Class Hierarchy</title>
<!-- Node0 -->
<g id="Node000000" class="node">
<title>Node0</title>
<g id="a_Node000000"><a xlink:href="class_util_1_1_enumerator.html" target="_top" xlink:title="Type&#45;erased Enumerator interface.">
<polygon fill="white" stroke="#666666" points="125,-67.5 0,-67.5 0,-48.5 125,-48.5 125,-67.5"/>
<text text-anchor="middle" x="62.5" y="-55.5" font-family="Helvetica,sans-Serif" font-size="10.00">Util::Enumerator&lt; T &gt;</text>
</a>
</g>
</g>
<!-- Node1 -->
<g id="Node000001" class="node">
<title>Node1</title>
<g id="a_Node000001"><a xlink:href="class_util_1_1_concat_enumerator.html" target="_top" xlink:title="Concatenation.">
<polygon fill="white" stroke="#666666" points="320,-104.5 161,-104.5 161,-85.5 320,-85.5 320,-104.5"/>
<text text-anchor="middle" x="240.5" y="-92.5" font-family="Helvetica,sans-Serif" font-size="10.00">Util::ConcatEnumerator&lt; T &gt;</text>
</a>
</g>
</g>
<!-- Node0&#45;&gt;Node1 -->
<g id="edge1072_Node000000_Node000001" class="edge">
<title>Node0&#45;&gt;Node1</title>
<g id="a_edge1072_Node000000_Node000001"><a xlink:title=" ">
<path fill="none" stroke="#63b8ff" d="M118.93,-69.65C143.1,-74.73 171.1,-80.62 194.02,-85.44"/>
<polygon fill="#63b8ff" stroke="#63b8ff" points="119.33,-66.16 108.82,-67.53 117.89,-73.01 119.33,-66.16"/>
</a>
</g>
</g>
<!-- Node2 -->
<g id="Node000002" class="node">
<title>Node2</title>
<g id="a_Node000002"><a xlink:href="class_util_1_1_empty_enumerator.html" target="_top" xlink:title="Always empty iterator (equivalent to end())">
<polygon fill="white" stroke="#666666" points="319,-67.5 162,-67.5 162,-48.5 319,-48.5 319,-67.5"/>
<text text-anchor="middle" x="240.5" y="-55.5" font-family="Helvetica,sans-Serif" font-size="10.00">Util::EmptyEnumerator&lt; T &gt;</text>
</a>
</g>
</g>
<!-- Node0&#45;&gt;Node2 -->
<g id="edge1073_Node000000_Node000002" class="edge">
<title>Node0&#45;&gt;Node2</title>
<g id="a_edge1073_Node000000_Node000002"><a xlink:title=" ">
<path fill="none" stroke="#63b8ff" d="M135.24,-58C144.02,-58 153.03,-58 161.89,-58"/>
<polygon fill="#63b8ff" stroke="#63b8ff" points="135.06,-54.5 125.06,-58 135.06,-61.5 135.06,-54.5"/>
</a>
</g>
</g>
<!-- Node3 -->
<g id="Node000003" class="node">
<title>Node3</title>
<g id="a_Node000003"><a xlink:href="class_util_1_1_filter_enumerator.html" target="_top" xlink:title=" ">
<polygon fill="white" stroke="#666666" points="301.5,-30 179.5,-30 179.5,0 301.5,0 301.5,-30"/>
<text text-anchor="start" x="187.5" y="-18" font-family="Helvetica,sans-Serif" font-size="10.00">Util::FilterEnumerator</text>
<text text-anchor="middle" x="240.5" y="-7" font-family="Helvetica,sans-Serif" font-size="10.00">&lt; T, Filter &gt;</text>
</a>
</g>
</g>
<!-- Node0&#45;&gt;Node3 -->
<g id="edge1074_Node000000_Node000003" class="edge">
<title>Node0&#45;&gt;Node3</title>
<g id="a_edge1074_Node000000_Node000003"><a xlink:title=" ">
<path fill="none" stroke="#63b8ff" d="M112.43,-46.04C133.2,-40.97 157.61,-35.01 179.45,-29.67"/>
<polygon fill="#63b8ff" stroke="#63b8ff" points="111.44,-42.68 102.56,-48.46 113.11,-49.48 111.44,-42.68"/>
</a>
</g>
</g>
</g>
</svg>
