<?xml version="1.0" encoding="UTF-8" standalone="no"?>
<!DOCTYPE svg PUBLIC "-//W3C//DTD SVG 1.1//EN"
 "http://www.w3.org/Graphics/SVG/1.1/DTD/svg11.dtd">
<!-- Generated by graphviz version 2.43.0 (0)
 -->
<!-- Title: Graphical Class Hierarchy Pages: 1 -->
<svg width="249pt" height="61pt"
 viewBox="0.00 0.00 249.00 61.00" xmlns="http://www.w3.org/2000/svg" xmlns:xlink="http://www.w3.org/1999/xlink">
<g id="graph0" class="graph" transform="scale(1 1) rotate(0) translate(4 57)">
<title>Graphical Class Hierarchy</title>
<polygon fill="white" stroke="transparent" points="-4,4 -4,-57 245,-57 245,4 -4,4"/>
<!-- Node879 -->
<g id="node1" class="node">
<title>Node879</title>
<g id="a_node1"><a xlink:title=" ">
<polygon fill="white" stroke="#bfbfbf" points="0,-17 0,-36 84,-36 84,-17 0,-17"/>
<text text-anchor="middle" x="42" y="-24" font-family="Helvetica,sans-Serif" font-size="10.00">std::true_type</text>
</a>
</g>
</g>
<!-- Node0 -->
<g id="node2" class="node">
<title>Node0</title>
<g id="a_node2"><a xlink:href="struct_i_r_1_1has__static__type__name_3_01_t_00_01std_1_1void__t_3_01decltype_07_t_1_1static__type__name_07_08_08_4_01_4.html" target="_top" xlink:title=" ">
<polygon fill="white" stroke="black" points="120,-0.5 120,-52.5 241,-52.5 241,-0.5 120,-0.5"/>
<text text-anchor="start" x="128" y="-40.5" font-family="Helvetica,sans-Serif" font-size="10.00">IR::has_static_type</text>
<text text-anchor="start" x="128" y="-29.5" font-family="Helvetica,sans-Serif" font-size="10.00">_name&lt; T, std::void</text>
<text text-anchor="start" x="128" y="-18.5" font-family="Helvetica,sans-Serif" font-size="10.00">_t&lt; decltype(T::static</text>
<text text-anchor="middle" x="180.5" y="-7.5" font-family="Helvetica,sans-Serif" font-size="10.00">_type_name())&gt; &gt;</text>
</a>
</g>
</g>
<!-- Node879&#45;&gt;Node0 -->
<g id="edge1" class="edge">
<title>Node879&#45;&gt;Node0</title>
<path fill="none" stroke="midnightblue" d="M94.58,-26.5C102.86,-26.5 111.49,-26.5 119.94,-26.5"/>
<polygon fill="midnightblue" stroke="midnightblue" points="94.32,-23 84.32,-26.5 94.32,-30 94.32,-23"/>
</g>
</g>
</svg>
