<?xml version="1.0" encoding="UTF-8" standalone="no"?>
<!DOCTYPE svg PUBLIC "-//W3C//DTD SVG 1.1//EN"
 "http://www.w3.org/Graphics/SVG/1.1/DTD/svg11.dtd">
<!-- Generated by graphviz version 2.43.0 (0)
 -->
<!-- Title: Graphical Class Hierarchy Pages: 1 -->
<svg width="402pt" height="101pt"
 viewBox="0.00 0.00 402.00 101.00" xmlns="http://www.w3.org/2000/svg" xmlns:xlink="http://www.w3.org/1999/xlink">
<g id="graph0" class="graph" transform="scale(1 1) rotate(0) translate(4 97)">
<title>Graphical Class Hierarchy</title>
<!-- Node0 -->
<g id="Node000000" class="node">
<title>Node0</title>
<g id="a_Node000000"><a xlink:href="class_e_b_p_f_1_1_target.html" target="_top" xlink:title=" ">
<polygon fill="white" stroke="#666666" points="77,-56 0,-56 0,-37 77,-37 77,-56"/>
<text text-anchor="middle" x="38.5" y="-44" font-family="Helvetica,sans-Serif" font-size="10.00">EBPF::Target</text>
</a>
</g>
</g>
<!-- Node1 -->
<g id="Node000001" class="node">
<title>Node1</title>
<g id="a_Node000001"><a xlink:href="class_e_b_p_f_1_1_bcc_target.html" target="_top" xlink:title=" ">
<polygon fill="white" stroke="#666666" points="234.5,-93 140.5,-93 140.5,-74 234.5,-74 234.5,-93"/>
<text text-anchor="middle" x="187.5" y="-81" font-family="Helvetica,sans-Serif" font-size="10.00">EBPF::BccTarget</text>
</a>
</g>
</g>
<!-- Node0&#45;&gt;Node1 -->
<g id="edge26_Node000000_Node000001" class="edge">
<title>Node0&#45;&gt;Node1</title>
<g id="a_edge26_Node000000_Node000001"><a xlink:title=" ">
<path fill="none" stroke="#63b8ff" d="M86.02,-58.62C94.97,-60.93 104.27,-63.3 113,-65.5 124.08,-68.29 136.12,-71.26 147.19,-73.97"/>
<polygon fill="#63b8ff" stroke="#63b8ff" points="86.67,-55.18 76.11,-56.06 84.92,-61.95 86.67,-55.18"/>
</a>
</g>
</g>
<!-- Node2 -->
<g id="Node000002" class="node">
<title>Node2</title>
<g id="a_Node000002"><a xlink:href="class_e_b_p_f_1_1_kernel_samples_target.html" target="_top" xlink:title=" ">
<polygon fill="white" stroke="#666666" points="262,-56 113,-56 113,-37 262,-37 262,-56"/>
<text text-anchor="middle" x="187.5" y="-44" font-family="Helvetica,sans-Serif" font-size="10.00">EBPF::KernelSamplesTarget</text>
</a>
</g>
</g>
<!-- Node0&#45;&gt;Node2 -->
<g id="edge27_Node000000_Node000002" class="edge">
<title>Node0&#45;&gt;Node2</title>
<g id="a_edge27_Node000000_Node000002"><a xlink:title=" ">
<path fill="none" stroke="#63b8ff" d="M87.38,-46.5C95.53,-46.5 104.15,-46.5 112.78,-46.5"/>
<polygon fill="#63b8ff" stroke="#63b8ff" points="87.36,-43 77.36,-46.5 87.36,-50 87.36,-43"/>
</a>
</g>
</g>
<!-- Node5 -->
<g id="Node000005" class="node">
<title>Node5</title>
<g id="a_Node000005"><a xlink:href="class_u_b_p_f_1_1_ubpf_target.html" target="_top" xlink:title=" ">
<polygon fill="white" stroke="#666666" points="238,-19 137,-19 137,0 238,0 238,-19"/>
<text text-anchor="middle" x="187.5" y="-7" font-family="Helvetica,sans-Serif" font-size="10.00">UBPF::UbpfTarget</text>
</a>
</g>
</g>
<!-- Node0&#45;&gt;Node5 -->
<g id="edge30_Node000000_Node000005" class="edge">
<title>Node0&#45;&gt;Node5</title>
<g id="a_edge30_Node000000_Node000005"><a xlink:title=" ">
<path fill="none" stroke="#63b8ff" d="M87.15,-34.51C107.03,-29.5 129.8,-23.77 148.52,-19.06"/>
<polygon fill="#63b8ff" stroke="#63b8ff" points="86.2,-31.14 77.36,-36.97 87.91,-37.92 86.2,-31.14"/>
</a>
</g>
</g>
<!-- Node3 -->
<g id="Node000003" class="node">
<title>Node3</title>
<g id="a_Node000003"><a xlink:href="class_e_b_p_f_1_1_test_target.html" target="_top" xlink:title=" ">
<polygon fill="white" stroke="#666666" points="394,-74 298,-74 298,-55 394,-55 394,-74"/>
<text text-anchor="middle" x="346" y="-62" font-family="Helvetica,sans-Serif" font-size="10.00">EBPF::TestTarget</text>
</a>
</g>
</g>
<!-- Node2&#45;&gt;Node3 -->
<g id="edge28_Node000002_Node000003" class="edge">
<title>Node2&#45;&gt;Node3</title>
<g id="a_edge28_Node000002_Node000003"><a xlink:title=" ">
<path fill="none" stroke="#63b8ff" d="M272.34,-56.14C281,-57.14 289.56,-58.12 297.61,-59.05"/>
<polygon fill="#63b8ff" stroke="#63b8ff" points="272.5,-52.64 262.17,-54.97 271.7,-59.59 272.5,-52.64"/>
</a>
</g>
</g>
<!-- Node4 -->
<g id="Node000004" class="node">
<title>Node4</title>
<g id="a_Node000004"><a xlink:href="class_e_b_p_f_1_1_xdp_target.html" target="_top" xlink:title=" ">
<polygon fill="white" stroke="#666666" points="393.5,-37 298.5,-37 298.5,-18 393.5,-18 393.5,-37"/>
<text text-anchor="middle" x="346" y="-25" font-family="Helvetica,sans-Serif" font-size="10.00">EBPF::XdpTarget</text>
</a>
</g>
</g>
<!-- Node2&#45;&gt;Node4 -->
<g id="edge29_Node000002_Node000004" class="edge">
<title>Node2&#45;&gt;Node4</title>
<g id="a_edge29_Node000002_Node000004"><a xlink:title=" ">
<path fill="none" stroke="#63b8ff" d="M272.32,-36.32C281.3,-35.23 290.18,-34.16 298.49,-33.15"/>
<polygon fill="#63b8ff" stroke="#63b8ff" points="271.67,-32.88 262.17,-37.56 272.52,-39.83 271.67,-32.88"/>
</a>
</g>
</g>
</g>
</svg>
