<?xml version="1.0" encoding="UTF-8" standalone="no"?>
<!DOCTYPE svg PUBLIC "-//W3C//DTD SVG 1.1//EN"
 "http://www.w3.org/Graphics/SVG/1.1/DTD/svg11.dtd">
<!-- Generated by graphviz version 2.43.0 (0)
 -->
<!-- Title: P4::CallGraph&lt; T &gt;::sccInfo Pages: 1 -->
<svg width="246pt" height="184pt"
 viewBox="0.00 0.00 245.50 184.00" xmlns="http://www.w3.org/2000/svg" xmlns:xlink="http://www.w3.org/1999/xlink">
<g id="graph0" class="graph" transform="scale(1 1) rotate(0) translate(4 180)">
<title>P4::CallGraph&lt; T &gt;::sccInfo</title>
<polygon fill="white" stroke="transparent" points="-4,4 -4,-180 241.5,-180 241.5,4 -4,4"/>
<!-- Node1 -->
<g id="node1" class="node">
<title>Node1</title>
<g id="a_node1"><a xlink:title=" ">
<polygon fill="#bfbfbf" stroke="black" points="76.5,-0.5 76.5,-30.5 187.5,-30.5 187.5,-0.5 76.5,-0.5"/>
<text text-anchor="start" x="84.5" y="-18.5" font-family="Helvetica,sans-Serif" font-size="10.00">P4::CallGraph&lt; T &gt;</text>
<text text-anchor="middle" x="132" y="-7.5" font-family="Helvetica,sans-Serif" font-size="10.00">::sccInfo</text>
</a>
</g>
</g>
<!-- Node2 -->
<g id="node2" class="node">
<title>Node2</title>
<g id="a_node2"><a xlink:title=" ">
<polygon fill="white" stroke="#bfbfbf" points="0,-89.5 0,-108.5 138,-108.5 138,-89.5 0,-89.5"/>
<text text-anchor="middle" x="69" y="-96.5" font-family="Helvetica,sans-Serif" font-size="10.00">std::map&lt; T, unsigned &gt;</text>
</a>
</g>
</g>
<!-- Node2&#45;&gt;Node1 -->
<g id="edge1" class="edge">
<title>Node2&#45;&gt;Node1</title>
<path fill="none" stroke="#9a32cd" stroke-dasharray="5,2" d="M82.18,-80.95C93.72,-66.01 110.3,-44.58 121.1,-30.6"/>
<polygon fill="#9a32cd" stroke="#9a32cd" points="79.09,-79.23 75.74,-89.28 84.63,-83.51 79.09,-79.23"/>
<text text-anchor="middle" x="125" y="-63" font-family="Helvetica,sans-Serif" font-size="10.00"> index</text>
<text text-anchor="middle" x="125" y="-52" font-family="Helvetica,sans-Serif" font-size="10.00">lowlink</text>
</g>
<!-- Node3 -->
<g id="node3" class="node">
<title>Node3</title>
<g id="a_node3"><a xlink:title=" ">
<polygon fill="white" stroke="#bfbfbf" points="117.5,-156.5 117.5,-175.5 146.5,-175.5 146.5,-156.5 117.5,-156.5"/>
<text text-anchor="middle" x="132" y="-163.5" font-family="Helvetica,sans-Serif" font-size="10.00">T</text>
</a>
</g>
</g>
<!-- Node3&#45;&gt;Node2 -->
<g id="edge2" class="edge">
<title>Node3&#45;&gt;Node2</title>
<path fill="none" stroke="#9a32cd" stroke-dasharray="5,2" d="M116.49,-149C104.13,-136.25 87.31,-118.89 77.36,-108.63"/>
<polygon fill="#9a32cd" stroke="#9a32cd" points="114.03,-151.49 123.5,-156.23 119.06,-146.62 114.03,-151.49"/>
<text text-anchor="middle" x="118" y="-130" font-family="Helvetica,sans-Serif" font-size="10.00"> keys</text>
</g>
<!-- Node4 -->
<g id="node4" class="node">
<title>Node4</title>
<g id="a_node4"><a xlink:title=" ">
<polygon fill="white" stroke="#bfbfbf" points="156.5,-89.5 156.5,-108.5 237.5,-108.5 237.5,-89.5 156.5,-89.5"/>
<text text-anchor="middle" x="197" y="-96.5" font-family="Helvetica,sans-Serif" font-size="10.00">std::set&lt; T &gt;</text>
</a>
</g>
</g>
<!-- Node3&#45;&gt;Node4 -->
<g id="edge4" class="edge">
<title>Node3&#45;&gt;Node4</title>
<path fill="none" stroke="#9a32cd" stroke-dasharray="5,2" d="M148,-149C160.75,-136.25 178.11,-118.89 188.37,-108.63"/>
<polygon fill="#9a32cd" stroke="#9a32cd" points="145.36,-146.69 140.77,-156.23 150.31,-151.64 145.36,-146.69"/>
<text text-anchor="middle" x="182" y="-130" font-family="Helvetica,sans-Serif" font-size="10.00"> keys</text>
</g>
<!-- Node4&#45;&gt;Node1 -->
<g id="edge3" class="edge">
<title>Node4&#45;&gt;Node1</title>
<path fill="none" stroke="#9a32cd" stroke-dasharray="5,2" d="M183.73,-81.37C171.81,-66.42 154.5,-44.71 143.24,-30.6"/>
<polygon fill="#9a32cd" stroke="#9a32cd" points="181.07,-83.64 190.04,-89.28 186.54,-79.28 181.07,-83.64"/>
<text text-anchor="middle" x="196.5" y="-57.5" font-family="Helvetica,sans-Serif" font-size="10.00"> onStack</text>
</g>
</g>
</svg>
