<?xml version="1.0" encoding="UTF-8" standalone="no"?>
<!DOCTYPE svg PUBLIC "-//W3C//DTD SVG 1.1//EN"
 "http://www.w3.org/Graphics/SVG/1.1/DTD/svg11.dtd">
<!-- Generated by graphviz version 2.43.0 (0)
 -->
<!-- Title: P4V1::DirectCounter_Model Pages: 1 -->
<!--zoomable 467 -->
<svg id="main" version="1.1" xmlns="http://www.w3.org/2000/svg" xmlns:xlink="http://www.w3.org/1999/xlink" xml:space="preserve" onload="init(evt)">
<style type="text/css"><![CDATA[
.edge:hover path { stroke: red; }
.edge:hover polygon { stroke: red; fill: red; }
]]></style>
<script type="text/javascript"><![CDATA[
var edges = document.getElementsByTagName('g');
if (edges && edges.length) {
  for (var i=0;i<edges.length;i++) {
    if (edges[i].id.substr(0,4)=='edge') {
      edges[i].setAttribute('class','edge');
    }
  }
}
]]></script>
        <defs>
                <circle id="rim" cx="0" cy="0" r="7"/>
                <circle id="rim2" cx="0" cy="0" r="3.5"/>
                <g id="zoomPlus">
                        <use xlink:href="#rim" fill="#404040">
                                <set attributeName="fill" to="#808080" begin="zoomplus.mouseover" end="zoomplus.mouseout"/>
                        </use>
                        <path d="M-4,0h8M0,-4v8" fill="none" stroke="white" stroke-width="1.5" pointer-events="none"/>
                </g>
                <g id="zoomMin">
                        <use xlink:href="#rim" fill="#404040">
                                <set attributeName="fill" to="#808080" begin="zoomminus.mouseover" end="zoomminus.mouseout"/>
                        </use>
                        <path d="M-4,0h8" fill="none" stroke="white" stroke-width="1.5" pointer-events="none"/>
                </g>
                <g id="dirArrow">
                        <path fill="none" stroke="white" stroke-width="1.5" d="M0,-3.0v7 M-2.5,-0.5L0,-3.0L2.5,-0.5"/>
                </g>
               <g id="resetDef">
                       <use xlink:href="#rim2" fill="#404040">
                               <set attributeName="fill" to="#808080" begin="reset.mouseover" end="reset.mouseout"/>
                       </use>
               </g>
        </defs>

<script type="text/javascript">
var viewWidth = 486;
var viewHeight = 467;
var sectionId = 'dynsection-1';
</script>
<script xlink:href="svgpan.js"/>
<svg id="graph" class="graph">
<g id="viewport">
<title>P4V1::DirectCounter_Model</title>
<polygon fill="white" stroke="transparent" points="-4,4 -4,-463 481.5,-463 481.5,4 -4,4"/>
<!-- Node1 -->
<g id="node1" class="node">
<title>Node1</title>
<g id="a_node1"><a xlink:title=" ">
<polygon fill="#bfbfbf" stroke="black" points="329,-0.5 329,-30.5 444,-30.5 444,-0.5 329,-0.5"/>
<text text-anchor="start" x="337" y="-18.5" font-family="Helvetica,sans-Serif" font-size="10.00">P4V1::DirectCounter</text>
<text text-anchor="middle" x="386.5" y="-7.5" font-family="Helvetica,sans-Serif" font-size="10.00">_Model</text>
</a>
</g>
</g>
<!-- Node2 -->
<g id="node2" class="node">
<title>Node2</title>
<g id="a_node2"><a xlink:href="struct_p4_v1_1_1_counter_or_meter___model.html" target="_top" xlink:title=" ">
<polygon fill="white" stroke="black" points="261,-68.5 261,-98.5 386,-98.5 386,-68.5 261,-68.5"/>
<text text-anchor="start" x="269" y="-86.5" font-family="Helvetica,sans-Serif" font-size="10.00">P4V1::CounterOrMeter</text>
<text text-anchor="middle" x="323.5" y="-75.5" font-family="Helvetica,sans-Serif" font-size="10.00">_Model</text>
</a>
</g>
</g>
<!-- Node2&#45;&gt;Node1 -->
<g id="edge1" class="edge">
<title>Node2&#45;&gt;Node1</title>
<path fill="none" stroke="midnightblue" d="M344.31,-60.69C353.7,-50.86 364.52,-39.52 372.86,-30.79"/>
<polygon fill="midnightblue" stroke="midnightblue" points="341.54,-58.53 337.17,-68.18 346.61,-63.36 341.54,-58.53"/>
</g>
<!-- Node3 -->
<g id="node3" class="node">
<title>Node3</title>
<g id="a_node3"><a xlink:href="struct_model_1_1_extern___model.html" target="_top" xlink:title="Extern_Model : Type_Model.">
<polygon fill="white" stroke="black" points="230,-184.5 230,-203.5 349,-203.5 349,-184.5 230,-184.5"/>
<text text-anchor="middle" x="289.5" y="-191.5" font-family="Helvetica,sans-Serif" font-size="10.00">Model::Extern_Model</text>
</a>
</g>
</g>
<!-- Node3&#45;&gt;Node2 -->
<g id="edge2" class="edge">
<title>Node3&#45;&gt;Node2</title>
<path fill="none" stroke="midnightblue" d="M300.23,-175.33C301.81,-172.29 303.3,-169.1 304.5,-166 313.28,-143.23 318.72,-115.24 321.42,-98.7"/>
<polygon fill="midnightblue" stroke="midnightblue" points="297.03,-173.88 295.15,-184.3 303.12,-177.32 297.03,-173.88"/>
</g>
<!-- Node4 -->
<g id="node4" class="node">
<title>Node4</title>
<g id="a_node4"><a xlink:href="struct_model_1_1_type___model.html" target="_top" xlink:title=" ">
<polygon fill="white" stroke="black" points="210.5,-313.5 210.5,-332.5 320.5,-332.5 320.5,-313.5 210.5,-313.5"/>
<text text-anchor="middle" x="265.5" y="-320.5" font-family="Helvetica,sans-Serif" font-size="10.00">Model::Type_Model</text>
</a>
</g>
</g>
<!-- Node4&#45;&gt;Node3 -->
<g id="edge3" class="edge">
<title>Node4&#45;&gt;Node3</title>
<path fill="none" stroke="midnightblue" d="M271.19,-303.49C275.79,-287.8 282.04,-264.64 285.5,-244 287.84,-230.03 288.83,-213.57 289.23,-203.73"/>
<polygon fill="midnightblue" stroke="midnightblue" points="267.73,-302.86 268.2,-313.45 274.43,-304.87 267.73,-302.86"/>
</g>
<!-- Node8 -->
<g id="node8" class="node">
<title>Node8</title>
<g id="a_node8"><a xlink:href="struct_model_1_1_enum___model.html" target="_top" xlink:title="Enum_Model : Type_Model.">
<polygon fill="white" stroke="black" points="160.5,-223.5 160.5,-242.5 276.5,-242.5 276.5,-223.5 160.5,-223.5"/>
<text text-anchor="middle" x="218.5" y="-230.5" font-family="Helvetica,sans-Serif" font-size="10.00">Model::Enum_Model</text>
</a>
</g>
</g>
<!-- Node4&#45;&gt;Node8 -->
<g id="edge9" class="edge">
<title>Node4&#45;&gt;Node8</title>
<path fill="none" stroke="midnightblue" d="M256.04,-304.28C246.07,-285.62 230.78,-257 223.16,-242.72"/>
<polygon fill="midnightblue" stroke="midnightblue" points="253.02,-306.07 260.82,-313.24 259.2,-302.77 253.02,-306.07"/>
</g>
<!-- Node5 -->
<g id="node5" class="node">
<title>Node5</title>
<g id="a_node5"><a xlink:href="struct_model_1_1_elem.html" target="_top" xlink:title=" ">
<polygon fill="white" stroke="black" points="227,-370.5 227,-389.5 304,-389.5 304,-370.5 227,-370.5"/>
<text text-anchor="middle" x="265.5" y="-377.5" font-family="Helvetica,sans-Serif" font-size="10.00">Model::Elem</text>
</a>
</g>
</g>
<!-- Node5&#45;&gt;Node1 -->
<g id="edge15" class="edge">
<title>Node5&#45;&gt;Node1</title>
<path fill="none" stroke="#9a32cd" stroke-dasharray="5,2" d="M314.36,-373.83C367.96,-366.77 446.5,-351.69 446.5,-324 446.5,-324 446.5,-324 446.5,-82.5 446.5,-60.2 427.52,-42.11 410.9,-30.54"/>
<polygon fill="#9a32cd" stroke="#9a32cd" points="313.81,-370.37 304.33,-375.1 314.69,-377.32 313.81,-370.37"/>
<text text-anchor="middle" x="462" y="-191.5" font-family="Helvetica,sans-Serif" font-size="10.00"> count</text>
</g>
<!-- Node5&#45;&gt;Node2 -->
<g id="edge11" class="edge">
<title>Node5&#45;&gt;Node2</title>
<path fill="none" stroke="#9a32cd" stroke-dasharray="5,2" d="M313.97,-370.68C339.06,-363.3 364.5,-349.52 364.5,-324 364.5,-324 364.5,-324 364.5,-155 364.5,-133.05 349.47,-111.84 337.61,-98.51"/>
<polygon fill="#9a32cd" stroke="#9a32cd" points="312.84,-367.36 304.06,-373.3 314.62,-374.13 312.84,-367.36"/>
<text text-anchor="middle" x="391.5" y="-236" font-family="Helvetica,sans-Serif" font-size="10.00"> sizeParam</text>
<text text-anchor="middle" x="391.5" y="-225" font-family="Helvetica,sans-Serif" font-size="10.00">typeParam</text>
</g>
<!-- Node5&#45;&gt;Node4 -->
<g id="edge4" class="edge">
<title>Node5&#45;&gt;Node4</title>
<path fill="none" stroke="midnightblue" d="M265.5,-360.12C265.5,-350.82 265.5,-340.06 265.5,-332.71"/>
<polygon fill="midnightblue" stroke="midnightblue" points="262,-360.41 265.5,-370.41 269,-360.41 262,-360.41"/>
</g>
<!-- Node7 -->
<g id="node7" class="node">
<title>Node7</title>
<g id="a_node7"><a xlink:href="struct_p4_v1_1_1_counter_type___model.html" target="_top" xlink:title=" ">
<polygon fill="white" stroke="black" points="0,-146.5 0,-165.5 143,-165.5 143,-146.5 0,-146.5"/>
<text text-anchor="middle" x="71.5" y="-153.5" font-family="Helvetica,sans-Serif" font-size="10.00">P4V1::CounterType_Model</text>
</a>
</g>
</g>
<!-- Node5&#45;&gt;Node7 -->
<g id="edge10" class="edge">
<title>Node5&#45;&gt;Node7</title>
<path fill="none" stroke="#9a32cd" stroke-dasharray="5,2" d="M227.5,-367C193.42,-354.34 144.45,-331.15 115.5,-295 82.96,-254.37 74.28,-189.22 72.14,-165.77"/>
<polygon fill="#9a32cd" stroke="#9a32cd" points="226.53,-370.37 237.13,-370.44 228.89,-363.78 226.53,-370.37"/>
<text text-anchor="middle" x="134.5" y="-287" font-family="Helvetica,sans-Serif" font-size="10.00"> both</text>
<text text-anchor="middle" x="134.5" y="-276" font-family="Helvetica,sans-Serif" font-size="10.00">bytes</text>
<text text-anchor="middle" x="134.5" y="-265" font-family="Helvetica,sans-Serif" font-size="10.00">packets</text>
</g>
<!-- Node9 -->
<g id="node9" class="node">
<title>Node9</title>
<g id="a_node9"><a xlink:href="struct_p4_v1_1_1_meter_type___model.html" target="_top" xlink:title=" ">
<polygon fill="white" stroke="black" points="161.5,-146.5 161.5,-165.5 295.5,-165.5 295.5,-146.5 161.5,-146.5"/>
<text text-anchor="middle" x="228.5" y="-153.5" font-family="Helvetica,sans-Serif" font-size="10.00">P4V1::MeterType_Model</text>
</a>
</g>
</g>
<!-- Node5&#45;&gt;Node9 -->
<g id="edge14" class="edge">
<title>Node5&#45;&gt;Node9</title>
<path fill="none" stroke="#9a32cd" stroke-dasharray="5,2" d="M241,-364.99C228.16,-356.82 212.8,-345.64 201.5,-333 171.25,-299.18 162.99,-287.89 151.5,-244 149.02,-234.54 147.38,-230.87 151.5,-222 163.73,-195.66 192.48,-176.15 211.18,-165.69"/>
<polygon fill="#9a32cd" stroke="#9a32cd" points="239.45,-368.15 249.81,-370.39 243.11,-362.18 239.45,-368.15"/>
<text text-anchor="middle" x="190.5" y="-281.5" font-family="Helvetica,sans-Serif" font-size="10.00"> bytes</text>
<text text-anchor="middle" x="190.5" y="-270.5" font-family="Helvetica,sans-Serif" font-size="10.00">packets</text>
</g>
<!-- Node6 -->
<g id="node6" class="node">
<title>Node6</title>
<g id="a_node6"><a xlink:href="classcstring.html" target="_top" xlink:title=" ">
<polygon fill="white" stroke="black" points="240.5,-438.5 240.5,-457.5 290.5,-457.5 290.5,-438.5 240.5,-438.5"/>
<text text-anchor="middle" x="265.5" y="-445.5" font-family="Helvetica,sans-Serif" font-size="10.00">cstring</text>
</a>
</g>
</g>
<!-- Node6&#45;&gt;Node5 -->
<g id="edge5" class="edge">
<title>Node6&#45;&gt;Node5</title>
<path fill="none" stroke="#9a32cd" stroke-dasharray="5,2" d="M265.5,-428.04C265.5,-415.47 265.5,-399.56 265.5,-389.84"/>
<polygon fill="#9a32cd" stroke="#9a32cd" points="262,-428.37 265.5,-438.37 269,-428.37 262,-428.37"/>
<text text-anchor="middle" x="281" y="-411" font-family="Helvetica,sans-Serif" font-size="10.00"> name</text>
</g>
<!-- Node6&#45;&gt;Node6 -->
<g id="edge6" class="edge">
<title>Node6&#45;&gt;Node6</title>
<path fill="none" stroke="#9a32cd" stroke-dasharray="5,2" d="M300.95,-453.58C305.5,-452.61 308.5,-450.75 308.5,-448 308.5,-443.48 300.41,-441.37 290.68,-441.65"/>
<polygon fill="#9a32cd" stroke="#9a32cd" points="300.39,-450.11 290.68,-454.35 300.91,-457.1 300.39,-450.11"/>
<text text-anchor="middle" x="328" y="-451" font-family="Helvetica,sans-Serif" font-size="10.00"> empty</text>
<text text-anchor="middle" x="328" y="-440" font-family="Helvetica,sans-Serif" font-size="10.00">newline</text>
</g>
<!-- Node7&#45;&gt;Node2 -->
<g id="edge7" class="edge">
<title>Node7&#45;&gt;Node2</title>
<path fill="none" stroke="#9a32cd" stroke-dasharray="5,2" d="M102.83,-142.75C123.98,-134.75 152.67,-124.45 178.5,-117 205.27,-109.28 235.26,-102.29 260.99,-96.78"/>
<polygon fill="#9a32cd" stroke="#9a32cd" points="101.47,-139.52 93.38,-146.35 103.97,-146.06 101.47,-139.52"/>
<text text-anchor="middle" x="210" y="-120" font-family="Helvetica,sans-Serif" font-size="10.00"> counterType</text>
</g>
<!-- Node8&#45;&gt;Node7 -->
<g id="edge8" class="edge">
<title>Node8&#45;&gt;Node7</title>
<path fill="none" stroke="midnightblue" d="M192.57,-218.77C162.44,-203.4 113.63,-178.5 88.17,-165.5"/>
<polygon fill="midnightblue" stroke="midnightblue" points="191.14,-221.97 201.64,-223.4 194.32,-215.73 191.14,-221.97"/>
</g>
<!-- Node8&#45;&gt;Node9 -->
<g id="edge13" class="edge">
<title>Node8&#45;&gt;Node9</title>
<path fill="none" stroke="midnightblue" d="M220.97,-213.47C223.01,-198.15 225.82,-177.09 227.37,-165.5"/>
<polygon fill="midnightblue" stroke="midnightblue" points="217.5,-213.02 219.65,-223.4 224.44,-213.95 217.5,-213.02"/>
</g>
<!-- Node9&#45;&gt;Node2 -->
<g id="edge12" class="edge">
<title>Node9&#45;&gt;Node2</title>
<path fill="none" stroke="#9a32cd" stroke-dasharray="5,2" d="M237.69,-137.58C242.06,-130.52 247.81,-122.7 254.5,-117 263.27,-109.53 274.05,-103.38 284.46,-98.52"/>
<polygon fill="#9a32cd" stroke="#9a32cd" points="234.53,-136.05 232.62,-146.48 240.61,-139.52 234.53,-136.05"/>
<text text-anchor="middle" x="282" y="-120" font-family="Helvetica,sans-Serif" font-size="10.00"> meterType</text>
</g>
</g>
</svg>
        <g id="navigator" transform="translate(0 0)" fill="#404254">
                <rect fill="#f2f5e9" fill-opacity="0.5" stroke="#606060" stroke-width=".5" x="0" y="0" width="60" height="60"/>
                <use id="zoomplus" xlink:href="#zoomPlus" x="17" y="9" onmousedown="handleZoom(evt,'in')"/>
                <use id="zoomminus" xlink:href="#zoomMin" x="42" y="9" onmousedown="handleZoom(evt,'out')"/>
                <use id="reset" xlink:href="#resetDef" x="30" y="36" onmousedown="handleReset()"/>
                <g id="arrowUp" xlink:href="#dirArrow" transform="translate(30 24)" onmousedown="handlePan(0,-1)">
                  <use xlink:href="#rim" fill="#404040">
                        <set attributeName="fill" to="#808080" begin="arrowUp.mouseover" end="arrowUp.mouseout"/>
                  </use>
                  <path fill="none" stroke="white" stroke-width="1.5" d="M0,-3.0v7 M-2.5,-0.5L0,-3.0L2.5,-0.5"/>
                </g>
                <g id="arrowRight" xlink:href="#dirArrow" transform="rotate(90) translate(36 -43)" onmousedown="handlePan(1,0)">
                  <use xlink:href="#rim" fill="#404040">
                        <set attributeName="fill" to="#808080" begin="arrowRight.mouseover" end="arrowRight.mouseout"/>
                  </use>
                  <path fill="none" stroke="white" stroke-width="1.5" d="M0,-3.0v7 M-2.5,-0.5L0,-3.0L2.5,-0.5"/>
                </g>
                <g id="arrowDown" xlink:href="#dirArrow" transform="rotate(180) translate(-30 -48)" onmousedown="handlePan(0,1)">
                  <use xlink:href="#rim" fill="#404040">
                        <set attributeName="fill" to="#808080" begin="arrowDown.mouseover" end="arrowDown.mouseout"/>
                  </use>
                  <path fill="none" stroke="white" stroke-width="1.5" d="M0,-3.0v7 M-2.5,-0.5L0,-3.0L2.5,-0.5"/>
                </g>
                <g id="arrowLeft" xlink:href="#dirArrow" transform="rotate(270) translate(-36 17)" onmousedown="handlePan(-1,0)">
                  <use xlink:href="#rim" fill="#404040">
                        <set attributeName="fill" to="#808080" begin="arrowLeft.mouseover" end="arrowLeft.mouseout"/>
                  </use>
                  <path fill="none" stroke="white" stroke-width="1.5" d="M0,-3.0v7 M-2.5,-0.5L0,-3.0L2.5,-0.5"/>
                </g>
        </g>
        <svg viewBox="0 0 15 15" width="100%" height="30px" preserveAspectRatio="xMaxYMin meet">
         <g id="arrow_out" transform="scale(0.3 0.3)">
          <a xlink:href="struct_p4_v1_1_1_direct_counter___model__coll__graph_org.svg" target="_base">
           <rect id="button" ry="5" rx="5" y="6" x="6" height="38" width="38"
                fill="#f2f5e9" fill-opacity="0.5" stroke="#606060" stroke-width="1.0"/>
           <path id="arrow"
             d="M 11.500037,31.436501 C 11.940474,20.09759 22.043105,11.32322 32.158766,21.979434 L 37.068811,17.246167 C 37.068811,17.246167 37.088388,32 37.088388,32 L 22.160133,31.978069 C 22.160133,31.978069 26.997745,27.140456 26.997745,27.140456 C 18.528582,18.264221 13.291696,25.230495 11.500037,31.436501 z"
             style="fill:#404040;"/>
          </a>
         </g>
        </svg>
</svg>
