<?xml version="1.0" encoding="UTF-8" standalone="no"?>
<!DOCTYPE svg PUBLIC "-//W3C//DTD SVG 1.1//EN"
 "http://www.w3.org/Graphics/SVG/1.1/DTD/svg11.dtd">
<!-- Generated by graphviz version 2.43.0 (0)
 -->
<!-- Title: P4V1::ActionSelector_Model Pages: 1 -->
<svg width="207pt" height="300pt"
 viewBox="0.00 0.00 206.50 300.00" xmlns="http://www.w3.org/2000/svg" xmlns:xlink="http://www.w3.org/1999/xlink">
<g id="graph0" class="graph" transform="scale(1 1) rotate(0) translate(4 296)">
<title>P4V1::ActionSelector_Model</title>
<polygon fill="white" stroke="transparent" points="-4,4 -4,-296 202.5,-296 202.5,4 -4,4"/>
<!-- Node1 -->
<g id="node1" class="node">
<title>Node1</title>
<g id="a_node1"><a xlink:title=" ">
<polygon fill="#bfbfbf" stroke="black" points="0,-0.5 0,-30.5 118,-30.5 118,-0.5 0,-0.5"/>
<text text-anchor="start" x="8" y="-18.5" font-family="Helvetica,sans-Serif" font-size="10.00">P4V1::ActionSelector</text>
<text text-anchor="middle" x="59" y="-7.5" font-family="Helvetica,sans-Serif" font-size="10.00">_Model</text>
</a>
</g>
</g>
<!-- Node2 -->
<g id="node2" class="node">
<title>Node2</title>
<g id="a_node2"><a xlink:href="struct_model_1_1_extern___model.html" target="_top" xlink:title="Extern_Model : Type_Model.">
<polygon fill="white" stroke="black" points="79.5,-68.5 79.5,-87.5 198.5,-87.5 198.5,-68.5 79.5,-68.5"/>
<text text-anchor="middle" x="139" y="-75.5" font-family="Helvetica,sans-Serif" font-size="10.00">Model::Extern_Model</text>
</a>
</g>
</g>
<!-- Node2&#45;&gt;Node1 -->
<g id="edge1" class="edge">
<title>Node2&#45;&gt;Node1</title>
<path fill="none" stroke="midnightblue" d="M119.4,-62.18C106.64,-52.53 90.09,-40.01 77.55,-30.53"/>
<polygon fill="midnightblue" stroke="midnightblue" points="117.45,-65.09 127.54,-68.33 121.67,-59.51 117.45,-65.09"/>
</g>
<!-- Node3 -->
<g id="node3" class="node">
<title>Node3</title>
<g id="a_node3"><a xlink:href="struct_model_1_1_type___model.html" target="_top" xlink:title=" ">
<polygon fill="white" stroke="black" points="82,-146.5 82,-165.5 192,-165.5 192,-146.5 82,-146.5"/>
<text text-anchor="middle" x="137" y="-153.5" font-family="Helvetica,sans-Serif" font-size="10.00">Model::Type_Model</text>
</a>
</g>
</g>
<!-- Node3&#45;&gt;Node2 -->
<g id="edge2" class="edge">
<title>Node3&#45;&gt;Node2</title>
<path fill="none" stroke="midnightblue" d="M137.49,-136.22C137.9,-120.7 138.46,-99.36 138.77,-87.62"/>
<polygon fill="midnightblue" stroke="midnightblue" points="133.99,-136.19 137.23,-146.28 140.99,-136.38 133.99,-136.19"/>
</g>
<!-- Node4 -->
<g id="node4" class="node">
<title>Node4</title>
<g id="a_node4"><a xlink:href="struct_model_1_1_elem.html" target="_top" xlink:title=" ">
<polygon fill="white" stroke="black" points="20.5,-203.5 20.5,-222.5 97.5,-222.5 97.5,-203.5 20.5,-203.5"/>
<text text-anchor="middle" x="59" y="-210.5" font-family="Helvetica,sans-Serif" font-size="10.00">Model::Elem</text>
</a>
</g>
</g>
<!-- Node4&#45;&gt;Node1 -->
<g id="edge6" class="edge">
<title>Node4&#45;&gt;Node1</title>
<path fill="none" stroke="#9a32cd" stroke-dasharray="5,2" d="M56.66,-192.94C54.7,-175.94 52.06,-150.35 51,-128 49.33,-92.91 54.02,-51.7 56.91,-30.57"/>
<polygon fill="#9a32cd" stroke="#9a32cd" points="53.23,-193.67 57.88,-203.19 60.18,-192.85 53.23,-193.67"/>
<text text-anchor="middle" x="92" y="-120" font-family="Helvetica,sans-Serif" font-size="10.00"> algorithmParam</text>
<text text-anchor="middle" x="92" y="-109" font-family="Helvetica,sans-Serif" font-size="10.00">sizeParam</text>
</g>
<!-- Node4&#45;&gt;Node3 -->
<g id="edge3" class="edge">
<title>Node4&#45;&gt;Node3</title>
<path fill="none" stroke="midnightblue" d="M79.51,-197.54C93.95,-187.35 112.79,-174.07 124.9,-165.53"/>
<polygon fill="midnightblue" stroke="midnightblue" points="77.34,-194.78 71.19,-203.41 81.38,-200.5 77.34,-194.78"/>
</g>
<!-- Node5 -->
<g id="node5" class="node">
<title>Node5</title>
<g id="a_node5"><a xlink:href="classcstring.html" target="_top" xlink:title=" ">
<polygon fill="white" stroke="black" points="34,-271.5 34,-290.5 84,-290.5 84,-271.5 34,-271.5"/>
<text text-anchor="middle" x="59" y="-278.5" font-family="Helvetica,sans-Serif" font-size="10.00">cstring</text>
</a>
</g>
</g>
<!-- Node5&#45;&gt;Node4 -->
<g id="edge4" class="edge">
<title>Node5&#45;&gt;Node4</title>
<path fill="none" stroke="#9a32cd" stroke-dasharray="5,2" d="M59,-261.04C59,-248.47 59,-232.56 59,-222.84"/>
<polygon fill="#9a32cd" stroke="#9a32cd" points="55.5,-261.37 59,-271.37 62.5,-261.37 55.5,-261.37"/>
<text text-anchor="middle" x="74.5" y="-244" font-family="Helvetica,sans-Serif" font-size="10.00"> name</text>
</g>
<!-- Node5&#45;&gt;Node5 -->
<g id="edge5" class="edge">
<title>Node5&#45;&gt;Node5</title>
<path fill="none" stroke="#9a32cd" stroke-dasharray="5,2" d="M94.45,-286.58C99,-285.61 102,-283.75 102,-281 102,-276.48 93.91,-274.37 84.18,-274.65"/>
<polygon fill="#9a32cd" stroke="#9a32cd" points="93.89,-283.11 84.18,-287.35 94.41,-290.1 93.89,-283.11"/>
<text text-anchor="middle" x="121.5" y="-284" font-family="Helvetica,sans-Serif" font-size="10.00"> empty</text>
<text text-anchor="middle" x="121.5" y="-273" font-family="Helvetica,sans-Serif" font-size="10.00">newline</text>
</g>
</g>
</svg>
