<?xml version="1.0" encoding="UTF-8" standalone="no"?>
<!DOCTYPE svg PUBLIC "-//W3C//DTD SVG 1.1//EN"
 "http://www.w3.org/Graphics/SVG/1.1/DTD/svg11.dtd">
<!-- Generated by graphviz version 2.43.0 (0)
 -->
<!-- Title: P4V1::Deparser_Model Pages: 1 -->
<svg width="232pt" height="299pt"
 viewBox="0.00 0.00 231.50 299.00" xmlns="http://www.w3.org/2000/svg" xmlns:xlink="http://www.w3.org/1999/xlink">
<g id="graph0" class="graph" transform="scale(1 1) rotate(0) translate(4 295)">
<title>P4V1::Deparser_Model</title>
<polygon fill="white" stroke="transparent" points="-4,4 -4,-295 227.5,-295 227.5,4 -4,4"/>
<!-- Node1 -->
<g id="node1" class="node">
<title>Node1</title>
<g id="a_node1"><a xlink:title=" ">
<polygon fill="#bfbfbf" stroke="black" points="0,-0.5 0,-19.5 127,-19.5 127,-0.5 0,-0.5"/>
<text text-anchor="middle" x="63.5" y="-7.5" font-family="Helvetica,sans-Serif" font-size="10.00">P4V1::Deparser_Model</text>
</a>
</g>
</g>
<!-- Node2 -->
<g id="node2" class="node">
<title>Node2</title>
<g id="a_node2"><a xlink:href="struct_model_1_1_elem.html" target="_top" xlink:title=" ">
<polygon fill="white" stroke="black" points="47,-202.5 47,-221.5 124,-221.5 124,-202.5 47,-202.5"/>
<text text-anchor="middle" x="85.5" y="-209.5" font-family="Helvetica,sans-Serif" font-size="10.00">Model::Elem</text>
</a>
</g>
</g>
<!-- Node2&#45;&gt;Node1 -->
<g id="edge1" class="edge">
<title>Node2&#45;&gt;Node1</title>
<path fill="none" stroke="midnightblue" d="M81.61,-192.46C77.11,-170.16 69.88,-131.53 66.5,-98 63.62,-69.43 63.36,-35.35 63.42,-19.67"/>
<polygon fill="midnightblue" stroke="midnightblue" points="78.18,-193.17 83.62,-202.26 85.04,-191.76 78.18,-193.17"/>
</g>
<!-- Node4 -->
<g id="node4" class="node">
<title>Node4</title>
<g id="a_node4"><a xlink:href="struct_model_1_1_param___model.html" target="_top" xlink:title="Param_Model : Elem.">
<polygon fill="white" stroke="black" points="76,-78.5 76,-97.5 195,-97.5 195,-78.5 76,-78.5"/>
<text text-anchor="middle" x="135.5" y="-85.5" font-family="Helvetica,sans-Serif" font-size="10.00">Model::Param_Model</text>
</a>
</g>
</g>
<!-- Node2&#45;&gt;Node4 -->
<g id="edge5" class="edge">
<title>Node2&#45;&gt;Node4</title>
<path fill="none" stroke="midnightblue" d="M89.69,-192.31C92.98,-178.88 98.08,-160.49 104.5,-145 111.73,-127.55 123.03,-108.58 129.8,-97.8"/>
<polygon fill="midnightblue" stroke="midnightblue" points="86.23,-191.71 87.36,-202.25 93.05,-193.31 86.23,-191.71"/>
</g>
<!-- Node5 -->
<g id="node5" class="node">
<title>Node5</title>
<g id="a_node5"><a xlink:href="struct_model_1_1_type___model.html" target="_top" xlink:title=" ">
<polygon fill="white" stroke="black" points="113.5,-145.5 113.5,-164.5 223.5,-164.5 223.5,-145.5 113.5,-145.5"/>
<text text-anchor="middle" x="168.5" y="-152.5" font-family="Helvetica,sans-Serif" font-size="10.00">Model::Type_Model</text>
</a>
</g>
</g>
<!-- Node2&#45;&gt;Node5 -->
<g id="edge7" class="edge">
<title>Node2&#45;&gt;Node5</title>
<path fill="none" stroke="midnightblue" d="M106.89,-196.82C122.31,-186.61 142.62,-173.15 155.62,-164.53"/>
<polygon fill="midnightblue" stroke="midnightblue" points="104.87,-193.96 98.47,-202.41 108.74,-199.8 104.87,-193.96"/>
</g>
<!-- Node3 -->
<g id="node3" class="node">
<title>Node3</title>
<g id="a_node3"><a xlink:href="classcstring.html" target="_top" xlink:title=" ">
<polygon fill="white" stroke="black" points="60.5,-270.5 60.5,-289.5 110.5,-289.5 110.5,-270.5 60.5,-270.5"/>
<text text-anchor="middle" x="85.5" y="-277.5" font-family="Helvetica,sans-Serif" font-size="10.00">cstring</text>
</a>
</g>
</g>
<!-- Node3&#45;&gt;Node2 -->
<g id="edge2" class="edge">
<title>Node3&#45;&gt;Node2</title>
<path fill="none" stroke="#9a32cd" stroke-dasharray="5,2" d="M85.5,-260.04C85.5,-247.47 85.5,-231.56 85.5,-221.84"/>
<polygon fill="#9a32cd" stroke="#9a32cd" points="82,-260.37 85.5,-270.37 89,-260.37 82,-260.37"/>
<text text-anchor="middle" x="101" y="-243" font-family="Helvetica,sans-Serif" font-size="10.00"> name</text>
</g>
<!-- Node3&#45;&gt;Node3 -->
<g id="edge3" class="edge">
<title>Node3&#45;&gt;Node3</title>
<path fill="none" stroke="#9a32cd" stroke-dasharray="5,2" d="M120.95,-285.58C125.5,-284.61 128.5,-282.75 128.5,-280 128.5,-275.48 120.41,-273.37 110.68,-273.65"/>
<polygon fill="#9a32cd" stroke="#9a32cd" points="120.39,-282.11 110.68,-286.35 120.91,-289.1 120.39,-282.11"/>
<text text-anchor="middle" x="148" y="-283" font-family="Helvetica,sans-Serif" font-size="10.00"> empty</text>
<text text-anchor="middle" x="148" y="-272" font-family="Helvetica,sans-Serif" font-size="10.00">newline</text>
</g>
<!-- Node4&#45;&gt;Node1 -->
<g id="edge4" class="edge">
<title>Node4&#45;&gt;Node1</title>
<path fill="none" stroke="#9a32cd" stroke-dasharray="5,2" d="M120.22,-70.88C105.39,-55.22 83.43,-32.04 71.66,-19.62"/>
<polygon fill="#9a32cd" stroke="#9a32cd" points="117.82,-73.43 127.24,-78.28 122.9,-68.62 117.82,-73.43"/>
<text text-anchor="middle" x="145" y="-52" font-family="Helvetica,sans-Serif" font-size="10.00"> headersParam</text>
<text text-anchor="middle" x="145" y="-41" font-family="Helvetica,sans-Serif" font-size="10.00">packetParam</text>
</g>
<!-- Node5&#45;&gt;Node4 -->
<g id="edge6" class="edge">
<title>Node5&#45;&gt;Node4</title>
<path fill="none" stroke="#9a32cd" stroke-dasharray="5,2" d="M159.44,-136.16C153.08,-123.63 144.85,-107.41 139.88,-97.63"/>
<polygon fill="#9a32cd" stroke="#9a32cd" points="156.4,-137.9 164.05,-145.23 162.64,-134.73 156.4,-137.9"/>
<text text-anchor="middle" x="166" y="-119" font-family="Helvetica,sans-Serif" font-size="10.00"> type</text>
</g>
</g>
</svg>
