<?xml version="1.0" encoding="UTF-8" standalone="no"?>
<!DOCTYPE svg PUBLIC "-//W3C//DTD SVG 1.1//EN"
 "http://www.w3.org/Graphics/SVG/1.1/DTD/svg11.dtd">
<!-- Generated by graphviz version 2.43.0 (0)
 -->
<!-- Title: PushContext Pages: 1 -->
<svg width="419pt" height="388pt"
 viewBox="0.00 0.00 418.50 388.00" xmlns="http://www.w3.org/2000/svg" xmlns:xlink="http://www.w3.org/1999/xlink">
<g id="graph0" class="graph" transform="scale(1 1) rotate(0) translate(4 384)">
<title>PushContext</title>
<polygon fill="white" stroke="transparent" points="-4,4 -4,-384 414.5,-384 414.5,4 -4,4"/>
<!-- Node1 -->
<g id="node1" class="node">
<title>Node1</title>
<g id="a_node1"><a xlink:title=" ">
<polygon fill="#bfbfbf" stroke="black" points="197.5,-0.5 197.5,-19.5 275.5,-19.5 275.5,-0.5 197.5,-0.5"/>
<text text-anchor="middle" x="236.5" y="-7.5" font-family="Helvetica,sans-Serif" font-size="10.00">PushContext</text>
</a>
</g>
</g>
<!-- Node2 -->
<g id="node2" class="node">
<title>Node2</title>
<g id="a_node2"><a xlink:href="struct_visitor___context.html" target="_top" xlink:title=" ">
<polygon fill="white" stroke="black" points="190.5,-78.5 190.5,-97.5 282.5,-97.5 282.5,-78.5 190.5,-78.5"/>
<text text-anchor="middle" x="236.5" y="-85.5" font-family="Helvetica,sans-Serif" font-size="10.00">Visitor_Context</text>
</a>
</g>
</g>
<!-- Node2&#45;&gt;Node1 -->
<g id="edge1" class="edge">
<title>Node2&#45;&gt;Node1</title>
<path fill="none" stroke="#9a32cd" stroke-dasharray="5,2" d="M236.5,-68.22C236.5,-52.7 236.5,-31.36 236.5,-19.62"/>
<polygon fill="#9a32cd" stroke="#9a32cd" points="233,-68.28 236.5,-78.28 240,-68.28 233,-68.28"/>
<text text-anchor="middle" x="255.5" y="-52" font-family="Helvetica,sans-Serif" font-size="10.00"> current</text>
<text text-anchor="middle" x="255.5" y="-41" font-family="Helvetica,sans-Serif" font-size="10.00">stack</text>
</g>
<!-- Node2&#45;&gt;Node2 -->
<g id="edge2" class="edge">
<title>Node2&#45;&gt;Node2</title>
<path fill="none" stroke="#9a32cd" stroke-dasharray="5,2" d="M292.77,-93.53C297.53,-92.35 300.5,-90.5 300.5,-88 300.5,-83.99 292.91,-81.68 282.52,-81.05"/>
<polygon fill="#9a32cd" stroke="#9a32cd" points="291.95,-90.11 282.52,-94.95 292.91,-97.05 291.95,-90.11"/>
<text text-anchor="middle" x="318" y="-85.5" font-family="Helvetica,sans-Serif" font-size="10.00"> parent</text>
</g>
<!-- Node3 -->
<g id="node3" class="node">
<title>Node3</title>
<g id="a_node3"><a xlink:href="class_i_r_1_1_node.html" target="_top" xlink:title=" ">
<polygon fill="white" stroke="black" points="207.5,-156.5 207.5,-175.5 265.5,-175.5 265.5,-156.5 207.5,-156.5"/>
<text text-anchor="middle" x="236.5" y="-163.5" font-family="Helvetica,sans-Serif" font-size="10.00">IR::Node</text>
</a>
</g>
</g>
<!-- Node3&#45;&gt;Node2 -->
<g id="edge3" class="edge">
<title>Node3&#45;&gt;Node2</title>
<path fill="none" stroke="#9a32cd" stroke-dasharray="5,2" d="M236.5,-146.22C236.5,-130.7 236.5,-109.36 236.5,-97.62"/>
<polygon fill="#9a32cd" stroke="#9a32cd" points="233,-146.28 236.5,-156.28 240,-146.28 233,-146.28"/>
<text text-anchor="middle" x="255" y="-130" font-family="Helvetica,sans-Serif" font-size="10.00"> node</text>
<text text-anchor="middle" x="255" y="-119" font-family="Helvetica,sans-Serif" font-size="10.00">original</text>
</g>
<!-- Node4 -->
<g id="node4" class="node">
<title>Node4</title>
<g id="a_node4"><a xlink:href="class_i_r_1_1_i_node.html" target="_top" xlink:title=" ">
<polygon fill="white" stroke="black" points="159,-223.5 159,-242.5 220,-242.5 220,-223.5 159,-223.5"/>
<text text-anchor="middle" x="189.5" y="-230.5" font-family="Helvetica,sans-Serif" font-size="10.00">IR::INode</text>
</a>
</g>
</g>
<!-- Node4&#45;&gt;Node3 -->
<g id="edge4" class="edge">
<title>Node4&#45;&gt;Node3</title>
<path fill="none" stroke="midnightblue" d="M201.86,-214.9C210.99,-202.27 223.05,-185.6 230.26,-175.63"/>
<polygon fill="midnightblue" stroke="midnightblue" points="198.86,-213.08 195.84,-223.23 204.53,-217.18 198.86,-213.08"/>
</g>
<!-- Node5 -->
<g id="node5" class="node">
<title>Node5</title>
<g id="a_node5"><a xlink:href="class_util_1_1_i_has_source_info.html" target="_top" xlink:title=" ">
<polygon fill="white" stroke="black" points="0,-302.5 0,-321.5 113,-321.5 113,-302.5 0,-302.5"/>
<text text-anchor="middle" x="56.5" y="-309.5" font-family="Helvetica,sans-Serif" font-size="10.00">Util::IHasSourceInfo</text>
</a>
</g>
</g>
<!-- Node5&#45;&gt;Node4 -->
<g id="edge5" class="edge">
<title>Node5&#45;&gt;Node4</title>
<path fill="none" stroke="midnightblue" d="M80.16,-297.3C107.54,-281.45 151.78,-255.84 174.69,-242.57"/>
<polygon fill="midnightblue" stroke="midnightblue" points="78.14,-294.43 71.24,-302.47 81.65,-300.48 78.14,-294.43"/>
</g>
<!-- Node6 -->
<g id="node6" class="node">
<title>Node6</title>
<g id="a_node6"><a xlink:href="class_i_has_db_print.html" target="_top" xlink:title=" ">
<polygon fill="white" stroke="black" points="131.5,-302.5 131.5,-321.5 205.5,-321.5 205.5,-302.5 131.5,-302.5"/>
<text text-anchor="middle" x="168.5" y="-309.5" font-family="Helvetica,sans-Serif" font-size="10.00">IHasDbPrint</text>
</a>
</g>
</g>
<!-- Node6&#45;&gt;Node4 -->
<g id="edge6" class="edge">
<title>Node6&#45;&gt;Node4</title>
<path fill="none" stroke="midnightblue" d="M173.47,-292.77C177.77,-277.02 183.79,-254.92 187.1,-242.81"/>
<polygon fill="midnightblue" stroke="midnightblue" points="170.08,-291.9 170.83,-302.47 176.84,-293.74 170.08,-291.9"/>
</g>
<!-- Node7 -->
<g id="node7" class="node">
<title>Node7</title>
<g id="a_node7"><a xlink:href="class_i_castable.html" target="_top" xlink:title=" ">
<polygon fill="white" stroke="black" points="223.5,-302.5 223.5,-321.5 285.5,-321.5 285.5,-302.5 223.5,-302.5"/>
<text text-anchor="middle" x="254.5" y="-309.5" font-family="Helvetica,sans-Serif" font-size="10.00">ICastable</text>
</a>
</g>
</g>
<!-- Node7&#45;&gt;Node4 -->
<g id="edge7" class="edge">
<title>Node7&#45;&gt;Node4</title>
<path fill="none" stroke="midnightblue" d="M240.62,-294.56C227.26,-278.73 207.56,-255.39 196.94,-242.81"/>
<polygon fill="midnightblue" stroke="midnightblue" points="238.17,-297.08 247.3,-302.47 243.52,-292.57 238.17,-297.08"/>
</g>
<!-- Node8 -->
<g id="node8" class="node">
<title>Node8</title>
<g id="a_node8"><a xlink:href="struct_r_t_t_i_1_1_base.html" target="_top" xlink:title=" ">
<polygon fill="white" stroke="black" points="220.5,-360.5 220.5,-379.5 288.5,-379.5 288.5,-360.5 220.5,-360.5"/>
<text text-anchor="middle" x="254.5" y="-367.5" font-family="Helvetica,sans-Serif" font-size="10.00">RTTI::Base</text>
</a>
</g>
</g>
<!-- Node8&#45;&gt;Node7 -->
<g id="edge8" class="edge">
<title>Node8&#45;&gt;Node7</title>
<path fill="none" stroke="midnightblue" d="M254.5,-349.95C254.5,-340.29 254.5,-329.03 254.5,-321.51"/>
<polygon fill="midnightblue" stroke="midnightblue" points="251,-350.25 254.5,-360.25 258,-350.25 251,-350.25"/>
</g>
<!-- Node9 -->
<g id="node9" class="node">
<title>Node9</title>
<g id="a_node9"><a xlink:href="class_util_1_1_source_info.html" target="_top" xlink:title=" ">
<polygon fill="white" stroke="black" points="248.5,-223.5 248.5,-242.5 340.5,-242.5 340.5,-223.5 248.5,-223.5"/>
<text text-anchor="middle" x="294.5" y="-230.5" font-family="Helvetica,sans-Serif" font-size="10.00">Util::SourceInfo</text>
</a>
</g>
</g>
<!-- Node9&#45;&gt;Node3 -->
<g id="edge9" class="edge">
<title>Node9&#45;&gt;Node3</title>
<path fill="none" stroke="#9a32cd" stroke-dasharray="5,2" d="M279.9,-215.63C268.55,-202.92 253.27,-185.8 244.2,-175.63"/>
<polygon fill="#9a32cd" stroke="#9a32cd" points="277.41,-218.1 286.68,-223.23 282.63,-213.44 277.41,-218.1"/>
<text text-anchor="middle" x="288" y="-197" font-family="Helvetica,sans-Serif" font-size="10.00"> srcInfo</text>
</g>
<!-- Node10 -->
<g id="node10" class="node">
<title>Node10</title>
<g id="a_node10"><a xlink:href="classcstring.html" target="_top" xlink:title=" ">
<polygon fill="white" stroke="black" points="303.5,-302.5 303.5,-321.5 353.5,-321.5 353.5,-302.5 303.5,-302.5"/>
<text text-anchor="middle" x="328.5" y="-309.5" font-family="Helvetica,sans-Serif" font-size="10.00">cstring</text>
</a>
</g>
</g>
<!-- Node10&#45;&gt;Node9 -->
<g id="edge10" class="edge">
<title>Node10&#45;&gt;Node9</title>
<path fill="none" stroke="#9a32cd" stroke-dasharray="5,2" d="M320.65,-293.22C313.68,-277.44 303.79,-255.04 298.39,-242.81"/>
<polygon fill="#9a32cd" stroke="#9a32cd" points="317.49,-294.73 324.73,-302.47 323.89,-291.9 317.49,-294.73"/>
<text text-anchor="middle" x="338.5" y="-275" font-family="Helvetica,sans-Serif" font-size="10.00"> filename</text>
<text text-anchor="middle" x="338.5" y="-264" font-family="Helvetica,sans-Serif" font-size="10.00">srcBrief</text>
</g>
<!-- Node10&#45;&gt;Node10 -->
<g id="edge11" class="edge">
<title>Node10&#45;&gt;Node10</title>
<path fill="none" stroke="#9a32cd" stroke-dasharray="5,2" d="M363.95,-316.6C368.5,-315.8 371.5,-314.27 371.5,-312 371.5,-308.28 363.41,-306.54 353.68,-306.77"/>
<polygon fill="#9a32cd" stroke="#9a32cd" points="363.44,-313.12 353.68,-317.23 363.87,-320.11 363.44,-313.12"/>
<text text-anchor="middle" x="391" y="-315" font-family="Helvetica,sans-Serif" font-size="10.00"> empty</text>
<text text-anchor="middle" x="391" y="-304" font-family="Helvetica,sans-Serif" font-size="10.00">newline</text>
</g>
</g>
</svg>
