<?xml version="1.0" encoding="UTF-8" standalone="no"?>
<!DOCTYPE svg PUBLIC "-//W3C//DTD SVG 1.1//EN"
 "http://www.w3.org/Graphics/SVG/1.1/DTD/svg11.dtd">
<!-- Generated by graphviz version 2.43.0 (0)
 -->
<!-- Title: P4Tools::P4Testgen::SmallStepEvaluator::Branch Pages: 1 -->
<svg width="419pt" height="399pt"
 viewBox="0.00 0.00 418.50 399.00" xmlns="http://www.w3.org/2000/svg" xmlns:xlink="http://www.w3.org/1999/xlink">
<g id="graph0" class="graph" transform="scale(1 1) rotate(0) translate(4 395)">
<title>P4Tools::P4Testgen::SmallStepEvaluator::Branch</title>
<polygon fill="white" stroke="transparent" points="-4,4 -4,-395 414.5,-395 414.5,4 -4,4"/>
<!-- Node1 -->
<g id="node1" class="node">
<title>Node1</title>
<g id="a_node1"><a xlink:title=" ">
<polygon fill="#bfbfbf" stroke="black" points="177,-0.5 177,-41.5 296,-41.5 296,-0.5 177,-0.5"/>
<text text-anchor="start" x="185" y="-29.5" font-family="Helvetica,sans-Serif" font-size="10.00">P4Tools::P4Testgen</text>
<text text-anchor="start" x="185" y="-18.5" font-family="Helvetica,sans-Serif" font-size="10.00">::SmallStepEvaluator</text>
<text text-anchor="middle" x="236.5" y="-7.5" font-family="Helvetica,sans-Serif" font-size="10.00">::Branch</text>
</a>
</g>
</g>
<!-- Node2 -->
<g id="node2" class="node">
<title>Node2</title>
<g id="a_node2"><a xlink:title=" ">
<polygon fill="white" stroke="#bfbfbf" points="167.5,-89.5 167.5,-119.5 305.5,-119.5 305.5,-89.5 167.5,-89.5"/>
<text text-anchor="start" x="175.5" y="-107.5" font-family="Helvetica,sans-Serif" font-size="10.00">std::set&lt; const IR</text>
<text text-anchor="middle" x="236.5" y="-96.5" font-family="Helvetica,sans-Serif" font-size="10.00">::Node *, SourceIdCmp &gt;</text>
</a>
</g>
</g>
<!-- Node2&#45;&gt;Node1 -->
<g id="edge1" class="edge">
<title>Node2&#45;&gt;Node1</title>
<path fill="none" stroke="#9a32cd" stroke-dasharray="5,2" d="M236.5,-79.07C236.5,-67.06 236.5,-52.79 236.5,-41.53"/>
<polygon fill="#9a32cd" stroke="#9a32cd" points="233,-79.3 236.5,-89.3 240,-79.3 233,-79.3"/>
<text text-anchor="middle" x="275.5" y="-63" font-family="Helvetica,sans-Serif" font-size="10.00"> potentialNodes</text>
</g>
<!-- Node3 -->
<g id="node3" class="node">
<title>Node3</title>
<g id="a_node3"><a xlink:href="class_i_r_1_1_node.html" target="_top" xlink:title=" ">
<polygon fill="white" stroke="black" points="207.5,-167.5 207.5,-186.5 265.5,-186.5 265.5,-167.5 207.5,-167.5"/>
<text text-anchor="middle" x="236.5" y="-174.5" font-family="Helvetica,sans-Serif" font-size="10.00">IR::Node</text>
</a>
</g>
</g>
<!-- Node3&#45;&gt;Node2 -->
<g id="edge2" class="edge">
<title>Node3&#45;&gt;Node2</title>
<path fill="none" stroke="#9a32cd" stroke-dasharray="5,2" d="M236.5,-157.24C236.5,-145.41 236.5,-130.38 236.5,-119.58"/>
<polygon fill="#9a32cd" stroke="#9a32cd" points="233,-157.36 236.5,-167.36 240,-157.36 233,-157.36"/>
<text text-anchor="middle" x="249.5" y="-141" font-family="Helvetica,sans-Serif" font-size="10.00"> keys</text>
</g>
<!-- Node4 -->
<g id="node4" class="node">
<title>Node4</title>
<g id="a_node4"><a xlink:href="class_i_r_1_1_i_node.html" target="_top" xlink:title=" ">
<polygon fill="white" stroke="black" points="159,-234.5 159,-253.5 220,-253.5 220,-234.5 159,-234.5"/>
<text text-anchor="middle" x="189.5" y="-241.5" font-family="Helvetica,sans-Serif" font-size="10.00">IR::INode</text>
</a>
</g>
</g>
<!-- Node4&#45;&gt;Node3 -->
<g id="edge3" class="edge">
<title>Node4&#45;&gt;Node3</title>
<path fill="none" stroke="midnightblue" d="M201.86,-225.9C210.99,-213.27 223.05,-196.6 230.26,-186.63"/>
<polygon fill="midnightblue" stroke="midnightblue" points="198.86,-224.08 195.84,-234.23 204.53,-228.18 198.86,-224.08"/>
</g>
<!-- Node5 -->
<g id="node5" class="node">
<title>Node5</title>
<g id="a_node5"><a xlink:href="class_util_1_1_i_has_source_info.html" target="_top" xlink:title=" ">
<polygon fill="white" stroke="black" points="0,-313.5 0,-332.5 113,-332.5 113,-313.5 0,-313.5"/>
<text text-anchor="middle" x="56.5" y="-320.5" font-family="Helvetica,sans-Serif" font-size="10.00">Util::IHasSourceInfo</text>
</a>
</g>
</g>
<!-- Node5&#45;&gt;Node4 -->
<g id="edge4" class="edge">
<title>Node5&#45;&gt;Node4</title>
<path fill="none" stroke="midnightblue" d="M80.16,-308.3C107.54,-292.45 151.78,-266.84 174.69,-253.57"/>
<polygon fill="midnightblue" stroke="midnightblue" points="78.14,-305.43 71.24,-313.47 81.65,-311.48 78.14,-305.43"/>
</g>
<!-- Node6 -->
<g id="node6" class="node">
<title>Node6</title>
<g id="a_node6"><a xlink:href="class_i_has_db_print.html" target="_top" xlink:title=" ">
<polygon fill="white" stroke="black" points="131.5,-313.5 131.5,-332.5 205.5,-332.5 205.5,-313.5 131.5,-313.5"/>
<text text-anchor="middle" x="168.5" y="-320.5" font-family="Helvetica,sans-Serif" font-size="10.00">IHasDbPrint</text>
</a>
</g>
</g>
<!-- Node6&#45;&gt;Node4 -->
<g id="edge5" class="edge">
<title>Node6&#45;&gt;Node4</title>
<path fill="none" stroke="midnightblue" d="M173.47,-303.77C177.77,-288.02 183.79,-265.92 187.1,-253.81"/>
<polygon fill="midnightblue" stroke="midnightblue" points="170.08,-302.9 170.83,-313.47 176.84,-304.74 170.08,-302.9"/>
</g>
<!-- Node7 -->
<g id="node7" class="node">
<title>Node7</title>
<g id="a_node7"><a xlink:href="class_i_castable.html" target="_top" xlink:title=" ">
<polygon fill="white" stroke="black" points="223.5,-313.5 223.5,-332.5 285.5,-332.5 285.5,-313.5 223.5,-313.5"/>
<text text-anchor="middle" x="254.5" y="-320.5" font-family="Helvetica,sans-Serif" font-size="10.00">ICastable</text>
</a>
</g>
</g>
<!-- Node7&#45;&gt;Node4 -->
<g id="edge6" class="edge">
<title>Node7&#45;&gt;Node4</title>
<path fill="none" stroke="midnightblue" d="M240.62,-305.56C227.26,-289.73 207.56,-266.39 196.94,-253.81"/>
<polygon fill="midnightblue" stroke="midnightblue" points="238.17,-308.08 247.3,-313.47 243.52,-303.57 238.17,-308.08"/>
</g>
<!-- Node8 -->
<g id="node8" class="node">
<title>Node8</title>
<g id="a_node8"><a xlink:href="struct_r_t_t_i_1_1_base.html" target="_top" xlink:title=" ">
<polygon fill="white" stroke="black" points="220.5,-371.5 220.5,-390.5 288.5,-390.5 288.5,-371.5 220.5,-371.5"/>
<text text-anchor="middle" x="254.5" y="-378.5" font-family="Helvetica,sans-Serif" font-size="10.00">RTTI::Base</text>
</a>
</g>
</g>
<!-- Node8&#45;&gt;Node7 -->
<g id="edge7" class="edge">
<title>Node8&#45;&gt;Node7</title>
<path fill="none" stroke="midnightblue" d="M254.5,-360.95C254.5,-351.29 254.5,-340.03 254.5,-332.51"/>
<polygon fill="midnightblue" stroke="midnightblue" points="251,-361.25 254.5,-371.25 258,-361.25 251,-361.25"/>
</g>
<!-- Node9 -->
<g id="node9" class="node">
<title>Node9</title>
<g id="a_node9"><a xlink:href="class_util_1_1_source_info.html" target="_top" xlink:title=" ">
<polygon fill="white" stroke="black" points="248.5,-234.5 248.5,-253.5 340.5,-253.5 340.5,-234.5 248.5,-234.5"/>
<text text-anchor="middle" x="294.5" y="-241.5" font-family="Helvetica,sans-Serif" font-size="10.00">Util::SourceInfo</text>
</a>
</g>
</g>
<!-- Node9&#45;&gt;Node3 -->
<g id="edge8" class="edge">
<title>Node9&#45;&gt;Node3</title>
<path fill="none" stroke="#9a32cd" stroke-dasharray="5,2" d="M279.9,-226.63C268.55,-213.92 253.27,-196.8 244.2,-186.63"/>
<polygon fill="#9a32cd" stroke="#9a32cd" points="277.41,-229.1 286.68,-234.23 282.63,-224.44 277.41,-229.1"/>
<text text-anchor="middle" x="288" y="-208" font-family="Helvetica,sans-Serif" font-size="10.00"> srcInfo</text>
</g>
<!-- Node10 -->
<g id="node10" class="node">
<title>Node10</title>
<g id="a_node10"><a xlink:href="classcstring.html" target="_top" xlink:title=" ">
<polygon fill="white" stroke="black" points="303.5,-313.5 303.5,-332.5 353.5,-332.5 353.5,-313.5 303.5,-313.5"/>
<text text-anchor="middle" x="328.5" y="-320.5" font-family="Helvetica,sans-Serif" font-size="10.00">cstring</text>
</a>
</g>
</g>
<!-- Node10&#45;&gt;Node9 -->
<g id="edge9" class="edge">
<title>Node10&#45;&gt;Node9</title>
<path fill="none" stroke="#9a32cd" stroke-dasharray="5,2" d="M320.65,-304.22C313.68,-288.44 303.79,-266.04 298.39,-253.81"/>
<polygon fill="#9a32cd" stroke="#9a32cd" points="317.49,-305.73 324.73,-313.47 323.89,-302.9 317.49,-305.73"/>
<text text-anchor="middle" x="338.5" y="-286" font-family="Helvetica,sans-Serif" font-size="10.00"> filename</text>
<text text-anchor="middle" x="338.5" y="-275" font-family="Helvetica,sans-Serif" font-size="10.00">srcBrief</text>
</g>
<!-- Node10&#45;&gt;Node10 -->
<g id="edge10" class="edge">
<title>Node10&#45;&gt;Node10</title>
<path fill="none" stroke="#9a32cd" stroke-dasharray="5,2" d="M363.95,-327.6C368.5,-326.8 371.5,-325.27 371.5,-323 371.5,-319.28 363.41,-317.54 353.68,-317.77"/>
<polygon fill="#9a32cd" stroke="#9a32cd" points="363.44,-324.12 353.68,-328.23 363.87,-331.11 363.44,-324.12"/>
<text text-anchor="middle" x="391" y="-326" font-family="Helvetica,sans-Serif" font-size="10.00"> empty</text>
<text text-anchor="middle" x="391" y="-315" font-family="Helvetica,sans-Serif" font-size="10.00">newline</text>
</g>
</g>
</svg>
