<?xml version="1.0" encoding="UTF-8" standalone="no"?>
<!DOCTYPE svg PUBLIC "-//W3C//DTD SVG 1.1//EN"
 "http://www.w3.org/Graphics/SVG/1.1/DTD/svg11.dtd">
<!-- Generated by graphviz version 2.43.0 (0)
 -->
<!-- Title: P4::StructTypeReplacement&lt; T &gt; Pages: 1 -->
<svg width="606pt" height="127pt"
 viewBox="0.00 0.00 606.00 126.50" xmlns="http://www.w3.org/2000/svg" xmlns:xlink="http://www.w3.org/1999/xlink">
<g id="graph0" class="graph" transform="scale(1 1) rotate(0) translate(4 122.5)">
<title>P4::StructTypeReplacement&lt; T &gt;</title>
<polygon fill="white" stroke="transparent" points="-4,4 -4,-122.5 602,-122.5 602,4 -4,4"/>
<!-- Node1 -->
<g id="node1" class="node">
<title>Node1</title>
<g id="a_node1"><a xlink:title=" ">
<polygon fill="#bfbfbf" stroke="black" points="419,-55 419,-74 598,-74 598,-55 419,-55"/>
<text text-anchor="middle" x="508.5" y="-62" font-family="Helvetica,sans-Serif" font-size="10.00">P4::StructTypeReplacement&lt; T &gt;</text>
</a>
</g>
</g>
<!-- Node2 -->
<g id="node2" class="node">
<title>Node2</title>
<g id="a_node2"><a xlink:href="class_i_has_db_print.html" target="_top" xlink:title=" ">
<polygon fill="white" stroke="black" points="178,-99 178,-118 252,-118 252,-99 178,-99"/>
<text text-anchor="middle" x="215" y="-106" font-family="Helvetica,sans-Serif" font-size="10.00">IHasDbPrint</text>
</a>
</g>
</g>
<!-- Node2&#45;&gt;Node1 -->
<g id="edge1" class="edge">
<title>Node2&#45;&gt;Node1</title>
<path fill="none" stroke="midnightblue" d="M262.07,-101.55C311.27,-94.12 389.56,-82.3 444.45,-74.02"/>
<polygon fill="midnightblue" stroke="midnightblue" points="261.4,-98.11 252.04,-103.06 262.45,-105.03 261.4,-98.11"/>
</g>
<!-- Node3 -->
<g id="node3" class="node">
<title>Node3</title>
<g id="a_node3"><a xlink:title=" ">
<polygon fill="white" stroke="#bfbfbf" points="135,-49.5 135,-79.5 295,-79.5 295,-49.5 135,-49.5"/>
<text text-anchor="start" x="143" y="-67.5" font-family="Helvetica,sans-Serif" font-size="10.00">std::map&lt; cstring,</text>
<text text-anchor="middle" x="215" y="-56.5" font-family="Helvetica,sans-Serif" font-size="10.00"> const IR::Type_StructLike * &gt;</text>
</a>
</g>
</g>
<!-- Node3&#45;&gt;Node1 -->
<g id="edge2" class="edge">
<title>Node3&#45;&gt;Node1</title>
<path fill="none" stroke="#9a32cd" stroke-dasharray="5,2" d="M305.28,-64.5C341.3,-64.5 382.77,-64.5 418.74,-64.5"/>
<polygon fill="#9a32cd" stroke="#9a32cd" points="305.27,-61 295.27,-64.5 305.27,-68 305.27,-61"/>
<text text-anchor="middle" x="357" y="-67.5" font-family="Helvetica,sans-Serif" font-size="10.00"> structFieldMap</text>
</g>
<!-- Node4 -->
<g id="node4" class="node">
<title>Node4</title>
<g id="a_node4"><a xlink:href="classcstring.html" target="_top" xlink:title=" ">
<polygon fill="white" stroke="black" points="0,-30 0,-49 50,-49 50,-30 0,-30"/>
<text text-anchor="middle" x="25" y="-37" font-family="Helvetica,sans-Serif" font-size="10.00">cstring</text>
</a>
</g>
</g>
<!-- Node4&#45;&gt;Node3 -->
<g id="edge3" class="edge">
<title>Node4&#45;&gt;Node3</title>
<path fill="none" stroke="#9a32cd" stroke-dasharray="5,2" d="M60.18,-44.05C81.12,-46.83 108.83,-50.51 134.96,-53.99"/>
<polygon fill="#9a32cd" stroke="#9a32cd" points="60.57,-40.57 50.19,-42.72 59.64,-47.5 60.57,-40.57"/>
<text text-anchor="middle" x="92.5" y="-54.5" font-family="Helvetica,sans-Serif" font-size="10.00"> keys</text>
</g>
<!-- Node4&#45;&gt;Node4 -->
<g id="edge4" class="edge">
<title>Node4&#45;&gt;Node4</title>
<path fill="none" stroke="#9a32cd" stroke-dasharray="5,2" d="M12.85,-59.27C13.8,-64 17.85,-67.5 25,-67.5 36.73,-67.5 40.12,-58.07 35.17,-49.26"/>
<polygon fill="#9a32cd" stroke="#9a32cd" points="16.32,-59.75 14.83,-49.26 9.45,-58.39 16.32,-59.75"/>
<text text-anchor="middle" x="25" y="-81.5" font-family="Helvetica,sans-Serif" font-size="10.00"> empty</text>
<text text-anchor="middle" x="25" y="-70.5" font-family="Helvetica,sans-Serif" font-size="10.00">newline</text>
</g>
<!-- Node5 -->
<g id="node5" class="node">
<title>Node5</title>
<g id="a_node5"><a xlink:title=" ">
<polygon fill="white" stroke="#bfbfbf" points="161.5,-0.5 161.5,-30.5 268.5,-30.5 268.5,-0.5 161.5,-0.5"/>
<text text-anchor="start" x="169.5" y="-18.5" font-family="Helvetica,sans-Serif" font-size="10.00">std::map&lt; cstring,</text>
<text text-anchor="middle" x="215" y="-7.5" font-family="Helvetica,sans-Serif" font-size="10.00"> cstring &gt;</text>
</a>
</g>
</g>
<!-- Node4&#45;&gt;Node5 -->
<g id="edge6" class="edge">
<title>Node4&#45;&gt;Node5</title>
<path fill="none" stroke="#9a32cd" stroke-dasharray="5,2" d="M51.31,-25.39C56.67,-22.99 62.41,-20.84 68,-19.5 98.32,-12.21 133.21,-11 161.28,-11.71"/>
<polygon fill="#9a32cd" stroke="#9a32cd" points="49.62,-22.32 42.17,-29.85 52.69,-28.61 49.62,-22.32"/>
<text text-anchor="middle" x="92.5" y="-33.5" font-family="Helvetica,sans-Serif" font-size="10.00"> elements</text>
<text text-anchor="middle" x="92.5" y="-22.5" font-family="Helvetica,sans-Serif" font-size="10.00">keys</text>
</g>
<!-- Node5&#45;&gt;Node1 -->
<g id="edge5" class="edge">
<title>Node5&#45;&gt;Node1</title>
<path fill="none" stroke="#9a32cd" stroke-dasharray="5,2" d="M278.73,-26.04C329.87,-34.64 401.46,-46.68 450.87,-54.98"/>
<polygon fill="#9a32cd" stroke="#9a32cd" points="279.23,-22.58 268.79,-24.37 278.07,-29.48 279.23,-22.58"/>
<text text-anchor="middle" x="357" y="-49.5" font-family="Helvetica,sans-Serif" font-size="10.00"> fieldNameRemap</text>
</g>
</g>
</svg>
