<?xml version="1.0" encoding="UTF-8" standalone="no"?>
<!DOCTYPE svg PUBLIC "-//W3C//DTD SVG 1.1//EN"
 "http://www.w3.org/Graphics/SVG/1.1/DTD/svg11.dtd">
<!-- Generated by graphviz version 2.43.0 (0)
 -->
<!-- Title: EBPF::TableImpl_Model Pages: 1 -->
<svg width="208pt" height="278pt"
 viewBox="0.00 0.00 208.00 278.00" xmlns="http://www.w3.org/2000/svg" xmlns:xlink="http://www.w3.org/1999/xlink">
<g id="graph0" class="graph" transform="scale(1 1) rotate(0) translate(4 274)">
<title>EBPF::TableImpl_Model</title>
<polygon fill="white" stroke="transparent" points="-4,4 -4,-274 204,-274 204,4 -4,4"/>
<!-- Node1 -->
<g id="node1" class="node">
<title>Node1</title>
<g id="a_node1"><a xlink:title=" ">
<polygon fill="#bfbfbf" stroke="black" points="0,-0.5 0,-19.5 129,-19.5 129,-0.5 0,-0.5"/>
<text text-anchor="middle" x="64.5" y="-7.5" font-family="Helvetica,sans-Serif" font-size="10.00">EBPF::TableImpl_Model</text>
</a>
</g>
</g>
<!-- Node2 -->
<g id="node2" class="node">
<title>Node2</title>
<g id="a_node2"><a xlink:href="struct_model_1_1_extern___model.html" target="_top" xlink:title="Extern_Model : Type_Model.">
<polygon fill="white" stroke="black" points="81,-57.5 81,-76.5 200,-76.5 200,-57.5 81,-57.5"/>
<text text-anchor="middle" x="140.5" y="-64.5" font-family="Helvetica,sans-Serif" font-size="10.00">Model::Extern_Model</text>
</a>
</g>
</g>
<!-- Node2&#45;&gt;Node1 -->
<g id="edge1" class="edge">
<title>Node2&#45;&gt;Node1</title>
<path fill="none" stroke="midnightblue" d="M120.17,-51.29C106.24,-41.21 88.25,-28.19 76.54,-19.71"/>
<polygon fill="midnightblue" stroke="midnightblue" points="118.47,-54.38 128.62,-57.41 122.58,-48.71 118.47,-54.38"/>
</g>
<!-- Node3 -->
<g id="node3" class="node">
<title>Node3</title>
<g id="a_node3"><a xlink:href="struct_model_1_1_type___model.html" target="_top" xlink:title=" ">
<polygon fill="white" stroke="black" points="82.5,-124.5 82.5,-143.5 192.5,-143.5 192.5,-124.5 82.5,-124.5"/>
<text text-anchor="middle" x="137.5" y="-131.5" font-family="Helvetica,sans-Serif" font-size="10.00">Model::Type_Model</text>
</a>
</g>
</g>
<!-- Node3&#45;&gt;Node2 -->
<g id="edge2" class="edge">
<title>Node3&#45;&gt;Node2</title>
<path fill="none" stroke="midnightblue" d="M138.38,-114.04C138.95,-101.67 139.66,-86.12 140.1,-76.63"/>
<polygon fill="midnightblue" stroke="midnightblue" points="134.87,-114.08 137.9,-124.23 141.86,-114.41 134.87,-114.08"/>
</g>
<!-- Node4 -->
<g id="node4" class="node">
<title>Node4</title>
<g id="a_node4"><a xlink:href="struct_model_1_1_elem.html" target="_top" xlink:title=" ">
<polygon fill="white" stroke="black" points="26,-181.5 26,-200.5 103,-200.5 103,-181.5 26,-181.5"/>
<text text-anchor="middle" x="64.5" y="-188.5" font-family="Helvetica,sans-Serif" font-size="10.00">Model::Elem</text>
</a>
</g>
</g>
<!-- Node4&#45;&gt;Node1 -->
<g id="edge6" class="edge">
<title>Node4&#45;&gt;Node1</title>
<path fill="none" stroke="#9a32cd" stroke-dasharray="5,2" d="M64.5,-171.09C64.5,-132.68 64.5,-46.89 64.5,-19.55"/>
<polygon fill="#9a32cd" stroke="#9a32cd" points="61,-171.37 64.5,-181.37 68,-171.37 61,-171.37"/>
<text text-anchor="middle" x="76" y="-98" font-family="Helvetica,sans-Serif" font-size="10.00"> size</text>
</g>
<!-- Node4&#45;&gt;Node3 -->
<g id="edge3" class="edge">
<title>Node4&#45;&gt;Node3</title>
<path fill="none" stroke="midnightblue" d="M84.03,-175.29C97.4,-165.21 114.69,-152.19 125.93,-143.71"/>
<polygon fill="midnightblue" stroke="midnightblue" points="81.79,-172.59 75.91,-181.41 86,-178.18 81.79,-172.59"/>
</g>
<!-- Node5 -->
<g id="node5" class="node">
<title>Node5</title>
<g id="a_node5"><a xlink:href="classcstring.html" target="_top" xlink:title=" ">
<polygon fill="white" stroke="black" points="39.5,-249.5 39.5,-268.5 89.5,-268.5 89.5,-249.5 39.5,-249.5"/>
<text text-anchor="middle" x="64.5" y="-256.5" font-family="Helvetica,sans-Serif" font-size="10.00">cstring</text>
</a>
</g>
</g>
<!-- Node5&#45;&gt;Node4 -->
<g id="edge4" class="edge">
<title>Node5&#45;&gt;Node4</title>
<path fill="none" stroke="#9a32cd" stroke-dasharray="5,2" d="M64.5,-239.04C64.5,-226.47 64.5,-210.56 64.5,-200.84"/>
<polygon fill="#9a32cd" stroke="#9a32cd" points="61,-239.37 64.5,-249.37 68,-239.37 61,-239.37"/>
<text text-anchor="middle" x="80" y="-222" font-family="Helvetica,sans-Serif" font-size="10.00"> name</text>
</g>
<!-- Node5&#45;&gt;Node5 -->
<g id="edge5" class="edge">
<title>Node5&#45;&gt;Node5</title>
<path fill="none" stroke="#9a32cd" stroke-dasharray="5,2" d="M99.95,-264.58C104.5,-263.61 107.5,-261.75 107.5,-259 107.5,-254.48 99.41,-252.37 89.68,-252.65"/>
<polygon fill="#9a32cd" stroke="#9a32cd" points="99.39,-261.11 89.68,-265.35 99.91,-268.1 99.39,-261.11"/>
<text text-anchor="middle" x="127" y="-262" font-family="Helvetica,sans-Serif" font-size="10.00"> empty</text>
<text text-anchor="middle" x="127" y="-251" font-family="Helvetica,sans-Serif" font-size="10.00">newline</text>
</g>
</g>
</svg>
