<?xml version="1.0" encoding="UTF-8" standalone="no"?>
<!DOCTYPE svg PUBLIC "-//W3C//DTD SVG 1.1//EN"
 "http://www.w3.org/Graphics/SVG/1.1/DTD/svg11.dtd">
<!-- Generated by graphviz version 2.43.0 (0)
 -->
<!-- Title: BMV2::ConversionContext Pages: 1 -->
<!--zoomable 1151 -->
<svg id="main" version="1.1" xmlns="http://www.w3.org/2000/svg" xmlns:xlink="http://www.w3.org/1999/xlink" xml:space="preserve" onload="init(evt)">
<style type="text/css"><![CDATA[
.edge:hover path { stroke: red; }
.edge:hover polygon { stroke: red; fill: red; }
]]></style>
<script type="text/javascript"><![CDATA[
var edges = document.getElementsByTagName('g');
if (edges && edges.length) {
  for (var i=0;i<edges.length;i++) {
    if (edges[i].id.substr(0,4)=='edge') {
      edges[i].setAttribute('class','edge');
    }
  }
}
]]></script>
        <defs>
                <circle id="rim" cx="0" cy="0" r="7"/>
                <circle id="rim2" cx="0" cy="0" r="3.5"/>
                <g id="zoomPlus">
                        <use xlink:href="#rim" fill="#404040">
                                <set attributeName="fill" to="#808080" begin="zoomplus.mouseover" end="zoomplus.mouseout"/>
                        </use>
                        <path d="M-4,0h8M0,-4v8" fill="none" stroke="white" stroke-width="1.5" pointer-events="none"/>
                </g>
                <g id="zoomMin">
                        <use xlink:href="#rim" fill="#404040">
                                <set attributeName="fill" to="#808080" begin="zoomminus.mouseover" end="zoomminus.mouseout"/>
                        </use>
                        <path d="M-4,0h8" fill="none" stroke="white" stroke-width="1.5" pointer-events="none"/>
                </g>
                <g id="dirArrow">
                        <path fill="none" stroke="white" stroke-width="1.5" d="M0,-3.0v7 M-2.5,-0.5L0,-3.0L2.5,-0.5"/>
                </g>
               <g id="resetDef">
                       <use xlink:href="#rim2" fill="#404040">
                               <set attributeName="fill" to="#808080" begin="reset.mouseover" end="reset.mouseout"/>
                       </use>
               </g>
        </defs>

<script type="text/javascript">
var viewWidth = 1429;
var viewHeight = 1151;
var sectionId = 'dynsection-0';
</script>
<script xlink:href="svgpan.js"/>
<svg id="graph" class="graph">
<g id="viewport">
<title>BMV2::ConversionContext</title>
<polygon fill="white" stroke="transparent" points="-4,4 -4,-1147 1425,-1147 1425,4 -4,4"/>
<!-- Node1 -->
<g id="node1" class="node">
<title>Node1</title>
<g id="a_node1"><a xlink:title=" ">
<polygon fill="#bfbfbf" stroke="black" points="1277,-723.5 1277,-742.5 1421,-742.5 1421,-723.5 1277,-723.5"/>
<text text-anchor="middle" x="1349" y="-730.5" font-family="Helvetica,sans-Serif" font-size="10.00">BMV2::ConversionContext</text>
</a>
</g>
</g>
<!-- Node2 -->
<g id="node2" class="node">
<title>Node2</title>
<g id="a_node2"><a xlink:href="class_util_1_1_json_array.html" target="_top" xlink:title=" ">
<polygon fill="white" stroke="black" points="767,-1031.5 767,-1050.5 853,-1050.5 853,-1031.5 767,-1031.5"/>
<text text-anchor="middle" x="810" y="-1038.5" font-family="Helvetica,sans-Serif" font-size="10.00">Util::JsonArray</text>
</a>
</g>
</g>
<!-- Node2&#45;&gt;Node1 -->
<g id="edge1" class="edge">
<title>Node2&#45;&gt;Node1</title>
<path fill="none" stroke="#9a32cd" stroke-dasharray="5,2" d="M846.88,-1053.54C890.7,-1066.73 966.26,-1082.44 1025,-1058 1190.62,-989.1 1315.09,-789.41 1342.39,-742.81"/>
<polygon fill="#9a32cd" stroke="#9a32cd" points="847.83,-1050.17 837.24,-1050.53 845.74,-1056.85 847.83,-1050.17"/>
<text text-anchor="middle" x="1119" y="-1052" font-family="Helvetica,sans-Serif" font-size="10.00"> action_profiles</text>
</g>
<!-- Node28 -->
<g id="node28" class="node">
<title>Node28</title>
<g id="a_node28"><a xlink:href="class_b_m_v2_1_1_json_objects.html" target="_top" xlink:title=" ">
<polygon fill="white" stroke="black" points="1065,-836.5 1065,-855.5 1173,-855.5 1173,-836.5 1065,-836.5"/>
<text text-anchor="middle" x="1119" y="-843.5" font-family="Helvetica,sans-Serif" font-size="10.00">BMV2::JsonObjects</text>
</a>
</g>
</g>
<!-- Node2&#45;&gt;Node28 -->
<g id="edge33" class="edge">
<title>Node2&#45;&gt;Node28</title>
<path fill="none" stroke="#9a32cd" stroke-dasharray="5,2" d="M821.29,-1022.55C835.64,-998.69 863.98,-957.74 900,-937 948.95,-908.81 973.12,-936.34 1025,-914 1058.8,-899.44 1092.06,-870.68 1108.09,-855.66"/>
<polygon fill="#9a32cd" stroke="#9a32cd" points="818.18,-1020.93 816.18,-1031.34 824.23,-1024.45 818.18,-1020.93"/>
<text text-anchor="middle" x="962.5" y="-1050" font-family="Helvetica,sans-Serif" font-size="10.00"> actions</text>
<text text-anchor="middle" x="962.5" y="-1039" font-family="Helvetica,sans-Serif" font-size="10.00">calculations</text>
<text text-anchor="middle" x="962.5" y="-1028" font-family="Helvetica,sans-Serif" font-size="10.00">checksums</text>
<text text-anchor="middle" x="962.5" y="-1017" font-family="Helvetica,sans-Serif" font-size="10.00">counters</text>
<text text-anchor="middle" x="962.5" y="-1006" font-family="Helvetica,sans-Serif" font-size="10.00">deparsers</text>
<text text-anchor="middle" x="962.5" y="-995" font-family="Helvetica,sans-Serif" font-size="10.00">enums</text>
<text text-anchor="middle" x="962.5" y="-984" font-family="Helvetica,sans-Serif" font-size="10.00">errors</text>
<text text-anchor="middle" x="962.5" y="-973" font-family="Helvetica,sans-Serif" font-size="10.00">externs</text>
<text text-anchor="middle" x="962.5" y="-962" font-family="Helvetica,sans-Serif" font-size="10.00">field_aliases</text>
<text text-anchor="middle" x="962.5" y="-951" font-family="Helvetica,sans-Serif" font-size="10.00">field_lists</text>
<text text-anchor="middle" x="962.5" y="-940" font-family="Helvetica,sans-Serif" font-size="10.00">...</text>
</g>
<!-- Node3 -->
<g id="node3" class="node">
<title>Node3</title>
<g id="a_node3"><a xlink:href="class_util_1_1_i_json.html" target="_top" xlink:title=" ">
<polygon fill="white" stroke="black" points="236.5,-1014.5 236.5,-1033.5 299.5,-1033.5 299.5,-1014.5 236.5,-1014.5"/>
<text text-anchor="middle" x="268" y="-1021.5" font-family="Helvetica,sans-Serif" font-size="10.00">Util::IJson</text>
</a>
</g>
</g>
<!-- Node3&#45;&gt;Node2 -->
<g id="edge2" class="edge">
<title>Node3&#45;&gt;Node2</title>
<path fill="none" stroke="midnightblue" d="M309.87,-1025.29C409.8,-1028.43 665.72,-1036.49 766.91,-1039.67"/>
<polygon fill="midnightblue" stroke="midnightblue" points="309.69,-1021.78 299.58,-1024.96 309.46,-1028.78 309.69,-1021.78"/>
</g>
<!-- Node30 -->
<g id="node30" class="node">
<title>Node30</title>
<g id="a_node30"><a xlink:href="class_util_1_1_json_object.html" target="_top" xlink:title=" ">
<polygon fill="white" stroke="black" points="470,-908.5 470,-927.5 562,-927.5 562,-908.5 470,-908.5"/>
<text text-anchor="middle" x="516" y="-915.5" font-family="Helvetica,sans-Serif" font-size="10.00">Util::JsonObject</text>
</a>
</g>
</g>
<!-- Node3&#45;&gt;Node30 -->
<g id="edge36" class="edge">
<title>Node3&#45;&gt;Node30</title>
<path fill="none" stroke="midnightblue" d="M300.71,-1010.34C351.22,-988.57 448.71,-946.57 492.61,-927.65"/>
<polygon fill="midnightblue" stroke="midnightblue" points="299.06,-1007.23 291.26,-1014.41 301.83,-1013.66 299.06,-1007.23"/>
</g>
<!-- Node4 -->
<g id="node4" class="node">
<title>Node4</title>
<g id="a_node4"><a xlink:href="class_i_castable.html" target="_top" xlink:title=" ">
<polygon fill="white" stroke="black" points="105,-1014.5 105,-1033.5 167,-1033.5 167,-1014.5 105,-1014.5"/>
<text text-anchor="middle" x="136" y="-1021.5" font-family="Helvetica,sans-Serif" font-size="10.00">ICastable</text>
</a>
</g>
</g>
<!-- Node4&#45;&gt;Node3 -->
<g id="edge3" class="edge">
<title>Node4&#45;&gt;Node3</title>
<path fill="none" stroke="midnightblue" d="M177.3,-1024C196.26,-1024 218.51,-1024 236.11,-1024"/>
<polygon fill="midnightblue" stroke="midnightblue" points="177.15,-1020.5 167.15,-1024 177.15,-1027.5 177.15,-1020.5"/>
</g>
<!-- Node5 -->
<g id="node5" class="node">
<title>Node5</title>
<g id="a_node5"><a xlink:href="struct_r_t_t_i_1_1_base.html" target="_top" xlink:title=" ">
<polygon fill="white" stroke="black" points="0,-1014.5 0,-1033.5 68,-1033.5 68,-1014.5 0,-1014.5"/>
<text text-anchor="middle" x="34" y="-1021.5" font-family="Helvetica,sans-Serif" font-size="10.00">RTTI::Base</text>
</a>
</g>
</g>
<!-- Node5&#45;&gt;Node4 -->
<g id="edge4" class="edge">
<title>Node5&#45;&gt;Node4</title>
<path fill="none" stroke="midnightblue" d="M78.28,-1024C87.19,-1024 96.39,-1024 104.72,-1024"/>
<polygon fill="midnightblue" stroke="midnightblue" points="78.02,-1020.5 68.02,-1024 78.02,-1027.5 78.02,-1020.5"/>
</g>
<!-- Node6 -->
<g id="node6" class="node">
<title>Node6</title>
<g id="a_node6"><a xlink:title=" ">
<polygon fill="white" stroke="#bfbfbf" points="467.5,-1055.5 467.5,-1074.5 564.5,-1074.5 564.5,-1055.5 467.5,-1055.5"/>
<text text-anchor="middle" x="516" y="-1062.5" font-family="Helvetica,sans-Serif" font-size="10.00">std::vector&lt; T &gt;</text>
</a>
</g>
</g>
<!-- Node6&#45;&gt;Node2 -->
<g id="edge5" class="edge">
<title>Node6&#45;&gt;Node2</title>
<path fill="none" stroke="midnightblue" d="M574.78,-1060.25C631.33,-1055.6 716.13,-1048.63 766.68,-1044.48"/>
<polygon fill="midnightblue" stroke="midnightblue" points="574.24,-1056.78 564.56,-1061.09 574.82,-1063.76 574.24,-1056.78"/>
</g>
<!-- Node15 -->
<g id="node15" class="node">
<title>Node15</title>
<g id="a_node15"><a xlink:title=" ">
<polygon fill="white" stroke="#bfbfbf" points="900,-1092.5 900,-1133.5 1025,-1133.5 1025,-1092.5 900,-1092.5"/>
<text text-anchor="start" x="908" y="-1121.5" font-family="Helvetica,sans-Serif" font-size="10.00">std::map&lt; const IR</text>
<text text-anchor="start" x="908" y="-1110.5" font-family="Helvetica,sans-Serif" font-size="10.00">::Declaration_Instance</text>
<text text-anchor="middle" x="962.5" y="-1099.5" font-family="Helvetica,sans-Serif" font-size="10.00"> *, SelectorInput &gt;</text>
</a>
</g>
</g>
<!-- Node6&#45;&gt;Node15 -->
<g id="edge17" class="edge">
<title>Node6&#45;&gt;Node15</title>
<path fill="none" stroke="#9a32cd" stroke-dasharray="5,2" d="M574.69,-1071.23C658.59,-1080.29 813.63,-1097.03 899.76,-1106.33"/>
<polygon fill="#9a32cd" stroke="#9a32cd" points="574.89,-1067.73 564.57,-1070.14 574.14,-1074.69 574.89,-1067.73"/>
<text text-anchor="middle" x="666" y="-1088" font-family="Helvetica,sans-Serif" font-size="10.00"> elements</text>
</g>
<!-- Node7 -->
<g id="node7" class="node">
<title>Node7</title>
<g id="a_node7"><a xlink:title=" ">
<polygon fill="white" stroke="#bfbfbf" points="253.5,-1055.5 253.5,-1074.5 282.5,-1074.5 282.5,-1055.5 253.5,-1055.5"/>
<text text-anchor="middle" x="268" y="-1062.5" font-family="Helvetica,sans-Serif" font-size="10.00">T</text>
</a>
</g>
</g>
<!-- Node7&#45;&gt;Node6 -->
<g id="edge6" class="edge">
<title>Node7&#45;&gt;Node6</title>
<path fill="none" stroke="#9a32cd" stroke-dasharray="5,2" d="M292.73,-1065C332.86,-1065 414.89,-1065 467.29,-1065"/>
<polygon fill="#9a32cd" stroke="#9a32cd" points="292.58,-1061.5 282.58,-1065 292.58,-1068.5 292.58,-1061.5"/>
<text text-anchor="middle" x="385" y="-1068" font-family="Helvetica,sans-Serif" font-size="10.00"> elements</text>
</g>
<!-- Node8 -->
<g id="node8" class="node">
<title>Node8</title>
<g id="a_node8"><a xlink:href="class_p4_1_1_type_map.html" target="_top" xlink:title=" ">
<polygon fill="white" stroke="black" points="1080,-677.5 1080,-696.5 1158,-696.5 1158,-677.5 1080,-677.5"/>
<text text-anchor="middle" x="1119" y="-684.5" font-family="Helvetica,sans-Serif" font-size="10.00">P4::TypeMap</text>
</a>
</g>
</g>
<!-- Node8&#45;&gt;Node1 -->
<g id="edge7" class="edge">
<title>Node8&#45;&gt;Node1</title>
<path fill="none" stroke="#9a32cd" stroke-dasharray="5,2" d="M1168.22,-696.73C1207.22,-704.6 1261.83,-715.62 1300.61,-723.44"/>
<polygon fill="#9a32cd" stroke="#9a32cd" points="1168.66,-693.25 1158.16,-694.7 1167.27,-700.11 1168.66,-693.25"/>
<text text-anchor="middle" x="1236" y="-717" font-family="Helvetica,sans-Serif" font-size="10.00"> typeMap</text>
</g>
<!-- Node9 -->
<g id="node9" class="node">
<title>Node9</title>
<g id="a_node9"><a xlink:href="class_p4_1_1_program_map.html" target="_top" xlink:title=" ">
<polygon fill="white" stroke="black" points="761.5,-681.5 761.5,-700.5 858.5,-700.5 858.5,-681.5 761.5,-681.5"/>
<text text-anchor="middle" x="810" y="-688.5" font-family="Helvetica,sans-Serif" font-size="10.00">P4::ProgramMap</text>
</a>
</g>
</g>
<!-- Node9&#45;&gt;Node8 -->
<g id="edge8" class="edge">
<title>Node9&#45;&gt;Node8</title>
<path fill="none" stroke="midnightblue" d="M869.01,-690.24C930.87,-689.44 1027.07,-688.18 1079.96,-687.5"/>
<polygon fill="midnightblue" stroke="midnightblue" points="868.59,-686.75 858.63,-690.38 868.68,-693.75 868.59,-686.75"/>
</g>
<!-- Node12 -->
<g id="node12" class="node">
<title>Node12</title>
<g id="a_node12"><a xlink:href="class_p4_1_1_reference_map.html" target="_top" xlink:title="Class used to encode maps from paths to declarations.">
<polygon fill="white" stroke="black" points="1066.5,-723.5 1066.5,-742.5 1171.5,-742.5 1171.5,-723.5 1066.5,-723.5"/>
<text text-anchor="middle" x="1119" y="-730.5" font-family="Helvetica,sans-Serif" font-size="10.00">P4::ReferenceMap</text>
</a>
</g>
</g>
<!-- Node9&#45;&gt;Node12 -->
<g id="edge13" class="edge">
<title>Node9&#45;&gt;Node12</title>
<path fill="none" stroke="midnightblue" d="M868.55,-698.87C925.44,-706.66 1011.68,-718.46 1066.41,-725.94"/>
<polygon fill="midnightblue" stroke="midnightblue" points="869.01,-695.4 858.63,-697.52 868.07,-702.34 869.01,-695.4"/>
</g>
<!-- Node10 -->
<g id="node10" class="node">
<title>Node10</title>
<g id="a_node10"><a xlink:href="class_i_has_db_print.html" target="_top" xlink:title=" ">
<polygon fill="white" stroke="black" points="479,-691.5 479,-710.5 553,-710.5 553,-691.5 479,-691.5"/>
<text text-anchor="middle" x="516" y="-698.5" font-family="Helvetica,sans-Serif" font-size="10.00">IHasDbPrint</text>
</a>
</g>
</g>
<!-- Node10&#45;&gt;Node9 -->
<g id="edge9" class="edge">
<title>Node10&#45;&gt;Node9</title>
<path fill="none" stroke="midnightblue" d="M563.11,-699.42C617.25,-697.57 706.59,-694.51 761.38,-692.63"/>
<polygon fill="midnightblue" stroke="midnightblue" points="562.97,-695.92 553.1,-699.76 563.21,-702.92 562.97,-695.92"/>
</g>
<!-- Node11 -->
<g id="node11" class="node">
<title>Node11</title>
<g id="a_node11"><a xlink:href="classcstring.html" target="_top" xlink:title=" ">
<polygon fill="white" stroke="black" points="243,-445.5 243,-464.5 293,-464.5 293,-445.5 243,-445.5"/>
<text text-anchor="middle" x="268" y="-452.5" font-family="Helvetica,sans-Serif" font-size="10.00">cstring</text>
</a>
</g>
</g>
<!-- Node11&#45;&gt;Node9 -->
<g id="edge10" class="edge">
<title>Node11&#45;&gt;Node9</title>
<path fill="none" stroke="#9a32cd" stroke-dasharray="5,2" d="M281.62,-472.96C296.55,-493.46 322.8,-527.33 350,-552 385.06,-583.8 394.48,-593.39 438,-612 548.05,-659.06 688.84,-679.12 761.25,-686.79"/>
<polygon fill="#9a32cd" stroke="#9a32cd" points="284.28,-470.65 275.6,-464.56 278.59,-474.73 284.28,-470.65"/>
<text text-anchor="middle" x="516" y="-662" font-family="Helvetica,sans-Serif" font-size="10.00"> mapKind</text>
</g>
<!-- Node11&#45;&gt;Node11 -->
<g id="edge11" class="edge">
<title>Node11&#45;&gt;Node11</title>
<path fill="none" stroke="#9a32cd" stroke-dasharray="5,2" d="M252.9,-474.77C254.09,-479.5 259.12,-483 268,-483 282.57,-483 286.79,-473.57 280.64,-464.76"/>
<polygon fill="#9a32cd" stroke="#9a32cd" points="256.37,-475.3 255.36,-464.76 249.57,-473.63 256.37,-475.3"/>
<text text-anchor="middle" x="268" y="-497" font-family="Helvetica,sans-Serif" font-size="10.00"> empty</text>
<text text-anchor="middle" x="268" y="-486" font-family="Helvetica,sans-Serif" font-size="10.00">newline</text>
</g>
<!-- Node21 -->
<g id="node21" class="node">
<title>Node21</title>
<g id="a_node21"><a xlink:title=" ">
<polygon fill="white" stroke="#bfbfbf" points="462,-159.5 462,-178.5 570,-178.5 570,-159.5 462,-159.5"/>
<text text-anchor="middle" x="516" y="-166.5" font-family="Helvetica,sans-Serif" font-size="10.00">std::set&lt; cstring &gt;</text>
</a>
</g>
</g>
<!-- Node11&#45;&gt;Node21 -->
<g id="edge24" class="edge">
<title>Node11&#45;&gt;Node21</title>
<path fill="none" stroke="#9a32cd" stroke-dasharray="5,2" d="M275.36,-435.9C292.8,-386.55 346.35,-254.02 438,-188 445.04,-182.93 453.28,-179.2 461.7,-176.47"/>
<polygon fill="#9a32cd" stroke="#9a32cd" points="272.04,-434.77 272.1,-445.37 278.66,-437.05 272.04,-434.77"/>
<text text-anchor="middle" x="385" y="-285" font-family="Helvetica,sans-Serif" font-size="10.00"> keys</text>
</g>
<!-- Node27 -->
<g id="node27" class="node">
<title>Node27</title>
<g id="a_node27"><a xlink:title=" ">
<polygon fill="white" stroke="#bfbfbf" points="449.5,-110 449.5,-140 582.5,-140 582.5,-110 449.5,-110"/>
<text text-anchor="start" x="457.5" y="-128" font-family="Helvetica,sans-Serif" font-size="10.00">std::map&lt; const IR</text>
<text text-anchor="middle" x="516" y="-117" font-family="Helvetica,sans-Serif" font-size="10.00">::StructField *, cstring &gt;</text>
</a>
</g>
</g>
<!-- Node11&#45;&gt;Node27 -->
<g id="edge31" class="edge">
<title>Node11&#45;&gt;Node27</title>
<path fill="none" stroke="#9a32cd" stroke-dasharray="5,2" d="M269.62,-435.12C272.14,-386.94 284.97,-262.46 350,-189 375.36,-160.36 415.07,-144.44 449.19,-135.64"/>
<polygon fill="#9a32cd" stroke="#9a32cd" points="266.11,-435.28 269.18,-445.42 273.1,-435.57 266.11,-435.28"/>
<text text-anchor="middle" x="385" y="-192" font-family="Helvetica,sans-Serif" font-size="10.00"> elements</text>
</g>
<!-- Node35 -->
<g id="node35" class="node">
<title>Node35</title>
<g id="a_node35"><a xlink:href="class_visitor.html" target="_top" xlink:title=" ">
<polygon fill="white" stroke="black" points="492,-554.5 492,-573.5 540,-573.5 540,-554.5 492,-554.5"/>
<text text-anchor="middle" x="516" y="-561.5" font-family="Helvetica,sans-Serif" font-size="10.00">Visitor</text>
</a>
</g>
</g>
<!-- Node11&#45;&gt;Node35 -->
<g id="edge43" class="edge">
<title>Node11&#45;&gt;Node35</title>
<path fill="none" stroke="#9a32cd" stroke-dasharray="5,2" d="M292.93,-469.88C324.95,-489.25 383.96,-523.08 438,-544 455.65,-550.83 476.46,-556.08 491.99,-559.48"/>
<polygon fill="#9a32cd" stroke="#9a32cd" points="294.63,-466.82 284.27,-464.6 290.99,-472.79 294.63,-466.82"/>
<text text-anchor="middle" x="385" y="-540" font-family="Helvetica,sans-Serif" font-size="10.00"> internalName</text>
</g>
<!-- Node12&#45;&gt;Node1 -->
<g id="edge12" class="edge">
<title>Node12&#45;&gt;Node1</title>
<path fill="none" stroke="#9a32cd" stroke-dasharray="5,2" d="M1181.83,-733C1211.09,-733 1246.2,-733 1276.59,-733"/>
<polygon fill="#9a32cd" stroke="#9a32cd" points="1181.74,-729.5 1171.74,-733 1181.74,-736.5 1181.74,-729.5"/>
<text text-anchor="middle" x="1236" y="-736" font-family="Helvetica,sans-Serif" font-size="10.00"> refMap</text>
</g>
<!-- Node13 -->
<g id="node13" class="node">
<title>Node13</title>
<g id="a_node13"><a xlink:href="class_p4_1_1_name_generator.html" target="_top" xlink:title=" ">
<polygon fill="white" stroke="black" points="753.5,-757.5 753.5,-776.5 866.5,-776.5 866.5,-757.5 753.5,-757.5"/>
<text text-anchor="middle" x="810" y="-764.5" font-family="Helvetica,sans-Serif" font-size="10.00">P4::NameGenerator</text>
</a>
</g>
</g>
<!-- Node13&#45;&gt;Node12 -->
<g id="edge14" class="edge">
<title>Node13&#45;&gt;Node12</title>
<path fill="none" stroke="midnightblue" d="M877.06,-760.08C919.37,-755.61 975.43,-749.59 1025,-744 1038.41,-742.49 1052.9,-740.8 1066.36,-739.21"/>
<polygon fill="midnightblue" stroke="midnightblue" points="876.47,-756.63 866.89,-761.16 877.2,-763.59 876.47,-756.63"/>
</g>
<!-- Node14 -->
<g id="node14" class="node">
<title>Node14</title>
<g id="a_node14"><a xlink:href="class_p4_1_1_declaration_lookup.html" target="_top" xlink:title=" ">
<polygon fill="white" stroke="black" points="747.5,-719.5 747.5,-738.5 872.5,-738.5 872.5,-719.5 747.5,-719.5"/>
<text text-anchor="middle" x="810" y="-726.5" font-family="Helvetica,sans-Serif" font-size="10.00">P4::DeclarationLookup</text>
</a>
</g>
</g>
<!-- Node14&#45;&gt;Node12 -->
<g id="edge15" class="edge">
<title>Node14&#45;&gt;Node12</title>
<path fill="none" stroke="midnightblue" d="M882.99,-729.94C939.13,-730.67 1015.76,-731.67 1066.03,-732.32"/>
<polygon fill="midnightblue" stroke="midnightblue" points="882.8,-726.44 872.76,-729.8 882.71,-733.43 882.8,-726.44"/>
</g>
<!-- Node15&#45;&gt;Node1 -->
<g id="edge16" class="edge">
<title>Node15&#45;&gt;Node1</title>
<path fill="none" stroke="#9a32cd" stroke-dasharray="5,2" d="M1034.99,-1127.69C1100.97,-1136.82 1197.74,-1138.39 1259,-1086 1313.88,-1039.07 1341.7,-794.68 1347.04,-742.72"/>
<polygon fill="#9a32cd" stroke="#9a32cd" points="1035.49,-1124.22 1025.08,-1126.23 1034.46,-1131.15 1035.49,-1124.22"/>
<text text-anchor="middle" x="1119" y="-1135" font-family="Helvetica,sans-Serif" font-size="10.00"> selector_input_map</text>
</g>
<!-- Node16 -->
<g id="node16" class="node">
<title>Node16</title>
<g id="a_node16"><a xlink:href="class_b_m_v2_1_1_program_structure.html" target="_top" xlink:title=" ">
<polygon fill="white" stroke="black" points="741.5,-288.5 741.5,-307.5 878.5,-307.5 878.5,-288.5 741.5,-288.5"/>
<text text-anchor="middle" x="810" y="-295.5" font-family="Helvetica,sans-Serif" font-size="10.00">BMV2::ProgramStructure</text>
</a>
</g>
</g>
<!-- Node16&#45;&gt;Node1 -->
<g id="edge18" class="edge">
<title>Node16&#45;&gt;Node1</title>
<path fill="none" stroke="#9a32cd" stroke-dasharray="5,2" d="M844.3,-311.33C914.44,-340.49 1080.36,-415.2 1195,-513 1271.45,-578.22 1327.81,-690 1343.56,-723.34"/>
<polygon fill="#9a32cd" stroke="#9a32cd" points="845.63,-308.09 835.06,-307.52 842.97,-314.57 845.63,-308.09"/>
<text text-anchor="middle" x="1119" y="-516" font-family="Helvetica,sans-Serif" font-size="10.00"> structure</text>
</g>
<!-- Node17 -->
<g id="node17" class="node">
<title>Node17</title>
<g id="a_node17"><a xlink:href="classordered__map.html" target="_top" xlink:title=" ">
<polygon fill="white" stroke="black" points="442,-417 442,-447 590,-447 590,-417 442,-417"/>
<text text-anchor="start" x="450" y="-435" font-family="Helvetica,sans-Serif" font-size="10.00">ordered_map&lt; const</text>
<text text-anchor="middle" x="516" y="-424" font-family="Helvetica,sans-Serif" font-size="10.00"> IR::P4Action *, unsigned &gt;</text>
</a>
</g>
</g>
<!-- Node17&#45;&gt;Node16 -->
<g id="edge19" class="edge">
<title>Node17&#45;&gt;Node16</title>
<path fill="none" stroke="#9a32cd" stroke-dasharray="5,2" d="M600.17,-414.91C638.09,-405.16 682.73,-390.85 720,-371 752.45,-353.71 784.23,-323.56 799.54,-307.97"/>
<polygon fill="#9a32cd" stroke="#9a32cd" points="599.02,-411.59 590.17,-417.42 600.72,-418.38 599.02,-411.59"/>
<text text-anchor="middle" x="666" y="-415" font-family="Helvetica,sans-Serif" font-size="10.00"> ids</text>
</g>
<!-- Node18 -->
<g id="node18" class="node">
<title>Node18</title>
<g id="a_node18"><a xlink:href="classordered__map.html" target="_top" xlink:title=" ">
<polygon fill="white" stroke="black" points="449,-356.5 449,-397.5 583,-397.5 583,-356.5 449,-356.5"/>
<text text-anchor="start" x="457" y="-385.5" font-family="Helvetica,sans-Serif" font-size="10.00">ordered_map&lt; const</text>
<text text-anchor="start" x="457" y="-374.5" font-family="Helvetica,sans-Serif" font-size="10.00"> IR::Node *, const IR</text>
<text text-anchor="middle" x="516" y="-363.5" font-family="Helvetica,sans-Serif" font-size="10.00">::CompileTimeValue * &gt;</text>
</a>
</g>
</g>
<!-- Node18&#45;&gt;Node16 -->
<g id="edge20" class="edge">
<title>Node18&#45;&gt;Node16</title>
<path fill="none" stroke="#9a32cd" stroke-dasharray="5,2" d="M593.32,-360.91C631.59,-352.35 678.51,-341.1 720,-329 741.83,-322.63 766.2,-314.04 783.9,-307.52"/>
<polygon fill="#9a32cd" stroke="#9a32cd" points="592.28,-357.55 583.27,-363.14 593.8,-364.39 592.28,-357.55"/>
<text text-anchor="middle" x="666" y="-359" font-family="Helvetica,sans-Serif" font-size="10.00"> resourceMap</text>
</g>
<!-- Node19 -->
<g id="node19" class="node">
<title>Node19</title>
<g id="a_node19"><a xlink:title=" ">
<polygon fill="white" stroke="#bfbfbf" points="438,-307 438,-337 594,-337 594,-307 438,-307"/>
<text text-anchor="start" x="446" y="-325" font-family="Helvetica,sans-Serif" font-size="10.00">std::vector&lt; const</text>
<text text-anchor="middle" x="516" y="-314" font-family="Helvetica,sans-Serif" font-size="10.00"> IR::Declaration_Variable * &gt;</text>
</a>
</g>
</g>
<!-- Node19&#45;&gt;Node16 -->
<g id="edge21" class="edge">
<title>Node19&#45;&gt;Node16</title>
<path fill="none" stroke="#9a32cd" stroke-dasharray="5,2" d="M604.2,-314.83C648.13,-311.22 700.59,-306.91 741.42,-303.55"/>
<polygon fill="#9a32cd" stroke="#9a32cd" points="603.78,-311.36 594.1,-315.66 604.35,-318.33 603.78,-311.36"/>
<text text-anchor="middle" x="666" y="-317" font-family="Helvetica,sans-Serif" font-size="10.00"> variables</text>
</g>
<!-- Node20 -->
<g id="node20" class="node">
<title>Node20</title>
<g id="a_node20"><a xlink:href="classordered__set.html" target="_top" xlink:title=" ">
<polygon fill="white" stroke="black" points="460,-258 460,-288 572,-288 572,-258 460,-258"/>
<text text-anchor="start" x="468" y="-276" font-family="Helvetica,sans-Serif" font-size="10.00">ordered_set&lt; const</text>
<text text-anchor="middle" x="516" y="-265" font-family="Helvetica,sans-Serif" font-size="10.00"> IR::Parameter * &gt;</text>
</a>
</g>
</g>
<!-- Node20&#45;&gt;Node16 -->
<g id="edge22" class="edge">
<title>Node20&#45;&gt;Node16</title>
<path fill="none" stroke="#9a32cd" stroke-dasharray="5,2" d="M582.41,-278.6C629.75,-282.65 693.54,-288.12 741.38,-292.21"/>
<polygon fill="#9a32cd" stroke="#9a32cd" points="582.53,-275.1 572.27,-277.73 581.93,-282.07 582.53,-275.1"/>
<text text-anchor="middle" x="666" y="-293" font-family="Helvetica,sans-Serif" font-size="10.00"> nonActionParameters</text>
</g>
<!-- Node21&#45;&gt;Node16 -->
<g id="edge23" class="edge">
<title>Node21&#45;&gt;Node16</title>
<path fill="none" stroke="#9a32cd" stroke-dasharray="5,2" d="M580.2,-179.1C621.66,-187.45 676.11,-201.8 720,-225 752.51,-242.18 784.26,-272.38 799.55,-288"/>
<polygon fill="#9a32cd" stroke="#9a32cd" points="580.71,-175.63 570.23,-177.15 579.37,-182.5 580.71,-175.63"/>
<text text-anchor="middle" x="666" y="-228" font-family="Helvetica,sans-Serif" font-size="10.00"> match_kinds</text>
</g>
<!-- Node22 -->
<g id="node22" class="node">
<title>Node22</title>
<g id="a_node22"><a xlink:href="classordered__map.html" target="_top" xlink:title=" ">
<polygon fill="white" stroke="black" points="456.5,-197.5 456.5,-238.5 575.5,-238.5 575.5,-197.5 456.5,-197.5"/>
<text text-anchor="start" x="464.5" y="-226.5" font-family="Helvetica,sans-Serif" font-size="10.00">ordered_map&lt; const</text>
<text text-anchor="start" x="464.5" y="-215.5" font-family="Helvetica,sans-Serif" font-size="10.00"> IR::P4Action *, const</text>
<text text-anchor="middle" x="516" y="-204.5" font-family="Helvetica,sans-Serif" font-size="10.00"> IR::P4Control * &gt;</text>
</a>
</g>
</g>
<!-- Node22&#45;&gt;Node16 -->
<g id="edge25" class="edge">
<title>Node22&#45;&gt;Node16</title>
<path fill="none" stroke="#9a32cd" stroke-dasharray="5,2" d="M585.41,-232.75C624.98,-241.72 675.59,-253.94 720,-267 741.66,-273.37 765.83,-281.88 783.51,-288.37"/>
<polygon fill="#9a32cd" stroke="#9a32cd" points="586.12,-229.32 575.59,-230.54 584.58,-236.15 586.12,-229.32"/>
<text text-anchor="middle" x="666" y="-270" font-family="Helvetica,sans-Serif" font-size="10.00"> actions</text>
</g>
<!-- Node23 -->
<g id="node23" class="node">
<title>Node23</title>
<g id="a_node23"><a xlink:href="classordered__map.html" target="_top" xlink:title=" ">
<polygon fill="white" stroke="black" points="452,-61 452,-91 580,-91 580,-61 452,-61"/>
<text text-anchor="start" x="460" y="-79" font-family="Helvetica,sans-Serif" font-size="10.00">ordered_map&lt; cstring,</text>
<text text-anchor="middle" x="516" y="-68" font-family="Helvetica,sans-Serif" font-size="10.00"> const IR::P4Table * &gt;</text>
</a>
</g>
</g>
<!-- Node23&#45;&gt;Node16 -->
<g id="edge26" class="edge">
<title>Node23&#45;&gt;Node16</title>
<path fill="none" stroke="#9a32cd" stroke-dasharray="5,2" d="M590.31,-76.25C632.1,-79.87 683.3,-90.57 720,-119 778.44,-164.27 801.25,-258.12 807.26,-288.38"/>
<polygon fill="#9a32cd" stroke="#9a32cd" points="590.41,-72.74 580.17,-75.49 589.89,-79.73 590.41,-72.74"/>
<text text-anchor="middle" x="666" y="-122" font-family="Helvetica,sans-Serif" font-size="10.00"> directCounterMap</text>
</g>
<!-- Node24 -->
<g id="node24" class="node">
<title>Node24</title>
<g id="a_node24"><a xlink:href="classordered__map.html" target="_top" xlink:title=" ">
<polygon fill="white" stroke="black" points="456.5,-0.5 456.5,-41.5 575.5,-41.5 575.5,-0.5 456.5,-0.5"/>
<text text-anchor="start" x="464.5" y="-29.5" font-family="Helvetica,sans-Serif" font-size="10.00">ordered_map&lt; const</text>
<text text-anchor="start" x="464.5" y="-18.5" font-family="Helvetica,sans-Serif" font-size="10.00"> IR::IDeclaration *,</text>
<text text-anchor="middle" x="516" y="-7.5" font-family="Helvetica,sans-Serif" font-size="10.00"> unsigned int &gt;</text>
</a>
</g>
</g>
<!-- Node24&#45;&gt;Node16 -->
<g id="edge27" class="edge">
<title>Node24&#45;&gt;Node16</title>
<path fill="none" stroke="#9a32cd" stroke-dasharray="5,2" d="M585.72,-19.96C628.88,-22.82 683.15,-33.35 720,-65 791.61,-126.51 805.8,-252.22 808.43,-288.19"/>
<polygon fill="#9a32cd" stroke="#9a32cd" points="585.74,-16.45 575.57,-19.41 585.36,-23.44 585.74,-16.45"/>
<text text-anchor="middle" x="666" y="-68" font-family="Helvetica,sans-Serif" font-size="10.00"> errorCodesMap</text>
</g>
<!-- Node25 -->
<g id="node25" class="node">
<title>Node25</title>
<g id="a_node25"><a xlink:href="classordered__map.html" target="_top" xlink:title=" ">
<polygon fill="white" stroke="black" points="438.5,-505 438.5,-535 593.5,-535 593.5,-505 438.5,-505"/>
<text text-anchor="start" x="446.5" y="-523" font-family="Helvetica,sans-Serif" font-size="10.00">ordered_map&lt; const</text>
<text text-anchor="middle" x="516" y="-512" font-family="Helvetica,sans-Serif" font-size="10.00"> IR::Parameter *, unsigned &gt;</text>
</a>
</g>
</g>
<!-- Node25&#45;&gt;Node16 -->
<g id="edge28" class="edge">
<title>Node25&#45;&gt;Node16</title>
<path fill="none" stroke="#9a32cd" stroke-dasharray="5,2" d="M603.71,-511.6C650.2,-505.59 701.62,-496.05 720,-482 780.33,-435.88 801.99,-338.29 807.47,-307.51"/>
<polygon fill="#9a32cd" stroke="#9a32cd" points="603.06,-508.15 593.57,-512.86 603.93,-515.1 603.06,-508.15"/>
<text text-anchor="middle" x="666" y="-513" font-family="Helvetica,sans-Serif" font-size="10.00"> index</text>
</g>
<!-- Node26 -->
<g id="node26" class="node">
<title>Node26</title>
<g id="a_node26"><a xlink:href="class_b_m_v2_1_1_direct_meter_map.html" target="_top" xlink:title=" ">
<polygon fill="white" stroke="black" points="451,-466.5 451,-485.5 581,-485.5 581,-466.5 451,-466.5"/>
<text text-anchor="middle" x="516" y="-473.5" font-family="Helvetica,sans-Serif" font-size="10.00">BMV2::DirectMeterMap</text>
</a>
</g>
</g>
<!-- Node26&#45;&gt;Node16 -->
<g id="edge29" class="edge">
<title>Node26&#45;&gt;Node16</title>
<path fill="none" stroke="#9a32cd" stroke-dasharray="5,2" d="M591.2,-471.01C632.13,-465.25 682.18,-452.98 720,-427 765.98,-395.42 795.39,-331.7 805.28,-307.56"/>
<polygon fill="#9a32cd" stroke="#9a32cd" points="590.73,-467.54 581.27,-472.31 591.64,-474.48 590.73,-467.54"/>
<text text-anchor="middle" x="666" y="-470" font-family="Helvetica,sans-Serif" font-size="10.00"> directMeterMap</text>
</g>
<!-- Node27&#45;&gt;Node16 -->
<g id="edge30" class="edge">
<title>Node27&#45;&gt;Node16</title>
<path fill="none" stroke="#9a32cd" stroke-dasharray="5,2" d="M592.67,-129.52C633.26,-135 682.49,-146.8 720,-172 765.35,-202.47 794.94,-264.39 805.09,-288.29"/>
<polygon fill="#9a32cd" stroke="#9a32cd" points="592.9,-126.03 582.55,-128.26 592.04,-132.97 592.9,-126.03"/>
<text text-anchor="middle" x="666" y="-175" font-family="Helvetica,sans-Serif" font-size="10.00"> scalarMetadataFields</text>
</g>
<!-- Node28&#45;&gt;Node1 -->
<g id="edge32" class="edge">
<title>Node28&#45;&gt;Node1</title>
<path fill="none" stroke="#9a32cd" stroke-dasharray="5,2" d="M1148.48,-831.88C1195.55,-808.56 1288.35,-762.56 1328.61,-742.61"/>
<polygon fill="#9a32cd" stroke="#9a32cd" points="1146.84,-828.79 1139.44,-836.37 1149.95,-835.06 1146.84,-828.79"/>
<text text-anchor="middle" x="1236" y="-802" font-family="Helvetica,sans-Serif" font-size="10.00"> json</text>
</g>
<!-- Node29 -->
<g id="node29" class="node">
<title>Node29</title>
<g id="a_node29"><a xlink:title=" ">
<polygon fill="white" stroke="#bfbfbf" points="751,-903 751,-933 869,-933 869,-903 751,-903"/>
<text text-anchor="start" x="759" y="-921" font-family="Helvetica,sans-Serif" font-size="10.00">std::map&lt; unsigned,</text>
<text text-anchor="middle" x="810" y="-910" font-family="Helvetica,sans-Serif" font-size="10.00"> Util::JsonObject * &gt;</text>
</a>
</g>
</g>
<!-- Node29&#45;&gt;Node28 -->
<g id="edge34" class="edge">
<title>Node29&#45;&gt;Node28</title>
<path fill="none" stroke="#9a32cd" stroke-dasharray="5,2" d="M868.98,-900.13C879.27,-897.23 889.91,-894.4 900,-892 954.96,-878.95 969.78,-880.9 1025,-869 1043.7,-864.97 1064.36,-859.92 1081.46,-855.58"/>
<polygon fill="#9a32cd" stroke="#9a32cd" points="867.91,-896.8 859.26,-902.93 869.84,-903.53 867.91,-896.8"/>
<text text-anchor="middle" x="962.5" y="-906" font-family="Helvetica,sans-Serif" font-size="10.00"> map_parser</text>
<text text-anchor="middle" x="962.5" y="-895" font-family="Helvetica,sans-Serif" font-size="10.00">map_parser_state</text>
</g>
<!-- Node30&#45;&gt;Node28 -->
<g id="edge39" class="edge">
<title>Node30&#45;&gt;Node28</title>
<path fill="none" stroke="#9a32cd" stroke-dasharray="5,2" d="M541.6,-903.44C581.29,-880.9 662.64,-838.51 738,-823 859.06,-798.08 1006.02,-821.84 1076.45,-836.46"/>
<polygon fill="#9a32cd" stroke="#9a32cd" points="539.81,-900.44 532.88,-908.46 543.3,-906.51 539.81,-900.44"/>
<text text-anchor="middle" x="810" y="-837" font-family="Helvetica,sans-Serif" font-size="10.00"> meta</text>
<text text-anchor="middle" x="810" y="-826" font-family="Helvetica,sans-Serif" font-size="10.00">toplevel</text>
</g>
<!-- Node30&#45;&gt;Node29 -->
<g id="edge35" class="edge">
<title>Node30&#45;&gt;Node29</title>
<path fill="none" stroke="#9a32cd" stroke-dasharray="5,2" d="M572.49,-918C623.5,-918 698.87,-918 750.74,-918"/>
<polygon fill="#9a32cd" stroke="#9a32cd" points="572.3,-914.5 562.3,-918 572.3,-921.5 572.3,-914.5"/>
<text text-anchor="middle" x="666" y="-921" font-family="Helvetica,sans-Serif" font-size="10.00"> elements</text>
</g>
<!-- Node31 -->
<g id="node31" class="node">
<title>Node31</title>
<g id="a_node31"><a xlink:href="classordered__map.html" target="_top" xlink:title=" ">
<polygon fill="white" stroke="black" points="204,-903 204,-933 332,-933 332,-903 204,-903"/>
<text text-anchor="start" x="212" y="-921" font-family="Helvetica,sans-Serif" font-size="10.00">ordered_map&lt; cstring,</text>
<text text-anchor="middle" x="268" y="-910" font-family="Helvetica,sans-Serif" font-size="10.00"> IJson * &gt;</text>
</a>
</g>
</g>
<!-- Node31&#45;&gt;Node30 -->
<g id="edge37" class="edge">
<title>Node31&#45;&gt;Node30</title>
<path fill="none" stroke="midnightblue" d="M342.1,-918C383.62,-918 434.27,-918 469.99,-918"/>
<polygon fill="midnightblue" stroke="midnightblue" points="342.03,-914.5 332.03,-918 342.03,-921.5 342.03,-914.5"/>
</g>
<!-- Node32 -->
<g id="node32" class="node">
<title>Node32</title>
<g id="a_node32"><a xlink:href="classordered__map.html" target="_top" xlink:title=" ">
<polygon fill="white" stroke="black" points="738,-854 738,-884 882,-884 882,-854 738,-854"/>
<text text-anchor="start" x="746" y="-872" font-family="Helvetica,sans-Serif" font-size="10.00">ordered_map&lt; std::string,</text>
<text text-anchor="middle" x="810" y="-861" font-family="Helvetica,sans-Serif" font-size="10.00"> unsigned &gt;</text>
</a>
</g>
</g>
<!-- Node32&#45;&gt;Node28 -->
<g id="edge38" class="edge">
<title>Node32&#45;&gt;Node28</title>
<path fill="none" stroke="#9a32cd" stroke-dasharray="5,2" d="M872.63,-851.76C881.74,-849.8 891.07,-848.11 900,-847 955.96,-840.06 1020.63,-840.86 1064.91,-842.74"/>
<polygon fill="#9a32cd" stroke="#9a32cd" points="871.82,-848.36 862.85,-853.99 873.38,-855.18 871.82,-848.36"/>
<text text-anchor="middle" x="962.5" y="-861" font-family="Helvetica,sans-Serif" font-size="10.00"> header_type_id</text>
<text text-anchor="middle" x="962.5" y="-850" font-family="Helvetica,sans-Serif" font-size="10.00">union_type_id</text>
</g>
<!-- Node33 -->
<g id="node33" class="node">
<title>Node33</title>
<g id="a_node33"><a xlink:href="class_b_m_v2_1_1_expression_converter.html" target="_top" xlink:title=" ">
<polygon fill="white" stroke="black" points="1043,-533.5 1043,-552.5 1195,-552.5 1195,-533.5 1043,-533.5"/>
<text text-anchor="middle" x="1119" y="-540.5" font-family="Helvetica,sans-Serif" font-size="10.00">BMV2::ExpressionConverter</text>
</a>
</g>
</g>
<!-- Node33&#45;&gt;Node1 -->
<g id="edge40" class="edge">
<title>Node33&#45;&gt;Node1</title>
<path fill="none" stroke="#9a32cd" stroke-dasharray="5,2" d="M1150.27,-557.16C1164.4,-564.36 1181.13,-573.76 1195,-584 1256.44,-629.38 1318.07,-698.21 1339.8,-723.36"/>
<polygon fill="#9a32cd" stroke="#9a32cd" points="1151.47,-553.86 1140.96,-552.54 1148.36,-560.13 1151.47,-553.86"/>
<text text-anchor="middle" x="1236" y="-640" font-family="Helvetica,sans-Serif" font-size="10.00"> conv</text>
</g>
<!-- Node34 -->
<g id="node34" class="node">
<title>Node34</title>
<g id="a_node34"><a xlink:href="class_inspector.html" target="_top" xlink:title=" ">
<polygon fill="white" stroke="black" points="779,-500.5 779,-519.5 841,-519.5 841,-500.5 779,-500.5"/>
<text text-anchor="middle" x="810" y="-507.5" font-family="Helvetica,sans-Serif" font-size="10.00">Inspector</text>
</a>
</g>
</g>
<!-- Node34&#45;&gt;Node33 -->
<g id="edge41" class="edge">
<title>Node34&#45;&gt;Node33</title>
<path fill="none" stroke="midnightblue" d="M851.39,-514.34C899.94,-519.56 982.39,-528.42 1042.77,-534.91"/>
<polygon fill="midnightblue" stroke="midnightblue" points="851.59,-510.84 841.28,-513.25 850.85,-517.8 851.59,-510.84"/>
</g>
<!-- Node35&#45;&gt;Node34 -->
<g id="edge42" class="edge">
<title>Node35&#45;&gt;Node34</title>
<path fill="none" stroke="midnightblue" d="M549.88,-557.24C568.16,-553.53 591.32,-548.9 612,-545 671.05,-533.85 740.26,-521.79 778.93,-515.14"/>
<polygon fill="midnightblue" stroke="midnightblue" points="549.11,-553.83 540.01,-559.25 550.51,-560.69 549.11,-553.83"/>
</g>
<!-- Node35&#45;&gt;Node35 -->
<g id="edge49" class="edge">
<title>Node35&#45;&gt;Node35</title>
<path fill="none" stroke="#9a32cd" stroke-dasharray="5,2" d="M491.82,-583.03C493.14,-588.13 501.2,-592 516,-592 539.11,-592 545.78,-582.57 536.04,-573.76"/>
<polygon fill="#9a32cd" stroke="#9a32cd" points="495.08,-584.31 495.96,-573.76 488.69,-581.46 495.08,-584.31"/>
<text text-anchor="middle" x="516" y="-595" font-family="Helvetica,sans-Serif" font-size="10.00"> called_by</text>
</g>
<!-- Node36 -->
<g id="node36" class="node">
<title>Node36</title>
<g id="a_node36"><a xlink:href="class_split_flow_visit__base.html" target="_top" xlink:title=" ">
<polygon fill="white" stroke="black" points="1063,-593.5 1063,-612.5 1175,-612.5 1175,-593.5 1063,-593.5"/>
<text text-anchor="middle" x="1119" y="-600.5" font-family="Helvetica,sans-Serif" font-size="10.00">SplitFlowVisit_base</text>
</a>
</g>
</g>
<!-- Node35&#45;&gt;Node36 -->
<g id="edge48" class="edge">
<title>Node35&#45;&gt;Node36</title>
<path fill="none" stroke="#9a32cd" stroke-dasharray="5,2" d="M550.46,-563.8C593.75,-563.56 671.5,-563.15 738,-563 802,-562.86 818.19,-558.12 882,-563 946.12,-567.9 961.64,-574 1025,-585 1039.91,-587.59 1056.11,-590.64 1070.75,-593.49"/>
<polygon fill="#9a32cd" stroke="#9a32cd" points="550.21,-560.3 540.23,-563.86 550.25,-567.3 550.21,-560.3"/>
<text text-anchor="middle" x="810" y="-566" font-family="Helvetica,sans-Serif" font-size="10.00"> v</text>
</g>
<!-- Node37 -->
<g id="node37" class="node">
<title>Node37</title>
<g id="a_node37"><a xlink:title=" ">
<polygon fill="white" stroke="#bfbfbf" points="744.5,-643.5 744.5,-662.5 875.5,-662.5 875.5,-643.5 744.5,-643.5"/>
<text text-anchor="middle" x="810" y="-650.5" font-family="Helvetica,sans-Serif" font-size="10.00">std::vector&lt; Visitor * &gt;</text>
</a>
</g>
</g>
<!-- Node35&#45;&gt;Node37 -->
<g id="edge47" class="edge">
<title>Node35&#45;&gt;Node37</title>
<path fill="none" stroke="#9a32cd" stroke-dasharray="5,2" d="M540.56,-578.87C559.27,-590.06 586.45,-604.96 612,-614 625.52,-618.78 703.01,-633.52 756.67,-643.45"/>
<polygon fill="#9a32cd" stroke="#9a32cd" points="542.21,-575.77 531.85,-573.56 538.57,-581.75 542.21,-575.77"/>
<text text-anchor="middle" x="666" y="-639" font-family="Helvetica,sans-Serif" font-size="10.00"> elements</text>
</g>
<!-- Node36&#45;&gt;Node35 -->
<g id="edge44" class="edge">
<title>Node36&#45;&gt;Node35</title>
<path fill="none" stroke="#9a32cd" stroke-dasharray="5,2" d="M1052.87,-598.77C920.41,-590.18 625.03,-571.01 540.19,-565.5"/>
<polygon fill="#9a32cd" stroke="#9a32cd" points="1052.67,-602.27 1062.88,-599.42 1053.13,-595.28 1052.67,-602.27"/>
<text text-anchor="middle" x="810" y="-601" font-family="Helvetica,sans-Serif" font-size="10.00"> split_link</text>
<text text-anchor="middle" x="810" y="-590" font-family="Helvetica,sans-Serif" font-size="10.00">split_link_mem</text>
</g>
<!-- Node36&#45;&gt;Node36 -->
<g id="edge45" class="edge">
<title>Node36&#45;&gt;Node36</title>
<path fill="none" stroke="#9a32cd" stroke-dasharray="5,2" d="M1097.52,-622.4C1098.95,-627.31 1106.11,-631 1119,-631 1139.62,-631 1145.58,-621.57 1136.88,-612.76"/>
<polygon fill="#9a32cd" stroke="#9a32cd" points="1100.9,-623.35 1101.12,-612.76 1094.34,-620.9 1100.9,-623.35"/>
<text text-anchor="middle" x="1119" y="-634" font-family="Helvetica,sans-Serif" font-size="10.00"> prev</text>
</g>
<!-- Node37&#45;&gt;Node36 -->
<g id="edge46" class="edge">
<title>Node37&#45;&gt;Node36</title>
<path fill="none" stroke="#9a32cd" stroke-dasharray="5,2" d="M879.52,-641.84C934.79,-632.84 1011.5,-620.35 1062.85,-611.98"/>
<polygon fill="#9a32cd" stroke="#9a32cd" points="878.77,-638.42 869.47,-643.48 879.9,-645.32 878.77,-638.42"/>
<text text-anchor="middle" x="962.5" y="-641" font-family="Helvetica,sans-Serif" font-size="10.00"> visitors</text>
</g>
</g>
</svg>
        <g id="navigator" transform="translate(0 0)" fill="#404254">
                <rect fill="#f2f5e9" fill-opacity="0.5" stroke="#606060" stroke-width=".5" x="0" y="0" width="60" height="60"/>
                <use id="zoomplus" xlink:href="#zoomPlus" x="17" y="9" onmousedown="handleZoom(evt,'in')"/>
                <use id="zoomminus" xlink:href="#zoomMin" x="42" y="9" onmousedown="handleZoom(evt,'out')"/>
                <use id="reset" xlink:href="#resetDef" x="30" y="36" onmousedown="handleReset()"/>
                <g id="arrowUp" xlink:href="#dirArrow" transform="translate(30 24)" onmousedown="handlePan(0,-1)">
                  <use xlink:href="#rim" fill="#404040">
                        <set attributeName="fill" to="#808080" begin="arrowUp.mouseover" end="arrowUp.mouseout"/>
                  </use>
                  <path fill="none" stroke="white" stroke-width="1.5" d="M0,-3.0v7 M-2.5,-0.5L0,-3.0L2.5,-0.5"/>
                </g>
                <g id="arrowRight" xlink:href="#dirArrow" transform="rotate(90) translate(36 -43)" onmousedown="handlePan(1,0)">
                  <use xlink:href="#rim" fill="#404040">
                        <set attributeName="fill" to="#808080" begin="arrowRight.mouseover" end="arrowRight.mouseout"/>
                  </use>
                  <path fill="none" stroke="white" stroke-width="1.5" d="M0,-3.0v7 M-2.5,-0.5L0,-3.0L2.5,-0.5"/>
                </g>
                <g id="arrowDown" xlink:href="#dirArrow" transform="rotate(180) translate(-30 -48)" onmousedown="handlePan(0,1)">
                  <use xlink:href="#rim" fill="#404040">
                        <set attributeName="fill" to="#808080" begin="arrowDown.mouseover" end="arrowDown.mouseout"/>
                  </use>
                  <path fill="none" stroke="white" stroke-width="1.5" d="M0,-3.0v7 M-2.5,-0.5L0,-3.0L2.5,-0.5"/>
                </g>
                <g id="arrowLeft" xlink:href="#dirArrow" transform="rotate(270) translate(-36 17)" onmousedown="handlePan(-1,0)">
                  <use xlink:href="#rim" fill="#404040">
                        <set attributeName="fill" to="#808080" begin="arrowLeft.mouseover" end="arrowLeft.mouseout"/>
                  </use>
                  <path fill="none" stroke="white" stroke-width="1.5" d="M0,-3.0v7 M-2.5,-0.5L0,-3.0L2.5,-0.5"/>
                </g>
        </g>
        <svg viewBox="0 0 15 15" width="100%" height="30px" preserveAspectRatio="xMaxYMin meet">
         <g id="arrow_out" transform="scale(0.3 0.3)">
          <a xlink:href="struct_b_m_v2_1_1_conversion_context__coll__graph_org.svg" target="_base">
           <rect id="button" ry="5" rx="5" y="6" x="6" height="38" width="38"
                fill="#f2f5e9" fill-opacity="0.5" stroke="#606060" stroke-width="1.0"/>
           <path id="arrow"
             d="M 11.500037,31.436501 C 11.940474,20.09759 22.043105,11.32322 32.158766,21.979434 L 37.068811,17.246167 C 37.068811,17.246167 37.088388,32 37.088388,32 L 22.160133,31.978069 C 22.160133,31.978069 26.997745,27.140456 26.997745,27.140456 C 18.528582,18.264221 13.291696,25.230495 11.500037,31.436501 z"
             style="fill:#404040;"/>
          </a>
         </g>
        </svg>
</svg>
