<?xml version="1.0" encoding="UTF-8" standalone="no"?>
<!DOCTYPE svg PUBLIC "-//W3C//DTD SVG 1.1//EN"
 "http://www.w3.org/Graphics/SVG/1.1/DTD/svg11.dtd">
<!-- Generated by graphviz version 2.43.0 (0)
 -->
<!-- Title: P4V1::DirectMeter_Model Pages: 1 -->
<svg width="480pt" height="456pt"
 viewBox="0.00 0.00 479.50 456.00" xmlns="http://www.w3.org/2000/svg" xmlns:xlink="http://www.w3.org/1999/xlink">
<g id="graph0" class="graph" transform="scale(1 1) rotate(0) translate(4 452)">
<title>P4V1::DirectMeter_Model</title>
<polygon fill="white" stroke="transparent" points="-4,4 -4,-452 475.5,-452 475.5,4 -4,4"/>
<!-- Node1 -->
<g id="node1" class="node">
<title>Node1</title>
<g id="a_node1"><a xlink:title=" ">
<polygon fill="#bfbfbf" stroke="black" points="316.5,-0.5 316.5,-19.5 456.5,-19.5 456.5,-0.5 316.5,-0.5"/>
<text text-anchor="middle" x="386.5" y="-7.5" font-family="Helvetica,sans-Serif" font-size="10.00">P4V1::DirectMeter_Model</text>
</a>
</g>
</g>
<!-- Node2 -->
<g id="node2" class="node">
<title>Node2</title>
<g id="a_node2"><a xlink:href="struct_p4_v1_1_1_counter_or_meter___model.html" target="_top" xlink:title=" ">
<polygon fill="white" stroke="black" points="261,-57.5 261,-87.5 386,-87.5 386,-57.5 261,-57.5"/>
<text text-anchor="start" x="269" y="-75.5" font-family="Helvetica,sans-Serif" font-size="10.00">P4V1::CounterOrMeter</text>
<text text-anchor="middle" x="323.5" y="-64.5" font-family="Helvetica,sans-Serif" font-size="10.00">_Model</text>
</a>
</g>
</g>
<!-- Node2&#45;&gt;Node1 -->
<g id="edge1" class="edge">
<title>Node2&#45;&gt;Node1</title>
<path fill="none" stroke="midnightblue" d="M345.41,-50.46C356.47,-39.84 369.27,-27.55 377.61,-19.54"/>
<polygon fill="midnightblue" stroke="midnightblue" points="342.9,-48.02 338.11,-57.47 347.75,-53.07 342.9,-48.02"/>
</g>
<!-- Node3 -->
<g id="node3" class="node">
<title>Node3</title>
<g id="a_node3"><a xlink:href="struct_model_1_1_extern___model.html" target="_top" xlink:title="Extern_Model : Type_Model.">
<polygon fill="white" stroke="black" points="230,-173.5 230,-192.5 349,-192.5 349,-173.5 230,-173.5"/>
<text text-anchor="middle" x="289.5" y="-180.5" font-family="Helvetica,sans-Serif" font-size="10.00">Model::Extern_Model</text>
</a>
</g>
</g>
<!-- Node3&#45;&gt;Node2 -->
<g id="edge2" class="edge">
<title>Node3&#45;&gt;Node2</title>
<path fill="none" stroke="midnightblue" d="M300.23,-164.33C301.81,-161.29 303.3,-158.1 304.5,-155 313.28,-132.23 318.72,-104.24 321.42,-87.7"/>
<polygon fill="midnightblue" stroke="midnightblue" points="297.03,-162.88 295.15,-173.3 303.12,-166.32 297.03,-162.88"/>
</g>
<!-- Node4 -->
<g id="node4" class="node">
<title>Node4</title>
<g id="a_node4"><a xlink:href="struct_model_1_1_type___model.html" target="_top" xlink:title=" ">
<polygon fill="white" stroke="black" points="210.5,-302.5 210.5,-321.5 320.5,-321.5 320.5,-302.5 210.5,-302.5"/>
<text text-anchor="middle" x="265.5" y="-309.5" font-family="Helvetica,sans-Serif" font-size="10.00">Model::Type_Model</text>
</a>
</g>
</g>
<!-- Node4&#45;&gt;Node3 -->
<g id="edge3" class="edge">
<title>Node4&#45;&gt;Node3</title>
<path fill="none" stroke="midnightblue" d="M271.19,-292.49C275.79,-276.8 282.04,-253.64 285.5,-233 287.84,-219.03 288.83,-202.57 289.23,-192.73"/>
<polygon fill="midnightblue" stroke="midnightblue" points="267.73,-291.86 268.2,-302.45 274.43,-293.87 267.73,-291.86"/>
</g>
<!-- Node8 -->
<g id="node8" class="node">
<title>Node8</title>
<g id="a_node8"><a xlink:href="struct_model_1_1_enum___model.html" target="_top" xlink:title="Enum_Model : Type_Model.">
<polygon fill="white" stroke="black" points="160.5,-212.5 160.5,-231.5 276.5,-231.5 276.5,-212.5 160.5,-212.5"/>
<text text-anchor="middle" x="218.5" y="-219.5" font-family="Helvetica,sans-Serif" font-size="10.00">Model::Enum_Model</text>
</a>
</g>
</g>
<!-- Node4&#45;&gt;Node8 -->
<g id="edge9" class="edge">
<title>Node4&#45;&gt;Node8</title>
<path fill="none" stroke="midnightblue" d="M256.04,-293.28C246.07,-274.62 230.78,-246 223.16,-231.72"/>
<polygon fill="midnightblue" stroke="midnightblue" points="253.02,-295.07 260.82,-302.24 259.2,-291.77 253.02,-295.07"/>
</g>
<!-- Node5 -->
<g id="node5" class="node">
<title>Node5</title>
<g id="a_node5"><a xlink:href="struct_model_1_1_elem.html" target="_top" xlink:title=" ">
<polygon fill="white" stroke="black" points="227,-359.5 227,-378.5 304,-378.5 304,-359.5 227,-359.5"/>
<text text-anchor="middle" x="265.5" y="-366.5" font-family="Helvetica,sans-Serif" font-size="10.00">Model::Elem</text>
</a>
</g>
</g>
<!-- Node5&#45;&gt;Node1 -->
<g id="edge15" class="edge">
<title>Node5&#45;&gt;Node1</title>
<path fill="none" stroke="#9a32cd" stroke-dasharray="5,2" d="M314.36,-362.83C367.96,-355.77 446.5,-340.69 446.5,-313 446.5,-313 446.5,-313 446.5,-71.5 446.5,-47.39 422.18,-29.45 404.5,-19.61"/>
<polygon fill="#9a32cd" stroke="#9a32cd" points="313.81,-359.37 304.33,-364.1 314.69,-366.32 313.81,-359.37"/>
<text text-anchor="middle" x="459" y="-180.5" font-family="Helvetica,sans-Serif" font-size="10.00"> read</text>
</g>
<!-- Node5&#45;&gt;Node2 -->
<g id="edge11" class="edge">
<title>Node5&#45;&gt;Node2</title>
<path fill="none" stroke="#9a32cd" stroke-dasharray="5,2" d="M313.97,-359.68C339.06,-352.3 364.5,-338.52 364.5,-313 364.5,-313 364.5,-313 364.5,-144 364.5,-122.05 349.47,-100.84 337.61,-87.51"/>
<polygon fill="#9a32cd" stroke="#9a32cd" points="312.84,-356.36 304.06,-362.3 314.62,-363.13 312.84,-356.36"/>
<text text-anchor="middle" x="391.5" y="-225" font-family="Helvetica,sans-Serif" font-size="10.00"> sizeParam</text>
<text text-anchor="middle" x="391.5" y="-214" font-family="Helvetica,sans-Serif" font-size="10.00">typeParam</text>
</g>
<!-- Node5&#45;&gt;Node4 -->
<g id="edge4" class="edge">
<title>Node5&#45;&gt;Node4</title>
<path fill="none" stroke="midnightblue" d="M265.5,-349.12C265.5,-339.82 265.5,-329.06 265.5,-321.71"/>
<polygon fill="midnightblue" stroke="midnightblue" points="262,-349.41 265.5,-359.41 269,-349.41 262,-349.41"/>
</g>
<!-- Node7 -->
<g id="node7" class="node">
<title>Node7</title>
<g id="a_node7"><a xlink:href="struct_p4_v1_1_1_counter_type___model.html" target="_top" xlink:title=" ">
<polygon fill="white" stroke="black" points="0,-135.5 0,-154.5 143,-154.5 143,-135.5 0,-135.5"/>
<text text-anchor="middle" x="71.5" y="-142.5" font-family="Helvetica,sans-Serif" font-size="10.00">P4V1::CounterType_Model</text>
</a>
</g>
</g>
<!-- Node5&#45;&gt;Node7 -->
<g id="edge10" class="edge">
<title>Node5&#45;&gt;Node7</title>
<path fill="none" stroke="#9a32cd" stroke-dasharray="5,2" d="M227.5,-356C193.42,-343.34 144.45,-320.15 115.5,-284 82.96,-243.37 74.28,-178.22 72.14,-154.77"/>
<polygon fill="#9a32cd" stroke="#9a32cd" points="226.53,-359.37 237.13,-359.44 228.89,-352.78 226.53,-359.37"/>
<text text-anchor="middle" x="134.5" y="-276" font-family="Helvetica,sans-Serif" font-size="10.00"> both</text>
<text text-anchor="middle" x="134.5" y="-265" font-family="Helvetica,sans-Serif" font-size="10.00">bytes</text>
<text text-anchor="middle" x="134.5" y="-254" font-family="Helvetica,sans-Serif" font-size="10.00">packets</text>
</g>
<!-- Node9 -->
<g id="node9" class="node">
<title>Node9</title>
<g id="a_node9"><a xlink:href="struct_p4_v1_1_1_meter_type___model.html" target="_top" xlink:title=" ">
<polygon fill="white" stroke="black" points="161.5,-135.5 161.5,-154.5 295.5,-154.5 295.5,-135.5 161.5,-135.5"/>
<text text-anchor="middle" x="228.5" y="-142.5" font-family="Helvetica,sans-Serif" font-size="10.00">P4V1::MeterType_Model</text>
</a>
</g>
</g>
<!-- Node5&#45;&gt;Node9 -->
<g id="edge14" class="edge">
<title>Node5&#45;&gt;Node9</title>
<path fill="none" stroke="#9a32cd" stroke-dasharray="5,2" d="M241,-353.99C228.16,-345.82 212.8,-334.64 201.5,-322 171.25,-288.18 162.99,-276.89 151.5,-233 149.02,-223.54 147.38,-219.87 151.5,-211 163.73,-184.66 192.48,-165.15 211.18,-154.69"/>
<polygon fill="#9a32cd" stroke="#9a32cd" points="239.45,-357.15 249.81,-359.39 243.11,-351.18 239.45,-357.15"/>
<text text-anchor="middle" x="190.5" y="-270.5" font-family="Helvetica,sans-Serif" font-size="10.00"> bytes</text>
<text text-anchor="middle" x="190.5" y="-259.5" font-family="Helvetica,sans-Serif" font-size="10.00">packets</text>
</g>
<!-- Node6 -->
<g id="node6" class="node">
<title>Node6</title>
<g id="a_node6"><a xlink:href="classcstring.html" target="_top" xlink:title=" ">
<polygon fill="white" stroke="black" points="240.5,-427.5 240.5,-446.5 290.5,-446.5 290.5,-427.5 240.5,-427.5"/>
<text text-anchor="middle" x="265.5" y="-434.5" font-family="Helvetica,sans-Serif" font-size="10.00">cstring</text>
</a>
</g>
</g>
<!-- Node6&#45;&gt;Node5 -->
<g id="edge5" class="edge">
<title>Node6&#45;&gt;Node5</title>
<path fill="none" stroke="#9a32cd" stroke-dasharray="5,2" d="M265.5,-417.04C265.5,-404.47 265.5,-388.56 265.5,-378.84"/>
<polygon fill="#9a32cd" stroke="#9a32cd" points="262,-417.37 265.5,-427.37 269,-417.37 262,-417.37"/>
<text text-anchor="middle" x="281" y="-400" font-family="Helvetica,sans-Serif" font-size="10.00"> name</text>
</g>
<!-- Node6&#45;&gt;Node6 -->
<g id="edge6" class="edge">
<title>Node6&#45;&gt;Node6</title>
<path fill="none" stroke="#9a32cd" stroke-dasharray="5,2" d="M300.95,-442.58C305.5,-441.61 308.5,-439.75 308.5,-437 308.5,-432.48 300.41,-430.37 290.68,-430.65"/>
<polygon fill="#9a32cd" stroke="#9a32cd" points="300.39,-439.11 290.68,-443.35 300.91,-446.1 300.39,-439.11"/>
<text text-anchor="middle" x="328" y="-440" font-family="Helvetica,sans-Serif" font-size="10.00"> empty</text>
<text text-anchor="middle" x="328" y="-429" font-family="Helvetica,sans-Serif" font-size="10.00">newline</text>
</g>
<!-- Node7&#45;&gt;Node2 -->
<g id="edge7" class="edge">
<title>Node7&#45;&gt;Node2</title>
<path fill="none" stroke="#9a32cd" stroke-dasharray="5,2" d="M102.83,-131.75C123.98,-123.75 152.67,-113.45 178.5,-106 205.27,-98.28 235.26,-91.29 260.99,-85.78"/>
<polygon fill="#9a32cd" stroke="#9a32cd" points="101.47,-128.52 93.38,-135.35 103.97,-135.06 101.47,-128.52"/>
<text text-anchor="middle" x="210" y="-109" font-family="Helvetica,sans-Serif" font-size="10.00"> counterType</text>
</g>
<!-- Node8&#45;&gt;Node7 -->
<g id="edge8" class="edge">
<title>Node8&#45;&gt;Node7</title>
<path fill="none" stroke="midnightblue" d="M192.57,-207.77C162.44,-192.4 113.63,-167.5 88.17,-154.5"/>
<polygon fill="midnightblue" stroke="midnightblue" points="191.14,-210.97 201.64,-212.4 194.32,-204.73 191.14,-210.97"/>
</g>
<!-- Node8&#45;&gt;Node9 -->
<g id="edge13" class="edge">
<title>Node8&#45;&gt;Node9</title>
<path fill="none" stroke="midnightblue" d="M220.97,-202.47C223.01,-187.15 225.82,-166.09 227.37,-154.5"/>
<polygon fill="midnightblue" stroke="midnightblue" points="217.5,-202.02 219.65,-212.4 224.44,-202.95 217.5,-202.02"/>
</g>
<!-- Node9&#45;&gt;Node2 -->
<g id="edge12" class="edge">
<title>Node9&#45;&gt;Node2</title>
<path fill="none" stroke="#9a32cd" stroke-dasharray="5,2" d="M237.69,-126.58C242.06,-119.52 247.81,-111.7 254.5,-106 263.27,-98.53 274.05,-92.38 284.46,-87.52"/>
<polygon fill="#9a32cd" stroke="#9a32cd" points="234.53,-125.05 232.62,-135.48 240.61,-128.52 234.53,-125.05"/>
<text text-anchor="middle" x="282" y="-109" font-family="Helvetica,sans-Serif" font-size="10.00"> meterType</text>
</g>
</g>
</svg>
