<?xml version="1.0" encoding="UTF-8" standalone="no"?>
<!DOCTYPE svg PUBLIC "-//W3C//DTD SVG 1.1//EN"
 "http://www.w3.org/Graphics/SVG/1.1/DTD/svg11.dtd">
<!-- Generated by graphviz version 2.43.0 (0)
 -->
<!-- Title: ErrorMessage Pages: 1 -->
<svg width="223pt" height="286pt"
 viewBox="0.00 0.00 222.50 286.00" xmlns="http://www.w3.org/2000/svg" xmlns:xlink="http://www.w3.org/1999/xlink">
<g id="graph0" class="graph" transform="scale(1 1) rotate(0) translate(4 282)">
<title>ErrorMessage</title>
<polygon fill="white" stroke="transparent" points="-4,4 -4,-282 218.5,-282 218.5,4 -4,4"/>
<!-- Node1 -->
<g id="node1" class="node">
<title>Node1</title>
<g id="a_node1"><a xlink:title=" ">
<polygon fill="#bfbfbf" stroke="black" points="60,-0.5 60,-19.5 143,-19.5 143,-0.5 60,-0.5"/>
<text text-anchor="middle" x="101.5" y="-7.5" font-family="Helvetica,sans-Serif" font-size="10.00">ErrorMessage</text>
</a>
</g>
</g>
<!-- Node2 -->
<g id="node2" class="node">
<title>Node2</title>
<g id="a_node2"><a xlink:title=" ">
<polygon fill="white" stroke="#bfbfbf" points="0,-89.5 0,-119.5 103,-119.5 103,-89.5 0,-89.5"/>
<text text-anchor="start" x="8" y="-107.5" font-family="Helvetica,sans-Serif" font-size="10.00">std::vector&lt; Util::</text>
<text text-anchor="middle" x="51.5" y="-96.5" font-family="Helvetica,sans-Serif" font-size="10.00">SourceInfo &gt;</text>
</a>
</g>
</g>
<!-- Node2&#45;&gt;Node1 -->
<g id="edge1" class="edge">
<title>Node2&#45;&gt;Node1</title>
<path fill="none" stroke="#9a32cd" stroke-dasharray="5,2" d="M57.57,-79.82C61.52,-66.87 67.44,-50.88 75.5,-38 79.78,-31.16 86.01,-24.61 91.3,-19.68"/>
<polygon fill="#9a32cd" stroke="#9a32cd" points="54.21,-78.87 54.83,-89.45 60.94,-80.79 54.21,-78.87"/>
<text text-anchor="middle" x="99.5" y="-52" font-family="Helvetica,sans-Serif" font-size="10.00"> locations</text>
</g>
<!-- Node3 -->
<g id="node3" class="node">
<title>Node3</title>
<g id="a_node3"><a xlink:href="class_util_1_1_source_info.html" target="_top" xlink:title=" ">
<polygon fill="white" stroke="black" points="0.5,-173 0.5,-192 92.5,-192 92.5,-173 0.5,-173"/>
<text text-anchor="middle" x="46.5" y="-180" font-family="Helvetica,sans-Serif" font-size="10.00">Util::SourceInfo</text>
</a>
</g>
</g>
<!-- Node3&#45;&gt;Node2 -->
<g id="edge2" class="edge">
<title>Node3&#45;&gt;Node2</title>
<path fill="none" stroke="#9a32cd" stroke-dasharray="5,2" d="M47.73,-162.78C48.61,-149.4 49.78,-131.69 50.58,-119.52"/>
<polygon fill="#9a32cd" stroke="#9a32cd" points="44.24,-162.57 47.07,-172.78 51.22,-163.03 44.24,-162.57"/>
<text text-anchor="middle" x="74" y="-141" font-family="Helvetica,sans-Serif" font-size="10.00"> elements</text>
</g>
<!-- Node4 -->
<g id="node4" class="node">
<title>Node4</title>
<g id="a_node4"><a xlink:href="classcstring.html" target="_top" xlink:title=" ">
<polygon fill="white" stroke="black" points="21.5,-257.5 21.5,-276.5 71.5,-276.5 71.5,-257.5 21.5,-257.5"/>
<text text-anchor="middle" x="46.5" y="-264.5" font-family="Helvetica,sans-Serif" font-size="10.00">cstring</text>
</a>
</g>
</g>
<!-- Node4&#45;&gt;Node3 -->
<g id="edge3" class="edge">
<title>Node4&#45;&gt;Node3</title>
<path fill="none" stroke="#9a32cd" stroke-dasharray="5,2" d="M46.5,-247.43C46.5,-230.13 46.5,-205.11 46.5,-192.1"/>
<polygon fill="#9a32cd" stroke="#9a32cd" points="43,-247.48 46.5,-257.48 50,-247.48 43,-247.48"/>
<text text-anchor="middle" x="69.5" y="-230" font-family="Helvetica,sans-Serif" font-size="10.00"> filename</text>
<text text-anchor="middle" x="69.5" y="-219" font-family="Helvetica,sans-Serif" font-size="10.00">srcBrief</text>
</g>
<!-- Node4&#45;&gt;Node4 -->
<g id="edge4" class="edge">
<title>Node4&#45;&gt;Node4</title>
<path fill="none" stroke="#9a32cd" stroke-dasharray="5,2" d="M81.95,-273.57C86.5,-272.43 89.5,-270.24 89.5,-267 89.5,-261.69 81.41,-259.2 71.68,-259.53"/>
<polygon fill="#9a32cd" stroke="#9a32cd" points="81.33,-270.11 71.68,-274.47 81.94,-277.08 81.33,-270.11"/>
<text text-anchor="middle" x="109" y="-270" font-family="Helvetica,sans-Serif" font-size="10.00"> empty</text>
<text text-anchor="middle" x="109" y="-259" font-family="Helvetica,sans-Serif" font-size="10.00">newline</text>
</g>
<!-- Node5 -->
<g id="node5" class="node">
<title>Node5</title>
<g id="a_node5"><a xlink:title=" ">
<polygon fill="white" stroke="#bfbfbf" points="128,-95 128,-114 193,-114 193,-95 128,-95"/>
<text text-anchor="middle" x="160.5" y="-102" font-family="Helvetica,sans-Serif" font-size="10.00">std::string</text>
</a>
</g>
</g>
<!-- Node5&#45;&gt;Node1 -->
<g id="edge5" class="edge">
<title>Node5&#45;&gt;Node1</title>
<path fill="none" stroke="#9a32cd" stroke-dasharray="5,2" d="M151.46,-85.62C144.4,-72.17 134.06,-53.47 123.5,-38 119.14,-31.61 113.64,-24.86 109.23,-19.71"/>
<polygon fill="#9a32cd" stroke="#9a32cd" points="148.47,-87.46 156.16,-94.74 154.69,-84.25 148.47,-87.46"/>
<text text-anchor="middle" x="166.5" y="-63" font-family="Helvetica,sans-Serif" font-size="10.00"> message</text>
<text text-anchor="middle" x="166.5" y="-52" font-family="Helvetica,sans-Serif" font-size="10.00">prefix</text>
<text text-anchor="middle" x="166.5" y="-41" font-family="Helvetica,sans-Serif" font-size="10.00">suffix</text>
</g>
<!-- Node6 -->
<g id="node6" class="node">
<title>Node6</title>
<g id="a_node6"><a xlink:title=" ">
<polygon fill="white" stroke="#bfbfbf" points="110.5,-167.5 110.5,-197.5 214.5,-197.5 214.5,-167.5 110.5,-167.5"/>
<text text-anchor="start" x="118.5" y="-185.5" font-family="Helvetica,sans-Serif" font-size="10.00">std::basic_string&lt;</text>
<text text-anchor="middle" x="162.5" y="-174.5" font-family="Helvetica,sans-Serif" font-size="10.00"> Char &gt;</text>
</a>
</g>
</g>
<!-- Node6&#45;&gt;Node5 -->
<g id="edge6" class="edge">
<title>Node6&#45;&gt;Node5</title>
<path fill="none" stroke="midnightblue" d="M161.86,-157.17C161.47,-142.4 161,-124.45 160.73,-114.06"/>
<polygon fill="midnightblue" stroke="midnightblue" points="158.36,-157.3 162.12,-167.2 165.36,-157.12 158.36,-157.3"/>
</g>
</g>
</svg>
