<?xml version="1.0" encoding="UTF-8" standalone="no"?>
<!DOCTYPE svg PUBLIC "-//W3C//DTD SVG 1.1//EN"
 "http://www.w3.org/Graphics/SVG/1.1/DTD/svg11.dtd">
<!-- Generated by graphviz version 2.43.0 (0)
 -->
<!-- Title: RTTI::Base Pages: 1 -->
<svg width="729pt" height="1184pt"
 viewBox="0.00 0.00 729.00 1184.00" xmlns="http://www.w3.org/2000/svg" xmlns:xlink="http://www.w3.org/1999/xlink">
<g id="graph0" class="graph" transform="scale(1 1) rotate(0) translate(4 1180)">
<title>RTTI::Base</title>
<!-- Node1 -->
<g id="Node000001" class="node">
<title>Node1</title>
<g id="a_Node000001"><a xlink:title=" ">
<polygon fill="#999999" stroke="#666666" points="68,-398 0,-398 0,-379 68,-379 68,-398"/>
<text text-anchor="middle" x="34" y="-386" font-family="Helvetica,sans-Serif" font-size="10.00">RTTI::Base</text>
</a>
</g>
</g>
<!-- Node2 -->
<g id="Node000002" class="node">
<title>Node2</title>
<g id="a_Node000002"><a xlink:href="class_i_castable.html" target="_top" xlink:title=" ">
<polygon fill="white" stroke="#666666" points="166,-398 104,-398 104,-379 166,-379 166,-398"/>
<text text-anchor="middle" x="135" y="-386" font-family="Helvetica,sans-Serif" font-size="10.00">ICastable</text>
</a>
</g>
</g>
<!-- Node1&#45;&gt;Node2 -->
<g id="edge1_Node000001_Node000002" class="edge">
<title>Node1&#45;&gt;Node2</title>
<g id="a_edge1_Node000001_Node000002"><a xlink:title=" ">
<path fill="none" stroke="#63b8ff" d="M78.44,-388.5C86.95,-388.5 95.71,-388.5 103.68,-388.5"/>
<polygon fill="#63b8ff" stroke="#63b8ff" points="78.24,-385 68.24,-388.5 78.24,-392 78.24,-385"/>
</a>
</g>
</g>
<!-- Node3 -->
<g id="Node000003" class="node">
<title>Node3</title>
<g id="a_Node000003"><a xlink:href="class_abstract_solver.html" target="_top" xlink:title="Provides a higher&#45;level interface for an SMT solver.">
<polygon fill="white" stroke="#666666" points="326,-1157 238,-1157 238,-1138 326,-1138 326,-1157"/>
<text text-anchor="middle" x="282" y="-1145" font-family="Helvetica,sans-Serif" font-size="10.00">AbstractSolver</text>
</a>
</g>
</g>
<!-- Node2&#45;&gt;Node3 -->
<g id="edge2_Node000002_Node000003" class="edge">
<title>Node2&#45;&gt;Node3</title>
<g id="a_edge2_Node000002_Node000003"><a xlink:title=" ">
<path fill="none" stroke="#63b8ff" d="M135.65,-408.59C134.21,-510.72 131.72,-972.02 202,-1092.5 214.55,-1114.01 239.25,-1129.11 257.71,-1137.98"/>
<polygon fill="#63b8ff" stroke="#63b8ff" points="139.15,-408.48 135.81,-398.43 132.15,-408.37 139.15,-408.48"/>
</a>
</g>
</g>
<!-- Node5 -->
<g id="Node000005" class="node">
<title>Node5</title>
<g id="a_Node000005"><a xlink:href="class_b_m_v2_1_1_c_f_g_1_1_node.html" target="_top" xlink:title=" ">
<polygon fill="white" stroke="#bfbfbf" points="333.5,-1083 230.5,-1083 230.5,-1064 333.5,-1064 333.5,-1083"/>
<text text-anchor="middle" x="282" y="-1071" font-family="Helvetica,sans-Serif" font-size="10.00">BMV2::CFG::Node</text>
</a>
</g>
</g>
<!-- Node2&#45;&gt;Node5 -->
<g id="edge4_Node000002_Node000005" class="edge">
<title>Node2&#45;&gt;Node5</title>
<g id="a_edge4_Node000002_Node000005"><a xlink:title=" ">
<path fill="none" stroke="#63b8ff" d="M137.7,-408.04C143.38,-470.63 163.61,-671.45 202,-833.5 223.64,-924.84 264.31,-1031.18 277.07,-1063.62"/>
<polygon fill="#63b8ff" stroke="#63b8ff" points="141.18,-407.66 136.8,-398.01 134.2,-408.28 141.18,-407.66"/>
</a>
</g>
</g>
<!-- Node9 -->
<g id="Node000009" class="node">
<title>Node9</title>
<g id="a_Node000009"><a xlink:href="struct_backtrack_1_1trigger.html" target="_top" xlink:title=" ">
<polygon fill="white" stroke="#bfbfbf" points="334,-824 230,-824 230,-805 334,-805 334,-824"/>
<text text-anchor="middle" x="282" y="-812" font-family="Helvetica,sans-Serif" font-size="10.00">Backtrack::trigger</text>
</a>
</g>
</g>
<!-- Node2&#45;&gt;Node9 -->
<g id="edge8_Node000002_Node000009" class="edge">
<title>Node2&#45;&gt;Node9</title>
<g id="a_edge8_Node000002_Node000009"><a xlink:title=" ">
<path fill="none" stroke="#63b8ff" d="M136.37,-408.22C138.18,-481.83 148.29,-739.26 202,-796.5 209.32,-804.3 219.25,-809.05 229.6,-811.88"/>
<polygon fill="#63b8ff" stroke="#63b8ff" points="139.87,-407.96 136.15,-398.04 132.87,-408.12 139.87,-407.96"/>
</a>
</g>
</g>
<!-- Node10 -->
<g id="Node000010" class="node">
<title>Node10</title>
<g id="a_Node000010"><a xlink:href="class_e_b_p_f_1_1_e_b_p_f_object.html" target="_top" xlink:title=" ">
<polygon fill="white" stroke="#bfbfbf" points="333.5,-787 230.5,-787 230.5,-768 333.5,-768 333.5,-787"/>
<text text-anchor="middle" x="282" y="-775" font-family="Helvetica,sans-Serif" font-size="10.00">EBPF::EBPFObject</text>
</a>
</g>
</g>
<!-- Node2&#45;&gt;Node10 -->
<g id="edge9_Node000002_Node000010" class="edge">
<title>Node2&#45;&gt;Node10</title>
<g id="a_edge9_Node000002_Node000010"><a xlink:title=" ">
<path fill="none" stroke="#63b8ff" d="M141.84,-407.86C152.8,-443.76 177.54,-523 202,-588.5 228,-658.13 264.2,-740.04 276.62,-767.77"/>
<polygon fill="#63b8ff" stroke="#63b8ff" points="145.15,-406.72 138.9,-398.17 138.46,-408.75 145.15,-406.72"/>
</a>
</g>
</g>
<!-- Node83 -->
<g id="Node000083" class="node">
<title>Node83</title>
<g id="a_Node000083"><a xlink:href="class_e_b_p_f_1_1_i_has_width.html" target="_top" xlink:title=" ">
<polygon fill="white" stroke="#bfbfbf" points="528.5,-584 431.5,-584 431.5,-565 528.5,-565 528.5,-584"/>
<text text-anchor="middle" x="480" y="-572" font-family="Helvetica,sans-Serif" font-size="10.00">EBPF::IHasWidth</text>
</a>
</g>
</g>
<!-- Node2&#45;&gt;Node83 -->
<g id="edge29_Node000002_Node000083" class="edge">
<title>Node2&#45;&gt;Node83</title>
<g id="a_edge29_Node000002_Node000083"><a xlink:title=" ">
<path fill="none" stroke="#63b8ff" d="M137.29,-408.36C140.81,-444.45 153.86,-520.3 202,-555.5 272.03,-606.72 380.53,-595.3 438.77,-584.01"/>
<polygon fill="#63b8ff" stroke="#63b8ff" points="140.76,-407.83 136.45,-398.15 133.78,-408.4 140.76,-407.83"/>
</a>
</g>
</g>
<!-- Node84 -->
<g id="Node000084" class="node">
<title>Node84</title>
<g id="a_Node000084"><a xlink:href="class_i_r_1_1_i_node.html" target="_top" xlink:title=" ">
<polygon fill="white" stroke="#bfbfbf" points="312.5,-546 251.5,-546 251.5,-527 312.5,-527 312.5,-546"/>
<text text-anchor="middle" x="282" y="-534" font-family="Helvetica,sans-Serif" font-size="10.00">IR::INode</text>
</a>
</g>
</g>
<!-- Node2&#45;&gt;Node84 -->
<g id="edge37_Node000002_Node000084" class="edge">
<title>Node2&#45;&gt;Node84</title>
<g id="a_edge37_Node000002_Node000084"><a xlink:title=" ">
<path fill="none" stroke="#63b8ff" d="M140.38,-408.19C147.85,-437.02 165.88,-490.32 202,-518.5 215.97,-529.4 235.33,-533.93 251.39,-535.72"/>
<polygon fill="#63b8ff" stroke="#63b8ff" points="143.69,-407.02 137.94,-398.12 136.89,-408.66 143.69,-407.02"/>
</a>
</g>
</g>
<!-- Node122 -->
<g id="Node000122" class="node">
<title>Node122</title>
<g id="a_Node000122"><a xlink:href="class_json_data.html" target="_top" xlink:title=" ">
<polygon fill="white" stroke="orangered" points="312,-509 252,-509 252,-490 312,-490 312,-509"/>
<text text-anchor="middle" x="282" y="-497" font-family="Helvetica,sans-Serif" font-size="10.00">JsonData</text>
</a>
</g>
</g>
<!-- Node2&#45;&gt;Node122 -->
<g id="edge40_Node000002_Node000122" class="edge">
<title>Node2&#45;&gt;Node122</title>
<g id="a_edge40_Node000002_Node000122"><a xlink:title=" ">
<path fill="none" stroke="#63b8ff" d="M144.31,-407.53C154.66,-428.92 174.41,-463.07 202,-481.5 216.74,-491.34 236.11,-495.86 251.98,-497.9"/>
<polygon fill="#63b8ff" stroke="#63b8ff" points="147.36,-405.78 139.99,-398.17 141,-408.72 147.36,-405.78"/>
</a>
</g>
</g>
<!-- Node129 -->
<g id="Node000129" class="node">
<title>Node129</title>
<g id="a_Node000129"><a xlink:href="class_p4_1_1_instance_base.html" target="_top" xlink:title=" ">
<polygon fill="white" stroke="orangered" points="332,-472 232,-472 232,-453 332,-453 332,-472"/>
<text text-anchor="middle" x="282" y="-460" font-family="Helvetica,sans-Serif" font-size="10.00">P4::InstanceBase</text>
</a>
</g>
</g>
<!-- Node2&#45;&gt;Node129 -->
<g id="edge44_Node000002_Node000129" class="edge">
<title>Node2&#45;&gt;Node129</title>
<g id="a_edge44_Node000002_Node000129"><a xlink:title=" ">
<path fill="none" stroke="#63b8ff" d="M151.28,-405.26C163.73,-417.91 182.41,-434.7 202,-444.5 211.18,-449.09 221.55,-452.53 231.69,-455.1"/>
<polygon fill="#63b8ff" stroke="#63b8ff" points="153.81,-402.84 144.38,-398.02 148.75,-407.67 153.81,-402.84"/>
</a>
</g>
</g>
<!-- Node148 -->
<g id="Node000148" class="node">
<title>Node148</title>
<g id="a_Node000148"><a xlink:href="class_p4_1_1_storage_location.html" target="_top" xlink:title="Abstraction for something that is has a left value (variable, parameter)">
<polygon fill="#fff0f0" stroke="red" points="338.5,-435 225.5,-435 225.5,-416 338.5,-416 338.5,-435"/>
<text text-anchor="middle" x="282" y="-423" font-family="Helvetica,sans-Serif" font-size="10.00">P4::StorageLocation</text>
</a>
</g>
</g>
<!-- Node2&#45;&gt;Node148 -->
<g id="edge45_Node000002_Node000148" class="edge">
<title>Node2&#45;&gt;Node148</title>
<g id="a_edge45_Node000002_Node000148"><a xlink:title=" ">
<path fill="none" stroke="#63b8ff" d="M175.98,-399.61C184.55,-401.94 193.57,-404.34 202,-406.5 214.43,-409.69 228.01,-413.01 240.35,-415.97"/>
<polygon fill="#63b8ff" stroke="#63b8ff" points="176.75,-396.19 166.18,-396.94 174.9,-402.95 176.75,-396.19"/>
</a>
</g>
</g>
<!-- Node155 -->
<g id="Node000155" class="node">
<title>Node155</title>
<g id="a_Node000155"><a xlink:href="class_p4_1_1_symbolic_value.html" target="_top" xlink:title=" ">
<polygon fill="white" stroke="orangered" points="335.5,-398 228.5,-398 228.5,-379 335.5,-379 335.5,-398"/>
<text text-anchor="middle" x="282" y="-386" font-family="Helvetica,sans-Serif" font-size="10.00">P4::SymbolicValue</text>
</a>
</g>
</g>
<!-- Node2&#45;&gt;Node155 -->
<g id="edge46_Node000002_Node000155" class="edge">
<title>Node2&#45;&gt;Node155</title>
<g id="a_edge46_Node000002_Node000155"><a xlink:title=" ">
<path fill="none" stroke="#63b8ff" d="M176.22,-388.5C192.37,-388.5 211.21,-388.5 228.42,-388.5"/>
<polygon fill="#63b8ff" stroke="#63b8ff" points="176.04,-385 166.04,-388.5 176.04,-392 176.04,-385"/>
</a>
</g>
</g>
<!-- Node173 -->
<g id="Node000173" class="node">
<title>Node173</title>
<g id="a_Node000173"><a xlink:href="class_p4_1_1_type_constraint.html" target="_top" xlink:title=" ">
<polygon fill="white" stroke="orangered" points="335.5,-361 228.5,-361 228.5,-342 335.5,-342 335.5,-361"/>
<text text-anchor="middle" x="282" y="-349" font-family="Helvetica,sans-Serif" font-size="10.00">P4::TypeConstraint</text>
</a>
</g>
</g>
<!-- Node2&#45;&gt;Node173 -->
<g id="edge47_Node000002_Node000173" class="edge">
<title>Node2&#45;&gt;Node173</title>
<g id="a_edge47_Node000002_Node000173"><a xlink:title=" ">
<path fill="none" stroke="#63b8ff" d="M175.93,-376.61C184.51,-374.17 193.53,-371.68 202,-369.5 213.31,-366.59 225.59,-363.67 237.02,-361.06"/>
<polygon fill="#63b8ff" stroke="#63b8ff" points="174.77,-373.31 166.13,-379.44 176.71,-380.03 174.77,-373.31"/>
</a>
</g>
</g>
<!-- Node177 -->
<g id="Node000177" class="node">
<title>Node177</title>
<g id="a_Node000177"><a xlink:href="class_p4_tools_1_1_abstract_rep_checked_node.html" target="_top" xlink:title=" ">
<polygon fill="white" stroke="#666666" points="362,-323.5 202,-323.5 202,-293.5 362,-293.5 362,-323.5"/>
<text text-anchor="start" x="210" y="-311.5" font-family="Helvetica,sans-Serif" font-size="10.00">P4Tools::AbstractRepChecked</text>
<text text-anchor="middle" x="282" y="-300.5" font-family="Helvetica,sans-Serif" font-size="10.00">Node&lt; Self, Node &gt;</text>
</a>
</g>
</g>
<!-- Node2&#45;&gt;Node177 -->
<g id="edge48_Node000002_Node000177" class="edge">
<title>Node2&#45;&gt;Node177</title>
<g id="a_edge48_Node000002_Node000177"><a xlink:title=" ">
<path fill="none" stroke="#63b8ff" d="M152.27,-371.34C164.82,-359 183.17,-342.77 202,-332.5 208.17,-329.14 214.87,-326.18 221.67,-323.6"/>
<polygon fill="#63b8ff" stroke="#63b8ff" points="149.45,-369.22 144.91,-378.8 154.43,-374.14 149.45,-369.22"/>
</a>
</g>
</g>
<!-- Node178 -->
<g id="Node000178" class="node">
<title>Node178</title>
<g id="a_Node000178"><a xlink:href="class_p4_tools_1_1_compiler_result.html" target="_top" xlink:title=" ">
<polygon fill="#fff0f0" stroke="red" points="349,-275 215,-275 215,-256 349,-256 349,-275"/>
<text text-anchor="middle" x="282" y="-263" font-family="Helvetica,sans-Serif" font-size="10.00">P4Tools::CompilerResult</text>
</a>
</g>
</g>
<!-- Node2&#45;&gt;Node178 -->
<g id="edge49_Node000002_Node000178" class="edge">
<title>Node2&#45;&gt;Node178</title>
<g id="a_edge49_Node000002_Node000178"><a xlink:title=" ">
<path fill="none" stroke="#63b8ff" d="M143.04,-369.04C152.64,-345.35 172.13,-305.85 202,-284.5 207.39,-280.64 213.47,-277.56 219.8,-275.1"/>
<polygon fill="#63b8ff" stroke="#63b8ff" points="139.65,-368.11 139.32,-378.7 146.18,-370.62 139.65,-368.11"/>
</a>
</g>
</g>
<!-- Node181 -->
<g id="Node000181" class="node">
<title>Node181</title>
<g id="a_Node000181"><a xlink:href="struct_p4_tools_1_1_p4_testgen_1_1_abstract_test.html" target="_top" xlink:title="Type definitions for abstract tests.">
<polygon fill="#fff0f0" stroke="red" points="336.5,-237.5 227.5,-237.5 227.5,-207.5 336.5,-207.5 336.5,-237.5"/>
<text text-anchor="start" x="235.5" y="-225.5" font-family="Helvetica,sans-Serif" font-size="10.00">P4Tools::P4Testgen</text>
<text text-anchor="middle" x="282" y="-214.5" font-family="Helvetica,sans-Serif" font-size="10.00">::AbstractTest</text>
</a>
</g>
</g>
<!-- Node2&#45;&gt;Node181 -->
<g id="edge50_Node000002_Node000181" class="edge">
<title>Node2&#45;&gt;Node181</title>
<g id="a_edge50_Node000002_Node000181"><a xlink:title=" ">
<path fill="none" stroke="#63b8ff" d="M139.72,-369.09C146.6,-338.54 164.17,-279.37 202,-246.5 209.25,-240.2 218.12,-235.56 227.26,-232.13"/>
<polygon fill="#63b8ff" stroke="#63b8ff" points="136.28,-368.44 137.66,-378.94 143.14,-369.87 136.28,-368.44"/>
</a>
</g>
</g>
<!-- Node184 -->
<g id="Node000184" class="node">
<title>Node184</title>
<g id="a_Node000184"><a xlink:href="class_p4_tools_1_1_p4_testgen_1_1_program_info.html" target="_top" xlink:title="Stores target&#45;specific information about a P4 program.">
<polygon fill="#fff0f0" stroke="red" points="336.5,-189.5 227.5,-189.5 227.5,-159.5 336.5,-159.5 336.5,-189.5"/>
<text text-anchor="start" x="235.5" y="-177.5" font-family="Helvetica,sans-Serif" font-size="10.00">P4Tools::P4Testgen</text>
<text text-anchor="middle" x="282" y="-166.5" font-family="Helvetica,sans-Serif" font-size="10.00">::ProgramInfo</text>
</a>
</g>
</g>
<!-- Node2&#45;&gt;Node184 -->
<g id="edge51_Node000002_Node000184" class="edge">
<title>Node2&#45;&gt;Node184</title>
<g id="a_edge51_Node000002_Node000184"><a xlink:title=" ">
<path fill="none" stroke="#63b8ff" d="M137.2,-368.15C140.57,-329.51 153.41,-245.22 202,-198.5 209.03,-191.74 217.89,-186.88 227.13,-183.39"/>
<polygon fill="#63b8ff" stroke="#63b8ff" points="133.67,-368.35 136.42,-378.58 140.65,-368.87 133.67,-368.35"/>
</a>
</g>
</g>
<!-- Node189 -->
<g id="Node000189" class="node">
<title>Node189</title>
<g id="a_Node000189"><a xlink:href="class_p4_tools_1_1_p4_testgen_1_1_test_object.html" target="_top" xlink:title=" ">
<polygon fill="white" stroke="orangered" points="336.5,-141.5 227.5,-141.5 227.5,-111.5 336.5,-111.5 336.5,-141.5"/>
<text text-anchor="start" x="235.5" y="-129.5" font-family="Helvetica,sans-Serif" font-size="10.00">P4Tools::P4Testgen</text>
<text text-anchor="middle" x="282" y="-118.5" font-family="Helvetica,sans-Serif" font-size="10.00">::TestObject</text>
</a>
</g>
</g>
<!-- Node2&#45;&gt;Node189 -->
<g id="edge52_Node000002_Node000189" class="edge">
<title>Node2&#45;&gt;Node189</title>
<g id="a_edge52_Node000002_Node000189"><a xlink:title=" ">
<path fill="none" stroke="#63b8ff" d="M135.49,-368.5C135.48,-323.22 141.94,-212.04 202,-150.5 208.91,-143.42 217.83,-138.42 227.18,-134.88"/>
<polygon fill="#63b8ff" stroke="#63b8ff" points="132,-368.79 135.62,-378.75 139,-368.71 132,-368.79"/>
</a>
</g>
</g>
<!-- Node217 -->
<g id="Node000217" class="node">
<title>Node217</title>
<g id="a_Node000217"><a xlink:href="class_p4_tools_1_1_trace_event.html" target="_top" xlink:title="An event in a trace of the execution of a P4 program.">
<polygon fill="#fff0f0" stroke="red" points="338.5,-93 225.5,-93 225.5,-74 338.5,-74 338.5,-93"/>
<text text-anchor="middle" x="282" y="-81" font-family="Helvetica,sans-Serif" font-size="10.00">P4Tools::TraceEvent</text>
</a>
</g>
</g>
<!-- Node2&#45;&gt;Node217 -->
<g id="edge53_Node000002_Node000217" class="edge">
<title>Node2&#45;&gt;Node217</title>
<g id="a_edge53_Node000002_Node000217"><a xlink:title=" ">
<path fill="none" stroke="#63b8ff" d="M137.9,-368.58C143.87,-310.12 164.17,-140.68 202,-102.5 208.45,-95.99 216.72,-91.56 225.47,-88.57"/>
<polygon fill="#63b8ff" stroke="#63b8ff" points="134.4,-368.43 136.89,-378.73 141.36,-369.12 134.4,-368.43"/>
</a>
</g>
</g>
<!-- Node230 -->
<g id="Node000230" class="node">
<title>Node230</title>
<g id="a_Node000230"><a xlink:href="class_util_1_1_i_json.html" target="_top" xlink:title=" ">
<polygon fill="white" stroke="orangered" points="313.5,-56 250.5,-56 250.5,-37 313.5,-37 313.5,-56"/>
<text text-anchor="middle" x="282" y="-44" font-family="Helvetica,sans-Serif" font-size="10.00">Util::IJson</text>
</a>
</g>
</g>
<!-- Node2&#45;&gt;Node230 -->
<g id="edge54_Node000002_Node000230" class="edge">
<title>Node2&#45;&gt;Node230</title>
<g id="a_edge54_Node000002_Node000230"><a xlink:title=" ">
<path fill="none" stroke="#63b8ff" d="M137.3,-368.48C141.84,-304.77 159.13,-108.37 202,-64.5 214.39,-51.82 233.72,-47.26 250.16,-45.9"/>
<polygon fill="#63b8ff" stroke="#63b8ff" points="133.79,-368.55 136.6,-378.76 140.77,-369.02 133.79,-368.55"/>
</a>
</g>
</g>
<!-- Node234 -->
<g id="Node000234" class="node">
<title>Node234</title>
<g id="a_Node000234"><a xlink:href="class_util_1_1_named_symbol.html" target="_top" xlink:title=" ">
<polygon fill="white" stroke="orangered" points="338,-19 226,-19 226,0 338,0 338,-19"/>
<text text-anchor="middle" x="282" y="-7" font-family="Helvetica,sans-Serif" font-size="10.00">Util::NamedSymbol</text>
</a>
</g>
</g>
<!-- Node2&#45;&gt;Node234 -->
<g id="edge55_Node000002_Node000234" class="edge">
<title>Node2&#45;&gt;Node234</title>
<g id="a_edge55_Node000002_Node000234"><a xlink:title=" ">
<path fill="none" stroke="#63b8ff" d="M136.84,-368.46C140.14,-300.04 154.41,-77.2 202,-27.5 208.42,-20.79 216.78,-16.35 225.66,-13.45"/>
<polygon fill="#63b8ff" stroke="#63b8ff" points="133.34,-368.57 136.38,-378.72 140.33,-368.89 133.34,-368.57"/>
</a>
</g>
</g>
<!-- Node4 -->
<g id="Node000004" class="node">
<title>Node4</title>
<g id="a_Node000004"><a xlink:href="class_p4_tools_1_1_z3_solver.html" target="_top" xlink:title="A Z3&#45;based implementation of AbstractSolver. Encapsulates a z3::solver and a z3::context.">
<polygon fill="white" stroke="#666666" points="531.5,-1176 428.5,-1176 428.5,-1157 531.5,-1157 531.5,-1176"/>
<text text-anchor="middle" x="480" y="-1164" font-family="Helvetica,sans-Serif" font-size="10.00">P4Tools::Z3Solver</text>
</a>
</g>
</g>
<!-- Node3&#45;&gt;Node4 -->
<g id="edge3_Node000003_Node000004" class="edge">
<title>Node3&#45;&gt;Node4</title>
<g id="a_edge3_Node000003_Node000004"><a xlink:title=" ">
<path fill="none" stroke="#63b8ff" d="M336.27,-1152.66C364.97,-1155.45 400.19,-1158.86 428.46,-1161.6"/>
<polygon fill="#63b8ff" stroke="#63b8ff" points="336.3,-1149.15 326.01,-1151.67 335.63,-1156.12 336.3,-1149.15"/>
</a>
</g>
</g>
<!-- Node6 -->
<g id="Node000006" class="node">
<title>Node6</title>
<g id="a_Node000006"><a xlink:href="class_b_m_v2_1_1_c_f_g_1_1_dummy_node.html" target="_top" xlink:title=" ">
<polygon fill="white" stroke="#bfbfbf" points="551,-1139 409,-1139 409,-1120 551,-1120 551,-1139"/>
<text text-anchor="middle" x="480" y="-1127" font-family="Helvetica,sans-Serif" font-size="10.00">BMV2::CFG::DummyNode</text>
</a>
</g>
</g>
<!-- Node5&#45;&gt;Node6 -->
<g id="edge5_Node000005_Node000006" class="edge">
<title>Node5&#45;&gt;Node6</title>
<g id="a_edge5_Node000005_Node000006"><a xlink:title=" ">
<path fill="none" stroke="#63b8ff" d="M318.76,-1086.35C341.32,-1094.19 371.16,-1104.1 398,-1111.5 408.97,-1114.52 420.89,-1117.4 432.11,-1119.92"/>
<polygon fill="#63b8ff" stroke="#63b8ff" points="319.86,-1083.02 309.26,-1083.01 317.54,-1089.63 319.86,-1083.02"/>
</a>
</g>
</g>
<!-- Node7 -->
<g id="Node000007" class="node">
<title>Node7</title>
<g id="a_Node000007"><a xlink:href="class_b_m_v2_1_1_c_f_g_1_1_if_node.html" target="_top" xlink:title=" ">
<polygon fill="white" stroke="#bfbfbf" points="535,-1102 425,-1102 425,-1083 535,-1083 535,-1102"/>
<text text-anchor="middle" x="480" y="-1090" font-family="Helvetica,sans-Serif" font-size="10.00">BMV2::CFG::IfNode</text>
</a>
</g>
</g>
<!-- Node5&#45;&gt;Node7 -->
<g id="edge6_Node000005_Node000007" class="edge">
<title>Node5&#45;&gt;Node7</title>
<g id="a_edge6_Node000005_Node000007"><a xlink:title=" ">
<path fill="none" stroke="#63b8ff" d="M343.8,-1079.39C369.66,-1081.9 399.59,-1084.8 424.71,-1087.24"/>
<polygon fill="#63b8ff" stroke="#63b8ff" points="344.02,-1075.9 333.73,-1078.42 343.35,-1082.87 344.02,-1075.9"/>
</a>
</g>
</g>
<!-- Node8 -->
<g id="Node000008" class="node">
<title>Node8</title>
<g id="a_Node000008"><a xlink:href="class_b_m_v2_1_1_c_f_g_1_1_table_node.html" target="_top" xlink:title=" ">
<polygon fill="white" stroke="#bfbfbf" points="544,-1065 416,-1065 416,-1046 544,-1046 544,-1065"/>
<text text-anchor="middle" x="480" y="-1053" font-family="Helvetica,sans-Serif" font-size="10.00">BMV2::CFG::TableNode</text>
</a>
</g>
</g>
<!-- Node5&#45;&gt;Node8 -->
<g id="edge7_Node000005_Node000008" class="edge">
<title>Node5&#45;&gt;Node8</title>
<g id="a_edge7_Node000005_Node000008"><a xlink:title=" ">
<path fill="none" stroke="#63b8ff" d="M343.98,-1067.9C366.83,-1065.8 392.82,-1063.41 415.85,-1061.3"/>
<polygon fill="#63b8ff" stroke="#63b8ff" points="343.37,-1064.44 333.73,-1068.84 344.01,-1071.41 343.37,-1064.44"/>
</a>
</g>
</g>
<!-- Node11 -->
<g id="Node000011" class="node">
<title>Node11</title>
<g id="a_Node000011"><a xlink:href="class_e_b_p_f_1_1_e_b_p_f_checksum_p_s_a.html" target="_top" xlink:title=" ">
<polygon fill="white" stroke="orangered" points="551,-806 409,-806 409,-787 551,-787 551,-806"/>
<text text-anchor="middle" x="480" y="-794" font-family="Helvetica,sans-Serif" font-size="10.00">EBPF::EBPFChecksumPSA</text>
</a>
</g>
</g>
<!-- Node10&#45;&gt;Node11 -->
<g id="edge10_Node000010_Node000011" class="edge">
<title>Node10&#45;&gt;Node11</title>
<g id="a_edge10_Node000010_Node000011"><a xlink:title=" ">
<path fill="none" stroke="#63b8ff" d="M343.93,-783.41C364.52,-785.4 387.68,-787.65 408.92,-789.71"/>
<polygon fill="#63b8ff" stroke="#63b8ff" points="344.02,-779.9 333.73,-782.42 343.35,-786.87 344.02,-779.9"/>
</a>
</g>
</g>
<!-- Node14 -->
<g id="Node000014" class="node">
<title>Node14</title>
<g id="a_Node000014"><a xlink:href="class_e_b_p_f_1_1_e_b_p_f_control.html" target="_top" xlink:title=" ">
<polygon fill="white" stroke="orangered" points="533.5,-769 426.5,-769 426.5,-750 533.5,-750 533.5,-769"/>
<text text-anchor="middle" x="480" y="-757" font-family="Helvetica,sans-Serif" font-size="10.00">EBPF::EBPFControl</text>
</a>
</g>
</g>
<!-- Node10&#45;&gt;Node14 -->
<g id="edge11_Node000010_Node000014" class="edge">
<title>Node10&#45;&gt;Node14</title>
<g id="a_edge11_Node000010_Node000014"><a xlink:title=" ">
<path fill="none" stroke="#63b8ff" d="M344.01,-771.9C370.42,-769.47 401.04,-766.66 426.43,-764.33"/>
<polygon fill="#63b8ff" stroke="#63b8ff" points="343.37,-768.44 333.73,-772.84 344.01,-775.41 343.37,-768.44"/>
</a>
</g>
</g>
<!-- Node27 -->
<g id="Node000027" class="node">
<title>Node27</title>
<g id="a_Node000027"><a xlink:href="class_e_b_p_f_1_1_e_b_p_f_digest_p_s_a.html" target="_top" xlink:title=" ">
<polygon fill="white" stroke="#bfbfbf" points="541,-732 419,-732 419,-713 541,-713 541,-732"/>
<text text-anchor="middle" x="480" y="-720" font-family="Helvetica,sans-Serif" font-size="10.00">EBPF::EBPFDigestPSA</text>
</a>
</g>
</g>
<!-- Node10&#45;&gt;Node27 -->
<g id="edge12_Node000010_Node000027" class="edge">
<title>Node10&#45;&gt;Node27</title>
<g id="a_edge12_Node000010_Node000027"><a xlink:title=" ">
<path fill="none" stroke="#63b8ff" d="M321.4,-764.71C343.65,-757.49 372.28,-748.53 398,-741.5 410.12,-738.19 423.36,-734.93 435.55,-732.08"/>
<polygon fill="#63b8ff" stroke="#63b8ff" points="320.08,-761.46 311.66,-767.89 322.25,-768.11 320.08,-761.46"/>
</a>
</g>
</g>
<!-- Node28 -->
<g id="Node000028" class="node">
<title>Node28</title>
<g id="a_Node000028"><a xlink:href="class_e_b_p_f_1_1_e_b_p_f_hash_algorithm_p_s_a.html" target="_top" xlink:title=" ">
<polygon fill="white" stroke="orangered" points="562,-695 398,-695 398,-676 562,-676 562,-695"/>
<text text-anchor="middle" x="480" y="-683" font-family="Helvetica,sans-Serif" font-size="10.00">EBPF::EBPFHashAlgorithmPSA</text>
</a>
</g>
</g>
<!-- Node10&#45;&gt;Node28 -->
<g id="edge13_Node000010_Node000028" class="edge">
<title>Node10&#45;&gt;Node28</title>
<g id="a_edge13_Node000010_Node000028"><a xlink:title=" ">
<path fill="none" stroke="#63b8ff" d="M303.24,-761.66C325.34,-745.1 362.36,-719.48 398,-704.5 407.05,-700.69 417.01,-697.57 426.76,-695.03"/>
<polygon fill="#63b8ff" stroke="#63b8ff" points="300.83,-759.09 295,-767.93 305.07,-764.66 300.83,-759.09"/>
</a>
</g>
</g>
<!-- Node36 -->
<g id="Node000036" class="node">
<title>Node36</title>
<g id="a_Node000036"><a xlink:href="class_e_b_p_f_1_1_e_b_p_f_parser.html" target="_top" xlink:title=" ">
<polygon fill="white" stroke="orangered" points="530.5,-658 429.5,-658 429.5,-639 530.5,-639 530.5,-658"/>
<text text-anchor="middle" x="480" y="-646" font-family="Helvetica,sans-Serif" font-size="10.00">EBPF::EBPFParser</text>
</a>
</g>
</g>
<!-- Node10&#45;&gt;Node36 -->
<g id="edge14_Node000010_Node000036" class="edge">
<title>Node10&#45;&gt;Node36</title>
<g id="a_edge14_Node000010_Node000036"><a xlink:title=" ">
<path fill="none" stroke="#63b8ff" d="M296.44,-759.67C316,-735.03 354.74,-690.96 398,-667.5 407.65,-662.27 418.71,-658.47 429.49,-655.71"/>
<polygon fill="#63b8ff" stroke="#63b8ff" points="293.5,-757.75 290.13,-767.79 299.03,-762.04 293.5,-757.75"/>
</a>
</g>
</g>
<!-- Node40 -->
<g id="Node000040" class="node">
<title>Node40</title>
<g id="a_Node000040"><a xlink:href="class_e_b_p_f_1_1_e_b_p_f_parser_state.html" target="_top" xlink:title=" ">
<polygon fill="white" stroke="orangered" points="543.5,-621 416.5,-621 416.5,-602 543.5,-602 543.5,-621"/>
<text text-anchor="middle" x="480" y="-609" font-family="Helvetica,sans-Serif" font-size="10.00">EBPF::EBPFParserState</text>
</a>
</g>
</g>
<!-- Node10&#45;&gt;Node40 -->
<g id="edge15_Node000010_Node000040" class="edge">
<title>Node10&#45;&gt;Node40</title>
<g id="a_edge15_Node000010_Node000040"><a xlink:title=" ">
<path fill="none" stroke="#63b8ff" d="M292.25,-758.68C308.84,-726.99 346.76,-663.25 398,-630.5 404.09,-626.61 410.88,-623.52 417.88,-621.05"/>
<polygon fill="#63b8ff" stroke="#63b8ff" points="289.04,-757.26 287.62,-767.76 295.28,-760.44 289.04,-757.26"/>
</a>
</g>
</g>
<!-- Node42 -->
<g id="Node000042" class="node">
<title>Node42</title>
<g id="a_Node000042"><a xlink:href="class_e_b_p_f_1_1_e_b_p_f_program.html" target="_top" xlink:title=" ">
<polygon fill="white" stroke="orangered" points="536.5,-1028 423.5,-1028 423.5,-1009 536.5,-1009 536.5,-1028"/>
<text text-anchor="middle" x="480" y="-1016" font-family="Helvetica,sans-Serif" font-size="10.00">EBPF::EBPFProgram</text>
</a>
</g>
</g>
<!-- Node10&#45;&gt;Node42 -->
<g id="edge16_Node000010_Node000042" class="edge">
<title>Node10&#45;&gt;Node42</title>
<g id="a_edge16_Node000010_Node000042"><a xlink:title=" ">
<path fill="none" stroke="#63b8ff" d="M343.34,-784.02C350.34,-786.95 356.82,-790.99 362,-796.5 425.07,-863.57 334.35,-933.98 398,-1000.5 404.87,-1007.68 413.92,-1012.3 423.48,-1015.21"/>
<polygon fill="#63b8ff" stroke="#63b8ff" points="344.13,-780.59 333.53,-780.66 341.86,-787.21 344.13,-780.59"/>
</a>
</g>
</g>
<!-- Node54 -->
<g id="Node000054" class="node">
<title>Node54</title>
<g id="a_Node000054"><a xlink:href="class_e_b_p_f_1_1_e_b_p_f_random_p_s_a.html" target="_top" xlink:title=" ">
<polygon fill="white" stroke="#bfbfbf" points="545.5,-991 414.5,-991 414.5,-972 545.5,-972 545.5,-991"/>
<text text-anchor="middle" x="480" y="-979" font-family="Helvetica,sans-Serif" font-size="10.00">EBPF::EBPFRandomPSA</text>
</a>
</g>
</g>
<!-- Node10&#45;&gt;Node54 -->
<g id="edge17_Node000010_Node000054" class="edge">
<title>Node10&#45;&gt;Node54</title>
<g id="a_edge17_Node000010_Node000054"><a xlink:title=" ">
<path fill="none" stroke="#63b8ff" d="M343.41,-784.31C350.34,-787.21 356.78,-791.16 362,-796.5 415.05,-850.82 344.48,-909.64 398,-963.5 402.67,-968.2 408.28,-971.79 414.34,-974.52"/>
<polygon fill="#63b8ff" stroke="#63b8ff" points="344.32,-780.93 333.73,-780.98 342.04,-787.54 344.32,-780.93"/>
</a>
</g>
</g>
<!-- Node55 -->
<g id="Node000055" class="node">
<title>Node55</title>
<g id="a_Node000055"><a xlink:href="class_e_b_p_f_1_1_e_b_p_f_table_base.html" target="_top" xlink:title=" ">
<polygon fill="white" stroke="orangered" points="540,-954 420,-954 420,-935 540,-935 540,-954"/>
<text text-anchor="middle" x="480" y="-942" font-family="Helvetica,sans-Serif" font-size="10.00">EBPF::EBPFTableBase</text>
</a>
</g>
</g>
<!-- Node10&#45;&gt;Node55 -->
<g id="edge18_Node000010_Node000055" class="edge">
<title>Node10&#45;&gt;Node55</title>
<g id="a_edge18_Node000010_Node000055"><a xlink:title=" ">
<path fill="none" stroke="#63b8ff" d="M343.4,-784.71C350.27,-787.56 356.7,-791.38 362,-796.5 405.11,-838.16 354.53,-885.21 398,-926.5 404.16,-932.35 411.79,-936.46 419.87,-939.33"/>
<polygon fill="#63b8ff" stroke="#63b8ff" points="344.41,-781.36 333.81,-781.42 342.13,-787.98 344.41,-781.36"/>
</a>
</g>
</g>
<!-- Node67 -->
<g id="Node000067" class="node">
<title>Node67</title>
<g id="a_Node000067"><a xlink:href="class_e_b_p_f_1_1_e_b_p_f_type.html" target="_top" xlink:title=" ">
<polygon fill="white" stroke="#bfbfbf" points="526.5,-917 433.5,-917 433.5,-898 526.5,-898 526.5,-917"/>
<text text-anchor="middle" x="480" y="-905" font-family="Helvetica,sans-Serif" font-size="10.00">EBPF::EBPFType</text>
</a>
</g>
</g>
<!-- Node10&#45;&gt;Node67 -->
<g id="edge19_Node000010_Node000067" class="edge">
<title>Node10&#45;&gt;Node67</title>
<g id="a_edge19_Node000010_Node000067"><a xlink:title=" ">
<path fill="none" stroke="#63b8ff" d="M343.2,-785.34C350.05,-788.08 356.53,-791.71 362,-796.5 395.36,-825.68 364.39,-860.61 398,-889.5 407.83,-897.95 420.76,-902.69 433.4,-905.27"/>
<polygon fill="#63b8ff" stroke="#63b8ff" points="344.28,-782.01 333.69,-782.12 342.04,-788.64 344.28,-782.01"/>
</a>
</g>
</g>
<!-- Node79 -->
<g id="Node000079" class="node">
<title>Node79</title>
<g id="a_Node000079"><a xlink:href="class_u_b_p_f_1_1_u_b_p_f_deparser.html" target="_top" xlink:title=" ">
<polygon fill="white" stroke="#bfbfbf" points="539.5,-880 420.5,-880 420.5,-861 539.5,-861 539.5,-880"/>
<text text-anchor="middle" x="480" y="-868" font-family="Helvetica,sans-Serif" font-size="10.00">UBPF::UBPFDeparser</text>
</a>
</g>
</g>
<!-- Node10&#45;&gt;Node79 -->
<g id="edge27_Node000010_Node000079" class="edge">
<title>Node10&#45;&gt;Node79</title>
<g id="a_edge27_Node000010_Node000079"><a xlink:title=" ">
<path fill="none" stroke="#63b8ff" d="M343.35,-786.82C349.98,-789.32 356.36,-792.49 362,-796.5 386.12,-813.64 373.73,-835.57 398,-852.5 404.73,-857.2 412.49,-860.7 420.47,-863.3"/>
<polygon fill="#63b8ff" stroke="#63b8ff" points="344.12,-783.39 333.52,-783.6 341.94,-790.04 344.12,-783.39"/>
</a>
</g>
</g>
<!-- Node80 -->
<g id="Node000080" class="node">
<title>Node80</title>
<g id="a_Node000080"><a xlink:href="class_u_b_p_f_1_1_u_b_p_f_table_base.html" target="_top" xlink:title=" ">
<polygon fill="white" stroke="orangered" points="541.5,-843 418.5,-843 418.5,-824 541.5,-824 541.5,-843"/>
<text text-anchor="middle" x="480" y="-831" font-family="Helvetica,sans-Serif" font-size="10.00">UBPF::UBPFTableBase</text>
</a>
</g>
</g>
<!-- Node10&#45;&gt;Node80 -->
<g id="edge28_Node000010_Node000080" class="edge">
<title>Node10&#45;&gt;Node80</title>
<g id="a_edge28_Node000010_Node000080"><a xlink:title=" ">
<path fill="none" stroke="#63b8ff" d="M340.95,-789.67C348.12,-791.69 355.29,-793.97 362,-796.5 378.93,-802.89 381.02,-809.26 398,-815.5 407.06,-818.83 416.93,-821.65 426.55,-824"/>
<polygon fill="#63b8ff" stroke="#63b8ff" points="341.77,-786.26 331.2,-787.07 339.96,-793.03 341.77,-786.26"/>
</a>
</g>
</g>
<!-- Node68 -->
<g id="Node000068" class="node">
<title>Node68</title>
<g id="a_Node000068"><a xlink:href="class_e_b_p_f_1_1_e_b_p_f_bool_type.html" target="_top" xlink:title=" ">
<polygon fill="white" stroke="orangered" points="717.5,-639 601.5,-639 601.5,-620 717.5,-620 717.5,-639"/>
<text text-anchor="middle" x="659.5" y="-627" font-family="Helvetica,sans-Serif" font-size="10.00">EBPF::EBPFBoolType</text>
</a>
</g>
</g>
<!-- Node67&#45;&gt;Node68 -->
<g id="edge20_Node000067_Node000068" class="edge">
<title>Node67&#45;&gt;Node68</title>
<g id="a_edge20_Node000067_Node000068"><a xlink:title=" ">
<path fill="none" stroke="#63b8ff" d="M536.86,-904.16C546.3,-901.24 555.23,-896.63 562,-889.5 628.13,-819.89 548.73,-758.9 598,-676.5 607.9,-659.95 625.99,-647.07 639.82,-639.01"/>
<polygon fill="#63b8ff" stroke="#63b8ff" points="535.76,-900.83 526.9,-906.63 537.45,-907.62 535.76,-900.83"/>
</a>
</g>
</g>
<!-- Node70 -->
<g id="Node000070" class="node">
<title>Node70</title>
<g id="a_Node000070"><a xlink:href="class_e_b_p_f_1_1_e_b_p_f_enum_type.html" target="_top" xlink:title=" ">
<polygon fill="white" stroke="orangered" points="720.5,-916 598.5,-916 598.5,-897 720.5,-897 720.5,-916"/>
<text text-anchor="middle" x="659.5" y="-904" font-family="Helvetica,sans-Serif" font-size="10.00">EBPF::EBPFEnumType</text>
</a>
</g>
</g>
<!-- Node67&#45;&gt;Node70 -->
<g id="edge21_Node000067_Node000070" class="edge">
<title>Node67&#45;&gt;Node70</title>
<g id="a_edge21_Node000067_Node000070"><a xlink:title=" ">
<path fill="none" stroke="#63b8ff" d="M536.95,-907.18C556.44,-907.07 578.39,-906.95 598.21,-906.84"/>
<polygon fill="#63b8ff" stroke="#63b8ff" points="536.69,-903.69 526.71,-907.24 536.73,-910.69 536.69,-903.69"/>
</a>
</g>
</g>
<!-- Node72 -->
<g id="Node000072" class="node">
<title>Node72</title>
<g id="a_Node000072"><a xlink:href="class_e_b_p_f_1_1_e_b_p_f_scalar_type.html" target="_top" xlink:title=" ">
<polygon fill="white" stroke="orangered" points="721,-878 598,-878 598,-859 721,-859 721,-878"/>
<text text-anchor="middle" x="659.5" y="-866" font-family="Helvetica,sans-Serif" font-size="10.00">EBPF::EBPFScalarType</text>
</a>
</g>
</g>
<!-- Node67&#45;&gt;Node72 -->
<g id="edge22_Node000067_Node000072" class="edge">
<title>Node67&#45;&gt;Node72</title>
<g id="a_edge22_Node000067_Node000072"><a xlink:title=" ">
<path fill="none" stroke="#63b8ff" d="M534.43,-895.76C560.27,-890.08 590.87,-883.36 615.22,-878.01"/>
<polygon fill="#63b8ff" stroke="#63b8ff" points="533.44,-892.39 524.42,-897.96 534.94,-899.23 533.44,-892.39"/>
</a>
</g>
</g>
<!-- Node74 -->
<g id="Node000074" class="node">
<title>Node74</title>
<g id="a_Node000074"><a xlink:href="class_e_b_p_f_1_1_e_b_p_f_stack_type.html" target="_top" xlink:title=" ">
<polygon fill="white" stroke="#bfbfbf" points="719.5,-839 599.5,-839 599.5,-820 719.5,-820 719.5,-839"/>
<text text-anchor="middle" x="659.5" y="-827" font-family="Helvetica,sans-Serif" font-size="10.00">EBPF::EBPFStackType</text>
</a>
</g>
</g>
<!-- Node67&#45;&gt;Node74 -->
<g id="edge23_Node000067_Node000074" class="edge">
<title>Node67&#45;&gt;Node74</title>
<g id="a_edge23_Node000067_Node000074"><a xlink:title=" ">
<path fill="none" stroke="#63b8ff" d="M536.22,-899.97C545.19,-897.43 554.11,-894.04 562,-889.5 582.45,-877.74 578.27,-863.42 598,-850.5 605.16,-845.81 613.49,-842.04 621.63,-839.06"/>
<polygon fill="#63b8ff" stroke="#63b8ff" points="535.36,-896.58 526.51,-902.4 537.06,-903.37 535.36,-896.58"/>
</a>
</g>
</g>
<!-- Node75 -->
<g id="Node000075" class="node">
<title>Node75</title>
<g id="a_Node000075"><a xlink:href="class_e_b_p_f_1_1_e_b_p_f_struct_type.html" target="_top" xlink:title=" ">
<polygon fill="white" stroke="orangered" points="720.5,-799 598.5,-799 598.5,-780 720.5,-780 720.5,-799"/>
<text text-anchor="middle" x="659.5" y="-787" font-family="Helvetica,sans-Serif" font-size="10.00">EBPF::EBPFStructType</text>
</a>
</g>
</g>
<!-- Node67&#45;&gt;Node75 -->
<g id="edge24_Node000067_Node000075" class="edge">
<title>Node67&#45;&gt;Node75</title>
<g id="a_edge24_Node000067_Node000075"><a xlink:title=" ">
<path fill="none" stroke="#63b8ff" d="M536.66,-902.25C545.8,-899.47 554.67,-895.41 562,-889.5 591.72,-865.54 569.9,-837.35 598,-811.5 603.76,-806.2 610.89,-802.16 618.22,-799.08"/>
<polygon fill="#63b8ff" stroke="#63b8ff" points="535.52,-898.93 526.69,-904.79 537.25,-905.71 535.52,-898.93"/>
</a>
</g>
</g>
<!-- Node77 -->
<g id="Node000077" class="node">
<title>Node77</title>
<g id="a_Node000077"><a xlink:href="class_e_b_p_f_1_1_e_b_p_f_type_name.html" target="_top" xlink:title=" ">
<polygon fill="white" stroke="#bfbfbf" points="720.5,-755 598.5,-755 598.5,-736 720.5,-736 720.5,-755"/>
<text text-anchor="middle" x="659.5" y="-743" font-family="Helvetica,sans-Serif" font-size="10.00">EBPF::EBPFTypeName</text>
</a>
</g>
</g>
<!-- Node67&#45;&gt;Node77 -->
<g id="edge25_Node000067_Node000077" class="edge">
<title>Node67&#45;&gt;Node77</title>
<g id="a_edge25_Node000067_Node000077"><a xlink:title=" ">
<path fill="none" stroke="#63b8ff" d="M536.45,-903.34C545.85,-900.48 554.86,-896.11 562,-889.5 602.24,-852.26 561.41,-812.34 598,-771.5 604.48,-764.26 613.33,-758.96 622.26,-755.12"/>
<polygon fill="#63b8ff" stroke="#63b8ff" points="535.44,-899.99 526.58,-905.8 537.13,-906.78 535.44,-899.99"/>
</a>
</g>
</g>
<!-- Node78 -->
<g id="Node000078" class="node">
<title>Node78</title>
<g id="a_Node000078"><a xlink:href="class_u_b_p_f_1_1_u_b_p_f_list_type.html" target="_top" xlink:title=" ">
<polygon fill="white" stroke="#bfbfbf" points="716.5,-704 602.5,-704 602.5,-685 716.5,-685 716.5,-704"/>
<text text-anchor="middle" x="659.5" y="-692" font-family="Helvetica,sans-Serif" font-size="10.00">UBPF::UBPFListType</text>
</a>
</g>
</g>
<!-- Node67&#45;&gt;Node78 -->
<g id="edge26_Node000067_Node000078" class="edge">
<title>Node67&#45;&gt;Node78</title>
<g id="a_edge26_Node000067_Node000078"><a xlink:title=" ">
<path fill="none" stroke="#63b8ff" d="M536.57,-903.88C546.04,-900.98 555.04,-896.46 562,-889.5 614.15,-837.35 553.65,-786.44 598,-727.5 605.98,-716.89 618.42,-709.27 629.94,-704.05"/>
<polygon fill="#63b8ff" stroke="#63b8ff" points="535.47,-900.54 526.6,-906.34 537.15,-907.34 535.47,-900.54"/>
</a>
</g>
</g>
<!-- Node83&#45;&gt;Node68 -->
<g id="edge30_Node000083_Node000068" class="edge">
<title>Node83&#45;&gt;Node68</title>
<g id="a_edge30_Node000083_Node000068"><a xlink:title=" ">
<path fill="none" stroke="#63b8ff" d="M536.02,-586.41C544.76,-588.59 553.66,-590.98 562,-593.5 587.5,-601.21 616.01,-612.14 635.38,-619.93"/>
<polygon fill="#63b8ff" stroke="#63b8ff" points="536.8,-583 526.26,-584.05 535.15,-589.8 536.8,-583"/>
</a>
</g>
</g>
<!-- Node83&#45;&gt;Node70 -->
<g id="edge31_Node000083_Node000070" class="edge">
<title>Node83&#45;&gt;Node70</title>
<g id="a_edge31_Node000083_Node000070"><a xlink:title=" ">
<path fill="none" stroke="#63b8ff" d="M538.67,-578.83C547.52,-581.9 555.77,-586.55 562,-593.5 649.9,-691.5 513.78,-786.32 598,-887.5 601.24,-891.39 605.27,-894.5 609.7,-896.98"/>
<polygon fill="#63b8ff" stroke="#63b8ff" points="539.48,-575.42 528.9,-576.08 537.58,-582.16 539.48,-575.42"/>
</a>
</g>
</g>
<!-- Node83&#45;&gt;Node72 -->
<g id="edge32_Node000083_Node000072" class="edge">
<title>Node83&#45;&gt;Node72</title>
<g id="a_edge32_Node000083_Node000072"><a xlink:title=" ">
<path fill="none" stroke="#63b8ff" d="M538.56,-578.93C547.42,-581.99 555.7,-586.61 562,-593.5 639.2,-678 524.63,-760.66 598,-848.5 601.62,-852.83 606.19,-856.23 611.2,-858.89"/>
<polygon fill="#63b8ff" stroke="#63b8ff" points="539.36,-575.51 528.79,-576.18 537.47,-582.25 539.36,-575.51"/>
</a>
</g>
</g>
<!-- Node83&#45;&gt;Node74 -->
<g id="edge33_Node000083_Node000074" class="edge">
<title>Node83&#45;&gt;Node74</title>
<g id="a_edge33_Node000083_Node000074"><a xlink:title=" ">
<path fill="none" stroke="#63b8ff" d="M538.42,-579.06C547.29,-582.11 555.62,-586.69 562,-593.5 628.26,-664.18 535.49,-734.48 598,-808.5 602.09,-813.34 607.36,-817.07 613.07,-819.94"/>
<polygon fill="#63b8ff" stroke="#63b8ff" points="539.21,-575.65 528.63,-576.33 537.32,-582.39 539.21,-575.65"/>
</a>
</g>
</g>
<!-- Node83&#45;&gt;Node75 -->
<g id="edge34_Node000083_Node000075" class="edge">
<title>Node83&#45;&gt;Node75</title>
<g id="a_edge34_Node000083_Node000075"><a xlink:title=" ">
<path fill="none" stroke="#63b8ff" d="M538.49,-579.39C547.27,-582.41 555.55,-586.9 562,-593.5 616.29,-649.04 548.37,-704.76 598,-764.5 603.66,-771.32 611.49,-776.3 619.64,-779.94"/>
<polygon fill="#63b8ff" stroke="#63b8ff" points="539.38,-576.01 528.81,-576.66 537.48,-582.74 539.38,-576.01"/>
</a>
</g>
</g>
<!-- Node83&#45;&gt;Node77 -->
<g id="edge35_Node000083_Node000077" class="edge">
<title>Node83&#45;&gt;Node77</title>
<g id="a_edge35_Node000083_Node000077"><a xlink:title=" ">
<path fill="none" stroke="#63b8ff" d="M538.61,-580.06C547.24,-583.02 555.43,-587.32 562,-593.5 602.56,-631.65 562.65,-670.48 598,-713.5 606.22,-723.51 618.41,-730.79 629.7,-735.86"/>
<polygon fill="#63b8ff" stroke="#63b8ff" points="539.32,-576.62 528.75,-577.25 537.41,-583.35 539.32,-576.62"/>
</a>
</g>
</g>
<!-- Node83&#45;&gt;Node78 -->
<g id="edge36_Node000083_Node000078" class="edge">
<title>Node83&#45;&gt;Node78</title>
<g id="a_edge36_Node000083_Node000078"><a xlink:title=" ">
<path fill="none" stroke="#63b8ff" d="M538.4,-582.16C546.77,-584.89 554.94,-588.56 562,-593.5 585.93,-610.26 578.08,-627.13 598,-648.5 611.58,-663.08 630.19,-676.46 643.17,-684.99"/>
<polygon fill="#63b8ff" stroke="#63b8ff" points="539.1,-578.73 528.52,-579.38 537.2,-585.46 539.1,-578.73"/>
</a>
</g>
</g>
<!-- Node85 -->
<g id="Node000085" class="node">
<title>Node85</title>
<g id="a_Node000085"><a xlink:href="class_i_r_1_1_i_declaration.html" target="_top" xlink:title="The Declaration interface, representing objects with names.">
<polygon fill="white" stroke="#666666" points="526,-547 434,-547 434,-528 526,-528 526,-547"/>
<text text-anchor="middle" x="480" y="-535" font-family="Helvetica,sans-Serif" font-size="10.00">IR::IDeclaration</text>
</a>
</g>
</g>
<!-- Node84&#45;&gt;Node85 -->
<g id="edge38_Node000084_Node000085" class="edge">
<title>Node84&#45;&gt;Node85</title>
<g id="a_edge38_Node000084_Node000085"><a xlink:title=" ">
<path fill="none" stroke="#63b8ff" d="M323.16,-536.7C355.37,-536.87 400.57,-537.1 434,-537.27"/>
<polygon fill="#63b8ff" stroke="#63b8ff" points="322.79,-533.2 312.77,-536.65 322.75,-540.2 322.79,-533.2"/>
</a>
</g>
</g>
<!-- Node86 -->
<g id="Node000086" class="node">
<title>Node86</title>
<g id="a_Node000086"><a xlink:href="class_i_r_1_1_node.html" target="_top" xlink:title=" ">
<polygon fill="white" stroke="orangered" points="509,-510 451,-510 451,-491 509,-491 509,-510"/>
<text text-anchor="middle" x="480" y="-498" font-family="Helvetica,sans-Serif" font-size="10.00">IR::Node</text>
</a>
</g>
</g>
<!-- Node84&#45;&gt;Node86 -->
<g id="edge39_Node000084_Node000086" class="edge">
<title>Node84&#45;&gt;Node86</title>
<g id="a_edge39_Node000084_Node000086"><a xlink:title=" ">
<path fill="none" stroke="#63b8ff" d="M322.98,-529.16C361.03,-522.17 417.32,-511.83 450.86,-505.67"/>
<polygon fill="#63b8ff" stroke="#63b8ff" points="321.97,-525.78 312.77,-531.03 323.24,-532.67 321.97,-525.78"/>
</a>
</g>
</g>
<!-- Node123 -->
<g id="Node000123" class="node">
<title>Node123</title>
<g id="a_Node000123"><a xlink:href="class_json_boolean.html" target="_top" xlink:title=" ">
<polygon fill="white" stroke="#bfbfbf" points="518.5,-473 441.5,-473 441.5,-454 518.5,-454 518.5,-473"/>
<text text-anchor="middle" x="480" y="-461" font-family="Helvetica,sans-Serif" font-size="10.00">JsonBoolean</text>
</a>
</g>
</g>
<!-- Node122&#45;&gt;Node123 -->
<g id="edge41_Node000122_Node000123" class="edge">
<title>Node122&#45;&gt;Node123</title>
<g id="a_edge41_Node000122_Node000123"><a xlink:title=" ">
<path fill="none" stroke="#63b8ff" d="M322.58,-492.23C357.26,-485.86 407.31,-476.67 441.39,-470.41"/>
<polygon fill="#63b8ff" stroke="#63b8ff" points="321.55,-488.86 312.34,-494.11 322.81,-495.75 321.55,-488.86"/>
</a>
</g>
</g>
<!-- Node124 -->
<g id="Node000124" class="node">
<title>Node124</title>
<g id="a_Node000124"><a xlink:href="class_json_null.html" target="_top" xlink:title=" ">
<polygon fill="white" stroke="#bfbfbf" points="508,-436 452,-436 452,-417 508,-417 508,-436"/>
<text text-anchor="middle" x="480" y="-424" font-family="Helvetica,sans-Serif" font-size="10.00">JsonNull</text>
</a>
</g>
</g>
<!-- Node122&#45;&gt;Node124 -->
<g id="edge42_Node000122_Node000124" class="edge">
<title>Node122&#45;&gt;Node124</title>
<g id="a_edge42_Node000122_Node000124"><a xlink:title=" ">
<path fill="none" stroke="#63b8ff" d="M322.41,-495C335.57,-492.35 349.95,-488.16 362,-481.5 381.81,-470.56 378.23,-456.5 398,-445.5 414.53,-436.3 435.36,-431.54 451.75,-429.08"/>
<polygon fill="#63b8ff" stroke="#63b8ff" points="321.41,-491.62 312.17,-496.81 322.63,-498.51 321.41,-491.62"/>
</a>
</g>
</g>
<!-- Node125 -->
<g id="Node000125" class="node">
<title>Node125</title>
<g id="a_Node000125"><a xlink:href="class_json_number.html" target="_top" xlink:title=" ">
<polygon fill="white" stroke="#bfbfbf" points="518,-399 442,-399 442,-380 518,-380 518,-399"/>
<text text-anchor="middle" x="480" y="-387" font-family="Helvetica,sans-Serif" font-size="10.00">JsonNumber</text>
</a>
</g>
</g>
<!-- Node122&#45;&gt;Node125 -->
<g id="edge43_Node000122_Node000125" class="edge">
<title>Node122&#45;&gt;Node125</title>
<g id="a_edge43_Node000122_Node000125"><a xlink:title=" ">
<path fill="none" stroke="#63b8ff" d="M322.49,-497.42C336.17,-495.02 350.85,-490.35 362,-481.5 390.64,-458.76 369.29,-430.16 398,-407.5 410.32,-397.77 426.84,-393.06 441.74,-390.86"/>
<polygon fill="#63b8ff" stroke="#63b8ff" points="321.72,-494 312.3,-498.86 322.69,-500.93 321.72,-494"/>
</a>
</g>
</g>
</g>
</svg>
