<?xml version="1.0" encoding="UTF-8" standalone="no"?>
<!DOCTYPE svg PUBLIC "-//W3C//DTD SVG 1.1//EN"
 "http://www.w3.org/Graphics/SVG/1.1/DTD/svg11.dtd">
<!-- Generated by graphviz version 2.43.0 (0)
 -->
<!-- Title: P4::ControlPlaneAPI::TranslationAnnotation Pages: 1 -->
<svg width="238pt" height="185pt"
 viewBox="0.00 0.00 237.50 185.00" xmlns="http://www.w3.org/2000/svg" xmlns:xlink="http://www.w3.org/1999/xlink">
<g id="graph0" class="graph" transform="scale(1 1) rotate(0) translate(4 181)">
<title>P4::ControlPlaneAPI::TranslationAnnotation</title>
<polygon fill="white" stroke="transparent" points="-4,4 -4,-181 233.5,-181 233.5,4 -4,4"/>
<!-- Node1 -->
<g id="node1" class="node">
<title>Node1</title>
<g id="a_node1"><a xlink:title="Payload of @p4runtime_translation annotation.">
<polygon fill="#bfbfbf" stroke="black" points="43,-0.5 43,-30.5 172,-30.5 172,-0.5 43,-0.5"/>
<text text-anchor="start" x="51" y="-18.5" font-family="Helvetica,sans-Serif" font-size="10.00">P4::ControlPlaneAPI</text>
<text text-anchor="middle" x="107.5" y="-7.5" font-family="Helvetica,sans-Serif" font-size="10.00">::TranslationAnnotation</text>
</a>
</g>
</g>
<!-- Node2 -->
<g id="node2" class="node">
<title>Node2</title>
<g id="a_node2"><a xlink:href="struct_p4_1_1_control_plane_a_p_i_1_1_controller_type.html" target="_top" xlink:title="See section &quot;User&#45;defined types&quot; in P4RT specification.">
<polygon fill="white" stroke="black" points="0,-78.5 0,-108.5 113,-108.5 113,-78.5 0,-78.5"/>
<text text-anchor="start" x="8" y="-96.5" font-family="Helvetica,sans-Serif" font-size="10.00">P4::ControlPlaneAPI</text>
<text text-anchor="middle" x="56.5" y="-85.5" font-family="Helvetica,sans-Serif" font-size="10.00">::ControllerType</text>
</a>
</g>
</g>
<!-- Node2&#45;&gt;Node1 -->
<g id="edge1" class="edge">
<title>Node2&#45;&gt;Node1</title>
<path fill="none" stroke="#9a32cd" stroke-dasharray="5,2" d="M55.1,-67.84C55.68,-61.36 57.22,-54.62 60.5,-49 64.8,-41.63 71.52,-35.55 78.54,-30.72"/>
<polygon fill="#9a32cd" stroke="#9a32cd" points="51.59,-68.18 54.87,-78.26 58.59,-68.34 51.59,-68.18"/>
<text text-anchor="middle" x="99" y="-52" font-family="Helvetica,sans-Serif" font-size="10.00"> controller_type</text>
</g>
<!-- Node3 -->
<g id="node3" class="node">
<title>Node3</title>
<g id="a_node3"><a xlink:title=" ">
<polygon fill="white" stroke="#bfbfbf" points="131,-84 131,-103 196,-103 196,-84 131,-84"/>
<text text-anchor="middle" x="163.5" y="-91" font-family="Helvetica,sans-Serif" font-size="10.00">std::string</text>
</a>
</g>
</g>
<!-- Node3&#45;&gt;Node1 -->
<g id="edge2" class="edge">
<title>Node3&#45;&gt;Node1</title>
<path fill="none" stroke="#9a32cd" stroke-dasharray="5,2" d="M154.06,-74.86C149.44,-66.73 143.57,-57.12 137.5,-49 132.72,-42.6 126.87,-36.04 121.61,-30.5"/>
<polygon fill="#9a32cd" stroke="#9a32cd" points="151.12,-76.76 159.01,-83.83 157.24,-73.38 151.12,-76.76"/>
<text text-anchor="middle" x="187" y="-52" font-family="Helvetica,sans-Serif" font-size="10.00"> original_type_uri</text>
</g>
<!-- Node4 -->
<g id="node4" class="node">
<title>Node4</title>
<g id="a_node4"><a xlink:title=" ">
<polygon fill="white" stroke="#bfbfbf" points="111.5,-146.5 111.5,-176.5 215.5,-176.5 215.5,-146.5 111.5,-146.5"/>
<text text-anchor="start" x="119.5" y="-164.5" font-family="Helvetica,sans-Serif" font-size="10.00">std::basic_string&lt;</text>
<text text-anchor="middle" x="163.5" y="-153.5" font-family="Helvetica,sans-Serif" font-size="10.00"> Char &gt;</text>
</a>
</g>
</g>
<!-- Node4&#45;&gt;Node3 -->
<g id="edge3" class="edge">
<title>Node4&#45;&gt;Node3</title>
<path fill="none" stroke="midnightblue" d="M163.5,-135.88C163.5,-124.47 163.5,-111.64 163.5,-103.33"/>
<polygon fill="midnightblue" stroke="midnightblue" points="160,-136.18 163.5,-146.18 167,-136.18 160,-136.18"/>
</g>
</g>
</svg>
