<?xml version="1.0" encoding="UTF-8" standalone="no"?>
<!DOCTYPE svg PUBLIC "-//W3C//DTD SVG 1.1//EN"
 "http://www.w3.org/Graphics/SVG/1.1/DTD/svg11.dtd">
<!-- Generated by graphviz version 2.43.0 (0)
 -->
<!-- Title: P4V1::ActionProfile_Model Pages: 1 -->
<svg width="198pt" height="289pt"
 viewBox="0.00 0.00 198.00 289.00" xmlns="http://www.w3.org/2000/svg" xmlns:xlink="http://www.w3.org/1999/xlink">
<g id="graph0" class="graph" transform="scale(1 1) rotate(0) translate(4 285)">
<title>P4V1::ActionProfile_Model</title>
<polygon fill="white" stroke="transparent" points="-4,4 -4,-285 194,-285 194,4 -4,4"/>
<!-- Node1 -->
<g id="node1" class="node">
<title>Node1</title>
<g id="a_node1"><a xlink:title=" ">
<polygon fill="#bfbfbf" stroke="black" points="0,-0.5 0,-30.5 109,-30.5 109,-0.5 0,-0.5"/>
<text text-anchor="start" x="8" y="-18.5" font-family="Helvetica,sans-Serif" font-size="10.00">P4V1::ActionProfile</text>
<text text-anchor="middle" x="54.5" y="-7.5" font-family="Helvetica,sans-Serif" font-size="10.00">_Model</text>
</a>
</g>
</g>
<!-- Node2 -->
<g id="node2" class="node">
<title>Node2</title>
<g id="a_node2"><a xlink:href="struct_model_1_1_extern___model.html" target="_top" xlink:title="Extern_Model : Type_Model.">
<polygon fill="white" stroke="black" points="71,-68.5 71,-87.5 190,-87.5 190,-68.5 71,-68.5"/>
<text text-anchor="middle" x="130.5" y="-75.5" font-family="Helvetica,sans-Serif" font-size="10.00">Model::Extern_Model</text>
</a>
</g>
</g>
<!-- Node2&#45;&gt;Node1 -->
<g id="edge1" class="edge">
<title>Node2&#45;&gt;Node1</title>
<path fill="none" stroke="midnightblue" d="M111.53,-61.9C99.46,-52.29 83.92,-39.92 72.12,-30.53"/>
<polygon fill="midnightblue" stroke="midnightblue" points="109.61,-64.84 119.61,-68.33 113.97,-59.37 109.61,-64.84"/>
</g>
<!-- Node3 -->
<g id="node3" class="node">
<title>Node3</title>
<g id="a_node3"><a xlink:href="struct_model_1_1_type___model.html" target="_top" xlink:title=" ">
<polygon fill="white" stroke="black" points="72.5,-135.5 72.5,-154.5 182.5,-154.5 182.5,-135.5 72.5,-135.5"/>
<text text-anchor="middle" x="127.5" y="-142.5" font-family="Helvetica,sans-Serif" font-size="10.00">Model::Type_Model</text>
</a>
</g>
</g>
<!-- Node3&#45;&gt;Node2 -->
<g id="edge2" class="edge">
<title>Node3&#45;&gt;Node2</title>
<path fill="none" stroke="midnightblue" d="M128.38,-125.04C128.95,-112.67 129.66,-97.12 130.1,-87.63"/>
<polygon fill="midnightblue" stroke="midnightblue" points="124.87,-125.08 127.9,-135.23 131.86,-125.41 124.87,-125.08"/>
</g>
<!-- Node4 -->
<g id="node4" class="node">
<title>Node4</title>
<g id="a_node4"><a xlink:href="struct_model_1_1_elem.html" target="_top" xlink:title=" ">
<polygon fill="white" stroke="black" points="16,-192.5 16,-211.5 93,-211.5 93,-192.5 16,-192.5"/>
<text text-anchor="middle" x="54.5" y="-199.5" font-family="Helvetica,sans-Serif" font-size="10.00">Model::Elem</text>
</a>
</g>
</g>
<!-- Node4&#45;&gt;Node1 -->
<g id="edge6" class="edge">
<title>Node4&#45;&gt;Node1</title>
<path fill="none" stroke="#9a32cd" stroke-dasharray="5,2" d="M54.5,-181.64C54.5,-144.33 54.5,-63.27 54.5,-30.59"/>
<polygon fill="#9a32cd" stroke="#9a32cd" points="51,-182.1 54.5,-192.1 58,-182.1 51,-182.1"/>
<text text-anchor="middle" x="81.5" y="-109" font-family="Helvetica,sans-Serif" font-size="10.00"> sizeParam</text>
</g>
<!-- Node4&#45;&gt;Node3 -->
<g id="edge3" class="edge">
<title>Node4&#45;&gt;Node3</title>
<path fill="none" stroke="midnightblue" d="M74.03,-186.29C87.4,-176.21 104.69,-163.19 115.93,-154.71"/>
<polygon fill="midnightblue" stroke="midnightblue" points="71.79,-183.59 65.91,-192.41 76,-189.18 71.79,-183.59"/>
</g>
<!-- Node5 -->
<g id="node5" class="node">
<title>Node5</title>
<g id="a_node5"><a xlink:href="classcstring.html" target="_top" xlink:title=" ">
<polygon fill="white" stroke="black" points="29.5,-260.5 29.5,-279.5 79.5,-279.5 79.5,-260.5 29.5,-260.5"/>
<text text-anchor="middle" x="54.5" y="-267.5" font-family="Helvetica,sans-Serif" font-size="10.00">cstring</text>
</a>
</g>
</g>
<!-- Node5&#45;&gt;Node4 -->
<g id="edge4" class="edge">
<title>Node5&#45;&gt;Node4</title>
<path fill="none" stroke="#9a32cd" stroke-dasharray="5,2" d="M54.5,-250.04C54.5,-237.47 54.5,-221.56 54.5,-211.84"/>
<polygon fill="#9a32cd" stroke="#9a32cd" points="51,-250.37 54.5,-260.37 58,-250.37 51,-250.37"/>
<text text-anchor="middle" x="70" y="-233" font-family="Helvetica,sans-Serif" font-size="10.00"> name</text>
</g>
<!-- Node5&#45;&gt;Node5 -->
<g id="edge5" class="edge">
<title>Node5&#45;&gt;Node5</title>
<path fill="none" stroke="#9a32cd" stroke-dasharray="5,2" d="M89.95,-275.58C94.5,-274.61 97.5,-272.75 97.5,-270 97.5,-265.48 89.41,-263.37 79.68,-263.65"/>
<polygon fill="#9a32cd" stroke="#9a32cd" points="89.39,-272.11 79.68,-276.35 89.91,-279.1 89.39,-272.11"/>
<text text-anchor="middle" x="117" y="-273" font-family="Helvetica,sans-Serif" font-size="10.00"> empty</text>
<text text-anchor="middle" x="117" y="-262" font-family="Helvetica,sans-Serif" font-size="10.00">newline</text>
</g>
</g>
</svg>
