<?xml version="1.0" encoding="UTF-8" standalone="no"?>
<!DOCTYPE svg PUBLIC "-//W3C//DTD SVG 1.1//EN"
 "http://www.w3.org/Graphics/SVG/1.1/DTD/svg11.dtd">
<!-- Generated by graphviz version 2.43.0 (0)
 -->
<!-- Title: P4Tools::P4Testgen::Pna::SharedPnaTableStepper::SharedPnaProperties Pages: 1 -->
<svg width="813pt" height="137pt"
 viewBox="0.00 0.00 813.00 137.00" xmlns="http://www.w3.org/2000/svg" xmlns:xlink="http://www.w3.org/1999/xlink">
<g id="graph0" class="graph" transform="scale(1 1) rotate(0) translate(4 133)">
<title>P4Tools::P4Testgen::Pna::SharedPnaTableStepper::SharedPnaProperties</title>
<polygon fill="white" stroke="transparent" points="-4,4 -4,-133 809,-133 809,4 -4,4"/>
<!-- Node1 -->
<g id="node1" class="node">
<title>Node1</title>
<g id="a_node1"><a xlink:title="Shared PNA table properties.">
<polygon fill="#bfbfbf" stroke="black" points="644,-44 644,-85 805,-85 805,-44 644,-44"/>
<text text-anchor="start" x="652" y="-73" font-family="Helvetica,sans-Serif" font-size="10.00">P4Tools::P4Testgen</text>
<text text-anchor="start" x="652" y="-62" font-family="Helvetica,sans-Serif" font-size="10.00">::Pna::SharedPnaTableStepper</text>
<text text-anchor="middle" x="724.5" y="-51" font-family="Helvetica,sans-Serif" font-size="10.00">::SharedPnaProperties</text>
</a>
</g>
</g>
<!-- Node2 -->
<g id="node2" class="node">
<title>Node2</title>
<g id="a_node2"><a xlink:href="class_p4_tools_1_1_p4_testgen_1_1_pna_1_1_pna_dpdk_action_selector.html" target="_top" xlink:title=" ">
<polygon fill="white" stroke="black" points="350,-98.5 350,-128.5 511,-128.5 511,-98.5 350,-98.5"/>
<text text-anchor="start" x="358" y="-116.5" font-family="Helvetica,sans-Serif" font-size="10.00">P4Tools::P4Testgen</text>
<text text-anchor="middle" x="430.5" y="-105.5" font-family="Helvetica,sans-Serif" font-size="10.00">::Pna::PnaDpdkActionSelector</text>
</a>
</g>
</g>
<!-- Node2&#45;&gt;Node1 -->
<g id="edge1" class="edge">
<title>Node2&#45;&gt;Node1</title>
<path fill="none" stroke="#9a32cd" stroke-dasharray="5,2" d="M521.6,-98.38C560.66,-91.83 606,-84.22 643.81,-77.87"/>
<polygon fill="#9a32cd" stroke="#9a32cd" points="520.57,-95 511.29,-100.11 521.73,-101.91 520.57,-95"/>
<text text-anchor="middle" x="577.5" y="-98.5" font-family="Helvetica,sans-Serif" font-size="10.00"> actionSelector</text>
</g>
<!-- Node3 -->
<g id="node3" class="node">
<title>Node3</title>
<g id="a_node3"><a xlink:href="class_p4_tools_1_1_p4_testgen_1_1_test_object.html" target="_top" xlink:title=" ">
<polygon fill="white" stroke="black" points="204,-73.5 204,-103.5 313,-103.5 313,-73.5 204,-73.5"/>
<text text-anchor="start" x="212" y="-91.5" font-family="Helvetica,sans-Serif" font-size="10.00">P4Tools::P4Testgen</text>
<text text-anchor="middle" x="258.5" y="-80.5" font-family="Helvetica,sans-Serif" font-size="10.00">::TestObject</text>
</a>
</g>
</g>
<!-- Node3&#45;&gt;Node2 -->
<g id="edge2" class="edge">
<title>Node3&#45;&gt;Node2</title>
<path fill="none" stroke="midnightblue" d="M323.33,-97.89C332.03,-99.17 341.04,-100.49 349.98,-101.81"/>
<polygon fill="midnightblue" stroke="midnightblue" points="323.69,-94.4 313.29,-96.41 322.67,-101.33 323.69,-94.4"/>
</g>
<!-- Node6 -->
<g id="node6" class="node">
<title>Node6</title>
<g id="a_node6"><a xlink:href="class_p4_tools_1_1_p4_testgen_1_1_pna_1_1_pna_dpdk_action_profile.html" target="_top" xlink:title=" ">
<polygon fill="white" stroke="black" points="354.5,-49.5 354.5,-79.5 506.5,-79.5 506.5,-49.5 354.5,-49.5"/>
<text text-anchor="start" x="362.5" y="-67.5" font-family="Helvetica,sans-Serif" font-size="10.00">P4Tools::P4Testgen</text>
<text text-anchor="middle" x="430.5" y="-56.5" font-family="Helvetica,sans-Serif" font-size="10.00">::Pna::PnaDpdkActionProfile</text>
</a>
</g>
</g>
<!-- Node3&#45;&gt;Node6 -->
<g id="edge6" class="edge">
<title>Node3&#45;&gt;Node6</title>
<path fill="none" stroke="midnightblue" d="M323.26,-79.5C333.39,-78.07 343.95,-76.58 354.32,-75.11"/>
<polygon fill="midnightblue" stroke="midnightblue" points="322.7,-76.04 313.29,-80.91 323.68,-82.97 322.7,-76.04"/>
</g>
<!-- Node4 -->
<g id="node4" class="node">
<title>Node4</title>
<g id="a_node4"><a xlink:href="class_i_castable.html" target="_top" xlink:title=" ">
<polygon fill="white" stroke="black" points="105,-79 105,-98 167,-98 167,-79 105,-79"/>
<text text-anchor="middle" x="136" y="-86" font-family="Helvetica,sans-Serif" font-size="10.00">ICastable</text>
</a>
</g>
</g>
<!-- Node4&#45;&gt;Node3 -->
<g id="edge3" class="edge">
<title>Node4&#45;&gt;Node3</title>
<path fill="none" stroke="midnightblue" d="M177.18,-88.5C185.74,-88.5 194.91,-88.5 203.88,-88.5"/>
<polygon fill="midnightblue" stroke="midnightblue" points="177.1,-85 167.1,-88.5 177.1,-92 177.1,-85"/>
</g>
<!-- Node5 -->
<g id="node5" class="node">
<title>Node5</title>
<g id="a_node5"><a xlink:href="struct_r_t_t_i_1_1_base.html" target="_top" xlink:title=" ">
<polygon fill="white" stroke="black" points="0,-79 0,-98 68,-98 68,-79 0,-79"/>
<text text-anchor="middle" x="34" y="-86" font-family="Helvetica,sans-Serif" font-size="10.00">RTTI::Base</text>
</a>
</g>
</g>
<!-- Node5&#45;&gt;Node4 -->
<g id="edge4" class="edge">
<title>Node5&#45;&gt;Node4</title>
<path fill="none" stroke="midnightblue" d="M78.28,-88.5C87.19,-88.5 96.39,-88.5 104.72,-88.5"/>
<polygon fill="midnightblue" stroke="midnightblue" points="78.02,-85 68.02,-88.5 78.02,-92 78.02,-85"/>
</g>
<!-- Node6&#45;&gt;Node1 -->
<g id="edge5" class="edge">
<title>Node6&#45;&gt;Node1</title>
<path fill="none" stroke="#9a32cd" stroke-dasharray="5,2" d="M516.74,-64.5C556.91,-64.5 604.54,-64.5 643.96,-64.5"/>
<polygon fill="#9a32cd" stroke="#9a32cd" points="516.7,-61 506.7,-64.5 516.7,-68 516.7,-61"/>
<text text-anchor="middle" x="577.5" y="-67.5" font-family="Helvetica,sans-Serif" font-size="10.00"> actionProfile</text>
</g>
<!-- Node7 -->
<g id="node7" class="node">
<title>Node7</title>
<g id="a_node7"><a xlink:title=" ">
<polygon fill="white" stroke="#bfbfbf" points="376.5,-0.5 376.5,-30.5 484.5,-30.5 484.5,-0.5 376.5,-0.5"/>
<text text-anchor="start" x="384.5" y="-18.5" font-family="Helvetica,sans-Serif" font-size="10.00">std::vector&lt; const</text>
<text text-anchor="middle" x="430.5" y="-7.5" font-family="Helvetica,sans-Serif" font-size="10.00"> IR::Expression * &gt;</text>
</a>
</g>
</g>
<!-- Node7&#45;&gt;Node1 -->
<g id="edge7" class="edge">
<title>Node7&#45;&gt;Node1</title>
<path fill="none" stroke="#9a32cd" stroke-dasharray="5,2" d="M494.66,-26.1C538.41,-33.44 597,-43.27 643.94,-51.15"/>
<polygon fill="#9a32cd" stroke="#9a32cd" points="495.16,-22.63 484.72,-24.43 494,-29.54 495.16,-22.63"/>
<text text-anchor="middle" x="577.5" y="-50.5" font-family="Helvetica,sans-Serif" font-size="10.00"> actionSelectorKeys</text>
</g>
</g>
</svg>
