<?xml version="1.0" encoding="UTF-8" standalone="no"?>
<!DOCTYPE svg PUBLIC "-//W3C//DTD SVG 1.1//EN"
 "http://www.w3.org/Graphics/SVG/1.1/DTD/svg11.dtd">
<!-- Generated by graphviz version 2.43.0 (0)
 -->
<!-- Title: DPDK::TopLevelCtxt Pages: 1 -->
<svg width="155pt" height="130pt"
 viewBox="0.00 0.00 154.50 130.00" xmlns="http://www.w3.org/2000/svg" xmlns:xlink="http://www.w3.org/1999/xlink">
<g id="graph0" class="graph" transform="scale(1 1) rotate(0) translate(4 126)">
<title>DPDK::TopLevelCtxt</title>
<polygon fill="white" stroke="transparent" points="-4,4 -4,-126 150.5,-126 150.5,4 -4,4"/>
<!-- Node1 -->
<g id="node1" class="node">
<title>Node1</title>
<g id="a_node1"><a xlink:title=" ">
<polygon fill="#bfbfbf" stroke="black" points="0,-0.5 0,-19.5 113,-19.5 113,-0.5 0,-0.5"/>
<text text-anchor="middle" x="56.5" y="-7.5" font-family="Helvetica,sans-Serif" font-size="10.00">DPDK::TopLevelCtxt</text>
</a>
</g>
</g>
<!-- Node2 -->
<g id="node2" class="node">
<title>Node2</title>
<g id="a_node2"><a xlink:href="classcstring.html" target="_top" xlink:title=" ">
<polygon fill="white" stroke="black" points="31.5,-101.5 31.5,-120.5 81.5,-120.5 81.5,-101.5 31.5,-101.5"/>
<text text-anchor="middle" x="56.5" y="-108.5" font-family="Helvetica,sans-Serif" font-size="10.00">cstring</text>
</a>
</g>
</g>
<!-- Node2&#45;&gt;Node1 -->
<g id="edge1" class="edge">
<title>Node2&#45;&gt;Node1</title>
<path fill="none" stroke="#9a32cd" stroke-dasharray="5,2" d="M56.5,-91.03C56.5,-69.54 56.5,-35.47 56.5,-19.62"/>
<polygon fill="#9a32cd" stroke="#9a32cd" points="53,-91.21 56.5,-101.21 60,-91.21 53,-91.21"/>
<text text-anchor="middle" x="101.5" y="-74" font-family="Helvetica,sans-Serif" font-size="10.00"> buildDate</text>
<text text-anchor="middle" x="101.5" y="-63" font-family="Helvetica,sans-Serif" font-size="10.00">compileCommand</text>
<text text-anchor="middle" x="101.5" y="-52" font-family="Helvetica,sans-Serif" font-size="10.00">compilerVersion</text>
<text text-anchor="middle" x="101.5" y="-41" font-family="Helvetica,sans-Serif" font-size="10.00">progName</text>
</g>
<!-- Node2&#45;&gt;Node2 -->
<g id="edge2" class="edge">
<title>Node2&#45;&gt;Node2</title>
<path fill="none" stroke="#9a32cd" stroke-dasharray="5,2" d="M91.95,-119.21C96.5,-117.78 99.5,-115.05 99.5,-111 99.5,-104.36 91.41,-101.25 81.68,-101.66"/>
<polygon fill="#9a32cd" stroke="#9a32cd" points="91.23,-115.77 81.68,-120.34 92,-122.73 91.23,-115.77"/>
<text text-anchor="middle" x="119" y="-114" font-family="Helvetica,sans-Serif" font-size="10.00"> empty</text>
<text text-anchor="middle" x="119" y="-103" font-family="Helvetica,sans-Serif" font-size="10.00">newline</text>
</g>
</g>
</svg>
