<?xml version="1.0" encoding="UTF-8" standalone="no"?>
<!DOCTYPE svg PUBLIC "-//W3C//DTD SVG 1.1//EN"
 "http://www.w3.org/Graphics/SVG/1.1/DTD/svg11.dtd">
<!-- Generated by graphviz version 2.43.0 (0)
 -->
<!-- Title: P4Tools::ArchSpec::ArchMember Pages: 1 -->
<svg width="248pt" height="175pt"
 viewBox="0.00 0.00 248.00 175.00" xmlns="http://www.w3.org/2000/svg" xmlns:xlink="http://www.w3.org/1999/xlink">
<g id="graph0" class="graph" transform="scale(1 1) rotate(0) translate(4 171)">
<title>P4Tools::ArchSpec::ArchMember</title>
<polygon fill="white" stroke="transparent" points="-4,4 -4,-171 244,-171 244,4 -4,4"/>
<!-- Node1 -->
<g id="node1" class="node">
<title>Node1</title>
<g id="a_node1"><a xlink:title="An ArchMember represents a construct in the pipe. It has a name and parameters.">
<polygon fill="#bfbfbf" stroke="black" points="0,-0.5 0,-30.5 110,-30.5 110,-0.5 0,-0.5"/>
<text text-anchor="start" x="8" y="-18.5" font-family="Helvetica,sans-Serif" font-size="10.00">P4Tools::ArchSpec::</text>
<text text-anchor="middle" x="55" y="-7.5" font-family="Helvetica,sans-Serif" font-size="10.00">ArchMember</text>
</a>
</g>
</g>
<!-- Node2 -->
<g id="node2" class="node">
<title>Node2</title>
<g id="a_node2"><a xlink:href="classcstring.html" target="_top" xlink:title=" ">
<polygon fill="white" stroke="black" points="30,-146.5 30,-165.5 80,-165.5 80,-146.5 30,-146.5"/>
<text text-anchor="middle" x="55" y="-153.5" font-family="Helvetica,sans-Serif" font-size="10.00">cstring</text>
</a>
</g>
</g>
<!-- Node2&#45;&gt;Node1 -->
<g id="edge1" class="edge">
<title>Node2&#45;&gt;Node1</title>
<path fill="none" stroke="#9a32cd" stroke-dasharray="5,2" d="M52.07,-135.96C50.52,-124.91 48.78,-110.7 48,-98 46.55,-74.33 49.97,-46.86 52.53,-30.62"/>
<polygon fill="#9a32cd" stroke="#9a32cd" points="48.65,-136.76 53.57,-146.15 55.58,-135.74 48.65,-136.76"/>
<text text-anchor="middle" x="77.5" y="-85.5" font-family="Helvetica,sans-Serif" font-size="10.00"> blockName</text>
</g>
<!-- Node2&#45;&gt;Node2 -->
<g id="edge2" class="edge">
<title>Node2&#45;&gt;Node2</title>
<path fill="none" stroke="#9a32cd" stroke-dasharray="5,2" d="M90.45,-161.58C95,-160.61 98,-158.75 98,-156 98,-151.48 89.91,-149.37 80.18,-149.65"/>
<polygon fill="#9a32cd" stroke="#9a32cd" points="89.89,-158.11 80.18,-162.35 90.41,-165.1 89.89,-158.11"/>
<text text-anchor="middle" x="117.5" y="-159" font-family="Helvetica,sans-Serif" font-size="10.00"> empty</text>
<text text-anchor="middle" x="117.5" y="-148" font-family="Helvetica,sans-Serif" font-size="10.00">newline</text>
</g>
<!-- Node3 -->
<g id="node3" class="node">
<title>Node3</title>
<g id="a_node3"><a xlink:title=" ">
<polygon fill="white" stroke="#bfbfbf" points="116,-78.5 116,-97.5 240,-97.5 240,-78.5 116,-78.5"/>
<text text-anchor="middle" x="178" y="-85.5" font-family="Helvetica,sans-Serif" font-size="10.00">std::vector&lt; cstring &gt;</text>
</a>
</g>
</g>
<!-- Node2&#45;&gt;Node3 -->
<g id="edge4" class="edge">
<title>Node2&#45;&gt;Node3</title>
<path fill="none" stroke="#9a32cd" stroke-dasharray="5,2" d="M80.13,-141.51C104.62,-128.38 141.1,-108.8 161.92,-97.63"/>
<polygon fill="#9a32cd" stroke="#9a32cd" points="78.24,-138.56 71.08,-146.37 81.55,-144.73 78.24,-138.56"/>
<text text-anchor="middle" x="151.5" y="-119" font-family="Helvetica,sans-Serif" font-size="10.00"> elements</text>
</g>
<!-- Node3&#45;&gt;Node1 -->
<g id="edge3" class="edge">
<title>Node3&#45;&gt;Node1</title>
<path fill="none" stroke="#9a32cd" stroke-dasharray="5,2" d="M154.1,-73.3C132.63,-60.99 101.23,-43 79.56,-30.58"/>
<polygon fill="#9a32cd" stroke="#9a32cd" points="152.5,-76.42 162.92,-78.36 155.98,-70.35 152.5,-76.42"/>
<text text-anchor="middle" x="160" y="-52" font-family="Helvetica,sans-Serif" font-size="10.00"> blockParams</text>
</g>
</g>
</svg>
