<?xml version="1.0" encoding="UTF-8" standalone="no"?>
<!DOCTYPE svg PUBLIC "-//W3C//DTD SVG 1.1//EN"
 "http://www.w3.org/Graphics/SVG/1.1/DTD/svg11.dtd">
<!-- Generated by graphviz version 2.43.0 (0)
 -->
<!-- Title: bpf_table Pages: 1 -->
<svg width="267pt" height="164pt"
 viewBox="0.00 0.00 267.00 164.00" xmlns="http://www.w3.org/2000/svg" xmlns:xlink="http://www.w3.org/1999/xlink">
<g id="graph0" class="graph" transform="scale(1 1) rotate(0) translate(4 160)">
<title>bpf_table</title>
<polygon fill="white" stroke="transparent" points="-4,4 -4,-160 263,-160 263,4 -4,4"/>
<!-- Node1 -->
<g id="node1" class="node">
<title>Node1</title>
<g id="a_node1"><a xlink:title="A helper structure used to describe attributes.">
<polygon fill="#bfbfbf" stroke="black" points="0,-0.5 0,-19.5 62,-19.5 62,-0.5 0,-0.5"/>
<text text-anchor="middle" x="31" y="-7.5" font-family="Helvetica,sans-Serif" font-size="10.00">bpf_table</text>
</a>
</g>
</g>
<!-- Node2 -->
<g id="node2" class="node">
<title>Node2</title>
<g id="a_node2"><a xlink:href="structbpf__map.html" target="_top" xlink:title=" ">
<polygon fill="white" stroke="black" points="1.5,-67.5 1.5,-86.5 60.5,-86.5 60.5,-67.5 1.5,-67.5"/>
<text text-anchor="middle" x="31" y="-74.5" font-family="Helvetica,sans-Serif" font-size="10.00">bpf_map</text>
</a>
</g>
</g>
<!-- Node2&#45;&gt;Node1 -->
<g id="edge1" class="edge">
<title>Node2&#45;&gt;Node1</title>
<path fill="none" stroke="#9a32cd" stroke-dasharray="5,2" d="M31,-57.04C31,-44.67 31,-29.12 31,-19.63"/>
<polygon fill="#9a32cd" stroke="#9a32cd" points="27.5,-57.23 31,-67.23 34.5,-57.23 27.5,-57.23"/>
<text text-anchor="middle" x="54" y="-41" font-family="Helvetica,sans-Serif" font-size="10.00"> bpf_map</text>
</g>
<!-- Node3 -->
<g id="node3" class="node">
<title>Node3</title>
<g id="a_node3"><a xlink:href="struct_u_t__hash__handle.html" target="_top" xlink:title=" ">
<polygon fill="white" stroke="black" points="77.5,-135.5 77.5,-154.5 174.5,-154.5 174.5,-135.5 77.5,-135.5"/>
<text text-anchor="middle" x="126" y="-142.5" font-family="Helvetica,sans-Serif" font-size="10.00">UT_hash_handle</text>
</a>
</g>
</g>
<!-- Node3&#45;&gt;Node2 -->
<g id="edge2" class="edge">
<title>Node3&#45;&gt;Node2</title>
<path fill="none" stroke="#9a32cd" stroke-dasharray="5,2" d="M93.88,-131.37C84.8,-127.12 75.17,-121.93 67,-116 55.38,-107.57 44.39,-95.07 37.68,-86.74"/>
<polygon fill="#9a32cd" stroke="#9a32cd" points="92.5,-134.59 103.06,-135.46 95.34,-128.2 92.5,-134.59"/>
<text text-anchor="middle" x="75" y="-108" font-family="Helvetica,sans-Serif" font-size="10.00"> hh</text>
</g>
<!-- Node3&#45;&gt;Node3 -->
<g id="edge3" class="edge">
<title>Node3&#45;&gt;Node3</title>
<path fill="none" stroke="#9a32cd" stroke-dasharray="5,2" d="M184.88,-149.86C189.59,-148.8 192.5,-147.18 192.5,-145 192.5,-141.51 185.04,-139.46 174.71,-138.83"/>
<polygon fill="#9a32cd" stroke="#9a32cd" points="184.19,-146.42 174.71,-151.17 185.08,-153.36 184.19,-146.42"/>
<text text-anchor="middle" x="214" y="-148" font-family="Helvetica,sans-Serif" font-size="10.00"> hh_next</text>
<text text-anchor="middle" x="214" y="-137" font-family="Helvetica,sans-Serif" font-size="10.00">hh_prev</text>
</g>
<!-- Node4 -->
<g id="node4" class="node">
<title>Node4</title>
<g id="a_node4"><a xlink:href="struct_u_t__hash__table.html" target="_top" xlink:title=" ">
<polygon fill="white" stroke="black" points="137.5,-0.5 137.5,-19.5 226.5,-19.5 226.5,-0.5 137.5,-0.5"/>
<text text-anchor="middle" x="182" y="-7.5" font-family="Helvetica,sans-Serif" font-size="10.00">UT_hash_table</text>
</a>
</g>
</g>
<!-- Node3&#45;&gt;Node4 -->
<g id="edge7" class="edge">
<title>Node3&#45;&gt;Node4</title>
<path fill="none" stroke="#9a32cd" stroke-dasharray="5,2" d="M114.73,-126.64C105.8,-110.52 96.3,-86.19 106,-67 117.53,-44.18 143.23,-28.38 161.55,-19.51"/>
<polygon fill="#9a32cd" stroke="#9a32cd" points="111.89,-128.72 120.04,-135.49 117.9,-125.12 111.89,-128.72"/>
<text text-anchor="middle" x="115.5" y="-74.5" font-family="Helvetica,sans-Serif" font-size="10.00"> tail</text>
</g>
<!-- Node5 -->
<g id="node5" class="node">
<title>Node5</title>
<g id="a_node5"><a xlink:href="struct_u_t__hash__bucket.html" target="_top" xlink:title=" ">
<polygon fill="white" stroke="black" points="134,-67.5 134,-86.5 230,-86.5 230,-67.5 134,-67.5"/>
<text text-anchor="middle" x="182" y="-74.5" font-family="Helvetica,sans-Serif" font-size="10.00">UT_hash_bucket</text>
</a>
</g>
</g>
<!-- Node3&#45;&gt;Node5 -->
<g id="edge6" class="edge">
<title>Node3&#45;&gt;Node5</title>
<path fill="none" stroke="#9a32cd" stroke-dasharray="5,2" d="M139.85,-127.68C150.8,-114.78 165.66,-97.26 174.5,-86.84"/>
<polygon fill="#9a32cd" stroke="#9a32cd" points="137.12,-125.48 133.32,-135.37 142.46,-130.01 137.12,-125.48"/>
<text text-anchor="middle" x="182.5" y="-108" font-family="Helvetica,sans-Serif" font-size="10.00"> hh_head</text>
</g>
<!-- Node4&#45;&gt;Node3 -->
<g id="edge4" class="edge">
<title>Node4&#45;&gt;Node3</title>
<path fill="none" stroke="#9a32cd" stroke-dasharray="5,2" d="M211.34,-24.87C217.06,-28.54 222.63,-32.93 227,-38 241.64,-54.98 247.76,-66.36 239,-87 227.76,-113.5 198.43,-127.8 172.47,-135.46"/>
<polygon fill="#9a32cd" stroke="#9a32cd" points="212.78,-21.66 202.37,-19.68 209.28,-27.72 212.78,-21.66"/>
<text text-anchor="middle" x="251" y="-74.5" font-family="Helvetica,sans-Serif" font-size="10.00"> tbl</text>
</g>
<!-- Node5&#45;&gt;Node4 -->
<g id="edge5" class="edge">
<title>Node5&#45;&gt;Node4</title>
<path fill="none" stroke="#9a32cd" stroke-dasharray="5,2" d="M182,-57.04C182,-44.67 182,-29.12 182,-19.63"/>
<polygon fill="#9a32cd" stroke="#9a32cd" points="178.5,-57.23 182,-67.23 185.5,-57.23 178.5,-57.23"/>
<text text-anchor="middle" x="202.5" y="-41" font-family="Helvetica,sans-Serif" font-size="10.00"> buckets</text>
</g>
</g>
</svg>
