<?xml version="1.0" encoding="UTF-8" standalone="no"?>
<!DOCTYPE svg PUBLIC "-//W3C//DTD SVG 1.1//EN"
 "http://www.w3.org/Graphics/SVG/1.1/DTD/svg11.dtd">
<!-- Generated by graphviz version 2.43.0 (0)
 -->
<!-- Title: P4::CallGraph&lt; T &gt;::Loops Pages: 1 -->
<svg width="209pt" height="340pt"
 viewBox="0.00 0.00 209.00 340.00" xmlns="http://www.w3.org/2000/svg" xmlns:xlink="http://www.w3.org/1999/xlink">
<g id="graph0" class="graph" transform="scale(1 1) rotate(0) translate(4 336)">
<title>P4::CallGraph&lt; T &gt;::Loops</title>
<polygon fill="white" stroke="transparent" points="-4,4 -4,-336 205,-336 205,4 -4,4"/>
<!-- Node1 -->
<g id="node1" class="node">
<title>Node1</title>
<g id="a_node1"><a xlink:title=" ">
<polygon fill="#bfbfbf" stroke="black" points="17.5,-0.5 17.5,-30.5 128.5,-30.5 128.5,-0.5 17.5,-0.5"/>
<text text-anchor="start" x="25.5" y="-18.5" font-family="Helvetica,sans-Serif" font-size="10.00">P4::CallGraph&lt; T &gt;</text>
<text text-anchor="middle" x="73" y="-7.5" font-family="Helvetica,sans-Serif" font-size="10.00">::Loops</text>
</a>
</g>
</g>
<!-- Node2 -->
<g id="node2" class="node">
<title>Node2</title>
<g id="a_node2"><a xlink:title=" ">
<polygon fill="white" stroke="#bfbfbf" points="0,-78.5 0,-108.5 146,-108.5 146,-78.5 0,-78.5"/>
<text text-anchor="start" x="8" y="-96.5" font-family="Helvetica,sans-Serif" font-size="10.00">std::vector&lt; P4::CallGraph</text>
<text text-anchor="middle" x="73" y="-85.5" font-family="Helvetica,sans-Serif" font-size="10.00">::Loop * &gt;</text>
</a>
</g>
</g>
<!-- Node2&#45;&gt;Node1 -->
<g id="edge1" class="edge">
<title>Node2&#45;&gt;Node1</title>
<path fill="none" stroke="#9a32cd" stroke-dasharray="5,2" d="M73,-68.09C73,-55.76 73,-41.22 73,-30.73"/>
<polygon fill="#9a32cd" stroke="#9a32cd" points="69.5,-68.2 73,-78.2 76.5,-68.21 69.5,-68.2"/>
<text text-anchor="middle" x="88" y="-52" font-family="Helvetica,sans-Serif" font-size="10.00"> loops</text>
</g>
<!-- Node3 -->
<g id="node3" class="node">
<title>Node3</title>
<g id="a_node3"><a xlink:href="class_p4_1_1_call_graph_1_1_loop.html" target="_top" xlink:title=" ">
<polygon fill="white" stroke="black" points="17.5,-156.5 17.5,-186.5 128.5,-186.5 128.5,-156.5 17.5,-156.5"/>
<text text-anchor="start" x="25.5" y="-174.5" font-family="Helvetica,sans-Serif" font-size="10.00">P4::CallGraph&lt; T &gt;</text>
<text text-anchor="middle" x="73" y="-163.5" font-family="Helvetica,sans-Serif" font-size="10.00">::Loop</text>
</a>
</g>
</g>
<!-- Node3&#45;&gt;Node2 -->
<g id="edge2" class="edge">
<title>Node3&#45;&gt;Node2</title>
<path fill="none" stroke="#9a32cd" stroke-dasharray="5,2" d="M73,-146.09C73,-133.76 73,-119.22 73,-108.73"/>
<polygon fill="#9a32cd" stroke="#9a32cd" points="69.5,-146.2 73,-156.2 76.5,-146.21 69.5,-146.2"/>
<text text-anchor="middle" x="97.5" y="-130" font-family="Helvetica,sans-Serif" font-size="10.00"> elements</text>
</g>
<!-- Node4 -->
<g id="node4" class="node">
<title>Node4</title>
<g id="a_node4"><a xlink:title=" ">
<polygon fill="white" stroke="#bfbfbf" points="90.5,-245.5 90.5,-264.5 171.5,-264.5 171.5,-245.5 90.5,-245.5"/>
<text text-anchor="middle" x="131" y="-252.5" font-family="Helvetica,sans-Serif" font-size="10.00">std::set&lt; T &gt;</text>
</a>
</g>
</g>
<!-- Node4&#45;&gt;Node3 -->
<g id="edge3" class="edge">
<title>Node4&#45;&gt;Node3</title>
<path fill="none" stroke="#9a32cd" stroke-dasharray="5,2" d="M118.86,-236.95C108.24,-222.01 92.98,-200.58 83.03,-186.6"/>
<polygon fill="#9a32cd" stroke="#9a32cd" points="116.14,-239.16 124.79,-245.28 121.85,-235.1 116.14,-239.16"/>
<text text-anchor="middle" x="155.5" y="-219" font-family="Helvetica,sans-Serif" font-size="10.00"> back_edge_heads</text>
<text text-anchor="middle" x="155.5" y="-208" font-family="Helvetica,sans-Serif" font-size="10.00">body</text>
</g>
<!-- Node5 -->
<g id="node5" class="node">
<title>Node5</title>
<g id="a_node5"><a xlink:title=" ">
<polygon fill="white" stroke="#bfbfbf" points="44.5,-312.5 44.5,-331.5 73.5,-331.5 73.5,-312.5 44.5,-312.5"/>
<text text-anchor="middle" x="59" y="-319.5" font-family="Helvetica,sans-Serif" font-size="10.00">T</text>
</a>
</g>
</g>
<!-- Node5&#45;&gt;Node3 -->
<g id="edge5" class="edge">
<title>Node5&#45;&gt;Node3</title>
<path fill="none" stroke="#9a32cd" stroke-dasharray="5,2" d="M56.49,-302.29C55.16,-291.42 53.67,-277.46 53,-265 52.53,-256.12 51.81,-253.81 53,-245 55.8,-224.3 62.91,-201.15 67.85,-186.71"/>
<polygon fill="#9a32cd" stroke="#9a32cd" points="53.03,-302.82 57.78,-312.29 59.97,-301.93 53.03,-302.82"/>
<text text-anchor="middle" x="67.5" y="-252.5" font-family="Helvetica,sans-Serif" font-size="10.00"> entry</text>
</g>
<!-- Node5&#45;&gt;Node4 -->
<g id="edge4" class="edge">
<title>Node5&#45;&gt;Node4</title>
<path fill="none" stroke="#9a32cd" stroke-dasharray="5,2" d="M76.33,-305.36C90.48,-292.58 109.96,-274.99 121.44,-264.63"/>
<polygon fill="#9a32cd" stroke="#9a32cd" points="73.79,-302.93 68.71,-312.23 78.48,-308.13 73.79,-302.93"/>
<text text-anchor="middle" x="112" y="-286" font-family="Helvetica,sans-Serif" font-size="10.00"> keys</text>
</g>
</g>
</svg>
