<?xml version="1.0" encoding="UTF-8" standalone="no"?>
<!DOCTYPE svg PUBLIC "-//W3C//DTD SVG 1.1//EN"
 "http://www.w3.org/Graphics/SVG/1.1/DTD/svg11.dtd">
<!-- Generated by graphviz version 2.43.0 (0)
 -->
<!-- Title: P4V1::MeterType_Model Pages: 1 -->
<svg width="207pt" height="289pt"
 viewBox="0.00 0.00 207.00 289.00" xmlns="http://www.w3.org/2000/svg" xmlns:xlink="http://www.w3.org/1999/xlink">
<g id="graph0" class="graph" transform="scale(1 1) rotate(0) translate(4 285)">
<title>P4V1::MeterType_Model</title>
<polygon fill="white" stroke="transparent" points="-4,4 -4,-285 203,-285 203,4 -4,4"/>
<!-- Node1 -->
<g id="node1" class="node">
<title>Node1</title>
<g id="a_node1"><a xlink:title=" ">
<polygon fill="#bfbfbf" stroke="black" points="0,-0.5 0,-19.5 134,-19.5 134,-0.5 0,-0.5"/>
<text text-anchor="middle" x="67" y="-7.5" font-family="Helvetica,sans-Serif" font-size="10.00">P4V1::MeterType_Model</text>
</a>
</g>
</g>
<!-- Node2 -->
<g id="node2" class="node">
<title>Node2</title>
<g id="a_node2"><a xlink:href="struct_model_1_1_enum___model.html" target="_top" xlink:title="Enum_Model : Type_Model.">
<polygon fill="white" stroke="black" points="83,-57.5 83,-76.5 199,-76.5 199,-57.5 83,-57.5"/>
<text text-anchor="middle" x="141" y="-64.5" font-family="Helvetica,sans-Serif" font-size="10.00">Model::Enum_Model</text>
</a>
</g>
</g>
<!-- Node2&#45;&gt;Node1 -->
<g id="edge1" class="edge">
<title>Node2&#45;&gt;Node1</title>
<path fill="none" stroke="midnightblue" d="M121.2,-51.29C107.65,-41.21 90.12,-28.19 78.73,-19.71"/>
<polygon fill="midnightblue" stroke="midnightblue" points="119.32,-54.25 129.44,-57.41 123.5,-48.63 119.32,-54.25"/>
</g>
<!-- Node3 -->
<g id="node3" class="node">
<title>Node3</title>
<g id="a_node3"><a xlink:href="struct_model_1_1_type___model.html" target="_top" xlink:title=" ">
<polygon fill="white" stroke="black" points="84,-135.5 84,-154.5 194,-154.5 194,-135.5 84,-135.5"/>
<text text-anchor="middle" x="139" y="-142.5" font-family="Helvetica,sans-Serif" font-size="10.00">Model::Type_Model</text>
</a>
</g>
</g>
<!-- Node3&#45;&gt;Node2 -->
<g id="edge2" class="edge">
<title>Node3&#45;&gt;Node2</title>
<path fill="none" stroke="midnightblue" d="M139.49,-125.22C139.9,-109.7 140.46,-88.36 140.77,-76.62"/>
<polygon fill="midnightblue" stroke="midnightblue" points="135.99,-125.19 139.23,-135.28 142.99,-125.38 135.99,-125.19"/>
</g>
<!-- Node4 -->
<g id="node4" class="node">
<title>Node4</title>
<g id="a_node4"><a xlink:href="struct_model_1_1_elem.html" target="_top" xlink:title=" ">
<polygon fill="white" stroke="black" points="28.5,-192.5 28.5,-211.5 105.5,-211.5 105.5,-192.5 28.5,-192.5"/>
<text text-anchor="middle" x="67" y="-199.5" font-family="Helvetica,sans-Serif" font-size="10.00">Model::Elem</text>
</a>
</g>
</g>
<!-- Node4&#45;&gt;Node1 -->
<g id="edge6" class="edge">
<title>Node4&#45;&gt;Node1</title>
<path fill="none" stroke="#9a32cd" stroke-dasharray="5,2" d="M67,-182.3C67,-142.09 67,-48.65 67,-19.71"/>
<polygon fill="#9a32cd" stroke="#9a32cd" points="63.5,-182.34 67,-192.34 70.5,-182.34 63.5,-182.34"/>
<text text-anchor="middle" x="86" y="-109" font-family="Helvetica,sans-Serif" font-size="10.00"> bytes</text>
<text text-anchor="middle" x="86" y="-98" font-family="Helvetica,sans-Serif" font-size="10.00">packets</text>
</g>
<!-- Node4&#45;&gt;Node3 -->
<g id="edge3" class="edge">
<title>Node4&#45;&gt;Node3</title>
<path fill="none" stroke="midnightblue" d="M86.26,-186.29C99.45,-176.21 116.5,-163.19 127.59,-154.71"/>
<polygon fill="midnightblue" stroke="midnightblue" points="84.07,-183.55 78.25,-192.41 88.32,-189.12 84.07,-183.55"/>
</g>
<!-- Node5 -->
<g id="node5" class="node">
<title>Node5</title>
<g id="a_node5"><a xlink:href="classcstring.html" target="_top" xlink:title=" ">
<polygon fill="white" stroke="black" points="42,-260.5 42,-279.5 92,-279.5 92,-260.5 42,-260.5"/>
<text text-anchor="middle" x="67" y="-267.5" font-family="Helvetica,sans-Serif" font-size="10.00">cstring</text>
</a>
</g>
</g>
<!-- Node5&#45;&gt;Node4 -->
<g id="edge4" class="edge">
<title>Node5&#45;&gt;Node4</title>
<path fill="none" stroke="#9a32cd" stroke-dasharray="5,2" d="M67,-250.04C67,-237.47 67,-221.56 67,-211.84"/>
<polygon fill="#9a32cd" stroke="#9a32cd" points="63.5,-250.37 67,-260.37 70.5,-250.37 63.5,-250.37"/>
<text text-anchor="middle" x="82.5" y="-233" font-family="Helvetica,sans-Serif" font-size="10.00"> name</text>
</g>
<!-- Node5&#45;&gt;Node5 -->
<g id="edge5" class="edge">
<title>Node5&#45;&gt;Node5</title>
<path fill="none" stroke="#9a32cd" stroke-dasharray="5,2" d="M102.45,-275.58C107,-274.61 110,-272.75 110,-270 110,-265.48 101.91,-263.37 92.18,-263.65"/>
<polygon fill="#9a32cd" stroke="#9a32cd" points="101.89,-272.11 92.18,-276.35 102.41,-279.1 101.89,-272.11"/>
<text text-anchor="middle" x="129.5" y="-273" font-family="Helvetica,sans-Serif" font-size="10.00"> empty</text>
<text text-anchor="middle" x="129.5" y="-262" font-family="Helvetica,sans-Serif" font-size="10.00">newline</text>
</g>
</g>
</svg>
