<?xml version="1.0" encoding="UTF-8" standalone="no"?>
<!DOCTYPE svg PUBLIC "-//W3C//DTD SVG 1.1//EN"
 "http://www.w3.org/Graphics/SVG/1.1/DTD/svg11.dtd">
<!-- Generated by graphviz version 2.43.0 (0)
 -->
<!-- Title: Model::Enum_Model Pages: 1 -->
<svg width="148pt" height="211pt"
 viewBox="0.00 0.00 148.00 211.00" xmlns="http://www.w3.org/2000/svg" xmlns:xlink="http://www.w3.org/1999/xlink">
<g id="graph0" class="graph" transform="scale(1 1) rotate(0) translate(4 207)">
<title>Model::Enum_Model</title>
<polygon fill="white" stroke="transparent" points="-4,4 -4,-207 144,-207 144,4 -4,4"/>
<!-- Node1 -->
<g id="node1" class="node">
<title>Node1</title>
<g id="a_node1"><a xlink:title="Enum_Model : Type_Model.">
<polygon fill="#bfbfbf" stroke="black" points="0,-0.5 0,-19.5 116,-19.5 116,-0.5 0,-0.5"/>
<text text-anchor="middle" x="58" y="-7.5" font-family="Helvetica,sans-Serif" font-size="10.00">Model::Enum_Model</text>
</a>
</g>
</g>
<!-- Node2 -->
<g id="node2" class="node">
<title>Node2</title>
<g id="a_node2"><a xlink:href="struct_model_1_1_type___model.html" target="_top" xlink:title=" ">
<polygon fill="white" stroke="black" points="3,-57.5 3,-76.5 113,-76.5 113,-57.5 3,-57.5"/>
<text text-anchor="middle" x="58" y="-64.5" font-family="Helvetica,sans-Serif" font-size="10.00">Model::Type_Model</text>
</a>
</g>
</g>
<!-- Node2&#45;&gt;Node1 -->
<g id="edge1" class="edge">
<title>Node2&#45;&gt;Node1</title>
<path fill="none" stroke="midnightblue" d="M58,-47.12C58,-37.82 58,-27.06 58,-19.71"/>
<polygon fill="midnightblue" stroke="midnightblue" points="54.5,-47.41 58,-57.41 61.5,-47.41 54.5,-47.41"/>
</g>
<!-- Node3 -->
<g id="node3" class="node">
<title>Node3</title>
<g id="a_node3"><a xlink:href="struct_model_1_1_elem.html" target="_top" xlink:title=" ">
<polygon fill="white" stroke="black" points="19.5,-114.5 19.5,-133.5 96.5,-133.5 96.5,-114.5 19.5,-114.5"/>
<text text-anchor="middle" x="58" y="-121.5" font-family="Helvetica,sans-Serif" font-size="10.00">Model::Elem</text>
</a>
</g>
</g>
<!-- Node3&#45;&gt;Node2 -->
<g id="edge2" class="edge">
<title>Node3&#45;&gt;Node2</title>
<path fill="none" stroke="midnightblue" d="M58,-104.12C58,-94.82 58,-84.06 58,-76.71"/>
<polygon fill="midnightblue" stroke="midnightblue" points="54.5,-104.41 58,-114.41 61.5,-104.41 54.5,-104.41"/>
</g>
<!-- Node4 -->
<g id="node4" class="node">
<title>Node4</title>
<g id="a_node4"><a xlink:href="classcstring.html" target="_top" xlink:title=" ">
<polygon fill="white" stroke="black" points="33,-182.5 33,-201.5 83,-201.5 83,-182.5 33,-182.5"/>
<text text-anchor="middle" x="58" y="-189.5" font-family="Helvetica,sans-Serif" font-size="10.00">cstring</text>
</a>
</g>
</g>
<!-- Node4&#45;&gt;Node3 -->
<g id="edge3" class="edge">
<title>Node4&#45;&gt;Node3</title>
<path fill="none" stroke="#9a32cd" stroke-dasharray="5,2" d="M58,-172.04C58,-159.47 58,-143.56 58,-133.84"/>
<polygon fill="#9a32cd" stroke="#9a32cd" points="54.5,-172.37 58,-182.37 61.5,-172.37 54.5,-172.37"/>
<text text-anchor="middle" x="73.5" y="-155" font-family="Helvetica,sans-Serif" font-size="10.00"> name</text>
</g>
<!-- Node4&#45;&gt;Node4 -->
<g id="edge4" class="edge">
<title>Node4&#45;&gt;Node4</title>
<path fill="none" stroke="#9a32cd" stroke-dasharray="5,2" d="M93.45,-197.58C98,-196.61 101,-194.75 101,-192 101,-187.48 92.91,-185.37 83.18,-185.65"/>
<polygon fill="#9a32cd" stroke="#9a32cd" points="92.89,-194.11 83.18,-198.35 93.41,-201.1 92.89,-194.11"/>
<text text-anchor="middle" x="120.5" y="-195" font-family="Helvetica,sans-Serif" font-size="10.00"> empty</text>
<text text-anchor="middle" x="120.5" y="-184" font-family="Helvetica,sans-Serif" font-size="10.00">newline</text>
</g>
</g>
</svg>
