<?xml version="1.0" encoding="UTF-8" standalone="no"?>
<!DOCTYPE svg PUBLIC "-//W3C//DTD SVG 1.1//EN"
 "http://www.w3.org/Graphics/SVG/1.1/DTD/svg11.dtd">
<!-- Generated by graphviz version 2.43.0 (0)
 -->
<!-- Title: UBPF::Register_Model Pages: 1 -->
<svg width="206pt" height="333pt"
 viewBox="0.00 0.00 205.50 333.00" xmlns="http://www.w3.org/2000/svg" xmlns:xlink="http://www.w3.org/1999/xlink">
<g id="graph0" class="graph" transform="scale(1 1) rotate(0) translate(4 329)">
<title>UBPF::Register_Model</title>
<polygon fill="white" stroke="transparent" points="-4,4 -4,-329 201.5,-329 201.5,4 -4,4"/>
<!-- Node1 -->
<g id="node1" class="node">
<title>Node1</title>
<g id="a_node1"><a xlink:title=" ">
<polygon fill="#bfbfbf" stroke="black" points="0,-0.5 0,-19.5 124,-19.5 124,-0.5 0,-0.5"/>
<text text-anchor="middle" x="62" y="-7.5" font-family="Helvetica,sans-Serif" font-size="10.00">UBPF::Register_Model</text>
</a>
</g>
</g>
<!-- Node2 -->
<g id="node2" class="node">
<title>Node2</title>
<g id="a_node2"><a xlink:href="struct_model_1_1_extern___model.html" target="_top" xlink:title="Extern_Model : Type_Model.">
<polygon fill="white" stroke="black" points="78.5,-57.5 78.5,-76.5 197.5,-76.5 197.5,-57.5 78.5,-57.5"/>
<text text-anchor="middle" x="138" y="-64.5" font-family="Helvetica,sans-Serif" font-size="10.00">Model::Extern_Model</text>
</a>
</g>
</g>
<!-- Node2&#45;&gt;Node1 -->
<g id="edge1" class="edge">
<title>Node2&#45;&gt;Node1</title>
<path fill="none" stroke="midnightblue" d="M117.67,-51.29C103.74,-41.21 85.75,-28.19 74.04,-19.71"/>
<polygon fill="midnightblue" stroke="midnightblue" points="115.97,-54.38 126.12,-57.41 120.08,-48.71 115.97,-54.38"/>
</g>
<!-- Node3 -->
<g id="node3" class="node">
<title>Node3</title>
<g id="a_node3"><a xlink:href="struct_model_1_1_type___model.html" target="_top" xlink:title=" ">
<polygon fill="white" stroke="black" points="80,-179.5 80,-198.5 190,-198.5 190,-179.5 80,-179.5"/>
<text text-anchor="middle" x="135" y="-186.5" font-family="Helvetica,sans-Serif" font-size="10.00">Model::Type_Model</text>
</a>
</g>
</g>
<!-- Node3&#45;&gt;Node2 -->
<g id="edge2" class="edge">
<title>Node3&#45;&gt;Node2</title>
<path fill="none" stroke="midnightblue" d="M135.47,-169.15C136.13,-142.72 137.31,-95.76 137.79,-76.55"/>
<polygon fill="midnightblue" stroke="midnightblue" points="131.97,-169.29 135.22,-179.37 138.96,-169.46 131.97,-169.29"/>
</g>
<!-- Node4 -->
<g id="node4" class="node">
<title>Node4</title>
<g id="a_node4"><a xlink:href="struct_model_1_1_elem.html" target="_top" xlink:title=" ">
<polygon fill="white" stroke="black" points="23.5,-236.5 23.5,-255.5 100.5,-255.5 100.5,-236.5 23.5,-236.5"/>
<text text-anchor="middle" x="62" y="-243.5" font-family="Helvetica,sans-Serif" font-size="10.00">Model::Elem</text>
</a>
</g>
</g>
<!-- Node4&#45;&gt;Node1 -->
<g id="edge6" class="edge">
<title>Node4&#45;&gt;Node1</title>
<path fill="none" stroke="#9a32cd" stroke-dasharray="5,2" d="M62,-226.28C62,-178.67 62,-54.33 62,-19.93"/>
<polygon fill="#9a32cd" stroke="#9a32cd" points="58.5,-226.39 62,-236.39 65.5,-226.39 58.5,-226.39"/>
<text text-anchor="middle" x="92.5" y="-153" font-family="Helvetica,sans-Serif" font-size="10.00"> index</text>
<text text-anchor="middle" x="92.5" y="-142" font-family="Helvetica,sans-Serif" font-size="10.00">initial_value</text>
<text text-anchor="middle" x="92.5" y="-131" font-family="Helvetica,sans-Serif" font-size="10.00">read</text>
<text text-anchor="middle" x="92.5" y="-120" font-family="Helvetica,sans-Serif" font-size="10.00">sizeParam</text>
<text text-anchor="middle" x="92.5" y="-109" font-family="Helvetica,sans-Serif" font-size="10.00">value</text>
<text text-anchor="middle" x="92.5" y="-98" font-family="Helvetica,sans-Serif" font-size="10.00">write</text>
</g>
<!-- Node4&#45;&gt;Node3 -->
<g id="edge3" class="edge">
<title>Node4&#45;&gt;Node3</title>
<path fill="none" stroke="midnightblue" d="M81.53,-230.29C94.9,-220.21 112.19,-207.19 123.43,-198.71"/>
<polygon fill="midnightblue" stroke="midnightblue" points="79.29,-227.59 73.41,-236.41 83.5,-233.18 79.29,-227.59"/>
</g>
<!-- Node5 -->
<g id="node5" class="node">
<title>Node5</title>
<g id="a_node5"><a xlink:href="classcstring.html" target="_top" xlink:title=" ">
<polygon fill="white" stroke="black" points="37,-304.5 37,-323.5 87,-323.5 87,-304.5 37,-304.5"/>
<text text-anchor="middle" x="62" y="-311.5" font-family="Helvetica,sans-Serif" font-size="10.00">cstring</text>
</a>
</g>
</g>
<!-- Node5&#45;&gt;Node4 -->
<g id="edge4" class="edge">
<title>Node5&#45;&gt;Node4</title>
<path fill="none" stroke="#9a32cd" stroke-dasharray="5,2" d="M62,-294.04C62,-281.47 62,-265.56 62,-255.84"/>
<polygon fill="#9a32cd" stroke="#9a32cd" points="58.5,-294.37 62,-304.37 65.5,-294.37 58.5,-294.37"/>
<text text-anchor="middle" x="77.5" y="-277" font-family="Helvetica,sans-Serif" font-size="10.00"> name</text>
</g>
<!-- Node5&#45;&gt;Node5 -->
<g id="edge5" class="edge">
<title>Node5&#45;&gt;Node5</title>
<path fill="none" stroke="#9a32cd" stroke-dasharray="5,2" d="M97.45,-319.58C102,-318.61 105,-316.75 105,-314 105,-309.48 96.91,-307.37 87.18,-307.65"/>
<polygon fill="#9a32cd" stroke="#9a32cd" points="96.89,-316.11 87.18,-320.35 97.41,-323.1 96.89,-316.11"/>
<text text-anchor="middle" x="124.5" y="-317" font-family="Helvetica,sans-Serif" font-size="10.00"> empty</text>
<text text-anchor="middle" x="124.5" y="-306" font-family="Helvetica,sans-Serif" font-size="10.00">newline</text>
</g>
</g>
</svg>
