<?xml version="1.0" encoding="UTF-8" standalone="no"?>
<!DOCTYPE svg PUBLIC "-//W3C//DTD SVG 1.1//EN"
 "http://www.w3.org/Graphics/SVG/1.1/DTD/svg11.dtd">
<!-- Generated by graphviz version 2.43.0 (0)
 -->
<!-- Title: ControlFlowVisitor::flow_join_info_t Pages: 1 -->
<svg width="430pt" height="244pt"
 viewBox="0.00 0.00 430.32 244.00" xmlns="http://www.w3.org/2000/svg" xmlns:xlink="http://www.w3.org/1999/xlink">
<g id="graph0" class="graph" transform="scale(1 1) rotate(0) translate(4 240)">
<title>ControlFlowVisitor::flow_join_info_t</title>
<polygon fill="white" stroke="transparent" points="-4,4 -4,-240 426.32,-240 426.32,4 -4,4"/>
<!-- Node1 -->
<g id="node1" class="node">
<title>Node1</title>
<g id="a_node1"><a xlink:title=" ">
<polygon fill="#bfbfbf" stroke="black" points="286.82,-0.5 286.82,-30.5 393.82,-30.5 393.82,-0.5 286.82,-0.5"/>
<text text-anchor="start" x="294.82" y="-18.5" font-family="Helvetica,sans-Serif" font-size="10.00">ControlFlowVisitor</text>
<text text-anchor="middle" x="340.32" y="-7.5" font-family="Helvetica,sans-Serif" font-size="10.00">::flow_join_info_t</text>
</a>
</g>
</g>
<!-- Node2 -->
<g id="node2" class="node">
<title>Node2</title>
<g id="a_node2"><a xlink:href="class_control_flow_visitor.html" target="_top" xlink:title=" ">
<polygon fill="white" stroke="black" points="286.82,-79.5 286.82,-98.5 393.82,-98.5 393.82,-79.5 286.82,-79.5"/>
<text text-anchor="middle" x="340.32" y="-86.5" font-family="Helvetica,sans-Serif" font-size="10.00">ControlFlowVisitor</text>
</a>
</g>
</g>
<!-- Node2&#45;&gt;Node1 -->
<g id="edge1" class="edge">
<title>Node2&#45;&gt;Node1</title>
<path fill="none" stroke="#9a32cd" stroke-dasharray="5,2" d="M340.32,-68.9C340.32,-56.82 340.32,-41.47 340.32,-30.51"/>
<polygon fill="#9a32cd" stroke="#9a32cd" points="336.82,-69.23 340.32,-79.23 343.82,-69.23 336.82,-69.23"/>
<text text-anchor="middle" x="358.32" y="-52" font-family="Helvetica,sans-Serif" font-size="10.00"> vclone</text>
</g>
<!-- Node3 -->
<g id="node3" class="node">
<title>Node3</title>
<g id="a_node3"><a xlink:href="class_visitor.html" target="_top" xlink:title=" ">
<polygon fill="white" stroke="black" points="128.32,-147.5 128.32,-166.5 176.32,-166.5 176.32,-147.5 128.32,-147.5"/>
<text text-anchor="middle" x="152.32" y="-154.5" font-family="Helvetica,sans-Serif" font-size="10.00">Visitor</text>
</a>
</g>
</g>
<!-- Node3&#45;&gt;Node2 -->
<g id="edge2" class="edge">
<title>Node3&#45;&gt;Node2</title>
<path fill="none" stroke="midnightblue" d="M185.97,-144.19C223.34,-131.07 282.77,-110.2 315.92,-98.57"/>
<polygon fill="midnightblue" stroke="midnightblue" points="184.79,-140.89 176.51,-147.51 187.11,-147.5 184.79,-140.89"/>
</g>
<!-- Node3&#45;&gt;Node3 -->
<g id="edge10" class="edge">
<title>Node3&#45;&gt;Node3</title>
<path fill="none" stroke="#9a32cd" stroke-dasharray="5,2" d="M186.75,-162.29C191.3,-161.39 194.32,-159.63 194.32,-157 194.32,-152.69 186.18,-150.7 176.49,-151.04"/>
<polygon fill="#9a32cd" stroke="#9a32cd" points="186.24,-158.82 176.49,-162.96 186.7,-165.8 186.24,-158.82"/>
<text text-anchor="middle" x="219.32" y="-154.5" font-family="Helvetica,sans-Serif" font-size="10.00"> called_by</text>
</g>
<!-- Node5 -->
<g id="node5" class="node">
<title>Node5</title>
<g id="a_node5"><a xlink:href="class_split_flow_visit__base.html" target="_top" xlink:title=" ">
<polygon fill="white" stroke="black" points="34.32,-6 34.32,-25 146.32,-25 146.32,-6 34.32,-6"/>
<text text-anchor="middle" x="90.32" y="-13" font-family="Helvetica,sans-Serif" font-size="10.00">SplitFlowVisit_base</text>
</a>
</g>
</g>
<!-- Node3&#45;&gt;Node5 -->
<g id="edge9" class="edge">
<title>Node3&#45;&gt;Node5</title>
<path fill="none" stroke="#9a32cd" stroke-dasharray="5,2" d="M118.01,-153.68C83.06,-149.28 30.53,-136.58 5.32,-100 -16.34,-68.57 37.37,-39.07 69.06,-25.05"/>
<polygon fill="#9a32cd" stroke="#9a32cd" points="117.92,-157.19 128.24,-154.8 118.68,-150.24 117.92,-157.19"/>
<text text-anchor="middle" x="10.32" y="-86.5" font-family="Helvetica,sans-Serif" font-size="10.00"> v</text>
</g>
<!-- Node6 -->
<g id="node6" class="node">
<title>Node6</title>
<g id="a_node6"><a xlink:title=" ">
<polygon fill="white" stroke="#bfbfbf" points="24.82,-79.5 24.82,-98.5 155.82,-98.5 155.82,-79.5 24.82,-79.5"/>
<text text-anchor="middle" x="90.32" y="-86.5" font-family="Helvetica,sans-Serif" font-size="10.00">std::vector&lt; Visitor * &gt;</text>
</a>
</g>
</g>
<!-- Node3&#45;&gt;Node6 -->
<g id="edge8" class="edge">
<title>Node3&#45;&gt;Node6</title>
<path fill="none" stroke="#9a32cd" stroke-dasharray="5,2" d="M137.34,-140.05C125.18,-127.11 108.5,-109.36 98.63,-98.84"/>
<polygon fill="#9a32cd" stroke="#9a32cd" points="134.82,-142.48 144.22,-147.37 139.92,-137.69 134.82,-142.48"/>
<text text-anchor="middle" x="151.82" y="-121" font-family="Helvetica,sans-Serif" font-size="10.00"> elements</text>
</g>
<!-- Node4 -->
<g id="node4" class="node">
<title>Node4</title>
<g id="a_node4"><a xlink:href="classcstring.html" target="_top" xlink:title=" ">
<polygon fill="white" stroke="black" points="127.32,-215.5 127.32,-234.5 177.32,-234.5 177.32,-215.5 127.32,-215.5"/>
<text text-anchor="middle" x="152.32" y="-222.5" font-family="Helvetica,sans-Serif" font-size="10.00">cstring</text>
</a>
</g>
</g>
<!-- Node4&#45;&gt;Node3 -->
<g id="edge3" class="edge">
<title>Node4&#45;&gt;Node3</title>
<path fill="none" stroke="#9a32cd" stroke-dasharray="5,2" d="M152.32,-205.04C152.32,-192.47 152.32,-176.56 152.32,-166.84"/>
<polygon fill="#9a32cd" stroke="#9a32cd" points="148.82,-205.37 152.32,-215.37 155.82,-205.37 148.82,-205.37"/>
<text text-anchor="middle" x="187.32" y="-188" font-family="Helvetica,sans-Serif" font-size="10.00"> internalName</text>
</g>
<!-- Node4&#45;&gt;Node4 -->
<g id="edge4" class="edge">
<title>Node4&#45;&gt;Node4</title>
<path fill="none" stroke="#9a32cd" stroke-dasharray="5,2" d="M187.77,-230.58C192.32,-229.61 195.32,-227.75 195.32,-225 195.32,-220.48 187.23,-218.37 177.5,-218.65"/>
<polygon fill="#9a32cd" stroke="#9a32cd" points="187.21,-227.11 177.5,-231.35 187.73,-234.1 187.21,-227.11"/>
<text text-anchor="middle" x="214.82" y="-228" font-family="Helvetica,sans-Serif" font-size="10.00"> empty</text>
<text text-anchor="middle" x="214.82" y="-217" font-family="Helvetica,sans-Serif" font-size="10.00">newline</text>
</g>
<!-- Node5&#45;&gt;Node3 -->
<g id="edge5" class="edge">
<title>Node5&#45;&gt;Node3</title>
<path fill="none" stroke="#9a32cd" stroke-dasharray="5,2" d="M114.05,-30.59C130.49,-41.54 151.63,-58.18 164.32,-78 169.47,-86.05 184.92,-112.63 178.32,-129 175.4,-136.24 169.51,-142.63 164.07,-147.37"/>
<polygon fill="#9a32cd" stroke="#9a32cd" points="115.79,-27.55 105.48,-25.11 112.02,-33.45 115.79,-27.55"/>
<text text-anchor="middle" x="214.32" y="-92" font-family="Helvetica,sans-Serif" font-size="10.00"> split_link</text>
<text text-anchor="middle" x="214.32" y="-81" font-family="Helvetica,sans-Serif" font-size="10.00">split_link_mem</text>
</g>
<!-- Node5&#45;&gt;Node5 -->
<g id="edge6" class="edge">
<title>Node5&#45;&gt;Node5</title>
<path fill="none" stroke="#9a32cd" stroke-dasharray="5,2" d="M156.36,-20.81C161.29,-19.62 164.32,-17.85 164.32,-15.5 164.32,-11.83 156.94,-9.57 146.47,-8.74"/>
<polygon fill="#9a32cd" stroke="#9a32cd" points="155.86,-17.35 146.47,-22.26 156.87,-24.27 155.86,-17.35"/>
<text text-anchor="middle" x="176.82" y="-13" font-family="Helvetica,sans-Serif" font-size="10.00"> prev</text>
</g>
<!-- Node6&#45;&gt;Node5 -->
<g id="edge7" class="edge">
<title>Node6&#45;&gt;Node5</title>
<path fill="none" stroke="#9a32cd" stroke-dasharray="5,2" d="M90.32,-69.09C90.32,-54.93 90.32,-36.2 90.32,-25.34"/>
<polygon fill="#9a32cd" stroke="#9a32cd" points="86.82,-69.23 90.32,-79.23 93.82,-69.23 86.82,-69.23"/>
<text text-anchor="middle" x="110.32" y="-52" font-family="Helvetica,sans-Serif" font-size="10.00"> visitors</text>
</g>
<!-- Node7 -->
<g id="node7" class="node">
<title>Node7</title>
<g id="a_node7"><a xlink:title=" ">
<polygon fill="white" stroke="#bfbfbf" points="289.82,-147.5 289.82,-166.5 390.82,-166.5 390.82,-147.5 289.82,-147.5"/>
<text text-anchor="middle" x="340.32" y="-154.5" font-family="Helvetica,sans-Serif" font-size="10.00">std::map&lt; K, T &gt;</text>
</a>
</g>
</g>
<!-- Node7&#45;&gt;Node2 -->
<g id="edge11" class="edge">
<title>Node7&#45;&gt;Node2</title>
<path fill="none" stroke="#9a32cd" stroke-dasharray="5,2" d="M340.32,-137.04C340.32,-124.47 340.32,-108.56 340.32,-98.84"/>
<polygon fill="#9a32cd" stroke="#9a32cd" points="336.82,-137.37 340.32,-147.37 343.82,-137.37 336.82,-137.37"/>
<text text-anchor="middle" x="381.32" y="-121" font-family="Helvetica,sans-Serif" font-size="10.00"> flow_join_points</text>
</g>
<!-- Node8 -->
<g id="node8" class="node">
<title>Node8</title>
<g id="a_node8"><a xlink:title=" ">
<polygon fill="white" stroke="#bfbfbf" points="300.82,-215.5 300.82,-234.5 329.82,-234.5 329.82,-215.5 300.82,-215.5"/>
<text text-anchor="middle" x="315.32" y="-222.5" font-family="Helvetica,sans-Serif" font-size="10.00">K</text>
</a>
</g>
</g>
<!-- Node8&#45;&gt;Node7 -->
<g id="edge12" class="edge">
<title>Node8&#45;&gt;Node7</title>
<path fill="none" stroke="#9a32cd" stroke-dasharray="5,2" d="M315.79,-205.25C316.45,-198.66 317.77,-191.33 320.32,-185 323.02,-178.29 327.8,-171.74 332.01,-166.78"/>
<polygon fill="#9a32cd" stroke="#9a32cd" points="312.29,-205.13 315.19,-215.32 319.28,-205.54 312.29,-205.13"/>
<text text-anchor="middle" x="333.32" y="-188" font-family="Helvetica,sans-Serif" font-size="10.00"> keys</text>
</g>
<!-- Node9 -->
<g id="node9" class="node">
<title>Node9</title>
<g id="a_node9"><a xlink:title=" ">
<polygon fill="white" stroke="#bfbfbf" points="349.82,-215.5 349.82,-234.5 378.82,-234.5 378.82,-215.5 349.82,-215.5"/>
<text text-anchor="middle" x="364.32" y="-222.5" font-family="Helvetica,sans-Serif" font-size="10.00">T</text>
</a>
</g>
</g>
<!-- Node9&#45;&gt;Node7 -->
<g id="edge13" class="edge">
<title>Node9&#45;&gt;Node7</title>
<path fill="none" stroke="#9a32cd" stroke-dasharray="5,2" d="M357.71,-205.81C353.09,-193.12 347.14,-176.76 343.54,-166.84"/>
<polygon fill="#9a32cd" stroke="#9a32cd" points="354.48,-207.17 361.18,-215.37 361.06,-204.78 354.48,-207.17"/>
<text text-anchor="middle" x="378.82" y="-188" font-family="Helvetica,sans-Serif" font-size="10.00"> elements</text>
</g>
</g>
</svg>
