<?xml version="1.0" encoding="UTF-8" standalone="no"?>
<!DOCTYPE svg PUBLIC "-//W3C//DTD SVG 1.1//EN"
 "http://www.w3.org/Graphics/SVG/1.1/DTD/svg11.dtd">
<!-- Generated by graphviz version 2.43.0 (0)
 -->
<!-- Title: bpf_map Pages: 1 -->
<svg width="266pt" height="164pt"
 viewBox="0.00 0.00 265.50 164.00" xmlns="http://www.w3.org/2000/svg" xmlns:xlink="http://www.w3.org/1999/xlink">
<g id="graph0" class="graph" transform="scale(1 1) rotate(0) translate(4 160)">
<title>bpf_map</title>
<polygon fill="white" stroke="transparent" points="-4,4 -4,-160 261.5,-160 261.5,4 -4,4"/>
<!-- Node1 -->
<g id="node1" class="node">
<title>Node1</title>
<g id="a_node1"><a xlink:title=" ">
<polygon fill="#bfbfbf" stroke="black" points="0,-67.5 0,-86.5 59,-86.5 59,-67.5 0,-67.5"/>
<text text-anchor="middle" x="29.5" y="-74.5" font-family="Helvetica,sans-Serif" font-size="10.00">bpf_map</text>
</a>
</g>
</g>
<!-- Node2 -->
<g id="node2" class="node">
<title>Node2</title>
<g id="a_node2"><a xlink:href="struct_u_t__hash__handle.html" target="_top" xlink:title=" ">
<polygon fill="white" stroke="black" points="76,-135.5 76,-154.5 173,-154.5 173,-135.5 76,-135.5"/>
<text text-anchor="middle" x="124.5" y="-142.5" font-family="Helvetica,sans-Serif" font-size="10.00">UT_hash_handle</text>
</a>
</g>
</g>
<!-- Node2&#45;&gt;Node1 -->
<g id="edge1" class="edge">
<title>Node2&#45;&gt;Node1</title>
<path fill="none" stroke="#9a32cd" stroke-dasharray="5,2" d="M92.38,-131.37C83.3,-127.12 73.67,-121.93 65.5,-116 53.88,-107.57 42.89,-95.07 36.18,-86.74"/>
<polygon fill="#9a32cd" stroke="#9a32cd" points="91,-134.59 101.56,-135.46 93.84,-128.2 91,-134.59"/>
<text text-anchor="middle" x="73.5" y="-108" font-family="Helvetica,sans-Serif" font-size="10.00"> hh</text>
</g>
<!-- Node2&#45;&gt;Node2 -->
<g id="edge2" class="edge">
<title>Node2&#45;&gt;Node2</title>
<path fill="none" stroke="#9a32cd" stroke-dasharray="5,2" d="M183.38,-149.86C188.09,-148.8 191,-147.18 191,-145 191,-141.51 183.54,-139.46 173.21,-138.83"/>
<polygon fill="#9a32cd" stroke="#9a32cd" points="182.69,-146.42 173.21,-151.17 183.58,-153.36 182.69,-146.42"/>
<text text-anchor="middle" x="212.5" y="-148" font-family="Helvetica,sans-Serif" font-size="10.00"> hh_next</text>
<text text-anchor="middle" x="212.5" y="-137" font-family="Helvetica,sans-Serif" font-size="10.00">hh_prev</text>
</g>
<!-- Node3 -->
<g id="node3" class="node">
<title>Node3</title>
<g id="a_node3"><a xlink:href="struct_u_t__hash__table.html" target="_top" xlink:title=" ">
<polygon fill="white" stroke="black" points="136,-0.5 136,-19.5 225,-19.5 225,-0.5 136,-0.5"/>
<text text-anchor="middle" x="180.5" y="-7.5" font-family="Helvetica,sans-Serif" font-size="10.00">UT_hash_table</text>
</a>
</g>
</g>
<!-- Node2&#45;&gt;Node3 -->
<g id="edge6" class="edge">
<title>Node2&#45;&gt;Node3</title>
<path fill="none" stroke="#9a32cd" stroke-dasharray="5,2" d="M113.23,-126.64C104.3,-110.52 94.8,-86.19 104.5,-67 116.03,-44.18 141.73,-28.38 160.05,-19.51"/>
<polygon fill="#9a32cd" stroke="#9a32cd" points="110.39,-128.72 118.54,-135.49 116.4,-125.12 110.39,-128.72"/>
<text text-anchor="middle" x="114" y="-74.5" font-family="Helvetica,sans-Serif" font-size="10.00"> tail</text>
</g>
<!-- Node4 -->
<g id="node4" class="node">
<title>Node4</title>
<g id="a_node4"><a xlink:href="struct_u_t__hash__bucket.html" target="_top" xlink:title=" ">
<polygon fill="white" stroke="black" points="132.5,-67.5 132.5,-86.5 228.5,-86.5 228.5,-67.5 132.5,-67.5"/>
<text text-anchor="middle" x="180.5" y="-74.5" font-family="Helvetica,sans-Serif" font-size="10.00">UT_hash_bucket</text>
</a>
</g>
</g>
<!-- Node2&#45;&gt;Node4 -->
<g id="edge5" class="edge">
<title>Node2&#45;&gt;Node4</title>
<path fill="none" stroke="#9a32cd" stroke-dasharray="5,2" d="M138.35,-127.68C149.3,-114.78 164.16,-97.26 173,-86.84"/>
<polygon fill="#9a32cd" stroke="#9a32cd" points="135.62,-125.48 131.82,-135.37 140.96,-130.01 135.62,-125.48"/>
<text text-anchor="middle" x="181" y="-108" font-family="Helvetica,sans-Serif" font-size="10.00"> hh_head</text>
</g>
<!-- Node3&#45;&gt;Node2 -->
<g id="edge3" class="edge">
<title>Node3&#45;&gt;Node2</title>
<path fill="none" stroke="#9a32cd" stroke-dasharray="5,2" d="M209.84,-24.87C215.56,-28.54 221.13,-32.93 225.5,-38 240.14,-54.98 246.26,-66.36 237.5,-87 226.26,-113.5 196.93,-127.8 170.97,-135.46"/>
<polygon fill="#9a32cd" stroke="#9a32cd" points="211.28,-21.66 200.87,-19.68 207.78,-27.72 211.28,-21.66"/>
<text text-anchor="middle" x="249.5" y="-74.5" font-family="Helvetica,sans-Serif" font-size="10.00"> tbl</text>
</g>
<!-- Node4&#45;&gt;Node3 -->
<g id="edge4" class="edge">
<title>Node4&#45;&gt;Node3</title>
<path fill="none" stroke="#9a32cd" stroke-dasharray="5,2" d="M180.5,-57.04C180.5,-44.67 180.5,-29.12 180.5,-19.63"/>
<polygon fill="#9a32cd" stroke="#9a32cd" points="177,-57.23 180.5,-67.23 184,-57.23 177,-57.23"/>
<text text-anchor="middle" x="201" y="-41" font-family="Helvetica,sans-Serif" font-size="10.00"> buckets</text>
</g>
</g>
</svg>
