<?xml version="1.0" encoding="UTF-8" standalone="no"?>
<!DOCTYPE svg PUBLIC "-//W3C//DTD SVG 1.1//EN"
 "http://www.w3.org/Graphics/SVG/1.1/DTD/svg11.dtd">
<!-- Generated by graphviz version 2.43.0 (0)
 -->
<!-- Title: P4::ParserStateInfo Pages: 1 -->
<svg width="1148pt" height="240pt"
 viewBox="0.00 0.00 1148.00 239.97" xmlns="http://www.w3.org/2000/svg" xmlns:xlink="http://www.w3.org/1999/xlink">
<g id="graph0" class="graph" transform="scale(1 1) rotate(0) translate(4 235.97)">
<title>P4::ParserStateInfo</title>
<polygon fill="white" stroke="transparent" points="-4,4 -4,-235.97 1144,-235.97 1144,4 -4,4"/>
<!-- Node1 -->
<g id="node1" class="node">
<title>Node1</title>
<g id="a_node1"><a xlink:title="Information produced for a parser state by the symbolic evaluator.">
<polygon fill="#bfbfbf" stroke="black" points="1031,-94.47 1031,-113.47 1140,-113.47 1140,-94.47 1031,-94.47"/>
<text text-anchor="middle" x="1085.5" y="-101.47" font-family="Helvetica,sans-Serif" font-size="10.00">P4::ParserStateInfo</text>
</a>
</g>
</g>
<!-- Node1&#45;&gt;Node1 -->
<g id="edge17" class="edge">
<title>Node1&#45;&gt;Node1</title>
<path fill="none" stroke="#9a32cd" stroke-dasharray="5,2" d="M1063.18,-123C1064.4,-128.1 1071.84,-131.97 1085.5,-131.97 1106.83,-131.97 1112.99,-122.54 1104,-113.73"/>
<polygon fill="#9a32cd" stroke="#9a32cd" points="1066.43,-124.31 1067,-113.73 1059.95,-121.64 1066.43,-124.31"/>
<text text-anchor="middle" x="1085.5" y="-134.97" font-family="Helvetica,sans-Serif" font-size="10.00"> predecessor</text>
</g>
<!-- Node2 -->
<g id="node2" class="node">
<title>Node2</title>
<g id="a_node2"><a xlink:href="class_p4_1_1_value_map.html" target="_top" xlink:title=" ">
<polygon fill="white" stroke="black" points="772.5,-209.47 772.5,-228.47 855.5,-228.47 855.5,-209.47 772.5,-209.47"/>
<text text-anchor="middle" x="814" y="-216.47" font-family="Helvetica,sans-Serif" font-size="10.00">P4::ValueMap</text>
</a>
</g>
</g>
<!-- Node2&#45;&gt;Node1 -->
<g id="edge1" class="edge">
<title>Node2&#45;&gt;Node1</title>
<path fill="none" stroke="#9a32cd" stroke-dasharray="5,2" d="M865.47,-209.7C906.88,-200.71 966.13,-184.61 1013,-158.97 1036.63,-146.05 1060.79,-125.66 1074.09,-113.67"/>
<polygon fill="#9a32cd" stroke="#9a32cd" points="864.66,-206.29 855.6,-211.78 866.11,-213.14 864.66,-206.29"/>
<text text-anchor="middle" x="965" y="-209.97" font-family="Helvetica,sans-Serif" font-size="10.00"> after</text>
<text text-anchor="middle" x="965" y="-198.97" font-family="Helvetica,sans-Serif" font-size="10.00">before</text>
</g>
<!-- Node3 -->
<g id="node3" class="node">
<title>Node3</title>
<g id="a_node3"><a xlink:href="class_i_has_db_print.html" target="_top" xlink:title=" ">
<polygon fill="white" stroke="black" points="124.5,-197.47 124.5,-216.47 198.5,-216.47 198.5,-197.47 124.5,-197.47"/>
<text text-anchor="middle" x="161.5" y="-204.47" font-family="Helvetica,sans-Serif" font-size="10.00">IHasDbPrint</text>
</a>
</g>
</g>
<!-- Node3&#45;&gt;Node2 -->
<g id="edge2" class="edge">
<title>Node3&#45;&gt;Node2</title>
<path fill="none" stroke="midnightblue" d="M207.7,-218.85C236.14,-225.3 273.71,-231.97 307.5,-231.97 307.5,-231.97 307.5,-231.97 611,-231.97 667.05,-231.97 731.67,-226.92 772.42,-223.12"/>
<polygon fill="midnightblue" stroke="midnightblue" points="208.2,-215.37 197.66,-216.49 206.6,-222.18 208.2,-215.37"/>
</g>
<!-- Node5 -->
<g id="node5" class="node">
<title>Node5</title>
<g id="a_node5"><a xlink:href="class_p4_1_1_symbolic_value.html" target="_top" xlink:title=" ">
<polygon fill="white" stroke="black" points="255,-172.47 255,-191.47 362,-191.47 362,-172.47 255,-172.47"/>
<text text-anchor="middle" x="308.5" y="-179.47" font-family="Helvetica,sans-Serif" font-size="10.00">P4::SymbolicValue</text>
</a>
</g>
</g>
<!-- Node3&#45;&gt;Node5 -->
<g id="edge5" class="edge">
<title>Node3&#45;&gt;Node5</title>
<path fill="none" stroke="midnightblue" d="M208.59,-199.02C223.28,-196.49 239.66,-193.67 254.79,-191.06"/>
<polygon fill="midnightblue" stroke="midnightblue" points="207.98,-195.58 198.72,-200.73 209.16,-202.48 207.98,-195.58"/>
</g>
<!-- Node9 -->
<g id="node9" class="node">
<title>Node9</title>
<g id="a_node9"><a xlink:href="class_i_r_1_1_i_node.html" target="_top" xlink:title=" ">
<polygon fill="white" stroke="black" points="278,-122.47 278,-141.47 339,-141.47 339,-122.47 278,-122.47"/>
<text text-anchor="middle" x="308.5" y="-129.47" font-family="Helvetica,sans-Serif" font-size="10.00">IR::INode</text>
</a>
</g>
</g>
<!-- Node3&#45;&gt;Node9 -->
<g id="edge11" class="edge">
<title>Node3&#45;&gt;Node9</title>
<path fill="none" stroke="midnightblue" d="M190.34,-192.57C219.34,-177.57 263.94,-154.5 288.91,-141.59"/>
<polygon fill="midnightblue" stroke="midnightblue" points="188.43,-189.62 181.16,-197.32 191.65,-195.83 188.43,-189.62"/>
</g>
<!-- Node4 -->
<g id="node4" class="node">
<title>Node4</title>
<g id="a_node4"><a xlink:title=" ">
<polygon fill="white" stroke="#bfbfbf" points="553,-161.47 553,-202.47 667,-202.47 667,-161.47 553,-161.47"/>
<text text-anchor="start" x="561" y="-190.47" font-family="Helvetica,sans-Serif" font-size="10.00">std::map&lt; const IR</text>
<text text-anchor="start" x="561" y="-179.47" font-family="Helvetica,sans-Serif" font-size="10.00">::IDeclaration *, P4</text>
<text text-anchor="middle" x="610" y="-168.47" font-family="Helvetica,sans-Serif" font-size="10.00">::SymbolicValue * &gt;</text>
</a>
</g>
</g>
<!-- Node4&#45;&gt;Node2 -->
<g id="edge3" class="edge">
<title>Node4&#45;&gt;Node2</title>
<path fill="none" stroke="#9a32cd" stroke-dasharray="5,2" d="M677,-194.06C708.42,-199.81 744.99,-206.51 772.29,-211.51"/>
<polygon fill="#9a32cd" stroke="#9a32cd" points="677.47,-190.59 667,-192.23 676.21,-197.47 677.47,-190.59"/>
<text text-anchor="middle" x="698" y="-201.97" font-family="Helvetica,sans-Serif" font-size="10.00"> map</text>
</g>
<!-- Node5&#45;&gt;Node4 -->
<g id="edge4" class="edge">
<title>Node5&#45;&gt;Node4</title>
<path fill="none" stroke="#9a32cd" stroke-dasharray="5,2" d="M372.04,-181.97C425.44,-181.97 501.55,-181.97 552.99,-181.97"/>
<polygon fill="#9a32cd" stroke="#9a32cd" points="372.01,-178.47 362.01,-181.97 372.01,-185.47 372.01,-178.47"/>
<text text-anchor="middle" x="445" y="-184.97" font-family="Helvetica,sans-Serif" font-size="10.00"> elements</text>
</g>
<!-- Node6 -->
<g id="node6" class="node">
<title>Node6</title>
<g id="a_node6"><a xlink:href="class_i_castable.html" target="_top" xlink:title=" ">
<polygon fill="white" stroke="black" points="130.5,-141.47 130.5,-160.47 192.5,-160.47 192.5,-141.47 130.5,-141.47"/>
<text text-anchor="middle" x="161.5" y="-148.47" font-family="Helvetica,sans-Serif" font-size="10.00">ICastable</text>
</a>
</g>
</g>
<!-- Node6&#45;&gt;Node5 -->
<g id="edge6" class="edge">
<title>Node6&#45;&gt;Node5</title>
<path fill="none" stroke="midnightblue" d="M202.53,-159.53C221.26,-163.53 243.63,-168.32 262.9,-172.44"/>
<polygon fill="midnightblue" stroke="midnightblue" points="203.05,-156.06 192.54,-157.39 201.59,-162.91 203.05,-156.06"/>
</g>
<!-- Node6&#45;&gt;Node9 -->
<g id="edge12" class="edge">
<title>Node6&#45;&gt;Node9</title>
<path fill="none" stroke="midnightblue" d="M202.71,-145.7C226.57,-142.58 256.3,-138.68 277.99,-135.84"/>
<polygon fill="midnightblue" stroke="midnightblue" points="202,-142.26 192.54,-147.03 202.91,-149.21 202,-142.26"/>
</g>
<!-- Node7 -->
<g id="node7" class="node">
<title>Node7</title>
<g id="a_node7"><a xlink:href="struct_r_t_t_i_1_1_base.html" target="_top" xlink:title=" ">
<polygon fill="white" stroke="black" points="0,-141.47 0,-160.47 68,-160.47 68,-141.47 0,-141.47"/>
<text text-anchor="middle" x="34" y="-148.47" font-family="Helvetica,sans-Serif" font-size="10.00">RTTI::Base</text>
</a>
</g>
</g>
<!-- Node7&#45;&gt;Node6 -->
<g id="edge7" class="edge">
<title>Node7&#45;&gt;Node6</title>
<path fill="none" stroke="midnightblue" d="M78.64,-150.97C95.75,-150.97 114.97,-150.97 130.48,-150.97"/>
<polygon fill="midnightblue" stroke="midnightblue" points="78.3,-147.47 68.3,-150.97 78.3,-154.47 78.3,-147.47"/>
</g>
<!-- Node8 -->
<g id="node8" class="node">
<title>Node8</title>
<g id="a_node8"><a xlink:href="class_i_r_1_1_i_declaration.html" target="_top" xlink:title="The Declaration interface, representing objects with names.">
<polygon fill="white" stroke="black" points="399,-125.47 399,-144.47 491,-144.47 491,-125.47 399,-125.47"/>
<text text-anchor="middle" x="445" y="-132.47" font-family="Helvetica,sans-Serif" font-size="10.00">IR::IDeclaration</text>
</a>
</g>
</g>
<!-- Node8&#45;&gt;Node4 -->
<g id="edge8" class="edge">
<title>Node8&#45;&gt;Node4</title>
<path fill="none" stroke="#9a32cd" stroke-dasharray="5,2" d="M497.9,-147.03C510.12,-150.08 523.06,-153.49 535,-156.97 540.86,-158.68 546.94,-160.56 552.99,-162.5"/>
<polygon fill="#9a32cd" stroke="#9a32cd" points="498.39,-143.54 487.85,-144.55 496.72,-150.34 498.39,-143.54"/>
<text text-anchor="middle" x="522" y="-159.97" font-family="Helvetica,sans-Serif" font-size="10.00"> keys</text>
</g>
<!-- Node9&#45;&gt;Node8 -->
<g id="edge9" class="edge">
<title>Node9&#45;&gt;Node8</title>
<path fill="none" stroke="midnightblue" d="M349.37,-132.86C364.95,-133.21 382.9,-133.61 398.94,-133.97"/>
<polygon fill="midnightblue" stroke="midnightblue" points="349.09,-129.35 339.02,-132.63 348.94,-136.35 349.09,-129.35"/>
</g>
<!-- Node10 -->
<g id="node10" class="node">
<title>Node10</title>
<g id="a_node10"><a xlink:href="class_util_1_1_i_has_source_info.html" target="_top" xlink:title=" ">
<polygon fill="white" stroke="black" points="105,-97.47 105,-116.47 218,-116.47 218,-97.47 105,-97.47"/>
<text text-anchor="middle" x="161.5" y="-104.47" font-family="Helvetica,sans-Serif" font-size="10.00">Util::IHasSourceInfo</text>
</a>
</g>
</g>
<!-- Node10&#45;&gt;Node9 -->
<g id="edge10" class="edge">
<title>Node10&#45;&gt;Node9</title>
<path fill="none" stroke="midnightblue" d="M227.94,-118.25C245.45,-121.27 263.5,-124.39 277.98,-126.88"/>
<polygon fill="midnightblue" stroke="midnightblue" points="228.18,-114.74 217.73,-116.49 226.99,-121.64 228.18,-114.74"/>
</g>
<!-- Node11 -->
<g id="node11" class="node">
<title>Node11</title>
<g id="a_node11"><a xlink:title=" ">
<polygon fill="white" stroke="#bfbfbf" points="747,-149.47 747,-190.47 881,-190.47 881,-149.47 747,-149.47"/>
<text text-anchor="start" x="755" y="-178.47" font-family="Helvetica,sans-Serif" font-size="10.00">std::unordered_map</text>
<text text-anchor="start" x="755" y="-167.47" font-family="Helvetica,sans-Serif" font-size="10.00">&lt; StackVariable, size</text>
<text text-anchor="middle" x="814" y="-156.47" font-family="Helvetica,sans-Serif" font-size="10.00">_t, StackVariableHash &gt;</text>
</a>
</g>
</g>
<!-- Node11&#45;&gt;Node1 -->
<g id="edge13" class="edge">
<title>Node11&#45;&gt;Node1</title>
<path fill="none" stroke="#9a32cd" stroke-dasharray="5,2" d="M891.15,-151.32C941.48,-139 1005.37,-123.35 1045.6,-113.5"/>
<polygon fill="#9a32cd" stroke="#9a32cd" points="890.15,-147.96 881.27,-153.74 891.82,-154.76 890.15,-147.96"/>
<text text-anchor="middle" x="965" y="-146.97" font-family="Helvetica,sans-Serif" font-size="10.00"> statesIndexes</text>
</g>
<!-- Node12 -->
<g id="node12" class="node">
<title>Node12</title>
<g id="a_node12"><a xlink:href="class_p4_1_1_stack_variable.html" target="_top" xlink:title=" ">
<polygon fill="white" stroke="black" points="559.5,-109.47 559.5,-128.47 660.5,-128.47 660.5,-109.47 559.5,-109.47"/>
<text text-anchor="middle" x="610" y="-116.47" font-family="Helvetica,sans-Serif" font-size="10.00">P4::StackVariable</text>
</a>
</g>
</g>
<!-- Node12&#45;&gt;Node11 -->
<g id="edge14" class="edge">
<title>Node12&#45;&gt;Node11</title>
<path fill="none" stroke="#9a32cd" stroke-dasharray="5,2" d="M658.73,-131.02C685.07,-137.67 718.17,-146.03 746.95,-153.29"/>
<polygon fill="#9a32cd" stroke="#9a32cd" points="659.55,-127.62 648.99,-128.56 657.83,-134.41 659.55,-127.62"/>
<text text-anchor="middle" x="698" y="-144.97" font-family="Helvetica,sans-Serif" font-size="10.00"> keys</text>
</g>
<!-- Node14 -->
<g id="node14" class="node">
<title>Node14</title>
<g id="a_node14"><a xlink:title=" ">
<polygon fill="white" stroke="#bfbfbf" points="729,-77.97 729,-129.97 899,-129.97 899,-77.97 729,-77.97"/>
<text text-anchor="start" x="737" y="-117.97" font-family="Helvetica,sans-Serif" font-size="10.00">std::unordered_map</text>
<text text-anchor="start" x="737" y="-106.97" font-family="Helvetica,sans-Serif" font-size="10.00">&lt; StackVariable, const</text>
<text text-anchor="start" x="737" y="-95.97" font-family="Helvetica,sans-Serif" font-size="10.00"> IR::Expression *, StackVariable</text>
<text text-anchor="middle" x="814" y="-84.97" font-family="Helvetica,sans-Serif" font-size="10.00">Hash &gt;</text>
</a>
</g>
</g>
<!-- Node12&#45;&gt;Node14 -->
<g id="edge19" class="edge">
<title>Node12&#45;&gt;Node14</title>
<path fill="none" stroke="#9a32cd" stroke-dasharray="5,2" d="M670.83,-114.53C689.03,-113.18 709.37,-111.67 728.86,-110.22"/>
<polygon fill="#9a32cd" stroke="#9a32cd" points="670.39,-111.05 660.67,-115.28 670.91,-118.03 670.39,-111.05"/>
<text text-anchor="middle" x="698" y="-115.97" font-family="Helvetica,sans-Serif" font-size="10.00"> keys</text>
</g>
<!-- Node13 -->
<g id="node13" class="node">
<title>Node13</title>
<g id="a_node13"><a xlink:href="classcstring.html" target="_top" xlink:title=" ">
<polygon fill="white" stroke="black" points="585,-18.47 585,-37.47 635,-37.47 635,-18.47 585,-18.47"/>
<text text-anchor="middle" x="610" y="-25.47" font-family="Helvetica,sans-Serif" font-size="10.00">cstring</text>
</a>
</g>
</g>
<!-- Node13&#45;&gt;Node1 -->
<g id="edge15" class="edge">
<title>Node13&#45;&gt;Node1</title>
<path fill="none" stroke="#9a32cd" stroke-dasharray="5,2" d="M644.94,-19.89C699.17,-8.25 808.47,9.96 899,-7.97 970.14,-22.06 1043.34,-72.73 1071.97,-94.22"/>
<polygon fill="#9a32cd" stroke="#9a32cd" points="644.18,-16.47 635.16,-22.04 645.68,-23.31 644.18,-16.47"/>
<text text-anchor="middle" x="814" y="-10.97" font-family="Helvetica,sans-Serif" font-size="10.00"> name</text>
</g>
<!-- Node13&#45;&gt;Node13 -->
<g id="edge16" class="edge">
<title>Node13&#45;&gt;Node13</title>
<path fill="none" stroke="#9a32cd" stroke-dasharray="5,2" d="M593.7,-47.37C594.79,-52.29 600.22,-55.97 610,-55.97 625.64,-55.97 630.16,-46.54 623.56,-37.73"/>
<polygon fill="#9a32cd" stroke="#9a32cd" points="597.08,-48.3 596.44,-37.73 590.34,-46.4 597.08,-48.3"/>
<text text-anchor="middle" x="610" y="-69.97" font-family="Helvetica,sans-Serif" font-size="10.00"> empty</text>
<text text-anchor="middle" x="610" y="-58.97" font-family="Helvetica,sans-Serif" font-size="10.00">newline</text>
</g>
<!-- Node15 -->
<g id="node15" class="node">
<title>Node15</title>
<g id="a_node15"><a xlink:title=" ">
<polygon fill="white" stroke="#bfbfbf" points="760.5,-28.97 760.5,-58.97 867.5,-58.97 867.5,-28.97 760.5,-28.97"/>
<text text-anchor="start" x="768.5" y="-46.97" font-family="Helvetica,sans-Serif" font-size="10.00">std::unordered_set</text>
<text text-anchor="middle" x="814" y="-35.97" font-family="Helvetica,sans-Serif" font-size="10.00">&lt; cstring &gt;</text>
</a>
</g>
</g>
<!-- Node13&#45;&gt;Node15 -->
<g id="edge21" class="edge">
<title>Node13&#45;&gt;Node15</title>
<path fill="none" stroke="#9a32cd" stroke-dasharray="5,2" d="M645.41,-30.7C676.89,-33.19 723.94,-36.92 760.18,-39.79"/>
<polygon fill="#9a32cd" stroke="#9a32cd" points="645.61,-27.2 635.37,-29.9 645.06,-34.18 645.61,-27.2"/>
<text text-anchor="middle" x="698" y="-38.97" font-family="Helvetica,sans-Serif" font-size="10.00"> keys</text>
</g>
<!-- Node14&#45;&gt;Node1 -->
<g id="edge18" class="edge">
<title>Node14&#45;&gt;Node1</title>
<path fill="none" stroke="#9a32cd" stroke-dasharray="5,2" d="M909.36,-103.97C949.98,-103.97 995.99,-103.97 1030.65,-103.97"/>
<polygon fill="#9a32cd" stroke="#9a32cd" points="909.16,-100.47 899.16,-103.97 909.16,-107.47 909.16,-100.47"/>
<text text-anchor="middle" x="965" y="-106.97" font-family="Helvetica,sans-Serif" font-size="10.00"> substitutedIndexes</text>
</g>
<!-- Node15&#45;&gt;Node1 -->
<g id="edge20" class="edge">
<title>Node15&#45;&gt;Node1</title>
<path fill="none" stroke="#9a32cd" stroke-dasharray="5,2" d="M877.62,-51.8C916.89,-57.43 968.34,-66.12 1013,-77.97 1029.47,-82.34 1047.5,-88.91 1061.33,-94.35"/>
<polygon fill="#9a32cd" stroke="#9a32cd" points="878.05,-48.33 867.66,-50.4 877.08,-55.26 878.05,-48.33"/>
<text text-anchor="middle" x="965" y="-91.97" font-family="Helvetica,sans-Serif" font-size="10.00"> scenarioHS</text>
<text text-anchor="middle" x="965" y="-80.97" font-family="Helvetica,sans-Serif" font-size="10.00">scenarioStates</text>
</g>
</g>
</svg>
