<?xml version="1.0" encoding="UTF-8" standalone="no"?>
<!DOCTYPE svg PUBLIC "-//W3C//DTD SVG 1.1//EN"
 "http://www.w3.org/Graphics/SVG/1.1/DTD/svg11.dtd">
<!-- Generated by graphviz version 2.43.0 (0)
 -->
<!-- Title: P4::BFRT::BFRuntimeGenerator::Digest Pages: 1 -->
<svg width="399pt" height="298pt"
 viewBox="0.00 0.00 399.00 298.00" xmlns="http://www.w3.org/2000/svg" xmlns:xlink="http://www.w3.org/1999/xlink">
<g id="graph0" class="graph" transform="scale(1 1) rotate(0) translate(4 294)">
<title>P4::BFRT::BFRuntimeGenerator::Digest</title>
<polygon fill="white" stroke="transparent" points="-4,4 -4,-294 395,-294 395,4 -4,4"/>
<!-- Node1 -->
<g id="node1" class="node">
<title>Node1</title>
<g id="a_node1"><a xlink:title="Common digest representation between PSA and other architectures.">
<polygon fill="#bfbfbf" stroke="black" points="158.5,-0.5 158.5,-30.5 325.5,-30.5 325.5,-0.5 158.5,-0.5"/>
<text text-anchor="start" x="166.5" y="-18.5" font-family="Helvetica,sans-Serif" font-size="10.00">P4::BFRT::BFRuntimeGenerator</text>
<text text-anchor="middle" x="242" y="-7.5" font-family="Helvetica,sans-Serif" font-size="10.00">::Digest</text>
</a>
</g>
</g>
<!-- Node2 -->
<g id="node2" class="node">
<title>Node2</title>
<g id="a_node2"><a xlink:href="class_util_1_1_json_array.html" target="_top" xlink:title=" ">
<polygon fill="white" stroke="black" points="89,-78.5 89,-97.5 175,-97.5 175,-78.5 89,-78.5"/>
<text text-anchor="middle" x="132" y="-85.5" font-family="Helvetica,sans-Serif" font-size="10.00">Util::JsonArray</text>
</a>
</g>
</g>
<!-- Node2&#45;&gt;Node1 -->
<g id="edge1" class="edge">
<title>Node2&#45;&gt;Node1</title>
<path fill="none" stroke="#9a32cd" stroke-dasharray="5,2" d="M148.24,-71.66C156.49,-64.3 166.88,-55.67 177,-49 187.33,-42.2 199.27,-35.84 210.08,-30.59"/>
<polygon fill="#9a32cd" stroke="#9a32cd" points="145.82,-69.13 140.8,-78.46 150.54,-74.3 145.82,-69.13"/>
<text text-anchor="middle" x="207.5" y="-52" font-family="Helvetica,sans-Serif" font-size="10.00"> annotations</text>
</g>
<!-- Node3 -->
<g id="node3" class="node">
<title>Node3</title>
<g id="a_node3"><a xlink:href="class_util_1_1_i_json.html" target="_top" xlink:title=" ">
<polygon fill="white" stroke="black" points="2.5,-141 2.5,-160 65.5,-160 65.5,-141 2.5,-141"/>
<text text-anchor="middle" x="34" y="-148" font-family="Helvetica,sans-Serif" font-size="10.00">Util::IJson</text>
</a>
</g>
</g>
<!-- Node3&#45;&gt;Node2 -->
<g id="edge2" class="edge">
<title>Node3&#45;&gt;Node2</title>
<path fill="none" stroke="midnightblue" d="M56.66,-135.51C75.59,-123.83 101.99,-107.53 117.99,-97.65"/>
<polygon fill="midnightblue" stroke="midnightblue" points="54.71,-132.6 48.04,-140.83 58.39,-138.56 54.71,-132.6"/>
</g>
<!-- Node4 -->
<g id="node4" class="node">
<title>Node4</title>
<g id="a_node4"><a xlink:href="class_i_castable.html" target="_top" xlink:title=" ">
<polygon fill="white" stroke="black" points="3,-213.5 3,-232.5 65,-232.5 65,-213.5 3,-213.5"/>
<text text-anchor="middle" x="34" y="-220.5" font-family="Helvetica,sans-Serif" font-size="10.00">ICastable</text>
</a>
</g>
</g>
<!-- Node4&#45;&gt;Node3 -->
<g id="edge3" class="edge">
<title>Node4&#45;&gt;Node3</title>
<path fill="none" stroke="midnightblue" d="M34,-202.94C34,-189.03 34,-170.82 34,-160.22"/>
<polygon fill="midnightblue" stroke="midnightblue" points="30.5,-203.36 34,-213.36 37.5,-203.36 30.5,-203.36"/>
</g>
<!-- Node5 -->
<g id="node5" class="node">
<title>Node5</title>
<g id="a_node5"><a xlink:href="struct_r_t_t_i_1_1_base.html" target="_top" xlink:title=" ">
<polygon fill="white" stroke="black" points="0,-270.5 0,-289.5 68,-289.5 68,-270.5 0,-270.5"/>
<text text-anchor="middle" x="34" y="-277.5" font-family="Helvetica,sans-Serif" font-size="10.00">RTTI::Base</text>
</a>
</g>
</g>
<!-- Node5&#45;&gt;Node4 -->
<g id="edge4" class="edge">
<title>Node5&#45;&gt;Node4</title>
<path fill="none" stroke="midnightblue" d="M34,-260.12C34,-250.82 34,-240.06 34,-232.71"/>
<polygon fill="midnightblue" stroke="midnightblue" points="30.5,-260.41 34,-270.41 37.5,-260.41 30.5,-260.41"/>
</g>
<!-- Node6 -->
<g id="node6" class="node">
<title>Node6</title>
<g id="a_node6"><a xlink:title=" ">
<polygon fill="white" stroke="#bfbfbf" points="83.5,-141 83.5,-160 180.5,-160 180.5,-141 83.5,-141"/>
<text text-anchor="middle" x="132" y="-148" font-family="Helvetica,sans-Serif" font-size="10.00">std::vector&lt; T &gt;</text>
</a>
</g>
</g>
<!-- Node6&#45;&gt;Node2 -->
<g id="edge5" class="edge">
<title>Node6&#45;&gt;Node2</title>
<path fill="none" stroke="midnightblue" d="M132,-130.5C132,-119.5 132,-106.18 132,-97.65"/>
<polygon fill="midnightblue" stroke="midnightblue" points="128.5,-130.83 132,-140.83 135.5,-130.83 128.5,-130.83"/>
</g>
<!-- Node7 -->
<g id="node7" class="node">
<title>Node7</title>
<g id="a_node7"><a xlink:title=" ">
<polygon fill="white" stroke="#bfbfbf" points="117.5,-213.5 117.5,-232.5 146.5,-232.5 146.5,-213.5 117.5,-213.5"/>
<text text-anchor="middle" x="132" y="-220.5" font-family="Helvetica,sans-Serif" font-size="10.00">T</text>
</a>
</g>
</g>
<!-- Node7&#45;&gt;Node6 -->
<g id="edge6" class="edge">
<title>Node7&#45;&gt;Node6</title>
<path fill="none" stroke="#9a32cd" stroke-dasharray="5,2" d="M132,-202.94C132,-189.03 132,-170.82 132,-160.22"/>
<polygon fill="#9a32cd" stroke="#9a32cd" points="128.5,-203.36 132,-213.36 135.5,-203.36 128.5,-203.36"/>
<text text-anchor="middle" x="156.5" y="-187" font-family="Helvetica,sans-Serif" font-size="10.00"> elements</text>
</g>
<!-- Node8 -->
<g id="node8" class="node">
<title>Node8</title>
<g id="a_node8"><a xlink:title=" ">
<polygon fill="white" stroke="#bfbfbf" points="209.5,-78.5 209.5,-97.5 274.5,-97.5 274.5,-78.5 209.5,-78.5"/>
<text text-anchor="middle" x="242" y="-85.5" font-family="Helvetica,sans-Serif" font-size="10.00">std::string</text>
</a>
</g>
</g>
<!-- Node8&#45;&gt;Node1 -->
<g id="edge7" class="edge">
<title>Node8&#45;&gt;Node1</title>
<path fill="none" stroke="#9a32cd" stroke-dasharray="5,2" d="M242,-68.24C242,-56.41 242,-41.38 242,-30.58"/>
<polygon fill="#9a32cd" stroke="#9a32cd" points="238.5,-68.36 242,-78.36 245.5,-68.36 238.5,-68.36"/>
<text text-anchor="middle" x="257.5" y="-52" font-family="Helvetica,sans-Serif" font-size="10.00"> name</text>
</g>
<!-- Node9 -->
<g id="node9" class="node">
<title>Node9</title>
<g id="a_node9"><a xlink:title=" ">
<polygon fill="white" stroke="#bfbfbf" points="199,-135.5 199,-165.5 303,-165.5 303,-135.5 199,-135.5"/>
<text text-anchor="start" x="207" y="-153.5" font-family="Helvetica,sans-Serif" font-size="10.00">std::basic_string&lt;</text>
<text text-anchor="middle" x="251" y="-142.5" font-family="Helvetica,sans-Serif" font-size="10.00"> Char &gt;</text>
</a>
</g>
</g>
<!-- Node9&#45;&gt;Node8 -->
<g id="edge8" class="edge">
<title>Node9&#45;&gt;Node8</title>
<path fill="none" stroke="midnightblue" d="M247.41,-125.35C245.94,-115.51 244.35,-104.78 243.27,-97.54"/>
<polygon fill="midnightblue" stroke="midnightblue" points="243.98,-126.09 248.91,-135.47 250.9,-125.06 243.98,-126.09"/>
</g>
<!-- Node10 -->
<g id="node10" class="node">
<title>Node10</title>
<g id="a_node10"><a xlink:title=" ">
<polygon fill="white" stroke="#bfbfbf" points="293,-78.5 293,-97.5 391,-97.5 391,-78.5 293,-78.5"/>
<text text-anchor="middle" x="342" y="-85.5" font-family="Helvetica,sans-Serif" font-size="10.00">P4DataTypeSpec</text>
</a>
</g>
</g>
<!-- Node10&#45;&gt;Node1 -->
<g id="edge9" class="edge">
<title>Node10&#45;&gt;Node1</title>
<path fill="none" stroke="#9a32cd" stroke-dasharray="5,2" d="M321.38,-72.47C303.97,-60.19 279.19,-42.72 261.97,-30.58"/>
<polygon fill="#9a32cd" stroke="#9a32cd" points="319.55,-75.45 329.74,-78.36 323.58,-69.73 319.55,-75.45"/>
<text text-anchor="middle" x="324.5" y="-52" font-family="Helvetica,sans-Serif" font-size="10.00"> typeSpec</text>
</g>
</g>
</svg>
