<?xml version="1.0" encoding="UTF-8" standalone="no"?>
<!DOCTYPE svg PUBLIC "-//W3C//DTD SVG 1.1//EN"
 "http://www.w3.org/Graphics/SVG/1.1/DTD/svg11.dtd">
<!-- Generated by graphviz version 2.43.0 (0)
 -->
<!-- Title: Model::Param_Model Pages: 1 -->
<svg width="190pt" height="221pt"
 viewBox="0.00 0.00 189.50 221.00" xmlns="http://www.w3.org/2000/svg" xmlns:xlink="http://www.w3.org/1999/xlink">
<g id="graph0" class="graph" transform="scale(1 1) rotate(0) translate(4 217)">
<title>Model::Param_Model</title>
<polygon fill="white" stroke="transparent" points="-4,4 -4,-217 185.5,-217 185.5,4 -4,4"/>
<!-- Node1 -->
<g id="node1" class="node">
<title>Node1</title>
<g id="a_node1"><a xlink:title="Param_Model : Elem.">
<polygon fill="#bfbfbf" stroke="black" points="0,-0.5 0,-19.5 119,-19.5 119,-0.5 0,-0.5"/>
<text text-anchor="middle" x="59.5" y="-7.5" font-family="Helvetica,sans-Serif" font-size="10.00">Model::Param_Model</text>
</a>
</g>
</g>
<!-- Node2 -->
<g id="node2" class="node">
<title>Node2</title>
<g id="a_node2"><a xlink:href="struct_model_1_1_elem.html" target="_top" xlink:title=" ">
<polygon fill="white" stroke="black" points="17,-124.5 17,-143.5 94,-143.5 94,-124.5 17,-124.5"/>
<text text-anchor="middle" x="55.5" y="-131.5" font-family="Helvetica,sans-Serif" font-size="10.00">Model::Elem</text>
</a>
</g>
</g>
<!-- Node2&#45;&gt;Node1 -->
<g id="edge1" class="edge">
<title>Node2&#45;&gt;Node1</title>
<path fill="none" stroke="midnightblue" d="M56.12,-114.19C57,-87.4 58.57,-39.31 59.21,-19.69"/>
<polygon fill="midnightblue" stroke="midnightblue" points="52.62,-114.12 55.79,-124.23 59.61,-114.35 52.62,-114.12"/>
</g>
<!-- Node4 -->
<g id="node4" class="node">
<title>Node4</title>
<g id="a_node4"><a xlink:href="struct_model_1_1_type___model.html" target="_top" xlink:title=" ">
<polygon fill="white" stroke="black" points="71.5,-67.5 71.5,-86.5 181.5,-86.5 181.5,-67.5 71.5,-67.5"/>
<text text-anchor="middle" x="126.5" y="-74.5" font-family="Helvetica,sans-Serif" font-size="10.00">Model::Type_Model</text>
</a>
</g>
</g>
<!-- Node2&#45;&gt;Node4 -->
<g id="edge5" class="edge">
<title>Node2&#45;&gt;Node4</title>
<path fill="none" stroke="midnightblue" d="M74.87,-118C87.82,-107.96 104.42,-95.1 115.25,-86.71"/>
<polygon fill="midnightblue" stroke="midnightblue" points="72.36,-115.52 66.59,-124.41 76.64,-121.05 72.36,-115.52"/>
</g>
<!-- Node3 -->
<g id="node3" class="node">
<title>Node3</title>
<g id="a_node3"><a xlink:href="classcstring.html" target="_top" xlink:title=" ">
<polygon fill="white" stroke="black" points="30.5,-192.5 30.5,-211.5 80.5,-211.5 80.5,-192.5 30.5,-192.5"/>
<text text-anchor="middle" x="55.5" y="-199.5" font-family="Helvetica,sans-Serif" font-size="10.00">cstring</text>
</a>
</g>
</g>
<!-- Node3&#45;&gt;Node2 -->
<g id="edge2" class="edge">
<title>Node3&#45;&gt;Node2</title>
<path fill="none" stroke="#9a32cd" stroke-dasharray="5,2" d="M55.5,-182.04C55.5,-169.47 55.5,-153.56 55.5,-143.84"/>
<polygon fill="#9a32cd" stroke="#9a32cd" points="52,-182.37 55.5,-192.37 59,-182.37 52,-182.37"/>
<text text-anchor="middle" x="71" y="-165" font-family="Helvetica,sans-Serif" font-size="10.00"> name</text>
</g>
<!-- Node3&#45;&gt;Node3 -->
<g id="edge3" class="edge">
<title>Node3&#45;&gt;Node3</title>
<path fill="none" stroke="#9a32cd" stroke-dasharray="5,2" d="M90.95,-207.58C95.5,-206.61 98.5,-204.75 98.5,-202 98.5,-197.48 90.41,-195.37 80.68,-195.65"/>
<polygon fill="#9a32cd" stroke="#9a32cd" points="90.39,-204.11 80.68,-208.35 90.91,-211.1 90.39,-204.11"/>
<text text-anchor="middle" x="118" y="-205" font-family="Helvetica,sans-Serif" font-size="10.00"> empty</text>
<text text-anchor="middle" x="118" y="-194" font-family="Helvetica,sans-Serif" font-size="10.00">newline</text>
</g>
<!-- Node4&#45;&gt;Node1 -->
<g id="edge4" class="edge">
<title>Node4&#45;&gt;Node1</title>
<path fill="none" stroke="#9a32cd" stroke-dasharray="5,2" d="M110,-60C96.86,-47.25 78.98,-29.89 68.39,-19.63"/>
<polygon fill="#9a32cd" stroke="#9a32cd" points="107.85,-62.78 117.46,-67.23 112.72,-57.76 107.85,-62.78"/>
<text text-anchor="middle" x="109" y="-41" font-family="Helvetica,sans-Serif" font-size="10.00"> type</text>
</g>
</g>
</svg>
