<?xml version="1.0" encoding="UTF-8" standalone="no"?>
<!DOCTYPE svg PUBLIC "-//W3C//DTD SVG 1.1//EN"
 "http://www.w3.org/Graphics/SVG/1.1/DTD/svg11.dtd">
<!-- Generated by graphviz version 2.43.0 (0)
 -->
<!-- Title: P4V1::Switch_Model Pages: 1 -->
<svg width="148pt" height="219pt"
 viewBox="0.00 0.00 147.50 219.00" xmlns="http://www.w3.org/2000/svg" xmlns:xlink="http://www.w3.org/1999/xlink">
<g id="graph0" class="graph" transform="scale(1 1) rotate(0) translate(4 215)">
<title>P4V1::Switch_Model</title>
<polygon fill="white" stroke="transparent" points="-4,4 -4,-215 143.5,-215 143.5,4 -4,4"/>
<!-- Node1 -->
<g id="node1" class="node">
<title>Node1</title>
<g id="a_node1"><a xlink:title=" ">
<polygon fill="#bfbfbf" stroke="black" points="0,-0.5 0,-19.5 115,-19.5 115,-0.5 0,-0.5"/>
<text text-anchor="middle" x="57.5" y="-7.5" font-family="Helvetica,sans-Serif" font-size="10.00">P4V1::Switch_Model</text>
</a>
</g>
</g>
<!-- Node2 -->
<g id="node2" class="node">
<title>Node2</title>
<g id="a_node2"><a xlink:href="struct_model_1_1_elem.html" target="_top" xlink:title=" ">
<polygon fill="white" stroke="black" points="19,-122.5 19,-141.5 96,-141.5 96,-122.5 19,-122.5"/>
<text text-anchor="middle" x="57.5" y="-129.5" font-family="Helvetica,sans-Serif" font-size="10.00">Model::Elem</text>
</a>
</g>
</g>
<!-- Node2&#45;&gt;Node1 -->
<g id="edge1" class="edge">
<title>Node2&#45;&gt;Node1</title>
<path fill="none" stroke="midnightblue" d="M55.94,-112.38C55.76,-109.58 55.6,-106.71 55.5,-104 54.42,-74.69 54.42,-67.31 55.5,-38 55.73,-31.8 56.25,-24.82 56.71,-19.5"/>
<polygon fill="midnightblue" stroke="midnightblue" points="52.46,-112.79 56.71,-122.5 59.44,-112.26 52.46,-112.79"/>
</g>
<!-- Node2&#45;&gt;Node1 -->
<g id="edge4" class="edge">
<title>Node2&#45;&gt;Node1</title>
<path fill="none" stroke="#9a32cd" stroke-dasharray="5,2" d="M57.5,-112.15C57.5,-85.72 57.5,-38.76 57.5,-19.55"/>
<polygon fill="#9a32cd" stroke="#9a32cd" points="54,-112.37 57.5,-122.37 61,-112.37 54,-112.37"/>
<text text-anchor="middle" x="80.5" y="-96" font-family="Helvetica,sans-Serif" font-size="10.00"> compute</text>
<text text-anchor="middle" x="80.5" y="-85" font-family="Helvetica,sans-Serif" font-size="10.00">deparser</text>
<text text-anchor="middle" x="80.5" y="-74" font-family="Helvetica,sans-Serif" font-size="10.00">egress</text>
<text text-anchor="middle" x="80.5" y="-63" font-family="Helvetica,sans-Serif" font-size="10.00">ingress</text>
<text text-anchor="middle" x="80.5" y="-52" font-family="Helvetica,sans-Serif" font-size="10.00">parser</text>
<text text-anchor="middle" x="80.5" y="-41" font-family="Helvetica,sans-Serif" font-size="10.00">verify</text>
</g>
<!-- Node3 -->
<g id="node3" class="node">
<title>Node3</title>
<g id="a_node3"><a xlink:href="classcstring.html" target="_top" xlink:title=" ">
<polygon fill="white" stroke="black" points="32.5,-190.5 32.5,-209.5 82.5,-209.5 82.5,-190.5 32.5,-190.5"/>
<text text-anchor="middle" x="57.5" y="-197.5" font-family="Helvetica,sans-Serif" font-size="10.00">cstring</text>
</a>
</g>
</g>
<!-- Node3&#45;&gt;Node2 -->
<g id="edge2" class="edge">
<title>Node3&#45;&gt;Node2</title>
<path fill="none" stroke="#9a32cd" stroke-dasharray="5,2" d="M57.5,-180.04C57.5,-167.47 57.5,-151.56 57.5,-141.84"/>
<polygon fill="#9a32cd" stroke="#9a32cd" points="54,-180.37 57.5,-190.37 61,-180.37 54,-180.37"/>
<text text-anchor="middle" x="73" y="-163" font-family="Helvetica,sans-Serif" font-size="10.00"> name</text>
</g>
<!-- Node3&#45;&gt;Node3 -->
<g id="edge3" class="edge">
<title>Node3&#45;&gt;Node3</title>
<path fill="none" stroke="#9a32cd" stroke-dasharray="5,2" d="M92.95,-205.58C97.5,-204.61 100.5,-202.75 100.5,-200 100.5,-195.48 92.41,-193.37 82.68,-193.65"/>
<polygon fill="#9a32cd" stroke="#9a32cd" points="92.39,-202.11 82.68,-206.35 92.91,-209.1 92.39,-202.11"/>
<text text-anchor="middle" x="120" y="-203" font-family="Helvetica,sans-Serif" font-size="10.00"> empty</text>
<text text-anchor="middle" x="120" y="-192" font-family="Helvetica,sans-Serif" font-size="10.00">newline</text>
</g>
</g>
</svg>
