<?xml version="1.0" encoding="UTF-8" standalone="no"?>
<!DOCTYPE svg PUBLIC "-//W3C//DTD SVG 1.1//EN"
 "http://www.w3.org/Graphics/SVG/1.1/DTD/svg11.dtd">
<!-- Generated by graphviz version 2.43.0 (0)
 -->
<!-- Title: P4V1::CloneType_Model Pages: 1 -->
<svg width="207pt" height="289pt"
 viewBox="0.00 0.00 206.50 289.00" xmlns="http://www.w3.org/2000/svg" xmlns:xlink="http://www.w3.org/1999/xlink">
<g id="graph0" class="graph" transform="scale(1 1) rotate(0) translate(4 285)">
<title>P4V1::CloneType_Model</title>
<polygon fill="white" stroke="transparent" points="-4,4 -4,-285 202.5,-285 202.5,4 -4,4"/>
<!-- Node1 -->
<g id="node1" class="node">
<title>Node1</title>
<g id="a_node1"><a xlink:title=" ">
<polygon fill="#bfbfbf" stroke="black" points="0,-0.5 0,-19.5 133,-19.5 133,-0.5 0,-0.5"/>
<text text-anchor="middle" x="66.5" y="-7.5" font-family="Helvetica,sans-Serif" font-size="10.00">P4V1::CloneType_Model</text>
</a>
</g>
</g>
<!-- Node2 -->
<g id="node2" class="node">
<title>Node2</title>
<g id="a_node2"><a xlink:href="struct_model_1_1_enum___model.html" target="_top" xlink:title="Enum_Model : Type_Model.">
<polygon fill="white" stroke="black" points="82.5,-57.5 82.5,-76.5 198.5,-76.5 198.5,-57.5 82.5,-57.5"/>
<text text-anchor="middle" x="140.5" y="-64.5" font-family="Helvetica,sans-Serif" font-size="10.00">Model::Enum_Model</text>
</a>
</g>
</g>
<!-- Node2&#45;&gt;Node1 -->
<g id="edge1" class="edge">
<title>Node2&#45;&gt;Node1</title>
<path fill="none" stroke="midnightblue" d="M120.7,-51.29C107.15,-41.21 89.62,-28.19 78.23,-19.71"/>
<polygon fill="midnightblue" stroke="midnightblue" points="118.82,-54.25 128.94,-57.41 123,-48.63 118.82,-54.25"/>
</g>
<!-- Node3 -->
<g id="node3" class="node">
<title>Node3</title>
<g id="a_node3"><a xlink:href="struct_model_1_1_type___model.html" target="_top" xlink:title=" ">
<polygon fill="white" stroke="black" points="83.5,-135.5 83.5,-154.5 193.5,-154.5 193.5,-135.5 83.5,-135.5"/>
<text text-anchor="middle" x="138.5" y="-142.5" font-family="Helvetica,sans-Serif" font-size="10.00">Model::Type_Model</text>
</a>
</g>
</g>
<!-- Node3&#45;&gt;Node2 -->
<g id="edge2" class="edge">
<title>Node3&#45;&gt;Node2</title>
<path fill="none" stroke="midnightblue" d="M138.99,-125.22C139.4,-109.7 139.96,-88.36 140.27,-76.62"/>
<polygon fill="midnightblue" stroke="midnightblue" points="135.49,-125.19 138.73,-135.28 142.49,-125.38 135.49,-125.19"/>
</g>
<!-- Node4 -->
<g id="node4" class="node">
<title>Node4</title>
<g id="a_node4"><a xlink:href="struct_model_1_1_elem.html" target="_top" xlink:title=" ">
<polygon fill="white" stroke="black" points="28,-192.5 28,-211.5 105,-211.5 105,-192.5 28,-192.5"/>
<text text-anchor="middle" x="66.5" y="-199.5" font-family="Helvetica,sans-Serif" font-size="10.00">Model::Elem</text>
</a>
</g>
</g>
<!-- Node4&#45;&gt;Node1 -->
<g id="edge6" class="edge">
<title>Node4&#45;&gt;Node1</title>
<path fill="none" stroke="#9a32cd" stroke-dasharray="5,2" d="M66.5,-182.3C66.5,-142.09 66.5,-48.65 66.5,-19.71"/>
<polygon fill="#9a32cd" stroke="#9a32cd" points="63,-182.34 66.5,-192.34 70,-182.34 63,-182.34"/>
<text text-anchor="middle" x="77.5" y="-109" font-family="Helvetica,sans-Serif" font-size="10.00"> e2e</text>
<text text-anchor="middle" x="77.5" y="-98" font-family="Helvetica,sans-Serif" font-size="10.00">i2e</text>
</g>
<!-- Node4&#45;&gt;Node3 -->
<g id="edge3" class="edge">
<title>Node4&#45;&gt;Node3</title>
<path fill="none" stroke="midnightblue" d="M85.76,-186.29C98.95,-176.21 116,-163.19 127.09,-154.71"/>
<polygon fill="midnightblue" stroke="midnightblue" points="83.57,-183.55 77.75,-192.41 87.82,-189.12 83.57,-183.55"/>
</g>
<!-- Node5 -->
<g id="node5" class="node">
<title>Node5</title>
<g id="a_node5"><a xlink:href="classcstring.html" target="_top" xlink:title=" ">
<polygon fill="white" stroke="black" points="41.5,-260.5 41.5,-279.5 91.5,-279.5 91.5,-260.5 41.5,-260.5"/>
<text text-anchor="middle" x="66.5" y="-267.5" font-family="Helvetica,sans-Serif" font-size="10.00">cstring</text>
</a>
</g>
</g>
<!-- Node5&#45;&gt;Node4 -->
<g id="edge4" class="edge">
<title>Node5&#45;&gt;Node4</title>
<path fill="none" stroke="#9a32cd" stroke-dasharray="5,2" d="M66.5,-250.04C66.5,-237.47 66.5,-221.56 66.5,-211.84"/>
<polygon fill="#9a32cd" stroke="#9a32cd" points="63,-250.37 66.5,-260.37 70,-250.37 63,-250.37"/>
<text text-anchor="middle" x="82" y="-233" font-family="Helvetica,sans-Serif" font-size="10.00"> name</text>
</g>
<!-- Node5&#45;&gt;Node5 -->
<g id="edge5" class="edge">
<title>Node5&#45;&gt;Node5</title>
<path fill="none" stroke="#9a32cd" stroke-dasharray="5,2" d="M101.95,-275.58C106.5,-274.61 109.5,-272.75 109.5,-270 109.5,-265.48 101.41,-263.37 91.68,-263.65"/>
<polygon fill="#9a32cd" stroke="#9a32cd" points="101.39,-272.11 91.68,-276.35 101.91,-279.1 101.39,-272.11"/>
<text text-anchor="middle" x="129" y="-273" font-family="Helvetica,sans-Serif" font-size="10.00"> empty</text>
<text text-anchor="middle" x="129" y="-262" font-family="Helvetica,sans-Serif" font-size="10.00">newline</text>
</g>
</g>
</svg>
