<?xml version="1.0" encoding="UTF-8" standalone="no"?>
<!DOCTYPE svg PUBLIC "-//W3C//DTD SVG 1.1//EN"
 "http://www.w3.org/Graphics/SVG/1.1/DTD/svg11.dtd">
<!-- Generated by graphviz version 2.43.0 (0)
 -->
<!-- Title: UBPF::Hash_Model Pages: 1 -->
<svg width="144pt" height="154pt"
 viewBox="0.00 0.00 144.00 154.00" xmlns="http://www.w3.org/2000/svg" xmlns:xlink="http://www.w3.org/1999/xlink">
<g id="graph0" class="graph" transform="scale(1 1) rotate(0) translate(4 150)">
<title>UBPF::Hash_Model</title>
<polygon fill="white" stroke="transparent" points="-4,4 -4,-150 140,-150 140,4 -4,4"/>
<!-- Node1 -->
<g id="node1" class="node">
<title>Node1</title>
<g id="a_node1"><a xlink:title=" ">
<polygon fill="#bfbfbf" stroke="black" points="0,-0.5 0,-19.5 108,-19.5 108,-0.5 0,-0.5"/>
<text text-anchor="middle" x="54" y="-7.5" font-family="Helvetica,sans-Serif" font-size="10.00">UBPF::Hash_Model</text>
</a>
</g>
</g>
<!-- Node2 -->
<g id="node2" class="node">
<title>Node2</title>
<g id="a_node2"><a xlink:href="struct_model_1_1_elem.html" target="_top" xlink:title=" ">
<polygon fill="white" stroke="black" points="15.5,-57.5 15.5,-76.5 92.5,-76.5 92.5,-57.5 15.5,-57.5"/>
<text text-anchor="middle" x="54" y="-64.5" font-family="Helvetica,sans-Serif" font-size="10.00">Model::Elem</text>
</a>
</g>
</g>
<!-- Node2&#45;&gt;Node1 -->
<g id="edge1" class="edge">
<title>Node2&#45;&gt;Node1</title>
<path fill="none" stroke="midnightblue" d="M54,-47.12C54,-37.82 54,-27.06 54,-19.71"/>
<polygon fill="midnightblue" stroke="midnightblue" points="50.5,-47.41 54,-57.41 57.5,-47.41 50.5,-47.41"/>
</g>
<!-- Node3 -->
<g id="node3" class="node">
<title>Node3</title>
<g id="a_node3"><a xlink:href="classcstring.html" target="_top" xlink:title=" ">
<polygon fill="white" stroke="black" points="29,-125.5 29,-144.5 79,-144.5 79,-125.5 29,-125.5"/>
<text text-anchor="middle" x="54" y="-132.5" font-family="Helvetica,sans-Serif" font-size="10.00">cstring</text>
</a>
</g>
</g>
<!-- Node3&#45;&gt;Node2 -->
<g id="edge2" class="edge">
<title>Node3&#45;&gt;Node2</title>
<path fill="none" stroke="#9a32cd" stroke-dasharray="5,2" d="M54,-115.04C54,-102.47 54,-86.56 54,-76.84"/>
<polygon fill="#9a32cd" stroke="#9a32cd" points="50.5,-115.37 54,-125.37 57.5,-115.37 50.5,-115.37"/>
<text text-anchor="middle" x="69.5" y="-98" font-family="Helvetica,sans-Serif" font-size="10.00"> name</text>
</g>
<!-- Node3&#45;&gt;Node3 -->
<g id="edge3" class="edge">
<title>Node3&#45;&gt;Node3</title>
<path fill="none" stroke="#9a32cd" stroke-dasharray="5,2" d="M89.45,-140.58C94,-139.61 97,-137.75 97,-135 97,-130.48 88.91,-128.37 79.18,-128.65"/>
<polygon fill="#9a32cd" stroke="#9a32cd" points="88.89,-137.11 79.18,-141.35 89.41,-144.1 88.89,-137.11"/>
<text text-anchor="middle" x="116.5" y="-138" font-family="Helvetica,sans-Serif" font-size="10.00"> empty</text>
<text text-anchor="middle" x="116.5" y="-127" font-family="Helvetica,sans-Serif" font-size="10.00">newline</text>
</g>
</g>
</svg>
