<?xml version="1.0" encoding="UTF-8" standalone="no"?>
<!DOCTYPE svg PUBLIC "-//W3C//DTD SVG 1.1//EN"
 "http://www.w3.org/Graphics/SVG/1.1/DTD/svg11.dtd">
<!-- Generated by graphviz version 2.43.0 (0)
 -->
<!-- Title: P4Tools::TableUtils::KeyProperties Pages: 1 -->
<svg width="144pt" height="119pt"
 viewBox="0.00 0.00 143.50 119.00" xmlns="http://www.w3.org/2000/svg" xmlns:xlink="http://www.w3.org/1999/xlink">
<g id="graph0" class="graph" transform="scale(1 1) rotate(0) translate(4 115)">
<title>P4Tools::TableUtils::KeyProperties</title>
<polygon fill="white" stroke="transparent" points="-4,4 -4,-115 139.5,-115 139.5,4 -4,4"/>
<!-- Node1 -->
<g id="node1" class="node">
<title>Node1</title>
<g id="a_node1"><a xlink:title="KeyProperties define properties of table keys that are useful for execution.">
<polygon fill="#bfbfbf" stroke="black" points="0,-0.5 0,-30.5 107,-30.5 107,-0.5 0,-0.5"/>
<text text-anchor="start" x="8" y="-18.5" font-family="Helvetica,sans-Serif" font-size="10.00">P4Tools::TableUtils</text>
<text text-anchor="middle" x="53.5" y="-7.5" font-family="Helvetica,sans-Serif" font-size="10.00">::KeyProperties</text>
</a>
</g>
</g>
<!-- Node2 -->
<g id="node2" class="node">
<title>Node2</title>
<g id="a_node2"><a xlink:href="classcstring.html" target="_top" xlink:title=" ">
<polygon fill="white" stroke="black" points="28.5,-90.5 28.5,-109.5 78.5,-109.5 78.5,-90.5 28.5,-90.5"/>
<text text-anchor="middle" x="53.5" y="-97.5" font-family="Helvetica,sans-Serif" font-size="10.00">cstring</text>
</a>
</g>
</g>
<!-- Node2&#45;&gt;Node1 -->
<g id="edge1" class="edge">
<title>Node2&#45;&gt;Node1</title>
<path fill="none" stroke="#9a32cd" stroke-dasharray="5,2" d="M53.5,-80.29C53.5,-65.2 53.5,-44.3 53.5,-30.59"/>
<polygon fill="#9a32cd" stroke="#9a32cd" points="50,-80.48 53.5,-90.48 57,-80.48 50,-80.48"/>
<text text-anchor="middle" x="82" y="-63" font-family="Helvetica,sans-Serif" font-size="10.00"> matchType</text>
<text text-anchor="middle" x="82" y="-52" font-family="Helvetica,sans-Serif" font-size="10.00">name</text>
</g>
<!-- Node2&#45;&gt;Node2 -->
<g id="edge2" class="edge">
<title>Node2&#45;&gt;Node2</title>
<path fill="none" stroke="#9a32cd" stroke-dasharray="5,2" d="M88.95,-106.57C93.5,-105.43 96.5,-103.24 96.5,-100 96.5,-94.69 88.41,-92.2 78.68,-92.53"/>
<polygon fill="#9a32cd" stroke="#9a32cd" points="88.33,-103.11 78.68,-107.47 88.94,-110.08 88.33,-103.11"/>
<text text-anchor="middle" x="116" y="-103" font-family="Helvetica,sans-Serif" font-size="10.00"> empty</text>
<text text-anchor="middle" x="116" y="-92" font-family="Helvetica,sans-Serif" font-size="10.00">newline</text>
</g>
</g>
</svg>
