<?xml version="1.0" encoding="UTF-8" standalone="no"?>
<!DOCTYPE svg PUBLIC "-//W3C//DTD SVG 1.1//EN"
 "http://www.w3.org/Graphics/SVG/1.1/DTD/svg11.dtd">
<!-- Generated by graphviz version 2.43.0 (0)
 -->
<!-- Title: P4::LocationPath Pages: 1 -->
<svg width="355pt" height="278pt"
 viewBox="0.00 0.00 355.00 278.00" xmlns="http://www.w3.org/2000/svg" xmlns:xlink="http://www.w3.org/1999/xlink">
<g id="graph0" class="graph" transform="scale(1 1) rotate(0) translate(4 274)">
<title>P4::LocationPath</title>
<polygon fill="white" stroke="transparent" points="-4,4 -4,-274 351,-274 351,4 -4,4"/>
<!-- Node1 -->
<g id="node1" class="node">
<title>Node1</title>
<g id="a_node1"><a xlink:title=" ">
<polygon fill="#bfbfbf" stroke="black" points="90.5,-0.5 90.5,-19.5 187.5,-19.5 187.5,-0.5 90.5,-0.5"/>
<text text-anchor="middle" x="139" y="-7.5" font-family="Helvetica,sans-Serif" font-size="10.00">P4::LocationPath</text>
</a>
</g>
</g>
<!-- Node2 -->
<g id="node2" class="node">
<title>Node2</title>
<g id="a_node2"><a xlink:href="class_i_has_db_print.html" target="_top" xlink:title=" ">
<polygon fill="white" stroke="black" points="0,-193.5 0,-212.5 74,-212.5 74,-193.5 0,-193.5"/>
<text text-anchor="middle" x="37" y="-200.5" font-family="Helvetica,sans-Serif" font-size="10.00">IHasDbPrint</text>
</a>
</g>
</g>
<!-- Node2&#45;&gt;Node1 -->
<g id="edge1" class="edge">
<title>Node2&#45;&gt;Node1</title>
<path fill="none" stroke="midnightblue" d="M40.8,-183.12C46.87,-155.92 60.52,-104.82 84,-67 95.93,-47.78 115.52,-29.94 127.81,-19.77"/>
<polygon fill="midnightblue" stroke="midnightblue" points="37.31,-182.7 38.66,-193.21 44.16,-184.15 37.31,-182.7"/>
</g>
<!-- Node6 -->
<g id="node6" class="node">
<title>Node6</title>
<g id="a_node6"><a xlink:href="class_i_r_1_1_i_node.html" target="_top" xlink:title=" ">
<polygon fill="white" stroke="black" points="116.5,-135.5 116.5,-154.5 177.5,-154.5 177.5,-135.5 116.5,-135.5"/>
<text text-anchor="middle" x="147" y="-142.5" font-family="Helvetica,sans-Serif" font-size="10.00">IR::INode</text>
</a>
</g>
</g>
<!-- Node2&#45;&gt;Node6 -->
<g id="edge8" class="edge">
<title>Node2&#45;&gt;Node6</title>
<path fill="none" stroke="midnightblue" d="M62.64,-188.95C83.43,-178.36 112.14,-163.74 130.14,-154.59"/>
<polygon fill="midnightblue" stroke="midnightblue" points="61.03,-185.84 53.71,-193.49 64.21,-192.08 61.03,-185.84"/>
</g>
<!-- Node3 -->
<g id="node3" class="node">
<title>Node3</title>
<g id="a_node3"><a xlink:title=" ">
<polygon fill="white" stroke="#bfbfbf" points="203,-67.5 203,-86.5 327,-86.5 327,-67.5 203,-67.5"/>
<text text-anchor="middle" x="265" y="-74.5" font-family="Helvetica,sans-Serif" font-size="10.00">std::vector&lt; cstring &gt;</text>
</a>
</g>
</g>
<!-- Node3&#45;&gt;Node1 -->
<g id="edge2" class="edge">
<title>Node3&#45;&gt;Node1</title>
<path fill="none" stroke="#9a32cd" stroke-dasharray="5,2" d="M239.36,-62.77C214.41,-49.9 177.2,-30.71 155.8,-19.67"/>
<polygon fill="#9a32cd" stroke="#9a32cd" points="237.78,-65.89 248.27,-67.37 240.99,-59.67 237.78,-65.89"/>
<text text-anchor="middle" x="222.5" y="-41" font-family="Helvetica,sans-Serif" font-size="10.00"> path</text>
</g>
<!-- Node4 -->
<g id="node4" class="node">
<title>Node4</title>
<g id="a_node4"><a xlink:href="classcstring.html" target="_top" xlink:title=" ">
<polygon fill="white" stroke="black" points="240,-135.5 240,-154.5 290,-154.5 290,-135.5 240,-135.5"/>
<text text-anchor="middle" x="265" y="-142.5" font-family="Helvetica,sans-Serif" font-size="10.00">cstring</text>
</a>
</g>
</g>
<!-- Node4&#45;&gt;Node3 -->
<g id="edge3" class="edge">
<title>Node4&#45;&gt;Node3</title>
<path fill="none" stroke="#9a32cd" stroke-dasharray="5,2" d="M265,-125.04C265,-112.47 265,-96.56 265,-86.84"/>
<polygon fill="#9a32cd" stroke="#9a32cd" points="261.5,-125.37 265,-135.37 268.5,-125.37 261.5,-125.37"/>
<text text-anchor="middle" x="289.5" y="-108" font-family="Helvetica,sans-Serif" font-size="10.00"> elements</text>
</g>
<!-- Node4&#45;&gt;Node4 -->
<g id="edge4" class="edge">
<title>Node4&#45;&gt;Node4</title>
<path fill="none" stroke="#9a32cd" stroke-dasharray="5,2" d="M300.45,-149.6C305,-148.8 308,-147.27 308,-145 308,-141.28 299.91,-139.54 290.18,-139.77"/>
<polygon fill="#9a32cd" stroke="#9a32cd" points="299.94,-146.12 290.18,-150.23 300.37,-153.11 299.94,-146.12"/>
<text text-anchor="middle" x="327.5" y="-148" font-family="Helvetica,sans-Serif" font-size="10.00"> empty</text>
<text text-anchor="middle" x="327.5" y="-137" font-family="Helvetica,sans-Serif" font-size="10.00">newline</text>
</g>
<!-- Node5 -->
<g id="node5" class="node">
<title>Node5</title>
<g id="a_node5"><a xlink:href="class_i_r_1_1_i_declaration.html" target="_top" xlink:title="The Declaration interface, representing objects with names.">
<polygon fill="white" stroke="black" points="93,-67.5 93,-86.5 185,-86.5 185,-67.5 93,-67.5"/>
<text text-anchor="middle" x="139" y="-74.5" font-family="Helvetica,sans-Serif" font-size="10.00">IR::IDeclaration</text>
</a>
</g>
</g>
<!-- Node5&#45;&gt;Node1 -->
<g id="edge5" class="edge">
<title>Node5&#45;&gt;Node1</title>
<path fill="none" stroke="#9a32cd" stroke-dasharray="5,2" d="M139,-57.04C139,-44.67 139,-29.12 139,-19.63"/>
<polygon fill="#9a32cd" stroke="#9a32cd" points="135.5,-57.23 139,-67.23 142.5,-57.23 135.5,-57.23"/>
<text text-anchor="middle" x="150.5" y="-41" font-family="Helvetica,sans-Serif" font-size="10.00"> root</text>
</g>
<!-- Node6&#45;&gt;Node5 -->
<g id="edge6" class="edge">
<title>Node6&#45;&gt;Node5</title>
<path fill="none" stroke="midnightblue" d="M144.75,-125.42C143.22,-112.8 141.26,-96.66 140.07,-86.84"/>
<polygon fill="midnightblue" stroke="midnightblue" points="141.28,-125.87 145.95,-135.37 148.23,-125.02 141.28,-125.87"/>
</g>
<!-- Node7 -->
<g id="node7" class="node">
<title>Node7</title>
<g id="a_node7"><a xlink:href="class_util_1_1_i_has_source_info.html" target="_top" xlink:title=" ">
<polygon fill="white" stroke="black" points="92.5,-193.5 92.5,-212.5 205.5,-212.5 205.5,-193.5 92.5,-193.5"/>
<text text-anchor="middle" x="149" y="-200.5" font-family="Helvetica,sans-Serif" font-size="10.00">Util::IHasSourceInfo</text>
</a>
</g>
</g>
<!-- Node7&#45;&gt;Node6 -->
<g id="edge7" class="edge">
<title>Node7&#45;&gt;Node6</title>
<path fill="none" stroke="midnightblue" d="M148.32,-182.95C147.97,-173.29 147.57,-162.03 147.3,-154.51"/>
<polygon fill="midnightblue" stroke="midnightblue" points="144.83,-183.38 148.69,-193.25 151.83,-183.13 144.83,-183.38"/>
</g>
<!-- Node8 -->
<g id="node8" class="node">
<title>Node8</title>
<g id="a_node8"><a xlink:href="class_i_castable.html" target="_top" xlink:title=" ">
<polygon fill="white" stroke="black" points="224,-193.5 224,-212.5 286,-212.5 286,-193.5 224,-193.5"/>
<text text-anchor="middle" x="255" y="-200.5" font-family="Helvetica,sans-Serif" font-size="10.00">ICastable</text>
</a>
</g>
</g>
<!-- Node8&#45;&gt;Node6 -->
<g id="edge9" class="edge">
<title>Node8&#45;&gt;Node6</title>
<path fill="none" stroke="midnightblue" d="M229.55,-188.81C209.16,-178.23 181.14,-163.7 163.56,-154.59"/>
<polygon fill="midnightblue" stroke="midnightblue" points="228.11,-192 238.6,-193.49 231.33,-185.78 228.11,-192"/>
</g>
<!-- Node9 -->
<g id="node9" class="node">
<title>Node9</title>
<g id="a_node9"><a xlink:href="struct_r_t_t_i_1_1_base.html" target="_top" xlink:title=" ">
<polygon fill="white" stroke="black" points="221,-250.5 221,-269.5 289,-269.5 289,-250.5 221,-250.5"/>
<text text-anchor="middle" x="255" y="-257.5" font-family="Helvetica,sans-Serif" font-size="10.00">RTTI::Base</text>
</a>
</g>
</g>
<!-- Node9&#45;&gt;Node8 -->
<g id="edge10" class="edge">
<title>Node9&#45;&gt;Node8</title>
<path fill="none" stroke="midnightblue" d="M255,-240.12C255,-230.82 255,-220.06 255,-212.71"/>
<polygon fill="midnightblue" stroke="midnightblue" points="251.5,-240.41 255,-250.41 258.5,-240.41 251.5,-240.41"/>
</g>
</g>
</svg>
