<?xml version="1.0" encoding="UTF-8" standalone="no"?>
<!DOCTYPE svg PUBLIC "-//W3C//DTD SVG 1.1//EN"
 "http://www.w3.org/Graphics/SVG/1.1/DTD/svg11.dtd">
<!-- Generated by graphviz version 2.43.0 (0)
 -->
<!-- Title: P4::BFRT::TypeSpecParser::Field Pages: 1 -->
<svg width="278pt" height="290pt"
 viewBox="0.00 0.00 278.00 290.00" xmlns="http://www.w3.org/2000/svg" xmlns:xlink="http://www.w3.org/1999/xlink">
<g id="graph0" class="graph" transform="scale(1 1) rotate(0) translate(4 286)">
<title>P4::BFRT::TypeSpecParser::Field</title>
<polygon fill="white" stroke="transparent" points="-4,4 -4,-286 274,-286 274,4 -4,4"/>
<!-- Node1 -->
<g id="node1" class="node">
<title>Node1</title>
<g id="a_node1"><a xlink:title=" ">
<polygon fill="#bfbfbf" stroke="black" points="28,-0.5 28,-30.5 168,-30.5 168,-0.5 28,-0.5"/>
<text text-anchor="start" x="36" y="-18.5" font-family="Helvetica,sans-Serif" font-size="10.00">P4::BFRT::TypeSpecParser</text>
<text text-anchor="middle" x="98" y="-7.5" font-family="Helvetica,sans-Serif" font-size="10.00">::Field</text>
</a>
</g>
</g>
<!-- Node2 -->
<g id="node2" class="node">
<title>Node2</title>
<g id="a_node2"><a xlink:href="classcstring.html" target="_top" xlink:title=" ">
<polygon fill="white" stroke="black" points="0,-79.5 0,-98.5 50,-98.5 50,-79.5 0,-79.5"/>
<text text-anchor="middle" x="25" y="-86.5" font-family="Helvetica,sans-Serif" font-size="10.00">cstring</text>
</a>
</g>
</g>
<!-- Node2&#45;&gt;Node1 -->
<g id="edge1" class="edge">
<title>Node2&#45;&gt;Node1</title>
<path fill="none" stroke="#9a32cd" stroke-dasharray="5,2" d="M41.16,-72.17C53.89,-59.7 71.47,-42.48 83.7,-30.51"/>
<polygon fill="#9a32cd" stroke="#9a32cd" points="38.65,-69.73 33.95,-79.23 43.54,-74.74 38.65,-69.73"/>
<text text-anchor="middle" x="79.5" y="-52" font-family="Helvetica,sans-Serif" font-size="10.00"> name</text>
</g>
<!-- Node2&#45;&gt;Node2 -->
<g id="edge2" class="edge">
<title>Node2&#45;&gt;Node2</title>
<path fill="none" stroke="#9a32cd" stroke-dasharray="5,2" d="M60.45,-93.6C65,-92.8 68,-91.27 68,-89 68,-85.28 59.91,-83.54 50.18,-83.77"/>
<polygon fill="#9a32cd" stroke="#9a32cd" points="59.94,-90.12 50.18,-94.23 60.37,-97.11 59.94,-90.12"/>
<text text-anchor="middle" x="87.5" y="-92" font-family="Helvetica,sans-Serif" font-size="10.00"> empty</text>
<text text-anchor="middle" x="87.5" y="-81" font-family="Helvetica,sans-Serif" font-size="10.00">newline</text>
</g>
<!-- Node3 -->
<g id="node3" class="node">
<title>Node3</title>
<g id="a_node3"><a xlink:href="class_util_1_1_json_object.html" target="_top" xlink:title=" ">
<polygon fill="white" stroke="black" points="125,-79.5 125,-98.5 217,-98.5 217,-79.5 125,-79.5"/>
<text text-anchor="middle" x="171" y="-86.5" font-family="Helvetica,sans-Serif" font-size="10.00">Util::JsonObject</text>
</a>
</g>
</g>
<!-- Node3&#45;&gt;Node1 -->
<g id="edge3" class="edge">
<title>Node3&#45;&gt;Node1</title>
<path fill="none" stroke="#9a32cd" stroke-dasharray="5,2" d="M154.84,-72.17C142.11,-59.7 124.53,-42.48 112.3,-30.51"/>
<polygon fill="#9a32cd" stroke="#9a32cd" points="152.46,-74.74 162.05,-79.23 157.35,-69.73 152.46,-74.74"/>
<text text-anchor="middle" x="154.5" y="-52" font-family="Helvetica,sans-Serif" font-size="10.00"> type</text>
</g>
<!-- Node4 -->
<g id="node4" class="node">
<title>Node4</title>
<g id="a_node4"><a xlink:href="class_util_1_1_i_json.html" target="_top" xlink:title=" ">
<polygon fill="white" stroke="black" points="60.5,-143 60.5,-162 123.5,-162 123.5,-143 60.5,-143"/>
<text text-anchor="middle" x="92" y="-150" font-family="Helvetica,sans-Serif" font-size="10.00">Util::IJson</text>
</a>
</g>
</g>
<!-- Node4&#45;&gt;Node3 -->
<g id="edge4" class="edge">
<title>Node4&#45;&gt;Node3</title>
<path fill="none" stroke="midnightblue" d="M111.22,-136.54C126.46,-124.67 147.24,-108.5 159.85,-98.68"/>
<polygon fill="midnightblue" stroke="midnightblue" points="108.73,-134.04 102.98,-142.95 113.03,-139.57 108.73,-134.04"/>
</g>
<!-- Node5 -->
<g id="node5" class="node">
<title>Node5</title>
<g id="a_node5"><a xlink:href="class_i_castable.html" target="_top" xlink:title=" ">
<polygon fill="white" stroke="black" points="61,-205.5 61,-224.5 123,-224.5 123,-205.5 61,-205.5"/>
<text text-anchor="middle" x="92" y="-212.5" font-family="Helvetica,sans-Serif" font-size="10.00">ICastable</text>
</a>
</g>
</g>
<!-- Node5&#45;&gt;Node4 -->
<g id="edge5" class="edge">
<title>Node5&#45;&gt;Node4</title>
<path fill="none" stroke="midnightblue" d="M92,-195C92,-184 92,-170.68 92,-162.15"/>
<polygon fill="midnightblue" stroke="midnightblue" points="88.5,-195.33 92,-205.33 95.5,-195.33 88.5,-195.33"/>
</g>
<!-- Node6 -->
<g id="node6" class="node">
<title>Node6</title>
<g id="a_node6"><a xlink:href="struct_r_t_t_i_1_1_base.html" target="_top" xlink:title=" ">
<polygon fill="white" stroke="black" points="58,-262.5 58,-281.5 126,-281.5 126,-262.5 58,-262.5"/>
<text text-anchor="middle" x="92" y="-269.5" font-family="Helvetica,sans-Serif" font-size="10.00">RTTI::Base</text>
</a>
</g>
</g>
<!-- Node6&#45;&gt;Node5 -->
<g id="edge6" class="edge">
<title>Node6&#45;&gt;Node5</title>
<path fill="none" stroke="midnightblue" d="M92,-252.12C92,-242.82 92,-232.06 92,-224.71"/>
<polygon fill="midnightblue" stroke="midnightblue" points="88.5,-252.41 92,-262.41 95.5,-252.41 88.5,-252.41"/>
</g>
<!-- Node7 -->
<g id="node7" class="node">
<title>Node7</title>
<g id="a_node7"><a xlink:href="classordered__map.html" target="_top" xlink:title=" ">
<polygon fill="white" stroke="black" points="142,-137.5 142,-167.5 270,-167.5 270,-137.5 142,-137.5"/>
<text text-anchor="start" x="150" y="-155.5" font-family="Helvetica,sans-Serif" font-size="10.00">ordered_map&lt; cstring,</text>
<text text-anchor="middle" x="206" y="-144.5" font-family="Helvetica,sans-Serif" font-size="10.00"> IJson * &gt;</text>
</a>
</g>
</g>
<!-- Node7&#45;&gt;Node3 -->
<g id="edge7" class="edge">
<title>Node7&#45;&gt;Node3</title>
<path fill="none" stroke="midnightblue" d="M192.93,-128.54C187,-118.12 180.35,-106.43 175.94,-98.68"/>
<polygon fill="midnightblue" stroke="midnightblue" points="189.89,-130.28 197.88,-137.24 195.98,-126.81 189.89,-130.28"/>
</g>
</g>
</svg>
