<?xml version="1.0" encoding="UTF-8" standalone="no"?>
<!DOCTYPE svg PUBLIC "-//W3C//DTD SVG 1.1//EN"
 "http://www.w3.org/Graphics/SVG/1.1/DTD/svg11.dtd">
<!-- Generated by graphviz version 2.43.0 (0)
 -->
<!-- Title: P4V1::Cloner_Model Pages: 1 -->
<svg width="247pt" height="375pt"
 viewBox="0.00 0.00 247.00 375.00" xmlns="http://www.w3.org/2000/svg" xmlns:xlink="http://www.w3.org/1999/xlink">
<g id="graph0" class="graph" transform="scale(1 1) rotate(0) translate(4 371)">
<title>P4V1::Cloner_Model</title>
<polygon fill="white" stroke="transparent" points="-4,4 -4,-371 243,-371 243,4 -4,4"/>
<!-- Node1 -->
<g id="node1" class="node">
<title>Node1</title>
<g id="a_node1"><a xlink:title=" ">
<polygon fill="#bfbfbf" stroke="black" points="13,-0.5 13,-19.5 127,-19.5 127,-0.5 13,-0.5"/>
<text text-anchor="middle" x="70" y="-7.5" font-family="Helvetica,sans-Serif" font-size="10.00">P4V1::Cloner_Model</text>
</a>
</g>
</g>
<!-- Node2 -->
<g id="node2" class="node">
<title>Node2</title>
<g id="a_node2"><a xlink:href="struct_model_1_1_extern___model.html" target="_top" xlink:title="Extern_Model : Type_Model.">
<polygon fill="white" stroke="black" points="15.5,-105.5 15.5,-124.5 134.5,-124.5 134.5,-105.5 15.5,-105.5"/>
<text text-anchor="middle" x="75" y="-112.5" font-family="Helvetica,sans-Serif" font-size="10.00">Model::Extern_Model</text>
</a>
</g>
</g>
<!-- Node2&#45;&gt;Node1 -->
<g id="edge1" class="edge">
<title>Node2&#45;&gt;Node1</title>
<path fill="none" stroke="midnightblue" d="M74.07,-94.94C72.99,-72.53 71.23,-36.31 70.43,-19.76"/>
<polygon fill="midnightblue" stroke="midnightblue" points="70.59,-95.4 74.57,-105.22 77.58,-95.06 70.59,-95.4"/>
</g>
<!-- Node3 -->
<g id="node3" class="node">
<title>Node3</title>
<g id="a_node3"><a xlink:href="struct_model_1_1_type___model.html" target="_top" xlink:title=" ">
<polygon fill="white" stroke="black" points="64,-221.5 64,-240.5 174,-240.5 174,-221.5 64,-221.5"/>
<text text-anchor="middle" x="119" y="-228.5" font-family="Helvetica,sans-Serif" font-size="10.00">Model::Type_Model</text>
</a>
</g>
</g>
<!-- Node3&#45;&gt;Node2 -->
<g id="edge2" class="edge">
<title>Node3&#45;&gt;Node2</title>
<path fill="none" stroke="midnightblue" d="M109.74,-212.1C103.1,-198.79 94.26,-180.07 88,-163 83.22,-149.97 79.23,-134.34 76.98,-124.8"/>
<polygon fill="midnightblue" stroke="midnightblue" points="106.66,-213.76 114.31,-221.1 112.9,-210.59 106.66,-213.76"/>
</g>
<!-- Node7 -->
<g id="node7" class="node">
<title>Node7</title>
<g id="a_node7"><a xlink:href="struct_model_1_1_enum___model.html" target="_top" xlink:title="Enum_Model : Type_Model.">
<polygon fill="white" stroke="black" points="97,-143.5 97,-162.5 213,-162.5 213,-143.5 97,-143.5"/>
<text text-anchor="middle" x="155" y="-150.5" font-family="Helvetica,sans-Serif" font-size="10.00">Model::Enum_Model</text>
</a>
</g>
</g>
<!-- Node3&#45;&gt;Node7 -->
<g id="edge8" class="edge">
<title>Node3&#45;&gt;Node7</title>
<path fill="none" stroke="midnightblue" d="M127.47,-212.12C134.85,-196.53 145.25,-174.59 150.92,-162.62"/>
<polygon fill="midnightblue" stroke="midnightblue" points="124.25,-210.75 123.13,-221.28 130.57,-213.74 124.25,-210.75"/>
</g>
<!-- Node4 -->
<g id="node4" class="node">
<title>Node4</title>
<g id="a_node4"><a xlink:href="struct_model_1_1_elem.html" target="_top" xlink:title=" ">
<polygon fill="white" stroke="black" points="80.5,-278.5 80.5,-297.5 157.5,-297.5 157.5,-278.5 80.5,-278.5"/>
<text text-anchor="middle" x="119" y="-285.5" font-family="Helvetica,sans-Serif" font-size="10.00">Model::Elem</text>
</a>
</g>
</g>
<!-- Node4&#45;&gt;Node1 -->
<g id="edge10" class="edge">
<title>Node4&#45;&gt;Node1</title>
<path fill="none" stroke="#9a32cd" stroke-dasharray="5,2" d="M70.35,-283.41C37.46,-278.01 0,-264.69 0,-232 0,-232 0,-232 0,-76 0,-48.8 28.73,-29.78 49.38,-19.61"/>
<polygon fill="#9a32cd" stroke="#9a32cd" points="69.97,-286.89 80.36,-284.84 70.96,-279.96 69.97,-286.89"/>
<text text-anchor="middle" x="18" y="-150.5" font-family="Helvetica,sans-Serif" font-size="10.00"> clone3</text>
</g>
<!-- Node4&#45;&gt;Node3 -->
<g id="edge3" class="edge">
<title>Node4&#45;&gt;Node3</title>
<path fill="none" stroke="midnightblue" d="M119,-268.12C119,-258.82 119,-248.06 119,-240.71"/>
<polygon fill="midnightblue" stroke="midnightblue" points="115.5,-268.41 119,-278.41 122.5,-268.41 115.5,-268.41"/>
</g>
<!-- Node6 -->
<g id="node6" class="node">
<title>Node6</title>
<g id="a_node6"><a xlink:href="struct_p4_v1_1_1_clone_type___model.html" target="_top" xlink:title=" ">
<polygon fill="white" stroke="black" points="98.5,-67.5 98.5,-86.5 231.5,-86.5 231.5,-67.5 98.5,-67.5"/>
<text text-anchor="middle" x="165" y="-74.5" font-family="Helvetica,sans-Serif" font-size="10.00">P4V1::CloneType_Model</text>
</a>
</g>
</g>
<!-- Node4&#45;&gt;Node6 -->
<g id="edge9" class="edge">
<title>Node4&#45;&gt;Node6</title>
<path fill="none" stroke="#9a32cd" stroke-dasharray="5,2" d="M144,-273.05C156.86,-264.95 172.07,-253.82 183,-241 208.14,-211.5 213.1,-200.72 222,-163 224.04,-154.35 225.13,-151.32 222,-143 212.91,-118.84 190.3,-97.8 176.45,-86.6"/>
<polygon fill="#9a32cd" stroke="#9a32cd" points="141.9,-270.23 135.15,-278.39 145.52,-276.22 141.9,-270.23"/>
<text text-anchor="middle" x="228" y="-195" font-family="Helvetica,sans-Serif" font-size="10.00"> e2e</text>
<text text-anchor="middle" x="228" y="-184" font-family="Helvetica,sans-Serif" font-size="10.00">i2e</text>
</g>
<!-- Node5 -->
<g id="node5" class="node">
<title>Node5</title>
<g id="a_node5"><a xlink:href="classcstring.html" target="_top" xlink:title=" ">
<polygon fill="white" stroke="black" points="94,-346.5 94,-365.5 144,-365.5 144,-346.5 94,-346.5"/>
<text text-anchor="middle" x="119" y="-353.5" font-family="Helvetica,sans-Serif" font-size="10.00">cstring</text>
</a>
</g>
</g>
<!-- Node5&#45;&gt;Node4 -->
<g id="edge4" class="edge">
<title>Node5&#45;&gt;Node4</title>
<path fill="none" stroke="#9a32cd" stroke-dasharray="5,2" d="M119,-336.04C119,-323.47 119,-307.56 119,-297.84"/>
<polygon fill="#9a32cd" stroke="#9a32cd" points="115.5,-336.37 119,-346.37 122.5,-336.37 115.5,-336.37"/>
<text text-anchor="middle" x="134.5" y="-319" font-family="Helvetica,sans-Serif" font-size="10.00"> name</text>
</g>
<!-- Node5&#45;&gt;Node5 -->
<g id="edge5" class="edge">
<title>Node5&#45;&gt;Node5</title>
<path fill="none" stroke="#9a32cd" stroke-dasharray="5,2" d="M154.45,-361.58C159,-360.61 162,-358.75 162,-356 162,-351.48 153.91,-349.37 144.18,-349.65"/>
<polygon fill="#9a32cd" stroke="#9a32cd" points="153.89,-358.11 144.18,-362.35 154.41,-365.1 153.89,-358.11"/>
<text text-anchor="middle" x="181.5" y="-359" font-family="Helvetica,sans-Serif" font-size="10.00"> empty</text>
<text text-anchor="middle" x="181.5" y="-348" font-family="Helvetica,sans-Serif" font-size="10.00">newline</text>
</g>
<!-- Node6&#45;&gt;Node1 -->
<g id="edge6" class="edge">
<title>Node6&#45;&gt;Node1</title>
<path fill="none" stroke="#9a32cd" stroke-dasharray="5,2" d="M143.69,-61.42C124.91,-48.57 98.18,-30.28 82.61,-19.63"/>
<polygon fill="#9a32cd" stroke="#9a32cd" points="141.96,-64.48 152.19,-67.23 145.91,-58.7 141.96,-64.48"/>
<text text-anchor="middle" x="150" y="-41" font-family="Helvetica,sans-Serif" font-size="10.00"> cloneType</text>
</g>
<!-- Node7&#45;&gt;Node6 -->
<g id="edge7" class="edge">
<title>Node7&#45;&gt;Node6</title>
<path fill="none" stroke="midnightblue" d="M157.56,-133.07C159.57,-118.18 162.28,-98.11 163.82,-86.77"/>
<polygon fill="midnightblue" stroke="midnightblue" points="154.06,-132.84 156.19,-143.22 160.99,-133.78 154.06,-132.84"/>
</g>
</g>
</svg>
