<?xml version="1.0" encoding="UTF-8" standalone="no"?>
<!DOCTYPE svg PUBLIC "-//W3C//DTD SVG 1.1//EN"
 "http://www.w3.org/Graphics/SVG/1.1/DTD/svg11.dtd">
<!-- Generated by graphviz version 2.43.0 (0)
 -->
<!-- Title: UT_hash_handle Pages: 1 -->
<svg width="197pt" height="164pt"
 viewBox="0.00 0.00 196.84 164.00" xmlns="http://www.w3.org/2000/svg" xmlns:xlink="http://www.w3.org/1999/xlink">
<g id="graph0" class="graph" transform="scale(1 1) rotate(0) translate(4 160)">
<title>UT_hash_handle</title>
<polygon fill="white" stroke="transparent" points="-4,4 -4,-160 192.84,-160 192.84,4 -4,4"/>
<!-- Node1 -->
<g id="node1" class="node">
<title>Node1</title>
<g id="a_node1"><a xlink:title=" ">
<polygon fill="#bfbfbf" stroke="black" points="30.84,-135.5 30.84,-154.5 127.84,-154.5 127.84,-135.5 30.84,-135.5"/>
<text text-anchor="middle" x="79.34" y="-142.5" font-family="Helvetica,sans-Serif" font-size="10.00">UT_hash_handle</text>
</a>
</g>
</g>
<!-- Node1&#45;&gt;Node1 -->
<g id="edge1" class="edge">
<title>Node1&#45;&gt;Node1</title>
<path fill="none" stroke="#9a32cd" stroke-dasharray="5,2" d="M138.22,-149.86C142.93,-148.8 145.84,-147.18 145.84,-145 145.84,-141.51 138.38,-139.46 128.06,-138.83"/>
<polygon fill="#9a32cd" stroke="#9a32cd" points="137.53,-146.42 128.06,-151.17 138.42,-153.36 137.53,-146.42"/>
<text text-anchor="middle" x="167.34" y="-148" font-family="Helvetica,sans-Serif" font-size="10.00"> hh_next</text>
<text text-anchor="middle" x="167.34" y="-137" font-family="Helvetica,sans-Serif" font-size="10.00">hh_prev</text>
</g>
<!-- Node2 -->
<g id="node2" class="node">
<title>Node2</title>
<g id="a_node2"><a xlink:href="struct_u_t__hash__table.html" target="_top" xlink:title=" ">
<polygon fill="white" stroke="black" points="34.84,-0.5 34.84,-19.5 123.84,-19.5 123.84,-0.5 34.84,-0.5"/>
<text text-anchor="middle" x="79.34" y="-7.5" font-family="Helvetica,sans-Serif" font-size="10.00">UT_hash_table</text>
</a>
</g>
</g>
<!-- Node1&#45;&gt;Node2 -->
<g id="edge5" class="edge">
<title>Node1&#45;&gt;Node2</title>
<path fill="none" stroke="#9a32cd" stroke-dasharray="5,2" d="M49.64,-130.98C22.91,-117.23 -10.22,-93.84 3.34,-67 14.87,-44.18 40.57,-28.38 58.89,-19.51"/>
<polygon fill="#9a32cd" stroke="#9a32cd" points="48.21,-134.18 58.73,-135.44 51.29,-127.9 48.21,-134.18"/>
<text text-anchor="middle" x="12.84" y="-74.5" font-family="Helvetica,sans-Serif" font-size="10.00"> tail</text>
</g>
<!-- Node3 -->
<g id="node3" class="node">
<title>Node3</title>
<g id="a_node3"><a xlink:href="struct_u_t__hash__bucket.html" target="_top" xlink:title=" ">
<polygon fill="white" stroke="black" points="31.34,-67.5 31.34,-86.5 127.34,-86.5 127.34,-67.5 31.34,-67.5"/>
<text text-anchor="middle" x="79.34" y="-74.5" font-family="Helvetica,sans-Serif" font-size="10.00">UT_hash_bucket</text>
</a>
</g>
</g>
<!-- Node1&#45;&gt;Node3 -->
<g id="edge4" class="edge">
<title>Node1&#45;&gt;Node3</title>
<path fill="none" stroke="#9a32cd" stroke-dasharray="5,2" d="M79.34,-125.04C79.34,-112.47 79.34,-96.56 79.34,-86.84"/>
<polygon fill="#9a32cd" stroke="#9a32cd" points="75.84,-125.37 79.34,-135.37 82.84,-125.37 75.84,-125.37"/>
<text text-anchor="middle" x="101.84" y="-108" font-family="Helvetica,sans-Serif" font-size="10.00"> hh_head</text>
</g>
<!-- Node2&#45;&gt;Node1 -->
<g id="edge2" class="edge">
<title>Node2&#45;&gt;Node1</title>
<path fill="none" stroke="#9a32cd" stroke-dasharray="5,2" d="M108.68,-24.87C114.4,-28.54 119.97,-32.93 124.34,-38 133.45,-48.57 133.62,-53.32 136.34,-67 140.64,-88.64 141.88,-98.57 128.34,-116 121.67,-124.59 111.57,-130.99 102.27,-135.49"/>
<polygon fill="#9a32cd" stroke="#9a32cd" points="110.12,-21.66 99.71,-19.68 106.62,-27.72 110.12,-21.66"/>
<text text-anchor="middle" x="146.34" y="-74.5" font-family="Helvetica,sans-Serif" font-size="10.00"> tbl</text>
</g>
<!-- Node3&#45;&gt;Node2 -->
<g id="edge3" class="edge">
<title>Node3&#45;&gt;Node2</title>
<path fill="none" stroke="#9a32cd" stroke-dasharray="5,2" d="M79.34,-57.04C79.34,-44.67 79.34,-29.12 79.34,-19.63"/>
<polygon fill="#9a32cd" stroke="#9a32cd" points="75.84,-57.23 79.34,-67.23 82.84,-57.23 75.84,-57.23"/>
<text text-anchor="middle" x="99.84" y="-41" font-family="Helvetica,sans-Serif" font-size="10.00"> buckets</text>
</g>
</g>
</svg>
