<?xml version="1.0" encoding="UTF-8" standalone="no"?>
<!DOCTYPE svg PUBLIC "-//W3C//DTD SVG 1.1//EN"
 "http://www.w3.org/Graphics/SVG/1.1/DTD/svg11.dtd">
<!-- Generated by graphviz version 2.43.0 (0)
 -->
<!-- Title: P4::SpecializationInfo Pages: 1 -->
<svg width="1369pt" height="214pt"
 viewBox="0.00 0.00 1369.00 214.00" xmlns="http://www.w3.org/2000/svg" xmlns:xlink="http://www.w3.org/1999/xlink">
<g id="graph0" class="graph" transform="scale(1 1) rotate(0) translate(4 210)">
<title>P4::SpecializationInfo</title>
<polygon fill="white" stroke="transparent" points="-4,4 -4,-210 1365,-210 1365,4 -4,4"/>
<!-- Node1 -->
<g id="node1" class="node">
<title>Node1</title>
<g id="a_node1"><a xlink:title="Describes how a parser or control is specialized.">
<polygon fill="#bfbfbf" stroke="black" points="1239,-90.5 1239,-109.5 1361,-109.5 1361,-90.5 1239,-90.5"/>
<text text-anchor="middle" x="1300" y="-97.5" font-family="Helvetica,sans-Serif" font-size="10.00">P4::SpecializationInfo</text>
</a>
</g>
</g>
<!-- Node2 -->
<g id="node2" class="node">
<title>Node2</title>
<g id="a_node2"><a xlink:href="class_i_r_1_1_node.html" target="_top" xlink:title=" ">
<polygon fill="white" stroke="black" points="465,-58.5 465,-77.5 523,-77.5 523,-58.5 465,-58.5"/>
<text text-anchor="middle" x="494" y="-65.5" font-family="Helvetica,sans-Serif" font-size="10.00">IR::Node</text>
</a>
</g>
</g>
<!-- Node2&#45;&gt;Node1 -->
<g id="edge1" class="edge">
<title>Node2&#45;&gt;Node1</title>
<path fill="none" stroke="#9a32cd" stroke-dasharray="5,2" d="M533.1,-61.66C553.6,-58.78 579.37,-56 602.5,-56 602.5,-56 602.5,-56 1084,-56 1152.2,-56 1230.14,-77.51 1270.86,-90.45"/>
<polygon fill="#9a32cd" stroke="#9a32cd" points="532.58,-58.2 523.2,-63.12 533.6,-65.13 532.58,-58.2"/>
<text text-anchor="middle" x="763" y="-70" font-family="Helvetica,sans-Serif" font-size="10.00"> insertBefore</text>
<text text-anchor="middle" x="763" y="-59" font-family="Helvetica,sans-Serif" font-size="10.00">invocation</text>
</g>
<!-- Node12 -->
<g id="node12" class="node">
<title>Node12</title>
<g id="a_node12"><a xlink:href="class_i_r_1_1_vector_base.html" target="_top" xlink:title=" ">
<polygon fill="white" stroke="black" points="560,-121.5 560,-140.5 647,-140.5 647,-121.5 560,-121.5"/>
<text text-anchor="middle" x="603.5" y="-128.5" font-family="Helvetica,sans-Serif" font-size="10.00">IR::VectorBase</text>
</a>
</g>
</g>
<!-- Node2&#45;&gt;Node12 -->
<g id="edge13" class="edge">
<title>Node2&#45;&gt;Node12</title>
<path fill="none" stroke="midnightblue" d="M520.05,-82.68C540.37,-94.59 568.44,-111.04 586.02,-121.34"/>
<polygon fill="midnightblue" stroke="midnightblue" points="521.72,-79.6 511.33,-77.57 518.18,-85.64 521.72,-79.6"/>
</g>
<!-- Node3 -->
<g id="node3" class="node">
<title>Node3</title>
<g id="a_node3"><a xlink:href="class_i_r_1_1_i_node.html" target="_top" xlink:title=" ">
<polygon fill="white" stroke="black" points="315.5,-103.5 315.5,-122.5 376.5,-122.5 376.5,-103.5 315.5,-103.5"/>
<text text-anchor="middle" x="346" y="-110.5" font-family="Helvetica,sans-Serif" font-size="10.00">IR::INode</text>
</a>
</g>
</g>
<!-- Node3&#45;&gt;Node2 -->
<g id="edge2" class="edge">
<title>Node3&#45;&gt;Node2</title>
<path fill="none" stroke="midnightblue" d="M386.39,-100.86C411.22,-93.21 442.69,-83.51 464.98,-76.63"/>
<polygon fill="midnightblue" stroke="midnightblue" points="385.07,-97.6 376.55,-103.89 387.13,-104.29 385.07,-97.6"/>
</g>
<!-- Node4 -->
<g id="node4" class="node">
<title>Node4</title>
<g id="a_node4"><a xlink:href="class_util_1_1_i_has_source_info.html" target="_top" xlink:title=" ">
<polygon fill="white" stroke="black" points="105,-154.5 105,-173.5 218,-173.5 218,-154.5 105,-154.5"/>
<text text-anchor="middle" x="161.5" y="-161.5" font-family="Helvetica,sans-Serif" font-size="10.00">Util::IHasSourceInfo</text>
</a>
</g>
</g>
<!-- Node4&#45;&gt;Node3 -->
<g id="edge3" class="edge">
<title>Node4&#45;&gt;Node3</title>
<path fill="none" stroke="midnightblue" d="M211.37,-151.95C233.07,-146.44 258.89,-139.66 282,-133 293.14,-129.79 305.29,-126 315.93,-122.59"/>
<polygon fill="midnightblue" stroke="midnightblue" points="210.23,-148.63 201.39,-154.47 211.94,-155.42 210.23,-148.63"/>
</g>
<!-- Node5 -->
<g id="node5" class="node">
<title>Node5</title>
<g id="a_node5"><a xlink:href="class_i_has_db_print.html" target="_top" xlink:title=" ">
<polygon fill="white" stroke="black" points="124.5,-116.5 124.5,-135.5 198.5,-135.5 198.5,-116.5 124.5,-116.5"/>
<text text-anchor="middle" x="161.5" y="-123.5" font-family="Helvetica,sans-Serif" font-size="10.00">IHasDbPrint</text>
</a>
</g>
</g>
<!-- Node5&#45;&gt;Node3 -->
<g id="edge4" class="edge">
<title>Node5&#45;&gt;Node3</title>
<path fill="none" stroke="midnightblue" d="M208.58,-122.72C242.08,-120.33 286.44,-117.17 315.35,-115.11"/>
<polygon fill="midnightblue" stroke="midnightblue" points="208.28,-119.23 198.56,-123.43 208.78,-126.21 208.28,-119.23"/>
</g>
<!-- Node6 -->
<g id="node6" class="node">
<title>Node6</title>
<g id="a_node6"><a xlink:href="class_i_castable.html" target="_top" xlink:title=" ">
<polygon fill="white" stroke="black" points="130.5,-78.5 130.5,-97.5 192.5,-97.5 192.5,-78.5 130.5,-78.5"/>
<text text-anchor="middle" x="161.5" y="-85.5" font-family="Helvetica,sans-Serif" font-size="10.00">ICastable</text>
</a>
</g>
</g>
<!-- Node6&#45;&gt;Node3 -->
<g id="edge5" class="edge">
<title>Node6&#45;&gt;Node3</title>
<path fill="none" stroke="midnightblue" d="M202.72,-93.51C236.78,-98.17 284.81,-104.75 315.42,-108.95"/>
<polygon fill="midnightblue" stroke="midnightblue" points="203.02,-90.02 192.64,-92.13 202.07,-96.95 203.02,-90.02"/>
</g>
<!-- Node7 -->
<g id="node7" class="node">
<title>Node7</title>
<g id="a_node7"><a xlink:href="struct_r_t_t_i_1_1_base.html" target="_top" xlink:title=" ">
<polygon fill="white" stroke="black" points="0,-78.5 0,-97.5 68,-97.5 68,-78.5 0,-78.5"/>
<text text-anchor="middle" x="34" y="-85.5" font-family="Helvetica,sans-Serif" font-size="10.00">RTTI::Base</text>
</a>
</g>
</g>
<!-- Node7&#45;&gt;Node6 -->
<g id="edge6" class="edge">
<title>Node7&#45;&gt;Node6</title>
<path fill="none" stroke="midnightblue" d="M78.64,-88C95.75,-88 114.97,-88 130.48,-88"/>
<polygon fill="midnightblue" stroke="midnightblue" points="78.3,-84.5 68.3,-88 78.3,-91.5 78.3,-84.5"/>
</g>
<!-- Node8 -->
<g id="node8" class="node">
<title>Node8</title>
<g id="a_node8"><a xlink:href="class_util_1_1_source_info.html" target="_top" xlink:title=" ">
<polygon fill="white" stroke="black" points="300,-40.5 300,-59.5 392,-59.5 392,-40.5 300,-40.5"/>
<text text-anchor="middle" x="346" y="-47.5" font-family="Helvetica,sans-Serif" font-size="10.00">Util::SourceInfo</text>
</a>
</g>
</g>
<!-- Node8&#45;&gt;Node2 -->
<g id="edge7" class="edge">
<title>Node8&#45;&gt;Node2</title>
<path fill="none" stroke="#9a32cd" stroke-dasharray="5,2" d="M402.59,-56.85C423.76,-59.46 447.01,-62.33 464.63,-64.5"/>
<polygon fill="#9a32cd" stroke="#9a32cd" points="402.75,-53.35 392.39,-55.6 401.89,-60.29 402.75,-53.35"/>
<text text-anchor="middle" x="428.5" y="-65" font-family="Helvetica,sans-Serif" font-size="10.00"> srcInfo</text>
</g>
<!-- Node9 -->
<g id="node9" class="node">
<title>Node9</title>
<g id="a_node9"><a xlink:href="classcstring.html" target="_top" xlink:title=" ">
<polygon fill="white" stroke="black" points="136.5,-0.5 136.5,-19.5 186.5,-19.5 186.5,-0.5 136.5,-0.5"/>
<text text-anchor="middle" x="161.5" y="-7.5" font-family="Helvetica,sans-Serif" font-size="10.00">cstring</text>
</a>
</g>
</g>
<!-- Node9&#45;&gt;Node1 -->
<g id="edge14" class="edge">
<title>Node9&#45;&gt;Node1</title>
<path fill="none" stroke="#9a32cd" stroke-dasharray="5,2" d="M196.86,-10C233.55,-10 293.38,-10 345,-10 345,-10 345,-10 1084,-10 1166.55,-10 1254.06,-67.15 1286.21,-90.37"/>
<polygon fill="#9a32cd" stroke="#9a32cd" points="196.71,-6.5 186.71,-10 196.71,-13.5 196.71,-6.5"/>
<text text-anchor="middle" x="603.5" y="-13" font-family="Helvetica,sans-Serif" font-size="10.00"> name</text>
</g>
<!-- Node9&#45;&gt;Node8 -->
<g id="edge8" class="edge">
<title>Node9&#45;&gt;Node8</title>
<path fill="none" stroke="#9a32cd" stroke-dasharray="5,2" d="M196.61,-17.48C226.22,-23.97 269.27,-33.4 301.39,-40.44"/>
<polygon fill="#9a32cd" stroke="#9a32cd" points="197.25,-14.03 186.73,-15.31 195.75,-20.87 197.25,-14.03"/>
<text text-anchor="middle" x="259" y="-50" font-family="Helvetica,sans-Serif" font-size="10.00"> filename</text>
<text text-anchor="middle" x="259" y="-39" font-family="Helvetica,sans-Serif" font-size="10.00">srcBrief</text>
</g>
<!-- Node9&#45;&gt;Node9 -->
<g id="edge9" class="edge">
<title>Node9&#45;&gt;Node9</title>
<path fill="none" stroke="#9a32cd" stroke-dasharray="5,2" d="M147.87,-29.77C148.94,-34.5 153.49,-38 161.5,-38 174.65,-38 178.45,-28.57 172.91,-19.76"/>
<polygon fill="#9a32cd" stroke="#9a32cd" points="151.34,-30.28 150.09,-19.76 144.51,-28.76 151.34,-30.28"/>
<text text-anchor="middle" x="161.5" y="-52" font-family="Helvetica,sans-Serif" font-size="10.00"> empty</text>
<text text-anchor="middle" x="161.5" y="-41" font-family="Helvetica,sans-Serif" font-size="10.00">newline</text>
</g>
<!-- Node10 -->
<g id="node10" class="node">
<title>Node10</title>
<g id="a_node10"><a xlink:href="class_i_r_1_1_indexed_vector.html" target="_top" xlink:title=" ">
<polygon fill="white" stroke="black" points="1028,-85 1028,-115 1138,-115 1138,-85 1028,-85"/>
<text text-anchor="start" x="1036" y="-103" font-family="Helvetica,sans-Serif" font-size="10.00">IR::IndexedVector&lt;</text>
<text text-anchor="middle" x="1083" y="-92" font-family="Helvetica,sans-Serif" font-size="10.00"> IR::Declaration &gt;</text>
</a>
</g>
</g>
<!-- Node10&#45;&gt;Node1 -->
<g id="edge10" class="edge">
<title>Node10&#45;&gt;Node1</title>
<path fill="none" stroke="#9a32cd" stroke-dasharray="5,2" d="M1148.55,-100C1177.15,-100 1210.61,-100 1238.7,-100"/>
<polygon fill="#9a32cd" stroke="#9a32cd" points="1148.25,-96.5 1138.25,-100 1148.25,-103.5 1148.25,-96.5"/>
<text text-anchor="middle" x="1189" y="-103" font-family="Helvetica,sans-Serif" font-size="10.00"> declarations</text>
</g>
<!-- Node11 -->
<g id="node11" class="node">
<title>Node11</title>
<g id="a_node11"><a xlink:href="class_i_r_1_1_vector.html" target="_top" xlink:title=" ">
<polygon fill="white" stroke="black" points="684,-100.5 684,-119.5 842,-119.5 842,-100.5 684,-100.5"/>
<text text-anchor="middle" x="763" y="-107.5" font-family="Helvetica,sans-Serif" font-size="10.00">IR::Vector&lt; IR::Declaration &gt;</text>
</a>
</g>
</g>
<!-- Node11&#45;&gt;Node10 -->
<g id="edge11" class="edge">
<title>Node11&#45;&gt;Node10</title>
<path fill="none" stroke="midnightblue" d="M852.51,-107.22C908.67,-105.45 979.55,-103.22 1027.57,-101.71"/>
<polygon fill="midnightblue" stroke="midnightblue" points="852.08,-103.73 842.2,-107.54 852.3,-110.72 852.08,-103.73"/>
</g>
<!-- Node12&#45;&gt;Node11 -->
<g id="edge12" class="edge">
<title>Node12&#45;&gt;Node11</title>
<path fill="none" stroke="midnightblue" d="M657.13,-123.98C667.84,-122.55 679.28,-121.03 690.51,-119.53"/>
<polygon fill="midnightblue" stroke="midnightblue" points="656.57,-120.53 647.12,-125.32 657.5,-127.46 656.57,-120.53"/>
</g>
<!-- Node13 -->
<g id="node13" class="node">
<title>Node13</title>
<g id="a_node13"><a xlink:href="class_i_r_1_1_vector.html" target="_top" xlink:title=" ">
<polygon fill="white" stroke="black" points="860,-186.5 860,-205.5 1009,-205.5 1009,-186.5 860,-186.5"/>
<text text-anchor="middle" x="934.5" y="-193.5" font-family="Helvetica,sans-Serif" font-size="10.00">IR::Vector&lt; IR::Argument &gt;</text>
</a>
</g>
</g>
<!-- Node12&#45;&gt;Node13 -->
<g id="edge16" class="edge">
<title>Node12&#45;&gt;Node13</title>
<path fill="none" stroke="midnightblue" d="M643.96,-143.69C650.95,-145.85 658.18,-148.03 665,-150 729.64,-168.64 805.35,-180.77 859.86,-187.87"/>
<polygon fill="midnightblue" stroke="midnightblue" points="644.55,-140.2 633.96,-140.56 642.46,-146.88 644.55,-140.2"/>
</g>
<!-- Node14 -->
<g id="node14" class="node">
<title>Node14</title>
<g id="a_node14"><a xlink:href="class_i_r_1_1_vector.html" target="_top" xlink:title=" ">
<polygon fill="white" stroke="black" points="872.5,-141.5 872.5,-160.5 996.5,-160.5 996.5,-141.5 872.5,-141.5"/>
<text text-anchor="middle" x="934.5" y="-148.5" font-family="Helvetica,sans-Serif" font-size="10.00">IR::Vector&lt; IR::Type &gt;</text>
</a>
</g>
</g>
<!-- Node12&#45;&gt;Node14 -->
<g id="edge18" class="edge">
<title>Node12&#45;&gt;Node14</title>
<path fill="none" stroke="midnightblue" d="M657.27,-135.44C659.88,-135.64 662.47,-135.82 665,-136 736.14,-140.93 817.98,-145.31 872.42,-148.05"/>
<polygon fill="midnightblue" stroke="midnightblue" points="657.37,-131.94 647.13,-134.67 656.83,-138.92 657.37,-131.94"/>
</g>
<!-- Node13&#45;&gt;Node1 -->
<g id="edge15" class="edge">
<title>Node13&#45;&gt;Node1</title>
<path fill="none" stroke="#9a32cd" stroke-dasharray="5,2" d="M1007.77,-184.75C1066.24,-174.54 1150.21,-157.34 1221,-133 1240.88,-126.16 1262.89,-116.67 1278.45,-109.62"/>
<polygon fill="#9a32cd" stroke="#9a32cd" points="1007.14,-181.31 997.88,-186.46 1008.33,-188.21 1007.14,-181.31"/>
<text text-anchor="middle" x="1083" y="-184" font-family="Helvetica,sans-Serif" font-size="10.00"> constructorArguments</text>
</g>
<!-- Node14&#45;&gt;Node1 -->
<g id="edge17" class="edge">
<title>Node14&#45;&gt;Node1</title>
<path fill="none" stroke="#9a32cd" stroke-dasharray="5,2" d="M1006.78,-143.3C1064.65,-136.75 1148.28,-126.57 1221,-115 1231.08,-113.4 1241.85,-111.47 1252.07,-109.53"/>
<polygon fill="#9a32cd" stroke="#9a32cd" points="1006.19,-139.85 996.65,-144.45 1006.97,-146.81 1006.19,-139.85"/>
<text text-anchor="middle" x="1083" y="-143" font-family="Helvetica,sans-Serif" font-size="10.00"> typeArguments</text>
</g>
</g>
</svg>
