<?xml version="1.0" encoding="UTF-8" standalone="no"?>
<!DOCTYPE svg PUBLIC "-//W3C//DTD SVG 1.1//EN"
 "http://www.w3.org/Graphics/SVG/1.1/DTD/svg11.dtd">
<!-- Generated by graphviz version 2.43.0 (0)
 -->
<!-- Title: P4::BFRT::BFRuntimeGenerator::Register Pages: 1 -->
<svg width="400pt" height="309pt"
 viewBox="0.00 0.00 400.00 309.00" xmlns="http://www.w3.org/2000/svg" xmlns:xlink="http://www.w3.org/1999/xlink">
<g id="graph0" class="graph" transform="scale(1 1) rotate(0) translate(4 305)">
<title>P4::BFRT::BFRuntimeGenerator::Register</title>
<polygon fill="white" stroke="transparent" points="-4,4 -4,-305 396,-305 396,4 -4,4"/>
<!-- Node1 -->
<g id="node1" class="node">
<title>Node1</title>
<g id="a_node1"><a xlink:title="Common register representation between PSA and other architectures.">
<polygon fill="#bfbfbf" stroke="black" points="158.5,-0.5 158.5,-30.5 325.5,-30.5 325.5,-0.5 158.5,-0.5"/>
<text text-anchor="start" x="166.5" y="-18.5" font-family="Helvetica,sans-Serif" font-size="10.00">P4::BFRT::BFRuntimeGenerator</text>
<text text-anchor="middle" x="242" y="-7.5" font-family="Helvetica,sans-Serif" font-size="10.00">::Register</text>
</a>
</g>
</g>
<!-- Node2 -->
<g id="node2" class="node">
<title>Node2</title>
<g id="a_node2"><a xlink:href="class_util_1_1_json_array.html" target="_top" xlink:title=" ">
<polygon fill="white" stroke="black" points="89,-89.5 89,-108.5 175,-108.5 175,-89.5 89,-89.5"/>
<text text-anchor="middle" x="132" y="-96.5" font-family="Helvetica,sans-Serif" font-size="10.00">Util::JsonArray</text>
</a>
</g>
</g>
<!-- Node2&#45;&gt;Node1 -->
<g id="edge1" class="edge">
<title>Node2&#45;&gt;Node1</title>
<path fill="none" stroke="#9a32cd" stroke-dasharray="5,2" d="M144.68,-81.34C153.06,-71.12 164.73,-58.25 177,-49 186.37,-41.94 197.51,-35.72 207.9,-30.66"/>
<polygon fill="#9a32cd" stroke="#9a32cd" points="141.69,-79.48 138.23,-89.5 147.18,-83.83 141.69,-79.48"/>
<text text-anchor="middle" x="207.5" y="-57.5" font-family="Helvetica,sans-Serif" font-size="10.00"> annotations</text>
</g>
<!-- Node3 -->
<g id="node3" class="node">
<title>Node3</title>
<g id="a_node3"><a xlink:href="class_util_1_1_i_json.html" target="_top" xlink:title=" ">
<polygon fill="white" stroke="black" points="2.5,-152 2.5,-171 65.5,-171 65.5,-152 2.5,-152"/>
<text text-anchor="middle" x="34" y="-159" font-family="Helvetica,sans-Serif" font-size="10.00">Util::IJson</text>
</a>
</g>
</g>
<!-- Node3&#45;&gt;Node2 -->
<g id="edge2" class="edge">
<title>Node3&#45;&gt;Node2</title>
<path fill="none" stroke="midnightblue" d="M56.66,-146.51C75.59,-134.83 101.99,-118.53 117.99,-108.65"/>
<polygon fill="midnightblue" stroke="midnightblue" points="54.71,-143.6 48.04,-151.83 58.39,-149.56 54.71,-143.6"/>
</g>
<!-- Node4 -->
<g id="node4" class="node">
<title>Node4</title>
<g id="a_node4"><a xlink:href="class_i_castable.html" target="_top" xlink:title=" ">
<polygon fill="white" stroke="black" points="3,-224.5 3,-243.5 65,-243.5 65,-224.5 3,-224.5"/>
<text text-anchor="middle" x="34" y="-231.5" font-family="Helvetica,sans-Serif" font-size="10.00">ICastable</text>
</a>
</g>
</g>
<!-- Node4&#45;&gt;Node3 -->
<g id="edge3" class="edge">
<title>Node4&#45;&gt;Node3</title>
<path fill="none" stroke="midnightblue" d="M34,-213.94C34,-200.03 34,-181.82 34,-171.22"/>
<polygon fill="midnightblue" stroke="midnightblue" points="30.5,-214.36 34,-224.36 37.5,-214.36 30.5,-214.36"/>
</g>
<!-- Node5 -->
<g id="node5" class="node">
<title>Node5</title>
<g id="a_node5"><a xlink:href="struct_r_t_t_i_1_1_base.html" target="_top" xlink:title=" ">
<polygon fill="white" stroke="black" points="0,-281.5 0,-300.5 68,-300.5 68,-281.5 0,-281.5"/>
<text text-anchor="middle" x="34" y="-288.5" font-family="Helvetica,sans-Serif" font-size="10.00">RTTI::Base</text>
</a>
</g>
</g>
<!-- Node5&#45;&gt;Node4 -->
<g id="edge4" class="edge">
<title>Node5&#45;&gt;Node4</title>
<path fill="none" stroke="midnightblue" d="M34,-271.12C34,-261.82 34,-251.06 34,-243.71"/>
<polygon fill="midnightblue" stroke="midnightblue" points="30.5,-271.41 34,-281.41 37.5,-271.41 30.5,-271.41"/>
</g>
<!-- Node6 -->
<g id="node6" class="node">
<title>Node6</title>
<g id="a_node6"><a xlink:title=" ">
<polygon fill="white" stroke="#bfbfbf" points="83.5,-152 83.5,-171 180.5,-171 180.5,-152 83.5,-152"/>
<text text-anchor="middle" x="132" y="-159" font-family="Helvetica,sans-Serif" font-size="10.00">std::vector&lt; T &gt;</text>
</a>
</g>
</g>
<!-- Node6&#45;&gt;Node2 -->
<g id="edge5" class="edge">
<title>Node6&#45;&gt;Node2</title>
<path fill="none" stroke="midnightblue" d="M132,-141.5C132,-130.5 132,-117.18 132,-108.65"/>
<polygon fill="midnightblue" stroke="midnightblue" points="128.5,-141.83 132,-151.83 135.5,-141.83 128.5,-141.83"/>
</g>
<!-- Node7 -->
<g id="node7" class="node">
<title>Node7</title>
<g id="a_node7"><a xlink:title=" ">
<polygon fill="white" stroke="#bfbfbf" points="117.5,-224.5 117.5,-243.5 146.5,-243.5 146.5,-224.5 117.5,-224.5"/>
<text text-anchor="middle" x="132" y="-231.5" font-family="Helvetica,sans-Serif" font-size="10.00">T</text>
</a>
</g>
</g>
<!-- Node7&#45;&gt;Node6 -->
<g id="edge6" class="edge">
<title>Node7&#45;&gt;Node6</title>
<path fill="none" stroke="#9a32cd" stroke-dasharray="5,2" d="M132,-213.94C132,-200.03 132,-181.82 132,-171.22"/>
<polygon fill="#9a32cd" stroke="#9a32cd" points="128.5,-214.36 132,-224.36 135.5,-214.36 128.5,-214.36"/>
<text text-anchor="middle" x="156.5" y="-198" font-family="Helvetica,sans-Serif" font-size="10.00"> elements</text>
</g>
<!-- Node8 -->
<g id="node8" class="node">
<title>Node8</title>
<g id="a_node8"><a xlink:title=" ">
<polygon fill="white" stroke="#bfbfbf" points="210.5,-89.5 210.5,-108.5 275.5,-108.5 275.5,-89.5 210.5,-89.5"/>
<text text-anchor="middle" x="243" y="-96.5" font-family="Helvetica,sans-Serif" font-size="10.00">std::string</text>
</a>
</g>
</g>
<!-- Node8&#45;&gt;Node1 -->
<g id="edge7" class="edge">
<title>Node8&#45;&gt;Node1</title>
<path fill="none" stroke="#9a32cd" stroke-dasharray="5,2" d="M242.77,-79.23C242.59,-64.41 242.34,-44.05 242.17,-30.6"/>
<polygon fill="#9a32cd" stroke="#9a32cd" points="239.27,-79.32 242.89,-89.28 246.27,-79.24 239.27,-79.32"/>
<text text-anchor="middle" x="281" y="-63" font-family="Helvetica,sans-Serif" font-size="10.00"> dataFieldName</text>
<text text-anchor="middle" x="281" y="-52" font-family="Helvetica,sans-Serif" font-size="10.00">name</text>
</g>
<!-- Node9 -->
<g id="node9" class="node">
<title>Node9</title>
<g id="a_node9"><a xlink:title=" ">
<polygon fill="white" stroke="#bfbfbf" points="199,-146.5 199,-176.5 303,-176.5 303,-146.5 199,-146.5"/>
<text text-anchor="start" x="207" y="-164.5" font-family="Helvetica,sans-Serif" font-size="10.00">std::basic_string&lt;</text>
<text text-anchor="middle" x="251" y="-153.5" font-family="Helvetica,sans-Serif" font-size="10.00"> Char &gt;</text>
</a>
</g>
</g>
<!-- Node9&#45;&gt;Node8 -->
<g id="edge8" class="edge">
<title>Node9&#45;&gt;Node8</title>
<path fill="none" stroke="midnightblue" d="M247.81,-136.35C246.51,-126.51 245.09,-115.78 244.13,-108.54"/>
<polygon fill="midnightblue" stroke="midnightblue" points="244.36,-137.01 249.14,-146.47 251.3,-136.1 244.36,-137.01"/>
</g>
<!-- Node10 -->
<g id="node10" class="node">
<title>Node10</title>
<g id="a_node10"><a xlink:title=" ">
<polygon fill="white" stroke="#bfbfbf" points="294,-89.5 294,-108.5 392,-108.5 392,-89.5 294,-89.5"/>
<text text-anchor="middle" x="343" y="-96.5" font-family="Helvetica,sans-Serif" font-size="10.00">P4DataTypeSpec</text>
</a>
</g>
</g>
<!-- Node10&#45;&gt;Node1 -->
<g id="edge9" class="edge">
<title>Node10&#45;&gt;Node1</title>
<path fill="none" stroke="#9a32cd" stroke-dasharray="5,2" d="M338.3,-79.33C334.93,-69.23 329.46,-57.2 321,-49 313.01,-41.26 302.92,-35.27 292.65,-30.66"/>
<polygon fill="#9a32cd" stroke="#9a32cd" points="335.02,-80.61 341.17,-89.24 341.75,-78.66 335.02,-80.61"/>
<text text-anchor="middle" x="359.5" y="-57.5" font-family="Helvetica,sans-Serif" font-size="10.00"> typeSpec</text>
</g>
</g>
</svg>
