<?xml version="1.0" encoding="UTF-8" standalone="no"?>
<!DOCTYPE svg PUBLIC "-//W3C//DTD SVG 1.1//EN"
 "http://www.w3.org/Graphics/SVG/1.1/DTD/svg11.dtd">
<!-- Generated by graphviz version 2.43.0 (0)
 -->
<!-- Title: DPDK::TableAttributes Pages: 1 -->
<svg width="255pt" height="139pt"
 viewBox="0.00 0.00 255.00 139.00" xmlns="http://www.w3.org/2000/svg" xmlns:xlink="http://www.w3.org/1999/xlink">
<g id="graph0" class="graph" transform="scale(1 1) rotate(0) translate(4 135)">
<title>DPDK::TableAttributes</title>
<polygon fill="white" stroke="transparent" points="-4,4 -4,-135 251,-135 251,4 -4,4"/>
<!-- Node1 -->
<g id="node1" class="node">
<title>Node1</title>
<g id="a_node1"><a xlink:title=" ">
<polygon fill="#bfbfbf" stroke="black" points="43,-0.5 43,-19.5 167,-19.5 167,-0.5 43,-0.5"/>
<text text-anchor="middle" x="105" y="-7.5" font-family="Helvetica,sans-Serif" font-size="10.00">DPDK::TableAttributes</text>
</a>
</g>
</g>
<!-- Node2 -->
<g id="node2" class="node">
<title>Node2</title>
<g id="a_node2"><a xlink:title=" ">
<polygon fill="white" stroke="#bfbfbf" points="0,-100.5 0,-130.5 122,-130.5 122,-100.5 0,-100.5"/>
<text text-anchor="start" x="8" y="-118.5" font-family="Helvetica,sans-Serif" font-size="10.00">std::vector&lt; std::pair</text>
<text text-anchor="middle" x="61" y="-107.5" font-family="Helvetica,sans-Serif" font-size="10.00">&lt; cstring, cstring &gt; &gt;</text>
</a>
</g>
</g>
<!-- Node2&#45;&gt;Node1 -->
<g id="edge1" class="edge">
<title>Node2&#45;&gt;Node1</title>
<path fill="none" stroke="#9a32cd" stroke-dasharray="5,2" d="M61.91,-90.33C63.4,-74.58 67.08,-54.05 76,-38 80.01,-30.79 86.63,-24.4 92.54,-19.66"/>
<polygon fill="#9a32cd" stroke="#9a32cd" points="58.42,-90.13 61.2,-100.35 65.4,-90.63 58.42,-90.13"/>
<text text-anchor="middle" x="102" y="-57.5" font-family="Helvetica,sans-Serif" font-size="10.00"> tableKeys</text>
</g>
<!-- Node3 -->
<g id="node3" class="node">
<title>Node3</title>
<g id="a_node3"><a xlink:href="classcstring.html" target="_top" xlink:title=" ">
<polygon fill="white" stroke="black" points="140,-106 140,-125 190,-125 190,-106 140,-106"/>
<text text-anchor="middle" x="165" y="-113" font-family="Helvetica,sans-Serif" font-size="10.00">cstring</text>
</a>
</g>
</g>
<!-- Node3&#45;&gt;Node1 -->
<g id="edge2" class="edge">
<title>Node3&#45;&gt;Node1</title>
<path fill="none" stroke="#9a32cd" stroke-dasharray="5,2" d="M157.78,-96.36C151.08,-80.41 140.3,-56.85 128,-38 123.69,-31.4 117.94,-24.65 113.27,-19.55"/>
<polygon fill="#9a32cd" stroke="#9a32cd" points="154.55,-97.7 161.58,-105.62 161.03,-95.04 154.55,-97.7"/>
<text text-anchor="middle" x="185" y="-74" font-family="Helvetica,sans-Serif" font-size="10.00"> controlName</text>
<text text-anchor="middle" x="185" y="-63" font-family="Helvetica,sans-Serif" font-size="10.00">direction</text>
<text text-anchor="middle" x="185" y="-52" font-family="Helvetica,sans-Serif" font-size="10.00">externalName</text>
<text text-anchor="middle" x="185" y="-41" font-family="Helvetica,sans-Serif" font-size="10.00">tableType</text>
</g>
<!-- Node3&#45;&gt;Node3 -->
<g id="edge3" class="edge">
<title>Node3&#45;&gt;Node3</title>
<path fill="none" stroke="#9a32cd" stroke-dasharray="5,2" d="M195.8,-125.39C202.84,-124.53 208,-121.23 208,-115.5 208,-107.17 197.08,-103.98 185.35,-105.93"/>
<polygon fill="#9a32cd" stroke="#9a32cd" points="195.45,-121.88 185.35,-125.07 195.24,-128.88 195.45,-121.88"/>
<text text-anchor="middle" x="227.5" y="-118.5" font-family="Helvetica,sans-Serif" font-size="10.00"> empty</text>
<text text-anchor="middle" x="227.5" y="-107.5" font-family="Helvetica,sans-Serif" font-size="10.00">newline</text>
</g>
</g>
</svg>
