<?xml version="1.0" encoding="UTF-8" standalone="no"?>
<!DOCTYPE svg PUBLIC "-//W3C//DTD SVG 1.1//EN"
 "http://www.w3.org/Graphics/SVG/1.1/DTD/svg11.dtd">
<!-- Generated by graphviz version 2.43.0 (0)
 -->
<!-- Title: UT_hash_bucket Pages: 1 -->
<svg width="201pt" height="164pt"
 viewBox="0.00 0.00 201.00 164.00" xmlns="http://www.w3.org/2000/svg" xmlns:xlink="http://www.w3.org/1999/xlink">
<g id="graph0" class="graph" transform="scale(1 1) rotate(0) translate(4 160)">
<title>UT_hash_bucket</title>
<polygon fill="white" stroke="transparent" points="-4,4 -4,-160 197,-160 197,4 -4,4"/>
<!-- Node1 -->
<g id="node1" class="node">
<title>Node1</title>
<g id="a_node1"><a xlink:title=" ">
<polygon fill="#bfbfbf" stroke="black" points="37.5,-136.5 37.5,-155.5 133.5,-155.5 133.5,-136.5 37.5,-136.5"/>
<text text-anchor="middle" x="85.5" y="-143.5" font-family="Helvetica,sans-Serif" font-size="10.00">UT_hash_bucket</text>
</a>
</g>
</g>
<!-- Node3 -->
<g id="node3" class="node">
<title>Node3</title>
<g id="a_node3"><a xlink:href="struct_u_t__hash__table.html" target="_top" xlink:title=" ">
<polygon fill="white" stroke="black" points="0,-69.5 0,-88.5 89,-88.5 89,-69.5 0,-69.5"/>
<text text-anchor="middle" x="44.5" y="-76.5" font-family="Helvetica,sans-Serif" font-size="10.00">UT_hash_table</text>
</a>
</g>
</g>
<!-- Node1&#45;&gt;Node3 -->
<g id="edge4" class="edge">
<title>Node1&#45;&gt;Node3</title>
<path fill="none" stroke="#9a32cd" stroke-dasharray="5,2" d="M74.48,-127.53C66.55,-114.95 56.17,-98.51 49.94,-88.63"/>
<polygon fill="#9a32cd" stroke="#9a32cd" points="71.68,-129.64 79.97,-136.23 77.6,-125.91 71.68,-129.64"/>
<text text-anchor="middle" x="88" y="-110" font-family="Helvetica,sans-Serif" font-size="10.00"> buckets</text>
</g>
<!-- Node2 -->
<g id="node2" class="node">
<title>Node2</title>
<g id="a_node2"><a xlink:href="struct_u_t__hash__handle.html" target="_top" xlink:title=" ">
<polygon fill="white" stroke="black" points="35,-1.5 35,-20.5 132,-20.5 132,-1.5 35,-1.5"/>
<text text-anchor="middle" x="83.5" y="-8.5" font-family="Helvetica,sans-Serif" font-size="10.00">UT_hash_handle</text>
</a>
</g>
</g>
<!-- Node2&#45;&gt;Node1 -->
<g id="edge1" class="edge">
<title>Node2&#45;&gt;Node1</title>
<path fill="none" stroke="#9a32cd" stroke-dasharray="5,2" d="M94.77,-29.38C107.12,-50.73 123.66,-87.84 111.5,-118 108.58,-125.24 102.68,-131.63 97.24,-136.37"/>
<polygon fill="#9a32cd" stroke="#9a32cd" points="97.71,-27.47 89.51,-20.75 91.73,-31.11 97.71,-27.47"/>
<text text-anchor="middle" x="138" y="-76.5" font-family="Helvetica,sans-Serif" font-size="10.00"> hh_head</text>
</g>
<!-- Node2&#45;&gt;Node2 -->
<g id="edge2" class="edge">
<title>Node2&#45;&gt;Node2</title>
<path fill="none" stroke="#9a32cd" stroke-dasharray="5,2" d="M142.38,-15.86C147.09,-14.8 150,-13.18 150,-11 150,-7.51 142.54,-5.46 132.21,-4.83"/>
<polygon fill="#9a32cd" stroke="#9a32cd" points="141.69,-12.42 132.21,-17.17 142.58,-19.36 141.69,-12.42"/>
<text text-anchor="middle" x="171.5" y="-14" font-family="Helvetica,sans-Serif" font-size="10.00"> hh_next</text>
<text text-anchor="middle" x="171.5" y="-3" font-family="Helvetica,sans-Serif" font-size="10.00">hh_prev</text>
</g>
<!-- Node2&#45;&gt;Node3 -->
<g id="edge5" class="edge">
<title>Node2&#45;&gt;Node3</title>
<path fill="none" stroke="#9a32cd" stroke-dasharray="5,2" d="M73.76,-29.68C70,-36.4 65.62,-44.09 61.5,-51 57.87,-57.09 53.62,-63.84 50.28,-69.07"/>
<polygon fill="#9a32cd" stroke="#9a32cd" points="76.93,-31.19 78.73,-20.74 70.81,-27.79 76.93,-31.19"/>
<text text-anchor="middle" x="78" y="-43" font-family="Helvetica,sans-Serif" font-size="10.00"> tail</text>
</g>
<!-- Node3&#45;&gt;Node2 -->
<g id="edge3" class="edge">
<title>Node3&#45;&gt;Node2</title>
<path fill="none" stroke="#9a32cd" stroke-dasharray="5,2" d="M41.75,-58.9C41.67,-52.58 42.52,-45.7 45.5,-40 49.82,-31.72 57.83,-25.26 65.39,-20.64"/>
<polygon fill="#9a32cd" stroke="#9a32cd" points="38.3,-59.65 42.66,-69.31 45.28,-59.05 38.3,-59.65"/>
<text text-anchor="middle" x="53.5" y="-43" font-family="Helvetica,sans-Serif" font-size="10.00"> tbl</text>
</g>
</g>
</svg>
