<?xml version="1.0" encoding="UTF-8" standalone="no"?>
<!DOCTYPE svg PUBLIC "-//W3C//DTD SVG 1.1//EN"
 "http://www.w3.org/Graphics/SVG/1.1/DTD/svg11.dtd">
<!-- Generated by graphviz version 2.43.0 (0)
 -->
<!-- Title: P4::BFRT::BFRuntimeGenerator::ActionProf Pages: 1 -->
<svg width="413pt" height="308pt"
 viewBox="0.00 0.00 413.00 308.00" xmlns="http://www.w3.org/2000/svg" xmlns:xlink="http://www.w3.org/1999/xlink">
<g id="graph0" class="graph" transform="scale(1 1) rotate(0) translate(4 304)">
<title>P4::BFRT::BFRuntimeGenerator::ActionProf</title>
<polygon fill="white" stroke="transparent" points="-4,4 -4,-304 409,-304 409,4 -4,4"/>
<!-- Node1 -->
<g id="node1" class="node">
<title>Node1</title>
<g id="a_node1"><a xlink:title=" ">
<polygon fill="#bfbfbf" stroke="black" points="158.5,-0.5 158.5,-30.5 325.5,-30.5 325.5,-0.5 158.5,-0.5"/>
<text text-anchor="start" x="166.5" y="-18.5" font-family="Helvetica,sans-Serif" font-size="10.00">P4::BFRT::BFRuntimeGenerator</text>
<text text-anchor="middle" x="242" y="-7.5" font-family="Helvetica,sans-Serif" font-size="10.00">::ActionProf</text>
</a>
</g>
</g>
<!-- Node2 -->
<g id="node2" class="node">
<title>Node2</title>
<g id="a_node2"><a xlink:href="class_util_1_1_json_array.html" target="_top" xlink:title=" ">
<polygon fill="white" stroke="black" points="89,-78.5 89,-97.5 175,-97.5 175,-78.5 89,-78.5"/>
<text text-anchor="middle" x="132" y="-85.5" font-family="Helvetica,sans-Serif" font-size="10.00">Util::JsonArray</text>
</a>
</g>
</g>
<!-- Node2&#45;&gt;Node1 -->
<g id="edge1" class="edge">
<title>Node2&#45;&gt;Node1</title>
<path fill="none" stroke="#9a32cd" stroke-dasharray="5,2" d="M148.24,-71.66C156.49,-64.3 166.88,-55.67 177,-49 187.33,-42.2 199.27,-35.84 210.08,-30.59"/>
<polygon fill="#9a32cd" stroke="#9a32cd" points="145.82,-69.13 140.8,-78.46 150.54,-74.3 145.82,-69.13"/>
<text text-anchor="middle" x="207.5" y="-52" font-family="Helvetica,sans-Serif" font-size="10.00"> annotations</text>
</g>
<!-- Node3 -->
<g id="node3" class="node">
<title>Node3</title>
<g id="a_node3"><a xlink:href="class_util_1_1_i_json.html" target="_top" xlink:title=" ">
<polygon fill="white" stroke="black" points="2.5,-151 2.5,-170 65.5,-170 65.5,-151 2.5,-151"/>
<text text-anchor="middle" x="34" y="-158" font-family="Helvetica,sans-Serif" font-size="10.00">Util::IJson</text>
</a>
</g>
</g>
<!-- Node3&#45;&gt;Node2 -->
<g id="edge2" class="edge">
<title>Node3&#45;&gt;Node2</title>
<path fill="none" stroke="midnightblue" d="M54.35,-144.86C74.13,-130.63 103.52,-109.49 119.88,-97.72"/>
<polygon fill="midnightblue" stroke="midnightblue" points="52.09,-142.17 46.02,-150.86 56.18,-147.86 52.09,-142.17"/>
</g>
<!-- Node4 -->
<g id="node4" class="node">
<title>Node4</title>
<g id="a_node4"><a xlink:href="class_i_castable.html" target="_top" xlink:title=" ">
<polygon fill="white" stroke="black" points="3,-223.5 3,-242.5 65,-242.5 65,-223.5 3,-223.5"/>
<text text-anchor="middle" x="34" y="-230.5" font-family="Helvetica,sans-Serif" font-size="10.00">ICastable</text>
</a>
</g>
</g>
<!-- Node4&#45;&gt;Node3 -->
<g id="edge3" class="edge">
<title>Node4&#45;&gt;Node3</title>
<path fill="none" stroke="midnightblue" d="M34,-212.94C34,-199.03 34,-180.82 34,-170.22"/>
<polygon fill="midnightblue" stroke="midnightblue" points="30.5,-213.36 34,-223.36 37.5,-213.36 30.5,-213.36"/>
</g>
<!-- Node5 -->
<g id="node5" class="node">
<title>Node5</title>
<g id="a_node5"><a xlink:href="struct_r_t_t_i_1_1_base.html" target="_top" xlink:title=" ">
<polygon fill="white" stroke="black" points="0,-280.5 0,-299.5 68,-299.5 68,-280.5 0,-280.5"/>
<text text-anchor="middle" x="34" y="-287.5" font-family="Helvetica,sans-Serif" font-size="10.00">RTTI::Base</text>
</a>
</g>
</g>
<!-- Node5&#45;&gt;Node4 -->
<g id="edge4" class="edge">
<title>Node5&#45;&gt;Node4</title>
<path fill="none" stroke="midnightblue" d="M34,-270.12C34,-260.82 34,-250.06 34,-242.71"/>
<polygon fill="midnightblue" stroke="midnightblue" points="30.5,-270.41 34,-280.41 37.5,-270.41 30.5,-270.41"/>
</g>
<!-- Node6 -->
<g id="node6" class="node">
<title>Node6</title>
<g id="a_node6"><a xlink:title=" ">
<polygon fill="white" stroke="#bfbfbf" points="83.5,-151 83.5,-170 180.5,-170 180.5,-151 83.5,-151"/>
<text text-anchor="middle" x="132" y="-158" font-family="Helvetica,sans-Serif" font-size="10.00">std::vector&lt; T &gt;</text>
</a>
</g>
</g>
<!-- Node6&#45;&gt;Node2 -->
<g id="edge5" class="edge">
<title>Node6&#45;&gt;Node2</title>
<path fill="none" stroke="midnightblue" d="M132,-140.44C132,-126.53 132,-108.32 132,-97.72"/>
<polygon fill="midnightblue" stroke="midnightblue" points="128.5,-140.86 132,-150.86 135.5,-140.86 128.5,-140.86"/>
</g>
<!-- Node7 -->
<g id="node7" class="node">
<title>Node7</title>
<g id="a_node7"><a xlink:title=" ">
<polygon fill="white" stroke="#bfbfbf" points="117.5,-223.5 117.5,-242.5 146.5,-242.5 146.5,-223.5 117.5,-223.5"/>
<text text-anchor="middle" x="132" y="-230.5" font-family="Helvetica,sans-Serif" font-size="10.00">T</text>
</a>
</g>
</g>
<!-- Node7&#45;&gt;Node6 -->
<g id="edge6" class="edge">
<title>Node7&#45;&gt;Node6</title>
<path fill="none" stroke="#9a32cd" stroke-dasharray="5,2" d="M132,-212.94C132,-199.03 132,-180.82 132,-170.22"/>
<polygon fill="#9a32cd" stroke="#9a32cd" points="128.5,-213.36 132,-223.36 135.5,-213.36 128.5,-213.36"/>
<text text-anchor="middle" x="156.5" y="-197" font-family="Helvetica,sans-Serif" font-size="10.00"> elements</text>
</g>
<!-- Node8 -->
<g id="node8" class="node">
<title>Node8</title>
<g id="a_node8"><a xlink:title=" ">
<polygon fill="white" stroke="#bfbfbf" points="209.5,-78.5 209.5,-97.5 274.5,-97.5 274.5,-78.5 209.5,-78.5"/>
<text text-anchor="middle" x="242" y="-85.5" font-family="Helvetica,sans-Serif" font-size="10.00">std::string</text>
</a>
</g>
</g>
<!-- Node8&#45;&gt;Node1 -->
<g id="edge7" class="edge">
<title>Node8&#45;&gt;Node1</title>
<path fill="none" stroke="#9a32cd" stroke-dasharray="5,2" d="M242,-68.24C242,-56.41 242,-41.38 242,-30.58"/>
<polygon fill="#9a32cd" stroke="#9a32cd" points="238.5,-68.36 242,-78.36 245.5,-68.36 238.5,-68.36"/>
<text text-anchor="middle" x="257.5" y="-52" font-family="Helvetica,sans-Serif" font-size="10.00"> name</text>
</g>
<!-- Node9 -->
<g id="node9" class="node">
<title>Node9</title>
<g id="a_node9"><a xlink:title=" ">
<polygon fill="white" stroke="#bfbfbf" points="199,-145.5 199,-175.5 303,-175.5 303,-145.5 199,-145.5"/>
<text text-anchor="start" x="207" y="-163.5" font-family="Helvetica,sans-Serif" font-size="10.00">std::basic_string&lt;</text>
<text text-anchor="middle" x="251" y="-152.5" font-family="Helvetica,sans-Serif" font-size="10.00"> Char &gt;</text>
</a>
</g>
</g>
<!-- Node9&#45;&gt;Node8 -->
<g id="edge8" class="edge">
<title>Node9&#45;&gt;Node8</title>
<path fill="none" stroke="midnightblue" d="M247.88,-135.09C246.24,-122.21 244.32,-107.2 243.14,-97.89"/>
<polygon fill="midnightblue" stroke="midnightblue" points="244.44,-135.76 249.18,-145.23 251.38,-134.87 244.44,-135.76"/>
</g>
<!-- Node10 -->
<g id="node10" class="node">
<title>Node10</title>
<g id="a_node10"><a xlink:title=" ">
<polygon fill="white" stroke="#bfbfbf" points="293,-78.5 293,-97.5 405,-97.5 405,-78.5 293,-78.5"/>
<text text-anchor="middle" x="349" y="-85.5" font-family="Helvetica,sans-Serif" font-size="10.00">std::vector&lt; P4Id &gt;</text>
</a>
</g>
</g>
<!-- Node10&#45;&gt;Node1 -->
<g id="edge9" class="edge">
<title>Node10&#45;&gt;Node1</title>
<path fill="none" stroke="#9a32cd" stroke-dasharray="5,2" d="M327.45,-72.8C308.8,-60.51 281.96,-42.83 263.36,-30.58"/>
<polygon fill="#9a32cd" stroke="#9a32cd" points="325.6,-75.78 335.88,-78.36 329.45,-69.93 325.6,-75.78"/>
<text text-anchor="middle" x="327.5" y="-52" font-family="Helvetica,sans-Serif" font-size="10.00"> tableIds</text>
</g>
<!-- Node11 -->
<g id="node11" class="node">
<title>Node11</title>
<g id="a_node11"><a xlink:title=" ">
<polygon fill="white" stroke="#bfbfbf" points="330,-151 330,-170 368,-170 368,-151 330,-151"/>
<text text-anchor="middle" x="349" y="-158" font-family="Helvetica,sans-Serif" font-size="10.00">P4Id</text>
</a>
</g>
</g>
<!-- Node11&#45;&gt;Node10 -->
<g id="edge10" class="edge">
<title>Node11&#45;&gt;Node10</title>
<path fill="none" stroke="#9a32cd" stroke-dasharray="5,2" d="M349,-140.44C349,-126.53 349,-108.32 349,-97.72"/>
<polygon fill="#9a32cd" stroke="#9a32cd" points="345.5,-140.86 349,-150.86 352.5,-140.86 345.5,-140.86"/>
<text text-anchor="middle" x="373.5" y="-119" font-family="Helvetica,sans-Serif" font-size="10.00"> elements</text>
</g>
</g>
</svg>
