<?xml version="1.0" encoding="UTF-8" standalone="no"?>
<!DOCTYPE svg PUBLIC "-//W3C//DTD SVG 1.1//EN"
 "http://www.w3.org/Graphics/SVG/1.1/DTD/svg11.dtd">
<!-- Generated by graphviz version 2.43.0 (0)
 -->
<!-- Title: P4Tools::TableUtils::TableProperties Pages: 1 -->
<svg width="268pt" height="295pt"
 viewBox="0.00 0.00 267.58 295.00" xmlns="http://www.w3.org/2000/svg" xmlns:xlink="http://www.w3.org/1999/xlink">
<g id="graph0" class="graph" transform="scale(1 1) rotate(0) translate(4 291)">
<title>P4Tools::TableUtils::TableProperties</title>
<polygon fill="white" stroke="transparent" points="-4,4 -4,-291 263.58,-291 263.58,4 -4,4"/>
<!-- Node1 -->
<g id="node1" class="node">
<title>Node1</title>
<g id="a_node1"><a xlink:title="Basic table properties that are set when initializing the TableStepper.">
<polygon fill="#bfbfbf" stroke="black" points="37.08,-0.5 37.08,-30.5 144.08,-30.5 144.08,-0.5 37.08,-0.5"/>
<text text-anchor="start" x="45.08" y="-18.5" font-family="Helvetica,sans-Serif" font-size="10.00">P4Tools::TableUtils</text>
<text text-anchor="middle" x="90.58" y="-7.5" font-family="Helvetica,sans-Serif" font-size="10.00">::TableProperties</text>
</a>
</g>
</g>
<!-- Node2 -->
<g id="node2" class="node">
<title>Node2</title>
<g id="a_node2"><a xlink:title=" ">
<polygon fill="white" stroke="#bfbfbf" points="13.08,-78.5 13.08,-108.5 168.08,-108.5 168.08,-78.5 13.08,-78.5"/>
<text text-anchor="start" x="21.08" y="-96.5" font-family="Helvetica,sans-Serif" font-size="10.00">std::vector&lt; P4Tools</text>
<text text-anchor="middle" x="90.58" y="-85.5" font-family="Helvetica,sans-Serif" font-size="10.00">::TableUtils::KeyProperties &gt;</text>
</a>
</g>
</g>
<!-- Node2&#45;&gt;Node1 -->
<g id="edge1" class="edge">
<title>Node2&#45;&gt;Node1</title>
<path fill="none" stroke="#9a32cd" stroke-dasharray="5,2" d="M90.58,-68.09C90.58,-55.76 90.58,-41.22 90.58,-30.73"/>
<polygon fill="#9a32cd" stroke="#9a32cd" points="87.08,-68.2 90.58,-78.2 94.08,-68.21 87.08,-68.2"/>
<text text-anchor="middle" x="125.08" y="-52" font-family="Helvetica,sans-Serif" font-size="10.00"> resolvedKeys</text>
</g>
<!-- Node3 -->
<g id="node3" class="node">
<title>Node3</title>
<g id="a_node3"><a xlink:href="struct_p4_tools_1_1_table_utils_1_1_key_properties.html" target="_top" xlink:title="KeyProperties define properties of table keys that are useful for execution.">
<polygon fill="white" stroke="black" points="37.08,-176.5 37.08,-206.5 144.08,-206.5 144.08,-176.5 37.08,-176.5"/>
<text text-anchor="start" x="45.08" y="-194.5" font-family="Helvetica,sans-Serif" font-size="10.00">P4Tools::TableUtils</text>
<text text-anchor="middle" x="90.58" y="-183.5" font-family="Helvetica,sans-Serif" font-size="10.00">::KeyProperties</text>
</a>
</g>
</g>
<!-- Node3&#45;&gt;Node2 -->
<g id="edge2" class="edge">
<title>Node3&#45;&gt;Node2</title>
<path fill="none" stroke="#9a32cd" stroke-dasharray="5,2" d="M89.75,-166.08C89.68,-163.35 89.62,-160.62 89.58,-158 89.37,-144.22 89.37,-140.78 89.58,-127 89.67,-121.02 89.86,-114.42 90.05,-108.74"/>
<polygon fill="#9a32cd" stroke="#9a32cd" points="86.25,-166.37 90.05,-176.26 93.25,-166.17 86.25,-166.37"/>
<text text-anchor="middle" x="114.08" y="-140" font-family="Helvetica,sans-Serif" font-size="10.00"> elements</text>
</g>
<!-- Node4 -->
<g id="node4" class="node">
<title>Node4</title>
<g id="a_node4"><a xlink:href="classcstring.html" target="_top" xlink:title=" ">
<polygon fill="white" stroke="black" points="65.58,-266.5 65.58,-285.5 115.58,-285.5 115.58,-266.5 65.58,-266.5"/>
<text text-anchor="middle" x="90.58" y="-273.5" font-family="Helvetica,sans-Serif" font-size="10.00">cstring</text>
</a>
</g>
</g>
<!-- Node4&#45;&gt;Node1 -->
<g id="edge5" class="edge">
<title>Node4&#45;&gt;Node1</title>
<path fill="none" stroke="#9a32cd" stroke-dasharray="5,2" d="M71.69,-259.44C57.5,-246.75 38.67,-227.61 27.58,-207 6.33,-167.51 8.95,-153.52 3.58,-109 1.93,-95.32 -2.75,-90.24 3.58,-78 14.81,-56.32 37.59,-40.64 57.02,-30.55"/>
<polygon fill="#9a32cd" stroke="#9a32cd" points="69.56,-262.23 79.41,-266.13 74.14,-256.94 69.56,-262.23"/>
<text text-anchor="middle" x="38.58" y="-140" font-family="Helvetica,sans-Serif" font-size="10.00"> tableName</text>
</g>
<!-- Node4&#45;&gt;Node3 -->
<g id="edge3" class="edge">
<title>Node4&#45;&gt;Node3</title>
<path fill="none" stroke="#9a32cd" stroke-dasharray="5,2" d="M90.58,-256.29C90.58,-241.2 90.58,-220.3 90.58,-206.59"/>
<polygon fill="#9a32cd" stroke="#9a32cd" points="87.08,-256.48 90.58,-266.48 94.08,-256.48 87.08,-256.48"/>
<text text-anchor="middle" x="119.08" y="-239" font-family="Helvetica,sans-Serif" font-size="10.00"> matchType</text>
<text text-anchor="middle" x="119.08" y="-228" font-family="Helvetica,sans-Serif" font-size="10.00">name</text>
</g>
<!-- Node4&#45;&gt;Node4 -->
<g id="edge4" class="edge">
<title>Node4&#45;&gt;Node4</title>
<path fill="none" stroke="#9a32cd" stroke-dasharray="5,2" d="M126.03,-282.57C130.58,-281.43 133.58,-279.24 133.58,-276 133.58,-270.69 125.49,-268.2 115.76,-268.53"/>
<polygon fill="#9a32cd" stroke="#9a32cd" points="125.41,-279.11 115.76,-283.47 126.02,-286.08 125.41,-279.11"/>
<text text-anchor="middle" x="153.08" y="-279" font-family="Helvetica,sans-Serif" font-size="10.00"> empty</text>
<text text-anchor="middle" x="153.08" y="-268" font-family="Helvetica,sans-Serif" font-size="10.00">newline</text>
</g>
<!-- Node5 -->
<g id="node5" class="node">
<title>Node5</title>
<g id="a_node5"><a xlink:title=" ">
<polygon fill="white" stroke="#bfbfbf" points="148.08,-127.5 148.08,-157.5 255.08,-157.5 255.08,-127.5 148.08,-127.5"/>
<text text-anchor="start" x="156.08" y="-145.5" font-family="Helvetica,sans-Serif" font-size="10.00">std::map&lt; cstring,</text>
<text text-anchor="middle" x="201.58" y="-134.5" font-family="Helvetica,sans-Serif" font-size="10.00"> int &gt;</text>
</a>
</g>
</g>
<!-- Node4&#45;&gt;Node5 -->
<g id="edge7" class="edge">
<title>Node4&#45;&gt;Node5</title>
<path fill="none" stroke="#9a32cd" stroke-dasharray="5,2" d="M125.05,-264.1C134.49,-259.89 144.15,-254.28 151.58,-247 177.66,-221.43 192,-179.53 198.06,-157.71"/>
<polygon fill="#9a32cd" stroke="#9a32cd" points="123.73,-260.86 115.78,-267.87 126.37,-267.35 123.73,-260.86"/>
<text text-anchor="middle" x="181.58" y="-233.5" font-family="Helvetica,sans-Serif" font-size="10.00"> keys</text>
</g>
<!-- Node5&#45;&gt;Node1 -->
<g id="edge6" class="edge">
<title>Node5&#45;&gt;Node1</title>
<path fill="none" stroke="#9a32cd" stroke-dasharray="5,2" d="M197.15,-117.51C192.21,-96.92 182.32,-67.69 163.58,-49 155.82,-41.26 145.9,-35.2 135.89,-30.53"/>
<polygon fill="#9a32cd" stroke="#9a32cd" points="193.76,-118.36 199.31,-127.39 200.6,-116.87 193.76,-118.36"/>
<text text-anchor="middle" x="227.58" y="-91" font-family="Helvetica,sans-Serif" font-size="10.00"> actionIdMap</text>
</g>
</g>
</svg>
