<?xml version="1.0" encoding="UTF-8" standalone="no"?>
<!DOCTYPE svg PUBLIC "-//W3C//DTD SVG 1.1//EN"
 "http://www.w3.org/Graphics/SVG/1.1/DTD/svg11.dtd">
<!-- Generated by graphviz version 2.43.0 (0)
 -->
<!-- Title: P4V1::Hash_Model Pages: 1 -->
<svg width="144pt" height="154pt"
 viewBox="0.00 0.00 143.50 154.00" xmlns="http://www.w3.org/2000/svg" xmlns:xlink="http://www.w3.org/1999/xlink">
<g id="graph0" class="graph" transform="scale(1 1) rotate(0) translate(4 150)">
<title>P4V1::Hash_Model</title>
<polygon fill="white" stroke="transparent" points="-4,4 -4,-150 139.5,-150 139.5,4 -4,4"/>
<!-- Node1 -->
<g id="node1" class="node">
<title>Node1</title>
<g id="a_node1"><a xlink:title=" ">
<polygon fill="#bfbfbf" stroke="black" points="0,-0.5 0,-19.5 107,-19.5 107,-0.5 0,-0.5"/>
<text text-anchor="middle" x="53.5" y="-7.5" font-family="Helvetica,sans-Serif" font-size="10.00">P4V1::Hash_Model</text>
</a>
</g>
</g>
<!-- Node2 -->
<g id="node2" class="node">
<title>Node2</title>
<g id="a_node2"><a xlink:href="struct_model_1_1_elem.html" target="_top" xlink:title=" ">
<polygon fill="white" stroke="black" points="15,-57.5 15,-76.5 92,-76.5 92,-57.5 15,-57.5"/>
<text text-anchor="middle" x="53.5" y="-64.5" font-family="Helvetica,sans-Serif" font-size="10.00">Model::Elem</text>
</a>
</g>
</g>
<!-- Node2&#45;&gt;Node1 -->
<g id="edge1" class="edge">
<title>Node2&#45;&gt;Node1</title>
<path fill="none" stroke="midnightblue" d="M53.5,-47.12C53.5,-37.82 53.5,-27.06 53.5,-19.71"/>
<polygon fill="midnightblue" stroke="midnightblue" points="50,-47.41 53.5,-57.41 57,-47.41 50,-47.41"/>
</g>
<!-- Node3 -->
<g id="node3" class="node">
<title>Node3</title>
<g id="a_node3"><a xlink:href="classcstring.html" target="_top" xlink:title=" ">
<polygon fill="white" stroke="black" points="28.5,-125.5 28.5,-144.5 78.5,-144.5 78.5,-125.5 28.5,-125.5"/>
<text text-anchor="middle" x="53.5" y="-132.5" font-family="Helvetica,sans-Serif" font-size="10.00">cstring</text>
</a>
</g>
</g>
<!-- Node3&#45;&gt;Node2 -->
<g id="edge2" class="edge">
<title>Node3&#45;&gt;Node2</title>
<path fill="none" stroke="#9a32cd" stroke-dasharray="5,2" d="M53.5,-115.04C53.5,-102.47 53.5,-86.56 53.5,-76.84"/>
<polygon fill="#9a32cd" stroke="#9a32cd" points="50,-115.37 53.5,-125.37 57,-115.37 50,-115.37"/>
<text text-anchor="middle" x="69" y="-98" font-family="Helvetica,sans-Serif" font-size="10.00"> name</text>
</g>
<!-- Node3&#45;&gt;Node3 -->
<g id="edge3" class="edge">
<title>Node3&#45;&gt;Node3</title>
<path fill="none" stroke="#9a32cd" stroke-dasharray="5,2" d="M88.95,-140.58C93.5,-139.61 96.5,-137.75 96.5,-135 96.5,-130.48 88.41,-128.37 78.68,-128.65"/>
<polygon fill="#9a32cd" stroke="#9a32cd" points="88.39,-137.11 78.68,-141.35 88.91,-144.1 88.39,-137.11"/>
<text text-anchor="middle" x="116" y="-138" font-family="Helvetica,sans-Serif" font-size="10.00"> empty</text>
<text text-anchor="middle" x="116" y="-127" font-family="Helvetica,sans-Serif" font-size="10.00">newline</text>
</g>
</g>
</svg>
