<?xml version="1.0" encoding="UTF-8" standalone="no"?>
<!DOCTYPE svg PUBLIC "-//W3C//DTD SVG 1.1//EN"
 "http://www.w3.org/Graphics/SVG/1.1/DTD/svg11.dtd">
<!-- Generated by graphviz version 2.43.0 (0)
 -->
<!-- Title: P4::BFRT::BFRuntimeSchemaGenerator::ActionSelector Pages: 1 -->
<svg width="413pt" height="319pt"
 viewBox="0.00 0.00 413.00 319.00" xmlns="http://www.w3.org/2000/svg" xmlns:xlink="http://www.w3.org/1999/xlink">
<g id="graph0" class="graph" transform="scale(1 1) rotate(0) translate(4 315)">
<title>P4::BFRT::BFRuntimeSchemaGenerator::ActionSelector</title>
<polygon fill="white" stroke="transparent" points="-4,4 -4,-315 409,-315 409,4 -4,4"/>
<!-- Node1 -->
<g id="node1" class="node">
<title>Node1</title>
<g id="a_node1"><a xlink:title=" ">
<polygon fill="#bfbfbf" stroke="black" points="163,-0.5 163,-30.5 321,-30.5 321,-0.5 163,-0.5"/>
<text text-anchor="start" x="171" y="-18.5" font-family="Helvetica,sans-Serif" font-size="10.00">P4::BFRT::BFRuntimeSchema</text>
<text text-anchor="middle" x="242" y="-7.5" font-family="Helvetica,sans-Serif" font-size="10.00">Generator::ActionSelector</text>
</a>
</g>
</g>
<!-- Node2 -->
<g id="node2" class="node">
<title>Node2</title>
<g id="a_node2"><a xlink:href="class_util_1_1_json_array.html" target="_top" xlink:title=" ">
<polygon fill="white" stroke="black" points="89,-89.5 89,-108.5 175,-108.5 175,-89.5 89,-89.5"/>
<text text-anchor="middle" x="132" y="-96.5" font-family="Helvetica,sans-Serif" font-size="10.00">Util::JsonArray</text>
</a>
</g>
</g>
<!-- Node2&#45;&gt;Node1 -->
<g id="edge1" class="edge">
<title>Node2&#45;&gt;Node1</title>
<path fill="none" stroke="#9a32cd" stroke-dasharray="5,2" d="M144.68,-81.34C153.06,-71.12 164.73,-58.25 177,-49 186.37,-41.94 197.51,-35.72 207.9,-30.66"/>
<polygon fill="#9a32cd" stroke="#9a32cd" points="141.69,-79.48 138.23,-89.5 147.18,-83.83 141.69,-79.48"/>
<text text-anchor="middle" x="207.5" y="-57.5" font-family="Helvetica,sans-Serif" font-size="10.00"> annotations</text>
</g>
<!-- Node3 -->
<g id="node3" class="node">
<title>Node3</title>
<g id="a_node3"><a xlink:href="class_util_1_1_i_json.html" target="_top" xlink:title=" ">
<polygon fill="white" stroke="black" points="2.5,-162 2.5,-181 65.5,-181 65.5,-162 2.5,-162"/>
<text text-anchor="middle" x="34" y="-169" font-family="Helvetica,sans-Serif" font-size="10.00">Util::IJson</text>
</a>
</g>
</g>
<!-- Node3&#45;&gt;Node2 -->
<g id="edge2" class="edge">
<title>Node3&#45;&gt;Node2</title>
<path fill="none" stroke="midnightblue" d="M54.35,-155.86C74.13,-141.63 103.52,-120.49 119.88,-108.72"/>
<polygon fill="midnightblue" stroke="midnightblue" points="52.09,-153.17 46.02,-161.86 56.18,-158.86 52.09,-153.17"/>
</g>
<!-- Node4 -->
<g id="node4" class="node">
<title>Node4</title>
<g id="a_node4"><a xlink:href="class_i_castable.html" target="_top" xlink:title=" ">
<polygon fill="white" stroke="black" points="3,-234.5 3,-253.5 65,-253.5 65,-234.5 3,-234.5"/>
<text text-anchor="middle" x="34" y="-241.5" font-family="Helvetica,sans-Serif" font-size="10.00">ICastable</text>
</a>
</g>
</g>
<!-- Node4&#45;&gt;Node3 -->
<g id="edge3" class="edge">
<title>Node4&#45;&gt;Node3</title>
<path fill="none" stroke="midnightblue" d="M34,-223.94C34,-210.03 34,-191.82 34,-181.22"/>
<polygon fill="midnightblue" stroke="midnightblue" points="30.5,-224.36 34,-234.36 37.5,-224.36 30.5,-224.36"/>
</g>
<!-- Node5 -->
<g id="node5" class="node">
<title>Node5</title>
<g id="a_node5"><a xlink:href="struct_r_t_t_i_1_1_base.html" target="_top" xlink:title=" ">
<polygon fill="white" stroke="black" points="0,-291.5 0,-310.5 68,-310.5 68,-291.5 0,-291.5"/>
<text text-anchor="middle" x="34" y="-298.5" font-family="Helvetica,sans-Serif" font-size="10.00">RTTI::Base</text>
</a>
</g>
</g>
<!-- Node5&#45;&gt;Node4 -->
<g id="edge4" class="edge">
<title>Node5&#45;&gt;Node4</title>
<path fill="none" stroke="midnightblue" d="M34,-281.12C34,-271.82 34,-261.06 34,-253.71"/>
<polygon fill="midnightblue" stroke="midnightblue" points="30.5,-281.41 34,-291.41 37.5,-281.41 30.5,-281.41"/>
</g>
<!-- Node6 -->
<g id="node6" class="node">
<title>Node6</title>
<g id="a_node6"><a xlink:title=" ">
<polygon fill="white" stroke="#bfbfbf" points="83.5,-162 83.5,-181 180.5,-181 180.5,-162 83.5,-162"/>
<text text-anchor="middle" x="132" y="-169" font-family="Helvetica,sans-Serif" font-size="10.00">std::vector&lt; T &gt;</text>
</a>
</g>
</g>
<!-- Node6&#45;&gt;Node2 -->
<g id="edge5" class="edge">
<title>Node6&#45;&gt;Node2</title>
<path fill="none" stroke="midnightblue" d="M132,-151.44C132,-137.53 132,-119.32 132,-108.72"/>
<polygon fill="midnightblue" stroke="midnightblue" points="128.5,-151.86 132,-161.86 135.5,-151.86 128.5,-151.86"/>
</g>
<!-- Node7 -->
<g id="node7" class="node">
<title>Node7</title>
<g id="a_node7"><a xlink:title=" ">
<polygon fill="white" stroke="#bfbfbf" points="117.5,-234.5 117.5,-253.5 146.5,-253.5 146.5,-234.5 117.5,-234.5"/>
<text text-anchor="middle" x="132" y="-241.5" font-family="Helvetica,sans-Serif" font-size="10.00">T</text>
</a>
</g>
</g>
<!-- Node7&#45;&gt;Node6 -->
<g id="edge6" class="edge">
<title>Node7&#45;&gt;Node6</title>
<path fill="none" stroke="#9a32cd" stroke-dasharray="5,2" d="M132,-223.94C132,-210.03 132,-191.82 132,-181.22"/>
<polygon fill="#9a32cd" stroke="#9a32cd" points="128.5,-224.36 132,-234.36 135.5,-224.36 128.5,-224.36"/>
<text text-anchor="middle" x="156.5" y="-208" font-family="Helvetica,sans-Serif" font-size="10.00"> elements</text>
</g>
<!-- Node8 -->
<g id="node8" class="node">
<title>Node8</title>
<g id="a_node8"><a xlink:title=" ">
<polygon fill="white" stroke="#bfbfbf" points="209.5,-89.5 209.5,-108.5 274.5,-108.5 274.5,-89.5 209.5,-89.5"/>
<text text-anchor="middle" x="242" y="-96.5" font-family="Helvetica,sans-Serif" font-size="10.00">std::string</text>
</a>
</g>
</g>
<!-- Node8&#45;&gt;Node1 -->
<g id="edge7" class="edge">
<title>Node8&#45;&gt;Node1</title>
<path fill="none" stroke="#9a32cd" stroke-dasharray="5,2" d="M242,-79.23C242,-64.41 242,-44.05 242,-30.6"/>
<polygon fill="#9a32cd" stroke="#9a32cd" points="238.5,-79.28 242,-89.28 245.5,-79.28 238.5,-79.28"/>
<text text-anchor="middle" x="283.5" y="-63" font-family="Helvetica,sans-Serif" font-size="10.00"> get_mem_name</text>
<text text-anchor="middle" x="283.5" y="-52" font-family="Helvetica,sans-Serif" font-size="10.00">name</text>
</g>
<!-- Node9 -->
<g id="node9" class="node">
<title>Node9</title>
<g id="a_node9"><a xlink:title=" ">
<polygon fill="white" stroke="#bfbfbf" points="199,-156.5 199,-186.5 303,-186.5 303,-156.5 199,-156.5"/>
<text text-anchor="start" x="207" y="-174.5" font-family="Helvetica,sans-Serif" font-size="10.00">std::basic_string&lt;</text>
<text text-anchor="middle" x="251" y="-163.5" font-family="Helvetica,sans-Serif" font-size="10.00"> Char &gt;</text>
</a>
</g>
</g>
<!-- Node9&#45;&gt;Node8 -->
<g id="edge8" class="edge">
<title>Node9&#45;&gt;Node8</title>
<path fill="none" stroke="midnightblue" d="M247.88,-146.09C246.24,-133.21 244.32,-118.2 243.14,-108.89"/>
<polygon fill="midnightblue" stroke="midnightblue" points="244.44,-146.76 249.18,-156.23 251.38,-145.87 244.44,-146.76"/>
</g>
<!-- Node10 -->
<g id="node10" class="node">
<title>Node10</title>
<g id="a_node10"><a xlink:title=" ">
<polygon fill="white" stroke="#bfbfbf" points="293,-89.5 293,-108.5 405,-108.5 405,-89.5 293,-89.5"/>
<text text-anchor="middle" x="349" y="-96.5" font-family="Helvetica,sans-Serif" font-size="10.00">std::vector&lt; P4Id &gt;</text>
</a>
</g>
</g>
<!-- Node10&#45;&gt;Node1 -->
<g id="edge9" class="edge">
<title>Node10&#45;&gt;Node1</title>
<path fill="none" stroke="#9a32cd" stroke-dasharray="5,2" d="M344.07,-79.57C340.52,-69.39 334.77,-57.18 326,-49 317.65,-41.21 307.23,-35.23 296.61,-30.64"/>
<polygon fill="#9a32cd" stroke="#9a32cd" points="340.74,-80.66 347.01,-89.2 347.43,-78.61 340.74,-80.66"/>
<text text-anchor="middle" x="362.5" y="-57.5" font-family="Helvetica,sans-Serif" font-size="10.00"> tableIds</text>
</g>
<!-- Node11 -->
<g id="node11" class="node">
<title>Node11</title>
<g id="a_node11"><a xlink:title=" ">
<polygon fill="white" stroke="#bfbfbf" points="330,-162 330,-181 368,-181 368,-162 330,-162"/>
<text text-anchor="middle" x="349" y="-169" font-family="Helvetica,sans-Serif" font-size="10.00">P4Id</text>
</a>
</g>
</g>
<!-- Node11&#45;&gt;Node10 -->
<g id="edge10" class="edge">
<title>Node11&#45;&gt;Node10</title>
<path fill="none" stroke="#9a32cd" stroke-dasharray="5,2" d="M349,-151.44C349,-137.53 349,-119.32 349,-108.72"/>
<polygon fill="#9a32cd" stroke="#9a32cd" points="345.5,-151.86 349,-161.86 352.5,-151.86 345.5,-151.86"/>
<text text-anchor="middle" x="373.5" y="-130" font-family="Helvetica,sans-Serif" font-size="10.00"> elements</text>
</g>
</g>
</svg>
