<?xml version="1.0" encoding="UTF-8" standalone="no"?>
<!DOCTYPE svg PUBLIC "-//W3C//DTD SVG 1.1//EN"
 "http://www.w3.org/Graphics/SVG/1.1/DTD/svg11.dtd">
<!-- Generated by graphviz version 2.43.0 (0)
 -->
<!-- Title: P4::InlineSummary Pages: 1 -->
<svg width="1957pt" height="378pt"
 viewBox="0.00 0.00 1957.00 377.80" xmlns="http://www.w3.org/2000/svg" xmlns:xlink="http://www.w3.org/1999/xlink">
<g id="graph0" class="graph" transform="scale(1 1) rotate(0) translate(4 373.8)">
<title>P4::InlineSummary</title>
<polygon fill="white" stroke="transparent" points="-4,4 -4,-373.8 1953,-373.8 1953,4 -4,4"/>
<!-- Node1 -->
<g id="node1" class="node">
<title>Node1</title>
<g id="a_node1"><a xlink:title="Summarizes all inline operations to be performed.">
<polygon fill="#bfbfbf" stroke="black" points="1840,-336.3 1840,-355.3 1949,-355.3 1949,-336.3 1840,-336.3"/>
<text text-anchor="middle" x="1894.5" y="-343.3" font-family="Helvetica,sans-Serif" font-size="10.00">P4::InlineSummary</text>
</a>
</g>
</g>
<!-- Node2 -->
<g id="node2" class="node">
<title>Node2</title>
<g id="a_node2"><a xlink:href="class_i_has_db_print.html" target="_top" xlink:title=" ">
<polygon fill="white" stroke="black" points="0,-316.3 0,-335.3 74,-335.3 74,-316.3 0,-316.3"/>
<text text-anchor="middle" x="37" y="-323.3" font-family="Helvetica,sans-Serif" font-size="10.00">IHasDbPrint</text>
</a>
</g>
</g>
<!-- Node2&#45;&gt;Node1 -->
<g id="edge1" class="edge">
<title>Node2&#45;&gt;Node1</title>
<path fill="none" stroke="midnightblue" d="M71.6,-338.85C108.05,-351.83 168.26,-369.8 222,-369.8 222,-369.8 222,-369.8 1663,-369.8 1723.75,-369.8 1793.03,-361.45 1839.64,-354.6"/>
<polygon fill="midnightblue" stroke="midnightblue" points="72.56,-335.48 61.97,-335.35 70.17,-342.06 72.56,-335.48"/>
</g>
<!-- Node13 -->
<g id="node13" class="node">
<title>Node13</title>
<g id="a_node13"><a xlink:href="class_p4_1_1_parameter_substitution.html" target="_top" xlink:title=" ">
<polygon fill="white" stroke="black" points="434,-228.3 434,-247.3 577,-247.3 577,-228.3 434,-228.3"/>
<text text-anchor="middle" x="505.5" y="-235.3" font-family="Helvetica,sans-Serif" font-size="10.00">P4::ParameterSubstitution</text>
</a>
</g>
</g>
<!-- Node2&#45;&gt;Node13 -->
<g id="edge15" class="edge">
<title>Node2&#45;&gt;Node13</title>
<path fill="none" stroke="midnightblue" d="M84.09,-316.21C105.88,-311.74 132.26,-306.39 156,-301.8 260.18,-281.64 382.2,-259.59 450.71,-247.35"/>
<polygon fill="midnightblue" stroke="midnightblue" points="83.2,-312.82 74.12,-318.27 84.62,-319.68 83.2,-312.82"/>
</g>
<!-- Node18 -->
<g id="node18" class="node">
<title>Node18</title>
<g id="a_node18"><a xlink:href="class_p4_1_1_type_substitution.html" target="_top" xlink:title=" ">
<polygon fill="white" stroke="black" points="156,-310.8 156,-340.8 290,-340.8 290,-310.8 156,-310.8"/>
<text text-anchor="start" x="164" y="-328.8" font-family="Helvetica,sans-Serif" font-size="10.00">P4::TypeSubstitution</text>
<text text-anchor="middle" x="223" y="-317.8" font-family="Helvetica,sans-Serif" font-size="10.00">&lt; const IR::ITypeVar * &gt;</text>
</a>
</g>
</g>
<!-- Node2&#45;&gt;Node18 -->
<g id="edge23" class="edge">
<title>Node2&#45;&gt;Node18</title>
<path fill="none" stroke="midnightblue" d="M84.58,-325.8C106.21,-325.8 132.31,-325.8 155.93,-325.8"/>
<polygon fill="midnightblue" stroke="midnightblue" points="84.35,-322.3 74.35,-325.8 84.35,-329.3 84.35,-322.3"/>
</g>
<!-- Node3 -->
<g id="node3" class="node">
<title>Node3</title>
<g id="a_node3"><a xlink:title=" ">
<polygon fill="white" stroke="#bfbfbf" points="1586,-277.3 1586,-318.3 1738,-318.3 1738,-277.3 1586,-277.3"/>
<text text-anchor="start" x="1594" y="-306.3" font-family="Helvetica,sans-Serif" font-size="10.00">std::map&lt; const IR</text>
<text text-anchor="start" x="1594" y="-295.3" font-family="Helvetica,sans-Serif" font-size="10.00">::IContainer *, P4::</text>
<text text-anchor="middle" x="1662" y="-284.3" font-family="Helvetica,sans-Serif" font-size="10.00">InlineSummary::PerCaller &gt;</text>
</a>
</g>
</g>
<!-- Node3&#45;&gt;Node1 -->
<g id="edge2" class="edge">
<title>Node3&#45;&gt;Node1</title>
<path fill="none" stroke="#9a32cd" stroke-dasharray="5,2" d="M1748.03,-315.51C1781.77,-322.53 1819.23,-330.33 1847.68,-336.26"/>
<polygon fill="#9a32cd" stroke="#9a32cd" points="1748.66,-312.06 1738.16,-313.45 1747.23,-318.92 1748.66,-312.06"/>
<text text-anchor="middle" x="1789" y="-332.8" font-family="Helvetica,sans-Serif" font-size="10.00"> callerToWork</text>
</g>
<!-- Node4 -->
<g id="node4" class="node">
<title>Node4</title>
<g id="a_node4"><a xlink:href="struct_p4_1_1_inline_summary_1_1_per_caller.html" target="_top" xlink:title="Various substitutions that must be applied for each instance.">
<polygon fill="white" stroke="black" points="1387,-202.8 1387,-232.8 1501,-232.8 1501,-202.8 1387,-202.8"/>
<text text-anchor="start" x="1395" y="-220.8" font-family="Helvetica,sans-Serif" font-size="10.00">P4::InlineSummary::</text>
<text text-anchor="middle" x="1444" y="-209.8" font-family="Helvetica,sans-Serif" font-size="10.00">PerCaller</text>
</a>
</g>
</g>
<!-- Node4&#45;&gt;Node3 -->
<g id="edge3" class="edge">
<title>Node4&#45;&gt;Node3</title>
<path fill="none" stroke="#9a32cd" stroke-dasharray="5,2" d="M1495.09,-236.35C1528.11,-248.58 1571.4,-264.61 1605.47,-277.23"/>
<polygon fill="#9a32cd" stroke="#9a32cd" points="1496.22,-233.04 1485.63,-232.85 1493.79,-239.6 1496.22,-233.04"/>
<text text-anchor="middle" x="1543.5" y="-264.8" font-family="Helvetica,sans-Serif" font-size="10.00"> elements</text>
</g>
<!-- Node5 -->
<g id="node5" class="node">
<title>Node5</title>
<g id="a_node5"><a xlink:title=" ">
<polygon fill="white" stroke="#bfbfbf" points="854,-119.3 854,-182.3 1071,-182.3 1071,-119.3 854,-119.3"/>
<text text-anchor="start" x="862" y="-170.3" font-family="Helvetica,sans-Serif" font-size="10.00">std::unordered_map</text>
<text text-anchor="start" x="862" y="-159.3" font-family="Helvetica,sans-Serif" font-size="10.00">&lt; const InlinedInvocationInfo,</text>
<text text-anchor="start" x="862" y="-148.3" font-family="Helvetica,sans-Serif" font-size="10.00"> const IR::ID, P4::InlineSummary</text>
<text text-anchor="start" x="862" y="-137.3" font-family="Helvetica,sans-Serif" font-size="10.00">::PerCaller::key_hash, P4::InlineSummary</text>
<text text-anchor="middle" x="962.5" y="-126.3" font-family="Helvetica,sans-Serif" font-size="10.00">::PerCaller::key_equal &gt;</text>
</a>
</g>
</g>
<!-- Node5&#45;&gt;Node4 -->
<g id="edge4" class="edge">
<title>Node5&#45;&gt;Node4</title>
<path fill="none" stroke="#9a32cd" stroke-dasharray="5,2" d="M1081.17,-156.02C1140.48,-159.79 1213.35,-166.17 1278,-176.8 1316.45,-183.12 1359.11,-193.83 1391.43,-202.71"/>
<polygon fill="#9a32cd" stroke="#9a32cd" points="1081.21,-152.52 1071.01,-155.39 1080.78,-159.51 1081.21,-152.52"/>
<text text-anchor="middle" x="1183.5" y="-179.8" font-family="Helvetica,sans-Serif" font-size="10.00"> invocationToState</text>
</g>
<!-- Node6 -->
<g id="node6" class="node">
<title>Node6</title>
<g id="a_node6"><a xlink:href="struct_i_r_1_1_i_d.html" target="_top" xlink:title=" ">
<polygon fill="white" stroke="black" points="484,-70.3 484,-89.3 527,-89.3 527,-70.3 484,-70.3"/>
<text text-anchor="middle" x="505.5" y="-77.3" font-family="Helvetica,sans-Serif" font-size="10.00">IR::ID</text>
</a>
</g>
</g>
<!-- Node6&#45;&gt;Node5 -->
<g id="edge5" class="edge">
<title>Node6&#45;&gt;Node5</title>
<path fill="none" stroke="#9a32cd" stroke-dasharray="5,2" d="M537.45,-84.63C601.38,-94.61 750.68,-117.9 853.9,-134.01"/>
<polygon fill="#9a32cd" stroke="#9a32cd" points="537.65,-81.12 527.23,-83.04 536.57,-88.04 537.65,-81.12"/>
<text text-anchor="middle" x="632" y="-105.8" font-family="Helvetica,sans-Serif" font-size="10.00"> elements</text>
</g>
<!-- Node7 -->
<g id="node7" class="node">
<title>Node7</title>
<g id="a_node7"><a xlink:href="class_util_1_1_i_has_source_info.html" target="_top" xlink:title=" ">
<polygon fill="white" stroke="black" points="166.5,-86.3 166.5,-105.3 279.5,-105.3 279.5,-86.3 166.5,-86.3"/>
<text text-anchor="middle" x="223" y="-93.3" font-family="Helvetica,sans-Serif" font-size="10.00">Util::IHasSourceInfo</text>
</a>
</g>
</g>
<!-- Node7&#45;&gt;Node6 -->
<g id="edge6" class="edge">
<title>Node7&#45;&gt;Node6</title>
<path fill="none" stroke="midnightblue" d="M289.97,-92.04C352.81,-88.45 443.6,-83.27 483.9,-80.98"/>
<polygon fill="midnightblue" stroke="midnightblue" points="289.54,-88.56 279.75,-92.62 289.94,-95.54 289.54,-88.56"/>
</g>
<!-- Node8 -->
<g id="node8" class="node">
<title>Node8</title>
<g id="a_node8"><a xlink:href="class_util_1_1_source_info.html" target="_top" xlink:title=" ">
<polygon fill="white" stroke="black" points="177,-48.3 177,-67.3 269,-67.3 269,-48.3 177,-48.3"/>
<text text-anchor="middle" x="223" y="-55.3" font-family="Helvetica,sans-Serif" font-size="10.00">Util::SourceInfo</text>
</a>
</g>
</g>
<!-- Node8&#45;&gt;Node6 -->
<g id="edge7" class="edge">
<title>Node8&#45;&gt;Node6</title>
<path fill="none" stroke="#9a32cd" stroke-dasharray="5,2" d="M279.23,-60.77C316.25,-62.9 366.09,-66.06 410,-69.8 435.48,-71.97 464.75,-75.18 483.88,-77.37"/>
<polygon fill="#9a32cd" stroke="#9a32cd" points="279.32,-57.27 269.14,-60.19 278.93,-64.26 279.32,-57.27"/>
<text text-anchor="middle" x="359" y="-72.8" font-family="Helvetica,sans-Serif" font-size="10.00"> srcInfo</text>
</g>
<!-- Node9 -->
<g id="node9" class="node">
<title>Node9</title>
<g id="a_node9"><a xlink:href="classcstring.html" target="_top" xlink:title=" ">
<polygon fill="white" stroke="black" points="12,-128.3 12,-147.3 62,-147.3 62,-128.3 12,-128.3"/>
<text text-anchor="middle" x="37" y="-135.3" font-family="Helvetica,sans-Serif" font-size="10.00">cstring</text>
</a>
</g>
</g>
<!-- Node9&#45;&gt;Node6 -->
<g id="edge10" class="edge">
<title>Node9&#45;&gt;Node6</title>
<path fill="none" stroke="#9a32cd" stroke-dasharray="5,2" d="M48.86,-119.46C66.91,-91.04 106.07,-37.48 156,-16.8 276.14,32.96 435.64,-42.5 487.46,-70.24"/>
<polygon fill="#9a32cd" stroke="#9a32cd" points="45.83,-117.7 43.57,-128.05 51.79,-121.37 45.83,-117.7"/>
<text text-anchor="middle" x="223" y="-30.8" font-family="Helvetica,sans-Serif" font-size="10.00"> name</text>
<text text-anchor="middle" x="223" y="-19.8" font-family="Helvetica,sans-Serif" font-size="10.00">originalName</text>
</g>
<!-- Node9&#45;&gt;Node8 -->
<g id="edge8" class="edge">
<title>Node9&#45;&gt;Node8</title>
<path fill="none" stroke="#9a32cd" stroke-dasharray="5,2" d="M62.84,-123.13C86.27,-109.73 122.67,-90.06 156,-76.8 164.86,-73.27 174.63,-70.1 183.88,-67.39"/>
<polygon fill="#9a32cd" stroke="#9a32cd" points="60.85,-120.24 53.94,-128.27 64.35,-126.3 60.85,-120.24"/>
<text text-anchor="middle" x="115" y="-119.8" font-family="Helvetica,sans-Serif" font-size="10.00"> filename</text>
<text text-anchor="middle" x="115" y="-108.8" font-family="Helvetica,sans-Serif" font-size="10.00">srcBrief</text>
</g>
<!-- Node9&#45;&gt;Node9 -->
<g id="edge9" class="edge">
<title>Node9&#45;&gt;Node9</title>
<path fill="none" stroke="#9a32cd" stroke-dasharray="5,2" d="M22.64,-157.57C23.76,-162.3 28.55,-165.8 37,-165.8 50.86,-165.8 54.87,-156.37 49.02,-147.56"/>
<polygon fill="#9a32cd" stroke="#9a32cd" points="26.11,-158.09 24.98,-147.56 19.29,-156.5 26.11,-158.09"/>
<text text-anchor="middle" x="37" y="-179.8" font-family="Helvetica,sans-Serif" font-size="10.00"> empty</text>
<text text-anchor="middle" x="37" y="-168.8" font-family="Helvetica,sans-Serif" font-size="10.00">newline</text>
</g>
<!-- Node14 -->
<g id="node14" class="node">
<title>Node14</title>
<g id="a_node14"><a xlink:title=" ">
<polygon fill="white" stroke="#bfbfbf" points="156,-173.8 156,-203.8 290,-203.8 290,-173.8 156,-173.8"/>
<text text-anchor="start" x="164" y="-191.8" font-family="Helvetica,sans-Serif" font-size="10.00">std::map&lt; cstring,</text>
<text text-anchor="middle" x="223" y="-180.8" font-family="Helvetica,sans-Serif" font-size="10.00"> const IR::Parameter * &gt;</text>
</a>
</g>
</g>
<!-- Node9&#45;&gt;Node14 -->
<g id="edge17" class="edge">
<title>Node9&#45;&gt;Node14</title>
<path fill="none" stroke="#9a32cd" stroke-dasharray="5,2" d="M71.75,-147.16C98.59,-154.59 136.65,-165.14 167.75,-173.76"/>
<polygon fill="#9a32cd" stroke="#9a32cd" points="72.63,-143.77 62.05,-144.47 70.76,-150.51 72.63,-143.77"/>
<text text-anchor="middle" x="115" y="-167.8" font-family="Helvetica,sans-Serif" font-size="10.00"> keys</text>
</g>
<!-- Node15 -->
<g id="node15" class="node">
<title>Node15</title>
<g id="a_node15"><a xlink:title=" ">
<polygon fill="white" stroke="#bfbfbf" points="157,-222.8 157,-252.8 289,-252.8 289,-222.8 157,-222.8"/>
<text text-anchor="start" x="165" y="-240.8" font-family="Helvetica,sans-Serif" font-size="10.00">std::map&lt; cstring,</text>
<text text-anchor="middle" x="223" y="-229.8" font-family="Helvetica,sans-Serif" font-size="10.00"> const IR::Argument * &gt;</text>
</a>
</g>
</g>
<!-- Node9&#45;&gt;Node15 -->
<g id="edge19" class="edge">
<title>Node9&#45;&gt;Node15</title>
<path fill="none" stroke="#9a32cd" stroke-dasharray="5,2" d="M56.93,-153.83C67.03,-162.04 79.85,-171.93 92,-179.8 119.04,-197.31 126.57,-200.71 156,-213.8 163.02,-216.92 170.58,-219.96 177.99,-222.77"/>
<polygon fill="#9a32cd" stroke="#9a32cd" points="59.1,-151.08 49.16,-147.41 54.64,-156.48 59.1,-151.08"/>
<text text-anchor="middle" x="115" y="-207.8" font-family="Helvetica,sans-Serif" font-size="10.00"> keys</text>
</g>
<!-- Node10 -->
<g id="node10" class="node">
<title>Node10</title>
<g id="a_node10"><a xlink:title=" ">
<polygon fill="white" stroke="#bfbfbf" points="1117.5,-78.8 1117.5,-130.8 1249.5,-130.8 1249.5,-78.8 1117.5,-78.8"/>
<text text-anchor="start" x="1125.5" y="-118.8" font-family="Helvetica,sans-Serif" font-size="10.00">std::map&lt; const IR</text>
<text text-anchor="start" x="1125.5" y="-107.8" font-family="Helvetica,sans-Serif" font-size="10.00">::MethodCallStatement</text>
<text text-anchor="start" x="1125.5" y="-96.8" font-family="Helvetica,sans-Serif" font-size="10.00"> *, const IR::Declaration</text>
<text text-anchor="middle" x="1183.5" y="-85.8" font-family="Helvetica,sans-Serif" font-size="10.00">_Instance * &gt;</text>
</a>
</g>
</g>
<!-- Node10&#45;&gt;Node4 -->
<g id="edge11" class="edge">
<title>Node10&#45;&gt;Node4</title>
<path fill="none" stroke="#9a32cd" stroke-dasharray="5,2" d="M1259.74,-110.21C1294.63,-115.18 1335.65,-124.68 1369,-142.8 1396,-157.47 1419.43,-185.18 1432.35,-202.51"/>
<polygon fill="#9a32cd" stroke="#9a32cd" points="1259.97,-106.71 1249.6,-108.87 1259.05,-113.65 1259.97,-106.71"/>
<text text-anchor="middle" x="1332.5" y="-145.8" font-family="Helvetica,sans-Serif" font-size="10.00"> callToInstance</text>
</g>
<!-- Node11 -->
<g id="node11" class="node">
<title>Node11</title>
<g id="a_node11"><a xlink:title=" ">
<polygon fill="white" stroke="#bfbfbf" points="1089,-257.3 1089,-298.3 1278,-298.3 1278,-257.3 1089,-257.3"/>
<text text-anchor="start" x="1097" y="-286.3" font-family="Helvetica,sans-Serif" font-size="10.00">std::map&lt; const IR</text>
<text text-anchor="start" x="1097" y="-275.3" font-family="Helvetica,sans-Serif" font-size="10.00">::Declaration_Instance</text>
<text text-anchor="middle" x="1183.5" y="-264.3" font-family="Helvetica,sans-Serif" font-size="10.00"> *, P4::PerInstanceSubstitutions * &gt;</text>
</a>
</g>
</g>
<!-- Node11&#45;&gt;Node4 -->
<g id="edge12" class="edge">
<title>Node11&#45;&gt;Node4</title>
<path fill="none" stroke="#9a32cd" stroke-dasharray="5,2" d="M1282.93,-254.95C1318.1,-246.79 1356.51,-237.88 1386.89,-230.82"/>
<polygon fill="#9a32cd" stroke="#9a32cd" points="1282.05,-251.56 1273.1,-257.24 1283.63,-258.38 1282.05,-251.56"/>
<text text-anchor="middle" x="1332.5" y="-253.8" font-family="Helvetica,sans-Serif" font-size="10.00"> substitutions</text>
</g>
<!-- Node12 -->
<g id="node12" class="node">
<title>Node12</title>
<g id="a_node12"><a xlink:href="struct_p4_1_1_per_instance_substitutions.html" target="_top" xlink:title=" ">
<polygon fill="white" stroke="black" points="681,-268.3 681,-287.3 836,-287.3 836,-268.3 681,-268.3"/>
<text text-anchor="middle" x="758.5" y="-275.3" font-family="Helvetica,sans-Serif" font-size="10.00">P4::PerInstanceSubstitutions</text>
</a>
</g>
</g>
<!-- Node12&#45;&gt;Node11 -->
<g id="edge13" class="edge">
<title>Node12&#45;&gt;Node11</title>
<path fill="none" stroke="#9a32cd" stroke-dasharray="5,2" d="M846.3,-277.8C916.89,-277.8 1016.32,-277.8 1088.73,-277.8"/>
<polygon fill="#9a32cd" stroke="#9a32cd" points="846.1,-274.3 836.1,-277.8 846.1,-281.3 846.1,-274.3"/>
<text text-anchor="middle" x="962.5" y="-280.8" font-family="Helvetica,sans-Serif" font-size="10.00"> elements</text>
</g>
<!-- Node13&#45;&gt;Node12 -->
<g id="edge14" class="edge">
<title>Node13&#45;&gt;Node12</title>
<path fill="none" stroke="#9a32cd" stroke-dasharray="5,2" d="M576.31,-248.93C614.48,-255.01 661.26,-262.46 697.72,-268.27"/>
<polygon fill="#9a32cd" stroke="#9a32cd" points="576.73,-245.45 566.3,-247.33 575.63,-252.36 576.73,-245.45"/>
<text text-anchor="middle" x="632" y="-264.8" font-family="Helvetica,sans-Serif" font-size="10.00"> paramSubst</text>
</g>
<!-- Node14&#45;&gt;Node13 -->
<g id="edge16" class="edge">
<title>Node14&#45;&gt;Node13</title>
<path fill="none" stroke="#9a32cd" stroke-dasharray="5,2" d="M300.01,-202.08C347.29,-210.34 407,-220.77 449.66,-228.22"/>
<polygon fill="#9a32cd" stroke="#9a32cd" points="300.57,-198.62 290.12,-200.35 299.37,-205.52 300.57,-198.62"/>
<text text-anchor="middle" x="359" y="-222.8" font-family="Helvetica,sans-Serif" font-size="10.00"> parametersByName</text>
</g>
<!-- Node15&#45;&gt;Node13 -->
<g id="edge18" class="edge">
<title>Node15&#45;&gt;Node13</title>
<path fill="none" stroke="#9a32cd" stroke-dasharray="5,2" d="M299.19,-237.8C341.04,-237.8 392.81,-237.8 433.9,-237.8"/>
<polygon fill="#9a32cd" stroke="#9a32cd" points="299.06,-234.3 289.06,-237.8 299.06,-241.3 299.06,-234.3"/>
<text text-anchor="middle" x="359" y="-240.8" font-family="Helvetica,sans-Serif" font-size="10.00"> parameterValues</text>
</g>
<!-- Node16 -->
<g id="node16" class="node">
<title>Node16</title>
<g id="a_node16"><a xlink:title=" ">
<polygon fill="white" stroke="#bfbfbf" points="170,-124.8 170,-154.8 276,-154.8 276,-124.8 170,-124.8"/>
<text text-anchor="start" x="178" y="-142.8" font-family="Helvetica,sans-Serif" font-size="10.00">std::vector&lt; const</text>
<text text-anchor="middle" x="223" y="-131.8" font-family="Helvetica,sans-Serif" font-size="10.00"> IR::Parameter * &gt;</text>
</a>
</g>
</g>
<!-- Node16&#45;&gt;Node13 -->
<g id="edge20" class="edge">
<title>Node16&#45;&gt;Node13</title>
<path fill="none" stroke="#9a32cd" stroke-dasharray="5,2" d="M286.33,-152.59C322.98,-161.01 369.84,-173.32 410,-188.8 438.8,-199.9 470.24,-217.37 488.62,-228.18"/>
<polygon fill="#9a32cd" stroke="#9a32cd" points="286.81,-149.11 276.28,-150.33 285.27,-155.94 286.81,-149.11"/>
<text text-anchor="middle" x="359" y="-191.8" font-family="Helvetica,sans-Serif" font-size="10.00"> parameters</text>
</g>
<!-- Node17 -->
<g id="node17" class="node">
<title>Node17</title>
<g id="a_node17"><a xlink:href="class_p4_1_1_type_variable_substitution.html" target="_top" xlink:title=" ">
<polygon fill="white" stroke="black" points="428,-307.3 428,-326.3 583,-326.3 583,-307.3 428,-307.3"/>
<text text-anchor="middle" x="505.5" y="-314.3" font-family="Helvetica,sans-Serif" font-size="10.00">P4::TypeVariableSubstitution</text>
</a>
</g>
</g>
<!-- Node17&#45;&gt;Node12 -->
<g id="edge21" class="edge">
<title>Node17&#45;&gt;Node12</title>
<path fill="none" stroke="#9a32cd" stroke-dasharray="5,2" d="M578.91,-305.78C605.37,-301.73 635.55,-297.08 663,-292.8 674.24,-291.05 686.24,-289.16 697.77,-287.33"/>
<polygon fill="#9a32cd" stroke="#9a32cd" points="578.31,-302.33 568.96,-307.3 579.37,-309.25 578.31,-302.33"/>
<text text-anchor="middle" x="632" y="-304.8" font-family="Helvetica,sans-Serif" font-size="10.00"> tvs</text>
</g>
<!-- Node18&#45;&gt;Node17 -->
<g id="edge22" class="edge">
<title>Node18&#45;&gt;Node17</title>
<path fill="none" stroke="midnightblue" d="M300.26,-323.35C339.9,-322.08 388.21,-320.53 427.9,-319.26"/>
<polygon fill="midnightblue" stroke="midnightblue" points="300,-319.86 290.12,-323.68 300.23,-326.86 300,-319.86"/>
</g>
<!-- Node19 -->
<g id="node19" class="node">
<title>Node19</title>
<g id="a_node19"><a xlink:href="class_p4_1_1_sym_rename_map.html" target="_top" xlink:title=" ">
<polygon fill="white" stroke="black" points="446.5,-268.3 446.5,-287.3 564.5,-287.3 564.5,-268.3 446.5,-268.3"/>
<text text-anchor="middle" x="505.5" y="-275.3" font-family="Helvetica,sans-Serif" font-size="10.00">P4::SymRenameMap</text>
</a>
</g>
</g>
<!-- Node19&#45;&gt;Node12 -->
<g id="edge24" class="edge">
<title>Node19&#45;&gt;Node12</title>
<path fill="none" stroke="#9a32cd" stroke-dasharray="5,2" d="M575.07,-277.8C607.73,-277.8 646.91,-277.8 680.57,-277.8"/>
<polygon fill="#9a32cd" stroke="#9a32cd" points="574.72,-274.3 564.72,-277.8 574.72,-281.3 574.72,-274.3"/>
<text text-anchor="middle" x="632" y="-280.8" font-family="Helvetica,sans-Serif" font-size="10.00"> renameMap</text>
</g>
<!-- Node20 -->
<g id="node20" class="node">
<title>Node20</title>
<g id="a_node20"><a xlink:title=" ">
<polygon fill="white" stroke="#bfbfbf" points="1110.5,-197.3 1110.5,-238.3 1256.5,-238.3 1256.5,-197.3 1110.5,-197.3"/>
<text text-anchor="start" x="1118.5" y="-226.3" font-family="Helvetica,sans-Serif" font-size="10.00">std::map&lt; const IR</text>
<text text-anchor="start" x="1118.5" y="-215.3" font-family="Helvetica,sans-Serif" font-size="10.00">::Declaration_Instance</text>
<text text-anchor="middle" x="1183.5" y="-204.3" font-family="Helvetica,sans-Serif" font-size="10.00"> *, const IR::IContainer * &gt;</text>
</a>
</g>
</g>
<!-- Node20&#45;&gt;Node4 -->
<g id="edge25" class="edge">
<title>Node20&#45;&gt;Node4</title>
<path fill="none" stroke="#9a32cd" stroke-dasharray="5,2" d="M1266.59,-217.8C1305.82,-217.8 1351.77,-217.8 1386.94,-217.8"/>
<polygon fill="#9a32cd" stroke="#9a32cd" points="1266.51,-214.3 1256.51,-217.8 1266.51,-221.3 1266.51,-214.3"/>
<text text-anchor="middle" x="1332.5" y="-220.8" font-family="Helvetica,sans-Serif" font-size="10.00"> declToCallee</text>
</g>
</g>
</svg>
