<?xml version="1.0" encoding="UTF-8" standalone="no"?>
<!DOCTYPE svg PUBLIC "-//W3C//DTD SVG 1.1//EN"
 "http://www.w3.org/Graphics/SVG/1.1/DTD/svg11.dtd">
<!-- Generated by graphviz version 2.43.0 (0)
 -->
<!-- Title: P4::InlineSummary::PerCaller Pages: 1 -->
<!--zoomable 341 -->
<svg id="main" version="1.1" xmlns="http://www.w3.org/2000/svg" xmlns:xlink="http://www.w3.org/1999/xlink" xml:space="preserve" onload="init(evt)">
<style type="text/css"><![CDATA[
.edge:hover path { stroke: red; }
.edge:hover polygon { stroke: red; fill: red; }
]]></style>
<script type="text/javascript"><![CDATA[
var edges = document.getElementsByTagName('g');
if (edges && edges.length) {
  for (var i=0;i<edges.length;i++) {
    if (edges[i].id.substr(0,4)=='edge') {
      edges[i].setAttribute('class','edge');
    }
  }
}
]]></script>
        <defs>
                <circle id="rim" cx="0" cy="0" r="7"/>
                <circle id="rim2" cx="0" cy="0" r="3.5"/>
                <g id="zoomPlus">
                        <use xlink:href="#rim" fill="#404040">
                                <set attributeName="fill" to="#808080" begin="zoomplus.mouseover" end="zoomplus.mouseout"/>
                        </use>
                        <path d="M-4,0h8M0,-4v8" fill="none" stroke="white" stroke-width="1.5" pointer-events="none"/>
                </g>
                <g id="zoomMin">
                        <use xlink:href="#rim" fill="#404040">
                                <set attributeName="fill" to="#808080" begin="zoomminus.mouseover" end="zoomminus.mouseout"/>
                        </use>
                        <path d="M-4,0h8" fill="none" stroke="white" stroke-width="1.5" pointer-events="none"/>
                </g>
                <g id="dirArrow">
                        <path fill="none" stroke="white" stroke-width="1.5" d="M0,-3.0v7 M-2.5,-0.5L0,-3.0L2.5,-0.5"/>
                </g>
               <g id="resetDef">
                       <use xlink:href="#rim2" fill="#404040">
                               <set attributeName="fill" to="#808080" begin="reset.mouseover" end="reset.mouseout"/>
                       </use>
               </g>
        </defs>

<script type="text/javascript">
var viewWidth = 1509;
var viewHeight = 341;
var sectionId = 'dynsection-0';
</script>
<script xlink:href="svgpan.js"/>
<svg id="graph" class="graph">
<g id="viewport">
<title>P4::InlineSummary::PerCaller</title>
<polygon fill="white" stroke="transparent" points="-4,4 -4,-337 1505,-337 1505,4 -4,4"/>
<!-- Node1 -->
<g id="node1" class="node">
<title>Node1</title>
<g id="a_node1"><a xlink:title="Various substitutions that must be applied for each instance.">
<polygon fill="#bfbfbf" stroke="black" points="1387,-105 1387,-135 1501,-135 1501,-105 1387,-105"/>
<text text-anchor="start" x="1395" y="-123" font-family="Helvetica,sans-Serif" font-size="10.00">P4::InlineSummary::</text>
<text text-anchor="middle" x="1444" y="-112" font-family="Helvetica,sans-Serif" font-size="10.00">PerCaller</text>
</a>
</g>
</g>
<!-- Node2 -->
<g id="node2" class="node">
<title>Node2</title>
<g id="a_node2"><a xlink:title=" ">
<polygon fill="white" stroke="#bfbfbf" points="854,-201.5 854,-264.5 1071,-264.5 1071,-201.5 854,-201.5"/>
<text text-anchor="start" x="862" y="-252.5" font-family="Helvetica,sans-Serif" font-size="10.00">std::unordered_map</text>
<text text-anchor="start" x="862" y="-241.5" font-family="Helvetica,sans-Serif" font-size="10.00">&lt; const InlinedInvocationInfo,</text>
<text text-anchor="start" x="862" y="-230.5" font-family="Helvetica,sans-Serif" font-size="10.00"> const IR::ID, P4::InlineSummary</text>
<text text-anchor="start" x="862" y="-219.5" font-family="Helvetica,sans-Serif" font-size="10.00">::PerCaller::key_hash, P4::InlineSummary</text>
<text text-anchor="middle" x="962.5" y="-208.5" font-family="Helvetica,sans-Serif" font-size="10.00">::PerCaller::key_equal &gt;</text>
</a>
</g>
</g>
<!-- Node2&#45;&gt;Node1 -->
<g id="edge1" class="edge">
<title>Node2&#45;&gt;Node1</title>
<path fill="none" stroke="#9a32cd" stroke-dasharray="5,2" d="M1081.51,-218.82C1140.9,-210.53 1213.75,-198.59 1278,-183 1319.38,-172.96 1329.28,-168.36 1369,-153 1383.04,-147.57 1398.27,-140.92 1411.24,-135.01"/>
<polygon fill="#9a32cd" stroke="#9a32cd" points="1080.77,-215.39 1071.34,-220.22 1081.72,-222.32 1080.77,-215.39"/>
<text text-anchor="middle" x="1183.5" y="-220" font-family="Helvetica,sans-Serif" font-size="10.00"> invocationToState</text>
</g>
<!-- Node3 -->
<g id="node3" class="node">
<title>Node3</title>
<g id="a_node3"><a xlink:href="struct_i_r_1_1_i_d.html" target="_top" xlink:title=" ">
<polygon fill="white" stroke="black" points="484,-255.5 484,-274.5 527,-274.5 527,-255.5 484,-255.5"/>
<text text-anchor="middle" x="505.5" y="-262.5" font-family="Helvetica,sans-Serif" font-size="10.00">IR::ID</text>
</a>
</g>
</g>
<!-- Node3&#45;&gt;Node2 -->
<g id="edge2" class="edge">
<title>Node3&#45;&gt;Node2</title>
<path fill="none" stroke="#9a32cd" stroke-dasharray="5,2" d="M537.45,-262.82C601.38,-258.33 750.68,-247.83 853.9,-240.57"/>
<polygon fill="#9a32cd" stroke="#9a32cd" points="536.96,-259.35 527.23,-263.54 537.45,-266.33 536.96,-259.35"/>
<text text-anchor="middle" x="632" y="-261" font-family="Helvetica,sans-Serif" font-size="10.00"> elements</text>
</g>
<!-- Node4 -->
<g id="node4" class="node">
<title>Node4</title>
<g id="a_node4"><a xlink:href="class_util_1_1_i_has_source_info.html" target="_top" xlink:title=" ">
<polygon fill="white" stroke="black" points="166.5,-237.5 166.5,-256.5 279.5,-256.5 279.5,-237.5 166.5,-237.5"/>
<text text-anchor="middle" x="223" y="-244.5" font-family="Helvetica,sans-Serif" font-size="10.00">Util::IHasSourceInfo</text>
</a>
</g>
</g>
<!-- Node4&#45;&gt;Node3 -->
<g id="edge3" class="edge">
<title>Node4&#45;&gt;Node3</title>
<path fill="none" stroke="midnightblue" d="M289.97,-251.23C352.81,-255.27 443.6,-261.09 483.9,-263.68"/>
<polygon fill="midnightblue" stroke="midnightblue" points="289.96,-247.73 279.75,-250.58 289.51,-254.71 289.96,-247.73"/>
</g>
<!-- Node5 -->
<g id="node5" class="node">
<title>Node5</title>
<g id="a_node5"><a xlink:href="class_util_1_1_source_info.html" target="_top" xlink:title=" ">
<polygon fill="white" stroke="black" points="177,-275.5 177,-294.5 269,-294.5 269,-275.5 177,-275.5"/>
<text text-anchor="middle" x="223" y="-282.5" font-family="Helvetica,sans-Serif" font-size="10.00">Util::SourceInfo</text>
</a>
</g>
</g>
<!-- Node5&#45;&gt;Node3 -->
<g id="edge4" class="edge">
<title>Node5&#45;&gt;Node3</title>
<path fill="none" stroke="#9a32cd" stroke-dasharray="5,2" d="M279.19,-281.06C341.93,-276.59 441.15,-269.52 483.85,-266.47"/>
<polygon fill="#9a32cd" stroke="#9a32cd" points="278.79,-277.58 269.07,-281.79 279.29,-284.57 278.79,-277.58"/>
<text text-anchor="middle" x="359" y="-281" font-family="Helvetica,sans-Serif" font-size="10.00"> srcInfo</text>
</g>
<!-- Node6 -->
<g id="node6" class="node">
<title>Node6</title>
<g id="a_node6"><a xlink:href="classcstring.html" target="_top" xlink:title=" ">
<polygon fill="white" stroke="black" points="12,-234.5 12,-253.5 62,-253.5 62,-234.5 12,-234.5"/>
<text text-anchor="middle" x="37" y="-241.5" font-family="Helvetica,sans-Serif" font-size="10.00">cstring</text>
</a>
</g>
</g>
<!-- Node6&#45;&gt;Node3 -->
<g id="edge7" class="edge">
<title>Node6&#45;&gt;Node3</title>
<path fill="none" stroke="#9a32cd" stroke-dasharray="5,2" d="M53.25,-261.16C63.27,-271.37 77.22,-283.71 92,-291 118.03,-303.84 127.12,-301.1 156,-304 268.43,-315.3 299.03,-314.31 410,-293 435.88,-288.03 464.82,-278.91 483.77,-272.43"/>
<polygon fill="#9a32cd" stroke="#9a32cd" points="55.52,-258.46 46.12,-253.57 50.41,-263.25 55.52,-258.46"/>
<text text-anchor="middle" x="223" y="-325" font-family="Helvetica,sans-Serif" font-size="10.00"> name</text>
<text text-anchor="middle" x="223" y="-314" font-family="Helvetica,sans-Serif" font-size="10.00">originalName</text>
</g>
<!-- Node6&#45;&gt;Node5 -->
<g id="edge5" class="edge">
<title>Node6&#45;&gt;Node5</title>
<path fill="none" stroke="#9a32cd" stroke-dasharray="5,2" d="M72.13,-251.6C102.38,-258.34 146.68,-268.22 179.28,-275.48"/>
<polygon fill="#9a32cd" stroke="#9a32cd" points="72.58,-248.12 62.05,-249.36 71.05,-254.95 72.58,-248.12"/>
<text text-anchor="middle" x="115" y="-279" font-family="Helvetica,sans-Serif" font-size="10.00"> filename</text>
<text text-anchor="middle" x="115" y="-268" font-family="Helvetica,sans-Serif" font-size="10.00">srcBrief</text>
</g>
<!-- Node6&#45;&gt;Node6 -->
<g id="edge6" class="edge">
<title>Node6&#45;&gt;Node6</title>
<path fill="none" stroke="#9a32cd" stroke-dasharray="5,2" d="M22.64,-263.77C23.76,-268.5 28.55,-272 37,-272 50.86,-272 54.87,-262.57 49.02,-253.76"/>
<polygon fill="#9a32cd" stroke="#9a32cd" points="26.11,-264.29 24.98,-253.76 19.29,-262.7 26.11,-264.29"/>
<text text-anchor="middle" x="37" y="-286" font-family="Helvetica,sans-Serif" font-size="10.00"> empty</text>
<text text-anchor="middle" x="37" y="-275" font-family="Helvetica,sans-Serif" font-size="10.00">newline</text>
</g>
<!-- Node12 -->
<g id="node12" class="node">
<title>Node12</title>
<g id="a_node12"><a xlink:title=" ">
<polygon fill="white" stroke="#bfbfbf" points="156,-188 156,-218 290,-218 290,-188 156,-188"/>
<text text-anchor="start" x="164" y="-206" font-family="Helvetica,sans-Serif" font-size="10.00">std::map&lt; cstring,</text>
<text text-anchor="middle" x="223" y="-195" font-family="Helvetica,sans-Serif" font-size="10.00"> const IR::Parameter * &gt;</text>
</a>
</g>
</g>
<!-- Node6&#45;&gt;Node12 -->
<g id="edge14" class="edge">
<title>Node6&#45;&gt;Node12</title>
<path fill="none" stroke="#9a32cd" stroke-dasharray="5,2" d="M71.89,-236.45C95.4,-231.21 127.48,-224.06 155.95,-217.72"/>
<polygon fill="#9a32cd" stroke="#9a32cd" points="71.05,-233.05 62.05,-238.64 72.58,-239.88 71.05,-233.05"/>
<text text-anchor="middle" x="115" y="-234" font-family="Helvetica,sans-Serif" font-size="10.00"> keys</text>
</g>
<!-- Node13 -->
<g id="node13" class="node">
<title>Node13</title>
<g id="a_node13"><a xlink:title=" ">
<polygon fill="white" stroke="#bfbfbf" points="157,-90 157,-120 289,-120 289,-90 157,-90"/>
<text text-anchor="start" x="165" y="-108" font-family="Helvetica,sans-Serif" font-size="10.00">std::map&lt; cstring,</text>
<text text-anchor="middle" x="223" y="-97" font-family="Helvetica,sans-Serif" font-size="10.00"> const IR::Argument * &gt;</text>
</a>
</g>
</g>
<!-- Node6&#45;&gt;Node13 -->
<g id="edge16" class="edge">
<title>Node6&#45;&gt;Node13</title>
<path fill="none" stroke="#9a32cd" stroke-dasharray="5,2" d="M51.95,-226.64C72.45,-202.11 112.96,-157.29 156,-130 161.9,-126.26 168.44,-122.95 175.05,-120.05"/>
<polygon fill="#9a32cd" stroke="#9a32cd" points="49.21,-224.45 45.56,-234.4 54.62,-228.9 49.21,-224.45"/>
<text text-anchor="middle" x="115" y="-183" font-family="Helvetica,sans-Serif" font-size="10.00"> keys</text>
</g>
<!-- Node7 -->
<g id="node7" class="node">
<title>Node7</title>
<g id="a_node7"><a xlink:title=" ">
<polygon fill="white" stroke="#bfbfbf" points="1117.5,-61 1117.5,-113 1249.5,-113 1249.5,-61 1117.5,-61"/>
<text text-anchor="start" x="1125.5" y="-101" font-family="Helvetica,sans-Serif" font-size="10.00">std::map&lt; const IR</text>
<text text-anchor="start" x="1125.5" y="-90" font-family="Helvetica,sans-Serif" font-size="10.00">::MethodCallStatement</text>
<text text-anchor="start" x="1125.5" y="-79" font-family="Helvetica,sans-Serif" font-size="10.00"> *, const IR::Declaration</text>
<text text-anchor="middle" x="1183.5" y="-68" font-family="Helvetica,sans-Serif" font-size="10.00">_Instance * &gt;</text>
</a>
</g>
</g>
<!-- Node7&#45;&gt;Node1 -->
<g id="edge8" class="edge">
<title>Node7&#45;&gt;Node1</title>
<path fill="none" stroke="#9a32cd" stroke-dasharray="5,2" d="M1259.82,-91.87C1293.36,-94.57 1333.27,-98.51 1369,-104 1374.85,-104.9 1380.92,-105.97 1386.97,-107.14"/>
<polygon fill="#9a32cd" stroke="#9a32cd" points="1259.87,-88.36 1249.63,-91.07 1259.32,-95.34 1259.87,-88.36"/>
<text text-anchor="middle" x="1332.5" y="-107" font-family="Helvetica,sans-Serif" font-size="10.00"> callToInstance</text>
</g>
<!-- Node8 -->
<g id="node8" class="node">
<title>Node8</title>
<g id="a_node8"><a xlink:title=" ">
<polygon fill="white" stroke="#bfbfbf" points="1089,-132.5 1089,-173.5 1278,-173.5 1278,-132.5 1089,-132.5"/>
<text text-anchor="start" x="1097" y="-161.5" font-family="Helvetica,sans-Serif" font-size="10.00">std::map&lt; const IR</text>
<text text-anchor="start" x="1097" y="-150.5" font-family="Helvetica,sans-Serif" font-size="10.00">::Declaration_Instance</text>
<text text-anchor="middle" x="1183.5" y="-139.5" font-family="Helvetica,sans-Serif" font-size="10.00"> *, P4::PerInstanceSubstitutions * &gt;</text>
</a>
</g>
</g>
<!-- Node8&#45;&gt;Node1 -->
<g id="edge9" class="edge">
<title>Node8&#45;&gt;Node1</title>
<path fill="none" stroke="#9a32cd" stroke-dasharray="5,2" d="M1288.53,-139.72C1322.12,-135.43 1358.07,-130.84 1386.83,-127.17"/>
<polygon fill="#9a32cd" stroke="#9a32cd" points="1287.67,-136.3 1278.19,-141.04 1288.55,-143.25 1287.67,-136.3"/>
<text text-anchor="middle" x="1332.5" y="-141" font-family="Helvetica,sans-Serif" font-size="10.00"> substitutions</text>
</g>
<!-- Node9 -->
<g id="node9" class="node">
<title>Node9</title>
<g id="a_node9"><a xlink:href="struct_p4_1_1_per_instance_substitutions.html" target="_top" xlink:title=" ">
<polygon fill="white" stroke="black" points="681,-135.5 681,-154.5 836,-154.5 836,-135.5 681,-135.5"/>
<text text-anchor="middle" x="758.5" y="-142.5" font-family="Helvetica,sans-Serif" font-size="10.00">P4::PerInstanceSubstitutions</text>
</a>
</g>
</g>
<!-- Node9&#45;&gt;Node8 -->
<g id="edge10" class="edge">
<title>Node9&#45;&gt;Node8</title>
<path fill="none" stroke="#9a32cd" stroke-dasharray="5,2" d="M846.3,-146.64C916.89,-147.98 1016.32,-149.86 1088.73,-151.23"/>
<polygon fill="#9a32cd" stroke="#9a32cd" points="846.17,-143.14 836.1,-146.45 846.03,-150.14 846.17,-143.14"/>
<text text-anchor="middle" x="962.5" y="-153" font-family="Helvetica,sans-Serif" font-size="10.00"> elements</text>
</g>
<!-- Node10 -->
<g id="node10" class="node">
<title>Node10</title>
<g id="a_node10"><a xlink:href="class_p4_1_1_parameter_substitution.html" target="_top" xlink:title=" ">
<polygon fill="white" stroke="black" points="434,-126.5 434,-145.5 577,-145.5 577,-126.5 434,-126.5"/>
<text text-anchor="middle" x="505.5" y="-133.5" font-family="Helvetica,sans-Serif" font-size="10.00">P4::ParameterSubstitution</text>
</a>
</g>
</g>
<!-- Node10&#45;&gt;Node9 -->
<g id="edge11" class="edge">
<title>Node10&#45;&gt;Node9</title>
<path fill="none" stroke="#9a32cd" stroke-dasharray="5,2" d="M587.28,-138.42C611.62,-139.19 638.4,-140.09 663,-141 668.83,-141.22 674.85,-141.45 680.91,-141.69"/>
<polygon fill="#9a32cd" stroke="#9a32cd" points="587.12,-134.91 577.01,-138.1 586.89,-141.91 587.12,-134.91"/>
<text text-anchor="middle" x="632" y="-144" font-family="Helvetica,sans-Serif" font-size="10.00"> paramSubst</text>
</g>
<!-- Node11 -->
<g id="node11" class="node">
<title>Node11</title>
<g id="a_node11"><a xlink:href="class_i_has_db_print.html" target="_top" xlink:title=" ">
<polygon fill="white" stroke="black" points="0,-34.5 0,-53.5 74,-53.5 74,-34.5 0,-34.5"/>
<text text-anchor="middle" x="37" y="-41.5" font-family="Helvetica,sans-Serif" font-size="10.00">IHasDbPrint</text>
</a>
</g>
</g>
<!-- Node11&#45;&gt;Node10 -->
<g id="edge12" class="edge">
<title>Node11&#45;&gt;Node10</title>
<path fill="none" stroke="midnightblue" d="M84.07,-49.37C134.78,-55.61 218.58,-66.86 290,-81 343.93,-91.67 356.76,-97.3 410,-111 429.39,-115.99 450.99,-121.69 468.63,-126.39"/>
<polygon fill="midnightblue" stroke="midnightblue" points="84.43,-45.89 74.08,-48.16 83.58,-52.84 84.43,-45.89"/>
</g>
<!-- Node16 -->
<g id="node16" class="node">
<title>Node16</title>
<g id="a_node16"><a xlink:href="class_p4_1_1_type_substitution.html" target="_top" xlink:title=" ">
<polygon fill="white" stroke="black" points="156,-2 156,-32 290,-32 290,-2 156,-2"/>
<text text-anchor="start" x="164" y="-20" font-family="Helvetica,sans-Serif" font-size="10.00">P4::TypeSubstitution</text>
<text text-anchor="middle" x="223" y="-9" font-family="Helvetica,sans-Serif" font-size="10.00">&lt; const IR::ITypeVar * &gt;</text>
</a>
</g>
</g>
<!-- Node11&#45;&gt;Node16 -->
<g id="edge20" class="edge">
<title>Node11&#45;&gt;Node16</title>
<path fill="none" stroke="midnightblue" d="M84.29,-37.21C105.97,-34.03 132.21,-30.18 155.93,-26.69"/>
<polygon fill="midnightblue" stroke="midnightblue" points="83.74,-33.75 74.35,-38.67 84.75,-40.68 83.74,-33.75"/>
</g>
<!-- Node12&#45;&gt;Node10 -->
<g id="edge13" class="edge">
<title>Node12&#45;&gt;Node10</title>
<path fill="none" stroke="#9a32cd" stroke-dasharray="5,2" d="M300.18,-190.3C334.21,-183.69 374.56,-174.55 410,-163 418.32,-160.29 419.72,-157.84 428,-155 438.35,-151.44 449.71,-148.25 460.42,-145.55"/>
<polygon fill="#9a32cd" stroke="#9a32cd" points="299.47,-186.87 290.3,-192.18 300.78,-193.75 299.47,-186.87"/>
<text text-anchor="middle" x="359" y="-191" font-family="Helvetica,sans-Serif" font-size="10.00"> parametersByName</text>
</g>
<!-- Node13&#45;&gt;Node10 -->
<g id="edge15" class="edge">
<title>Node13&#45;&gt;Node10</title>
<path fill="none" stroke="#9a32cd" stroke-dasharray="5,2" d="M299.19,-113.31C341.04,-117.94 392.81,-123.66 433.9,-128.2"/>
<polygon fill="#9a32cd" stroke="#9a32cd" points="299.38,-109.81 289.06,-112.19 298.61,-116.77 299.38,-109.81"/>
<text text-anchor="middle" x="359" y="-128" font-family="Helvetica,sans-Serif" font-size="10.00"> parameterValues</text>
</g>
<!-- Node14 -->
<g id="node14" class="node">
<title>Node14</title>
<g id="a_node14"><a xlink:title=" ">
<polygon fill="white" stroke="#bfbfbf" points="170,-139 170,-169 276,-169 276,-139 170,-139"/>
<text text-anchor="start" x="178" y="-157" font-family="Helvetica,sans-Serif" font-size="10.00">std::vector&lt; const</text>
<text text-anchor="middle" x="223" y="-146" font-family="Helvetica,sans-Serif" font-size="10.00"> IR::Parameter * &gt;</text>
</a>
</g>
</g>
<!-- Node14&#45;&gt;Node10 -->
<g id="edge17" class="edge">
<title>Node14&#45;&gt;Node10</title>
<path fill="none" stroke="#9a32cd" stroke-dasharray="5,2" d="M286.31,-150C330,-147.2 388.48,-143.44 433.9,-140.53"/>
<polygon fill="#9a32cd" stroke="#9a32cd" points="285.86,-146.52 276.1,-150.66 286.31,-153.51 285.86,-146.52"/>
<text text-anchor="middle" x="359" y="-151" font-family="Helvetica,sans-Serif" font-size="10.00"> parameters</text>
</g>
<!-- Node15 -->
<g id="node15" class="node">
<title>Node15</title>
<g id="a_node15"><a xlink:href="class_p4_1_1_type_variable_substitution.html" target="_top" xlink:title=" ">
<polygon fill="white" stroke="black" points="428,-68.5 428,-87.5 583,-87.5 583,-68.5 428,-68.5"/>
<text text-anchor="middle" x="505.5" y="-75.5" font-family="Helvetica,sans-Serif" font-size="10.00">P4::TypeVariableSubstitution</text>
</a>
</g>
</g>
<!-- Node15&#45;&gt;Node9 -->
<g id="edge18" class="edge">
<title>Node15&#45;&gt;Node9</title>
<path fill="none" stroke="#9a32cd" stroke-dasharray="5,2" d="M552.15,-90.18C600.82,-103.18 676.91,-123.49 721.52,-135.4"/>
<polygon fill="#9a32cd" stroke="#9a32cd" points="552.76,-86.73 542.2,-87.53 550.95,-93.49 552.76,-86.73"/>
<text text-anchor="middle" x="632" y="-122" font-family="Helvetica,sans-Serif" font-size="10.00"> tvs</text>
</g>
<!-- Node16&#45;&gt;Node15 -->
<g id="edge19" class="edge">
<title>Node16&#45;&gt;Node15</title>
<path fill="none" stroke="midnightblue" d="M300.63,-26.59C334.41,-31.53 374.43,-38.35 410,-47 433.82,-52.79 460.29,-61.7 479.14,-68.48"/>
<polygon fill="midnightblue" stroke="midnightblue" points="300.75,-23.08 290.36,-25.12 299.76,-30.01 300.75,-23.08"/>
</g>
<!-- Node17 -->
<g id="node17" class="node">
<title>Node17</title>
<g id="a_node17"><a xlink:href="class_p4_1_1_sym_rename_map.html" target="_top" xlink:title=" ">
<polygon fill="white" stroke="black" points="446.5,-164.5 446.5,-183.5 564.5,-183.5 564.5,-164.5 446.5,-164.5"/>
<text text-anchor="middle" x="505.5" y="-171.5" font-family="Helvetica,sans-Serif" font-size="10.00">P4::SymRenameMap</text>
</a>
</g>
</g>
<!-- Node17&#45;&gt;Node9 -->
<g id="edge21" class="edge">
<title>Node17&#45;&gt;Node9</title>
<path fill="none" stroke="#9a32cd" stroke-dasharray="5,2" d="M575.07,-166.08C607.73,-162.3 646.91,-157.78 680.57,-153.89"/>
<polygon fill="#9a32cd" stroke="#9a32cd" points="574.25,-162.65 564.72,-167.27 575.05,-169.6 574.25,-162.65"/>
<text text-anchor="middle" x="632" y="-165" font-family="Helvetica,sans-Serif" font-size="10.00"> renameMap</text>
</g>
<!-- Node18 -->
<g id="node18" class="node">
<title>Node18</title>
<g id="a_node18"><a xlink:title=" ">
<polygon fill="white" stroke="#bfbfbf" points="1110.5,-0.5 1110.5,-41.5 1256.5,-41.5 1256.5,-0.5 1110.5,-0.5"/>
<text text-anchor="start" x="1118.5" y="-29.5" font-family="Helvetica,sans-Serif" font-size="10.00">std::map&lt; const IR</text>
<text text-anchor="start" x="1118.5" y="-18.5" font-family="Helvetica,sans-Serif" font-size="10.00">::Declaration_Instance</text>
<text text-anchor="middle" x="1183.5" y="-7.5" font-family="Helvetica,sans-Serif" font-size="10.00"> *, const IR::IContainer * &gt;</text>
</a>
</g>
</g>
<!-- Node18&#45;&gt;Node1 -->
<g id="edge22" class="edge">
<title>Node18&#45;&gt;Node1</title>
<path fill="none" stroke="#9a32cd" stroke-dasharray="5,2" d="M1266.49,-43.64C1298.91,-53.51 1336.19,-66.03 1369,-80 1385.8,-87.15 1403.83,-96.86 1417.89,-104.91"/>
<polygon fill="#9a32cd" stroke="#9a32cd" points="1267.18,-40.19 1256.59,-40.66 1265.16,-46.89 1267.18,-40.19"/>
<text text-anchor="middle" x="1332.5" y="-83" font-family="Helvetica,sans-Serif" font-size="10.00"> declToCallee</text>
</g>
</g>
</svg>
        <g id="navigator" transform="translate(0 0)" fill="#404254">
                <rect fill="#f2f5e9" fill-opacity="0.5" stroke="#606060" stroke-width=".5" x="0" y="0" width="60" height="60"/>
                <use id="zoomplus" xlink:href="#zoomPlus" x="17" y="9" onmousedown="handleZoom(evt,'in')"/>
                <use id="zoomminus" xlink:href="#zoomMin" x="42" y="9" onmousedown="handleZoom(evt,'out')"/>
                <use id="reset" xlink:href="#resetDef" x="30" y="36" onmousedown="handleReset()"/>
                <g id="arrowUp" xlink:href="#dirArrow" transform="translate(30 24)" onmousedown="handlePan(0,-1)">
                  <use xlink:href="#rim" fill="#404040">
                        <set attributeName="fill" to="#808080" begin="arrowUp.mouseover" end="arrowUp.mouseout"/>
                  </use>
                  <path fill="none" stroke="white" stroke-width="1.5" d="M0,-3.0v7 M-2.5,-0.5L0,-3.0L2.5,-0.5"/>
                </g>
                <g id="arrowRight" xlink:href="#dirArrow" transform="rotate(90) translate(36 -43)" onmousedown="handlePan(1,0)">
                  <use xlink:href="#rim" fill="#404040">
                        <set attributeName="fill" to="#808080" begin="arrowRight.mouseover" end="arrowRight.mouseout"/>
                  </use>
                  <path fill="none" stroke="white" stroke-width="1.5" d="M0,-3.0v7 M-2.5,-0.5L0,-3.0L2.5,-0.5"/>
                </g>
                <g id="arrowDown" xlink:href="#dirArrow" transform="rotate(180) translate(-30 -48)" onmousedown="handlePan(0,1)">
                  <use xlink:href="#rim" fill="#404040">
                        <set attributeName="fill" to="#808080" begin="arrowDown.mouseover" end="arrowDown.mouseout"/>
                  </use>
                  <path fill="none" stroke="white" stroke-width="1.5" d="M0,-3.0v7 M-2.5,-0.5L0,-3.0L2.5,-0.5"/>
                </g>
                <g id="arrowLeft" xlink:href="#dirArrow" transform="rotate(270) translate(-36 17)" onmousedown="handlePan(-1,0)">
                  <use xlink:href="#rim" fill="#404040">
                        <set attributeName="fill" to="#808080" begin="arrowLeft.mouseover" end="arrowLeft.mouseout"/>
                  </use>
                  <path fill="none" stroke="white" stroke-width="1.5" d="M0,-3.0v7 M-2.5,-0.5L0,-3.0L2.5,-0.5"/>
                </g>
        </g>
        <svg viewBox="0 0 15 15" width="100%" height="30px" preserveAspectRatio="xMaxYMin meet">
         <g id="arrow_out" transform="scale(0.3 0.3)">
          <a xlink:href="struct_p4_1_1_inline_summary_1_1_per_caller__coll__graph_org.svg" target="_base">
           <rect id="button" ry="5" rx="5" y="6" x="6" height="38" width="38"
                fill="#f2f5e9" fill-opacity="0.5" stroke="#606060" stroke-width="1.0"/>
           <path id="arrow"
             d="M 11.500037,31.436501 C 11.940474,20.09759 22.043105,11.32322 32.158766,21.979434 L 37.068811,17.246167 C 37.068811,17.246167 37.088388,32 37.088388,32 L 22.160133,31.978069 C 22.160133,31.978069 26.997745,27.140456 26.997745,27.140456 C 18.528582,18.264221 13.291696,25.230495 11.500037,31.436501 z"
             style="fill:#404040;"/>
          </a>
         </g>
        </svg>
</svg>
