<?xml version="1.0" encoding="UTF-8" standalone="no"?>
<!DOCTYPE svg PUBLIC "-//W3C//DTD SVG 1.1//EN"
 "http://www.w3.org/Graphics/SVG/1.1/DTD/svg11.dtd">
<!-- Generated by graphviz version 2.43.0 (0)
 -->
<!-- Title: RTTI::Base Pages: 1 -->
<!--zoomable 1214 -->
<svg id="main" version="1.1" xmlns="http://www.w3.org/2000/svg" xmlns:xlink="http://www.w3.org/1999/xlink" xml:space="preserve" onload="init(evt)">
<style type="text/css"><![CDATA[
.edge:hover path { stroke: red; }
.edge:hover polygon { stroke: red; fill: red; }
]]></style>
<script type="text/javascript"><![CDATA[
var edges = document.getElementsByTagName('g');
if (edges && edges.length) {
  for (var i=0;i<edges.length;i++) {
    if (edges[i].id.substr(0,4)=='edge') {
      edges[i].setAttribute('class','edge');
    }
  }
}
]]></script>
        <defs>
                <circle id="rim" cx="0" cy="0" r="7"/>
                <circle id="rim2" cx="0" cy="0" r="3.5"/>
                <g id="zoomPlus">
                        <use xlink:href="#rim" fill="#404040">
                                <set attributeName="fill" to="#808080" begin="zoomplus.mouseover" end="zoomplus.mouseout"/>
                        </use>
                        <path d="M-4,0h8M0,-4v8" fill="none" stroke="white" stroke-width="1.5" pointer-events="none"/>
                </g>
                <g id="zoomMin">
                        <use xlink:href="#rim" fill="#404040">
                                <set attributeName="fill" to="#808080" begin="zoomminus.mouseover" end="zoomminus.mouseout"/>
                        </use>
                        <path d="M-4,0h8" fill="none" stroke="white" stroke-width="1.5" pointer-events="none"/>
                </g>
                <g id="dirArrow">
                        <path fill="none" stroke="white" stroke-width="1.5" d="M0,-3.0v7 M-2.5,-0.5L0,-3.0L2.5,-0.5"/>
                </g>
               <g id="resetDef">
                       <use xlink:href="#rim2" fill="#404040">
                               <set attributeName="fill" to="#808080" begin="reset.mouseover" end="reset.mouseout"/>
                       </use>
               </g>
        </defs>

<script type="text/javascript">
var viewWidth = 729;
var viewHeight = 1214;
var sectionId = 'dynsection-0';
</script>
<script xlink:href="svgpan.js"/>
<svg id="graph" class="graph">
<g id="viewport">
<title>RTTI::Base</title>
<polygon fill="white" stroke="transparent" points="-4,4 -4,-1210 725,-1210 725,4 -4,4"/>
<!-- Node1 -->
<g id="node1" class="node">
<title>Node1</title>
<g id="a_node1"><a xlink:title=" ">
<polygon fill="#bfbfbf" stroke="black" points="0,-388.5 0,-407.5 68,-407.5 68,-388.5 0,-388.5"/>
<text text-anchor="middle" x="34" y="-395.5" font-family="Helvetica,sans-Serif" font-size="10.00">RTTI::Base</text>
</a>
</g>
</g>
<!-- Node2 -->
<g id="node2" class="node">
<title>Node2</title>
<g id="a_node2"><a xlink:href="class_i_castable.html" target="_top" xlink:title=" ">
<polygon fill="white" stroke="black" points="104,-388.5 104,-407.5 166,-407.5 166,-388.5 104,-388.5"/>
<text text-anchor="middle" x="135" y="-395.5" font-family="Helvetica,sans-Serif" font-size="10.00">ICastable</text>
</a>
</g>
</g>
<!-- Node1&#45;&gt;Node2 -->
<g id="edge1" class="edge">
<title>Node1&#45;&gt;Node2</title>
<path fill="none" stroke="midnightblue" d="M78.44,-398C86.95,-398 95.71,-398 103.68,-398"/>
<polygon fill="midnightblue" stroke="midnightblue" points="78.24,-394.5 68.24,-398 78.24,-401.5 78.24,-394.5"/>
</g>
<!-- Node3 -->
<g id="node3" class="node">
<title>Node3</title>
<g id="a_node3"><a xlink:href="class_abstract_solver.html" target="_top" xlink:title="Provides a higher&#45;level interface for an SMT solver.">
<polygon fill="white" stroke="black" points="238,-1167.5 238,-1186.5 326,-1186.5 326,-1167.5 238,-1167.5"/>
<text text-anchor="middle" x="282" y="-1174.5" font-family="Helvetica,sans-Serif" font-size="10.00">AbstractSolver</text>
</a>
</g>
</g>
<!-- Node2&#45;&gt;Node3 -->
<g id="edge2" class="edge">
<title>Node2&#45;&gt;Node3</title>
<path fill="none" stroke="midnightblue" d="M135.64,-417.92C134.09,-521.19 130.98,-995.52 202,-1120 214.74,-1142.33 240.2,-1158.24 258.79,-1167.48"/>
<polygon fill="midnightblue" stroke="midnightblue" points="139.14,-417.74 135.81,-407.68 132.14,-417.62 139.14,-417.74"/>
</g>
<!-- Node5 -->
<g id="node5" class="node">
<title>Node5</title>
<g id="a_node5"><a xlink:href="class_b_m_v2_1_1_c_f_g_1_1_node.html" target="_top" xlink:title=" ">
<polygon fill="white" stroke="black" points="230.5,-1091.5 230.5,-1110.5 333.5,-1110.5 333.5,-1091.5 230.5,-1091.5"/>
<text text-anchor="middle" x="282" y="-1098.5" font-family="Helvetica,sans-Serif" font-size="10.00">BMV2::CFG::Node</text>
</a>
</g>
</g>
<!-- Node2&#45;&gt;Node5 -->
<g id="edge4" class="edge">
<title>Node2&#45;&gt;Node5</title>
<path fill="none" stroke="midnightblue" d="M137.7,-418.02C143.4,-482.11 163.67,-687.8 202,-854 223.75,-948.32 264.69,-1058.43 277.24,-1091.28"/>
<polygon fill="midnightblue" stroke="midnightblue" points="141.16,-417.4 136.81,-407.74 134.19,-418 141.16,-417.4"/>
</g>
<!-- Node9 -->
<g id="node9" class="node">
<title>Node9</title>
<g id="a_node9"><a xlink:href="struct_backtrack_1_1trigger.html" target="_top" xlink:title=" ">
<polygon fill="white" stroke="black" points="230,-825.5 230,-844.5 334,-844.5 334,-825.5 230,-825.5"/>
<text text-anchor="middle" x="282" y="-832.5" font-family="Helvetica,sans-Serif" font-size="10.00">Backtrack::trigger</text>
</a>
</g>
</g>
<!-- Node2&#45;&gt;Node9 -->
<g id="edge8" class="edge">
<title>Node2&#45;&gt;Node9</title>
<path fill="none" stroke="midnightblue" d="M136.32,-418.18C137.94,-493.51 147.47,-756.96 202,-816 209.37,-823.98 219.45,-828.88 229.95,-831.83"/>
<polygon fill="midnightblue" stroke="midnightblue" points="139.81,-417.7 136.12,-407.76 132.81,-417.83 139.81,-417.7"/>
</g>
<!-- Node10 -->
<g id="node10" class="node">
<title>Node10</title>
<g id="a_node10"><a xlink:href="class_e_b_p_f_1_1_e_b_p_f_object.html" target="_top" xlink:title=" ">
<polygon fill="white" stroke="black" points="230.5,-787.5 230.5,-806.5 333.5,-806.5 333.5,-787.5 230.5,-787.5"/>
<text text-anchor="middle" x="282" y="-794.5" font-family="Helvetica,sans-Serif" font-size="10.00">EBPF::EBPFObject</text>
</a>
</g>
</g>
<!-- Node2&#45;&gt;Node10 -->
<g id="edge9" class="edge">
<title>Node2&#45;&gt;Node10</title>
<path fill="none" stroke="midnightblue" d="M141.87,-417.73C152.86,-454.33 177.67,-535.11 202,-602 228.22,-674.08 264.58,-759.12 276.8,-787.36"/>
<polygon fill="midnightblue" stroke="midnightblue" points="145.13,-416.43 138.91,-407.85 138.42,-418.44 145.13,-416.43"/>
</g>
<!-- Node83 -->
<g id="node30" class="node">
<title>Node83</title>
<g id="a_node30"><a xlink:href="class_e_b_p_f_1_1_i_has_width.html" target="_top" xlink:title=" ">
<polygon fill="white" stroke="black" points="431.5,-578.5 431.5,-597.5 528.5,-597.5 528.5,-578.5 431.5,-578.5"/>
<text text-anchor="middle" x="480" y="-585.5" font-family="Helvetica,sans-Serif" font-size="10.00">EBPF::IHasWidth</text>
</a>
</g>
</g>
<!-- Node2&#45;&gt;Node83 -->
<g id="edge29" class="edge">
<title>Node2&#45;&gt;Node83</title>
<path fill="none" stroke="midnightblue" d="M137.09,-417.85C140.27,-454.58 152.8,-532.71 202,-569 271.83,-620.5 380.41,-608.97 438.72,-597.59"/>
<polygon fill="midnightblue" stroke="midnightblue" points="140.58,-417.59 136.37,-407.87 133.6,-418.1 140.58,-417.59"/>
</g>
<!-- Node84 -->
<g id="node31" class="node">
<title>Node84</title>
<g id="a_node31"><a xlink:href="class_i_r_1_1_i_node.html" target="_top" xlink:title=" ">
<polygon fill="white" stroke="black" points="251.5,-540.5 251.5,-559.5 312.5,-559.5 312.5,-540.5 251.5,-540.5"/>
<text text-anchor="middle" x="282" y="-547.5" font-family="Helvetica,sans-Serif" font-size="10.00">IR::INode</text>
</a>
</g>
</g>
<!-- Node2&#45;&gt;Node84 -->
<g id="edge37" class="edge">
<title>Node2&#45;&gt;Node84</title>
<path fill="none" stroke="midnightblue" d="M140.19,-417.69C147.48,-447 165.36,-501.79 202,-531 215.9,-542.08 235.25,-546.86 251.33,-548.85"/>
<polygon fill="midnightblue" stroke="midnightblue" points="143.56,-416.76 137.9,-407.81 136.75,-418.34 143.56,-416.76"/>
</g>
<!-- Node113 -->
<g id="node34" class="node">
<title>Node113</title>
<g id="a_node34"><a xlink:href="class_json_data.html" target="_top" xlink:title=" ">
<polygon fill="white" stroke="red" points="252,-502.5 252,-521.5 312,-521.5 312,-502.5 252,-502.5"/>
<text text-anchor="middle" x="282" y="-509.5" font-family="Helvetica,sans-Serif" font-size="10.00">JsonData</text>
</a>
</g>
</g>
<!-- Node2&#45;&gt;Node113 -->
<g id="edge40" class="edge">
<title>Node2&#45;&gt;Node113</title>
<path fill="none" stroke="midnightblue" d="M143.94,-416.74C154.15,-438.49 173.95,-473.82 202,-493 216.67,-503.03 236.04,-507.79 251.92,-510.04"/>
<polygon fill="midnightblue" stroke="midnightblue" points="147.11,-415.24 139.82,-407.55 140.72,-418.1 147.11,-415.24"/>
</g>
<!-- Node120 -->
<g id="node38" class="node">
<title>Node120</title>
<g id="a_node38"><a xlink:href="class_p4_1_1_instance_base.html" target="_top" xlink:title=" ">
<polygon fill="white" stroke="red" points="232,-464.5 232,-483.5 332,-483.5 332,-464.5 232,-464.5"/>
<text text-anchor="middle" x="282" y="-471.5" font-family="Helvetica,sans-Serif" font-size="10.00">P4::InstanceBase</text>
</a>
</g>
</g>
<!-- Node2&#45;&gt;Node120 -->
<g id="edge44" class="edge">
<title>Node2&#45;&gt;Node120</title>
<path fill="none" stroke="midnightblue" d="M151.26,-415C163.7,-427.85 182.37,-444.92 202,-455 211.16,-459.7 221.52,-463.27 231.65,-465.96"/>
<polygon fill="midnightblue" stroke="midnightblue" points="153.76,-412.55 144.36,-407.66 148.65,-417.34 153.76,-412.55"/>
</g>
<!-- Node139 -->
<g id="node39" class="node">
<title>Node139</title>
<g id="a_node39"><a xlink:href="class_p4_1_1_storage_location.html" target="_top" xlink:title="Abstraction for something that is has a left value (variable, parameter)">
<polygon fill="white" stroke="red" points="225.5,-426.5 225.5,-445.5 338.5,-445.5 338.5,-426.5 225.5,-426.5"/>
<text text-anchor="middle" x="282" y="-433.5" font-family="Helvetica,sans-Serif" font-size="10.00">P4::StorageLocation</text>
</a>
</g>
</g>
<!-- Node2&#45;&gt;Node139 -->
<g id="edge45" class="edge">
<title>Node2&#45;&gt;Node139</title>
<path fill="none" stroke="midnightblue" d="M175.95,-409.81C184.52,-412.26 193.55,-414.77 202,-417 214.28,-420.24 227.68,-423.55 239.91,-426.48"/>
<polygon fill="midnightblue" stroke="midnightblue" points="176.73,-406.39 166.15,-406.98 174.79,-413.12 176.73,-406.39"/>
</g>
<!-- Node146 -->
<g id="node40" class="node">
<title>Node146</title>
<g id="a_node40"><a xlink:href="class_p4_1_1_symbolic_value.html" target="_top" xlink:title=" ">
<polygon fill="white" stroke="red" points="228.5,-388.5 228.5,-407.5 335.5,-407.5 335.5,-388.5 228.5,-388.5"/>
<text text-anchor="middle" x="282" y="-395.5" font-family="Helvetica,sans-Serif" font-size="10.00">P4::SymbolicValue</text>
</a>
</g>
</g>
<!-- Node2&#45;&gt;Node146 -->
<g id="edge46" class="edge">
<title>Node2&#45;&gt;Node146</title>
<path fill="none" stroke="midnightblue" d="M176.22,-398C192.37,-398 211.21,-398 228.42,-398"/>
<polygon fill="midnightblue" stroke="midnightblue" points="176.04,-394.5 166.04,-398 176.04,-401.5 176.04,-394.5"/>
</g>
<!-- Node164 -->
<g id="node41" class="node">
<title>Node164</title>
<g id="a_node41"><a xlink:href="class_p4_1_1_type_constraint.html" target="_top" xlink:title=" ">
<polygon fill="white" stroke="red" points="228.5,-350.5 228.5,-369.5 335.5,-369.5 335.5,-350.5 228.5,-350.5"/>
<text text-anchor="middle" x="282" y="-357.5" font-family="Helvetica,sans-Serif" font-size="10.00">P4::TypeConstraint</text>
</a>
</g>
</g>
<!-- Node2&#45;&gt;Node164 -->
<g id="edge47" class="edge">
<title>Node2&#45;&gt;Node164</title>
<path fill="none" stroke="midnightblue" d="M175.95,-386.19C184.52,-383.74 193.55,-381.23 202,-379 214.28,-375.76 227.68,-372.45 239.91,-369.52"/>
<polygon fill="midnightblue" stroke="midnightblue" points="174.79,-382.88 166.15,-389.02 176.73,-389.61 174.79,-382.88"/>
</g>
<!-- Node168 -->
<g id="node42" class="node">
<title>Node168</title>
<g id="a_node42"><a xlink:href="class_p4_tools_1_1_abstract_rep_checked_node.html" target="_top" xlink:title=" ">
<polygon fill="white" stroke="black" points="202,-301 202,-331 362,-331 362,-301 202,-301"/>
<text text-anchor="start" x="210" y="-319" font-family="Helvetica,sans-Serif" font-size="10.00">P4Tools::AbstractRepChecked</text>
<text text-anchor="middle" x="282" y="-308" font-family="Helvetica,sans-Serif" font-size="10.00">Node&lt; Self, Node &gt;</text>
</a>
</g>
</g>
<!-- Node2&#45;&gt;Node168 -->
<g id="edge48" class="edge">
<title>Node2&#45;&gt;Node168</title>
<path fill="none" stroke="midnightblue" d="M151.89,-380.95C164.44,-368.36 182.95,-351.64 202,-341 208.78,-337.21 216.22,-333.91 223.73,-331.06"/>
<polygon fill="midnightblue" stroke="midnightblue" points="149.35,-378.54 144.9,-388.16 154.37,-383.41 149.35,-378.54"/>
</g>
<!-- Node169 -->
<g id="node43" class="node">
<title>Node169</title>
<g id="a_node43"><a xlink:href="class_p4_tools_1_1_compiler_result.html" target="_top" xlink:title=" ">
<polygon fill="white" stroke="red" points="215,-262.5 215,-281.5 349,-281.5 349,-262.5 215,-262.5"/>
<text text-anchor="middle" x="282" y="-269.5" font-family="Helvetica,sans-Serif" font-size="10.00">P4Tools::CompilerResult</text>
</a>
</g>
</g>
<!-- Node2&#45;&gt;Node169 -->
<g id="edge49" class="edge">
<title>Node2&#45;&gt;Node169</title>
<path fill="none" stroke="midnightblue" d="M142.62,-378.68C151.95,-354.4 171.36,-313.2 202,-291 207.37,-287.11 213.43,-284.01 219.75,-281.54"/>
<polygon fill="midnightblue" stroke="midnightblue" points="139.27,-377.64 139.13,-388.24 145.85,-380.05 139.27,-377.64"/>
</g>
<!-- Node172 -->
<g id="node44" class="node">
<title>Node172</title>
<g id="a_node44"><a xlink:href="struct_p4_tools_1_1_p4_testgen_1_1_abstract_test.html" target="_top" xlink:title="Type definitions for abstract tests.">
<polygon fill="white" stroke="red" points="227.5,-213 227.5,-243 336.5,-243 336.5,-213 227.5,-213"/>
<text text-anchor="start" x="235.5" y="-231" font-family="Helvetica,sans-Serif" font-size="10.00">P4Tools::P4Testgen</text>
<text text-anchor="middle" x="282" y="-220" font-family="Helvetica,sans-Serif" font-size="10.00">::AbstractTest</text>
</a>
</g>
</g>
<!-- Node2&#45;&gt;Node172 -->
<g id="edge50" class="edge">
<title>Node2&#45;&gt;Node172</title>
<path fill="none" stroke="midnightblue" d="M139.65,-378.23C146.41,-347.13 163.84,-286.82 202,-253 209.21,-246.61 218.06,-241.85 227.2,-238.31"/>
<polygon fill="midnightblue" stroke="midnightblue" points="136.17,-377.77 137.62,-388.27 143.03,-379.16 136.17,-377.77"/>
</g>
<!-- Node175 -->
<g id="node45" class="node">
<title>Node175</title>
<g id="a_node45"><a xlink:href="class_p4_tools_1_1_p4_testgen_1_1_program_info.html" target="_top" xlink:title="Stores target&#45;specific information about a P4 program.">
<polygon fill="white" stroke="red" points="227.5,-164 227.5,-194 336.5,-194 336.5,-164 227.5,-164"/>
<text text-anchor="start" x="235.5" y="-182" font-family="Helvetica,sans-Serif" font-size="10.00">P4Tools::P4Testgen</text>
<text text-anchor="middle" x="282" y="-171" font-family="Helvetica,sans-Serif" font-size="10.00">::ProgramInfo</text>
</a>
</g>
</g>
<!-- Node2&#45;&gt;Node175 -->
<g id="edge51" class="edge">
<title>Node2&#45;&gt;Node175</title>
<path fill="none" stroke="midnightblue" d="M136.94,-378.19C139.88,-339.05 152.01,-251.44 202,-203 209.1,-196.12 218.12,-191.2 227.49,-187.69"/>
<polygon fill="midnightblue" stroke="midnightblue" points="133.44,-378.08 136.31,-388.27 140.43,-378.51 133.44,-378.08"/>
</g>
<!-- Node180 -->
<g id="node46" class="node">
<title>Node180</title>
<g id="a_node46"><a xlink:href="class_p4_tools_1_1_p4_testgen_1_1_test_object.html" target="_top" xlink:title=" ">
<polygon fill="white" stroke="red" points="227.5,-115 227.5,-145 336.5,-145 336.5,-115 227.5,-115"/>
<text text-anchor="start" x="235.5" y="-133" font-family="Helvetica,sans-Serif" font-size="10.00">P4Tools::P4Testgen</text>
<text text-anchor="middle" x="282" y="-122" font-family="Helvetica,sans-Serif" font-size="10.00">::TestObject</text>
</a>
</g>
</g>
<!-- Node2&#45;&gt;Node180 -->
<g id="edge52" class="edge">
<title>Node2&#45;&gt;Node180</title>
<path fill="none" stroke="midnightblue" d="M135.33,-377.8C134.93,-331.59 140.61,-217.31 202,-154 208.89,-146.9 217.8,-141.88 227.15,-138.34"/>
<polygon fill="midnightblue" stroke="midnightblue" points="131.83,-378.08 135.53,-388.01 138.83,-377.94 131.83,-378.08"/>
</g>
<!-- Node208 -->
<g id="node47" class="node">
<title>Node208</title>
<g id="a_node47"><a xlink:href="class_p4_tools_1_1_trace_event.html" target="_top" xlink:title="An event in a trace of the execution of a P4 program.">
<polygon fill="white" stroke="red" points="225.5,-76.5 225.5,-95.5 338.5,-95.5 338.5,-76.5 225.5,-76.5"/>
<text text-anchor="middle" x="282" y="-83.5" font-family="Helvetica,sans-Serif" font-size="10.00">P4Tools::TraceEvent</text>
</a>
</g>
</g>
<!-- Node2&#45;&gt;Node208 -->
<g id="edge53" class="edge">
<title>Node2&#45;&gt;Node208</title>
<path fill="none" stroke="midnightblue" d="M137.79,-378C143.51,-318.49 163.31,-144.25 202,-105 208.44,-98.47 216.7,-94.03 225.44,-91.04"/>
<polygon fill="midnightblue" stroke="midnightblue" points="134.27,-378.02 136.83,-388.3 141.24,-378.66 134.27,-378.02"/>
</g>
<!-- Node221 -->
<g id="node48" class="node">
<title>Node221</title>
<g id="a_node48"><a xlink:href="class_util_1_1_i_json.html" target="_top" xlink:title=" ">
<polygon fill="white" stroke="red" points="250.5,-38.5 250.5,-57.5 313.5,-57.5 313.5,-38.5 250.5,-38.5"/>
<text text-anchor="middle" x="282" y="-45.5" font-family="Helvetica,sans-Serif" font-size="10.00">Util::IJson</text>
</a>
</g>
</g>
<!-- Node2&#45;&gt;Node221 -->
<g id="edge54" class="edge">
<title>Node2&#45;&gt;Node221</title>
<path fill="none" stroke="midnightblue" d="M137.2,-378.4C141.52,-314.28 158.42,-112.32 202,-67 214.42,-54.09 233.96,-49.31 250.5,-47.77"/>
<polygon fill="midnightblue" stroke="midnightblue" points="133.71,-378.19 136.55,-388.39 140.69,-378.64 133.71,-378.19"/>
</g>
<!-- Node225 -->
<g id="node49" class="node">
<title>Node225</title>
<g id="a_node49"><a xlink:href="class_util_1_1_named_symbol.html" target="_top" xlink:title=" ">
<polygon fill="white" stroke="red" points="226,-0.5 226,-19.5 338,-19.5 338,-0.5 226,-0.5"/>
<text text-anchor="middle" x="282" y="-7.5" font-family="Helvetica,sans-Serif" font-size="10.00">Util::NamedSymbol</text>
</a>
</g>
</g>
<!-- Node2&#45;&gt;Node225 -->
<g id="edge55" class="edge">
<title>Node2&#45;&gt;Node225</title>
<path fill="none" stroke="midnightblue" d="M136.78,-377.99C139.89,-308.68 153.68,-80.26 202,-29 208.39,-22.23 216.73,-17.68 225.6,-14.67"/>
<polygon fill="midnightblue" stroke="midnightblue" points="133.27,-378.22 136.34,-388.36 140.26,-378.52 133.27,-378.22"/>
</g>
<!-- Node4 -->
<g id="node4" class="node">
<title>Node4</title>
<g id="a_node4"><a xlink:href="class_p4_tools_1_1_z3_solver.html" target="_top" xlink:title="A Z3&#45;based implementation of AbstractSolver. Encapsulates a z3::solver and a z3::context.">
<polygon fill="white" stroke="black" points="428.5,-1186.5 428.5,-1205.5 531.5,-1205.5 531.5,-1186.5 428.5,-1186.5"/>
<text text-anchor="middle" x="480" y="-1193.5" font-family="Helvetica,sans-Serif" font-size="10.00">P4Tools::Z3Solver</text>
</a>
</g>
</g>
<!-- Node3&#45;&gt;Node4 -->
<g id="edge3" class="edge">
<title>Node3&#45;&gt;Node4</title>
<path fill="none" stroke="midnightblue" d="M336.27,-1182.16C364.97,-1184.95 400.19,-1188.36 428.46,-1191.1"/>
<polygon fill="midnightblue" stroke="midnightblue" points="336.3,-1178.65 326.01,-1181.17 335.63,-1185.62 336.3,-1178.65"/>
</g>
<!-- Node6 -->
<g id="node6" class="node">
<title>Node6</title>
<g id="a_node6"><a xlink:href="class_b_m_v2_1_1_c_f_g_1_1_dummy_node.html" target="_top" xlink:title=" ">
<polygon fill="white" stroke="black" points="409,-1148.5 409,-1167.5 551,-1167.5 551,-1148.5 409,-1148.5"/>
<text text-anchor="middle" x="480" y="-1155.5" font-family="Helvetica,sans-Serif" font-size="10.00">BMV2::CFG::DummyNode</text>
</a>
</g>
</g>
<!-- Node5&#45;&gt;Node6 -->
<g id="edge5" class="edge">
<title>Node5&#45;&gt;Node6</title>
<path fill="none" stroke="midnightblue" d="M319.24,-1113.89C341.75,-1121.67 371.38,-1131.5 398,-1139 409.96,-1142.37 423.02,-1145.62 435.1,-1148.45"/>
<polygon fill="midnightblue" stroke="midnightblue" points="320.34,-1110.57 309.75,-1110.59 318.04,-1117.18 320.34,-1110.57"/>
</g>
<!-- Node7 -->
<g id="node7" class="node">
<title>Node7</title>
<g id="a_node7"><a xlink:href="class_b_m_v2_1_1_c_f_g_1_1_if_node.html" target="_top" xlink:title=" ">
<polygon fill="white" stroke="black" points="425,-1110.5 425,-1129.5 535,-1129.5 535,-1110.5 425,-1110.5"/>
<text text-anchor="middle" x="480" y="-1117.5" font-family="Helvetica,sans-Serif" font-size="10.00">BMV2::CFG::IfNode</text>
</a>
</g>
</g>
<!-- Node5&#45;&gt;Node7 -->
<g id="edge6" class="edge">
<title>Node5&#45;&gt;Node7</title>
<path fill="none" stroke="midnightblue" d="M343.8,-1106.89C369.66,-1109.4 399.59,-1112.3 424.71,-1114.74"/>
<polygon fill="midnightblue" stroke="midnightblue" points="344.02,-1103.4 333.73,-1105.92 343.35,-1110.37 344.02,-1103.4"/>
</g>
<!-- Node8 -->
<g id="node8" class="node">
<title>Node8</title>
<g id="a_node8"><a xlink:href="class_b_m_v2_1_1_c_f_g_1_1_table_node.html" target="_top" xlink:title=" ">
<polygon fill="white" stroke="black" points="416,-1072.5 416,-1091.5 544,-1091.5 544,-1072.5 416,-1072.5"/>
<text text-anchor="middle" x="480" y="-1079.5" font-family="Helvetica,sans-Serif" font-size="10.00">BMV2::CFG::TableNode</text>
</a>
</g>
</g>
<!-- Node5&#45;&gt;Node8 -->
<g id="edge7" class="edge">
<title>Node5&#45;&gt;Node8</title>
<path fill="none" stroke="midnightblue" d="M343.98,-1095.09C366.83,-1092.87 392.82,-1090.35 415.85,-1088.12"/>
<polygon fill="midnightblue" stroke="midnightblue" points="343.35,-1091.63 333.73,-1096.08 344.02,-1098.6 343.35,-1091.63"/>
</g>
<!-- Node11 -->
<g id="node11" class="node">
<title>Node11</title>
<g id="a_node11"><a xlink:href="class_e_b_p_f_1_1_e_b_p_f_checksum_p_s_a.html" target="_top" xlink:title=" ">
<polygon fill="white" stroke="red" points="409,-806.5 409,-825.5 551,-825.5 551,-806.5 409,-806.5"/>
<text text-anchor="middle" x="480" y="-813.5" font-family="Helvetica,sans-Serif" font-size="10.00">EBPF::EBPFChecksumPSA</text>
</a>
</g>
</g>
<!-- Node10&#45;&gt;Node11 -->
<g id="edge10" class="edge">
<title>Node10&#45;&gt;Node11</title>
<path fill="none" stroke="midnightblue" d="M343.93,-802.91C364.52,-804.9 387.68,-807.15 408.92,-809.21"/>
<polygon fill="midnightblue" stroke="midnightblue" points="344.02,-799.4 333.73,-801.92 343.35,-806.37 344.02,-799.4"/>
</g>
<!-- Node14 -->
<g id="node12" class="node">
<title>Node14</title>
<g id="a_node12"><a xlink:href="class_e_b_p_f_1_1_e_b_p_f_control.html" target="_top" xlink:title=" ">
<polygon fill="white" stroke="red" points="426.5,-768.5 426.5,-787.5 533.5,-787.5 533.5,-768.5 426.5,-768.5"/>
<text text-anchor="middle" x="480" y="-775.5" font-family="Helvetica,sans-Serif" font-size="10.00">EBPF::EBPFControl</text>
</a>
</g>
</g>
<!-- Node10&#45;&gt;Node14 -->
<g id="edge11" class="edge">
<title>Node10&#45;&gt;Node14</title>
<path fill="none" stroke="midnightblue" d="M344.01,-791.09C370.42,-788.53 401.04,-785.56 426.43,-783.1"/>
<polygon fill="midnightblue" stroke="midnightblue" points="343.35,-787.63 333.73,-792.08 344.02,-794.6 343.35,-787.63"/>
</g>
<!-- Node27 -->
<g id="node13" class="node">
<title>Node27</title>
<g id="a_node13"><a xlink:href="class_e_b_p_f_1_1_e_b_p_f_digest_p_s_a.html" target="_top" xlink:title=" ">
<polygon fill="white" stroke="black" points="419,-730.5 419,-749.5 541,-749.5 541,-730.5 419,-730.5"/>
<text text-anchor="middle" x="480" y="-737.5" font-family="Helvetica,sans-Serif" font-size="10.00">EBPF::EBPFDigestPSA</text>
</a>
</g>
</g>
<!-- Node10&#45;&gt;Node27 -->
<g id="edge12" class="edge">
<title>Node10&#45;&gt;Node27</title>
<path fill="none" stroke="midnightblue" d="M319.24,-784.11C341.75,-776.33 371.38,-766.5 398,-759 409.96,-755.63 423.02,-752.38 435.1,-749.55"/>
<polygon fill="midnightblue" stroke="midnightblue" points="318.04,-780.82 309.75,-787.41 320.34,-787.43 318.04,-780.82"/>
</g>
<!-- Node28 -->
<g id="node14" class="node">
<title>Node28</title>
<g id="a_node14"><a xlink:href="class_e_b_p_f_1_1_e_b_p_f_hash_algorithm_p_s_a.html" target="_top" xlink:title=" ">
<polygon fill="white" stroke="red" points="398,-692.5 398,-711.5 562,-711.5 562,-692.5 398,-692.5"/>
<text text-anchor="middle" x="480" y="-699.5" font-family="Helvetica,sans-Serif" font-size="10.00">EBPF::EBPFHashAlgorithmPSA</text>
</a>
</g>
</g>
<!-- Node10&#45;&gt;Node28 -->
<g id="edge13" class="edge">
<title>Node10&#45;&gt;Node28</title>
<path fill="none" stroke="midnightblue" d="M302.48,-780.97C324.41,-763.72 361.72,-736.65 398,-721 406.89,-717.17 416.67,-714.04 426.27,-711.51"/>
<polygon fill="midnightblue" stroke="midnightblue" points="300.23,-778.3 294.6,-787.28 304.6,-783.76 300.23,-778.3"/>
</g>
<!-- Node36 -->
<g id="node15" class="node">
<title>Node36</title>
<g id="a_node15"><a xlink:href="class_e_b_p_f_1_1_e_b_p_f_parser.html" target="_top" xlink:title=" ">
<polygon fill="white" stroke="red" points="429.5,-654.5 429.5,-673.5 530.5,-673.5 530.5,-654.5 429.5,-654.5"/>
<text text-anchor="middle" x="480" y="-661.5" font-family="Helvetica,sans-Serif" font-size="10.00">EBPF::EBPFParser</text>
</a>
</g>
</g>
<!-- Node10&#45;&gt;Node36 -->
<g id="edge14" class="edge">
<title>Node10&#45;&gt;Node36</title>
<path fill="none" stroke="midnightblue" d="M295.75,-779.22C314.95,-753.81 353.78,-707.49 398,-683 407.6,-677.68 418.64,-673.85 429.42,-671.08"/>
<polygon fill="midnightblue" stroke="midnightblue" points="292.93,-777.14 289.8,-787.27 298.56,-781.31 292.93,-777.14"/>
</g>
<!-- Node40 -->
<g id="node16" class="node">
<title>Node40</title>
<g id="a_node16"><a xlink:href="class_e_b_p_f_1_1_e_b_p_f_parser_state.html" target="_top" xlink:title=" ">
<polygon fill="white" stroke="red" points="416.5,-616.5 416.5,-635.5 543.5,-635.5 543.5,-616.5 416.5,-616.5"/>
<text text-anchor="middle" x="480" y="-623.5" font-family="Helvetica,sans-Serif" font-size="10.00">EBPF::EBPFParserState</text>
</a>
</g>
</g>
<!-- Node10&#45;&gt;Node40 -->
<g id="edge15" class="edge">
<title>Node10&#45;&gt;Node40</title>
<path fill="none" stroke="midnightblue" d="M291.84,-778.01C308.04,-745.41 345.69,-679.03 398,-645 403.93,-641.14 410.56,-638.06 417.4,-635.61"/>
<polygon fill="midnightblue" stroke="midnightblue" points="288.54,-776.8 287.34,-787.32 294.84,-779.84 288.54,-776.8"/>
</g>
<!-- Node42 -->
<g id="node17" class="node">
<title>Node42</title>
<g id="a_node17"><a xlink:href="class_e_b_p_f_1_1_e_b_p_f_program.html" target="_top" xlink:title=" ">
<polygon fill="white" stroke="red" points="423.5,-1034.5 423.5,-1053.5 536.5,-1053.5 536.5,-1034.5 423.5,-1034.5"/>
<text text-anchor="middle" x="480" y="-1041.5" font-family="Helvetica,sans-Serif" font-size="10.00">EBPF::EBPFProgram</text>
</a>
</g>
</g>
<!-- Node10&#45;&gt;Node42 -->
<g id="edge16" class="edge">
<title>Node10&#45;&gt;Node42</title>
<path fill="none" stroke="midnightblue" d="M343.36,-803.5C350.36,-806.44 356.83,-810.48 362,-816 426.43,-884.79 333.37,-956.39 398,-1025 404.83,-1032.26 413.87,-1036.98 423.42,-1040.01"/>
<polygon fill="midnightblue" stroke="midnightblue" points="344.15,-800.07 333.56,-800.14 341.88,-806.69 344.15,-800.07"/>
</g>
<!-- Node54 -->
<g id="node18" class="node">
<title>Node54</title>
<g id="a_node18"><a xlink:href="class_e_b_p_f_1_1_e_b_p_f_random_p_s_a.html" target="_top" xlink:title=" ">
<polygon fill="white" stroke="black" points="414.5,-996.5 414.5,-1015.5 545.5,-1015.5 545.5,-996.5 414.5,-996.5"/>
<text text-anchor="middle" x="480" y="-1003.5" font-family="Helvetica,sans-Serif" font-size="10.00">EBPF::EBPFRandomPSA</text>
</a>
</g>
</g>
<!-- Node10&#45;&gt;Node54 -->
<g id="edge17" class="edge">
<title>Node10&#45;&gt;Node54</title>
<path fill="none" stroke="midnightblue" d="M343.44,-803.79C350.37,-806.69 356.8,-810.64 362,-816 416.13,-871.7 343.71,-931.46 398,-987 402.64,-991.75 408.23,-995.41 414.28,-998.21"/>
<polygon fill="midnightblue" stroke="midnightblue" points="344.35,-800.4 333.75,-800.45 342.07,-807.02 344.35,-800.4"/>
</g>
<!-- Node55 -->
<g id="node19" class="node">
<title>Node55</title>
<g id="a_node19"><a xlink:href="class_e_b_p_f_1_1_e_b_p_f_table_base.html" target="_top" xlink:title=" ">
<polygon fill="white" stroke="red" points="420,-958.5 420,-977.5 540,-977.5 540,-958.5 420,-958.5"/>
<text text-anchor="middle" x="480" y="-965.5" font-family="Helvetica,sans-Serif" font-size="10.00">EBPF::EBPFTableBase</text>
</a>
</g>
</g>
<!-- Node10&#45;&gt;Node55 -->
<g id="edge18" class="edge">
<title>Node10&#45;&gt;Node55</title>
<path fill="none" stroke="midnightblue" d="M343.43,-804.19C350.3,-807.03 356.71,-810.86 362,-816 405.91,-858.68 353.97,-906.44 398,-949 404.13,-954.92 411.73,-959.12 419.81,-962.08"/>
<polygon fill="midnightblue" stroke="midnightblue" points="344.44,-800.83 333.84,-800.89 342.16,-807.45 344.44,-800.83"/>
</g>
<!-- Node67 -->
<g id="node20" class="node">
<title>Node67</title>
<g id="a_node20"><a xlink:href="class_e_b_p_f_1_1_e_b_p_f_type.html" target="_top" xlink:title=" ">
<polygon fill="white" stroke="black" points="433.5,-920.5 433.5,-939.5 526.5,-939.5 526.5,-920.5 433.5,-920.5"/>
<text text-anchor="middle" x="480" y="-927.5" font-family="Helvetica,sans-Serif" font-size="10.00">EBPF::EBPFType</text>
</a>
</g>
</g>
<!-- Node10&#45;&gt;Node67 -->
<g id="edge19" class="edge">
<title>Node10&#45;&gt;Node67</title>
<path fill="none" stroke="midnightblue" d="M343.24,-804.8C350.08,-807.55 356.54,-811.19 362,-816 395.88,-845.85 364.04,-881.24 398,-911 407.78,-919.57 420.69,-924.46 433.33,-927.2"/>
<polygon fill="midnightblue" stroke="midnightblue" points="344.32,-801.47 333.73,-801.57 342.07,-808.1 344.32,-801.47"/>
</g>
<!-- Node79 -->
<g id="node28" class="node">
<title>Node79</title>
<g id="a_node28"><a xlink:href="class_u_b_p_f_1_1_u_b_p_f_deparser.html" target="_top" xlink:title=" ">
<polygon fill="white" stroke="black" points="420.5,-882.5 420.5,-901.5 539.5,-901.5 539.5,-882.5 420.5,-882.5"/>
<text text-anchor="middle" x="480" y="-889.5" font-family="Helvetica,sans-Serif" font-size="10.00">UBPF::UBPFDeparser</text>
</a>
</g>
</g>
<!-- Node10&#45;&gt;Node79 -->
<g id="edge27" class="edge">
<title>Node10&#45;&gt;Node79</title>
<path fill="none" stroke="midnightblue" d="M343.39,-806.27C350.01,-808.79 356.38,-811.97 362,-816 386.36,-833.45 373.6,-855.62 398,-873 404.71,-877.78 412.44,-881.37 420.42,-884.07"/>
<polygon fill="midnightblue" stroke="midnightblue" points="344.15,-802.84 333.56,-803.05 341.97,-809.49 344.15,-802.84"/>
</g>
<!-- Node80 -->
<g id="node29" class="node">
<title>Node80</title>
<g id="a_node29"><a xlink:href="class_u_b_p_f_1_1_u_b_p_f_table_base.html" target="_top" xlink:title=" ">
<polygon fill="white" stroke="red" points="418.5,-844.5 418.5,-863.5 541.5,-863.5 541.5,-844.5 418.5,-844.5"/>
<text text-anchor="middle" x="480" y="-851.5" font-family="Helvetica,sans-Serif" font-size="10.00">UBPF::UBPFTableBase</text>
</a>
</g>
</g>
<!-- Node10&#45;&gt;Node80 -->
<g id="edge28" class="edge">
<title>Node10&#45;&gt;Node80</title>
<path fill="none" stroke="midnightblue" d="M340.95,-809.17C348.12,-811.19 355.29,-813.47 362,-816 378.93,-822.39 381.06,-828.66 398,-835 407.88,-838.69 418.71,-841.83 429.14,-844.42"/>
<polygon fill="midnightblue" stroke="midnightblue" points="341.77,-805.76 331.2,-806.57 339.96,-812.53 341.77,-805.76"/>
</g>
<!-- Node68 -->
<g id="node21" class="node">
<title>Node68</title>
<g id="a_node21"><a xlink:href="class_e_b_p_f_1_1_e_b_p_f_bool_type.html" target="_top" xlink:title=" ">
<polygon fill="white" stroke="red" points="601.5,-635.5 601.5,-654.5 717.5,-654.5 717.5,-635.5 601.5,-635.5"/>
<text text-anchor="middle" x="659.5" y="-642.5" font-family="Helvetica,sans-Serif" font-size="10.00">EBPF::EBPFBoolType</text>
</a>
</g>
</g>
<!-- Node67&#45;&gt;Node68 -->
<g id="edge20" class="edge">
<title>Node67&#45;&gt;Node68</title>
<path fill="none" stroke="midnightblue" d="M536.31,-926.15C545.98,-923.12 555.12,-918.36 562,-911 629.36,-838.94 547.57,-776.77 598,-692 607.79,-675.54 625.71,-662.73 639.51,-654.66"/>
<polygon fill="midnightblue" stroke="midnightblue" points="535.37,-922.78 526.54,-928.64 537.1,-929.56 535.37,-922.78"/>
</g>
<!-- Node70 -->
<g id="node22" class="node">
<title>Node70</title>
<g id="a_node22"><a xlink:href="class_e_b_p_f_1_1_e_b_p_f_enum_type.html" target="_top" xlink:title=" ">
<polygon fill="white" stroke="red" points="598.5,-919.5 598.5,-938.5 720.5,-938.5 720.5,-919.5 598.5,-919.5"/>
<text text-anchor="middle" x="659.5" y="-926.5" font-family="Helvetica,sans-Serif" font-size="10.00">EBPF::EBPFEnumType</text>
</a>
</g>
</g>
<!-- Node67&#45;&gt;Node70 -->
<g id="edge21" class="edge">
<title>Node67&#45;&gt;Node70</title>
<path fill="none" stroke="midnightblue" d="M536.95,-929.68C556.44,-929.57 578.39,-929.45 598.21,-929.34"/>
<polygon fill="midnightblue" stroke="midnightblue" points="536.69,-926.19 526.71,-929.74 536.73,-933.19 536.69,-926.19"/>
</g>
<!-- Node72 -->
<g id="node23" class="node">
<title>Node72</title>
<g id="a_node23"><a xlink:href="class_e_b_p_f_1_1_e_b_p_f_scalar_type.html" target="_top" xlink:title=" ">
<polygon fill="white" stroke="red" points="598,-880.5 598,-899.5 721,-899.5 721,-880.5 598,-880.5"/>
<text text-anchor="middle" x="659.5" y="-887.5" font-family="Helvetica,sans-Serif" font-size="10.00">EBPF::EBPFScalarType</text>
</a>
</g>
</g>
<!-- Node67&#45;&gt;Node72 -->
<g id="edge22" class="edge">
<title>Node67&#45;&gt;Node72</title>
<path fill="none" stroke="midnightblue" d="M533.37,-918.2C559.82,-912.24 591.48,-905.1 616.33,-899.5"/>
<polygon fill="midnightblue" stroke="midnightblue" points="532.5,-914.81 523.52,-920.42 534.04,-921.63 532.5,-914.81"/>
</g>
<!-- Node74 -->
<g id="node24" class="node">
<title>Node74</title>
<g id="a_node24"><a xlink:href="class_e_b_p_f_1_1_e_b_p_f_stack_type.html" target="_top" xlink:title=" ">
<polygon fill="white" stroke="black" points="599.5,-840.5 599.5,-859.5 719.5,-859.5 719.5,-840.5 599.5,-840.5"/>
<text text-anchor="middle" x="659.5" y="-847.5" font-family="Helvetica,sans-Serif" font-size="10.00">EBPF::EBPFStackType</text>
</a>
</g>
</g>
<!-- Node67&#45;&gt;Node74 -->
<g id="edge23" class="edge">
<title>Node67&#45;&gt;Node74</title>
<path fill="none" stroke="midnightblue" d="M536.28,-921.81C545.24,-919.15 554.15,-915.64 562,-911 582.59,-898.82 578.07,-884.23 598,-871 605.04,-866.33 613.23,-862.58 621.27,-859.62"/>
<polygon fill="midnightblue" stroke="midnightblue" points="535.35,-918.43 526.57,-924.36 537.14,-925.2 535.35,-918.43"/>
</g>
<!-- Node75 -->
<g id="node25" class="node">
<title>Node75</title>
<g id="a_node25"><a xlink:href="class_e_b_p_f_1_1_e_b_p_f_struct_type.html" target="_top" xlink:title=" ">
<polygon fill="white" stroke="red" points="598.5,-798.5 598.5,-817.5 720.5,-817.5 720.5,-798.5 598.5,-798.5"/>
<text text-anchor="middle" x="659.5" y="-805.5" font-family="Helvetica,sans-Serif" font-size="10.00">EBPF::EBPFStructType</text>
</a>
</g>
</g>
<!-- Node67&#45;&gt;Node75 -->
<g id="edge24" class="edge">
<title>Node67&#45;&gt;Node75</title>
<path fill="none" stroke="midnightblue" d="M536.44,-924.16C545.68,-921.27 554.64,-917.07 562,-911 592.09,-886.21 569.62,-857.74 598,-831 604.13,-825.22 611.87,-820.85 619.73,-817.57"/>
<polygon fill="midnightblue" stroke="midnightblue" points="535.54,-920.78 526.77,-926.73 537.33,-927.55 535.54,-920.78"/>
</g>
<!-- Node77 -->
<g id="node26" class="node">
<title>Node77</title>
<g id="a_node26"><a xlink:href="class_e_b_p_f_1_1_e_b_p_f_type_name.html" target="_top" xlink:title=" ">
<polygon fill="white" stroke="black" points="598.5,-753.5 598.5,-772.5 720.5,-772.5 720.5,-753.5 598.5,-753.5"/>
<text text-anchor="middle" x="659.5" y="-760.5" font-family="Helvetica,sans-Serif" font-size="10.00">EBPF::EBPFTypeName</text>
</a>
</g>
</g>
<!-- Node67&#45;&gt;Node77 -->
<g id="edge25" class="edge">
<title>Node67&#45;&gt;Node77</title>
<path fill="none" stroke="midnightblue" d="M536.53,-925.16C545.92,-922.19 554.91,-917.7 562,-911 603.09,-872.17 560.47,-831.28 598,-789 604.45,-781.73 613.29,-776.42 622.21,-772.58"/>
<polygon fill="midnightblue" stroke="midnightblue" points="535.45,-921.83 526.67,-927.75 537.23,-928.6 535.45,-921.83"/>
</g>
<!-- Node78 -->
<g id="node27" class="node">
<title>Node78</title>
<g id="a_node27"><a xlink:href="class_u_b_p_f_1_1_u_b_p_f_list_type.html" target="_top" xlink:title=" ">
<polygon fill="white" stroke="black" points="602.5,-701.5 602.5,-720.5 716.5,-720.5 716.5,-701.5 602.5,-701.5"/>
<text text-anchor="middle" x="659.5" y="-708.5" font-family="Helvetica,sans-Serif" font-size="10.00">UBPF::UBPFListType</text>
</a>
</g>
</g>
<!-- Node67&#45;&gt;Node78 -->
<g id="edge26" class="edge">
<title>Node67&#45;&gt;Node78</title>
<path fill="none" stroke="midnightblue" d="M536.64,-925.68C546.1,-922.67 555.09,-918.04 562,-911 615.2,-856.83 552.54,-804.82 598,-744 605.95,-733.36 618.38,-725.75 629.91,-720.53"/>
<polygon fill="midnightblue" stroke="midnightblue" points="535.47,-922.37 526.67,-928.27 537.23,-929.15 535.47,-922.37"/>
</g>
<!-- Node83&#45;&gt;Node68 -->
<g id="edge30" class="edge">
<title>Node83&#45;&gt;Node68</title>
<path fill="none" stroke="midnightblue" d="M536.65,-599.93C545.2,-602.09 553.87,-604.46 562,-607 588.3,-615.21 617.63,-627.18 636.98,-635.48"/>
<polygon fill="midnightblue" stroke="midnightblue" points="537.27,-596.48 526.72,-597.51 535.61,-603.28 537.27,-596.48"/>
</g>
<!-- Node83&#45;&gt;Node70 -->
<g id="edge31" class="edge">
<title>Node83&#45;&gt;Node70</title>
<path fill="none" stroke="midnightblue" d="M538.69,-592.31C547.54,-595.38 555.78,-600.04 562,-607 652.09,-707.77 512.47,-804.33 598,-909 601.57,-913.37 606.12,-916.79 611.11,-919.47"/>
<polygon fill="midnightblue" stroke="midnightblue" points="539.49,-588.9 528.92,-589.57 537.6,-595.64 539.49,-588.9"/>
</g>
<!-- Node83&#45;&gt;Node72 -->
<g id="edge32" class="edge">
<title>Node83&#45;&gt;Node72</title>
<path fill="none" stroke="midnightblue" d="M538.59,-592.41C547.44,-595.47 555.72,-600.1 562,-607 641.12,-693.92 523.49,-778.1 598,-869 601.95,-873.82 607.06,-877.53 612.65,-880.39"/>
<polygon fill="midnightblue" stroke="midnightblue" points="539.39,-589 528.81,-589.66 537.49,-595.73 539.39,-589"/>
</g>
<!-- Node83&#45;&gt;Node74 -->
<g id="edge33" class="edge">
<title>Node83&#45;&gt;Node74</title>
<path fill="none" stroke="midnightblue" d="M538.44,-592.54C547.31,-595.59 555.63,-600.18 562,-607 629.63,-679.41 535.33,-750.26 598,-827 602.76,-832.83 609.18,-837.19 616.05,-840.44"/>
<polygon fill="midnightblue" stroke="midnightblue" points="539.23,-589.13 528.66,-589.81 537.34,-595.87 539.23,-589.13"/>
</g>
<!-- Node83&#45;&gt;Node75 -->
<g id="edge34" class="edge">
<title>Node83&#45;&gt;Node75</title>
<path fill="none" stroke="midnightblue" d="M538.51,-592.87C547.3,-595.89 555.56,-600.39 562,-607 617.37,-663.92 547.83,-720.45 598,-782 603.92,-789.27 612.26,-794.55 620.85,-798.36"/>
<polygon fill="midnightblue" stroke="midnightblue" points="539.41,-589.48 528.84,-590.13 537.51,-596.22 539.41,-589.48"/>
</g>
<!-- Node83&#45;&gt;Node77 -->
<g id="edge35" class="edge">
<title>Node83&#45;&gt;Node77</title>
<path fill="none" stroke="midnightblue" d="M538.65,-593.52C547.27,-596.49 555.45,-600.79 562,-607 603.36,-646.17 562.27,-685.64 598,-730 606.48,-740.53 619.26,-748.19 630.9,-753.47"/>
<polygon fill="midnightblue" stroke="midnightblue" points="539.36,-590.08 528.79,-590.71 537.44,-596.81 539.36,-590.08"/>
</g>
<!-- Node83&#45;&gt;Node78 -->
<g id="edge36" class="edge">
<title>Node83&#45;&gt;Node78</title>
<path fill="none" stroke="midnightblue" d="M538.47,-595.56C546.84,-598.3 554.98,-602 562,-607 586.4,-624.38 577.87,-641.81 598,-664 611.58,-678.97 630.37,-692.73 643.38,-701.45"/>
<polygon fill="midnightblue" stroke="midnightblue" points="539.17,-592.13 528.6,-592.77 537.27,-598.86 539.17,-592.13"/>
</g>
<!-- Node85 -->
<g id="node32" class="node">
<title>Node85</title>
<g id="a_node32"><a xlink:href="class_i_r_1_1_i_declaration.html" target="_top" xlink:title="The Declaration interface, representing objects with names.">
<polygon fill="white" stroke="black" points="434,-540.5 434,-559.5 526,-559.5 526,-540.5 434,-540.5"/>
<text text-anchor="middle" x="480" y="-547.5" font-family="Helvetica,sans-Serif" font-size="10.00">IR::IDeclaration</text>
</a>
</g>
</g>
<!-- Node84&#45;&gt;Node85 -->
<g id="edge38" class="edge">
<title>Node84&#45;&gt;Node85</title>
<path fill="none" stroke="midnightblue" d="M323.16,-550C355.37,-550 400.57,-550 434,-550"/>
<polygon fill="midnightblue" stroke="midnightblue" points="322.77,-546.5 312.77,-550 322.77,-553.5 322.77,-546.5"/>
</g>
<!-- Node86 -->
<g id="node33" class="node">
<title>Node86</title>
<g id="a_node33"><a xlink:href="class_i_r_1_1_node.html" target="_top" xlink:title=" ">
<polygon fill="white" stroke="red" points="451,-502.5 451,-521.5 509,-521.5 509,-502.5 451,-502.5"/>
<text text-anchor="middle" x="480" y="-509.5" font-family="Helvetica,sans-Serif" font-size="10.00">IR::Node</text>
</a>
</g>
</g>
<!-- Node84&#45;&gt;Node86 -->
<g id="edge39" class="edge">
<title>Node84&#45;&gt;Node86</title>
<path fill="none" stroke="midnightblue" d="M322.98,-542.25C361.03,-534.87 417.32,-523.96 450.86,-517.46"/>
<polygon fill="midnightblue" stroke="midnightblue" points="321.92,-538.89 312.77,-544.23 323.25,-545.76 321.92,-538.89"/>
</g>
<!-- Node114 -->
<g id="node35" class="node">
<title>Node114</title>
<g id="a_node35"><a xlink:href="class_json_boolean.html" target="_top" xlink:title=" ">
<polygon fill="white" stroke="black" points="441.5,-464.5 441.5,-483.5 518.5,-483.5 518.5,-464.5 441.5,-464.5"/>
<text text-anchor="middle" x="480" y="-471.5" font-family="Helvetica,sans-Serif" font-size="10.00">JsonBoolean</text>
</a>
</g>
</g>
<!-- Node113&#45;&gt;Node114 -->
<g id="edge41" class="edge">
<title>Node113&#45;&gt;Node114</title>
<path fill="none" stroke="midnightblue" d="M322.58,-504.33C357.26,-497.6 407.31,-487.9 441.39,-481.29"/>
<polygon fill="midnightblue" stroke="midnightblue" points="321.49,-500.97 312.34,-506.31 322.83,-507.84 321.49,-500.97"/>
</g>
<!-- Node115 -->
<g id="node36" class="node">
<title>Node115</title>
<g id="a_node36"><a xlink:href="class_json_null.html" target="_top" xlink:title=" ">
<polygon fill="white" stroke="black" points="452,-426.5 452,-445.5 508,-445.5 508,-426.5 452,-426.5"/>
<text text-anchor="middle" x="480" y="-433.5" font-family="Helvetica,sans-Serif" font-size="10.00">JsonNull</text>
</a>
</g>
</g>
<!-- Node113&#45;&gt;Node115 -->
<g id="edge42" class="edge">
<title>Node113&#45;&gt;Node115</title>
<path fill="none" stroke="midnightblue" d="M322.13,-507.2C335.41,-504.4 349.93,-499.98 362,-493 382.14,-481.36 377.83,-466.59 398,-455 414.41,-445.57 435.23,-440.82 451.66,-438.42"/>
<polygon fill="midnightblue" stroke="midnightblue" points="321.46,-503.76 312.27,-509.04 322.75,-510.64 321.46,-503.76"/>
</g>
<!-- Node116 -->
<g id="node37" class="node">
<title>Node116</title>
<g id="a_node37"><a xlink:href="class_json_number.html" target="_top" xlink:title=" ">
<polygon fill="white" stroke="black" points="442,-388.5 442,-407.5 518,-407.5 518,-388.5 442,-388.5"/>
<text text-anchor="middle" x="480" y="-395.5" font-family="Helvetica,sans-Serif" font-size="10.00">JsonNumber</text>
</a>
</g>
</g>
<!-- Node113&#45;&gt;Node116 -->
<g id="edge43" class="edge">
<title>Node113&#45;&gt;Node116</title>
<path fill="none" stroke="midnightblue" d="M322.57,-509.43C336.25,-506.86 350.92,-502 362,-493 391.01,-469.43 368.92,-440.48 398,-417 410.25,-407.11 426.75,-402.19 441.66,-399.81"/>
<polygon fill="midnightblue" stroke="midnightblue" points="321.73,-506.02 312.37,-510.99 322.78,-512.94 321.73,-506.02"/>
</g>
</g>
</svg>
        <g id="navigator" transform="translate(0 0)" fill="#404254">
                <rect fill="#f2f5e9" fill-opacity="0.5" stroke="#606060" stroke-width=".5" x="0" y="0" width="60" height="60"/>
                <use id="zoomplus" xlink:href="#zoomPlus" x="17" y="9" onmousedown="handleZoom(evt,'in')"/>
                <use id="zoomminus" xlink:href="#zoomMin" x="42" y="9" onmousedown="handleZoom(evt,'out')"/>
                <use id="reset" xlink:href="#resetDef" x="30" y="36" onmousedown="handleReset()"/>
                <g id="arrowUp" xlink:href="#dirArrow" transform="translate(30 24)" onmousedown="handlePan(0,-1)">
                  <use xlink:href="#rim" fill="#404040">
                        <set attributeName="fill" to="#808080" begin="arrowUp.mouseover" end="arrowUp.mouseout"/>
                  </use>
                  <path fill="none" stroke="white" stroke-width="1.5" d="M0,-3.0v7 M-2.5,-0.5L0,-3.0L2.5,-0.5"/>
                </g>
                <g id="arrowRight" xlink:href="#dirArrow" transform="rotate(90) translate(36 -43)" onmousedown="handlePan(1,0)">
                  <use xlink:href="#rim" fill="#404040">
                        <set attributeName="fill" to="#808080" begin="arrowRight.mouseover" end="arrowRight.mouseout"/>
                  </use>
                  <path fill="none" stroke="white" stroke-width="1.5" d="M0,-3.0v7 M-2.5,-0.5L0,-3.0L2.5,-0.5"/>
                </g>
                <g id="arrowDown" xlink:href="#dirArrow" transform="rotate(180) translate(-30 -48)" onmousedown="handlePan(0,1)">
                  <use xlink:href="#rim" fill="#404040">
                        <set attributeName="fill" to="#808080" begin="arrowDown.mouseover" end="arrowDown.mouseout"/>
                  </use>
                  <path fill="none" stroke="white" stroke-width="1.5" d="M0,-3.0v7 M-2.5,-0.5L0,-3.0L2.5,-0.5"/>
                </g>
                <g id="arrowLeft" xlink:href="#dirArrow" transform="rotate(270) translate(-36 17)" onmousedown="handlePan(-1,0)">
                  <use xlink:href="#rim" fill="#404040">
                        <set attributeName="fill" to="#808080" begin="arrowLeft.mouseover" end="arrowLeft.mouseout"/>
                  </use>
                  <path fill="none" stroke="white" stroke-width="1.5" d="M0,-3.0v7 M-2.5,-0.5L0,-3.0L2.5,-0.5"/>
                </g>
        </g>
        <svg viewBox="0 0 15 15" width="100%" height="30px" preserveAspectRatio="xMaxYMin meet">
         <g id="arrow_out" transform="scale(0.3 0.3)">
          <a xlink:href="struct_r_t_t_i_1_1_base__inherit__graph_org.svg" target="_base">
           <rect id="button" ry="5" rx="5" y="6" x="6" height="38" width="38"
                fill="#f2f5e9" fill-opacity="0.5" stroke="#606060" stroke-width="1.0"/>
           <path id="arrow"
             d="M 11.500037,31.436501 C 11.940474,20.09759 22.043105,11.32322 32.158766,21.979434 L 37.068811,17.246167 C 37.068811,17.246167 37.088388,32 37.088388,32 L 22.160133,31.978069 C 22.160133,31.978069 26.997745,27.140456 26.997745,27.140456 C 18.528582,18.264221 13.291696,25.230495 11.500037,31.436501 z"
             style="fill:#404040;"/>
          </a>
         </g>
        </svg>
</svg>
