<?xml version="1.0" encoding="UTF-8" standalone="no"?>
<!DOCTYPE svg PUBLIC "-//W3C//DTD SVG 1.1//EN"
 "http://www.w3.org/Graphics/SVG/1.1/DTD/svg11.dtd">
<!-- Generated by graphviz version 2.43.0 (0)
 -->
<!-- Title: DPDK::ConvertLookahead Pages: 1 -->
<svg width="737pt" height="311pt"
 viewBox="0.00 0.00 737.00 311.00" xmlns="http://www.w3.org/2000/svg" xmlns:xlink="http://www.w3.org/1999/xlink">
<g id="graph0" class="graph" transform="scale(1 1) rotate(0) translate(4 307)">
<title>DPDK::ConvertLookahead</title>
<polygon fill="white" stroke="transparent" points="-4,4 -4,-307 733,-307 733,4 -4,4"/>
<!-- Node1 -->
<g id="node1" class="node">
<title>Node1</title>
<g id="a_node1"><a xlink:title=" ">
<polygon fill="#bfbfbf" stroke="black" points="402.5,-0.5 402.5,-19.5 543.5,-19.5 543.5,-0.5 402.5,-0.5"/>
<text text-anchor="middle" x="473" y="-7.5" font-family="Helvetica,sans-Serif" font-size="10.00">DPDK::ConvertLookahead</text>
</a>
</g>
</g>
<!-- Node2 -->
<g id="node2" class="node">
<title>Node2</title>
<g id="a_node2"><a xlink:href="class_pass_manager.html" target="_top" xlink:title=" ">
<polygon fill="white" stroke="black" points="368.5,-73 368.5,-92 449.5,-92 449.5,-73 368.5,-73"/>
<text text-anchor="middle" x="409" y="-80" font-family="Helvetica,sans-Serif" font-size="10.00">PassManager</text>
</a>
</g>
</g>
<!-- Node2&#45;&gt;Node1 -->
<g id="edge1" class="edge">
<title>Node2&#45;&gt;Node1</title>
<path fill="none" stroke="midnightblue" d="M423.71,-65.3C436.58,-51.12 454.79,-31.06 465.09,-19.72"/>
<polygon fill="midnightblue" stroke="midnightblue" points="420.98,-63.1 416.85,-72.86 426.16,-67.8 420.98,-63.1"/>
</g>
<!-- Node3 -->
<g id="node3" class="node">
<title>Node3</title>
<g id="a_node3"><a xlink:href="class_visitor.html" target="_top" xlink:title=" ">
<polygon fill="white" stroke="black" points="192,-214.5 192,-233.5 240,-233.5 240,-214.5 192,-214.5"/>
<text text-anchor="middle" x="216" y="-221.5" font-family="Helvetica,sans-Serif" font-size="10.00">Visitor</text>
</a>
</g>
</g>
<!-- Node3&#45;&gt;Node2 -->
<g id="edge2" class="edge">
<title>Node3&#45;&gt;Node2</title>
<path fill="none" stroke="midnightblue" d="M250.28,-218.85C285.18,-212.95 338.87,-199.04 373,-167 395.33,-146.04 404.49,-108.9 407.62,-92.13"/>
<polygon fill="midnightblue" stroke="midnightblue" points="249.44,-215.43 240.1,-220.43 250.52,-222.35 249.44,-215.43"/>
</g>
<!-- Node3&#45;&gt;Node3 -->
<g id="edge10" class="edge">
<title>Node3&#45;&gt;Node3</title>
<path fill="none" stroke="#9a32cd" stroke-dasharray="5,2" d="M250.42,-229.29C254.98,-228.39 258,-226.63 258,-224 258,-219.69 249.86,-217.7 240.17,-218.04"/>
<polygon fill="#9a32cd" stroke="#9a32cd" points="249.92,-225.82 240.17,-229.96 250.38,-232.8 249.92,-225.82"/>
<text text-anchor="middle" x="283" y="-221.5" font-family="Helvetica,sans-Serif" font-size="10.00"> called_by</text>
</g>
<!-- Node5 -->
<g id="node5" class="node">
<title>Node5</title>
<g id="a_node5"><a xlink:href="class_split_flow_visit__base.html" target="_top" xlink:title=" ">
<polygon fill="white" stroke="black" points="0,-73 0,-92 112,-92 112,-73 0,-73"/>
<text text-anchor="middle" x="56" y="-80" font-family="Helvetica,sans-Serif" font-size="10.00">SplitFlowVisit_base</text>
</a>
</g>
</g>
<!-- Node3&#45;&gt;Node5 -->
<g id="edge9" class="edge">
<title>Node3&#45;&gt;Node5</title>
<path fill="none" stroke="#9a32cd" stroke-dasharray="5,2" d="M181.75,-220.42C153.46,-217.31 112.78,-210.55 80,-196 60.26,-187.24 50.7,-186.3 41,-167 28.37,-141.86 42.93,-107.76 51.15,-92.05"/>
<polygon fill="#9a32cd" stroke="#9a32cd" points="181.64,-223.92 191.94,-221.44 182.34,-216.96 181.64,-223.92"/>
<text text-anchor="middle" x="46" y="-153.5" font-family="Helvetica,sans-Serif" font-size="10.00"> v</text>
</g>
<!-- Node6 -->
<g id="node6" class="node">
<title>Node6</title>
<g id="a_node6"><a xlink:title=" ">
<polygon fill="white" stroke="#bfbfbf" points="150.5,-146.5 150.5,-165.5 281.5,-165.5 281.5,-146.5 150.5,-146.5"/>
<text text-anchor="middle" x="216" y="-153.5" font-family="Helvetica,sans-Serif" font-size="10.00">std::vector&lt; Visitor * &gt;</text>
</a>
</g>
</g>
<!-- Node3&#45;&gt;Node6 -->
<g id="edge8" class="edge">
<title>Node3&#45;&gt;Node6</title>
<path fill="none" stroke="#9a32cd" stroke-dasharray="5,2" d="M216,-204.04C216,-191.47 216,-175.56 216,-165.84"/>
<polygon fill="#9a32cd" stroke="#9a32cd" points="212.5,-204.37 216,-214.37 219.5,-204.37 212.5,-204.37"/>
<text text-anchor="middle" x="240.5" y="-188" font-family="Helvetica,sans-Serif" font-size="10.00"> elements</text>
</g>
<!-- Node7 -->
<g id="node7" class="node">
<title>Node7</title>
<g id="a_node7"><a xlink:href="class_backtrack.html" target="_top" xlink:title=" ">
<polygon fill="white" stroke="black" points="299.5,-146.5 299.5,-165.5 364.5,-165.5 364.5,-146.5 299.5,-146.5"/>
<text text-anchor="middle" x="332" y="-153.5" font-family="Helvetica,sans-Serif" font-size="10.00">Backtrack</text>
</a>
</g>
</g>
<!-- Node3&#45;&gt;Node7 -->
<g id="edge12" class="edge">
<title>Node3&#45;&gt;Node7</title>
<path fill="none" stroke="midnightblue" d="M242.92,-209.83C251.35,-205.56 260.63,-200.71 269,-196 286.49,-186.16 306.06,-173.83 318.68,-165.7"/>
<polygon fill="midnightblue" stroke="midnightblue" points="241.24,-206.76 233.86,-214.36 244.37,-213.02 241.24,-206.76"/>
</g>
<!-- Node4 -->
<g id="node4" class="node">
<title>Node4</title>
<g id="a_node4"><a xlink:href="classcstring.html" target="_top" xlink:title=" ">
<polygon fill="white" stroke="black" points="191,-282.5 191,-301.5 241,-301.5 241,-282.5 191,-282.5"/>
<text text-anchor="middle" x="216" y="-289.5" font-family="Helvetica,sans-Serif" font-size="10.00">cstring</text>
</a>
</g>
</g>
<!-- Node4&#45;&gt;Node3 -->
<g id="edge3" class="edge">
<title>Node4&#45;&gt;Node3</title>
<path fill="none" stroke="#9a32cd" stroke-dasharray="5,2" d="M216,-272.04C216,-259.47 216,-243.56 216,-233.84"/>
<polygon fill="#9a32cd" stroke="#9a32cd" points="212.5,-272.37 216,-282.37 219.5,-272.37 212.5,-272.37"/>
<text text-anchor="middle" x="251" y="-255" font-family="Helvetica,sans-Serif" font-size="10.00"> internalName</text>
</g>
<!-- Node4&#45;&gt;Node4 -->
<g id="edge4" class="edge">
<title>Node4&#45;&gt;Node4</title>
<path fill="none" stroke="#9a32cd" stroke-dasharray="5,2" d="M251.45,-297.58C256,-296.61 259,-294.75 259,-292 259,-287.48 250.91,-285.37 241.18,-285.65"/>
<polygon fill="#9a32cd" stroke="#9a32cd" points="250.89,-294.11 241.18,-298.35 251.41,-301.1 250.89,-294.11"/>
<text text-anchor="middle" x="278.5" y="-295" font-family="Helvetica,sans-Serif" font-size="10.00"> empty</text>
<text text-anchor="middle" x="278.5" y="-284" font-family="Helvetica,sans-Serif" font-size="10.00">newline</text>
</g>
<!-- Node5&#45;&gt;Node3 -->
<g id="edge5" class="edge">
<title>Node5&#45;&gt;Node3</title>
<path fill="none" stroke="#9a32cd" stroke-dasharray="5,2" d="M52.76,-102.5C50.74,-120.93 50.76,-148.71 65,-167 95.83,-206.6 157.66,-218.2 191.87,-221.6"/>
<polygon fill="#9a32cd" stroke="#9a32cd" points="56.26,-102.79 54.18,-92.41 49.32,-101.82 56.26,-102.79"/>
<text text-anchor="middle" x="103" y="-159" font-family="Helvetica,sans-Serif" font-size="10.00"> split_link</text>
<text text-anchor="middle" x="103" y="-148" font-family="Helvetica,sans-Serif" font-size="10.00">split_link_mem</text>
</g>
<!-- Node5&#45;&gt;Node5 -->
<g id="edge6" class="edge">
<title>Node5&#45;&gt;Node5</title>
<path fill="none" stroke="#9a32cd" stroke-dasharray="5,2" d="M122.04,-87.81C126.97,-86.62 130,-84.85 130,-82.5 130,-78.83 122.62,-76.57 112.15,-75.74"/>
<polygon fill="#9a32cd" stroke="#9a32cd" points="121.53,-84.35 112.15,-89.26 122.55,-91.27 121.53,-84.35"/>
<text text-anchor="middle" x="142.5" y="-80" font-family="Helvetica,sans-Serif" font-size="10.00"> prev</text>
</g>
<!-- Node6&#45;&gt;Node5 -->
<g id="edge7" class="edge">
<title>Node6&#45;&gt;Node5</title>
<path fill="none" stroke="#9a32cd" stroke-dasharray="5,2" d="M187.33,-142.19C154.99,-127.74 103.28,-104.63 75.37,-92.16"/>
<polygon fill="#9a32cd" stroke="#9a32cd" points="186.14,-145.49 196.7,-146.38 189,-139.1 186.14,-145.49"/>
<text text-anchor="middle" x="171" y="-119" font-family="Helvetica,sans-Serif" font-size="10.00"> visitors</text>
</g>
<!-- Node7&#45;&gt;Node2 -->
<g id="edge11" class="edge">
<title>Node7&#45;&gt;Node2</title>
<path fill="none" stroke="midnightblue" d="M348.84,-139.37C364.36,-124.95 386.86,-104.06 399.48,-92.34"/>
<polygon fill="midnightblue" stroke="midnightblue" points="346.39,-136.86 341.44,-146.23 351.15,-141.99 346.39,-136.86"/>
</g>
<!-- Node8 -->
<g id="node8" class="node">
<title>Node8</title>
<g id="a_node8"><a xlink:href="classsafe__vector.html" target="_top" xlink:title=" ">
<polygon fill="white" stroke="black" points="421.5,-146.5 421.5,-165.5 574.5,-165.5 574.5,-146.5 421.5,-146.5"/>
<text text-anchor="middle" x="498" y="-153.5" font-family="Helvetica,sans-Serif" font-size="10.00">safe_vector&lt; DebugHook &gt;</text>
</a>
</g>
</g>
<!-- Node8&#45;&gt;Node2 -->
<g id="edge13" class="edge">
<title>Node8&#45;&gt;Node2</title>
<path fill="none" stroke="#9a32cd" stroke-dasharray="5,2" d="M478.98,-139.72C460.91,-125.2 434.38,-103.89 419.72,-92.12"/>
<polygon fill="#9a32cd" stroke="#9a32cd" points="477.1,-142.7 487.09,-146.23 481.48,-137.24 477.1,-142.7"/>
<text text-anchor="middle" x="494" y="-119" font-family="Helvetica,sans-Serif" font-size="10.00"> debugHooks</text>
</g>
<!-- Node9 -->
<g id="node9" class="node">
<title>Node9</title>
<g id="a_node9"><a xlink:title=" ">
<polygon fill="white" stroke="#bfbfbf" points="530.5,-214.5 530.5,-233.5 627.5,-233.5 627.5,-214.5 530.5,-214.5"/>
<text text-anchor="middle" x="579" y="-221.5" font-family="Helvetica,sans-Serif" font-size="10.00">std::vector&lt; T &gt;</text>
</a>
</g>
</g>
<!-- Node9&#45;&gt;Node8 -->
<g id="edge14" class="edge">
<title>Node9&#45;&gt;Node8</title>
<path fill="none" stroke="midnightblue" d="M560.26,-207.73C544.22,-194.66 521.69,-176.3 508.59,-165.63"/>
<polygon fill="midnightblue" stroke="midnightblue" points="558.45,-210.77 568.41,-214.37 562.87,-205.34 558.45,-210.77"/>
</g>
<!-- Node11 -->
<g id="node11" class="node">
<title>Node11</title>
<g id="a_node11"><a xlink:href="classsafe__vector.html" target="_top" xlink:title=" ">
<polygon fill="white" stroke="black" points="593,-146.5 593,-165.5 729,-165.5 729,-146.5 593,-146.5"/>
<text text-anchor="middle" x="661" y="-153.5" font-family="Helvetica,sans-Serif" font-size="10.00">safe_vector&lt; Visitor * &gt;</text>
</a>
</g>
</g>
<!-- Node9&#45;&gt;Node11 -->
<g id="edge17" class="edge">
<title>Node9&#45;&gt;Node11</title>
<path fill="none" stroke="midnightblue" d="M597.52,-208.1C613.79,-195 636.89,-176.4 650.28,-165.63"/>
<polygon fill="midnightblue" stroke="midnightblue" points="595.32,-205.37 589.72,-214.37 599.7,-210.83 595.32,-205.37"/>
</g>
<!-- Node10 -->
<g id="node10" class="node">
<title>Node10</title>
<g id="a_node10"><a xlink:title=" ">
<polygon fill="white" stroke="#bfbfbf" points="564.5,-282.5 564.5,-301.5 593.5,-301.5 593.5,-282.5 564.5,-282.5"/>
<text text-anchor="middle" x="579" y="-289.5" font-family="Helvetica,sans-Serif" font-size="10.00">T</text>
</a>
</g>
</g>
<!-- Node10&#45;&gt;Node9 -->
<g id="edge15" class="edge">
<title>Node10&#45;&gt;Node9</title>
<path fill="none" stroke="#9a32cd" stroke-dasharray="5,2" d="M579,-272.04C579,-259.47 579,-243.56 579,-233.84"/>
<polygon fill="#9a32cd" stroke="#9a32cd" points="575.5,-272.37 579,-282.37 582.5,-272.37 575.5,-272.37"/>
<text text-anchor="middle" x="603.5" y="-255" font-family="Helvetica,sans-Serif" font-size="10.00"> elements</text>
</g>
<!-- Node11&#45;&gt;Node2 -->
<g id="edge16" class="edge">
<title>Node11&#45;&gt;Node2</title>
<path fill="none" stroke="#9a32cd" stroke-dasharray="5,2" d="M623.63,-143.4C597.49,-135.4 561.72,-124.68 530,-116 498.19,-107.29 489.82,-106.68 458,-98 451.24,-96.16 443.98,-94.07 437.18,-92.06"/>
<polygon fill="#9a32cd" stroke="#9a32cd" points="622.91,-146.84 633.5,-146.43 624.97,-140.14 622.91,-146.84"/>
<text text-anchor="middle" x="584.5" y="-119" font-family="Helvetica,sans-Serif" font-size="10.00"> passes</text>
</g>
<!-- Node12 -->
<g id="node12" class="node">
<title>Node12</title>
<g id="a_node12"><a xlink:href="class_d_p_d_k_1_1_convert_lookahead_1_1_replacement_map.html" target="_top" xlink:title=" ">
<polygon fill="white" stroke="black" points="467.5,-67.5 467.5,-97.5 608.5,-97.5 608.5,-67.5 467.5,-67.5"/>
<text text-anchor="start" x="475.5" y="-85.5" font-family="Helvetica,sans-Serif" font-size="10.00">DPDK::ConvertLookahead</text>
<text text-anchor="middle" x="538" y="-74.5" font-family="Helvetica,sans-Serif" font-size="10.00">::ReplacementMap</text>
</a>
</g>
</g>
<!-- Node12&#45;&gt;Node1 -->
<g id="edge18" class="edge">
<title>Node12&#45;&gt;Node1</title>
<path fill="none" stroke="#9a32cd" stroke-dasharray="5,2" d="M517.96,-59.76C505.59,-46.34 490.38,-29.85 481.2,-19.89"/>
<polygon fill="#9a32cd" stroke="#9a32cd" points="515.49,-62.25 524.85,-67.23 520.64,-57.51 515.49,-62.25"/>
<text text-anchor="middle" x="518" y="-41" font-family="Helvetica,sans-Serif" font-size="10.00"> repl</text>
</g>
</g>
</svg>
