<?xml version="1.0" encoding="UTF-8" standalone="no"?>
<!DOCTYPE svg PUBLIC "-//W3C//DTD SVG 1.1//EN"
 "http://www.w3.org/Graphics/SVG/1.1/DTD/svg11.dtd">
<!-- Generated by graphviz version 11.0.0 (20240428.1522)
 -->
<!-- Title: EBPF::EBPFObject Pages: 1 -->
<!--zoomable 1206 -->

<svg id="main" version="1.1" xmlns="http://www.w3.org/2000/svg" xmlns:xlink="http://www.w3.org/1999/xlink" xml:space="preserve" onload="init(evt)">
<style type="text/css"><![CDATA[
.node, .edge {opacity: 0.7;}
.node.selected, .edge.selected {opacity: 1;}
.edge:hover path { stroke: red; }
.edge:hover polygon { stroke: red; fill: red; }
]]></style>

<defs>
  <circle id="rim" cx="0" cy="0" r="7"/>
  <circle id="rim2" cx="0" cy="0" r="3.5"/>
  <g id="zoomPlus">
    <use xlink:href="#rim" fill="#404040"><set attributeName="fill" to="#808080" begin="zoomplus.mouseover" end="zoomplus.mouseout"/></use>
    <path d="M-4,0h8M0,-4v8" fill="none" stroke="white" stroke-width="1.5" pointer-events="none"/>
  </g>
  <g id="zoomMin">
    <use xlink:href="#rim" fill="#404040"><set attributeName="fill" to="#808080" begin="zoomminus.mouseover" end="zoomminus.mouseout"/></use>
    <path d="M-4,0h8" fill="none" stroke="white" stroke-width="1.5" pointer-events="none"/>
  </g>
  <g id="arrowUp" transform="translate(30 24)">
    <use xlink:href="#rim"/>
    <path pointer-events="none" fill="none" stroke="white" stroke-width="1.5" d="M0,-3.0v7 M-2.5,-0.5L0,-3.0L2.5,-0.5"/>
  </g>
  <g id="arrowRight" transform="rotate(90) translate(36 -43)">
    <use xlink:href="#rim"/>
    <path pointer-events="none" fill="none" stroke="white" stroke-width="1.5" d="M0,-3.0v7 M-2.5,-0.5L0,-3.0L2.5,-0.5"/>
  </g>
  <g id="arrowDown" transform="rotate(180) translate(-30 -48)">
    <use xlink:href="#rim"/>
    <path pointer-events="none" fill="none" stroke="white" stroke-width="1.5" d="M0,-3.0v7 M-2.5,-0.5L0,-3.0L2.5,-0.5"/>
  </g>
  <g id="arrowLeft" transform="rotate(270) translate(-36 17)">
    <use xlink:href="#rim"/>
    <path pointer-events="none" fill="none" stroke="white" stroke-width="1.5" d="M0,-3.0v7 M-2.5,-0.5L0,-3.0L2.5,-0.5"/>
  </g>
  <g id="resetDef">
    <use xlink:href="#rim2" fill="#404040"><set attributeName="fill" to="#808080" begin="reset.mouseover" end="reset.mouseout"/></use>
  </g>
</defs>
<script type="application/ecmascript">
var viewWidth = 904;
var viewHeight = 1206;
var sectionId = 'dynsection-0';
</script>
<script type="application/ecmascript" xlink:href="svg.min.js"/>
<svg id="graph" class="graph">
<g id="viewport">
<title>EBPF::EBPFObject</title>
<!-- Node1 -->
<g id="Node000001" class="node">
<title>Node1</title>
<g id="a_Node000001"><a xlink:title="Base class for EBPF objects.">
<polygon fill="#999999" stroke="#666666" points="295.5,-742 192.5,-742 192.5,-722 295.5,-722 295.5,-742"/>
<text text-anchor="middle" x="244" y="-728.5" font-family="Helvetica,sans-Serif" font-size="10.00">EBPF::EBPFObject</text>
</a>
</g>
</g>
<!-- Node4 -->
<g id="Node000004" class="node">
<title>Node4</title>
<g id="a_Node000004"><a xlink:href="class_e_b_p_f_1_1_e_b_p_f_checksum_p_s_a.html" target="_top" xlink:title=" ">
<polygon fill="white" stroke="#bfbfbf" points="481.38,-1141 340.12,-1141 340.12,-1121 481.38,-1121 481.38,-1141"/>
<text text-anchor="middle" x="410.75" y="-1127.5" font-family="Helvetica,sans-Serif" font-size="10.00">EBPF::EBPFChecksumPSA</text>
</a>
</g>
</g>
<!-- Node1&#45;&gt;Node4 -->
<g id="edge3_Node000001_Node000004" class="edge">
<title>Node1&#45;&gt;Node4</title>
<g id="a_edge3_Node000001_Node000004"><a xlink:title=" ">
<path fill="none" stroke="#63b8ff" d="M248.01,-753.5C255.84,-804.85 279.92,-937.67 331.5,-1036 349.66,-1070.63 381.85,-1104.29 398.72,-1120.68"/>
<polygon fill="#63b8ff" stroke="#63b8ff" points="251.5,-753.16 246.58,-743.77 244.57,-754.17 251.5,-753.16"/>
</a>
</g>
</g>
<!-- Node9 -->
<g id="Node000009" class="node">
<title>Node9</title>
<g id="a_Node000009"><a xlink:href="class_e_b_p_f_1_1_e_b_p_f_control.html" target="_top" xlink:title=" ">
<polygon fill="white" stroke="#bfbfbf" points="463.38,-1027 358.12,-1027 358.12,-1007 463.38,-1007 463.38,-1027"/>
<text text-anchor="middle" x="410.75" y="-1013.5" font-family="Helvetica,sans-Serif" font-size="10.00">EBPF::EBPFControl</text>
</a>
</g>
</g>
<!-- Node1&#45;&gt;Node9 -->
<g id="edge8_Node000001_Node000009" class="edge">
<title>Node1&#45;&gt;Node9</title>
<g id="a_edge8_Node000001_Node000009"><a xlink:title=" ">
<path fill="none" stroke="#63b8ff" d="M249.77,-753.6C259.67,-794.96 285.45,-886.92 331.5,-951 348.41,-974.52 375.51,-994.85 392.97,-1006.51"/>
<polygon fill="#63b8ff" stroke="#63b8ff" points="253.2,-752.91 247.54,-743.95 246.38,-754.48 253.2,-752.91"/>
</a>
</g>
</g>
<!-- Node23 -->
<g id="Node000023" class="node">
<title>Node23</title>
<g id="a_Node000023"><a xlink:href="class_e_b_p_f_1_1_e_b_p_f_digest_p_s_a.html" target="_top" xlink:title=" ">
<polygon fill="white" stroke="#bfbfbf" points="472,-942 349.5,-942 349.5,-922 472,-922 472,-942"/>
<text text-anchor="middle" x="410.75" y="-928.5" font-family="Helvetica,sans-Serif" font-size="10.00">EBPF::EBPFDigestPSA</text>
</a>
</g>
</g>
<!-- Node1&#45;&gt;Node23 -->
<g id="edge12_Node000001_Node000023" class="edge">
<title>Node1&#45;&gt;Node23</title>
<g id="a_edge12_Node000001_Node000023"><a xlink:title=" ">
<path fill="none" stroke="#63b8ff" d="M252.92,-752.92C265.63,-784.36 293.12,-844.34 331.5,-884 347.24,-900.26 369.59,-913.25 386.38,-921.6"/>
<polygon fill="#63b8ff" stroke="#63b8ff" points="256.24,-751.81 249.33,-743.78 249.73,-754.36 256.24,-751.81"/>
</a>
</g>
</g>
<!-- Node25 -->
<g id="Node000025" class="node">
<title>Node25</title>
<g id="a_Node000025"><a xlink:href="class_e_b_p_f_1_1_e_b_p_f_hash_algorithm_p_s_a.html" target="_top" xlink:title=" ">
<polygon fill="white" stroke="#bfbfbf" points="490,-875 331.5,-875 331.5,-855 490,-855 490,-875"/>
<text text-anchor="middle" x="410.75" y="-861.5" font-family="Helvetica,sans-Serif" font-size="10.00">EBPF::EBPFHashAlgorithmPSA</text>
</a>
</g>
</g>
<!-- Node1&#45;&gt;Node25 -->
<g id="edge14_Node000001_Node000025" class="edge">
<title>Node1&#45;&gt;Node25</title>
<g id="a_edge14_Node000001_Node000025"><a xlink:title=" ">
<path fill="none" stroke="#63b8ff" d="M259.09,-751.45C274.9,-772.21 302.18,-805.07 331.5,-827 346.86,-838.49 366.24,-847.93 381.87,-854.53"/>
<polygon fill="#63b8ff" stroke="#63b8ff" points="261.99,-749.47 253.2,-743.54 256.37,-753.65 261.99,-749.47"/>
</a>
</g>
</g>
<!-- Node34 -->
<g id="Node000034" class="node">
<title>Node34</title>
<g id="a_Node000034"><a xlink:href="class_e_b_p_f_1_1_e_b_p_f_method_declaration.html" target="_top" xlink:title="Methods are function signatures.">
<polygon fill="white" stroke="#666666" points="488.5,-818 333,-818 333,-798 488.5,-798 488.5,-818"/>
<text text-anchor="middle" x="410.75" y="-804.5" font-family="Helvetica,sans-Serif" font-size="10.00">EBPF::EBPFMethodDeclaration</text>
</a>
</g>
</g>
<!-- Node1&#45;&gt;Node34 -->
<g id="edge18_Node000001_Node000034" class="edge">
<title>Node1&#45;&gt;Node34</title>
<g id="a_edge18_Node000001_Node000034"><a xlink:title=" ">
<path fill="none" stroke="#63b8ff" d="M266.62,-749.31C283.43,-761.97 307.79,-778.68 331.5,-789 339.19,-792.35 347.58,-795.17 355.91,-797.53"/>
<polygon fill="#63b8ff" stroke="#63b8ff" points="268.92,-746.66 258.86,-743.32 264.64,-752.2 268.92,-746.66"/>
</a>
</g>
</g>
<!-- Node35 -->
<g id="Node000035" class="node">
<title>Node35</title>
<g id="a_Node000035"><a xlink:href="class_e_b_p_f_1_1_e_b_p_f_parser.html" target="_top" xlink:title=" ">
<polygon fill="white" stroke="#bfbfbf" points="462.25,-780 359.25,-780 359.25,-760 462.25,-760 462.25,-780"/>
<text text-anchor="middle" x="410.75" y="-766.5" font-family="Helvetica,sans-Serif" font-size="10.00">EBPF::EBPFParser</text>
</a>
</g>
</g>
<!-- Node1&#45;&gt;Node35 -->
<g id="edge19_Node000001_Node000035" class="edge">
<title>Node1&#45;&gt;Node35</title>
<g id="a_edge19_Node000001_Node000035"><a xlink:title=" ">
<path fill="none" stroke="#63b8ff" d="M301.58,-745.05C322.11,-749.78 345.01,-755.07 364.44,-759.55"/>
<polygon fill="#63b8ff" stroke="#63b8ff" points="302.46,-741.66 291.93,-742.82 300.89,-748.48 302.46,-741.66"/>
</a>
</g>
</g>
<!-- Node39 -->
<g id="Node000039" class="node">
<title>Node39</title>
<g id="a_Node000039"><a xlink:href="class_e_b_p_f_1_1_e_b_p_f_parser_state.html" target="_top" xlink:title=" ">
<polygon fill="white" stroke="#bfbfbf" points="473.88,-742 347.62,-742 347.62,-722 473.88,-722 473.88,-742"/>
<text text-anchor="middle" x="410.75" y="-728.5" font-family="Helvetica,sans-Serif" font-size="10.00">EBPF::EBPFParserState</text>
</a>
</g>
</g>
<!-- Node1&#45;&gt;Node39 -->
<g id="edge22_Node000001_Node000039" class="edge">
<title>Node1&#45;&gt;Node39</title>
<g id="a_edge22_Node000001_Node000039"><a xlink:title=" ">
<path fill="none" stroke="#63b8ff" d="M307.09,-732C320.22,-732 334.09,-732 347.23,-732"/>
<polygon fill="#63b8ff" stroke="#63b8ff" points="307.29,-728.5 297.29,-732 307.29,-735.5 307.29,-728.5"/>
</a>
</g>
</g>
<!-- Node41 -->
<g id="Node000041" class="node">
<title>Node41</title>
<g id="a_Node000041"><a xlink:href="class_e_b_p_f_1_1_e_b_p_f_program.html" target="_top" xlink:title=" ">
<polygon fill="white" stroke="#bfbfbf" points="466.38,-704 355.12,-704 355.12,-684 466.38,-684 466.38,-704"/>
<text text-anchor="middle" x="410.75" y="-690.5" font-family="Helvetica,sans-Serif" font-size="10.00">EBPF::EBPFProgram</text>
</a>
</g>
</g>
<!-- Node1&#45;&gt;Node41 -->
<g id="edge24_Node000001_Node000041" class="edge">
<title>Node1&#45;&gt;Node41</title>
<g id="a_edge24_Node000001_Node000041"><a xlink:title=" ">
<path fill="none" stroke="#63b8ff" d="M301.58,-718.95C322.11,-714.22 345.01,-708.93 364.44,-704.45"/>
<polygon fill="#63b8ff" stroke="#63b8ff" points="300.89,-715.52 291.93,-721.18 302.46,-722.34 300.89,-715.52"/>
</a>
</g>
</g>
<!-- Node53 -->
<g id="Node000053" class="node">
<title>Node53</title>
<g id="a_Node000053"><a xlink:href="class_e_b_p_f_1_1_e_b_p_f_random_p_s_a.html" target="_top" xlink:title=" ">
<polygon fill="white" stroke="#bfbfbf" points="476.12,-666 345.38,-666 345.38,-646 476.12,-646 476.12,-666"/>
<text text-anchor="middle" x="410.75" y="-652.5" font-family="Helvetica,sans-Serif" font-size="10.00">EBPF::EBPFRandomPSA</text>
</a>
</g>
</g>
<!-- Node1&#45;&gt;Node53 -->
<g id="edge28_Node000001_Node000053" class="edge">
<title>Node1&#45;&gt;Node53</title>
<g id="a_edge28_Node000001_Node000053"><a xlink:title=" ">
<path fill="none" stroke="#63b8ff" d="M266.62,-714.69C283.43,-702.03 307.79,-685.32 331.5,-675 339.19,-671.65 347.58,-668.83 355.91,-666.47"/>
<polygon fill="#63b8ff" stroke="#63b8ff" points="264.64,-711.8 258.86,-720.68 268.92,-717.34 264.64,-711.8"/>
</a>
</g>
</g>
<!-- Node54 -->
<g id="Node000054" class="node">
<title>Node54</title>
<g id="a_Node000054"><a xlink:href="class_e_b_p_f_1_1_e_b_p_f_table_base.html" target="_top" xlink:title="Also used to represent counters.">
<polygon fill="white" stroke="#666666" points="470.88,-514 350.62,-514 350.62,-494 470.88,-494 470.88,-514"/>
<text text-anchor="middle" x="410.75" y="-500.5" font-family="Helvetica,sans-Serif" font-size="10.00">EBPF::EBPFTableBase</text>
</a>
</g>
</g>
<!-- Node1&#45;&gt;Node54 -->
<g id="edge29_Node000001_Node000054" class="edge">
<title>Node1&#45;&gt;Node54</title>
<g id="a_edge29_Node000001_Node000054"><a xlink:title=" ">
<path fill="none" stroke="#63b8ff" d="M259.25,-712.28C292.94,-665.65 376.62,-549.85 402.2,-514.45"/>
<polygon fill="#63b8ff" stroke="#63b8ff" points="256.41,-710.23 253.39,-720.38 262.09,-714.33 256.41,-710.23"/>
</a>
</g>
</g>
<!-- Node68 -->
<g id="Node000068" class="node">
<title>Node68</title>
<g id="a_Node000068"><a xlink:href="class_e_b_p_f_1_1_e_b_p_f_type.html" target="_top" xlink:title="Base class for EBPF types.">
<polygon fill="white" stroke="#666666" points="458.5,-267 363,-267 363,-247 458.5,-247 458.5,-267"/>
<text text-anchor="middle" x="410.75" y="-253.5" font-family="Helvetica,sans-Serif" font-size="10.00">EBPF::EBPFType</text>
</a>
</g>
</g>
<!-- Node1&#45;&gt;Node68 -->
<g id="edge36_Node000001_Node000068" class="edge">
<title>Node1&#45;&gt;Node68</title>
<g id="a_edge36_Node000001_Node000068"><a xlink:title=" ">
<path fill="none" stroke="#63b8ff" d="M252.34,-710.85C281.1,-627.93 385.59,-326.67 406.2,-267.23"/>
<polygon fill="#63b8ff" stroke="#63b8ff" points="249.06,-709.61 249.09,-720.21 255.67,-711.91 249.06,-709.61"/>
</a>
</g>
</g>
<!-- Node83 -->
<g id="Node000083" class="node">
<title>Node83</title>
<g id="a_Node000083"><a xlink:href="class_u_b_p_f_1_1_u_b_p_f_deparser.html" target="_top" xlink:title=" ">
<polygon fill="white" stroke="#bfbfbf" points="467.5,-229 354,-229 354,-209 467.5,-209 467.5,-229"/>
<text text-anchor="middle" x="410.75" y="-215.5" font-family="Helvetica,sans-Serif" font-size="10.00">UBPF::UBPFDeparser</text>
</a>
</g>
</g>
<!-- Node1&#45;&gt;Node83 -->
<g id="edge45_Node000001_Node000083" class="edge">
<title>Node1&#45;&gt;Node83</title>
<g id="a_edge45_Node000001_Node000083"><a xlink:title=" ">
<path fill="none" stroke="#63b8ff" d="M245.73,-710.38C249.1,-624.41 265.81,-308.1 331.5,-238 337.52,-231.57 345.32,-227.16 353.65,-224.16"/>
<polygon fill="#63b8ff" stroke="#63b8ff" points="242.24,-710.1 245.37,-720.22 249.24,-710.35 242.24,-710.1"/>
</a>
</g>
</g>
<!-- Node84 -->
<g id="Node000084" class="node">
<title>Node84</title>
<g id="a_Node000084"><a xlink:href="class_u_b_p_f_1_1_u_b_p_f_table_base.html" target="_top" xlink:title=" ">
<polygon fill="white" stroke="#bfbfbf" points="470.88,-58 350.62,-58 350.62,-38 470.88,-38 470.88,-58"/>
<text text-anchor="middle" x="410.75" y="-44.5" font-family="Helvetica,sans-Serif" font-size="10.00">UBPF::UBPFTableBase</text>
</a>
</g>
</g>
<!-- Node1&#45;&gt;Node84 -->
<g id="edge46_Node000001_Node000084" class="edge">
<title>Node1&#45;&gt;Node84</title>
<g id="a_edge46_Node000001_Node000084"><a xlink:title=" ">
<path fill="none" stroke="#63b8ff" d="M246.1,-710.23C250.31,-636.64 268.51,-391.15 331.5,-200 350.17,-143.34 387.76,-81.95 403.05,-58.19"/>
<polygon fill="#63b8ff" stroke="#63b8ff" points="242.61,-709.89 245.56,-720.06 249.6,-710.26 242.61,-709.89"/>
</a>
</g>
</g>
<!-- Node2 -->
<g id="Node000002" class="node">
<title>Node2</title>
<g id="a_Node000002"><a xlink:href="class_i_castable.html" target="_top" xlink:title=" ">
<polygon fill="white" stroke="#666666" points="156.5,-742 100,-742 100,-722 156.5,-722 156.5,-742"/>
<text text-anchor="middle" x="128.25" y="-728.5" font-family="Helvetica,sans-Serif" font-size="10.00">ICastable</text>
</a>
</g>
</g>
<!-- Node2&#45;&gt;Node1 -->
<g id="edge1_Node000001_Node000002" class="edge">
<title>Node2&#45;&gt;Node1</title>
<g id="a_edge1_Node000001_Node000002"><a xlink:title=" ">
<path fill="none" stroke="#63b8ff" d="M168.07,-732C175.82,-732 184.07,-732 192.15,-732"/>
<polygon fill="#63b8ff" stroke="#63b8ff" points="168.3,-728.5 158.3,-732 168.3,-735.5 168.3,-728.5"/>
</a>
</g>
</g>
<!-- Node3 -->
<g id="Node000003" class="node">
<title>Node3</title>
<g id="a_Node000003"><a xlink:href="struct_r_t_t_i_1_1_base.html" target="_top" xlink:title=" ">
<polygon fill="white" stroke="#bfbfbf" points="64,-742 0,-742 0,-722 64,-722 64,-742"/>
<text text-anchor="middle" x="32" y="-728.5" font-family="Helvetica,sans-Serif" font-size="10.00">RTTI::Base</text>
</a>
</g>
</g>
<!-- Node3&#45;&gt;Node2 -->
<g id="edge2_Node000002_Node000003" class="edge">
<title>Node3&#45;&gt;Node2</title>
<g id="a_edge2_Node000002_Node000003"><a xlink:title=" ">
<path fill="none" stroke="#63b8ff" d="M75.72,-732C83.9,-732 92.26,-732 99.8,-732"/>
<polygon fill="#63b8ff" stroke="#63b8ff" points="75.9,-728.5 65.9,-732 75.9,-735.5 75.9,-728.5"/>
</a>
</g>
</g>
<!-- Node5 -->
<g id="Node000005" class="node">
<title>Node5</title>
<g id="a_Node000005"><a xlink:href="class_e_b_p_f_1_1_e_b_p_f_hash_p_s_a.html" target="_top" xlink:title=" ">
<polygon fill="white" stroke="#bfbfbf" points="671.75,-1198 554.5,-1198 554.5,-1178 671.75,-1178 671.75,-1198"/>
<text text-anchor="middle" x="613.12" y="-1184.5" font-family="Helvetica,sans-Serif" font-size="10.00">EBPF::EBPFHashPSA</text>
</a>
</g>
</g>
<!-- Node4&#45;&gt;Node5 -->
<g id="edge4_Node000004_Node000005" class="edge">
<title>Node4&#45;&gt;Node5</title>
<g id="a_edge4_Node000004_Node000005"><a xlink:title=" ">
<path fill="none" stroke="#63b8ff" d="M450.7,-1145.07C472.65,-1152.72 500.66,-1162.01 526,-1169 537.07,-1172.05 549.05,-1174.95 560.45,-1177.52"/>
<polygon fill="#63b8ff" stroke="#63b8ff" points="452.16,-1141.88 441.57,-1141.86 449.84,-1148.48 452.16,-1141.88"/>
</a>
</g>
</g>
<!-- Node6 -->
<g id="Node000006" class="node">
<title>Node6</title>
<g id="a_Node000006"><a xlink:href="class_e_b_p_f_1_1_e_b_p_f_internet_checksum_p_s_a.html" target="_top" xlink:title=" ">
<polygon fill="white" stroke="#bfbfbf" points="699.88,-1160 526.38,-1160 526.38,-1140 699.88,-1140 699.88,-1160"/>
<text text-anchor="middle" x="613.12" y="-1146.5" font-family="Helvetica,sans-Serif" font-size="10.00">EBPF::EBPFInternetChecksumPSA</text>
</a>
</g>
</g>
<!-- Node4&#45;&gt;Node6 -->
<g id="edge5_Node000004_Node000006" class="edge">
<title>Node4&#45;&gt;Node6</title>
<g id="a_edge5_Node000004_Node000006"><a xlink:title=" ">
<path fill="none" stroke="#63b8ff" d="M493.07,-1138.71C503.99,-1139.75 515.22,-1140.81 526.22,-1141.85"/>
<polygon fill="#63b8ff" stroke="#63b8ff" points="493.62,-1135.25 483.34,-1137.79 492.96,-1142.22 493.62,-1135.25"/>
</a>
</g>
</g>
<!-- Node7 -->
<g id="Node000007" class="node">
<title>Node7</title>
<g id="a_Node000007"><a xlink:href="class_t_c_1_1_e_b_p_f_checksum_p_n_a.html" target="_top" xlink:title=" ">
<polygon fill="white" stroke="#bfbfbf" points="676.62,-1122 549.62,-1122 549.62,-1102 676.62,-1102 676.62,-1122"/>
<text text-anchor="middle" x="613.12" y="-1108.5" font-family="Helvetica,sans-Serif" font-size="10.00">TC::EBPFChecksumPNA</text>
</a>
</g>
</g>
<!-- Node4&#45;&gt;Node7 -->
<g id="edge6_Node000004_Node000007" class="edge">
<title>Node4&#45;&gt;Node7</title>
<g id="a_edge6_Node000004_Node000007"><a xlink:title=" ">
<path fill="none" stroke="#63b8ff" d="M493.08,-1123.29C511.87,-1121.51 531.59,-1119.64 549.44,-1117.94"/>
<polygon fill="#63b8ff" stroke="#63b8ff" points="492.96,-1119.78 483.34,-1124.21 493.62,-1126.75 492.96,-1119.78"/>
</a>
</g>
</g>
<!-- Node8 -->
<g id="Node000008" class="node">
<title>Node8</title>
<g id="a_Node000008"><a xlink:href="class_t_c_1_1_e_b_p_f_internet_checksum_p_n_a.html" target="_top" xlink:title=" ">
<polygon fill="white" stroke="#bfbfbf" points="895.5,-1122 736.25,-1122 736.25,-1102 895.5,-1102 895.5,-1122"/>
<text text-anchor="middle" x="815.88" y="-1108.5" font-family="Helvetica,sans-Serif" font-size="10.00">TC::EBPFInternetChecksumPNA</text>
</a>
</g>
</g>
<!-- Node7&#45;&gt;Node8 -->
<g id="edge7_Node000007_Node000008" class="edge">
<title>Node7&#45;&gt;Node8</title>
<g id="a_edge7_Node000007_Node000008"><a xlink:title=" ">
<path fill="none" stroke="#63b8ff" d="M688.21,-1112C703.74,-1112 720.16,-1112 735.86,-1112"/>
<polygon fill="#63b8ff" stroke="#63b8ff" points="688.61,-1108.5 678.61,-1112 688.61,-1115.5 688.61,-1108.5"/>
</a>
</g>
</g>
<!-- Node10 -->
<g id="Node000010" class="node">
<title>Node10</title>
<g id="a_Node000010"><a xlink:href="class_e_b_p_f_1_1_e_b_p_f_control_p_s_a.html" target="_top" xlink:title=" ">
<polygon fill="white" stroke="orangered" points="675.88,-1084 550.38,-1084 550.38,-1064 675.88,-1064 675.88,-1084"/>
<text text-anchor="middle" x="613.12" y="-1070.5" font-family="Helvetica,sans-Serif" font-size="10.00">EBPF::EBPFControlPSA</text>
</a>
</g>
</g>
<!-- Node9&#45;&gt;Node10 -->
<g id="edge9_Node000009_Node000010" class="edge">
<title>Node9&#45;&gt;Node10</title>
<g id="a_edge9_Node000009_Node000010"><a xlink:title=" ">
<path fill="none" stroke="#63b8ff" d="M450.7,-1031.07C472.65,-1038.72 500.66,-1048.01 526,-1055 537.07,-1058.05 549.05,-1060.95 560.45,-1063.52"/>
<polygon fill="#63b8ff" stroke="#63b8ff" points="452.16,-1027.88 441.57,-1027.86 449.84,-1034.48 452.16,-1027.88"/>
</a>
</g>
</g>
<!-- Node12 -->
<g id="Node000012" class="node">
<title>Node12</title>
<g id="a_Node000012"><a xlink:href="class_e_b_p_f_1_1_e_b_p_f_deparser.html" target="_top" xlink:title=" ">
<polygon fill="white" stroke="orangered" points="669.88,-1046 556.38,-1046 556.38,-1026 669.88,-1026 669.88,-1046"/>
<text text-anchor="middle" x="613.12" y="-1032.5" font-family="Helvetica,sans-Serif" font-size="10.00">EBPF::EBPFDeparser</text>
</a>
</g>
</g>
<!-- Node9&#45;&gt;Node12 -->
<g id="edge10_Node000009_Node000012" class="edge">
<title>Node9&#45;&gt;Node12</title>
<g id="a_edge10_Node000009_Node000012"><a xlink:title=" ">
<path fill="none" stroke="#63b8ff" d="M475.12,-1023.01C501.09,-1025.47 530.89,-1028.3 556.05,-1030.68"/>
<polygon fill="#63b8ff" stroke="#63b8ff" points="475.67,-1019.55 465.38,-1022.09 475,-1026.51 475.67,-1019.55"/>
</a>
</g>
</g>
<!-- Node22 -->
<g id="Node000022" class="node">
<title>Node22</title>
<g id="a_Node000022"><a xlink:href="class_u_b_p_f_1_1_u_b_p_f_control.html" target="_top" xlink:title=" ">
<polygon fill="white" stroke="#bfbfbf" points="665.75,-1008 560.5,-1008 560.5,-988 665.75,-988 665.75,-1008"/>
<text text-anchor="middle" x="613.12" y="-994.5" font-family="Helvetica,sans-Serif" font-size="10.00">UBPF::UBPFControl</text>
</a>
</g>
</g>
<!-- Node9&#45;&gt;Node22 -->
<g id="edge11_Node000009_Node000022" class="edge">
<title>Node9&#45;&gt;Node22</title>
<g id="a_edge11_Node000009_Node000022"><a xlink:title=" ">
<path fill="none" stroke="#63b8ff" d="M475.32,-1010.97C502.71,-1008.38 534.33,-1005.38 560.26,-1002.92"/>
<polygon fill="#63b8ff" stroke="#63b8ff" points="475,-1007.49 465.38,-1011.91 475.67,-1014.45 475,-1007.49"/>
</a>
</g>
</g>
<!-- Node24 -->
<g id="Node000024" class="node">
<title>Node24</title>
<g id="a_Node000024"><a xlink:href="class_t_c_1_1_e_b_p_f_digest_p_n_a.html" target="_top" xlink:title=" ">
<polygon fill="white" stroke="#bfbfbf" points="667.25,-970 559,-970 559,-950 667.25,-950 667.25,-970"/>
<text text-anchor="middle" x="613.12" y="-956.5" font-family="Helvetica,sans-Serif" font-size="10.00">TC::EBPFDigestPNA</text>
</a>
</g>
</g>
<!-- Node23&#45;&gt;Node24 -->
<g id="edge13_Node000023_Node000024" class="edge">
<title>Node23&#45;&gt;Node24</title>
<g id="a_edge13_Node000023_Node000024"><a xlink:title=" ">
<path fill="none" stroke="#63b8ff" d="M483.61,-942.04C508.41,-945.51 535.74,-949.33 558.8,-952.55"/>
<polygon fill="#63b8ff" stroke="#63b8ff" points="484.3,-938.6 473.91,-940.69 483.33,-945.54 484.3,-938.6"/>
</a>
</g>
</g>
<!-- Node26 -->
<g id="Node000026" class="node">
<title>Node26</title>
<g id="a_Node000026"><a xlink:href="class_e_b_p_f_1_1_c_r_c_checksum_algorithm.html" target="_top" xlink:title=" ">
<polygon fill="white" stroke="orangered" points="691.25,-932 535,-932 535,-912 691.25,-912 691.25,-932"/>
<text text-anchor="middle" x="613.12" y="-918.5" font-family="Helvetica,sans-Serif" font-size="10.00">EBPF::CRCChecksumAlgorithm</text>
</a>
</g>
</g>
<!-- Node25&#45;&gt;Node26 -->
<g id="edge15_Node000025_Node000026" class="edge">
<title>Node25&#45;&gt;Node26</title>
<g id="a_edge15_Node000025_Node000026"><a xlink:title=" ">
<path fill="none" stroke="#63b8ff" d="M450.7,-879.07C472.65,-886.72 500.66,-896.01 526,-903 537.07,-906.05 549.05,-908.95 560.45,-911.52"/>
<polygon fill="#63b8ff" stroke="#63b8ff" points="452.16,-875.88 441.57,-875.86 449.84,-882.48 452.16,-875.88"/>
</a>
</g>
</g>
<!-- Node32 -->
<g id="Node000032" class="node">
<title>Node32</title>
<g id="a_Node000032"><a xlink:href="class_e_b_p_f_1_1_internet_checksum_algorithm.html" target="_top" xlink:title=" ">
<polygon fill="white" stroke="#bfbfbf" points="697.25,-894 529,-894 529,-874 697.25,-874 697.25,-894"/>
<text text-anchor="middle" x="613.12" y="-880.5" font-family="Helvetica,sans-Serif" font-size="10.00">EBPF::InternetChecksumAlgorithm</text>
</a>
</g>
</g>
<!-- Node25&#45;&gt;Node32 -->
<g id="edge16_Node000025_Node000032" class="edge">
<title>Node25&#45;&gt;Node32</title>
<g id="a_edge16_Node000025_Node000032"><a xlink:title=" ">
<path fill="none" stroke="#63b8ff" d="M501.7,-873.53C510.71,-874.38 519.84,-875.25 528.78,-876.1"/>
<polygon fill="#63b8ff" stroke="#63b8ff" points="502.16,-870.06 491.88,-872.6 501.5,-877.03 502.16,-870.06"/>
</a>
</g>
</g>
<!-- Node33 -->
<g id="Node000033" class="node">
<title>Node33</title>
<g id="a_Node000033"><a xlink:href="class_t_c_1_1_internet_checksum_algorithm_p_n_a.html" target="_top" xlink:title=" ">
<polygon fill="white" stroke="#bfbfbf" points="700.25,-856 526,-856 526,-836 700.25,-836 700.25,-856"/>
<text text-anchor="middle" x="613.12" y="-842.5" font-family="Helvetica,sans-Serif" font-size="10.00">TC::InternetChecksumAlgorithmPNA</text>
</a>
</g>
</g>
<!-- Node25&#45;&gt;Node33 -->
<g id="edge17_Node000025_Node000033" class="edge">
<title>Node25&#45;&gt;Node33</title>
<g id="a_edge17_Node000025_Node000033"><a xlink:title=" ">
<path fill="none" stroke="#63b8ff" d="M501.64,-856.48C509.67,-855.72 517.79,-854.95 525.79,-854.19"/>
<polygon fill="#63b8ff" stroke="#63b8ff" points="501.5,-852.97 491.88,-857.4 502.16,-859.94 501.5,-852.97"/>
</a>
</g>
</g>
<!-- Node36 -->
<g id="Node000036" class="node">
<title>Node36</title>
<g id="a_Node000036"><a xlink:href="class_e_b_p_f_1_1_e_b_p_f_psa_parser.html" target="_top" xlink:title=" ">
<polygon fill="white" stroke="orangered" points="673.25,-818 553,-818 553,-798 673.25,-798 673.25,-818"/>
<text text-anchor="middle" x="613.12" y="-804.5" font-family="Helvetica,sans-Serif" font-size="10.00">EBPF::EBPFPsaParser</text>
</a>
</g>
</g>
<!-- Node35&#45;&gt;Node36 -->
<g id="edge20_Node000035_Node000036" class="edge">
<title>Node35&#45;&gt;Node36</title>
<g id="a_edge20_Node000035_Node000036"><a xlink:title=" ">
<path fill="none" stroke="#63b8ff" d="M473.67,-781.74C500.22,-786.78 531,-792.61 556.78,-797.5"/>
<polygon fill="#63b8ff" stroke="#63b8ff" points="474.54,-778.34 464.06,-779.92 473.23,-785.22 474.54,-778.34"/>
</a>
</g>
</g>
<!-- Node38 -->
<g id="Node000038" class="node">
<title>Node38</title>
<g id="a_Node000038"><a xlink:href="class_u_b_p_f_1_1_u_b_p_f_parser.html" target="_top" xlink:title=" ">
<polygon fill="white" stroke="#bfbfbf" points="664.62,-780 561.62,-780 561.62,-760 664.62,-760 664.62,-780"/>
<text text-anchor="middle" x="613.12" y="-766.5" font-family="Helvetica,sans-Serif" font-size="10.00">UBPF::UBPFParser</text>
</a>
</g>
</g>
<!-- Node35&#45;&gt;Node38 -->
<g id="edge21_Node000035_Node000038" class="edge">
<title>Node35&#45;&gt;Node38</title>
<g id="a_edge21_Node000035_Node000038"><a xlink:title=" ">
<path fill="none" stroke="#63b8ff" d="M473.89,-770C501.98,-770 534.77,-770 561.36,-770"/>
<polygon fill="#63b8ff" stroke="#63b8ff" points="474.09,-766.5 464.09,-770 474.09,-773.5 474.09,-766.5"/>
</a>
</g>
</g>
<!-- Node40 -->
<g id="Node000040" class="node">
<title>Node40</title>
<g id="a_Node000040"><a xlink:href="class_u_b_p_f_1_1_u_b_p_f_parser_state.html" target="_top" xlink:title=" ">
<polygon fill="white" stroke="#bfbfbf" points="676.25,-742 550,-742 550,-722 676.25,-722 676.25,-742"/>
<text text-anchor="middle" x="613.12" y="-728.5" font-family="Helvetica,sans-Serif" font-size="10.00">UBPF::UBPFParserState</text>
</a>
</g>
</g>
<!-- Node39&#45;&gt;Node40 -->
<g id="edge23_Node000039_Node000040" class="edge">
<title>Node39&#45;&gt;Node40</title>
<g id="a_edge23_Node000039_Node000040"><a xlink:title=" ">
<path fill="none" stroke="#63b8ff" d="M485.8,-732C506.79,-732 529.44,-732 549.68,-732"/>
<polygon fill="#63b8ff" stroke="#63b8ff" points="485.84,-728.5 475.84,-732 485.84,-735.5 485.84,-728.5"/>
</a>
</g>
</g>
<!-- Node42 -->
<g id="Node000042" class="node">
<title>Node42</title>
<g id="a_Node000042"><a xlink:href="class_e_b_p_f_1_1_e_b_p_f_pipeline.html" target="_top" xlink:title="EBPFPipeline represents a single eBPF program in the TC/XDP hook.">
<polygon fill="#fff0f0" stroke="red" points="667.62,-704 558.62,-704 558.62,-684 667.62,-684 667.62,-704"/>
<text text-anchor="middle" x="613.12" y="-690.5" font-family="Helvetica,sans-Serif" font-size="10.00">EBPF::EBPFPipeline</text>
</a>
</g>
</g>
<!-- Node41&#45;&gt;Node42 -->
<g id="edge25_Node000041_Node000042" class="edge">
<title>Node41&#45;&gt;Node42</title>
<g id="a_edge25_Node000041_Node000042"><a xlink:title=" ">
<path fill="none" stroke="#63b8ff" d="M478.07,-694C504.1,-694 533.59,-694 558.27,-694"/>
<polygon fill="#63b8ff" stroke="#63b8ff" points="478.28,-690.5 468.28,-694 478.28,-697.5 478.28,-690.5"/>
</a>
</g>
</g>
<!-- Node51 -->
<g id="Node000051" class="node">
<title>Node51</title>
<g id="a_Node000051"><a xlink:href="class_e_b_p_f_1_1_x_d_p_help_program.html" target="_top" xlink:title=" ">
<polygon fill="white" stroke="#bfbfbf" points="674.75,-666 551.5,-666 551.5,-646 674.75,-646 674.75,-666"/>
<text text-anchor="middle" x="613.12" y="-652.5" font-family="Helvetica,sans-Serif" font-size="10.00">EBPF::XDPHelpProgram</text>
</a>
</g>
</g>
<!-- Node41&#45;&gt;Node51 -->
<g id="edge26_Node000041_Node000051" class="edge">
<title>Node41&#45;&gt;Node51</title>
<g id="a_edge26_Node000041_Node000051"><a xlink:title=" ">
<path fill="none" stroke="#63b8ff" d="M477.88,-681.46C503.47,-676.6 532.43,-671.11 556.88,-666.48"/>
<polygon fill="#63b8ff" stroke="#63b8ff" points="477.43,-677.98 468.26,-683.28 478.73,-684.86 477.43,-677.98"/>
</a>
</g>
</g>
<!-- Node52 -->
<g id="Node000052" class="node">
<title>Node52</title>
<g id="a_Node000052"><a xlink:href="class_u_b_p_f_1_1_u_b_p_f_program.html" target="_top" xlink:title=" ">
<polygon fill="white" stroke="#bfbfbf" points="668.75,-628 557.5,-628 557.5,-608 668.75,-608 668.75,-628"/>
<text text-anchor="middle" x="613.12" y="-614.5" font-family="Helvetica,sans-Serif" font-size="10.00">UBPF::UBPFProgram</text>
</a>
</g>
</g>
<!-- Node41&#45;&gt;Node52 -->
<g id="edge27_Node000041_Node000052" class="edge">
<title>Node41&#45;&gt;Node52</title>
<g id="a_edge27_Node000041_Node000052"><a xlink:title=" ">
<path fill="none" stroke="#63b8ff" d="M477.27,-681.16C481.7,-679.37 485.99,-677.33 490,-675 510.13,-663.33 505.75,-648.45 526,-637 535.46,-631.65 546.3,-627.8 557.02,-625.04"/>
<polygon fill="#63b8ff" stroke="#63b8ff" points="476.44,-677.74 468.2,-684.4 478.79,-684.34 476.44,-677.74"/>
</a>
</g>
</g>
<!-- Node55 -->
<g id="Node000055" class="node">
<title>Node55</title>
<g id="a_Node000055"><a xlink:href="class_e_b_p_f_1_1_e_b_p_f_counter_table.html" target="_top" xlink:title=" ">
<polygon fill="white" stroke="orangered" points="678.88,-590 547.38,-590 547.38,-570 678.88,-570 678.88,-590"/>
<text text-anchor="middle" x="613.12" y="-576.5" font-family="Helvetica,sans-Serif" font-size="10.00">EBPF::EBPFCounterTable</text>
</a>
</g>
</g>
<!-- Node54&#45;&gt;Node55 -->
<g id="edge30_Node000054_Node000055" class="edge">
<title>Node54&#45;&gt;Node55</title>
<g id="a_edge30_Node000054_Node000055"><a xlink:title=" ">
<path fill="none" stroke="#63b8ff" d="M439.26,-520.13C461.89,-532.81 495.15,-550.09 526,-561 535.38,-564.32 545.55,-567.18 555.51,-569.59"/>
<polygon fill="#63b8ff" stroke="#63b8ff" points="441.09,-517.15 430.67,-515.25 437.63,-523.23 441.09,-517.15"/>
</a>
</g>
</g>
<!-- Node58 -->
<g id="Node000058" class="node">
<title>Node58</title>
<g id="a_Node000058"><a xlink:href="class_e_b_p_f_1_1_e_b_p_f_meter_p_s_a.html" target="_top" xlink:title=" ">
<polygon fill="white" stroke="#bfbfbf" points="672.88,-552 553.38,-552 553.38,-532 672.88,-532 672.88,-552"/>
<text text-anchor="middle" x="613.12" y="-538.5" font-family="Helvetica,sans-Serif" font-size="10.00">EBPF::EBPFMeterPSA</text>
</a>
</g>
</g>
<!-- Node54&#45;&gt;Node58 -->
<g id="edge31_Node000054_Node000058" class="edge">
<title>Node54&#45;&gt;Node58</title>
<g id="a_edge31_Node000054_Node000058"><a xlink:title=" ">
<path fill="none" stroke="#63b8ff" d="M478.14,-516.59C503.72,-521.44 532.62,-526.92 557.02,-531.55"/>
<polygon fill="#63b8ff" stroke="#63b8ff" points="479,-513.19 468.52,-514.77 477.69,-520.07 479,-513.19"/>
</a>
</g>
</g>
<!-- Node59 -->
<g id="Node000059" class="node">
<title>Node59</title>
<g id="a_Node000059"><a xlink:href="class_e_b_p_f_1_1_e_b_p_f_register_p_s_a.html" target="_top" xlink:title=" ">
<polygon fill="white" stroke="#bfbfbf" points="678.5,-514 547.75,-514 547.75,-494 678.5,-494 678.5,-514"/>
<text text-anchor="middle" x="613.12" y="-500.5" font-family="Helvetica,sans-Serif" font-size="10.00">EBPF::EBPFRegisterPSA</text>
</a>
</g>
</g>
<!-- Node54&#45;&gt;Node59 -->
<g id="edge32_Node000054_Node000059" class="edge">
<title>Node54&#45;&gt;Node59</title>
<g id="a_edge32_Node000054_Node000059"><a xlink:title=" ">
<path fill="none" stroke="#63b8ff" d="M482.82,-504C503.91,-504 526.88,-504 547.54,-504"/>
<polygon fill="#63b8ff" stroke="#63b8ff" points="482.84,-500.5 472.84,-504 482.84,-507.5 482.84,-500.5"/>
</a>
</g>
</g>
<!-- Node60 -->
<g id="Node000060" class="node">
<title>Node60</title>
<g id="a_Node000060"><a xlink:href="class_e_b_p_f_1_1_e_b_p_f_table.html" target="_top" xlink:title=" ">
<polygon fill="white" stroke="orangered" points="662,-476 564.25,-476 564.25,-456 662,-456 662,-476"/>
<text text-anchor="middle" x="613.12" y="-462.5" font-family="Helvetica,sans-Serif" font-size="10.00">EBPF::EBPFTable</text>
</a>
</g>
</g>
<!-- Node54&#45;&gt;Node60 -->
<g id="edge33_Node000054_Node000060" class="edge">
<title>Node54&#45;&gt;Node60</title>
<g id="a_edge33_Node000054_Node000060"><a xlink:title=" ">
<path fill="none" stroke="#63b8ff" d="M478.34,-491.37C506.29,-486.07 538.2,-480.02 563.84,-475.16"/>
<polygon fill="#63b8ff" stroke="#63b8ff" points="477.69,-487.93 468.52,-493.23 479,-494.81 477.69,-487.93"/>
</a>
</g>
</g>
<!-- Node66 -->
<g id="Node000066" class="node">
<title>Node66</title>
<g id="a_Node000066"><a xlink:href="class_e_b_p_f_1_1_e_b_p_f_value_set.html" target="_top" xlink:title=" ">
<polygon fill="white" stroke="#bfbfbf" points="670.25,-438 556,-438 556,-418 670.25,-418 670.25,-438"/>
<text text-anchor="middle" x="613.12" y="-424.5" font-family="Helvetica,sans-Serif" font-size="10.00">EBPF::EBPFValueSet</text>
</a>
</g>
</g>
<!-- Node54&#45;&gt;Node66 -->
<g id="edge34_Node000054_Node000066" class="edge">
<title>Node54&#45;&gt;Node66</title>
<g id="a_edge34_Node000054_Node000066"><a xlink:title=" ">
<path fill="none" stroke="#63b8ff" d="M439.26,-487.87C461.89,-475.19 495.15,-457.91 526,-447 535.38,-443.68 545.55,-440.82 555.51,-438.41"/>
<polygon fill="#63b8ff" stroke="#63b8ff" points="437.63,-484.77 430.67,-492.75 441.09,-490.85 437.63,-484.77"/>
</a>
</g>
</g>
<!-- Node67 -->
<g id="Node000067" class="node">
<title>Node67</title>
<g id="a_Node000067"><a xlink:href="class_t_c_1_1_e_b_p_f_register_p_n_a.html" target="_top" xlink:title=" ">
<polygon fill="white" stroke="#bfbfbf" points="671.38,-400 554.88,-400 554.88,-380 671.38,-380 671.38,-400"/>
<text text-anchor="middle" x="613.12" y="-386.5" font-family="Helvetica,sans-Serif" font-size="10.00">TC::EBPFRegisterPNA</text>
</a>
</g>
</g>
<!-- Node54&#45;&gt;Node67 -->
<g id="edge35_Node000054_Node000067" class="edge">
<title>Node54&#45;&gt;Node67</title>
<g id="a_edge35_Node000054_Node000067"><a xlink:title=" ">
<path fill="none" stroke="#63b8ff" d="M428.57,-485.43C449.32,-463.7 486.7,-428.25 526,-409 534.94,-404.62 544.89,-401.24 554.76,-398.64"/>
<polygon fill="#63b8ff" stroke="#63b8ff" points="426.28,-482.75 422.01,-492.44 431.4,-487.53 426.28,-482.75"/>
</a>
</g>
</g>
<!-- Node69 -->
<g id="Node000069" class="node">
<title>Node69</title>
<g id="a_Node000069"><a xlink:href="class_e_b_p_f_1_1_e_b_p_f_bool_type.html" target="_top" xlink:title=" ">
<polygon fill="white" stroke="orangered" points="670.62,-362 555.62,-362 555.62,-342 670.62,-342 670.62,-362"/>
<text text-anchor="middle" x="613.12" y="-348.5" font-family="Helvetica,sans-Serif" font-size="10.00">EBPF::EBPFBoolType</text>
</a>
</g>
</g>
<!-- Node68&#45;&gt;Node69 -->
<g id="edge37_Node000068_Node000069" class="edge">
<title>Node68&#45;&gt;Node69</title>
<g id="a_edge37_Node000068_Node000069"><a xlink:title=" ">
<path fill="none" stroke="#63b8ff" d="M432.63,-274.38C454.55,-291.75 490.67,-317.98 526,-333 535.16,-336.89 545.22,-340.04 555.13,-342.56"/>
<polygon fill="#63b8ff" stroke="#63b8ff" points="435.04,-271.83 425.06,-268.27 430.64,-277.27 435.04,-271.83"/>
</a>
</g>
</g>
<!-- Node71 -->
<g id="Node000071" class="node">
<title>Node71</title>
<g id="a_Node000071"><a xlink:href="class_e_b_p_f_1_1_e_b_p_f_enum_type.html" target="_top" xlink:title=" ">
<polygon fill="white" stroke="orangered" points="673.62,-324 552.62,-324 552.62,-304 673.62,-304 673.62,-324"/>
<text text-anchor="middle" x="613.12" y="-310.5" font-family="Helvetica,sans-Serif" font-size="10.00">EBPF::EBPFEnumType</text>
</a>
</g>
</g>
<!-- Node68&#45;&gt;Node71 -->
<g id="edge38_Node000068_Node000071" class="edge">
<title>Node68&#45;&gt;Node71</title>
<g id="a_edge38_Node000068_Node000071"><a xlink:title=" ">
<path fill="none" stroke="#63b8ff" d="M450.7,-271.07C472.65,-278.72 500.66,-288.01 526,-295 537.07,-298.05 549.05,-300.95 560.45,-303.52"/>
<polygon fill="#63b8ff" stroke="#63b8ff" points="452.16,-267.88 441.57,-267.86 449.84,-274.48 452.16,-267.88"/>
</a>
</g>
</g>
<!-- Node73 -->
<g id="Node000073" class="node">
<title>Node73</title>
<g id="a_Node000073"><a xlink:href="class_e_b_p_f_1_1_e_b_p_f_error_type.html" target="_top" xlink:title=" ">
<polygon fill="white" stroke="orangered" points="671.38,-286 554.88,-286 554.88,-266 671.38,-266 671.38,-286"/>
<text text-anchor="middle" x="613.12" y="-272.5" font-family="Helvetica,sans-Serif" font-size="10.00">EBPF::EBPFErrorType</text>
</a>
</g>
</g>
<!-- Node68&#45;&gt;Node73 -->
<g id="edge39_Node000068_Node000073" class="edge">
<title>Node68&#45;&gt;Node73</title>
<g id="a_edge39_Node000068_Node000073"><a xlink:title=" ">
<path fill="none" stroke="#63b8ff" d="M470.41,-262.56C496.9,-265.07 528.11,-268.03 554.48,-270.53"/>
<polygon fill="#63b8ff" stroke="#63b8ff" points="470.77,-259.08 460.49,-261.62 470.11,-266.05 470.77,-259.08"/>
</a>
</g>
</g>
<!-- Node75 -->
<g id="Node000075" class="node">
<title>Node75</title>
<g id="a_Node000075"><a xlink:href="class_e_b_p_f_1_1_e_b_p_f_scalar_type.html" target="_top" xlink:title=" ">
<polygon fill="white" stroke="orangered" points="674.75,-248 551.5,-248 551.5,-228 674.75,-228 674.75,-248"/>
<text text-anchor="middle" x="613.12" y="-234.5" font-family="Helvetica,sans-Serif" font-size="10.00">EBPF::EBPFScalarType</text>
</a>
</g>
</g>
<!-- Node68&#45;&gt;Node75 -->
<g id="edge40_Node000068_Node000075" class="edge">
<title>Node68&#45;&gt;Node75</title>
<g id="a_edge40_Node000068_Node000075"><a xlink:title=" ">
<path fill="none" stroke="#63b8ff" d="M470.32,-251.45C495.73,-249.04 525.48,-246.22 551.15,-243.78"/>
<polygon fill="#63b8ff" stroke="#63b8ff" points="470.11,-247.95 460.49,-252.38 470.77,-254.92 470.11,-247.95"/>
</a>
</g>
</g>
<!-- Node78 -->
<g id="Node000078" class="node">
<title>Node78</title>
<g id="a_Node000078"><a xlink:href="class_e_b_p_f_1_1_e_b_p_f_stack_type.html" target="_top" xlink:title=" ">
<polygon fill="white" stroke="#bfbfbf" points="673.62,-210 552.62,-210 552.62,-190 673.62,-190 673.62,-210"/>
<text text-anchor="middle" x="613.12" y="-196.5" font-family="Helvetica,sans-Serif" font-size="10.00">EBPF::EBPFStackType</text>
</a>
</g>
</g>
<!-- Node68&#45;&gt;Node78 -->
<g id="edge41_Node000068_Node000078" class="edge">
<title>Node68&#45;&gt;Node78</title>
<g id="a_edge41_Node000068_Node000078"><a xlink:title=" ">
<path fill="none" stroke="#63b8ff" d="M469.56,-244.68C476.53,-242.7 483.48,-240.47 490,-238 506.92,-231.59 509.01,-225.23 526,-219 535.06,-215.68 544.87,-212.84 554.52,-210.45"/>
<polygon fill="#63b8ff" stroke="#63b8ff" points="468.88,-241.24 460.13,-247.22 470.7,-248 468.88,-241.24"/>
</a>
</g>
</g>
<!-- Node79 -->
<g id="Node000079" class="node">
<title>Node79</title>
<g id="a_Node000079"><a xlink:href="class_e_b_p_f_1_1_e_b_p_f_struct_type.html" target="_top" xlink:title="Also represents headers and unions.">
<polygon fill="#fff0f0" stroke="red" points="674,-172 552.25,-172 552.25,-152 674,-152 674,-172"/>
<text text-anchor="middle" x="613.12" y="-158.5" font-family="Helvetica,sans-Serif" font-size="10.00">EBPF::EBPFStructType</text>
</a>
</g>
</g>
<!-- Node68&#45;&gt;Node79 -->
<g id="edge42_Node000068_Node000079" class="edge">
<title>Node68&#45;&gt;Node79</title>
<g id="a_edge42_Node000068_Node000079"><a xlink:title=" ">
<path fill="none" stroke="#63b8ff" d="M469.92,-248.28C477.07,-245.68 483.97,-242.33 490,-238 514.34,-220.52 501.48,-198.22 526,-181 533.77,-175.54 542.83,-171.62 552.09,-168.8"/>
<polygon fill="#63b8ff" stroke="#63b8ff" points="468.94,-244.92 460.42,-251.21 471,-251.61 468.94,-244.92"/>
</a>
</g>
</g>
<!-- Node81 -->
<g id="Node000081" class="node">
<title>Node81</title>
<g id="a_Node000081"><a xlink:href="class_e_b_p_f_1_1_e_b_p_f_type_name.html" target="_top" xlink:title="This should not always implement IHasWidth, but it may...">
<polygon fill="white" stroke="#666666" points="673.62,-134 552.62,-134 552.62,-114 673.62,-114 673.62,-134"/>
<text text-anchor="middle" x="613.12" y="-120.5" font-family="Helvetica,sans-Serif" font-size="10.00">EBPF::EBPFTypeName</text>
</a>
</g>
</g>
<!-- Node68&#45;&gt;Node81 -->
<g id="edge43_Node000068_Node000081" class="edge">
<title>Node68&#45;&gt;Node81</title>
<g id="a_edge43_Node000068_Node000081"><a xlink:title=" ">
<path fill="none" stroke="#63b8ff" d="M469.5,-249.88C476.98,-247.06 484.09,-243.22 490,-238 523.84,-208.11 491.84,-172.53 526,-143 533.53,-136.49 542.79,-132.06 552.41,-129.08"/>
<polygon fill="#63b8ff" stroke="#63b8ff" points="468.7,-246.46 460.19,-252.77 470.78,-253.15 468.7,-246.46"/>
</a>
</g>
</g>
<!-- Node82 -->
<g id="Node000082" class="node">
<title>Node82</title>
<g id="a_Node000082"><a xlink:href="class_u_b_p_f_1_1_u_b_p_f_list_type.html" target="_top" xlink:title=" ">
<polygon fill="white" stroke="#bfbfbf" points="668.75,-96 557.5,-96 557.5,-76 668.75,-76 668.75,-96"/>
<text text-anchor="middle" x="613.12" y="-82.5" font-family="Helvetica,sans-Serif" font-size="10.00">UBPF::UBPFListType</text>
</a>
</g>
</g>
<!-- Node68&#45;&gt;Node82 -->
<g id="edge44_Node000068_Node000082" class="edge">
<title>Node68&#45;&gt;Node82</title>
<g id="a_edge44_Node000068_Node000082"><a xlink:title=" ">
<path fill="none" stroke="#63b8ff" d="M469.71,-250.5C477.22,-247.6 484.28,-243.57 490,-238 533.86,-195.27 481.69,-147.27 526,-105 534.53,-96.86 545.72,-91.9 557.2,-88.94"/>
<polygon fill="#63b8ff" stroke="#63b8ff" points="468.81,-247.11 460.31,-253.44 470.9,-253.8 468.81,-247.11"/>
</a>
</g>
</g>
<!-- Node85 -->
<g id="Node000085" class="node">
<title>Node85</title>
<g id="a_Node000085"><a xlink:href="class_u_b_p_f_1_1_u_b_p_f_register.html" target="_top" xlink:title=" ">
<polygon fill="white" stroke="#bfbfbf" points="668.38,-58 557.88,-58 557.88,-38 668.38,-38 668.38,-58"/>
<text text-anchor="middle" x="613.12" y="-44.5" font-family="Helvetica,sans-Serif" font-size="10.00">UBPF::UBPFRegister</text>
</a>
</g>
</g>
<!-- Node84&#45;&gt;Node85 -->
<g id="edge47_Node000084_Node000085" class="edge">
<title>Node84&#45;&gt;Node85</title>
<g id="a_edge47_Node000084_Node000085"><a xlink:title=" ">
<path fill="none" stroke="#63b8ff" d="M482.79,-48C507.37,-48 534.52,-48 557.57,-48"/>
<polygon fill="#63b8ff" stroke="#63b8ff" points="482.84,-44.5 472.84,-48 482.84,-51.5 482.84,-44.5"/>
</a>
</g>
</g>
<!-- Node86 -->
<g id="Node000086" class="node">
<title>Node86</title>
<g id="a_Node000086"><a xlink:href="class_u_b_p_f_1_1_u_b_p_f_table.html" target="_top" xlink:title=" ">
<polygon fill="white" stroke="#bfbfbf" points="662,-20 564.25,-20 564.25,0 662,0 662,-20"/>
<text text-anchor="middle" x="613.12" y="-6.5" font-family="Helvetica,sans-Serif" font-size="10.00">UBPF::UBPFTable</text>
</a>
</g>
</g>
<!-- Node84&#45;&gt;Node86 -->
<g id="edge48_Node000084_Node000086" class="edge">
<title>Node84&#45;&gt;Node86</title>
<g id="a_edge48_Node000084_Node000086"><a xlink:title=" ">
<path fill="none" stroke="#63b8ff" d="M478.34,-35.37C506.29,-30.07 538.2,-24.02 563.84,-19.16"/>
<polygon fill="#63b8ff" stroke="#63b8ff" points="477.69,-31.93 468.52,-37.23 479,-38.81 477.69,-31.93"/>
</a>
</g>
</g>
</g>
</svg>

<g id="navigator" transform="translate(0 0)" fill="#404254">
  <rect fill="#f2f5e9" fill-opacity="0.5" stroke="#606060" stroke-width=".5" x="0" y="0" width="60" height="60"/>
  <use id="zoomplus" xlink:href="#zoomPlus" x="17" y="9" onmousedown="handleZoom(evt,'in')"/>
  <use id="zoomminus" xlink:href="#zoomMin" x="42" y="9" onmousedown="handleZoom(evt,'out')"/>
  <use id="reset" xlink:href="#resetDef" x="30" y="36" onmousedown="handleReset()"/>
   <use id="arrowup" xlink:href="#arrowUp" x="0" y="0" onmousedown="handlePan(0,-1)"/>
  <use id="arrowright" xlink:href="#arrowRight" x="0" y="0" onmousedown="handlePan(1,0)"/>
  <use id="arrowdown" xlink:href="#arrowDown" x="0" y="0" onmousedown="handlePan(0,1)"/>
  <use id="arrowleft" xlink:href="#arrowLeft" x="0" y="0" onmousedown="handlePan(-1,0)"/>
</g>
<svg viewBox="0 0 15 15" width="100%" height="30px" preserveAspectRatio="xMaxYMin meet">
 <g id="arrow_out" transform="scale(0.3 0.3)">
  <a xlink:href="class_e_b_p_f_1_1_e_b_p_f_object__inherit__graph_org.svg" target="_base">
   <rect id="button" ry="5" rx="5" y="6" x="6" height="38" width="38"
        fill="#f2f5e9" fill-opacity="0.5" stroke="#606060" stroke-width="1.0"/>
   <path id="arrow"
     d="M 11.500037,31.436501 C 11.940474,20.09759 22.043105,11.32322 32.158766,21.979434 L 37.068811,17.246167 C 37.068811,17.246167 37.088388,32 37.088388,32 L 22.160133,31.978069 C 22.160133,31.978069 26.997745,27.140456 26.997745,27.140456 C 18.528582,18.264221 13.291696,25.230495 11.500037,31.436501 z"
     style="fill:#404040;"/>
  </a>
 </g>
</svg>

<style type='text/css'>
<![CDATA[
[data-mouse-over-selected='false'] { opacity: 0.7; }
[data-mouse-over-selected='true']  { opacity: 1.0; }
]]>
</style>
<script type="application/ecmascript"><![CDATA[
document.addEventListener('DOMContentLoaded', (event) => {
  highlightEdges();
  highlightAdjacentNodes();
});
]]></script>
</svg>
