<?xml version="1.0" encoding="UTF-8" standalone="no"?>
<!DOCTYPE svg PUBLIC "-//W3C//DTD SVG 1.1//EN"
 "http://www.w3.org/Graphics/SVG/1.1/DTD/svg11.dtd">
<!-- Generated by graphviz version 11.0.0 (20240428.1522)
 -->
<!-- Title: P4::Backtrack Pages: 1 -->
<!--zoomable 1772 -->

<svg id="main" version="1.1" xmlns="http://www.w3.org/2000/svg" xmlns:xlink="http://www.w3.org/1999/xlink" xml:space="preserve" onload="init(evt)">

<style type="text/css"><![CDATA[
.node, .edge {opacity: 0.7;}
.node.selected, .edge.selected {opacity: 1;}
.edge:hover path { stroke: red; }
.edge:hover polygon { stroke: red; fill: red; }
]]></style>

<defs>
  <circle id="rim" cx="0" cy="0" r="7"/>
  <circle id="rim2" cx="0" cy="0" r="3.5"/>
  <g id="zoomPlus">
    <use xlink:href="#rim" fill="#404040"><set attributeName="fill" to="#808080" begin="zoomplus.mouseover" end="zoomplus.mouseout"/></use>
    <path d="M-4,0h8M0,-4v8" fill="none" stroke="white" stroke-width="1.5" pointer-events="none"/>
  </g>
  <g id="zoomMin">
    <use xlink:href="#rim" fill="#404040"><set attributeName="fill" to="#808080" begin="zoomminus.mouseover" end="zoomminus.mouseout"/></use>
    <path d="M-4,0h8" fill="none" stroke="white" stroke-width="1.5" pointer-events="none"/>
  </g>
  <g id="arrowUp" transform="translate(30 24)">
    <use xlink:href="#rim"/>
    <path pointer-events="none" fill="none" stroke="white" stroke-width="1.5" d="M0,-3.0v7 M-2.5,-0.5L0,-3.0L2.5,-0.5"/>
  </g>
  <g id="arrowRight" transform="rotate(90) translate(36 -43)">
    <use xlink:href="#rim"/>
    <path pointer-events="none" fill="none" stroke="white" stroke-width="1.5" d="M0,-3.0v7 M-2.5,-0.5L0,-3.0L2.5,-0.5"/>
  </g>
  <g id="arrowDown" transform="rotate(180) translate(-30 -48)">
    <use xlink:href="#rim"/>
    <path pointer-events="none" fill="none" stroke="white" stroke-width="1.5" d="M0,-3.0v7 M-2.5,-0.5L0,-3.0L2.5,-0.5"/>
  </g>
  <g id="arrowLeft" transform="rotate(270) translate(-36 17)">
    <use xlink:href="#rim"/>
    <path pointer-events="none" fill="none" stroke="white" stroke-width="1.5" d="M0,-3.0v7 M-2.5,-0.5L0,-3.0L2.5,-0.5"/>
  </g>
  <g id="resetDef">
    <use xlink:href="#rim2" fill="#404040"><set attributeName="fill" to="#808080" begin="reset.mouseover" end="reset.mouseout"/></use>
  </g>
</defs>
<script type="application/ecmascript">
var viewWidth = 541;
var viewHeight = 1772;
var sectionId = 'dynsection-0';
</script>
<script type="application/ecmascript" xlink:href="svg.min.js"/>
<svg id="graph" class="graph">
<g id="viewport">
<title>P4::Backtrack</title>
<!-- Node1 -->
<g id="Node000001" class="node">
<title>Node1</title>
<g id="a_Node000001"><a xlink:title=" ">
<polygon fill="#999999" stroke="#666666" points="176,-875 97.75,-875 97.75,-855 176,-855 176,-875"/>
<text text-anchor="middle" x="136.88" y="-861.5" font-family="Helvetica,sans-Serif" font-size="10.00">P4::Backtrack</text>
</a>
</g>
</g>
<!-- Node3 -->
<g id="Node000003" class="node">
<title>Node3</title>
<g id="a_Node000003"><a xlink:href="class_p4_1_1_on_backtrack.html" target="_top" xlink:title=" ">
<polygon fill="white" stroke="#bfbfbf" points="326.25,-894 212,-894 212,-874 326.25,-874 326.25,-894"/>
<text text-anchor="middle" x="269.12" y="-880.5" font-family="Helvetica,sans-Serif" font-size="10.00">P4::OnBacktrack&lt; T &gt;</text>
</a>
</g>
</g>
<!-- Node1&#45;&gt;Node3 -->
<g id="edge2_Node000001_Node000003" class="edge">
<title>Node1&#45;&gt;Node3</title>
<g id="a_edge2_Node000001_Node000003"><a xlink:title=" ">
<path fill="none" stroke="#63b8ff" d="M187.53,-872.24C195.43,-873.4 203.64,-874.59 211.68,-875.77"/>
<polygon fill="#63b8ff" stroke="#63b8ff" points="188.15,-868.8 177.75,-870.82 187.14,-875.72 188.15,-868.8"/>
</a>
</g>
</g>
<!-- Node4 -->
<g id="Node000004" class="node">
<title>Node4</title>
<g id="a_Node000004"><a xlink:href="class_p4_1_1_pass_manager.html" target="_top" xlink:title=" ">
<polygon fill="white" stroke="orangered" points="316.12,-856 222.12,-856 222.12,-836 316.12,-836 316.12,-856"/>
<text text-anchor="middle" x="269.12" y="-842.5" font-family="Helvetica,sans-Serif" font-size="10.00">P4::PassManager</text>
</a>
</g>
</g>
<!-- Node1&#45;&gt;Node4 -->
<g id="edge3_Node000001_Node000004" class="edge">
<title>Node1&#45;&gt;Node4</title>
<g id="a_edge3_Node000001_Node000004"><a xlink:title=" ">
<path fill="none" stroke="#63b8ff" d="M187.63,-857.74C198.83,-856.11 210.68,-854.38 221.73,-852.77"/>
<polygon fill="#63b8ff" stroke="#63b8ff" points="187.14,-854.28 177.75,-859.18 188.15,-861.2 187.14,-854.28"/>
</a>
</g>
</g>
<!-- Node2 -->
<g id="Node000002" class="node">
<title>Node2</title>
<g id="a_Node000002"><a xlink:href="class_p4_1_1_visitor.html" target="_top" xlink:title=" ">
<polygon fill="white" stroke="#bfbfbf" points="61.75,-875 0,-875 0,-855 61.75,-855 61.75,-875"/>
<text text-anchor="middle" x="30.88" y="-861.5" font-family="Helvetica,sans-Serif" font-size="10.00">P4::Visitor</text>
</a>
</g>
</g>
<!-- Node2&#45;&gt;Node1 -->
<g id="edge1_Node000001_Node000002" class="edge">
<title>Node2&#45;&gt;Node1</title>
<g id="a_edge1_Node000001_Node000002"><a xlink:title=" ">
<path fill="none" stroke="#63b8ff" d="M73.52,-865C81.44,-865 89.7,-865 97.51,-865"/>
<polygon fill="#63b8ff" stroke="#63b8ff" points="73.75,-861.5 63.75,-865 73.75,-868.5 73.75,-861.5"/>
</a>
</g>
</g>
<!-- Node5 -->
<g id="Node000005" class="node">
<title>Node5</title>
<g id="a_Node000005"><a xlink:href="class_p4_1_1_add_missing_id_annotations.html" target="_top" xlink:title=" ">
<polygon fill="white" stroke="#666666" points="519.62,-1764 375.38,-1764 375.38,-1744 519.62,-1744 519.62,-1764"/>
<text text-anchor="middle" x="447.5" y="-1750.5" font-family="Helvetica,sans-Serif" font-size="10.00">P4::AddMissingIdAnnotations</text>
</a>
</g>
</g>
<!-- Node4&#45;&gt;Node5 -->
<g id="edge4_Node000004_Node000005" class="edge">
<title>Node4&#45;&gt;Node5</title>
<g id="a_edge4_Node000004_Node000005"><a xlink:title=" ">
<path fill="none" stroke="#63b8ff" d="M325.22,-863.7C325.58,-864.13 325.92,-864.56 326.25,-865 384.25,-942.44 300.28,-1660.7 362.25,-1735 365.9,-1739.38 370.32,-1742.87 375.21,-1745.65"/>
<polygon fill="#63b8ff" stroke="#63b8ff" points="327.54,-861.07 317.67,-857.21 322.97,-866.38 327.54,-861.07"/>
</a>
</g>
</g>
<!-- Node6 -->
<g id="Node000006" class="node">
<title>Node6</title>
<g id="a_Node000006"><a xlink:href="class_p4_1_1_b_m_v2_1_1_mid_end.html" target="_top" xlink:title=" ">
<polygon fill="white" stroke="orangered" points="497.5,-1726 397.5,-1726 397.5,-1706 497.5,-1706 497.5,-1726"/>
<text text-anchor="middle" x="447.5" y="-1712.5" font-family="Helvetica,sans-Serif" font-size="10.00">P4::BMV2::MidEnd</text>
</a>
</g>
</g>
<!-- Node4&#45;&gt;Node6 -->
<g id="edge5_Node000004_Node000006" class="edge">
<title>Node4&#45;&gt;Node6</title>
<g id="a_edge5_Node000004_Node000006"><a xlink:title=" ">
<path fill="none" stroke="#63b8ff" d="M325.22,-863.7C325.58,-864.13 325.92,-864.56 326.25,-865 381.79,-939.01 302.92,-1626 362.25,-1697 370.9,-1707.35 383.89,-1712.78 397.08,-1715.46"/>
<polygon fill="#63b8ff" stroke="#63b8ff" points="327.53,-861.07 317.67,-857.21 322.97,-866.38 327.53,-861.07"/>
</a>
</g>
</g>
<!-- Node11 -->
<g id="Node000011" class="node">
<title>Node11</title>
<g id="a_Node000011"><a xlink:href="class_p4_1_1_bind_type_variables.html" target="_top" xlink:title=" ">
<polygon fill="white" stroke="#bfbfbf" points="505,-1688 390,-1688 390,-1668 505,-1668 505,-1688"/>
<text text-anchor="middle" x="447.5" y="-1674.5" font-family="Helvetica,sans-Serif" font-size="10.00">P4::BindTypeVariables</text>
</a>
</g>
</g>
<!-- Node4&#45;&gt;Node11 -->
<g id="edge6_Node000004_Node000011" class="edge">
<title>Node4&#45;&gt;Node11</title>
<g id="a_edge6_Node000004_Node000011"><a xlink:title=" ">
<path fill="none" stroke="#63b8ff" d="M325.22,-863.7C325.57,-864.13 325.92,-864.56 326.25,-865 379.33,-935.58 305.55,-1591.29 362.25,-1659 369.28,-1667.39 379.15,-1672.54 389.67,-1675.62"/>
<polygon fill="#63b8ff" stroke="#63b8ff" points="327.53,-861.07 317.66,-857.22 322.97,-866.38 327.53,-861.07"/>
</a>
</g>
</g>
<!-- Node12 -->
<g id="Node000012" class="node">
<title>Node12</title>
<g id="a_Node000012"><a xlink:href="class_p4_1_1_check_constants.html" target="_top" xlink:title=" ">
<polygon fill="white" stroke="#bfbfbf" points="500.5,-1650 394.5,-1650 394.5,-1630 500.5,-1630 500.5,-1650"/>
<text text-anchor="middle" x="447.5" y="-1636.5" font-family="Helvetica,sans-Serif" font-size="10.00">P4::CheckConstants</text>
</a>
</g>
</g>
<!-- Node4&#45;&gt;Node12 -->
<g id="edge7_Node000004_Node000012" class="edge">
<title>Node4&#45;&gt;Node12</title>
<g id="a_edge7_Node000004_Node000012"><a xlink:title=" ">
<path fill="none" stroke="#63b8ff" d="M325.22,-863.71C325.57,-864.13 325.92,-864.56 326.25,-865 376.87,-932.15 308.18,-1556.59 362.25,-1621 370.25,-1630.53 381.92,-1635.88 394.04,-1638.76"/>
<polygon fill="#63b8ff" stroke="#63b8ff" points="327.52,-861.07 317.65,-857.22 322.97,-866.39 327.52,-861.07"/>
</a>
</g>
</g>
<!-- Node13 -->
<g id="Node000013" class="node">
<title>Node13</title>
<g id="a_Node000013"><a xlink:href="class_p4_1_1_check_core_methods.html" target="_top" xlink:title=" ">
<polygon fill="white" stroke="#bfbfbf" points="507.25,-1612 387.75,-1612 387.75,-1592 507.25,-1592 507.25,-1612"/>
<text text-anchor="middle" x="447.5" y="-1598.5" font-family="Helvetica,sans-Serif" font-size="10.00">P4::CheckCoreMethods</text>
</a>
</g>
</g>
<!-- Node4&#45;&gt;Node13 -->
<g id="edge8_Node000004_Node000013" class="edge">
<title>Node4&#45;&gt;Node13</title>
<g id="a_edge8_Node000004_Node000013"><a xlink:title=" ">
<path fill="none" stroke="#63b8ff" d="M325.22,-863.71C325.57,-864.13 325.92,-864.56 326.25,-865 422.58,-992.45 259.39,-1460.76 362.25,-1583 368.81,-1590.8 377.84,-1595.8 387.55,-1598.93"/>
<polygon fill="#63b8ff" stroke="#63b8ff" points="327.52,-861.07 317.64,-857.23 322.97,-866.39 327.52,-861.07"/>
</a>
</g>
</g>
<!-- Node14 -->
<g id="Node000014" class="node">
<title>Node14</title>
<g id="a_Node000014"><a xlink:href="class_p4_1_1_constant_folding.html" target="_top" xlink:title=" ">
<polygon fill="white" stroke="#666666" points="499.75,-1574 395.25,-1574 395.25,-1554 499.75,-1554 499.75,-1574"/>
<text text-anchor="middle" x="447.5" y="-1560.5" font-family="Helvetica,sans-Serif" font-size="10.00">P4::ConstantFolding</text>
</a>
</g>
</g>
<!-- Node4&#45;&gt;Node14 -->
<g id="edge9_Node000004_Node000014" class="edge">
<title>Node4&#45;&gt;Node14</title>
<g id="a_edge9_Node000004_Node000014"><a xlink:title=" ">
<path fill="none" stroke="#63b8ff" d="M325.22,-863.71C325.57,-864.13 325.92,-864.56 326.25,-865 417.66,-985.59 264.66,-1429.35 362.25,-1545 370.47,-1554.74 382.52,-1560.11 394.95,-1562.93"/>
<polygon fill="#63b8ff" stroke="#63b8ff" points="327.51,-861.06 317.63,-857.23 322.97,-866.39 327.51,-861.06"/>
</a>
</g>
</g>
<!-- Node15 -->
<g id="Node000015" class="node">
<title>Node15</title>
<g id="a_Node000015"><a xlink:href="class_p4_1_1_convert_enums.html" target="_top" xlink:title=" ">
<polygon fill="white" stroke="#bfbfbf" points="496,-1536 399,-1536 399,-1516 496,-1516 496,-1536"/>
<text text-anchor="middle" x="447.5" y="-1522.5" font-family="Helvetica,sans-Serif" font-size="10.00">P4::ConvertEnums</text>
</a>
</g>
</g>
<!-- Node4&#45;&gt;Node15 -->
<g id="edge10_Node000004_Node000015" class="edge">
<title>Node4&#45;&gt;Node15</title>
<g id="a_edge10_Node000004_Node000015"><a xlink:title=" ">
<path fill="none" stroke="#63b8ff" d="M325.21,-863.71C325.57,-864.13 325.92,-864.56 326.25,-865 412.75,-978.74 269.92,-1397.94 362.25,-1507 371.36,-1517.76 385.13,-1523.18 398.93,-1525.73"/>
<polygon fill="#63b8ff" stroke="#63b8ff" points="327.5,-861.06 317.62,-857.24 322.96,-866.39 327.5,-861.06"/>
</a>
</g>
</g>
<!-- Node16 -->
<g id="Node000016" class="node">
<title>Node16</title>
<g id="a_Node000016"><a xlink:href="class_p4_1_1_convert_errors.html" target="_top" xlink:title=" ">
<polygon fill="white" stroke="#bfbfbf" points="493.75,-1498 401.25,-1498 401.25,-1478 493.75,-1478 493.75,-1498"/>
<text text-anchor="middle" x="447.5" y="-1484.5" font-family="Helvetica,sans-Serif" font-size="10.00">P4::ConvertErrors</text>
</a>
</g>
</g>
<!-- Node4&#45;&gt;Node16 -->
<g id="edge11_Node000004_Node000016" class="edge">
<title>Node4&#45;&gt;Node16</title>
<g id="a_edge11_Node000004_Node000016"><a xlink:title=" ">
<path fill="none" stroke="#63b8ff" d="M325.21,-863.71C325.57,-864.13 325.91,-864.56 326.25,-865 407.83,-971.88 275.19,-1366.53 362.25,-1469 371.86,-1480.31 386.64,-1485.72 401.15,-1488.09"/>
<polygon fill="#63b8ff" stroke="#63b8ff" points="327.5,-861.06 317.61,-857.25 322.96,-866.39 327.5,-861.06"/>
</a>
</g>
</g>
<!-- Node17 -->
<g id="Node000017" class="node">
<title>Node17</title>
<g id="a_Node000017"><a xlink:href="struct_p4_1_1_d_p_d_k_1_1_byte_alignment.html" target="_top" xlink:title=" ">
<polygon fill="white" stroke="#bfbfbf" points="512.88,-1460 382.12,-1460 382.12,-1440 512.88,-1440 512.88,-1460"/>
<text text-anchor="middle" x="447.5" y="-1446.5" font-family="Helvetica,sans-Serif" font-size="10.00">P4::DPDK::ByteAlignment</text>
</a>
</g>
</g>
<!-- Node4&#45;&gt;Node17 -->
<g id="edge12_Node000004_Node000017" class="edge">
<title>Node4&#45;&gt;Node17</title>
<g id="a_edge12_Node000004_Node000017"><a xlink:title=" ">
<path fill="none" stroke="#63b8ff" d="M325.21,-863.71C325.57,-864.13 325.91,-864.56 326.25,-865 402.92,-965.03 280.46,-1335.12 362.25,-1431 367.5,-1437.16 374.29,-1441.57 381.73,-1444.69"/>
<polygon fill="#63b8ff" stroke="#63b8ff" points="327.49,-861.06 317.6,-857.26 322.96,-866.4 327.49,-861.06"/>
</a>
</g>
</g>
<!-- Node18 -->
<g id="Node000018" class="node">
<title>Node18</title>
<g id="a_Node000018"><a xlink:href="class_p4_1_1_d_p_d_k_1_1_collect_local_struct_and_flatten.html" target="_top" xlink:title=" ">
<polygon fill="white" stroke="#bfbfbf" points="520.75,-1422 374.25,-1422 374.25,-1390 520.75,-1390 520.75,-1422"/>
<text text-anchor="start" x="382.25" y="-1408.5" font-family="Helvetica,sans-Serif" font-size="10.00">P4::DPDK::CollectLocalStruct</text>
<text text-anchor="middle" x="447.5" y="-1396.5" font-family="Helvetica,sans-Serif" font-size="10.00">AndFlatten</text>
</a>
</g>
</g>
<!-- Node4&#45;&gt;Node18 -->
<g id="edge13_Node000004_Node000018" class="edge">
<title>Node4&#45;&gt;Node18</title>
<g id="a_edge13_Node000004_Node000018"><a xlink:title=" ">
<path fill="none" stroke="#63b8ff" d="M325.21,-863.72C325.56,-864.13 325.91,-864.56 326.25,-865 396.45,-956.02 290.33,-1291.33 362.25,-1381 365.59,-1385.17 369.59,-1388.66 374.01,-1391.59"/>
<polygon fill="#63b8ff" stroke="#63b8ff" points="327.48,-861.05 317.58,-857.27 322.96,-866.4 327.48,-861.05"/>
</a>
</g>
</g>
<!-- Node19 -->
<g id="Node000019" class="node">
<title>Node19</title>
<g id="a_Node000019"><a xlink:href="class_p4_1_1_d_p_d_k_1_1_collect_program_structure.html" target="_top" xlink:title=" ">
<polygon fill="white" stroke="#bfbfbf" points="514.38,-1372 380.62,-1372 380.62,-1340 514.38,-1340 514.38,-1372"/>
<text text-anchor="start" x="388.62" y="-1358.5" font-family="Helvetica,sans-Serif" font-size="10.00">P4::DPDK::CollectProgram</text>
<text text-anchor="middle" x="447.5" y="-1346.5" font-family="Helvetica,sans-Serif" font-size="10.00">Structure</text>
</a>
</g>
</g>
<!-- Node4&#45;&gt;Node19 -->
<g id="edge14_Node000004_Node000019" class="edge">
<title>Node4&#45;&gt;Node19</title>
<g id="a_edge14_Node000004_Node000019"><a xlink:title=" ">
<path fill="none" stroke="#63b8ff" d="M325.2,-863.72C325.56,-864.14 325.91,-864.56 326.25,-865 389.99,-947 296.96,-1250.22 362.25,-1331 367.14,-1337.05 373.43,-1341.68 380.36,-1345.22"/>
<polygon fill="#63b8ff" stroke="#63b8ff" points="327.46,-861.05 317.55,-857.29 322.96,-866.41 327.46,-861.05"/>
</a>
</g>
</g>
<!-- Node20 -->
<g id="Node000020" class="node">
<title>Node20</title>
<g id="a_Node000020"><a xlink:href="class_p4_1_1_d_p_d_k_1_1_convert_action_selector_and_profile.html" target="_top" xlink:title=" ">
<polygon fill="white" stroke="#666666" points="529,-1322 366,-1322 366,-1290 529,-1290 529,-1322"/>
<text text-anchor="start" x="374" y="-1308.5" font-family="Helvetica,sans-Serif" font-size="10.00">P4::DPDK::ConvertActionSelector</text>
<text text-anchor="middle" x="447.5" y="-1296.5" font-family="Helvetica,sans-Serif" font-size="10.00">AndProfile</text>
</a>
</g>
</g>
<!-- Node4&#45;&gt;Node20 -->
<g id="edge15_Node000004_Node000020" class="edge">
<title>Node4&#45;&gt;Node20</title>
<g id="a_edge15_Node000004_Node000020"><a xlink:title=" ">
<path fill="none" stroke="#63b8ff" d="M325.2,-863.72C325.56,-864.14 325.91,-864.57 326.25,-865 383.53,-938 303.59,-1209.1 362.25,-1281 364.95,-1284.31 368.07,-1287.2 371.48,-1289.71"/>
<polygon fill="#63b8ff" stroke="#63b8ff" points="327.44,-861.04 317.52,-857.31 322.95,-866.41 327.44,-861.04"/>
</a>
</g>
</g>
<!-- Node21 -->
<g id="Node000021" class="node">
<title>Node21</title>
<g id="a_Node000021"><a xlink:href="class_p4_1_1_d_p_d_k_1_1_convert_internet_checksum.html" target="_top" xlink:title=" ">
<polygon fill="white" stroke="#bfbfbf" points="513.25,-1272 381.75,-1272 381.75,-1240 513.25,-1240 513.25,-1272"/>
<text text-anchor="start" x="389.75" y="-1258.5" font-family="Helvetica,sans-Serif" font-size="10.00">P4::DPDK::ConvertInternet</text>
<text text-anchor="middle" x="447.5" y="-1246.5" font-family="Helvetica,sans-Serif" font-size="10.00">Checksum</text>
</a>
</g>
</g>
<!-- Node4&#45;&gt;Node21 -->
<g id="edge16_Node000004_Node000021" class="edge">
<title>Node4&#45;&gt;Node21</title>
<g id="a_edge16_Node000004_Node000021"><a xlink:title=" ">
<path fill="none" stroke="#63b8ff" d="M324.91,-863.42C325.37,-863.93 325.82,-864.46 326.25,-865 427.91,-992.99 258.18,-1104.96 362.25,-1231 367.4,-1237.24 374.03,-1241.96 381.3,-1245.53"/>
<polygon fill="#63b8ff" stroke="#63b8ff" points="327.44,-860.97 317.49,-857.34 323,-866.38 327.44,-860.97"/>
</a>
</g>
</g>
<!-- Node22 -->
<g id="Node000022" class="node">
<title>Node22</title>
<g id="a_Node000022"><a xlink:href="class_p4_1_1_d_p_d_k_1_1_convert_logical_expression.html" target="_top" xlink:title=" ">
<polygon fill="white" stroke="#bfbfbf" points="512.5,-1222 382.5,-1222 382.5,-1190 512.5,-1190 512.5,-1222"/>
<text text-anchor="start" x="390.5" y="-1208.5" font-family="Helvetica,sans-Serif" font-size="10.00">P4::DPDK::ConvertLogical</text>
<text text-anchor="middle" x="447.5" y="-1196.5" font-family="Helvetica,sans-Serif" font-size="10.00">Expression</text>
</a>
</g>
</g>
<!-- Node4&#45;&gt;Node22 -->
<g id="edge17_Node000004_Node000022" class="edge">
<title>Node4&#45;&gt;Node22</title>
<g id="a_edge17_Node000004_Node000022"><a xlink:title=" ">
<path fill="none" stroke="#63b8ff" d="M324.9,-863.43C325.37,-863.94 325.82,-864.46 326.25,-865 415.01,-975.01 271.42,-1072.7 362.25,-1181 367.64,-1187.43 374.61,-1192.25 382.22,-1195.86"/>
<polygon fill="#63b8ff" stroke="#63b8ff" points="327.41,-860.96 317.44,-857.38 323,-866.39 327.41,-860.96"/>
</a>
</g>
</g>
<!-- Node23 -->
<g id="Node000023" class="node">
<title>Node23</title>
<g id="a_Node000023"><a xlink:href="struct_p4_1_1_d_p_d_k_1_1_convert_lookahead.html" target="_top" xlink:title=" ">
<polygon fill="white" stroke="#666666" points="520.75,-1172 374.25,-1172 374.25,-1152 520.75,-1152 520.75,-1172"/>
<text text-anchor="middle" x="447.5" y="-1158.5" font-family="Helvetica,sans-Serif" font-size="10.00">P4::DPDK::ConvertLookahead</text>
</a>
</g>
</g>
<!-- Node4&#45;&gt;Node23 -->
<g id="edge18_Node000004_Node000023" class="edge">
<title>Node4&#45;&gt;Node23</title>
<g id="a_edge18_Node000004_Node000023"><a xlink:title=" ">
<path fill="none" stroke="#63b8ff" d="M324.89,-863.44C325.36,-863.95 325.81,-864.47 326.25,-865 405.23,-961.36 278.35,-1050.9 362.25,-1143 365.68,-1146.77 369.69,-1149.87 374.06,-1152.42"/>
<polygon fill="#63b8ff" stroke="#63b8ff" points="327.38,-860.95 317.39,-857.41 322.99,-866.41 327.38,-860.95"/>
</a>
</g>
</g>
<!-- Node24 -->
<g id="Node000024" class="node">
<title>Node24</title>
<g id="a_Node000024"><a xlink:href="struct_p4_1_1_d_p_d_k_1_1_dpdk_add_pseudo_header.html" target="_top" xlink:title=" ">
<polygon fill="white" stroke="#bfbfbf" points="532.75,-1134 362.25,-1134 362.25,-1114 532.75,-1114 532.75,-1134"/>
<text text-anchor="middle" x="447.5" y="-1120.5" font-family="Helvetica,sans-Serif" font-size="10.00">P4::DPDK::DpdkAddPseudoHeader</text>
</a>
</g>
</g>
<!-- Node4&#45;&gt;Node24 -->
<g id="edge19_Node000004_Node000024" class="edge">
<title>Node4&#45;&gt;Node24</title>
<g id="a_edge19_Node000004_Node000024"><a xlink:title=" ">
<path fill="none" stroke="#63b8ff" d="M324.84,-863.42C325.33,-863.93 325.8,-864.46 326.25,-865 395.46,-947.73 288.81,-1026 362.25,-1105 365.41,-1108.4 369.05,-1111.26 372.99,-1113.66"/>
<polygon fill="#63b8ff" stroke="#63b8ff" points="327.09,-860.73 317.06,-857.3 322.76,-866.23 327.09,-860.73"/>
</a>
</g>
</g>
<!-- Node25 -->
<g id="Node000025" class="node">
<title>Node25</title>
<g id="a_Node000025"><a xlink:href="class_p4_1_1_d_p_d_k_1_1_dpdk_arch_first.html" target="_top" xlink:title=" ">
<polygon fill="white" stroke="#bfbfbf" points="512.12,-1096 382.88,-1096 382.88,-1076 512.12,-1076 512.12,-1096"/>
<text text-anchor="middle" x="447.5" y="-1082.5" font-family="Helvetica,sans-Serif" font-size="10.00">P4::DPDK::DpdkArchFirst</text>
</a>
</g>
</g>
<!-- Node4&#45;&gt;Node25 -->
<g id="edge20_Node000004_Node000025" class="edge">
<title>Node4&#45;&gt;Node25</title>
<g id="a_edge20_Node000004_Node000025"><a xlink:title=" ">
<path fill="none" stroke="#63b8ff" d="M324.82,-863.44C325.31,-863.94 325.79,-864.46 326.25,-865 385.72,-934.13 299.25,-1001.07 362.25,-1067 367.95,-1072.96 375.09,-1077.24 382.78,-1080.28"/>
<polygon fill="#63b8ff" stroke="#63b8ff" points="327.02,-860.72 316.97,-857.37 322.75,-866.26 327.02,-860.72"/>
</a>
</g>
</g>
<!-- Node26 -->
<g id="Node000026" class="node">
<title>Node26</title>
<g id="a_Node000026"><a xlink:href="class_p4_1_1_d_p_d_k_1_1_dpdk_arch_last.html" target="_top" xlink:title=" ">
<polygon fill="white" stroke="#bfbfbf" points="511.75,-1058 383.25,-1058 383.25,-1038 511.75,-1038 511.75,-1058"/>
<text text-anchor="middle" x="447.5" y="-1044.5" font-family="Helvetica,sans-Serif" font-size="10.00">P4::DPDK::DpdkArchLast</text>
</a>
</g>
</g>
<!-- Node4&#45;&gt;Node26 -->
<g id="edge21_Node000004_Node000026" class="edge">
<title>Node4&#45;&gt;Node26</title>
<g id="a_edge21_Node000004_Node000026"><a xlink:title=" ">
<path fill="none" stroke="#63b8ff" d="M324.45,-863.13C325.07,-863.73 325.67,-864.35 326.25,-865 376.03,-920.6 309.63,-976.08 362.25,-1029 368.06,-1034.85 375.27,-1039.06 383,-1042.07"/>
<polygon fill="#63b8ff" stroke="#63b8ff" points="326.7,-860.44 316.58,-857.32 322.55,-866.07 326.7,-860.44"/>
</a>
</g>
</g>
<!-- Node27 -->
<g id="Node000027" class="node">
<title>Node27</title>
<g id="a_Node000027"><a xlink:href="struct_p4_1_1_d_p_d_k_1_1_dpdk_handle_i_p_sec.html" target="_top" xlink:title=" ">
<polygon fill="white" stroke="#bfbfbf" points="520.38,-1020 374.62,-1020 374.62,-1000 520.38,-1000 520.38,-1020"/>
<text text-anchor="middle" x="447.5" y="-1006.5" font-family="Helvetica,sans-Serif" font-size="10.00">P4::DPDK::DpdkHandleIPSec</text>
</a>
</g>
</g>
<!-- Node4&#45;&gt;Node27 -->
<g id="edge22_Node000004_Node000027" class="edge">
<title>Node4&#45;&gt;Node27</title>
<g id="a_edge22_Node000004_Node000027"><a xlink:title=" ">
<path fill="none" stroke="#63b8ff" d="M324.02,-862.84C324.79,-863.53 325.54,-864.25 326.25,-865 366.43,-907.16 319.92,-951 362.25,-991 365.85,-994.4 369.92,-997.24 374.28,-999.6"/>
<polygon fill="#63b8ff" stroke="#63b8ff" points="326.32,-860.18 316.12,-857.33 322.32,-865.92 326.32,-860.18"/>
</a>
</g>
</g>
<!-- Node28 -->
<g id="Node000028" class="node">
<title>Node28</title>
<g id="a_Node000028"><a xlink:href="class_p4_1_1_d_p_d_k_1_1_dpdk_mid_end.html" target="_top" xlink:title=" ">
<polygon fill="white" stroke="#bfbfbf" points="508.75,-982 386.25,-982 386.25,-962 508.75,-962 508.75,-982"/>
<text text-anchor="middle" x="447.5" y="-968.5" font-family="Helvetica,sans-Serif" font-size="10.00">P4::DPDK::DpdkMidEnd</text>
</a>
</g>
</g>
<!-- Node4&#45;&gt;Node28 -->
<g id="edge23_Node000004_Node000028" class="edge">
<title>Node4&#45;&gt;Node28</title>
<g id="a_edge23_Node000004_Node000028"><a xlink:title=" ">
<path fill="none" stroke="#63b8ff" d="M323.38,-862.53C324.37,-863.31 325.33,-864.14 326.25,-865 357.04,-893.94 329.99,-925.71 362.25,-953 369.12,-958.81 377.4,-962.94 386.04,-965.86"/>
<polygon fill="#63b8ff" stroke="#63b8ff" points="325.27,-859.58 314.94,-857.21 321.54,-865.5 325.27,-859.58"/>
</a>
</g>
</g>
<!-- Node29 -->
<g id="Node000029" class="node">
<title>Node29</title>
<g id="a_Node000029"><a xlink:href="class_p4_1_1_d_p_d_k_1_1_eliminate_header_copy.html" target="_top" xlink:title=" ">
<polygon fill="white" stroke="#bfbfbf" points="527.88,-944 367.12,-944 367.12,-924 527.88,-924 527.88,-944"/>
<text text-anchor="middle" x="447.5" y="-930.5" font-family="Helvetica,sans-Serif" font-size="10.00">P4::DPDK::EliminateHeaderCopy</text>
</a>
</g>
</g>
<!-- Node4&#45;&gt;Node29 -->
<g id="edge24_Node000004_Node000029" class="edge">
<title>Node4&#45;&gt;Node29</title>
<g id="a_edge24_Node000004_Node000029"><a xlink:title=" ">
<path fill="none" stroke="#63b8ff" d="M320.79,-861.39C322.68,-862.51 324.51,-863.72 326.25,-865 348.27,-881.28 339.41,-899.9 362.25,-915 367.5,-918.47 373.3,-921.32 379.32,-923.65"/>
<polygon fill="#63b8ff" stroke="#63b8ff" points="322.74,-858.46 312.24,-857.08 319.59,-864.71 322.74,-858.46"/>
</a>
</g>
</g>
<!-- Node30 -->
<g id="Node000030" class="node">
<title>Node30</title>
<g id="a_Node000030"><a xlink:href="class_p4_1_1_d_p_d_k_1_1_eliminate_unused_action.html" target="_top" xlink:title=" ">
<polygon fill="white" stroke="#666666" points="517.75,-906 377.25,-906 377.25,-874 517.75,-874 517.75,-906"/>
<text text-anchor="start" x="385.25" y="-892.5" font-family="Helvetica,sans-Serif" font-size="10.00">P4::DPDK::EliminateUnused</text>
<text text-anchor="middle" x="447.5" y="-880.5" font-family="Helvetica,sans-Serif" font-size="10.00">Action</text>
</a>
</g>
</g>
<!-- Node4&#45;&gt;Node30 -->
<g id="edge25_Node000004_Node000030" class="edge">
<title>Node4&#45;&gt;Node30</title>
<g id="a_edge25_Node000004_Node000030"><a xlink:title=" ">
<path fill="none" stroke="#63b8ff" d="M322.86,-859.16C340.98,-863.68 361.49,-868.79 380.52,-873.54"/>
<polygon fill="#63b8ff" stroke="#63b8ff" points="323.94,-855.82 313.39,-856.79 322.25,-862.61 323.94,-855.82"/>
</a>
</g>
</g>
<!-- Node31 -->
<g id="Node000031" class="node">
<title>Node31</title>
<g id="a_Node000031"><a xlink:href="class_p4_1_1_default_arguments.html" target="_top" xlink:title=" ">
<polygon fill="white" stroke="#bfbfbf" points="503.12,-856 391.88,-856 391.88,-836 503.12,-836 503.12,-856"/>
<text text-anchor="middle" x="447.5" y="-842.5" font-family="Helvetica,sans-Serif" font-size="10.00">P4::DefaultArguments</text>
</a>
</g>
</g>
<!-- Node4&#45;&gt;Node31 -->
<g id="edge26_Node000004_Node000031" class="edge">
<title>Node4&#45;&gt;Node31</title>
<g id="a_edge26_Node000004_Node000031"><a xlink:title=" ">
<path fill="none" stroke="#63b8ff" d="M327.84,-846C348.27,-846 371.18,-846 391.38,-846"/>
<polygon fill="#63b8ff" stroke="#63b8ff" points="327.98,-842.5 317.98,-846 327.98,-849.5 327.98,-842.5"/>
</a>
</g>
</g>
<!-- Node32 -->
<g id="Node000032" class="node">
<title>Node32</title>
<g id="a_Node000032"><a xlink:href="class_p4_1_1_default_values.html" target="_top" xlink:title=" ">
<polygon fill="white" stroke="#bfbfbf" points="494.5,-818 400.5,-818 400.5,-798 494.5,-798 494.5,-818"/>
<text text-anchor="middle" x="447.5" y="-804.5" font-family="Helvetica,sans-Serif" font-size="10.00">P4::DefaultValues</text>
</a>
</g>
</g>
<!-- Node4&#45;&gt;Node32 -->
<g id="edge27_Node000004_Node000032" class="edge">
<title>Node4&#45;&gt;Node32</title>
<g id="a_edge27_Node000004_Node000032"><a xlink:title=" ">
<path fill="none" stroke="#63b8ff" d="M327.69,-833.6C351.18,-828.54 377.97,-822.76 400.16,-817.98"/>
<polygon fill="#63b8ff" stroke="#63b8ff" points="326.98,-830.17 317.95,-835.7 328.46,-837.01 326.98,-830.17"/>
</a>
</g>
</g>
<!-- Node33 -->
<g id="Node000033" class="node">
<title>Node33</title>
<g id="a_Node000033"><a xlink:href="class_p4_1_1_e_b_p_f_1_1_lower.html" target="_top" xlink:title=" ">
<polygon fill="white" stroke="#bfbfbf" points="493.38,-780 401.62,-780 401.62,-760 493.38,-760 493.38,-780"/>
<text text-anchor="middle" x="447.5" y="-766.5" font-family="Helvetica,sans-Serif" font-size="10.00">P4::EBPF::Lower</text>
</a>
</g>
</g>
<!-- Node4&#45;&gt;Node33 -->
<g id="edge28_Node000004_Node000033" class="edge">
<title>Node4&#45;&gt;Node33</title>
<g id="a_edge28_Node000004_Node000033"><a xlink:title=" ">
<path fill="none" stroke="#63b8ff" d="M292.78,-829C310.76,-816.26 336.98,-799.33 362.25,-789 374.6,-783.95 388.55,-780.12 401.49,-777.26"/>
<polygon fill="#63b8ff" stroke="#63b8ff" points="290.97,-825.98 284.93,-834.68 295.08,-831.65 290.97,-825.98"/>
</a>
</g>
</g>
<!-- Node34 -->
<g id="Node000034" class="node">
<title>Node34</title>
<g id="a_Node000034"><a xlink:href="class_p4_1_1_eliminate_invalid_headers.html" target="_top" xlink:title=" ">
<polygon fill="white" stroke="#bfbfbf" points="515.88,-742 379.12,-742 379.12,-722 515.88,-722 515.88,-742"/>
<text text-anchor="middle" x="447.5" y="-728.5" font-family="Helvetica,sans-Serif" font-size="10.00">P4::EliminateInvalidHeaders</text>
</a>
</g>
</g>
<!-- Node4&#45;&gt;Node34 -->
<g id="edge29_Node000004_Node000034" class="edge">
<title>Node4&#45;&gt;Node34</title>
<g id="a_edge29_Node000004_Node000034"><a xlink:title=" ">
<path fill="none" stroke="#63b8ff" d="M283.77,-826.19C299.91,-804.32 328.87,-769.73 362.25,-751 368.4,-747.55 375.13,-744.73 382.02,-742.42"/>
<polygon fill="#63b8ff" stroke="#63b8ff" points="280.95,-824.11 277.97,-834.28 286.64,-828.19 280.95,-824.11"/>
</a>
</g>
</g>
<!-- Node35 -->
<g id="Node000035" class="node">
<title>Node35</title>
<g id="a_Node000035"><a xlink:href="class_p4_1_1_eliminate_newtype.html" target="_top" xlink:title=" ">
<polygon fill="white" stroke="#bfbfbf" points="503.5,-704 391.5,-704 391.5,-684 503.5,-684 503.5,-704"/>
<text text-anchor="middle" x="447.5" y="-690.5" font-family="Helvetica,sans-Serif" font-size="10.00">P4::EliminateNewtype</text>
</a>
</g>
</g>
<!-- Node4&#45;&gt;Node35 -->
<g id="edge30_Node000004_Node000035" class="edge">
<title>Node4&#45;&gt;Node35</title>
<g id="a_edge30_Node000004_Node000035"><a xlink:title=" ">
<path fill="none" stroke="#63b8ff" d="M278.56,-825.32C291.79,-795.6 320.31,-741.29 362.25,-713 370.83,-707.21 380.9,-703.17 391.04,-700.34"/>
<polygon fill="#63b8ff" stroke="#63b8ff" points="275.41,-823.77 274.7,-834.34 281.85,-826.52 275.41,-823.77"/>
</a>
</g>
</g>
<!-- Node36 -->
<g id="Node000036" class="node">
<title>Node36</title>
<g id="a_Node000036"><a xlink:href="class_p4_1_1_eliminate_ser_enums.html" target="_top" xlink:title=" ">
<polygon fill="white" stroke="#bfbfbf" points="507.62,-666 387.38,-666 387.38,-646 507.62,-646 507.62,-666"/>
<text text-anchor="middle" x="447.5" y="-652.5" font-family="Helvetica,sans-Serif" font-size="10.00">P4::EliminateSerEnums</text>
</a>
</g>
</g>
<!-- Node4&#45;&gt;Node36 -->
<g id="edge31_Node000004_Node000036" class="edge">
<title>Node4&#45;&gt;Node36</title>
<g id="a_edge31_Node000004_Node000036"><a xlink:title=" ">
<path fill="none" stroke="#63b8ff" d="M275.37,-824.72C285.55,-788.11 311.57,-713.46 362.25,-675 369.54,-669.47 378.13,-665.5 387,-662.65"/>
<polygon fill="#63b8ff" stroke="#63b8ff" points="272.06,-823.54 272.9,-834.1 278.83,-825.33 272.06,-823.54"/>
</a>
</g>
</g>
<!-- Node37 -->
<g id="Node000037" class="node">
<title>Node37</title>
<g id="a_Node000037"><a xlink:href="class_p4_1_1_eliminate_switch.html" target="_top" xlink:title=" ">
<polygon fill="white" stroke="#bfbfbf" points="499.38,-628 395.62,-628 395.62,-608 499.38,-608 499.38,-628"/>
<text text-anchor="middle" x="447.5" y="-614.5" font-family="Helvetica,sans-Serif" font-size="10.00">P4::EliminateSwitch</text>
</a>
</g>
</g>
<!-- Node4&#45;&gt;Node37 -->
<g id="edge32_Node000004_Node000037" class="edge">
<title>Node4&#45;&gt;Node37</title>
<g id="a_edge32_Node000004_Node000037"><a xlink:title=" ">
<path fill="none" stroke="#63b8ff" d="M273.13,-824.6C280.29,-781.94 302.47,-686.21 362.25,-637 371.63,-629.28 383.5,-624.54 395.36,-621.68"/>
<polygon fill="#63b8ff" stroke="#63b8ff" points="269.69,-823.89 271.62,-834.31 276.61,-824.96 269.69,-823.89"/>
</a>
</g>
</g>
<!-- Node38 -->
<g id="Node000038" class="node">
<title>Node38</title>
<g id="a_Node000038"><a xlink:href="class_p4_1_1_eliminate_tuples.html" target="_top" xlink:title=" ">
<polygon fill="white" stroke="#bfbfbf" points="499,-590 396,-590 396,-570 499,-570 499,-590"/>
<text text-anchor="middle" x="447.5" y="-576.5" font-family="Helvetica,sans-Serif" font-size="10.00">P4::EliminateTuples</text>
</a>
</g>
</g>
<!-- Node4&#45;&gt;Node38 -->
<g id="edge33_Node000004_Node000038" class="edge">
<title>Node4&#45;&gt;Node38</title>
<g id="a_edge33_Node000004_Node000038"><a xlink:title=" ">
<path fill="none" stroke="#63b8ff" d="M271.52,-824.44C275.84,-776.23 293.26,-659.24 362.25,-599 371.62,-590.81 383.78,-585.94 395.92,-583.09"/>
<polygon fill="#63b8ff" stroke="#63b8ff" points="268.05,-823.88 270.76,-834.12 275.03,-824.42 268.05,-823.88"/>
</a>
</g>
</g>
<!-- Node39 -->
<g id="Node000039" class="node">
<title>Node39</title>
<g id="a_Node000039"><a xlink:href="class_p4_1_1_eliminate_typedef.html" target="_top" xlink:title=" ">
<polygon fill="white" stroke="#bfbfbf" points="501.62,-552 393.38,-552 393.38,-532 501.62,-532 501.62,-552"/>
<text text-anchor="middle" x="447.5" y="-538.5" font-family="Helvetica,sans-Serif" font-size="10.00">P4::EliminateTypedef</text>
</a>
</g>
</g>
<!-- Node4&#45;&gt;Node39 -->
<g id="edge34_Node000004_Node000039" class="edge">
<title>Node4&#45;&gt;Node39</title>
<g id="a_edge34_Node000004_Node000039"><a xlink:title=" ">
<path fill="none" stroke="#63b8ff" d="M270.29,-824.12C271.96,-770.63 284.03,-632.42 362.25,-561 370.78,-553.22 381.8,-548.39 393.04,-545.46"/>
<polygon fill="#63b8ff" stroke="#63b8ff" points="266.8,-823.96 270.09,-834.03 273.8,-824.1 266.8,-823.96"/>
</a>
</g>
</g>
<!-- Node40 -->
<g id="Node000040" class="node">
<title>Node40</title>
<g id="a_Node000040"><a xlink:href="class_p4_1_1_evaluator_pass.html" target="_top" xlink:title=" ">
<polygon fill="white" stroke="#666666" points="495.62,-514 399.38,-514 399.38,-494 495.62,-494 495.62,-514"/>
<text text-anchor="middle" x="447.5" y="-500.5" font-family="Helvetica,sans-Serif" font-size="10.00">P4::EvaluatorPass</text>
</a>
</g>
</g>
<!-- Node4&#45;&gt;Node40 -->
<g id="edge35_Node000004_Node000040" class="edge">
<title>Node4&#45;&gt;Node40</title>
<g id="a_edge35_Node000004_Node000040"><a xlink:title=" ">
<path fill="none" stroke="#63b8ff" d="M269.32,-824.41C268.42,-766.43 274.4,-606.06 362.25,-523 372.16,-513.63 385.68,-508.52 398.97,-505.82"/>
<polygon fill="#63b8ff" stroke="#63b8ff" points="265.82,-824.32 269.57,-834.22 272.82,-824.14 265.82,-824.32"/>
</a>
</g>
</g>
<!-- Node41 -->
<g id="Node000041" class="node">
<title>Node41</title>
<g id="a_Node000041"><a xlink:href="class_p4_1_1_expand_emit.html" target="_top" xlink:title=" ">
<polygon fill="white" stroke="#bfbfbf" points="491.12,-476 403.88,-476 403.88,-456 491.12,-456 491.12,-476"/>
<text text-anchor="middle" x="447.5" y="-462.5" font-family="Helvetica,sans-Serif" font-size="10.00">P4::ExpandEmit</text>
</a>
</g>
</g>
<!-- Node4&#45;&gt;Node41 -->
<g id="edge36_Node000004_Node000041" class="edge">
<title>Node4&#45;&gt;Node41</title>
<g id="a_edge36_Node000004_Node000041"><a xlink:title=" ">
<path fill="none" stroke="#63b8ff" d="M272.66,-824.57C281.41,-754.41 312.48,-533.39 362.25,-485 373.22,-474.34 388.82,-469.16 403.62,-466.78"/>
<polygon fill="#63b8ff" stroke="#63b8ff" points="269.21,-823.98 271.48,-834.33 276.16,-824.83 269.21,-823.98"/>
</a>
</g>
</g>
<!-- Node42 -->
<g id="Node000042" class="node">
<title>Node42</title>
<g id="a_Node000042"><a xlink:href="class_p4_1_1_expand_lookahead.html" target="_top" xlink:title=" ">
<polygon fill="white" stroke="#666666" points="504.62,-438 390.38,-438 390.38,-418 504.62,-418 504.62,-438"/>
<text text-anchor="middle" x="447.5" y="-424.5" font-family="Helvetica,sans-Serif" font-size="10.00">P4::ExpandLookahead</text>
</a>
</g>
</g>
<!-- Node4&#45;&gt;Node42 -->
<g id="edge37_Node000004_Node000042" class="edge">
<title>Node4&#45;&gt;Node42</title>
<g id="a_edge37_Node000004_Node000042"><a xlink:title=" ">
<path fill="none" stroke="#63b8ff" d="M272.13,-824.29C279.53,-749.07 307.7,-501.27 362.25,-447 369.8,-439.49 379.64,-434.69 389.92,-431.66"/>
<polygon fill="#63b8ff" stroke="#63b8ff" points="268.67,-823.74 271.2,-834.03 275.64,-824.41 268.67,-823.74"/>
</a>
</g>
</g>
<!-- Node43 -->
<g id="Node000043" class="node">
<title>Node43</title>
<g id="a_Node000043"><a xlink:href="class_p4_1_1_flatten_header_union.html" target="_top" xlink:title=" ">
<polygon fill="white" stroke="#666666" points="507.25,-400 387.75,-400 387.75,-380 507.25,-380 507.25,-400"/>
<text text-anchor="middle" x="447.5" y="-386.5" font-family="Helvetica,sans-Serif" font-size="10.00">P4::FlattenHeaderUnion</text>
</a>
</g>
</g>
<!-- Node4&#45;&gt;Node43 -->
<g id="edge38_Node000004_Node000043" class="edge">
<title>Node4&#45;&gt;Node43</title>
<g id="a_edge38_Node000004_Node000043"><a xlink:title=" ">
<path fill="none" stroke="#63b8ff" d="M271.66,-824.33C277.75,-744.63 302.82,-469.27 362.25,-409 369.2,-401.95 378.16,-397.28 387.64,-394.22"/>
<polygon fill="#63b8ff" stroke="#63b8ff" points="268.17,-824.01 270.93,-834.24 275.16,-824.53 268.17,-824.01"/>
</a>
</g>
</g>
<!-- Node44 -->
<g id="Node000044" class="node">
<title>Node44</title>
<g id="a_Node000044"><a xlink:href="class_p4_1_1_flatten_headers.html" target="_top" xlink:title=" ">
<polygon fill="white" stroke="#bfbfbf" points="497.5,-362 397.5,-362 397.5,-342 497.5,-342 497.5,-362"/>
<text text-anchor="middle" x="447.5" y="-348.5" font-family="Helvetica,sans-Serif" font-size="10.00">P4::FlattenHeaders</text>
</a>
</g>
</g>
<!-- Node4&#45;&gt;Node44 -->
<g id="edge39_Node000004_Node000044" class="edge">
<title>Node4&#45;&gt;Node44</title>
<g id="a_edge39_Node000004_Node000044"><a xlink:title=" ">
<path fill="none" stroke="#63b8ff" d="M271.26,-824.36C276.12,-740.37 297.92,-437.31 362.25,-371 371.44,-361.53 384.26,-356.33 397.14,-353.57"/>
<polygon fill="#63b8ff" stroke="#63b8ff" points="267.78,-824.01 270.72,-834.19 274.77,-824.4 267.78,-824.01"/>
</a>
</g>
</g>
<!-- Node45 -->
<g id="Node000045" class="node">
<title>Node45</title>
<g id="a_Node000045"><a xlink:href="class_p4_1_1_flatten_interface_structs.html" target="_top" xlink:title=" ">
<polygon fill="white" stroke="#bfbfbf" points="513.62,-324 381.38,-324 381.38,-304 513.62,-304 513.62,-324"/>
<text text-anchor="middle" x="447.5" y="-310.5" font-family="Helvetica,sans-Serif" font-size="10.00">P4::FlattenInterfaceStructs</text>
</a>
</g>
</g>
<!-- Node4&#45;&gt;Node45 -->
<g id="edge40_Node000004_Node000045" class="edge">
<title>Node4&#45;&gt;Node45</title>
<g id="a_edge40_Node000004_Node000045"><a xlink:title=" ">
<path fill="none" stroke="#63b8ff" d="M270.92,-824.36C274.63,-736.19 293.01,-405.37 362.25,-333 367.54,-327.47 374.06,-323.4 381.12,-320.41"/>
<polygon fill="#63b8ff" stroke="#63b8ff" points="267.43,-824.1 270.53,-834.23 274.43,-824.38 267.43,-824.1"/>
</a>
</g>
</g>
<!-- Node46 -->
<g id="Node000046" class="node">
<title>Node46</title>
<g id="a_Node000046"><a xlink:href="class_p4_1_1_flatten_log_msg.html" target="_top" xlink:title=" ">
<polygon fill="white" stroke="#bfbfbf" points="496.75,-286 398.25,-286 398.25,-266 496.75,-266 496.75,-286"/>
<text text-anchor="middle" x="447.5" y="-272.5" font-family="Helvetica,sans-Serif" font-size="10.00">P4::FlattenLogMsg</text>
</a>
</g>
</g>
<!-- Node4&#45;&gt;Node46 -->
<g id="edge41_Node000004_Node000046" class="edge">
<title>Node4&#45;&gt;Node46</title>
<g id="a_edge41_Node000004_Node000046"><a xlink:title=" ">
<path fill="none" stroke="#63b8ff" d="M270.63,-824.54C273.22,-732.66 288.03,-373.51 362.25,-295 371.52,-285.19 384.69,-279.93 397.86,-277.24"/>
<polygon fill="#63b8ff" stroke="#63b8ff" points="267.13,-824.29 270.37,-834.37 274.13,-824.47 267.13,-824.29"/>
</a>
</g>
</g>
<!-- Node47 -->
<g id="Node000047" class="node">
<title>Node47</title>
<g id="a_Node000047"><a xlink:href="class_p4_1_1_global_copy_propagation.html" target="_top" xlink:title=" ">
<polygon fill="white" stroke="#bfbfbf" points="515.5,-248 379.5,-248 379.5,-228 515.5,-228 515.5,-248"/>
<text text-anchor="middle" x="447.5" y="-234.5" font-family="Helvetica,sans-Serif" font-size="10.00">P4::GlobalCopyPropagation</text>
</a>
</g>
</g>
<!-- Node4&#45;&gt;Node47 -->
<g id="edge42_Node000004_Node000047" class="edge">
<title>Node4&#45;&gt;Node47</title>
<g id="a_edge42_Node000004_Node000047"><a xlink:title=" ">
<path fill="none" stroke="#63b8ff" d="M270.38,-824.3C271.95,-728.14 283.16,-341.55 362.25,-257 367.06,-251.85 372.95,-247.96 379.35,-245.02"/>
<polygon fill="#63b8ff" stroke="#63b8ff" points="266.88,-824.1 270.24,-834.14 273.88,-824.19 266.88,-824.1"/>
</a>
</g>
</g>
<!-- Node48 -->
<g id="Node000048" class="node">
<title>Node48</title>
<g id="a_Node000048"><a xlink:href="class_p4_1_1_h_s_index_simplifier.html" target="_top" xlink:title=" ">
<polygon fill="white" stroke="#bfbfbf" points="502.75,-210 392.25,-210 392.25,-190 502.75,-190 502.75,-210"/>
<text text-anchor="middle" x="447.5" y="-196.5" font-family="Helvetica,sans-Serif" font-size="10.00">P4::HSIndexSimplifier</text>
</a>
</g>
</g>
<!-- Node4&#45;&gt;Node48 -->
<g id="edge43_Node000004_Node000048" class="edge">
<title>Node4&#45;&gt;Node48</title>
<g id="a_edge43_Node000004_Node000048"><a xlink:title=" ">
<path fill="none" stroke="#63b8ff" d="M270.15,-824.51C270.71,-724.97 278.15,-309.74 362.25,-219 370.1,-210.53 380.85,-205.44 392.04,-202.46"/>
<polygon fill="#63b8ff" stroke="#63b8ff" points="266.65,-824.42 270.11,-834.44 273.65,-824.45 266.65,-824.42"/>
</a>
</g>
</g>
<!-- Node49 -->
<g id="Node000049" class="node">
<title>Node49</title>
<g id="a_Node000049"><a xlink:href="class_p4_1_1_handle_no_match.html" target="_top" xlink:title=" ">
<polygon fill="white" stroke="#bfbfbf" points="499,-172 396,-172 396,-152 499,-152 499,-172"/>
<text text-anchor="middle" x="447.5" y="-158.5" font-family="Helvetica,sans-Serif" font-size="10.00">P4::HandleNoMatch</text>
</a>
</g>
</g>
<!-- Node4&#45;&gt;Node49 -->
<g id="edge44_Node000004_Node000049" class="edge">
<title>Node4&#45;&gt;Node49</title>
<g id="a_edge44_Node000004_Node000049"><a xlink:title=" ">
<path fill="none" stroke="#63b8ff" d="M269.95,-824.52C269.57,-721.37 273.18,-277.9 362.25,-181 370.98,-171.51 383.35,-166.25 395.93,-163.45"/>
<polygon fill="#63b8ff" stroke="#63b8ff" points="266.45,-824.34 270.01,-834.32 273.45,-824.3 266.45,-824.34"/>
</a>
</g>
</g>
<!-- Node50 -->
<g id="Node000050" class="node">
<title>Node50</title>
<g id="a_Node000050"><a xlink:href="class_p4_1_1_inline_actions.html" target="_top" xlink:title=" ">
<polygon fill="white" stroke="#bfbfbf" points="492.25,-134 402.75,-134 402.75,-114 492.25,-114 492.25,-134"/>
<text text-anchor="middle" x="447.5" y="-120.5" font-family="Helvetica,sans-Serif" font-size="10.00">P4::InlineActions</text>
</a>
</g>
</g>
<!-- Node4&#45;&gt;Node50 -->
<g id="edge45_Node000004_Node000050" class="edge">
<title>Node4&#45;&gt;Node50</title>
<g id="a_edge45_Node000004_Node000050"><a xlink:title=" ">
<path fill="none" stroke="#63b8ff" d="M269.77,-824.31C268.48,-717.22 268.27,-246 362.25,-143 372.46,-131.81 387.72,-126.5 402.47,-124.16"/>
<polygon fill="#63b8ff" stroke="#63b8ff" points="266.27,-824.05 269.91,-834 273.27,-823.95 266.27,-824.05"/>
</a>
</g>
</g>
<!-- Node51 -->
<g id="Node000051" class="node">
<title>Node51</title>
<g id="a_Node000051"><a xlink:href="class_p4_1_1_inline_functions.html" target="_top" xlink:title=" ">
<polygon fill="white" stroke="#bfbfbf" points="497.12,-96 397.88,-96 397.88,-76 497.12,-76 497.12,-96"/>
<text text-anchor="middle" x="447.5" y="-82.5" font-family="Helvetica,sans-Serif" font-size="10.00">P4::InlineFunctions</text>
</a>
</g>
</g>
<!-- Node4&#45;&gt;Node51 -->
<g id="edge46_Node000004_Node000051" class="edge">
<title>Node4&#45;&gt;Node51</title>
<g id="a_edge46_Node000004_Node000051"><a xlink:title=" ">
<path fill="none" stroke="#63b8ff" d="M271.35,-824.36C278.12,-707.99 312.48,-159.91 362.25,-105 371.31,-95 384.42,-89.68 397.6,-86.99"/>
<polygon fill="#63b8ff" stroke="#63b8ff" points="267.87,-823.88 270.79,-834.06 274.86,-824.28 267.87,-823.88"/>
</a>
</g>
</g>
<!-- Node52 -->
<g id="Node000052" class="node">
<title>Node52</title>
<g id="a_Node000052"><a xlink:href="class_p4_1_1_inline_pass.html" target="_top" xlink:title="Performs one round of inlining bottoms&#45;up.">
<polygon fill="white" stroke="#666666" points="487,-58 408,-58 408,-38 487,-38 487,-58"/>
<text text-anchor="middle" x="447.5" y="-44.5" font-family="Helvetica,sans-Serif" font-size="10.00">P4::InlinePass</text>
</a>
</g>
</g>
<!-- Node4&#45;&gt;Node52 -->
<g id="edge47_Node000004_Node000052" class="edge">
<title>Node4&#45;&gt;Node52</title>
<g id="a_edge47_Node000004_Node000052"><a xlink:title=" ">
<path fill="none" stroke="#63b8ff" d="M271.21,-824.38C277.41,-704.54 309.97,-125.02 362.25,-67 373.59,-54.41 391.34,-49.24 407.62,-47.38"/>
<polygon fill="#63b8ff" stroke="#63b8ff" points="267.73,-823.93 270.71,-834.09 274.72,-824.28 267.73,-823.93"/>
</a>
</g>
</g>
<!-- Node53 -->
<g id="Node000053" class="node">
<title>Node53</title>
<g id="a_Node000053"><a xlink:href="class_p4_1_1_local_copy_propagation.html" target="_top" xlink:title=" ">
<polygon fill="white" stroke="#bfbfbf" points="513.25,-20 381.75,-20 381.75,0 513.25,0 513.25,-20"/>
<text text-anchor="middle" x="447.5" y="-6.5" font-family="Helvetica,sans-Serif" font-size="10.00">P4::LocalCopyPropagation</text>
</a>
</g>
</g>
<!-- Node4&#45;&gt;Node53 -->
<g id="edge48_Node000004_Node000053" class="edge">
<title>Node4&#45;&gt;Node53</title>
<g id="a_edge48_Node000004_Node000053"><a xlink:title=" ">
<path fill="none" stroke="#63b8ff" d="M271.08,-824.49C276.73,-701.46 307.45,-90.15 362.25,-29 367.55,-23.08 374.27,-18.8 381.59,-15.73"/>
<polygon fill="#63b8ff" stroke="#63b8ff" points="267.6,-824.01 270.64,-834.16 274.59,-824.33 267.6,-824.01"/>
</a>
</g>
</g>
</g>
</svg>

<g id="navigator" transform="translate(0 0)" fill="#404254">
  <rect fill="#f2f5e9" fill-opacity="0.5" stroke="#606060" stroke-width=".5" x="0" y="0" width="60" height="60"/>
  <use id="zoomplus" xlink:href="#zoomPlus" x="17" y="9" onmousedown="handleZoom(evt,'in')"/>
  <use id="zoomminus" xlink:href="#zoomMin" x="42" y="9" onmousedown="handleZoom(evt,'out')"/>
  <use id="reset" xlink:href="#resetDef" x="30" y="36" onmousedown="handleReset()"/>
   <use id="arrowup" xlink:href="#arrowUp" x="0" y="0" onmousedown="handlePan(0,-1)"/>
  <use id="arrowright" xlink:href="#arrowRight" x="0" y="0" onmousedown="handlePan(1,0)"/>
  <use id="arrowdown" xlink:href="#arrowDown" x="0" y="0" onmousedown="handlePan(0,1)"/>
  <use id="arrowleft" xlink:href="#arrowLeft" x="0" y="0" onmousedown="handlePan(-1,0)"/>
</g>
<svg viewBox="0 0 15 15" width="100%" height="30px" preserveAspectRatio="xMaxYMin meet">
 <g id="arrow_out" transform="scale(0.3 0.3)">
  <a xlink:href="class_p4_1_1_backtrack__inherit__graph_org.svg" target="_base">
   <rect id="button" ry="5" rx="5" y="6" x="6" height="38" width="38"
        fill="#f2f5e9" fill-opacity="0.5" stroke="#606060" stroke-width="1.0"/>
   <path id="arrow"
     d="M 11.500037,31.436501 C 11.940474,20.09759 22.043105,11.32322 32.158766,21.979434 L 37.068811,17.246167 C 37.068811,17.246167 37.088388,32 37.088388,32 L 22.160133,31.978069 C 22.160133,31.978069 26.997745,27.140456 26.997745,27.140456 C 18.528582,18.264221 13.291696,25.230495 11.500037,31.436501 z"
     style="fill:#404040;"/>
  </a>
 </g>
</svg>

<style type='text/css'>
<![CDATA[
[data-mouse-over-selected='false'] { opacity: 0.7; }
[data-mouse-over-selected='true']  { opacity: 1.0; }
]]>
</style>
<script type="application/ecmascript"><![CDATA[
document.addEventListener('DOMContentLoaded', (event) => {
  highlightEdges();
  highlightAdjacentNodes();
});
]]></script>
</svg>
