<?xml version="1.0" encoding="UTF-8" standalone="no"?>
<!DOCTYPE svg PUBLIC "-//W3C//DTD SVG 1.1//EN"
 "http://www.w3.org/Graphics/SVG/1.1/DTD/svg11.dtd">
<!-- Generated by graphviz version 11.0.0 (20240428.1522)
 -->
<!-- Title: P4::Modifier Pages: 1 -->
<svg width="570pt" height="368pt"
 viewBox="0.00 0.00 570.00 368.00" xmlns="http://www.w3.org/2000/svg" xmlns:xlink="http://www.w3.org/1999/xlink">
<g id="graph0" class="graph" transform="scale(1 1) rotate(0) translate(4 364)">
<title>P4::Modifier</title>
<!-- Node1 -->
<g id="Node000001" class="node">
<title>Node1</title>
<g id="a_Node000001"><a xlink:title=" ">
<polygon fill="#999999" stroke="#666666" points="165.5,-208 97.75,-208 97.75,-188 165.5,-188 165.5,-208"/>
<text text-anchor="middle" x="131.62" y="-194.5" font-family="Helvetica,sans-Serif" font-size="10.00">P4::Modifier</text>
</a>
</g>
</g>
<!-- Node3 -->
<g id="Node000003" class="node">
<title>Node3</title>
<g id="a_Node000003"><a xlink:href="class_p4_1_1_check_header_types.html" target="_top" xlink:title=" ">
<polygon fill="white" stroke="#bfbfbf" points="349.5,-360 230.75,-360 230.75,-340 349.5,-340 349.5,-360"/>
<text text-anchor="middle" x="290.12" y="-346.5" font-family="Helvetica,sans-Serif" font-size="10.00">P4::CheckHeaderTypes</text>
</a>
</g>
</g>
<!-- Node1&#45;&gt;Node3 -->
<g id="edge2_Node000001_Node000003" class="edge">
<title>Node1&#45;&gt;Node3</title>
<g id="a_edge2_Node000001_Node000003"><a xlink:title=" ">
<path fill="none" stroke="#63b8ff" d="M137.5,-219.03C145.53,-248.78 164.48,-302.66 201.5,-331 209.91,-337.43 220.03,-341.79 230.36,-344.72"/>
<polygon fill="#63b8ff" stroke="#63b8ff" points="140.99,-218.55 135.15,-209.71 134.2,-220.26 140.99,-218.55"/>
</a>
</g>
</g>
<!-- Node4 -->
<g id="Node000004" class="node">
<title>Node4</title>
<g id="a_Node000004"><a xlink:href="class_p4_1_1_check_table_size.html" target="_top" xlink:title="Checks some possible misuses of the table size property.">
<polygon fill="white" stroke="#666666" points="342.38,-322 237.88,-322 237.88,-302 342.38,-302 342.38,-322"/>
<text text-anchor="middle" x="290.12" y="-308.5" font-family="Helvetica,sans-Serif" font-size="10.00">P4::CheckTableSize</text>
</a>
</g>
</g>
<!-- Node1&#45;&gt;Node4 -->
<g id="edge3_Node000001_Node000004" class="edge">
<title>Node1&#45;&gt;Node4</title>
<g id="a_edge3_Node000001_Node000004"><a xlink:title=" ">
<path fill="none" stroke="#63b8ff" d="M141.84,-218.43C152.83,-240.38 173.32,-274.6 201.5,-293 212.19,-299.98 225.02,-304.44 237.52,-307.27"/>
<polygon fill="#63b8ff" stroke="#63b8ff" points="145.08,-217.1 137.62,-209.58 138.76,-220.11 145.08,-217.1"/>
</a>
</g>
</g>
<!-- Node5 -->
<g id="Node000005" class="node">
<title>Node5</title>
<g id="a_Node000005"><a xlink:href="class_p4_1_1_do_single_argument_select.html" target="_top" xlink:title=" ">
<polygon fill="white" stroke="#666666" points="361.5,-284 218.75,-284 218.75,-264 361.5,-264 361.5,-284"/>
<text text-anchor="middle" x="290.12" y="-270.5" font-family="Helvetica,sans-Serif" font-size="10.00">P4::DoSingleArgumentSelect</text>
</a>
</g>
</g>
<!-- Node1&#45;&gt;Node5 -->
<g id="edge4_Node000001_Node000005" class="edge">
<title>Node1&#45;&gt;Node5</title>
<g id="a_edge4_Node000001_Node000005"><a xlink:title=" ">
<path fill="none" stroke="#63b8ff" d="M149.81,-216.28C162.82,-229.03 181.76,-245.41 201.5,-255 208.5,-258.4 216.11,-261.2 223.82,-263.5"/>
<polygon fill="#63b8ff" stroke="#63b8ff" points="152.39,-213.91 142.88,-209.24 147.41,-218.82 152.39,-213.91"/>
</a>
</g>
</g>
<!-- Node6 -->
<g id="Node000006" class="node">
<title>Node6</title>
<g id="a_Node000006"><a xlink:href="class_p4_1_1_header_type_max_length_calculator.html" target="_top" xlink:title=" ">
<polygon fill="white" stroke="#bfbfbf" points="378.75,-246 201.5,-246 201.5,-226 378.75,-226 378.75,-246"/>
<text text-anchor="middle" x="290.12" y="-232.5" font-family="Helvetica,sans-Serif" font-size="10.00">P4::HeaderTypeMaxLengthCalculator</text>
</a>
</g>
</g>
<!-- Node1&#45;&gt;Node6 -->
<g id="edge5_Node000001_Node000006" class="edge">
<title>Node1&#45;&gt;Node6</title>
<g id="a_edge5_Node000001_Node000006"><a xlink:title=" ">
<path fill="none" stroke="#63b8ff" d="M176.74,-210.56C184.95,-212.79 193.47,-215.02 201.5,-217 213.44,-219.94 226.36,-222.87 238.51,-225.53"/>
<polygon fill="#63b8ff" stroke="#63b8ff" points="177.84,-207.23 167.27,-207.96 175.98,-213.98 177.84,-207.23"/>
</a>
</g>
</g>
<!-- Node7 -->
<g id="Node000007" class="node">
<title>Node7</title>
<g id="a_Node000007"><a xlink:href="class_p4_1_1_parse_annotations.html" target="_top" xlink:title=" ">
<polygon fill="white" stroke="#bfbfbf" points="345.75,-208 234.5,-208 234.5,-188 345.75,-188 345.75,-208"/>
<text text-anchor="middle" x="290.12" y="-194.5" font-family="Helvetica,sans-Serif" font-size="10.00">P4::ParseAnnotations</text>
</a>
</g>
</g>
<!-- Node1&#45;&gt;Node7 -->
<g id="edge6_Node000001_Node000007" class="edge">
<title>Node1&#45;&gt;Node7</title>
<g id="a_edge6_Node000001_Node000007"><a xlink:title=" ">
<path fill="none" stroke="#63b8ff" d="M177.27,-198C194.98,-198 215.51,-198 234.12,-198"/>
<polygon fill="#63b8ff" stroke="#63b8ff" points="177.33,-194.5 167.33,-198 177.33,-201.5 177.33,-194.5"/>
</a>
</g>
</g>
<!-- Node11 -->
<g id="Node000011" class="node">
<title>Node11</title>
<g id="a_Node000011"><a xlink:href="class_p4_1_1_switch_add_default.html" target="_top" xlink:title=" ">
<polygon fill="white" stroke="#bfbfbf" points="345.38,-170 234.88,-170 234.88,-150 345.38,-150 345.38,-170"/>
<text text-anchor="middle" x="290.12" y="-156.5" font-family="Helvetica,sans-Serif" font-size="10.00">P4::SwitchAddDefault</text>
</a>
</g>
</g>
<!-- Node1&#45;&gt;Node11 -->
<g id="edge10_Node000001_Node000011" class="edge">
<title>Node1&#45;&gt;Node11</title>
<g id="a_edge10_Node000001_Node000011"><a xlink:title=" ">
<path fill="none" stroke="#63b8ff" d="M176.74,-185.44C184.95,-183.21 193.47,-180.98 201.5,-179 213.44,-176.06 226.36,-173.13 238.51,-170.47"/>
<polygon fill="#63b8ff" stroke="#63b8ff" points="175.98,-182.02 167.27,-188.04 177.84,-188.77 175.98,-182.02"/>
</a>
</g>
</g>
<!-- Node12 -->
<g id="Node000012" class="node">
<title>Node12</title>
<g id="a_Node000012"><a xlink:href="class_p4_1_1_type_check_1_1_assign_action_arg_types.html" target="_top" xlink:title=" ">
<polygon fill="white" stroke="#bfbfbf" points="363.38,-132 216.88,-132 216.88,-100 363.38,-100 363.38,-132"/>
<text text-anchor="start" x="224.88" y="-118.5" font-family="Helvetica,sans-Serif" font-size="10.00">P4::TypeCheck::AssignAction</text>
<text text-anchor="middle" x="290.12" y="-106.5" font-family="Helvetica,sans-Serif" font-size="10.00">ArgTypes</text>
</a>
</g>
</g>
<!-- Node1&#45;&gt;Node12 -->
<g id="edge11_Node000001_Node000012" class="edge">
<title>Node1&#45;&gt;Node12</title>
<g id="a_edge11_Node000001_Node000012"><a xlink:title=" ">
<path fill="none" stroke="#63b8ff" d="M150.46,-179.66C163.54,-167.16 182.31,-151.11 201.5,-141 207.66,-137.76 214.29,-134.89 221.05,-132.37"/>
<polygon fill="#63b8ff" stroke="#63b8ff" points="148.12,-177.06 143.45,-186.57 153.03,-182.04 148.12,-177.06"/>
</a>
</g>
</g>
<!-- Node13 -->
<g id="Node000013" class="node">
<title>Node13</title>
<g id="a_Node000013"><a xlink:href="class_p4_1_1_type_check_1_1_infer_expressions_bottom_up.html" target="_top" xlink:title="Bottom up type inferencing – set the types of expression nodes based on operands.">
<polygon fill="white" stroke="#666666" points="370.5,-82 209.75,-82 209.75,-50 370.5,-50 370.5,-82"/>
<text text-anchor="start" x="217.75" y="-68.5" font-family="Helvetica,sans-Serif" font-size="10.00">P4::TypeCheck::InferExpressions</text>
<text text-anchor="middle" x="290.12" y="-56.5" font-family="Helvetica,sans-Serif" font-size="10.00">BottomUp</text>
</a>
</g>
</g>
<!-- Node1&#45;&gt;Node13 -->
<g id="edge12_Node000001_Node000013" class="edge">
<title>Node1&#45;&gt;Node13</title>
<g id="a_edge12_Node000001_Node000013"><a xlink:title=" ">
<path fill="none" stroke="#63b8ff" d="M140.64,-177.16C151.03,-152.89 171.46,-113.29 201.5,-91 205.95,-87.7 210.81,-84.84 215.91,-82.35"/>
<polygon fill="#63b8ff" stroke="#63b8ff" points="137.45,-175.72 136.92,-186.3 143.93,-178.36 137.45,-175.72"/>
</a>
</g>
</g>
<!-- Node14 -->
<g id="Node000014" class="node">
<title>Node14</title>
<g id="a_Node000014"><a xlink:href="class_p4_1_1_type_check_1_1_infer_expressions_top_down.html" target="_top" xlink:title="Top down type inferencing – set the type of expression nodes based on their uses.">
<polygon fill="white" stroke="#666666" points="370.5,-32 209.75,-32 209.75,0 370.5,0 370.5,-32"/>
<text text-anchor="start" x="217.75" y="-18.5" font-family="Helvetica,sans-Serif" font-size="10.00">P4::TypeCheck::InferExpressions</text>
<text text-anchor="middle" x="290.12" y="-6.5" font-family="Helvetica,sans-Serif" font-size="10.00">TopDown</text>
</a>
</g>
</g>
<!-- Node1&#45;&gt;Node14 -->
<g id="edge13_Node000001_Node000014" class="edge">
<title>Node1&#45;&gt;Node14</title>
<g id="a_edge13_Node000001_Node000014"><a xlink:title=" ">
<path fill="none" stroke="#63b8ff" d="M136.07,-176.52C142.63,-142.68 160.14,-77.1 201.5,-41 205.31,-37.67 209.54,-34.78 214.02,-32.28"/>
<polygon fill="#63b8ff" stroke="#63b8ff" points="132.63,-175.86 134.33,-186.31 139.52,-177.08 132.63,-175.86"/>
</a>
</g>
</g>
<!-- Node2 -->
<g id="Node000002" class="node">
<title>Node2</title>
<g id="a_Node000002"><a xlink:href="class_p4_1_1_visitor.html" target="_top" xlink:title=" ">
<polygon fill="white" stroke="#bfbfbf" points="61.75,-208 0,-208 0,-188 61.75,-188 61.75,-208"/>
<text text-anchor="middle" x="30.88" y="-194.5" font-family="Helvetica,sans-Serif" font-size="10.00">P4::Visitor</text>
</a>
</g>
</g>
<!-- Node2&#45;&gt;Node1 -->
<g id="edge1_Node000001_Node000002" class="edge">
<title>Node2&#45;&gt;Node1</title>
<g id="a_edge1_Node000001_Node000002"><a xlink:title=" ">
<path fill="none" stroke="#63b8ff" d="M73.5,-198C81.53,-198 89.84,-198 97.55,-198"/>
<polygon fill="#63b8ff" stroke="#63b8ff" points="73.55,-194.5 63.55,-198 73.55,-201.5 73.55,-194.5"/>
</a>
</g>
</g>
<!-- Node8 -->
<g id="Node000008" class="node">
<title>Node8</title>
<g id="a_Node000008"><a xlink:href="class_p4_1_1_b_m_v2_1_1_parse_annotations.html" target="_top" xlink:title="Parses BMV2&#45;specific annotations.">
<polygon fill="white" stroke="#666666" points="560.5,-252 416.25,-252 416.25,-232 560.5,-232 560.5,-252"/>
<text text-anchor="middle" x="488.38" y="-238.5" font-family="Helvetica,sans-Serif" font-size="10.00">P4::BMV2::ParseAnnotations</text>
</a>
</g>
</g>
<!-- Node7&#45;&gt;Node8 -->
<g id="edge7_Node000007_Node000008" class="edge">
<title>Node7&#45;&gt;Node8</title>
<g id="a_edge7_Node000007_Node000008"><a xlink:title=" ">
<path fill="none" stroke="#63b8ff" d="M351.01,-210.88C360.3,-212.91 369.79,-215 378.75,-217 399.71,-221.68 422.92,-227.01 442.48,-231.53"/>
<polygon fill="#63b8ff" stroke="#63b8ff" points="351.81,-207.47 341.29,-208.76 350.32,-214.31 351.81,-207.47"/>
</a>
</g>
</g>
<!-- Node9 -->
<g id="Node000009" class="node">
<title>Node9</title>
<g id="a_Node000009"><a xlink:href="class_p4_1_1_control_plane_a_p_i_1_1_parse_p4_runtime_annotations.html" target="_top" xlink:title="Parses P4Runtime&#45;specific annotations.">
<polygon fill="white" stroke="#666666" points="562,-214 414.75,-214 414.75,-182 562,-182 562,-214"/>
<text text-anchor="start" x="422.75" y="-200.5" font-family="Helvetica,sans-Serif" font-size="10.00">P4::ControlPlaneAPI</text>
<text text-anchor="middle" x="488.38" y="-188.5" font-family="Helvetica,sans-Serif" font-size="10.00">::ParseP4RuntimeAnnotations</text>
</a>
</g>
</g>
<!-- Node7&#45;&gt;Node9 -->
<g id="edge8_Node000007_Node000009" class="edge">
<title>Node7&#45;&gt;Node9</title>
<g id="a_edge8_Node000007_Node000009"><a xlink:title=" ">
<path fill="none" stroke="#63b8ff" d="M357.52,-198C375.83,-198 395.8,-198 414.47,-198"/>
<polygon fill="#63b8ff" stroke="#63b8ff" points="357.57,-194.5 347.57,-198 357.57,-201.5 357.57,-194.5"/>
</a>
</g>
</g>
<!-- Node10 -->
<g id="Node000010" class="node">
<title>Node10</title>
<g id="a_Node000010"><a xlink:href="class_p4_1_1_t_c_1_1_parse_t_c_annotations.html" target="_top" xlink:title=" ">
<polygon fill="white" stroke="#bfbfbf" points="559,-164 417.75,-164 417.75,-144 559,-144 559,-164"/>
<text text-anchor="middle" x="488.38" y="-150.5" font-family="Helvetica,sans-Serif" font-size="10.00">P4::TC::ParseTCAnnotations</text>
</a>
</g>
</g>
<!-- Node7&#45;&gt;Node10 -->
<g id="edge9_Node000007_Node000010" class="edge">
<title>Node7&#45;&gt;Node10</title>
<g id="a_edge9_Node000007_Node000010"><a xlink:title=" ">
<path fill="none" stroke="#63b8ff" d="M351.01,-185.12C360.3,-183.09 369.79,-181 378.75,-179 399.71,-174.32 422.92,-168.99 442.48,-164.47"/>
<polygon fill="#63b8ff" stroke="#63b8ff" points="350.32,-181.69 341.29,-187.24 351.81,-188.53 350.32,-181.69"/>
</a>
</g>
</g>
</g>
</svg>
