<?xml version="1.0" encoding="UTF-8" standalone="no"?>
<!DOCTYPE svg PUBLIC "-//W3C//DTD SVG 1.1//EN"
 "http://www.w3.org/Graphics/SVG/1.1/DTD/svg11.dtd">
<!-- Generated by graphviz version 11.0.0 (20240428.1522)
 -->
<!-- Title: P4::P4Tools::TraceEvent Pages: 1 -->
<svg width="689pt" height="490pt"
 viewBox="0.00 0.00 688.75 490.00" xmlns="http://www.w3.org/2000/svg" xmlns:xlink="http://www.w3.org/1999/xlink">
<g id="graph0" class="graph" transform="scale(1 1) rotate(0) translate(4 486)">
<title>P4::P4Tools::TraceEvent</title>
<!-- Node1 -->
<g id="Node000001" class="node">
<title>Node1</title>
<g id="a_Node000001"><a xlink:title="An event in a trace of the execution of a P4 program.">
<polygon fill="#999999" stroke="#666666" points="351.75,-251 228.5,-251 228.5,-231 351.75,-231 351.75,-251"/>
<text text-anchor="middle" x="290.12" y="-237.5" font-family="Helvetica,sans-Serif" font-size="10.00">P4::P4Tools::TraceEvent</text>
</a>
</g>
</g>
<!-- Node4 -->
<g id="Node000004" class="node">
<title>Node4</title>
<g id="a_Node000004"><a xlink:href="class_p4_1_1_p4_tools_1_1_trace_events_1_1_assignment_statement.html" target="_top" xlink:title="Represents an assignment statement.">
<polygon fill="white" stroke="#666666" points="516.25,-482 387.75,-482 387.75,-450 516.25,-450 516.25,-482"/>
<text text-anchor="start" x="395.75" y="-468.5" font-family="Helvetica,sans-Serif" font-size="10.00">P4::P4Tools::TraceEvents</text>
<text text-anchor="middle" x="452" y="-456.5" font-family="Helvetica,sans-Serif" font-size="10.00">::AssignmentStatement</text>
</a>
</g>
</g>
<!-- Node1&#45;&gt;Node4 -->
<g id="edge3_Node000001_Node000004" class="edge">
<title>Node1&#45;&gt;Node4</title>
<g id="a_edge3_Node000001_Node000004"><a xlink:title=" ">
<path fill="none" stroke="#63b8ff" d="M295.95,-262.41C306.1,-302.74 333.33,-390.45 387.75,-441 391.21,-444.21 395.13,-447.03 399.29,-449.51"/>
<polygon fill="#63b8ff" stroke="#63b8ff" points="299.38,-261.68 293.65,-252.77 292.57,-263.31 299.38,-261.68"/>
</a>
</g>
</g>
<!-- Node5 -->
<g id="Node000005" class="node">
<title>Node5</title>
<g id="a_Node000005"><a xlink:href="class_p4_1_1_p4_tools_1_1_trace_events_1_1_emit.html" target="_top" xlink:title="A field being emitted by a deparser.">
<polygon fill="white" stroke="#666666" points="516.25,-432 387.75,-432 387.75,-400 516.25,-400 516.25,-432"/>
<text text-anchor="start" x="395.75" y="-418.5" font-family="Helvetica,sans-Serif" font-size="10.00">P4::P4Tools::TraceEvents</text>
<text text-anchor="middle" x="452" y="-406.5" font-family="Helvetica,sans-Serif" font-size="10.00">::Emit</text>
</a>
</g>
</g>
<!-- Node1&#45;&gt;Node5 -->
<g id="edge4_Node000001_Node000005" class="edge">
<title>Node1&#45;&gt;Node5</title>
<g id="a_edge4_Node000001_Node000005"><a xlink:title=" ">
<path fill="none" stroke="#63b8ff" d="M299.42,-261.61C313.23,-293.52 343.83,-354.93 387.75,-391 391.67,-394.22 396.06,-397.07 400.65,-399.57"/>
<polygon fill="#63b8ff" stroke="#63b8ff" points="302.78,-260.56 295.68,-252.69 296.32,-263.27 302.78,-260.56"/>
</a>
</g>
</g>
<!-- Node6 -->
<g id="Node000006" class="node">
<title>Node6</title>
<g id="a_Node000006"><a xlink:href="class_p4_1_1_p4_tools_1_1_trace_events_1_1_extract_failure.html" target="_top" xlink:title=" ">
<polygon fill="white" stroke="#666666" points="516.25,-382 387.75,-382 387.75,-350 516.25,-350 516.25,-382"/>
<text text-anchor="start" x="395.75" y="-368.5" font-family="Helvetica,sans-Serif" font-size="10.00">P4::P4Tools::TraceEvents</text>
<text text-anchor="middle" x="452" y="-356.5" font-family="Helvetica,sans-Serif" font-size="10.00">::ExtractFailure</text>
</a>
</g>
</g>
<!-- Node1&#45;&gt;Node6 -->
<g id="edge5_Node000001_Node000006" class="edge">
<title>Node1&#45;&gt;Node6</title>
<g id="a_edge5_Node000001_Node000006"><a xlink:title=" ">
<path fill="none" stroke="#63b8ff" d="M305.77,-260.58C323.19,-282.7 354.16,-318.54 387.75,-341 392.46,-344.15 397.63,-347 402.92,-349.55"/>
<polygon fill="#63b8ff" stroke="#63b8ff" points="308.56,-258.47 299.69,-252.68 303.02,-262.74 308.56,-258.47"/>
</a>
</g>
</g>
<!-- Node7 -->
<g id="Node000007" class="node">
<title>Node7</title>
<g id="a_Node000007"><a xlink:href="class_p4_1_1_p4_tools_1_1_trace_events_1_1_extract_success.html" target="_top" xlink:title=" ">
<polygon fill="white" stroke="#666666" points="516.25,-332 387.75,-332 387.75,-300 516.25,-300 516.25,-332"/>
<text text-anchor="start" x="395.75" y="-318.5" font-family="Helvetica,sans-Serif" font-size="10.00">P4::P4Tools::TraceEvents</text>
<text text-anchor="middle" x="452" y="-306.5" font-family="Helvetica,sans-Serif" font-size="10.00">::ExtractSuccess</text>
</a>
</g>
</g>
<!-- Node1&#45;&gt;Node7 -->
<g id="edge6_Node000001_Node000007" class="edge">
<title>Node1&#45;&gt;Node7</title>
<g id="a_edge6_Node000001_Node000007"><a xlink:title=" ">
<path fill="none" stroke="#63b8ff" d="M319.83,-256.83C338.86,-267.07 364.5,-280.42 387.75,-291 394.2,-293.93 401.1,-296.87 407.88,-299.64"/>
<polygon fill="#63b8ff" stroke="#63b8ff" points="321.52,-253.76 311.06,-252.07 318.18,-259.91 321.52,-253.76"/>
</a>
</g>
</g>
<!-- Node8 -->
<g id="Node000008" class="node">
<title>Node8</title>
<g id="a_Node000008"><a xlink:href="class_p4_1_1_p4_tools_1_1_trace_events_1_1_generic.html" target="_top" xlink:title="A generic event that only takes in a string as label.">
<polygon fill="white" stroke="#666666" points="516.25,-282 387.75,-282 387.75,-250 516.25,-250 516.25,-282"/>
<text text-anchor="start" x="395.75" y="-268.5" font-family="Helvetica,sans-Serif" font-size="10.00">P4::P4Tools::TraceEvents</text>
<text text-anchor="middle" x="452" y="-256.5" font-family="Helvetica,sans-Serif" font-size="10.00">::Generic</text>
</a>
</g>
</g>
<!-- Node1&#45;&gt;Node8 -->
<g id="edge7_Node000001_Node000008" class="edge">
<title>Node1&#45;&gt;Node8</title>
<g id="a_edge7_Node000001_Node000008"><a xlink:title=" ">
<path fill="none" stroke="#63b8ff" d="M363.27,-252.28C371.3,-253.54 379.44,-254.81 387.35,-256.05"/>
<polygon fill="#63b8ff" stroke="#63b8ff" points="363.94,-248.84 353.52,-250.76 362.86,-255.76 363.94,-248.84"/>
</a>
</g>
</g>
<!-- Node11 -->
<g id="Node000011" class="node">
<title>Node11</title>
<g id="a_Node000011"><a xlink:href="class_p4_1_1_p4_tools_1_1_trace_events_1_1_if_statement_condition.html" target="_top" xlink:title="Represents an if statement condition.">
<polygon fill="white" stroke="#666666" points="516.25,-232 387.75,-232 387.75,-200 516.25,-200 516.25,-232"/>
<text text-anchor="start" x="395.75" y="-218.5" font-family="Helvetica,sans-Serif" font-size="10.00">P4::P4Tools::TraceEvents</text>
<text text-anchor="middle" x="452" y="-206.5" font-family="Helvetica,sans-Serif" font-size="10.00">::IfStatementCondition</text>
</a>
</g>
</g>
<!-- Node1&#45;&gt;Node11 -->
<g id="edge10_Node000001_Node000011" class="edge">
<title>Node1&#45;&gt;Node11</title>
<g id="a_edge10_Node000001_Node000011"><a xlink:title=" ">
<path fill="none" stroke="#63b8ff" d="M363.27,-229.72C371.3,-228.46 379.44,-227.19 387.35,-225.95"/>
<polygon fill="#63b8ff" stroke="#63b8ff" points="362.86,-226.24 353.52,-231.24 363.94,-233.16 362.86,-226.24"/>
</a>
</g>
</g>
<!-- Node12 -->
<g id="Node000012" class="node">
<title>Node12</title>
<g id="a_Node000012"><a xlink:href="class_p4_1_1_p4_tools_1_1_trace_events_1_1_method_call.html" target="_top" xlink:title="Label dedicated to method call expression.">
<polygon fill="white" stroke="#666666" points="516.25,-182 387.75,-182 387.75,-150 516.25,-150 516.25,-182"/>
<text text-anchor="start" x="395.75" y="-168.5" font-family="Helvetica,sans-Serif" font-size="10.00">P4::P4Tools::TraceEvents</text>
<text text-anchor="middle" x="452" y="-156.5" font-family="Helvetica,sans-Serif" font-size="10.00">::MethodCall</text>
</a>
</g>
</g>
<!-- Node1&#45;&gt;Node12 -->
<g id="edge11_Node000001_Node000012" class="edge">
<title>Node1&#45;&gt;Node12</title>
<g id="a_edge11_Node000001_Node000012"><a xlink:title=" ">
<path fill="none" stroke="#63b8ff" d="M319.83,-225.17C338.86,-214.93 364.5,-201.58 387.75,-191 394.2,-188.07 401.1,-185.13 407.88,-182.36"/>
<polygon fill="#63b8ff" stroke="#63b8ff" points="318.18,-222.09 311.06,-229.93 321.52,-228.24 318.18,-222.09"/>
</a>
</g>
</g>
<!-- Node13 -->
<g id="Node000013" class="node">
<title>Node13</title>
<g id="a_Node000013"><a xlink:href="class_p4_1_1_p4_tools_1_1_trace_events_1_1_packet.html" target="_top" xlink:title="A packet that is either presented to a parser or emitted from a deparser.">
<polygon fill="white" stroke="#666666" points="516.25,-132 387.75,-132 387.75,-100 516.25,-100 516.25,-132"/>
<text text-anchor="start" x="395.75" y="-118.5" font-family="Helvetica,sans-Serif" font-size="10.00">P4::P4Tools::TraceEvents</text>
<text text-anchor="middle" x="452" y="-106.5" font-family="Helvetica,sans-Serif" font-size="10.00">::Packet</text>
</a>
</g>
</g>
<!-- Node1&#45;&gt;Node13 -->
<g id="edge12_Node000001_Node000013" class="edge">
<title>Node1&#45;&gt;Node13</title>
<g id="a_edge12_Node000001_Node000013"><a xlink:title=" ">
<path fill="none" stroke="#63b8ff" d="M305.77,-221.42C323.19,-199.3 354.16,-163.46 387.75,-141 392.46,-137.85 397.63,-135 402.92,-132.45"/>
<polygon fill="#63b8ff" stroke="#63b8ff" points="303.02,-219.26 299.69,-229.32 308.56,-223.53 303.02,-219.26"/>
</a>
</g>
</g>
<!-- Node14 -->
<g id="Node000014" class="node">
<title>Node14</title>
<g id="a_Node000014"><a xlink:href="class_p4_1_1_p4_tools_1_1_trace_events_1_1_parser_start.html" target="_top" xlink:title="Marks the start of a parser.">
<polygon fill="white" stroke="#666666" points="516.25,-82 387.75,-82 387.75,-50 516.25,-50 516.25,-82"/>
<text text-anchor="start" x="395.75" y="-68.5" font-family="Helvetica,sans-Serif" font-size="10.00">P4::P4Tools::TraceEvents</text>
<text text-anchor="middle" x="452" y="-56.5" font-family="Helvetica,sans-Serif" font-size="10.00">::ParserStart</text>
</a>
</g>
</g>
<!-- Node1&#45;&gt;Node14 -->
<g id="edge13_Node000001_Node000014" class="edge">
<title>Node1&#45;&gt;Node14</title>
<g id="a_edge13_Node000001_Node000014"><a xlink:title=" ">
<path fill="none" stroke="#63b8ff" d="M299.42,-220.39C313.23,-188.48 343.83,-127.07 387.75,-91 391.67,-87.78 396.06,-84.93 400.65,-82.43"/>
<polygon fill="#63b8ff" stroke="#63b8ff" points="296.32,-218.73 295.68,-229.31 302.78,-221.44 296.32,-218.73"/>
</a>
</g>
</g>
<!-- Node15 -->
<g id="Node000015" class="node">
<title>Node15</title>
<g id="a_Node000015"><a xlink:href="class_p4_1_1_p4_tools_1_1_trace_events_1_1_parser_state.html" target="_top" xlink:title="Marks the entry into a parser state.">
<polygon fill="white" stroke="#666666" points="516.25,-32 387.75,-32 387.75,0 516.25,0 516.25,-32"/>
<text text-anchor="start" x="395.75" y="-18.5" font-family="Helvetica,sans-Serif" font-size="10.00">P4::P4Tools::TraceEvents</text>
<text text-anchor="middle" x="452" y="-6.5" font-family="Helvetica,sans-Serif" font-size="10.00">::ParserState</text>
</a>
</g>
</g>
<!-- Node1&#45;&gt;Node15 -->
<g id="edge14_Node000001_Node000015" class="edge">
<title>Node1&#45;&gt;Node15</title>
<g id="a_edge14_Node000001_Node000015"><a xlink:title=" ">
<path fill="none" stroke="#63b8ff" d="M295.95,-219.59C306.1,-179.26 333.33,-91.55 387.75,-41 391.21,-37.79 395.13,-34.97 399.29,-32.49"/>
<polygon fill="#63b8ff" stroke="#63b8ff" points="292.57,-218.69 293.65,-229.23 299.38,-220.32 292.57,-218.69"/>
</a>
</g>
</g>
<!-- Node2 -->
<g id="Node000002" class="node">
<title>Node2</title>
<g id="a_Node000002"><a xlink:href="class_p4_1_1_i_castable.html" target="_top" xlink:title=" ">
<polygon fill="white" stroke="#666666" points="192.5,-251 118,-251 118,-231 192.5,-231 192.5,-251"/>
<text text-anchor="middle" x="155.25" y="-237.5" font-family="Helvetica,sans-Serif" font-size="10.00">P4::ICastable</text>
</a>
</g>
</g>
<!-- Node2&#45;&gt;Node1 -->
<g id="edge1_Node000001_Node000002" class="edge">
<title>Node2&#45;&gt;Node1</title>
<g id="a_edge1_Node000001_Node000002"><a xlink:title=" ">
<path fill="none" stroke="#63b8ff" d="M204.3,-241C212.03,-241 220.11,-241 228.1,-241"/>
<polygon fill="#63b8ff" stroke="#63b8ff" points="204.42,-237.5 194.42,-241 204.42,-244.5 204.42,-237.5"/>
</a>
</g>
</g>
<!-- Node3 -->
<g id="Node000003" class="node">
<title>Node3</title>
<g id="a_Node000003"><a xlink:href="struct_p4_1_1_r_t_t_i_1_1_base.html" target="_top" xlink:title=" ">
<polygon fill="white" stroke="#bfbfbf" points="82,-251 0,-251 0,-231 82,-231 82,-251"/>
<text text-anchor="middle" x="41" y="-237.5" font-family="Helvetica,sans-Serif" font-size="10.00">P4::RTTI::Base</text>
</a>
</g>
</g>
<!-- Node3&#45;&gt;Node2 -->
<g id="edge2_Node000002_Node000003" class="edge">
<title>Node3&#45;&gt;Node2</title>
<g id="a_edge2_Node000002_Node000003"><a xlink:title=" ">
<path fill="none" stroke="#63b8ff" d="M93.56,-241C101.7,-241 109.98,-241 117.68,-241"/>
<polygon fill="#63b8ff" stroke="#63b8ff" points="93.72,-237.5 83.72,-241 93.72,-244.5 93.72,-237.5"/>
</a>
</g>
</g>
<!-- Node9 -->
<g id="Node000009" class="node">
<title>Node9</title>
<g id="a_Node000009"><a xlink:href="class_p4_1_1_p4_tools_1_1_trace_events_1_1_expression.html" target="_top" xlink:title="A simple event that stores the provided expression.">
<polygon fill="white" stroke="#666666" points="680.75,-307 552.25,-307 552.25,-275 680.75,-275 680.75,-307"/>
<text text-anchor="start" x="560.25" y="-293.5" font-family="Helvetica,sans-Serif" font-size="10.00">P4::P4Tools::TraceEvents</text>
<text text-anchor="middle" x="616.5" y="-281.5" font-family="Helvetica,sans-Serif" font-size="10.00">::Expression</text>
</a>
</g>
</g>
<!-- Node8&#45;&gt;Node9 -->
<g id="edge8_Node000008_Node000009" class="edge">
<title>Node8&#45;&gt;Node9</title>
<g id="a_edge8_Node000008_Node000009"><a xlink:title=" ">
<path fill="none" stroke="#63b8ff" d="M527.64,-277.48C535.73,-278.73 543.9,-279.99 551.85,-281.21"/>
<polygon fill="#63b8ff" stroke="#63b8ff" points="528.2,-274.03 517.79,-275.97 527.14,-280.95 528.2,-274.03"/>
</a>
</g>
</g>
<!-- Node10 -->
<g id="Node000010" class="node">
<title>Node10</title>
<g id="a_Node000010"><a xlink:href="class_p4_1_1_p4_tools_1_1_trace_events_1_1_generic_description.html" target="_top" xlink:title=" ">
<polygon fill="white" stroke="#666666" points="680.75,-257 552.25,-257 552.25,-225 680.75,-225 680.75,-257"/>
<text text-anchor="start" x="560.25" y="-243.5" font-family="Helvetica,sans-Serif" font-size="10.00">P4::P4Tools::TraceEvents</text>
<text text-anchor="middle" x="616.5" y="-231.5" font-family="Helvetica,sans-Serif" font-size="10.00">::GenericDescription</text>
</a>
</g>
</g>
<!-- Node8&#45;&gt;Node10 -->
<g id="edge9_Node000008_Node000010" class="edge">
<title>Node8&#45;&gt;Node10</title>
<g id="a_edge9_Node000008_Node000010"><a xlink:title=" ">
<path fill="none" stroke="#63b8ff" d="M527.64,-254.52C535.73,-253.27 543.9,-252.01 551.85,-250.79"/>
<polygon fill="#63b8ff" stroke="#63b8ff" points="527.14,-251.05 517.79,-256.03 528.2,-257.97 527.14,-251.05"/>
</a>
</g>
</g>
</g>
</svg>
