<?xml version="1.0" encoding="UTF-8" standalone="no"?>
<!DOCTYPE svg PUBLIC "-//W3C//DTD SVG 1.1//EN"
 "http://www.w3.org/Graphics/SVG/1.1/DTD/svg11.dtd">
<!-- Generated by graphviz version 11.0.0 (20240428.1522)
 -->
<!-- Title: P4::P4CContext Pages: 1 -->
<svg width="578pt" height="90pt"
 viewBox="0.00 0.00 577.50 90.00" xmlns="http://www.w3.org/2000/svg" xmlns:xlink="http://www.w3.org/1999/xlink">
<g id="graph0" class="graph" transform="scale(1 1) rotate(0) translate(4 86)">
<title>P4::P4CContext</title>
<!-- Node1 -->
<g id="Node000001" class="node">
<title>Node1</title>
<g id="a_Node000001"><a xlink:title=" ">
<polygon fill="#999999" stroke="#666666" points="389.25,-51 302.75,-51 302.75,-31 389.25,-31 389.25,-51"/>
<text text-anchor="middle" x="346" y="-37.5" font-family="Helvetica,sans-Serif" font-size="10.00">P4::P4CContext</text>
</a>
</g>
</g>
<!-- Node4 -->
<g id="Node000004" class="node">
<title>Node4</title>
<g id="a_Node000004"><a xlink:href="class_p4_1_1_p4_c_context_with_options.html" target="_top" xlink:title=" ">
<polygon fill="white" stroke="#666666" points="567.62,-82 427.12,-82 427.12,-50 567.62,-50 567.62,-82"/>
<text text-anchor="start" x="435.12" y="-68.5" font-family="Helvetica,sans-Serif" font-size="10.00">P4::P4CContextWithOptions</text>
<text text-anchor="middle" x="497.38" y="-56.5" font-family="Helvetica,sans-Serif" font-size="10.00">&lt; OptionsType &gt;</text>
</a>
</g>
</g>
<!-- Node1&#45;&gt;Node4 -->
<g id="edge3_Node000001_Node000004" class="edge">
<title>Node1&#45;&gt;Node4</title>
<g id="a_edge3_Node000001_Node000004"><a xlink:title=" ">
<path fill="none" stroke="#63b8ff" d="M400.66,-49.98C409.12,-51.4 417.97,-52.88 426.73,-54.34"/>
<polygon fill="#63b8ff" stroke="#63b8ff" points="401.34,-46.55 390.9,-48.35 400.18,-53.45 401.34,-46.55"/>
</a>
</g>
</g>
<!-- Node5 -->
<g id="Node000005" class="node">
<title>Node5</title>
<g id="a_Node000005"><a xlink:href="class_p4_1_1_p4_tools_1_1_compile_context.html" target="_top" xlink:title="A compilation context for P4Tools that provides a custom compiler configuration.">
<polygon fill="white" stroke="#666666" points="569.5,-32 425.25,-32 425.25,0 569.5,0 569.5,-32"/>
<text text-anchor="start" x="433.25" y="-18.5" font-family="Helvetica,sans-Serif" font-size="10.00">P4::P4Tools::CompileContext</text>
<text text-anchor="middle" x="497.38" y="-6.5" font-family="Helvetica,sans-Serif" font-size="10.00">&lt; OptionsType &gt;</text>
</a>
</g>
</g>
<!-- Node1&#45;&gt;Node5 -->
<g id="edge4_Node000001_Node000005" class="edge">
<title>Node1&#45;&gt;Node5</title>
<g id="a_edge4_Node000001_Node000005"><a xlink:title=" ">
<path fill="none" stroke="#63b8ff" d="M400.6,-32.03C408.44,-30.72 416.62,-29.35 424.75,-27.99"/>
<polygon fill="#63b8ff" stroke="#63b8ff" points="400.18,-28.55 390.9,-33.65 401.34,-35.45 400.18,-28.55"/>
</a>
</g>
</g>
<!-- Node2 -->
<g id="Node000002" class="node">
<title>Node2</title>
<g id="a_Node000002"><a xlink:href="class_p4_1_1_base_compile_context.html" target="_top" xlink:title=" ">
<polygon fill="white" stroke="#666666" points="266.75,-51 141.25,-51 141.25,-31 266.75,-31 266.75,-51"/>
<text text-anchor="middle" x="204" y="-37.5" font-family="Helvetica,sans-Serif" font-size="10.00">P4::BaseCompileContext</text>
</a>
</g>
</g>
<!-- Node2&#45;&gt;Node1 -->
<g id="edge1_Node000001_Node000002" class="edge">
<title>Node2&#45;&gt;Node1</title>
<g id="a_edge1_Node000001_Node000002"><a xlink:title=" ">
<path fill="none" stroke="#63b8ff" d="M278.5,-41C286.77,-41 294.97,-41 302.65,-41"/>
<polygon fill="#63b8ff" stroke="#63b8ff" points="278.73,-37.5 268.73,-41 278.73,-44.5 278.73,-37.5"/>
</a>
</g>
</g>
<!-- Node3 -->
<g id="Node000003" class="node">
<title>Node3</title>
<g id="a_Node000003"><a xlink:href="class_p4_1_1_i_compile_context.html" target="_top" xlink:title=" ">
<polygon fill="white" stroke="#666666" points="105.25,-51 0,-51 0,-31 105.25,-31 105.25,-51"/>
<text text-anchor="middle" x="52.62" y="-37.5" font-family="Helvetica,sans-Serif" font-size="10.00">P4::ICompileContext</text>
</a>
</g>
</g>
<!-- Node3&#45;&gt;Node2 -->
<g id="edge2_Node000002_Node000003" class="edge">
<title>Node3&#45;&gt;Node2</title>
<g id="a_edge2_Node000002_Node000003"><a xlink:title=" ">
<path fill="none" stroke="#63b8ff" d="M116.94,-41C124.9,-41 133.04,-41 140.98,-41"/>
<polygon fill="#63b8ff" stroke="#63b8ff" points="116.96,-37.5 106.96,-41 116.96,-44.5 116.96,-37.5"/>
</a>
</g>
</g>
</g>
</svg>
