<?xml version="1.0" encoding="UTF-8" standalone="no"?>
<!DOCTYPE svg PUBLIC "-//W3C//DTD SVG 1.1//EN"
 "http://www.w3.org/Graphics/SVG/1.1/DTD/svg11.dtd">
<!-- Generated by graphviz version 11.0.0 (20240428.1522)
 -->
<!-- Title: P4::P4Tools::TraceEvents::Generic Pages: 1 -->
<svg width="284pt" height="276pt"
 viewBox="0.00 0.00 283.50 276.00" xmlns="http://www.w3.org/2000/svg" xmlns:xlink="http://www.w3.org/1999/xlink">
<g id="graph0" class="graph" transform="scale(1 1) rotate(0) translate(4 272)">
<title>P4::P4Tools::TraceEvents::Generic</title>
<!-- Node1 -->
<g id="Node000001" class="node">
<title>Node1</title>
<g id="a_Node000001"><a xlink:title="A generic event that only takes in a string as label.">
<polygon fill="#999999" stroke="#666666" points="201.5,-100 73,-100 73,-68 201.5,-68 201.5,-100"/>
<text text-anchor="start" x="81" y="-86.5" font-family="Helvetica,sans-Serif" font-size="10.00">P4::P4Tools::TraceEvents</text>
<text text-anchor="middle" x="137.25" y="-74.5" font-family="Helvetica,sans-Serif" font-size="10.00">::Generic</text>
</a>
</g>
</g>
<!-- Node5 -->
<g id="Node000005" class="node">
<title>Node5</title>
<g id="a_Node000005"><a xlink:href="class_p4_1_1_p4_tools_1_1_trace_events_1_1_expression.html" target="_top" xlink:title="A simple event that stores the provided expression.">
<polygon fill="white" stroke="#666666" points="128.5,-32 0,-32 0,0 128.5,0 128.5,-32"/>
<text text-anchor="start" x="8" y="-18.5" font-family="Helvetica,sans-Serif" font-size="10.00">P4::P4Tools::TraceEvents</text>
<text text-anchor="middle" x="64.25" y="-6.5" font-family="Helvetica,sans-Serif" font-size="10.00">::Expression</text>
</a>
</g>
</g>
<!-- Node1&#45;&gt;Node5 -->
<g id="edge4_Node000001_Node000005" class="edge">
<title>Node1&#45;&gt;Node5</title>
<g id="a_edge4_Node000001_Node000005"><a xlink:title=" ">
<path fill="none" stroke="#63b8ff" d="M111.86,-60.05C101.77,-50.92 90.43,-40.67 81.34,-32.45"/>
<polygon fill="#63b8ff" stroke="#63b8ff" points="109.43,-62.57 119.2,-66.68 114.13,-57.37 109.43,-62.57"/>
</a>
</g>
</g>
<!-- Node6 -->
<g id="Node000006" class="node">
<title>Node6</title>
<g id="a_Node000006"><a xlink:href="class_p4_1_1_p4_tools_1_1_trace_events_1_1_generic_description.html" target="_top" xlink:title=" ">
<polygon fill="white" stroke="#666666" points="275.5,-32 147,-32 147,0 275.5,0 275.5,-32"/>
<text text-anchor="start" x="155" y="-18.5" font-family="Helvetica,sans-Serif" font-size="10.00">P4::P4Tools::TraceEvents</text>
<text text-anchor="middle" x="211.25" y="-6.5" font-family="Helvetica,sans-Serif" font-size="10.00">::GenericDescription</text>
</a>
</g>
</g>
<!-- Node1&#45;&gt;Node6 -->
<g id="edge5_Node000001_Node000006" class="edge">
<title>Node1&#45;&gt;Node6</title>
<g id="a_edge5_Node000001_Node000006"><a xlink:title=" ">
<path fill="none" stroke="#63b8ff" d="M162.99,-60.05C173.22,-50.92 184.72,-40.67 193.92,-32.45"/>
<polygon fill="#63b8ff" stroke="#63b8ff" points="160.68,-57.42 155.54,-66.68 165.34,-62.64 160.68,-57.42"/>
</a>
</g>
</g>
<!-- Node2 -->
<g id="Node000002" class="node">
<title>Node2</title>
<g id="a_Node000002"><a xlink:href="class_p4_1_1_p4_tools_1_1_trace_event.html" target="_top" xlink:title="An event in a trace of the execution of a P4 program.">
<polygon fill="white" stroke="#666666" points="198.88,-156 75.62,-156 75.62,-136 198.88,-136 198.88,-156"/>
<text text-anchor="middle" x="137.25" y="-142.5" font-family="Helvetica,sans-Serif" font-size="10.00">P4::P4Tools::TraceEvent</text>
</a>
</g>
</g>
<!-- Node2&#45;&gt;Node1 -->
<g id="edge1_Node000001_Node000002" class="edge">
<title>Node2&#45;&gt;Node1</title>
<g id="a_edge1_Node000001_Node000002"><a xlink:title=" ">
<path fill="none" stroke="#63b8ff" d="M137.25,-124.31C137.25,-116.37 137.25,-107.46 137.25,-100.14"/>
<polygon fill="#63b8ff" stroke="#63b8ff" points="133.75,-124.11 137.25,-134.11 140.75,-124.11 133.75,-124.11"/>
</a>
</g>
</g>
<!-- Node3 -->
<g id="Node000003" class="node">
<title>Node3</title>
<g id="a_Node000003"><a xlink:href="class_p4_1_1_i_castable.html" target="_top" xlink:title=" ">
<polygon fill="white" stroke="#666666" points="174.5,-212 100,-212 100,-192 174.5,-192 174.5,-212"/>
<text text-anchor="middle" x="137.25" y="-198.5" font-family="Helvetica,sans-Serif" font-size="10.00">P4::ICastable</text>
</a>
</g>
</g>
<!-- Node3&#45;&gt;Node2 -->
<g id="edge2_Node000002_Node000003" class="edge">
<title>Node3&#45;&gt;Node2</title>
<g id="a_edge2_Node000002_Node000003"><a xlink:title=" ">
<path fill="none" stroke="#63b8ff" d="M137.25,-180.13C137.25,-171.9 137.25,-162.85 137.25,-156.3"/>
<polygon fill="#63b8ff" stroke="#63b8ff" points="133.75,-180.08 137.25,-190.08 140.75,-180.08 133.75,-180.08"/>
</a>
</g>
</g>
<!-- Node4 -->
<g id="Node000004" class="node">
<title>Node4</title>
<g id="a_Node000004"><a xlink:href="struct_p4_1_1_r_t_t_i_1_1_base.html" target="_top" xlink:title=" ">
<polygon fill="white" stroke="#bfbfbf" points="178.25,-268 96.25,-268 96.25,-248 178.25,-248 178.25,-268"/>
<text text-anchor="middle" x="137.25" y="-254.5" font-family="Helvetica,sans-Serif" font-size="10.00">P4::RTTI::Base</text>
</a>
</g>
</g>
<!-- Node4&#45;&gt;Node3 -->
<g id="edge3_Node000003_Node000004" class="edge">
<title>Node4&#45;&gt;Node3</title>
<g id="a_edge3_Node000003_Node000004"><a xlink:title=" ">
<path fill="none" stroke="#63b8ff" d="M137.25,-236.13C137.25,-227.9 137.25,-218.85 137.25,-212.3"/>
<polygon fill="#63b8ff" stroke="#63b8ff" points="133.75,-236.08 137.25,-246.08 140.75,-236.08 133.75,-236.08"/>
</a>
</g>
</g>
</g>
</svg>
