<?xml version="1.0" encoding="UTF-8" standalone="no"?>
<!DOCTYPE svg PUBLIC "-//W3C//DTD SVG 1.1//EN"
 "http://www.w3.org/Graphics/SVG/1.1/DTD/svg11.dtd">
<!-- Generated by graphviz version 11.0.0 (20240428.1522)
 -->
<!-- Title: P4::JsonVector Pages: 1 -->
<svg width="188pt" height="196pt"
 viewBox="0.00 0.00 188.12 196.00" xmlns="http://www.w3.org/2000/svg" xmlns:xlink="http://www.w3.org/1999/xlink">

<svg id="main" version="1.1" xmlns="http://www.w3.org/2000/svg" xmlns:xlink="http://www.w3.org/1999/xlink" xml:space="preserve">

<style type="text/css"><![CDATA[
.node, .edge {opacity: 0.7;}
.node.selected, .edge.selected {opacity: 1;}
.edge:hover path { stroke: red; }
.edge:hover polygon { stroke: red; fill: red; }
]]></style>
<script type="application/ecmascript" xlink:href="svg.min.js"/>
<svg id="graph" class="graph">
<g id="graph0" class="graph" transform="scale(1 1) rotate(0) translate(4 192)">
<title>P4::JsonVector</title>
<!-- Node1 -->
<g id="Node000001" class="node">
<title>Node1</title>
<g id="a_Node000001"><a xlink:title=" ">
<polygon fill="#999999" stroke="#666666" points="130.38,-20 47.62,-20 47.62,0 130.38,0 130.38,-20"/>
<text text-anchor="middle" x="89" y="-6.5" font-family="Helvetica,sans-Serif" font-size="10.00">P4::JsonVector</text>
</a>
</g>
</g>
<!-- Node2 -->
<g id="Node000002" class="node">
<title>Node2</title>
<g id="a_Node000002"><a xlink:href="class_p4_1_1_json_data.html" target="_top" xlink:title=" ">
<polygon fill="white" stroke="#bfbfbf" points="78.25,-76 3.75,-76 3.75,-56 78.25,-56 78.25,-76"/>
<text text-anchor="middle" x="41" y="-62.5" font-family="Helvetica,sans-Serif" font-size="10.00">P4::JsonData</text>
</a>
</g>
</g>
<!-- Node2&#45;&gt;Node1 -->
<g id="edge1_Node000001_Node000002" class="edge">
<title>Node2&#45;&gt;Node1</title>
<g id="a_edge1_Node000001_Node000002"><a xlink:title=" ">
<path fill="none" stroke="#63b8ff" d="M57,-47C64.95,-38.06 74.22,-27.62 80.73,-20.3"/>
<polygon fill="#63b8ff" stroke="#63b8ff" points="54.39,-44.66 50.37,-54.46 59.63,-49.31 54.39,-44.66"/>
</a>
</g>
</g>
<!-- Node3 -->
<g id="Node000003" class="node">
<title>Node3</title>
<g id="a_Node000003"><a xlink:href="class_p4_1_1_i_castable.html" target="_top" xlink:title=" ">
<polygon fill="white" stroke="#666666" points="78.25,-132 3.75,-132 3.75,-112 78.25,-112 78.25,-132"/>
<text text-anchor="middle" x="41" y="-118.5" font-family="Helvetica,sans-Serif" font-size="10.00">P4::ICastable</text>
</a>
</g>
</g>
<!-- Node3&#45;&gt;Node2 -->
<g id="edge2_Node000002_Node000003" class="edge">
<title>Node3&#45;&gt;Node2</title>
<g id="a_edge2_Node000002_Node000003"><a xlink:title=" ">
<path fill="none" stroke="#63b8ff" d="M41,-100.13C41,-91.9 41,-82.85 41,-76.3"/>
<polygon fill="#63b8ff" stroke="#63b8ff" points="37.5,-100.08 41,-110.08 44.5,-100.08 37.5,-100.08"/>
</a>
</g>
</g>
<!-- Node4 -->
<g id="Node000004" class="node">
<title>Node4</title>
<g id="a_Node000004"><a xlink:href="struct_p4_1_1_r_t_t_i_1_1_base.html" target="_top" xlink:title=" ">
<polygon fill="white" stroke="#bfbfbf" points="82,-188 0,-188 0,-168 82,-168 82,-188"/>
<text text-anchor="middle" x="41" y="-174.5" font-family="Helvetica,sans-Serif" font-size="10.00">P4::RTTI::Base</text>
</a>
</g>
</g>
<!-- Node4&#45;&gt;Node3 -->
<g id="edge3_Node000003_Node000004" class="edge">
<title>Node4&#45;&gt;Node3</title>
<g id="a_edge3_Node000003_Node000004"><a xlink:title=" ">
<path fill="none" stroke="#63b8ff" d="M41,-156.13C41,-147.9 41,-138.85 41,-132.3"/>
<polygon fill="#63b8ff" stroke="#63b8ff" points="37.5,-156.08 41,-166.08 44.5,-156.08 37.5,-156.08"/>
</a>
</g>
</g>
<!-- Node5 -->
<g id="Node000005" class="node">
<title>Node5</title>
<g id="a_Node000005"><a xlink:title=" ">
<polygon fill="white" stroke="#666666" points="180.12,-76 95.88,-76 95.88,-56 180.12,-56 180.12,-76"/>
<text text-anchor="middle" x="138" y="-62.5" font-family="Helvetica,sans-Serif" font-size="10.00">std::vector&lt; T &gt;</text>
</a>
</g>
</g>
<!-- Node5&#45;&gt;Node1 -->
<g id="edge4_Node000001_Node000005" class="edge">
<title>Node5&#45;&gt;Node1</title>
<g id="a_edge4_Node000001_Node000005"><a xlink:title=" ">
<path fill="none" stroke="#63b8ff" d="M121.93,-47.29C113.75,-38.28 104.15,-27.7 97.44,-20.3"/>
<polygon fill="#63b8ff" stroke="#63b8ff" points="119.14,-49.42 128.45,-54.47 124.32,-44.72 119.14,-49.42"/>
</a>
</g>
</g>
</g>
</svg>
</svg>

<style type='text/css'>
<![CDATA[
[data-mouse-over-selected='false'] { opacity: 0.7; }
[data-mouse-over-selected='true']  { opacity: 1.0; }
]]>
</style>
<script type="application/ecmascript"><![CDATA[
document.addEventListener('DOMContentLoaded', (event) => {
  highlightEdges();
  highlightAdjacentNodes();
});
]]></script>
</svg>
