<?xml version="1.0" encoding="UTF-8" standalone="no"?>
<!DOCTYPE svg PUBLIC "-//W3C//DTD SVG 1.1//EN"
 "http://www.w3.org/Graphics/SVG/1.1/DTD/svg11.dtd">
<!-- Generated by graphviz version 11.0.0 (20240428.1522)
 -->
<!-- Title: P4::EBPF::EBPFType Pages: 1 -->
<svg width="862pt" height="294pt"
 viewBox="0.00 0.00 862.25 294.00" xmlns="http://www.w3.org/2000/svg" xmlns:xlink="http://www.w3.org/1999/xlink">
<g id="graph0" class="graph" transform="scale(1 1) rotate(0) translate(4 290)">
<title>P4::EBPF::EBPFType</title>
<!-- Node1 -->
<g id="Node000001" class="node">
<title>Node1</title>
<g id="a_Node000001"><a xlink:title="Base class for EBPF types.">
<polygon fill="#999999" stroke="#666666" points="499,-153 385.5,-153 385.5,-133 499,-133 499,-153"/>
<text text-anchor="middle" x="442.25" y="-139.5" font-family="Helvetica,sans-Serif" font-size="10.00">P4::EBPF::EBPFType</text>
</a>
</g>
</g>
<!-- Node5 -->
<g id="Node000005" class="node">
<title>Node5</title>
<g id="a_Node000005"><a xlink:href="class_p4_1_1_e_b_p_f_1_1_e_b_p_f_bool_type.html" target="_top" xlink:title=" ">
<polygon fill="white" stroke="#bfbfbf" points="672.12,-286 539.12,-286 539.12,-266 672.12,-266 672.12,-286"/>
<text text-anchor="middle" x="605.62" y="-272.5" font-family="Helvetica,sans-Serif" font-size="10.00">P4::EBPF::EBPFBoolType</text>
</a>
</g>
</g>
<!-- Node1&#45;&gt;Node5 -->
<g id="edge4_Node000001_Node000005" class="edge">
<title>Node1&#45;&gt;Node5</title>
<g id="a_edge4_Node000001_Node000005"><a xlink:title=" ">
<path fill="none" stroke="#63b8ff" d="M454.05,-163.09C468.88,-188.76 497.99,-232.77 535,-257 540.24,-260.43 546.09,-263.25 552.11,-265.56"/>
<polygon fill="#63b8ff" stroke="#63b8ff" points="457.26,-161.66 449.32,-154.64 451.15,-165.08 457.26,-161.66"/>
</a>
</g>
</g>
<!-- Node7 -->
<g id="Node000007" class="node">
<title>Node7</title>
<g id="a_Node000007"><a xlink:href="class_p4_1_1_e_b_p_f_1_1_e_b_p_f_enum_type.html" target="_top" xlink:title=" ">
<polygon fill="white" stroke="#bfbfbf" points="675.12,-248 536.12,-248 536.12,-228 675.12,-228 675.12,-248"/>
<text text-anchor="middle" x="605.62" y="-234.5" font-family="Helvetica,sans-Serif" font-size="10.00">P4::EBPF::EBPFEnumType</text>
</a>
</g>
</g>
<!-- Node1&#45;&gt;Node7 -->
<g id="edge6_Node000001_Node000007" class="edge">
<title>Node1&#45;&gt;Node7</title>
<g id="a_edge6_Node000001_Node000007"><a xlink:title=" ">
<path fill="none" stroke="#63b8ff" d="M460.98,-161.69C478.31,-178.94 506.24,-204.06 535,-219 541.56,-222.41 548.79,-225.25 556.04,-227.62"/>
<polygon fill="#63b8ff" stroke="#63b8ff" points="463.49,-159.26 453.99,-154.57 458.49,-164.16 463.49,-159.26"/>
</a>
</g>
</g>
<!-- Node9 -->
<g id="Node000009" class="node">
<title>Node9</title>
<g id="a_Node000009"><a xlink:href="class_p4_1_1_e_b_p_f_1_1_e_b_p_f_error_type.html" target="_top" xlink:title=" ">
<polygon fill="white" stroke="#bfbfbf" points="672.88,-210 538.38,-210 538.38,-190 672.88,-190 672.88,-210"/>
<text text-anchor="middle" x="605.62" y="-196.5" font-family="Helvetica,sans-Serif" font-size="10.00">P4::EBPF::EBPFErrorType</text>
</a>
</g>
</g>
<!-- Node1&#45;&gt;Node9 -->
<g id="edge8_Node000001_Node000009" class="edge">
<title>Node1&#45;&gt;Node9</title>
<g id="a_edge8_Node000001_Node000009"><a xlink:title=" ">
<path fill="none" stroke="#63b8ff" d="M476.1,-157.79C493.42,-165.28 515.14,-174.21 535,-181 544.01,-184.08 553.81,-187.01 563.13,-189.6"/>
<polygon fill="#63b8ff" stroke="#63b8ff" points="477.89,-154.75 467.33,-153.95 475.09,-161.16 477.89,-154.75"/>
</a>
</g>
</g>
<!-- Node11 -->
<g id="Node000011" class="node">
<title>Node11</title>
<g id="a_Node000011"><a xlink:href="class_p4_1_1_e_b_p_f_1_1_e_b_p_f_scalar_type.html" target="_top" xlink:title=" ">
<polygon fill="white" stroke="#bfbfbf" points="676.25,-172 535,-172 535,-152 676.25,-152 676.25,-172"/>
<text text-anchor="middle" x="605.62" y="-158.5" font-family="Helvetica,sans-Serif" font-size="10.00">P4::EBPF::EBPFScalarType</text>
</a>
</g>
</g>
<!-- Node1&#45;&gt;Node11 -->
<g id="edge10_Node000001_Node000011" class="edge">
<title>Node1&#45;&gt;Node11</title>
<g id="a_edge10_Node000001_Node000011"><a xlink:title=" ">
<path fill="none" stroke="#63b8ff" d="M510.64,-150.93C518.53,-151.86 526.59,-152.81 534.52,-153.75"/>
<polygon fill="#63b8ff" stroke="#63b8ff" points="511.08,-147.46 500.74,-149.77 510.26,-154.41 511.08,-147.46"/>
</a>
</g>
</g>
<!-- Node14 -->
<g id="Node000014" class="node">
<title>Node14</title>
<g id="a_Node000014"><a xlink:href="class_p4_1_1_e_b_p_f_1_1_e_b_p_f_stack_type.html" target="_top" xlink:title=" ">
<polygon fill="white" stroke="#bfbfbf" points="675.12,-134 536.12,-134 536.12,-114 675.12,-114 675.12,-134"/>
<text text-anchor="middle" x="605.62" y="-120.5" font-family="Helvetica,sans-Serif" font-size="10.00">P4::EBPF::EBPFStackType</text>
</a>
</g>
</g>
<!-- Node1&#45;&gt;Node14 -->
<g id="edge13_Node000001_Node000014" class="edge">
<title>Node1&#45;&gt;Node14</title>
<g id="a_edge13_Node000001_Node000014"><a xlink:title=" ">
<path fill="none" stroke="#63b8ff" d="M510.44,-135.09C518.77,-134.11 527.3,-133.1 535.65,-132.12"/>
<polygon fill="#63b8ff" stroke="#63b8ff" points="510.26,-131.59 500.74,-136.23 511.08,-138.54 510.26,-131.59"/>
</a>
</g>
</g>
<!-- Node15 -->
<g id="Node000015" class="node">
<title>Node15</title>
<g id="a_Node000015"><a xlink:href="class_p4_1_1_e_b_p_f_1_1_e_b_p_f_struct_type.html" target="_top" xlink:title="Also represents headers and unions.">
<polygon fill="white" stroke="#666666" points="675.5,-96 535.75,-96 535.75,-76 675.5,-76 675.5,-96"/>
<text text-anchor="middle" x="605.62" y="-82.5" font-family="Helvetica,sans-Serif" font-size="10.00">P4::EBPF::EBPFStructType</text>
</a>
</g>
</g>
<!-- Node1&#45;&gt;Node15 -->
<g id="edge14_Node000001_Node000015" class="edge">
<title>Node1&#45;&gt;Node15</title>
<g id="a_edge14_Node000001_Node000015"><a xlink:title=" ">
<path fill="none" stroke="#63b8ff" d="M476.1,-128.21C493.42,-120.72 515.14,-111.79 535,-105 544.01,-101.92 553.81,-98.99 563.13,-96.4"/>
<polygon fill="#63b8ff" stroke="#63b8ff" points="475.09,-124.84 467.33,-132.05 477.89,-131.25 475.09,-124.84"/>
</a>
</g>
</g>
<!-- Node17 -->
<g id="Node000017" class="node">
<title>Node17</title>
<g id="a_Node000017"><a xlink:href="class_p4_1_1_e_b_p_f_1_1_e_b_p_f_type_name.html" target="_top" xlink:title="This should not always implement IHasWidth, but it may...">
<polygon fill="white" stroke="#666666" points="675.12,-58 536.12,-58 536.12,-38 675.12,-38 675.12,-58"/>
<text text-anchor="middle" x="605.62" y="-44.5" font-family="Helvetica,sans-Serif" font-size="10.00">P4::EBPF::EBPFTypeName</text>
</a>
</g>
</g>
<!-- Node1&#45;&gt;Node17 -->
<g id="edge16_Node000001_Node000017" class="edge">
<title>Node1&#45;&gt;Node17</title>
<g id="a_edge16_Node000001_Node000017"><a xlink:title=" ">
<path fill="none" stroke="#63b8ff" d="M460.98,-124.31C478.31,-107.06 506.24,-81.94 535,-67 541.56,-63.59 548.79,-60.75 556.04,-58.38"/>
<polygon fill="#63b8ff" stroke="#63b8ff" points="458.49,-121.84 453.99,-131.43 463.49,-126.74 458.49,-121.84"/>
</a>
</g>
</g>
<!-- Node18 -->
<g id="Node000018" class="node">
<title>Node18</title>
<g id="a_Node000018"><a xlink:href="class_p4_1_1_u_b_p_f_1_1_u_b_p_f_list_type.html" target="_top" xlink:title=" ">
<polygon fill="white" stroke="#bfbfbf" points="670.25,-20 541,-20 541,0 670.25,0 670.25,-20"/>
<text text-anchor="middle" x="605.62" y="-6.5" font-family="Helvetica,sans-Serif" font-size="10.00">P4::UBPF::UBPFListType</text>
</a>
</g>
</g>
<!-- Node1&#45;&gt;Node18 -->
<g id="edge17_Node000001_Node000018" class="edge">
<title>Node1&#45;&gt;Node18</title>
<g id="a_edge17_Node000001_Node000018"><a xlink:title=" ">
<path fill="none" stroke="#63b8ff" d="M454.05,-122.91C468.88,-97.24 497.99,-53.23 535,-29 540.24,-25.57 546.09,-22.75 552.11,-20.44"/>
<polygon fill="#63b8ff" stroke="#63b8ff" points="451.15,-120.92 449.32,-131.36 457.26,-124.34 451.15,-120.92"/>
</a>
</g>
</g>
<!-- Node2 -->
<g id="Node000002" class="node">
<title>Node2</title>
<g id="a_Node000002"><a xlink:href="class_p4_1_1_e_b_p_f_1_1_e_b_p_f_object.html" target="_top" xlink:title="Base class for EBPF objects.">
<polygon fill="white" stroke="#666666" points="349.5,-153 228.5,-153 228.5,-133 349.5,-133 349.5,-153"/>
<text text-anchor="middle" x="289" y="-139.5" font-family="Helvetica,sans-Serif" font-size="10.00">P4::EBPF::EBPFObject</text>
</a>
</g>
</g>
<!-- Node2&#45;&gt;Node1 -->
<g id="edge1_Node000001_Node000002" class="edge">
<title>Node2&#45;&gt;Node1</title>
<g id="a_edge1_Node000001_Node000002"><a xlink:title=" ">
<path fill="none" stroke="#63b8ff" d="M361.17,-143C369.29,-143 377.47,-143 385.35,-143"/>
<polygon fill="#63b8ff" stroke="#63b8ff" points="361.29,-139.5 351.29,-143 361.29,-146.5 361.29,-139.5"/>
</a>
</g>
</g>
<!-- Node3 -->
<g id="Node000003" class="node">
<title>Node3</title>
<g id="a_Node000003"><a xlink:href="class_p4_1_1_i_castable.html" target="_top" xlink:title=" ">
<polygon fill="white" stroke="#666666" points="192.5,-153 118,-153 118,-133 192.5,-133 192.5,-153"/>
<text text-anchor="middle" x="155.25" y="-139.5" font-family="Helvetica,sans-Serif" font-size="10.00">P4::ICastable</text>
</a>
</g>
</g>
<!-- Node3&#45;&gt;Node2 -->
<g id="edge2_Node000002_Node000003" class="edge">
<title>Node3&#45;&gt;Node2</title>
<g id="a_edge2_Node000002_Node000003"><a xlink:title=" ">
<path fill="none" stroke="#63b8ff" d="M204.31,-143C212.02,-143 220.08,-143 228.02,-143"/>
<polygon fill="#63b8ff" stroke="#63b8ff" points="204.46,-139.5 194.46,-143 204.46,-146.5 204.46,-139.5"/>
</a>
</g>
</g>
<!-- Node4 -->
<g id="Node000004" class="node">
<title>Node4</title>
<g id="a_Node000004"><a xlink:href="struct_p4_1_1_r_t_t_i_1_1_base.html" target="_top" xlink:title=" ">
<polygon fill="white" stroke="#bfbfbf" points="82,-153 0,-153 0,-133 82,-133 82,-153"/>
<text text-anchor="middle" x="41" y="-139.5" font-family="Helvetica,sans-Serif" font-size="10.00">P4::RTTI::Base</text>
</a>
</g>
</g>
<!-- Node4&#45;&gt;Node3 -->
<g id="edge3_Node000003_Node000004" class="edge">
<title>Node4&#45;&gt;Node3</title>
<g id="a_edge3_Node000003_Node000004"><a xlink:title=" ">
<path fill="none" stroke="#63b8ff" d="M93.56,-143C101.7,-143 109.98,-143 117.68,-143"/>
<polygon fill="#63b8ff" stroke="#63b8ff" points="93.72,-139.5 83.72,-143 93.72,-146.5 93.72,-139.5"/>
</a>
</g>
</g>
<!-- Node6 -->
<g id="Node000006" class="node">
<title>Node6</title>
<g id="a_Node000006"><a xlink:href="class_p4_1_1_u_b_p_f_1_1_u_b_p_f_bool_type.html" target="_top" xlink:title=" ">
<polygon fill="white" stroke="#bfbfbf" points="849.75,-286 716.75,-286 716.75,-266 849.75,-266 849.75,-286"/>
<text text-anchor="middle" x="783.25" y="-272.5" font-family="Helvetica,sans-Serif" font-size="10.00">P4::UBPF::UBPFBoolType</text>
</a>
</g>
</g>
<!-- Node5&#45;&gt;Node6 -->
<g id="edge5_Node000005_Node000006" class="edge">
<title>Node5&#45;&gt;Node6</title>
<g id="a_edge5_Node000005_Node000006"><a xlink:title=" ">
<path fill="none" stroke="#63b8ff" d="M683.72,-276C694.58,-276 705.66,-276 716.28,-276"/>
<polygon fill="#63b8ff" stroke="#63b8ff" points="684.03,-272.5 674.03,-276 684.03,-279.5 684.03,-272.5"/>
</a>
</g>
</g>
<!-- Node8 -->
<g id="Node000008" class="node">
<title>Node8</title>
<g id="a_Node000008"><a xlink:href="class_p4_1_1_u_b_p_f_1_1_u_b_p_f_enum_type.html" target="_top" xlink:title=" ">
<polygon fill="white" stroke="#bfbfbf" points="852.75,-248 713.75,-248 713.75,-228 852.75,-228 852.75,-248"/>
<text text-anchor="middle" x="783.25" y="-234.5" font-family="Helvetica,sans-Serif" font-size="10.00">P4::UBPF::UBPFEnumType</text>
</a>
</g>
</g>
<!-- Node7&#45;&gt;Node8 -->
<g id="edge7_Node000007_Node000008" class="edge">
<title>Node7&#45;&gt;Node8</title>
<g id="a_edge7_Node000007_Node000008"><a xlink:title=" ">
<path fill="none" stroke="#63b8ff" d="M686.98,-238C695.76,-238 704.63,-238 713.25,-238"/>
<polygon fill="#63b8ff" stroke="#63b8ff" points="687.05,-234.5 677.05,-238 687.05,-241.5 687.05,-234.5"/>
</a>
</g>
</g>
<!-- Node10 -->
<g id="Node000010" class="node">
<title>Node10</title>
<g id="a_Node000010"><a xlink:href="class_p4_1_1_u_b_p_f_1_1_u_b_p_f_error_type.html" target="_top" xlink:title=" ">
<polygon fill="white" stroke="#bfbfbf" points="850.5,-210 716,-210 716,-190 850.5,-190 850.5,-210"/>
<text text-anchor="middle" x="783.25" y="-196.5" font-family="Helvetica,sans-Serif" font-size="10.00">P4::UBPF::UBPFErrorType</text>
</a>
</g>
</g>
<!-- Node9&#45;&gt;Node10 -->
<g id="edge9_Node000009_Node000010" class="edge">
<title>Node9&#45;&gt;Node10</title>
<g id="a_edge9_Node000009_Node000010"><a xlink:title=" ">
<path fill="none" stroke="#63b8ff" d="M684.46,-200C694.87,-200 705.46,-200 715.65,-200"/>
<polygon fill="#63b8ff" stroke="#63b8ff" points="684.79,-196.5 674.79,-200 684.79,-203.5 684.79,-196.5"/>
</a>
</g>
</g>
<!-- Node12 -->
<g id="Node000012" class="node">
<title>Node12</title>
<g id="a_Node000012"><a xlink:href="class_p4_1_1_u_b_p_f_1_1_u_b_p_f_extern_type.html" target="_top" xlink:title=" ">
<polygon fill="white" stroke="#bfbfbf" points="854.25,-172 712.25,-172 712.25,-152 854.25,-152 854.25,-172"/>
<text text-anchor="middle" x="783.25" y="-158.5" font-family="Helvetica,sans-Serif" font-size="10.00">P4::UBPF::UBPFExternType</text>
</a>
</g>
</g>
<!-- Node11&#45;&gt;Node12 -->
<g id="edge11_Node000011_Node000012" class="edge">
<title>Node11&#45;&gt;Node12</title>
<g id="a_edge11_Node000011_Node000012"><a xlink:title=" ">
<path fill="none" stroke="#63b8ff" d="M687.86,-162C695.93,-162 704.06,-162 712,-162"/>
<polygon fill="#63b8ff" stroke="#63b8ff" points="688.05,-158.5 678.05,-162 688.05,-165.5 688.05,-158.5"/>
</a>
</g>
</g>
<!-- Node13 -->
<g id="Node000013" class="node">
<title>Node13</title>
<g id="a_Node000013"><a xlink:href="class_p4_1_1_u_b_p_f_1_1_u_b_p_f_scalar_type.html" target="_top" xlink:title=" ">
<polygon fill="white" stroke="#bfbfbf" points="853.88,-134 712.62,-134 712.62,-114 853.88,-114 853.88,-134"/>
<text text-anchor="middle" x="783.25" y="-120.5" font-family="Helvetica,sans-Serif" font-size="10.00">P4::UBPF::UBPFScalarType</text>
</a>
</g>
</g>
<!-- Node11&#45;&gt;Node13 -->
<g id="edge12_Node000011_Node000013" class="edge">
<title>Node11&#45;&gt;Node13</title>
<g id="a_edge12_Node000011_Node000013"><a xlink:title=" ">
<path fill="none" stroke="#63b8ff" d="M666.33,-149.08C688.37,-144.31 713.05,-138.97 733.95,-134.45"/>
<polygon fill="#63b8ff" stroke="#63b8ff" points="665.59,-145.66 656.56,-151.2 667.07,-152.5 665.59,-145.66"/>
</a>
</g>
</g>
<!-- Node16 -->
<g id="Node000016" class="node">
<title>Node16</title>
<g id="a_Node000016"><a xlink:href="class_p4_1_1_u_b_p_f_1_1_u_b_p_f_struct_type.html" target="_top" xlink:title=" ">
<polygon fill="white" stroke="#bfbfbf" points="853.12,-96 713.38,-96 713.38,-76 853.12,-76 853.12,-96"/>
<text text-anchor="middle" x="783.25" y="-82.5" font-family="Helvetica,sans-Serif" font-size="10.00">P4::UBPF::UBPFStructType</text>
</a>
</g>
</g>
<!-- Node15&#45;&gt;Node16 -->
<g id="edge15_Node000015_Node000016" class="edge">
<title>Node15&#45;&gt;Node16</title>
<g id="a_edge15_Node000015_Node000016"><a xlink:title=" ">
<path fill="none" stroke="#63b8ff" d="M687.13,-86C695.82,-86 704.61,-86 713.15,-86"/>
<polygon fill="#63b8ff" stroke="#63b8ff" points="687.3,-82.5 677.3,-86 687.3,-89.5 687.3,-82.5"/>
</a>
</g>
</g>
</g>
</svg>
