<?xml version="1.0" encoding="UTF-8" standalone="no"?>
<!DOCTYPE svg PUBLIC "-//W3C//DTD SVG 1.1//EN"
 "http://www.w3.org/Graphics/SVG/1.1/DTD/svg11.dtd">
<!-- Generated by graphviz version 11.0.0 (20240428.1522)
 -->
<!-- Title: P4::BMV2::PnaNicExpressionConverter Pages: 1 -->
<svg width="164pt" height="208pt"
 viewBox="0.00 0.00 164.25 208.00" xmlns="http://www.w3.org/2000/svg" xmlns:xlink="http://www.w3.org/1999/xlink">
<g id="graph0" class="graph" transform="scale(1 1) rotate(0) translate(4 204)">
<title>P4::BMV2::PnaNicExpressionConverter</title>
<!-- Node1 -->
<g id="Node000001" class="node">
<title>Node1</title>
<g id="a_Node000001"><a xlink:title=" ">
<polygon fill="#999999" stroke="#666666" points="151.75,-32 4.5,-32 4.5,0 151.75,0 151.75,-32"/>
<text text-anchor="start" x="12.5" y="-18.5" font-family="Helvetica,sans-Serif" font-size="10.00">P4::BMV2::PnaNicExpression</text>
<text text-anchor="middle" x="78.12" y="-6.5" font-family="Helvetica,sans-Serif" font-size="10.00">Converter</text>
</a>
</g>
</g>
<!-- Node2 -->
<g id="Node000002" class="node">
<title>Node2</title>
<g id="a_Node000002"><a xlink:href="class_p4_1_1_b_m_v2_1_1_expression_converter.html" target="_top" xlink:title=" ">
<polygon fill="white" stroke="#bfbfbf" points="156.25,-88 0,-88 0,-68 156.25,-68 156.25,-88"/>
<text text-anchor="middle" x="78.12" y="-74.5" font-family="Helvetica,sans-Serif" font-size="10.00">P4::BMV2::ExpressionConverter</text>
</a>
</g>
</g>
<!-- Node2&#45;&gt;Node1 -->
<g id="edge1_Node000001_Node000002" class="edge">
<title>Node2&#45;&gt;Node1</title>
<g id="a_edge1_Node000001_Node000002"><a xlink:title=" ">
<path fill="none" stroke="#63b8ff" d="M78.12,-56.31C78.12,-48.37 78.12,-39.46 78.12,-32.14"/>
<polygon fill="#63b8ff" stroke="#63b8ff" points="74.63,-56.11 78.13,-66.11 81.63,-56.11 74.63,-56.11"/>
</a>
</g>
</g>
<!-- Node3 -->
<g id="Node000003" class="node">
<title>Node3</title>
<g id="a_Node000003"><a xlink:href="class_p4_1_1_inspector.html" target="_top" xlink:title=" ">
<polygon fill="white" stroke="#bfbfbf" points="115,-144 41.25,-144 41.25,-124 115,-124 115,-144"/>
<text text-anchor="middle" x="78.12" y="-130.5" font-family="Helvetica,sans-Serif" font-size="10.00">P4::Inspector</text>
</a>
</g>
</g>
<!-- Node3&#45;&gt;Node2 -->
<g id="edge2_Node000002_Node000003" class="edge">
<title>Node3&#45;&gt;Node2</title>
<g id="a_edge2_Node000002_Node000003"><a xlink:title=" ">
<path fill="none" stroke="#63b8ff" d="M78.12,-112.13C78.12,-103.9 78.12,-94.85 78.12,-88.3"/>
<polygon fill="#63b8ff" stroke="#63b8ff" points="74.63,-112.08 78.13,-122.08 81.63,-112.08 74.63,-112.08"/>
</a>
</g>
</g>
<!-- Node4 -->
<g id="Node000004" class="node">
<title>Node4</title>
<g id="a_Node000004"><a xlink:href="class_p4_1_1_visitor.html" target="_top" xlink:title=" ">
<polygon fill="white" stroke="#bfbfbf" points="109,-200 47.25,-200 47.25,-180 109,-180 109,-200"/>
<text text-anchor="middle" x="78.12" y="-186.5" font-family="Helvetica,sans-Serif" font-size="10.00">P4::Visitor</text>
</a>
</g>
</g>
<!-- Node4&#45;&gt;Node3 -->
<g id="edge3_Node000003_Node000004" class="edge">
<title>Node4&#45;&gt;Node3</title>
<g id="a_edge3_Node000003_Node000004"><a xlink:title=" ">
<path fill="none" stroke="#63b8ff" d="M78.12,-168.13C78.12,-159.9 78.12,-150.85 78.12,-144.3"/>
<polygon fill="#63b8ff" stroke="#63b8ff" points="74.63,-168.08 78.13,-178.08 81.63,-168.08 74.63,-168.08"/>
</a>
</g>
</g>
</g>
</svg>
