<?xml version="1.0" encoding="UTF-8" standalone="no"?>
<!DOCTYPE svg PUBLIC "-//W3C//DTD SVG 1.1//EN"
 "http://www.w3.org/Graphics/SVG/1.1/DTD/svg11.dtd">
<!-- Generated by graphviz version 10.0.1 (20240210.2158)
 -->
<!-- Title: DPDK::CheckPNAExternInvocation Pages: 1 -->
<svg width="176pt" height="208pt"
 viewBox="0.00 0.00 176.25 208.00" xmlns="http://www.w3.org/2000/svg" xmlns:xlink="http://www.w3.org/1999/xlink">
<g id="graph0" class="graph" transform="scale(1 1) rotate(0) translate(4 204)">
<title>DPDK::CheckPNAExternInvocation</title>
<!-- Node1 -->
<g id="Node000001" class="node">
<title>Node1</title>
<g id="a_Node000001"><a xlink:title="Class for checking constraints for invocations of PNA architecture extern methods and functions.">
<polygon fill="#999999" stroke="#666666" points="168.25,-20 0,-20 0,0 168.25,0 168.25,-20"/>
<text text-anchor="middle" x="84.12" y="-6.5" font-family="Helvetica,sans-Serif" font-size="10.00">DPDK::CheckPNAExternInvocation</text>
</a>
</g>
</g>
<!-- Node2 -->
<g id="Node000002" class="node">
<title>Node2</title>
<g id="a_Node000002"><a xlink:href="class_p4_1_1_check_extern_invocation_common.html" target="_top" xlink:title="Base class which can be used to prepare classes for checking constraints for invocations of externs (...">
<polygon fill="white" stroke="#666666" points="150.62,-88 17.62,-88 17.62,-56 150.62,-56 150.62,-88"/>
<text text-anchor="start" x="25.62" y="-74.5" font-family="Helvetica,sans-Serif" font-size="10.00">P4::CheckExternInvocation</text>
<text text-anchor="middle" x="84.12" y="-62.5" font-family="Helvetica,sans-Serif" font-size="10.00">Common</text>
</a>
</g>
</g>
<!-- Node2&#45;&gt;Node1 -->
<g id="edge1_Node000001_Node000002" class="edge">
<title>Node2&#45;&gt;Node1</title>
<g id="a_edge1_Node000001_Node000002"><a xlink:title=" ">
<path fill="none" stroke="#63b8ff" d="M84.12,-44.08C84.12,-35.6 84.12,-26.8 84.12,-20.41"/>
<polygon fill="#63b8ff" stroke="#63b8ff" points="80.63,-44.03 84.13,-54.03 87.63,-44.03 80.63,-44.03"/>
</a>
</g>
</g>
<!-- Node3 -->
<g id="Node000003" class="node">
<title>Node3</title>
<g id="a_Node000003"><a xlink:href="class_inspector.html" target="_top" xlink:title=" ">
<polygon fill="white" stroke="#bfbfbf" points="112,-144 56.25,-144 56.25,-124 112,-124 112,-144"/>
<text text-anchor="middle" x="84.12" y="-130.5" font-family="Helvetica,sans-Serif" font-size="10.00">Inspector</text>
</a>
</g>
</g>
<!-- Node3&#45;&gt;Node2 -->
<g id="edge2_Node000002_Node000003" class="edge">
<title>Node3&#45;&gt;Node2</title>
<g id="a_edge2_Node000002_Node000003"><a xlink:title=" ">
<path fill="none" stroke="#63b8ff" d="M84.12,-112.31C84.12,-104.37 84.12,-95.46 84.12,-88.14"/>
<polygon fill="#63b8ff" stroke="#63b8ff" points="80.63,-112.11 84.13,-122.11 87.63,-112.11 80.63,-112.11"/>
</a>
</g>
</g>
<!-- Node4 -->
<g id="Node000004" class="node">
<title>Node4</title>
<g id="a_Node000004"><a xlink:href="class_visitor.html" target="_top" xlink:title=" ">
<polygon fill="white" stroke="#bfbfbf" points="106,-200 62.25,-200 62.25,-180 106,-180 106,-200"/>
<text text-anchor="middle" x="84.12" y="-186.5" font-family="Helvetica,sans-Serif" font-size="10.00">Visitor</text>
</a>
</g>
</g>
<!-- Node4&#45;&gt;Node3 -->
<g id="edge3_Node000003_Node000004" class="edge">
<title>Node4&#45;&gt;Node3</title>
<g id="a_edge3_Node000003_Node000004"><a xlink:title=" ">
<path fill="none" stroke="#63b8ff" d="M84.12,-168.13C84.12,-159.9 84.12,-150.85 84.12,-144.3"/>
<polygon fill="#63b8ff" stroke="#63b8ff" points="80.63,-168.08 84.13,-178.08 87.63,-168.08 80.63,-168.08"/>
</a>
</g>
</g>
</g>
</svg>
