<?xml version="1.0" encoding="UTF-8" standalone="no"?>
<!DOCTYPE svg PUBLIC "-//W3C//DTD SVG 1.1//EN"
 "http://www.w3.org/Graphics/SVG/1.1/DTD/svg11.dtd">
<!-- Generated by graphviz version 10.0.1 (20240210.2158)
 -->
<!-- Title: TC::DeparserHdrEmitTranslatorPNA Pages: 1 -->
<svg width="179pt" height="320pt"
 viewBox="0.00 0.00 179.25 320.00" xmlns="http://www.w3.org/2000/svg" xmlns:xlink="http://www.w3.org/1999/xlink">
<g id="graph0" class="graph" transform="scale(1 1) rotate(0) translate(4 316)">
<title>TC::DeparserHdrEmitTranslatorPNA</title>
<!-- Node1 -->
<g id="Node000001" class="node">
<title>Node1</title>
<g id="a_Node000001"><a xlink:title=" ">
<polygon fill="#999999" stroke="#666666" points="171.25,-20 0,-20 0,0 171.25,0 171.25,-20"/>
<text text-anchor="middle" x="85.62" y="-6.5" font-family="Helvetica,sans-Serif" font-size="10.00">TC::DeparserHdrEmitTranslatorPNA</text>
</a>
</g>
</g>
<!-- Node2 -->
<g id="Node000002" class="node">
<title>Node2</title>
<g id="a_Node000002"><a xlink:href="class_e_b_p_f_1_1_deparser_prepare_buffer_translator.html" target="_top" xlink:title=" ">
<polygon fill="white" stroke="#bfbfbf" points="158.5,-88 12.75,-88 12.75,-56 158.5,-56 158.5,-88"/>
<text text-anchor="start" x="20.75" y="-74.5" font-family="Helvetica,sans-Serif" font-size="10.00">EBPF::DeparserPrepareBuffer</text>
<text text-anchor="middle" x="85.62" y="-62.5" font-family="Helvetica,sans-Serif" font-size="10.00">Translator</text>
</a>
</g>
</g>
<!-- Node2&#45;&gt;Node1 -->
<g id="edge1_Node000001_Node000002" class="edge">
<title>Node2&#45;&gt;Node1</title>
<g id="a_edge1_Node000001_Node000002"><a xlink:title=" ">
<path fill="none" stroke="#63b8ff" d="M85.62,-44.08C85.62,-35.6 85.62,-26.8 85.62,-20.41"/>
<polygon fill="#63b8ff" stroke="#63b8ff" points="82.13,-44.03 85.63,-54.03 89.13,-44.03 82.13,-44.03"/>
</a>
</g>
</g>
<!-- Node3 -->
<g id="Node000003" class="node">
<title>Node3</title>
<g id="a_Node000003"><a xlink:href="class_e_b_p_f_1_1_control_body_translator.html" target="_top" xlink:title=" ">
<polygon fill="white" stroke="#bfbfbf" points="157.75,-144 13.5,-144 13.5,-124 157.75,-124 157.75,-144"/>
<text text-anchor="middle" x="85.62" y="-130.5" font-family="Helvetica,sans-Serif" font-size="10.00">EBPF::ControlBodyTranslator</text>
</a>
</g>
</g>
<!-- Node3&#45;&gt;Node2 -->
<g id="edge2_Node000002_Node000003" class="edge">
<title>Node3&#45;&gt;Node2</title>
<g id="a_edge2_Node000002_Node000003"><a xlink:title=" ">
<path fill="none" stroke="#63b8ff" d="M85.62,-112.31C85.62,-104.37 85.62,-95.46 85.62,-88.14"/>
<polygon fill="#63b8ff" stroke="#63b8ff" points="82.13,-112.11 85.63,-122.11 89.13,-112.11 82.13,-112.11"/>
</a>
</g>
</g>
<!-- Node4 -->
<g id="Node000004" class="node">
<title>Node4</title>
<g id="a_Node000004"><a xlink:href="class_e_b_p_f_1_1_code_gen_inspector.html" target="_top" xlink:title=" ">
<polygon fill="white" stroke="#bfbfbf" points="149.88,-200 21.38,-200 21.38,-180 149.88,-180 149.88,-200"/>
<text text-anchor="middle" x="85.62" y="-186.5" font-family="Helvetica,sans-Serif" font-size="10.00">EBPF::CodeGenInspector</text>
</a>
</g>
</g>
<!-- Node4&#45;&gt;Node3 -->
<g id="edge3_Node000003_Node000004" class="edge">
<title>Node4&#45;&gt;Node3</title>
<g id="a_edge3_Node000003_Node000004"><a xlink:title=" ">
<path fill="none" stroke="#63b8ff" d="M85.62,-168.13C85.62,-159.9 85.62,-150.85 85.62,-144.3"/>
<polygon fill="#63b8ff" stroke="#63b8ff" points="82.13,-168.08 85.63,-178.08 89.13,-168.08 82.13,-168.08"/>
</a>
</g>
</g>
<!-- Node5 -->
<g id="Node000005" class="node">
<title>Node5</title>
<g id="a_Node000005"><a xlink:href="class_inspector.html" target="_top" xlink:title=" ">
<polygon fill="white" stroke="#bfbfbf" points="113.5,-256 57.75,-256 57.75,-236 113.5,-236 113.5,-256"/>
<text text-anchor="middle" x="85.62" y="-242.5" font-family="Helvetica,sans-Serif" font-size="10.00">Inspector</text>
</a>
</g>
</g>
<!-- Node5&#45;&gt;Node4 -->
<g id="edge4_Node000004_Node000005" class="edge">
<title>Node5&#45;&gt;Node4</title>
<g id="a_edge4_Node000004_Node000005"><a xlink:title=" ">
<path fill="none" stroke="#63b8ff" d="M85.62,-224.13C85.62,-215.9 85.62,-206.85 85.62,-200.3"/>
<polygon fill="#63b8ff" stroke="#63b8ff" points="82.13,-224.08 85.63,-234.08 89.13,-224.08 82.13,-224.08"/>
</a>
</g>
</g>
<!-- Node6 -->
<g id="Node000006" class="node">
<title>Node6</title>
<g id="a_Node000006"><a xlink:href="class_visitor.html" target="_top" xlink:title=" ">
<polygon fill="white" stroke="#bfbfbf" points="107.5,-312 63.75,-312 63.75,-292 107.5,-292 107.5,-312"/>
<text text-anchor="middle" x="85.62" y="-298.5" font-family="Helvetica,sans-Serif" font-size="10.00">Visitor</text>
</a>
</g>
</g>
<!-- Node6&#45;&gt;Node5 -->
<g id="edge5_Node000005_Node000006" class="edge">
<title>Node6&#45;&gt;Node5</title>
<g id="a_edge5_Node000005_Node000006"><a xlink:title=" ">
<path fill="none" stroke="#63b8ff" d="M85.62,-280.13C85.62,-271.9 85.62,-262.85 85.62,-256.3"/>
<polygon fill="#63b8ff" stroke="#63b8ff" points="82.13,-280.08 85.63,-290.08 89.13,-280.08 82.13,-280.08"/>
</a>
</g>
</g>
</g>
</svg>
