<?xml version="1.0" encoding="UTF-8" standalone="no"?>
<!DOCTYPE svg PUBLIC "-//W3C//DTD SVG 1.1//EN"
 "http://www.w3.org/Graphics/SVG/1.1/DTD/svg11.dtd">
<!-- Generated by graphviz version 10.0.1 (20240210.2158)
 -->
<!-- Title: EBPF::CodeGenInspector Pages: 1 -->
<!--zoomable 432 -->

<svg id="main" version="1.1" xmlns="http://www.w3.org/2000/svg" xmlns:xlink="http://www.w3.org/1999/xlink" xml:space="preserve" onload="init(evt)">
<style type="text/css"><![CDATA[
.node, .edge {opacity: 0.7;}
.node.selected, .edge.selected {opacity: 1;}
.edge:hover path { stroke: red; }
.edge:hover polygon { stroke: red; fill: red; }
]]></style>

<defs>
  <circle id="rim" cx="0" cy="0" r="7"/>
  <circle id="rim2" cx="0" cy="0" r="3.5"/>
  <g id="zoomPlus">
    <use xlink:href="#rim" fill="#404040"><set attributeName="fill" to="#808080" begin="zoomplus.mouseover" end="zoomplus.mouseout"/></use>
    <path d="M-4,0h8M0,-4v8" fill="none" stroke="white" stroke-width="1.5" pointer-events="none"/>
  </g>
  <g id="zoomMin">
    <use xlink:href="#rim" fill="#404040"><set attributeName="fill" to="#808080" begin="zoomminus.mouseover" end="zoomminus.mouseout"/></use>
    <path d="M-4,0h8" fill="none" stroke="white" stroke-width="1.5" pointer-events="none"/>
  </g>
  <g id="arrowUp" transform="translate(30 24)">
    <use xlink:href="#rim"/>
    <path pointer-events="none" fill="none" stroke="white" stroke-width="1.5" d="M0,-3.0v7 M-2.5,-0.5L0,-3.0L2.5,-0.5"/>
  </g>
  <g id="arrowRight" transform="rotate(90) translate(36 -43)">
    <use xlink:href="#rim"/>
    <path pointer-events="none" fill="none" stroke="white" stroke-width="1.5" d="M0,-3.0v7 M-2.5,-0.5L0,-3.0L2.5,-0.5"/>
  </g>
  <g id="arrowDown" transform="rotate(180) translate(-30 -48)">
    <use xlink:href="#rim"/>
    <path pointer-events="none" fill="none" stroke="white" stroke-width="1.5" d="M0,-3.0v7 M-2.5,-0.5L0,-3.0L2.5,-0.5"/>
  </g>
  <g id="arrowLeft" transform="rotate(270) translate(-36 17)">
    <use xlink:href="#rim"/>
    <path pointer-events="none" fill="none" stroke="white" stroke-width="1.5" d="M0,-3.0v7 M-2.5,-0.5L0,-3.0L2.5,-0.5"/>
  </g>
  <g id="resetDef">
    <use xlink:href="#rim2" fill="#404040"><set attributeName="fill" to="#808080" begin="reset.mouseover" end="reset.mouseout"/></use>
  </g>
</defs>
<script type="application/ecmascript">
var viewWidth = 920;
var viewHeight = 432;
var sectionId = 'dynsection-0';
</script>
<script type="application/ecmascript" xlink:href="svg.min.js"/>
<svg id="graph" class="graph">
<g id="viewport">
<title>EBPF::CodeGenInspector</title>
<!-- Node1 -->
<g id="Node000001" class="node">
<title>Node1</title>
<g id="a_Node000001"><a xlink:title=" ">
<polygon fill="#999999" stroke="#666666" points="300,-152 171.5,-152 171.5,-132 300,-132 300,-152"/>
<text text-anchor="middle" x="235.75" y="-138.5" font-family="Helvetica,sans-Serif" font-size="10.00">EBPF::CodeGenInspector</text>
</a>
</g>
</g>
<!-- Node4 -->
<g id="Node000004" class="node">
<title>Node4</title>
<g id="a_Node000004"><a xlink:href="class_e_b_p_f_1_1_action_translation_visitor.html" target="_top" xlink:title=" ">
<polygon fill="white" stroke="#bfbfbf" points="693.5,-222 542.5,-222 542.5,-202 693.5,-202 693.5,-222"/>
<text text-anchor="middle" x="618" y="-208.5" font-family="Helvetica,sans-Serif" font-size="10.00">EBPF::ActionTranslationVisitor</text>
</a>
</g>
</g>
<!-- Node1&#45;&gt;Node4 -->
<g id="edge3_Node000001_Node000004" class="edge">
<title>Node1&#45;&gt;Node4</title>
<g id="a_edge3_Node000001_Node000004"><a xlink:title=" ">
<path fill="none" stroke="#63b8ff" d="M253.8,-160.56C272.06,-178.94 302.92,-205.91 336,-217 414.06,-243.18 511.31,-232.67 568.53,-222.47"/>
<polygon fill="#63b8ff" stroke="#63b8ff" points="256.39,-158.21 246.94,-153.42 251.34,-163.06 256.39,-158.21"/>
</a>
</g>
</g>
<!-- Node7 -->
<g id="Node000007" class="node">
<title>Node7</title>
<g id="a_Node000007"><a xlink:href="class_e_b_p_f_1_1_control_body_translator.html" target="_top" xlink:title=" ">
<polygon fill="white" stroke="#bfbfbf" points="488.5,-317 344.25,-317 344.25,-297 488.5,-297 488.5,-317"/>
<text text-anchor="middle" x="416.38" y="-303.5" font-family="Helvetica,sans-Serif" font-size="10.00">EBPF::ControlBodyTranslator</text>
</a>
</g>
</g>
<!-- Node1&#45;&gt;Node7 -->
<g id="edge6_Node000001_Node000007" class="edge">
<title>Node1&#45;&gt;Node7</title>
<g id="a_edge6_Node000001_Node000007"><a xlink:title=" ">
<path fill="none" stroke="#63b8ff" d="M252.23,-161.1C270.9,-183.59 303.82,-221.48 336,-250 356.31,-268 382.24,-285.77 398.83,-296.56"/>
<polygon fill="#63b8ff" stroke="#63b8ff" points="255.16,-159.15 246.1,-153.65 249.75,-163.6 255.16,-159.15"/>
</a>
</g>
</g>
<!-- Node16 -->
<g id="Node000016" class="node">
<title>Node16</title>
<g id="a_Node000016"><a xlink:href="class_e_b_p_f_1_1_e_b_p_f_digest_p_s_a_value_visitor.html" target="_top" xlink:title=" ">
<polygon fill="white" stroke="#bfbfbf" points="490,-208 342.75,-208 342.75,-176 490,-176 490,-208"/>
<text text-anchor="start" x="350.75" y="-194.5" font-family="Helvetica,sans-Serif" font-size="10.00">EBPF::EBPFDigestPSAValue</text>
<text text-anchor="middle" x="416.38" y="-182.5" font-family="Helvetica,sans-Serif" font-size="10.00">Visitor</text>
</a>
</g>
</g>
<!-- Node1&#45;&gt;Node16 -->
<g id="edge17_Node000001_Node000016" class="edge">
<title>Node1&#45;&gt;Node16</title>
<g id="a_edge17_Node000001_Node000016"><a xlink:title=" ">
<path fill="none" stroke="#63b8ff" d="M285.27,-155.58C307.25,-161.74 333.44,-169.06 356.53,-175.53"/>
<polygon fill="#63b8ff" stroke="#63b8ff" points="286.23,-152.21 275.65,-152.89 284.34,-158.96 286.23,-152.21"/>
</a>
</g>
</g>
<!-- Node17 -->
<g id="Node000017" class="node">
<title>Node17</title>
<g id="a_Node000017"><a xlink:href="class_e_b_p_f_1_1_e_b_p_f_table_p_s_a_initializer_code_gen.html" target="_top" xlink:title=" ">
<polygon fill="white" stroke="#bfbfbf" points="494.5,-158 338.25,-158 338.25,-126 494.5,-126 494.5,-158"/>
<text text-anchor="start" x="346.25" y="-144.5" font-family="Helvetica,sans-Serif" font-size="10.00">EBPF::EBPFTablePSAInitializer</text>
<text text-anchor="middle" x="416.38" y="-132.5" font-family="Helvetica,sans-Serif" font-size="10.00">CodeGen</text>
</a>
</g>
</g>
<!-- Node1&#45;&gt;Node17 -->
<g id="edge18_Node000001_Node000017" class="edge">
<title>Node1&#45;&gt;Node17</title>
<g id="a_edge18_Node000001_Node000017"><a xlink:title=" ">
<path fill="none" stroke="#63b8ff" d="M311.73,-142C320.38,-142 329.22,-142 337.91,-142"/>
<polygon fill="#63b8ff" stroke="#63b8ff" points="311.99,-138.5 301.99,-142 311.99,-145.5 311.99,-138.5"/>
</a>
</g>
</g>
<!-- Node19 -->
<g id="Node000019" class="node">
<title>Node19</title>
<g id="a_Node000019"><a xlink:href="class_e_b_p_f_1_1_state_translation_visitor.html" target="_top" xlink:title=" ">
<polygon fill="white" stroke="#bfbfbf" points="489.62,-108 343.12,-108 343.12,-88 489.62,-88 489.62,-108"/>
<text text-anchor="middle" x="416.38" y="-94.5" font-family="Helvetica,sans-Serif" font-size="10.00">EBPF::StateTranslationVisitor</text>
</a>
</g>
</g>
<!-- Node1&#45;&gt;Node19 -->
<g id="edge20_Node000001_Node000019" class="edge">
<title>Node1&#45;&gt;Node19</title>
<g id="a_edge20_Node000001_Node000019"><a xlink:title=" ">
<path fill="none" stroke="#63b8ff" d="M288.58,-128.82C303.85,-124.97 320.59,-120.79 336,-117 347.42,-114.19 359.78,-111.21 371.27,-108.46"/>
<polygon fill="#63b8ff" stroke="#63b8ff" points="288.07,-125.34 279.24,-131.18 289.79,-132.13 288.07,-125.34"/>
</a>
</g>
</g>
<!-- Node22 -->
<g id="Node000022" class="node">
<title>Node22</title>
<g id="a_Node000022"><a xlink:href="class_u_b_p_f_1_1_out_header_size.html" target="_top" xlink:title=" ">
<polygon fill="white" stroke="#bfbfbf" points="473.5,-70 359.25,-70 359.25,-50 473.5,-50 473.5,-70"/>
<text text-anchor="middle" x="416.38" y="-56.5" font-family="Helvetica,sans-Serif" font-size="10.00">UBPF::OutHeaderSize</text>
</a>
</g>
</g>
<!-- Node1&#45;&gt;Node22 -->
<g id="edge23_Node000001_Node000022" class="edge">
<title>Node1&#45;&gt;Node22</title>
<g id="a_edge23_Node000001_Node000022"><a xlink:title=" ">
<path fill="none" stroke="#63b8ff" d="M258.92,-124.88C278.29,-110.7 307.67,-90.99 336,-79 343.96,-75.63 352.63,-72.79 361.23,-70.42"/>
<polygon fill="#63b8ff" stroke="#63b8ff" points="256.89,-122.03 250.98,-130.82 261.08,-127.64 256.89,-122.03"/>
</a>
</g>
</g>
<!-- Node23 -->
<g id="Node000023" class="node">
<title>Node23</title>
<g id="a_Node000023"><a xlink:href="class_u_b_p_f_1_1_u_b_p_f_deparser_translation_visitor.html" target="_top" xlink:title=" ">
<polygon fill="white" stroke="#bfbfbf" points="496.75,-32 336,-32 336,0 496.75,0 496.75,-32"/>
<text text-anchor="start" x="344" y="-18.5" font-family="Helvetica,sans-Serif" font-size="10.00">UBPF::UBPFDeparserTranslation</text>
<text text-anchor="middle" x="416.38" y="-6.5" font-family="Helvetica,sans-Serif" font-size="10.00">Visitor</text>
</a>
</g>
</g>
<!-- Node1&#45;&gt;Node23 -->
<g id="edge24_Node000001_Node000023" class="edge">
<title>Node1&#45;&gt;Node23</title>
<g id="a_edge24_Node000001_Node000023"><a xlink:title=" ">
<path fill="none" stroke="#63b8ff" d="M250.8,-122.8C268.34,-100.15 300.39,-62.81 336,-41 341.3,-37.75 347.05,-34.89 352.97,-32.38"/>
<polygon fill="#63b8ff" stroke="#63b8ff" points="248.16,-120.5 244.92,-130.59 253.74,-124.72 248.16,-120.5"/>
</a>
</g>
</g>
<!-- Node2 -->
<g id="Node000002" class="node">
<title>Node2</title>
<g id="a_Node000002"><a xlink:href="class_inspector.html" target="_top" xlink:title=" ">
<polygon fill="white" stroke="#bfbfbf" points="135.5,-152 79.75,-152 79.75,-132 135.5,-132 135.5,-152"/>
<text text-anchor="middle" x="107.62" y="-138.5" font-family="Helvetica,sans-Serif" font-size="10.00">Inspector</text>
</a>
</g>
</g>
<!-- Node2&#45;&gt;Node1 -->
<g id="edge1_Node000001_Node000002" class="edge">
<title>Node2&#45;&gt;Node1</title>
<g id="a_edge1_Node000001_Node000002"><a xlink:title=" ">
<path fill="none" stroke="#63b8ff" d="M147.36,-142C154.94,-142 163.06,-142 171.2,-142"/>
<polygon fill="#63b8ff" stroke="#63b8ff" points="147.51,-138.5 137.51,-142 147.51,-145.5 147.51,-138.5"/>
</a>
</g>
</g>
<!-- Node3 -->
<g id="Node000003" class="node">
<title>Node3</title>
<g id="a_Node000003"><a xlink:href="class_visitor.html" target="_top" xlink:title=" ">
<polygon fill="white" stroke="#bfbfbf" points="43.75,-152 0,-152 0,-132 43.75,-132 43.75,-152"/>
<text text-anchor="middle" x="21.88" y="-138.5" font-family="Helvetica,sans-Serif" font-size="10.00">Visitor</text>
</a>
</g>
</g>
<!-- Node3&#45;&gt;Node2 -->
<g id="edge2_Node000002_Node000003" class="edge">
<title>Node3&#45;&gt;Node2</title>
<g id="a_edge2_Node000002_Node000003"><a xlink:title=" ">
<path fill="none" stroke="#63b8ff" d="M55.52,-142C63.44,-142 71.83,-142 79.47,-142"/>
<polygon fill="#63b8ff" stroke="#63b8ff" points="55.52,-138.5 45.52,-142 55.52,-145.5 55.52,-138.5"/>
</a>
</g>
</g>
<!-- Node5 -->
<g id="Node000005" class="node">
<title>Node5</title>
<g id="a_Node000005"><a xlink:href="class_e_b_p_f_1_1_action_translation_visitor_p_s_a.html" target="_top" xlink:title=" ">
<polygon fill="white" stroke="#bfbfbf" points="911.25,-292 740,-292 740,-272 911.25,-272 911.25,-292"/>
<text text-anchor="middle" x="825.62" y="-278.5" font-family="Helvetica,sans-Serif" font-size="10.00">EBPF::ActionTranslationVisitorPSA</text>
</a>
</g>
</g>
<!-- Node4&#45;&gt;Node5 -->
<g id="edge4_Node000004_Node000005" class="edge">
<title>Node4&#45;&gt;Node5</title>
<g id="a_edge4_Node000004_Node000005"><a xlink:title=" ">
<path fill="none" stroke="#63b8ff" d="M685.71,-225.32C691.7,-227.03 697.62,-228.92 703.25,-231 720.22,-237.27 722.75,-242.59 739.25,-250 757.01,-257.98 777.41,-265.68 793.82,-271.52"/>
<polygon fill="#63b8ff" stroke="#63b8ff" points="686.92,-222.02 676.36,-222.81 685.11,-228.78 686.92,-222.02"/>
</a>
</g>
</g>
<!-- Node6 -->
<g id="Node000006" class="node">
<title>Node6</title>
<g id="a_Node000006"><a xlink:href="class_t_c_1_1_action_translation_visitor_p_n_a.html" target="_top" xlink:title=" ">
<polygon fill="white" stroke="#bfbfbf" points="904.12,-241 747.12,-241 747.12,-221 904.12,-221 904.12,-241"/>
<text text-anchor="middle" x="825.62" y="-227.5" font-family="Helvetica,sans-Serif" font-size="10.00">TC::ActionTranslationVisitorPNA</text>
</a>
</g>
</g>
<!-- Node4&#45;&gt;Node6 -->
<g id="edge5_Node000004_Node000006" class="edge">
<title>Node4&#45;&gt;Node6</title>
<g id="a_edge5_Node000004_Node000006"><a xlink:title=" ">
<path fill="none" stroke="#63b8ff" d="M705.26,-219.97C719.03,-221.24 733.2,-222.55 746.75,-223.8"/>
<polygon fill="#63b8ff" stroke="#63b8ff" points="705.6,-216.49 695.32,-219.05 704.96,-223.46 705.6,-216.49"/>
</a>
</g>
</g>
<!-- Node8 -->
<g id="Node000008" class="node">
<title>Node8</title>
<g id="a_Node000008"><a xlink:href="class_e_b_p_f_1_1_control_body_translator_p_s_a.html" target="_top" xlink:title=" ">
<polygon fill="white" stroke="#bfbfbf" points="700.25,-336 535.75,-336 535.75,-316 700.25,-316 700.25,-336"/>
<text text-anchor="middle" x="618" y="-322.5" font-family="Helvetica,sans-Serif" font-size="10.00">EBPF::ControlBodyTranslatorPSA</text>
</a>
</g>
</g>
<!-- Node7&#45;&gt;Node8 -->
<g id="edge7_Node000007_Node000008" class="edge">
<title>Node7&#45;&gt;Node8</title>
<g id="a_edge7_Node000007_Node000008"><a xlink:title=" ">
<path fill="none" stroke="#63b8ff" d="M500,-314.86C511.72,-315.98 523.77,-317.13 535.47,-318.24"/>
<polygon fill="#63b8ff" stroke="#63b8ff" points="500.67,-311.41 490.39,-313.95 500.01,-318.38 500.67,-311.41"/>
</a>
</g>
</g>
<!-- Node9 -->
<g id="Node000009" class="node">
<title>Node9</title>
<g id="a_Node000009"><a xlink:href="class_e_b_p_f_1_1_deparser_body_translator.html" target="_top" xlink:title=" ">
<polygon fill="white" stroke="#bfbfbf" points="694.25,-424 541.75,-424 541.75,-404 694.25,-404 694.25,-424"/>
<text text-anchor="middle" x="618" y="-410.5" font-family="Helvetica,sans-Serif" font-size="10.00">EBPF::DeparserBodyTranslator</text>
</a>
</g>
</g>
<!-- Node7&#45;&gt;Node9 -->
<g id="edge9_Node000007_Node000009" class="edge">
<title>Node7&#45;&gt;Node9</title>
<g id="a_edge9_Node000007_Node000009"><a xlink:title=" ">
<path fill="none" stroke="#63b8ff" d="M435.98,-325.33C457.48,-345.47 494.8,-377.29 532.75,-395 540.09,-398.42 548.08,-401.25 556.12,-403.58"/>
<polygon fill="#63b8ff" stroke="#63b8ff" points="438.52,-322.92 428.87,-318.54 433.68,-327.98 438.52,-322.92"/>
</a>
</g>
</g>
<!-- Node11 -->
<g id="Node000011" class="node">
<title>Node11</title>
<g id="a_Node000011"><a xlink:href="class_e_b_p_f_1_1_deparser_prepare_buffer_translator.html" target="_top" xlink:title=" ">
<polygon fill="white" stroke="#bfbfbf" points="690.88,-386 545.12,-386 545.12,-354 690.88,-354 690.88,-386"/>
<text text-anchor="start" x="553.12" y="-372.5" font-family="Helvetica,sans-Serif" font-size="10.00">EBPF::DeparserPrepareBuffer</text>
<text text-anchor="middle" x="618" y="-360.5" font-family="Helvetica,sans-Serif" font-size="10.00">Translator</text>
</a>
</g>
</g>
<!-- Node7&#45;&gt;Node11 -->
<g id="edge11_Node000007_Node000011" class="edge">
<title>Node7&#45;&gt;Node11</title>
<g id="a_edge11_Node000007_Node000011"><a xlink:title=" ">
<path fill="none" stroke="#63b8ff" d="M459.06,-321.06C480.94,-328.36 508.24,-337.33 532.75,-345 541.78,-347.83 551.37,-350.75 560.73,-353.56"/>
<polygon fill="#63b8ff" stroke="#63b8ff" points="460.18,-317.74 449.58,-317.89 457.95,-324.38 460.18,-317.74"/>
</a>
</g>
</g>
<!-- Node14 -->
<g id="Node000014" class="node">
<title>Node14</title>
<g id="a_Node000014"><a xlink:href="class_t_c_1_1_control_body_translator_p_n_a.html" target="_top" xlink:title=" ">
<polygon fill="white" stroke="#bfbfbf" points="693.12,-260 542.88,-260 542.88,-240 693.12,-240 693.12,-260"/>
<text text-anchor="middle" x="618" y="-246.5" font-family="Helvetica,sans-Serif" font-size="10.00">TC::ControlBodyTranslatorPNA</text>
</a>
</g>
</g>
<!-- Node7&#45;&gt;Node14 -->
<g id="edge14_Node000007_Node000014" class="edge">
<title>Node7&#45;&gt;Node14</title>
<g id="a_edge14_Node000007_Node000014"><a xlink:title=" ">
<path fill="none" stroke="#63b8ff" d="M457.19,-292.84C479.29,-285.24 507.36,-276.03 532.75,-269 543.73,-265.96 555.62,-263.05 566.91,-260.46"/>
<polygon fill="#63b8ff" stroke="#63b8ff" points="456.27,-289.45 447.97,-296.03 458.56,-296.06 456.27,-289.45"/>
</a>
</g>
</g>
<!-- Node15 -->
<g id="Node000015" class="node">
<title>Node15</title>
<g id="a_Node000015"><a xlink:href="class_u_b_p_f_1_1_u_b_p_f_control_body_translator.html" target="_top" xlink:title=" ">
<polygon fill="white" stroke="#bfbfbf" points="703.25,-298 532.75,-298 532.75,-278 703.25,-278 703.25,-298"/>
<text text-anchor="middle" x="618" y="-284.5" font-family="Helvetica,sans-Serif" font-size="10.00">UBPF::UBPFControlBodyTranslator</text>
</a>
</g>
</g>
<!-- Node7&#45;&gt;Node15 -->
<g id="edge16_Node000007_Node000015" class="edge">
<title>Node7&#45;&gt;Node15</title>
<g id="a_edge16_Node000007_Node000015"><a xlink:title=" ">
<path fill="none" stroke="#63b8ff" d="M500.26,-299.11C510.87,-298.1 521.74,-297.07 532.37,-296.05"/>
<polygon fill="#63b8ff" stroke="#63b8ff" points="500.01,-295.62 490.39,-300.05 500.67,-302.59 500.01,-295.62"/>
</a>
</g>
</g>
<!-- Node8&#45;&gt;Node5 -->
<g id="edge8_Node000008_Node000005" class="edge">
<title>Node8&#45;&gt;Node5</title>
<g id="a_edge8_Node000008_Node000005"><a xlink:title=" ">
<path fill="none" stroke="#63b8ff" d="M679,-313.16C709.73,-306.59 746.67,-298.68 775.65,-292.48"/>
<polygon fill="#63b8ff" stroke="#63b8ff" points="678.52,-309.69 669.47,-315.2 679.98,-316.53 678.52,-309.69"/>
</a>
</g>
</g>
<!-- Node10 -->
<g id="Node000010" class="node">
<title>Node10</title>
<g id="a_Node000010"><a xlink:href="class_e_b_p_f_1_1_deparser_body_translator_p_s_a.html" target="_top" xlink:title=" ">
<polygon fill="white" stroke="#bfbfbf" points="912,-424 739.25,-424 739.25,-404 912,-404 912,-424"/>
<text text-anchor="middle" x="825.62" y="-410.5" font-family="Helvetica,sans-Serif" font-size="10.00">EBPF::DeparserBodyTranslatorPSA</text>
</a>
</g>
</g>
<!-- Node9&#45;&gt;Node10 -->
<g id="edge10_Node000009_Node000010" class="edge">
<title>Node9&#45;&gt;Node10</title>
<g id="a_edge10_Node000009_Node000010"><a xlink:title=" ">
<path fill="none" stroke="#63b8ff" d="M705.98,-414C716.92,-414 728.11,-414 739.03,-414"/>
<polygon fill="#63b8ff" stroke="#63b8ff" points="706.2,-410.5 696.2,-414 706.2,-417.5 706.2,-410.5"/>
</a>
</g>
</g>
<!-- Node12 -->
<g id="Node000012" class="node">
<title>Node12</title>
<g id="a_Node000012"><a xlink:href="class_e_b_p_f_1_1_deparser_hdr_emit_translator.html" target="_top" xlink:title=" ">
<polygon fill="white" stroke="#bfbfbf" points="908.25,-345 743,-345 743,-325 908.25,-325 908.25,-345"/>
<text text-anchor="middle" x="825.62" y="-331.5" font-family="Helvetica,sans-Serif" font-size="10.00">EBPF::DeparserHdrEmitTranslator</text>
</a>
</g>
</g>
<!-- Node11&#45;&gt;Node12 -->
<g id="edge12_Node000011_Node000012" class="edge">
<title>Node11&#45;&gt;Node12</title>
<g id="a_edge12_Node000011_Node000012"><a xlink:title=" ">
<path fill="none" stroke="#63b8ff" d="M702.37,-355.81C722.69,-352.35 744.07,-348.71 763.16,-345.46"/>
<polygon fill="#63b8ff" stroke="#63b8ff" points="701.97,-352.33 692.7,-357.46 703.14,-359.23 701.97,-352.33"/>
</a>
</g>
</g>
<!-- Node13 -->
<g id="Node000013" class="node">
<title>Node13</title>
<g id="a_Node000013"><a xlink:href="class_t_c_1_1_deparser_hdr_emit_translator_p_n_a.html" target="_top" xlink:title=" ">
<polygon fill="white" stroke="#bfbfbf" points="911.25,-383 740,-383 740,-363 911.25,-363 911.25,-383"/>
<text text-anchor="middle" x="825.62" y="-369.5" font-family="Helvetica,sans-Serif" font-size="10.00">TC::DeparserHdrEmitTranslatorPNA</text>
</a>
</g>
</g>
<!-- Node11&#45;&gt;Node13 -->
<g id="edge13_Node000011_Node000013" class="edge">
<title>Node11&#45;&gt;Node13</title>
<g id="a_edge13_Node000011_Node000013"><a xlink:title=" ">
<path fill="none" stroke="#63b8ff" d="M702.72,-371.22C714.86,-371.4 727.38,-371.58 739.55,-371.76"/>
<polygon fill="#63b8ff" stroke="#63b8ff" points="702.77,-367.72 692.72,-371.08 702.67,-374.72 702.77,-367.72"/>
</a>
</g>
</g>
<!-- Node14&#45;&gt;Node6 -->
<g id="edge15_Node000014_Node000006" class="edge">
<title>Node14&#45;&gt;Node6</title>
<g id="a_edge15_Node000014_Node000006"><a xlink:title=" ">
<path fill="none" stroke="#63b8ff" d="M704.64,-242.09C718.65,-240.79 733.09,-239.46 746.89,-238.18"/>
<polygon fill="#63b8ff" stroke="#63b8ff" points="704.67,-238.57 695.03,-242.97 705.31,-245.54 704.67,-238.57"/>
</a>
</g>
</g>
<!-- Node18 -->
<g id="Node000018" class="node">
<title>Node18</title>
<g id="a_Node000018"><a xlink:href="class_e_b_p_f_1_1_e_b_p_f_table_p_s_a_ternary_key_mask_generator.html" target="_top" xlink:title=" ">
<polygon fill="white" stroke="#bfbfbf" points="693.12,-161 542.88,-161 542.88,-129 693.12,-129 693.12,-161"/>
<text text-anchor="start" x="550.88" y="-147.5" font-family="Helvetica,sans-Serif" font-size="10.00">EBPF::EBPFTablePSATernary</text>
<text text-anchor="middle" x="618" y="-135.5" font-family="Helvetica,sans-Serif" font-size="10.00">KeyMaskGenerator</text>
</a>
</g>
</g>
<!-- Node17&#45;&gt;Node18 -->
<g id="edge19_Node000017_Node000018" class="edge">
<title>Node17&#45;&gt;Node18</title>
<g id="a_edge19_Node000017_Node000018"><a xlink:title=" ">
<path fill="none" stroke="#63b8ff" d="M506.34,-143.34C518.43,-143.52 530.73,-143.7 542.53,-143.88"/>
<polygon fill="#63b8ff" stroke="#63b8ff" points="506.41,-139.84 496.35,-143.19 506.3,-146.84 506.41,-139.84"/>
</a>
</g>
</g>
<!-- Node20 -->
<g id="Node000020" class="node">
<title>Node20</title>
<g id="a_Node000020"><a xlink:href="class_e_b_p_f_1_1_psa_state_translation_visitor.html" target="_top" xlink:title=" ">
<polygon fill="white" stroke="#bfbfbf" points="686,-111 550,-111 550,-79 686,-79 686,-111"/>
<text text-anchor="start" x="558" y="-97.5" font-family="Helvetica,sans-Serif" font-size="10.00">EBPF::PsaStateTranslation</text>
<text text-anchor="middle" x="618" y="-85.5" font-family="Helvetica,sans-Serif" font-size="10.00">Visitor</text>
</a>
</g>
</g>
<!-- Node19&#45;&gt;Node20 -->
<g id="edge21_Node000019_Node000020" class="edge">
<title>Node19&#45;&gt;Node20</title>
<g id="a_edge21_Node000019_Node000020"><a xlink:title=" ">
<path fill="none" stroke="#63b8ff" d="M501.12,-96.74C517.33,-96.5 534.13,-96.25 549.73,-96.01"/>
<polygon fill="#63b8ff" stroke="#63b8ff" points="501.47,-93.24 491.52,-96.89 501.57,-100.23 501.47,-93.24"/>
</a>
</g>
</g>
<!-- Node21 -->
<g id="Node000021" class="node">
<title>Node21</title>
<g id="a_Node000021"><a xlink:href="class_t_c_1_1_pna_state_translation_visitor.html" target="_top" xlink:title=" ">
<polygon fill="white" stroke="#bfbfbf" points="900.38,-105 750.88,-105 750.88,-85 900.38,-85 900.38,-105"/>
<text text-anchor="middle" x="825.62" y="-91.5" font-family="Helvetica,sans-Serif" font-size="10.00">TC::PnaStateTranslationVisitor</text>
</a>
</g>
</g>
<!-- Node20&#45;&gt;Node21 -->
<g id="edge22_Node000020_Node000021" class="edge">
<title>Node20&#45;&gt;Node21</title>
<g id="a_edge22_Node000020_Node000021"><a xlink:title=" ">
<path fill="none" stroke="#63b8ff" d="M697.56,-95C714.91,-95 733.23,-95 750.39,-95"/>
<polygon fill="#63b8ff" stroke="#63b8ff" points="697.84,-91.5 687.84,-95 697.84,-98.5 697.84,-91.5"/>
</a>
</g>
</g>
</g>
</svg>

<g id="navigator" transform="translate(0 0)" fill="#404254">
  <rect fill="#f2f5e9" fill-opacity="0.5" stroke="#606060" stroke-width=".5" x="0" y="0" width="60" height="60"/>
  <use id="zoomplus" xlink:href="#zoomPlus" x="17" y="9" onmousedown="handleZoom(evt,'in')"/>
  <use id="zoomminus" xlink:href="#zoomMin" x="42" y="9" onmousedown="handleZoom(evt,'out')"/>
  <use id="reset" xlink:href="#resetDef" x="30" y="36" onmousedown="handleReset()"/>
   <use id="arrowup" xlink:href="#arrowUp" x="0" y="0" onmousedown="handlePan(0,-1)"/>
  <use id="arrowright" xlink:href="#arrowRight" x="0" y="0" onmousedown="handlePan(1,0)"/>
  <use id="arrowdown" xlink:href="#arrowDown" x="0" y="0" onmousedown="handlePan(0,1)"/>
  <use id="arrowleft" xlink:href="#arrowLeft" x="0" y="0" onmousedown="handlePan(-1,0)"/>
</g>
<svg viewBox="0 0 15 15" width="100%" height="30px" preserveAspectRatio="xMaxYMin meet">
 <g id="arrow_out" transform="scale(0.3 0.3)">
  <a xlink:href="class_e_b_p_f_1_1_code_gen_inspector__inherit__graph_org.svg" target="_base">
   <rect id="button" ry="5" rx="5" y="6" x="6" height="38" width="38"
        fill="#f2f5e9" fill-opacity="0.5" stroke="#606060" stroke-width="1.0"/>
   <path id="arrow"
     d="M 11.500037,31.436501 C 11.940474,20.09759 22.043105,11.32322 32.158766,21.979434 L 37.068811,17.246167 C 37.068811,17.246167 37.088388,32 37.088388,32 L 22.160133,31.978069 C 22.160133,31.978069 26.997745,27.140456 26.997745,27.140456 C 18.528582,18.264221 13.291696,25.230495 11.500037,31.436501 z"
     style="fill:#404040;"/>
  </a>
 </g>
</svg>

<style type='text/css'>
<![CDATA[
[data-mouse-over-selected='false'] { opacity: 0.7; }
[data-mouse-over-selected='true']  { opacity: 1.0; }
]]>
</style>
<script type="application/ecmascript"><![CDATA[
document.addEventListener('DOMContentLoaded', (event) => {
  highlightEdges();
  highlightAdjacentNodes();
});
]]></script>
</svg>
