<?xml version="1.0" encoding="UTF-8" standalone="no"?>
<!DOCTYPE svg PUBLIC "-//W3C//DTD SVG 1.1//EN"
 "http://www.w3.org/Graphics/SVG/1.1/DTD/svg11.dtd">
<!-- Generated by graphviz version 10.0.1 (20240210.2158)
 -->
<!-- Title: P4::FindTypesInLogMsgInvocationToReplace Pages: 1 -->
<svg width="172pt" height="152pt"
 viewBox="0.00 0.00 171.75 152.00" xmlns="http://www.w3.org/2000/svg" xmlns:xlink="http://www.w3.org/1999/xlink">
<g id="graph0" class="graph" transform="scale(1 1) rotate(0) translate(4 148)">
<title>P4::FindTypesInLogMsgInvocationToReplace</title>
<!-- Node1 -->
<g id="Node000001" class="node">
<title>Node1</title>
<g id="a_Node000001"><a xlink:title=" ">
<polygon fill="#999999" stroke="#666666" points="163.75,-32 0,-32 0,0 163.75,0 163.75,-32"/>
<text text-anchor="start" x="8" y="-18.5" font-family="Helvetica,sans-Serif" font-size="10.00">P4::FindTypesInLogMsgInvocation</text>
<text text-anchor="middle" x="81.88" y="-6.5" font-family="Helvetica,sans-Serif" font-size="10.00">ToReplace</text>
</a>
</g>
</g>
<!-- Node2 -->
<g id="Node000002" class="node">
<title>Node2</title>
<g id="a_Node000002"><a xlink:href="class_inspector.html" target="_top" xlink:title=" ">
<polygon fill="white" stroke="#bfbfbf" points="109.75,-88 54,-88 54,-68 109.75,-68 109.75,-88"/>
<text text-anchor="middle" x="81.88" y="-74.5" font-family="Helvetica,sans-Serif" font-size="10.00">Inspector</text>
</a>
</g>
</g>
<!-- Node2&#45;&gt;Node1 -->
<g id="edge1_Node000001_Node000002" class="edge">
<title>Node2&#45;&gt;Node1</title>
<g id="a_edge1_Node000001_Node000002"><a xlink:title=" ">
<path fill="none" stroke="#63b8ff" d="M81.88,-56.31C81.88,-48.37 81.88,-39.46 81.88,-32.14"/>
<polygon fill="#63b8ff" stroke="#63b8ff" points="78.38,-56.11 81.88,-66.11 85.38,-56.11 78.38,-56.11"/>
</a>
</g>
</g>
<!-- Node3 -->
<g id="Node000003" class="node">
<title>Node3</title>
<g id="a_Node000003"><a xlink:href="class_visitor.html" target="_top" xlink:title=" ">
<polygon fill="white" stroke="#bfbfbf" points="103.75,-144 60,-144 60,-124 103.75,-124 103.75,-144"/>
<text text-anchor="middle" x="81.88" y="-130.5" font-family="Helvetica,sans-Serif" font-size="10.00">Visitor</text>
</a>
</g>
</g>
<!-- Node3&#45;&gt;Node2 -->
<g id="edge2_Node000002_Node000003" class="edge">
<title>Node3&#45;&gt;Node2</title>
<g id="a_edge2_Node000002_Node000003"><a xlink:title=" ">
<path fill="none" stroke="#63b8ff" d="M81.88,-112.13C81.88,-103.9 81.88,-94.85 81.88,-88.3"/>
<polygon fill="#63b8ff" stroke="#63b8ff" points="78.38,-112.08 81.88,-122.08 85.38,-112.08 78.38,-112.08"/>
</a>
</g>
</g>
</g>
</svg>
