<?xml version="1.0" encoding="UTF-8" standalone="no"?>
<!DOCTYPE svg PUBLIC "-//W3C//DTD SVG 1.1//EN"
 "http://www.w3.org/Graphics/SVG/1.1/DTD/svg11.dtd">
<!-- Generated by graphviz version 10.0.1 (20240210.2158)
 -->
<!-- Title: P4::IndexedLocation Pages: 1 -->
<svg width="214pt" height="252pt"
 viewBox="0.00 0.00 214.00 252.00" xmlns="http://www.w3.org/2000/svg" xmlns:xlink="http://www.w3.org/1999/xlink">

<svg id="main" version="1.1" xmlns="http://www.w3.org/2000/svg" xmlns:xlink="http://www.w3.org/1999/xlink" xml:space="preserve" onload="init(evt)">
<style type="text/css"><![CDATA[
.node, .edge {opacity: 0.7;}
.node.selected, .edge.selected {opacity: 1;}
.edge:hover path { stroke: red; }
.edge:hover polygon { stroke: red; fill: red; }
]]></style>
<script type="application/ecmascript" xlink:href="svg.min.js"/>
<svg id="graph" class="graph">
<g id="graph0" class="graph" transform="scale(1 1) rotate(0) translate(4 248)">
<title>P4::IndexedLocation</title>
<!-- Node1 -->
<g id="Node000001" class="node">
<title>Node1</title>
<g id="a_Node000001"><a xlink:title="Interface for locations that support an index operation.">
<polygon fill="#999999" stroke="#666666" points="155.25,-76 50.75,-76 50.75,-56 155.25,-56 155.25,-76"/>
<text text-anchor="middle" x="103" y="-62.5" font-family="Helvetica,sans-Serif" font-size="10.00">P4::IndexedLocation</text>
</a>
</g>
</g>
<!-- Node6 -->
<g id="Node000006" class="node">
<title>Node6</title>
<g id="a_Node000006"><a xlink:href="class_p4_1_1_array_location.html" target="_top" xlink:title=" ">
<polygon fill="white" stroke="#bfbfbf" points="94,-20 0,-20 0,0 94,0 94,-20"/>
<text text-anchor="middle" x="47" y="-6.5" font-family="Helvetica,sans-Serif" font-size="10.00">P4::ArrayLocation</text>
</a>
</g>
</g>
<!-- Node1&#45;&gt;Node6 -->
<g id="edge5_Node000001_Node000006" class="edge">
<title>Node1&#45;&gt;Node6</title>
<g id="a_edge5_Node000001_Node000006"><a xlink:title=" ">
<path fill="none" stroke="#63b8ff" d="M85.21,-47.85C75.75,-38.72 64.48,-27.86 56.64,-20.3"/>
<polygon fill="#63b8ff" stroke="#63b8ff" points="82.53,-50.12 92.16,-54.54 87.39,-45.08 82.53,-50.12"/>
</a>
</g>
</g>
<!-- Node7 -->
<g id="Node000007" class="node">
<title>Node7</title>
<g id="a_Node000007"><a xlink:href="class_p4_1_1_tuple_location.html" target="_top" xlink:title=" ">
<polygon fill="white" stroke="#666666" points="206,-20 112,-20 112,0 206,0 206,-20"/>
<text text-anchor="middle" x="159" y="-6.5" font-family="Helvetica,sans-Serif" font-size="10.00">P4::TupleLocation</text>
</a>
</g>
</g>
<!-- Node1&#45;&gt;Node7 -->
<g id="edge6_Node000001_Node000007" class="edge">
<title>Node1&#45;&gt;Node7</title>
<g id="a_edge6_Node000001_Node000007"><a xlink:title=" ">
<path fill="none" stroke="#63b8ff" d="M120.79,-47.85C130.25,-38.72 141.52,-27.86 149.36,-20.3"/>
<polygon fill="#63b8ff" stroke="#63b8ff" points="118.61,-45.08 113.84,-54.54 123.47,-50.12 118.61,-45.08"/>
</a>
</g>
</g>
<!-- Node2 -->
<g id="Node000002" class="node">
<title>Node2</title>
<g id="a_Node000002"><a xlink:href="class_p4_1_1_storage_location.html" target="_top" xlink:title="Abstraction for something that is has a left value (variable, parameter)">
<polygon fill="white" stroke="#666666" points="155.25,-132 50.75,-132 50.75,-112 155.25,-112 155.25,-132"/>
<text text-anchor="middle" x="103" y="-118.5" font-family="Helvetica,sans-Serif" font-size="10.00">P4::StorageLocation</text>
</a>
</g>
</g>
<!-- Node2&#45;&gt;Node1 -->
<g id="edge1_Node000001_Node000002" class="edge">
<title>Node2&#45;&gt;Node1</title>
<g id="a_edge1_Node000001_Node000002"><a xlink:title=" ">
<path fill="none" stroke="#63b8ff" d="M103,-100.13C103,-91.9 103,-82.85 103,-76.3"/>
<polygon fill="#63b8ff" stroke="#63b8ff" points="99.5,-100.08 103,-110.08 106.5,-100.08 99.5,-100.08"/>
</a>
</g>
</g>
<!-- Node3 -->
<g id="Node000003" class="node">
<title>Node3</title>
<g id="a_Node000003"><a xlink:href="class_i_has_db_print.html" target="_top" xlink:title=" ">
<polygon fill="white" stroke="#bfbfbf" points="96.88,-188 29.13,-188 29.13,-168 96.88,-168 96.88,-188"/>
<text text-anchor="middle" x="63" y="-174.5" font-family="Helvetica,sans-Serif" font-size="10.00">IHasDbPrint</text>
</a>
</g>
</g>
<!-- Node3&#45;&gt;Node2 -->
<g id="edge2_Node000002_Node000003" class="edge">
<title>Node3&#45;&gt;Node2</title>
<g id="a_edge2_Node000002_Node000003"><a xlink:title=" ">
<path fill="none" stroke="#63b8ff" d="M76.75,-158.44C83.28,-149.62 90.8,-139.47 96.11,-132.3"/>
<polygon fill="#63b8ff" stroke="#63b8ff" points="74.01,-156.26 70.87,-166.38 79.63,-160.43 74.01,-156.26"/>
</a>
</g>
</g>
<!-- Node4 -->
<g id="Node000004" class="node">
<title>Node4</title>
<g id="a_Node000004"><a xlink:href="class_i_castable.html" target="_top" xlink:title=" ">
<polygon fill="white" stroke="#666666" points="171.25,-188 114.75,-188 114.75,-168 171.25,-168 171.25,-188"/>
<text text-anchor="middle" x="143" y="-174.5" font-family="Helvetica,sans-Serif" font-size="10.00">ICastable</text>
</a>
</g>
</g>
<!-- Node4&#45;&gt;Node2 -->
<g id="edge3_Node000002_Node000004" class="edge">
<title>Node4&#45;&gt;Node2</title>
<g id="a_edge3_Node000002_Node000004"><a xlink:title=" ">
<path fill="none" stroke="#63b8ff" d="M129.25,-158.44C122.72,-149.62 115.2,-139.47 109.89,-132.3"/>
<polygon fill="#63b8ff" stroke="#63b8ff" points="126.37,-160.43 135.13,-166.38 131.99,-156.26 126.37,-160.43"/>
</a>
</g>
</g>
<!-- Node5 -->
<g id="Node000005" class="node">
<title>Node5</title>
<g id="a_Node000005"><a xlink:href="struct_r_t_t_i_1_1_base.html" target="_top" xlink:title=" ">
<polygon fill="white" stroke="#bfbfbf" points="175,-244 111,-244 111,-224 175,-224 175,-244"/>
<text text-anchor="middle" x="143" y="-230.5" font-family="Helvetica,sans-Serif" font-size="10.00">RTTI::Base</text>
</a>
</g>
</g>
<!-- Node5&#45;&gt;Node4 -->
<g id="edge4_Node000004_Node000005" class="edge">
<title>Node5&#45;&gt;Node4</title>
<g id="a_edge4_Node000004_Node000005"><a xlink:title=" ">
<path fill="none" stroke="#63b8ff" d="M143,-212.13C143,-203.9 143,-194.85 143,-188.3"/>
<polygon fill="#63b8ff" stroke="#63b8ff" points="139.5,-212.08 143,-222.08 146.5,-212.08 139.5,-212.08"/>
</a>
</g>
</g>
</g>
</svg>
</svg>

<style type='text/css'>
<![CDATA[
[data-mouse-over-selected='false'] { opacity: 0.7; }
[data-mouse-over-selected='true']  { opacity: 1.0; }
]]>
</style>
<script type="application/ecmascript"><![CDATA[
document.addEventListener('DOMContentLoaded', (event) => {
  highlightEdges();
  highlightAdjacentNodes();
});
]]></script>
</svg>
