<?xml version="1.0" encoding="UTF-8" standalone="no"?>
<!DOCTYPE svg PUBLIC "-//W3C//DTD SVG 1.1//EN"
 "http://www.w3.org/Graphics/SVG/1.1/DTD/svg11.dtd">
<!-- Generated by graphviz version 10.0.1 (20240210.2158)
 -->
<!-- Title: EBPF::EBPFTablePsaPropertyVisitor Pages: 1 -->
<svg width="551pt" height="140pt"
 viewBox="0.00 0.00 551.25 140.00" xmlns="http://www.w3.org/2000/svg" xmlns:xlink="http://www.w3.org/1999/xlink">
<g id="graph0" class="graph" transform="scale(1 1) rotate(0) translate(4 136)">
<title>EBPF::EBPFTablePsaPropertyVisitor</title>
<!-- Node1 -->
<g id="Node000001" class="node">
<title>Node1</title>
<g id="a_Node000001"><a xlink:title=" ">
<polygon fill="#999999" stroke="#666666" points="323.25,-82 171.5,-82 171.5,-50 323.25,-50 323.25,-82"/>
<text text-anchor="start" x="179.5" y="-68.5" font-family="Helvetica,sans-Serif" font-size="10.00">EBPF::EBPFTablePsaProperty</text>
<text text-anchor="middle" x="247.38" y="-56.5" font-family="Helvetica,sans-Serif" font-size="10.00">Visitor</text>
</a>
</g>
</g>
<!-- Node4 -->
<g id="Node000004" class="node">
<title>Node4</title>
<g id="a_Node000004"><a xlink:href="class_e_b_p_f_1_1_e_b_p_f_table_p_s_a_direct_counter_property_visitor.html" target="_top" xlink:title=" ">
<polygon fill="white" stroke="#bfbfbf" points="523,-132 379.5,-132 379.5,-100 523,-100 523,-132"/>
<text text-anchor="start" x="387.5" y="-118.5" font-family="Helvetica,sans-Serif" font-size="10.00">EBPF::EBPFTablePSADirect</text>
<text text-anchor="middle" x="451.25" y="-106.5" font-family="Helvetica,sans-Serif" font-size="10.00">CounterPropertyVisitor</text>
</a>
</g>
</g>
<!-- Node1&#45;&gt;Node4 -->
<g id="edge3_Node000001_Node000004" class="edge">
<title>Node1&#45;&gt;Node4</title>
<g id="a_edge3_Node000001_Node000004"><a xlink:title=" ">
<path fill="none" stroke="#63b8ff" d="M325.85,-85.19C344.98,-89.93 365.29,-94.96 383.83,-99.55"/>
<polygon fill="#63b8ff" stroke="#63b8ff" points="326.77,-81.81 316.23,-82.81 325.09,-88.61 326.77,-81.81"/>
</a>
</g>
</g>
<!-- Node5 -->
<g id="Node000005" class="node">
<title>Node5</title>
<g id="a_Node000005"><a xlink:href="class_e_b_p_f_1_1_e_b_p_f_table_p_s_a_direct_meter_property_visitor.html" target="_top" xlink:title=" ">
<polygon fill="white" stroke="#bfbfbf" points="523,-82 379.5,-82 379.5,-50 523,-50 523,-82"/>
<text text-anchor="start" x="387.5" y="-68.5" font-family="Helvetica,sans-Serif" font-size="10.00">EBPF::EBPFTablePSADirect</text>
<text text-anchor="middle" x="451.25" y="-56.5" font-family="Helvetica,sans-Serif" font-size="10.00">MeterPropertyVisitor</text>
</a>
</g>
</g>
<!-- Node1&#45;&gt;Node5 -->
<g id="edge4_Node000001_Node000005" class="edge">
<title>Node1&#45;&gt;Node5</title>
<g id="a_edge4_Node000001_Node000005"><a xlink:title=" ">
<path fill="none" stroke="#63b8ff" d="M334.74,-66C349.51,-66 364.71,-66 379.03,-66"/>
<polygon fill="#63b8ff" stroke="#63b8ff" points="335.06,-62.5 325.06,-66 335.06,-69.5 335.06,-62.5"/>
</a>
</g>
</g>
<!-- Node6 -->
<g id="Node000006" class="node">
<title>Node6</title>
<g id="a_Node000006"><a xlink:href="class_e_b_p_f_1_1_e_b_p_f_table_p_s_a_implementation_property_visitor.html" target="_top" xlink:title=" ">
<polygon fill="white" stroke="#bfbfbf" points="543.25,-32 359.25,-32 359.25,0 543.25,0 543.25,-32"/>
<text text-anchor="start" x="367.25" y="-18.5" font-family="Helvetica,sans-Serif" font-size="10.00">EBPF::EBPFTablePSAImplementation</text>
<text text-anchor="middle" x="451.25" y="-6.5" font-family="Helvetica,sans-Serif" font-size="10.00">PropertyVisitor</text>
</a>
</g>
</g>
<!-- Node1&#45;&gt;Node6 -->
<g id="edge5_Node000001_Node000006" class="edge">
<title>Node1&#45;&gt;Node6</title>
<g id="a_edge5_Node000001_Node000006"><a xlink:title=" ">
<path fill="none" stroke="#63b8ff" d="M325.85,-46.81C344.98,-42.07 365.29,-37.04 383.83,-32.45"/>
<polygon fill="#63b8ff" stroke="#63b8ff" points="325.09,-43.39 316.23,-49.19 326.77,-50.19 325.09,-43.39"/>
</a>
</g>
</g>
<!-- Node2 -->
<g id="Node000002" class="node">
<title>Node2</title>
<g id="a_Node000002"><a xlink:href="class_inspector.html" target="_top" xlink:title=" ">
<polygon fill="white" stroke="#bfbfbf" points="135.5,-76 79.75,-76 79.75,-56 135.5,-56 135.5,-76"/>
<text text-anchor="middle" x="107.62" y="-62.5" font-family="Helvetica,sans-Serif" font-size="10.00">Inspector</text>
</a>
</g>
</g>
<!-- Node2&#45;&gt;Node1 -->
<g id="edge1_Node000001_Node000002" class="edge">
<title>Node2&#45;&gt;Node1</title>
<g id="a_edge1_Node000001_Node000002"><a xlink:title=" ">
<path fill="none" stroke="#63b8ff" d="M147.16,-66C154.72,-66 162.9,-66 171.2,-66"/>
<polygon fill="#63b8ff" stroke="#63b8ff" points="147.35,-62.5 137.35,-66 147.35,-69.5 147.35,-62.5"/>
</a>
</g>
</g>
<!-- Node3 -->
<g id="Node000003" class="node">
<title>Node3</title>
<g id="a_Node000003"><a xlink:href="class_visitor.html" target="_top" xlink:title=" ">
<polygon fill="white" stroke="#bfbfbf" points="43.75,-76 0,-76 0,-56 43.75,-56 43.75,-76"/>
<text text-anchor="middle" x="21.88" y="-62.5" font-family="Helvetica,sans-Serif" font-size="10.00">Visitor</text>
</a>
</g>
</g>
<!-- Node3&#45;&gt;Node2 -->
<g id="edge2_Node000002_Node000003" class="edge">
<title>Node3&#45;&gt;Node2</title>
<g id="a_edge2_Node000002_Node000003"><a xlink:title=" ">
<path fill="none" stroke="#63b8ff" d="M55.52,-66C63.44,-66 71.83,-66 79.47,-66"/>
<polygon fill="#63b8ff" stroke="#63b8ff" points="55.52,-62.5 45.52,-66 55.52,-69.5 55.52,-62.5"/>
</a>
</g>
</g>
</g>
</svg>
