<?xml version="1.0" encoding="UTF-8" standalone="no"?>
<!DOCTYPE svg PUBLIC "-//W3C//DTD SVG 1.1//EN"
 "http://www.w3.org/Graphics/SVG/1.1/DTD/svg11.dtd">
<!-- Generated by graphviz version 10.0.1 (20240210.2158)
 -->
<!-- Title: P4Tools::P4Testgen::TestgenTarget Pages: 1 -->
<svg width="417pt" height="152pt"
 viewBox="0.00 0.00 416.75 152.00" xmlns="http://www.w3.org/2000/svg" xmlns:xlink="http://www.w3.org/1999/xlink">
<g id="graph0" class="graph" transform="scale(1 1) rotate(0) translate(4 148)">
<title>P4Tools::P4Testgen::TestgenTarget</title>
<!-- Node1 -->
<g id="Node000001" class="node">
<title>Node1</title>
<g id="a_Node000001"><a xlink:title=" ">
<polygon fill="#999999" stroke="#666666" points="224,-82 120.25,-82 120.25,-50 224,-50 224,-82"/>
<text text-anchor="start" x="128.25" y="-68.5" font-family="Helvetica,sans-Serif" font-size="10.00">P4Tools::P4Testgen</text>
<text text-anchor="middle" x="172.12" y="-56.5" font-family="Helvetica,sans-Serif" font-size="10.00">::TestgenTarget</text>
</a>
</g>
</g>
<!-- Node3 -->
<g id="Node000003" class="node">
<title>Node3</title>
<g id="a_Node000003"><a xlink:href="class_p4_tools_1_1_p4_testgen_1_1_bmv2_1_1_bmv2_v1_model_testgen_target.html" target="_top" xlink:title=" ">
<polygon fill="white" stroke="#bfbfbf" points="408.75,-144 260,-144 260,-100 408.75,-100 408.75,-144"/>
<text text-anchor="start" x="268" y="-130.5" font-family="Helvetica,sans-Serif" font-size="10.00">P4Tools::P4Testgen</text>
<text text-anchor="start" x="268" y="-118.5" font-family="Helvetica,sans-Serif" font-size="10.00">::Bmv2::Bmv2V1ModelTestgen</text>
<text text-anchor="middle" x="334.38" y="-106.5" font-family="Helvetica,sans-Serif" font-size="10.00">Target</text>
</a>
</g>
</g>
<!-- Node1&#45;&gt;Node3 -->
<g id="edge2_Node000001_Node000003" class="edge">
<title>Node1&#45;&gt;Node3</title>
<g id="a_edge2_Node000001_Node000003"><a xlink:title=" ">
<path fill="none" stroke="#63b8ff" d="M231.02,-86.23C243.44,-90.57 256.64,-95.18 269.28,-99.6"/>
<polygon fill="#63b8ff" stroke="#63b8ff" points="232.36,-82.99 221.77,-83 230.05,-89.6 232.36,-82.99"/>
</a>
</g>
</g>
<!-- Node4 -->
<g id="Node000004" class="node">
<title>Node4</title>
<g id="a_Node000004"><a xlink:href="class_p4_tools_1_1_p4_testgen_1_1_e_b_p_f_1_1_e_b_p_f_testgen_target.html" target="_top" xlink:title=" ">
<polygon fill="white" stroke="#bfbfbf" points="405.38,-82 263.38,-82 263.38,-50 405.38,-50 405.38,-82"/>
<text text-anchor="start" x="271.38" y="-68.5" font-family="Helvetica,sans-Serif" font-size="10.00">P4Tools::P4Testgen</text>
<text text-anchor="middle" x="334.38" y="-56.5" font-family="Helvetica,sans-Serif" font-size="10.00">::EBPF::EBPFTestgenTarget</text>
</a>
</g>
</g>
<!-- Node1&#45;&gt;Node4 -->
<g id="edge3_Node000001_Node000004" class="edge">
<title>Node1&#45;&gt;Node4</title>
<g id="a_edge3_Node000001_Node000004"><a xlink:title=" ">
<path fill="none" stroke="#63b8ff" d="M235.53,-66C244.58,-66 253.95,-66 263.14,-66"/>
<polygon fill="#63b8ff" stroke="#63b8ff" points="235.78,-62.5 225.78,-66 235.78,-69.5 235.78,-62.5"/>
</a>
</g>
</g>
<!-- Node5 -->
<g id="Node000005" class="node">
<title>Node5</title>
<g id="a_Node000005"><a xlink:href="class_p4_tools_1_1_p4_testgen_1_1_pna_1_1_pna_dpdk_testgen_target.html" target="_top" xlink:title=" ">
<polygon fill="white" stroke="#bfbfbf" points="407.62,-32 261.12,-32 261.12,0 407.62,0 407.62,-32"/>
<text text-anchor="start" x="269.12" y="-18.5" font-family="Helvetica,sans-Serif" font-size="10.00">P4Tools::P4Testgen</text>
<text text-anchor="middle" x="334.38" y="-6.5" font-family="Helvetica,sans-Serif" font-size="10.00">::Pna::PnaDpdkTestgenTarget</text>
</a>
</g>
</g>
<!-- Node1&#45;&gt;Node5 -->
<g id="edge4_Node000001_Node000005" class="edge">
<title>Node1&#45;&gt;Node5</title>
<g id="a_edge4_Node000001_Node000005"><a xlink:title=" ">
<path fill="none" stroke="#63b8ff" d="M235.01,-46.69C250.03,-42 265.95,-37.04 280.51,-32.49"/>
<polygon fill="#63b8ff" stroke="#63b8ff" points="234.22,-43.27 225.71,-49.59 236.3,-49.95 234.22,-43.27"/>
</a>
</g>
</g>
<!-- Node2 -->
<g id="Node000002" class="node">
<title>Node2</title>
<g id="a_Node000002"><a xlink:href="class_p4_tools_1_1_target.html" target="_top" xlink:title=" ">
<polygon fill="white" stroke="#666666" points="84.25,-76 0,-76 0,-56 84.25,-56 84.25,-76"/>
<text text-anchor="middle" x="42.12" y="-62.5" font-family="Helvetica,sans-Serif" font-size="10.00">P4Tools::Target</text>
</a>
</g>
</g>
<!-- Node2&#45;&gt;Node1 -->
<g id="edge1_Node000001_Node000002" class="edge">
<title>Node2&#45;&gt;Node1</title>
<g id="a_edge1_Node000001_Node000002"><a xlink:title=" ">
<path fill="none" stroke="#63b8ff" d="M96.03,-66C103.93,-66 112.06,-66 119.93,-66"/>
<polygon fill="#63b8ff" stroke="#63b8ff" points="96.2,-62.5 86.2,-66 96.2,-69.5 96.2,-62.5"/>
</a>
</g>
</g>
</g>
</svg>
