<?xml version="1.0" encoding="UTF-8" standalone="no"?>
<!DOCTYPE svg PUBLIC "-//W3C//DTD SVG 1.1//EN"
 "http://www.w3.org/Graphics/SVG/1.1/DTD/svg11.dtd">
<!-- Generated by graphviz version 10.0.1 (20240210.2158)
 -->
<!-- Title: IR::Vector&lt; T &gt; Pages: 1 -->
<svg width="794pt" height="628pt"
 viewBox="0.00 0.00 794.25 628.00" xmlns="http://www.w3.org/2000/svg" xmlns:xlink="http://www.w3.org/1999/xlink">
<g id="graph0" class="graph" transform="scale(1 1) rotate(0) translate(4 624)">
<title>IR::Vector&lt; T &gt;</title>
<!-- Node1 -->
<g id="Node000001" class="node">
<title>Node1</title>
<g id="a_Node000001"><a xlink:title=" ">
<polygon fill="#999999" stroke="#666666" points="619.5,-314 536.75,-314 536.75,-294 619.5,-294 619.5,-314"/>
<text text-anchor="middle" x="578.12" y="-300.5" font-family="Helvetica,sans-Serif" font-size="10.00">IR::Vector&lt; T &gt;</text>
</a>
</g>
</g>
<!-- Node9 -->
<g id="Node000009" class="node">
<title>Node9</title>
<g id="a_Node000009"><a xlink:href="class_i_r_1_1_indexed_vector.html" target="_top" xlink:title=" ">
<polygon fill="white" stroke="#666666" points="786.25,-620 655.5,-620 655.5,-588 786.25,-588 786.25,-620"/>
<text text-anchor="start" x="663.5" y="-606.5" font-family="Helvetica,sans-Serif" font-size="10.00">IR::IndexedVector&lt;</text>
<text text-anchor="middle" x="720.88" y="-594.5" font-family="Helvetica,sans-Serif" font-size="10.00"> IR::DpdkAsmStatement &gt;</text>
</a>
</g>
</g>
<!-- Node1&#45;&gt;Node9 -->
<g id="edge8_Node000001_Node000009" class="edge">
<title>Node1&#45;&gt;Node9</title>
<g id="a_edge8_Node000001_Node000009"><a xlink:title=" ">
<path fill="none" stroke="#63b8ff" d="M578.92,-325.7C579.62,-376.57 588.36,-504.82 655.5,-579 658.48,-582.29 661.94,-585.15 665.68,-587.64"/>
<polygon fill="#63b8ff" stroke="#63b8ff" points="582.42,-325.76 578.89,-315.77 575.42,-325.78 582.42,-325.76"/>
</a>
</g>
</g>
<!-- Node10 -->
<g id="Node000010" class="node">
<title>Node10</title>
<g id="a_Node000010"><a xlink:href="class_i_r_1_1_indexed_vector.html" target="_top" xlink:title=" ">
<polygon fill="white" stroke="#666666" points="770.5,-570 671.25,-570 671.25,-538 770.5,-538 770.5,-570"/>
<text text-anchor="start" x="679.25" y="-556.5" font-family="Helvetica,sans-Serif" font-size="10.00">IR::IndexedVector&lt;</text>
<text text-anchor="middle" x="720.88" y="-544.5" font-family="Helvetica,sans-Serif" font-size="10.00"> IR::Node &gt;</text>
</a>
</g>
</g>
<!-- Node1&#45;&gt;Node10 -->
<g id="edge9_Node000001_Node000010" class="edge">
<title>Node1&#45;&gt;Node10</title>
<g id="a_edge9_Node000001_Node000010"><a xlink:title=" ">
<path fill="none" stroke="#63b8ff" d="M580.49,-325.26C584.43,-369.13 599.41,-470.43 655.5,-529 659.9,-533.59 665.23,-537.35 670.93,-540.43"/>
<polygon fill="#63b8ff" stroke="#63b8ff" points="584,-325.26 579.74,-315.56 577.02,-325.8 584,-325.26"/>
</a>
</g>
</g>
<!-- Node11 -->
<g id="Node000011" class="node">
<title>Node11</title>
<g id="a_Node000011"><a xlink:href="class_i_r_1_1_indexed_vector.html" target="_top" xlink:title=" ">
<polygon fill="white" stroke="#666666" points="770.5,-520 671.25,-520 671.25,-488 770.5,-488 770.5,-520"/>
<text text-anchor="start" x="679.25" y="-506.5" font-family="Helvetica,sans-Serif" font-size="10.00">IR::IndexedVector&lt;</text>
<text text-anchor="middle" x="720.88" y="-494.5" font-family="Helvetica,sans-Serif" font-size="10.00"> IR::Declaration &gt;</text>
</a>
</g>
</g>
<!-- Node1&#45;&gt;Node11 -->
<g id="edge10_Node000001_Node000011" class="edge">
<title>Node1&#45;&gt;Node11</title>
<g id="a_edge10_Node000001_Node000011"><a xlink:title=" ">
<path fill="none" stroke="#63b8ff" d="M582.93,-325.43C590.46,-361.81 610.57,-435.88 655.5,-479 660,-483.32 665.32,-486.91 670.96,-489.9"/>
<polygon fill="#63b8ff" stroke="#63b8ff" points="586.39,-324.89 581.06,-315.74 579.52,-326.22 586.39,-324.89"/>
</a>
</g>
</g>
<!-- Node12 -->
<g id="Node000012" class="node">
<title>Node12</title>
<g id="a_Node000012"><a xlink:href="class_i_r_1_1_indexed_vector.html" target="_top" xlink:title=" ">
<polygon fill="white" stroke="#666666" points="770.5,-470 671.25,-470 671.25,-438 770.5,-438 770.5,-470"/>
<text text-anchor="start" x="679.25" y="-456.5" font-family="Helvetica,sans-Serif" font-size="10.00">IR::IndexedVector&lt;</text>
<text text-anchor="middle" x="720.88" y="-444.5" font-family="Helvetica,sans-Serif" font-size="10.00"> IR::StatOrDecl &gt;</text>
</a>
</g>
</g>
<!-- Node1&#45;&gt;Node12 -->
<g id="edge11_Node000001_Node000012" class="edge">
<title>Node1&#45;&gt;Node12</title>
<g id="a_edge11_Node000001_Node000012"><a xlink:title=" ">
<path fill="none" stroke="#63b8ff" d="M586.95,-325.01C598.18,-352.47 621.34,-400.44 655.5,-429 660.1,-432.85 665.36,-436.14 670.84,-438.96"/>
<polygon fill="#63b8ff" stroke="#63b8ff" points="590.21,-323.73 583.31,-315.7 583.7,-326.29 590.21,-323.73"/>
</a>
</g>
</g>
<!-- Node13 -->
<g id="Node000013" class="node">
<title>Node13</title>
<g id="a_Node000013"><a xlink:href="class_i_r_1_1_indexed_vector.html" target="_top" xlink:title=" ">
<polygon fill="white" stroke="#666666" points="770.5,-420 671.25,-420 671.25,-388 770.5,-388 770.5,-420"/>
<text text-anchor="start" x="679.25" y="-406.5" font-family="Helvetica,sans-Serif" font-size="10.00">IR::IndexedVector&lt;</text>
<text text-anchor="middle" x="720.88" y="-394.5" font-family="Helvetica,sans-Serif" font-size="10.00"> IR::DpdkTable &gt;</text>
</a>
</g>
</g>
<!-- Node1&#45;&gt;Node13 -->
<g id="edge12_Node000001_Node000013" class="edge">
<title>Node1&#45;&gt;Node13</title>
<g id="a_edge12_Node000001_Node000013"><a xlink:title=" ">
<path fill="none" stroke="#63b8ff" d="M594.27,-322.71C608.58,-339.36 631.39,-363.43 655.5,-379 660.44,-382.19 665.84,-385.07 671.35,-387.65"/>
<polygon fill="#63b8ff" stroke="#63b8ff" points="597.32,-320.89 588.22,-315.48 591.96,-325.39 597.32,-320.89"/>
</a>
</g>
</g>
<!-- Node14 -->
<g id="Node000014" class="node">
<title>Node14</title>
<g id="a_Node000014"><a xlink:href="class_i_r_1_1_indexed_vector.html" target="_top" xlink:title=" ">
<polygon fill="white" stroke="#666666" points="771.62,-370 670.12,-370 670.12,-338 771.62,-338 771.62,-370"/>
<text text-anchor="start" x="678.12" y="-356.5" font-family="Helvetica,sans-Serif" font-size="10.00">IR::IndexedVector&lt;</text>
<text text-anchor="middle" x="720.88" y="-344.5" font-family="Helvetica,sans-Serif" font-size="10.00"> IR::DpdkSelector &gt;</text>
</a>
</g>
</g>
<!-- Node1&#45;&gt;Node14 -->
<g id="edge13_Node000001_Node000014" class="edge">
<title>Node1&#45;&gt;Node14</title>
<g id="a_edge13_Node000001_Node000014"><a xlink:title=" ">
<path fill="none" stroke="#63b8ff" d="M619.28,-318.26C636.19,-324.27 655.98,-331.3 673.51,-337.53"/>
<polygon fill="#63b8ff" stroke="#63b8ff" points="620.65,-315.04 610.06,-314.99 618.31,-321.63 620.65,-315.04"/>
</a>
</g>
</g>
<!-- Node15 -->
<g id="Node000015" class="node">
<title>Node15</title>
<g id="a_Node000015"><a xlink:href="class_i_r_1_1_indexed_vector.html" target="_top" xlink:title=" ">
<polygon fill="white" stroke="#666666" points="770.5,-320 671.25,-320 671.25,-288 770.5,-288 770.5,-320"/>
<text text-anchor="start" x="679.25" y="-306.5" font-family="Helvetica,sans-Serif" font-size="10.00">IR::IndexedVector&lt;</text>
<text text-anchor="middle" x="720.88" y="-294.5" font-family="Helvetica,sans-Serif" font-size="10.00"> IR::DpdkLearner &gt;</text>
</a>
</g>
</g>
<!-- Node1&#45;&gt;Node15 -->
<g id="edge14_Node000001_Node000015" class="edge">
<title>Node1&#45;&gt;Node15</title>
<g id="a_edge14_Node000001_Node000015"><a xlink:title=" ">
<path fill="none" stroke="#63b8ff" d="M630.98,-304C643.99,-304 657.91,-304 670.78,-304"/>
<polygon fill="#63b8ff" stroke="#63b8ff" points="631.35,-300.5 621.35,-304 631.35,-307.5 631.35,-300.5"/>
</a>
</g>
</g>
<!-- Node16 -->
<g id="Node000016" class="node">
<title>Node16</title>
<g id="a_Node000016"><a xlink:href="class_i_r_1_1_indexed_vector.html" target="_top" xlink:title=" ">
<polygon fill="white" stroke="#666666" points="770.5,-270 671.25,-270 671.25,-238 770.5,-238 770.5,-270"/>
<text text-anchor="start" x="679.25" y="-256.5" font-family="Helvetica,sans-Serif" font-size="10.00">IR::IndexedVector&lt;</text>
<text text-anchor="middle" x="720.88" y="-244.5" font-family="Helvetica,sans-Serif" font-size="10.00"> IR::DpdkAction &gt;</text>
</a>
</g>
</g>
<!-- Node1&#45;&gt;Node16 -->
<g id="edge15_Node000001_Node000016" class="edge">
<title>Node1&#45;&gt;Node16</title>
<g id="a_edge15_Node000001_Node000016"><a xlink:title=" ">
<path fill="none" stroke="#63b8ff" d="M619.28,-289.74C636.19,-283.73 655.98,-276.7 673.51,-270.47"/>
<polygon fill="#63b8ff" stroke="#63b8ff" points="618.31,-286.37 610.06,-293.01 620.65,-292.96 618.31,-286.37"/>
</a>
</g>
</g>
<!-- Node17 -->
<g id="Node000017" class="node">
<title>Node17</title>
<g id="a_Node000017"><a xlink:href="class_i_r_1_1_indexed_vector.html" target="_top" xlink:title=" ">
<polygon fill="white" stroke="#666666" points="770.5,-220 671.25,-220 671.25,-188 770.5,-188 770.5,-220"/>
<text text-anchor="start" x="679.25" y="-206.5" font-family="Helvetica,sans-Serif" font-size="10.00">IR::IndexedVector&lt;</text>
<text text-anchor="middle" x="720.88" y="-194.5" font-family="Helvetica,sans-Serif" font-size="10.00"> IR::Parameter &gt;</text>
</a>
</g>
</g>
<!-- Node1&#45;&gt;Node17 -->
<g id="edge16_Node000001_Node000017" class="edge">
<title>Node1&#45;&gt;Node17</title>
<g id="a_edge16_Node000001_Node000017"><a xlink:title=" ">
<path fill="none" stroke="#63b8ff" d="M594.27,-285.29C608.58,-268.64 631.39,-244.57 655.5,-229 660.44,-225.81 665.84,-222.93 671.35,-220.35"/>
<polygon fill="#63b8ff" stroke="#63b8ff" points="591.96,-282.61 588.22,-292.52 597.32,-287.11 591.96,-282.61"/>
</a>
</g>
</g>
<!-- Node18 -->
<g id="Node000018" class="node">
<title>Node18</title>
<g id="a_Node000018"><a xlink:href="class_i_r_1_1_indexed_vector.html" target="_top" xlink:title=" ">
<polygon fill="white" stroke="#666666" points="778,-170 663.75,-170 663.75,-138 778,-138 778,-170"/>
<text text-anchor="start" x="671.75" y="-156.5" font-family="Helvetica,sans-Serif" font-size="10.00">IR::IndexedVector&lt;</text>
<text text-anchor="middle" x="720.88" y="-144.5" font-family="Helvetica,sans-Serif" font-size="10.00"> IR::DpdkDeclaration &gt;</text>
</a>
</g>
</g>
<!-- Node1&#45;&gt;Node18 -->
<g id="edge17_Node000001_Node000018" class="edge">
<title>Node1&#45;&gt;Node18</title>
<g id="a_edge17_Node000001_Node000018"><a xlink:title=" ">
<path fill="none" stroke="#63b8ff" d="M586.95,-282.99C598.18,-255.53 621.34,-207.56 655.5,-179 659.36,-175.77 663.69,-172.93 668.23,-170.43"/>
<polygon fill="#63b8ff" stroke="#63b8ff" points="583.7,-281.71 583.31,-292.3 590.21,-284.27 583.7,-281.71"/>
</a>
</g>
</g>
<!-- Node19 -->
<g id="Node000019" class="node">
<title>Node19</title>
<g id="a_Node000019"><a xlink:href="class_i_r_1_1_indexed_vector.html" target="_top" xlink:title=" ">
<polygon fill="white" stroke="#666666" points="770.5,-120 671.25,-120 671.25,-88 770.5,-88 770.5,-120"/>
<text text-anchor="start" x="679.25" y="-106.5" font-family="Helvetica,sans-Serif" font-size="10.00">IR::IndexedVector&lt;</text>
<text text-anchor="middle" x="720.88" y="-94.5" font-family="Helvetica,sans-Serif" font-size="10.00"> IR::StructField &gt;</text>
</a>
</g>
</g>
<!-- Node1&#45;&gt;Node19 -->
<g id="edge18_Node000001_Node000019" class="edge">
<title>Node1&#45;&gt;Node19</title>
<g id="a_edge18_Node000001_Node000019"><a xlink:title=" ">
<path fill="none" stroke="#63b8ff" d="M582.93,-282.57C590.46,-246.19 610.57,-172.12 655.5,-129 660,-124.68 665.32,-121.09 670.96,-118.1"/>
<polygon fill="#63b8ff" stroke="#63b8ff" points="579.52,-281.78 581.06,-292.26 586.39,-283.11 579.52,-281.78"/>
</a>
</g>
</g>
<!-- Node20 -->
<g id="Node000020" class="node">
<title>Node20</title>
<g id="a_Node000020"><a xlink:href="class_i_r_1_1_indexed_vector.html" target="_top" xlink:title=" ">
<polygon fill="white" stroke="#666666" points="770.5,-70 671.25,-70 671.25,-38 770.5,-38 770.5,-70"/>
<text text-anchor="start" x="679.25" y="-56.5" font-family="Helvetica,sans-Serif" font-size="10.00">IR::IndexedVector&lt;</text>
<text text-anchor="middle" x="720.88" y="-44.5" font-family="Helvetica,sans-Serif" font-size="10.00"> IR::ParserState &gt;</text>
</a>
</g>
</g>
<!-- Node1&#45;&gt;Node20 -->
<g id="edge19_Node000001_Node000020" class="edge">
<title>Node1&#45;&gt;Node20</title>
<g id="a_edge19_Node000001_Node000020"><a xlink:title=" ">
<path fill="none" stroke="#63b8ff" d="M580.49,-282.74C584.43,-238.87 599.41,-137.57 655.5,-79 659.9,-74.41 665.23,-70.65 670.93,-67.57"/>
<polygon fill="#63b8ff" stroke="#63b8ff" points="577.02,-282.2 579.74,-292.44 584,-282.74 577.02,-282.2"/>
</a>
</g>
</g>
<!-- Node21 -->
<g id="Node000021" class="node">
<title>Node21</title>
<g id="a_Node000021"><a xlink:href="class_i_r_1_1_indexed_vector.html" target="_top" xlink:title=" ">
<polygon fill="white" stroke="#666666" points="779.12,-20 662.62,-20 662.62,0 779.12,0 779.12,-20"/>
<text text-anchor="middle" x="720.88" y="-6.5" font-family="Helvetica,sans-Serif" font-size="10.00">IR::IndexedVector&lt; T &gt;</text>
</a>
</g>
</g>
<!-- Node1&#45;&gt;Node21 -->
<g id="edge20_Node000001_Node000021" class="edge">
<title>Node1&#45;&gt;Node21</title>
<g id="a_edge20_Node000001_Node000021"><a xlink:title=" ">
<path fill="none" stroke="#63b8ff" d="M578.52,-282.25C578.31,-230.77 585.17,-100.47 655.5,-29 658.85,-25.59 662.78,-22.79 667.02,-20.49"/>
<polygon fill="#63b8ff" stroke="#63b8ff" points="575.01,-282.09 578.66,-292.04 582.01,-281.99 575.01,-282.09"/>
</a>
</g>
</g>
<!-- Node2 -->
<g id="Node000002" class="node">
<title>Node2</title>
<g id="a_Node000002"><a xlink:href="class_i_r_1_1_vector_base.html" target="_top" xlink:title=" ">
<polygon fill="white" stroke="#bfbfbf" points="500.75,-314 418.75,-314 418.75,-294 500.75,-294 500.75,-314"/>
<text text-anchor="middle" x="459.75" y="-300.5" font-family="Helvetica,sans-Serif" font-size="10.00">IR::VectorBase</text>
</a>
</g>
</g>
<!-- Node2&#45;&gt;Node1 -->
<g id="edge1_Node000001_Node000002" class="edge">
<title>Node2&#45;&gt;Node1</title>
<g id="a_edge1_Node000001_Node000002"><a xlink:title=" ">
<path fill="none" stroke="#63b8ff" d="M512.63,-304C520.6,-304 528.74,-304 536.43,-304"/>
<polygon fill="#63b8ff" stroke="#63b8ff" points="512.64,-300.5 502.64,-304 512.64,-307.5 512.64,-300.5"/>
</a>
</g>
</g>
<!-- Node3 -->
<g id="Node000003" class="node">
<title>Node3</title>
<g id="a_Node000003"><a xlink:href="class_i_r_1_1_node.html" target="_top" xlink:title=" ">
<polygon fill="white" stroke="#bfbfbf" points="382.75,-314 329.25,-314 329.25,-294 382.75,-294 382.75,-314"/>
<text text-anchor="middle" x="356" y="-300.5" font-family="Helvetica,sans-Serif" font-size="10.00">IR::Node</text>
</a>
</g>
</g>
<!-- Node3&#45;&gt;Node2 -->
<g id="edge2_Node000002_Node000003" class="edge">
<title>Node3&#45;&gt;Node2</title>
<g id="a_edge2_Node000002_Node000003"><a xlink:title=" ">
<path fill="none" stroke="#63b8ff" d="M394.55,-304C402.32,-304 410.54,-304 418.41,-304"/>
<polygon fill="#63b8ff" stroke="#63b8ff" points="394.72,-300.5 384.72,-304 394.72,-307.5 394.72,-300.5"/>
</a>
</g>
</g>
<!-- Node4 -->
<g id="Node000004" class="node">
<title>Node4</title>
<g id="a_Node000004"><a xlink:href="class_i_r_1_1_i_node.html" target="_top" xlink:title=" ">
<polygon fill="white" stroke="#bfbfbf" points="293.25,-314 237.5,-314 237.5,-294 293.25,-294 293.25,-314"/>
<text text-anchor="middle" x="265.38" y="-300.5" font-family="Helvetica,sans-Serif" font-size="10.00">IR::INode</text>
</a>
</g>
</g>
<!-- Node4&#45;&gt;Node3 -->
<g id="edge3_Node000003_Node000004" class="edge">
<title>Node4&#45;&gt;Node3</title>
<g id="a_edge3_Node000003_Node000004"><a xlink:title=" ">
<path fill="none" stroke="#63b8ff" d="M304.73,-304C312.93,-304 321.4,-304 329,-304"/>
<polygon fill="#63b8ff" stroke="#63b8ff" points="304.96,-300.5 294.96,-304 304.96,-307.5 304.96,-300.5"/>
</a>
</g>
</g>
<!-- Node5 -->
<g id="Node000005" class="node">
<title>Node5</title>
<g id="a_Node000005"><a xlink:href="class_util_1_1_i_has_source_info.html" target="_top" xlink:title=" ">
<polygon fill="white" stroke="#bfbfbf" points="201.5,-352 100,-352 100,-332 201.5,-332 201.5,-352"/>
<text text-anchor="middle" x="150.75" y="-338.5" font-family="Helvetica,sans-Serif" font-size="10.00">Util::IHasSourceInfo</text>
</a>
</g>
</g>
<!-- Node5&#45;&gt;Node4 -->
<g id="edge4_Node000004_Node000005" class="edge">
<title>Node5&#45;&gt;Node4</title>
<g id="a_edge4_Node000004_Node000005"><a xlink:title=" ">
<path fill="none" stroke="#63b8ff" d="M193.63,-327.87C208.21,-322.95 224.17,-317.57 237.23,-313.16"/>
<polygon fill="#63b8ff" stroke="#63b8ff" points="192.61,-324.52 184.26,-331.03 194.85,-331.15 192.61,-324.52"/>
</a>
</g>
</g>
<!-- Node6 -->
<g id="Node000006" class="node">
<title>Node6</title>
<g id="a_Node000006"><a xlink:href="class_i_has_db_print.html" target="_top" xlink:title=" ">
<polygon fill="white" stroke="#bfbfbf" points="184.62,-314 116.88,-314 116.88,-294 184.62,-294 184.62,-314"/>
<text text-anchor="middle" x="150.75" y="-300.5" font-family="Helvetica,sans-Serif" font-size="10.00">IHasDbPrint</text>
</a>
</g>
</g>
<!-- Node6&#45;&gt;Node4 -->
<g id="edge5_Node000004_Node000006" class="edge">
<title>Node6&#45;&gt;Node4</title>
<g id="a_edge5_Node000004_Node000006"><a xlink:title=" ">
<path fill="none" stroke="#63b8ff" d="M196.22,-304C210.03,-304 224.84,-304 237.11,-304"/>
<polygon fill="#63b8ff" stroke="#63b8ff" points="196.45,-300.5 186.45,-304 196.45,-307.5 196.45,-300.5"/>
</a>
</g>
</g>
<!-- Node7 -->
<g id="Node000007" class="node">
<title>Node7</title>
<g id="a_Node000007"><a xlink:href="class_i_castable.html" target="_top" xlink:title=" ">
<polygon fill="white" stroke="#666666" points="179,-276 122.5,-276 122.5,-256 179,-256 179,-276"/>
<text text-anchor="middle" x="150.75" y="-262.5" font-family="Helvetica,sans-Serif" font-size="10.00">ICastable</text>
</a>
</g>
</g>
<!-- Node7&#45;&gt;Node4 -->
<g id="edge6_Node000004_Node000007" class="edge">
<title>Node7&#45;&gt;Node4</title>
<g id="a_edge6_Node000004_Node000007"><a xlink:title=" ">
<path fill="none" stroke="#63b8ff" d="M190.11,-278.94C205.55,-284.15 223,-290.04 237.11,-294.8"/>
<polygon fill="#63b8ff" stroke="#63b8ff" points="191.33,-275.66 180.74,-275.78 189.09,-282.29 191.33,-275.66"/>
</a>
</g>
</g>
<!-- Node8 -->
<g id="Node000008" class="node">
<title>Node8</title>
<g id="a_Node000008"><a xlink:href="struct_r_t_t_i_1_1_base.html" target="_top" xlink:title=" ">
<polygon fill="white" stroke="#bfbfbf" points="64,-276 0,-276 0,-256 64,-256 64,-276"/>
<text text-anchor="middle" x="32" y="-262.5" font-family="Helvetica,sans-Serif" font-size="10.00">RTTI::Base</text>
</a>
</g>
</g>
<!-- Node8&#45;&gt;Node7 -->
<g id="edge7_Node000007_Node000008" class="edge">
<title>Node8&#45;&gt;Node7</title>
<g id="a_edge7_Node000007_Node000008"><a xlink:title=" ">
<path fill="none" stroke="#63b8ff" d="M75.79,-266C91.34,-266 108.49,-266 122.35,-266"/>
<polygon fill="#63b8ff" stroke="#63b8ff" points="75.8,-262.5 65.8,-266 75.8,-269.5 75.8,-262.5"/>
</a>
</g>
</g>
</g>
</svg>
