<?xml version="1.0" encoding="UTF-8" standalone="no"?>
<!DOCTYPE svg PUBLIC "-//W3C//DTD SVG 1.1//EN"
 "http://www.w3.org/Graphics/SVG/1.1/DTD/svg11.dtd">
<!-- Generated by graphviz version 10.0.1 (20240210.2158)
 -->
<!-- Title: P4::CopyStructures Pages: 1 -->
<svg width="118pt" height="252pt"
 viewBox="0.00 0.00 117.88 252.00" xmlns="http://www.w3.org/2000/svg" xmlns:xlink="http://www.w3.org/1999/xlink">

<svg id="main" version="1.1" xmlns="http://www.w3.org/2000/svg" xmlns:xlink="http://www.w3.org/1999/xlink" xml:space="preserve" onload="init(evt)">
<style type="text/css"><![CDATA[
.node, .edge {opacity: 0.7;}
.node.selected, .edge.selected {opacity: 1;}
.edge:hover path { stroke: red; }
.edge:hover polygon { stroke: red; fill: red; }
]]></style>
<script type="application/ecmascript" xlink:href="svg.min.js"/>
<svg id="graph" class="graph">
<g id="graph0" class="graph" transform="scale(1 1) rotate(0) translate(4 248)">
<title>P4::CopyStructures</title>
<!-- Node1 -->
<g id="Node000001" class="node">
<title>Node1</title>
<g id="a_Node000001"><a xlink:title=" ">
<polygon fill="#999999" stroke="#666666" points="101.5,-20 0,-20 0,0 101.5,0 101.5,-20"/>
<text text-anchor="middle" x="50.75" y="-6.5" font-family="Helvetica,sans-Serif" font-size="10.00">P4::CopyStructures</text>
</a>
</g>
</g>
<!-- Node2 -->
<g id="Node000002" class="node">
<title>Node2</title>
<g id="a_Node000002"><a xlink:href="class_pass_repeated.html" target="_top" xlink:title=" ">
<polygon fill="white" stroke="#bfbfbf" points="90.62,-76 10.88,-76 10.88,-56 90.62,-56 90.62,-76"/>
<text text-anchor="middle" x="50.75" y="-62.5" font-family="Helvetica,sans-Serif" font-size="10.00">PassRepeated</text>
</a>
</g>
</g>
<!-- Node2&#45;&gt;Node1 -->
<g id="edge1_Node000001_Node000002" class="edge">
<title>Node2&#45;&gt;Node1</title>
<g id="a_edge1_Node000001_Node000002"><a xlink:title=" ">
<path fill="none" stroke="#63b8ff" d="M50.75,-44.13C50.75,-35.9 50.75,-26.85 50.75,-20.3"/>
<polygon fill="#63b8ff" stroke="#63b8ff" points="47.25,-44.08 50.75,-54.08 54.25,-44.08 47.25,-44.08"/>
</a>
</g>
</g>
<!-- Node3 -->
<g id="Node000003" class="node">
<title>Node3</title>
<g id="a_Node000003"><a xlink:href="class_pass_manager.html" target="_top" xlink:title=" ">
<polygon fill="white" stroke="#bfbfbf" points="88.75,-132 12.75,-132 12.75,-112 88.75,-112 88.75,-132"/>
<text text-anchor="middle" x="50.75" y="-118.5" font-family="Helvetica,sans-Serif" font-size="10.00">PassManager</text>
</a>
</g>
</g>
<!-- Node3&#45;&gt;Node2 -->
<g id="edge2_Node000002_Node000003" class="edge">
<title>Node3&#45;&gt;Node2</title>
<g id="a_edge2_Node000002_Node000003"><a xlink:title=" ">
<path fill="none" stroke="#63b8ff" d="M50.75,-100.13C50.75,-91.9 50.75,-82.85 50.75,-76.3"/>
<polygon fill="#63b8ff" stroke="#63b8ff" points="47.25,-100.08 50.75,-110.08 54.25,-100.08 47.25,-100.08"/>
</a>
</g>
</g>
<!-- Node4 -->
<g id="Node000004" class="node">
<title>Node4</title>
<g id="a_Node000004"><a xlink:href="class_visitor.html" target="_top" xlink:title=" ">
<polygon fill="white" stroke="#bfbfbf" points="72.62,-244 28.88,-244 28.88,-224 72.62,-224 72.62,-244"/>
<text text-anchor="middle" x="50.75" y="-230.5" font-family="Helvetica,sans-Serif" font-size="10.00">Visitor</text>
</a>
</g>
</g>
<!-- Node4&#45;&gt;Node3 -->
<g id="edge3_Node000003_Node000004" class="edge">
<title>Node4&#45;&gt;Node3</title>
<g id="a_edge3_Node000003_Node000004"><a xlink:title=" ">
<path fill="none" stroke="#63b8ff" d="M45.24,-212.65C43.42,-204.98 41.64,-196.15 40.75,-188 38.56,-168.03 44.11,-144.79 47.79,-132.22"/>
<polygon fill="#63b8ff" stroke="#63b8ff" points="41.84,-213.5 47.71,-222.32 48.63,-211.77 41.84,-213.5"/>
</a>
</g>
</g>
<!-- Node5 -->
<g id="Node000005" class="node">
<title>Node5</title>
<g id="a_Node000005"><a xlink:href="class_backtrack.html" target="_top" xlink:title=" ">
<polygon fill="white" stroke="#bfbfbf" points="109.88,-188 49.62,-188 49.62,-168 109.88,-168 109.88,-188"/>
<text text-anchor="middle" x="79.75" y="-174.5" font-family="Helvetica,sans-Serif" font-size="10.00">Backtrack</text>
</a>
</g>
</g>
<!-- Node4&#45;&gt;Node5 -->
<g id="edge5_Node000005_Node000004" class="edge">
<title>Node4&#45;&gt;Node5</title>
<g id="a_edge5_Node000005_Node000004"><a xlink:title=" ">
<path fill="none" stroke="#63b8ff" d="M61.18,-213.58C65.8,-204.97 71.03,-195.24 74.76,-188.3"/>
<polygon fill="#63b8ff" stroke="#63b8ff" points="58.17,-211.79 56.52,-222.26 64.33,-215.11 58.17,-211.79"/>
</a>
</g>
</g>
<!-- Node5&#45;&gt;Node3 -->
<g id="edge4_Node000003_Node000005" class="edge">
<title>Node5&#45;&gt;Node3</title>
<g id="a_edge4_Node000003_Node000005"><a xlink:title=" ">
<path fill="none" stroke="#63b8ff" d="M69.32,-157.58C64.7,-148.97 59.47,-139.24 55.74,-132.3"/>
<polygon fill="#63b8ff" stroke="#63b8ff" points="66.17,-159.11 73.98,-166.26 72.33,-155.79 66.17,-159.11"/>
</a>
</g>
</g>
</g>
</svg>
</svg>

<style type='text/css'>
<![CDATA[
[data-mouse-over-selected='false'] { opacity: 0.7; }
[data-mouse-over-selected='true']  { opacity: 1.0; }
]]>
</style>
<script type="application/ecmascript"><![CDATA[
document.addEventListener('DOMContentLoaded', (event) => {
  highlightEdges();
  highlightAdjacentNodes();
});
]]></script>
</svg>
