<?xml version="1.0" encoding="UTF-8" standalone="no"?>
<!DOCTYPE svg PUBLIC "-//W3C//DTD SVG 1.1//EN"
 "http://www.w3.org/Graphics/SVG/1.1/DTD/svg11.dtd">
<!-- Generated by graphviz version 10.0.1 (20240210.2158)
 -->
<!-- Title: P4::TypeVariableSubstitutionVisitor Pages: 1 -->
<svg width="290pt" height="208pt"
 viewBox="0.00 0.00 289.50 208.00" xmlns="http://www.w3.org/2000/svg" xmlns:xlink="http://www.w3.org/1999/xlink">
<g id="graph0" class="graph" transform="scale(1 1) rotate(0) translate(4 204)">
<title>P4::TypeVariableSubstitutionVisitor</title>
<!-- Node1 -->
<g id="Node000001" class="node">
<title>Node1</title>
<g id="a_Node000001"><a xlink:title=" ">
<polygon fill="#999999" stroke="#666666" points="210.25,-88 68.25,-88 68.25,-56 210.25,-56 210.25,-88"/>
<text text-anchor="start" x="76.25" y="-74.5" font-family="Helvetica,sans-Serif" font-size="10.00">P4::TypeVariableSubstitution</text>
<text text-anchor="middle" x="139.25" y="-62.5" font-family="Helvetica,sans-Serif" font-size="10.00">Visitor</text>
</a>
</g>
</g>
<!-- Node4 -->
<g id="Node000004" class="node">
<title>Node4</title>
<g id="a_Node000004"><a xlink:href="class_p4_1_1_substitute_parameters.html" target="_top" xlink:title=" ">
<polygon fill="white" stroke="#bfbfbf" points="128.5,-20 0,-20 0,0 128.5,0 128.5,-20"/>
<text text-anchor="middle" x="64.25" y="-6.5" font-family="Helvetica,sans-Serif" font-size="10.00">P4::SubstituteParameters</text>
</a>
</g>
</g>
<!-- Node1&#45;&gt;Node4 -->
<g id="edge3_Node000001_Node000004" class="edge">
<title>Node1&#45;&gt;Node4</title>
<g id="a_edge3_Node000001_Node000004"><a xlink:title=" ">
<path fill="none" stroke="#63b8ff" d="M111.02,-48.42C98.89,-38.71 85.38,-27.9 76.01,-20.41"/>
<polygon fill="#63b8ff" stroke="#63b8ff" points="108.76,-51.09 118.75,-54.6 113.13,-45.62 108.76,-51.09"/>
</a>
</g>
</g>
<!-- Node5 -->
<g id="Node000005" class="node">
<title>Node5</title>
<g id="a_Node000005"><a xlink:href="class_p4_1_1_type_substitution_visitor.html" target="_top" xlink:title=" ">
<polygon fill="white" stroke="#bfbfbf" points="281.5,-20 147,-20 147,0 281.5,0 281.5,-20"/>
<text text-anchor="middle" x="214.25" y="-6.5" font-family="Helvetica,sans-Serif" font-size="10.00">P4::TypeSubstitutionVisitor</text>
</a>
</g>
</g>
<!-- Node1&#45;&gt;Node5 -->
<g id="edge4_Node000001_Node000005" class="edge">
<title>Node1&#45;&gt;Node5</title>
<g id="a_edge4_Node000001_Node000005"><a xlink:title=" ">
<path fill="none" stroke="#63b8ff" d="M167.48,-48.42C179.61,-38.71 193.12,-27.9 202.49,-20.41"/>
<polygon fill="#63b8ff" stroke="#63b8ff" points="165.37,-45.62 159.75,-54.6 169.74,-51.09 165.37,-45.62"/>
</a>
</g>
</g>
<!-- Node2 -->
<g id="Node000002" class="node">
<title>Node2</title>
<g id="a_Node000002"><a xlink:href="class_transform.html" target="_top" xlink:title=" ">
<polygon fill="white" stroke="#bfbfbf" points="168.62,-144 109.88,-144 109.88,-124 168.62,-124 168.62,-144"/>
<text text-anchor="middle" x="139.25" y="-130.5" font-family="Helvetica,sans-Serif" font-size="10.00">Transform</text>
</a>
</g>
</g>
<!-- Node2&#45;&gt;Node1 -->
<g id="edge1_Node000001_Node000002" class="edge">
<title>Node2&#45;&gt;Node1</title>
<g id="a_edge1_Node000001_Node000002"><a xlink:title=" ">
<path fill="none" stroke="#63b8ff" d="M139.25,-112.31C139.25,-104.37 139.25,-95.46 139.25,-88.14"/>
<polygon fill="#63b8ff" stroke="#63b8ff" points="135.75,-112.11 139.25,-122.11 142.75,-112.11 135.75,-112.11"/>
</a>
</g>
</g>
<!-- Node3 -->
<g id="Node000003" class="node">
<title>Node3</title>
<g id="a_Node000003"><a xlink:href="class_visitor.html" target="_top" xlink:title=" ">
<polygon fill="white" stroke="#bfbfbf" points="161.12,-200 117.38,-200 117.38,-180 161.12,-180 161.12,-200"/>
<text text-anchor="middle" x="139.25" y="-186.5" font-family="Helvetica,sans-Serif" font-size="10.00">Visitor</text>
</a>
</g>
</g>
<!-- Node3&#45;&gt;Node2 -->
<g id="edge2_Node000002_Node000003" class="edge">
<title>Node3&#45;&gt;Node2</title>
<g id="a_edge2_Node000002_Node000003"><a xlink:title=" ">
<path fill="none" stroke="#63b8ff" d="M139.25,-168.13C139.25,-159.9 139.25,-150.85 139.25,-144.3"/>
<polygon fill="#63b8ff" stroke="#63b8ff" points="135.75,-168.08 139.25,-178.08 142.75,-168.08 135.75,-168.08"/>
</a>
</g>
</g>
</g>
</svg>
