<?xml version="1.0" encoding="UTF-8" standalone="no"?>
<!DOCTYPE svg PUBLIC "-//W3C//DTD SVG 1.1//EN"
 "http://www.w3.org/Graphics/SVG/1.1/DTD/svg11.dtd">
<!-- Generated by graphviz version 10.0.1 (20240210.2158)
 -->
<!-- Title: TypeCheck::MakeImplicitCastsExplicit Pages: 1 -->
<svg width="171pt" height="152pt"
 viewBox="0.00 0.00 171.00 152.00" xmlns="http://www.w3.org/2000/svg" xmlns:xlink="http://www.w3.org/1999/xlink">
<g id="graph0" class="graph" transform="scale(1 1) rotate(0) translate(4 148)">
<title>TypeCheck::MakeImplicitCastsExplicit</title>
<!-- Node1 -->
<g id="Node000001" class="node">
<title>Node1</title>
<g id="a_Node000001"><a xlink:title=" ">
<polygon fill="#999999" stroke="#666666" points="151,-32 0,-32 0,0 151,0 151,-32"/>
<text text-anchor="start" x="8" y="-18.5" font-family="Helvetica,sans-Serif" font-size="10.00">TypeCheck::MakeImplicitCasts</text>
<text text-anchor="middle" x="75.5" y="-6.5" font-family="Helvetica,sans-Serif" font-size="10.00">Explicit</text>
</a>
</g>
</g>
<!-- Node2 -->
<g id="Node000002" class="node">
<title>Node2</title>
<g id="a_Node000002"><a xlink:href="class_transform.html" target="_top" xlink:title=" ">
<polygon fill="white" stroke="#bfbfbf" points="59.88,-88 1.12,-88 1.12,-68 59.88,-68 59.88,-88"/>
<text text-anchor="middle" x="30.5" y="-74.5" font-family="Helvetica,sans-Serif" font-size="10.00">Transform</text>
</a>
</g>
</g>
<!-- Node2&#45;&gt;Node1 -->
<g id="edge1_Node000001_Node000002" class="edge">
<title>Node2&#45;&gt;Node1</title>
<g id="a_edge1_Node000001_Node000002"><a xlink:title=" ">
<path fill="none" stroke="#63b8ff" d="M44.34,-58.55C50.69,-50.08 58.13,-40.16 64.14,-32.14"/>
<polygon fill="#63b8ff" stroke="#63b8ff" points="41.64,-56.31 38.44,-66.41 47.24,-60.51 41.64,-56.31"/>
</a>
</g>
</g>
<!-- Node3 -->
<g id="Node000003" class="node">
<title>Node3</title>
<g id="a_Node000003"><a xlink:href="class_visitor.html" target="_top" xlink:title=" ">
<polygon fill="white" stroke="#bfbfbf" points="97.38,-144 53.62,-144 53.62,-124 97.38,-124 97.38,-144"/>
<text text-anchor="middle" x="75.5" y="-130.5" font-family="Helvetica,sans-Serif" font-size="10.00">Visitor</text>
</a>
</g>
</g>
<!-- Node3&#45;&gt;Node2 -->
<g id="edge2_Node000002_Node000003" class="edge">
<title>Node3&#45;&gt;Node2</title>
<g id="a_edge2_Node000002_Node000003"><a xlink:title=" ">
<path fill="none" stroke="#63b8ff" d="M60.5,-115C53.05,-106.06 44.35,-95.62 38.25,-88.3"/>
<polygon fill="#63b8ff" stroke="#63b8ff" points="57.6,-116.99 66.69,-122.43 62.98,-112.51 57.6,-116.99"/>
</a>
</g>
</g>
<!-- Node4 -->
<g id="Node000004" class="node">
<title>Node4</title>
<g id="a_Node000004"><a xlink:href="class_p4_write_context.html" target="_top" xlink:title=" ">
<polygon fill="white" stroke="#bfbfbf" points="163,-88 78,-88 78,-68 163,-68 163,-88"/>
<text text-anchor="middle" x="120.5" y="-74.5" font-family="Helvetica,sans-Serif" font-size="10.00">P4WriteContext</text>
</a>
</g>
</g>
<!-- Node3&#45;&gt;Node4 -->
<g id="edge4_Node000004_Node000003" class="edge">
<title>Node3&#45;&gt;Node4</title>
<g id="a_edge4_Node000004_Node000003"><a xlink:title=" ">
<path fill="none" stroke="#63b8ff" d="M90.5,-115C97.95,-106.06 106.65,-95.62 112.75,-88.3"/>
<polygon fill="#63b8ff" stroke="#63b8ff" points="88.02,-112.51 84.31,-122.43 93.4,-116.99 88.02,-112.51"/>
</a>
</g>
</g>
<!-- Node4&#45;&gt;Node1 -->
<g id="edge3_Node000001_Node000004" class="edge">
<title>Node4&#45;&gt;Node1</title>
<g id="a_edge3_Node000001_Node000004"><a xlink:title=" ">
<path fill="none" stroke="#8b1a1a" d="M106.66,-58.55C100.31,-50.08 92.87,-40.16 86.86,-32.14"/>
<polygon fill="#8b1a1a" stroke="#8b1a1a" points="103.76,-60.51 112.56,-66.41 109.36,-56.31 103.76,-60.51"/>
</a>
</g>
</g>
</g>
</svg>
