<?xml version="1.0" encoding="UTF-8" standalone="no"?>
<!DOCTYPE svg PUBLIC "-//W3C//DTD SVG 1.1//EN"
 "http://www.w3.org/Graphics/SVG/1.1/DTD/svg11.dtd">
<!-- Generated by graphviz version 10.0.1 (20240210.2158)
 -->
<!-- Title: EBPF::CRCChecksumAlgorithm Pages: 1 -->
<svg width="1102pt" height="123pt"
 viewBox="0.00 0.00 1101.75 123.00" xmlns="http://www.w3.org/2000/svg" xmlns:xlink="http://www.w3.org/1999/xlink">
<g id="graph0" class="graph" transform="scale(1 1) rotate(0) translate(4 119)">
<title>EBPF::CRCChecksumAlgorithm</title>
<!-- Node1 -->
<g id="Node000001" class="node">
<title>Node1</title>
<g id="a_Node000001"><a xlink:title=" ">
<polygon fill="#999999" stroke="#666666" points="682.25,-77 526,-77 526,-57 682.25,-57 682.25,-77"/>
<text text-anchor="middle" x="604.12" y="-63.5" font-family="Helvetica,sans-Serif" font-size="10.00">EBPF::CRCChecksumAlgorithm</text>
</a>
</g>
</g>
<!-- Node6 -->
<g id="Node000006" class="node">
<title>Node6</title>
<g id="a_Node000006"><a xlink:href="class_e_b_p_f_1_1_c_r_c16_checksum_algorithm.html" target="_top" xlink:title=" ">
<polygon fill="white" stroke="#666666" points="885,-115 718.25,-115 718.25,-95 885,-95 885,-115"/>
<text text-anchor="middle" x="801.62" y="-101.5" font-family="Helvetica,sans-Serif" font-size="10.00">EBPF::CRC16ChecksumAlgorithm</text>
</a>
</g>
</g>
<!-- Node1&#45;&gt;Node6 -->
<g id="edge5_Node000001_Node000006" class="edge">
<title>Node1&#45;&gt;Node6</title>
<g id="a_edge5_Node000001_Node000006"><a xlink:title=" ">
<path fill="none" stroke="#63b8ff" d="M670.24,-79.66C695.11,-84.49 723.17,-89.94 746.86,-94.55"/>
<polygon fill="#63b8ff" stroke="#63b8ff" points="671.03,-76.25 660.55,-77.77 669.7,-83.12 671.03,-76.25"/>
</a>
</g>
</g>
<!-- Node7 -->
<g id="Node000007" class="node">
<title>Node7</title>
<g id="a_Node000007"><a xlink:href="class_e_b_p_f_1_1_c_r_c32_checksum_algorithm.html" target="_top" xlink:title=" ">
<polygon fill="white" stroke="#666666" points="885,-77 718.25,-77 718.25,-57 885,-57 885,-77"/>
<text text-anchor="middle" x="801.62" y="-63.5" font-family="Helvetica,sans-Serif" font-size="10.00">EBPF::CRC32ChecksumAlgorithm</text>
</a>
</g>
</g>
<!-- Node1&#45;&gt;Node7 -->
<g id="edge6_Node000001_Node000007" class="edge">
<title>Node1&#45;&gt;Node7</title>
<g id="a_edge6_Node000001_Node000007"><a xlink:title=" ">
<path fill="none" stroke="#63b8ff" d="M693.94,-67C701.96,-67 710.07,-67 718.03,-67"/>
<polygon fill="#63b8ff" stroke="#63b8ff" points="694.19,-63.5 684.19,-67 694.19,-70.5 694.19,-63.5"/>
</a>
</g>
</g>
<!-- Node8 -->
<g id="Node000008" class="node">
<title>Node8</title>
<g id="a_Node000008"><a xlink:href="class_t_c_1_1_c_r_c_checksum_algorithm_p_n_a.html" target="_top" xlink:title=" ">
<polygon fill="white" stroke="#bfbfbf" points="882.75,-39 720.5,-39 720.5,-19 882.75,-19 882.75,-39"/>
<text text-anchor="middle" x="801.62" y="-25.5" font-family="Helvetica,sans-Serif" font-size="10.00">TC::CRCChecksumAlgorithmPNA</text>
</a>
</g>
</g>
<!-- Node1&#45;&gt;Node8 -->
<g id="edge7_Node000001_Node000008" class="edge">
<title>Node1&#45;&gt;Node8</title>
<g id="a_edge7_Node000001_Node000008"><a xlink:title=" ">
<path fill="none" stroke="#63b8ff" d="M670.24,-54.34C695.11,-49.51 723.17,-44.06 746.86,-39.45"/>
<polygon fill="#63b8ff" stroke="#63b8ff" points="669.7,-50.88 660.55,-56.23 671.03,-57.75 669.7,-50.88"/>
</a>
</g>
</g>
<!-- Node2 -->
<g id="Node000002" class="node">
<title>Node2</title>
<g id="a_Node000002"><a xlink:href="class_e_b_p_f_1_1_e_b_p_f_hash_algorithm_p_s_a.html" target="_top" xlink:title=" ">
<polygon fill="white" stroke="#bfbfbf" points="490,-77 331.5,-77 331.5,-57 490,-57 490,-77"/>
<text text-anchor="middle" x="410.75" y="-63.5" font-family="Helvetica,sans-Serif" font-size="10.00">EBPF::EBPFHashAlgorithmPSA</text>
</a>
</g>
</g>
<!-- Node2&#45;&gt;Node1 -->
<g id="edge1_Node000001_Node000002" class="edge">
<title>Node2&#45;&gt;Node1</title>
<g id="a_edge1_Node000001_Node000002"><a xlink:title=" ">
<path fill="none" stroke="#63b8ff" d="M501.7,-67C509.72,-67 517.79,-67 525.69,-67"/>
<polygon fill="#63b8ff" stroke="#63b8ff" points="501.93,-63.5 491.93,-67 501.93,-70.5 501.93,-63.5"/>
</a>
</g>
</g>
<!-- Node3 -->
<g id="Node000003" class="node">
<title>Node3</title>
<g id="a_Node000003"><a xlink:href="class_e_b_p_f_1_1_e_b_p_f_object.html" target="_top" xlink:title=" ">
<polygon fill="white" stroke="#bfbfbf" points="295.5,-77 192.5,-77 192.5,-57 295.5,-57 295.5,-77"/>
<text text-anchor="middle" x="244" y="-63.5" font-family="Helvetica,sans-Serif" font-size="10.00">EBPF::EBPFObject</text>
</a>
</g>
</g>
<!-- Node3&#45;&gt;Node2 -->
<g id="edge2_Node000002_Node000003" class="edge">
<title>Node3&#45;&gt;Node2</title>
<g id="a_edge2_Node000002_Node000003"><a xlink:title=" ">
<path fill="none" stroke="#63b8ff" d="M307.11,-67C315.01,-67 323.16,-67 331.27,-67"/>
<polygon fill="#63b8ff" stroke="#63b8ff" points="307.29,-63.5 297.29,-67 307.29,-70.5 307.29,-63.5"/>
</a>
</g>
</g>
<!-- Node4 -->
<g id="Node000004" class="node">
<title>Node4</title>
<g id="a_Node000004"><a xlink:href="class_i_castable.html" target="_top" xlink:title=" ">
<polygon fill="white" stroke="#666666" points="156.5,-77 100,-77 100,-57 156.5,-57 156.5,-77"/>
<text text-anchor="middle" x="128.25" y="-63.5" font-family="Helvetica,sans-Serif" font-size="10.00">ICastable</text>
</a>
</g>
</g>
<!-- Node4&#45;&gt;Node3 -->
<g id="edge3_Node000003_Node000004" class="edge">
<title>Node4&#45;&gt;Node3</title>
<g id="a_edge3_Node000003_Node000004"><a xlink:title=" ">
<path fill="none" stroke="#63b8ff" d="M168.07,-67C175.82,-67 184.07,-67 192.15,-67"/>
<polygon fill="#63b8ff" stroke="#63b8ff" points="168.3,-63.5 158.3,-67 168.3,-70.5 168.3,-63.5"/>
</a>
</g>
</g>
<!-- Node5 -->
<g id="Node000005" class="node">
<title>Node5</title>
<g id="a_Node000005"><a xlink:href="struct_r_t_t_i_1_1_base.html" target="_top" xlink:title=" ">
<polygon fill="white" stroke="#bfbfbf" points="64,-77 0,-77 0,-57 64,-57 64,-77"/>
<text text-anchor="middle" x="32" y="-63.5" font-family="Helvetica,sans-Serif" font-size="10.00">RTTI::Base</text>
</a>
</g>
</g>
<!-- Node5&#45;&gt;Node4 -->
<g id="edge4_Node000004_Node000005" class="edge">
<title>Node5&#45;&gt;Node4</title>
<g id="a_edge4_Node000004_Node000005"><a xlink:title=" ">
<path fill="none" stroke="#63b8ff" d="M75.72,-67C83.9,-67 92.26,-67 99.8,-67"/>
<polygon fill="#63b8ff" stroke="#63b8ff" points="75.9,-63.5 65.9,-67 75.9,-70.5 75.9,-63.5"/>
</a>
</g>
</g>
<!-- Node9 -->
<g id="Node000009" class="node">
<title>Node9</title>
<g id="a_Node000009"><a xlink:href="class_t_c_1_1_c_r_c16_checksum_algorithm_p_n_a.html" target="_top" xlink:title=" ">
<polygon fill="white" stroke="#bfbfbf" points="1093.75,-58 921,-58 921,-38 1093.75,-38 1093.75,-58"/>
<text text-anchor="middle" x="1007.38" y="-44.5" font-family="Helvetica,sans-Serif" font-size="10.00">TC::CRC16ChecksumAlgorithmPNA</text>
</a>
</g>
</g>
<!-- Node8&#45;&gt;Node9 -->
<g id="edge8_Node000008_Node000009" class="edge">
<title>Node8&#45;&gt;Node9</title>
<g id="a_edge8_Node000008_Node000009"><a xlink:title=" ">
<path fill="none" stroke="#63b8ff" d="M894.54,-37.57C903.26,-38.38 912.08,-39.21 920.74,-40.01"/>
<polygon fill="#63b8ff" stroke="#63b8ff" points="894.94,-34.09 884.66,-36.65 894.29,-41.06 894.94,-34.09"/>
</a>
</g>
</g>
<!-- Node10 -->
<g id="Node000010" class="node">
<title>Node10</title>
<g id="a_Node000010"><a xlink:href="class_t_c_1_1_c_r_c32_checksum_algorithm_p_n_a.html" target="_top" xlink:title=" ">
<polygon fill="white" stroke="#bfbfbf" points="1093.75,-20 921,-20 921,0 1093.75,0 1093.75,-20"/>
<text text-anchor="middle" x="1007.38" y="-6.5" font-family="Helvetica,sans-Serif" font-size="10.00">TC::CRC32ChecksumAlgorithmPNA</text>
</a>
</g>
</g>
<!-- Node8&#45;&gt;Node10 -->
<g id="edge9_Node000008_Node000010" class="edge">
<title>Node8&#45;&gt;Node10</title>
<g id="a_edge9_Node000008_Node000010"><a xlink:title=" ">
<path fill="none" stroke="#63b8ff" d="M894.54,-20.43C903.26,-19.62 912.08,-18.79 920.74,-17.99"/>
<polygon fill="#63b8ff" stroke="#63b8ff" points="894.29,-16.94 884.66,-21.35 894.94,-23.91 894.29,-16.94"/>
</a>
</g>
</g>
</g>
</svg>
