<?xml version="1.0" encoding="UTF-8" standalone="no"?>
<!DOCTYPE svg PUBLIC "-//W3C//DTD SVG 1.1//EN"
 "http://www.w3.org/Graphics/SVG/1.1/DTD/svg11.dtd">
<!-- Generated by graphviz version 10.0.1 (20240210.2158)
 -->
<!-- Title: P4::ControlPlaneAPI::Standard::P4RuntimeArchHandlerCommon&lt; arch &gt; Pages: 1 -->
<svg width="786pt" height="362pt"
 viewBox="0.00 0.00 786.00 362.00" xmlns="http://www.w3.org/2000/svg" xmlns:xlink="http://www.w3.org/1999/xlink">
<g id="graph0" class="graph" transform="scale(1 1) rotate(0) translate(4 358)">
<title>P4::ControlPlaneAPI::Standard::P4RuntimeArchHandlerCommon&lt; arch &gt;</title>
<!-- Node1 -->
<g id="Node000001" class="node">
<title>Node1</title>
<g id="a_Node000001"><a xlink:title=" ">
<polygon fill="#999999" stroke="#666666" points="347.75,-199 179.5,-199 179.5,-155 347.75,-155 347.75,-199"/>
<text text-anchor="start" x="187.5" y="-185.5" font-family="Helvetica,sans-Serif" font-size="10.00">P4::ControlPlaneAPI</text>
<text text-anchor="start" x="187.5" y="-173.5" font-family="Helvetica,sans-Serif" font-size="10.00">::Standard::P4RuntimeArchHandler</text>
<text text-anchor="middle" x="263.62" y="-161.5" font-family="Helvetica,sans-Serif" font-size="10.00">Common&lt; arch &gt;</text>
</a>
</g>
</g>
<!-- Node3 -->
<g id="Node000003" class="node">
<title>Node3</title>
<g id="a_Node000003"><a xlink:href="class_p4_1_1_control_plane_a_p_i_1_1_standard_1_1_b_f_runtime_arch_handler.html" target="_top" xlink:title=" ">
<polygon fill="white" stroke="#bfbfbf" points="552.75,-354 383.75,-354 383.75,-310 552.75,-310 552.75,-354"/>
<text text-anchor="start" x="391.75" y="-340.5" font-family="Helvetica,sans-Serif" font-size="10.00">P4::ControlPlaneAPI</text>
<text text-anchor="start" x="391.75" y="-328.5" font-family="Helvetica,sans-Serif" font-size="10.00">::Standard::BFRuntimeArchHandler</text>
<text text-anchor="middle" x="468.25" y="-316.5" font-family="Helvetica,sans-Serif" font-size="10.00">&lt; Arch::PNA &gt;</text>
</a>
</g>
</g>
<!-- Node1&#45;&gt;Node3 -->
<g id="edge2_Node000001_Node000003" class="edge">
<title>Node1&#45;&gt;Node3</title>
<g id="a_edge2_Node000001_Node000003"><a xlink:title=" ">
<path fill="none" stroke="#63b8ff" d="M287.75,-208.08C309.76,-235.76 345.17,-275.7 383.75,-301 388.53,-304.14 393.68,-307.02 398.98,-309.64"/>
<polygon fill="#63b8ff" stroke="#63b8ff" points="290.66,-206.11 281.75,-200.39 285.15,-210.42 290.66,-206.11"/>
</a>
</g>
</g>
<!-- Node5 -->
<g id="Node000005" class="node">
<title>Node5</title>
<g id="a_Node000005"><a xlink:href="class_p4_1_1_control_plane_a_p_i_1_1_standard_1_1_b_f_runtime_arch_handler.html" target="_top" xlink:title=" ">
<polygon fill="white" stroke="#bfbfbf" points="552.75,-292 383.75,-292 383.75,-248 552.75,-248 552.75,-292"/>
<text text-anchor="start" x="391.75" y="-278.5" font-family="Helvetica,sans-Serif" font-size="10.00">P4::ControlPlaneAPI</text>
<text text-anchor="start" x="391.75" y="-266.5" font-family="Helvetica,sans-Serif" font-size="10.00">::Standard::BFRuntimeArchHandler</text>
<text text-anchor="middle" x="468.25" y="-254.5" font-family="Helvetica,sans-Serif" font-size="10.00">&lt; Arch::PSA &gt;</text>
</a>
</g>
</g>
<!-- Node1&#45;&gt;Node5 -->
<g id="edge4_Node000001_Node000005" class="edge">
<title>Node1&#45;&gt;Node5</title>
<g id="a_edge4_Node000001_Node000005"><a xlink:title=" ">
<path fill="none" stroke="#63b8ff" d="M314.54,-204.74C335.61,-215.99 360.58,-228.72 383.75,-239 390.39,-241.95 397.41,-244.86 404.44,-247.65"/>
<polygon fill="#63b8ff" stroke="#63b8ff" points="316.34,-201.73 305.87,-200.08 313.02,-207.9 316.34,-201.73"/>
</a>
</g>
</g>
<!-- Node7 -->
<g id="Node000007" class="node">
<title>Node7</title>
<g id="a_Node000007"><a xlink:href="class_p4_1_1_control_plane_a_p_i_1_1_standard_1_1_p4_runtime_arch_handler_p_s_a_p_n_a.html" target="_top" xlink:title=" ">
<polygon fill="white" stroke="#666666" points="552.38,-230 384.12,-230 384.12,-186 552.38,-186 552.38,-230"/>
<text text-anchor="start" x="392.12" y="-216.5" font-family="Helvetica,sans-Serif" font-size="10.00">P4::ControlPlaneAPI</text>
<text text-anchor="start" x="392.12" y="-204.5" font-family="Helvetica,sans-Serif" font-size="10.00">::Standard::P4RuntimeArchHandler</text>
<text text-anchor="middle" x="468.25" y="-192.5" font-family="Helvetica,sans-Serif" font-size="10.00">PSAPNA&lt; Arch::PNA &gt;</text>
</a>
</g>
</g>
<!-- Node1&#45;&gt;Node7 -->
<g id="edge6_Node000001_Node000007" class="edge">
<title>Node1&#45;&gt;Node7</title>
<g id="a_edge6_Node000001_Node000007"><a xlink:title=" ">
<path fill="none" stroke="#63b8ff" d="M359.32,-191.49C367.52,-192.74 375.77,-194 383.86,-195.24"/>
<polygon fill="#63b8ff" stroke="#63b8ff" points="360.12,-188.07 349.71,-190.02 359.06,-194.99 360.12,-188.07"/>
</a>
</g>
</g>
<!-- Node9 -->
<g id="Node000009" class="node">
<title>Node9</title>
<g id="a_Node000009"><a xlink:href="class_p4_1_1_control_plane_a_p_i_1_1_standard_1_1_p4_runtime_arch_handler_p_s_a_p_n_a.html" target="_top" xlink:title=" ">
<polygon fill="white" stroke="#666666" points="552.38,-168 384.12,-168 384.12,-124 552.38,-124 552.38,-168"/>
<text text-anchor="start" x="392.12" y="-154.5" font-family="Helvetica,sans-Serif" font-size="10.00">P4::ControlPlaneAPI</text>
<text text-anchor="start" x="392.12" y="-142.5" font-family="Helvetica,sans-Serif" font-size="10.00">::Standard::P4RuntimeArchHandler</text>
<text text-anchor="middle" x="468.25" y="-130.5" font-family="Helvetica,sans-Serif" font-size="10.00">PSAPNA&lt; Arch::PSA &gt;</text>
</a>
</g>
</g>
<!-- Node1&#45;&gt;Node9 -->
<g id="edge8_Node000001_Node000009" class="edge">
<title>Node1&#45;&gt;Node9</title>
<g id="a_edge8_Node000001_Node000009"><a xlink:title=" ">
<path fill="none" stroke="#63b8ff" d="M359.32,-162.51C367.52,-161.26 375.77,-160 383.86,-158.76"/>
<polygon fill="#63b8ff" stroke="#63b8ff" points="359.06,-159.01 349.71,-163.98 360.12,-165.93 359.06,-159.01"/>
</a>
</g>
</g>
<!-- Node11 -->
<g id="Node000011" class="node">
<title>Node11</title>
<g id="a_Node000011"><a xlink:href="class_p4_1_1_control_plane_a_p_i_1_1_standard_1_1_b_f_runtime_arch_handler.html" target="_top" xlink:title=" ">
<polygon fill="white" stroke="#bfbfbf" points="552.75,-106 383.75,-106 383.75,-62 552.75,-62 552.75,-106"/>
<text text-anchor="start" x="391.75" y="-92.5" font-family="Helvetica,sans-Serif" font-size="10.00">P4::ControlPlaneAPI</text>
<text text-anchor="start" x="391.75" y="-80.5" font-family="Helvetica,sans-Serif" font-size="10.00">::Standard::BFRuntimeArchHandler</text>
<text text-anchor="middle" x="468.25" y="-68.5" font-family="Helvetica,sans-Serif" font-size="10.00">&lt; arch &gt;</text>
</a>
</g>
</g>
<!-- Node1&#45;&gt;Node11 -->
<g id="edge10_Node000001_Node000011" class="edge">
<title>Node1&#45;&gt;Node11</title>
<g id="a_edge10_Node000001_Node000011"><a xlink:title=" ">
<path fill="none" stroke="#63b8ff" d="M314.54,-149.26C335.61,-138.01 360.58,-125.28 383.75,-115 390.39,-112.05 397.41,-109.14 404.44,-106.35"/>
<polygon fill="#63b8ff" stroke="#63b8ff" points="313.02,-146.1 305.87,-153.92 316.34,-152.27 313.02,-146.1"/>
</a>
</g>
</g>
<!-- Node12 -->
<g id="Node000012" class="node">
<title>Node12</title>
<g id="a_Node000012"><a xlink:href="class_p4_1_1_control_plane_a_p_i_1_1_standard_1_1_p4_runtime_arch_handler_p_s_a_p_n_a.html" target="_top" xlink:title=" ">
<polygon fill="white" stroke="#666666" points="552.38,-44 384.12,-44 384.12,0 552.38,0 552.38,-44"/>
<text text-anchor="start" x="392.12" y="-30.5" font-family="Helvetica,sans-Serif" font-size="10.00">P4::ControlPlaneAPI</text>
<text text-anchor="start" x="392.12" y="-18.5" font-family="Helvetica,sans-Serif" font-size="10.00">::Standard::P4RuntimeArchHandler</text>
<text text-anchor="middle" x="468.25" y="-6.5" font-family="Helvetica,sans-Serif" font-size="10.00">PSAPNA&lt; arch &gt;</text>
</a>
</g>
</g>
<!-- Node1&#45;&gt;Node12 -->
<g id="edge11_Node000001_Node000012" class="edge">
<title>Node1&#45;&gt;Node12</title>
<g id="a_edge11_Node000001_Node000012"><a xlink:title=" ">
<path fill="none" stroke="#63b8ff" d="M287.75,-145.92C309.76,-118.24 345.17,-78.3 383.75,-53 388.53,-49.86 393.68,-46.98 398.98,-44.36"/>
<polygon fill="#63b8ff" stroke="#63b8ff" points="285.15,-143.58 281.75,-153.61 290.66,-147.89 285.15,-143.58"/>
</a>
</g>
</g>
<!-- Node2 -->
<g id="Node000002" class="node">
<title>Node2</title>
<g id="a_Node000002"><a xlink:href="class_p4_1_1_control_plane_a_p_i_1_1_p4_runtime_arch_handler_iface.html" target="_top" xlink:title=" ">
<polygon fill="white" stroke="#666666" points="143.5,-193 0,-193 0,-161 143.5,-161 143.5,-193"/>
<text text-anchor="start" x="8" y="-179.5" font-family="Helvetica,sans-Serif" font-size="10.00">P4::ControlPlaneAPI</text>
<text text-anchor="middle" x="71.75" y="-167.5" font-family="Helvetica,sans-Serif" font-size="10.00">::P4RuntimeArchHandlerIface</text>
</a>
</g>
</g>
<!-- Node2&#45;&gt;Node1 -->
<g id="edge1_Node000001_Node000002" class="edge">
<title>Node2&#45;&gt;Node1</title>
<g id="a_edge1_Node000001_Node000002"><a xlink:title=" ">
<path fill="none" stroke="#63b8ff" d="M155.42,-177C163.29,-177 171.27,-177 179.15,-177"/>
<polygon fill="#63b8ff" stroke="#63b8ff" points="155.51,-173.5 145.51,-177 155.51,-180.5 155.51,-173.5"/>
</a>
</g>
</g>
<!-- Node4 -->
<g id="Node000004" class="node">
<title>Node4</title>
<g id="a_Node000004"><a xlink:href="class_p4_1_1_control_plane_a_p_i_1_1_standard_1_1_b_f_runtime_arch_handler_p_n_a.html" target="_top" xlink:title=" ">
<polygon fill="white" stroke="#bfbfbf" points="778,-348 588.75,-348 588.75,-316 778,-316 778,-348"/>
<text text-anchor="start" x="596.75" y="-334.5" font-family="Helvetica,sans-Serif" font-size="10.00">P4::ControlPlaneAPI</text>
<text text-anchor="middle" x="683.38" y="-322.5" font-family="Helvetica,sans-Serif" font-size="10.00">::Standard::BFRuntimeArchHandlerPNA</text>
</a>
</g>
</g>
<!-- Node3&#45;&gt;Node4 -->
<g id="edge3_Node000003_Node000004" class="edge">
<title>Node3&#45;&gt;Node4</title>
<g id="a_edge3_Node000003_Node000004"><a xlink:title=" ">
<path fill="none" stroke="#63b8ff" d="M564.63,-332C572.5,-332 580.45,-332 588.31,-332"/>
<polygon fill="#63b8ff" stroke="#63b8ff" points="564.69,-328.5 554.69,-332 564.69,-335.5 564.69,-328.5"/>
</a>
</g>
</g>
<!-- Node6 -->
<g id="Node000006" class="node">
<title>Node6</title>
<g id="a_Node000006"><a xlink:href="class_p4_1_1_control_plane_a_p_i_1_1_standard_1_1_b_f_runtime_arch_handler_p_s_a.html" target="_top" xlink:title=" ">
<polygon fill="white" stroke="#bfbfbf" points="778,-286 588.75,-286 588.75,-254 778,-254 778,-286"/>
<text text-anchor="start" x="596.75" y="-272.5" font-family="Helvetica,sans-Serif" font-size="10.00">P4::ControlPlaneAPI</text>
<text text-anchor="middle" x="683.38" y="-260.5" font-family="Helvetica,sans-Serif" font-size="10.00">::Standard::BFRuntimeArchHandlerPSA</text>
</a>
</g>
</g>
<!-- Node5&#45;&gt;Node6 -->
<g id="edge5_Node000005_Node000006" class="edge">
<title>Node5&#45;&gt;Node6</title>
<g id="a_edge5_Node000005_Node000006"><a xlink:title=" ">
<path fill="none" stroke="#63b8ff" d="M564.63,-270C572.5,-270 580.45,-270 588.31,-270"/>
<polygon fill="#63b8ff" stroke="#63b8ff" points="564.69,-266.5 554.69,-270 564.69,-273.5 564.69,-266.5"/>
</a>
</g>
</g>
<!-- Node8 -->
<g id="Node000008" class="node">
<title>Node8</title>
<g id="a_Node000008"><a xlink:href="class_p4_1_1_control_plane_a_p_i_1_1_standard_1_1_p4_runtime_arch_handler_p_n_a.html" target="_top" xlink:title=" ">
<polygon fill="white" stroke="#bfbfbf" points="777.62,-224 589.12,-224 589.12,-192 777.62,-192 777.62,-224"/>
<text text-anchor="start" x="597.12" y="-210.5" font-family="Helvetica,sans-Serif" font-size="10.00">P4::ControlPlaneAPI</text>
<text text-anchor="middle" x="683.38" y="-198.5" font-family="Helvetica,sans-Serif" font-size="10.00">::Standard::P4RuntimeArchHandlerPNA</text>
</a>
</g>
</g>
<!-- Node7&#45;&gt;Node8 -->
<g id="edge7_Node000007_Node000008" class="edge">
<title>Node7&#45;&gt;Node8</title>
<g id="a_edge7_Node000007_Node000008"><a xlink:title=" ">
<path fill="none" stroke="#63b8ff" d="M564.29,-208C572.42,-208 580.65,-208 588.77,-208"/>
<polygon fill="#63b8ff" stroke="#63b8ff" points="564.38,-204.5 554.38,-208 564.38,-211.5 564.38,-204.5"/>
</a>
</g>
</g>
<!-- Node10 -->
<g id="Node000010" class="node">
<title>Node10</title>
<g id="a_Node000010"><a xlink:href="class_p4_1_1_control_plane_a_p_i_1_1_standard_1_1_p4_runtime_arch_handler_p_s_a.html" target="_top" xlink:title=" ">
<polygon fill="white" stroke="#bfbfbf" points="777.62,-162 589.12,-162 589.12,-130 777.62,-130 777.62,-162"/>
<text text-anchor="start" x="597.12" y="-148.5" font-family="Helvetica,sans-Serif" font-size="10.00">P4::ControlPlaneAPI</text>
<text text-anchor="middle" x="683.38" y="-136.5" font-family="Helvetica,sans-Serif" font-size="10.00">::Standard::P4RuntimeArchHandlerPSA</text>
</a>
</g>
</g>
<!-- Node9&#45;&gt;Node10 -->
<g id="edge9_Node000009_Node000010" class="edge">
<title>Node9&#45;&gt;Node10</title>
<g id="a_edge9_Node000009_Node000010"><a xlink:title=" ">
<path fill="none" stroke="#63b8ff" d="M564.29,-146C572.42,-146 580.65,-146 588.77,-146"/>
<polygon fill="#63b8ff" stroke="#63b8ff" points="564.38,-142.5 554.38,-146 564.38,-149.5 564.38,-142.5"/>
</a>
</g>
</g>
</g>
</svg>
