<?xml version="1.0" encoding="UTF-8" standalone="no"?>
<!DOCTYPE svg PUBLIC "-//W3C//DTD SVG 1.1//EN"
 "http://www.w3.org/Graphics/SVG/1.1/DTD/svg11.dtd">
<!-- Generated by graphviz version 10.0.1 (20240210.2158)
 -->
<!-- Title: EBPF::EBPFControl Pages: 1 -->
<svg width="1326pt" height="142pt"
 viewBox="0.00 0.00 1325.75 142.00" xmlns="http://www.w3.org/2000/svg" xmlns:xlink="http://www.w3.org/1999/xlink">
<g id="graph0" class="graph" transform="scale(1 1) rotate(0) translate(4 138)">
<title>EBPF::EBPFControl</title>
<!-- Node1 -->
<g id="Node000001" class="node">
<title>Node1</title>
<g id="a_Node000001"><a xlink:title=" ">
<polygon fill="#999999" stroke="#666666" points="436.75,-58 331.5,-58 331.5,-38 436.75,-38 436.75,-58"/>
<text text-anchor="middle" x="384.12" y="-44.5" font-family="Helvetica,sans-Serif" font-size="10.00">EBPF::EBPFControl</text>
</a>
</g>
</g>
<!-- Node5 -->
<g id="Node000005" class="node">
<title>Node5</title>
<g id="a_Node000005"><a xlink:href="class_e_b_p_f_1_1_e_b_p_f_control_p_s_a.html" target="_top" xlink:title=" ">
<polygon fill="white" stroke="#bfbfbf" points="598.25,-96 472.75,-96 472.75,-76 598.25,-76 598.25,-96"/>
<text text-anchor="middle" x="535.5" y="-82.5" font-family="Helvetica,sans-Serif" font-size="10.00">EBPF::EBPFControlPSA</text>
</a>
</g>
</g>
<!-- Node1&#45;&gt;Node5 -->
<g id="edge4_Node000001_Node000005" class="edge">
<title>Node1&#45;&gt;Node5</title>
<g id="a_edge4_Node000001_Node000005"><a xlink:title=" ">
<path fill="none" stroke="#63b8ff" d="M437.46,-61.31C455.8,-65.98 476.13,-71.15 493.42,-75.55"/>
<polygon fill="#63b8ff" stroke="#63b8ff" points="438.36,-57.93 427.8,-58.86 436.63,-64.71 438.36,-57.93"/>
</a>
</g>
</g>
<!-- Node6 -->
<g id="Node000006" class="node">
<title>Node6</title>
<g id="a_Node000006"><a xlink:href="class_e_b_p_f_1_1_e_b_p_f_deparser.html" target="_top" xlink:title=" ">
<polygon fill="white" stroke="#bfbfbf" points="592.25,-58 478.75,-58 478.75,-38 592.25,-38 592.25,-58"/>
<text text-anchor="middle" x="535.5" y="-44.5" font-family="Helvetica,sans-Serif" font-size="10.00">EBPF::EBPFDeparser</text>
</a>
</g>
</g>
<!-- Node1&#45;&gt;Node6 -->
<g id="edge5_Node000001_Node000006" class="edge">
<title>Node1&#45;&gt;Node6</title>
<g id="a_edge5_Node000001_Node000006"><a xlink:title=" ">
<path fill="none" stroke="#63b8ff" d="M448.14,-48C458.2,-48 468.55,-48 478.44,-48"/>
<polygon fill="#63b8ff" stroke="#63b8ff" points="448.46,-44.5 438.46,-48 448.46,-51.5 448.46,-44.5"/>
</a>
</g>
</g>
<!-- Node16 -->
<g id="Node000016" class="node">
<title>Node16</title>
<g id="a_Node000016"><a xlink:href="class_u_b_p_f_1_1_u_b_p_f_control.html" target="_top" xlink:title=" ">
<polygon fill="white" stroke="#bfbfbf" points="588.12,-20 482.88,-20 482.88,0 588.12,0 588.12,-20"/>
<text text-anchor="middle" x="535.5" y="-6.5" font-family="Helvetica,sans-Serif" font-size="10.00">UBPF::UBPFControl</text>
</a>
</g>
</g>
<!-- Node1&#45;&gt;Node16 -->
<g id="edge15_Node000001_Node000016" class="edge">
<title>Node1&#45;&gt;Node16</title>
<g id="a_edge15_Node000001_Node000016"><a xlink:title=" ">
<path fill="none" stroke="#63b8ff" d="M437.46,-34.69C455.8,-30.02 476.13,-24.85 493.42,-20.45"/>
<polygon fill="#63b8ff" stroke="#63b8ff" points="436.63,-31.29 427.8,-37.14 438.36,-38.07 436.63,-31.29"/>
</a>
</g>
</g>
<!-- Node2 -->
<g id="Node000002" class="node">
<title>Node2</title>
<g id="a_Node000002"><a xlink:href="class_e_b_p_f_1_1_e_b_p_f_object.html" target="_top" xlink:title=" ">
<polygon fill="white" stroke="#bfbfbf" points="295.5,-58 192.5,-58 192.5,-38 295.5,-38 295.5,-58"/>
<text text-anchor="middle" x="244" y="-44.5" font-family="Helvetica,sans-Serif" font-size="10.00">EBPF::EBPFObject</text>
</a>
</g>
</g>
<!-- Node2&#45;&gt;Node1 -->
<g id="edge1_Node000001_Node000002" class="edge">
<title>Node2&#45;&gt;Node1</title>
<g id="a_edge1_Node000001_Node000002"><a xlink:title=" ">
<path fill="none" stroke="#63b8ff" d="M306.93,-48C315,-48 323.21,-48 331.09,-48"/>
<polygon fill="#63b8ff" stroke="#63b8ff" points="307.16,-44.5 297.16,-48 307.16,-51.5 307.16,-44.5"/>
</a>
</g>
</g>
<!-- Node3 -->
<g id="Node000003" class="node">
<title>Node3</title>
<g id="a_Node000003"><a xlink:href="class_i_castable.html" target="_top" xlink:title=" ">
<polygon fill="white" stroke="#666666" points="156.5,-58 100,-58 100,-38 156.5,-38 156.5,-58"/>
<text text-anchor="middle" x="128.25" y="-44.5" font-family="Helvetica,sans-Serif" font-size="10.00">ICastable</text>
</a>
</g>
</g>
<!-- Node3&#45;&gt;Node2 -->
<g id="edge2_Node000002_Node000003" class="edge">
<title>Node3&#45;&gt;Node2</title>
<g id="a_edge2_Node000002_Node000003"><a xlink:title=" ">
<path fill="none" stroke="#63b8ff" d="M168.07,-48C175.82,-48 184.07,-48 192.15,-48"/>
<polygon fill="#63b8ff" stroke="#63b8ff" points="168.3,-44.5 158.3,-48 168.3,-51.5 168.3,-44.5"/>
</a>
</g>
</g>
<!-- Node4 -->
<g id="Node000004" class="node">
<title>Node4</title>
<g id="a_Node000004"><a xlink:href="struct_r_t_t_i_1_1_base.html" target="_top" xlink:title=" ">
<polygon fill="white" stroke="#bfbfbf" points="64,-58 0,-58 0,-38 64,-38 64,-58"/>
<text text-anchor="middle" x="32" y="-44.5" font-family="Helvetica,sans-Serif" font-size="10.00">RTTI::Base</text>
</a>
</g>
</g>
<!-- Node4&#45;&gt;Node3 -->
<g id="edge3_Node000003_Node000004" class="edge">
<title>Node4&#45;&gt;Node3</title>
<g id="a_edge3_Node000003_Node000004"><a xlink:title=" ">
<path fill="none" stroke="#63b8ff" d="M75.72,-48C83.9,-48 92.26,-48 99.8,-48"/>
<polygon fill="#63b8ff" stroke="#63b8ff" points="75.9,-44.5 65.9,-48 75.9,-51.5 75.9,-44.5"/>
</a>
</g>
</g>
<!-- Node7 -->
<g id="Node000007" class="node">
<title>Node7</title>
<g id="a_Node000007"><a xlink:href="class_e_b_p_f_1_1_e_b_p_f_deparser_p_s_a.html" target="_top" xlink:title=" ">
<polygon fill="white" stroke="#bfbfbf" points="768,-58 634.25,-58 634.25,-38 768,-38 768,-58"/>
<text text-anchor="middle" x="701.12" y="-44.5" font-family="Helvetica,sans-Serif" font-size="10.00">EBPF::EBPFDeparserPSA</text>
</a>
</g>
</g>
<!-- Node6&#45;&gt;Node7 -->
<g id="edge6_Node000006_Node000007" class="edge">
<title>Node6&#45;&gt;Node7</title>
<g id="a_edge6_Node000006_Node000007"><a xlink:title=" ">
<path fill="none" stroke="#63b8ff" d="M603.81,-48C613.71,-48 623.91,-48 633.79,-48"/>
<polygon fill="#63b8ff" stroke="#63b8ff" points="603.87,-44.5 593.87,-48 603.87,-51.5 603.87,-44.5"/>
</a>
</g>
</g>
<!-- Node8 -->
<g id="Node000008" class="node">
<title>Node8</title>
<g id="a_Node000008"><a xlink:href="class_e_b_p_f_1_1_egress_deparser_p_s_a.html" target="_top" xlink:title=" ">
<polygon fill="white" stroke="#bfbfbf" points="942.62,-96 804.38,-96 804.38,-76 942.62,-76 942.62,-96"/>
<text text-anchor="middle" x="873.5" y="-82.5" font-family="Helvetica,sans-Serif" font-size="10.00">EBPF::EgressDeparserPSA</text>
</a>
</g>
</g>
<!-- Node7&#45;&gt;Node8 -->
<g id="edge7_Node000007_Node000008" class="edge">
<title>Node7&#45;&gt;Node8</title>
<g id="a_edge7_Node000007_Node000008"><a xlink:title=" ">
<path fill="none" stroke="#63b8ff" d="M760.34,-60.98C781.65,-65.74 805.46,-71.05 825.65,-75.55"/>
<polygon fill="#63b8ff" stroke="#63b8ff" points="761.13,-57.57 750.61,-58.81 759.61,-64.41 761.13,-57.57"/>
</a>
</g>
</g>
<!-- Node11 -->
<g id="Node000011" class="node">
<title>Node11</title>
<g id="a_Node000011"><a xlink:href="class_e_b_p_f_1_1_ingress_deparser_p_s_a.html" target="_top" xlink:title=" ">
<polygon fill="white" stroke="#bfbfbf" points="943,-58 804,-58 804,-38 943,-38 943,-58"/>
<text text-anchor="middle" x="873.5" y="-44.5" font-family="Helvetica,sans-Serif" font-size="10.00">EBPF::IngressDeparserPSA</text>
</a>
</g>
</g>
<!-- Node7&#45;&gt;Node11 -->
<g id="edge10_Node000007_Node000011" class="edge">
<title>Node7&#45;&gt;Node11</title>
<g id="a_edge10_Node000007_Node000011"><a xlink:title=" ">
<path fill="none" stroke="#63b8ff" d="M779.92,-48C787.79,-48 795.74,-48 803.51,-48"/>
<polygon fill="#63b8ff" stroke="#63b8ff" points="780,-44.5 770,-48 780,-51.5 780,-44.5"/>
</a>
</g>
</g>
<!-- Node15 -->
<g id="Node000015" class="node">
<title>Node15</title>
<g id="a_Node000015"><a xlink:href="class_t_c_1_1_ingress_deparser_p_n_a.html" target="_top" xlink:title=" ">
<polygon fill="white" stroke="#bfbfbf" points="935.88,-20 811.12,-20 811.12,0 935.88,0 935.88,-20"/>
<text text-anchor="middle" x="873.5" y="-6.5" font-family="Helvetica,sans-Serif" font-size="10.00">TC::IngressDeparserPNA</text>
</a>
</g>
</g>
<!-- Node7&#45;&gt;Node15 -->
<g id="edge14_Node000007_Node000015" class="edge">
<title>Node7&#45;&gt;Node15</title>
<g id="a_edge14_Node000007_Node000015"><a xlink:title=" ">
<path fill="none" stroke="#63b8ff" d="M760.34,-35.02C781.65,-30.26 805.46,-24.95 825.65,-20.45"/>
<polygon fill="#63b8ff" stroke="#63b8ff" points="759.61,-31.59 750.61,-37.19 761.13,-38.43 759.61,-31.59"/>
</a>
</g>
</g>
<!-- Node9 -->
<g id="Node000009" class="node">
<title>Node9</title>
<g id="a_Node000009"><a xlink:href="class_e_b_p_f_1_1_t_c_egress_deparser_p_s_a.html" target="_top" xlink:title=" ">
<polygon fill="white" stroke="#bfbfbf" points="1133,-134 982.75,-134 982.75,-114 1133,-114 1133,-134"/>
<text text-anchor="middle" x="1057.88" y="-120.5" font-family="Helvetica,sans-Serif" font-size="10.00">EBPF::TCEgressDeparserPSA</text>
</a>
</g>
</g>
<!-- Node8&#45;&gt;Node9 -->
<g id="edge8_Node000008_Node000009" class="edge">
<title>Node8&#45;&gt;Node9</title>
<g id="a_edge8_Node000008_Node000009"><a xlink:title=" ">
<path fill="none" stroke="#63b8ff" d="M935.87,-98.79C958.92,-103.59 984.81,-108.99 1006.72,-113.55"/>
<polygon fill="#63b8ff" stroke="#63b8ff" points="936.8,-95.41 926.3,-96.79 935.38,-102.26 936.8,-95.41"/>
</a>
</g>
</g>
<!-- Node10 -->
<g id="Node000010" class="node">
<title>Node10</title>
<g id="a_Node000010"><a xlink:href="class_e_b_p_f_1_1_x_d_p_egress_deparser_p_s_a.html" target="_top" xlink:title=" ">
<polygon fill="white" stroke="#bfbfbf" points="1136.38,-96 979.38,-96 979.38,-76 1136.38,-76 1136.38,-96"/>
<text text-anchor="middle" x="1057.88" y="-82.5" font-family="Helvetica,sans-Serif" font-size="10.00">EBPF::XDPEgressDeparserPSA</text>
</a>
</g>
</g>
<!-- Node8&#45;&gt;Node10 -->
<g id="edge9_Node000008_Node000010" class="edge">
<title>Node8&#45;&gt;Node10</title>
<g id="a_edge9_Node000008_Node000010"><a xlink:title=" ">
<path fill="none" stroke="#63b8ff" d="M954.43,-86C962.65,-86 970.99,-86 979.18,-86"/>
<polygon fill="#63b8ff" stroke="#63b8ff" points="954.44,-82.5 944.44,-86 954.44,-89.5 954.44,-82.5"/>
</a>
</g>
</g>
<!-- Node12 -->
<g id="Node000012" class="node">
<title>Node12</title>
<g id="a_Node000012"><a xlink:href="class_e_b_p_f_1_1_t_c_ingress_deparser_p_s_a.html" target="_top" xlink:title=" ">
<polygon fill="white" stroke="#bfbfbf" points="1133.38,-58 982.38,-58 982.38,-38 1133.38,-38 1133.38,-58"/>
<text text-anchor="middle" x="1057.88" y="-44.5" font-family="Helvetica,sans-Serif" font-size="10.00">EBPF::TCIngressDeparserPSA</text>
</a>
</g>
</g>
<!-- Node11&#45;&gt;Node12 -->
<g id="edge11_Node000011_Node000012" class="edge">
<title>Node11&#45;&gt;Node12</title>
<g id="a_edge11_Node000011_Node000012"><a xlink:title=" ">
<path fill="none" stroke="#63b8ff" d="M954.81,-48C963.86,-48 973.06,-48 982.04,-48"/>
<polygon fill="#63b8ff" stroke="#63b8ff" points="954.96,-44.5 944.96,-48 954.96,-51.5 954.96,-44.5"/>
</a>
</g>
</g>
<!-- Node14 -->
<g id="Node000014" class="node">
<title>Node14</title>
<g id="a_Node000014"><a xlink:href="class_e_b_p_f_1_1_x_d_p_ingress_deparser_p_s_a.html" target="_top" xlink:title=" ">
<polygon fill="white" stroke="#bfbfbf" points="1136.75,-20 979,-20 979,0 1136.75,0 1136.75,-20"/>
<text text-anchor="middle" x="1057.88" y="-6.5" font-family="Helvetica,sans-Serif" font-size="10.00">EBPF::XDPIngressDeparserPSA</text>
</a>
</g>
</g>
<!-- Node11&#45;&gt;Node14 -->
<g id="edge13_Node000011_Node000014" class="edge">
<title>Node11&#45;&gt;Node14</title>
<g id="a_edge13_Node000011_Node000014"><a xlink:title=" ">
<path fill="none" stroke="#63b8ff" d="M935.87,-35.21C958.92,-30.41 984.81,-25.01 1006.72,-20.45"/>
<polygon fill="#63b8ff" stroke="#63b8ff" points="935.38,-31.74 926.3,-37.21 936.8,-38.59 935.38,-31.74"/>
</a>
</g>
</g>
<!-- Node13 -->
<g id="Node000013" class="node">
<title>Node13</title>
<g id="a_Node000013"><a xlink:href="class_e_b_p_f_1_1_t_c_ingress_deparser_for_traffic_manager_p_s_a.html" target="_top" xlink:title=" ">
<polygon fill="white" stroke="#bfbfbf" points="1317.75,-64 1172.75,-64 1172.75,-32 1317.75,-32 1317.75,-64"/>
<text text-anchor="start" x="1180.75" y="-50.5" font-family="Helvetica,sans-Serif" font-size="10.00">EBPF::TCIngressDeparserFor</text>
<text text-anchor="middle" x="1245.25" y="-38.5" font-family="Helvetica,sans-Serif" font-size="10.00">TrafficManagerPSA</text>
</a>
</g>
</g>
<!-- Node12&#45;&gt;Node13 -->
<g id="edge12_Node000012_Node000013" class="edge">
<title>Node12&#45;&gt;Node13</title>
<g id="a_edge12_Node000012_Node000013"><a xlink:title=" ">
<path fill="none" stroke="#63b8ff" d="M1145.2,-48C1154.31,-48 1163.5,-48 1172.41,-48"/>
<polygon fill="#63b8ff" stroke="#63b8ff" points="1145.25,-44.5 1135.25,-48 1145.25,-51.5 1145.25,-44.5"/>
</a>
</g>
</g>
</g>
</svg>
