<?xml version="1.0" encoding="UTF-8" standalone="no"?>
<!DOCTYPE svg PUBLIC "-//W3C//DTD SVG 1.1//EN"
 "http://www.w3.org/Graphics/SVG/1.1/DTD/svg11.dtd">
<!-- Generated by graphviz version 10.0.1 (20240210.2158)
 -->
<!-- Title: P4::ScalarValue Pages: 1 -->
<svg width="460pt" height="252pt"
 viewBox="0.00 0.00 460.00 252.00" xmlns="http://www.w3.org/2000/svg" xmlns:xlink="http://www.w3.org/1999/xlink">
<g id="graph0" class="graph" transform="scale(1 1) rotate(0) translate(4 248)">
<title>P4::ScalarValue</title>
<!-- Node1 -->
<g id="Node000001" class="node">
<title>Node1</title>
<g id="a_Node000001"><a xlink:title=" ">
<polygon fill="#999999" stroke="#666666" points="265.25,-76 178.75,-76 178.75,-56 265.25,-56 265.25,-76"/>
<text text-anchor="middle" x="222" y="-62.5" font-family="Helvetica,sans-Serif" font-size="10.00">P4::ScalarValue</text>
</a>
</g>
</g>
<!-- Node6 -->
<g id="Node000006" class="node">
<title>Node6</title>
<g id="a_Node000006"><a xlink:href="class_p4_1_1_symbolic_bool.html" target="_top" xlink:title=" ">
<polygon fill="white" stroke="#bfbfbf" points="94,-20 0,-20 0,0 94,0 94,-20"/>
<text text-anchor="middle" x="47" y="-6.5" font-family="Helvetica,sans-Serif" font-size="10.00">P4::SymbolicBool</text>
</a>
</g>
</g>
<!-- Node1&#45;&gt;Node6 -->
<g id="edge5_Node000001_Node000006" class="edge">
<title>Node1&#45;&gt;Node6</title>
<g id="a_edge5_Node000001_Node000006"><a xlink:title=" ">
<path fill="none" stroke="#63b8ff" d="M180.86,-52.31C149.27,-42.56 106.36,-29.32 77.72,-20.48"/>
<polygon fill="#63b8ff" stroke="#63b8ff" points="179.48,-55.54 190.07,-55.15 181.55,-48.85 179.48,-55.54"/>
</a>
</g>
</g>
<!-- Node7 -->
<g id="Node000007" class="node">
<title>Node7</title>
<g id="a_Node000007"><a xlink:href="class_p4_1_1_symbolic_enum.html" target="_top" xlink:title=" ">
<polygon fill="white" stroke="#bfbfbf" points="212,-20 112,-20 112,0 212,0 212,-20"/>
<text text-anchor="middle" x="162" y="-6.5" font-family="Helvetica,sans-Serif" font-size="10.00">P4::SymbolicEnum</text>
</a>
</g>
</g>
<!-- Node1&#45;&gt;Node7 -->
<g id="edge6_Node000001_Node000007" class="edge">
<title>Node1&#45;&gt;Node7</title>
<g id="a_edge6_Node000001_Node000007"><a xlink:title=" ">
<path fill="none" stroke="#63b8ff" d="M203.25,-48.13C193.05,-38.94 180.81,-27.93 172.33,-20.3"/>
<polygon fill="#63b8ff" stroke="#63b8ff" points="200.65,-50.49 210.42,-54.58 205.33,-45.29 200.65,-50.49"/>
</a>
</g>
</g>
<!-- Node8 -->
<g id="Node000008" class="node">
<title>Node8</title>
<g id="a_Node000008"><a xlink:href="class_p4_1_1_symbolic_integer.html" target="_top" xlink:title=" ">
<polygon fill="white" stroke="#bfbfbf" points="333.88,-20 230.12,-20 230.12,0 333.88,0 333.88,-20"/>
<text text-anchor="middle" x="282" y="-6.5" font-family="Helvetica,sans-Serif" font-size="10.00">P4::SymbolicInteger</text>
</a>
</g>
</g>
<!-- Node1&#45;&gt;Node8 -->
<g id="edge7_Node000001_Node000008" class="edge">
<title>Node1&#45;&gt;Node8</title>
<g id="a_edge7_Node000001_Node000008"><a xlink:title=" ">
<path fill="none" stroke="#63b8ff" d="M240.75,-48.13C250.95,-38.94 263.19,-27.93 271.67,-20.3"/>
<polygon fill="#63b8ff" stroke="#63b8ff" points="238.67,-45.29 233.58,-54.58 243.35,-50.49 238.67,-45.29"/>
</a>
</g>
</g>
<!-- Node9 -->
<g id="Node000009" class="node">
<title>Node9</title>
<g id="a_Node000009"><a xlink:href="class_p4_1_1_symbolic_varbit.html" target="_top" xlink:title=" ">
<polygon fill="white" stroke="#bfbfbf" points="452,-20 352,-20 352,0 452,0 452,-20"/>
<text text-anchor="middle" x="402" y="-6.5" font-family="Helvetica,sans-Serif" font-size="10.00">P4::SymbolicVarbit</text>
</a>
</g>
</g>
<!-- Node1&#45;&gt;Node9 -->
<g id="edge8_Node000001_Node000009" class="edge">
<title>Node1&#45;&gt;Node9</title>
<g id="a_edge8_Node000001_Node000009"><a xlink:title=" ">
<path fill="none" stroke="#63b8ff" d="M264.32,-52.31C296.8,-42.56 340.95,-29.32 370.4,-20.48"/>
<polygon fill="#63b8ff" stroke="#63b8ff" points="263.38,-48.93 254.8,-55.16 265.39,-55.64 263.38,-48.93"/>
</a>
</g>
</g>
<!-- Node2 -->
<g id="Node000002" class="node">
<title>Node2</title>
<g id="a_Node000002"><a xlink:href="class_p4_1_1_symbolic_value.html" target="_top" xlink:title=" ">
<polygon fill="white" stroke="#bfbfbf" points="271.62,-132 172.38,-132 172.38,-112 271.62,-112 271.62,-132"/>
<text text-anchor="middle" x="222" y="-118.5" font-family="Helvetica,sans-Serif" font-size="10.00">P4::SymbolicValue</text>
</a>
</g>
</g>
<!-- Node2&#45;&gt;Node1 -->
<g id="edge1_Node000001_Node000002" class="edge">
<title>Node2&#45;&gt;Node1</title>
<g id="a_edge1_Node000001_Node000002"><a xlink:title=" ">
<path fill="none" stroke="#63b8ff" d="M222,-100.13C222,-91.9 222,-82.85 222,-76.3"/>
<polygon fill="#63b8ff" stroke="#63b8ff" points="218.5,-100.08 222,-110.08 225.5,-100.08 218.5,-100.08"/>
</a>
</g>
</g>
<!-- Node3 -->
<g id="Node000003" class="node">
<title>Node3</title>
<g id="a_Node000003"><a xlink:href="class_i_has_db_print.html" target="_top" xlink:title=" ">
<polygon fill="white" stroke="#bfbfbf" points="215.88,-188 148.12,-188 148.12,-168 215.88,-168 215.88,-188"/>
<text text-anchor="middle" x="182" y="-174.5" font-family="Helvetica,sans-Serif" font-size="10.00">IHasDbPrint</text>
</a>
</g>
</g>
<!-- Node3&#45;&gt;Node2 -->
<g id="edge2_Node000002_Node000003" class="edge">
<title>Node3&#45;&gt;Node2</title>
<g id="a_edge2_Node000002_Node000003"><a xlink:title=" ">
<path fill="none" stroke="#63b8ff" d="M195.75,-158.44C202.28,-149.62 209.8,-139.47 215.11,-132.3"/>
<polygon fill="#63b8ff" stroke="#63b8ff" points="193.01,-156.26 189.87,-166.38 198.63,-160.43 193.01,-156.26"/>
</a>
</g>
</g>
<!-- Node4 -->
<g id="Node000004" class="node">
<title>Node4</title>
<g id="a_Node000004"><a xlink:href="class_i_castable.html" target="_top" xlink:title=" ">
<polygon fill="white" stroke="#666666" points="290.25,-188 233.75,-188 233.75,-168 290.25,-168 290.25,-188"/>
<text text-anchor="middle" x="262" y="-174.5" font-family="Helvetica,sans-Serif" font-size="10.00">ICastable</text>
</a>
</g>
</g>
<!-- Node4&#45;&gt;Node2 -->
<g id="edge3_Node000002_Node000004" class="edge">
<title>Node4&#45;&gt;Node2</title>
<g id="a_edge3_Node000002_Node000004"><a xlink:title=" ">
<path fill="none" stroke="#63b8ff" d="M248.25,-158.44C241.72,-149.62 234.2,-139.47 228.89,-132.3"/>
<polygon fill="#63b8ff" stroke="#63b8ff" points="245.37,-160.43 254.13,-166.38 250.99,-156.26 245.37,-160.43"/>
</a>
</g>
</g>
<!-- Node5 -->
<g id="Node000005" class="node">
<title>Node5</title>
<g id="a_Node000005"><a xlink:href="struct_r_t_t_i_1_1_base.html" target="_top" xlink:title=" ">
<polygon fill="white" stroke="#bfbfbf" points="294,-244 230,-244 230,-224 294,-224 294,-244"/>
<text text-anchor="middle" x="262" y="-230.5" font-family="Helvetica,sans-Serif" font-size="10.00">RTTI::Base</text>
</a>
</g>
</g>
<!-- Node5&#45;&gt;Node4 -->
<g id="edge4_Node000004_Node000005" class="edge">
<title>Node5&#45;&gt;Node4</title>
<g id="a_edge4_Node000004_Node000005"><a xlink:title=" ">
<path fill="none" stroke="#63b8ff" d="M262,-212.13C262,-203.9 262,-194.85 262,-188.3"/>
<polygon fill="#63b8ff" stroke="#63b8ff" points="258.5,-212.08 262,-222.08 265.5,-212.08 258.5,-212.08"/>
</a>
</g>
</g>
</g>
</svg>
