<?xml version="1.0" encoding="UTF-8" standalone="no"?>
<!DOCTYPE svg PUBLIC "-//W3C//DTD SVG 1.1//EN"
 "http://www.w3.org/Graphics/SVG/1.1/DTD/svg11.dtd">
<!-- Generated by graphviz version 10.0.1 (20240210.2158)
 -->
<!-- Title: P4::NestedStructs Pages: 1 -->
<svg width="115pt" height="196pt"
 viewBox="0.00 0.00 115.25 196.00" xmlns="http://www.w3.org/2000/svg" xmlns:xlink="http://www.w3.org/1999/xlink">
<g id="graph0" class="graph" transform="scale(1 1) rotate(0) translate(4 192)">
<title>P4::NestedStructs</title>
<!-- Node1 -->
<g id="Node000001" class="node">
<title>Node1</title>
<g id="a_Node000001"><a xlink:title=" ">
<polygon fill="#999999" stroke="#666666" points="96.25,-20 0,-20 0,0 96.25,0 96.25,-20"/>
<text text-anchor="middle" x="48.12" y="-6.5" font-family="Helvetica,sans-Serif" font-size="10.00">P4::NestedStructs</text>
</a>
</g>
</g>
<!-- Node2 -->
<g id="Node000002" class="node">
<title>Node2</title>
<g id="a_Node000002"><a xlink:href="class_pass_manager.html" target="_top" xlink:title=" ">
<polygon fill="white" stroke="#bfbfbf" points="86.12,-76 10.12,-76 10.12,-56 86.12,-56 86.12,-76"/>
<text text-anchor="middle" x="48.12" y="-62.5" font-family="Helvetica,sans-Serif" font-size="10.00">PassManager</text>
</a>
</g>
</g>
<!-- Node2&#45;&gt;Node1 -->
<g id="edge1_Node000001_Node000002" class="edge">
<title>Node2&#45;&gt;Node1</title>
<g id="a_edge1_Node000001_Node000002"><a xlink:title=" ">
<path fill="none" stroke="#63b8ff" d="M48.12,-44.13C48.12,-35.9 48.12,-26.85 48.12,-20.3"/>
<polygon fill="#63b8ff" stroke="#63b8ff" points="44.63,-44.08 48.13,-54.08 51.63,-44.08 44.63,-44.08"/>
</a>
</g>
</g>
<!-- Node3 -->
<g id="Node000003" class="node">
<title>Node3</title>
<g id="a_Node000003"><a xlink:href="class_visitor.html" target="_top" xlink:title=" ">
<polygon fill="white" stroke="#bfbfbf" points="70,-188 26.25,-188 26.25,-168 70,-168 70,-188"/>
<text text-anchor="middle" x="48.12" y="-174.5" font-family="Helvetica,sans-Serif" font-size="10.00">Visitor</text>
</a>
</g>
</g>
<!-- Node3&#45;&gt;Node2 -->
<g id="edge2_Node000002_Node000003" class="edge">
<title>Node3&#45;&gt;Node2</title>
<g id="a_edge2_Node000002_Node000003"><a xlink:title=" ">
<path fill="none" stroke="#63b8ff" d="M42.61,-156.65C40.8,-148.98 39.02,-140.15 38.12,-132 35.93,-112.03 41.48,-88.79 45.16,-76.22"/>
<polygon fill="#63b8ff" stroke="#63b8ff" points="39.22,-157.5 45.08,-166.32 46,-155.77 39.22,-157.5"/>
</a>
</g>
</g>
<!-- Node4 -->
<g id="Node000004" class="node">
<title>Node4</title>
<g id="a_Node000004"><a xlink:href="class_backtrack.html" target="_top" xlink:title=" ">
<polygon fill="white" stroke="#bfbfbf" points="107.25,-132 47,-132 47,-112 107.25,-112 107.25,-132"/>
<text text-anchor="middle" x="77.12" y="-118.5" font-family="Helvetica,sans-Serif" font-size="10.00">Backtrack</text>
</a>
</g>
</g>
<!-- Node3&#45;&gt;Node4 -->
<g id="edge4_Node000004_Node000003" class="edge">
<title>Node3&#45;&gt;Node4</title>
<g id="a_edge4_Node000004_Node000003"><a xlink:title=" ">
<path fill="none" stroke="#63b8ff" d="M58.55,-157.58C63.18,-148.97 68.4,-139.24 72.13,-132.3"/>
<polygon fill="#63b8ff" stroke="#63b8ff" points="55.54,-155.79 53.89,-166.26 61.71,-159.11 55.54,-155.79"/>
</a>
</g>
</g>
<!-- Node4&#45;&gt;Node2 -->
<g id="edge3_Node000002_Node000004" class="edge">
<title>Node4&#45;&gt;Node2</title>
<g id="a_edge3_Node000002_Node000004"><a xlink:title=" ">
<path fill="none" stroke="#63b8ff" d="M66.7,-101.58C62.07,-92.97 56.85,-83.24 53.12,-76.3"/>
<polygon fill="#63b8ff" stroke="#63b8ff" points="63.54,-103.11 71.36,-110.26 69.71,-99.79 63.54,-103.11"/>
</a>
</g>
</g>
</g>
</svg>
