<?xml version="1.0" encoding="UTF-8" standalone="no"?>
<!DOCTYPE svg PUBLIC "-//W3C//DTD SVG 1.1//EN"
 "http://www.w3.org/Graphics/SVG/1.1/DTD/svg11.dtd">
<!-- Generated by graphviz version 10.0.1 (20240210.2158)
 -->
<!-- Title: P4Tools::P4Testgen::SymbolicExecutor Pages: 1 -->
<svg width="264pt" height="190pt"
 viewBox="0.00 0.00 264.25 190.00" xmlns="http://www.w3.org/2000/svg" xmlns:xlink="http://www.w3.org/1999/xlink">
<g id="graph0" class="graph" transform="scale(1 1) rotate(0) translate(4 186)">
<title>P4Tools::P4Testgen::SymbolicExecutor</title>
<!-- Node1 -->
<g id="Node000001" class="node">
<title>Node1</title>
<g id="a_Node000001"><a xlink:title=" ">
<polygon fill="#999999" stroke="#666666" points="103.75,-107 0,-107 0,-75 103.75,-75 103.75,-107"/>
<text text-anchor="start" x="8" y="-93.5" font-family="Helvetica,sans-Serif" font-size="10.00">P4Tools::P4Testgen</text>
<text text-anchor="middle" x="51.88" y="-81.5" font-family="Helvetica,sans-Serif" font-size="10.00">::SymbolicExecutor</text>
</a>
</g>
</g>
<!-- Node2 -->
<g id="Node000002" class="node">
<title>Node2</title>
<g id="a_Node000002"><a xlink:href="class_p4_tools_1_1_p4_testgen_1_1_depth_first_search.html" target="_top" xlink:title=" ">
<polygon fill="white" stroke="#666666" points="249.88,-182 146.12,-182 146.12,-150 249.88,-150 249.88,-182"/>
<text text-anchor="start" x="154.12" y="-168.5" font-family="Helvetica,sans-Serif" font-size="10.00">P4Tools::P4Testgen</text>
<text text-anchor="middle" x="198" y="-156.5" font-family="Helvetica,sans-Serif" font-size="10.00">::DepthFirstSearch</text>
</a>
</g>
</g>
<!-- Node1&#45;&gt;Node2 -->
<g id="edge1_Node000001_Node000002" class="edge">
<title>Node1&#45;&gt;Node2</title>
<g id="a_edge1_Node000001_Node000002"><a xlink:title=" ">
<path fill="none" stroke="#63b8ff" d="M89.12,-113.05C104.51,-122.11 122.8,-132.45 139.75,-141 145.56,-143.93 151.79,-146.86 157.93,-149.63"/>
<polygon fill="#63b8ff" stroke="#63b8ff" points="91.14,-110.19 80.76,-108.09 87.57,-116.21 91.14,-110.19"/>
</a>
</g>
</g>
<!-- Node3 -->
<g id="Node000003" class="node">
<title>Node3</title>
<g id="a_Node000003"><a xlink:href="class_p4_tools_1_1_p4_testgen_1_1_greedy_node_selection.html" target="_top" xlink:title=" ">
<polygon fill="white" stroke="#666666" points="256.25,-132 139.75,-132 139.75,-100 256.25,-100 256.25,-132"/>
<text text-anchor="start" x="147.75" y="-118.5" font-family="Helvetica,sans-Serif" font-size="10.00">P4Tools::P4Testgen</text>
<text text-anchor="middle" x="198" y="-106.5" font-family="Helvetica,sans-Serif" font-size="10.00">::GreedyNodeSelection</text>
</a>
</g>
</g>
<!-- Node1&#45;&gt;Node3 -->
<g id="edge2_Node000001_Node000003" class="edge">
<title>Node1&#45;&gt;Node3</title>
<g id="a_edge2_Node000001_Node000003"><a xlink:title=" ">
<path fill="none" stroke="#63b8ff" d="M115.33,-101.83C123.38,-103.23 131.6,-104.66 139.57,-106.04"/>
<polygon fill="#63b8ff" stroke="#63b8ff" points="116.04,-98.4 105.59,-100.14 114.84,-105.3 116.04,-98.4"/>
</a>
</g>
</g>
<!-- Node4 -->
<g id="Node000004" class="node">
<title>Node4</title>
<g id="a_Node000004"><a xlink:href="class_p4_tools_1_1_p4_testgen_1_1_random_backtrack.html" target="_top" xlink:title=" ">
<polygon fill="white" stroke="#666666" points="249.88,-82 146.12,-82 146.12,-50 249.88,-50 249.88,-82"/>
<text text-anchor="start" x="154.12" y="-68.5" font-family="Helvetica,sans-Serif" font-size="10.00">P4Tools::P4Testgen</text>
<text text-anchor="middle" x="198" y="-56.5" font-family="Helvetica,sans-Serif" font-size="10.00">::RandomBacktrack</text>
</a>
</g>
</g>
<!-- Node1&#45;&gt;Node4 -->
<g id="edge3_Node000001_Node000004" class="edge">
<title>Node1&#45;&gt;Node4</title>
<g id="a_edge3_Node000001_Node000004"><a xlink:title=" ">
<path fill="none" stroke="#63b8ff" d="M115.11,-80.2C125.41,-78.42 135.97,-76.59 145.95,-74.86"/>
<polygon fill="#63b8ff" stroke="#63b8ff" points="114.84,-76.7 105.59,-81.86 116.04,-83.6 114.84,-76.7"/>
</a>
</g>
</g>
<!-- Node5 -->
<g id="Node000005" class="node">
<title>Node5</title>
<g id="a_Node000005"><a xlink:href="class_p4_tools_1_1_p4_testgen_1_1_selected_branches.html" target="_top" xlink:title="Explores one path described by a list of branches.">
<polygon fill="white" stroke="#666666" points="249.88,-32 146.12,-32 146.12,0 249.88,0 249.88,-32"/>
<text text-anchor="start" x="154.12" y="-18.5" font-family="Helvetica,sans-Serif" font-size="10.00">P4Tools::P4Testgen</text>
<text text-anchor="middle" x="198" y="-6.5" font-family="Helvetica,sans-Serif" font-size="10.00">::SelectedBranches</text>
</a>
</g>
</g>
<!-- Node1&#45;&gt;Node5 -->
<g id="edge4_Node000001_Node000005" class="edge">
<title>Node1&#45;&gt;Node5</title>
<g id="a_edge4_Node000001_Node000005"><a xlink:title=" ">
<path fill="none" stroke="#63b8ff" d="M89.12,-68.95C104.51,-59.89 122.8,-49.55 139.75,-41 145.56,-38.07 151.79,-35.14 157.93,-32.37"/>
<polygon fill="#63b8ff" stroke="#63b8ff" points="87.57,-65.79 80.76,-73.91 91.14,-71.81 87.57,-65.79"/>
</a>
</g>
</g>
</g>
</svg>
