<?xml version="1.0" encoding="UTF-8" standalone="no"?>
<!DOCTYPE svg PUBLIC "-//W3C//DTD SVG 1.1//EN"
 "http://www.w3.org/Graphics/SVG/1.1/DTD/svg11.dtd">
<!-- Generated by graphviz version 10.0.1 (20240210.2158)
 -->
<!-- Title: P4::InlineFunctions Pages: 1 -->
<svg width="117pt" height="196pt"
 viewBox="0.00 0.00 116.75 196.00" xmlns="http://www.w3.org/2000/svg" xmlns:xlink="http://www.w3.org/1999/xlink">

<svg id="main" version="1.1" xmlns="http://www.w3.org/2000/svg" xmlns:xlink="http://www.w3.org/1999/xlink" xml:space="preserve" onload="init(evt)">
<style type="text/css"><![CDATA[
.node, .edge {opacity: 0.7;}
.node.selected, .edge.selected {opacity: 1;}
.edge:hover path { stroke: red; }
.edge:hover polygon { stroke: red; fill: red; }
]]></style>
<script type="application/ecmascript" xlink:href="svg.min.js"/>
<svg id="graph" class="graph">
<g id="graph0" class="graph" transform="scale(1 1) rotate(0) translate(4 192)">
<title>P4::InlineFunctions</title>
<!-- Node1 -->
<g id="Node000001" class="node">
<title>Node1</title>
<g id="a_Node000001"><a xlink:title=" ">
<polygon fill="#999999" stroke="#666666" points="99.25,-20 0,-20 0,0 99.25,0 99.25,-20"/>
<text text-anchor="middle" x="49.62" y="-6.5" font-family="Helvetica,sans-Serif" font-size="10.00">P4::InlineFunctions</text>
</a>
</g>
</g>
<!-- Node2 -->
<g id="Node000002" class="node">
<title>Node2</title>
<g id="a_Node000002"><a xlink:href="class_pass_manager.html" target="_top" xlink:title=" ">
<polygon fill="white" stroke="#bfbfbf" points="87.62,-76 11.62,-76 11.62,-56 87.62,-56 87.62,-76"/>
<text text-anchor="middle" x="49.62" y="-62.5" font-family="Helvetica,sans-Serif" font-size="10.00">PassManager</text>
</a>
</g>
</g>
<!-- Node2&#45;&gt;Node1 -->
<g id="edge1_Node000001_Node000002" class="edge">
<title>Node2&#45;&gt;Node1</title>
<g id="a_edge1_Node000001_Node000002"><a xlink:title=" ">
<path fill="none" stroke="#63b8ff" d="M49.62,-44.13C49.62,-35.9 49.62,-26.85 49.62,-20.3"/>
<polygon fill="#63b8ff" stroke="#63b8ff" points="46.13,-44.08 49.63,-54.08 53.13,-44.08 46.13,-44.08"/>
</a>
</g>
</g>
<!-- Node3 -->
<g id="Node000003" class="node">
<title>Node3</title>
<g id="a_Node000003"><a xlink:href="class_visitor.html" target="_top" xlink:title=" ">
<polygon fill="white" stroke="#bfbfbf" points="71.5,-188 27.75,-188 27.75,-168 71.5,-168 71.5,-188"/>
<text text-anchor="middle" x="49.62" y="-174.5" font-family="Helvetica,sans-Serif" font-size="10.00">Visitor</text>
</a>
</g>
</g>
<!-- Node3&#45;&gt;Node2 -->
<g id="edge2_Node000002_Node000003" class="edge">
<title>Node3&#45;&gt;Node2</title>
<g id="a_edge2_Node000002_Node000003"><a xlink:title=" ">
<path fill="none" stroke="#63b8ff" d="M44.11,-156.65C42.3,-148.98 40.52,-140.15 39.62,-132 37.43,-112.03 42.98,-88.79 46.66,-76.22"/>
<polygon fill="#63b8ff" stroke="#63b8ff" points="40.72,-157.5 46.58,-166.32 47.5,-155.77 40.72,-157.5"/>
</a>
</g>
</g>
<!-- Node4 -->
<g id="Node000004" class="node">
<title>Node4</title>
<g id="a_Node000004"><a xlink:href="class_backtrack.html" target="_top" xlink:title=" ">
<polygon fill="white" stroke="#bfbfbf" points="108.75,-132 48.5,-132 48.5,-112 108.75,-112 108.75,-132"/>
<text text-anchor="middle" x="78.62" y="-118.5" font-family="Helvetica,sans-Serif" font-size="10.00">Backtrack</text>
</a>
</g>
</g>
<!-- Node3&#45;&gt;Node4 -->
<g id="edge4_Node000004_Node000003" class="edge">
<title>Node3&#45;&gt;Node4</title>
<g id="a_edge4_Node000004_Node000003"><a xlink:title=" ">
<path fill="none" stroke="#63b8ff" d="M60.05,-157.58C64.68,-148.97 69.9,-139.24 73.63,-132.3"/>
<polygon fill="#63b8ff" stroke="#63b8ff" points="57.04,-155.79 55.39,-166.26 63.21,-159.11 57.04,-155.79"/>
</a>
</g>
</g>
<!-- Node4&#45;&gt;Node2 -->
<g id="edge3_Node000002_Node000004" class="edge">
<title>Node4&#45;&gt;Node2</title>
<g id="a_edge3_Node000002_Node000004"><a xlink:title=" ">
<path fill="none" stroke="#63b8ff" d="M68.2,-101.58C63.57,-92.97 58.35,-83.24 54.62,-76.3"/>
<polygon fill="#63b8ff" stroke="#63b8ff" points="65.04,-103.11 72.86,-110.26 71.21,-99.79 65.04,-103.11"/>
</a>
</g>
</g>
</g>
</svg>
</svg>

<style type='text/css'>
<![CDATA[
[data-mouse-over-selected='false'] { opacity: 0.7; }
[data-mouse-over-selected='true']  { opacity: 1.0; }
]]>
</style>
<script type="application/ecmascript"><![CDATA[
document.addEventListener('DOMContentLoaded', (event) => {
  highlightEdges();
  highlightAdjacentNodes();
});
]]></script>
</svg>
