<?xml version="1.0" encoding="UTF-8" standalone="no"?>
<!DOCTYPE svg PUBLIC "-//W3C//DTD SVG 1.1//EN"
 "http://www.w3.org/Graphics/SVG/1.1/DTD/svg11.dtd">
<!-- Generated by graphviz version 10.0.1 (20240210.2158)
 -->
<!-- Title: P4::Evaluator Pages: 1 -->
<svg width="160pt" height="140pt"
 viewBox="0.00 0.00 160.00 140.00" xmlns="http://www.w3.org/2000/svg" xmlns:xlink="http://www.w3.org/1999/xlink">

<svg id="main" version="1.1" xmlns="http://www.w3.org/2000/svg" xmlns:xlink="http://www.w3.org/1999/xlink" xml:space="preserve" onload="init(evt)">
<style type="text/css"><![CDATA[
.node, .edge {opacity: 0.7;}
.node.selected, .edge.selected {opacity: 1;}
.edge:hover path { stroke: red; }
.edge:hover polygon { stroke: red; fill: red; }
]]></style>
<script type="application/ecmascript" xlink:href="svg.min.js"/>
<svg id="graph" class="graph">
<g id="graph0" class="graph" transform="scale(1 1) rotate(0) translate(4 136)">
<title>P4::Evaluator</title>
<!-- Node1 -->
<g id="Node000001" class="node">
<title>Node1</title>
<g id="a_Node000001"><a xlink:title=" ">
<polygon fill="#999999" stroke="#666666" points="106.75,-20 33,-20 33,0 106.75,0 106.75,-20"/>
<text text-anchor="middle" x="69.88" y="-6.5" font-family="Helvetica,sans-Serif" font-size="10.00">P4::Evaluator</text>
</a>
</g>
</g>
<!-- Node2 -->
<g id="Node000002" class="node">
<title>Node2</title>
<g id="a_Node000002"><a xlink:href="class_inspector.html" target="_top" xlink:title=" ">
<polygon fill="white" stroke="#bfbfbf" points="55.75,-76 0,-76 0,-56 55.75,-56 55.75,-76"/>
<text text-anchor="middle" x="27.88" y="-62.5" font-family="Helvetica,sans-Serif" font-size="10.00">Inspector</text>
</a>
</g>
</g>
<!-- Node2&#45;&gt;Node1 -->
<g id="edge1_Node000001_Node000002" class="edge">
<title>Node2&#45;&gt;Node1</title>
<g id="a_edge1_Node000001_Node000002"><a xlink:title=" ">
<path fill="none" stroke="#63b8ff" d="M42.09,-46.72C49,-37.84 57.01,-27.55 62.64,-20.3"/>
<polygon fill="#63b8ff" stroke="#63b8ff" points="39.5,-44.36 36.12,-54.4 45.02,-48.65 39.5,-44.36"/>
</a>
</g>
</g>
<!-- Node3 -->
<g id="Node000003" class="node">
<title>Node3</title>
<g id="a_Node000003"><a xlink:href="class_visitor.html" target="_top" xlink:title=" ">
<polygon fill="white" stroke="#bfbfbf" points="49.75,-132 6,-132 6,-112 49.75,-112 49.75,-132"/>
<text text-anchor="middle" x="27.88" y="-118.5" font-family="Helvetica,sans-Serif" font-size="10.00">Visitor</text>
</a>
</g>
</g>
<!-- Node3&#45;&gt;Node2 -->
<g id="edge2_Node000002_Node000003" class="edge">
<title>Node3&#45;&gt;Node2</title>
<g id="a_edge2_Node000002_Node000003"><a xlink:title=" ">
<path fill="none" stroke="#63b8ff" d="M27.88,-100.13C27.88,-91.9 27.88,-82.85 27.88,-76.3"/>
<polygon fill="#63b8ff" stroke="#63b8ff" points="24.38,-100.08 27.88,-110.08 31.38,-100.08 24.38,-100.08"/>
</a>
</g>
</g>
<!-- Node4 -->
<g id="Node000004" class="node">
<title>Node4</title>
<g id="a_Node000004"><a xlink:href="class_p4_1_1_i_has_block.html" target="_top" xlink:title=" ">
<polygon fill="white" stroke="#bfbfbf" points="152,-76 73.75,-76 73.75,-56 152,-56 152,-76"/>
<text text-anchor="middle" x="112.88" y="-62.5" font-family="Helvetica,sans-Serif" font-size="10.00">P4::IHasBlock</text>
</a>
</g>
</g>
<!-- Node4&#45;&gt;Node1 -->
<g id="edge3_Node000001_Node000004" class="edge">
<title>Node4&#45;&gt;Node1</title>
<g id="a_edge3_Node000001_Node000004"><a xlink:title=" ">
<path fill="none" stroke="#63b8ff" d="M98.32,-46.72C91.25,-37.84 83.05,-27.55 77.28,-20.3"/>
<polygon fill="#63b8ff" stroke="#63b8ff" points="95.47,-48.77 104.44,-54.41 100.95,-44.41 95.47,-48.77"/>
</a>
</g>
</g>
</g>
</svg>
</svg>

<style type='text/css'>
<![CDATA[
[data-mouse-over-selected='false'] { opacity: 0.7; }
[data-mouse-over-selected='true']  { opacity: 1.0; }
]]>
</style>
<script type="application/ecmascript"><![CDATA[
document.addEventListener('DOMContentLoaded', (event) => {
  highlightEdges();
  highlightAdjacentNodes();
});
]]></script>
</svg>
