<?xml version="1.0" encoding="UTF-8" standalone="no"?>
<!DOCTYPE svg PUBLIC "-//W3C//DTD SVG 1.1//EN"
 "http://www.w3.org/Graphics/SVG/1.1/DTD/svg11.dtd">
<!-- Generated by graphviz version 10.0.1 (20240210.2158)
 -->
<!-- Title: Backtrack Pages: 1 -->
<svg width="477pt" height="1724pt"
 viewBox="0.00 0.00 477.00 1724.00" xmlns="http://www.w3.org/2000/svg" xmlns:xlink="http://www.w3.org/1999/xlink">
<g id="graph0" class="graph" transform="scale(1 1) rotate(0) translate(4 1720)">
<title>Backtrack</title>
<!-- Node1 -->
<g id="Node000001" class="node">
<title>Node1</title>
<g id="a_Node000001"><a xlink:title=" ">
<polygon fill="#999999" stroke="#666666" points="140,-875 79.75,-875 79.75,-855 140,-855 140,-875"/>
<text text-anchor="middle" x="109.88" y="-861.5" font-family="Helvetica,sans-Serif" font-size="10.00">Backtrack</text>
</a>
</g>
</g>
<!-- Node3 -->
<g id="Node000003" class="node">
<title>Node3</title>
<g id="a_Node000003"><a xlink:href="class_on_backtrack.html" target="_top" xlink:title=" ">
<polygon fill="white" stroke="#bfbfbf" points="272.25,-894 176,-894 176,-874 272.25,-874 272.25,-894"/>
<text text-anchor="middle" x="224.12" y="-880.5" font-family="Helvetica,sans-Serif" font-size="10.00">OnBacktrack&lt; T &gt;</text>
</a>
</g>
</g>
<!-- Node1&#45;&gt;Node3 -->
<g id="edge2_Node000001_Node000003" class="edge">
<title>Node1&#45;&gt;Node3</title>
<g id="a_edge2_Node000001_Node000003"><a xlink:title=" ">
<path fill="none" stroke="#63b8ff" d="M151.45,-871.87C159.29,-873.19 167.56,-874.6 175.6,-875.96"/>
<polygon fill="#63b8ff" stroke="#63b8ff" points="152.3,-868.46 141.86,-870.24 151.14,-875.36 152.3,-868.46"/>
</a>
</g>
</g>
<!-- Node4 -->
<g id="Node000004" class="node">
<title>Node4</title>
<g id="a_Node000004"><a xlink:href="class_pass_manager.html" target="_top" xlink:title=" ">
<polygon fill="white" stroke="orangered" points="262.12,-856 186.12,-856 186.12,-836 262.12,-836 262.12,-856"/>
<text text-anchor="middle" x="224.12" y="-842.5" font-family="Helvetica,sans-Serif" font-size="10.00">PassManager</text>
</a>
</g>
</g>
<!-- Node1&#45;&gt;Node4 -->
<g id="edge3_Node000001_Node000004" class="edge">
<title>Node1&#45;&gt;Node4</title>
<g id="a_edge3_Node000001_Node000004"><a xlink:title=" ">
<path fill="none" stroke="#63b8ff" d="M151.6,-858.11C162.77,-856.22 174.82,-854.18 185.78,-852.32"/>
<polygon fill="#63b8ff" stroke="#63b8ff" points="151.14,-854.64 141.86,-859.76 152.3,-861.54 151.14,-854.64"/>
</a>
</g>
</g>
<!-- Node2 -->
<g id="Node000002" class="node">
<title>Node2</title>
<g id="a_Node000002"><a xlink:href="class_visitor.html" target="_top" xlink:title=" ">
<polygon fill="white" stroke="#bfbfbf" points="43.75,-875 0,-875 0,-855 43.75,-855 43.75,-875"/>
<text text-anchor="middle" x="21.88" y="-861.5" font-family="Helvetica,sans-Serif" font-size="10.00">Visitor</text>
</a>
</g>
</g>
<!-- Node2&#45;&gt;Node1 -->
<g id="edge1_Node000001_Node000002" class="edge">
<title>Node2&#45;&gt;Node1</title>
<g id="a_edge1_Node000001_Node000002"><a xlink:title=" ">
<path fill="none" stroke="#63b8ff" d="M55.53,-865C63.39,-865 71.73,-865 79.43,-865"/>
<polygon fill="#63b8ff" stroke="#63b8ff" points="55.65,-861.5 45.65,-865 55.65,-868.5 55.65,-861.5"/>
</a>
</g>
</g>
<!-- Node5 -->
<g id="Node000005" class="node">
<title>Node5</title>
<g id="a_Node000005"><a xlink:href="class_b_m_v2_1_1_mid_end.html" target="_top" xlink:title=" ">
<polygon fill="white" stroke="orangered" points="429.62,-1716 347.62,-1716 347.62,-1696 429.62,-1696 429.62,-1716"/>
<text text-anchor="middle" x="388.62" y="-1702.5" font-family="Helvetica,sans-Serif" font-size="10.00">BMV2::MidEnd</text>
</a>
</g>
</g>
<!-- Node4&#45;&gt;Node5 -->
<g id="edge4_Node000004_Node000005" class="edge">
<title>Node4&#45;&gt;Node5</title>
<g id="a_edge4_Node000004_Node000005"><a xlink:title=" ">
<path fill="none" stroke="#63b8ff" d="M271.26,-863.68C271.6,-864.11 271.93,-864.55 272.25,-865 325.05,-939.64 250.07,-1616.48 308.25,-1687 317.72,-1698.48 332.77,-1703.74 347.24,-1705.95"/>
<polygon fill="#63b8ff" stroke="#63b8ff" points="273.58,-861.06 263.75,-857.11 268.97,-866.33 273.58,-861.06"/>
</a>
</g>
</g>
<!-- Node8 -->
<g id="Node000008" class="node">
<title>Node8</title>
<g id="a_Node000008"><a xlink:href="struct_d_p_d_k_1_1_byte_alignment.html" target="_top" xlink:title=" ">
<polygon fill="white" stroke="#bfbfbf" points="445,-1678 332.25,-1678 332.25,-1658 445,-1658 445,-1678"/>
<text text-anchor="middle" x="388.62" y="-1664.5" font-family="Helvetica,sans-Serif" font-size="10.00">DPDK::ByteAlignment</text>
</a>
</g>
</g>
<!-- Node4&#45;&gt;Node8 -->
<g id="edge5_Node000004_Node000008" class="edge">
<title>Node4&#45;&gt;Node8</title>
<g id="a_edge5_Node000004_Node000008"><a xlink:title=" ">
<path fill="none" stroke="#63b8ff" d="M271.26,-863.68C271.6,-864.11 271.93,-864.55 272.25,-865 322.68,-936.14 252.68,-1581.79 308.25,-1649 314.39,-1656.43 322.87,-1661.25 332.01,-1664.32"/>
<polygon fill="#63b8ff" stroke="#63b8ff" points="273.58,-861.06 263.74,-857.12 268.97,-866.33 273.58,-861.06"/>
</a>
</g>
</g>
<!-- Node9 -->
<g id="Node000009" class="node">
<title>Node9</title>
<g id="a_Node000009"><a xlink:href="class_d_p_d_k_1_1_collect_local_struct_and_flatten.html" target="_top" xlink:title=" ">
<polygon fill="white" stroke="#bfbfbf" points="452.88,-1640 324.38,-1640 324.38,-1608 452.88,-1608 452.88,-1640"/>
<text text-anchor="start" x="332.38" y="-1626.5" font-family="Helvetica,sans-Serif" font-size="10.00">DPDK::CollectLocalStruct</text>
<text text-anchor="middle" x="388.62" y="-1614.5" font-family="Helvetica,sans-Serif" font-size="10.00">AndFlatten</text>
</a>
</g>
</g>
<!-- Node4&#45;&gt;Node9 -->
<g id="edge6_Node000004_Node000009" class="edge">
<title>Node4&#45;&gt;Node9</title>
<g id="a_edge6_Node000004_Node000009"><a xlink:title=" ">
<path fill="none" stroke="#63b8ff" d="M271.25,-863.68C271.6,-864.11 271.93,-864.55 272.25,-865 366.91,-998.08 208.47,-1469.72 308.25,-1599 312.49,-1604.49 317.93,-1608.8 323.97,-1612.18"/>
<polygon fill="#63b8ff" stroke="#63b8ff" points="273.57,-861.06 263.73,-857.12 268.97,-866.33 273.57,-861.06"/>
</a>
</g>
</g>
<!-- Node10 -->
<g id="Node000010" class="node">
<title>Node10</title>
<g id="a_Node000010"><a xlink:href="class_d_p_d_k_1_1_collect_program_structure.html" target="_top" xlink:title=" ">
<polygon fill="white" stroke="#bfbfbf" points="466.38,-1590 310.88,-1590 310.88,-1570 466.38,-1570 466.38,-1590"/>
<text text-anchor="middle" x="388.62" y="-1576.5" font-family="Helvetica,sans-Serif" font-size="10.00">DPDK::CollectProgramStructure</text>
</a>
</g>
</g>
<!-- Node4&#45;&gt;Node10 -->
<g id="edge7_Node000004_Node000010" class="edge">
<title>Node4&#45;&gt;Node10</title>
<g id="a_edge7_Node000004_Node000010"><a xlink:title=" ">
<path fill="none" stroke="#63b8ff" d="M271.25,-863.68C271.6,-864.11 271.93,-864.55 272.25,-865 362.19,-991.08 209.22,-1441.93 308.25,-1561 311.06,-1564.38 314.35,-1567.22 317.97,-1569.59"/>
<polygon fill="#63b8ff" stroke="#63b8ff" points="273.56,-861.06 263.72,-857.13 268.97,-866.33 273.56,-861.06"/>
</a>
</g>
</g>
<!-- Node11 -->
<g id="Node000011" class="node">
<title>Node11</title>
<g id="a_Node000011"><a xlink:href="class_d_p_d_k_1_1_convert_action_selector_and_profile.html" target="_top" xlink:title=" ">
<polygon fill="white" stroke="#666666" points="461.12,-1552 316.12,-1552 316.12,-1520 461.12,-1520 461.12,-1552"/>
<text text-anchor="start" x="324.12" y="-1538.5" font-family="Helvetica,sans-Serif" font-size="10.00">DPDK::ConvertActionSelector</text>
<text text-anchor="middle" x="388.62" y="-1526.5" font-family="Helvetica,sans-Serif" font-size="10.00">AndProfile</text>
</a>
</g>
</g>
<!-- Node4&#45;&gt;Node11 -->
<g id="edge8_Node000004_Node000011" class="edge">
<title>Node4&#45;&gt;Node11</title>
<g id="a_edge8_Node000004_Node000011"><a xlink:title=" ">
<path fill="none" stroke="#63b8ff" d="M271.25,-863.69C271.6,-864.11 271.93,-864.55 272.25,-865 355.98,-981.88 220.02,-1397.48 308.25,-1511 310.82,-1514.31 313.83,-1517.19 317.14,-1519.69"/>
<polygon fill="#63b8ff" stroke="#63b8ff" points="273.56,-861.05 263.71,-857.14 268.96,-866.34 273.56,-861.05"/>
</a>
</g>
</g>
<!-- Node12 -->
<g id="Node000012" class="node">
<title>Node12</title>
<g id="a_Node000012"><a xlink:href="class_d_p_d_k_1_1_convert_internet_checksum.html" target="_top" xlink:title=" ">
<polygon fill="white" stroke="#bfbfbf" points="468.62,-1502 308.62,-1502 308.62,-1482 468.62,-1482 468.62,-1502"/>
<text text-anchor="middle" x="388.62" y="-1488.5" font-family="Helvetica,sans-Serif" font-size="10.00">DPDK::ConvertInternetChecksum</text>
</a>
</g>
</g>
<!-- Node4&#45;&gt;Node12 -->
<g id="edge9_Node000004_Node000012" class="edge">
<title>Node4&#45;&gt;Node12</title>
<g id="a_edge9_Node000004_Node000012"><a xlink:title=" ">
<path fill="none" stroke="#63b8ff" d="M271.25,-863.69C271.59,-864.12 271.93,-864.55 272.25,-865 351.26,-974.89 221.32,-1369.26 308.25,-1473 311.07,-1476.37 314.37,-1479.2 318,-1481.57"/>
<polygon fill="#63b8ff" stroke="#63b8ff" points="273.55,-861.05 263.7,-857.14 268.96,-866.34 273.55,-861.05"/>
</a>
</g>
</g>
<!-- Node13 -->
<g id="Node000013" class="node">
<title>Node13</title>
<g id="a_Node000013"><a xlink:href="class_d_p_d_k_1_1_convert_logical_expression.html" target="_top" xlink:title=" ">
<polygon fill="white" stroke="#bfbfbf" points="469,-1464 308.25,-1464 308.25,-1444 469,-1444 469,-1464"/>
<text text-anchor="middle" x="388.62" y="-1450.5" font-family="Helvetica,sans-Serif" font-size="10.00">DPDK::ConvertLogicalExpression</text>
</a>
</g>
</g>
<!-- Node4&#45;&gt;Node13 -->
<g id="edge10_Node000004_Node000013" class="edge">
<title>Node4&#45;&gt;Node13</title>
<g id="a_edge10_Node000004_Node000013"><a xlink:title=" ">
<path fill="none" stroke="#63b8ff" d="M271.25,-863.69C271.59,-864.12 271.93,-864.55 272.25,-865 346.54,-967.9 226.54,-1337.88 308.25,-1435 311.08,-1438.36 314.38,-1441.19 318.01,-1443.56"/>
<polygon fill="#63b8ff" stroke="#63b8ff" points="273.54,-861.05 263.69,-857.15 268.96,-866.34 273.54,-861.05"/>
</a>
</g>
</g>
<!-- Node14 -->
<g id="Node000014" class="node">
<title>Node14</title>
<g id="a_Node000014"><a xlink:href="struct_d_p_d_k_1_1_convert_lookahead.html" target="_top" xlink:title=" ">
<polygon fill="white" stroke="#666666" points="452.88,-1426 324.38,-1426 324.38,-1406 452.88,-1406 452.88,-1426"/>
<text text-anchor="middle" x="388.62" y="-1412.5" font-family="Helvetica,sans-Serif" font-size="10.00">DPDK::ConvertLookahead</text>
</a>
</g>
</g>
<!-- Node4&#45;&gt;Node14 -->
<g id="edge11_Node000004_Node000014" class="edge">
<title>Node4&#45;&gt;Node14</title>
<g id="a_edge11_Node000004_Node000014"><a xlink:title=" ">
<path fill="none" stroke="#63b8ff" d="M271.24,-863.69C271.59,-864.12 271.93,-864.55 272.25,-865 341.83,-960.92 231.76,-1306.5 308.25,-1397 312.55,-1402.09 317.94,-1405.95 323.89,-1408.86"/>
<polygon fill="#63b8ff" stroke="#63b8ff" points="273.53,-861.04 263.67,-857.16 268.96,-866.34 273.53,-861.04"/>
</a>
</g>
</g>
<!-- Node15 -->
<g id="Node000015" class="node">
<title>Node15</title>
<g id="a_Node000015"><a xlink:href="struct_d_p_d_k_1_1_dpdk_add_pseudo_header.html" target="_top" xlink:title=" ">
<polygon fill="white" stroke="#bfbfbf" points="464.88,-1388 312.38,-1388 312.38,-1368 464.88,-1368 464.88,-1388"/>
<text text-anchor="middle" x="388.62" y="-1374.5" font-family="Helvetica,sans-Serif" font-size="10.00">DPDK::DpdkAddPseudoHeader</text>
</a>
</g>
</g>
<!-- Node4&#45;&gt;Node15 -->
<g id="edge12_Node000004_Node000015" class="edge">
<title>Node4&#45;&gt;Node15</title>
<g id="a_edge12_Node000004_Node000015"><a xlink:title=" ">
<path fill="none" stroke="#63b8ff" d="M270.98,-863.38C271.42,-863.9 271.84,-864.44 272.25,-865 337.11,-953.93 236.98,-1275.12 308.25,-1359 311.09,-1362.35 314.41,-1365.16 318.05,-1367.53"/>
<polygon fill="#63b8ff" stroke="#63b8ff" points="273.55,-860.97 263.66,-857.17 269.02,-866.31 273.55,-860.97"/>
</a>
</g>
</g>
<!-- Node16 -->
<g id="Node000016" class="node">
<title>Node16</title>
<g id="a_Node000016"><a xlink:href="class_d_p_d_k_1_1_dpdk_arch_first.html" target="_top" xlink:title=" ">
<polygon fill="white" stroke="#bfbfbf" points="444.25,-1350 333,-1350 333,-1330 444.25,-1330 444.25,-1350"/>
<text text-anchor="middle" x="388.62" y="-1336.5" font-family="Helvetica,sans-Serif" font-size="10.00">DPDK::DpdkArchFirst</text>
</a>
</g>
</g>
<!-- Node4&#45;&gt;Node16 -->
<g id="edge13_Node000004_Node000016" class="edge">
<title>Node4&#45;&gt;Node16</title>
<g id="a_edge13_Node000004_Node000016"><a xlink:title=" ">
<path fill="none" stroke="#63b8ff" d="M270.97,-863.38C271.42,-863.91 271.84,-864.44 272.25,-865 332.4,-946.94 242.2,-1243.74 308.25,-1321 314.6,-1328.43 323.3,-1333.24 332.61,-1336.29"/>
<polygon fill="#63b8ff" stroke="#63b8ff" points="273.54,-860.97 263.64,-857.18 269.02,-866.31 273.54,-860.97"/>
</a>
</g>
</g>
<!-- Node17 -->
<g id="Node000017" class="node">
<title>Node17</title>
<g id="a_Node000017"><a xlink:href="class_d_p_d_k_1_1_dpdk_arch_last.html" target="_top" xlink:title=" ">
<polygon fill="white" stroke="#bfbfbf" points="443.88,-1312 333.38,-1312 333.38,-1292 443.88,-1292 443.88,-1312"/>
<text text-anchor="middle" x="388.62" y="-1298.5" font-family="Helvetica,sans-Serif" font-size="10.00">DPDK::DpdkArchLast</text>
</a>
</g>
</g>
<!-- Node4&#45;&gt;Node17 -->
<g id="edge14_Node000004_Node000017" class="edge">
<title>Node4&#45;&gt;Node17</title>
<g id="a_edge14_Node000004_Node000017"><a xlink:title=" ">
<path fill="none" stroke="#63b8ff" d="M270.97,-863.39C271.41,-863.91 271.84,-864.45 272.25,-865 327.68,-939.96 247.42,-1212.35 308.25,-1283 314.72,-1290.52 323.59,-1295.34 333.06,-1298.39"/>
<polygon fill="#63b8ff" stroke="#63b8ff" points="273.52,-860.96 263.62,-857.2 269.01,-866.32 273.52,-860.96"/>
</a>
</g>
</g>
<!-- Node18 -->
<g id="Node000018" class="node">
<title>Node18</title>
<g id="a_Node000018"><a xlink:href="struct_d_p_d_k_1_1_dpdk_handle_i_p_sec.html" target="_top" xlink:title=" ">
<polygon fill="white" stroke="#bfbfbf" points="452.5,-1274 324.75,-1274 324.75,-1254 452.5,-1254 452.5,-1274"/>
<text text-anchor="middle" x="388.62" y="-1260.5" font-family="Helvetica,sans-Serif" font-size="10.00">DPDK::DpdkHandleIPSec</text>
</a>
</g>
</g>
<!-- Node4&#45;&gt;Node18 -->
<g id="edge15_Node000004_Node000018" class="edge">
<title>Node4&#45;&gt;Node18</title>
<g id="a_edge15_Node000004_Node000018"><a xlink:title=" ">
<path fill="none" stroke="#63b8ff" d="M270.96,-863.39C271.41,-863.91 271.84,-864.45 272.25,-865 322.97,-932.99 252.63,-1180.96 308.25,-1245 312.71,-1250.14 318.29,-1254.01 324.41,-1256.92"/>
<polygon fill="#63b8ff" stroke="#63b8ff" points="273.51,-860.96 263.6,-857.21 269.01,-866.32 273.51,-860.96"/>
</a>
</g>
</g>
<!-- Node19 -->
<g id="Node000019" class="node">
<title>Node19</title>
<g id="a_Node000019"><a xlink:href="class_d_p_d_k_1_1_dpdk_mid_end.html" target="_top" xlink:title=" ">
<polygon fill="white" stroke="#bfbfbf" points="440.88,-1236 336.38,-1236 336.38,-1216 440.88,-1216 440.88,-1236"/>
<text text-anchor="middle" x="388.62" y="-1222.5" font-family="Helvetica,sans-Serif" font-size="10.00">DPDK::DpdkMidEnd</text>
</a>
</g>
</g>
<!-- Node4&#45;&gt;Node19 -->
<g id="edge16_Node000004_Node000019" class="edge">
<title>Node4&#45;&gt;Node19</title>
<g id="a_edge16_Node000004_Node000019"><a xlink:title=" ">
<path fill="none" stroke="#63b8ff" d="M270.95,-863.4C271.4,-863.92 271.84,-864.45 272.25,-865 364.29,-987.02 207.43,-1092.13 308.25,-1207 315.45,-1215.2 325.5,-1220.19 336.03,-1223.15"/>
<polygon fill="#63b8ff" stroke="#63b8ff" points="273.48,-860.95 263.56,-857.24 269,-866.33 273.48,-860.95"/>
</a>
</g>
</g>
<!-- Node20 -->
<g id="Node000020" class="node">
<title>Node20</title>
<g id="a_Node000020"><a xlink:href="class_d_p_d_k_1_1_eliminate_header_copy.html" target="_top" xlink:title=" ">
<polygon fill="white" stroke="#bfbfbf" points="460,-1198 317.25,-1198 317.25,-1178 460,-1178 460,-1198"/>
<text text-anchor="middle" x="388.62" y="-1184.5" font-family="Helvetica,sans-Serif" font-size="10.00">DPDK::EliminateHeaderCopy</text>
</a>
</g>
</g>
<!-- Node4&#45;&gt;Node20 -->
<g id="edge17_Node000004_Node000020" class="edge">
<title>Node4&#45;&gt;Node20</title>
<g id="a_edge17_Node000004_Node000020"><a xlink:title=" ">
<path fill="none" stroke="#63b8ff" d="M270.94,-863.4C271.39,-863.92 271.83,-864.45 272.25,-865 354.88,-973.09 217.84,-1067.33 308.25,-1169 311.26,-1172.39 314.76,-1175.23 318.58,-1177.6"/>
<polygon fill="#63b8ff" stroke="#63b8ff" points="273.46,-860.94 263.52,-857.27 269,-866.34 273.46,-860.94"/>
</a>
</g>
</g>
<!-- Node21 -->
<g id="Node000021" class="node">
<title>Node21</title>
<g id="a_Node000021"><a xlink:href="class_d_p_d_k_1_1_eliminate_unused_action.html" target="_top" xlink:title=" ">
<polygon fill="white" stroke="#bfbfbf" points="463.75,-1160 313.5,-1160 313.5,-1140 463.75,-1140 463.75,-1160"/>
<text text-anchor="middle" x="388.62" y="-1146.5" font-family="Helvetica,sans-Serif" font-size="10.00">DPDK::EliminateUnusedAction</text>
</a>
</g>
</g>
<!-- Node4&#45;&gt;Node21 -->
<g id="edge18_Node000004_Node000021" class="edge">
<title>Node4&#45;&gt;Node21</title>
<g id="a_edge18_Node000004_Node000021"><a xlink:title=" ">
<path fill="none" stroke="#63b8ff" d="M270.93,-863.41C271.39,-863.93 271.83,-864.46 272.25,-865 345.49,-959.17 228.23,-1042.51 308.25,-1131 311.29,-1134.36 314.81,-1137.18 318.65,-1139.54"/>
<polygon fill="#63b8ff" stroke="#63b8ff" points="273.42,-860.93 263.47,-857.3 268.99,-866.35 273.42,-860.93"/>
</a>
</g>
</g>
<!-- Node22 -->
<g id="Node000022" class="node">
<title>Node22</title>
<g id="a_Node000022"><a xlink:href="class_e_b_p_f_1_1_lower.html" target="_top" xlink:title=" ">
<polygon fill="white" stroke="#bfbfbf" points="425.5,-1122 351.75,-1122 351.75,-1102 425.5,-1102 425.5,-1122"/>
<text text-anchor="middle" x="388.62" y="-1108.5" font-family="Helvetica,sans-Serif" font-size="10.00">EBPF::Lower</text>
</a>
</g>
</g>
<!-- Node4&#45;&gt;Node22 -->
<g id="edge19_Node000004_Node000022" class="edge">
<title>Node4&#45;&gt;Node22</title>
<g id="a_edge19_Node000004_Node000022"><a xlink:title=" ">
<path fill="none" stroke="#63b8ff" d="M270.91,-863.43C271.37,-863.94 271.82,-864.46 272.25,-865 336.12,-945.28 238.61,-1017.67 308.25,-1093 319.22,-1104.86 336.16,-1109.93 351.57,-1111.9"/>
<polygon fill="#63b8ff" stroke="#63b8ff" points="273.38,-860.92 263.4,-857.36 268.98,-866.36 273.38,-860.92"/>
</a>
</g>
</g>
<!-- Node23 -->
<g id="Node000023" class="node">
<title>Node23</title>
<g id="a_Node000023"><a xlink:href="class_p4_1_1_add_missing_id_annotations.html" target="_top" xlink:title=" ">
<polygon fill="white" stroke="#666666" points="460.75,-1084 316.5,-1084 316.5,-1064 460.75,-1064 460.75,-1084"/>
<text text-anchor="middle" x="388.62" y="-1070.5" font-family="Helvetica,sans-Serif" font-size="10.00">P4::AddMissingIdAnnotations</text>
</a>
</g>
</g>
<!-- Node4&#45;&gt;Node23 -->
<g id="edge20_Node000004_Node000023" class="edge">
<title>Node4&#45;&gt;Node23</title>
<g id="a_edge20_Node000004_Node000023"><a xlink:title=" ">
<path fill="none" stroke="#63b8ff" d="M270.89,-863.45C271.36,-863.95 271.81,-864.47 272.25,-865 326.79,-931.43 248.94,-992.79 308.25,-1055 311.48,-1058.38 315.19,-1061.21 319.21,-1063.57"/>
<polygon fill="#63b8ff" stroke="#63b8ff" points="273.32,-860.9 263.31,-857.43 268.96,-866.39 273.32,-860.9"/>
</a>
</g>
</g>
<!-- Node24 -->
<g id="Node000024" class="node">
<title>Node24</title>
<g id="a_Node000024"><a xlink:href="class_p4_1_1_bind_type_variables.html" target="_top" xlink:title=" ">
<polygon fill="white" stroke="#bfbfbf" points="446.12,-1046 331.12,-1046 331.12,-1026 446.12,-1026 446.12,-1046"/>
<text text-anchor="middle" x="388.62" y="-1032.5" font-family="Helvetica,sans-Serif" font-size="10.00">P4::BindTypeVariables</text>
</a>
</g>
</g>
<!-- Node4&#45;&gt;Node24 -->
<g id="edge21_Node000004_Node000024" class="edge">
<title>Node4&#45;&gt;Node24</title>
<g id="a_edge21_Node000004_Node000024"><a xlink:title=" ">
<path fill="none" stroke="#63b8ff" d="M270.49,-863.11C271.1,-863.72 271.69,-864.35 272.25,-865 317.51,-917.65 259.22,-967.85 308.25,-1017 314.45,-1023.22 322.31,-1027.54 330.65,-1030.52"/>
<polygon fill="#63b8ff" stroke="#63b8ff" points="272.81,-860.47 262.72,-857.25 268.6,-866.06 272.81,-860.47"/>
</a>
</g>
</g>
<!-- Node25 -->
<g id="Node000025" class="node">
<title>Node25</title>
<g id="a_Node000025"><a xlink:href="class_p4_1_1_check_constants.html" target="_top" xlink:title=" ">
<polygon fill="white" stroke="#bfbfbf" points="441.62,-1008 335.62,-1008 335.62,-988 441.62,-988 441.62,-1008"/>
<text text-anchor="middle" x="388.62" y="-994.5" font-family="Helvetica,sans-Serif" font-size="10.00">P4::CheckConstants</text>
</a>
</g>
</g>
<!-- Node4&#45;&gt;Node25 -->
<g id="edge22_Node000004_Node000025" class="edge">
<title>Node4&#45;&gt;Node25</title>
<g id="a_edge22_Node000004_Node000025"><a xlink:title=" ">
<path fill="none" stroke="#63b8ff" d="M270.03,-862.79C270.8,-863.5 271.54,-864.24 272.25,-865 308.34,-904 269.37,-942.79 308.25,-979 315.82,-986.05 325.53,-990.62 335.54,-993.56"/>
<polygon fill="#63b8ff" stroke="#63b8ff" points="272.23,-860.06 262.04,-857.16 268.19,-865.79 272.23,-860.06"/>
</a>
</g>
</g>
<!-- Node26 -->
<g id="Node000026" class="node">
<title>Node26</title>
<g id="a_Node000026"><a xlink:href="class_p4_1_1_check_core_methods.html" target="_top" xlink:title=" ">
<polygon fill="white" stroke="#bfbfbf" points="448.38,-970 328.88,-970 328.88,-950 448.38,-950 448.38,-970"/>
<text text-anchor="middle" x="388.62" y="-956.5" font-family="Helvetica,sans-Serif" font-size="10.00">P4::CheckCoreMethods</text>
</a>
</g>
</g>
<!-- Node4&#45;&gt;Node26 -->
<g id="edge23_Node000004_Node000026" class="edge">
<title>Node4&#45;&gt;Node26</title>
<g id="a_edge23_Node000004_Node000026"><a xlink:title=" ">
<path fill="none" stroke="#63b8ff" d="M269.43,-862.56C270.41,-863.34 271.35,-864.15 272.25,-865 299.45,-890.64 279.23,-917.45 308.25,-941 314.19,-945.82 321.16,-949.45 328.45,-952.19"/>
<polygon fill="#63b8ff" stroke="#63b8ff" points="271.48,-859.72 261.16,-857.28 267.71,-865.62 271.48,-859.72"/>
</a>
</g>
</g>
<!-- Node27 -->
<g id="Node000027" class="node">
<title>Node27</title>
<g id="a_Node000027"><a xlink:href="class_p4_1_1_constant_folding.html" target="_top" xlink:title=" ">
<polygon fill="white" stroke="#666666" points="440.88,-932 336.38,-932 336.38,-912 440.88,-912 440.88,-932"/>
<text text-anchor="middle" x="388.62" y="-918.5" font-family="Helvetica,sans-Serif" font-size="10.00">P4::ConstantFolding</text>
</a>
</g>
</g>
<!-- Node4&#45;&gt;Node27 -->
<g id="edge24_Node000004_Node000027" class="edge">
<title>Node4&#45;&gt;Node27</title>
<g id="a_edge24_Node000004_Node000027"><a xlink:title=" ">
<path fill="none" stroke="#63b8ff" d="M266.6,-861.49C268.55,-862.6 270.45,-863.77 272.25,-865 291.48,-878.09 288.1,-891.37 308.25,-903 316.72,-907.89 326.39,-911.52 335.99,-914.22"/>
<polygon fill="#63b8ff" stroke="#63b8ff" points="268.38,-858.47 257.87,-857.12 265.24,-864.73 268.38,-858.47"/>
</a>
</g>
</g>
<!-- Node28 -->
<g id="Node000028" class="node">
<title>Node28</title>
<g id="a_Node000028"><a xlink:href="class_p4_1_1_convert_enums.html" target="_top" xlink:title=" ">
<polygon fill="white" stroke="#bfbfbf" points="437.12,-894 340.12,-894 340.12,-874 437.12,-874 437.12,-894"/>
<text text-anchor="middle" x="388.62" y="-880.5" font-family="Helvetica,sans-Serif" font-size="10.00">P4::ConvertEnums</text>
</a>
</g>
</g>
<!-- Node4&#45;&gt;Node28 -->
<g id="edge25_Node000004_Node000028" class="edge">
<title>Node4&#45;&gt;Node28</title>
<g id="a_edge25_Node000004_Node000028"><a xlink:title=" ">
<path fill="none" stroke="#63b8ff" d="M273.53,-857.32C295.56,-862.47 321.46,-868.53 343.01,-873.57"/>
<polygon fill="#63b8ff" stroke="#63b8ff" points="274.41,-853.93 263.88,-855.06 272.82,-860.75 274.41,-853.93"/>
</a>
</g>
</g>
<!-- Node29 -->
<g id="Node000029" class="node">
<title>Node29</title>
<g id="a_Node000029"><a xlink:href="class_p4_1_1_convert_errors.html" target="_top" xlink:title=" ">
<polygon fill="white" stroke="#bfbfbf" points="434.88,-856 342.38,-856 342.38,-836 434.88,-836 434.88,-856"/>
<text text-anchor="middle" x="388.62" y="-842.5" font-family="Helvetica,sans-Serif" font-size="10.00">P4::ConvertErrors</text>
</a>
</g>
</g>
<!-- Node4&#45;&gt;Node29 -->
<g id="edge26_Node000004_Node000029" class="edge">
<title>Node4&#45;&gt;Node29</title>
<g id="a_edge26_Node000004_Node000029"><a xlink:title=" ">
<path fill="none" stroke="#63b8ff" d="M273.69,-846C295.38,-846 320.8,-846 342.11,-846"/>
<polygon fill="#63b8ff" stroke="#63b8ff" points="273.92,-842.5 263.92,-846 273.92,-849.5 273.92,-842.5"/>
</a>
</g>
</g>
<!-- Node30 -->
<g id="Node000030" class="node">
<title>Node30</title>
<g id="a_Node000030"><a xlink:href="class_p4_1_1_default_arguments.html" target="_top" xlink:title=" ">
<polygon fill="white" stroke="#bfbfbf" points="444.25,-818 333,-818 333,-798 444.25,-798 444.25,-818"/>
<text text-anchor="middle" x="388.62" y="-804.5" font-family="Helvetica,sans-Serif" font-size="10.00">P4::DefaultArguments</text>
</a>
</g>
</g>
<!-- Node4&#45;&gt;Node30 -->
<g id="edge27_Node000004_Node000030" class="edge">
<title>Node4&#45;&gt;Node30</title>
<g id="a_edge27_Node000004_Node000030"><a xlink:title=" ">
<path fill="none" stroke="#63b8ff" d="M273.53,-834.68C295.56,-829.53 321.46,-823.47 343.01,-818.43"/>
<polygon fill="#63b8ff" stroke="#63b8ff" points="272.82,-831.25 263.88,-836.94 274.41,-838.07 272.82,-831.25"/>
</a>
</g>
</g>
<!-- Node31 -->
<g id="Node000031" class="node">
<title>Node31</title>
<g id="a_Node000031"><a xlink:href="class_p4_1_1_default_values.html" target="_top" xlink:title=" ">
<polygon fill="white" stroke="#bfbfbf" points="435.62,-780 341.62,-780 341.62,-760 435.62,-760 435.62,-780"/>
<text text-anchor="middle" x="388.62" y="-766.5" font-family="Helvetica,sans-Serif" font-size="10.00">P4::DefaultValues</text>
</a>
</g>
</g>
<!-- Node4&#45;&gt;Node31 -->
<g id="edge28_Node000004_Node000031" class="edge">
<title>Node4&#45;&gt;Node31</title>
<g id="a_edge28_Node000004_Node000031"><a xlink:title=" ">
<path fill="none" stroke="#63b8ff" d="M245.79,-828.63C261.87,-815.93 285.26,-799.21 308.25,-789 318.61,-784.4 330.25,-780.82 341.35,-778.07"/>
<polygon fill="#63b8ff" stroke="#63b8ff" points="243.97,-825.6 238.39,-834.61 248.37,-831.04 243.97,-825.6"/>
</a>
</g>
</g>
<!-- Node32 -->
<g id="Node000032" class="node">
<title>Node32</title>
<g id="a_Node000032"><a xlink:href="class_p4_1_1_deprecated.html" target="_top" xlink:title=" ">
<polygon fill="white" stroke="#bfbfbf" points="430.38,-742 346.88,-742 346.88,-722 430.38,-722 430.38,-742"/>
<text text-anchor="middle" x="388.62" y="-728.5" font-family="Helvetica,sans-Serif" font-size="10.00">P4::Deprecated</text>
</a>
</g>
</g>
<!-- Node4&#45;&gt;Node32 -->
<g id="edge29_Node000004_Node000032" class="edge">
<title>Node4&#45;&gt;Node32</title>
<g id="a_edge29_Node000004_Node000032"><a xlink:title=" ">
<path fill="none" stroke="#63b8ff" d="M237.21,-825.95C251.45,-804.11 277.14,-769.8 308.25,-751 319.77,-744.04 333.67,-739.63 346.6,-736.83"/>
<polygon fill="#63b8ff" stroke="#63b8ff" points="234.35,-823.94 231.98,-834.26 240.27,-827.67 234.35,-823.94"/>
</a>
</g>
</g>
<!-- Node33 -->
<g id="Node000033" class="node">
<title>Node33</title>
<g id="a_Node000033"><a xlink:href="class_p4_1_1_eliminate_invalid_headers.html" target="_top" xlink:title=" ">
<polygon fill="white" stroke="#bfbfbf" points="457,-704 320.25,-704 320.25,-684 457,-684 457,-704"/>
<text text-anchor="middle" x="388.62" y="-690.5" font-family="Helvetica,sans-Serif" font-size="10.00">P4::EliminateInvalidHeaders</text>
</a>
</g>
</g>
<!-- Node4&#45;&gt;Node33 -->
<g id="edge30_Node000004_Node000033" class="edge">
<title>Node4&#45;&gt;Node33</title>
<g id="a_edge30_Node000004_Node000033"><a xlink:title=" ">
<path fill="none" stroke="#63b8ff" d="M232.37,-825.01C243.73,-795.32 268.62,-741.51 308.25,-713 313.08,-709.52 318.46,-706.68 324.09,-704.35"/>
<polygon fill="#63b8ff" stroke="#63b8ff" points="229.1,-823.77 228.96,-834.36 235.67,-826.16 229.1,-823.77"/>
</a>
</g>
</g>
<!-- Node34 -->
<g id="Node000034" class="node">
<title>Node34</title>
<g id="a_Node000034"><a xlink:href="class_p4_1_1_eliminate_newtype.html" target="_top" xlink:title=" ">
<polygon fill="white" stroke="#bfbfbf" points="444.62,-666 332.62,-666 332.62,-646 444.62,-646 444.62,-666"/>
<text text-anchor="middle" x="388.62" y="-652.5" font-family="Helvetica,sans-Serif" font-size="10.00">P4::EliminateNewtype</text>
</a>
</g>
</g>
<!-- Node4&#45;&gt;Node34 -->
<g id="edge31_Node000004_Node000034" class="edge">
<title>Node4&#45;&gt;Node34</title>
<g id="a_edge31_Node000004_Node000034"><a xlink:title=" ">
<path fill="none" stroke="#63b8ff" d="M229.27,-824.83C237.56,-788.39 259.69,-714 308.25,-675 315.21,-669.41 323.55,-665.42 332.17,-662.58"/>
<polygon fill="#63b8ff" stroke="#63b8ff" points="225.95,-823.64 227.29,-834.14 232.8,-825.09 225.95,-823.64"/>
</a>
</g>
</g>
<!-- Node35 -->
<g id="Node000035" class="node">
<title>Node35</title>
<g id="a_Node000035"><a xlink:href="class_p4_1_1_eliminate_ser_enums.html" target="_top" xlink:title=" ">
<polygon fill="white" stroke="#bfbfbf" points="448.75,-628 328.5,-628 328.5,-608 448.75,-608 448.75,-628"/>
<text text-anchor="middle" x="388.62" y="-614.5" font-family="Helvetica,sans-Serif" font-size="10.00">P4::EliminateSerEnums</text>
</a>
</g>
</g>
<!-- Node4&#45;&gt;Node35 -->
<g id="edge32_Node000004_Node000035" class="edge">
<title>Node4&#45;&gt;Node35</title>
<g id="a_edge32_Node000004_Node000035"><a xlink:title=" ">
<path fill="none" stroke="#63b8ff" d="M227.24,-824.44C232.61,-781.87 250.73,-686.8 308.25,-637 314.03,-631.99 320.91,-628.25 328.16,-625.47"/>
<polygon fill="#63b8ff" stroke="#63b8ff" points="223.77,-824.03 226.12,-834.36 230.72,-824.81 223.77,-824.03"/>
</a>
</g>
</g>
<!-- Node36 -->
<g id="Node000036" class="node">
<title>Node36</title>
<g id="a_Node000036"><a xlink:href="class_p4_1_1_eliminate_switch.html" target="_top" xlink:title=" ">
<polygon fill="white" stroke="#bfbfbf" points="440.5,-590 336.75,-590 336.75,-570 440.5,-570 440.5,-590"/>
<text text-anchor="middle" x="388.62" y="-576.5" font-family="Helvetica,sans-Serif" font-size="10.00">P4::EliminateSwitch</text>
</a>
</g>
</g>
<!-- Node4&#45;&gt;Node36 -->
<g id="edge33_Node000004_Node000036" class="edge">
<title>Node4&#45;&gt;Node36</title>
<g id="a_edge33_Node000004_Node000036"><a xlink:title=" ">
<path fill="none" stroke="#63b8ff" d="M225.74,-824.25C228.33,-776.11 241.56,-659.96 308.25,-599 316.09,-591.83 326.15,-587.23 336.46,-584.31"/>
<polygon fill="#63b8ff" stroke="#63b8ff" points="222.25,-824.04 225.33,-834.18 229.24,-824.33 222.25,-824.04"/>
</a>
</g>
</g>
<!-- Node37 -->
<g id="Node000037" class="node">
<title>Node37</title>
<g id="a_Node000037"><a xlink:href="class_p4_1_1_eliminate_tuples.html" target="_top" xlink:title=" ">
<polygon fill="white" stroke="#bfbfbf" points="440.12,-552 337.12,-552 337.12,-532 440.12,-532 440.12,-552"/>
<text text-anchor="middle" x="388.62" y="-538.5" font-family="Helvetica,sans-Serif" font-size="10.00">P4::EliminateTuples</text>
</a>
</g>
</g>
<!-- Node4&#45;&gt;Node37 -->
<g id="edge34_Node000004_Node000037" class="edge">
<title>Node4&#45;&gt;Node37</title>
<g id="a_edge34_Node000004_Node000037"><a xlink:title=" ">
<path fill="none" stroke="#63b8ff" d="M224.6,-824.24C224.55,-771.03 232.22,-633.4 308.25,-561 316.05,-553.57 326.21,-548.88 336.65,-545.96"/>
<polygon fill="#63b8ff" stroke="#63b8ff" points="221.09,-824.13 224.71,-834.09 228.09,-824.05 221.09,-824.13"/>
</a>
</g>
</g>
<!-- Node38 -->
<g id="Node000038" class="node">
<title>Node38</title>
<g id="a_Node000038"><a xlink:href="class_p4_1_1_eliminate_typedef.html" target="_top" xlink:title=" ">
<polygon fill="white" stroke="#bfbfbf" points="442.75,-514 334.5,-514 334.5,-494 442.75,-494 442.75,-514"/>
<text text-anchor="middle" x="388.62" y="-500.5" font-family="Helvetica,sans-Serif" font-size="10.00">P4::EliminateTypedef</text>
</a>
</g>
</g>
<!-- Node4&#45;&gt;Node38 -->
<g id="edge35_Node000004_Node000038" class="edge">
<title>Node4&#45;&gt;Node38</title>
<g id="a_edge35_Node000004_Node000038"><a xlink:title=" ">
<path fill="none" stroke="#63b8ff" d="M227.78,-824.35C236.23,-759.07 264.51,-566.01 308.25,-523 315.32,-516.05 324.46,-511.47 334.01,-508.5"/>
<polygon fill="#63b8ff" stroke="#63b8ff" points="224.33,-823.76 226.55,-834.12 231.28,-824.64 224.33,-823.76"/>
</a>
</g>
</g>
<!-- Node39 -->
<g id="Node000039" class="node">
<title>Node39</title>
<g id="a_Node000039"><a xlink:href="class_p4_1_1_entry_priorities.html" target="_top" xlink:title=" ">
<polygon fill="white" stroke="#bfbfbf" points="436.38,-476 340.88,-476 340.88,-456 436.38,-456 436.38,-476"/>
<text text-anchor="middle" x="388.62" y="-462.5" font-family="Helvetica,sans-Serif" font-size="10.00">P4::EntryPriorities</text>
</a>
</g>
</g>
<!-- Node4&#45;&gt;Node39 -->
<g id="edge36_Node000004_Node000039" class="edge">
<title>Node4&#45;&gt;Node39</title>
<g id="a_edge36_Node000004_Node000039"><a xlink:title=" ">
<path fill="none" stroke="#63b8ff" d="M227.17,-824.15C234.22,-753.65 259.76,-533.91 308.25,-485 316.83,-476.35 328.6,-471.36 340.45,-468.56"/>
<polygon fill="#63b8ff" stroke="#63b8ff" points="223.7,-823.71 226.22,-834 230.67,-824.38 223.7,-823.71"/>
</a>
</g>
</g>
<!-- Node40 -->
<g id="Node000040" class="node">
<title>Node40</title>
<g id="a_Node000040"><a xlink:href="class_p4_1_1_evaluator_pass.html" target="_top" xlink:title=" ">
<polygon fill="white" stroke="#666666" points="436.75,-438 340.5,-438 340.5,-418 436.75,-418 436.75,-438"/>
<text text-anchor="middle" x="388.62" y="-424.5" font-family="Helvetica,sans-Serif" font-size="10.00">P4::EvaluatorPass</text>
</a>
</g>
</g>
<!-- Node4&#45;&gt;Node40 -->
<g id="edge37_Node000004_Node000040" class="edge">
<title>Node4&#45;&gt;Node40</title>
<g id="a_edge37_Node000004_Node000040"><a xlink:title=" ">
<path fill="none" stroke="#63b8ff" d="M226.64,-824.33C232.34,-749.28 254.9,-501.95 308.25,-447 316.74,-438.26 328.48,-433.24 340.33,-430.44"/>
<polygon fill="#63b8ff" stroke="#63b8ff" points="223.17,-823.82 225.93,-834.05 230.15,-824.33 223.17,-823.82"/>
</a>
</g>
</g>
<!-- Node41 -->
<g id="Node000041" class="node">
<title>Node41</title>
<g id="a_Node000041"><a xlink:href="class_p4_1_1_expand_emit.html" target="_top" xlink:title=" ">
<polygon fill="white" stroke="#bfbfbf" points="432.25,-400 345,-400 345,-380 432.25,-380 432.25,-400"/>
<text text-anchor="middle" x="388.62" y="-386.5" font-family="Helvetica,sans-Serif" font-size="10.00">P4::ExpandEmit</text>
</a>
</g>
</g>
<!-- Node4&#45;&gt;Node41 -->
<g id="edge38_Node000004_Node000041" class="edge">
<title>Node4&#45;&gt;Node41</title>
<g id="a_edge38_Node000004_Node000041"><a xlink:title=" ">
<path fill="none" stroke="#63b8ff" d="M226.21,-824.38C230.66,-744.84 250.05,-470 308.25,-409 317.74,-399.06 331.43,-393.92 344.78,-391.38"/>
<polygon fill="#63b8ff" stroke="#63b8ff" points="222.72,-824.09 225.69,-834.26 229.71,-824.46 222.72,-824.09"/>
</a>
</g>
</g>
<!-- Node42 -->
<g id="Node000042" class="node">
<title>Node42</title>
<g id="a_Node000042"><a xlink:href="class_p4_1_1_expand_lookahead.html" target="_top" xlink:title=" ">
<polygon fill="white" stroke="#666666" points="445.75,-362 331.5,-362 331.5,-342 445.75,-342 445.75,-362"/>
<text text-anchor="middle" x="388.62" y="-348.5" font-family="Helvetica,sans-Serif" font-size="10.00">P4::ExpandLookahead</text>
</a>
</g>
</g>
<!-- Node4&#45;&gt;Node42 -->
<g id="edge39_Node000004_Node000042" class="edge">
<title>Node4&#45;&gt;Node42</title>
<g id="a_edge39_Node000004_Node000042"><a xlink:title=" ">
<path fill="none" stroke="#63b8ff" d="M225.85,-824.41C229.12,-740.59 245.18,-438.09 308.25,-371 314.46,-364.39 322.53,-359.9 331.13,-356.88"/>
<polygon fill="#63b8ff" stroke="#63b8ff" points="222.36,-824.09 225.49,-834.21 229.36,-824.34 222.36,-824.09"/>
</a>
</g>
</g>
<!-- Node43 -->
<g id="Node000043" class="node">
<title>Node43</title>
<g id="a_Node000043"><a xlink:href="class_p4_1_1_flatten_header_union.html" target="_top" xlink:title=" ">
<polygon fill="white" stroke="#666666" points="448.38,-324 328.88,-324 328.88,-304 448.38,-304 448.38,-324"/>
<text text-anchor="middle" x="388.62" y="-310.5" font-family="Helvetica,sans-Serif" font-size="10.00">P4::FlattenHeaderUnion</text>
</a>
</g>
</g>
<!-- Node4&#45;&gt;Node43 -->
<g id="edge40_Node000004_Node000043" class="edge">
<title>Node4&#45;&gt;Node43</title>
<g id="a_edge40_Node000004_Node000043"><a xlink:title=" ">
<path fill="none" stroke="#63b8ff" d="M225.55,-824.4C227.71,-736.41 240.31,-406.19 308.25,-333 313.84,-326.98 320.97,-322.71 328.66,-319.71"/>
<polygon fill="#63b8ff" stroke="#63b8ff" points="222.05,-824.18 225.33,-834.26 229.05,-824.34 222.05,-824.18"/>
</a>
</g>
</g>
<!-- Node44 -->
<g id="Node000044" class="node">
<title>Node44</title>
<g id="a_Node000044"><a xlink:href="class_p4_1_1_flatten_headers.html" target="_top" xlink:title=" ">
<polygon fill="white" stroke="#bfbfbf" points="438.62,-286 338.62,-286 338.62,-266 438.62,-266 438.62,-286"/>
<text text-anchor="middle" x="388.62" y="-272.5" font-family="Helvetica,sans-Serif" font-size="10.00">P4::FlattenHeaders</text>
</a>
</g>
</g>
<!-- Node4&#45;&gt;Node44 -->
<g id="edge41_Node000004_Node000044" class="edge">
<title>Node4&#45;&gt;Node44</title>
<g id="a_edge41_Node000004_Node000044"><a xlink:title=" ">
<path fill="none" stroke="#63b8ff" d="M225.28,-824.59C226.38,-732.89 235.37,-374.38 308.25,-295 316.11,-286.44 327.08,-281.42 338.36,-278.54"/>
<polygon fill="#63b8ff" stroke="#63b8ff" points="221.78,-824.36 225.18,-834.39 228.78,-824.43 221.78,-824.36"/>
</a>
</g>
</g>
<!-- Node45 -->
<g id="Node000045" class="node">
<title>Node45</title>
<g id="a_Node000045"><a xlink:href="class_p4_1_1_flatten_interface_structs.html" target="_top" xlink:title=" ">
<polygon fill="white" stroke="#bfbfbf" points="454.75,-248 322.5,-248 322.5,-228 454.75,-228 454.75,-248"/>
<text text-anchor="middle" x="388.62" y="-234.5" font-family="Helvetica,sans-Serif" font-size="10.00">P4::FlattenInterfaceStructs</text>
</a>
</g>
</g>
<!-- Node4&#45;&gt;Node45 -->
<g id="edge42_Node000004_Node000045" class="edge">
<title>Node4&#45;&gt;Node45</title>
<g id="a_edge42_Node000004_Node000045"><a xlink:title=" ">
<path fill="none" stroke="#63b8ff" d="M225.05,-824.34C225.17,-728.37 230.53,-342.46 308.25,-257 312.25,-252.6 317.08,-249.13 322.35,-246.4"/>
<polygon fill="#63b8ff" stroke="#63b8ff" points="221.55,-824.17 225.06,-834.16 228.55,-824.16 221.55,-824.17"/>
</a>
</g>
</g>
<!-- Node46 -->
<g id="Node000046" class="node">
<title>Node46</title>
<g id="a_Node000046"><a xlink:href="class_p4_1_1_flatten_log_msg.html" target="_top" xlink:title=" ">
<polygon fill="white" stroke="#bfbfbf" points="437.88,-210 339.38,-210 339.38,-190 437.88,-190 437.88,-210"/>
<text text-anchor="middle" x="388.62" y="-196.5" font-family="Helvetica,sans-Serif" font-size="10.00">P4::FlattenLogMsg</text>
</a>
</g>
</g>
<!-- Node4&#45;&gt;Node46 -->
<g id="edge43_Node000004_Node000046" class="edge">
<title>Node4&#45;&gt;Node46</title>
<g id="a_edge43_Node000004_Node000046"><a xlink:title=" ">
<path fill="none" stroke="#63b8ff" d="M224.85,-824.55C224,-725.2 225.55,-310.7 308.25,-219 316.22,-210.16 327.51,-205.08 339.07,-202.24"/>
<polygon fill="#63b8ff" stroke="#63b8ff" points="221.35,-824.49 224.95,-834.46 228.34,-824.42 221.35,-824.49"/>
</a>
</g>
</g>
<!-- Node47 -->
<g id="Node000047" class="node">
<title>Node47</title>
<g id="a_Node000047"><a xlink:href="class_p4_1_1_global_copy_propagation.html" target="_top" xlink:title=" ">
<polygon fill="white" stroke="#bfbfbf" points="456.62,-172 320.62,-172 320.62,-152 456.62,-152 456.62,-172"/>
<text text-anchor="middle" x="388.62" y="-158.5" font-family="Helvetica,sans-Serif" font-size="10.00">P4::GlobalCopyPropagation</text>
</a>
</g>
</g>
<!-- Node4&#45;&gt;Node47 -->
<g id="edge44_Node000004_Node000047" class="edge">
<title>Node4&#45;&gt;Node47</title>
<g id="a_edge44_Node000004_Node000047"><a xlink:title=" ">
<path fill="none" stroke="#63b8ff" d="M224.67,-824.56C222.91,-721.61 220.62,-278.89 308.25,-181 311.75,-177.09 315.89,-173.92 320.42,-171.35"/>
<polygon fill="#63b8ff" stroke="#63b8ff" points="221.16,-824.41 224.85,-834.34 228.16,-824.28 221.16,-824.41"/>
</a>
</g>
</g>
<!-- Node48 -->
<g id="Node000048" class="node">
<title>Node48</title>
<g id="a_Node000048"><a xlink:href="class_p4_1_1_h_s_index_simplifier.html" target="_top" xlink:title=" ">
<polygon fill="white" stroke="#bfbfbf" points="443.88,-134 333.38,-134 333.38,-114 443.88,-114 443.88,-134"/>
<text text-anchor="middle" x="388.62" y="-120.5" font-family="Helvetica,sans-Serif" font-size="10.00">P4::HSIndexSimplifier</text>
</a>
</g>
</g>
<!-- Node4&#45;&gt;Node48 -->
<g id="edge45_Node000004_Node000048" class="edge">
<title>Node4&#45;&gt;Node48</title>
<g id="a_edge45_Node000004_Node000048"><a xlink:title=" ">
<path fill="none" stroke="#63b8ff" d="M226.22,-824.44C232.14,-711.92 261.71,-195.34 308.25,-143 314.84,-135.59 323.76,-130.81 333.25,-127.78"/>
<polygon fill="#63b8ff" stroke="#63b8ff" points="222.75,-823.92 225.72,-834.08 229.74,-824.28 222.75,-823.92"/>
</a>
</g>
</g>
<!-- Node49 -->
<g id="Node000049" class="node">
<title>Node49</title>
<g id="a_Node000049"><a xlink:href="class_p4_1_1_handle_no_match.html" target="_top" xlink:title=" ">
<polygon fill="white" stroke="#bfbfbf" points="440.12,-96 337.12,-96 337.12,-76 440.12,-76 440.12,-96"/>
<text text-anchor="middle" x="388.62" y="-82.5" font-family="Helvetica,sans-Serif" font-size="10.00">P4::HandleNoMatch</text>
</a>
</g>
</g>
<!-- Node4&#45;&gt;Node49 -->
<g id="edge46_Node000004_Node000049" class="edge">
<title>Node4&#45;&gt;Node49</title>
<g id="a_edge46_Node000004_Node000049"><a xlink:title=" ">
<path fill="none" stroke="#63b8ff" d="M226.09,-824.37C231.46,-708.11 259.24,-160.45 308.25,-105 315.66,-96.61 326.06,-91.59 336.89,-88.66"/>
<polygon fill="#63b8ff" stroke="#63b8ff" points="222.61,-823.92 225.65,-834.07 229.6,-824.24 222.61,-823.92"/>
</a>
</g>
</g>
<!-- Node50 -->
<g id="Node000050" class="node">
<title>Node50</title>
<g id="a_Node000050"><a xlink:href="class_p4_1_1_inline_actions.html" target="_top" xlink:title=" ">
<polygon fill="white" stroke="#bfbfbf" points="433.38,-58 343.88,-58 343.88,-38 433.38,-38 433.38,-58"/>
<text text-anchor="middle" x="388.62" y="-44.5" font-family="Helvetica,sans-Serif" font-size="10.00">P4::InlineActions</text>
</a>
</g>
</g>
<!-- Node4&#45;&gt;Node50 -->
<g id="edge47_Node000004_Node000050" class="edge">
<title>Node4&#45;&gt;Node50</title>
<g id="a_edge47_Node000004_Node000050"><a xlink:title=" ">
<path fill="none" stroke="#63b8ff" d="M225.96,-824.4C230.8,-704.66 256.76,-125.58 308.25,-67 317.14,-56.89 330.36,-51.67 343.47,-49.1"/>
<polygon fill="#63b8ff" stroke="#63b8ff" points="222.48,-823.97 225.58,-834.1 229.47,-824.25 222.48,-823.97"/>
</a>
</g>
</g>
<!-- Node51 -->
<g id="Node000051" class="node">
<title>Node51</title>
<g id="a_Node000051"><a xlink:href="class_p4_1_1_inline_functions.html" target="_top" xlink:title=" ">
<polygon fill="white" stroke="#bfbfbf" points="438.25,-20 339,-20 339,0 438.25,0 438.25,-20"/>
<text text-anchor="middle" x="388.62" y="-6.5" font-family="Helvetica,sans-Serif" font-size="10.00">P4::InlineFunctions</text>
</a>
</g>
</g>
<!-- Node4&#45;&gt;Node51 -->
<g id="edge48_Node000004_Node000051" class="edge">
<title>Node4&#45;&gt;Node51</title>
<g id="a_edge48_Node000004_Node000051"><a xlink:title=" ">
<path fill="none" stroke="#63b8ff" d="M225.85,-824.51C230.17,-701.57 254.25,-90.74 308.25,-29 316.09,-20.04 327.33,-14.92 338.89,-12.07"/>
<polygon fill="#63b8ff" stroke="#63b8ff" points="222.36,-824.06 225.51,-834.17 229.36,-824.3 222.36,-824.06"/>
</a>
</g>
</g>
</g>
</svg>
