<?xml version="1.0" encoding="UTF-8" standalone="no"?>
<!DOCTYPE svg PUBLIC "-//W3C//DTD SVG 1.1//EN"
 "http://www.w3.org/Graphics/SVG/1.1/DTD/svg11.dtd">
<!-- Generated by graphviz version 10.0.1 (20240210.2158)
 -->
<!-- Title: DPDK::ConvertActionSelectorAndProfile Pages: 1 -->
<svg width="153pt" height="208pt"
 viewBox="0.00 0.00 153.00 208.00" xmlns="http://www.w3.org/2000/svg" xmlns:xlink="http://www.w3.org/1999/xlink">
<g id="graph0" class="graph" transform="scale(1 1) rotate(0) translate(4 204)">
<title>DPDK::ConvertActionSelectorAndProfile</title>
<!-- Node1 -->
<g id="Node000001" class="node">
<title>Node1</title>
<g id="a_Node000001"><a xlink:title=" ">
<polygon fill="#999999" stroke="#666666" points="145,-32 0,-32 0,0 145,0 145,-32"/>
<text text-anchor="start" x="8" y="-18.5" font-family="Helvetica,sans-Serif" font-size="10.00">DPDK::ConvertActionSelector</text>
<text text-anchor="middle" x="72.5" y="-6.5" font-family="Helvetica,sans-Serif" font-size="10.00">AndProfile</text>
</a>
</g>
</g>
<!-- Node2 -->
<g id="Node000002" class="node">
<title>Node2</title>
<g id="a_Node000002"><a xlink:href="class_pass_manager.html" target="_top" xlink:title=" ">
<polygon fill="white" stroke="#bfbfbf" points="110.5,-88 34.5,-88 34.5,-68 110.5,-68 110.5,-88"/>
<text text-anchor="middle" x="72.5" y="-74.5" font-family="Helvetica,sans-Serif" font-size="10.00">PassManager</text>
</a>
</g>
</g>
<!-- Node2&#45;&gt;Node1 -->
<g id="edge1_Node000001_Node000002" class="edge">
<title>Node2&#45;&gt;Node1</title>
<g id="a_edge1_Node000001_Node000002"><a xlink:title=" ">
<path fill="none" stroke="#63b8ff" d="M72.5,-56.31C72.5,-48.37 72.5,-39.46 72.5,-32.14"/>
<polygon fill="#63b8ff" stroke="#63b8ff" points="69,-56.11 72.5,-66.11 76,-56.11 69,-56.11"/>
</a>
</g>
</g>
<!-- Node3 -->
<g id="Node000003" class="node">
<title>Node3</title>
<g id="a_Node000003"><a xlink:href="class_visitor.html" target="_top" xlink:title=" ">
<polygon fill="white" stroke="#bfbfbf" points="94.38,-200 50.62,-200 50.62,-180 94.38,-180 94.38,-200"/>
<text text-anchor="middle" x="72.5" y="-186.5" font-family="Helvetica,sans-Serif" font-size="10.00">Visitor</text>
</a>
</g>
</g>
<!-- Node3&#45;&gt;Node2 -->
<g id="edge2_Node000002_Node000003" class="edge">
<title>Node3&#45;&gt;Node2</title>
<g id="a_edge2_Node000002_Node000003"><a xlink:title=" ">
<path fill="none" stroke="#63b8ff" d="M66.67,-168.97C63.62,-156.14 60.84,-139.14 62.5,-124 63.88,-111.43 67.37,-97.24 69.83,-88.21"/>
<polygon fill="#63b8ff" stroke="#63b8ff" points="63.2,-169.54 69.15,-178.31 69.97,-167.75 63.2,-169.54"/>
</a>
</g>
</g>
<!-- Node4 -->
<g id="Node000004" class="node">
<title>Node4</title>
<g id="a_Node000004"><a xlink:href="class_backtrack.html" target="_top" xlink:title=" ">
<polygon fill="white" stroke="#bfbfbf" points="131.62,-144 71.38,-144 71.38,-124 131.62,-124 131.62,-144"/>
<text text-anchor="middle" x="101.5" y="-130.5" font-family="Helvetica,sans-Serif" font-size="10.00">Backtrack</text>
</a>
</g>
</g>
<!-- Node3&#45;&gt;Node4 -->
<g id="edge4_Node000004_Node000003" class="edge">
<title>Node3&#45;&gt;Node4</title>
<g id="a_edge4_Node000004_Node000003"><a xlink:title=" ">
<path fill="none" stroke="#63b8ff" d="M82.93,-169.58C87.55,-160.97 92.78,-151.24 96.51,-144.3"/>
<polygon fill="#63b8ff" stroke="#63b8ff" points="79.92,-167.79 78.27,-178.26 86.08,-171.11 79.92,-167.79"/>
</a>
</g>
</g>
<!-- Node4&#45;&gt;Node2 -->
<g id="edge3_Node000002_Node000004" class="edge">
<title>Node4&#45;&gt;Node2</title>
<g id="a_edge3_Node000002_Node000004"><a xlink:title=" ">
<path fill="none" stroke="#63b8ff" d="M91.07,-113.58C86.45,-104.97 81.22,-95.24 77.49,-88.3"/>
<polygon fill="#63b8ff" stroke="#63b8ff" points="87.92,-115.11 95.73,-122.26 94.08,-111.79 87.92,-115.11"/>
</a>
</g>
</g>
</g>
</svg>
