<?xml version="1.0" encoding="UTF-8" standalone="no"?>
<!DOCTYPE svg PUBLIC "-//W3C//DTD SVG 1.1//EN"
 "http://www.w3.org/Graphics/SVG/1.1/DTD/svg11.dtd">
<!-- Generated by graphviz version 10.0.1 (20240210.2158)
 -->
<!-- Title: EBPF::IHasWidth Pages: 1 -->
<!--zoomable 256 -->

<svg id="main" version="1.1" xmlns="http://www.w3.org/2000/svg" xmlns:xlink="http://www.w3.org/1999/xlink" xml:space="preserve" onload="init(evt)">
<style type="text/css"><![CDATA[
.node, .edge {opacity: 0.7;}
.node.selected, .edge.selected {opacity: 1;}
.edge:hover path { stroke: red; }
.edge:hover polygon { stroke: red; fill: red; }
]]></style>

<defs>
  <circle id="rim" cx="0" cy="0" r="7"/>
  <circle id="rim2" cx="0" cy="0" r="3.5"/>
  <g id="zoomPlus">
    <use xlink:href="#rim" fill="#404040"><set attributeName="fill" to="#808080" begin="zoomplus.mouseover" end="zoomplus.mouseout"/></use>
    <path d="M-4,0h8M0,-4v8" fill="none" stroke="white" stroke-width="1.5" pointer-events="none"/>
  </g>
  <g id="zoomMin">
    <use xlink:href="#rim" fill="#404040"><set attributeName="fill" to="#808080" begin="zoomminus.mouseover" end="zoomminus.mouseout"/></use>
    <path d="M-4,0h8" fill="none" stroke="white" stroke-width="1.5" pointer-events="none"/>
  </g>
  <g id="arrowUp" transform="translate(30 24)">
    <use xlink:href="#rim"/>
    <path pointer-events="none" fill="none" stroke="white" stroke-width="1.5" d="M0,-3.0v7 M-2.5,-0.5L0,-3.0L2.5,-0.5"/>
  </g>
  <g id="arrowRight" transform="rotate(90) translate(36 -43)">
    <use xlink:href="#rim"/>
    <path pointer-events="none" fill="none" stroke="white" stroke-width="1.5" d="M0,-3.0v7 M-2.5,-0.5L0,-3.0L2.5,-0.5"/>
  </g>
  <g id="arrowDown" transform="rotate(180) translate(-30 -48)">
    <use xlink:href="#rim"/>
    <path pointer-events="none" fill="none" stroke="white" stroke-width="1.5" d="M0,-3.0v7 M-2.5,-0.5L0,-3.0L2.5,-0.5"/>
  </g>
  <g id="arrowLeft" transform="rotate(270) translate(-36 17)">
    <use xlink:href="#rim"/>
    <path pointer-events="none" fill="none" stroke="white" stroke-width="1.5" d="M0,-3.0v7 M-2.5,-0.5L0,-3.0L2.5,-0.5"/>
  </g>
  <g id="resetDef">
    <use xlink:href="#rim2" fill="#404040"><set attributeName="fill" to="#808080" begin="reset.mouseover" end="reset.mouseout"/></use>
  </g>
</defs>
<script type="application/ecmascript">
var viewWidth = 612;
var viewHeight = 256;
var sectionId = 'dynsection-0';
</script>
<script type="application/ecmascript" xlink:href="svg.min.js"/>
<svg id="graph" class="graph">
<g id="viewport">
<title>EBPF::IHasWidth</title>
<!-- Node1 -->
<g id="Node000001" class="node">
<title>Node1</title>
<g id="a_Node000001"><a xlink:title=" ">
<polygon fill="#999999" stroke="#666666" points="285.75,-134 192.5,-134 192.5,-114 285.75,-114 285.75,-134"/>
<text text-anchor="middle" x="239.12" y="-120.5" font-family="Helvetica,sans-Serif" font-size="10.00">EBPF::IHasWidth</text>
</a>
</g>
</g>
<!-- Node4 -->
<g id="Node000004" class="node">
<title>Node4</title>
<g id="a_Node000004"><a xlink:href="class_e_b_p_f_1_1_e_b_p_f_bool_type.html" target="_top" xlink:title=" ">
<polygon fill="white" stroke="#bfbfbf" points="440.88,-248 325.88,-248 325.88,-228 440.88,-228 440.88,-248"/>
<text text-anchor="middle" x="383.38" y="-234.5" font-family="Helvetica,sans-Serif" font-size="10.00">EBPF::EBPFBoolType</text>
</a>
</g>
</g>
<!-- Node1&#45;&gt;Node4 -->
<g id="edge3_Node000001_Node000004" class="edge">
<title>Node1&#45;&gt;Node4</title>
<g id="a_edge3_Node000001_Node000004"><a xlink:title=" ">
<path fill="none" stroke="#63b8ff" d="M252.15,-143.66C266.27,-165.15 291.63,-199.16 321.75,-219 326.91,-222.4 332.71,-225.22 338.63,-227.55"/>
<polygon fill="#63b8ff" stroke="#63b8ff" points="255.29,-142.07 246.97,-135.51 249.38,-145.83 255.29,-142.07"/>
</a>
</g>
</g>
<!-- Node6 -->
<g id="Node000006" class="node">
<title>Node6</title>
<g id="a_Node000006"><a xlink:href="class_e_b_p_f_1_1_e_b_p_f_enum_type.html" target="_top" xlink:title=" ">
<polygon fill="white" stroke="#bfbfbf" points="443.88,-210 322.88,-210 322.88,-190 443.88,-190 443.88,-210"/>
<text text-anchor="middle" x="383.38" y="-196.5" font-family="Helvetica,sans-Serif" font-size="10.00">EBPF::EBPFEnumType</text>
</a>
</g>
</g>
<!-- Node1&#45;&gt;Node6 -->
<g id="edge5_Node000001_Node000006" class="edge">
<title>Node1&#45;&gt;Node6</title>
<g id="a_edge5_Node000001_Node000006"><a xlink:title=" ">
<path fill="none" stroke="#63b8ff" d="M261.29,-141.51C277.14,-153.91 299.78,-170.21 321.75,-181 328.38,-184.26 335.7,-187.11 342.88,-189.55"/>
<polygon fill="#63b8ff" stroke="#63b8ff" points="263.55,-138.83 253.55,-135.31 259.18,-144.29 263.55,-138.83"/>
</a>
</g>
</g>
<!-- Node8 -->
<g id="Node000008" class="node">
<title>Node8</title>
<g id="a_Node000008"><a xlink:href="class_e_b_p_f_1_1_e_b_p_f_scalar_type.html" target="_top" xlink:title=" ">
<polygon fill="white" stroke="#bfbfbf" points="445,-172 321.75,-172 321.75,-152 445,-152 445,-172"/>
<text text-anchor="middle" x="383.38" y="-158.5" font-family="Helvetica,sans-Serif" font-size="10.00">EBPF::EBPFScalarType</text>
</a>
</g>
</g>
<!-- Node1&#45;&gt;Node8 -->
<g id="edge7_Node000001_Node000008" class="edge">
<title>Node1&#45;&gt;Node8</title>
<g id="a_edge7_Node000001_Node000008"><a xlink:title=" ">
<path fill="none" stroke="#63b8ff" d="M290.46,-137.45C307.8,-142.08 326.95,-147.19 343.26,-151.55"/>
<polygon fill="#63b8ff" stroke="#63b8ff" points="291.4,-134.07 280.83,-134.87 289.59,-140.84 291.4,-134.07"/>
</a>
</g>
</g>
<!-- Node10 -->
<g id="Node000010" class="node">
<title>Node10</title>
<g id="a_Node000010"><a xlink:href="class_e_b_p_f_1_1_e_b_p_f_stack_type.html" target="_top" xlink:title=" ">
<polygon fill="white" stroke="#bfbfbf" points="443.88,-134 322.88,-134 322.88,-114 443.88,-114 443.88,-134"/>
<text text-anchor="middle" x="383.38" y="-120.5" font-family="Helvetica,sans-Serif" font-size="10.00">EBPF::EBPFStackType</text>
</a>
</g>
</g>
<!-- Node1&#45;&gt;Node10 -->
<g id="edge9_Node000001_Node000010" class="edge">
<title>Node1&#45;&gt;Node10</title>
<g id="a_edge9_Node000001_Node000010"><a xlink:title=" ">
<path fill="none" stroke="#63b8ff" d="M297.35,-124C305.59,-124 314.09,-124 322.38,-124"/>
<polygon fill="#63b8ff" stroke="#63b8ff" points="297.43,-120.5 287.43,-124 297.43,-127.5 297.43,-120.5"/>
</a>
</g>
</g>
<!-- Node11 -->
<g id="Node000011" class="node">
<title>Node11</title>
<g id="a_Node000011"><a xlink:href="class_e_b_p_f_1_1_e_b_p_f_struct_type.html" target="_top" xlink:title=" ">
<polygon fill="white" stroke="#bfbfbf" points="444.25,-96 322.5,-96 322.5,-76 444.25,-76 444.25,-96"/>
<text text-anchor="middle" x="383.38" y="-82.5" font-family="Helvetica,sans-Serif" font-size="10.00">EBPF::EBPFStructType</text>
</a>
</g>
</g>
<!-- Node1&#45;&gt;Node11 -->
<g id="edge10_Node000001_Node000011" class="edge">
<title>Node1&#45;&gt;Node11</title>
<g id="a_edge10_Node000001_Node000011"><a xlink:title=" ">
<path fill="none" stroke="#63b8ff" d="M290.46,-110.55C307.8,-105.92 326.95,-100.81 343.26,-96.45"/>
<polygon fill="#63b8ff" stroke="#63b8ff" points="289.59,-107.16 280.83,-113.13 291.4,-113.93 289.59,-107.16"/>
</a>
</g>
</g>
<!-- Node13 -->
<g id="Node000013" class="node">
<title>Node13</title>
<g id="a_Node000013"><a xlink:href="class_e_b_p_f_1_1_e_b_p_f_type_name.html" target="_top" xlink:title=" ">
<polygon fill="white" stroke="#bfbfbf" points="443.88,-58 322.88,-58 322.88,-38 443.88,-38 443.88,-58"/>
<text text-anchor="middle" x="383.38" y="-44.5" font-family="Helvetica,sans-Serif" font-size="10.00">EBPF::EBPFTypeName</text>
</a>
</g>
</g>
<!-- Node1&#45;&gt;Node13 -->
<g id="edge12_Node000001_Node000013" class="edge">
<title>Node1&#45;&gt;Node13</title>
<g id="a_edge12_Node000001_Node000013"><a xlink:title=" ">
<path fill="none" stroke="#63b8ff" d="M261.29,-106.49C277.14,-94.09 299.78,-77.79 321.75,-67 328.38,-63.74 335.7,-60.89 342.88,-58.45"/>
<polygon fill="#63b8ff" stroke="#63b8ff" points="259.18,-103.71 253.55,-112.69 263.55,-109.17 259.18,-103.71"/>
</a>
</g>
</g>
<!-- Node14 -->
<g id="Node000014" class="node">
<title>Node14</title>
<g id="a_Node000014"><a xlink:href="class_u_b_p_f_1_1_u_b_p_f_list_type.html" target="_top" xlink:title=" ">
<polygon fill="white" stroke="#bfbfbf" points="439,-20 327.75,-20 327.75,0 439,0 439,-20"/>
<text text-anchor="middle" x="383.38" y="-6.5" font-family="Helvetica,sans-Serif" font-size="10.00">UBPF::UBPFListType</text>
</a>
</g>
</g>
<!-- Node1&#45;&gt;Node14 -->
<g id="edge13_Node000001_Node000014" class="edge">
<title>Node1&#45;&gt;Node14</title>
<g id="a_edge13_Node000001_Node000014"><a xlink:title=" ">
<path fill="none" stroke="#63b8ff" d="M252.15,-104.34C266.27,-82.85 291.63,-48.84 321.75,-29 326.91,-25.6 332.71,-22.78 338.63,-20.45"/>
<polygon fill="#63b8ff" stroke="#63b8ff" points="249.38,-102.17 246.97,-112.49 255.29,-105.93 249.38,-102.17"/>
</a>
</g>
</g>
<!-- Node2 -->
<g id="Node000002" class="node">
<title>Node2</title>
<g id="a_Node000002"><a xlink:href="class_i_castable.html" target="_top" xlink:title=" ">
<polygon fill="white" stroke="#666666" points="156.5,-134 100,-134 100,-114 156.5,-114 156.5,-134"/>
<text text-anchor="middle" x="128.25" y="-120.5" font-family="Helvetica,sans-Serif" font-size="10.00">ICastable</text>
</a>
</g>
</g>
<!-- Node2&#45;&gt;Node1 -->
<g id="edge1_Node000001_Node000002" class="edge">
<title>Node2&#45;&gt;Node1</title>
<g id="a_edge1_Node000001_Node000002"><a xlink:title=" ">
<path fill="none" stroke="#63b8ff" d="M168.06,-124C175.82,-124 184.04,-124 192.02,-124"/>
<polygon fill="#63b8ff" stroke="#63b8ff" points="168.24,-120.5 158.24,-124 168.24,-127.5 168.24,-120.5"/>
</a>
</g>
</g>
<!-- Node3 -->
<g id="Node000003" class="node">
<title>Node3</title>
<g id="a_Node000003"><a xlink:href="struct_r_t_t_i_1_1_base.html" target="_top" xlink:title=" ">
<polygon fill="white" stroke="#bfbfbf" points="64,-134 0,-134 0,-114 64,-114 64,-134"/>
<text text-anchor="middle" x="32" y="-120.5" font-family="Helvetica,sans-Serif" font-size="10.00">RTTI::Base</text>
</a>
</g>
</g>
<!-- Node3&#45;&gt;Node2 -->
<g id="edge2_Node000002_Node000003" class="edge">
<title>Node3&#45;&gt;Node2</title>
<g id="a_edge2_Node000002_Node000003"><a xlink:title=" ">
<path fill="none" stroke="#63b8ff" d="M75.72,-124C83.9,-124 92.26,-124 99.8,-124"/>
<polygon fill="#63b8ff" stroke="#63b8ff" points="75.9,-120.5 65.9,-124 75.9,-127.5 75.9,-120.5"/>
</a>
</g>
</g>
<!-- Node5 -->
<g id="Node000005" class="node">
<title>Node5</title>
<g id="a_Node000005"><a xlink:href="class_u_b_p_f_1_1_u_b_p_f_bool_type.html" target="_top" xlink:title=" ">
<polygon fill="white" stroke="#bfbfbf" points="600.12,-248 485.12,-248 485.12,-228 600.12,-228 600.12,-248"/>
<text text-anchor="middle" x="542.62" y="-234.5" font-family="Helvetica,sans-Serif" font-size="10.00">UBPF::UBPFBoolType</text>
</a>
</g>
</g>
<!-- Node4&#45;&gt;Node5 -->
<g id="edge4_Node000004_Node000005" class="edge">
<title>Node4&#45;&gt;Node5</title>
<g id="a_edge4_Node000004_Node000005"><a xlink:title=" ">
<path fill="none" stroke="#63b8ff" d="M452.61,-238C463.31,-238 474.27,-238 484.67,-238"/>
<polygon fill="#63b8ff" stroke="#63b8ff" points="452.66,-234.5 442.66,-238 452.66,-241.5 452.66,-234.5"/>
</a>
</g>
</g>
<!-- Node7 -->
<g id="Node000007" class="node">
<title>Node7</title>
<g id="a_Node000007"><a xlink:href="class_u_b_p_f_1_1_u_b_p_f_enum_type.html" target="_top" xlink:title=" ">
<polygon fill="white" stroke="#bfbfbf" points="603.12,-210 482.12,-210 482.12,-190 603.12,-190 603.12,-210"/>
<text text-anchor="middle" x="542.62" y="-196.5" font-family="Helvetica,sans-Serif" font-size="10.00">UBPF::UBPFEnumType</text>
</a>
</g>
</g>
<!-- Node6&#45;&gt;Node7 -->
<g id="edge6_Node000006_Node000007" class="edge">
<title>Node6&#45;&gt;Node7</title>
<g id="a_edge6_Node000006_Node000007"><a xlink:title=" ">
<path fill="none" stroke="#63b8ff" d="M455.6,-200C464.3,-200 473.12,-200 481.63,-200"/>
<polygon fill="#63b8ff" stroke="#63b8ff" points="455.79,-196.5 445.79,-200 455.79,-203.5 455.79,-196.5"/>
</a>
</g>
</g>
<!-- Node9 -->
<g id="Node000009" class="node">
<title>Node9</title>
<g id="a_Node000009"><a xlink:href="class_u_b_p_f_1_1_u_b_p_f_scalar_type.html" target="_top" xlink:title=" ">
<polygon fill="white" stroke="#bfbfbf" points="604.25,-172 481,-172 481,-152 604.25,-152 604.25,-172"/>
<text text-anchor="middle" x="542.62" y="-158.5" font-family="Helvetica,sans-Serif" font-size="10.00">UBPF::UBPFScalarType</text>
</a>
</g>
</g>
<!-- Node8&#45;&gt;Node9 -->
<g id="edge8_Node000008_Node000009" class="edge">
<title>Node8&#45;&gt;Node9</title>
<g id="a_edge8_Node000008_Node000009"><a xlink:title=" ">
<path fill="none" stroke="#63b8ff" d="M456.52,-162C464.61,-162 472.8,-162 480.73,-162"/>
<polygon fill="#63b8ff" stroke="#63b8ff" points="456.69,-158.5 446.69,-162 456.69,-165.5 456.69,-158.5"/>
</a>
</g>
</g>
<!-- Node12 -->
<g id="Node000012" class="node">
<title>Node12</title>
<g id="a_Node000012"><a xlink:href="class_u_b_p_f_1_1_u_b_p_f_struct_type.html" target="_top" xlink:title=" ">
<polygon fill="white" stroke="#bfbfbf" points="603.5,-96 481.75,-96 481.75,-76 603.5,-76 603.5,-96"/>
<text text-anchor="middle" x="542.62" y="-82.5" font-family="Helvetica,sans-Serif" font-size="10.00">UBPF::UBPFStructType</text>
</a>
</g>
</g>
<!-- Node11&#45;&gt;Node12 -->
<g id="edge11_Node000011_Node000012" class="edge">
<title>Node11&#45;&gt;Node12</title>
<g id="a_edge11_Node000011_Node000012"><a xlink:title=" ">
<path fill="none" stroke="#63b8ff" d="M456.15,-86C464.6,-86 473.17,-86 481.44,-86"/>
<polygon fill="#63b8ff" stroke="#63b8ff" points="456.24,-82.5 446.24,-86 456.24,-89.5 456.24,-82.5"/>
</a>
</g>
</g>
</g>
</svg>

<g id="navigator" transform="translate(0 0)" fill="#404254">
  <rect fill="#f2f5e9" fill-opacity="0.5" stroke="#606060" stroke-width=".5" x="0" y="0" width="60" height="60"/>
  <use id="zoomplus" xlink:href="#zoomPlus" x="17" y="9" onmousedown="handleZoom(evt,'in')"/>
  <use id="zoomminus" xlink:href="#zoomMin" x="42" y="9" onmousedown="handleZoom(evt,'out')"/>
  <use id="reset" xlink:href="#resetDef" x="30" y="36" onmousedown="handleReset()"/>
   <use id="arrowup" xlink:href="#arrowUp" x="0" y="0" onmousedown="handlePan(0,-1)"/>
  <use id="arrowright" xlink:href="#arrowRight" x="0" y="0" onmousedown="handlePan(1,0)"/>
  <use id="arrowdown" xlink:href="#arrowDown" x="0" y="0" onmousedown="handlePan(0,1)"/>
  <use id="arrowleft" xlink:href="#arrowLeft" x="0" y="0" onmousedown="handlePan(-1,0)"/>
</g>
<svg viewBox="0 0 15 15" width="100%" height="30px" preserveAspectRatio="xMaxYMin meet">
 <g id="arrow_out" transform="scale(0.3 0.3)">
  <a xlink:href="class_e_b_p_f_1_1_i_has_width__inherit__graph_org.svg" target="_base">
   <rect id="button" ry="5" rx="5" y="6" x="6" height="38" width="38"
        fill="#f2f5e9" fill-opacity="0.5" stroke="#606060" stroke-width="1.0"/>
   <path id="arrow"
     d="M 11.500037,31.436501 C 11.940474,20.09759 22.043105,11.32322 32.158766,21.979434 L 37.068811,17.246167 C 37.068811,17.246167 37.088388,32 37.088388,32 L 22.160133,31.978069 C 22.160133,31.978069 26.997745,27.140456 26.997745,27.140456 C 18.528582,18.264221 13.291696,25.230495 11.500037,31.436501 z"
     style="fill:#404040;"/>
  </a>
 </g>
</svg>

<style type='text/css'>
<![CDATA[
[data-mouse-over-selected='false'] { opacity: 0.7; }
[data-mouse-over-selected='true']  { opacity: 1.0; }
]]>
</style>
<script type="application/ecmascript"><![CDATA[
document.addEventListener('DOMContentLoaded', (event) => {
  highlightEdges();
  highlightAdjacentNodes();
});
]]></script>
</svg>
