<?xml version="1.0" encoding="UTF-8" standalone="no"?>
<!DOCTYPE svg PUBLIC "-//W3C//DTD SVG 1.1//EN"
 "http://www.w3.org/Graphics/SVG/1.1/DTD/svg11.dtd">
<!-- Generated by graphviz version 10.0.1 (20240210.2158)
 -->
<!-- Title: EBPF::ControlBodyTranslator Pages: 1 -->
<!--zoomable 192 -->

<svg id="main" version="1.1" xmlns="http://www.w3.org/2000/svg" xmlns:xlink="http://www.w3.org/1999/xlink" xml:space="preserve" onload="init(evt)">
<style type="text/css"><![CDATA[
.node, .edge {opacity: 0.7;}
.node.selected, .edge.selected {opacity: 1;}
.edge:hover path { stroke: red; }
.edge:hover polygon { stroke: red; fill: red; }
]]></style>

<defs>
  <circle id="rim" cx="0" cy="0" r="7"/>
  <circle id="rim2" cx="0" cy="0" r="3.5"/>
  <g id="zoomPlus">
    <use xlink:href="#rim" fill="#404040"><set attributeName="fill" to="#808080" begin="zoomplus.mouseover" end="zoomplus.mouseout"/></use>
    <path d="M-4,0h8M0,-4v8" fill="none" stroke="white" stroke-width="1.5" pointer-events="none"/>
  </g>
  <g id="zoomMin">
    <use xlink:href="#rim" fill="#404040"><set attributeName="fill" to="#808080" begin="zoomminus.mouseover" end="zoomminus.mouseout"/></use>
    <path d="M-4,0h8" fill="none" stroke="white" stroke-width="1.5" pointer-events="none"/>
  </g>
  <g id="arrowUp" transform="translate(30 24)">
    <use xlink:href="#rim"/>
    <path pointer-events="none" fill="none" stroke="white" stroke-width="1.5" d="M0,-3.0v7 M-2.5,-0.5L0,-3.0L2.5,-0.5"/>
  </g>
  <g id="arrowRight" transform="rotate(90) translate(36 -43)">
    <use xlink:href="#rim"/>
    <path pointer-events="none" fill="none" stroke="white" stroke-width="1.5" d="M0,-3.0v7 M-2.5,-0.5L0,-3.0L2.5,-0.5"/>
  </g>
  <g id="arrowDown" transform="rotate(180) translate(-30 -48)">
    <use xlink:href="#rim"/>
    <path pointer-events="none" fill="none" stroke="white" stroke-width="1.5" d="M0,-3.0v7 M-2.5,-0.5L0,-3.0L2.5,-0.5"/>
  </g>
  <g id="arrowLeft" transform="rotate(270) translate(-36 17)">
    <use xlink:href="#rim"/>
    <path pointer-events="none" fill="none" stroke="white" stroke-width="1.5" d="M0,-3.0v7 M-2.5,-0.5L0,-3.0L2.5,-0.5"/>
  </g>
  <g id="resetDef">
    <use xlink:href="#rim2" fill="#404040"><set attributeName="fill" to="#808080" begin="reset.mouseover" end="reset.mouseout"/></use>
  </g>
</defs>
<script type="application/ecmascript">
var viewWidth = 904;
var viewHeight = 192;
var sectionId = 'dynsection-0';
</script>
<script type="application/ecmascript" xlink:href="svg.min.js"/>
<svg id="graph" class="graph">
<g id="viewport">
<title>EBPF::ControlBodyTranslator</title>
<!-- Node1 -->
<g id="Node000001" class="node">
<title>Node1</title>
<g id="a_Node000001"><a xlink:title=" ">
<polygon fill="#999999" stroke="#666666" points="480.25,-102 336,-102 336,-82 480.25,-82 480.25,-102"/>
<text text-anchor="middle" x="408.12" y="-88.5" font-family="Helvetica,sans-Serif" font-size="10.00">EBPF::ControlBodyTranslator</text>
</a>
</g>
</g>
<!-- Node5 -->
<g id="Node000005" class="node">
<title>Node5</title>
<g id="a_Node000005"><a xlink:href="class_e_b_p_f_1_1_control_body_translator_p_s_a.html" target="_top" xlink:title=" ">
<polygon fill="white" stroke="#bfbfbf" points="683.75,-184 519.25,-184 519.25,-164 683.75,-164 683.75,-184"/>
<text text-anchor="middle" x="601.5" y="-170.5" font-family="Helvetica,sans-Serif" font-size="10.00">EBPF::ControlBodyTranslatorPSA</text>
</a>
</g>
</g>
<!-- Node1&#45;&gt;Node5 -->
<g id="edge4_Node000001_Node000005" class="edge">
<title>Node1&#45;&gt;Node5</title>
<g id="a_edge4_Node000001_Node000005"><a xlink:title=" ">
<path fill="none" stroke="#63b8ff" d="M432.66,-108.74C453.66,-122.96 485.73,-142.93 516.25,-155 524.76,-158.36 533.99,-161.2 543.13,-163.58"/>
<polygon fill="#63b8ff" stroke="#63b8ff" points="434.75,-105.94 424.53,-103.14 430.78,-111.7 434.75,-105.94"/>
</a>
</g>
</g>
<!-- Node7 -->
<g id="Node000007" class="node">
<title>Node7</title>
<g id="a_Node000007"><a xlink:href="class_e_b_p_f_1_1_deparser_body_translator.html" target="_top" xlink:title=" ">
<polygon fill="white" stroke="#bfbfbf" points="677.75,-146 525.25,-146 525.25,-126 677.75,-126 677.75,-146"/>
<text text-anchor="middle" x="601.5" y="-132.5" font-family="Helvetica,sans-Serif" font-size="10.00">EBPF::DeparserBodyTranslator</text>
</a>
</g>
</g>
<!-- Node1&#45;&gt;Node7 -->
<g id="edge6_Node000001_Node000007" class="edge">
<title>Node1&#45;&gt;Node7</title>
<g id="a_edge6_Node000001_Node000007"><a xlink:title=" ">
<path fill="none" stroke="#63b8ff" d="M464.83,-105.08C481.37,-108.95 499.54,-113.17 516.25,-117 528.38,-119.78 541.5,-122.76 553.69,-125.51"/>
<polygon fill="#63b8ff" stroke="#63b8ff" points="465.68,-101.69 455.14,-102.82 464.08,-108.5 465.68,-101.69"/>
</a>
</g>
</g>
<!-- Node9 -->
<g id="Node000009" class="node">
<title>Node9</title>
<g id="a_Node000009"><a xlink:href="class_e_b_p_f_1_1_deparser_prepare_buffer_translator.html" target="_top" xlink:title=" ">
<polygon fill="white" stroke="#bfbfbf" points="674.38,-108 528.62,-108 528.62,-76 674.38,-76 674.38,-108"/>
<text text-anchor="start" x="536.62" y="-94.5" font-family="Helvetica,sans-Serif" font-size="10.00">EBPF::DeparserPrepareBuffer</text>
<text text-anchor="middle" x="601.5" y="-82.5" font-family="Helvetica,sans-Serif" font-size="10.00">Translator</text>
</a>
</g>
</g>
<!-- Node1&#45;&gt;Node9 -->
<g id="edge8_Node000001_Node000009" class="edge">
<title>Node1&#45;&gt;Node9</title>
<g id="a_edge8_Node000001_Node000009"><a xlink:title=" ">
<path fill="none" stroke="#63b8ff" d="M492.13,-92C504.22,-92 516.57,-92 528.42,-92"/>
<polygon fill="#63b8ff" stroke="#63b8ff" points="492.17,-88.5 482.17,-92 492.17,-95.5 492.17,-88.5"/>
</a>
</g>
</g>
<!-- Node12 -->
<g id="Node000012" class="node">
<title>Node12</title>
<g id="a_Node000012"><a xlink:href="class_t_c_1_1_control_body_translator_p_n_a.html" target="_top" xlink:title=" ">
<polygon fill="white" stroke="#bfbfbf" points="676.62,-58 526.38,-58 526.38,-38 676.62,-38 676.62,-58"/>
<text text-anchor="middle" x="601.5" y="-44.5" font-family="Helvetica,sans-Serif" font-size="10.00">TC::ControlBodyTranslatorPNA</text>
</a>
</g>
</g>
<!-- Node1&#45;&gt;Node12 -->
<g id="edge11_Node000001_Node000012" class="edge">
<title>Node1&#45;&gt;Node12</title>
<g id="a_edge11_Node000001_Node000012"><a xlink:title=" ">
<path fill="none" stroke="#63b8ff" d="M464.83,-78.92C481.37,-75.05 499.54,-70.83 516.25,-67 528.38,-64.22 541.5,-61.24 553.69,-58.49"/>
<polygon fill="#63b8ff" stroke="#63b8ff" points="464.08,-75.5 455.14,-81.18 465.68,-82.31 464.08,-75.5"/>
</a>
</g>
</g>
<!-- Node14 -->
<g id="Node000014" class="node">
<title>Node14</title>
<g id="a_Node000014"><a xlink:href="class_u_b_p_f_1_1_u_b_p_f_control_body_translator.html" target="_top" xlink:title=" ">
<polygon fill="white" stroke="#bfbfbf" points="686.75,-20 516.25,-20 516.25,0 686.75,0 686.75,-20"/>
<text text-anchor="middle" x="601.5" y="-6.5" font-family="Helvetica,sans-Serif" font-size="10.00">UBPF::UBPFControlBodyTranslator</text>
</a>
</g>
</g>
<!-- Node1&#45;&gt;Node14 -->
<g id="edge13_Node000001_Node000014" class="edge">
<title>Node1&#45;&gt;Node14</title>
<g id="a_edge13_Node000001_Node000014"><a xlink:title=" ">
<path fill="none" stroke="#63b8ff" d="M432.66,-75.26C453.66,-61.04 485.73,-41.07 516.25,-29 524.76,-25.64 533.99,-22.8 543.13,-20.42"/>
<polygon fill="#63b8ff" stroke="#63b8ff" points="430.78,-72.3 424.53,-80.86 434.75,-78.06 430.78,-72.3"/>
</a>
</g>
</g>
<!-- Node2 -->
<g id="Node000002" class="node">
<title>Node2</title>
<g id="a_Node000002"><a xlink:href="class_e_b_p_f_1_1_code_gen_inspector.html" target="_top" xlink:title=" ">
<polygon fill="white" stroke="#bfbfbf" points="300,-102 171.5,-102 171.5,-82 300,-82 300,-102"/>
<text text-anchor="middle" x="235.75" y="-88.5" font-family="Helvetica,sans-Serif" font-size="10.00">EBPF::CodeGenInspector</text>
</a>
</g>
</g>
<!-- Node2&#45;&gt;Node1 -->
<g id="edge1_Node000001_Node000002" class="edge">
<title>Node2&#45;&gt;Node1</title>
<g id="a_edge1_Node000001_Node000002"><a xlink:title=" ">
<path fill="none" stroke="#63b8ff" d="M311.43,-92C319.46,-92 327.61,-92 335.6,-92"/>
<polygon fill="#63b8ff" stroke="#63b8ff" points="311.7,-88.5 301.7,-92 311.7,-95.5 311.7,-88.5"/>
</a>
</g>
</g>
<!-- Node3 -->
<g id="Node000003" class="node">
<title>Node3</title>
<g id="a_Node000003"><a xlink:href="class_inspector.html" target="_top" xlink:title=" ">
<polygon fill="white" stroke="#bfbfbf" points="135.5,-102 79.75,-102 79.75,-82 135.5,-82 135.5,-102"/>
<text text-anchor="middle" x="107.62" y="-88.5" font-family="Helvetica,sans-Serif" font-size="10.00">Inspector</text>
</a>
</g>
</g>
<!-- Node3&#45;&gt;Node2 -->
<g id="edge2_Node000002_Node000003" class="edge">
<title>Node3&#45;&gt;Node2</title>
<g id="a_edge2_Node000002_Node000003"><a xlink:title=" ">
<path fill="none" stroke="#63b8ff" d="M147.36,-92C154.94,-92 163.06,-92 171.2,-92"/>
<polygon fill="#63b8ff" stroke="#63b8ff" points="147.51,-88.5 137.51,-92 147.51,-95.5 147.51,-88.5"/>
</a>
</g>
</g>
<!-- Node4 -->
<g id="Node000004" class="node">
<title>Node4</title>
<g id="a_Node000004"><a xlink:href="class_visitor.html" target="_top" xlink:title=" ">
<polygon fill="white" stroke="#bfbfbf" points="43.75,-102 0,-102 0,-82 43.75,-82 43.75,-102"/>
<text text-anchor="middle" x="21.88" y="-88.5" font-family="Helvetica,sans-Serif" font-size="10.00">Visitor</text>
</a>
</g>
</g>
<!-- Node4&#45;&gt;Node3 -->
<g id="edge3_Node000003_Node000004" class="edge">
<title>Node4&#45;&gt;Node3</title>
<g id="a_edge3_Node000003_Node000004"><a xlink:title=" ">
<path fill="none" stroke="#63b8ff" d="M55.52,-92C63.44,-92 71.83,-92 79.47,-92"/>
<polygon fill="#63b8ff" stroke="#63b8ff" points="55.52,-88.5 45.52,-92 55.52,-95.5 55.52,-88.5"/>
</a>
</g>
</g>
<!-- Node6 -->
<g id="Node000006" class="node">
<title>Node6</title>
<g id="a_Node000006"><a xlink:href="class_e_b_p_f_1_1_action_translation_visitor_p_s_a.html" target="_top" xlink:title=" ">
<polygon fill="white" stroke="#bfbfbf" points="894.75,-184 723.5,-184 723.5,-164 894.75,-164 894.75,-184"/>
<text text-anchor="middle" x="809.12" y="-170.5" font-family="Helvetica,sans-Serif" font-size="10.00">EBPF::ActionTranslationVisitorPSA</text>
</a>
</g>
</g>
<!-- Node5&#45;&gt;Node6 -->
<g id="edge5_Node000005_Node000006" class="edge">
<title>Node5&#45;&gt;Node6</title>
<g id="a_edge5_Node000005_Node000006"><a xlink:title=" ">
<path fill="none" stroke="#63b8ff" d="M695.34,-174C704.65,-174 714.07,-174 723.29,-174"/>
<polygon fill="#63b8ff" stroke="#63b8ff" points="695.58,-170.5 685.58,-174 695.58,-177.5 695.58,-170.5"/>
</a>
</g>
</g>
<!-- Node8 -->
<g id="Node000008" class="node">
<title>Node8</title>
<g id="a_Node000008"><a xlink:href="class_e_b_p_f_1_1_deparser_body_translator_p_s_a.html" target="_top" xlink:title=" ">
<polygon fill="white" stroke="#bfbfbf" points="895.5,-146 722.75,-146 722.75,-126 895.5,-126 895.5,-146"/>
<text text-anchor="middle" x="809.12" y="-132.5" font-family="Helvetica,sans-Serif" font-size="10.00">EBPF::DeparserBodyTranslatorPSA</text>
</a>
</g>
</g>
<!-- Node7&#45;&gt;Node8 -->
<g id="edge7_Node000007_Node000008" class="edge">
<title>Node7&#45;&gt;Node8</title>
<g id="a_edge7_Node000007_Node000008"><a xlink:title=" ">
<path fill="none" stroke="#63b8ff" d="M689.48,-136C700.42,-136 711.61,-136 722.53,-136"/>
<polygon fill="#63b8ff" stroke="#63b8ff" points="689.7,-132.5 679.7,-136 689.7,-139.5 689.7,-132.5"/>
</a>
</g>
</g>
<!-- Node10 -->
<g id="Node000010" class="node">
<title>Node10</title>
<g id="a_Node000010"><a xlink:href="class_e_b_p_f_1_1_deparser_hdr_emit_translator.html" target="_top" xlink:title=" ">
<polygon fill="white" stroke="#bfbfbf" points="891.75,-108 726.5,-108 726.5,-88 891.75,-88 891.75,-108"/>
<text text-anchor="middle" x="809.12" y="-94.5" font-family="Helvetica,sans-Serif" font-size="10.00">EBPF::DeparserHdrEmitTranslator</text>
</a>
</g>
</g>
<!-- Node9&#45;&gt;Node10 -->
<g id="edge9_Node000009_Node000010" class="edge">
<title>Node9&#45;&gt;Node10</title>
<g id="a_edge9_Node000009_Node000010"><a xlink:title=" ">
<path fill="none" stroke="#63b8ff" d="M686.19,-94.44C699.41,-94.83 713.08,-95.23 726.26,-95.61"/>
<polygon fill="#63b8ff" stroke="#63b8ff" points="686.32,-90.94 676.22,-94.15 686.11,-97.94 686.32,-90.94"/>
</a>
</g>
</g>
<!-- Node11 -->
<g id="Node000011" class="node">
<title>Node11</title>
<g id="a_Node000011"><a xlink:href="class_t_c_1_1_deparser_hdr_emit_translator_p_n_a.html" target="_top" xlink:title=" ">
<polygon fill="white" stroke="#bfbfbf" points="894.75,-70 723.5,-70 723.5,-50 894.75,-50 894.75,-70"/>
<text text-anchor="middle" x="809.12" y="-56.5" font-family="Helvetica,sans-Serif" font-size="10.00">TC::DeparserHdrEmitTranslatorPNA</text>
</a>
</g>
</g>
<!-- Node9&#45;&gt;Node11 -->
<g id="edge10_Node000009_Node000011" class="edge">
<title>Node9&#45;&gt;Node11</title>
<g id="a_edge10_Node000009_Node000011"><a xlink:title=" ">
<path fill="none" stroke="#63b8ff" d="M685.96,-79.01C704.24,-76.17 723.37,-73.19 740.91,-70.46"/>
<polygon fill="#63b8ff" stroke="#63b8ff" points="685.54,-75.53 676.2,-80.53 686.62,-82.45 685.54,-75.53"/>
</a>
</g>
</g>
<!-- Node13 -->
<g id="Node000013" class="node">
<title>Node13</title>
<g id="a_Node000013"><a xlink:href="class_t_c_1_1_action_translation_visitor_p_n_a.html" target="_top" xlink:title=" ">
<polygon fill="white" stroke="#bfbfbf" points="887.62,-32 730.62,-32 730.62,-12 887.62,-12 887.62,-32"/>
<text text-anchor="middle" x="809.12" y="-18.5" font-family="Helvetica,sans-Serif" font-size="10.00">TC::ActionTranslationVisitorPNA</text>
</a>
</g>
</g>
<!-- Node12&#45;&gt;Node13 -->
<g id="edge12_Node000012_Node000013" class="edge">
<title>Node12&#45;&gt;Node13</title>
<g id="a_edge12_Node000012_Node000013"><a xlink:title=" ">
<path fill="none" stroke="#63b8ff" d="M688.14,-37.17C702.15,-35.4 716.59,-33.57 730.39,-31.83"/>
<polygon fill="#63b8ff" stroke="#63b8ff" points="688.01,-33.66 678.53,-38.39 688.89,-40.6 688.01,-33.66"/>
</a>
</g>
</g>
</g>
</svg>

<g id="navigator" transform="translate(0 0)" fill="#404254">
  <rect fill="#f2f5e9" fill-opacity="0.5" stroke="#606060" stroke-width=".5" x="0" y="0" width="60" height="60"/>
  <use id="zoomplus" xlink:href="#zoomPlus" x="17" y="9" onmousedown="handleZoom(evt,'in')"/>
  <use id="zoomminus" xlink:href="#zoomMin" x="42" y="9" onmousedown="handleZoom(evt,'out')"/>
  <use id="reset" xlink:href="#resetDef" x="30" y="36" onmousedown="handleReset()"/>
   <use id="arrowup" xlink:href="#arrowUp" x="0" y="0" onmousedown="handlePan(0,-1)"/>
  <use id="arrowright" xlink:href="#arrowRight" x="0" y="0" onmousedown="handlePan(1,0)"/>
  <use id="arrowdown" xlink:href="#arrowDown" x="0" y="0" onmousedown="handlePan(0,1)"/>
  <use id="arrowleft" xlink:href="#arrowLeft" x="0" y="0" onmousedown="handlePan(-1,0)"/>
</g>
<svg viewBox="0 0 15 15" width="100%" height="30px" preserveAspectRatio="xMaxYMin meet">
 <g id="arrow_out" transform="scale(0.3 0.3)">
  <a xlink:href="class_e_b_p_f_1_1_control_body_translator__inherit__graph_org.svg" target="_base">
   <rect id="button" ry="5" rx="5" y="6" x="6" height="38" width="38"
        fill="#f2f5e9" fill-opacity="0.5" stroke="#606060" stroke-width="1.0"/>
   <path id="arrow"
     d="M 11.500037,31.436501 C 11.940474,20.09759 22.043105,11.32322 32.158766,21.979434 L 37.068811,17.246167 C 37.068811,17.246167 37.088388,32 37.088388,32 L 22.160133,31.978069 C 22.160133,31.978069 26.997745,27.140456 26.997745,27.140456 C 18.528582,18.264221 13.291696,25.230495 11.500037,31.436501 z"
     style="fill:#404040;"/>
  </a>
 </g>
</svg>

<style type='text/css'>
<![CDATA[
[data-mouse-over-selected='false'] { opacity: 0.7; }
[data-mouse-over-selected='true']  { opacity: 1.0; }
]]>
</style>
<script type="application/ecmascript"><![CDATA[
document.addEventListener('DOMContentLoaded', (event) => {
  highlightEdges();
  highlightAdjacentNodes();
});
]]></script>
</svg>
