<?xml version="1.0" encoding="UTF-8" standalone="no"?>
<!DOCTYPE svg PUBLIC "-//W3C//DTD SVG 1.1//EN"
 "http://www.w3.org/Graphics/SVG/1.1/DTD/svg11.dtd">
<!-- Generated by graphviz version 10.0.1 (20240210.2158)
 -->
<!-- Title: PassRepeatUntil Pages: 1 -->
<svg width="112pt" height="196pt"
 viewBox="0.00 0.00 111.50 196.00" xmlns="http://www.w3.org/2000/svg" xmlns:xlink="http://www.w3.org/1999/xlink">
<g id="graph0" class="graph" transform="scale(1 1) rotate(0) translate(4 192)">
<title>PassRepeatUntil</title>
<!-- Node1 -->
<g id="Node000001" class="node">
<title>Node1</title>
<g id="a_Node000001"><a xlink:title=" ">
<polygon fill="#999999" stroke="#666666" points="88.75,-20 0,-20 0,0 88.75,0 88.75,-20"/>
<text text-anchor="middle" x="44.38" y="-6.5" font-family="Helvetica,sans-Serif" font-size="10.00">PassRepeatUntil</text>
</a>
</g>
</g>
<!-- Node2 -->
<g id="Node000002" class="node">
<title>Node2</title>
<g id="a_Node000002"><a xlink:href="class_pass_manager.html" target="_top" xlink:title=" ">
<polygon fill="white" stroke="#bfbfbf" points="82.38,-76 6.38,-76 6.38,-56 82.38,-56 82.38,-76"/>
<text text-anchor="middle" x="44.38" y="-62.5" font-family="Helvetica,sans-Serif" font-size="10.00">PassManager</text>
</a>
</g>
</g>
<!-- Node2&#45;&gt;Node1 -->
<g id="edge1_Node000001_Node000002" class="edge">
<title>Node2&#45;&gt;Node1</title>
<g id="a_edge1_Node000001_Node000002"><a xlink:title=" ">
<path fill="none" stroke="#63b8ff" d="M44.38,-44.13C44.38,-35.9 44.38,-26.85 44.38,-20.3"/>
<polygon fill="#63b8ff" stroke="#63b8ff" points="40.88,-44.08 44.38,-54.08 47.88,-44.08 40.88,-44.08"/>
</a>
</g>
</g>
<!-- Node3 -->
<g id="Node000003" class="node">
<title>Node3</title>
<g id="a_Node000003"><a xlink:href="class_visitor.html" target="_top" xlink:title=" ">
<polygon fill="white" stroke="#bfbfbf" points="66.25,-188 22.5,-188 22.5,-168 66.25,-168 66.25,-188"/>
<text text-anchor="middle" x="44.38" y="-174.5" font-family="Helvetica,sans-Serif" font-size="10.00">Visitor</text>
</a>
</g>
</g>
<!-- Node3&#45;&gt;Node2 -->
<g id="edge2_Node000002_Node000003" class="edge">
<title>Node3&#45;&gt;Node2</title>
<g id="a_edge2_Node000002_Node000003"><a xlink:title=" ">
<path fill="none" stroke="#63b8ff" d="M38.86,-156.65C37.05,-148.98 35.27,-140.15 34.38,-132 32.18,-112.03 37.73,-88.79 41.41,-76.22"/>
<polygon fill="#63b8ff" stroke="#63b8ff" points="35.47,-157.5 41.33,-166.32 42.25,-155.77 35.47,-157.5"/>
</a>
</g>
</g>
<!-- Node4 -->
<g id="Node000004" class="node">
<title>Node4</title>
<g id="a_Node000004"><a xlink:href="class_backtrack.html" target="_top" xlink:title=" ">
<polygon fill="white" stroke="#bfbfbf" points="103.5,-132 43.25,-132 43.25,-112 103.5,-112 103.5,-132"/>
<text text-anchor="middle" x="73.38" y="-118.5" font-family="Helvetica,sans-Serif" font-size="10.00">Backtrack</text>
</a>
</g>
</g>
<!-- Node3&#45;&gt;Node4 -->
<g id="edge4_Node000004_Node000003" class="edge">
<title>Node3&#45;&gt;Node4</title>
<g id="a_edge4_Node000004_Node000003"><a xlink:title=" ">
<path fill="none" stroke="#63b8ff" d="M54.8,-157.58C59.43,-148.97 64.65,-139.24 68.38,-132.3"/>
<polygon fill="#63b8ff" stroke="#63b8ff" points="51.79,-155.79 50.14,-166.26 57.96,-159.11 51.79,-155.79"/>
</a>
</g>
</g>
<!-- Node4&#45;&gt;Node2 -->
<g id="edge3_Node000002_Node000004" class="edge">
<title>Node4&#45;&gt;Node2</title>
<g id="a_edge3_Node000002_Node000004"><a xlink:title=" ">
<path fill="none" stroke="#63b8ff" d="M62.95,-101.58C58.32,-92.97 53.1,-83.24 49.37,-76.3"/>
<polygon fill="#63b8ff" stroke="#63b8ff" points="59.79,-103.11 67.61,-110.26 65.96,-99.79 59.79,-103.11"/>
</a>
</g>
</g>
</g>
</svg>
