<?xml version="1.0" encoding="UTF-8" standalone="no"?>
<!DOCTYPE svg PUBLIC "-//W3C//DTD SVG 1.1//EN"
 "http://www.w3.org/Graphics/SVG/1.1/DTD/svg11.dtd">
<!-- Generated by graphviz version 10.0.1 (20240210.2158)
 -->
<!-- Title: P4Tools::P4Testgen::EBPF::EBPFExprStepper Pages: 1 -->
<svg width="143pt" height="288pt"
 viewBox="0.00 0.00 142.50 288.00" xmlns="http://www.w3.org/2000/svg" xmlns:xlink="http://www.w3.org/1999/xlink">
<g id="graph0" class="graph" transform="scale(1 1) rotate(0) translate(4 284)">
<title>P4Tools::P4Testgen::EBPF::EBPFExprStepper</title>
<!-- Node1 -->
<g id="Node000001" class="node">
<title>Node1</title>
<g id="a_Node000001"><a xlink:title=" ">
<polygon fill="#999999" stroke="#666666" points="134.5,-32 0,-32 0,0 134.5,0 134.5,-32"/>
<text text-anchor="start" x="8" y="-18.5" font-family="Helvetica,sans-Serif" font-size="10.00">P4Tools::P4Testgen</text>
<text text-anchor="middle" x="67.25" y="-6.5" font-family="Helvetica,sans-Serif" font-size="10.00">::EBPF::EBPFExprStepper</text>
</a>
</g>
</g>
<!-- Node2 -->
<g id="Node000002" class="node">
<title>Node2</title>
<g id="a_Node000002"><a xlink:href="class_p4_tools_1_1_p4_testgen_1_1_expr_stepper.html" target="_top" xlink:title="Implements small&#45;step operational semantics for expressions.">
<polygon fill="white" stroke="#666666" points="119.12,-100 15.38,-100 15.38,-68 119.12,-68 119.12,-100"/>
<text text-anchor="start" x="23.38" y="-86.5" font-family="Helvetica,sans-Serif" font-size="10.00">P4Tools::P4Testgen</text>
<text text-anchor="middle" x="67.25" y="-74.5" font-family="Helvetica,sans-Serif" font-size="10.00">::ExprStepper</text>
</a>
</g>
</g>
<!-- Node2&#45;&gt;Node1 -->
<g id="edge1_Node000001_Node000002" class="edge">
<title>Node2&#45;&gt;Node1</title>
<g id="a_edge1_Node000001_Node000002"><a xlink:title=" ">
<path fill="none" stroke="#63b8ff" d="M67.25,-56.31C67.25,-48.12 67.25,-39.38 67.25,-32.22"/>
<polygon fill="#63b8ff" stroke="#63b8ff" points="63.75,-56.18 67.25,-66.18 70.75,-56.18 63.75,-56.18"/>
</a>
</g>
</g>
<!-- Node3 -->
<g id="Node000003" class="node">
<title>Node3</title>
<g id="a_Node000003"><a xlink:href="class_p4_tools_1_1_p4_testgen_1_1_abstract_stepper.html" target="_top" xlink:title=" ">
<polygon fill="white" stroke="#666666" points="119.12,-168 15.38,-168 15.38,-136 119.12,-136 119.12,-168"/>
<text text-anchor="start" x="23.38" y="-154.5" font-family="Helvetica,sans-Serif" font-size="10.00">P4Tools::P4Testgen</text>
<text text-anchor="middle" x="67.25" y="-142.5" font-family="Helvetica,sans-Serif" font-size="10.00">::AbstractStepper</text>
</a>
</g>
</g>
<!-- Node3&#45;&gt;Node2 -->
<g id="edge2_Node000002_Node000003" class="edge">
<title>Node3&#45;&gt;Node2</title>
<g id="a_edge2_Node000002_Node000003"><a xlink:title=" ">
<path fill="none" stroke="#63b8ff" d="M67.25,-124.31C67.25,-116.12 67.25,-107.38 67.25,-100.22"/>
<polygon fill="#63b8ff" stroke="#63b8ff" points="63.75,-124.18 67.25,-134.18 70.75,-124.18 63.75,-124.18"/>
</a>
</g>
</g>
<!-- Node4 -->
<g id="Node000004" class="node">
<title>Node4</title>
<g id="a_Node000004"><a xlink:href="class_inspector.html" target="_top" xlink:title=" ">
<polygon fill="white" stroke="#bfbfbf" points="95.12,-224 39.38,-224 39.38,-204 95.12,-204 95.12,-224"/>
<text text-anchor="middle" x="67.25" y="-210.5" font-family="Helvetica,sans-Serif" font-size="10.00">Inspector</text>
</a>
</g>
</g>
<!-- Node4&#45;&gt;Node3 -->
<g id="edge3_Node000003_Node000004" class="edge">
<title>Node4&#45;&gt;Node3</title>
<g id="a_edge3_Node000003_Node000004"><a xlink:title=" ">
<path fill="none" stroke="#63b8ff" d="M67.25,-192.31C67.25,-184.37 67.25,-175.46 67.25,-168.14"/>
<polygon fill="#63b8ff" stroke="#63b8ff" points="63.75,-192.11 67.25,-202.11 70.75,-192.11 63.75,-192.11"/>
</a>
</g>
</g>
<!-- Node5 -->
<g id="Node000005" class="node">
<title>Node5</title>
<g id="a_Node000005"><a xlink:href="class_visitor.html" target="_top" xlink:title=" ">
<polygon fill="white" stroke="#bfbfbf" points="89.12,-280 45.38,-280 45.38,-260 89.12,-260 89.12,-280"/>
<text text-anchor="middle" x="67.25" y="-266.5" font-family="Helvetica,sans-Serif" font-size="10.00">Visitor</text>
</a>
</g>
</g>
<!-- Node5&#45;&gt;Node4 -->
<g id="edge4_Node000004_Node000005" class="edge">
<title>Node5&#45;&gt;Node4</title>
<g id="a_edge4_Node000004_Node000005"><a xlink:title=" ">
<path fill="none" stroke="#63b8ff" d="M67.25,-248.13C67.25,-239.9 67.25,-230.85 67.25,-224.3"/>
<polygon fill="#63b8ff" stroke="#63b8ff" points="63.75,-248.08 67.25,-258.08 70.75,-248.08 63.75,-248.08"/>
</a>
</g>
</g>
</g>
</svg>
