<?xml version="1.0" encoding="UTF-8" standalone="no"?>
<!DOCTYPE svg PUBLIC "-//W3C//DTD SVG 1.1//EN"
 "http://www.w3.org/Graphics/SVG/1.1/DTD/svg11.dtd">
<!-- Generated by graphviz version 10.0.1 (20240210.2158)
 -->
<!-- Title: P4Tools::P4Testgen::TestgenCompilerTarget Pages: 1 -->
<svg width="597pt" height="152pt"
 viewBox="0.00 0.00 597.00 152.00" xmlns="http://www.w3.org/2000/svg" xmlns:xlink="http://www.w3.org/1999/xlink">
<g id="graph0" class="graph" transform="scale(1 1) rotate(0) translate(4 148)">
<title>P4Tools::P4Testgen::TestgenCompilerTarget</title>
<!-- Node1 -->
<g id="Node000001" class="node">
<title>Node1</title>
<g id="a_Node000001"><a xlink:title=" ">
<polygon fill="#999999" stroke="#666666" points="400.5,-82 278.75,-82 278.75,-50 400.5,-50 400.5,-82"/>
<text text-anchor="start" x="286.75" y="-68.5" font-family="Helvetica,sans-Serif" font-size="10.00">P4Tools::P4Testgen</text>
<text text-anchor="middle" x="339.62" y="-56.5" font-family="Helvetica,sans-Serif" font-size="10.00">::TestgenCompilerTarget</text>
</a>
</g>
</g>
<!-- Node4 -->
<g id="Node000004" class="node">
<title>Node4</title>
<g id="a_Node000004"><a xlink:href="class_p4_tools_1_1_p4_testgen_1_1_bmv2_1_1_bmv2_v1_model_compiler_target.html" target="_top" xlink:title=" ">
<polygon fill="white" stroke="#bfbfbf" points="589,-144 436.5,-144 436.5,-100 589,-100 589,-144"/>
<text text-anchor="start" x="444.5" y="-130.5" font-family="Helvetica,sans-Serif" font-size="10.00">P4Tools::P4Testgen</text>
<text text-anchor="start" x="444.5" y="-118.5" font-family="Helvetica,sans-Serif" font-size="10.00">::Bmv2::Bmv2V1ModelCompiler</text>
<text text-anchor="middle" x="512.75" y="-106.5" font-family="Helvetica,sans-Serif" font-size="10.00">Target</text>
</a>
</g>
</g>
<!-- Node1&#45;&gt;Node4 -->
<g id="edge3_Node000001_Node000004" class="edge">
<title>Node1&#45;&gt;Node4</title>
<g id="a_edge3_Node000001_Node000004"><a xlink:title=" ">
<path fill="none" stroke="#63b8ff" d="M401.65,-85.97C415.14,-90.39 429.53,-95.09 443.3,-99.6"/>
<polygon fill="#63b8ff" stroke="#63b8ff" points="403.07,-82.75 392.48,-82.97 400.9,-89.41 403.07,-82.75"/>
</a>
</g>
</g>
<!-- Node5 -->
<g id="Node000005" class="node">
<title>Node5</title>
<g id="a_Node000005"><a xlink:href="class_p4_tools_1_1_p4_testgen_1_1_e_b_p_f_1_1_e_b_p_f_compiler_target.html" target="_top" xlink:title=" ">
<polygon fill="white" stroke="#bfbfbf" points="585.62,-82 439.88,-82 439.88,-50 585.62,-50 585.62,-82"/>
<text text-anchor="start" x="447.88" y="-68.5" font-family="Helvetica,sans-Serif" font-size="10.00">P4Tools::P4Testgen</text>
<text text-anchor="middle" x="512.75" y="-56.5" font-family="Helvetica,sans-Serif" font-size="10.00">::EBPF::EBPFCompilerTarget</text>
</a>
</g>
</g>
<!-- Node1&#45;&gt;Node5 -->
<g id="edge4_Node000001_Node000005" class="edge">
<title>Node1&#45;&gt;Node5</title>
<g id="a_edge4_Node000001_Node000005"><a xlink:title=" ">
<path fill="none" stroke="#63b8ff" d="M412.28,-66C421.33,-66 430.59,-66 439.65,-66"/>
<polygon fill="#63b8ff" stroke="#63b8ff" points="412.47,-62.5 402.47,-66 412.47,-69.5 412.47,-62.5"/>
</a>
</g>
</g>
<!-- Node6 -->
<g id="Node000006" class="node">
<title>Node6</title>
<g id="a_Node000006"><a xlink:href="class_p4_tools_1_1_p4_testgen_1_1_pna_1_1_pna_dpdk_compiler_target.html" target="_top" xlink:title=" ">
<polygon fill="white" stroke="#bfbfbf" points="587.88,-32 437.62,-32 437.62,0 587.88,0 587.88,-32"/>
<text text-anchor="start" x="445.62" y="-18.5" font-family="Helvetica,sans-Serif" font-size="10.00">P4Tools::P4Testgen</text>
<text text-anchor="middle" x="512.75" y="-6.5" font-family="Helvetica,sans-Serif" font-size="10.00">::Pna::PnaDpdkCompilerTarget</text>
</a>
</g>
</g>
<!-- Node1&#45;&gt;Node6 -->
<g id="edge5_Node000001_Node000006" class="edge">
<title>Node1&#45;&gt;Node6</title>
<g id="a_edge5_Node000001_Node000006"><a xlink:title=" ">
<path fill="none" stroke="#63b8ff" d="M407.44,-46.48C423.26,-41.85 439.99,-36.97 455.3,-32.49"/>
<polygon fill="#63b8ff" stroke="#63b8ff" points="406.73,-43.04 398.11,-49.2 408.69,-49.76 406.73,-43.04"/>
</a>
</g>
</g>
<!-- Node2 -->
<g id="Node000002" class="node">
<title>Node2</title>
<g id="a_Node000002"><a xlink:href="class_p4_tools_1_1_compiler_target.html" target="_top" xlink:title="Encapsulates the details of invoking the P4 compiler for a target device and architecture.">
<polygon fill="white" stroke="#666666" points="242.75,-76 120.25,-76 120.25,-56 242.75,-56 242.75,-76"/>
<text text-anchor="middle" x="181.5" y="-62.5" font-family="Helvetica,sans-Serif" font-size="10.00">P4Tools::CompilerTarget</text>
</a>
</g>
</g>
<!-- Node2&#45;&gt;Node1 -->
<g id="edge1_Node000001_Node000002" class="edge">
<title>Node2&#45;&gt;Node1</title>
<g id="a_edge1_Node000001_Node000002"><a xlink:title=" ">
<path fill="none" stroke="#63b8ff" d="M254.21,-66C262.31,-66 270.5,-66 278.42,-66"/>
<polygon fill="#63b8ff" stroke="#63b8ff" points="254.38,-62.5 244.38,-66 254.38,-69.5 254.38,-62.5"/>
</a>
</g>
</g>
<!-- Node3 -->
<g id="Node000003" class="node">
<title>Node3</title>
<g id="a_Node000003"><a xlink:href="class_p4_tools_1_1_target.html" target="_top" xlink:title=" ">
<polygon fill="white" stroke="#666666" points="84.25,-76 0,-76 0,-56 84.25,-56 84.25,-76"/>
<text text-anchor="middle" x="42.12" y="-62.5" font-family="Helvetica,sans-Serif" font-size="10.00">P4Tools::Target</text>
</a>
</g>
</g>
<!-- Node3&#45;&gt;Node2 -->
<g id="edge2_Node000002_Node000003" class="edge">
<title>Node3&#45;&gt;Node2</title>
<g id="a_edge2_Node000002_Node000003"><a xlink:title=" ">
<path fill="none" stroke="#63b8ff" d="M96.18,-66C103.91,-66 111.92,-66 119.79,-66"/>
<polygon fill="#63b8ff" stroke="#63b8ff" points="96.23,-62.5 86.23,-66 96.23,-69.5 96.23,-62.5"/>
</a>
</g>
</g>
</g>
</svg>
