<?xml version="1.0" encoding="UTF-8" standalone="no"?>
<!DOCTYPE svg PUBLIC "-//W3C//DTD SVG 1.1//EN"
 "http://www.w3.org/Graphics/SVG/1.1/DTD/svg11.dtd">
<!-- Generated by graphviz version 10.0.1 (20240210.2158)
 -->
<!-- Title: Modifier Pages: 1 -->
<!--zoomable 368 -->

<svg id="main" version="1.1" xmlns="http://www.w3.org/2000/svg" xmlns:xlink="http://www.w3.org/1999/xlink" xml:space="preserve" onload="init(evt)">
<style type="text/css"><![CDATA[
.node, .edge {opacity: 0.7;}
.node.selected, .edge.selected {opacity: 1;}
.edge:hover path { stroke: red; }
.edge:hover polygon { stroke: red; fill: red; }
]]></style>

<defs>
  <circle id="rim" cx="0" cy="0" r="7"/>
  <circle id="rim2" cx="0" cy="0" r="3.5"/>
  <g id="zoomPlus">
    <use xlink:href="#rim" fill="#404040"><set attributeName="fill" to="#808080" begin="zoomplus.mouseover" end="zoomplus.mouseout"/></use>
    <path d="M-4,0h8M0,-4v8" fill="none" stroke="white" stroke-width="1.5" pointer-events="none"/>
  </g>
  <g id="zoomMin">
    <use xlink:href="#rim" fill="#404040"><set attributeName="fill" to="#808080" begin="zoomminus.mouseover" end="zoomminus.mouseout"/></use>
    <path d="M-4,0h8" fill="none" stroke="white" stroke-width="1.5" pointer-events="none"/>
  </g>
  <g id="arrowUp" transform="translate(30 24)">
    <use xlink:href="#rim"/>
    <path pointer-events="none" fill="none" stroke="white" stroke-width="1.5" d="M0,-3.0v7 M-2.5,-0.5L0,-3.0L2.5,-0.5"/>
  </g>
  <g id="arrowRight" transform="rotate(90) translate(36 -43)">
    <use xlink:href="#rim"/>
    <path pointer-events="none" fill="none" stroke="white" stroke-width="1.5" d="M0,-3.0v7 M-2.5,-0.5L0,-3.0L2.5,-0.5"/>
  </g>
  <g id="arrowDown" transform="rotate(180) translate(-30 -48)">
    <use xlink:href="#rim"/>
    <path pointer-events="none" fill="none" stroke="white" stroke-width="1.5" d="M0,-3.0v7 M-2.5,-0.5L0,-3.0L2.5,-0.5"/>
  </g>
  <g id="arrowLeft" transform="rotate(270) translate(-36 17)">
    <use xlink:href="#rim"/>
    <path pointer-events="none" fill="none" stroke="white" stroke-width="1.5" d="M0,-3.0v7 M-2.5,-0.5L0,-3.0L2.5,-0.5"/>
  </g>
  <g id="resetDef">
    <use xlink:href="#rim2" fill="#404040"><set attributeName="fill" to="#808080" begin="reset.mouseover" end="reset.mouseout"/></use>
  </g>
</defs>
<script type="application/ecmascript">
var viewWidth = 516;
var viewHeight = 368;
var sectionId = 'dynsection-0';
</script>
<script type="application/ecmascript" xlink:href="svg.min.js"/>
<svg id="graph" class="graph">
<g id="viewport">
<title>Modifier</title>
<!-- Node1 -->
<g id="Node000001" class="node">
<title>Node1</title>
<g id="a_Node000001"><a xlink:title=" ">
<polygon fill="#999999" stroke="#666666" points="129.5,-208 79.75,-208 79.75,-188 129.5,-188 129.5,-208"/>
<text text-anchor="middle" x="104.62" y="-194.5" font-family="Helvetica,sans-Serif" font-size="10.00">Modifier</text>
</a>
</g>
</g>
<!-- Node3 -->
<g id="Node000003" class="node">
<title>Node3</title>
<g id="a_Node000003"><a xlink:href="class_check_header_types.html" target="_top" xlink:title=" ">
<polygon fill="white" stroke="#bfbfbf" points="295.5,-360 194.75,-360 194.75,-340 295.5,-340 295.5,-360"/>
<text text-anchor="middle" x="245.12" y="-346.5" font-family="Helvetica,sans-Serif" font-size="10.00">CheckHeaderTypes</text>
</a>
</g>
</g>
<!-- Node1&#45;&gt;Node3 -->
<g id="edge2_Node000001_Node000003" class="edge">
<title>Node1&#45;&gt;Node3</title>
<g id="a_edge2_Node000001_Node000003"><a xlink:title=" ">
<path fill="none" stroke="#63b8ff" d="M109.2,-219.25C115.33,-248.87 130.71,-302.14 165.5,-331 173.71,-337.81 183.98,-342.26 194.36,-345.14"/>
<polygon fill="#63b8ff" stroke="#63b8ff" points="112.68,-218.82 107.39,-209.64 105.8,-220.11 112.68,-218.82"/>
</a>
</g>
</g>
<!-- Node4 -->
<g id="Node000004" class="node">
<title>Node4</title>
<g id="a_Node000004"><a xlink:href="class_header_type_max_length_calculator.html" target="_top" xlink:title=" ">
<polygon fill="white" stroke="#bfbfbf" points="324.75,-322 165.5,-322 165.5,-302 324.75,-302 324.75,-322"/>
<text text-anchor="middle" x="245.12" y="-308.5" font-family="Helvetica,sans-Serif" font-size="10.00">HeaderTypeMaxLengthCalculator</text>
</a>
</g>
</g>
<!-- Node1&#45;&gt;Node4 -->
<g id="edge3_Node000001_Node000004" class="edge">
<title>Node1&#45;&gt;Node4</title>
<g id="a_edge3_Node000001_Node000004"><a xlink:title=" ">
<path fill="none" stroke="#63b8ff" d="M113.27,-218.92C122.35,-240.77 139.59,-274.4 165.5,-293 170.29,-296.44 175.63,-299.26 181.2,-301.58"/>
<polygon fill="#63b8ff" stroke="#63b8ff" points="116.62,-217.89 109.72,-209.85 110.1,-220.44 116.62,-217.89"/>
</a>
</g>
</g>
<!-- Node5 -->
<g id="Node000005" class="node">
<title>Node5</title>
<g id="a_Node000005"><a xlink:href="class_p4_1_1_check_table_size.html" target="_top" xlink:title="Checks some possible misuses of the table size property.">
<polygon fill="white" stroke="#666666" points="297.38,-284 192.88,-284 192.88,-264 297.38,-264 297.38,-284"/>
<text text-anchor="middle" x="245.12" y="-270.5" font-family="Helvetica,sans-Serif" font-size="10.00">P4::CheckTableSize</text>
</a>
</g>
</g>
<!-- Node1&#45;&gt;Node5 -->
<g id="edge4_Node000001_Node000005" class="edge">
<title>Node1&#45;&gt;Node5</title>
<g id="a_edge4_Node000001_Node000005"><a xlink:title=" ">
<path fill="none" stroke="#63b8ff" d="M120.49,-216.58C131.6,-229.24 147.85,-245.38 165.5,-255 173.89,-259.57 183.36,-263.05 192.76,-265.7"/>
<polygon fill="#63b8ff" stroke="#63b8ff" points="123.46,-214.67 114.34,-209.28 118.11,-219.18 123.46,-214.67"/>
</a>
</g>
</g>
<!-- Node6 -->
<g id="Node000006" class="node">
<title>Node6</title>
<g id="a_Node000006"><a xlink:href="class_p4_1_1_do_single_argument_select.html" target="_top" xlink:title=" ">
<polygon fill="white" stroke="#666666" points="316.5,-246 173.75,-246 173.75,-226 316.5,-226 316.5,-246"/>
<text text-anchor="middle" x="245.12" y="-232.5" font-family="Helvetica,sans-Serif" font-size="10.00">P4::DoSingleArgumentSelect</text>
</a>
</g>
</g>
<!-- Node1&#45;&gt;Node6 -->
<g id="edge5_Node000001_Node000006" class="edge">
<title>Node1&#45;&gt;Node6</title>
<g id="a_edge5_Node000001_Node000006"><a xlink:title=" ">
<path fill="none" stroke="#63b8ff" d="M140.92,-209.65C148.97,-212.18 157.5,-214.77 165.5,-217 176.19,-219.98 187.76,-222.93 198.67,-225.59"/>
<polygon fill="#63b8ff" stroke="#63b8ff" points="142.01,-206.33 131.42,-206.62 139.88,-212.99 142.01,-206.33"/>
</a>
</g>
</g>
<!-- Node7 -->
<g id="Node000007" class="node">
<title>Node7</title>
<g id="a_Node000007"><a xlink:href="class_p4_1_1_parse_annotations.html" target="_top" xlink:title=" ">
<polygon fill="white" stroke="#bfbfbf" points="300.75,-208 189.5,-208 189.5,-188 300.75,-188 300.75,-208"/>
<text text-anchor="middle" x="245.12" y="-194.5" font-family="Helvetica,sans-Serif" font-size="10.00">P4::ParseAnnotations</text>
</a>
</g>
</g>
<!-- Node1&#45;&gt;Node7 -->
<g id="edge6_Node000001_Node000007" class="edge">
<title>Node1&#45;&gt;Node7</title>
<g id="a_edge6_Node000001_Node000007"><a xlink:title=" ">
<path fill="none" stroke="#63b8ff" d="M140.88,-198C155.56,-198 172.97,-198 189.26,-198"/>
<polygon fill="#63b8ff" stroke="#63b8ff" points="141.26,-194.5 131.26,-198 141.26,-201.5 141.26,-194.5"/>
</a>
</g>
</g>
<!-- Node11 -->
<g id="Node000011" class="node">
<title>Node11</title>
<g id="a_Node000011"><a xlink:href="class_p4_1_1_switch_add_default.html" target="_top" xlink:title=" ">
<polygon fill="white" stroke="#bfbfbf" points="300.38,-170 189.88,-170 189.88,-150 300.38,-150 300.38,-170"/>
<text text-anchor="middle" x="245.12" y="-156.5" font-family="Helvetica,sans-Serif" font-size="10.00">P4::SwitchAddDefault</text>
</a>
</g>
</g>
<!-- Node1&#45;&gt;Node11 -->
<g id="edge10_Node000001_Node000011" class="edge">
<title>Node1&#45;&gt;Node11</title>
<g id="a_edge10_Node000001_Node000011"><a xlink:title=" ">
<path fill="none" stroke="#63b8ff" d="M140.92,-186.35C148.97,-183.82 157.5,-181.23 165.5,-179 176.19,-176.02 187.76,-173.07 198.67,-170.41"/>
<polygon fill="#63b8ff" stroke="#63b8ff" points="139.88,-183.01 131.42,-189.38 142.01,-189.67 139.88,-183.01"/>
</a>
</g>
</g>
<!-- Node12 -->
<g id="Node000012" class="node">
<title>Node12</title>
<g id="a_Node000012"><a xlink:href="class_type_check_1_1_assign_action_arg_types.html" target="_top" xlink:title=" ">
<polygon fill="white" stroke="#bfbfbf" points="316.88,-132 173.38,-132 173.38,-100 316.88,-100 316.88,-132"/>
<text text-anchor="start" x="181.38" y="-118.5" font-family="Helvetica,sans-Serif" font-size="10.00">TypeCheck::AssignActionArg</text>
<text text-anchor="middle" x="245.12" y="-106.5" font-family="Helvetica,sans-Serif" font-size="10.00">Types</text>
</a>
</g>
</g>
<!-- Node1&#45;&gt;Node12 -->
<g id="edge11_Node000001_Node000012" class="edge">
<title>Node1&#45;&gt;Node12</title>
<g id="a_edge11_Node000001_Node000012"><a xlink:title=" ">
<path fill="none" stroke="#63b8ff" d="M121.43,-179.01C132.61,-166.65 148.57,-151.02 165.5,-141 170.92,-137.79 176.81,-134.95 182.83,-132.43"/>
<polygon fill="#63b8ff" stroke="#63b8ff" points="118.8,-176.7 114.87,-186.54 124.07,-181.3 118.8,-176.7"/>
</a>
</g>
</g>
<!-- Node13 -->
<g id="Node000013" class="node">
<title>Node13</title>
<g id="a_Node000013"><a xlink:href="class_type_check_1_1_infer_expressions_bottom_up.html" target="_top" xlink:title="Bottom up type inferencing – set the types of expression nodes based on operands.">
<polygon fill="white" stroke="#666666" points="316.5,-82 173.75,-82 173.75,-50 316.5,-50 316.5,-82"/>
<text text-anchor="start" x="181.75" y="-68.5" font-family="Helvetica,sans-Serif" font-size="10.00">TypeCheck::InferExpressions</text>
<text text-anchor="middle" x="245.12" y="-56.5" font-family="Helvetica,sans-Serif" font-size="10.00">BottomUp</text>
</a>
</g>
</g>
<!-- Node1&#45;&gt;Node13 -->
<g id="edge12_Node000001_Node000013" class="edge">
<title>Node1&#45;&gt;Node13</title>
<g id="a_edge12_Node000001_Node000013"><a xlink:title=" ">
<path fill="none" stroke="#63b8ff" d="M112.08,-177C120.55,-152.87 137.7,-113.68 165.5,-91 169.5,-87.74 173.92,-84.9 178.58,-82.43"/>
<polygon fill="#63b8ff" stroke="#63b8ff" points="108.81,-175.76 109,-186.36 115.45,-177.96 108.81,-175.76"/>
</a>
</g>
</g>
<!-- Node14 -->
<g id="Node000014" class="node">
<title>Node14</title>
<g id="a_Node000014"><a xlink:href="class_type_check_1_1_infer_expressions_top_down.html" target="_top" xlink:title="Top down type inferencing – set the type of expression nodes based on their uses.">
<polygon fill="white" stroke="#666666" points="316.5,-32 173.75,-32 173.75,0 316.5,0 316.5,-32"/>
<text text-anchor="start" x="181.75" y="-18.5" font-family="Helvetica,sans-Serif" font-size="10.00">TypeCheck::InferExpressions</text>
<text text-anchor="middle" x="245.12" y="-6.5" font-family="Helvetica,sans-Serif" font-size="10.00">TopDown</text>
</a>
</g>
</g>
<!-- Node1&#45;&gt;Node14 -->
<g id="edge13_Node000001_Node000014" class="edge">
<title>Node1&#45;&gt;Node14</title>
<g id="a_edge13_Node000001_Node000014"><a xlink:title=" ">
<path fill="none" stroke="#63b8ff" d="M107.95,-176.23C112.69,-142.53 126.58,-77.78 165.5,-41 168.94,-37.75 172.79,-34.93 176.9,-32.47"/>
<polygon fill="#63b8ff" stroke="#63b8ff" points="104.49,-175.65 106.73,-186 111.44,-176.51 104.49,-175.65"/>
</a>
</g>
</g>
<!-- Node2 -->
<g id="Node000002" class="node">
<title>Node2</title>
<g id="a_Node000002"><a xlink:href="class_visitor.html" target="_top" xlink:title=" ">
<polygon fill="white" stroke="#bfbfbf" points="43.75,-208 0,-208 0,-188 43.75,-188 43.75,-208"/>
<text text-anchor="middle" x="21.88" y="-194.5" font-family="Helvetica,sans-Serif" font-size="10.00">Visitor</text>
</a>
</g>
</g>
<!-- Node2&#45;&gt;Node1 -->
<g id="edge1_Node000001_Node000002" class="edge">
<title>Node2&#45;&gt;Node1</title>
<g id="a_edge1_Node000001_Node000002"><a xlink:title=" ">
<path fill="none" stroke="#63b8ff" d="M55.38,-198C63.41,-198 71.86,-198 79.41,-198"/>
<polygon fill="#63b8ff" stroke="#63b8ff" points="55.6,-194.5 45.6,-198 55.6,-201.5 55.6,-194.5"/>
</a>
</g>
</g>
<!-- Node8 -->
<g id="Node000008" class="node">
<title>Node8</title>
<g id="a_Node000008"><a xlink:href="class_b_m_v2_1_1_parse_annotations.html" target="_top" xlink:title=" ">
<polygon fill="white" stroke="#bfbfbf" points="497.5,-252 371.25,-252 371.25,-232 497.5,-232 497.5,-252"/>
<text text-anchor="middle" x="434.38" y="-238.5" font-family="Helvetica,sans-Serif" font-size="10.00">BMV2::ParseAnnotations</text>
</a>
</g>
</g>
<!-- Node7&#45;&gt;Node8 -->
<g id="edge7_Node000007_Node000008" class="edge">
<title>Node7&#45;&gt;Node8</title>
<g id="a_edge7_Node000007_Node000008"><a xlink:title=" ">
<path fill="none" stroke="#63b8ff" d="M301.68,-211.05C329.55,-217.6 362.85,-225.43 388.99,-231.57"/>
<polygon fill="#63b8ff" stroke="#63b8ff" points="302.51,-207.65 291.97,-208.77 300.91,-214.47 302.51,-207.65"/>
</a>
</g>
</g>
<!-- Node9 -->
<g id="Node000009" class="node">
<title>Node9</title>
<g id="a_Node000009"><a xlink:href="class_p4_1_1_control_plane_a_p_i_1_1_parse_p4_runtime_annotations.html" target="_top" xlink:title="Parses P4Runtime&#45;specific annotations.">
<polygon fill="white" stroke="#666666" points="508,-214 360.75,-214 360.75,-182 508,-182 508,-214"/>
<text text-anchor="start" x="368.75" y="-200.5" font-family="Helvetica,sans-Serif" font-size="10.00">P4::ControlPlaneAPI</text>
<text text-anchor="middle" x="434.38" y="-188.5" font-family="Helvetica,sans-Serif" font-size="10.00">::ParseP4RuntimeAnnotations</text>
</a>
</g>
</g>
<!-- Node7&#45;&gt;Node9 -->
<g id="edge8_Node000007_Node000009" class="edge">
<title>Node7&#45;&gt;Node9</title>
<g id="a_edge8_Node000007_Node000009"><a xlink:title=" ">
<path fill="none" stroke="#63b8ff" d="M312.17,-198C327.77,-198 344.48,-198 360.37,-198"/>
<polygon fill="#63b8ff" stroke="#63b8ff" points="312.55,-194.5 302.55,-198 312.55,-201.5 312.55,-194.5"/>
</a>
</g>
</g>
<!-- Node10 -->
<g id="Node000010" class="node">
<title>Node10</title>
<g id="a_Node000010"><a xlink:href="class_t_c_1_1_parse_t_c_annotations.html" target="_top" xlink:title=" ">
<polygon fill="white" stroke="#bfbfbf" points="496,-164 372.75,-164 372.75,-144 496,-144 496,-164"/>
<text text-anchor="middle" x="434.38" y="-150.5" font-family="Helvetica,sans-Serif" font-size="10.00">TC::ParseTCAnnotations</text>
</a>
</g>
</g>
<!-- Node7&#45;&gt;Node10 -->
<g id="edge9_Node000007_Node000010" class="edge">
<title>Node7&#45;&gt;Node10</title>
<g id="a_edge9_Node000007_Node000010"><a xlink:title=" ">
<path fill="none" stroke="#63b8ff" d="M301.68,-184.95C329.55,-178.4 362.85,-170.57 388.99,-164.43"/>
<polygon fill="#63b8ff" stroke="#63b8ff" points="300.91,-181.53 291.97,-187.23 302.51,-188.35 300.91,-181.53"/>
</a>
</g>
</g>
</g>
</svg>

<g id="navigator" transform="translate(0 0)" fill="#404254">
  <rect fill="#f2f5e9" fill-opacity="0.5" stroke="#606060" stroke-width=".5" x="0" y="0" width="60" height="60"/>
  <use id="zoomplus" xlink:href="#zoomPlus" x="17" y="9" onmousedown="handleZoom(evt,'in')"/>
  <use id="zoomminus" xlink:href="#zoomMin" x="42" y="9" onmousedown="handleZoom(evt,'out')"/>
  <use id="reset" xlink:href="#resetDef" x="30" y="36" onmousedown="handleReset()"/>
   <use id="arrowup" xlink:href="#arrowUp" x="0" y="0" onmousedown="handlePan(0,-1)"/>
  <use id="arrowright" xlink:href="#arrowRight" x="0" y="0" onmousedown="handlePan(1,0)"/>
  <use id="arrowdown" xlink:href="#arrowDown" x="0" y="0" onmousedown="handlePan(0,1)"/>
  <use id="arrowleft" xlink:href="#arrowLeft" x="0" y="0" onmousedown="handlePan(-1,0)"/>
</g>
<svg viewBox="0 0 15 15" width="100%" height="30px" preserveAspectRatio="xMaxYMin meet">
 <g id="arrow_out" transform="scale(0.3 0.3)">
  <a xlink:href="class_modifier__inherit__graph_org.svg" target="_base">
   <rect id="button" ry="5" rx="5" y="6" x="6" height="38" width="38"
        fill="#f2f5e9" fill-opacity="0.5" stroke="#606060" stroke-width="1.0"/>
   <path id="arrow"
     d="M 11.500037,31.436501 C 11.940474,20.09759 22.043105,11.32322 32.158766,21.979434 L 37.068811,17.246167 C 37.068811,17.246167 37.088388,32 37.088388,32 L 22.160133,31.978069 C 22.160133,31.978069 26.997745,27.140456 26.997745,27.140456 C 18.528582,18.264221 13.291696,25.230495 11.500037,31.436501 z"
     style="fill:#404040;"/>
  </a>
 </g>
</svg>

<style type='text/css'>
<![CDATA[
[data-mouse-over-selected='false'] { opacity: 0.7; }
[data-mouse-over-selected='true']  { opacity: 1.0; }
]]>
</style>
<script type="application/ecmascript"><![CDATA[
document.addEventListener('DOMContentLoaded', (event) => {
  highlightEdges();
  highlightAdjacentNodes();
});
]]></script>
</svg>
