<?xml version="1.0" encoding="UTF-8" standalone="no"?>
<!DOCTYPE svg PUBLIC "-//W3C//DTD SVG 1.1//EN"
 "http://www.w3.org/Graphics/SVG/1.1/DTD/svg11.dtd">
<!-- Generated by graphviz version 10.0.1 (20240210.2158)
 -->
<!-- Title: EBPF::KernelSamplesTarget Pages: 1 -->
<svg width="212pt" height="140pt"
 viewBox="0.00 0.00 211.50 140.00" xmlns="http://www.w3.org/2000/svg" xmlns:xlink="http://www.w3.org/1999/xlink">

<svg id="main" version="1.1" xmlns="http://www.w3.org/2000/svg" xmlns:xlink="http://www.w3.org/1999/xlink" xml:space="preserve" onload="init(evt)">
<style type="text/css"><![CDATA[
.node, .edge {opacity: 0.7;}
.node.selected, .edge.selected {opacity: 1;}
.edge:hover path { stroke: red; }
.edge:hover polygon { stroke: red; fill: red; }
]]></style>
<script type="application/ecmascript" xlink:href="svg.min.js"/>
<svg id="graph" class="graph">
<g id="graph0" class="graph" transform="scale(1 1) rotate(0) translate(4 136)">
<title>EBPF::KernelSamplesTarget</title>
<!-- Node1 -->
<g id="Node000001" class="node">
<title>Node1</title>
<g id="a_Node000001"><a xlink:title=" ">
<polygon fill="#999999" stroke="#666666" points="172.62,-76 31.38,-76 31.38,-56 172.62,-56 172.62,-76"/>
<text text-anchor="middle" x="102" y="-62.5" font-family="Helvetica,sans-Serif" font-size="10.00">EBPF::KernelSamplesTarget</text>
</a>
</g>
</g>
<!-- Node3 -->
<g id="Node000003" class="node">
<title>Node3</title>
<g id="a_Node000003"><a xlink:href="class_e_b_p_f_1_1_test_target.html" target="_top" xlink:title=" ">
<polygon fill="white" stroke="#bfbfbf" points="94,-20 0,-20 0,0 94,0 94,-20"/>
<text text-anchor="middle" x="47" y="-6.5" font-family="Helvetica,sans-Serif" font-size="10.00">EBPF::TestTarget</text>
</a>
</g>
</g>
<!-- Node1&#45;&gt;Node3 -->
<g id="edge2_Node000001_Node000003" class="edge">
<title>Node1&#45;&gt;Node3</title>
<g id="a_edge2_Node000001_Node000003"><a xlink:title=" ">
<path fill="none" stroke="#63b8ff" d="M84.24,-47.57C75.01,-38.5 64.09,-27.78 56.47,-20.3"/>
<polygon fill="#63b8ff" stroke="#63b8ff" points="81.75,-50.03 91.34,-54.53 86.66,-45.03 81.75,-50.03"/>
</a>
</g>
</g>
<!-- Node4 -->
<g id="Node000004" class="node">
<title>Node4</title>
<g id="a_Node000004"><a xlink:href="class_e_b_p_f_1_1_xdp_target.html" target="_top" xlink:title=" ">
<polygon fill="white" stroke="#bfbfbf" points="203.5,-20 112.5,-20 112.5,0 203.5,0 203.5,-20"/>
<text text-anchor="middle" x="158" y="-6.5" font-family="Helvetica,sans-Serif" font-size="10.00">EBPF::XdpTarget</text>
</a>
</g>
</g>
<!-- Node1&#45;&gt;Node4 -->
<g id="edge3_Node000001_Node000004" class="edge">
<title>Node1&#45;&gt;Node4</title>
<g id="a_edge3_Node000001_Node000004"><a xlink:title=" ">
<path fill="none" stroke="#63b8ff" d="M119.79,-47.85C129.25,-38.72 140.52,-27.86 148.36,-20.3"/>
<polygon fill="#63b8ff" stroke="#63b8ff" points="117.61,-45.08 112.84,-54.54 122.47,-50.12 117.61,-45.08"/>
</a>
</g>
</g>
<!-- Node2 -->
<g id="Node000002" class="node">
<title>Node2</title>
<g id="a_Node000002"><a xlink:href="class_e_b_p_f_1_1_target.html" target="_top" xlink:title=" ">
<polygon fill="white" stroke="#bfbfbf" points="139.62,-132 64.38,-132 64.38,-112 139.62,-112 139.62,-132"/>
<text text-anchor="middle" x="102" y="-118.5" font-family="Helvetica,sans-Serif" font-size="10.00">EBPF::Target</text>
</a>
</g>
</g>
<!-- Node2&#45;&gt;Node1 -->
<g id="edge1_Node000001_Node000002" class="edge">
<title>Node2&#45;&gt;Node1</title>
<g id="a_edge1_Node000001_Node000002"><a xlink:title=" ">
<path fill="none" stroke="#63b8ff" d="M102,-100.13C102,-91.9 102,-82.85 102,-76.3"/>
<polygon fill="#63b8ff" stroke="#63b8ff" points="98.5,-100.08 102,-110.08 105.5,-100.08 98.5,-100.08"/>
</a>
</g>
</g>
</g>
</svg>
</svg>

<style type='text/css'>
<![CDATA[
[data-mouse-over-selected='false'] { opacity: 0.7; }
[data-mouse-over-selected='true']  { opacity: 1.0; }
]]>
</style>
<script type="application/ecmascript"><![CDATA[
document.addEventListener('DOMContentLoaded', (event) => {
  highlightEdges();
  highlightAdjacentNodes();
});
]]></script>
</svg>
