<?xml version="1.0" encoding="UTF-8" standalone="no"?>
<!DOCTYPE svg PUBLIC "-//W3C//DTD SVG 1.1//EN"
 "http://www.w3.org/Graphics/SVG/1.1/DTD/svg11.dtd">
<!-- Generated by graphviz version 10.0.1 (20240210.2158)
 -->
<!-- Title: DBPrint::setflags_helper Pages: 1 -->
<svg width="298pt" height="84pt"
 viewBox="0.00 0.00 297.62 84.00" xmlns="http://www.w3.org/2000/svg" xmlns:xlink="http://www.w3.org/1999/xlink">
<g id="graph0" class="graph" transform="scale(1 1) rotate(0) translate(4 80)">
<title>DBPrint::setflags_helper</title>
<!-- Node1 -->
<g id="Node000001" class="node">
<title>Node1</title>
<g id="a_Node000001"><a xlink:title=" ">
<polygon fill="#999999" stroke="#666666" points="202.12,-76 81.12,-76 81.12,-56 202.12,-56 202.12,-76"/>
<text text-anchor="middle" x="141.62" y="-62.5" font-family="Helvetica,sans-Serif" font-size="10.00">DBPrint::setflags_helper</text>
</a>
</g>
</g>
<!-- Node2 -->
<g id="Node000002" class="node">
<title>Node2</title>
<g id="a_Node000002"><a xlink:href="struct_d_b_print_1_1clrflag.html" target="_top" xlink:title=" ">
<polygon fill="white" stroke="#bfbfbf" points="81.25,-20 0,-20 0,0 81.25,0 81.25,-20"/>
<text text-anchor="middle" x="40.62" y="-6.5" font-family="Helvetica,sans-Serif" font-size="10.00">DBPrint::clrflag</text>
</a>
</g>
</g>
<!-- Node1&#45;&gt;Node2 -->
<g id="edge1_Node000001_Node000002" class="edge">
<title>Node1&#45;&gt;Node2</title>
<g id="a_edge1_Node000001_Node000002"><a xlink:title=" ">
<path fill="none" stroke="#63b8ff" d="M114.22,-50.35C96.44,-40.84 73.8,-28.74 58.36,-20.48"/>
<polygon fill="#63b8ff" stroke="#63b8ff" points="112.23,-53.25 122.7,-54.88 115.53,-47.08 112.23,-53.25"/>
</a>
</g>
</g>
<!-- Node3 -->
<g id="Node000003" class="node">
<title>Node3</title>
<g id="a_Node000003"><a xlink:href="struct_d_b_print_1_1setflag.html" target="_top" xlink:title=" ">
<polygon fill="white" stroke="#bfbfbf" points="183.75,-20 99.5,-20 99.5,0 183.75,0 183.75,-20"/>
<text text-anchor="middle" x="141.62" y="-6.5" font-family="Helvetica,sans-Serif" font-size="10.00">DBPrint::setflag</text>
</a>
</g>
</g>
<!-- Node1&#45;&gt;Node3 -->
<g id="edge2_Node000001_Node000003" class="edge">
<title>Node1&#45;&gt;Node3</title>
<g id="a_edge2_Node000001_Node000003"><a xlink:title=" ">
<path fill="none" stroke="#63b8ff" d="M141.62,-44.13C141.62,-35.9 141.62,-26.85 141.62,-20.3"/>
<polygon fill="#63b8ff" stroke="#63b8ff" points="138.13,-44.08 141.63,-54.08 145.13,-44.08 138.13,-44.08"/>
</a>
</g>
</g>
<!-- Node4 -->
<g id="Node000004" class="node">
<title>Node4</title>
<g id="a_Node000004"><a xlink:href="struct_d_b_print_1_1setprec.html" target="_top" xlink:title=" ">
<polygon fill="white" stroke="#bfbfbf" points="289.62,-20 201.62,-20 201.62,0 289.62,0 289.62,-20"/>
<text text-anchor="middle" x="245.62" y="-6.5" font-family="Helvetica,sans-Serif" font-size="10.00">DBPrint::setprec</text>
</a>
</g>
</g>
<!-- Node1&#45;&gt;Node4 -->
<g id="edge3_Node000001_Node000004" class="edge">
<title>Node1&#45;&gt;Node4</title>
<g id="a_edge3_Node000001_Node000004"><a xlink:title=" ">
<path fill="none" stroke="#63b8ff" d="M169.85,-50.35C188.15,-40.84 211.46,-28.74 227.37,-20.48"/>
<polygon fill="#63b8ff" stroke="#63b8ff" points="168.35,-47.18 161.08,-54.9 171.57,-53.39 168.35,-47.18"/>
</a>
</g>
</g>
</g>
</svg>
