<?xml version="1.0" encoding="UTF-8" standalone="no"?>
<!DOCTYPE svg PUBLIC "-//W3C//DTD SVG 1.1//EN"
 "http://www.w3.org/Graphics/SVG/1.1/DTD/svg11.dtd">
<!-- Generated by graphviz version 10.0.1 (20240210.2158)
 -->
<!-- Title: PassRepeated Pages: 1 -->
<svg width="579pt" height="332pt"
 viewBox="0.00 0.00 578.50 332.00" xmlns="http://www.w3.org/2000/svg" xmlns:xlink="http://www.w3.org/1999/xlink">
<g id="graph0" class="graph" transform="scale(1 1) rotate(0) translate(4 328)">
<title>PassRepeated</title>
<!-- Node1 -->
<g id="Node000001" class="node">
<title>Node1</title>
<g id="a_Node000001"><a xlink:title=" ">
<polygon fill="#999999" stroke="#666666" points="367.75,-172 288,-172 288,-152 367.75,-152 367.75,-172"/>
<text text-anchor="middle" x="327.88" y="-158.5" font-family="Helvetica,sans-Serif" font-size="10.00">PassRepeated</text>
</a>
</g>
</g>
<!-- Node5 -->
<g id="Node000005" class="node">
<title>Node5</title>
<g id="a_Node000005"><a xlink:href="class_d_p_d_k_1_1_dpdk_asm_optimization.html" target="_top" xlink:title=" ">
<polygon fill="white" stroke="#bfbfbf" points="560.38,-324 413.88,-324 413.88,-304 560.38,-304 560.38,-324"/>
<text text-anchor="middle" x="487.12" y="-310.5" font-family="Helvetica,sans-Serif" font-size="10.00">DPDK::DpdkAsmOptimization</text>
</a>
</g>
</g>
<!-- Node1&#45;&gt;Node5 -->
<g id="edge5_Node000001_Node000005" class="edge">
<title>Node1&#45;&gt;Node5</title>
<g id="a_edge5_Node000001_Node000005"><a xlink:title=" ">
<path fill="none" stroke="#63b8ff" d="M334.77,-183C344.23,-212.7 365.71,-266.54 403.75,-295 408.33,-298.43 413.43,-301.25 418.78,-303.58"/>
<polygon fill="#63b8ff" stroke="#63b8ff" points="338.2,-182.24 331.97,-173.67 331.49,-184.26 338.2,-182.24"/>
</a>
</g>
</g>
<!-- Node6 -->
<g id="Node000006" class="node">
<title>Node6</title>
<g id="a_Node000006"><a xlink:href="class_p4_1_1_copy_structures.html" target="_top" xlink:title=" ">
<polygon fill="white" stroke="#bfbfbf" points="537.88,-286 436.38,-286 436.38,-266 537.88,-266 537.88,-286"/>
<text text-anchor="middle" x="487.12" y="-272.5" font-family="Helvetica,sans-Serif" font-size="10.00">P4::CopyStructures</text>
</a>
</g>
</g>
<!-- Node1&#45;&gt;Node6 -->
<g id="edge6_Node000001_Node000006" class="edge">
<title>Node1&#45;&gt;Node6</title>
<g id="a_edge6_Node000001_Node000006"><a xlink:title=" ">
<path fill="none" stroke="#63b8ff" d="M339.41,-182.4C351.81,-204.3 374.47,-238.44 403.75,-257 413.42,-263.13 424.84,-267.29 436.05,-270.11"/>
<polygon fill="#63b8ff" stroke="#63b8ff" points="342.6,-180.93 334.75,-173.82 336.45,-184.27 342.6,-180.93"/>
</a>
</g>
</g>
<!-- Node7 -->
<g id="Node000007" class="node">
<title>Node7</title>
<g id="a_Node000007"><a xlink:href="class_p4_1_1_inline.html" target="_top" xlink:title=" ">
<polygon fill="white" stroke="#666666" points="515.38,-248 458.88,-248 458.88,-228 515.38,-228 515.38,-248"/>
<text text-anchor="middle" x="487.12" y="-234.5" font-family="Helvetica,sans-Serif" font-size="10.00">P4::Inline</text>
</a>
</g>
</g>
<!-- Node1&#45;&gt;Node7 -->
<g id="edge7_Node000001_Node000007" class="edge">
<title>Node1&#45;&gt;Node7</title>
<g id="a_edge7_Node000001_Node000007"><a xlink:title=" ">
<path fill="none" stroke="#63b8ff" d="M347.48,-179.78C361.79,-192.52 382.64,-209.1 403.75,-219 421.02,-227.1 442,-231.88 458.46,-234.61"/>
<polygon fill="#63b8ff" stroke="#63b8ff" points="349.93,-177.28 340.19,-173.1 345.2,-182.44 349.93,-177.28"/>
</a>
</g>
</g>
<!-- Node8 -->
<g id="Node000008" class="node">
<title>Node8</title>
<g id="a_Node000008"><a xlink:href="class_p4_1_1_remove_all_unused_declarations.html" target="_top" xlink:title="Iterates RemoveUnusedDeclarations until convergence.">
<polygon fill="white" stroke="#666666" points="570.5,-210 403.75,-210 403.75,-190 570.5,-190 570.5,-210"/>
<text text-anchor="middle" x="487.12" y="-196.5" font-family="Helvetica,sans-Serif" font-size="10.00">P4::RemoveAllUnusedDeclarations</text>
</a>
</g>
</g>
<!-- Node1&#45;&gt;Node8 -->
<g id="edge8_Node000001_Node000008" class="edge">
<title>Node1&#45;&gt;Node8</title>
<g id="a_edge8_Node000001_Node000008"><a xlink:title=" ">
<path fill="none" stroke="#63b8ff" d="M379.11,-174.91C387.33,-176.97 395.77,-179.07 403.75,-181 415.45,-183.83 428.1,-186.8 439.9,-189.53"/>
<polygon fill="#63b8ff" stroke="#63b8ff" points="380.1,-171.55 369.55,-172.49 378.39,-178.34 380.1,-171.55"/>
</a>
</g>
</g>
<!-- Node9 -->
<g id="Node000009" class="node">
<title>Node9</title>
<g id="a_Node000009"><a xlink:href="class_p4_1_1_remove_parser_control_flow.html" target="_top" xlink:title=" ">
<polygon fill="white" stroke="#666666" points="561.12,-172 413.12,-172 413.12,-152 561.12,-152 561.12,-172"/>
<text text-anchor="middle" x="487.12" y="-158.5" font-family="Helvetica,sans-Serif" font-size="10.00">P4::RemoveParserControlFlow</text>
</a>
</g>
</g>
<!-- Node1&#45;&gt;Node9 -->
<g id="edge9_Node000001_Node000009" class="edge">
<title>Node1&#45;&gt;Node9</title>
<g id="a_edge9_Node000001_Node000009"><a xlink:title=" ">
<path fill="none" stroke="#63b8ff" d="M379.35,-162C390,-162 401.45,-162 412.75,-162"/>
<polygon fill="#63b8ff" stroke="#63b8ff" points="379.66,-158.5 369.66,-162 379.66,-165.5 379.66,-158.5"/>
</a>
</g>
</g>
<!-- Node10 -->
<g id="Node000010" class="node">
<title>Node10</title>
<g id="a_Node000010"><a xlink:href="class_p4_1_1_side_effect_ordering.html" target="_top" xlink:title=" ">
<polygon fill="white" stroke="#bfbfbf" points="544.62,-134 429.62,-134 429.62,-114 544.62,-114 544.62,-134"/>
<text text-anchor="middle" x="487.12" y="-120.5" font-family="Helvetica,sans-Serif" font-size="10.00">P4::SideEffectOrdering</text>
</a>
</g>
</g>
<!-- Node1&#45;&gt;Node10 -->
<g id="edge10_Node000001_Node000010" class="edge">
<title>Node1&#45;&gt;Node10</title>
<g id="a_edge10_Node000001_Node000010"><a xlink:title=" ">
<path fill="none" stroke="#63b8ff" d="M379.11,-149.09C387.33,-147.03 395.77,-144.93 403.75,-143 415.45,-140.17 428.1,-137.2 439.9,-134.47"/>
<polygon fill="#63b8ff" stroke="#63b8ff" points="378.39,-145.66 369.55,-151.51 380.1,-152.45 378.39,-145.66"/>
</a>
</g>
</g>
<!-- Node11 -->
<g id="Node000011" class="node">
<title>Node11</title>
<g id="a_Node000011"><a xlink:href="class_p4_1_1_simplify_control_flow.html" target="_top" xlink:title=" ">
<polygon fill="white" stroke="#666666" points="546.88,-96 427.38,-96 427.38,-76 546.88,-76 546.88,-96"/>
<text text-anchor="middle" x="487.12" y="-82.5" font-family="Helvetica,sans-Serif" font-size="10.00">P4::SimplifyControlFlow</text>
</a>
</g>
</g>
<!-- Node1&#45;&gt;Node11 -->
<g id="edge11_Node000001_Node000011" class="edge">
<title>Node1&#45;&gt;Node11</title>
<g id="a_edge11_Node000001_Node000011"><a xlink:title=" ">
<path fill="none" stroke="#63b8ff" d="M347.48,-144.22C361.79,-131.48 382.64,-114.9 403.75,-105 411.06,-101.57 419.03,-98.74 427.04,-96.4"/>
<polygon fill="#63b8ff" stroke="#63b8ff" points="345.2,-141.56 340.19,-150.9 349.93,-146.72 345.2,-141.56"/>
</a>
</g>
</g>
<!-- Node12 -->
<g id="Node000012" class="node">
<title>Node12</title>
<g id="a_Node000012"><a xlink:href="class_p4_1_1_specialize_all.html" target="_top" xlink:title="Specializes each Parser and Control by substituting type arguments and constructor parameters.">
<polygon fill="white" stroke="#666666" points="532.25,-58 442,-58 442,-38 532.25,-38 532.25,-58"/>
<text text-anchor="middle" x="487.12" y="-44.5" font-family="Helvetica,sans-Serif" font-size="10.00">P4::SpecializeAll</text>
</a>
</g>
</g>
<!-- Node1&#45;&gt;Node12 -->
<g id="edge12_Node000001_Node000012" class="edge">
<title>Node1&#45;&gt;Node12</title>
<g id="a_edge12_Node000001_Node000012"><a xlink:title=" ">
<path fill="none" stroke="#63b8ff" d="M339.41,-141.6C351.81,-119.7 374.47,-85.56 403.75,-67 415.03,-59.85 428.7,-55.38 441.63,-52.59"/>
<polygon fill="#63b8ff" stroke="#63b8ff" points="336.45,-139.73 334.75,-150.18 342.6,-143.07 336.45,-139.73"/>
</a>
</g>
</g>
<!-- Node13 -->
<g id="Node000013" class="node">
<title>Node13</title>
<g id="a_Node000013"><a xlink:href="class_p4_1_1_specialize_generic_types.html" target="_top" xlink:title="Specializes each generic type by substituting type parameters.">
<polygon fill="white" stroke="#666666" points="556.62,-20 417.62,-20 417.62,0 556.62,0 556.62,-20"/>
<text text-anchor="middle" x="487.12" y="-6.5" font-family="Helvetica,sans-Serif" font-size="10.00">P4::SpecializeGenericTypes</text>
</a>
</g>
</g>
<!-- Node1&#45;&gt;Node13 -->
<g id="edge13_Node000001_Node000013" class="edge">
<title>Node1&#45;&gt;Node13</title>
<g id="a_edge13_Node000001_Node000013"><a xlink:title=" ">
<path fill="none" stroke="#63b8ff" d="M334.77,-141C344.23,-111.3 365.71,-57.46 403.75,-29 408.33,-25.57 413.43,-22.75 418.78,-20.42"/>
<polygon fill="#63b8ff" stroke="#63b8ff" points="331.49,-139.74 331.97,-150.33 338.2,-141.76 331.49,-139.74"/>
</a>
</g>
</g>
<!-- Node2 -->
<g id="Node000002" class="node">
<title>Node2</title>
<g id="a_Node000002"><a xlink:href="class_pass_manager.html" target="_top" xlink:title=" ">
<polygon fill="white" stroke="#bfbfbf" points="252,-172 176,-172 176,-152 252,-152 252,-172"/>
<text text-anchor="middle" x="214" y="-158.5" font-family="Helvetica,sans-Serif" font-size="10.00">PassManager</text>
</a>
</g>
</g>
<!-- Node2&#45;&gt;Node1 -->
<g id="edge1_Node000001_Node000002" class="edge">
<title>Node2&#45;&gt;Node1</title>
<g id="a_edge1_Node000001_Node000002"><a xlink:title=" ">
<path fill="none" stroke="#63b8ff" d="M263.54,-162C271.67,-162 280.02,-162 287.87,-162"/>
<polygon fill="#63b8ff" stroke="#63b8ff" points="263.77,-158.5 253.77,-162 263.77,-165.5 263.77,-158.5"/>
</a>
</g>
</g>
<!-- Node3 -->
<g id="Node000003" class="node">
<title>Node3</title>
<g id="a_Node000003"><a xlink:href="class_visitor.html" target="_top" xlink:title=" ">
<polygon fill="white" stroke="#bfbfbf" points="43.75,-172 0,-172 0,-152 43.75,-152 43.75,-172"/>
<text text-anchor="middle" x="21.88" y="-158.5" font-family="Helvetica,sans-Serif" font-size="10.00">Visitor</text>
</a>
</g>
</g>
<!-- Node3&#45;&gt;Node2 -->
<g id="edge2_Node000002_Node000003" class="edge">
<title>Node3&#45;&gt;Node2</title>
<g id="a_edge2_Node000002_Node000003"><a xlink:title=" ">
<path fill="none" stroke="#63b8ff" d="M55.36,-162C88.79,-162 140.79,-162 175.84,-162"/>
<polygon fill="#63b8ff" stroke="#63b8ff" points="55.46,-158.5 45.46,-162 55.46,-165.5 55.46,-158.5"/>
</a>
</g>
</g>
<!-- Node4 -->
<g id="Node000004" class="node">
<title>Node4</title>
<g id="a_Node000004"><a xlink:href="class_backtrack.html" target="_top" xlink:title=" ">
<polygon fill="white" stroke="#bfbfbf" points="140,-153 79.75,-153 79.75,-133 140,-133 140,-153"/>
<text text-anchor="middle" x="109.88" y="-139.5" font-family="Helvetica,sans-Serif" font-size="10.00">Backtrack</text>
</a>
</g>
</g>
<!-- Node3&#45;&gt;Node4 -->
<g id="edge4_Node000004_Node000003" class="edge">
<title>Node3&#45;&gt;Node4</title>
<g id="a_edge4_Node000004_Node000003"><a xlink:title=" ">
<path fill="none" stroke="#63b8ff" d="M55.25,-154.85C63.19,-153.09 71.64,-151.23 79.43,-149.51"/>
<polygon fill="#63b8ff" stroke="#63b8ff" points="54.62,-151.4 45.61,-156.98 56.13,-158.24 54.62,-151.4"/>
</a>
</g>
</g>
<!-- Node4&#45;&gt;Node2 -->
<g id="edge3_Node000002_Node000004" class="edge">
<title>Node4&#45;&gt;Node2</title>
<g id="a_edge3_Node000002_Node000004"><a xlink:title=" ">
<path fill="none" stroke="#63b8ff" d="M151.63,-150.58C159.52,-152.05 167.74,-153.58 175.52,-155.03"/>
<polygon fill="#63b8ff" stroke="#63b8ff" points="152.37,-147.16 141.9,-148.77 151.09,-154.04 152.37,-147.16"/>
</a>
</g>
</g>
</g>
</svg>
