<?xml version="1.0" encoding="UTF-8" standalone="no"?>
<!DOCTYPE svg PUBLIC "-//W3C//DTD SVG 1.1//EN"
 "http://www.w3.org/Graphics/SVG/1.1/DTD/svg11.dtd">
<!-- Generated by graphviz version 10.0.1 (20240210.2158)
 -->
<!-- Title: P4::SpecializeGenericFunctions Pages: 1 -->
<svg width="164pt" height="196pt"
 viewBox="0.00 0.00 163.50 196.00" xmlns="http://www.w3.org/2000/svg" xmlns:xlink="http://www.w3.org/1999/xlink">
<g id="graph0" class="graph" transform="scale(1 1) rotate(0) translate(4 192)">
<title>P4::SpecializeGenericFunctions</title>
<!-- Node1 -->
<g id="Node000001" class="node">
<title>Node1</title>
<g id="a_Node000001"><a xlink:title=" ">
<polygon fill="#999999" stroke="#666666" points="155.5,-20 0,-20 0,0 155.5,0 155.5,-20"/>
<text text-anchor="middle" x="77.75" y="-6.5" font-family="Helvetica,sans-Serif" font-size="10.00">P4::SpecializeGenericFunctions</text>
</a>
</g>
</g>
<!-- Node2 -->
<g id="Node000002" class="node">
<title>Node2</title>
<g id="a_Node000002"><a xlink:href="class_pass_manager.html" target="_top" xlink:title=" ">
<polygon fill="white" stroke="#bfbfbf" points="115.75,-76 39.75,-76 39.75,-56 115.75,-56 115.75,-76"/>
<text text-anchor="middle" x="77.75" y="-62.5" font-family="Helvetica,sans-Serif" font-size="10.00">PassManager</text>
</a>
</g>
</g>
<!-- Node2&#45;&gt;Node1 -->
<g id="edge1_Node000001_Node000002" class="edge">
<title>Node2&#45;&gt;Node1</title>
<g id="a_edge1_Node000001_Node000002"><a xlink:title=" ">
<path fill="none" stroke="#63b8ff" d="M77.75,-44.13C77.75,-35.9 77.75,-26.85 77.75,-20.3"/>
<polygon fill="#63b8ff" stroke="#63b8ff" points="74.25,-44.08 77.75,-54.08 81.25,-44.08 74.25,-44.08"/>
</a>
</g>
</g>
<!-- Node3 -->
<g id="Node000003" class="node">
<title>Node3</title>
<g id="a_Node000003"><a xlink:href="class_visitor.html" target="_top" xlink:title=" ">
<polygon fill="white" stroke="#bfbfbf" points="99.62,-188 55.88,-188 55.88,-168 99.62,-168 99.62,-188"/>
<text text-anchor="middle" x="77.75" y="-174.5" font-family="Helvetica,sans-Serif" font-size="10.00">Visitor</text>
</a>
</g>
</g>
<!-- Node3&#45;&gt;Node2 -->
<g id="edge2_Node000002_Node000003" class="edge">
<title>Node3&#45;&gt;Node2</title>
<g id="a_edge2_Node000002_Node000003"><a xlink:title=" ">
<path fill="none" stroke="#63b8ff" d="M72.24,-156.65C70.42,-148.98 68.64,-140.15 67.75,-132 65.56,-112.03 71.11,-88.79 74.79,-76.22"/>
<polygon fill="#63b8ff" stroke="#63b8ff" points="68.84,-157.5 74.71,-166.32 75.63,-155.77 68.84,-157.5"/>
</a>
</g>
</g>
<!-- Node4 -->
<g id="Node000004" class="node">
<title>Node4</title>
<g id="a_Node000004"><a xlink:href="class_backtrack.html" target="_top" xlink:title=" ">
<polygon fill="white" stroke="#bfbfbf" points="136.88,-132 76.62,-132 76.62,-112 136.88,-112 136.88,-132"/>
<text text-anchor="middle" x="106.75" y="-118.5" font-family="Helvetica,sans-Serif" font-size="10.00">Backtrack</text>
</a>
</g>
</g>
<!-- Node3&#45;&gt;Node4 -->
<g id="edge4_Node000004_Node000003" class="edge">
<title>Node3&#45;&gt;Node4</title>
<g id="a_edge4_Node000004_Node000003"><a xlink:title=" ">
<path fill="none" stroke="#63b8ff" d="M88.18,-157.58C92.8,-148.97 98.03,-139.24 101.76,-132.3"/>
<polygon fill="#63b8ff" stroke="#63b8ff" points="85.17,-155.79 83.52,-166.26 91.33,-159.11 85.17,-155.79"/>
</a>
</g>
</g>
<!-- Node4&#45;&gt;Node2 -->
<g id="edge3_Node000002_Node000004" class="edge">
<title>Node4&#45;&gt;Node2</title>
<g id="a_edge3_Node000002_Node000004"><a xlink:title=" ">
<path fill="none" stroke="#63b8ff" d="M96.32,-101.58C91.7,-92.97 86.47,-83.24 82.74,-76.3"/>
<polygon fill="#63b8ff" stroke="#63b8ff" points="93.17,-103.11 100.98,-110.26 99.33,-99.79 93.17,-103.11"/>
</a>
</g>
</g>
</g>
</svg>
