<?xml version="1.0" encoding="UTF-8" standalone="no"?>
<!DOCTYPE svg PUBLIC "-//W3C//DTD SVG 1.1//EN"
 "http://www.w3.org/Graphics/SVG/1.1/DTD/svg11.dtd">
<!-- Generated by graphviz version 10.0.1 (20240210.2158)
 -->
<!-- Title: P4::InstanceBase Pages: 1 -->
<!--zoomable 522 -->

<svg id="main" version="1.1" xmlns="http://www.w3.org/2000/svg" xmlns:xlink="http://www.w3.org/1999/xlink" xml:space="preserve" onload="init(evt)">
<style type="text/css"><![CDATA[
.node, .edge {opacity: 0.7;}
.node.selected, .edge.selected {opacity: 1;}
.edge:hover path { stroke: red; }
.edge:hover polygon { stroke: red; fill: red; }
]]></style>

<defs>
  <circle id="rim" cx="0" cy="0" r="7"/>
  <circle id="rim2" cx="0" cy="0" r="3.5"/>
  <g id="zoomPlus">
    <use xlink:href="#rim" fill="#404040"><set attributeName="fill" to="#808080" begin="zoomplus.mouseover" end="zoomplus.mouseout"/></use>
    <path d="M-4,0h8M0,-4v8" fill="none" stroke="white" stroke-width="1.5" pointer-events="none"/>
  </g>
  <g id="zoomMin">
    <use xlink:href="#rim" fill="#404040"><set attributeName="fill" to="#808080" begin="zoomminus.mouseover" end="zoomminus.mouseout"/></use>
    <path d="M-4,0h8" fill="none" stroke="white" stroke-width="1.5" pointer-events="none"/>
  </g>
  <g id="arrowUp" transform="translate(30 24)">
    <use xlink:href="#rim"/>
    <path pointer-events="none" fill="none" stroke="white" stroke-width="1.5" d="M0,-3.0v7 M-2.5,-0.5L0,-3.0L2.5,-0.5"/>
  </g>
  <g id="arrowRight" transform="rotate(90) translate(36 -43)">
    <use xlink:href="#rim"/>
    <path pointer-events="none" fill="none" stroke="white" stroke-width="1.5" d="M0,-3.0v7 M-2.5,-0.5L0,-3.0L2.5,-0.5"/>
  </g>
  <g id="arrowDown" transform="rotate(180) translate(-30 -48)">
    <use xlink:href="#rim"/>
    <path pointer-events="none" fill="none" stroke="white" stroke-width="1.5" d="M0,-3.0v7 M-2.5,-0.5L0,-3.0L2.5,-0.5"/>
  </g>
  <g id="arrowLeft" transform="rotate(270) translate(-36 17)">
    <use xlink:href="#rim"/>
    <path pointer-events="none" fill="none" stroke="white" stroke-width="1.5" d="M0,-3.0v7 M-2.5,-0.5L0,-3.0L2.5,-0.5"/>
  </g>
  <g id="resetDef">
    <use xlink:href="#rim2" fill="#404040"><set attributeName="fill" to="#808080" begin="reset.mouseover" end="reset.mouseout"/></use>
  </g>
</defs>
<script type="application/ecmascript">
var viewWidth = 611;
var viewHeight = 522;
var sectionId = 'dynsection-0';
</script>
<script type="application/ecmascript" xlink:href="svg.min.js"/>
<svg id="graph" class="graph">
<g id="viewport">
<title>P4::InstanceBase</title>
<!-- Node1 -->
<g id="Node000001" class="node">
<title>Node1</title>
<g id="a_Node000001"><a xlink:title=" ">
<polygon fill="#999999" stroke="#666666" points="285.75,-362 192.5,-362 192.5,-342 285.75,-342 285.75,-362"/>
<text text-anchor="middle" x="239.12" y="-348.5" font-family="Helvetica,sans-Serif" font-size="10.00">P4::InstanceBase</text>
</a>
</g>
</g>
<!-- Node4 -->
<g id="Node000004" class="node">
<title>Node4</title>
<g id="a_Node000004"><a xlink:href="class_p4_1_1_constructor_call.html" target="_top" xlink:title=" ">
<polygon fill="white" stroke="#666666" points="423.62,-476 322.88,-476 322.88,-456 423.62,-456 423.62,-476"/>
<text text-anchor="middle" x="373.25" y="-462.5" font-family="Helvetica,sans-Serif" font-size="10.00">P4::ConstructorCall</text>
</a>
</g>
</g>
<!-- Node1&#45;&gt;Node4 -->
<g id="edge3_Node000001_Node000004" class="edge">
<title>Node1&#45;&gt;Node4</title>
<g id="a_edge3_Node000001_Node000004"><a xlink:title=" ">
<path fill="none" stroke="#63b8ff" d="M260.43,-369.52C288.37,-393.63 337.76,-436.24 360.36,-455.74"/>
<polygon fill="#63b8ff" stroke="#63b8ff" points="262.85,-366.99 253,-363.11 258.28,-372.29 262.85,-366.99"/>
</a>
</g>
</g>
<!-- Node7 -->
<g id="Node000007" class="node">
<title>Node7</title>
<g id="a_Node000007"><a xlink:href="class_p4_1_1_enum_instance.html" target="_top" xlink:title=" ">
<polygon fill="white" stroke="#bfbfbf" points="421.38,-400 325.12,-400 325.12,-380 421.38,-380 421.38,-400"/>
<text text-anchor="middle" x="373.25" y="-386.5" font-family="Helvetica,sans-Serif" font-size="10.00">P4::EnumInstance</text>
</a>
</g>
</g>
<!-- Node1&#45;&gt;Node7 -->
<g id="edge6_Node000001_Node000007" class="edge">
<title>Node1&#45;&gt;Node7</title>
<g id="a_edge6_Node000001_Node000007"><a xlink:title=" ">
<path fill="none" stroke="#63b8ff" d="M287.34,-365.58C303.32,-370.18 320.91,-375.23 335.92,-379.55"/>
<polygon fill="#63b8ff" stroke="#63b8ff" points="288.61,-362.3 278.03,-362.9 286.68,-369.03 288.61,-362.3"/>
</a>
</g>
</g>
<!-- Node10 -->
<g id="Node000010" class="node">
<title>Node10</title>
<g id="a_Node000010"><a xlink:href="class_p4_1_1_instantiation.html" target="_top" xlink:title="Used to resolve a Declaration_Instance.">
<polygon fill="white" stroke="#666666" points="416.5,-324 330,-324 330,-304 416.5,-304 416.5,-324"/>
<text text-anchor="middle" x="373.25" y="-310.5" font-family="Helvetica,sans-Serif" font-size="10.00">P4::Instantiation</text>
</a>
</g>
</g>
<!-- Node1&#45;&gt;Node10 -->
<g id="edge9_Node000001_Node000010" class="edge">
<title>Node1&#45;&gt;Node10</title>
<g id="a_edge9_Node000001_Node000010"><a xlink:title=" ">
<path fill="none" stroke="#63b8ff" d="M287.34,-338.42C303.32,-333.82 320.91,-328.77 335.92,-324.45"/>
<polygon fill="#63b8ff" stroke="#63b8ff" points="286.68,-334.97 278.03,-341.1 288.61,-341.7 286.68,-334.97"/>
</a>
</g>
</g>
<!-- Node15 -->
<g id="Node000015" class="node">
<title>Node15</title>
<g id="a_Node000015"><a xlink:href="class_p4_1_1_method_instance.html" target="_top" xlink:title=" ">
<polygon fill="white" stroke="#666666" points="424.75,-134 321.75,-134 321.75,-114 424.75,-114 424.75,-134"/>
<text text-anchor="middle" x="373.25" y="-120.5" font-family="Helvetica,sans-Serif" font-size="10.00">P4::MethodInstance</text>
</a>
</g>
</g>
<!-- Node1&#45;&gt;Node15 -->
<g id="edge14_Node000001_Node000015" class="edge">
<title>Node1&#45;&gt;Node15</title>
<g id="a_edge14_Node000001_Node000015"><a xlink:title=" ">
<path fill="none" stroke="#63b8ff" d="M251.89,-331.69C279.14,-284.68 345.76,-169.71 366.19,-134.45"/>
<polygon fill="#63b8ff" stroke="#63b8ff" points="248.89,-329.89 246.9,-340.3 254.95,-333.4 248.89,-329.89"/>
</a>
</g>
</g>
<!-- Node2 -->
<g id="Node000002" class="node">
<title>Node2</title>
<g id="a_Node000002"><a xlink:href="class_i_castable.html" target="_top" xlink:title=" ">
<polygon fill="white" stroke="#666666" points="156.5,-362 100,-362 100,-342 156.5,-342 156.5,-362"/>
<text text-anchor="middle" x="128.25" y="-348.5" font-family="Helvetica,sans-Serif" font-size="10.00">ICastable</text>
</a>
</g>
</g>
<!-- Node2&#45;&gt;Node1 -->
<g id="edge1_Node000001_Node000002" class="edge">
<title>Node2&#45;&gt;Node1</title>
<g id="a_edge1_Node000001_Node000002"><a xlink:title=" ">
<path fill="none" stroke="#63b8ff" d="M168.06,-352C175.82,-352 184.04,-352 192.02,-352"/>
<polygon fill="#63b8ff" stroke="#63b8ff" points="168.24,-348.5 158.24,-352 168.24,-355.5 168.24,-348.5"/>
</a>
</g>
</g>
<!-- Node3 -->
<g id="Node000003" class="node">
<title>Node3</title>
<g id="a_Node000003"><a xlink:href="struct_r_t_t_i_1_1_base.html" target="_top" xlink:title=" ">
<polygon fill="white" stroke="#bfbfbf" points="64,-362 0,-362 0,-342 64,-342 64,-362"/>
<text text-anchor="middle" x="32" y="-348.5" font-family="Helvetica,sans-Serif" font-size="10.00">RTTI::Base</text>
</a>
</g>
</g>
<!-- Node3&#45;&gt;Node2 -->
<g id="edge2_Node000002_Node000003" class="edge">
<title>Node3&#45;&gt;Node2</title>
<g id="a_edge2_Node000002_Node000003"><a xlink:title=" ">
<path fill="none" stroke="#63b8ff" d="M75.72,-352C83.9,-352 92.26,-352 99.8,-352"/>
<polygon fill="#63b8ff" stroke="#63b8ff" points="75.9,-348.5 65.9,-352 75.9,-355.5 75.9,-348.5"/>
</a>
</g>
</g>
<!-- Node5 -->
<g id="Node000005" class="node">
<title>Node5</title>
<g id="a_Node000005"><a xlink:href="class_p4_1_1_container_constructor_call.html" target="_top" xlink:title=" ">
<polygon fill="white" stroke="#666666" points="602.75,-514 460.75,-514 460.75,-494 602.75,-494 602.75,-514"/>
<text text-anchor="middle" x="531.75" y="-500.5" font-family="Helvetica,sans-Serif" font-size="10.00">P4::ContainerConstructorCall</text>
</a>
</g>
</g>
<!-- Node4&#45;&gt;Node5 -->
<g id="edge4_Node000004_Node000005" class="edge">
<title>Node4&#45;&gt;Node5</title>
<g id="a_edge4_Node000004_Node000005"><a xlink:title=" ">
<path fill="none" stroke="#63b8ff" d="M428.54,-479.18C447.9,-483.88 469.43,-489.11 487.71,-493.55"/>
<polygon fill="#63b8ff" stroke="#63b8ff" points="429.44,-475.8 418.9,-476.84 427.79,-482.6 429.44,-475.8"/>
</a>
</g>
</g>
<!-- Node6 -->
<g id="Node000006" class="node">
<title>Node6</title>
<g id="a_Node000006"><a xlink:href="class_p4_1_1_extern_constructor_call.html" target="_top" xlink:title=" ">
<polygon fill="white" stroke="#666666" points="596.38,-476 467.12,-476 467.12,-456 596.38,-456 596.38,-476"/>
<text text-anchor="middle" x="531.75" y="-462.5" font-family="Helvetica,sans-Serif" font-size="10.00">P4::ExternConstructorCall</text>
</a>
</g>
</g>
<!-- Node4&#45;&gt;Node6 -->
<g id="edge5_Node000004_Node000006" class="edge">
<title>Node4&#45;&gt;Node6</title>
<g id="a_edge5_Node000004_Node000006"><a xlink:title=" ">
<path fill="none" stroke="#63b8ff" d="M435.19,-466C445.51,-466 456.25,-466 466.64,-466"/>
<polygon fill="#63b8ff" stroke="#63b8ff" points="435.28,-462.5 425.28,-466 435.28,-469.5 435.28,-462.5"/>
</a>
</g>
</g>
<!-- Node8 -->
<g id="Node000008" class="node">
<title>Node8</title>
<g id="a_Node000008"><a xlink:href="class_p4_1_1_ser_enum_instance.html" target="_top" xlink:title=" ">
<polygon fill="white" stroke="#666666" points="587.38,-438 476.12,-438 476.12,-418 587.38,-418 587.38,-438"/>
<text text-anchor="middle" x="531.75" y="-424.5" font-family="Helvetica,sans-Serif" font-size="10.00">P4::SerEnumInstance</text>
</a>
</g>
</g>
<!-- Node7&#45;&gt;Node8 -->
<g id="edge7_Node000007_Node000008" class="edge">
<title>Node7&#45;&gt;Node8</title>
<g id="a_edge7_Node000007_Node000008"><a xlink:title=" ">
<path fill="none" stroke="#63b8ff" d="M428.54,-403.18C447.9,-407.88 469.43,-413.11 487.71,-417.55"/>
<polygon fill="#63b8ff" stroke="#63b8ff" points="429.44,-399.8 418.9,-400.84 427.79,-406.6 429.44,-399.8"/>
</a>
</g>
</g>
<!-- Node9 -->
<g id="Node000009" class="node">
<title>Node9</title>
<g id="a_Node000009"><a xlink:href="class_p4_1_1_simple_enum_instance.html" target="_top" xlink:title="An instance of a simple enum, e.g., X.A from enum X { A, B }.">
<polygon fill="white" stroke="#666666" points="594.88,-400 468.62,-400 468.62,-380 594.88,-380 594.88,-400"/>
<text text-anchor="middle" x="531.75" y="-386.5" font-family="Helvetica,sans-Serif" font-size="10.00">P4::SimpleEnumInstance</text>
</a>
</g>
</g>
<!-- Node7&#45;&gt;Node9 -->
<g id="edge8_Node000007_Node000009" class="edge">
<title>Node7&#45;&gt;Node9</title>
<g id="a_edge8_Node000007_Node000009"><a xlink:title=" ">
<path fill="none" stroke="#63b8ff" d="M432.91,-390C444.43,-390 456.56,-390 468.21,-390"/>
<polygon fill="#63b8ff" stroke="#63b8ff" points="433.14,-386.5 423.14,-390 433.14,-393.5 433.14,-386.5"/>
</a>
</g>
</g>
<!-- Node11 -->
<g id="Node000011" class="node">
<title>Node11</title>
<g id="a_Node000011"><a xlink:href="class_p4_1_1_control_instantiation.html" target="_top" xlink:title=" ">
<polygon fill="white" stroke="#bfbfbf" points="590.38,-362 473.12,-362 473.12,-342 590.38,-342 590.38,-362"/>
<text text-anchor="middle" x="531.75" y="-348.5" font-family="Helvetica,sans-Serif" font-size="10.00">P4::ControlInstantiation</text>
</a>
</g>
</g>
<!-- Node10&#45;&gt;Node11 -->
<g id="edge10_Node000010_Node000011" class="edge">
<title>Node10&#45;&gt;Node11</title>
<g id="a_edge10_Node000010_Node000011"><a xlink:title=" ">
<path fill="none" stroke="#63b8ff" d="M427.78,-327C447.28,-331.73 469.06,-337.02 487.55,-341.51"/>
<polygon fill="#63b8ff" stroke="#63b8ff" points="428.62,-323.6 418.07,-324.64 426.96,-330.4 428.62,-323.6"/>
</a>
</g>
</g>
<!-- Node12 -->
<g id="Node000012" class="node">
<title>Node12</title>
<g id="a_Node000012"><a xlink:href="class_p4_1_1_extern_instantiation.html" target="_top" xlink:title=" ">
<polygon fill="white" stroke="#bfbfbf" points="589.25,-324 474.25,-324 474.25,-304 589.25,-304 589.25,-324"/>
<text text-anchor="middle" x="531.75" y="-310.5" font-family="Helvetica,sans-Serif" font-size="10.00">P4::ExternInstantiation</text>
</a>
</g>
</g>
<!-- Node10&#45;&gt;Node12 -->
<g id="edge11_Node000010_Node000012" class="edge">
<title>Node10&#45;&gt;Node12</title>
<g id="a_edge11_Node000010_Node000012"><a xlink:title=" ">
<path fill="none" stroke="#63b8ff" d="M427.7,-314C442.61,-314 458.87,-314 473.96,-314"/>
<polygon fill="#63b8ff" stroke="#63b8ff" points="428.11,-310.5 418.11,-314 428.11,-317.5 428.11,-310.5"/>
</a>
</g>
</g>
<!-- Node13 -->
<g id="Node000013" class="node">
<title>Node13</title>
<g id="a_Node000013"><a xlink:href="class_p4_1_1_package_instantiation.html" target="_top" xlink:title=" ">
<polygon fill="white" stroke="#bfbfbf" points="594.12,-286 469.38,-286 469.38,-266 594.12,-266 594.12,-286"/>
<text text-anchor="middle" x="531.75" y="-272.5" font-family="Helvetica,sans-Serif" font-size="10.00">P4::PackageInstantiation</text>
</a>
</g>
</g>
<!-- Node10&#45;&gt;Node13 -->
<g id="edge12_Node000010_Node000013" class="edge">
<title>Node10&#45;&gt;Node13</title>
<g id="a_edge12_Node000010_Node000013"><a xlink:title=" ">
<path fill="none" stroke="#63b8ff" d="M427.78,-301C447.28,-296.27 469.06,-290.98 487.55,-286.49"/>
<polygon fill="#63b8ff" stroke="#63b8ff" points="426.96,-297.6 418.07,-303.36 428.62,-304.4 426.96,-297.6"/>
</a>
</g>
</g>
<!-- Node14 -->
<g id="Node000014" class="node">
<title>Node14</title>
<g id="a_Node000014"><a xlink:href="class_p4_1_1_parser_instantiation.html" target="_top" xlink:title=" ">
<polygon fill="white" stroke="#bfbfbf" points="589.25,-248 474.25,-248 474.25,-228 589.25,-228 589.25,-248"/>
<text text-anchor="middle" x="531.75" y="-234.5" font-family="Helvetica,sans-Serif" font-size="10.00">P4::ParserInstantiation</text>
</a>
</g>
</g>
<!-- Node10&#45;&gt;Node14 -->
<g id="edge13_Node000010_Node000014" class="edge">
<title>Node10&#45;&gt;Node14</title>
<g id="a_edge13_Node000010_Node000014"><a xlink:title=" ">
<path fill="none" stroke="#63b8ff" d="M396.25,-296.65C413.08,-284.11 437.32,-267.57 460.75,-257 468.1,-253.69 476.14,-250.84 484.08,-248.44"/>
<polygon fill="#63b8ff" stroke="#63b8ff" points="394.29,-293.74 388.46,-302.59 398.54,-299.31 394.29,-293.74"/>
</a>
</g>
</g>
<!-- Node16 -->
<g id="Node000016" class="node">
<title>Node16</title>
<g id="a_Node000016"><a xlink:href="class_p4_1_1_action_call.html" target="_top" xlink:title=" ">
<polygon fill="white" stroke="#666666" points="570.88,-210 492.62,-210 492.62,-190 570.88,-190 570.88,-210"/>
<text text-anchor="middle" x="531.75" y="-196.5" font-family="Helvetica,sans-Serif" font-size="10.00">P4::ActionCall</text>
</a>
</g>
</g>
<!-- Node15&#45;&gt;Node16 -->
<g id="edge15_Node000015_Node000016" class="edge">
<title>Node15&#45;&gt;Node16</title>
<g id="a_edge15_Node000015_Node000016"><a xlink:title=" ">
<path fill="none" stroke="#63b8ff" d="M396.25,-141.35C413.08,-153.89 437.32,-170.43 460.75,-181 470.62,-185.45 481.76,-189.06 492.2,-191.88"/>
<polygon fill="#63b8ff" stroke="#63b8ff" points="398.54,-138.69 388.46,-135.41 394.29,-144.26 398.54,-138.69"/>
</a>
</g>
</g>
<!-- Node17 -->
<g id="Node000017" class="node">
<title>Node17</title>
<g id="a_Node000017"><a xlink:href="class_p4_1_1_apply_method.html" target="_top" xlink:title=" ">
<polygon fill="white" stroke="#666666" points="577.25,-172 486.25,-172 486.25,-152 577.25,-152 577.25,-172"/>
<text text-anchor="middle" x="531.75" y="-158.5" font-family="Helvetica,sans-Serif" font-size="10.00">P4::ApplyMethod</text>
</a>
</g>
</g>
<!-- Node15&#45;&gt;Node17 -->
<g id="edge16_Node000015_Node000017" class="edge">
<title>Node15&#45;&gt;Node17</title>
<g id="a_edge16_Node000015_Node000017"><a xlink:title=" ">
<path fill="none" stroke="#63b8ff" d="M428.54,-137.18C447.9,-141.88 469.43,-147.11 487.71,-151.55"/>
<polygon fill="#63b8ff" stroke="#63b8ff" points="429.44,-133.8 418.9,-134.84 427.79,-140.6 429.44,-133.8"/>
</a>
</g>
</g>
<!-- Node18 -->
<g id="Node000018" class="node">
<title>Node18</title>
<g id="a_Node000018"><a xlink:href="class_p4_1_1_built_in_method.html" target="_top" xlink:title=" ">
<polygon fill="white" stroke="#666666" points="578.38,-134 485.12,-134 485.12,-114 578.38,-114 578.38,-134"/>
<text text-anchor="middle" x="531.75" y="-120.5" font-family="Helvetica,sans-Serif" font-size="10.00">P4::BuiltInMethod</text>
</a>
</g>
</g>
<!-- Node15&#45;&gt;Node18 -->
<g id="edge17_Node000015_Node000018" class="edge">
<title>Node15&#45;&gt;Node18</title>
<g id="a_edge17_Node000015_Node000018"><a xlink:title=" ">
<path fill="none" stroke="#63b8ff" d="M436.55,-124C452.62,-124 469.62,-124 484.69,-124"/>
<polygon fill="#63b8ff" stroke="#63b8ff" points="436.57,-120.5 426.57,-124 436.57,-127.5 436.57,-120.5"/>
</a>
</g>
</g>
<!-- Node19 -->
<g id="Node000019" class="node">
<title>Node19</title>
<g id="a_Node000019"><a xlink:href="class_p4_1_1_extern_function.html" target="_top" xlink:title=" ">
<polygon fill="white" stroke="#666666" points="581.75,-96 481.75,-96 481.75,-76 581.75,-76 581.75,-96"/>
<text text-anchor="middle" x="531.75" y="-82.5" font-family="Helvetica,sans-Serif" font-size="10.00">P4::ExternFunction</text>
</a>
</g>
</g>
<!-- Node15&#45;&gt;Node19 -->
<g id="edge18_Node000015_Node000019" class="edge">
<title>Node15&#45;&gt;Node19</title>
<g id="a_edge18_Node000015_Node000019"><a xlink:title=" ">
<path fill="none" stroke="#63b8ff" d="M428.54,-110.82C447.9,-106.12 469.43,-100.89 487.71,-96.45"/>
<polygon fill="#63b8ff" stroke="#63b8ff" points="427.79,-107.4 418.9,-113.16 429.44,-114.2 427.79,-107.4"/>
</a>
</g>
</g>
<!-- Node20 -->
<g id="Node000020" class="node">
<title>Node20</title>
<g id="a_Node000020"><a xlink:href="class_p4_1_1_extern_method.html" target="_top" xlink:title=" ">
<polygon fill="white" stroke="#666666" points="579.12,-58 484.38,-58 484.38,-38 579.12,-38 579.12,-58"/>
<text text-anchor="middle" x="531.75" y="-44.5" font-family="Helvetica,sans-Serif" font-size="10.00">P4::ExternMethod</text>
</a>
</g>
</g>
<!-- Node15&#45;&gt;Node20 -->
<g id="edge19_Node000015_Node000020" class="edge">
<title>Node15&#45;&gt;Node20</title>
<g id="a_edge19_Node000015_Node000020"><a xlink:title=" ">
<path fill="none" stroke="#63b8ff" d="M396.25,-106.65C413.08,-94.11 437.32,-77.57 460.75,-67 468.1,-63.69 476.14,-60.84 484.08,-58.44"/>
<polygon fill="#63b8ff" stroke="#63b8ff" points="394.29,-103.74 388.46,-112.59 398.54,-109.31 394.29,-103.74"/>
</a>
</g>
</g>
<!-- Node21 -->
<g id="Node000021" class="node">
<title>Node21</title>
<g id="a_Node000021"><a xlink:href="class_p4_1_1_function_call.html" target="_top" xlink:title=" ">
<polygon fill="white" stroke="#666666" points="575.75,-20 487.75,-20 487.75,0 575.75,0 575.75,-20"/>
<text text-anchor="middle" x="531.75" y="-6.5" font-family="Helvetica,sans-Serif" font-size="10.00">P4::FunctionCall</text>
</a>
</g>
</g>
<!-- Node15&#45;&gt;Node21 -->
<g id="edge20_Node000015_Node000021" class="edge">
<title>Node15&#45;&gt;Node21</title>
<g id="a_edge20_Node000015_Node000021"><a xlink:title=" ">
<path fill="none" stroke="#63b8ff" d="M387.13,-104.14C402.21,-82.46 429.18,-48.29 460.75,-29 468.81,-24.07 478.15,-20.4 487.34,-17.68"/>
<polygon fill="#63b8ff" stroke="#63b8ff" points="384.25,-102.15 381.56,-112.4 390.05,-106.06 384.25,-102.15"/>
</a>
</g>
</g>
</g>
</svg>

<g id="navigator" transform="translate(0 0)" fill="#404254">
  <rect fill="#f2f5e9" fill-opacity="0.5" stroke="#606060" stroke-width=".5" x="0" y="0" width="60" height="60"/>
  <use id="zoomplus" xlink:href="#zoomPlus" x="17" y="9" onmousedown="handleZoom(evt,'in')"/>
  <use id="zoomminus" xlink:href="#zoomMin" x="42" y="9" onmousedown="handleZoom(evt,'out')"/>
  <use id="reset" xlink:href="#resetDef" x="30" y="36" onmousedown="handleReset()"/>
   <use id="arrowup" xlink:href="#arrowUp" x="0" y="0" onmousedown="handlePan(0,-1)"/>
  <use id="arrowright" xlink:href="#arrowRight" x="0" y="0" onmousedown="handlePan(1,0)"/>
  <use id="arrowdown" xlink:href="#arrowDown" x="0" y="0" onmousedown="handlePan(0,1)"/>
  <use id="arrowleft" xlink:href="#arrowLeft" x="0" y="0" onmousedown="handlePan(-1,0)"/>
</g>
<svg viewBox="0 0 15 15" width="100%" height="30px" preserveAspectRatio="xMaxYMin meet">
 <g id="arrow_out" transform="scale(0.3 0.3)">
  <a xlink:href="class_p4_1_1_instance_base__inherit__graph_org.svg" target="_base">
   <rect id="button" ry="5" rx="5" y="6" x="6" height="38" width="38"
        fill="#f2f5e9" fill-opacity="0.5" stroke="#606060" stroke-width="1.0"/>
   <path id="arrow"
     d="M 11.500037,31.436501 C 11.940474,20.09759 22.043105,11.32322 32.158766,21.979434 L 37.068811,17.246167 C 37.068811,17.246167 37.088388,32 37.088388,32 L 22.160133,31.978069 C 22.160133,31.978069 26.997745,27.140456 26.997745,27.140456 C 18.528582,18.264221 13.291696,25.230495 11.500037,31.436501 z"
     style="fill:#404040;"/>
  </a>
 </g>
</svg>

<style type='text/css'>
<![CDATA[
[data-mouse-over-selected='false'] { opacity: 0.7; }
[data-mouse-over-selected='true']  { opacity: 1.0; }
]]>
</style>
<script type="application/ecmascript"><![CDATA[
document.addEventListener('DOMContentLoaded', (event) => {
  highlightEdges();
  highlightAdjacentNodes();
});
]]></script>
</svg>
