<?xml version="1.0" encoding="UTF-8" standalone="no"?>
<!DOCTYPE svg PUBLIC "-//W3C//DTD SVG 1.1//EN"
 "http://www.w3.org/Graphics/SVG/1.1/DTD/svg11.dtd">
<!-- Generated by graphviz version 10.0.1 (20240210.2158)
 -->
<!-- Title: EBPF::EBPFObject Pages: 1 -->
<!--zoomable 1016 -->

<svg id="main" version="1.1" xmlns="http://www.w3.org/2000/svg" xmlns:xlink="http://www.w3.org/1999/xlink" xml:space="preserve" onload="init(evt)">
<style type="text/css"><![CDATA[
.node, .edge {opacity: 0.7;}
.node.selected, .edge.selected {opacity: 1;}
.edge:hover path { stroke: red; }
.edge:hover polygon { stroke: red; fill: red; }
]]></style>

<defs>
  <circle id="rim" cx="0" cy="0" r="7"/>
  <circle id="rim2" cx="0" cy="0" r="3.5"/>
  <g id="zoomPlus">
    <use xlink:href="#rim" fill="#404040"><set attributeName="fill" to="#808080" begin="zoomplus.mouseover" end="zoomplus.mouseout"/></use>
    <path d="M-4,0h8M0,-4v8" fill="none" stroke="white" stroke-width="1.5" pointer-events="none"/>
  </g>
  <g id="zoomMin">
    <use xlink:href="#rim" fill="#404040"><set attributeName="fill" to="#808080" begin="zoomminus.mouseover" end="zoomminus.mouseout"/></use>
    <path d="M-4,0h8" fill="none" stroke="white" stroke-width="1.5" pointer-events="none"/>
  </g>
  <g id="arrowUp" transform="translate(30 24)">
    <use xlink:href="#rim"/>
    <path pointer-events="none" fill="none" stroke="white" stroke-width="1.5" d="M0,-3.0v7 M-2.5,-0.5L0,-3.0L2.5,-0.5"/>
  </g>
  <g id="arrowRight" transform="rotate(90) translate(36 -43)">
    <use xlink:href="#rim"/>
    <path pointer-events="none" fill="none" stroke="white" stroke-width="1.5" d="M0,-3.0v7 M-2.5,-0.5L0,-3.0L2.5,-0.5"/>
  </g>
  <g id="arrowDown" transform="rotate(180) translate(-30 -48)">
    <use xlink:href="#rim"/>
    <path pointer-events="none" fill="none" stroke="white" stroke-width="1.5" d="M0,-3.0v7 M-2.5,-0.5L0,-3.0L2.5,-0.5"/>
  </g>
  <g id="arrowLeft" transform="rotate(270) translate(-36 17)">
    <use xlink:href="#rim"/>
    <path pointer-events="none" fill="none" stroke="white" stroke-width="1.5" d="M0,-3.0v7 M-2.5,-0.5L0,-3.0L2.5,-0.5"/>
  </g>
  <g id="resetDef">
    <use xlink:href="#rim2" fill="#404040"><set attributeName="fill" to="#808080" begin="reset.mouseover" end="reset.mouseout"/></use>
  </g>
</defs>
<script type="application/ecmascript">
var viewWidth = 910;
var viewHeight = 1016;
var sectionId = 'dynsection-0';
</script>
<script type="application/ecmascript" xlink:href="svg.min.js"/>
<svg id="graph" class="graph">
<g id="viewport">
<title>EBPF::EBPFObject</title>
<!-- Node1 -->
<g id="Node000001" class="node">
<title>Node1</title>
<g id="a_Node000001"><a xlink:title=" ">
<polygon fill="#999999" stroke="#666666" points="295.5,-647 192.5,-647 192.5,-627 295.5,-627 295.5,-647"/>
<text text-anchor="middle" x="244" y="-633.5" font-family="Helvetica,sans-Serif" font-size="10.00">EBPF::EBPFObject</text>
</a>
</g>
</g>
<!-- Node4 -->
<g id="Node000004" class="node">
<title>Node4</title>
<g id="a_Node000004"><a xlink:href="class_e_b_p_f_1_1_e_b_p_f_checksum_p_s_a.html" target="_top" xlink:title=" ">
<polygon fill="white" stroke="#bfbfbf" points="481.38,-970 340.12,-970 340.12,-950 481.38,-950 481.38,-970"/>
<text text-anchor="middle" x="410.75" y="-956.5" font-family="Helvetica,sans-Serif" font-size="10.00">EBPF::EBPFChecksumPSA</text>
</a>
</g>
</g>
<!-- Node1&#45;&gt;Node4 -->
<g id="edge3_Node000001_Node000004" class="edge">
<title>Node1&#45;&gt;Node4</title>
<g id="a_edge3_Node000001_Node000004"><a xlink:title=" ">
<path fill="none" stroke="#63b8ff" d="M249.05,-658.59C258.18,-703.43 283.43,-808.74 331.5,-884 349.03,-911.45 378.33,-936.32 395.67,-949.69"/>
<polygon fill="#63b8ff" stroke="#63b8ff" points="252.5,-658.02 247.14,-648.88 245.63,-659.37 252.5,-658.02"/>
</a>
</g>
</g>
<!-- Node7 -->
<g id="Node000007" class="node">
<title>Node7</title>
<g id="a_Node000007"><a xlink:href="class_e_b_p_f_1_1_e_b_p_f_control.html" target="_top" xlink:title=" ">
<polygon fill="white" stroke="#bfbfbf" points="463.38,-875 358.12,-875 358.12,-855 463.38,-855 463.38,-875"/>
<text text-anchor="middle" x="410.75" y="-861.5" font-family="Helvetica,sans-Serif" font-size="10.00">EBPF::EBPFControl</text>
</a>
</g>
</g>
<!-- Node1&#45;&gt;Node7 -->
<g id="edge6_Node000001_Node000007" class="edge">
<title>Node1&#45;&gt;Node7</title>
<g id="a_edge6_Node000001_Node000007"><a xlink:title=" ">
<path fill="none" stroke="#63b8ff" d="M251.86,-657.76C263.89,-691.91 291.4,-760.85 331.5,-808 348.38,-827.84 373.5,-844.55 390.7,-854.65"/>
<polygon fill="#63b8ff" stroke="#63b8ff" points="255.29,-656.98 248.74,-648.65 248.67,-659.25 255.29,-656.98"/>
</a>
</g>
</g>
<!-- Node20 -->
<g id="Node000020" class="node">
<title>Node20</title>
<g id="a_Node000020"><a xlink:href="class_e_b_p_f_1_1_e_b_p_f_digest_p_s_a.html" target="_top" xlink:title=" ">
<polygon fill="white" stroke="#bfbfbf" points="472,-799 349.5,-799 349.5,-779 472,-779 472,-799"/>
<text text-anchor="middle" x="410.75" y="-785.5" font-family="Helvetica,sans-Serif" font-size="10.00">EBPF::EBPFDigestPSA</text>
</a>
</g>
</g>
<!-- Node1&#45;&gt;Node20 -->
<g id="edge11_Node000001_Node000020" class="edge">
<title>Node1&#45;&gt;Node20</title>
<g id="a_edge11_Node000001_Node000020"><a xlink:title=" ">
<path fill="none" stroke="#63b8ff" d="M252.63,-657.58C264.68,-687.18 291.02,-741.33 331.5,-770 336.86,-773.8 342.89,-776.84 349.17,-779.28"/>
<polygon fill="#63b8ff" stroke="#63b8ff" points="256.03,-656.67 249.13,-648.62 249.51,-659.21 256.03,-656.67"/>
</a>
</g>
</g>
<!-- Node21 -->
<g id="Node000021" class="node">
<title>Node21</title>
<g id="a_Node000021"><a xlink:href="class_e_b_p_f_1_1_e_b_p_f_hash_algorithm_p_s_a.html" target="_top" xlink:title=" ">
<polygon fill="white" stroke="#bfbfbf" points="490,-761 331.5,-761 331.5,-741 490,-741 490,-761"/>
<text text-anchor="middle" x="410.75" y="-747.5" font-family="Helvetica,sans-Serif" font-size="10.00">EBPF::EBPFHashAlgorithmPSA</text>
</a>
</g>
</g>
<!-- Node1&#45;&gt;Node21 -->
<g id="edge12_Node000001_Node000021" class="edge">
<title>Node1&#45;&gt;Node21</title>
<g id="a_edge12_Node000001_Node000021"><a xlink:title=" ">
<path fill="none" stroke="#63b8ff" d="M262.72,-655.15C279.43,-671.61 305.7,-695.85 331.5,-713 348.1,-724.03 368.39,-733.79 384.15,-740.66"/>
<polygon fill="#63b8ff" stroke="#63b8ff" points="265.52,-653 255.98,-648.4 260.57,-657.95 265.52,-653"/>
</a>
</g>
</g>
<!-- Node29 -->
<g id="Node000029" class="node">
<title>Node29</title>
<g id="a_Node000029"><a xlink:href="class_e_b_p_f_1_1_e_b_p_f_parser.html" target="_top" xlink:title=" ">
<polygon fill="white" stroke="#bfbfbf" points="462.25,-704 359.25,-704 359.25,-684 462.25,-684 462.25,-704"/>
<text text-anchor="middle" x="410.75" y="-690.5" font-family="Helvetica,sans-Serif" font-size="10.00">EBPF::EBPFParser</text>
</a>
</g>
</g>
<!-- Node1&#45;&gt;Node29 -->
<g id="edge18_Node000001_Node000029" class="edge">
<title>Node1&#45;&gt;Node29</title>
<g id="a_edge18_Node000001_Node000029"><a xlink:title=" ">
<path fill="none" stroke="#63b8ff" d="M275.95,-652.18C292.21,-659.75 312.64,-668.62 331.5,-675 340.9,-678.18 351.11,-681.06 360.95,-683.55"/>
<polygon fill="#63b8ff" stroke="#63b8ff" points="277.82,-649.19 267.29,-648.08 274.83,-655.52 277.82,-649.19"/>
</a>
</g>
</g>
<!-- Node33 -->
<g id="Node000033" class="node">
<title>Node33</title>
<g id="a_Node000033"><a xlink:href="class_e_b_p_f_1_1_e_b_p_f_parser_state.html" target="_top" xlink:title=" ">
<polygon fill="white" stroke="#bfbfbf" points="473.88,-666 347.62,-666 347.62,-646 473.88,-646 473.88,-666"/>
<text text-anchor="middle" x="410.75" y="-652.5" font-family="Helvetica,sans-Serif" font-size="10.00">EBPF::EBPFParserState</text>
</a>
</g>
</g>
<!-- Node1&#45;&gt;Node33 -->
<g id="edge22_Node000001_Node000033" class="edge">
<title>Node1&#45;&gt;Node33</title>
<g id="a_edge22_Node000001_Node000033"><a xlink:title=" ">
<path fill="none" stroke="#63b8ff" d="M307.09,-644.16C320.22,-645.67 334.09,-647.27 347.23,-648.79"/>
<polygon fill="#63b8ff" stroke="#63b8ff" points="307.61,-640.7 297.28,-643.03 306.81,-647.65 307.61,-640.7"/>
</a>
</g>
</g>
<!-- Node35 -->
<g id="Node000035" class="node">
<title>Node35</title>
<g id="a_Node000035"><a xlink:href="class_e_b_p_f_1_1_e_b_p_f_program.html" target="_top" xlink:title=" ">
<polygon fill="white" stroke="#bfbfbf" points="466.38,-628 355.12,-628 355.12,-608 466.38,-608 466.38,-628"/>
<text text-anchor="middle" x="410.75" y="-614.5" font-family="Helvetica,sans-Serif" font-size="10.00">EBPF::EBPFProgram</text>
</a>
</g>
</g>
<!-- Node1&#45;&gt;Node35 -->
<g id="edge24_Node000001_Node000035" class="edge">
<title>Node1&#45;&gt;Node35</title>
<g id="a_edge24_Node000001_Node000035"><a xlink:title=" ">
<path fill="none" stroke="#63b8ff" d="M307,-629.85C322.73,-628.04 339.51,-626.1 354.85,-624.33"/>
<polygon fill="#63b8ff" stroke="#63b8ff" points="306.81,-626.35 297.28,-630.97 307.61,-633.3 306.81,-626.35"/>
</a>
</g>
</g>
<!-- Node47 -->
<g id="Node000047" class="node">
<title>Node47</title>
<g id="a_Node000047"><a xlink:href="class_e_b_p_f_1_1_e_b_p_f_random_p_s_a.html" target="_top" xlink:title=" ">
<polygon fill="white" stroke="#bfbfbf" points="476.12,-590 345.38,-590 345.38,-570 476.12,-570 476.12,-590"/>
<text text-anchor="middle" x="410.75" y="-576.5" font-family="Helvetica,sans-Serif" font-size="10.00">EBPF::EBPFRandomPSA</text>
</a>
</g>
</g>
<!-- Node1&#45;&gt;Node47 -->
<g id="edge30_Node000001_Node000047" class="edge">
<title>Node1&#45;&gt;Node47</title>
<g id="a_edge30_Node000001_Node000047"><a xlink:title=" ">
<path fill="none" stroke="#63b8ff" d="M275.95,-621.82C292.21,-614.25 312.64,-605.38 331.5,-599 340.9,-595.82 351.11,-592.94 360.95,-590.45"/>
<polygon fill="#63b8ff" stroke="#63b8ff" points="274.83,-618.48 267.29,-625.92 277.82,-624.81 274.83,-618.48"/>
</a>
</g>
</g>
<!-- Node48 -->
<g id="Node000048" class="node">
<title>Node48</title>
<g id="a_Node000048"><a xlink:href="class_e_b_p_f_1_1_e_b_p_f_table_base.html" target="_top" xlink:title=" ">
<polygon fill="white" stroke="#bfbfbf" points="470.88,-457 350.62,-457 350.62,-437 470.88,-437 470.88,-457"/>
<text text-anchor="middle" x="410.75" y="-443.5" font-family="Helvetica,sans-Serif" font-size="10.00">EBPF::EBPFTableBase</text>
</a>
</g>
</g>
<!-- Node1&#45;&gt;Node48 -->
<g id="edge31_Node000001_Node000048" class="edge">
<title>Node1&#45;&gt;Node48</title>
<g id="a_edge31_Node000001_Node000048"><a xlink:title=" ">
<path fill="none" stroke="#63b8ff" d="M261.47,-618C295.9,-578.3 374.46,-487.7 400.89,-457.22"/>
<polygon fill="#63b8ff" stroke="#63b8ff" points="258.99,-615.52 255.08,-625.37 264.28,-620.11 258.99,-615.52"/>
</a>
</g>
</g>
<!-- Node60 -->
<g id="Node000060" class="node">
<title>Node60</title>
<g id="a_Node000060"><a xlink:href="class_e_b_p_f_1_1_e_b_p_f_type.html" target="_top" xlink:title=" ">
<polygon fill="white" stroke="#bfbfbf" points="458.5,-248 363,-248 363,-228 458.5,-228 458.5,-248"/>
<text text-anchor="middle" x="410.75" y="-234.5" font-family="Helvetica,sans-Serif" font-size="10.00">EBPF::EBPFType</text>
</a>
</g>
</g>
<!-- Node1&#45;&gt;Node60 -->
<g id="edge37_Node000001_Node000060" class="edge">
<title>Node1&#45;&gt;Node60</title>
<g id="a_edge37_Node000001_Node000060"><a xlink:title=" ">
<path fill="none" stroke="#63b8ff" d="M253.59,-616.2C283.69,-543.3 383.76,-300.95 405.54,-248.2"/>
<polygon fill="#63b8ff" stroke="#63b8ff" points="250.4,-614.76 249.82,-625.34 256.87,-617.43 250.4,-614.76"/>
</a>
</g>
</g>
<!-- Node72 -->
<g id="Node000072" class="node">
<title>Node72</title>
<g id="a_Node000072"><a xlink:href="class_u_b_p_f_1_1_u_b_p_f_deparser.html" target="_top" xlink:title=" ">
<polygon fill="white" stroke="#bfbfbf" points="467.5,-210 354,-210 354,-190 467.5,-190 467.5,-210"/>
<text text-anchor="middle" x="410.75" y="-196.5" font-family="Helvetica,sans-Serif" font-size="10.00">UBPF::UBPFDeparser</text>
</a>
</g>
</g>
<!-- Node1&#45;&gt;Node72 -->
<g id="edge45_Node000001_Node000072" class="edge">
<title>Node1&#45;&gt;Node72</title>
<g id="a_edge45_Node000001_Node000072"><a xlink:title=" ">
<path fill="none" stroke="#63b8ff" d="M246.45,-615.81C252.14,-539.05 275.4,-277.05 331.5,-219 337.62,-212.67 345.47,-208.3 353.82,-205.32"/>
<polygon fill="#63b8ff" stroke="#63b8ff" points="242.99,-615.1 245.77,-625.33 249.98,-615.6 242.99,-615.1"/>
</a>
</g>
</g>
<!-- Node73 -->
<g id="Node000073" class="node">
<title>Node73</title>
<g id="a_Node000073"><a xlink:href="class_u_b_p_f_1_1_u_b_p_f_table_base.html" target="_top" xlink:title=" ">
<polygon fill="white" stroke="#bfbfbf" points="470.88,-58 350.62,-58 350.62,-38 470.88,-38 470.88,-58"/>
<text text-anchor="middle" x="410.75" y="-44.5" font-family="Helvetica,sans-Serif" font-size="10.00">UBPF::UBPFTableBase</text>
</a>
</g>
</g>
<!-- Node1&#45;&gt;Node73 -->
<g id="edge46_Node000001_Node000073" class="edge">
<title>Node1&#45;&gt;Node73</title>
<g id="a_edge46_Node000001_Node000073"><a xlink:title=" ">
<path fill="none" stroke="#63b8ff" d="M246.47,-615.27C251.54,-548.44 271.42,-340.8 331.5,-181 349.98,-131.85 386.03,-80 401.92,-58.39"/>
<polygon fill="#63b8ff" stroke="#63b8ff" points="242.98,-614.97 245.75,-625.19 249.96,-615.47 242.98,-614.97"/>
</a>
</g>
</g>
<!-- Node2 -->
<g id="Node000002" class="node">
<title>Node2</title>
<g id="a_Node000002"><a xlink:href="class_i_castable.html" target="_top" xlink:title=" ">
<polygon fill="white" stroke="#666666" points="156.5,-647 100,-647 100,-627 156.5,-627 156.5,-647"/>
<text text-anchor="middle" x="128.25" y="-633.5" font-family="Helvetica,sans-Serif" font-size="10.00">ICastable</text>
</a>
</g>
</g>
<!-- Node2&#45;&gt;Node1 -->
<g id="edge1_Node000001_Node000002" class="edge">
<title>Node2&#45;&gt;Node1</title>
<g id="a_edge1_Node000001_Node000002"><a xlink:title=" ">
<path fill="none" stroke="#63b8ff" d="M168.07,-637C175.82,-637 184.07,-637 192.15,-637"/>
<polygon fill="#63b8ff" stroke="#63b8ff" points="168.3,-633.5 158.3,-637 168.3,-640.5 168.3,-633.5"/>
</a>
</g>
</g>
<!-- Node3 -->
<g id="Node000003" class="node">
<title>Node3</title>
<g id="a_Node000003"><a xlink:href="struct_r_t_t_i_1_1_base.html" target="_top" xlink:title=" ">
<polygon fill="white" stroke="#bfbfbf" points="64,-647 0,-647 0,-627 64,-627 64,-647"/>
<text text-anchor="middle" x="32" y="-633.5" font-family="Helvetica,sans-Serif" font-size="10.00">RTTI::Base</text>
</a>
</g>
</g>
<!-- Node3&#45;&gt;Node2 -->
<g id="edge2_Node000002_Node000003" class="edge">
<title>Node3&#45;&gt;Node2</title>
<g id="a_edge2_Node000002_Node000003"><a xlink:title=" ">
<path fill="none" stroke="#63b8ff" d="M75.72,-637C83.9,-637 92.26,-637 99.8,-637"/>
<polygon fill="#63b8ff" stroke="#63b8ff" points="75.9,-633.5 65.9,-637 75.9,-640.5 75.9,-633.5"/>
</a>
</g>
</g>
<!-- Node5 -->
<g id="Node000005" class="node">
<title>Node5</title>
<g id="a_Node000005"><a xlink:href="class_e_b_p_f_1_1_e_b_p_f_hash_p_s_a.html" target="_top" xlink:title=" ">
<polygon fill="white" stroke="#bfbfbf" points="671.38,-1008 554.12,-1008 554.12,-988 671.38,-988 671.38,-1008"/>
<text text-anchor="middle" x="612.75" y="-994.5" font-family="Helvetica,sans-Serif" font-size="10.00">EBPF::EBPFHashPSA</text>
</a>
</g>
</g>
<!-- Node4&#45;&gt;Node5 -->
<g id="edge4_Node000004_Node000005" class="edge">
<title>Node4&#45;&gt;Node5</title>
<g id="a_edge4_Node000004_Node000005"><a xlink:title=" ">
<path fill="none" stroke="#63b8ff" d="M478.02,-972.59C503.55,-977.44 532.4,-982.92 556.75,-987.55"/>
<polygon fill="#63b8ff" stroke="#63b8ff" points="478.89,-969.19 468.42,-970.77 477.59,-976.07 478.89,-969.19"/>
</a>
</g>
</g>
<!-- Node6 -->
<g id="Node000006" class="node">
<title>Node6</title>
<g id="a_Node000006"><a xlink:href="class_e_b_p_f_1_1_e_b_p_f_internet_checksum_p_s_a.html" target="_top" xlink:title=" ">
<polygon fill="white" stroke="#bfbfbf" points="699.5,-970 526,-970 526,-950 699.5,-950 699.5,-970"/>
<text text-anchor="middle" x="612.75" y="-956.5" font-family="Helvetica,sans-Serif" font-size="10.00">EBPF::EBPFInternetChecksumPSA</text>
</a>
</g>
</g>
<!-- Node4&#45;&gt;Node6 -->
<g id="edge5_Node000004_Node000006" class="edge">
<title>Node4&#45;&gt;Node6</title>
<g id="a_edge5_Node000004_Node000006"><a xlink:title=" ">
<path fill="none" stroke="#63b8ff" d="M493.17,-960C503.88,-960 514.88,-960 525.65,-960"/>
<polygon fill="#63b8ff" stroke="#63b8ff" points="493.21,-956.5 483.21,-960 493.21,-963.5 493.21,-956.5"/>
</a>
</g>
</g>
<!-- Node8 -->
<g id="Node000008" class="node">
<title>Node8</title>
<g id="a_Node000008"><a xlink:href="class_e_b_p_f_1_1_e_b_p_f_control_p_s_a.html" target="_top" xlink:title=" ">
<polygon fill="white" stroke="#bfbfbf" points="675.5,-932 550,-932 550,-912 675.5,-912 675.5,-932"/>
<text text-anchor="middle" x="612.75" y="-918.5" font-family="Helvetica,sans-Serif" font-size="10.00">EBPF::EBPFControlPSA</text>
</a>
</g>
</g>
<!-- Node7&#45;&gt;Node8 -->
<g id="edge7_Node000007_Node000008" class="edge">
<title>Node7&#45;&gt;Node8</title>
<g id="a_edge7_Node000007_Node000008"><a xlink:title=" ">
<path fill="none" stroke="#63b8ff" d="M450.7,-879.06C472.65,-886.71 500.66,-896 526,-903 537.02,-906.05 548.95,-908.94 560.3,-911.5"/>
<polygon fill="#63b8ff" stroke="#63b8ff" points="452.16,-875.87 441.57,-875.85 449.84,-882.47 452.16,-875.87"/>
</a>
</g>
</g>
<!-- Node9 -->
<g id="Node000009" class="node">
<title>Node9</title>
<g id="a_Node000009"><a xlink:href="class_e_b_p_f_1_1_e_b_p_f_deparser.html" target="_top" xlink:title=" ">
<polygon fill="white" stroke="#bfbfbf" points="669.5,-894 556,-894 556,-874 669.5,-874 669.5,-894"/>
<text text-anchor="middle" x="612.75" y="-880.5" font-family="Helvetica,sans-Serif" font-size="10.00">EBPF::EBPFDeparser</text>
</a>
</g>
</g>
<!-- Node7&#45;&gt;Node9 -->
<g id="edge8_Node000007_Node000009" class="edge">
<title>Node7&#45;&gt;Node9</title>
<g id="a_edge8_Node000007_Node000009"><a xlink:title=" ">
<path fill="none" stroke="#63b8ff" d="M475,-871.01C500.92,-873.47 530.66,-876.3 555.78,-878.68"/>
<polygon fill="#63b8ff" stroke="#63b8ff" points="475.57,-867.55 465.28,-870.09 474.91,-874.52 475.57,-867.55"/>
</a>
</g>
</g>
<!-- Node19 -->
<g id="Node000019" class="node">
<title>Node19</title>
<g id="a_Node000019"><a xlink:href="class_u_b_p_f_1_1_u_b_p_f_control.html" target="_top" xlink:title=" ">
<polygon fill="white" stroke="#bfbfbf" points="665.38,-856 560.12,-856 560.12,-836 665.38,-836 665.38,-856"/>
<text text-anchor="middle" x="612.75" y="-842.5" font-family="Helvetica,sans-Serif" font-size="10.00">UBPF::UBPFControl</text>
</a>
</g>
</g>
<!-- Node7&#45;&gt;Node19 -->
<g id="edge10_Node000007_Node000019" class="edge">
<title>Node7&#45;&gt;Node19</title>
<g id="a_edge10_Node000007_Node000019"><a xlink:title=" ">
<path fill="none" stroke="#63b8ff" d="M475.16,-858.98C502.38,-856.39 533.8,-853.41 559.64,-850.95"/>
<polygon fill="#63b8ff" stroke="#63b8ff" points="474.91,-855.48 465.28,-859.91 475.57,-862.45 474.91,-855.48"/>
</a>
</g>
</g>
<!-- Node10 -->
<g id="Node000010" class="node">
<title>Node10</title>
<g id="a_Node000010"><a xlink:href="class_e_b_p_f_1_1_e_b_p_f_deparser_p_s_a.html" target="_top" xlink:title=" ">
<polygon fill="white" stroke="orangered" points="885.75,-894 752,-894 752,-874 885.75,-874 885.75,-894"/>
<text text-anchor="middle" x="818.88" y="-880.5" font-family="Helvetica,sans-Serif" font-size="10.00">EBPF::EBPFDeparserPSA</text>
</a>
</g>
</g>
<!-- Node9&#45;&gt;Node10 -->
<g id="edge9_Node000009_Node000010" class="edge">
<title>Node9&#45;&gt;Node10</title>
<g id="a_edge9_Node000009_Node000010"><a xlink:title=" ">
<path fill="none" stroke="#63b8ff" d="M681.08,-884C703.82,-884 729.17,-884 751.82,-884"/>
<polygon fill="#63b8ff" stroke="#63b8ff" points="681.31,-880.5 671.31,-884 681.31,-887.5 681.31,-880.5"/>
</a>
</g>
</g>
<!-- Node22 -->
<g id="Node000022" class="node">
<title>Node22</title>
<g id="a_Node000022"><a xlink:href="class_e_b_p_f_1_1_c_r_c_checksum_algorithm.html" target="_top" xlink:title=" ">
<polygon fill="white" stroke="#bfbfbf" points="690.88,-818 534.62,-818 534.62,-798 690.88,-798 690.88,-818"/>
<text text-anchor="middle" x="612.75" y="-804.5" font-family="Helvetica,sans-Serif" font-size="10.00">EBPF::CRCChecksumAlgorithm</text>
</a>
</g>
</g>
<!-- Node21&#45;&gt;Node22 -->
<g id="edge13_Node000021_Node000022" class="edge">
<title>Node21&#45;&gt;Node22</title>
<g id="a_edge13_Node000021_Node000022"><a xlink:title=" ">
<path fill="none" stroke="#63b8ff" d="M473.61,-764.5C479.2,-766.18 484.74,-768.01 490,-770 506.92,-776.41 509.02,-782.77 526,-789 535.02,-792.31 544.79,-795.14 554.4,-797.53"/>
<polygon fill="#63b8ff" stroke="#63b8ff" points="474.85,-761.21 464.28,-761.87 472.95,-767.95 474.85,-761.21"/>
</a>
</g>
</g>
<!-- Node28 -->
<g id="Node000028" class="node">
<title>Node28</title>
<g id="a_Node000028"><a xlink:href="class_e_b_p_f_1_1_internet_checksum_algorithm.html" target="_top" xlink:title=" ">
<polygon fill="white" stroke="#bfbfbf" points="696.88,-780 528.62,-780 528.62,-760 696.88,-760 696.88,-780"/>
<text text-anchor="middle" x="612.75" y="-766.5" font-family="Helvetica,sans-Serif" font-size="10.00">EBPF::InternetChecksumAlgorithm</text>
</a>
</g>
</g>
<!-- Node21&#45;&gt;Node28 -->
<g id="edge17_Node000021_Node000028" class="edge">
<title>Node21&#45;&gt;Node28</title>
<g id="a_edge17_Node000021_Node000028"><a xlink:title=" ">
<path fill="none" stroke="#63b8ff" d="M501.43,-759.52C510.35,-760.37 519.38,-761.22 528.23,-762.07"/>
<polygon fill="#63b8ff" stroke="#63b8ff" points="502.01,-756.06 491.73,-758.6 501.35,-763.03 502.01,-756.06"/>
</a>
</g>
</g>
<!-- Node23 -->
<g id="Node000023" class="node">
<title>Node23</title>
<g id="a_Node000023"><a xlink:href="class_e_b_p_f_1_1_c_r_c16_checksum_algorithm.html" target="_top" xlink:title=" ">
<polygon fill="white" stroke="#666666" points="902.25,-856 735.5,-856 735.5,-836 902.25,-836 902.25,-856"/>
<text text-anchor="middle" x="818.88" y="-842.5" font-family="Helvetica,sans-Serif" font-size="10.00">EBPF::CRC16ChecksumAlgorithm</text>
</a>
</g>
</g>
<!-- Node22&#45;&gt;Node23 -->
<g id="edge14_Node000022_Node000023" class="edge">
<title>Node22&#45;&gt;Node23</title>
<g id="a_edge14_Node000022_Node000023"><a xlink:title=" ">
<path fill="none" stroke="#63b8ff" d="M681.39,-820.59C707.44,-825.44 736.89,-830.92 761.74,-835.55"/>
<polygon fill="#63b8ff" stroke="#63b8ff" points="682.03,-817.15 671.56,-818.76 680.75,-824.03 682.03,-817.15"/>
</a>
</g>
</g>
<!-- Node24 -->
<g id="Node000024" class="node">
<title>Node24</title>
<g id="a_Node000024"><a xlink:href="class_e_b_p_f_1_1_c_r_c32_checksum_algorithm.html" target="_top" xlink:title=" ">
<polygon fill="white" stroke="#666666" points="902.25,-818 735.5,-818 735.5,-798 902.25,-798 902.25,-818"/>
<text text-anchor="middle" x="818.88" y="-804.5" font-family="Helvetica,sans-Serif" font-size="10.00">EBPF::CRC32ChecksumAlgorithm</text>
</a>
</g>
</g>
<!-- Node22&#45;&gt;Node24 -->
<g id="edge15_Node000022_Node000024" class="edge">
<title>Node22&#45;&gt;Node24</title>
<g id="a_edge15_Node000022_Node000024"><a xlink:title=" ">
<path fill="none" stroke="#63b8ff" d="M702.41,-808C713.24,-808 724.28,-808 735.02,-808"/>
<polygon fill="#63b8ff" stroke="#63b8ff" points="702.73,-804.5 692.73,-808 702.73,-811.5 702.73,-804.5"/>
</a>
</g>
</g>
<!-- Node25 -->
<g id="Node000025" class="node">
<title>Node25</title>
<g id="a_Node000025"><a xlink:href="class_t_c_1_1_c_r_c_checksum_algorithm_p_n_a.html" target="_top" xlink:title=" ">
<polygon fill="white" stroke="orangered" points="900,-780 737.75,-780 737.75,-760 900,-760 900,-780"/>
<text text-anchor="middle" x="818.88" y="-766.5" font-family="Helvetica,sans-Serif" font-size="10.00">TC::CRCChecksumAlgorithmPNA</text>
</a>
</g>
</g>
<!-- Node22&#45;&gt;Node25 -->
<g id="edge16_Node000022_Node000025" class="edge">
<title>Node22&#45;&gt;Node25</title>
<g id="a_edge16_Node000022_Node000025"><a xlink:title=" ">
<path fill="none" stroke="#63b8ff" d="M681.39,-795.41C707.44,-790.56 736.89,-785.08 761.74,-780.45"/>
<polygon fill="#63b8ff" stroke="#63b8ff" points="680.75,-791.97 671.56,-797.24 682.03,-798.85 680.75,-791.97"/>
</a>
</g>
</g>
<!-- Node30 -->
<g id="Node000030" class="node">
<title>Node30</title>
<g id="a_Node000030"><a xlink:href="class_e_b_p_f_1_1_e_b_p_f_psa_parser.html" target="_top" xlink:title=" ">
<polygon fill="white" stroke="#bfbfbf" points="672.88,-742 552.62,-742 552.62,-722 672.88,-722 672.88,-742"/>
<text text-anchor="middle" x="612.75" y="-728.5" font-family="Helvetica,sans-Serif" font-size="10.00">EBPF::EBPFPsaParser</text>
</a>
</g>
</g>
<!-- Node29&#45;&gt;Node30 -->
<g id="edge19_Node000029_Node000030" class="edge">
<title>Node29&#45;&gt;Node30</title>
<g id="a_edge19_Node000029_Node000030"><a xlink:title=" ">
<path fill="none" stroke="#63b8ff" d="M473.81,-705.79C500.3,-710.82 530.96,-716.65 556.64,-721.53"/>
<polygon fill="#63b8ff" stroke="#63b8ff" points="474.7,-702.4 464.22,-703.97 473.39,-709.28 474.7,-702.4"/>
</a>
</g>
</g>
<!-- Node32 -->
<g id="Node000032" class="node">
<title>Node32</title>
<g id="a_Node000032"><a xlink:href="class_u_b_p_f_1_1_u_b_p_f_parser.html" target="_top" xlink:title=" ">
<polygon fill="white" stroke="#bfbfbf" points="664.25,-704 561.25,-704 561.25,-684 664.25,-684 664.25,-704"/>
<text text-anchor="middle" x="612.75" y="-690.5" font-family="Helvetica,sans-Serif" font-size="10.00">UBPF::UBPFParser</text>
</a>
</g>
</g>
<!-- Node29&#45;&gt;Node32 -->
<g id="edge21_Node000029_Node000032" class="edge">
<title>Node29&#45;&gt;Node32</title>
<g id="a_edge21_Node000029_Node000032"><a xlink:title=" ">
<path fill="none" stroke="#63b8ff" d="M473.99,-694C501.9,-694 534.42,-694 560.86,-694"/>
<polygon fill="#63b8ff" stroke="#63b8ff" points="474.25,-690.5 464.25,-694 474.25,-697.5 474.25,-690.5"/>
</a>
</g>
</g>
<!-- Node31 -->
<g id="Node000031" class="node">
<title>Node31</title>
<g id="a_Node000031"><a xlink:href="class_t_c_1_1_e_b_p_f_pna_parser.html" target="_top" xlink:title=" ">
<polygon fill="white" stroke="#bfbfbf" points="871.88,-742 765.88,-742 765.88,-722 871.88,-722 871.88,-742"/>
<text text-anchor="middle" x="818.88" y="-728.5" font-family="Helvetica,sans-Serif" font-size="10.00">TC::EBPFPnaParser</text>
</a>
</g>
</g>
<!-- Node30&#45;&gt;Node31 -->
<g id="edge20_Node000030_Node000031" class="edge">
<title>Node30&#45;&gt;Node31</title>
<g id="a_edge20_Node000030_Node000031"><a xlink:title=" ">
<path fill="none" stroke="#63b8ff" d="M684.52,-732C711.13,-732 740.87,-732 765.5,-732"/>
<polygon fill="#63b8ff" stroke="#63b8ff" points="684.85,-728.5 674.85,-732 684.85,-735.5 684.85,-728.5"/>
</a>
</g>
</g>
<!-- Node34 -->
<g id="Node000034" class="node">
<title>Node34</title>
<g id="a_Node000034"><a xlink:href="class_u_b_p_f_1_1_u_b_p_f_parser_state.html" target="_top" xlink:title=" ">
<polygon fill="white" stroke="#bfbfbf" points="675.88,-666 549.62,-666 549.62,-646 675.88,-646 675.88,-666"/>
<text text-anchor="middle" x="612.75" y="-652.5" font-family="Helvetica,sans-Serif" font-size="10.00">UBPF::UBPFParserState</text>
</a>
</g>
</g>
<!-- Node33&#45;&gt;Node34 -->
<g id="edge23_Node000033_Node000034" class="edge">
<title>Node33&#45;&gt;Node34</title>
<g id="a_edge23_Node000033_Node000034"><a xlink:title=" ">
<path fill="none" stroke="#63b8ff" d="M485.66,-656C506.62,-656 529.22,-656 549.42,-656"/>
<polygon fill="#63b8ff" stroke="#63b8ff" points="485.72,-652.5 475.72,-656 485.72,-659.5 485.72,-652.5"/>
</a>
</g>
</g>
<!-- Node36 -->
<g id="Node000036" class="node">
<title>Node36</title>
<g id="a_Node000036"><a xlink:href="class_e_b_p_f_1_1_e_b_p_f_pipeline.html" target="_top" xlink:title=" ">
<polygon fill="white" stroke="#bfbfbf" points="667.25,-628 558.25,-628 558.25,-608 667.25,-608 667.25,-628"/>
<text text-anchor="middle" x="612.75" y="-614.5" font-family="Helvetica,sans-Serif" font-size="10.00">EBPF::EBPFPipeline</text>
</a>
</g>
</g>
<!-- Node35&#45;&gt;Node36 -->
<g id="edge25_Node000035_Node000036" class="edge">
<title>Node35&#45;&gt;Node36</title>
<g id="a_edge25_Node000035_Node000036"><a xlink:title=" ">
<path fill="none" stroke="#63b8ff" d="M477.95,-618C503.93,-618 533.36,-618 557.99,-618"/>
<polygon fill="#63b8ff" stroke="#63b8ff" points="478.18,-614.5 468.18,-618 478.18,-621.5 478.18,-614.5"/>
</a>
</g>
</g>
<!-- Node45 -->
<g id="Node000045" class="node">
<title>Node45</title>
<g id="a_Node000045"><a xlink:href="class_e_b_p_f_1_1_x_d_p_help_program.html" target="_top" xlink:title=" ">
<polygon fill="white" stroke="#bfbfbf" points="674.38,-590 551.12,-590 551.12,-570 674.38,-570 674.38,-590"/>
<text text-anchor="middle" x="612.75" y="-576.5" font-family="Helvetica,sans-Serif" font-size="10.00">EBPF::XDPHelpProgram</text>
</a>
</g>
</g>
<!-- Node35&#45;&gt;Node45 -->
<g id="edge28_Node000035_Node000045" class="edge">
<title>Node35&#45;&gt;Node45</title>
<g id="a_edge28_Node000035_Node000045"><a xlink:title=" ">
<path fill="none" stroke="#63b8ff" d="M477.76,-605.46C503.3,-600.6 532.2,-595.11 556.61,-590.48"/>
<polygon fill="#63b8ff" stroke="#63b8ff" points="477.32,-601.98 468.15,-607.28 478.63,-608.86 477.32,-601.98"/>
</a>
</g>
</g>
<!-- Node46 -->
<g id="Node000046" class="node">
<title>Node46</title>
<g id="a_Node000046"><a xlink:href="class_u_b_p_f_1_1_u_b_p_f_program.html" target="_top" xlink:title=" ">
<polygon fill="white" stroke="#bfbfbf" points="668.38,-552 557.12,-552 557.12,-532 668.38,-532 668.38,-552"/>
<text text-anchor="middle" x="612.75" y="-538.5" font-family="Helvetica,sans-Serif" font-size="10.00">UBPF::UBPFProgram</text>
</a>
</g>
</g>
<!-- Node35&#45;&gt;Node46 -->
<g id="edge29_Node000035_Node000046" class="edge">
<title>Node35&#45;&gt;Node46</title>
<g id="a_edge29_Node000035_Node000046"><a xlink:title=" ">
<path fill="none" stroke="#63b8ff" d="M477.27,-605.16C481.7,-603.37 485.99,-601.33 490,-599 510.13,-587.33 505.76,-572.46 526,-561 535.42,-555.67 546.21,-551.83 556.89,-549.07"/>
<polygon fill="#63b8ff" stroke="#63b8ff" points="476.44,-601.74 468.2,-608.4 478.79,-608.34 476.44,-601.74"/>
</a>
</g>
</g>
<!-- Node37 -->
<g id="Node000037" class="node">
<title>Node37</title>
<g id="a_Node000037"><a xlink:href="class_e_b_p_f_1_1_e_b_p_f_egress_pipeline.html" target="_top" xlink:title=" ">
<polygon fill="white" stroke="orangered" points="888.75,-647 749,-647 749,-627 888.75,-627 888.75,-647"/>
<text text-anchor="middle" x="818.88" y="-633.5" font-family="Helvetica,sans-Serif" font-size="10.00">EBPF::EBPFEgressPipeline</text>
</a>
</g>
</g>
<!-- Node36&#45;&gt;Node37 -->
<g id="edge26_Node000036_Node000037" class="edge">
<title>Node36&#45;&gt;Node37</title>
<g id="a_edge26_Node000036_Node000037"><a xlink:title=" ">
<path fill="none" stroke="#63b8ff" d="M678.99,-624.07C701.21,-626.14 726.11,-628.46 748.62,-630.55"/>
<polygon fill="#63b8ff" stroke="#63b8ff" points="679.44,-620.6 669.16,-623.16 678.79,-627.57 679.44,-620.6"/>
</a>
</g>
</g>
<!-- Node40 -->
<g id="Node000040" class="node">
<title>Node40</title>
<g id="a_Node000040"><a xlink:href="class_e_b_p_f_1_1_e_b_p_f_ingress_pipeline.html" target="_top" xlink:title=" ">
<polygon fill="white" stroke="orangered" points="889.12,-609 748.62,-609 748.62,-589 889.12,-589 889.12,-609"/>
<text text-anchor="middle" x="818.88" y="-595.5" font-family="Helvetica,sans-Serif" font-size="10.00">EBPF::EBPFIngressPipeline</text>
</a>
</g>
</g>
<!-- Node36&#45;&gt;Node40 -->
<g id="edge27_Node000036_Node000040" class="edge">
<title>Node36&#45;&gt;Node40</title>
<g id="a_edge27_Node000036_Node000040"><a xlink:title=" ">
<path fill="none" stroke="#63b8ff" d="M678.94,-611.93C701.04,-609.87 725.81,-607.57 748.25,-605.48"/>
<polygon fill="#63b8ff" stroke="#63b8ff" points="678.79,-608.43 669.16,-612.84 679.44,-615.4 678.79,-608.43"/>
</a>
</g>
</g>
<!-- Node49 -->
<g id="Node000049" class="node">
<title>Node49</title>
<g id="a_Node000049"><a xlink:href="class_e_b_p_f_1_1_e_b_p_f_counter_table.html" target="_top" xlink:title=" ">
<polygon fill="white" stroke="orangered" points="678.5,-514 547,-514 547,-494 678.5,-494 678.5,-514"/>
<text text-anchor="middle" x="612.75" y="-500.5" font-family="Helvetica,sans-Serif" font-size="10.00">EBPF::EBPFCounterTable</text>
</a>
</g>
</g>
<!-- Node48&#45;&gt;Node49 -->
<g id="edge32_Node000048_Node000049" class="edge">
<title>Node48&#45;&gt;Node49</title>
<g id="a_edge32_Node000048_Node000049"><a xlink:title=" ">
<path fill="none" stroke="#63b8ff" d="M450.7,-461.06C472.65,-468.71 500.66,-478 526,-485 537.02,-488.05 548.95,-490.94 560.3,-493.5"/>
<polygon fill="#63b8ff" stroke="#63b8ff" points="452.16,-457.87 441.57,-457.85 449.84,-464.47 452.16,-457.87"/>
</a>
</g>
</g>
<!-- Node51 -->
<g id="Node000051" class="node">
<title>Node51</title>
<g id="a_Node000051"><a xlink:href="class_e_b_p_f_1_1_e_b_p_f_meter_p_s_a.html" target="_top" xlink:title=" ">
<polygon fill="white" stroke="#bfbfbf" points="672.5,-476 553,-476 553,-456 672.5,-456 672.5,-476"/>
<text text-anchor="middle" x="612.75" y="-462.5" font-family="Helvetica,sans-Serif" font-size="10.00">EBPF::EBPFMeterPSA</text>
</a>
</g>
</g>
<!-- Node48&#45;&gt;Node51 -->
<g id="edge33_Node000048_Node000051" class="edge">
<title>Node48&#45;&gt;Node51</title>
<g id="a_edge33_Node000048_Node000051"><a xlink:title=" ">
<path fill="none" stroke="#63b8ff" d="M482.59,-453.73C505.47,-455.9 530.57,-458.29 552.51,-460.37"/>
<polygon fill="#63b8ff" stroke="#63b8ff" points="483.01,-450.25 472.72,-452.79 482.35,-457.22 483.01,-450.25"/>
</a>
</g>
</g>
<!-- Node52 -->
<g id="Node000052" class="node">
<title>Node52</title>
<g id="a_Node000052"><a xlink:href="class_e_b_p_f_1_1_e_b_p_f_register_p_s_a.html" target="_top" xlink:title=" ">
<polygon fill="white" stroke="#bfbfbf" points="678.12,-438 547.38,-438 547.38,-418 678.12,-418 678.12,-438"/>
<text text-anchor="middle" x="612.75" y="-424.5" font-family="Helvetica,sans-Serif" font-size="10.00">EBPF::EBPFRegisterPSA</text>
</a>
</g>
</g>
<!-- Node48&#45;&gt;Node52 -->
<g id="edge34_Node000048_Node000052" class="edge">
<title>Node48&#45;&gt;Node52</title>
<g id="a_edge34_Node000048_Node000052"><a xlink:title=" ">
<path fill="none" stroke="#63b8ff" d="M482.63,-440.27C503.58,-438.28 526.39,-436.11 546.93,-434.16"/>
<polygon fill="#63b8ff" stroke="#63b8ff" points="482.35,-436.78 472.72,-441.21 483.01,-443.75 482.35,-436.78"/>
</a>
</g>
</g>
<!-- Node53 -->
<g id="Node000053" class="node">
<title>Node53</title>
<g id="a_Node000053"><a xlink:href="class_e_b_p_f_1_1_e_b_p_f_table.html" target="_top" xlink:title=" ">
<polygon fill="white" stroke="orangered" points="661.62,-400 563.88,-400 563.88,-380 661.62,-380 661.62,-400"/>
<text text-anchor="middle" x="612.75" y="-386.5" font-family="Helvetica,sans-Serif" font-size="10.00">EBPF::EBPFTable</text>
</a>
</g>
</g>
<!-- Node48&#45;&gt;Node53 -->
<g id="edge35_Node000048_Node000053" class="edge">
<title>Node48&#45;&gt;Node53</title>
<g id="a_edge35_Node000048_Node000053"><a xlink:title=" ">
<path fill="none" stroke="#63b8ff" d="M450.7,-432.94C472.65,-425.29 500.66,-416 526,-409 538.05,-405.67 551.18,-402.52 563.46,-399.79"/>
<polygon fill="#63b8ff" stroke="#63b8ff" points="449.84,-429.53 441.57,-436.15 452.16,-436.13 449.84,-429.53"/>
</a>
</g>
</g>
<!-- Node59 -->
<g id="Node000059" class="node">
<title>Node59</title>
<g id="a_Node000059"><a xlink:href="class_e_b_p_f_1_1_e_b_p_f_value_set.html" target="_top" xlink:title=" ">
<polygon fill="white" stroke="#bfbfbf" points="669.88,-362 555.62,-362 555.62,-342 669.88,-342 669.88,-362"/>
<text text-anchor="middle" x="612.75" y="-348.5" font-family="Helvetica,sans-Serif" font-size="10.00">EBPF::EBPFValueSet</text>
</a>
</g>
</g>
<!-- Node48&#45;&gt;Node59 -->
<g id="edge36_Node000048_Node000059" class="edge">
<title>Node48&#45;&gt;Node59</title>
<g id="a_edge36_Node000048_Node000059"><a xlink:title=" ">
<path fill="none" stroke="#63b8ff" d="M432.63,-429.63C454.55,-412.26 490.68,-386.04 526,-371 535.26,-367.06 545.44,-363.89 555.46,-361.35"/>
<polygon fill="#63b8ff" stroke="#63b8ff" points="430.64,-426.73 425.06,-435.74 435.04,-432.18 430.64,-426.73"/>
</a>
</g>
</g>
<!-- Node61 -->
<g id="Node000061" class="node">
<title>Node61</title>
<g id="a_Node000061"><a xlink:href="class_e_b_p_f_1_1_e_b_p_f_bool_type.html" target="_top" xlink:title=" ">
<polygon fill="white" stroke="orangered" points="670.25,-324 555.25,-324 555.25,-304 670.25,-304 670.25,-324"/>
<text text-anchor="middle" x="612.75" y="-310.5" font-family="Helvetica,sans-Serif" font-size="10.00">EBPF::EBPFBoolType</text>
</a>
</g>
</g>
<!-- Node60&#45;&gt;Node61 -->
<g id="edge38_Node000060_Node000061" class="edge">
<title>Node60&#45;&gt;Node61</title>
<g id="a_edge38_Node000060_Node000061"><a xlink:title=" ">
<path fill="none" stroke="#63b8ff" d="M439.26,-254.12C461.89,-266.8 495.16,-284.07 526,-295 535.34,-298.31 545.47,-301.16 555.38,-303.58"/>
<polygon fill="#63b8ff" stroke="#63b8ff" points="441.09,-251.14 430.67,-249.24 437.63,-257.23 441.09,-251.14"/>
</a>
</g>
</g>
<!-- Node63 -->
<g id="Node000063" class="node">
<title>Node63</title>
<g id="a_Node000063"><a xlink:href="class_e_b_p_f_1_1_e_b_p_f_enum_type.html" target="_top" xlink:title=" ">
<polygon fill="white" stroke="orangered" points="673.25,-286 552.25,-286 552.25,-266 673.25,-266 673.25,-286"/>
<text text-anchor="middle" x="612.75" y="-272.5" font-family="Helvetica,sans-Serif" font-size="10.00">EBPF::EBPFEnumType</text>
</a>
</g>
</g>
<!-- Node60&#45;&gt;Node63 -->
<g id="edge39_Node000060_Node000063" class="edge">
<title>Node60&#45;&gt;Node63</title>
<g id="a_edge39_Node000060_Node000063"><a xlink:title=" ">
<path fill="none" stroke="#63b8ff" d="M469.9,-249.05C497.29,-254.25 529.79,-260.43 556.77,-265.55"/>
<polygon fill="#63b8ff" stroke="#63b8ff" points="470.86,-245.67 460.38,-247.24 469.55,-252.55 470.86,-245.67"/>
</a>
</g>
</g>
<!-- Node65 -->
<g id="Node000065" class="node">
<title>Node65</title>
<g id="a_Node000065"><a xlink:href="class_e_b_p_f_1_1_e_b_p_f_scalar_type.html" target="_top" xlink:title=" ">
<polygon fill="white" stroke="orangered" points="674.38,-248 551.12,-248 551.12,-228 674.38,-228 674.38,-248"/>
<text text-anchor="middle" x="612.75" y="-234.5" font-family="Helvetica,sans-Serif" font-size="10.00">EBPF::EBPFScalarType</text>
</a>
</g>
</g>
<!-- Node60&#45;&gt;Node65 -->
<g id="edge40_Node000060_Node000065" class="edge">
<title>Node60&#45;&gt;Node65</title>
<g id="a_edge40_Node000060_Node000065"><a xlink:title=" ">
<path fill="none" stroke="#63b8ff" d="M470.21,-238C495.57,-238 525.27,-238 550.89,-238"/>
<polygon fill="#63b8ff" stroke="#63b8ff" points="470.41,-234.5 460.41,-238 470.41,-241.5 470.41,-234.5"/>
</a>
</g>
</g>
<!-- Node67 -->
<g id="Node000067" class="node">
<title>Node67</title>
<g id="a_Node000067"><a xlink:href="class_e_b_p_f_1_1_e_b_p_f_stack_type.html" target="_top" xlink:title=" ">
<polygon fill="white" stroke="#bfbfbf" points="673.25,-210 552.25,-210 552.25,-190 673.25,-190 673.25,-210"/>
<text text-anchor="middle" x="612.75" y="-196.5" font-family="Helvetica,sans-Serif" font-size="10.00">EBPF::EBPFStackType</text>
</a>
</g>
</g>
<!-- Node60&#45;&gt;Node67 -->
<g id="edge41_Node000060_Node000067" class="edge">
<title>Node60&#45;&gt;Node67</title>
<g id="a_edge41_Node000060_Node000067"><a xlink:title=" ">
<path fill="none" stroke="#63b8ff" d="M469.9,-226.95C497.29,-221.75 529.79,-215.57 556.77,-210.45"/>
<polygon fill="#63b8ff" stroke="#63b8ff" points="469.55,-223.45 460.38,-228.76 470.86,-230.33 469.55,-223.45"/>
</a>
</g>
</g>
<!-- Node68 -->
<g id="Node000068" class="node">
<title>Node68</title>
<g id="a_Node000068"><a xlink:href="class_e_b_p_f_1_1_e_b_p_f_struct_type.html" target="_top" xlink:title=" ">
<polygon fill="white" stroke="orangered" points="673.62,-172 551.88,-172 551.88,-152 673.62,-152 673.62,-172"/>
<text text-anchor="middle" x="612.75" y="-158.5" font-family="Helvetica,sans-Serif" font-size="10.00">EBPF::EBPFStructType</text>
</a>
</g>
</g>
<!-- Node60&#45;&gt;Node68 -->
<g id="edge42_Node000060_Node000068" class="edge">
<title>Node60&#45;&gt;Node68</title>
<g id="a_edge42_Node000060_Node000068"><a xlink:title=" ">
<path fill="none" stroke="#63b8ff" d="M469.98,-227.87C476.97,-225.5 483.81,-222.59 490,-219 510.13,-207.33 505.76,-192.46 526,-181 533.83,-176.57 542.6,-173.17 551.47,-170.56"/>
<polygon fill="#63b8ff" stroke="#63b8ff" points="468.99,-224.51 460.4,-230.72 470.98,-231.22 468.99,-224.51"/>
</a>
</g>
</g>
<!-- Node70 -->
<g id="Node000070" class="node">
<title>Node70</title>
<g id="a_Node000070"><a xlink:href="class_e_b_p_f_1_1_e_b_p_f_type_name.html" target="_top" xlink:title=" ">
<polygon fill="white" stroke="#bfbfbf" points="673.25,-134 552.25,-134 552.25,-114 673.25,-114 673.25,-134"/>
<text text-anchor="middle" x="612.75" y="-120.5" font-family="Helvetica,sans-Serif" font-size="10.00">EBPF::EBPFTypeName</text>
</a>
</g>
</g>
<!-- Node60&#45;&gt;Node70 -->
<g id="edge43_Node000060_Node000070" class="edge">
<title>Node60&#45;&gt;Node70</title>
<g id="a_edge43_Node000060_Node000070"><a xlink:title=" ">
<path fill="none" stroke="#63b8ff" d="M469.65,-230.25C477,-227.51 484.03,-223.86 490,-219 518.98,-195.4 496.78,-166.3 526,-143 533.51,-137.01 542.52,-132.82 551.83,-129.9"/>
<polygon fill="#63b8ff" stroke="#63b8ff" points="468.7,-226.88 460.18,-233.18 470.77,-233.56 468.7,-226.88"/>
</a>
</g>
</g>
<!-- Node71 -->
<g id="Node000071" class="node">
<title>Node71</title>
<g id="a_Node000071"><a xlink:href="class_u_b_p_f_1_1_u_b_p_f_list_type.html" target="_top" xlink:title=" ">
<polygon fill="white" stroke="#bfbfbf" points="668.38,-96 557.12,-96 557.12,-76 668.38,-76 668.38,-96"/>
<text text-anchor="middle" x="612.75" y="-82.5" font-family="Helvetica,sans-Serif" font-size="10.00">UBPF::UBPFListType</text>
</a>
</g>
</g>
<!-- Node60&#45;&gt;Node71 -->
<g id="edge44_Node000060_Node000071" class="edge">
<title>Node60&#45;&gt;Node71</title>
<g id="a_edge44_Node000060_Node000071"><a xlink:title=" ">
<path fill="none" stroke="#63b8ff" d="M469.5,-231.28C477.05,-228.41 484.17,-224.45 490,-219 528.82,-182.72 486.82,-140.89 526,-105 534.55,-97.17 545.58,-92.32 556.86,-89.36"/>
<polygon fill="#63b8ff" stroke="#63b8ff" points="468.6,-227.9 460.08,-234.2 470.67,-234.58 468.6,-227.9"/>
</a>
</g>
</g>
<!-- Node74 -->
<g id="Node000074" class="node">
<title>Node74</title>
<g id="a_Node000074"><a xlink:href="class_u_b_p_f_1_1_u_b_p_f_register.html" target="_top" xlink:title=" ">
<polygon fill="white" stroke="#bfbfbf" points="668,-58 557.5,-58 557.5,-38 668,-38 668,-58"/>
<text text-anchor="middle" x="612.75" y="-44.5" font-family="Helvetica,sans-Serif" font-size="10.00">UBPF::UBPFRegister</text>
</a>
</g>
</g>
<!-- Node73&#45;&gt;Node74 -->
<g id="edge47_Node000073_Node000074" class="edge">
<title>Node73&#45;&gt;Node74</title>
<g id="a_edge47_Node000073_Node000074"><a xlink:title=" ">
<path fill="none" stroke="#63b8ff" d="M482.65,-48C507.19,-48 534.29,-48 557.29,-48"/>
<polygon fill="#63b8ff" stroke="#63b8ff" points="482.73,-44.5 472.73,-48 482.73,-51.5 482.73,-44.5"/>
</a>
</g>
</g>
<!-- Node75 -->
<g id="Node000075" class="node">
<title>Node75</title>
<g id="a_Node000075"><a xlink:href="class_u_b_p_f_1_1_u_b_p_f_table.html" target="_top" xlink:title=" ">
<polygon fill="white" stroke="#bfbfbf" points="661.62,-20 563.88,-20 563.88,0 661.62,0 661.62,-20"/>
<text text-anchor="middle" x="612.75" y="-6.5" font-family="Helvetica,sans-Serif" font-size="10.00">UBPF::UBPFTable</text>
</a>
</g>
</g>
<!-- Node73&#45;&gt;Node75 -->
<g id="edge48_Node000073_Node000075" class="edge">
<title>Node73&#45;&gt;Node75</title>
<g id="a_edge48_Node000073_Node000075"><a xlink:title=" ">
<path fill="none" stroke="#63b8ff" d="M478.21,-35.37C506.12,-30.07 537.96,-24.02 563.55,-19.16"/>
<polygon fill="#63b8ff" stroke="#63b8ff" points="477.59,-31.93 468.42,-37.23 478.89,-38.81 477.59,-31.93"/>
</a>
</g>
</g>
</g>
</svg>

<g id="navigator" transform="translate(0 0)" fill="#404254">
  <rect fill="#f2f5e9" fill-opacity="0.5" stroke="#606060" stroke-width=".5" x="0" y="0" width="60" height="60"/>
  <use id="zoomplus" xlink:href="#zoomPlus" x="17" y="9" onmousedown="handleZoom(evt,'in')"/>
  <use id="zoomminus" xlink:href="#zoomMin" x="42" y="9" onmousedown="handleZoom(evt,'out')"/>
  <use id="reset" xlink:href="#resetDef" x="30" y="36" onmousedown="handleReset()"/>
   <use id="arrowup" xlink:href="#arrowUp" x="0" y="0" onmousedown="handlePan(0,-1)"/>
  <use id="arrowright" xlink:href="#arrowRight" x="0" y="0" onmousedown="handlePan(1,0)"/>
  <use id="arrowdown" xlink:href="#arrowDown" x="0" y="0" onmousedown="handlePan(0,1)"/>
  <use id="arrowleft" xlink:href="#arrowLeft" x="0" y="0" onmousedown="handlePan(-1,0)"/>
</g>
<svg viewBox="0 0 15 15" width="100%" height="30px" preserveAspectRatio="xMaxYMin meet">
 <g id="arrow_out" transform="scale(0.3 0.3)">
  <a xlink:href="class_e_b_p_f_1_1_e_b_p_f_object__inherit__graph_org.svg" target="_base">
   <rect id="button" ry="5" rx="5" y="6" x="6" height="38" width="38"
        fill="#f2f5e9" fill-opacity="0.5" stroke="#606060" stroke-width="1.0"/>
   <path id="arrow"
     d="M 11.500037,31.436501 C 11.940474,20.09759 22.043105,11.32322 32.158766,21.979434 L 37.068811,17.246167 C 37.068811,17.246167 37.088388,32 37.088388,32 L 22.160133,31.978069 C 22.160133,31.978069 26.997745,27.140456 26.997745,27.140456 C 18.528582,18.264221 13.291696,25.230495 11.500037,31.436501 z"
     style="fill:#404040;"/>
  </a>
 </g>
</svg>

<style type='text/css'>
<![CDATA[
[data-mouse-over-selected='false'] { opacity: 0.7; }
[data-mouse-over-selected='true']  { opacity: 1.0; }
]]>
</style>
<script type="application/ecmascript"><![CDATA[
document.addEventListener('DOMContentLoaded', (event) => {
  highlightEdges();
  highlightAdjacentNodes();
});
]]></script>
</svg>
