<?xml version="1.0" encoding="UTF-8" standalone="no"?>
<!DOCTYPE svg PUBLIC "-//W3C//DTD SVG 1.1//EN"
 "http://www.w3.org/Graphics/SVG/1.1/DTD/svg11.dtd">
<!-- Generated by graphviz version 10.0.1 (20240210.2158)
 -->
<!-- Title: P4::SymbolicStruct Pages: 1 -->
<svg width="262pt" height="308pt"
 viewBox="0.00 0.00 261.62 308.00" xmlns="http://www.w3.org/2000/svg" xmlns:xlink="http://www.w3.org/1999/xlink">
<g id="graph0" class="graph" transform="scale(1 1) rotate(0) translate(4 304)">
<title>P4::SymbolicStruct</title>
<!-- Node1 -->
<g id="Node000001" class="node">
<title>Node1</title>
<g id="a_Node000001"><a xlink:title=" ">
<polygon fill="#999999" stroke="#666666" points="171,-132 70.25,-132 70.25,-112 171,-112 171,-132"/>
<text text-anchor="middle" x="120.62" y="-118.5" font-family="Helvetica,sans-Serif" font-size="10.00">P4::SymbolicStruct</text>
</a>
</g>
</g>
<!-- Node6 -->
<g id="Node000006" class="node">
<title>Node6</title>
<g id="a_Node000006"><a xlink:href="class_p4_1_1_symbolic_header.html" target="_top" xlink:title=" ">
<polygon fill="white" stroke="#bfbfbf" points="105.25,-76 0,-76 0,-56 105.25,-56 105.25,-76"/>
<text text-anchor="middle" x="52.62" y="-62.5" font-family="Helvetica,sans-Serif" font-size="10.00">P4::SymbolicHeader</text>
</a>
</g>
</g>
<!-- Node1&#45;&gt;Node6 -->
<g id="edge5_Node000001_Node000006" class="edge">
<title>Node1&#45;&gt;Node6</title>
<g id="a_edge5_Node000001_Node000006"><a xlink:title=" ">
<path fill="none" stroke="#63b8ff" d="M100.07,-104.68C88.37,-95.39 74.14,-84.09 64.33,-76.3"/>
<polygon fill="#63b8ff" stroke="#63b8ff" points="97.59,-107.17 107.6,-110.65 101.94,-101.69 97.59,-107.17"/>
</a>
</g>
</g>
<!-- Node8 -->
<g id="Node000008" class="node">
<title>Node8</title>
<g id="a_Node000008"><a xlink:href="class_p4_1_1_symbolic_header_union.html" target="_top" xlink:title=" ">
<polygon fill="white" stroke="#bfbfbf" points="253.62,-76 123.62,-76 123.62,-56 253.62,-56 253.62,-76"/>
<text text-anchor="middle" x="188.62" y="-62.5" font-family="Helvetica,sans-Serif" font-size="10.00">P4::SymbolicHeaderUnion</text>
</a>
</g>
</g>
<!-- Node1&#45;&gt;Node8 -->
<g id="edge7_Node000001_Node000008" class="edge">
<title>Node1&#45;&gt;Node8</title>
<g id="a_edge7_Node000001_Node000008"><a xlink:title=" ">
<path fill="none" stroke="#63b8ff" d="M141.18,-104.68C152.88,-95.39 167.11,-84.09 176.92,-76.3"/>
<polygon fill="#63b8ff" stroke="#63b8ff" points="139.31,-101.69 133.65,-110.65 143.66,-107.17 139.31,-101.69"/>
</a>
</g>
</g>
<!-- Node2 -->
<g id="Node000002" class="node">
<title>Node2</title>
<g id="a_Node000002"><a xlink:href="class_p4_1_1_symbolic_value.html" target="_top" xlink:title=" ">
<polygon fill="white" stroke="#bfbfbf" points="170.25,-188 71,-188 71,-168 170.25,-168 170.25,-188"/>
<text text-anchor="middle" x="120.62" y="-174.5" font-family="Helvetica,sans-Serif" font-size="10.00">P4::SymbolicValue</text>
</a>
</g>
</g>
<!-- Node2&#45;&gt;Node1 -->
<g id="edge1_Node000001_Node000002" class="edge">
<title>Node2&#45;&gt;Node1</title>
<g id="a_edge1_Node000001_Node000002"><a xlink:title=" ">
<path fill="none" stroke="#63b8ff" d="M120.62,-156.13C120.62,-147.9 120.62,-138.85 120.62,-132.3"/>
<polygon fill="#63b8ff" stroke="#63b8ff" points="117.13,-156.08 120.63,-166.08 124.13,-156.08 117.13,-156.08"/>
</a>
</g>
</g>
<!-- Node3 -->
<g id="Node000003" class="node">
<title>Node3</title>
<g id="a_Node000003"><a xlink:href="class_i_has_db_print.html" target="_top" xlink:title=" ">
<polygon fill="white" stroke="#bfbfbf" points="114.5,-244 46.75,-244 46.75,-224 114.5,-224 114.5,-244"/>
<text text-anchor="middle" x="80.62" y="-230.5" font-family="Helvetica,sans-Serif" font-size="10.00">IHasDbPrint</text>
</a>
</g>
</g>
<!-- Node3&#45;&gt;Node2 -->
<g id="edge2_Node000002_Node000003" class="edge">
<title>Node3&#45;&gt;Node2</title>
<g id="a_edge2_Node000002_Node000003"><a xlink:title=" ">
<path fill="none" stroke="#63b8ff" d="M94.38,-214.44C100.91,-205.62 108.43,-195.47 113.74,-188.3"/>
<polygon fill="#63b8ff" stroke="#63b8ff" points="91.63,-212.26 88.49,-222.38 97.26,-216.43 91.63,-212.26"/>
</a>
</g>
</g>
<!-- Node4 -->
<g id="Node000004" class="node">
<title>Node4</title>
<g id="a_Node000004"><a xlink:href="class_i_castable.html" target="_top" xlink:title=" ">
<polygon fill="white" stroke="#666666" points="188.88,-244 132.38,-244 132.38,-224 188.88,-224 188.88,-244"/>
<text text-anchor="middle" x="160.62" y="-230.5" font-family="Helvetica,sans-Serif" font-size="10.00">ICastable</text>
</a>
</g>
</g>
<!-- Node4&#45;&gt;Node2 -->
<g id="edge3_Node000002_Node000004" class="edge">
<title>Node4&#45;&gt;Node2</title>
<g id="a_edge3_Node000002_Node000004"><a xlink:title=" ">
<path fill="none" stroke="#63b8ff" d="M146.87,-214.44C140.34,-205.62 132.82,-195.47 127.51,-188.3"/>
<polygon fill="#63b8ff" stroke="#63b8ff" points="143.99,-216.43 152.76,-222.38 149.62,-212.26 143.99,-216.43"/>
</a>
</g>
</g>
<!-- Node5 -->
<g id="Node000005" class="node">
<title>Node5</title>
<g id="a_Node000005"><a xlink:href="struct_r_t_t_i_1_1_base.html" target="_top" xlink:title=" ">
<polygon fill="white" stroke="#bfbfbf" points="192.62,-300 128.62,-300 128.62,-280 192.62,-280 192.62,-300"/>
<text text-anchor="middle" x="160.62" y="-286.5" font-family="Helvetica,sans-Serif" font-size="10.00">RTTI::Base</text>
</a>
</g>
</g>
<!-- Node5&#45;&gt;Node4 -->
<g id="edge4_Node000004_Node000005" class="edge">
<title>Node5&#45;&gt;Node4</title>
<g id="a_edge4_Node000004_Node000005"><a xlink:title=" ">
<path fill="none" stroke="#63b8ff" d="M160.62,-268.13C160.62,-259.9 160.62,-250.85 160.62,-244.3"/>
<polygon fill="#63b8ff" stroke="#63b8ff" points="157.13,-268.08 160.63,-278.08 164.13,-268.08 157.13,-268.08"/>
</a>
</g>
</g>
<!-- Node7 -->
<g id="Node000007" class="node">
<title>Node7</title>
<g id="a_Node000007"><a xlink:href="class_p4_1_1_any_element.html" target="_top" xlink:title=" ">
<polygon fill="white" stroke="#bfbfbf" points="96.25,-20 9,-20 9,0 96.25,0 96.25,-20"/>
<text text-anchor="middle" x="52.62" y="-6.5" font-family="Helvetica,sans-Serif" font-size="10.00">P4::AnyElement</text>
</a>
</g>
</g>
<!-- Node6&#45;&gt;Node7 -->
<g id="edge6_Node000006_Node000007" class="edge">
<title>Node6&#45;&gt;Node7</title>
<g id="a_edge6_Node000006_Node000007"><a xlink:title=" ">
<path fill="none" stroke="#63b8ff" d="M52.62,-44.13C52.62,-35.9 52.62,-26.85 52.62,-20.3"/>
<polygon fill="#63b8ff" stroke="#63b8ff" points="49.13,-44.08 52.63,-54.08 56.13,-44.08 49.13,-44.08"/>
</a>
</g>
</g>
</g>
</svg>
