<?xml version="1.0" encoding="UTF-8" standalone="no"?>
<!DOCTYPE svg PUBLIC "-//W3C//DTD SVG 1.1//EN"
 "http://www.w3.org/Graphics/SVG/1.1/DTD/svg11.dtd">
<!-- Generated by graphviz version 10.0.1 (20240210.2158)
 -->
<!-- Title: P4::ReplaceHeaders Pages: 1 -->
<svg width="170pt" height="140pt"
 viewBox="0.00 0.00 169.88 140.00" xmlns="http://www.w3.org/2000/svg" xmlns:xlink="http://www.w3.org/1999/xlink">
<g id="graph0" class="graph" transform="scale(1 1) rotate(0) translate(4 136)">
<title>P4::ReplaceHeaders</title>
<!-- Node1 -->
<g id="Node000001" class="node">
<title>Node1</title>
<g id="a_Node000001"><a xlink:title=" ">
<polygon fill="#999999" stroke="#666666" points="127,-20 21.75,-20 21.75,0 127,0 127,-20"/>
<text text-anchor="middle" x="74.38" y="-6.5" font-family="Helvetica,sans-Serif" font-size="10.00">P4::ReplaceHeaders</text>
</a>
</g>
</g>
<!-- Node2 -->
<g id="Node000002" class="node">
<title>Node2</title>
<g id="a_Node000002"><a xlink:href="class_transform.html" target="_top" xlink:title=" ">
<polygon fill="white" stroke="#bfbfbf" points="58.75,-76 0,-76 0,-56 58.75,-56 58.75,-76"/>
<text text-anchor="middle" x="29.38" y="-62.5" font-family="Helvetica,sans-Serif" font-size="10.00">Transform</text>
</a>
</g>
</g>
<!-- Node2&#45;&gt;Node1 -->
<g id="edge1_Node000001_Node000002" class="edge">
<title>Node2&#45;&gt;Node1</title>
<g id="a_edge1_Node000001_Node000002"><a xlink:title=" ">
<path fill="none" stroke="#63b8ff" d="M44.37,-47C51.83,-38.06 60.52,-27.62 66.63,-20.3"/>
<polygon fill="#63b8ff" stroke="#63b8ff" points="41.9,-44.51 38.18,-54.43 47.27,-48.99 41.9,-44.51"/>
</a>
</g>
</g>
<!-- Node3 -->
<g id="Node000003" class="node">
<title>Node3</title>
<g id="a_Node000003"><a xlink:href="class_visitor.html" target="_top" xlink:title=" ">
<polygon fill="white" stroke="#bfbfbf" points="96.25,-132 52.5,-132 52.5,-112 96.25,-112 96.25,-132"/>
<text text-anchor="middle" x="74.38" y="-118.5" font-family="Helvetica,sans-Serif" font-size="10.00">Visitor</text>
</a>
</g>
</g>
<!-- Node3&#45;&gt;Node2 -->
<g id="edge2_Node000002_Node000003" class="edge">
<title>Node3&#45;&gt;Node2</title>
<g id="a_edge2_Node000002_Node000003"><a xlink:title=" ">
<path fill="none" stroke="#63b8ff" d="M59.38,-103C51.92,-94.06 43.23,-83.62 37.12,-76.3"/>
<polygon fill="#63b8ff" stroke="#63b8ff" points="56.48,-104.99 65.57,-110.43 61.85,-100.51 56.48,-104.99"/>
</a>
</g>
</g>
<!-- Node4 -->
<g id="Node000004" class="node">
<title>Node4</title>
<g id="a_Node000004"><a xlink:href="class_p4_write_context.html" target="_top" xlink:title=" ">
<polygon fill="white" stroke="#bfbfbf" points="161.88,-76 76.88,-76 76.88,-56 161.88,-56 161.88,-76"/>
<text text-anchor="middle" x="119.38" y="-62.5" font-family="Helvetica,sans-Serif" font-size="10.00">P4WriteContext</text>
</a>
</g>
</g>
<!-- Node3&#45;&gt;Node4 -->
<g id="edge4_Node000004_Node000003" class="edge">
<title>Node3&#45;&gt;Node4</title>
<g id="a_edge4_Node000004_Node000003"><a xlink:title=" ">
<path fill="none" stroke="#63b8ff" d="M89.37,-103C96.83,-94.06 105.52,-83.62 111.63,-76.3"/>
<polygon fill="#63b8ff" stroke="#63b8ff" points="86.9,-100.51 83.18,-110.43 92.27,-104.99 86.9,-100.51"/>
</a>
</g>
</g>
<!-- Node4&#45;&gt;Node1 -->
<g id="edge3_Node000001_Node000004" class="edge">
<title>Node4&#45;&gt;Node1</title>
<g id="a_edge3_Node000001_Node000004"><a xlink:title=" ">
<path fill="none" stroke="#8b1a1a" d="M104.38,-47C96.92,-38.06 88.23,-27.62 82.12,-20.3"/>
<polygon fill="#8b1a1a" stroke="#8b1a1a" points="101.48,-48.99 110.57,-54.43 106.85,-44.51 101.48,-48.99"/>
</a>
</g>
</g>
</g>
</svg>
