<?xml version="1.0" encoding="UTF-8" standalone="no"?>
<!DOCTYPE svg PUBLIC "-//W3C//DTD SVG 1.1//EN"
 "http://www.w3.org/Graphics/SVG/1.1/DTD/svg11.dtd">
<!-- Generated by graphviz version 10.0.1 (20240210.2158)
 -->
<!-- Title: P4::RemoveLeftSlices Pages: 1 -->
<svg width="123pt" height="196pt"
 viewBox="0.00 0.00 122.75 196.00" xmlns="http://www.w3.org/2000/svg" xmlns:xlink="http://www.w3.org/1999/xlink">
<g id="graph0" class="graph" transform="scale(1 1) rotate(0) translate(4 192)">
<title>P4::RemoveLeftSlices</title>
<!-- Node1 -->
<g id="Node000001" class="node">
<title>Node1</title>
<g id="a_Node000001"><a xlink:title=" ">
<polygon fill="#999999" stroke="#666666" points="111.25,-20 0,-20 0,0 111.25,0 111.25,-20"/>
<text text-anchor="middle" x="55.62" y="-6.5" font-family="Helvetica,sans-Serif" font-size="10.00">P4::RemoveLeftSlices</text>
</a>
</g>
</g>
<!-- Node2 -->
<g id="Node000002" class="node">
<title>Node2</title>
<g id="a_Node000002"><a xlink:href="class_pass_manager.html" target="_top" xlink:title=" ">
<polygon fill="white" stroke="#bfbfbf" points="93.62,-76 17.62,-76 17.62,-56 93.62,-56 93.62,-76"/>
<text text-anchor="middle" x="55.62" y="-62.5" font-family="Helvetica,sans-Serif" font-size="10.00">PassManager</text>
</a>
</g>
</g>
<!-- Node2&#45;&gt;Node1 -->
<g id="edge1_Node000001_Node000002" class="edge">
<title>Node2&#45;&gt;Node1</title>
<g id="a_edge1_Node000001_Node000002"><a xlink:title=" ">
<path fill="none" stroke="#63b8ff" d="M55.62,-44.13C55.62,-35.9 55.62,-26.85 55.62,-20.3"/>
<polygon fill="#63b8ff" stroke="#63b8ff" points="52.13,-44.08 55.63,-54.08 59.13,-44.08 52.13,-44.08"/>
</a>
</g>
</g>
<!-- Node3 -->
<g id="Node000003" class="node">
<title>Node3</title>
<g id="a_Node000003"><a xlink:href="class_visitor.html" target="_top" xlink:title=" ">
<polygon fill="white" stroke="#bfbfbf" points="77.5,-188 33.75,-188 33.75,-168 77.5,-168 77.5,-188"/>
<text text-anchor="middle" x="55.62" y="-174.5" font-family="Helvetica,sans-Serif" font-size="10.00">Visitor</text>
</a>
</g>
</g>
<!-- Node3&#45;&gt;Node2 -->
<g id="edge2_Node000002_Node000003" class="edge">
<title>Node3&#45;&gt;Node2</title>
<g id="a_edge2_Node000002_Node000003"><a xlink:title=" ">
<path fill="none" stroke="#63b8ff" d="M50.11,-156.65C48.3,-148.98 46.52,-140.15 45.62,-132 43.43,-112.03 48.98,-88.79 52.66,-76.22"/>
<polygon fill="#63b8ff" stroke="#63b8ff" points="46.72,-157.5 52.58,-166.32 53.5,-155.77 46.72,-157.5"/>
</a>
</g>
</g>
<!-- Node4 -->
<g id="Node000004" class="node">
<title>Node4</title>
<g id="a_Node000004"><a xlink:href="class_backtrack.html" target="_top" xlink:title=" ">
<polygon fill="white" stroke="#bfbfbf" points="114.75,-132 54.5,-132 54.5,-112 114.75,-112 114.75,-132"/>
<text text-anchor="middle" x="84.62" y="-118.5" font-family="Helvetica,sans-Serif" font-size="10.00">Backtrack</text>
</a>
</g>
</g>
<!-- Node3&#45;&gt;Node4 -->
<g id="edge4_Node000004_Node000003" class="edge">
<title>Node3&#45;&gt;Node4</title>
<g id="a_edge4_Node000004_Node000003"><a xlink:title=" ">
<path fill="none" stroke="#63b8ff" d="M66.05,-157.58C70.68,-148.97 75.9,-139.24 79.63,-132.3"/>
<polygon fill="#63b8ff" stroke="#63b8ff" points="63.04,-155.79 61.39,-166.26 69.21,-159.11 63.04,-155.79"/>
</a>
</g>
</g>
<!-- Node4&#45;&gt;Node2 -->
<g id="edge3_Node000002_Node000004" class="edge">
<title>Node4&#45;&gt;Node2</title>
<g id="a_edge3_Node000002_Node000004"><a xlink:title=" ">
<path fill="none" stroke="#63b8ff" d="M74.2,-101.58C69.57,-92.97 64.35,-83.24 60.62,-76.3"/>
<polygon fill="#63b8ff" stroke="#63b8ff" points="71.04,-103.11 78.86,-110.26 77.21,-99.79 71.04,-103.11"/>
</a>
</g>
</g>
</g>
</svg>
