<?xml version="1.0" encoding="UTF-8" standalone="no"?>
<!DOCTYPE svg PUBLIC "-//W3C//DTD SVG 1.1//EN"
 "http://www.w3.org/Graphics/SVG/1.1/DTD/svg11.dtd">
<!-- Generated by graphviz version 10.0.1 (20240210.2158)
 -->
<!-- Title: P4::RemoveComplexExpressionsPolicy Pages: 1 -->
<svg width="268pt" height="96pt"
 viewBox="0.00 0.00 268.00 96.00" xmlns="http://www.w3.org/2000/svg" xmlns:xlink="http://www.w3.org/1999/xlink">
<g id="graph0" class="graph" transform="scale(1 1) rotate(0) translate(4 92)">
<title>P4::RemoveComplexExpressionsPolicy</title>
<!-- Node1 -->
<g id="Node000001" class="node">
<title>Node1</title>
<g id="a_Node000001"><a xlink:title=" ">
<polygon fill="#999999" stroke="#666666" points="209.88,-88 49.12,-88 49.12,-56 209.88,-56 209.88,-88"/>
<text text-anchor="start" x="57.12" y="-74.5" font-family="Helvetica,sans-Serif" font-size="10.00">P4::RemoveComplexExpressions</text>
<text text-anchor="middle" x="129.5" y="-62.5" font-family="Helvetica,sans-Serif" font-size="10.00">Policy</text>
</a>
</g>
</g>
<!-- Node2 -->
<g id="Node000002" class="node">
<title>Node2</title>
<g id="a_Node000002"><a xlink:href="class_b_m_v2_1_1_process_controls.html" target="_top" xlink:title=" ">
<polygon fill="white" stroke="#666666" points="121,-20 0,-20 0,0 121,0 121,-20"/>
<text text-anchor="middle" x="60.5" y="-6.5" font-family="Helvetica,sans-Serif" font-size="10.00">BMV2::ProcessControls</text>
</a>
</g>
</g>
<!-- Node1&#45;&gt;Node2 -->
<g id="edge1_Node000001_Node000002" class="edge">
<title>Node1&#45;&gt;Node2</title>
<g id="a_edge1_Node000001_Node000002"><a xlink:title=" ">
<path fill="none" stroke="#63b8ff" d="M103.2,-48.13C92.13,-38.5 79.85,-27.83 71.32,-20.41"/>
<polygon fill="#63b8ff" stroke="#63b8ff" points="100.75,-50.63 110.59,-54.56 105.34,-45.35 100.75,-50.63"/>
</a>
</g>
</g>
<!-- Node3 -->
<g id="Node000003" class="node">
<title>Node3</title>
<g id="a_Node000003"><a xlink:href="class_d_p_d_k_1_1_process_controls.html" target="_top" xlink:title=" ">
<polygon fill="white" stroke="#666666" points="260,-20 139,-20 139,0 260,0 260,-20"/>
<text text-anchor="middle" x="199.5" y="-6.5" font-family="Helvetica,sans-Serif" font-size="10.00">DPDK::ProcessControls</text>
</a>
</g>
</g>
<!-- Node1&#45;&gt;Node3 -->
<g id="edge2_Node000001_Node000003" class="edge">
<title>Node1&#45;&gt;Node3</title>
<g id="a_edge2_Node000001_Node000003"><a xlink:title=" ">
<path fill="none" stroke="#63b8ff" d="M156.18,-48.13C167.42,-38.5 179.87,-27.83 188.52,-20.41"/>
<polygon fill="#63b8ff" stroke="#63b8ff" points="153.99,-45.4 148.68,-54.56 158.55,-50.71 153.99,-45.4"/>
</a>
</g>
</g>
</g>
</svg>
