<?xml version="1.0" encoding="UTF-8" standalone="no"?>
<!DOCTYPE svg PUBLIC "-//W3C//DTD SVG 1.1//EN"
 "http://www.w3.org/Graphics/SVG/1.1/DTD/svg11.dtd">
<!-- Generated by graphviz version 10.0.1 (20240210.2158)
 -->
<!-- Title: P4::EnumInstance Pages: 1 -->
<svg width="264pt" height="252pt"
 viewBox="0.00 0.00 263.75 252.00" xmlns="http://www.w3.org/2000/svg" xmlns:xlink="http://www.w3.org/1999/xlink">

<svg id="main" version="1.1" xmlns="http://www.w3.org/2000/svg" xmlns:xlink="http://www.w3.org/1999/xlink" xml:space="preserve" onload="init(evt)">
<style type="text/css"><![CDATA[
.node, .edge {opacity: 0.7;}
.node.selected, .edge.selected {opacity: 1;}
.edge:hover path { stroke: red; }
.edge:hover polygon { stroke: red; fill: red; }
]]></style>
<script type="application/ecmascript" xlink:href="svg.min.js"/>
<svg id="graph" class="graph">
<g id="graph0" class="graph" transform="scale(1 1) rotate(0) translate(4 248)">
<title>P4::EnumInstance</title>
<!-- Node1 -->
<g id="Node000001" class="node">
<title>Node1</title>
<g id="a_Node000001"><a xlink:title=" ">
<polygon fill="#999999" stroke="#666666" points="171.75,-76 75.5,-76 75.5,-56 171.75,-56 171.75,-76"/>
<text text-anchor="middle" x="123.62" y="-62.5" font-family="Helvetica,sans-Serif" font-size="10.00">P4::EnumInstance</text>
</a>
</g>
</g>
<!-- Node5 -->
<g id="Node000005" class="node">
<title>Node5</title>
<g id="a_Node000005"><a xlink:href="class_p4_1_1_ser_enum_instance.html" target="_top" xlink:title=" ">
<polygon fill="white" stroke="#666666" points="111.25,-20 0,-20 0,0 111.25,0 111.25,-20"/>
<text text-anchor="middle" x="55.62" y="-6.5" font-family="Helvetica,sans-Serif" font-size="10.00">P4::SerEnumInstance</text>
</a>
</g>
</g>
<!-- Node1&#45;&gt;Node5 -->
<g id="edge4_Node000001_Node000005" class="edge">
<title>Node1&#45;&gt;Node5</title>
<g id="a_edge4_Node000001_Node000005"><a xlink:title=" ">
<path fill="none" stroke="#63b8ff" d="M103.07,-48.68C91.37,-39.39 77.14,-28.09 67.33,-20.3"/>
<polygon fill="#63b8ff" stroke="#63b8ff" points="100.59,-51.17 110.6,-54.65 104.94,-45.69 100.59,-51.17"/>
</a>
</g>
</g>
<!-- Node6 -->
<g id="Node000006" class="node">
<title>Node6</title>
<g id="a_Node000006"><a xlink:href="class_p4_1_1_simple_enum_instance.html" target="_top" xlink:title="An instance of a simple enum, e.g., X.A from enum X { A, B }.">
<polygon fill="white" stroke="#666666" points="255.75,-20 129.5,-20 129.5,0 255.75,0 255.75,-20"/>
<text text-anchor="middle" x="192.62" y="-6.5" font-family="Helvetica,sans-Serif" font-size="10.00">P4::SimpleEnumInstance</text>
</a>
</g>
</g>
<!-- Node1&#45;&gt;Node6 -->
<g id="edge5_Node000001_Node000006" class="edge">
<title>Node1&#45;&gt;Node6</title>
<g id="a_edge5_Node000001_Node000006"><a xlink:title=" ">
<path fill="none" stroke="#63b8ff" d="M144.48,-48.68C156.35,-39.39 170.79,-28.09 180.74,-20.3"/>
<polygon fill="#63b8ff" stroke="#63b8ff" points="142.55,-45.74 136.84,-54.66 146.87,-51.25 142.55,-45.74"/>
</a>
</g>
</g>
<!-- Node2 -->
<g id="Node000002" class="node">
<title>Node2</title>
<g id="a_Node000002"><a xlink:href="class_p4_1_1_instance_base.html" target="_top" xlink:title=" ">
<polygon fill="white" stroke="#bfbfbf" points="170.25,-132 77,-132 77,-112 170.25,-112 170.25,-132"/>
<text text-anchor="middle" x="123.62" y="-118.5" font-family="Helvetica,sans-Serif" font-size="10.00">P4::InstanceBase</text>
</a>
</g>
</g>
<!-- Node2&#45;&gt;Node1 -->
<g id="edge1_Node000001_Node000002" class="edge">
<title>Node2&#45;&gt;Node1</title>
<g id="a_edge1_Node000001_Node000002"><a xlink:title=" ">
<path fill="none" stroke="#63b8ff" d="M123.62,-100.13C123.62,-91.9 123.62,-82.85 123.62,-76.3"/>
<polygon fill="#63b8ff" stroke="#63b8ff" points="120.13,-100.08 123.63,-110.08 127.13,-100.08 120.13,-100.08"/>
</a>
</g>
</g>
<!-- Node3 -->
<g id="Node000003" class="node">
<title>Node3</title>
<g id="a_Node000003"><a xlink:href="class_i_castable.html" target="_top" xlink:title=" ">
<polygon fill="white" stroke="#666666" points="151.88,-188 95.38,-188 95.38,-168 151.88,-168 151.88,-188"/>
<text text-anchor="middle" x="123.62" y="-174.5" font-family="Helvetica,sans-Serif" font-size="10.00">ICastable</text>
</a>
</g>
</g>
<!-- Node3&#45;&gt;Node2 -->
<g id="edge2_Node000002_Node000003" class="edge">
<title>Node3&#45;&gt;Node2</title>
<g id="a_edge2_Node000002_Node000003"><a xlink:title=" ">
<path fill="none" stroke="#63b8ff" d="M123.62,-156.13C123.62,-147.9 123.62,-138.85 123.62,-132.3"/>
<polygon fill="#63b8ff" stroke="#63b8ff" points="120.13,-156.08 123.63,-166.08 127.13,-156.08 120.13,-156.08"/>
</a>
</g>
</g>
<!-- Node4 -->
<g id="Node000004" class="node">
<title>Node4</title>
<g id="a_Node000004"><a xlink:href="struct_r_t_t_i_1_1_base.html" target="_top" xlink:title=" ">
<polygon fill="white" stroke="#bfbfbf" points="155.62,-244 91.62,-244 91.62,-224 155.62,-224 155.62,-244"/>
<text text-anchor="middle" x="123.62" y="-230.5" font-family="Helvetica,sans-Serif" font-size="10.00">RTTI::Base</text>
</a>
</g>
</g>
<!-- Node4&#45;&gt;Node3 -->
<g id="edge3_Node000003_Node000004" class="edge">
<title>Node4&#45;&gt;Node3</title>
<g id="a_edge3_Node000003_Node000004"><a xlink:title=" ">
<path fill="none" stroke="#63b8ff" d="M123.62,-212.13C123.62,-203.9 123.62,-194.85 123.62,-188.3"/>
<polygon fill="#63b8ff" stroke="#63b8ff" points="120.13,-212.08 123.63,-222.08 127.13,-212.08 120.13,-212.08"/>
</a>
</g>
</g>
</g>
</svg>
</svg>

<style type='text/css'>
<![CDATA[
[data-mouse-over-selected='false'] { opacity: 0.7; }
[data-mouse-over-selected='true']  { opacity: 1.0; }
]]>
</style>
<script type="application/ecmascript"><![CDATA[
document.addEventListener('DOMContentLoaded', (event) => {
  highlightEdges();
  highlightAdjacentNodes();
});
]]></script>
</svg>
