<?xml version="1.0" encoding="UTF-8" standalone="no"?>
<!DOCTYPE svg PUBLIC "-//W3C//DTD SVG 1.1//EN"
 "http://www.w3.org/Graphics/SVG/1.1/DTD/svg11.dtd">
<!-- Generated by graphviz version 10.0.1 (20240210.2158)
 -->
<!-- Title: P4::StorageLocation Pages: 1 -->
<svg width="359pt" height="252pt"
 viewBox="0.00 0.00 359.25 252.00" xmlns="http://www.w3.org/2000/svg" xmlns:xlink="http://www.w3.org/1999/xlink">
<g id="graph0" class="graph" transform="scale(1 1) rotate(0) translate(4 248)">
<title>P4::StorageLocation</title>
<!-- Node1 -->
<g id="Node000001" class="node">
<title>Node1</title>
<g id="a_Node000001"><a xlink:title="Abstraction for something that is has a left value (variable, parameter)">
<polygon fill="#999999" stroke="#666666" points="215.88,-132 111.38,-132 111.38,-112 215.88,-112 215.88,-132"/>
<text text-anchor="middle" x="163.62" y="-118.5" font-family="Helvetica,sans-Serif" font-size="10.00">P4::StorageLocation</text>
</a>
</g>
</g>
<!-- Node5 -->
<g id="Node000005" class="node">
<title>Node5</title>
<g id="a_Node000005"><a xlink:href="class_p4_1_1_base_location.html" target="_top" xlink:title=" ">
<polygon fill="white" stroke="#666666" points="93.25,-76 0,-76 0,-56 93.25,-56 93.25,-76"/>
<text text-anchor="middle" x="46.62" y="-62.5" font-family="Helvetica,sans-Serif" font-size="10.00">P4::BaseLocation</text>
</a>
</g>
</g>
<!-- Node1&#45;&gt;Node5 -->
<g id="edge4_Node000001_Node000005" class="edge">
<title>Node1&#45;&gt;Node5</title>
<g id="a_edge4_Node000001_Node000005"><a xlink:title=" ">
<path fill="none" stroke="#63b8ff" d="M133.03,-106.88C112.27,-97.3 85.39,-84.89 67.16,-76.48"/>
<polygon fill="#63b8ff" stroke="#63b8ff" points="131.32,-109.95 141.87,-110.96 134.26,-103.59 131.32,-109.95"/>
</a>
</g>
</g>
<!-- Node6 -->
<g id="Node000006" class="node">
<title>Node6</title>
<g id="a_Node000006"><a xlink:href="class_p4_1_1_indexed_location.html" target="_top" xlink:title="Interface for locations that support an index operation.">
<polygon fill="white" stroke="#666666" points="215.88,-76 111.38,-76 111.38,-56 215.88,-56 215.88,-76"/>
<text text-anchor="middle" x="163.62" y="-62.5" font-family="Helvetica,sans-Serif" font-size="10.00">P4::IndexedLocation</text>
</a>
</g>
</g>
<!-- Node1&#45;&gt;Node6 -->
<g id="edge5_Node000001_Node000006" class="edge">
<title>Node1&#45;&gt;Node6</title>
<g id="a_edge5_Node000001_Node000006"><a xlink:title=" ">
<path fill="none" stroke="#63b8ff" d="M163.62,-100.13C163.62,-91.9 163.62,-82.85 163.62,-76.3"/>
<polygon fill="#63b8ff" stroke="#63b8ff" points="160.13,-100.08 163.63,-110.08 167.13,-100.08 160.13,-100.08"/>
</a>
</g>
</g>
<!-- Node9 -->
<g id="Node000009" class="node">
<title>Node9</title>
<g id="a_Node000009"><a xlink:href="class_p4_1_1_with_fields_location.html" target="_top" xlink:title="Base class for location sets that contain fields.">
<polygon fill="white" stroke="#666666" points="351.25,-76 234,-76 234,-56 351.25,-56 351.25,-76"/>
<text text-anchor="middle" x="292.62" y="-62.5" font-family="Helvetica,sans-Serif" font-size="10.00">P4::WithFieldsLocation</text>
</a>
</g>
</g>
<!-- Node1&#45;&gt;Node9 -->
<g id="edge8_Node000001_Node000009" class="edge">
<title>Node1&#45;&gt;Node9</title>
<g id="a_edge8_Node000001_Node000009"><a xlink:title=" ">
<path fill="none" stroke="#63b8ff" d="M196.42,-107.27C219.43,-97.64 249.61,-85.01 269.98,-76.48"/>
<polygon fill="#63b8ff" stroke="#63b8ff" points="195.36,-103.92 187.49,-111.01 198.07,-110.38 195.36,-103.92"/>
</a>
</g>
</g>
<!-- Node2 -->
<g id="Node000002" class="node">
<title>Node2</title>
<g id="a_Node000002"><a xlink:href="class_i_has_db_print.html" target="_top" xlink:title=" ">
<polygon fill="white" stroke="#bfbfbf" points="157.5,-188 89.75,-188 89.75,-168 157.5,-168 157.5,-188"/>
<text text-anchor="middle" x="123.62" y="-174.5" font-family="Helvetica,sans-Serif" font-size="10.00">IHasDbPrint</text>
</a>
</g>
</g>
<!-- Node2&#45;&gt;Node1 -->
<g id="edge1_Node000001_Node000002" class="edge">
<title>Node2&#45;&gt;Node1</title>
<g id="a_edge1_Node000001_Node000002"><a xlink:title=" ">
<path fill="none" stroke="#63b8ff" d="M137.38,-158.44C143.91,-149.62 151.43,-139.47 156.74,-132.3"/>
<polygon fill="#63b8ff" stroke="#63b8ff" points="134.63,-156.26 131.49,-166.38 140.26,-160.43 134.63,-156.26"/>
</a>
</g>
</g>
<!-- Node3 -->
<g id="Node000003" class="node">
<title>Node3</title>
<g id="a_Node000003"><a xlink:href="class_i_castable.html" target="_top" xlink:title=" ">
<polygon fill="white" stroke="#666666" points="231.88,-188 175.38,-188 175.38,-168 231.88,-168 231.88,-188"/>
<text text-anchor="middle" x="203.62" y="-174.5" font-family="Helvetica,sans-Serif" font-size="10.00">ICastable</text>
</a>
</g>
</g>
<!-- Node3&#45;&gt;Node1 -->
<g id="edge2_Node000001_Node000003" class="edge">
<title>Node3&#45;&gt;Node1</title>
<g id="a_edge2_Node000001_Node000003"><a xlink:title=" ">
<path fill="none" stroke="#63b8ff" d="M189.87,-158.44C183.34,-149.62 175.82,-139.47 170.51,-132.3"/>
<polygon fill="#63b8ff" stroke="#63b8ff" points="186.99,-160.43 195.76,-166.38 192.62,-156.26 186.99,-160.43"/>
</a>
</g>
</g>
<!-- Node4 -->
<g id="Node000004" class="node">
<title>Node4</title>
<g id="a_Node000004"><a xlink:href="struct_r_t_t_i_1_1_base.html" target="_top" xlink:title=" ">
<polygon fill="white" stroke="#bfbfbf" points="235.62,-244 171.62,-244 171.62,-224 235.62,-224 235.62,-244"/>
<text text-anchor="middle" x="203.62" y="-230.5" font-family="Helvetica,sans-Serif" font-size="10.00">RTTI::Base</text>
</a>
</g>
</g>
<!-- Node4&#45;&gt;Node3 -->
<g id="edge3_Node000003_Node000004" class="edge">
<title>Node4&#45;&gt;Node3</title>
<g id="a_edge3_Node000003_Node000004"><a xlink:title=" ">
<path fill="none" stroke="#63b8ff" d="M203.62,-212.13C203.62,-203.9 203.62,-194.85 203.62,-188.3"/>
<polygon fill="#63b8ff" stroke="#63b8ff" points="200.13,-212.08 203.63,-222.08 207.13,-212.08 200.13,-212.08"/>
</a>
</g>
</g>
<!-- Node7 -->
<g id="Node000007" class="node">
<title>Node7</title>
<g id="a_Node000007"><a xlink:href="class_p4_1_1_array_location.html" target="_top" xlink:title=" ">
<polygon fill="white" stroke="#bfbfbf" points="105.62,-20 11.62,-20 11.62,0 105.62,0 105.62,-20"/>
<text text-anchor="middle" x="58.62" y="-6.5" font-family="Helvetica,sans-Serif" font-size="10.00">P4::ArrayLocation</text>
</a>
</g>
</g>
<!-- Node6&#45;&gt;Node7 -->
<g id="edge6_Node000006_Node000007" class="edge">
<title>Node6&#45;&gt;Node7</title>
<g id="a_edge6_Node000006_Node000007"><a xlink:title=" ">
<path fill="none" stroke="#63b8ff" d="M135.13,-50.35C116.65,-40.84 93.11,-28.74 77.06,-20.48"/>
<polygon fill="#63b8ff" stroke="#63b8ff" points="133.5,-53.44 143.99,-54.9 136.7,-47.22 133.5,-53.44"/>
</a>
</g>
</g>
<!-- Node8 -->
<g id="Node000008" class="node">
<title>Node8</title>
<g id="a_Node000008"><a xlink:href="class_p4_1_1_tuple_location.html" target="_top" xlink:title=" ">
<polygon fill="white" stroke="#666666" points="217.62,-20 123.62,-20 123.62,0 217.62,0 217.62,-20"/>
<text text-anchor="middle" x="170.62" y="-6.5" font-family="Helvetica,sans-Serif" font-size="10.00">P4::TupleLocation</text>
</a>
</g>
</g>
<!-- Node6&#45;&gt;Node8 -->
<g id="edge7_Node000006_Node000008" class="edge">
<title>Node6&#45;&gt;Node8</title>
<g id="a_edge7_Node000006_Node000008"><a xlink:title=" ">
<path fill="none" stroke="#63b8ff" d="M166.29,-44.43C167.37,-36.11 168.56,-26.93 169.42,-20.3"/>
<polygon fill="#63b8ff" stroke="#63b8ff" points="162.85,-43.73 165.04,-54.09 169.8,-44.63 162.85,-43.73"/>
</a>
</g>
</g>
<!-- Node10 -->
<g id="Node000010" class="node">
<title>Node10</title>
<g id="a_Node000010"><a xlink:href="class_p4_1_1_struct_location.html" target="_top" xlink:title=" ">
<polygon fill="white" stroke="#666666" points="341.12,-20 244.12,-20 244.12,0 341.12,0 341.12,-20"/>
<text text-anchor="middle" x="292.62" y="-6.5" font-family="Helvetica,sans-Serif" font-size="10.00">P4::StructLocation</text>
</a>
</g>
</g>
<!-- Node9&#45;&gt;Node10 -->
<g id="edge9_Node000009_Node000010" class="edge">
<title>Node9&#45;&gt;Node10</title>
<g id="a_edge9_Node000009_Node000010"><a xlink:title=" ">
<path fill="none" stroke="#63b8ff" d="M292.62,-44.13C292.62,-35.9 292.62,-26.85 292.62,-20.3"/>
<polygon fill="#63b8ff" stroke="#63b8ff" points="289.13,-44.08 292.63,-54.08 296.13,-44.08 289.13,-44.08"/>
</a>
</g>
</g>
</g>
</svg>
