<?xml version="1.0" encoding="UTF-8" standalone="no"?>
<!DOCTYPE svg PUBLIC "-//W3C//DTD SVG 1.1//EN"
 "http://www.w3.org/Graphics/SVG/1.1/DTD/svg11.dtd">
<!-- Generated by graphviz version 10.0.1 (20240210.2158)
 -->
<!-- Title: P4::SimplifyParsers Pages: 1 -->
<svg width="118pt" height="196pt"
 viewBox="0.00 0.00 118.25 196.00" xmlns="http://www.w3.org/2000/svg" xmlns:xlink="http://www.w3.org/1999/xlink">
<g id="graph0" class="graph" transform="scale(1 1) rotate(0) translate(4 192)">
<title>P4::SimplifyParsers</title>
<!-- Node1 -->
<g id="Node000001" class="node">
<title>Node1</title>
<g id="a_Node000001"><a xlink:title=" ">
<polygon fill="#999999" stroke="#666666" points="102.25,-20 0,-20 0,0 102.25,0 102.25,-20"/>
<text text-anchor="middle" x="51.12" y="-6.5" font-family="Helvetica,sans-Serif" font-size="10.00">P4::SimplifyParsers</text>
</a>
</g>
</g>
<!-- Node2 -->
<g id="Node000002" class="node">
<title>Node2</title>
<g id="a_Node000002"><a xlink:href="class_pass_manager.html" target="_top" xlink:title=" ">
<polygon fill="white" stroke="#bfbfbf" points="89.12,-76 13.12,-76 13.12,-56 89.12,-56 89.12,-76"/>
<text text-anchor="middle" x="51.12" y="-62.5" font-family="Helvetica,sans-Serif" font-size="10.00">PassManager</text>
</a>
</g>
</g>
<!-- Node2&#45;&gt;Node1 -->
<g id="edge1_Node000001_Node000002" class="edge">
<title>Node2&#45;&gt;Node1</title>
<g id="a_edge1_Node000001_Node000002"><a xlink:title=" ">
<path fill="none" stroke="#63b8ff" d="M51.12,-44.13C51.12,-35.9 51.12,-26.85 51.12,-20.3"/>
<polygon fill="#63b8ff" stroke="#63b8ff" points="47.63,-44.08 51.13,-54.08 54.63,-44.08 47.63,-44.08"/>
</a>
</g>
</g>
<!-- Node3 -->
<g id="Node000003" class="node">
<title>Node3</title>
<g id="a_Node000003"><a xlink:href="class_visitor.html" target="_top" xlink:title=" ">
<polygon fill="white" stroke="#bfbfbf" points="73,-188 29.25,-188 29.25,-168 73,-168 73,-188"/>
<text text-anchor="middle" x="51.12" y="-174.5" font-family="Helvetica,sans-Serif" font-size="10.00">Visitor</text>
</a>
</g>
</g>
<!-- Node3&#45;&gt;Node2 -->
<g id="edge2_Node000002_Node000003" class="edge">
<title>Node3&#45;&gt;Node2</title>
<g id="a_edge2_Node000002_Node000003"><a xlink:title=" ">
<path fill="none" stroke="#63b8ff" d="M45.61,-156.65C43.8,-148.98 42.02,-140.15 41.12,-132 38.93,-112.03 44.48,-88.79 48.16,-76.22"/>
<polygon fill="#63b8ff" stroke="#63b8ff" points="42.22,-157.5 48.08,-166.32 49,-155.77 42.22,-157.5"/>
</a>
</g>
</g>
<!-- Node4 -->
<g id="Node000004" class="node">
<title>Node4</title>
<g id="a_Node000004"><a xlink:href="class_backtrack.html" target="_top" xlink:title=" ">
<polygon fill="white" stroke="#bfbfbf" points="110.25,-132 50,-132 50,-112 110.25,-112 110.25,-132"/>
<text text-anchor="middle" x="80.12" y="-118.5" font-family="Helvetica,sans-Serif" font-size="10.00">Backtrack</text>
</a>
</g>
</g>
<!-- Node3&#45;&gt;Node4 -->
<g id="edge4_Node000004_Node000003" class="edge">
<title>Node3&#45;&gt;Node4</title>
<g id="a_edge4_Node000004_Node000003"><a xlink:title=" ">
<path fill="none" stroke="#63b8ff" d="M61.55,-157.58C66.18,-148.97 71.4,-139.24 75.13,-132.3"/>
<polygon fill="#63b8ff" stroke="#63b8ff" points="58.54,-155.79 56.89,-166.26 64.71,-159.11 58.54,-155.79"/>
</a>
</g>
</g>
<!-- Node4&#45;&gt;Node2 -->
<g id="edge3_Node000002_Node000004" class="edge">
<title>Node4&#45;&gt;Node2</title>
<g id="a_edge3_Node000002_Node000004"><a xlink:title=" ">
<path fill="none" stroke="#63b8ff" d="M69.7,-101.58C65.07,-92.97 59.85,-83.24 56.12,-76.3"/>
<polygon fill="#63b8ff" stroke="#63b8ff" points="66.54,-103.11 74.36,-110.26 72.71,-99.79 66.54,-103.11"/>
</a>
</g>
</g>
</g>
</svg>
