<?xml version="1.0" encoding="UTF-8" standalone="no"?>
<!DOCTYPE svg PUBLIC "-//W3C//DTD SVG 1.1//EN"
 "http://www.w3.org/Graphics/SVG/1.1/DTD/svg11.dtd">
<!-- Generated by graphviz version 10.0.1 (20240210.2158)
 -->
<!-- Title: EBPF::EBPFTableBase Pages: 1 -->
<svg width="1206pt" height="180pt"
 viewBox="0.00 0.00 1206.25 180.00" xmlns="http://www.w3.org/2000/svg" xmlns:xlink="http://www.w3.org/1999/xlink">
<g id="graph0" class="graph" transform="scale(1 1) rotate(0) translate(4 176)">
<title>EBPF::EBPFTableBase</title>
<!-- Node1 -->
<g id="Node000001" class="node">
<title>Node1</title>
<g id="a_Node000001"><a xlink:title=" ">
<polygon fill="#999999" stroke="#666666" points="451.75,-96 331.5,-96 331.5,-76 451.75,-76 451.75,-96"/>
<text text-anchor="middle" x="391.62" y="-82.5" font-family="Helvetica,sans-Serif" font-size="10.00">EBPF::EBPFTableBase</text>
</a>
</g>
</g>
<!-- Node5 -->
<g id="Node000005" class="node">
<title>Node5</title>
<g id="a_Node000005"><a xlink:href="class_e_b_p_f_1_1_e_b_p_f_counter_table.html" target="_top" xlink:title=" ">
<polygon fill="white" stroke="#bfbfbf" points="619.25,-172 487.75,-172 487.75,-152 619.25,-152 619.25,-172"/>
<text text-anchor="middle" x="553.5" y="-158.5" font-family="Helvetica,sans-Serif" font-size="10.00">EBPF::EBPFCounterTable</text>
</a>
</g>
</g>
<!-- Node1&#45;&gt;Node5 -->
<g id="edge4_Node000001_Node000005" class="edge">
<title>Node1&#45;&gt;Node5</title>
<g id="a_edge4_Node000001_Node000005"><a xlink:title=" ">
<path fill="none" stroke="#63b8ff" d="M416.62,-102.73C435.32,-115.17 462.3,-131.86 487.75,-143 495.16,-146.24 503.27,-149.12 511.18,-151.59"/>
<polygon fill="#63b8ff" stroke="#63b8ff" points="418.64,-99.87 408.4,-97.16 414.72,-105.67 418.64,-99.87"/>
</a>
</g>
</g>
<!-- Node7 -->
<g id="Node000007" class="node">
<title>Node7</title>
<g id="a_Node000007"><a xlink:href="class_e_b_p_f_1_1_e_b_p_f_meter_p_s_a.html" target="_top" xlink:title=" ">
<polygon fill="white" stroke="#bfbfbf" points="613.25,-134 493.75,-134 493.75,-114 613.25,-114 613.25,-134"/>
<text text-anchor="middle" x="553.5" y="-120.5" font-family="Helvetica,sans-Serif" font-size="10.00">EBPF::EBPFMeterPSA</text>
</a>
</g>
</g>
<!-- Node1&#45;&gt;Node7 -->
<g id="edge6_Node000001_Node000007" class="edge">
<title>Node1&#45;&gt;Node7</title>
<g id="a_edge6_Node000001_Node000007"><a xlink:title=" ">
<path fill="none" stroke="#63b8ff" d="M447.81,-99.12C467.66,-103.83 489.77,-109.09 508.53,-113.55"/>
<polygon fill="#63b8ff" stroke="#63b8ff" points="448.75,-95.74 438.21,-96.83 447.13,-102.55 448.75,-95.74"/>
</a>
</g>
</g>
<!-- Node8 -->
<g id="Node000008" class="node">
<title>Node8</title>
<g id="a_Node000008"><a xlink:href="class_e_b_p_f_1_1_e_b_p_f_register_p_s_a.html" target="_top" xlink:title=" ">
<polygon fill="white" stroke="#bfbfbf" points="618.88,-96 488.12,-96 488.12,-76 618.88,-76 618.88,-96"/>
<text text-anchor="middle" x="553.5" y="-82.5" font-family="Helvetica,sans-Serif" font-size="10.00">EBPF::EBPFRegisterPSA</text>
</a>
</g>
</g>
<!-- Node1&#45;&gt;Node8 -->
<g id="edge7_Node000001_Node000008" class="edge">
<title>Node1&#45;&gt;Node8</title>
<g id="a_edge7_Node000001_Node000008"><a xlink:title=" ">
<path fill="none" stroke="#63b8ff" d="M463.49,-86C471.59,-86 479.81,-86 487.82,-86"/>
<polygon fill="#63b8ff" stroke="#63b8ff" points="463.67,-82.5 453.67,-86 463.67,-89.5 463.67,-82.5"/>
</a>
</g>
</g>
<!-- Node9 -->
<g id="Node000009" class="node">
<title>Node9</title>
<g id="a_Node000009"><a xlink:href="class_e_b_p_f_1_1_e_b_p_f_table.html" target="_top" xlink:title=" ">
<polygon fill="white" stroke="#bfbfbf" points="602.38,-58 504.62,-58 504.62,-38 602.38,-38 602.38,-58"/>
<text text-anchor="middle" x="553.5" y="-44.5" font-family="Helvetica,sans-Serif" font-size="10.00">EBPF::EBPFTable</text>
</a>
</g>
</g>
<!-- Node1&#45;&gt;Node9 -->
<g id="edge8_Node000001_Node000009" class="edge">
<title>Node1&#45;&gt;Node9</title>
<g id="a_edge8_Node000001_Node000009"><a xlink:title=" ">
<path fill="none" stroke="#63b8ff" d="M447.81,-72.88C467.66,-68.17 489.77,-62.91 508.53,-58.45"/>
<polygon fill="#63b8ff" stroke="#63b8ff" points="447.13,-69.45 438.21,-75.17 448.75,-76.26 447.13,-69.45"/>
</a>
</g>
</g>
<!-- Node15 -->
<g id="Node000015" class="node">
<title>Node15</title>
<g id="a_Node000015"><a xlink:href="class_e_b_p_f_1_1_e_b_p_f_value_set.html" target="_top" xlink:title=" ">
<polygon fill="white" stroke="#bfbfbf" points="610.62,-20 496.38,-20 496.38,0 610.62,0 610.62,-20"/>
<text text-anchor="middle" x="553.5" y="-6.5" font-family="Helvetica,sans-Serif" font-size="10.00">EBPF::EBPFValueSet</text>
</a>
</g>
</g>
<!-- Node1&#45;&gt;Node15 -->
<g id="edge14_Node000001_Node000015" class="edge">
<title>Node1&#45;&gt;Node15</title>
<g id="a_edge14_Node000001_Node000015"><a xlink:title=" ">
<path fill="none" stroke="#63b8ff" d="M416.62,-69.27C435.32,-56.83 462.3,-40.14 487.75,-29 495.16,-25.76 503.27,-22.88 511.18,-20.41"/>
<polygon fill="#63b8ff" stroke="#63b8ff" points="414.72,-66.33 408.4,-74.84 418.64,-72.13 414.72,-66.33"/>
</a>
</g>
</g>
<!-- Node2 -->
<g id="Node000002" class="node">
<title>Node2</title>
<g id="a_Node000002"><a xlink:href="class_e_b_p_f_1_1_e_b_p_f_object.html" target="_top" xlink:title=" ">
<polygon fill="white" stroke="#bfbfbf" points="295.5,-96 192.5,-96 192.5,-76 295.5,-76 295.5,-96"/>
<text text-anchor="middle" x="244" y="-82.5" font-family="Helvetica,sans-Serif" font-size="10.00">EBPF::EBPFObject</text>
</a>
</g>
</g>
<!-- Node2&#45;&gt;Node1 -->
<g id="edge1_Node000001_Node000002" class="edge">
<title>Node2&#45;&gt;Node1</title>
<g id="a_edge1_Node000001_Node000002"><a xlink:title=" ">
<path fill="none" stroke="#63b8ff" d="M307.37,-86C315.28,-86 323.37,-86 331.23,-86"/>
<polygon fill="#63b8ff" stroke="#63b8ff" points="307.45,-82.5 297.45,-86 307.45,-89.5 307.45,-82.5"/>
</a>
</g>
</g>
<!-- Node3 -->
<g id="Node000003" class="node">
<title>Node3</title>
<g id="a_Node000003"><a xlink:href="class_i_castable.html" target="_top" xlink:title=" ">
<polygon fill="white" stroke="#666666" points="156.5,-96 100,-96 100,-76 156.5,-76 156.5,-96"/>
<text text-anchor="middle" x="128.25" y="-82.5" font-family="Helvetica,sans-Serif" font-size="10.00">ICastable</text>
</a>
</g>
</g>
<!-- Node3&#45;&gt;Node2 -->
<g id="edge2_Node000002_Node000003" class="edge">
<title>Node3&#45;&gt;Node2</title>
<g id="a_edge2_Node000002_Node000003"><a xlink:title=" ">
<path fill="none" stroke="#63b8ff" d="M168.07,-86C175.82,-86 184.07,-86 192.15,-86"/>
<polygon fill="#63b8ff" stroke="#63b8ff" points="168.3,-82.5 158.3,-86 168.3,-89.5 168.3,-82.5"/>
</a>
</g>
</g>
<!-- Node4 -->
<g id="Node000004" class="node">
<title>Node4</title>
<g id="a_Node000004"><a xlink:href="struct_r_t_t_i_1_1_base.html" target="_top" xlink:title=" ">
<polygon fill="white" stroke="#bfbfbf" points="64,-96 0,-96 0,-76 64,-76 64,-96"/>
<text text-anchor="middle" x="32" y="-82.5" font-family="Helvetica,sans-Serif" font-size="10.00">RTTI::Base</text>
</a>
</g>
</g>
<!-- Node4&#45;&gt;Node3 -->
<g id="edge3_Node000003_Node000004" class="edge">
<title>Node4&#45;&gt;Node3</title>
<g id="a_edge3_Node000003_Node000004"><a xlink:title=" ">
<path fill="none" stroke="#63b8ff" d="M75.72,-86C83.9,-86 92.26,-86 99.8,-86"/>
<polygon fill="#63b8ff" stroke="#63b8ff" points="75.9,-82.5 65.9,-86 75.9,-89.5 75.9,-82.5"/>
</a>
</g>
</g>
<!-- Node6 -->
<g id="Node000006" class="node">
<title>Node6</title>
<g id="a_Node000006"><a xlink:href="class_e_b_p_f_1_1_e_b_p_f_counter_p_s_a.html" target="_top" xlink:title=" ">
<polygon fill="white" stroke="#bfbfbf" points="783.75,-172 655.25,-172 655.25,-152 783.75,-152 783.75,-172"/>
<text text-anchor="middle" x="719.5" y="-158.5" font-family="Helvetica,sans-Serif" font-size="10.00">EBPF::EBPFCounterPSA</text>
</a>
</g>
</g>
<!-- Node5&#45;&gt;Node6 -->
<g id="edge5_Node000005_Node000006" class="edge">
<title>Node5&#45;&gt;Node6</title>
<g id="a_edge5_Node000005_Node000006"><a xlink:title=" ">
<path fill="none" stroke="#63b8ff" d="M630.71,-162C638.82,-162 647.01,-162 654.96,-162"/>
<polygon fill="#63b8ff" stroke="#63b8ff" points="630.83,-158.5 620.83,-162 630.83,-165.5 630.83,-158.5"/>
</a>
</g>
</g>
<!-- Node10 -->
<g id="Node000010" class="node">
<title>Node10</title>
<g id="a_Node000010"><a xlink:href="class_e_b_p_f_1_1_e_b_p_f_table_p_s_a.html" target="_top" xlink:title=" ">
<polygon fill="white" stroke="#bfbfbf" points="778.5,-58 660.5,-58 660.5,-38 778.5,-38 778.5,-58"/>
<text text-anchor="middle" x="719.5" y="-44.5" font-family="Helvetica,sans-Serif" font-size="10.00">EBPF::EBPFTablePSA</text>
</a>
</g>
</g>
<!-- Node9&#45;&gt;Node10 -->
<g id="edge9_Node000009_Node000010" class="edge">
<title>Node9&#45;&gt;Node10</title>
<g id="a_edge9_Node000009_Node000010"><a xlink:title=" ">
<path fill="none" stroke="#63b8ff" d="M614.04,-48C629.05,-48 645.14,-48 660.09,-48"/>
<polygon fill="#63b8ff" stroke="#63b8ff" points="614.33,-44.5 604.33,-48 614.33,-51.5 614.33,-44.5"/>
</a>
</g>
</g>
<!-- Node11 -->
<g id="Node000011" class="node">
<title>Node11</title>
<g id="a_Node000011"><a xlink:href="class_e_b_p_f_1_1_e_b_p_f_table_implementation_p_s_a.html" target="_top" xlink:title=" ">
<polygon fill="white" stroke="#bfbfbf" points="1003.75,-77 819.75,-77 819.75,-57 1003.75,-57 1003.75,-77"/>
<text text-anchor="middle" x="911.75" y="-63.5" font-family="Helvetica,sans-Serif" font-size="10.00">EBPF::EBPFTableImplementationPSA</text>
</a>
</g>
</g>
<!-- Node10&#45;&gt;Node11 -->
<g id="edge10_Node000010_Node000011" class="edge">
<title>Node10&#45;&gt;Node11</title>
<g id="a_edge10_Node000010_Node000011"><a xlink:title=" ">
<path fill="none" stroke="#63b8ff" d="M790.29,-54.97C799.82,-55.92 809.72,-56.91 819.56,-57.89"/>
<polygon fill="#63b8ff" stroke="#63b8ff" points="790.68,-51.49 780.38,-53.98 789.98,-58.46 790.68,-51.49"/>
</a>
</g>
</g>
<!-- Node14 -->
<g id="Node000014" class="node">
<title>Node14</title>
<g id="a_Node000014"><a xlink:href="class_t_c_1_1_e_b_p_f_table_p_n_a.html" target="_top" xlink:title=" ">
<polygon fill="white" stroke="#bfbfbf" points="963.62,-39 859.88,-39 859.88,-19 963.62,-19 963.62,-39"/>
<text text-anchor="middle" x="911.75" y="-25.5" font-family="Helvetica,sans-Serif" font-size="10.00">TC::EBPFTablePNA</text>
</a>
</g>
</g>
<!-- Node10&#45;&gt;Node14 -->
<g id="edge13_Node000010_Node000014" class="edge">
<title>Node10&#45;&gt;Node14</title>
<g id="a_edge13_Node000010_Node000014"><a xlink:title=" ">
<path fill="none" stroke="#63b8ff" d="M790.29,-41.03C813.23,-38.74 838.28,-36.24 859.57,-34.11"/>
<polygon fill="#63b8ff" stroke="#63b8ff" points="789.98,-37.54 780.38,-42.02 790.68,-44.51 789.98,-37.54"/>
</a>
</g>
</g>
<!-- Node12 -->
<g id="Node000012" class="node">
<title>Node12</title>
<g id="a_Node000012"><a xlink:href="class_e_b_p_f_1_1_e_b_p_f_action_profile_p_s_a.html" target="_top" xlink:title=" ">
<polygon fill="white" stroke="#bfbfbf" points="1193.75,-96 1044.25,-96 1044.25,-76 1193.75,-76 1193.75,-96"/>
<text text-anchor="middle" x="1119" y="-82.5" font-family="Helvetica,sans-Serif" font-size="10.00">EBPF::EBPFActionProfilePSA</text>
</a>
</g>
</g>
<!-- Node11&#45;&gt;Node12 -->
<g id="edge11_Node000011_Node000012" class="edge">
<title>Node11&#45;&gt;Node12</title>
<g id="a_edge11_Node000011_Node000012"><a xlink:title=" ">
<path fill="none" stroke="#63b8ff" d="M1015.3,-76.49C1024.98,-77.39 1034.65,-78.28 1043.98,-79.15"/>
<polygon fill="#63b8ff" stroke="#63b8ff" points="1015.76,-73.02 1005.48,-75.58 1015.11,-79.99 1015.76,-73.02"/>
</a>
</g>
</g>
<!-- Node13 -->
<g id="Node000013" class="node">
<title>Node13</title>
<g id="a_Node000013"><a xlink:href="class_e_b_p_f_1_1_e_b_p_f_action_selector_p_s_a.html" target="_top" xlink:title=" ">
<polygon fill="white" stroke="#bfbfbf" points="1198.25,-58 1039.75,-58 1039.75,-38 1198.25,-38 1198.25,-58"/>
<text text-anchor="middle" x="1119" y="-44.5" font-family="Helvetica,sans-Serif" font-size="10.00">EBPF::EBPFActionSelectorPSA</text>
</a>
</g>
</g>
<!-- Node11&#45;&gt;Node13 -->
<g id="edge12_Node000011_Node000013" class="edge">
<title>Node11&#45;&gt;Node13</title>
<g id="a_edge12_Node000011_Node000013"><a xlink:title=" ">
<path fill="none" stroke="#63b8ff" d="M1015.33,-57.5C1023.38,-56.76 1031.43,-56.01 1039.28,-55.29"/>
<polygon fill="#63b8ff" stroke="#63b8ff" points="1015.11,-54.01 1005.48,-58.42 1015.76,-60.98 1015.11,-54.01"/>
</a>
</g>
</g>
</g>
</svg>
