<?xml version="1.0" encoding="UTF-8" standalone="no"?>
<!DOCTYPE svg PUBLIC "-//W3C//DTD SVG 1.1//EN"
 "http://www.w3.org/Graphics/SVG/1.1/DTD/svg11.dtd">
<!-- Generated by graphviz version 10.0.1 (20240210.2158)
 -->
<!-- Title: BMV2::BMV2Options Pages: 1 -->
<svg width="298pt" height="252pt"
 viewBox="0.00 0.00 297.62 252.00" xmlns="http://www.w3.org/2000/svg" xmlns:xlink="http://www.w3.org/1999/xlink">
<g id="graph0" class="graph" transform="scale(1 1) rotate(0) translate(4 248)">
<title>BMV2::BMV2Options</title>
<!-- Node1 -->
<g id="Node000001" class="node">
<title>Node1</title>
<g id="a_Node000001"><a xlink:title=" ">
<polygon fill="#999999" stroke="#666666" points="196.5,-76 86.75,-76 86.75,-56 196.5,-56 196.5,-76"/>
<text text-anchor="middle" x="141.62" y="-62.5" font-family="Helvetica,sans-Serif" font-size="10.00">BMV2::BMV2Options</text>
</a>
</g>
</g>
<!-- Node5 -->
<g id="Node000005" class="node">
<title>Node5</title>
<g id="a_Node000005"><a xlink:href="class_b_m_v2_1_1_psa_switch_options.html" target="_top" xlink:title=" ">
<polygon fill="white" stroke="#bfbfbf" points="129.25,-20 0,-20 0,0 129.25,0 129.25,-20"/>
<text text-anchor="middle" x="64.62" y="-6.5" font-family="Helvetica,sans-Serif" font-size="10.00">BMV2::PsaSwitchOptions</text>
</a>
</g>
</g>
<!-- Node1&#45;&gt;Node5 -->
<g id="edge4_Node000001_Node000005" class="edge">
<title>Node1&#45;&gt;Node5</title>
<g id="a_edge4_Node000001_Node000005"><a xlink:title=" ">
<path fill="none" stroke="#63b8ff" d="M118.81,-49C105.58,-39.72 89.37,-28.35 78.14,-20.48"/>
<polygon fill="#63b8ff" stroke="#63b8ff" points="116.78,-51.85 126.97,-54.72 120.8,-46.12 116.78,-51.85"/>
</a>
</g>
</g>
<!-- Node6 -->
<g id="Node000006" class="node">
<title>Node6</title>
<g id="a_Node000006"><a xlink:href="class_b_m_v2_1_1_simple_switch_options.html" target="_top" xlink:title=" ">
<polygon fill="white" stroke="#bfbfbf" points="289.62,-20 147.62,-20 147.62,0 289.62,0 289.62,-20"/>
<text text-anchor="middle" x="218.62" y="-6.5" font-family="Helvetica,sans-Serif" font-size="10.00">BMV2::SimpleSwitchOptions</text>
</a>
</g>
</g>
<!-- Node1&#45;&gt;Node6 -->
<g id="edge5_Node000001_Node000006" class="edge">
<title>Node1&#45;&gt;Node6</title>
<g id="a_edge5_Node000001_Node000006"><a xlink:title=" ">
<path fill="none" stroke="#63b8ff" d="M164.44,-49C177.67,-39.72 193.88,-28.35 205.11,-20.48"/>
<polygon fill="#63b8ff" stroke="#63b8ff" points="162.45,-46.12 156.28,-54.72 166.47,-51.85 162.45,-46.12"/>
</a>
</g>
</g>
<!-- Node2 -->
<g id="Node000002" class="node">
<title>Node2</title>
<g id="a_Node000002"><a xlink:href="class_compiler_options.html" target="_top" xlink:title=" ">
<polygon fill="white" stroke="#bfbfbf" points="185.62,-132 97.62,-132 97.62,-112 185.62,-112 185.62,-132"/>
<text text-anchor="middle" x="141.62" y="-118.5" font-family="Helvetica,sans-Serif" font-size="10.00">CompilerOptions</text>
</a>
</g>
</g>
<!-- Node2&#45;&gt;Node1 -->
<g id="edge1_Node000001_Node000002" class="edge">
<title>Node2&#45;&gt;Node1</title>
<g id="a_edge1_Node000001_Node000002"><a xlink:title=" ">
<path fill="none" stroke="#63b8ff" d="M141.62,-100.13C141.62,-91.9 141.62,-82.85 141.62,-76.3"/>
<polygon fill="#63b8ff" stroke="#63b8ff" points="138.13,-100.08 141.63,-110.08 145.13,-100.08 138.13,-100.08"/>
</a>
</g>
</g>
<!-- Node3 -->
<g id="Node000003" class="node">
<title>Node3</title>
<g id="a_Node000003"><a xlink:href="class_parser_options.html" target="_top" xlink:title=" ">
<polygon fill="white" stroke="#bfbfbf" points="180.75,-188 102.5,-188 102.5,-168 180.75,-168 180.75,-188"/>
<text text-anchor="middle" x="141.62" y="-174.5" font-family="Helvetica,sans-Serif" font-size="10.00">ParserOptions</text>
</a>
</g>
</g>
<!-- Node3&#45;&gt;Node2 -->
<g id="edge2_Node000002_Node000003" class="edge">
<title>Node3&#45;&gt;Node2</title>
<g id="a_edge2_Node000002_Node000003"><a xlink:title=" ">
<path fill="none" stroke="#63b8ff" d="M141.62,-156.13C141.62,-147.9 141.62,-138.85 141.62,-132.3"/>
<polygon fill="#63b8ff" stroke="#63b8ff" points="138.13,-156.08 141.63,-166.08 145.13,-156.08 138.13,-156.08"/>
</a>
</g>
</g>
<!-- Node4 -->
<g id="Node000004" class="node">
<title>Node4</title>
<g id="a_Node000004"><a xlink:href="class_util_1_1_options.html" target="_top" xlink:title=" ">
<polygon fill="white" stroke="#bfbfbf" points="176.62,-244 106.62,-244 106.62,-224 176.62,-224 176.62,-244"/>
<text text-anchor="middle" x="141.62" y="-230.5" font-family="Helvetica,sans-Serif" font-size="10.00">Util::Options</text>
</a>
</g>
</g>
<!-- Node4&#45;&gt;Node3 -->
<g id="edge3_Node000003_Node000004" class="edge">
<title>Node4&#45;&gt;Node3</title>
<g id="a_edge3_Node000003_Node000004"><a xlink:title=" ">
<path fill="none" stroke="#63b8ff" d="M141.62,-212.13C141.62,-203.9 141.62,-194.85 141.62,-188.3"/>
<polygon fill="#63b8ff" stroke="#63b8ff" points="138.13,-212.08 141.63,-222.08 145.13,-212.08 138.13,-212.08"/>
</a>
</g>
</g>
</g>
</svg>
