<?xml version="1.0" encoding="UTF-8" standalone="no"?>
<!DOCTYPE svg PUBLIC "-//W3C//DTD SVG 1.1//EN"
 "http://www.w3.org/Graphics/SVG/1.1/DTD/svg11.dtd">
<!-- Generated by graphviz version 10.0.1 (20240210.2158)
 -->
<!-- Title: P4::ComputeDefUse Pages: 1 -->
<svg width="411pt" height="140pt"
 viewBox="0.00 0.00 411.00 140.00" xmlns="http://www.w3.org/2000/svg" xmlns:xlink="http://www.w3.org/1999/xlink">

<svg id="main" version="1.1" xmlns="http://www.w3.org/2000/svg" xmlns:xlink="http://www.w3.org/1999/xlink" xml:space="preserve" onload="init(evt)">
<style type="text/css"><![CDATA[
.node, .edge {opacity: 0.7;}
.node.selected, .edge.selected {opacity: 1;}
.edge:hover path { stroke: red; }
.edge:hover polygon { stroke: red; fill: red; }
]]></style>
<script type="application/ecmascript" xlink:href="svg.min.js"/>
<svg id="graph" class="graph">
<g id="graph0" class="graph" transform="scale(1 1) rotate(0) translate(4 136)">
<title>P4::ComputeDefUse</title>
<!-- Node1 -->
<g id="Node000001" class="node">
<title>Node1</title>
<g id="a_Node000001"><a xlink:title="Compute defuse info within P4Parser and P4Control blocks in the midend.">
<polygon fill="#999999" stroke="#666666" points="227.12,-20 122.62,-20 122.62,0 227.12,0 227.12,-20"/>
<text text-anchor="middle" x="174.88" y="-6.5" font-family="Helvetica,sans-Serif" font-size="10.00">P4::ComputeDefUse</text>
</a>
</g>
</g>
<!-- Node2 -->
<g id="Node000002" class="node">
<title>Node2</title>
<g id="a_Node000002"><a xlink:href="class_inspector.html" target="_top" xlink:title=" ">
<polygon fill="white" stroke="#bfbfbf" points="55.75,-76 0,-76 0,-56 55.75,-56 55.75,-76"/>
<text text-anchor="middle" x="27.88" y="-62.5" font-family="Helvetica,sans-Serif" font-size="10.00">Inspector</text>
</a>
</g>
</g>
<!-- Node2&#45;&gt;Node1 -->
<g id="edge1_Node000001_Node000002" class="edge">
<title>Node2&#45;&gt;Node1</title>
<g id="a_edge1_Node000001_Node000002"><a xlink:title=" ">
<path fill="none" stroke="#63b8ff" d="M64.18,-51.66C90.53,-41.98 125.54,-29.12 149.07,-20.48"/>
<polygon fill="#63b8ff" stroke="#63b8ff" points="63.08,-48.34 54.9,-55.07 65.49,-54.91 63.08,-48.34"/>
</a>
</g>
</g>
<!-- Node3 -->
<g id="Node000003" class="node">
<title>Node3</title>
<g id="a_Node000003"><a xlink:href="class_visitor.html" target="_top" xlink:title=" ">
<polygon fill="white" stroke="#bfbfbf" points="196.75,-132 153,-132 153,-112 196.75,-112 196.75,-132"/>
<text text-anchor="middle" x="174.88" y="-118.5" font-family="Helvetica,sans-Serif" font-size="10.00">Visitor</text>
</a>
</g>
</g>
<!-- Node3&#45;&gt;Node2 -->
<g id="edge2_Node000002_Node000003" class="edge">
<title>Node3&#45;&gt;Node2</title>
<g id="a_edge2_Node000002_Node000003"><a xlink:title=" ">
<path fill="none" stroke="#63b8ff" d="M141.81,-108.86C115.14,-99.06 78.14,-85.47 53.63,-76.46"/>
<polygon fill="#63b8ff" stroke="#63b8ff" points="140.53,-112.11 151.13,-112.28 142.95,-105.54 140.53,-112.11"/>
</a>
</g>
</g>
<!-- Node4 -->
<g id="Node000004" class="node">
<title>Node4</title>
<g id="a_Node000004"><a xlink:href="class_control_flow_visitor.html" target="_top" xlink:title=" ">
<polygon fill="white" stroke="#bfbfbf" points="168.25,-76 73.5,-76 73.5,-56 168.25,-56 168.25,-76"/>
<text text-anchor="middle" x="120.88" y="-62.5" font-family="Helvetica,sans-Serif" font-size="10.00">ControlFlowVisitor</text>
</a>
</g>
</g>
<!-- Node3&#45;&gt;Node4 -->
<g id="edge4_Node000004_Node000003" class="edge">
<title>Node3&#45;&gt;Node4</title>
<g id="a_edge4_Node000004_Node000003"><a xlink:title=" ">
<path fill="none" stroke="#63b8ff" d="M157.44,-103.57C148.37,-94.5 137.65,-83.78 130.17,-76.3"/>
<polygon fill="#63b8ff" stroke="#63b8ff" points="154.85,-105.93 164.4,-110.52 159.8,-100.98 154.85,-105.93"/>
</a>
</g>
</g>
<!-- Node5 -->
<g id="Node000005" class="node">
<title>Node5</title>
<g id="a_Node000005"><a xlink:href="class_p4_write_context.html" target="_top" xlink:title=" ">
<polygon fill="white" stroke="#bfbfbf" points="271.38,-76 186.38,-76 186.38,-56 271.38,-56 271.38,-76"/>
<text text-anchor="middle" x="228.88" y="-62.5" font-family="Helvetica,sans-Serif" font-size="10.00">P4WriteContext</text>
</a>
</g>
</g>
<!-- Node3&#45;&gt;Node5 -->
<g id="edge6_Node000005_Node000003" class="edge">
<title>Node3&#45;&gt;Node5</title>
<g id="a_edge6_Node000005_Node000003"><a xlink:title=" ">
<path fill="none" stroke="#63b8ff" d="M192.31,-103.57C201.38,-94.5 212.1,-83.78 219.58,-76.3"/>
<polygon fill="#63b8ff" stroke="#63b8ff" points="189.95,-100.98 185.35,-110.52 194.9,-105.93 189.95,-100.98"/>
</a>
</g>
</g>
<!-- Node6 -->
<g id="Node000006" class="node">
<title>Node6</title>
<g id="a_Node000006"><a xlink:href="class_p4_1_1_resolution_context.html" target="_top" xlink:title="Visitor mixin for looking up names in enclosing scopes from the Visitor::Context.">
<polygon fill="white" stroke="#666666" points="402.62,-76 289.12,-76 289.12,-56 402.62,-56 402.62,-76"/>
<text text-anchor="middle" x="345.88" y="-62.5" font-family="Helvetica,sans-Serif" font-size="10.00">P4::ResolutionContext</text>
</a>
</g>
</g>
<!-- Node3&#45;&gt;Node6 -->
<g id="edge8_Node000006_Node000003" class="edge">
<title>Node3&#45;&gt;Node6</title>
<g id="a_edge8_Node000006_Node000003"><a xlink:title=" ">
<path fill="none" stroke="#63b8ff" d="M208.02,-110.53C239.33,-100.65 285.86,-85.95 316.04,-76.42"/>
<polygon fill="#63b8ff" stroke="#63b8ff" points="207.16,-107.14 198.67,-113.48 209.26,-113.81 207.16,-107.14"/>
</a>
</g>
</g>
<!-- Node4&#45;&gt;Node1 -->
<g id="edge3_Node000001_Node000004" class="edge">
<title>Node4&#45;&gt;Node1</title>
<g id="a_edge3_Node000001_Node000004"><a xlink:title=" ">
<path fill="none" stroke="#63b8ff" d="M138.31,-47.57C147.38,-38.5 158.1,-27.78 165.58,-20.3"/>
<polygon fill="#63b8ff" stroke="#63b8ff" points="135.95,-44.98 131.35,-54.52 140.9,-49.93 135.95,-44.98"/>
</a>
</g>
</g>
<!-- Node5&#45;&gt;Node1 -->
<g id="edge5_Node000001_Node000005" class="edge">
<title>Node5&#45;&gt;Node1</title>
<g id="a_edge5_Node000001_Node000005"><a xlink:title=" ">
<path fill="none" stroke="#63b8ff" d="M211.44,-47.57C202.37,-38.5 191.65,-27.78 184.17,-20.3"/>
<polygon fill="#63b8ff" stroke="#63b8ff" points="208.85,-49.93 218.4,-54.52 213.8,-44.98 208.85,-49.93"/>
</a>
</g>
</g>
<!-- Node6&#45;&gt;Node1 -->
<g id="edge7_Node000001_Node000006" class="edge">
<title>Node6&#45;&gt;Node1</title>
<g id="a_edge7_Node000001_Node000006"><a xlink:title=" ">
<path fill="none" stroke="#63b8ff" d="M305.27,-52.18C274.45,-42.44 232.75,-29.28 204.89,-20.48"/>
<polygon fill="#63b8ff" stroke="#63b8ff" points="304.06,-55.46 314.65,-55.14 306.16,-48.79 304.06,-55.46"/>
</a>
</g>
</g>
<!-- Node7 -->
<g id="Node000007" class="node">
<title>Node7</title>
<g id="a_Node000007"><a xlink:href="class_p4_1_1_declaration_lookup.html" target="_top" xlink:title=" ">
<polygon fill="white" stroke="#bfbfbf" points="403,-132 288.75,-132 288.75,-112 403,-112 403,-132"/>
<text text-anchor="middle" x="345.88" y="-118.5" font-family="Helvetica,sans-Serif" font-size="10.00">P4::DeclarationLookup</text>
</a>
</g>
</g>
<!-- Node7&#45;&gt;Node6 -->
<g id="edge9_Node000006_Node000007" class="edge">
<title>Node7&#45;&gt;Node6</title>
<g id="a_edge9_Node000006_Node000007"><a xlink:title=" ">
<path fill="none" stroke="#63b8ff" d="M345.88,-100.13C345.88,-91.9 345.88,-82.85 345.88,-76.3"/>
<polygon fill="#63b8ff" stroke="#63b8ff" points="342.38,-100.08 345.88,-110.08 349.38,-100.08 342.38,-100.08"/>
</a>
</g>
</g>
</g>
</svg>
</svg>

<style type='text/css'>
<![CDATA[
[data-mouse-over-selected='false'] { opacity: 0.7; }
[data-mouse-over-selected='true']  { opacity: 1.0; }
]]>
</style>
<script type="application/ecmascript"><![CDATA[
document.addEventListener('DOMContentLoaded', (event) => {
  highlightEdges();
  highlightAdjacentNodes();
});
]]></script>
</svg>
