<?xml version="1.0" encoding="UTF-8" standalone="no"?>
<!DOCTYPE svg PUBLIC "-//W3C//DTD SVG 1.1//EN"
 "http://www.w3.org/Graphics/SVG/1.1/DTD/svg11.dtd">
<!-- Generated by graphviz version 10.0.1 (20240210.2158)
 -->
<!-- Title: P4::Instantiation Pages: 1 -->
<svg width="577pt" height="142pt"
 viewBox="0.00 0.00 577.00 142.00" xmlns="http://www.w3.org/2000/svg" xmlns:xlink="http://www.w3.org/1999/xlink">
<g id="graph0" class="graph" transform="scale(1 1) rotate(0) translate(4 138)">
<title>P4::Instantiation</title>
<!-- Node1 -->
<g id="Node000001" class="node">
<title>Node1</title>
<g id="a_Node000001"><a xlink:title="Used to resolve a Declaration_Instance.">
<polygon fill="#999999" stroke="#666666" points="408.25,-77 321.75,-77 321.75,-57 408.25,-57 408.25,-77"/>
<text text-anchor="middle" x="365" y="-63.5" font-family="Helvetica,sans-Serif" font-size="10.00">P4::Instantiation</text>
</a>
</g>
</g>
<!-- Node5 -->
<g id="Node000005" class="node">
<title>Node5</title>
<g id="a_Node000005"><a xlink:href="class_p4_1_1_control_instantiation.html" target="_top" xlink:title=" ">
<polygon fill="white" stroke="#bfbfbf" points="565.25,-134 448,-134 448,-114 565.25,-114 565.25,-134"/>
<text text-anchor="middle" x="506.62" y="-120.5" font-family="Helvetica,sans-Serif" font-size="10.00">P4::ControlInstantiation</text>
</a>
</g>
</g>
<!-- Node1&#45;&gt;Node5 -->
<g id="edge4_Node000001_Node000005" class="edge">
<title>Node1&#45;&gt;Node5</title>
<g id="a_edge4_Node000001_Node000005"><a xlink:title=" ">
<path fill="none" stroke="#63b8ff" d="M395.14,-82.46C409.67,-89.83 427.63,-98.44 444.25,-105 452.03,-108.07 460.52,-110.98 468.64,-113.55"/>
<polygon fill="#63b8ff" stroke="#63b8ff" points="397.09,-79.52 386.59,-78.06 393.88,-85.75 397.09,-79.52"/>
</a>
</g>
</g>
<!-- Node6 -->
<g id="Node000006" class="node">
<title>Node6</title>
<g id="a_Node000006"><a xlink:href="class_p4_1_1_extern_instantiation.html" target="_top" xlink:title=" ">
<polygon fill="white" stroke="#bfbfbf" points="564.12,-96 449.12,-96 449.12,-76 564.12,-76 564.12,-96"/>
<text text-anchor="middle" x="506.62" y="-82.5" font-family="Helvetica,sans-Serif" font-size="10.00">P4::ExternInstantiation</text>
</a>
</g>
</g>
<!-- Node1&#45;&gt;Node6 -->
<g id="edge5_Node000001_Node000006" class="edge">
<title>Node1&#45;&gt;Node6</title>
<g id="a_edge5_Node000001_Node000006"><a xlink:title=" ">
<path fill="none" stroke="#63b8ff" d="M419.94,-74.34C429.41,-75.63 439.29,-76.97 448.83,-78.27"/>
<polygon fill="#63b8ff" stroke="#63b8ff" points="420.53,-70.89 410.15,-73.01 419.59,-77.82 420.53,-70.89"/>
</a>
</g>
</g>
<!-- Node7 -->
<g id="Node000007" class="node">
<title>Node7</title>
<g id="a_Node000007"><a xlink:href="class_p4_1_1_package_instantiation.html" target="_top" xlink:title=" ">
<polygon fill="white" stroke="#bfbfbf" points="569,-58 444.25,-58 444.25,-38 569,-38 569,-58"/>
<text text-anchor="middle" x="506.62" y="-44.5" font-family="Helvetica,sans-Serif" font-size="10.00">P4::PackageInstantiation</text>
</a>
</g>
</g>
<!-- Node1&#45;&gt;Node7 -->
<g id="edge6_Node000001_Node000007" class="edge">
<title>Node1&#45;&gt;Node7</title>
<g id="a_edge6_Node000001_Node000007"><a xlink:title=" ">
<path fill="none" stroke="#63b8ff" d="M419.93,-59.66C427.8,-58.59 435.95,-57.48 443.96,-56.39"/>
<polygon fill="#63b8ff" stroke="#63b8ff" points="419.59,-56.18 410.15,-60.99 420.53,-63.11 419.59,-56.18"/>
</a>
</g>
</g>
<!-- Node8 -->
<g id="Node000008" class="node">
<title>Node8</title>
<g id="a_Node000008"><a xlink:href="class_p4_1_1_parser_instantiation.html" target="_top" xlink:title=" ">
<polygon fill="white" stroke="#bfbfbf" points="564.12,-20 449.12,-20 449.12,0 564.12,0 564.12,-20"/>
<text text-anchor="middle" x="506.62" y="-6.5" font-family="Helvetica,sans-Serif" font-size="10.00">P4::ParserInstantiation</text>
</a>
</g>
</g>
<!-- Node1&#45;&gt;Node8 -->
<g id="edge7_Node000001_Node000008" class="edge">
<title>Node1&#45;&gt;Node8</title>
<g id="a_edge7_Node000001_Node000008"><a xlink:title=" ">
<path fill="none" stroke="#63b8ff" d="M395.14,-51.54C409.67,-44.17 427.63,-35.56 444.25,-29 452.03,-25.93 460.52,-23.02 468.64,-20.45"/>
<polygon fill="#63b8ff" stroke="#63b8ff" points="393.88,-48.25 386.59,-55.94 397.09,-54.48 393.88,-48.25"/>
</a>
</g>
</g>
<!-- Node2 -->
<g id="Node000002" class="node">
<title>Node2</title>
<g id="a_Node000002"><a xlink:href="class_p4_1_1_instance_base.html" target="_top" xlink:title=" ">
<polygon fill="white" stroke="#bfbfbf" points="285.75,-77 192.5,-77 192.5,-57 285.75,-57 285.75,-77"/>
<text text-anchor="middle" x="239.12" y="-63.5" font-family="Helvetica,sans-Serif" font-size="10.00">P4::InstanceBase</text>
</a>
</g>
</g>
<!-- Node2&#45;&gt;Node1 -->
<g id="edge1_Node000001_Node000002" class="edge">
<title>Node2&#45;&gt;Node1</title>
<g id="a_edge1_Node000001_Node000002"><a xlink:title=" ">
<path fill="none" stroke="#63b8ff" d="M297.22,-67C305.32,-67 313.53,-67 321.29,-67"/>
<polygon fill="#63b8ff" stroke="#63b8ff" points="297.41,-63.5 287.41,-67 297.41,-70.5 297.41,-63.5"/>
</a>
</g>
</g>
<!-- Node3 -->
<g id="Node000003" class="node">
<title>Node3</title>
<g id="a_Node000003"><a xlink:href="class_i_castable.html" target="_top" xlink:title=" ">
<polygon fill="white" stroke="#666666" points="156.5,-77 100,-77 100,-57 156.5,-57 156.5,-77"/>
<text text-anchor="middle" x="128.25" y="-63.5" font-family="Helvetica,sans-Serif" font-size="10.00">ICastable</text>
</a>
</g>
</g>
<!-- Node3&#45;&gt;Node2 -->
<g id="edge2_Node000002_Node000003" class="edge">
<title>Node3&#45;&gt;Node2</title>
<g id="a_edge2_Node000002_Node000003"><a xlink:title=" ">
<path fill="none" stroke="#63b8ff" d="M168.06,-67C175.82,-67 184.04,-67 192.02,-67"/>
<polygon fill="#63b8ff" stroke="#63b8ff" points="168.24,-63.5 158.24,-67 168.24,-70.5 168.24,-63.5"/>
</a>
</g>
</g>
<!-- Node4 -->
<g id="Node000004" class="node">
<title>Node4</title>
<g id="a_Node000004"><a xlink:href="struct_r_t_t_i_1_1_base.html" target="_top" xlink:title=" ">
<polygon fill="white" stroke="#bfbfbf" points="64,-77 0,-77 0,-57 64,-57 64,-77"/>
<text text-anchor="middle" x="32" y="-63.5" font-family="Helvetica,sans-Serif" font-size="10.00">RTTI::Base</text>
</a>
</g>
</g>
<!-- Node4&#45;&gt;Node3 -->
<g id="edge3_Node000003_Node000004" class="edge">
<title>Node4&#45;&gt;Node3</title>
<g id="a_edge3_Node000003_Node000004"><a xlink:title=" ">
<path fill="none" stroke="#63b8ff" d="M75.72,-67C83.9,-67 92.26,-67 99.8,-67"/>
<polygon fill="#63b8ff" stroke="#63b8ff" points="75.9,-63.5 65.9,-67 75.9,-70.5 75.9,-63.5"/>
</a>
</g>
</g>
</g>
</svg>
