<?xml version="1.0" encoding="UTF-8" standalone="no"?>
<!DOCTYPE svg PUBLIC "-//W3C//DTD SVG 1.1//EN"
 "http://www.w3.org/Graphics/SVG/1.1/DTD/svg11.dtd">
<!-- Generated by graphviz version 10.0.1 (20240210.2158)
 -->
<!-- Title: BMV2::Backend Pages: 1 -->
<svg width="306pt" height="84pt"
 viewBox="0.00 0.00 306.12 84.00" xmlns="http://www.w3.org/2000/svg" xmlns:xlink="http://www.w3.org/1999/xlink">
<g id="graph0" class="graph" transform="scale(1 1) rotate(0) translate(4 80)">
<title>BMV2::Backend</title>
<!-- Node1 -->
<g id="Node000001" class="node">
<title>Node1</title>
<g id="a_Node000001"><a xlink:title=" ">
<polygon fill="#999999" stroke="#666666" points="189.5,-76 102.25,-76 102.25,-56 189.5,-56 189.5,-76"/>
<text text-anchor="middle" x="145.88" y="-62.5" font-family="Helvetica,sans-Serif" font-size="10.00">BMV2::Backend</text>
</a>
</g>
</g>
<!-- Node2 -->
<g id="Node000002" class="node">
<title>Node2</title>
<g id="a_Node000002"><a xlink:href="class_b_m_v2_1_1_psa_switch_backend.html" target="_top" xlink:title=" ">
<polygon fill="white" stroke="#bfbfbf" points="133.75,-20 0,-20 0,0 133.75,0 133.75,-20"/>
<text text-anchor="middle" x="66.88" y="-6.5" font-family="Helvetica,sans-Serif" font-size="10.00">BMV2::PsaSwitchBackend</text>
</a>
</g>
</g>
<!-- Node1&#45;&gt;Node2 -->
<g id="edge1_Node000001_Node000002" class="edge">
<title>Node1&#45;&gt;Node2</title>
<g id="a_edge1_Node000001_Node000002"><a xlink:title=" ">
<path fill="none" stroke="#63b8ff" d="M122.86,-49.27C109.22,-39.94 92.37,-28.43 80.74,-20.48"/>
<polygon fill="#63b8ff" stroke="#63b8ff" points="120.63,-51.99 130.86,-54.74 124.58,-46.21 120.63,-51.99"/>
</a>
</g>
</g>
<!-- Node3 -->
<g id="Node000003" class="node">
<title>Node3</title>
<g id="a_Node000003"><a xlink:href="class_b_m_v2_1_1_simple_switch_backend.html" target="_top" xlink:title=" ">
<polygon fill="white" stroke="#bfbfbf" points="298.12,-20 151.62,-20 151.62,0 298.12,0 298.12,-20"/>
<text text-anchor="middle" x="224.88" y="-6.5" font-family="Helvetica,sans-Serif" font-size="10.00">BMV2::SimpleSwitchBackend</text>
</a>
</g>
</g>
<!-- Node1&#45;&gt;Node3 -->
<g id="edge2_Node000001_Node000003" class="edge">
<title>Node1&#45;&gt;Node3</title>
<g id="a_edge2_Node000001_Node000003"><a xlink:title=" ">
<path fill="none" stroke="#63b8ff" d="M168.89,-49.27C182.53,-39.94 199.38,-28.43 211.01,-20.48"/>
<polygon fill="#63b8ff" stroke="#63b8ff" points="167.17,-46.21 160.89,-54.74 171.12,-51.99 167.17,-46.21"/>
</a>
</g>
</g>
</g>
</svg>
