<?xml version="1.0" encoding="UTF-8" standalone="no"?>
<!DOCTYPE svg PUBLIC "-//W3C//DTD SVG 1.1//EN"
 "http://www.w3.org/Graphics/SVG/1.1/DTD/svg11.dtd">
<!-- Generated by graphviz version 10.0.1 (20240210.2158)
 -->
<!-- Title: EBPF::EBPFPipeline Pages: 1 -->
<!--zoomable 142 -->

<svg id="main" version="1.1" xmlns="http://www.w3.org/2000/svg" xmlns:xlink="http://www.w3.org/1999/xlink" xml:space="preserve" onload="init(evt)">
<style type="text/css"><![CDATA[
.node, .edge {opacity: 0.7;}
.node.selected, .edge.selected {opacity: 1;}
.edge:hover path { stroke: red; }
.edge:hover polygon { stroke: red; fill: red; }
]]></style>

<defs>
  <circle id="rim" cx="0" cy="0" r="7"/>
  <circle id="rim2" cx="0" cy="0" r="3.5"/>
  <g id="zoomPlus">
    <use xlink:href="#rim" fill="#404040"><set attributeName="fill" to="#808080" begin="zoomplus.mouseover" end="zoomplus.mouseout"/></use>
    <path d="M-4,0h8M0,-4v8" fill="none" stroke="white" stroke-width="1.5" pointer-events="none"/>
  </g>
  <g id="zoomMin">
    <use xlink:href="#rim" fill="#404040"><set attributeName="fill" to="#808080" begin="zoomminus.mouseover" end="zoomminus.mouseout"/></use>
    <path d="M-4,0h8" fill="none" stroke="white" stroke-width="1.5" pointer-events="none"/>
  </g>
  <g id="arrowUp" transform="translate(30 24)">
    <use xlink:href="#rim"/>
    <path pointer-events="none" fill="none" stroke="white" stroke-width="1.5" d="M0,-3.0v7 M-2.5,-0.5L0,-3.0L2.5,-0.5"/>
  </g>
  <g id="arrowRight" transform="rotate(90) translate(36 -43)">
    <use xlink:href="#rim"/>
    <path pointer-events="none" fill="none" stroke="white" stroke-width="1.5" d="M0,-3.0v7 M-2.5,-0.5L0,-3.0L2.5,-0.5"/>
  </g>
  <g id="arrowDown" transform="rotate(180) translate(-30 -48)">
    <use xlink:href="#rim"/>
    <path pointer-events="none" fill="none" stroke="white" stroke-width="1.5" d="M0,-3.0v7 M-2.5,-0.5L0,-3.0L2.5,-0.5"/>
  </g>
  <g id="arrowLeft" transform="rotate(270) translate(-36 17)">
    <use xlink:href="#rim"/>
    <path pointer-events="none" fill="none" stroke="white" stroke-width="1.5" d="M0,-3.0v7 M-2.5,-0.5L0,-3.0L2.5,-0.5"/>
  </g>
  <g id="resetDef">
    <use xlink:href="#rim2" fill="#404040"><set attributeName="fill" to="#808080" begin="reset.mouseover" end="reset.mouseout"/></use>
  </g>
</defs>
<script type="application/ecmascript">
var viewWidth = 1134;
var viewHeight = 142;
var sectionId = 'dynsection-0';
</script>
<script type="application/ecmascript" xlink:href="svg.min.js"/>
<svg id="graph" class="graph">
<g id="viewport">
<title>EBPF::EBPFPipeline</title>
<!-- Node1 -->
<g id="Node000001" class="node">
<title>Node1</title>
<g id="a_Node000001"><a xlink:title=" ">
<polygon fill="#999999" stroke="#666666" points="587.75,-77 478.75,-77 478.75,-57 587.75,-57 587.75,-77"/>
<text text-anchor="middle" x="533.25" y="-63.5" font-family="Helvetica,sans-Serif" font-size="10.00">EBPF::EBPFPipeline</text>
</a>
</g>
</g>
<!-- Node6 -->
<g id="Node000006" class="node">
<title>Node6</title>
<g id="a_Node000006"><a xlink:href="class_e_b_p_f_1_1_e_b_p_f_egress_pipeline.html" target="_top" xlink:title=" ">
<polygon fill="white" stroke="#bfbfbf" points="763.88,-96 624.12,-96 624.12,-76 763.88,-76 763.88,-96"/>
<text text-anchor="middle" x="694" y="-82.5" font-family="Helvetica,sans-Serif" font-size="10.00">EBPF::EBPFEgressPipeline</text>
</a>
</g>
</g>
<!-- Node1&#45;&gt;Node6 -->
<g id="edge5_Node000001_Node000006" class="edge">
<title>Node1&#45;&gt;Node6</title>
<g id="a_edge5_Node000001_Node000006"><a xlink:title=" ">
<path fill="none" stroke="#63b8ff" d="M599.27,-74.78C607.37,-75.75 615.67,-76.75 623.83,-77.72"/>
<polygon fill="#63b8ff" stroke="#63b8ff" points="599.84,-71.33 589.5,-73.61 599.01,-78.28 599.84,-71.33"/>
</a>
</g>
</g>
<!-- Node9 -->
<g id="Node000009" class="node">
<title>Node9</title>
<g id="a_Node000009"><a xlink:href="class_e_b_p_f_1_1_e_b_p_f_ingress_pipeline.html" target="_top" xlink:title=" ">
<polygon fill="white" stroke="#bfbfbf" points="764.25,-58 623.75,-58 623.75,-38 764.25,-38 764.25,-58"/>
<text text-anchor="middle" x="694" y="-44.5" font-family="Helvetica,sans-Serif" font-size="10.00">EBPF::EBPFIngressPipeline</text>
</a>
</g>
</g>
<!-- Node1&#45;&gt;Node9 -->
<g id="edge8_Node000001_Node000009" class="edge">
<title>Node1&#45;&gt;Node9</title>
<g id="a_edge8_Node000001_Node000009"><a xlink:title=" ">
<path fill="none" stroke="#63b8ff" d="M599.37,-59.21C607.25,-58.26 615.32,-57.3 623.27,-56.35"/>
<polygon fill="#63b8ff" stroke="#63b8ff" points="599.01,-55.72 589.5,-60.39 599.84,-62.67 599.01,-55.72"/>
</a>
</g>
</g>
<!-- Node2 -->
<g id="Node000002" class="node">
<title>Node2</title>
<g id="a_Node000002"><a xlink:href="class_e_b_p_f_1_1_e_b_p_f_program.html" target="_top" xlink:title=" ">
<polygon fill="white" stroke="#bfbfbf" points="442.75,-77 331.5,-77 331.5,-57 442.75,-57 442.75,-77"/>
<text text-anchor="middle" x="387.12" y="-63.5" font-family="Helvetica,sans-Serif" font-size="10.00">EBPF::EBPFProgram</text>
</a>
</g>
</g>
<!-- Node2&#45;&gt;Node1 -->
<g id="edge1_Node000001_Node000002" class="edge">
<title>Node2&#45;&gt;Node1</title>
<g id="a_edge1_Node000001_Node000002"><a xlink:title=" ">
<path fill="none" stroke="#63b8ff" d="M454.34,-67C462.41,-67 470.59,-67 478.46,-67"/>
<polygon fill="#63b8ff" stroke="#63b8ff" points="454.54,-63.5 444.54,-67 454.54,-70.5 454.54,-63.5"/>
</a>
</g>
</g>
<!-- Node3 -->
<g id="Node000003" class="node">
<title>Node3</title>
<g id="a_Node000003"><a xlink:href="class_e_b_p_f_1_1_e_b_p_f_object.html" target="_top" xlink:title=" ">
<polygon fill="white" stroke="#bfbfbf" points="295.5,-77 192.5,-77 192.5,-57 295.5,-57 295.5,-77"/>
<text text-anchor="middle" x="244" y="-63.5" font-family="Helvetica,sans-Serif" font-size="10.00">EBPF::EBPFObject</text>
</a>
</g>
</g>
<!-- Node3&#45;&gt;Node2 -->
<g id="edge2_Node000002_Node000003" class="edge">
<title>Node3&#45;&gt;Node2</title>
<g id="a_edge2_Node000002_Node000003"><a xlink:title=" ">
<path fill="none" stroke="#63b8ff" d="M307.21,-67C315.28,-67 323.5,-67 331.44,-67"/>
<polygon fill="#63b8ff" stroke="#63b8ff" points="307.46,-63.5 297.46,-67 307.46,-70.5 307.46,-63.5"/>
</a>
</g>
</g>
<!-- Node4 -->
<g id="Node000004" class="node">
<title>Node4</title>
<g id="a_Node000004"><a xlink:href="class_i_castable.html" target="_top" xlink:title=" ">
<polygon fill="white" stroke="#666666" points="156.5,-77 100,-77 100,-57 156.5,-57 156.5,-77"/>
<text text-anchor="middle" x="128.25" y="-63.5" font-family="Helvetica,sans-Serif" font-size="10.00">ICastable</text>
</a>
</g>
</g>
<!-- Node4&#45;&gt;Node3 -->
<g id="edge3_Node000003_Node000004" class="edge">
<title>Node4&#45;&gt;Node3</title>
<g id="a_edge3_Node000003_Node000004"><a xlink:title=" ">
<path fill="none" stroke="#63b8ff" d="M168.07,-67C175.82,-67 184.07,-67 192.15,-67"/>
<polygon fill="#63b8ff" stroke="#63b8ff" points="168.3,-63.5 158.3,-67 168.3,-70.5 168.3,-63.5"/>
</a>
</g>
</g>
<!-- Node5 -->
<g id="Node000005" class="node">
<title>Node5</title>
<g id="a_Node000005"><a xlink:href="struct_r_t_t_i_1_1_base.html" target="_top" xlink:title=" ">
<polygon fill="white" stroke="#bfbfbf" points="64,-77 0,-77 0,-57 64,-57 64,-77"/>
<text text-anchor="middle" x="32" y="-63.5" font-family="Helvetica,sans-Serif" font-size="10.00">RTTI::Base</text>
</a>
</g>
</g>
<!-- Node5&#45;&gt;Node4 -->
<g id="edge4_Node000004_Node000005" class="edge">
<title>Node5&#45;&gt;Node4</title>
<g id="a_edge4_Node000004_Node000005"><a xlink:title=" ">
<path fill="none" stroke="#63b8ff" d="M75.72,-67C83.9,-67 92.26,-67 99.8,-67"/>
<polygon fill="#63b8ff" stroke="#63b8ff" points="75.9,-63.5 65.9,-67 75.9,-70.5 75.9,-63.5"/>
</a>
</g>
</g>
<!-- Node7 -->
<g id="Node000007" class="node">
<title>Node7</title>
<g id="a_Node000007"><a xlink:href="class_e_b_p_f_1_1_t_c_egress_pipeline.html" target="_top" xlink:title=" ">
<polygon fill="white" stroke="#bfbfbf" points="929.5,-134 804,-134 804,-114 929.5,-114 929.5,-134"/>
<text text-anchor="middle" x="866.75" y="-120.5" font-family="Helvetica,sans-Serif" font-size="10.00">EBPF::TCEgressPipeline</text>
</a>
</g>
</g>
<!-- Node6&#45;&gt;Node7 -->
<g id="edge6_Node000006_Node000007" class="edge">
<title>Node6&#45;&gt;Node7</title>
<g id="a_edge6_Node000006_Node000007"><a xlink:title=" ">
<path fill="none" stroke="#63b8ff" d="M753.34,-98.98C774.7,-103.74 798.56,-109.05 818.79,-113.55"/>
<polygon fill="#63b8ff" stroke="#63b8ff" points="754.11,-95.57 743.59,-96.81 752.59,-102.4 754.11,-95.57"/>
</a>
</g>
</g>
<!-- Node8 -->
<g id="Node000008" class="node">
<title>Node8</title>
<g id="a_Node000008"><a xlink:href="class_e_b_p_f_1_1_x_d_p_egress_pipeline.html" target="_top" xlink:title=" ">
<polygon fill="white" stroke="#bfbfbf" points="932.88,-96 800.62,-96 800.62,-76 932.88,-76 932.88,-96"/>
<text text-anchor="middle" x="866.75" y="-82.5" font-family="Helvetica,sans-Serif" font-size="10.00">EBPF::XDPEgressPipeline</text>
</a>
</g>
</g>
<!-- Node6&#45;&gt;Node8 -->
<g id="edge7_Node000006_Node000008" class="edge">
<title>Node6&#45;&gt;Node8</title>
<g id="a_edge7_Node000006_Node000008"><a xlink:title=" ">
<path fill="none" stroke="#63b8ff" d="M775.25,-86C783.59,-86 791.99,-86 800.13,-86"/>
<polygon fill="#63b8ff" stroke="#63b8ff" points="775.47,-82.5 765.47,-86 775.47,-89.5 775.47,-82.5"/>
</a>
</g>
</g>
<!-- Node10 -->
<g id="Node000010" class="node">
<title>Node10</title>
<g id="a_Node000010"><a xlink:href="class_e_b_p_f_1_1_t_c_ingress_pipeline.html" target="_top" xlink:title=" ">
<polygon fill="white" stroke="#bfbfbf" points="929.88,-58 803.62,-58 803.62,-38 929.88,-38 929.88,-58"/>
<text text-anchor="middle" x="866.75" y="-44.5" font-family="Helvetica,sans-Serif" font-size="10.00">EBPF::TCIngressPipeline</text>
</a>
</g>
</g>
<!-- Node9&#45;&gt;Node10 -->
<g id="edge9_Node000009_Node000010" class="edge">
<title>Node9&#45;&gt;Node10</title>
<g id="a_edge9_Node000009_Node000010"><a xlink:title=" ">
<path fill="none" stroke="#63b8ff" d="M775.68,-48C784.93,-48 794.26,-48 803.23,-48"/>
<polygon fill="#63b8ff" stroke="#63b8ff" points="775.96,-44.5 765.96,-48 775.96,-51.5 775.96,-44.5"/>
</a>
</g>
</g>
<!-- Node13 -->
<g id="Node000013" class="node">
<title>Node13</title>
<g id="a_Node000013"><a xlink:href="class_e_b_p_f_1_1_x_d_p_ingress_pipeline.html" target="_top" xlink:title=" ">
<polygon fill="white" stroke="#bfbfbf" points="933.25,-20 800.25,-20 800.25,0 933.25,0 933.25,-20"/>
<text text-anchor="middle" x="866.75" y="-6.5" font-family="Helvetica,sans-Serif" font-size="10.00">EBPF::XDPIngressPipeline</text>
</a>
</g>
</g>
<!-- Node9&#45;&gt;Node13 -->
<g id="edge12_Node000009_Node000013" class="edge">
<title>Node9&#45;&gt;Node13</title>
<g id="a_edge12_Node000009_Node000013"><a xlink:title=" ">
<path fill="none" stroke="#63b8ff" d="M753.34,-35.02C774.7,-30.26 798.56,-24.95 818.79,-20.45"/>
<polygon fill="#63b8ff" stroke="#63b8ff" points="752.59,-31.6 743.59,-37.19 754.11,-38.43 752.59,-31.6"/>
</a>
</g>
</g>
<!-- Node11 -->
<g id="Node000011" class="node">
<title>Node11</title>
<g id="a_Node000011"><a xlink:href="class_e_b_p_f_1_1_t_c_traffic_manager_for_x_d_p.html" target="_top" xlink:title=" ">
<polygon fill="white" stroke="#bfbfbf" points="1125.5,-77 969.25,-77 969.25,-57 1125.5,-57 1125.5,-77"/>
<text text-anchor="middle" x="1047.38" y="-63.5" font-family="Helvetica,sans-Serif" font-size="10.00">EBPF::TCTrafficManagerForXDP</text>
</a>
</g>
</g>
<!-- Node10&#45;&gt;Node11 -->
<g id="edge10_Node000010_Node000011" class="edge">
<title>Node10&#45;&gt;Node11</title>
<g id="a_edge10_Node000010_Node000011"><a xlink:title=" ">
<path fill="none" stroke="#63b8ff" d="M941.51,-55.85C950.53,-56.81 959.78,-57.79 968.86,-58.75"/>
<polygon fill="#63b8ff" stroke="#63b8ff" points="942.04,-52.38 931.73,-54.81 941.3,-59.34 942.04,-52.38"/>
</a>
</g>
</g>
<!-- Node12 -->
<g id="Node000012" class="node">
<title>Node12</title>
<g id="a_Node000012"><a xlink:href="class_t_c_1_1_t_c_ingress_pipeline_p_n_a.html" target="_top" xlink:title=" ">
<polygon fill="white" stroke="#bfbfbf" points="1113.5,-39 981.25,-39 981.25,-19 1113.5,-19 1113.5,-39"/>
<text text-anchor="middle" x="1047.38" y="-25.5" font-family="Helvetica,sans-Serif" font-size="10.00">TC::TCIngressPipelinePNA</text>
</a>
</g>
</g>
<!-- Node10&#45;&gt;Node12 -->
<g id="edge11_Node000010_Node000012" class="edge">
<title>Node10&#45;&gt;Node12</title>
<g id="a_edge11_Node000010_Node000012"><a xlink:title=" ">
<path fill="none" stroke="#63b8ff" d="M941.55,-40.15C954.6,-38.76 968.1,-37.33 980.9,-35.96"/>
<polygon fill="#63b8ff" stroke="#63b8ff" points="941.3,-36.66 931.73,-41.19 942.04,-43.62 941.3,-36.66"/>
</a>
</g>
</g>
</g>
</svg>

<g id="navigator" transform="translate(0 0)" fill="#404254">
  <rect fill="#f2f5e9" fill-opacity="0.5" stroke="#606060" stroke-width=".5" x="0" y="0" width="60" height="60"/>
  <use id="zoomplus" xlink:href="#zoomPlus" x="17" y="9" onmousedown="handleZoom(evt,'in')"/>
  <use id="zoomminus" xlink:href="#zoomMin" x="42" y="9" onmousedown="handleZoom(evt,'out')"/>
  <use id="reset" xlink:href="#resetDef" x="30" y="36" onmousedown="handleReset()"/>
   <use id="arrowup" xlink:href="#arrowUp" x="0" y="0" onmousedown="handlePan(0,-1)"/>
  <use id="arrowright" xlink:href="#arrowRight" x="0" y="0" onmousedown="handlePan(1,0)"/>
  <use id="arrowdown" xlink:href="#arrowDown" x="0" y="0" onmousedown="handlePan(0,1)"/>
  <use id="arrowleft" xlink:href="#arrowLeft" x="0" y="0" onmousedown="handlePan(-1,0)"/>
</g>
<svg viewBox="0 0 15 15" width="100%" height="30px" preserveAspectRatio="xMaxYMin meet">
 <g id="arrow_out" transform="scale(0.3 0.3)">
  <a xlink:href="class_e_b_p_f_1_1_e_b_p_f_pipeline__inherit__graph_org.svg" target="_base">
   <rect id="button" ry="5" rx="5" y="6" x="6" height="38" width="38"
        fill="#f2f5e9" fill-opacity="0.5" stroke="#606060" stroke-width="1.0"/>
   <path id="arrow"
     d="M 11.500037,31.436501 C 11.940474,20.09759 22.043105,11.32322 32.158766,21.979434 L 37.068811,17.246167 C 37.068811,17.246167 37.088388,32 37.088388,32 L 22.160133,31.978069 C 22.160133,31.978069 26.997745,27.140456 26.997745,27.140456 C 18.528582,18.264221 13.291696,25.230495 11.500037,31.436501 z"
     style="fill:#404040;"/>
  </a>
 </g>
</svg>

<style type='text/css'>
<![CDATA[
[data-mouse-over-selected='false'] { opacity: 0.7; }
[data-mouse-over-selected='true']  { opacity: 1.0; }
]]>
</style>
<script type="application/ecmascript"><![CDATA[
document.addEventListener('DOMContentLoaded', (event) => {
  highlightEdges();
  highlightAdjacentNodes();
});
]]></script>
</svg>
