<?xml version="1.0" encoding="UTF-8" standalone="no"?>
<!DOCTYPE svg PUBLIC "-//W3C//DTD SVG 1.1//EN"
 "http://www.w3.org/Graphics/SVG/1.1/DTD/svg11.dtd">
<!-- Generated by graphviz version 10.0.1 (20240210.2158)
 -->
<!-- Title: P4Tools::P4Testgen::AbstractStepper Pages: 1 -->
<svg width="802pt" height="290pt"
 viewBox="0.00 0.00 802.25 290.00" xmlns="http://www.w3.org/2000/svg" xmlns:xlink="http://www.w3.org/1999/xlink">
<g id="graph0" class="graph" transform="scale(1 1) rotate(0) translate(4 286)">
<title>P4Tools::P4Testgen::AbstractStepper</title>
<!-- Node1 -->
<g id="Node000001" class="node">
<title>Node1</title>
<g id="a_Node000001"><a xlink:title=" ">
<polygon fill="#999999" stroke="#666666" points="275.25,-132 171.5,-132 171.5,-100 275.25,-100 275.25,-132"/>
<text text-anchor="start" x="179.5" y="-118.5" font-family="Helvetica,sans-Serif" font-size="10.00">P4Tools::P4Testgen</text>
<text text-anchor="middle" x="223.38" y="-106.5" font-family="Helvetica,sans-Serif" font-size="10.00">::AbstractStepper</text>
</a>
</g>
</g>
<!-- Node4 -->
<g id="Node000004" class="node">
<title>Node4</title>
<g id="a_Node000004"><a xlink:href="class_p4_tools_1_1_p4_testgen_1_1_cmd_stepper.html" target="_top" xlink:title="Implements small&#45;step operational semantics for commands.">
<polygon fill="white" stroke="#666666" points="415,-207 311.25,-207 311.25,-175 415,-175 415,-207"/>
<text text-anchor="start" x="319.25" y="-193.5" font-family="Helvetica,sans-Serif" font-size="10.00">P4Tools::P4Testgen</text>
<text text-anchor="middle" x="363.12" y="-181.5" font-family="Helvetica,sans-Serif" font-size="10.00">::CmdStepper</text>
</a>
</g>
</g>
<!-- Node1&#45;&gt;Node4 -->
<g id="edge3_Node000001_Node000004" class="edge">
<title>Node1&#45;&gt;Node4</title>
<g id="a_edge3_Node000001_Node000004"><a xlink:title=" ">
<path fill="none" stroke="#63b8ff" d="M264.46,-137.82C286.01,-149.56 312.15,-163.79 331.97,-174.58"/>
<polygon fill="#63b8ff" stroke="#63b8ff" points="266.39,-134.89 255.93,-133.18 263.04,-141.04 266.39,-134.89"/>
</a>
</g>
</g>
<!-- Node9 -->
<g id="Node000009" class="node">
<title>Node9</title>
<g id="a_Node000009"><a xlink:href="class_p4_tools_1_1_p4_testgen_1_1_expr_stepper.html" target="_top" xlink:title="Implements small&#45;step operational semantics for expressions.">
<polygon fill="white" stroke="#666666" points="415,-107 311.25,-107 311.25,-75 415,-75 415,-107"/>
<text text-anchor="start" x="319.25" y="-93.5" font-family="Helvetica,sans-Serif" font-size="10.00">P4Tools::P4Testgen</text>
<text text-anchor="middle" x="363.12" y="-81.5" font-family="Helvetica,sans-Serif" font-size="10.00">::ExprStepper</text>
</a>
</g>
</g>
<!-- Node1&#45;&gt;Node9 -->
<g id="edge8_Node000001_Node000009" class="edge">
<title>Node1&#45;&gt;Node9</title>
<g id="a_edge8_Node000001_Node000009"><a xlink:title=" ">
<path fill="none" stroke="#63b8ff" d="M286.86,-104.66C294.87,-103.21 302.99,-101.73 310.79,-100.32"/>
<polygon fill="#63b8ff" stroke="#63b8ff" points="286.37,-101.19 277.16,-106.42 287.62,-108.08 286.37,-101.19"/>
</a>
</g>
</g>
<!-- Node2 -->
<g id="Node000002" class="node">
<title>Node2</title>
<g id="a_Node000002"><a xlink:href="class_inspector.html" target="_top" xlink:title=" ">
<polygon fill="white" stroke="#bfbfbf" points="135.5,-126 79.75,-126 79.75,-106 135.5,-106 135.5,-126"/>
<text text-anchor="middle" x="107.62" y="-112.5" font-family="Helvetica,sans-Serif" font-size="10.00">Inspector</text>
</a>
</g>
</g>
<!-- Node2&#45;&gt;Node1 -->
<g id="edge1_Node000001_Node000002" class="edge">
<title>Node2&#45;&gt;Node1</title>
<g id="a_edge1_Node000001_Node000002"><a xlink:title=" ">
<path fill="none" stroke="#63b8ff" d="M147.17,-116C154.92,-116 163.19,-116 171.3,-116"/>
<polygon fill="#63b8ff" stroke="#63b8ff" points="147.38,-112.5 137.38,-116 147.38,-119.5 147.38,-112.5"/>
</a>
</g>
</g>
<!-- Node3 -->
<g id="Node000003" class="node">
<title>Node3</title>
<g id="a_Node000003"><a xlink:href="class_visitor.html" target="_top" xlink:title=" ">
<polygon fill="white" stroke="#bfbfbf" points="43.75,-126 0,-126 0,-106 43.75,-106 43.75,-126"/>
<text text-anchor="middle" x="21.88" y="-112.5" font-family="Helvetica,sans-Serif" font-size="10.00">Visitor</text>
</a>
</g>
</g>
<!-- Node3&#45;&gt;Node2 -->
<g id="edge2_Node000002_Node000003" class="edge">
<title>Node3&#45;&gt;Node2</title>
<g id="a_edge2_Node000002_Node000003"><a xlink:title=" ">
<path fill="none" stroke="#63b8ff" d="M55.52,-116C63.44,-116 71.83,-116 79.47,-116"/>
<polygon fill="#63b8ff" stroke="#63b8ff" points="55.52,-112.5 45.52,-116 55.52,-119.5 55.52,-112.5"/>
</a>
</g>
</g>
<!-- Node5 -->
<g id="Node000005" class="node">
<title>Node5</title>
<g id="a_Node000005"><a xlink:href="class_p4_tools_1_1_p4_testgen_1_1_bmv2_1_1_bmv2_v1_model_cmd_stepper.html" target="_top" xlink:title=" ">
<polygon fill="white" stroke="#bfbfbf" points="619.25,-282 451,-282 451,-250 619.25,-250 619.25,-282"/>
<text text-anchor="start" x="459" y="-268.5" font-family="Helvetica,sans-Serif" font-size="10.00">P4Tools::P4Testgen</text>
<text text-anchor="middle" x="535.12" y="-256.5" font-family="Helvetica,sans-Serif" font-size="10.00">::Bmv2::Bmv2V1ModelCmdStepper</text>
</a>
</g>
</g>
<!-- Node4&#45;&gt;Node5 -->
<g id="edge4_Node000004_Node000005" class="edge">
<title>Node4&#45;&gt;Node5</title>
<g id="a_edge4_Node000004_Node000005"><a xlink:title=" ">
<path fill="none" stroke="#63b8ff" d="M398.86,-213.45C414.39,-222.83 433.17,-233.31 451,-241 458.2,-244.1 465.9,-246.98 473.6,-249.59"/>
<polygon fill="#63b8ff" stroke="#63b8ff" points="400.81,-210.54 390.46,-208.27 397.14,-216.5 400.81,-210.54"/>
</a>
</g>
</g>
<!-- Node6 -->
<g id="Node000006" class="node">
<title>Node6</title>
<g id="a_Node000006"><a xlink:href="class_p4_tools_1_1_p4_testgen_1_1_e_b_p_f_1_1_e_b_p_f_cmd_stepper.html" target="_top" xlink:title=" ">
<polygon fill="white" stroke="#bfbfbf" points="602.38,-232 467.88,-232 467.88,-200 602.38,-200 602.38,-232"/>
<text text-anchor="start" x="475.88" y="-218.5" font-family="Helvetica,sans-Serif" font-size="10.00">P4Tools::P4Testgen</text>
<text text-anchor="middle" x="535.12" y="-206.5" font-family="Helvetica,sans-Serif" font-size="10.00">::EBPF::EBPFCmdStepper</text>
</a>
</g>
</g>
<!-- Node4&#45;&gt;Node6 -->
<g id="edge5_Node000004_Node000006" class="edge">
<title>Node4&#45;&gt;Node6</title>
<g id="a_edge5_Node000004_Node000006"><a xlink:title=" ">
<path fill="none" stroke="#63b8ff" d="M426.17,-200.12C439.59,-202.1 453.82,-204.19 467.41,-206.19"/>
<polygon fill="#63b8ff" stroke="#63b8ff" points="427.03,-196.71 416.63,-198.72 426.01,-203.64 427.03,-196.71"/>
</a>
</g>
</g>
<!-- Node7 -->
<g id="Node000007" class="node">
<title>Node7</title>
<g id="a_Node000007"><a xlink:href="class_p4_tools_1_1_p4_testgen_1_1_pna_1_1_shared_pna_cmd_stepper.html" target="_top" xlink:title=" ">
<polygon fill="white" stroke="#bfbfbf" points="608.75,-182 461.5,-182 461.5,-150 608.75,-150 608.75,-182"/>
<text text-anchor="start" x="469.5" y="-168.5" font-family="Helvetica,sans-Serif" font-size="10.00">P4Tools::P4Testgen</text>
<text text-anchor="middle" x="535.12" y="-156.5" font-family="Helvetica,sans-Serif" font-size="10.00">::Pna::SharedPnaCmdStepper</text>
</a>
</g>
</g>
<!-- Node4&#45;&gt;Node7 -->
<g id="edge6_Node000004_Node000007" class="edge">
<title>Node4&#45;&gt;Node7</title>
<g id="a_edge6_Node000004_Node000007"><a xlink:title=" ">
<path fill="none" stroke="#63b8ff" d="M426.25,-181.86C437.6,-180.2 449.53,-178.44 461.16,-176.73"/>
<polygon fill="#63b8ff" stroke="#63b8ff" points="426.01,-178.36 416.63,-183.28 427.03,-185.29 426.01,-178.36"/>
</a>
</g>
</g>
<!-- Node8 -->
<g id="Node000008" class="node">
<title>Node8</title>
<g id="a_Node000008"><a xlink:href="class_p4_tools_1_1_p4_testgen_1_1_pna_1_1_pna_dpdk_cmd_stepper.html" target="_top" xlink:title=" ">
<polygon fill="white" stroke="#bfbfbf" points="794.25,-182 655.25,-182 655.25,-150 794.25,-150 794.25,-182"/>
<text text-anchor="start" x="663.25" y="-168.5" font-family="Helvetica,sans-Serif" font-size="10.00">P4Tools::P4Testgen</text>
<text text-anchor="middle" x="724.75" y="-156.5" font-family="Helvetica,sans-Serif" font-size="10.00">::Pna::PnaDpdkCmdStepper</text>
</a>
</g>
</g>
<!-- Node7&#45;&gt;Node8 -->
<g id="edge7_Node000007_Node000008" class="edge">
<title>Node7&#45;&gt;Node8</title>
<g id="a_edge7_Node000007_Node000008"><a xlink:title=" ">
<path fill="none" stroke="#63b8ff" d="M620.58,-166C632.05,-166 643.71,-166 654.86,-166"/>
<polygon fill="#63b8ff" stroke="#63b8ff" points="620.72,-162.5 610.72,-166 620.72,-169.5 620.72,-162.5"/>
</a>
</g>
</g>
<!-- Node10 -->
<g id="Node000010" class="node">
<title>Node10</title>
<g id="a_Node000010"><a xlink:href="class_p4_tools_1_1_p4_testgen_1_1_bmv2_1_1_bmv2_v1_model_expr_stepper.html" target="_top" xlink:title=" ">
<polygon fill="white" stroke="#bfbfbf" points="619.25,-132 451,-132 451,-100 619.25,-100 619.25,-132"/>
<text text-anchor="start" x="459" y="-118.5" font-family="Helvetica,sans-Serif" font-size="10.00">P4Tools::P4Testgen</text>
<text text-anchor="middle" x="535.12" y="-106.5" font-family="Helvetica,sans-Serif" font-size="10.00">::Bmv2::Bmv2V1ModelExprStepper</text>
</a>
</g>
</g>
<!-- Node9&#45;&gt;Node10 -->
<g id="edge9_Node000009_Node000010" class="edge">
<title>Node9&#45;&gt;Node10</title>
<g id="a_edge9_Node000009_Node000010"><a xlink:title=" ">
<path fill="none" stroke="#63b8ff" d="M426.47,-100.17C434.38,-101.33 442.56,-102.54 450.73,-103.74"/>
<polygon fill="#63b8ff" stroke="#63b8ff" points="427.03,-96.71 416.63,-98.72 426.01,-103.64 427.03,-96.71"/>
</a>
</g>
</g>
<!-- Node11 -->
<g id="Node000011" class="node">
<title>Node11</title>
<g id="a_Node000011"><a xlink:href="class_p4_tools_1_1_p4_testgen_1_1_e_b_p_f_1_1_e_b_p_f_expr_stepper.html" target="_top" xlink:title=" ">
<polygon fill="white" stroke="#bfbfbf" points="602.38,-82 467.88,-82 467.88,-50 602.38,-50 602.38,-82"/>
<text text-anchor="start" x="475.88" y="-68.5" font-family="Helvetica,sans-Serif" font-size="10.00">P4Tools::P4Testgen</text>
<text text-anchor="middle" x="535.12" y="-56.5" font-family="Helvetica,sans-Serif" font-size="10.00">::EBPF::EBPFExprStepper</text>
</a>
</g>
</g>
<!-- Node9&#45;&gt;Node11 -->
<g id="edge10_Node000009_Node000011" class="edge">
<title>Node9&#45;&gt;Node11</title>
<g id="a_edge10_Node000009_Node000011"><a xlink:title=" ">
<path fill="none" stroke="#63b8ff" d="M426.17,-81.88C439.59,-79.9 453.82,-77.81 467.41,-75.81"/>
<polygon fill="#63b8ff" stroke="#63b8ff" points="426.01,-78.36 416.63,-83.28 427.03,-85.29 426.01,-78.36"/>
</a>
</g>
</g>
<!-- Node12 -->
<g id="Node000012" class="node">
<title>Node12</title>
<g id="a_Node000012"><a xlink:href="class_p4_tools_1_1_p4_testgen_1_1_pna_1_1_shared_pna_expr_stepper.html" target="_top" xlink:title=" ">
<polygon fill="white" stroke="#bfbfbf" points="608.75,-32 461.5,-32 461.5,0 608.75,0 608.75,-32"/>
<text text-anchor="start" x="469.5" y="-18.5" font-family="Helvetica,sans-Serif" font-size="10.00">P4Tools::P4Testgen</text>
<text text-anchor="middle" x="535.12" y="-6.5" font-family="Helvetica,sans-Serif" font-size="10.00">::Pna::SharedPnaExprStepper</text>
</a>
</g>
</g>
<!-- Node9&#45;&gt;Node12 -->
<g id="edge11_Node000009_Node000012" class="edge">
<title>Node9&#45;&gt;Node12</title>
<g id="a_edge11_Node000009_Node000012"><a xlink:title=" ">
<path fill="none" stroke="#63b8ff" d="M398.86,-68.55C414.39,-59.17 433.17,-48.69 451,-41 458.2,-37.9 465.9,-35.02 473.6,-32.41"/>
<polygon fill="#63b8ff" stroke="#63b8ff" points="397.14,-65.5 390.46,-73.73 400.81,-71.46 397.14,-65.5"/>
</a>
</g>
</g>
<!-- Node13 -->
<g id="Node000013" class="node">
<title>Node13</title>
<g id="a_Node000013"><a xlink:href="class_p4_tools_1_1_p4_testgen_1_1_pna_1_1_pna_dpdk_expr_stepper.html" target="_top" xlink:title=" ">
<polygon fill="white" stroke="#bfbfbf" points="794.25,-32 655.25,-32 655.25,0 794.25,0 794.25,-32"/>
<text text-anchor="start" x="663.25" y="-18.5" font-family="Helvetica,sans-Serif" font-size="10.00">P4Tools::P4Testgen</text>
<text text-anchor="middle" x="724.75" y="-6.5" font-family="Helvetica,sans-Serif" font-size="10.00">::Pna::PnaDpdkExprStepper</text>
</a>
</g>
</g>
<!-- Node12&#45;&gt;Node13 -->
<g id="edge12_Node000012_Node000013" class="edge">
<title>Node12&#45;&gt;Node13</title>
<g id="a_edge12_Node000012_Node000013"><a xlink:title=" ">
<path fill="none" stroke="#63b8ff" d="M620.58,-16C632.05,-16 643.71,-16 654.86,-16"/>
<polygon fill="#63b8ff" stroke="#63b8ff" points="620.72,-12.5 610.72,-16 620.72,-19.5 620.72,-12.5"/>
</a>
</g>
</g>
</g>
</svg>
