<?xml version="1.0" encoding="UTF-8" standalone="no"?>
<!DOCTYPE svg PUBLIC "-//W3C//DTD SVG 1.1//EN"
 "http://www.w3.org/Graphics/SVG/1.1/DTD/svg11.dtd">
<!-- Generated by graphviz version 10.0.1 (20240210.2158)
 -->
<!-- Title: P4::SymbolicError Pages: 1 -->
<svg width="266pt" height="252pt"
 viewBox="0.00 0.00 265.50 252.00" xmlns="http://www.w3.org/2000/svg" xmlns:xlink="http://www.w3.org/1999/xlink">
<g id="graph0" class="graph" transform="scale(1 1) rotate(0) translate(4 248)">
<title>P4::SymbolicError</title>
<!-- Node1 -->
<g id="Node000001" class="node">
<title>Node1</title>
<g id="a_Node000001"><a xlink:title=" ">
<polygon fill="#999999" stroke="#666666" points="175.75,-76 80.25,-76 80.25,-56 175.75,-56 175.75,-76"/>
<text text-anchor="middle" x="128" y="-62.5" font-family="Helvetica,sans-Serif" font-size="10.00">P4::SymbolicError</text>
</a>
</g>
</g>
<!-- Node6 -->
<g id="Node000006" class="node">
<title>Node6</title>
<g id="a_Node000006"><a xlink:href="class_p4_1_1_symbolic_exception.html" target="_top" xlink:title=" ">
<polygon fill="white" stroke="#bfbfbf" points="118,-20 0,-20 0,0 118,0 118,-20"/>
<text text-anchor="middle" x="59" y="-6.5" font-family="Helvetica,sans-Serif" font-size="10.00">P4::SymbolicException</text>
</a>
</g>
</g>
<!-- Node1&#45;&gt;Node6 -->
<g id="edge5_Node000001_Node000006" class="edge">
<title>Node1&#45;&gt;Node6</title>
<g id="a_edge5_Node000001_Node000006"><a xlink:title=" ">
<path fill="none" stroke="#63b8ff" d="M107.15,-48.68C95.27,-39.39 80.83,-28.09 70.88,-20.3"/>
<polygon fill="#63b8ff" stroke="#63b8ff" points="104.76,-51.25 114.79,-54.66 109.07,-45.74 104.76,-51.25"/>
</a>
</g>
</g>
<!-- Node7 -->
<g id="Node000007" class="node">
<title>Node7</title>
<g id="a_Node000007"><a xlink:href="class_p4_1_1_symbolic_static_error.html" target="_top" xlink:title=" ">
<polygon fill="white" stroke="#bfbfbf" points="257.5,-20 136.5,-20 136.5,0 257.5,0 257.5,-20"/>
<text text-anchor="middle" x="197" y="-6.5" font-family="Helvetica,sans-Serif" font-size="10.00">P4::SymbolicStaticError</text>
</a>
</g>
</g>
<!-- Node1&#45;&gt;Node7 -->
<g id="edge6_Node000001_Node000007" class="edge">
<title>Node1&#45;&gt;Node7</title>
<g id="a_edge6_Node000001_Node000007"><a xlink:title=" ">
<path fill="none" stroke="#63b8ff" d="M148.85,-48.68C160.73,-39.39 175.17,-28.09 185.12,-20.3"/>
<polygon fill="#63b8ff" stroke="#63b8ff" points="146.93,-45.74 141.21,-54.66 151.24,-51.25 146.93,-45.74"/>
</a>
</g>
</g>
<!-- Node2 -->
<g id="Node000002" class="node">
<title>Node2</title>
<g id="a_Node000002"><a xlink:href="class_p4_1_1_symbolic_value.html" target="_top" xlink:title=" ">
<polygon fill="white" stroke="#bfbfbf" points="177.62,-132 78.38,-132 78.38,-112 177.62,-112 177.62,-132"/>
<text text-anchor="middle" x="128" y="-118.5" font-family="Helvetica,sans-Serif" font-size="10.00">P4::SymbolicValue</text>
</a>
</g>
</g>
<!-- Node2&#45;&gt;Node1 -->
<g id="edge1_Node000001_Node000002" class="edge">
<title>Node2&#45;&gt;Node1</title>
<g id="a_edge1_Node000001_Node000002"><a xlink:title=" ">
<path fill="none" stroke="#63b8ff" d="M128,-100.13C128,-91.9 128,-82.85 128,-76.3"/>
<polygon fill="#63b8ff" stroke="#63b8ff" points="124.5,-100.08 128,-110.08 131.5,-100.08 124.5,-100.08"/>
</a>
</g>
</g>
<!-- Node3 -->
<g id="Node000003" class="node">
<title>Node3</title>
<g id="a_Node000003"><a xlink:href="class_i_has_db_print.html" target="_top" xlink:title=" ">
<polygon fill="white" stroke="#bfbfbf" points="121.88,-188 54.12,-188 54.12,-168 121.88,-168 121.88,-188"/>
<text text-anchor="middle" x="88" y="-174.5" font-family="Helvetica,sans-Serif" font-size="10.00">IHasDbPrint</text>
</a>
</g>
</g>
<!-- Node3&#45;&gt;Node2 -->
<g id="edge2_Node000002_Node000003" class="edge">
<title>Node3&#45;&gt;Node2</title>
<g id="a_edge2_Node000002_Node000003"><a xlink:title=" ">
<path fill="none" stroke="#63b8ff" d="M101.75,-158.44C108.28,-149.62 115.8,-139.47 121.11,-132.3"/>
<polygon fill="#63b8ff" stroke="#63b8ff" points="99.01,-156.26 95.87,-166.38 104.63,-160.43 99.01,-156.26"/>
</a>
</g>
</g>
<!-- Node4 -->
<g id="Node000004" class="node">
<title>Node4</title>
<g id="a_Node000004"><a xlink:href="class_i_castable.html" target="_top" xlink:title=" ">
<polygon fill="white" stroke="#666666" points="196.25,-188 139.75,-188 139.75,-168 196.25,-168 196.25,-188"/>
<text text-anchor="middle" x="168" y="-174.5" font-family="Helvetica,sans-Serif" font-size="10.00">ICastable</text>
</a>
</g>
</g>
<!-- Node4&#45;&gt;Node2 -->
<g id="edge3_Node000002_Node000004" class="edge">
<title>Node4&#45;&gt;Node2</title>
<g id="a_edge3_Node000002_Node000004"><a xlink:title=" ">
<path fill="none" stroke="#63b8ff" d="M154.25,-158.44C147.72,-149.62 140.2,-139.47 134.89,-132.3"/>
<polygon fill="#63b8ff" stroke="#63b8ff" points="151.37,-160.43 160.13,-166.38 156.99,-156.26 151.37,-160.43"/>
</a>
</g>
</g>
<!-- Node5 -->
<g id="Node000005" class="node">
<title>Node5</title>
<g id="a_Node000005"><a xlink:href="struct_r_t_t_i_1_1_base.html" target="_top" xlink:title=" ">
<polygon fill="white" stroke="#bfbfbf" points="200,-244 136,-244 136,-224 200,-224 200,-244"/>
<text text-anchor="middle" x="168" y="-230.5" font-family="Helvetica,sans-Serif" font-size="10.00">RTTI::Base</text>
</a>
</g>
</g>
<!-- Node5&#45;&gt;Node4 -->
<g id="edge4_Node000004_Node000005" class="edge">
<title>Node5&#45;&gt;Node4</title>
<g id="a_edge4_Node000004_Node000005"><a xlink:title=" ">
<path fill="none" stroke="#63b8ff" d="M168,-212.13C168,-203.9 168,-194.85 168,-188.3"/>
<polygon fill="#63b8ff" stroke="#63b8ff" points="164.5,-212.08 168,-222.08 171.5,-212.08 164.5,-212.08"/>
</a>
</g>
</g>
</g>
</svg>
