<?xml version="1.0" encoding="UTF-8" standalone="no"?>
<!DOCTYPE svg PUBLIC "-//W3C//DTD SVG 1.1//EN"
 "http://www.w3.org/Graphics/SVG/1.1/DTD/svg11.dtd">
<!-- Generated by graphviz version 10.0.1 (20240210.2158)
 -->
<!-- Title: Visitor Pages: 1 -->
<svg width="403pt" height="1692pt"
 viewBox="0.00 0.00 402.50 1692.44" xmlns="http://www.w3.org/2000/svg" xmlns:xlink="http://www.w3.org/1999/xlink">
<g id="graph0" class="graph" transform="scale(1 1) rotate(0) translate(4 1688.44)">
<title>Visitor</title>
<!-- Node1 -->
<g id="Node000001" class="node">
<title>Node1</title>
<g id="a_Node000001"><a xlink:title=" ">
<polygon fill="#999999" stroke="#666666" points="43.75,-241 0,-241 0,-221 43.75,-221 43.75,-241"/>
<text text-anchor="middle" x="21.88" y="-227.5" font-family="Helvetica,sans-Serif" font-size="10.00">Visitor</text>
</a>
</g>
</g>
<!-- Node2 -->
<g id="Node000002" class="node">
<title>Node2</title>
<g id="a_Node000002"><a xlink:href="class_backtrack.html" target="_top" xlink:title=" ">
<polygon fill="white" stroke="#bfbfbf" points="166.62,-1636 106.38,-1636 106.38,-1616 166.62,-1616 166.62,-1636"/>
<text text-anchor="middle" x="136.5" y="-1622.5" font-family="Helvetica,sans-Serif" font-size="10.00">Backtrack</text>
</a>
</g>
</g>
<!-- Node1&#45;&gt;Node2 -->
<g id="edge1_Node000001_Node000002" class="edge">
<title>Node1&#45;&gt;Node2</title>
<g id="a_edge1_Node000001_Node000002"><a xlink:title=" ">
<path fill="none" stroke="#63b8ff" d="M23.28,-252.83C25.47,-362.05 37.43,-859.92 79.75,-1265 94.34,-1404.71 125.42,-1572.91 133.53,-1615.71"/>
<polygon fill="#63b8ff" stroke="#63b8ff" points="26.78,-252.92 23.09,-242.99 19.78,-253.05 26.78,-252.92"/>
</a>
</g>
</g>
<!-- Node3 -->
<g id="Node000003" class="node">
<title>Node3</title>
<g id="a_Node000003"><a xlink:href="class_on_backtrack.html" target="_top" xlink:title=" ">
<polygon fill="white" stroke="#bfbfbf" points="360,-1674 263.75,-1674 263.75,-1654 360,-1654 360,-1674"/>
<text text-anchor="middle" x="311.88" y="-1660.5" font-family="Helvetica,sans-Serif" font-size="10.00">OnBacktrack&lt; T &gt;</text>
</a>
</g>
</g>
<!-- Node1&#45;&gt;Node3 -->
<g id="edge45_Node000001_Node000003" class="edge">
<title>Node1&#45;&gt;Node3</title>
<g id="a_edge45_Node000001_Node000003"><a xlink:title=" ">
<path fill="none" stroke="#63b8ff" d="M22.94,-252.45C23.53,-425.81 29.38,-1592.48 79.75,-1645 128.94,-1696.29 220.16,-1685.89 272.08,-1674.48"/>
<polygon fill="#63b8ff" stroke="#63b8ff" points="26.44,-252.65 22.91,-242.67 19.44,-252.68 26.44,-252.65"/>
</a>
</g>
</g>
<!-- Node4 -->
<g id="Node000004" class="node">
<title>Node4</title>
<g id="a_Node000004"><a xlink:href="class_pass_manager.html" target="_top" xlink:title=" ">
<polygon fill="white" stroke="orangered" points="349.88,-1636 273.88,-1636 273.88,-1616 349.88,-1616 349.88,-1636"/>
<text text-anchor="middle" x="311.88" y="-1622.5" font-family="Helvetica,sans-Serif" font-size="10.00">PassManager</text>
</a>
</g>
</g>
<!-- Node1&#45;&gt;Node4 -->
<g id="edge52_Node000001_Node000004" class="edge">
<title>Node1&#45;&gt;Node4</title>
<g id="a_edge52_Node000001_Node000004"><a xlink:title=" ">
<path fill="none" stroke="#63b8ff" d="M23.77,-252.55C27.44,-335.69 42.86,-643.38 79.75,-894 126.9,-1214.33 2.84,-1375.55 229.25,-1607 240.75,-1618.75 258,-1623.83 273.68,-1625.84"/>
<polygon fill="#63b8ff" stroke="#63b8ff" points="27.28,-252.53 23.35,-242.69 20.28,-252.83 27.28,-252.53"/>
</a>
</g>
</g>
<!-- Node114 -->
<g id="Node000114" class="node">
<title>Node114</title>
<g id="a_Node000114"><a xlink:href="class_control_flow_visitor.html" target="_top" xlink:title=" ">
<polygon fill="white" stroke="#bfbfbf" points="183.88,-260 89.12,-260 89.12,-240 183.88,-240 183.88,-260"/>
<text text-anchor="middle" x="136.5" y="-246.5" font-family="Helvetica,sans-Serif" font-size="10.00">ControlFlowVisitor</text>
</a>
</g>
</g>
<!-- Node1&#45;&gt;Node114 -->
<g id="edge4_Node000001_Node000114" class="edge">
<title>Node1&#45;&gt;Node114</title>
<g id="a_edge4_Node000001_Node000114"><a xlink:title=" ">
<path fill="none" stroke="#63b8ff" d="M55.19,-236.45C65.64,-238.21 77.46,-240.21 88.74,-242.11"/>
<polygon fill="#63b8ff" stroke="#63b8ff" points="55.99,-233.04 45.55,-234.83 54.83,-239.94 55.99,-233.04"/>
</a>
</g>
</g>
<!-- Node117 -->
<g id="Node000117" class="node">
<title>Node117</title>
<g id="a_Node000117"><a xlink:href="class_dynamic_visitor.html" target="_top" xlink:title=" ">
<polygon fill="white" stroke="#bfbfbf" points="177.5,-146 95.5,-146 95.5,-126 177.5,-126 177.5,-146"/>
<text text-anchor="middle" x="136.5" y="-132.5" font-family="Helvetica,sans-Serif" font-size="10.00">DynamicVisitor</text>
</a>
</g>
</g>
<!-- Node1&#45;&gt;Node117 -->
<g id="edge7_Node000001_Node000117" class="edge">
<title>Node1&#45;&gt;Node117</title>
<g id="a_edge7_Node000001_Node000117"><a xlink:title=" ">
<path fill="none" stroke="#63b8ff" d="M33.3,-210.98C43.15,-193.88 59.44,-169.76 79.75,-155 84.47,-151.57 89.84,-148.73 95.36,-146.38"/>
<polygon fill="#63b8ff" stroke="#63b8ff" points="30.51,-208.8 28.75,-219.25 36.64,-212.18 30.51,-208.8"/>
</a>
</g>
</g>
<!-- Node118 -->
<g id="Node000118" class="node">
<title>Node118</title>
<g id="a_Node000118"><a xlink:href="class_inspector.html" target="_top" xlink:title=" ">
<polygon fill="white" stroke="orangered" points="164.38,-885 108.62,-885 108.62,-865 164.38,-865 164.38,-885"/>
<text text-anchor="middle" x="136.5" y="-871.5" font-family="Helvetica,sans-Serif" font-size="10.00">Inspector</text>
</a>
</g>
</g>
<!-- Node1&#45;&gt;Node118 -->
<g id="edge8_Node000001_Node000118" class="edge">
<title>Node1&#45;&gt;Node118</title>
<g id="a_edge8_Node000001_Node000118"><a xlink:title=" ">
<path fill="none" stroke="#63b8ff" d="M26.67,-252.7C44.67,-355.65 121.14,-792.87 133.74,-864.93"/>
<polygon fill="#63b8ff" stroke="#63b8ff" points="30.12,-252.11 24.95,-242.87 23.23,-253.32 30.12,-252.11"/>
</a>
</g>
</g>
<!-- Node297 -->
<g id="Node000297" class="node">
<title>Node297</title>
<g id="a_Node000297"><a xlink:href="class_modifier.html" target="_top" xlink:title=" ">
<polygon fill="white" stroke="orangered" points="161.38,-108 111.62,-108 111.62,-88 161.38,-88 161.38,-108"/>
<text text-anchor="middle" x="136.5" y="-94.5" font-family="Helvetica,sans-Serif" font-size="10.00">Modifier</text>
</a>
</g>
</g>
<!-- Node1&#45;&gt;Node297 -->
<g id="edge44_Node000001_Node000297" class="edge">
<title>Node1&#45;&gt;Node297</title>
<g id="a_edge44_Node000001_Node000297"><a xlink:title=" ">
<path fill="none" stroke="#63b8ff" d="M28.21,-209.5C35.62,-183.97 51.41,-141.77 79.75,-117 88.53,-109.33 100.54,-104.72 111.17,-101.97"/>
<polygon fill="#63b8ff" stroke="#63b8ff" points="24.85,-208.51 25.63,-219.07 31.61,-210.33 24.85,-208.51"/>
</a>
</g>
</g>
<!-- Node310 -->
<g id="Node000310" class="node">
<title>Node310</title>
<g id="a_Node000310"><a xlink:href="class_p4_1_1_inline_driver.html" target="_top" xlink:title=" ">
<polygon fill="white" stroke="#bfbfbf" points="192.5,-70 80.5,-70 80.5,-38 192.5,-38 192.5,-70"/>
<text text-anchor="start" x="88.5" y="-56.5" font-family="Helvetica,sans-Serif" font-size="10.00">P4::InlineDriver&lt; Inline</text>
<text text-anchor="middle" x="136.5" y="-44.5" font-family="Helvetica,sans-Serif" font-size="10.00">List, InlineWorkList &gt;</text>
</a>
</g>
</g>
<!-- Node1&#45;&gt;Node310 -->
<g id="edge46_Node000001_Node000310" class="edge">
<title>Node1&#45;&gt;Node310</title>
<g id="a_edge46_Node000001_Node000310"><a xlink:title=" ">
<path fill="none" stroke="#63b8ff" d="M25.6,-209.54C30.74,-177.35 44.69,-116.36 79.75,-79 82.8,-75.75 86.35,-72.9 90.15,-70.39"/>
<polygon fill="#63b8ff" stroke="#63b8ff" points="22.17,-208.82 24.21,-219.22 29.1,-209.82 22.17,-208.82"/>
</a>
</g>
</g>
<!-- Node311 -->
<g id="Node000311" class="node">
<title>Node311</title>
<g id="a_Node000311"><a xlink:href="class_p4_1_1_resolution_context.html" target="_top" xlink:title="Visitor mixin for looking up names in enclosing scopes from the Visitor::Context.">
<polygon fill="#fff0f0" stroke="red" points="193.25,-298 79.75,-298 79.75,-278 193.25,-278 193.25,-298"/>
<text text-anchor="middle" x="136.5" y="-284.5" font-family="Helvetica,sans-Serif" font-size="10.00">P4::ResolutionContext</text>
</a>
</g>
</g>
<!-- Node1&#45;&gt;Node311 -->
<g id="edge47_Node000001_Node000311" class="edge">
<title>Node1&#45;&gt;Node311</title>
<g id="a_edge47_Node000001_Node000311"><a xlink:title=" ">
<path fill="none" stroke="#63b8ff" d="M45.57,-248.15C55.67,-255.24 67.93,-263.16 79.75,-269 86.17,-272.17 93.24,-275.03 100.14,-277.5"/>
<polygon fill="#63b8ff" stroke="#63b8ff" points="47.67,-245.34 37.51,-242.32 43.56,-251.01 47.67,-245.34"/>
</a>
</g>
</g>
<!-- Node312 -->
<g id="Node000312" class="node">
<title>Node312</title>
<g id="a_Node000312"><a xlink:href="class_p4_write_context.html" target="_top" xlink:title=" ">
<polygon fill="white" stroke="orangered" points="179,-222 94,-222 94,-202 179,-202 179,-222"/>
<text text-anchor="middle" x="136.5" y="-208.5" font-family="Helvetica,sans-Serif" font-size="10.00">P4WriteContext</text>
</a>
</g>
</g>
<!-- Node1&#45;&gt;Node312 -->
<g id="edge49_Node000001_Node000312" class="edge">
<title>Node1&#45;&gt;Node312</title>
<g id="a_edge49_Node000001_Node000312"><a xlink:title=" ">
<path fill="none" stroke="#63b8ff" d="M55.37,-225.52C67.39,-223.49 81.17,-221.17 93.88,-219.02"/>
<polygon fill="#63b8ff" stroke="#63b8ff" points="54.83,-222.06 45.55,-227.17 55.99,-228.96 54.83,-222.06"/>
</a>
</g>
</g>
<!-- Node318 -->
<g id="Node000318" class="node">
<title>Node318</title>
<g id="a_Node000318"><a xlink:href="class_transform.html" target="_top" xlink:title=" ">
<polygon fill="white" stroke="orangered" points="165.88,-184 107.12,-184 107.12,-164 165.88,-164 165.88,-184"/>
<text text-anchor="middle" x="136.5" y="-170.5" font-family="Helvetica,sans-Serif" font-size="10.00">Transform</text>
</a>
</g>
</g>
<!-- Node1&#45;&gt;Node318 -->
<g id="edge53_Node000001_Node000318" class="edge">
<title>Node1&#45;&gt;Node318</title>
<g id="a_edge53_Node000001_Node000318"><a xlink:title=" ">
<path fill="none" stroke="#63b8ff" d="M45.57,-213.85C55.67,-206.76 67.93,-198.84 79.75,-193 88.28,-188.79 97.97,-185.13 106.85,-182.18"/>
<polygon fill="#63b8ff" stroke="#63b8ff" points="43.56,-210.99 37.51,-219.68 47.67,-216.66 43.56,-210.99"/>
</a>
</g>
</g>
<!-- Node489 -->
<g id="Node000489" class="node">
<title>Node489</title>
<g id="a_Node000489"><a xlink:href="class_visit_functor.html" target="_top" xlink:title=" ">
<polygon fill="white" stroke="#bfbfbf" points="170.75,-20 102.25,-20 102.25,0 170.75,0 170.75,-20"/>
<text text-anchor="middle" x="136.5" y="-6.5" font-family="Helvetica,sans-Serif" font-size="10.00">VisitFunctor</text>
</a>
</g>
</g>
<!-- Node1&#45;&gt;Node489 -->
<g id="edge55_Node000001_Node000489" class="edge">
<title>Node1&#45;&gt;Node489</title>
<g id="a_edge55_Node000001_Node000489"><a xlink:title=" ">
<path fill="none" stroke="#63b8ff" d="M22.74,-209.09C23.69,-168.2 31.59,-79.83 79.75,-29 85.66,-22.76 93.69,-18.58 101.82,-15.76"/>
<polygon fill="#63b8ff" stroke="#63b8ff" points="19.24,-209.04 22.65,-219.07 26.24,-209.1 19.24,-209.04"/>
</a>
</g>
</g>
<!-- Node2&#45;&gt;Node3 -->
<g id="edge2_Node000002_Node000003" class="edge">
<title>Node2&#45;&gt;Node3</title>
<g id="a_edge2_Node000002_Node000003"><a xlink:title=" ">
<path fill="none" stroke="#63b8ff" d="M178.05,-1634.89C203.54,-1640.48 236.56,-1647.71 263.29,-1653.57"/>
<polygon fill="#63b8ff" stroke="#63b8ff" points="178.91,-1631.49 168.39,-1632.77 177.41,-1638.33 178.91,-1631.49"/>
</a>
</g>
</g>
<!-- Node2&#45;&gt;Node4 -->
<g id="edge3_Node000002_Node000004" class="edge">
<title>Node2&#45;&gt;Node4</title>
<g id="a_edge3_Node000002_Node000004"><a xlink:title=" ">
<path fill="none" stroke="#63b8ff" d="M178.23,-1626C207.04,-1626 245.39,-1626 273.44,-1626"/>
<polygon fill="#63b8ff" stroke="#63b8ff" points="178.42,-1622.5 168.42,-1626 178.42,-1629.5 178.42,-1622.5"/>
</a>
</g>
</g>
<!-- Node115 -->
<g id="Node000115" class="node">
<title>Node115</title>
<g id="a_Node000115"><a xlink:href="class_p4_1_1_compute_def_use.html" target="_top" xlink:title="Compute defuse info within P4Parser and P4Control blocks in the midend.">
<polygon fill="white" stroke="#666666" points="364.12,-222 259.62,-222 259.62,-202 364.12,-202 364.12,-222"/>
<text text-anchor="middle" x="311.88" y="-208.5" font-family="Helvetica,sans-Serif" font-size="10.00">P4::ComputeDefUse</text>
</a>
</g>
</g>
<!-- Node114&#45;&gt;Node115 -->
<g id="edge5_Node000114_Node000115" class="edge">
<title>Node114&#45;&gt;Node115</title>
<g id="a_edge5_Node000114_Node000115"><a xlink:title=" ">
<path fill="none" stroke="#63b8ff" d="M195.19,-237.36C217.22,-232.53 242.07,-227.08 263.08,-222.48"/>
<polygon fill="#63b8ff" stroke="#63b8ff" points="194.46,-233.93 185.44,-239.49 195.96,-240.77 194.46,-233.93"/>
</a>
</g>
</g>
<!-- Node116 -->
<g id="Node000116" class="node">
<title>Node116</title>
<g id="a_Node000116"><a xlink:href="class_p4_1_1_do_local_copy_propagation.html" target="_top" xlink:title=" ">
<polygon fill="white" stroke="#666666" points="383.62,-184 240.12,-184 240.12,-164 383.62,-164 383.62,-184"/>
<text text-anchor="middle" x="311.88" y="-170.5" font-family="Helvetica,sans-Serif" font-size="10.00">P4::DoLocalCopyPropagation</text>
</a>
</g>
</g>
<!-- Node114&#45;&gt;Node116 -->
<g id="edge6_Node000114_Node000116" class="edge">
<title>Node114&#45;&gt;Node116</title>
<g id="a_edge6_Node000114_Node000116"><a xlink:title=" ">
<path fill="none" stroke="#63b8ff" d="M186.56,-234.85C188.87,-233.65 191.12,-232.37 193.25,-231 212.83,-218.44 209.07,-204.57 229.25,-193 235.31,-189.53 241.97,-186.69 248.78,-184.37"/>
<polygon fill="#63b8ff" stroke="#63b8ff" points="185.16,-231.64 177.5,-238.96 188.06,-238.02 185.16,-231.64"/>
</a>
</g>
</g>
<!-- Node118&#45;&gt;Node115 -->
<g id="edge43_Node000118_Node000115" class="edge">
<title>Node118&#45;&gt;Node115</title>
<g id="a_edge43_Node000118_Node000115"><a xlink:title=" ">
<path fill="none" stroke="#63b8ff" d="M139.15,-853.27C147.45,-746.21 186.03,-278.16 229.25,-231 237.11,-222.42 248.03,-217.34 259.33,-214.42"/>
<polygon fill="#63b8ff" stroke="#63b8ff" points="135.66,-852.97 138.38,-863.21 142.64,-853.51 135.66,-852.97"/>
</a>
</g>
</g>
<!-- Node119 -->
<g id="Node000119" class="node">
<title>Node119</title>
<g id="a_Node000119"><a xlink:href="class_b_m_v2_1_1_action_converter.html" target="_top" xlink:title=" ">
<polygon fill="white" stroke="#bfbfbf" points="370.5,-1106 253.25,-1106 253.25,-1086 370.5,-1086 370.5,-1106"/>
<text text-anchor="middle" x="311.88" y="-1092.5" font-family="Helvetica,sans-Serif" font-size="10.00">BMV2::ActionConverter</text>
</a>
</g>
</g>
<!-- Node118&#45;&gt;Node119 -->
<g id="edge9_Node000118_Node000119" class="edge">
<title>Node118&#45;&gt;Node119</title>
<g id="a_edge9_Node000118_Node000119"><a xlink:title=" ">
<path fill="none" stroke="#63b8ff" d="M140.88,-896.51C148.58,-938.11 171.48,-1029.65 229.25,-1077 236.11,-1082.63 244.34,-1086.65 252.89,-1089.52"/>
<polygon fill="#63b8ff" stroke="#63b8ff" points="144.35,-896.06 139.21,-886.8 137.45,-897.25 144.35,-896.06"/>
</a>
</g>
</g>
<!-- Node120 -->
<g id="Node000120" class="node">
<title>Node120</title>
<g id="a_Node000120"><a xlink:href="class_b_m_v2_1_1_build_resource_map.html" target="_top" xlink:title=" ">
<polygon fill="white" stroke="#bfbfbf" points="377.25,-1068 246.5,-1068 246.5,-1048 377.25,-1048 377.25,-1068"/>
<text text-anchor="middle" x="311.88" y="-1054.5" font-family="Helvetica,sans-Serif" font-size="10.00">BMV2::BuildResourceMap</text>
</a>
</g>
</g>
<!-- Node118&#45;&gt;Node120 -->
<g id="edge10_Node000118_Node000120" class="edge">
<title>Node118&#45;&gt;Node120</title>
<g id="a_edge10_Node000118_Node000120"><a xlink:title=" ">
<path fill="none" stroke="#63b8ff" d="M143.28,-896.35C154.02,-931.76 180.5,-1002.34 229.25,-1039 234.37,-1042.85 240.14,-1045.93 246.18,-1048.41"/>
<polygon fill="#63b8ff" stroke="#63b8ff" points="146.68,-895.51 140.55,-886.86 139.95,-897.44 146.68,-895.51"/>
</a>
</g>
</g>
<!-- Node121 -->
<g id="Node000121" class="node">
<title>Node121</title>
<g id="a_Node000121"><a xlink:href="class_b_m_v2_1_1_control_converter.html" target="_top" xlink:title=" ">
<polygon fill="white" stroke="#bfbfbf" points="372,-1030 251.75,-1030 251.75,-998 372,-998 372,-1030"/>
<text text-anchor="start" x="259.75" y="-1016.5" font-family="Helvetica,sans-Serif" font-size="10.00">BMV2::ControlConverter</text>
<text text-anchor="middle" x="311.88" y="-1004.5" font-family="Helvetica,sans-Serif" font-size="10.00">&lt; arch &gt;</text>
</a>
</g>
</g>
<!-- Node118&#45;&gt;Node121 -->
<g id="edge11_Node000118_Node000121" class="edge">
<title>Node118&#45;&gt;Node121</title>
<g id="a_edge11_Node000118_Node000121"><a xlink:title=" ">
<path fill="none" stroke="#63b8ff" d="M148.41,-894.91C163.37,-920.39 192.62,-964.2 229.25,-989 236,-993.57 243.62,-997.33 251.42,-1000.42"/>
<polygon fill="#63b8ff" stroke="#63b8ff" points="151.63,-893.5 143.64,-886.54 145.55,-896.96 151.63,-893.5"/>
</a>
</g>
</g>
<!-- Node122 -->
<g id="Node000122" class="node">
<title>Node122</title>
<g id="a_Node000122"><a xlink:href="class_b_m_v2_1_1_convert_globals.html" target="_top" xlink:title=" ">
<polygon fill="white" stroke="#bfbfbf" points="369,-980 254.75,-980 254.75,-960 369,-960 369,-980"/>
<text text-anchor="middle" x="311.88" y="-966.5" font-family="Helvetica,sans-Serif" font-size="10.00">BMV2::ConvertGlobals</text>
</a>
</g>
</g>
<!-- Node118&#45;&gt;Node122 -->
<g id="edge12_Node000118_Node000122" class="edge">
<title>Node118&#45;&gt;Node122</title>
<g id="a_edge12_Node000118_Node000122"><a xlink:title=" ">
<path fill="none" stroke="#63b8ff" d="M154.82,-893.66C172.05,-911.09 200.06,-936.53 229.25,-951 237.07,-954.88 245.71,-957.98 254.35,-960.46"/>
<polygon fill="#63b8ff" stroke="#63b8ff" points="157.35,-891.24 147.9,-886.46 152.31,-896.09 157.35,-891.24"/>
</a>
</g>
</g>
<!-- Node123 -->
<g id="Node000123" class="node">
<title>Node123</title>
<g id="a_Node000123"><a xlink:href="class_b_m_v2_1_1_convert_psa_to_json.html" target="_top" xlink:title=" ">
<polygon fill="white" stroke="#bfbfbf" points="376.5,-942 247.25,-942 247.25,-922 376.5,-922 376.5,-942"/>
<text text-anchor="middle" x="311.88" y="-928.5" font-family="Helvetica,sans-Serif" font-size="10.00">BMV2::ConvertPsaToJson</text>
</a>
</g>
</g>
<!-- Node118&#45;&gt;Node123 -->
<g id="edge13_Node000118_Node000123" class="edge">
<title>Node118&#45;&gt;Node123</title>
<g id="a_edge13_Node000118_Node000123"><a xlink:title=" ">
<path fill="none" stroke="#63b8ff" d="M169.9,-889.94C187.25,-897.56 209.13,-906.54 229.25,-913 239.09,-916.16 249.74,-919.03 260.01,-921.52"/>
<polygon fill="#63b8ff" stroke="#63b8ff" points="171.68,-886.91 161.12,-886.03 168.83,-893.3 171.68,-886.91"/>
</a>
</g>
</g>
<!-- Node124 -->
<g id="Node000124" class="node">
<title>Node124</title>
<g id="a_Node000124"><a xlink:href="class_b_m_v2_1_1_deparser_converter.html" target="_top" xlink:title=" ">
<polygon fill="white" stroke="#bfbfbf" points="376.12,-904 247.62,-904 247.62,-884 376.12,-884 376.12,-904"/>
<text text-anchor="middle" x="311.88" y="-890.5" font-family="Helvetica,sans-Serif" font-size="10.00">BMV2::DeparserConverter</text>
</a>
</g>
</g>
<!-- Node118&#45;&gt;Node124 -->
<g id="edge14_Node000118_Node000124" class="edge">
<title>Node118&#45;&gt;Node124</title>
<g id="a_edge14_Node000118_Node000124"><a xlink:title=" ">
<path fill="none" stroke="#63b8ff" d="M175.92,-879.21C196.88,-881.51 223.36,-884.41 247.3,-887.03"/>
<polygon fill="#63b8ff" stroke="#63b8ff" points="176.42,-875.74 166.09,-878.13 175.65,-882.7 176.42,-875.74"/>
</a>
</g>
</g>
<!-- Node125 -->
<g id="Node000125" class="node">
<title>Node125</title>
<g id="a_Node000125"><a xlink:href="class_b_m_v2_1_1_discover_structure.html" target="_top" xlink:title=" ">
<polygon fill="white" stroke="#bfbfbf" points="374.62,-866 249.12,-866 249.12,-846 374.62,-846 374.62,-866"/>
<text text-anchor="middle" x="311.88" y="-852.5" font-family="Helvetica,sans-Serif" font-size="10.00">BMV2::DiscoverStructure</text>
</a>
</g>
</g>
<!-- Node118&#45;&gt;Node125 -->
<g id="edge15_Node000118_Node000125" class="edge">
<title>Node118&#45;&gt;Node125</title>
<g id="a_edge15_Node000118_Node000125"><a xlink:title=" ">
<path fill="none" stroke="#63b8ff" d="M175.83,-870.8C197.23,-868.45 224.41,-865.48 248.77,-862.81"/>
<polygon fill="#63b8ff" stroke="#63b8ff" points="175.65,-867.3 166.09,-871.87 176.42,-874.26 175.65,-867.3"/>
</a>
</g>
</g>
<!-- Node126 -->
<g id="Node000126" class="node">
<title>Node126</title>
<g id="a_Node000126"><a xlink:href="class_b_m_v2_1_1_expression_converter.html" target="_top" xlink:title=" ">
<polygon fill="white" stroke="orangered" points="381,-828 242.75,-828 242.75,-808 381,-808 381,-828"/>
<text text-anchor="middle" x="311.88" y="-814.5" font-family="Helvetica,sans-Serif" font-size="10.00">BMV2::ExpressionConverter</text>
</a>
</g>
</g>
<!-- Node118&#45;&gt;Node126 -->
<g id="edge16_Node000118_Node000126" class="edge">
<title>Node118&#45;&gt;Node126</title>
<g id="a_edge16_Node000118_Node000126"><a xlink:title=" ">
<path fill="none" stroke="#63b8ff" d="M169.9,-860.06C187.25,-852.44 209.13,-843.46 229.25,-837 239.09,-833.84 249.74,-830.97 260.01,-828.48"/>
<polygon fill="#63b8ff" stroke="#63b8ff" points="168.83,-856.7 161.12,-863.97 171.68,-863.09 168.83,-856.7"/>
</a>
</g>
</g>
<!-- Node129 -->
<g id="Node000129" class="node">
<title>Node129</title>
<g id="a_Node000129"><a xlink:href="class_b_m_v2_1_1_header_converter.html" target="_top" xlink:title=" ">
<polygon fill="white" stroke="#bfbfbf" points="372,-790 251.75,-790 251.75,-770 372,-770 372,-790"/>
<text text-anchor="middle" x="311.88" y="-776.5" font-family="Helvetica,sans-Serif" font-size="10.00">BMV2::HeaderConverter</text>
</a>
</g>
</g>
<!-- Node118&#45;&gt;Node129 -->
<g id="edge17_Node000118_Node000129" class="edge">
<title>Node118&#45;&gt;Node129</title>
<g id="a_edge17_Node000118_Node000129"><a xlink:title=" ">
<path fill="none" stroke="#63b8ff" d="M154.82,-856.34C172.05,-838.91 200.06,-813.47 229.25,-799 236.16,-795.57 243.71,-792.75 251.33,-790.43"/>
<polygon fill="#63b8ff" stroke="#63b8ff" points="152.31,-853.91 147.9,-863.54 157.35,-858.76 152.31,-853.91"/>
</a>
</g>
</g>
<!-- Node130 -->
<g id="Node000130" class="node">
<title>Node130</title>
<g id="a_Node000130"><a xlink:href="class_b_m_v2_1_1_inspect_psa_program.html" target="_top" xlink:title=" ">
<polygon fill="white" stroke="#bfbfbf" points="379.12,-752 244.62,-752 244.62,-732 379.12,-732 379.12,-752"/>
<text text-anchor="middle" x="311.88" y="-738.5" font-family="Helvetica,sans-Serif" font-size="10.00">BMV2::InspectPsaProgram</text>
</a>
</g>
</g>
<!-- Node118&#45;&gt;Node130 -->
<g id="edge18_Node000118_Node000130" class="edge">
<title>Node118&#45;&gt;Node130</title>
<g id="a_edge18_Node000118_Node000130"><a xlink:title=" ">
<path fill="none" stroke="#63b8ff" d="M148.16,-854.7C162.84,-828.79 191.79,-784.53 229.25,-761 234.79,-757.52 240.91,-754.67 247.23,-752.35"/>
<polygon fill="#63b8ff" stroke="#63b8ff" points="145.22,-852.78 143.48,-863.23 151.35,-856.15 145.22,-852.78"/>
</a>
</g>
</g>
<!-- Node131 -->
<g id="Node000131" class="node">
<title>Node131</title>
<g id="a_Node000131"><a xlink:href="class_b_m_v2_1_1_parse_psa_architecture.html" target="_top" xlink:title=" ">
<polygon fill="white" stroke="#bfbfbf" points="384,-714 239.75,-714 239.75,-694 384,-694 384,-714"/>
<text text-anchor="middle" x="311.88" y="-700.5" font-family="Helvetica,sans-Serif" font-size="10.00">BMV2::ParsePsaArchitecture</text>
</a>
</g>
</g>
<!-- Node118&#45;&gt;Node131 -->
<g id="edge19_Node000118_Node000131" class="edge">
<title>Node118&#45;&gt;Node131</title>
<g id="a_edge19_Node000118_Node000131"><a xlink:title=" ">
<path fill="none" stroke="#63b8ff" d="M144.23,-853.8C155.93,-820.52 183.27,-756.4 229.25,-723 233.96,-719.58 239.19,-716.76 244.66,-714.45"/>
<polygon fill="#63b8ff" stroke="#63b8ff" points="140.97,-852.52 141.11,-863.11 147.61,-854.75 140.97,-852.52"/>
</a>
</g>
</g>
<!-- Node132 -->
<g id="Node000132" class="node">
<title>Node132</title>
<g id="a_Node000132"><a xlink:href="class_b_m_v2_1_1_parse_v1_architecture.html" target="_top" xlink:title=" ">
<polygon fill="white" stroke="#bfbfbf" points="381.38,-676 242.38,-676 242.38,-656 381.38,-656 381.38,-676"/>
<text text-anchor="middle" x="311.88" y="-662.5" font-family="Helvetica,sans-Serif" font-size="10.00">BMV2::ParseV1Architecture</text>
</a>
</g>
</g>
<!-- Node118&#45;&gt;Node132 -->
<g id="edge20_Node000118_Node000132" class="edge">
<title>Node118&#45;&gt;Node132</title>
<g id="a_edge20_Node000118_Node000132"><a xlink:title=" ">
<path fill="none" stroke="#63b8ff" d="M141.51,-853.67C150.13,-814.02 174.28,-728.98 229.25,-685 233.57,-681.55 238.4,-678.7 243.5,-676.35"/>
<polygon fill="#63b8ff" stroke="#63b8ff" points="138.11,-852.86 139.54,-863.36 144.96,-854.26 138.11,-852.86"/>
</a>
</g>
</g>
<!-- Node133 -->
<g id="Node000133" class="node">
<title>Node133</title>
<g id="a_Node000133"><a xlink:href="class_b_m_v2_1_1_parser_converter.html" target="_top" xlink:title=" ">
<polygon fill="white" stroke="#bfbfbf" points="370.88,-638 252.88,-638 252.88,-618 370.88,-618 370.88,-638"/>
<text text-anchor="middle" x="311.88" y="-624.5" font-family="Helvetica,sans-Serif" font-size="10.00">BMV2::ParserConverter</text>
</a>
</g>
</g>
<!-- Node118&#45;&gt;Node133 -->
<g id="edge21_Node000118_Node000133" class="edge">
<title>Node118&#45;&gt;Node133</title>
<g id="a_edge21_Node000118_Node000133"><a xlink:title=" ">
<path fill="none" stroke="#63b8ff" d="M139.62,-853.61C145.31,-808.22 165.12,-701.95 229.25,-647 235.99,-641.23 244.15,-637.12 252.68,-634.23"/>
<polygon fill="#63b8ff" stroke="#63b8ff" points="136.16,-853.1 138.51,-863.43 143.11,-853.88 136.16,-853.1"/>
</a>
</g>
</g>
<!-- Node134 -->
<g id="Node000134" class="node">
<title>Node134</title>
<g id="a_Node000134"><a xlink:href="class_b_m_v2_1_1_shared_action_selector_check.html" target="_top" xlink:title=" ">
<polygon fill="white" stroke="#bfbfbf" points="383.62,-600 240.12,-600 240.12,-568 383.62,-568 383.62,-600"/>
<text text-anchor="start" x="248.12" y="-586.5" font-family="Helvetica,sans-Serif" font-size="10.00">BMV2::SharedActionSelector</text>
<text text-anchor="middle" x="311.88" y="-574.5" font-family="Helvetica,sans-Serif" font-size="10.00">Check&lt; arch &gt;</text>
</a>
</g>
</g>
<!-- Node118&#45;&gt;Node134 -->
<g id="edge22_Node000118_Node000134" class="edge">
<title>Node118&#45;&gt;Node134</title>
<g id="a_edge22_Node000118_Node000134"><a xlink:title=" ">
<path fill="none" stroke="#63b8ff" d="M138.58,-853.23C142.26,-802.87 158.45,-677.36 229.25,-609 232.66,-605.71 236.5,-602.84 240.59,-600.36"/>
<polygon fill="#63b8ff" stroke="#63b8ff" points="135.09,-852.89 137.97,-863.08 142.08,-853.32 135.09,-852.89"/>
</a>
</g>
</g>
<!-- Node135 -->
<g id="Node000135" class="node">
<title>Node135</title>
<g id="a_Node000135"><a xlink:href="class_control_flow_visitor_1_1_setup_join_points.html" target="_top" xlink:title=" ">
<polygon fill="white" stroke="orangered" points="359.25,-550 264.5,-550 264.5,-518 359.25,-518 359.25,-550"/>
<text text-anchor="start" x="272.5" y="-536.5" font-family="Helvetica,sans-Serif" font-size="10.00">ControlFlowVisitor</text>
<text text-anchor="middle" x="311.88" y="-524.5" font-family="Helvetica,sans-Serif" font-size="10.00">::SetupJoinPoints</text>
</a>
</g>
</g>
<!-- Node118&#45;&gt;Node135 -->
<g id="edge23_Node000118_Node000135" class="edge">
<title>Node118&#45;&gt;Node135</title>
<g id="a_edge23_Node000118_Node000135"><a xlink:title=" ">
<path fill="none" stroke="#63b8ff" d="M137.18,-853.1C137.58,-796.29 146.66,-642.8 229.25,-559 238.61,-549.5 251.48,-543.59 264.23,-539.92"/>
<polygon fill="#63b8ff" stroke="#63b8ff" points="133.68,-853.04 137.21,-863.03 140.68,-853.01 133.68,-853.04"/>
</a>
</g>
</g>
<!-- Node137 -->
<g id="Node000137" class="node">
<title>Node137</title>
<g id="a_Node000137"><a xlink:href="class_d_p_d_k_1_1_check_extern_invocation.html" target="_top" xlink:title="Class which chooses the correct class for checking the constraints for invocations of extern methods ...">
<polygon fill="white" stroke="#666666" points="385.88,-500 237.88,-500 237.88,-480 385.88,-480 385.88,-500"/>
<text text-anchor="middle" x="311.88" y="-486.5" font-family="Helvetica,sans-Serif" font-size="10.00">DPDK::CheckExternInvocation</text>
</a>
</g>
</g>
<!-- Node118&#45;&gt;Node137 -->
<g id="edge24_Node000118_Node000137" class="edge">
<title>Node118&#45;&gt;Node137</title>
<g id="a_edge24_Node000118_Node000137"><a xlink:title=" ">
<path fill="none" stroke="#63b8ff" d="M139.99,-853.29C148.55,-782.22 179.12,-558.29 229.25,-509 232.67,-505.63 236.57,-502.82 240.76,-500.47"/>
<polygon fill="#63b8ff" stroke="#63b8ff" points="136.51,-852.86 138.82,-863.2 143.46,-853.68 136.51,-852.86"/>
</a>
</g>
</g>
<!-- Node138 -->
<g id="Node000138" class="node">
<title>Node138</title>
<g id="a_Node000138"><a xlink:href="class_d_p_d_k_1_1_collect_action_uses.html" target="_top" xlink:title=" ">
<polygon fill="white" stroke="#bfbfbf" points="376.5,-462 247.25,-462 247.25,-442 376.5,-442 376.5,-462"/>
<text text-anchor="middle" x="311.88" y="-448.5" font-family="Helvetica,sans-Serif" font-size="10.00">DPDK::CollectActionUses</text>
</a>
</g>
</g>
<!-- Node118&#45;&gt;Node138 -->
<g id="edge25_Node000118_Node000138" class="edge">
<title>Node118&#45;&gt;Node138</title>
<g id="a_edge25_Node000118_Node000138"><a xlink:title=" ">
<path fill="none" stroke="#63b8ff" d="M139.41,-853.53C146.57,-778.02 174.23,-526.32 229.25,-471 234.28,-465.95 240.37,-462.13 246.94,-459.26"/>
<polygon fill="#63b8ff" stroke="#63b8ff" points="135.95,-853 138.51,-863.28 142.92,-853.65 135.95,-853"/>
</a>
</g>
</g>
<!-- Node139 -->
<g id="Node000139" class="node">
<title>Node139</title>
<g id="a_Node000139"><a xlink:href="class_d_p_d_k_1_1_collect_add_on_miss_table.html" target="_top" xlink:title=" ">
<polygon fill="white" stroke="#bfbfbf" points="388.5,-424 235.25,-424 235.25,-404 388.5,-404 388.5,-424"/>
<text text-anchor="middle" x="311.88" y="-410.5" font-family="Helvetica,sans-Serif" font-size="10.00">DPDK::CollectAddOnMissTable</text>
</a>
</g>
</g>
<!-- Node118&#45;&gt;Node139 -->
<g id="edge26_Node000118_Node000139" class="edge">
<title>Node118&#45;&gt;Node139</title>
<g id="a_edge26_Node000118_Node000139"><a xlink:title=" ">
<path fill="none" stroke="#63b8ff" d="M138.96,-853.59C144.82,-773.69 169.36,-494.35 229.25,-433 232.6,-429.56 236.45,-426.7 240.6,-424.31"/>
<polygon fill="#63b8ff" stroke="#63b8ff" points="135.5,-852.91 138.28,-863.13 142.48,-853.4 135.5,-852.91"/>
</a>
</g>
</g>
<!-- Node140 -->
<g id="Node000140" class="node">
<title>Node140</title>
<g id="a_Node000140"><a xlink:href="class_d_p_d_k_1_1_collect_direct_counter_meter.html" target="_top" xlink:title=" ">
<polygon fill="white" stroke="#bfbfbf" points="381,-386 242.75,-386 242.75,-354 381,-354 381,-386"/>
<text text-anchor="start" x="250.75" y="-372.5" font-family="Helvetica,sans-Serif" font-size="10.00">DPDK::CollectDirectCounter</text>
<text text-anchor="middle" x="311.88" y="-360.5" font-family="Helvetica,sans-Serif" font-size="10.00">Meter</text>
</a>
</g>
</g>
<!-- Node118&#45;&gt;Node140 -->
<g id="edge27_Node000118_Node000140" class="edge">
<title>Node118&#45;&gt;Node140</title>
<g id="a_edge27_Node000118_Node000140"><a xlink:title=" ">
<path fill="none" stroke="#63b8ff" d="M138.74,-853.28C143.97,-768.95 166.94,-464.46 229.25,-395 233.01,-390.81 237.45,-387.31 242.29,-384.39"/>
<polygon fill="#63b8ff" stroke="#63b8ff" points="135.25,-852.96 138.15,-863.15 142.24,-853.38 135.25,-852.96"/>
</a>
</g>
</g>
<!-- Node141 -->
<g id="Node000141" class="node">
<title>Node141</title>
<g id="a_Node000141"><a xlink:href="class_d_p_d_k_1_1_collect_errors.html" target="_top" xlink:title=" ">
<polygon fill="white" stroke="#bfbfbf" points="364.5,-336 259.25,-336 259.25,-316 364.5,-316 364.5,-336"/>
<text text-anchor="middle" x="311.88" y="-322.5" font-family="Helvetica,sans-Serif" font-size="10.00">DPDK::CollectErrors</text>
</a>
</g>
</g>
<!-- Node118&#45;&gt;Node141 -->
<g id="edge28_Node000118_Node000141" class="edge">
<title>Node118&#45;&gt;Node141</title>
<g id="a_edge28_Node000118_Node000141"><a xlink:title=" ">
<path fill="none" stroke="#63b8ff" d="M138.16,-853.52C141.34,-763.83 158.06,-420.39 229.25,-345 237.14,-336.64 247.94,-331.63 259.09,-328.7"/>
<polygon fill="#63b8ff" stroke="#63b8ff" points="134.66,-853.23 137.83,-863.34 141.66,-853.46 134.66,-853.23"/>
</a>
</g>
</g>
<!-- Node142 -->
<g id="Node000142" class="node">
<title>Node142</title>
<g id="a_Node000142"><a xlink:href="class_d_p_d_k_1_1_collect_extern_declaration.html" target="_top" xlink:title=" ">
<polygon fill="white" stroke="#bfbfbf" points="390,-298 233.75,-298 233.75,-278 390,-278 390,-298"/>
<text text-anchor="middle" x="311.88" y="-284.5" font-family="Helvetica,sans-Serif" font-size="10.00">DPDK::CollectExternDeclaration</text>
</a>
</g>
</g>
<!-- Node118&#45;&gt;Node142 -->
<g id="edge29_Node000118_Node000142" class="edge">
<title>Node118&#45;&gt;Node142</title>
<g id="a_edge29_Node000118_Node000142"><a xlink:title=" ">
<path fill="none" stroke="#63b8ff" d="M137.89,-853.19C140.03,-759.02 153.24,-388.41 229.25,-307 232.43,-303.6 236.09,-300.75 240.06,-298.37"/>
<polygon fill="#63b8ff" stroke="#63b8ff" points="134.39,-853 137.69,-863.07 141.39,-853.14 134.39,-853"/>
</a>
</g>
</g>
<!-- Node143 -->
<g id="Node000143" class="node">
<title>Node143</title>
<g id="a_Node000143"><a xlink:href="class_d_p_d_k_1_1_collect_i_p_sec_info.html" target="_top" xlink:title=" ">
<polygon fill="white" stroke="#bfbfbf" points="372,-260 251.75,-260 251.75,-240 372,-240 372,-260"/>
<text text-anchor="middle" x="311.88" y="-246.5" font-family="Helvetica,sans-Serif" font-size="10.00">DPDK::CollectIPSecInfo</text>
</a>
</g>
</g>
<!-- Node118&#45;&gt;Node143 -->
<g id="edge30_Node000118_Node000143" class="edge">
<title>Node118&#45;&gt;Node143</title>
<g id="a_edge30_Node000118_Node000143"><a xlink:title=" ">
<path fill="none" stroke="#63b8ff" d="M137.64,-853.62C138.74,-756.35 148.2,-356.68 229.25,-269 235.27,-262.48 243.06,-257.99 251.43,-254.93"/>
<polygon fill="#63b8ff" stroke="#63b8ff" points="134.15,-853.29 137.55,-863.32 141.15,-853.35 134.15,-853.29"/>
</a>
</g>
</g>
<!-- Node144 -->
<g id="Node000144" class="node">
<title>Node144</title>
<g id="a_Node000144"><a xlink:href="class_d_p_d_k_1_1_collect_internet_checksum_instance.html" target="_top" xlink:title=" ">
<polygon fill="white" stroke="#bfbfbf" points="390.75,-1598 233,-1598 233,-1566 390.75,-1566 390.75,-1598"/>
<text text-anchor="start" x="241" y="-1584.5" font-family="Helvetica,sans-Serif" font-size="10.00">DPDK::CollectInternetChecksum</text>
<text text-anchor="middle" x="311.88" y="-1572.5" font-family="Helvetica,sans-Serif" font-size="10.00">Instance</text>
</a>
</g>
</g>
<!-- Node118&#45;&gt;Node144 -->
<g id="edge31_Node000118_Node000144" class="edge">
<title>Node118&#45;&gt;Node144</title>
<g id="a_edge31_Node000118_Node000144"><a xlink:title=" ">
<path fill="none" stroke="#63b8ff" d="M141.14,-896.59C150.52,-952.64 176,-1107.47 193.25,-1237 202.7,-1307.93 183.54,-1501.94 229.25,-1557 232,-1560.31 235.17,-1563.19 238.63,-1565.69"/>
<polygon fill="#63b8ff" stroke="#63b8ff" points="144.61,-896.12 139.5,-886.84 137.71,-897.28 144.61,-896.12"/>
</a>
</g>
</g>
<!-- Node145 -->
<g id="Node000145" class="node">
<title>Node145</title>
<g id="a_Node000145"><a xlink:href="class_d_p_d_k_1_1_collect_metadata_header_info.html" target="_top" xlink:title=" ">
<polygon fill="white" stroke="#bfbfbf" points="394.5,-1548 229.25,-1548 229.25,-1528 394.5,-1528 394.5,-1548"/>
<text text-anchor="middle" x="311.88" y="-1534.5" font-family="Helvetica,sans-Serif" font-size="10.00">DPDK::CollectMetadataHeaderInfo</text>
</a>
</g>
</g>
<!-- Node118&#45;&gt;Node145 -->
<g id="edge32_Node000118_Node000145" class="edge">
<title>Node118&#45;&gt;Node145</title>
<g id="a_edge32_Node000118_Node000145"><a xlink:title=" ">
<path fill="none" stroke="#63b8ff" d="M141.03,-896.6C150.14,-952.69 175.03,-1107.61 193.25,-1237 202.06,-1299.56 186.91,-1472.11 229.25,-1519 232.27,-1522.35 235.76,-1525.16 239.56,-1527.53"/>
<polygon fill="#63b8ff" stroke="#63b8ff" points="144.5,-896.15 139.44,-886.85 137.59,-897.28 144.5,-896.15"/>
</a>
</g>
</g>
<!-- Node146 -->
<g id="Node000146" class="node">
<title>Node146</title>
<g id="a_Node000146"><a xlink:href="class_d_p_d_k_1_1_collect_table_info.html" target="_top" xlink:title=" ">
<polygon fill="white" stroke="#bfbfbf" points="370.5,-1510 253.25,-1510 253.25,-1490 370.5,-1490 370.5,-1510"/>
<text text-anchor="middle" x="311.88" y="-1496.5" font-family="Helvetica,sans-Serif" font-size="10.00">DPDK::CollectTableInfo</text>
</a>
</g>
</g>
<!-- Node118&#45;&gt;Node146 -->
<g id="edge33_Node000118_Node000146" class="edge">
<title>Node118&#45;&gt;Node146</title>
<g id="a_edge33_Node000118_Node000146"><a xlink:title=" ">
<path fill="none" stroke="#63b8ff" d="M140.88,-896.62C149.64,-952.77 173.77,-1107.79 193.25,-1237 201.42,-1291.2 192.12,-1440.68 229.25,-1481 235.66,-1487.96 244.07,-1492.61 253.06,-1495.67"/>
<polygon fill="#63b8ff" stroke="#63b8ff" points="144.36,-896.2 139.35,-886.86 137.44,-897.28 144.36,-896.2"/>
</a>
</g>
</g>
<!-- Node147 -->
<g id="Node000147" class="node">
<title>Node147</title>
<g id="a_Node000147"><a xlink:href="class_d_p_d_k_1_1_collect_use_def_info.html" target="_top" xlink:title=" ">
<polygon fill="white" stroke="#666666" points="374.62,-1472 249.12,-1472 249.12,-1452 374.62,-1452 374.62,-1472"/>
<text text-anchor="middle" x="311.88" y="-1458.5" font-family="Helvetica,sans-Serif" font-size="10.00">DPDK::CollectUseDefInfo</text>
</a>
</g>
</g>
<!-- Node118&#45;&gt;Node147 -->
<g id="edge34_Node000118_Node000147" class="edge">
<title>Node118&#45;&gt;Node147</title>
<g id="a_edge34_Node000118_Node000147"><a xlink:title=" ">
<path fill="none" stroke="#63b8ff" d="M140.82,-896.58C156.71,-999.73 224.44,-1437.85 229.25,-1443 234.61,-1448.74 241.34,-1452.91 248.63,-1455.91"/>
<polygon fill="#63b8ff" stroke="#63b8ff" points="144.29,-896.09 139.3,-886.74 137.37,-897.15 144.29,-896.09"/>
</a>
</g>
</g>
<!-- Node148 -->
<g id="Node000148" class="node">
<title>Node148</title>
<g id="a_Node000148"><a xlink:href="class_d_p_d_k_1_1_collect_used_metadata_field.html" target="_top" xlink:title=" ">
<polygon fill="white" stroke="#bfbfbf" points="382.88,-1434 240.88,-1434 240.88,-1402 382.88,-1402 382.88,-1434"/>
<text text-anchor="start" x="248.88" y="-1420.5" font-family="Helvetica,sans-Serif" font-size="10.00">DPDK::CollectUsedMetadata</text>
<text text-anchor="middle" x="311.88" y="-1408.5" font-family="Helvetica,sans-Serif" font-size="10.00">Field</text>
</a>
</g>
</g>
<!-- Node118&#45;&gt;Node148 -->
<g id="edge35_Node000118_Node000148" class="edge">
<title>Node118&#45;&gt;Node148</title>
<g id="a_edge35_Node000118_Node000148"><a xlink:title=" ">
<path fill="none" stroke="#63b8ff" d="M140.7,-896.72C154.91,-992.58 212.32,-1373.87 229.25,-1393 232.59,-1396.77 236.48,-1399.99 240.72,-1402.72"/>
<polygon fill="#63b8ff" stroke="#63b8ff" points="144.17,-896.25 139.25,-886.87 137.25,-897.28 144.17,-896.25"/>
</a>
</g>
</g>
<!-- Node149 -->
<g id="Node000149" class="node">
<title>Node149</title>
<g id="a_Node000149"><a xlink:href="class_d_p_d_k_1_1_convert_lookahead_1_1_collect.html" target="_top" xlink:title=" ">
<polygon fill="white" stroke="#bfbfbf" points="376.12,-1384 247.62,-1384 247.62,-1352 376.12,-1352 376.12,-1384"/>
<text text-anchor="start" x="255.62" y="-1370.5" font-family="Helvetica,sans-Serif" font-size="10.00">DPDK::ConvertLookahead</text>
<text text-anchor="middle" x="311.88" y="-1358.5" font-family="Helvetica,sans-Serif" font-size="10.00">::Collect</text>
</a>
</g>
</g>
<!-- Node118&#45;&gt;Node149 -->
<g id="edge36_Node000118_Node000149" class="edge">
<title>Node118&#45;&gt;Node149</title>
<g id="a_edge36_Node000118_Node000149"><a xlink:title=" ">
<path fill="none" stroke="#63b8ff" d="M140.4,-896.5C152.34,-983.83 198.57,-1308.96 229.25,-1343 234.31,-1348.61 240.59,-1352.98 247.41,-1356.38"/>
<polygon fill="#63b8ff" stroke="#63b8ff" points="143.88,-896.14 139.07,-886.7 136.94,-897.08 143.88,-896.14"/>
</a>
</g>
</g>
<!-- Node150 -->
<g id="Node000150" class="node">
<title>Node150</title>
<g id="a_Node000150"><a xlink:href="class_d_p_d_k_1_1_convert_statement_to_dpdk.html" target="_top" xlink:title=" ">
<polygon fill="white" stroke="#bfbfbf" points="391.5,-1334 232.25,-1334 232.25,-1314 391.5,-1314 391.5,-1334"/>
<text text-anchor="middle" x="311.88" y="-1320.5" font-family="Helvetica,sans-Serif" font-size="10.00">DPDK::ConvertStatementToDpdk</text>
</a>
</g>
</g>
<!-- Node118&#45;&gt;Node150 -->
<g id="edge37_Node000118_Node000150" class="edge">
<title>Node118&#45;&gt;Node150</title>
<g id="a_edge37_Node000118_Node000150"><a xlink:title=" ">
<path fill="none" stroke="#63b8ff" d="M139.12,-896.83C145.44,-975.87 171,-1245.66 229.25,-1305 232.61,-1308.43 236.47,-1311.29 240.63,-1313.67"/>
<polygon fill="#63b8ff" stroke="#63b8ff" points="142.62,-896.68 138.36,-886.98 135.64,-897.22 142.62,-896.68"/>
</a>
</g>
</g>
<!-- Node151 -->
<g id="Node000151" class="node">
<title>Node151</title>
<g id="a_Node000151"><a xlink:href="class_d_p_d_k_1_1_convert_to_dpdk_control.html" target="_top" xlink:title=" ">
<polygon fill="white" stroke="#bfbfbf" points="384.38,-1296 239.38,-1296 239.38,-1276 384.38,-1276 384.38,-1296"/>
<text text-anchor="middle" x="311.88" y="-1282.5" font-family="Helvetica,sans-Serif" font-size="10.00">DPDK::ConvertToDpdkControl</text>
</a>
</g>
</g>
<!-- Node118&#45;&gt;Node151 -->
<g id="edge38_Node000118_Node000151" class="edge">
<title>Node118&#45;&gt;Node151</title>
<g id="a_edge38_Node000118_Node000151"><a xlink:title=" ">
<path fill="none" stroke="#63b8ff" d="M139.56,-896.32C147.12,-970.19 175.72,-1213.54 229.25,-1267 232.65,-1270.39 236.52,-1273.23 240.7,-1275.59"/>
<polygon fill="#63b8ff" stroke="#63b8ff" points="143.08,-896.38 138.61,-886.78 136.12,-897.08 143.08,-896.38"/>
</a>
</g>
</g>
<!-- Node152 -->
<g id="Node000152" class="node">
<title>Node152</title>
<g id="a_Node000152"><a xlink:href="class_d_p_d_k_1_1_convert_to_dpdk_parser.html" target="_top" xlink:title=" ">
<polygon fill="white" stroke="#bfbfbf" points="383.25,-1258 240.5,-1258 240.5,-1238 383.25,-1238 383.25,-1258"/>
<text text-anchor="middle" x="311.88" y="-1244.5" font-family="Helvetica,sans-Serif" font-size="10.00">DPDK::ConvertToDpdkParser</text>
</a>
</g>
</g>
<!-- Node118&#45;&gt;Node152 -->
<g id="edge39_Node000118_Node000152" class="edge">
<title>Node118&#45;&gt;Node152</title>
<g id="a_edge39_Node000118_Node000152"><a xlink:title=" ">
<path fill="none" stroke="#63b8ff" d="M140.15,-896.46C149.13,-965.72 180.58,-1181.53 229.25,-1229 232.79,-1232.45 236.83,-1235.33 241.18,-1237.71"/>
<polygon fill="#63b8ff" stroke="#63b8ff" points="143.66,-896.29 138.93,-886.81 136.71,-897.17 143.66,-896.29"/>
</a>
</g>
</g>
<!-- Node153 -->
<g id="Node000153" class="node">
<title>Node153</title>
<g id="a_Node000153"><a xlink:href="class_d_p_d_k_1_1_convert_to_string.html" target="_top" xlink:title=" ">
<polygon fill="white" stroke="#bfbfbf" points="370.5,-1220 253.25,-1220 253.25,-1200 370.5,-1200 370.5,-1220"/>
<text text-anchor="middle" x="311.88" y="-1206.5" font-family="Helvetica,sans-Serif" font-size="10.00">DPDK::ConvertToString</text>
</a>
</g>
</g>
<!-- Node118&#45;&gt;Node153 -->
<g id="edge40_Node000118_Node000153" class="edge">
<title>Node118&#45;&gt;Node153</title>
<g id="a_edge40_Node000118_Node000153"><a xlink:title=" ">
<path fill="none" stroke="#63b8ff" d="M136.86,-896.48C136.41,-953.47 143.47,-1109.72 229.25,-1191 235.9,-1197.3 244.23,-1201.66 252.99,-1204.64"/>
<polygon fill="#63b8ff" stroke="#63b8ff" points="140.35,-896.9 137.04,-886.84 133.36,-896.78 140.35,-896.9"/>
</a>
</g>
</g>
<!-- Node154 -->
<g id="Node000154" class="node">
<title>Node154</title>
<g id="a_Node000154"><a xlink:href="class_d_p_d_k_1_1_def_action_value.html" target="_top" xlink:title=" ">
<polygon fill="white" stroke="#bfbfbf" points="369.75,-1182 254,-1182 254,-1162 369.75,-1162 369.75,-1182"/>
<text text-anchor="middle" x="311.88" y="-1168.5" font-family="Helvetica,sans-Serif" font-size="10.00">DPDK::DefActionValue</text>
</a>
</g>
</g>
<!-- Node118&#45;&gt;Node154 -->
<g id="edge41_Node000118_Node000154" class="edge">
<title>Node118&#45;&gt;Node154</title>
<g id="a_edge41_Node000118_Node000154"><a xlink:title=" ">
<path fill="none" stroke="#63b8ff" d="M137.87,-896.68C139.99,-949.06 152.99,-1083.32 229.25,-1153 236.12,-1159.28 244.66,-1163.61 253.6,-1166.57"/>
<polygon fill="#63b8ff" stroke="#63b8ff" points="141.38,-896.88 137.58,-886.98 134.38,-897.08 141.38,-896.88"/>
</a>
</g>
</g>
<!-- Node155 -->
<g id="Node000155" class="node">
<title>Node155</title>
<g id="a_Node000155"><a xlink:href="class_d_p_d_k_1_1_dpdk_context_generator.html" target="_top" xlink:title=" ">
<polygon fill="white" stroke="#bfbfbf" points="385.88,-1144 237.88,-1144 237.88,-1124 385.88,-1124 385.88,-1144"/>
<text text-anchor="middle" x="311.88" y="-1130.5" font-family="Helvetica,sans-Serif" font-size="10.00">DPDK::DpdkContextGenerator</text>
</a>
</g>
</g>
<!-- Node118&#45;&gt;Node155 -->
<g id="edge42_Node000118_Node000155" class="edge">
<title>Node118&#45;&gt;Node155</title>
<g id="a_edge42_Node000118_Node000155"><a xlink:title=" ">
<path fill="none" stroke="#63b8ff" d="M139.15,-896.55C143.97,-943.73 162.27,-1056.59 229.25,-1115 233.2,-1118.44 237.65,-1121.29 242.38,-1123.65"/>
<polygon fill="#63b8ff" stroke="#63b8ff" points="142.66,-896.48 138.28,-886.83 135.69,-897.11 142.66,-896.48"/>
</a>
</g>
</g>
<!-- Node311&#45;&gt;Node115 -->
<g id="edge48_Node000311_Node000115" class="edge">
<title>Node311&#45;&gt;Node115</title>
<g id="a_edge48_Node000311_Node000115"><a xlink:title=" ">
<path fill="none" stroke="#63b8ff" d="M186.56,-272.85C188.87,-271.65 191.12,-270.37 193.25,-269 212.83,-256.44 209.07,-242.57 229.25,-231 238.46,-225.72 249.06,-221.9 259.5,-219.15"/>
<polygon fill="#63b8ff" stroke="#63b8ff" points="185.16,-269.64 177.5,-276.96 188.06,-276.02 185.16,-269.64"/>
</a>
</g>
</g>
<!-- Node312&#45;&gt;Node115 -->
<g id="edge50_Node000312_Node000115" class="edge">
<title>Node312&#45;&gt;Node115</title>
<g id="a_edge50_Node000312_Node000115"><a xlink:title=" ">
<path fill="none" stroke="#63b8ff" d="M190.86,-212C212.66,-212 237.78,-212 259.38,-212"/>
<polygon fill="#63b8ff" stroke="#63b8ff" points="190.98,-208.5 180.98,-212 190.98,-215.5 190.98,-208.5"/>
</a>
</g>
</g>
<!-- Node312&#45;&gt;Node116 -->
<g id="edge51_Node000312_Node000116" class="edge">
<title>Node312&#45;&gt;Node116</title>
<g id="a_edge51_Node000312_Node000116"><a xlink:title=" ">
<path fill="none" stroke="#8b1a1a" d="M190.5,-200.38C213.67,-195.31 240.64,-189.39 263.17,-184.46"/>
<polygon fill="#8b1a1a" stroke="#8b1a1a" points="189.97,-196.92 180.95,-202.48 191.47,-203.76 189.97,-196.92"/>
</a>
</g>
</g>
<!-- Node318&#45;&gt;Node116 -->
<g id="edge54_Node000318_Node000116" class="edge">
<title>Node318&#45;&gt;Node116</title>
<g id="a_edge54_Node000318_Node000116"><a xlink:title=" ">
<path fill="none" stroke="#8b1a1a" d="M177.39,-174C195.95,-174 218.59,-174 239.92,-174"/>
<polygon fill="#8b1a1a" stroke="#8b1a1a" points="177.64,-170.5 167.64,-174 177.64,-177.5 177.64,-170.5"/>
</a>
</g>
</g>
</g>
</svg>
