<?xml version="1.0" encoding="UTF-8" standalone="no"?>
<!DOCTYPE svg PUBLIC "-//W3C//DTD SVG 1.1//EN"
 "http://www.w3.org/Graphics/SVG/1.1/DTD/svg11.dtd">
<!-- Generated by graphviz version 10.0.1 (20240210.2158)
 -->
<!-- Title: P4::EliminateSwitch Pages: 1 -->
<svg width="119pt" height="196pt"
 viewBox="0.00 0.00 119.00 196.00" xmlns="http://www.w3.org/2000/svg" xmlns:xlink="http://www.w3.org/1999/xlink">
<g id="graph0" class="graph" transform="scale(1 1) rotate(0) translate(4 192)">
<title>P4::EliminateSwitch</title>
<!-- Node1 -->
<g id="Node000001" class="node">
<title>Node1</title>
<g id="a_Node000001"><a xlink:title=" ">
<polygon fill="#999999" stroke="#666666" points="103.75,-20 0,-20 0,0 103.75,0 103.75,-20"/>
<text text-anchor="middle" x="51.88" y="-6.5" font-family="Helvetica,sans-Serif" font-size="10.00">P4::EliminateSwitch</text>
</a>
</g>
</g>
<!-- Node2 -->
<g id="Node000002" class="node">
<title>Node2</title>
<g id="a_Node000002"><a xlink:href="class_pass_manager.html" target="_top" xlink:title=" ">
<polygon fill="white" stroke="#bfbfbf" points="89.88,-76 13.88,-76 13.88,-56 89.88,-56 89.88,-76"/>
<text text-anchor="middle" x="51.88" y="-62.5" font-family="Helvetica,sans-Serif" font-size="10.00">PassManager</text>
</a>
</g>
</g>
<!-- Node2&#45;&gt;Node1 -->
<g id="edge1_Node000001_Node000002" class="edge">
<title>Node2&#45;&gt;Node1</title>
<g id="a_edge1_Node000001_Node000002"><a xlink:title=" ">
<path fill="none" stroke="#63b8ff" d="M51.88,-44.13C51.88,-35.9 51.88,-26.85 51.88,-20.3"/>
<polygon fill="#63b8ff" stroke="#63b8ff" points="48.38,-44.08 51.88,-54.08 55.38,-44.08 48.38,-44.08"/>
</a>
</g>
</g>
<!-- Node3 -->
<g id="Node000003" class="node">
<title>Node3</title>
<g id="a_Node000003"><a xlink:href="class_visitor.html" target="_top" xlink:title=" ">
<polygon fill="white" stroke="#bfbfbf" points="73.75,-188 30,-188 30,-168 73.75,-168 73.75,-188"/>
<text text-anchor="middle" x="51.88" y="-174.5" font-family="Helvetica,sans-Serif" font-size="10.00">Visitor</text>
</a>
</g>
</g>
<!-- Node3&#45;&gt;Node2 -->
<g id="edge2_Node000002_Node000003" class="edge">
<title>Node3&#45;&gt;Node2</title>
<g id="a_edge2_Node000002_Node000003"><a xlink:title=" ">
<path fill="none" stroke="#63b8ff" d="M46.36,-156.65C44.55,-148.98 42.77,-140.15 41.88,-132 39.68,-112.03 45.23,-88.79 48.91,-76.22"/>
<polygon fill="#63b8ff" stroke="#63b8ff" points="42.97,-157.5 48.83,-166.32 49.75,-155.77 42.97,-157.5"/>
</a>
</g>
</g>
<!-- Node4 -->
<g id="Node000004" class="node">
<title>Node4</title>
<g id="a_Node000004"><a xlink:href="class_backtrack.html" target="_top" xlink:title=" ">
<polygon fill="white" stroke="#bfbfbf" points="111,-132 50.75,-132 50.75,-112 111,-112 111,-132"/>
<text text-anchor="middle" x="80.88" y="-118.5" font-family="Helvetica,sans-Serif" font-size="10.00">Backtrack</text>
</a>
</g>
</g>
<!-- Node3&#45;&gt;Node4 -->
<g id="edge4_Node000004_Node000003" class="edge">
<title>Node3&#45;&gt;Node4</title>
<g id="a_edge4_Node000004_Node000003"><a xlink:title=" ">
<path fill="none" stroke="#63b8ff" d="M62.3,-157.58C66.93,-148.97 72.15,-139.24 75.88,-132.3"/>
<polygon fill="#63b8ff" stroke="#63b8ff" points="59.29,-155.79 57.64,-166.26 65.46,-159.11 59.29,-155.79"/>
</a>
</g>
</g>
<!-- Node4&#45;&gt;Node2 -->
<g id="edge3_Node000002_Node000004" class="edge">
<title>Node4&#45;&gt;Node2</title>
<g id="a_edge3_Node000002_Node000004"><a xlink:title=" ">
<path fill="none" stroke="#63b8ff" d="M70.45,-101.58C65.82,-92.97 60.6,-83.24 56.87,-76.3"/>
<polygon fill="#63b8ff" stroke="#63b8ff" points="67.29,-103.11 75.11,-110.26 73.46,-99.79 67.29,-103.11"/>
</a>
</g>
</g>
</g>
</svg>
