<?xml version="1.0" encoding="UTF-8" standalone="no"?>
<!DOCTYPE svg PUBLIC "-//W3C//DTD SVG 1.1//EN"
 "http://www.w3.org/Graphics/SVG/1.1/DTD/svg11.dtd">
<!-- Generated by graphviz version 10.0.1 (20240210.2158)
 -->
<!-- Title: ParserOptions Pages: 1 -->
<svg width="670pt" height="313pt"
 viewBox="0.00 0.00 670.00 313.00" xmlns="http://www.w3.org/2000/svg" xmlns:xlink="http://www.w3.org/1999/xlink">
<g id="graph0" class="graph" transform="scale(1 1) rotate(0) translate(4 309)">
<title>ParserOptions</title>
<!-- Node1 -->
<g id="Node000001" class="node">
<title>Node1</title>
<g id="a_Node000001"><a xlink:title=" ">
<polygon fill="#999999" stroke="#666666" points="184.25,-153 106,-153 106,-133 184.25,-133 184.25,-153"/>
<text text-anchor="middle" x="145.12" y="-139.5" font-family="Helvetica,sans-Serif" font-size="10.00">ParserOptions</text>
</a>
</g>
</g>
<!-- Node3 -->
<g id="Node000003" class="node">
<title>Node3</title>
<g id="a_Node000003"><a xlink:href="class_compiler_options.html" target="_top" xlink:title=" ">
<polygon fill="white" stroke="#bfbfbf" points="308.25,-153 220.25,-153 220.25,-133 308.25,-133 308.25,-153"/>
<text text-anchor="middle" x="264.25" y="-139.5" font-family="Helvetica,sans-Serif" font-size="10.00">CompilerOptions</text>
</a>
</g>
</g>
<!-- Node1&#45;&gt;Node3 -->
<g id="edge2_Node000001_Node000003" class="edge">
<title>Node1&#45;&gt;Node3</title>
<g id="a_edge2_Node000001_Node000003"><a xlink:title=" ">
<path fill="none" stroke="#63b8ff" d="M195.94,-143C203.92,-143 212.13,-143 219.94,-143"/>
<polygon fill="#63b8ff" stroke="#63b8ff" points="195.99,-139.5 185.99,-143 195.99,-146.5 195.99,-139.5"/>
</a>
</g>
</g>
<!-- Node2 -->
<g id="Node000002" class="node">
<title>Node2</title>
<g id="a_Node000002"><a xlink:href="class_util_1_1_options.html" target="_top" xlink:title=" ">
<polygon fill="white" stroke="#bfbfbf" points="70,-153 0,-153 0,-133 70,-133 70,-153"/>
<text text-anchor="middle" x="35" y="-139.5" font-family="Helvetica,sans-Serif" font-size="10.00">Util::Options</text>
</a>
</g>
</g>
<!-- Node2&#45;&gt;Node1 -->
<g id="edge1_Node000001_Node000002" class="edge">
<title>Node2&#45;&gt;Node1</title>
<g id="a_edge1_Node000001_Node000002"><a xlink:title=" ">
<path fill="none" stroke="#63b8ff" d="M81.64,-143C89.63,-143 97.86,-143 105.62,-143"/>
<polygon fill="#63b8ff" stroke="#63b8ff" points="81.73,-139.5 71.72,-143 81.72,-146.5 81.73,-139.5"/>
</a>
</g>
</g>
<!-- Node4 -->
<g id="Node000004" class="node">
<title>Node4</title>
<g id="a_Node000004"><a xlink:href="class_b_m_v2_1_1_b_m_v2_options.html" target="_top" xlink:title=" ">
<polygon fill="white" stroke="#bfbfbf" points="469,-286 359.25,-286 359.25,-266 469,-266 469,-286"/>
<text text-anchor="middle" x="414.12" y="-272.5" font-family="Helvetica,sans-Serif" font-size="10.00">BMV2::BMV2Options</text>
</a>
</g>
</g>
<!-- Node3&#45;&gt;Node4 -->
<g id="edge3_Node000003_Node000004" class="edge">
<title>Node3&#45;&gt;Node4</title>
<g id="a_edge3_Node000003_Node000004"><a xlink:title=" ">
<path fill="none" stroke="#63b8ff" d="M274.15,-163.77C286.26,-189.53 310.36,-232.96 344.25,-257 349.11,-260.44 354.56,-263.27 360.22,-265.58"/>
<polygon fill="#63b8ff" stroke="#63b8ff" points="277.36,-162.37 270.06,-154.69 270.98,-165.25 277.36,-162.37"/>
</a>
</g>
</g>
<!-- Node7 -->
<g id="Node000007" class="node">
<title>Node7</title>
<g id="a_Node000007"><a xlink:href="class_d_p_d_k_1_1_dpdk_options.html" target="_top" xlink:title=" ">
<polygon fill="white" stroke="#bfbfbf" points="466.75,-248 361.5,-248 361.5,-228 466.75,-228 466.75,-248"/>
<text text-anchor="middle" x="414.12" y="-234.5" font-family="Helvetica,sans-Serif" font-size="10.00">DPDK::DpdkOptions</text>
</a>
</g>
</g>
<!-- Node3&#45;&gt;Node7 -->
<g id="edge6_Node000003_Node000007" class="edge">
<title>Node3&#45;&gt;Node7</title>
<g id="a_edge6_Node000003_Node000007"><a xlink:title=" ">
<path fill="none" stroke="#63b8ff" d="M280.16,-161.97C294.73,-179.27 318.43,-204.3 344.25,-219 350.29,-222.44 356.98,-225.28 363.75,-227.62"/>
<polygon fill="#63b8ff" stroke="#63b8ff" points="283.05,-159.97 274.01,-154.45 277.63,-164.4 283.05,-159.97"/>
</a>
</g>
</g>
<!-- Node8 -->
<g id="Node000008" class="node">
<title>Node8</title>
<g id="a_Node000008"><a xlink:href="class_ebpf_options.html" target="_top" xlink:title=" ">
<polygon fill="white" stroke="#bfbfbf" points="448.75,-210 379.5,-210 379.5,-190 448.75,-190 448.75,-210"/>
<text text-anchor="middle" x="414.12" y="-196.5" font-family="Helvetica,sans-Serif" font-size="10.00">EbpfOptions</text>
</a>
</g>
</g>
<!-- Node3&#45;&gt;Node8 -->
<g id="edge7_Node000003_Node000008" class="edge">
<title>Node3&#45;&gt;Node8</title>
<g id="a_edge7_Node000003_Node000008"><a xlink:title=" ">
<path fill="none" stroke="#63b8ff" d="M294.3,-158.52C309,-165.97 327.28,-174.64 344.25,-181 355.4,-185.18 367.87,-188.9 379.11,-191.91"/>
<polygon fill="#63b8ff" stroke="#63b8ff" points="296.14,-155.53 285.65,-154.05 292.93,-161.75 296.14,-155.53"/>
</a>
</g>
</g>
<!-- Node9 -->
<g id="Node000009" class="node">
<title>Node9</title>
<g id="a_Node000009"><a xlink:href="class_p4_test_options.html" target="_top" xlink:title=" ">
<polygon fill="white" stroke="#bfbfbf" points="454.38,-172 373.88,-172 373.88,-152 454.38,-152 454.38,-172"/>
<text text-anchor="middle" x="414.12" y="-158.5" font-family="Helvetica,sans-Serif" font-size="10.00">P4TestOptions</text>
</a>
</g>
</g>
<!-- Node3&#45;&gt;Node9 -->
<g id="edge8_Node000003_Node000009" class="edge">
<title>Node3&#45;&gt;Node9</title>
<g id="a_edge8_Node000003_Node000009"><a xlink:title=" ">
<path fill="none" stroke="#63b8ff" d="M319.61,-149.99C337.53,-152.29 357.11,-154.8 373.69,-156.93"/>
<polygon fill="#63b8ff" stroke="#63b8ff" points="320.28,-146.54 309.92,-148.74 319.39,-153.49 320.28,-146.54"/>
</a>
</g>
</g>
<!-- Node10 -->
<g id="Node000010" class="node">
<title>Node10</title>
<g id="a_Node000010"><a xlink:href="class_t_c_1_1_t_c_options.html" target="_top" xlink:title=" ">
<polygon fill="white" stroke="#bfbfbf" points="454,-134 374.25,-134 374.25,-114 454,-114 454,-134"/>
<text text-anchor="middle" x="414.12" y="-120.5" font-family="Helvetica,sans-Serif" font-size="10.00">TC::TCOptions</text>
</a>
</g>
</g>
<!-- Node3&#45;&gt;Node10 -->
<g id="edge9_Node000003_Node000010" class="edge">
<title>Node3&#45;&gt;Node10</title>
<g id="a_edge9_Node000003_Node000010"><a xlink:title=" ">
<path fill="none" stroke="#63b8ff" d="M319.71,-136C337.78,-133.68 357.53,-131.14 374.19,-129"/>
<polygon fill="#63b8ff" stroke="#63b8ff" points="319.39,-132.51 309.92,-137.26 320.28,-139.46 319.39,-132.51"/>
</a>
</g>
</g>
<!-- Node11 -->
<g id="Node000011" class="node">
<title>Node11</title>
<g id="a_Node000011"><a xlink:href="class_test_1_1_p4_reachability_options.html" target="_top" xlink:title=" ">
<polygon fill="white" stroke="#bfbfbf" points="484,-96 344.25,-96 344.25,-76 484,-76 484,-96"/>
<text text-anchor="middle" x="414.12" y="-82.5" font-family="Helvetica,sans-Serif" font-size="10.00">Test::P4ReachabilityOptions</text>
</a>
</g>
</g>
<!-- Node3&#45;&gt;Node11 -->
<g id="edge10_Node000003_Node000011" class="edge">
<title>Node3&#45;&gt;Node11</title>
<g id="a_edge10_Node000003_Node000011"><a xlink:title=" ">
<path fill="none" stroke="#63b8ff" d="M294.3,-127.48C309,-120.03 327.28,-111.36 344.25,-105 352.61,-101.86 361.72,-98.99 370.49,-96.48"/>
<polygon fill="#63b8ff" stroke="#63b8ff" points="292.93,-124.25 285.65,-131.95 296.14,-130.47 292.93,-124.25"/>
</a>
</g>
</g>
<!-- Node12 -->
<g id="Node000012" class="node">
<title>Node12</title>
<g id="a_Node000012"><a xlink:href="class_test_1_1_p4_test_options.html" target="_top" xlink:title=" ">
<polygon fill="white" stroke="#bfbfbf" points="466.75,-58 361.5,-58 361.5,-38 466.75,-38 466.75,-58"/>
<text text-anchor="middle" x="414.12" y="-44.5" font-family="Helvetica,sans-Serif" font-size="10.00">Test::P4TestOptions</text>
</a>
</g>
</g>
<!-- Node3&#45;&gt;Node12 -->
<g id="edge11_Node000003_Node000012" class="edge">
<title>Node3&#45;&gt;Node12</title>
<g id="a_edge11_Node000003_Node000012"><a xlink:title=" ">
<path fill="none" stroke="#63b8ff" d="M280.16,-124.03C294.73,-106.73 318.43,-81.7 344.25,-67 350.29,-63.56 356.98,-60.72 363.75,-58.38"/>
<polygon fill="#63b8ff" stroke="#63b8ff" points="277.63,-121.6 274.01,-131.55 283.05,-126.03 277.63,-121.6"/>
</a>
</g>
</g>
<!-- Node13 -->
<g id="Node000013" class="node">
<title>Node13</title>
<g id="a_Node000013"><a xlink:href="classgraphs_1_1_options.html" target="_top" xlink:title=" ">
<polygon fill="white" stroke="#bfbfbf" points="456.62,-20 371.62,-20 371.62,0 456.62,0 456.62,-20"/>
<text text-anchor="middle" x="414.12" y="-6.5" font-family="Helvetica,sans-Serif" font-size="10.00">graphs::Options</text>
</a>
</g>
</g>
<!-- Node3&#45;&gt;Node13 -->
<g id="edge12_Node000003_Node000013" class="edge">
<title>Node3&#45;&gt;Node13</title>
<g id="a_edge12_Node000003_Node000013"><a xlink:title=" ">
<path fill="none" stroke="#63b8ff" d="M274.15,-122.23C286.26,-96.47 310.36,-53.04 344.25,-29 352.24,-23.33 361.86,-19.35 371.34,-16.56"/>
<polygon fill="#63b8ff" stroke="#63b8ff" points="270.98,-120.75 270.06,-131.31 277.36,-123.63 270.98,-120.75"/>
</a>
</g>
</g>
<!-- Node5 -->
<g id="Node000005" class="node">
<title>Node5</title>
<g id="a_Node000005"><a xlink:href="class_b_m_v2_1_1_psa_switch_options.html" target="_top" xlink:title=" ">
<polygon fill="white" stroke="#bfbfbf" points="655.62,-305 526.38,-305 526.38,-285 655.62,-285 655.62,-305"/>
<text text-anchor="middle" x="591" y="-291.5" font-family="Helvetica,sans-Serif" font-size="10.00">BMV2::PsaSwitchOptions</text>
</a>
</g>
</g>
<!-- Node4&#45;&gt;Node5 -->
<g id="edge4_Node000004_Node000005" class="edge">
<title>Node4&#45;&gt;Node5</title>
<g id="a_edge4_Node000004_Node000005"><a xlink:title=" ">
<path fill="none" stroke="#63b8ff" d="M480.67,-283.12C495.56,-284.74 511.35,-286.45 526.16,-288.06"/>
<polygon fill="#63b8ff" stroke="#63b8ff" points="481.32,-279.67 471,-282.07 480.57,-286.63 481.32,-279.67"/>
</a>
</g>
</g>
<!-- Node6 -->
<g id="Node000006" class="node">
<title>Node6</title>
<g id="a_Node000006"><a xlink:href="class_b_m_v2_1_1_simple_switch_options.html" target="_top" xlink:title=" ">
<polygon fill="white" stroke="#bfbfbf" points="662,-267 520,-267 520,-247 662,-247 662,-267"/>
<text text-anchor="middle" x="591" y="-253.5" font-family="Helvetica,sans-Serif" font-size="10.00">BMV2::SimpleSwitchOptions</text>
</a>
</g>
</g>
<!-- Node4&#45;&gt;Node6 -->
<g id="edge5_Node000004_Node000006" class="edge">
<title>Node4&#45;&gt;Node6</title>
<g id="a_edge5_Node000004_Node000006"><a xlink:title=" ">
<path fill="none" stroke="#63b8ff" d="M480.88,-268.86C493.51,-267.48 506.79,-266.04 519.56,-264.65"/>
<polygon fill="#63b8ff" stroke="#63b8ff" points="480.57,-265.37 471,-269.93 481.32,-272.33 480.57,-265.37"/>
</a>
</g>
</g>
</g>
</svg>
