<?xml version="1.0" encoding="UTF-8" standalone="no"?>
<!DOCTYPE svg PUBLIC "-//W3C//DTD SVG 1.1//EN"
 "http://www.w3.org/Graphics/SVG/1.1/DTD/svg11.dtd">
<!-- Generated by graphviz version 10.0.1 (20240210.2158)
 -->
<!-- Title: EBPF::EBPFTablePSAInitializerCodeGen Pages: 1 -->
<svg width="164pt" height="276pt"
 viewBox="0.00 0.00 164.25 276.00" xmlns="http://www.w3.org/2000/svg" xmlns:xlink="http://www.w3.org/1999/xlink">

<svg id="main" version="1.1" xmlns="http://www.w3.org/2000/svg" xmlns:xlink="http://www.w3.org/1999/xlink" xml:space="preserve" onload="init(evt)">
<style type="text/css"><![CDATA[
.node, .edge {opacity: 0.7;}
.node.selected, .edge.selected {opacity: 1;}
.edge:hover path { stroke: red; }
.edge:hover polygon { stroke: red; fill: red; }
]]></style>
<script type="application/ecmascript" xlink:href="svg.min.js"/>
<svg id="graph" class="graph">
<g id="graph0" class="graph" transform="scale(1 1) rotate(0) translate(4 272)">
<title>EBPF::EBPFTablePSAInitializerCodeGen</title>
<!-- Node1 -->
<g id="Node000001" class="node">
<title>Node1</title>
<g id="a_Node000001"><a xlink:title=" ">
<polygon fill="#999999" stroke="#666666" points="156.25,-100 0,-100 0,-68 156.25,-68 156.25,-100"/>
<text text-anchor="start" x="8" y="-86.5" font-family="Helvetica,sans-Serif" font-size="10.00">EBPF::EBPFTablePSAInitializer</text>
<text text-anchor="middle" x="78.12" y="-74.5" font-family="Helvetica,sans-Serif" font-size="10.00">CodeGen</text>
</a>
</g>
</g>
<!-- Node5 -->
<g id="Node000005" class="node">
<title>Node5</title>
<g id="a_Node000005"><a xlink:href="class_e_b_p_f_1_1_e_b_p_f_table_p_s_a_ternary_key_mask_generator.html" target="_top" xlink:title=" ">
<polygon fill="white" stroke="#bfbfbf" points="153.25,-32 3,-32 3,0 153.25,0 153.25,-32"/>
<text text-anchor="start" x="11" y="-18.5" font-family="Helvetica,sans-Serif" font-size="10.00">EBPF::EBPFTablePSATernary</text>
<text text-anchor="middle" x="78.12" y="-6.5" font-family="Helvetica,sans-Serif" font-size="10.00">KeyMaskGenerator</text>
</a>
</g>
</g>
<!-- Node1&#45;&gt;Node5 -->
<g id="edge4_Node000001_Node000005" class="edge">
<title>Node1&#45;&gt;Node5</title>
<g id="a_edge4_Node000001_Node000005"><a xlink:title=" ">
<path fill="none" stroke="#63b8ff" d="M78.12,-56.31C78.12,-48.12 78.12,-39.38 78.12,-32.22"/>
<polygon fill="#63b8ff" stroke="#63b8ff" points="74.63,-56.18 78.13,-66.18 81.63,-56.18 74.63,-56.18"/>
</a>
</g>
</g>
<!-- Node2 -->
<g id="Node000002" class="node">
<title>Node2</title>
<g id="a_Node000002"><a xlink:href="class_e_b_p_f_1_1_code_gen_inspector.html" target="_top" xlink:title=" ">
<polygon fill="white" stroke="#bfbfbf" points="142.38,-156 13.88,-156 13.88,-136 142.38,-136 142.38,-156"/>
<text text-anchor="middle" x="78.12" y="-142.5" font-family="Helvetica,sans-Serif" font-size="10.00">EBPF::CodeGenInspector</text>
</a>
</g>
</g>
<!-- Node2&#45;&gt;Node1 -->
<g id="edge1_Node000001_Node000002" class="edge">
<title>Node2&#45;&gt;Node1</title>
<g id="a_edge1_Node000001_Node000002"><a xlink:title=" ">
<path fill="none" stroke="#63b8ff" d="M78.12,-124.31C78.12,-116.37 78.12,-107.46 78.12,-100.14"/>
<polygon fill="#63b8ff" stroke="#63b8ff" points="74.63,-124.11 78.13,-134.11 81.63,-124.11 74.63,-124.11"/>
</a>
</g>
</g>
<!-- Node3 -->
<g id="Node000003" class="node">
<title>Node3</title>
<g id="a_Node000003"><a xlink:href="class_inspector.html" target="_top" xlink:title=" ">
<polygon fill="white" stroke="#bfbfbf" points="106,-212 50.25,-212 50.25,-192 106,-192 106,-212"/>
<text text-anchor="middle" x="78.12" y="-198.5" font-family="Helvetica,sans-Serif" font-size="10.00">Inspector</text>
</a>
</g>
</g>
<!-- Node3&#45;&gt;Node2 -->
<g id="edge2_Node000002_Node000003" class="edge">
<title>Node3&#45;&gt;Node2</title>
<g id="a_edge2_Node000002_Node000003"><a xlink:title=" ">
<path fill="none" stroke="#63b8ff" d="M78.12,-180.13C78.12,-171.9 78.12,-162.85 78.12,-156.3"/>
<polygon fill="#63b8ff" stroke="#63b8ff" points="74.63,-180.08 78.13,-190.08 81.63,-180.08 74.63,-180.08"/>
</a>
</g>
</g>
<!-- Node4 -->
<g id="Node000004" class="node">
<title>Node4</title>
<g id="a_Node000004"><a xlink:href="class_visitor.html" target="_top" xlink:title=" ">
<polygon fill="white" stroke="#bfbfbf" points="100,-268 56.25,-268 56.25,-248 100,-248 100,-268"/>
<text text-anchor="middle" x="78.12" y="-254.5" font-family="Helvetica,sans-Serif" font-size="10.00">Visitor</text>
</a>
</g>
</g>
<!-- Node4&#45;&gt;Node3 -->
<g id="edge3_Node000003_Node000004" class="edge">
<title>Node4&#45;&gt;Node3</title>
<g id="a_edge3_Node000003_Node000004"><a xlink:title=" ">
<path fill="none" stroke="#63b8ff" d="M78.12,-236.13C78.12,-227.9 78.12,-218.85 78.12,-212.3"/>
<polygon fill="#63b8ff" stroke="#63b8ff" points="74.63,-236.08 78.13,-246.08 81.63,-236.08 74.63,-236.08"/>
</a>
</g>
</g>
</g>
</svg>
</svg>

<style type='text/css'>
<![CDATA[
[data-mouse-over-selected='false'] { opacity: 0.7; }
[data-mouse-over-selected='true']  { opacity: 1.0; }
]]>
</style>
<script type="application/ecmascript"><![CDATA[
document.addEventListener('DOMContentLoaded', (event) => {
  highlightEdges();
  highlightAdjacentNodes();
});
]]></script>
</svg>
