<?xml version="1.0" encoding="UTF-8" standalone="no"?>
<!DOCTYPE svg PUBLIC "-//W3C//DTD SVG 1.1//EN"
 "http://www.w3.org/Graphics/SVG/1.1/DTD/svg11.dtd">
<!-- Generated by graphviz version 10.0.1 (20240210.2158)
 -->
<!-- Title: hash_vector_base Pages: 1 -->
<svg width="288pt" height="326pt"
 viewBox="0.00 0.00 288.25 326.00" xmlns="http://www.w3.org/2000/svg" xmlns:xlink="http://www.w3.org/1999/xlink">
<g id="graph0" class="graph" transform="scale(1 1) rotate(0) translate(4 322)">
<title>hash_vector_base</title>
<!-- Node1 -->
<g id="Node000001" class="node">
<title>Node1</title>
<g id="a_Node000001"><a xlink:title=" ">
<polygon fill="#999999" stroke="#666666" points="94,-163 0,-163 0,-143 94,-143 94,-163"/>
<text text-anchor="middle" x="47" y="-149.5" font-family="Helvetica,sans-Serif" font-size="10.00">hash_vector_base</text>
</a>
</g>
</g>
<!-- Node2 -->
<g id="Node000002" class="node">
<title>Node2</title>
<g id="a_Node000002"><a xlink:href="classhvec__map.html" target="_top" xlink:title=" ">
<polygon fill="white" stroke="#bfbfbf" points="279.5,-318 130.75,-318 130.75,-286 279.5,-286 279.5,-318"/>
<text text-anchor="start" x="138.75" y="-304.5" font-family="Helvetica,sans-Serif" font-size="10.00">hvec_map&lt; P4::ProgramPoint,</text>
<text text-anchor="middle" x="205.12" y="-292.5" font-family="Helvetica,sans-Serif" font-size="10.00"> P4::Definitions * &gt;</text>
</a>
</g>
</g>
<!-- Node1&#45;&gt;Node2 -->
<g id="edge1_Node000001_Node000002" class="edge">
<title>Node1&#45;&gt;Node2</title>
<g id="a_edge1_Node000001_Node000002"><a xlink:title=" ">
<path fill="none" stroke="#8b1a1a" d="M56.5,-173.7C68.78,-201.14 94.03,-249.32 130,-277 134.2,-280.23 138.84,-283.06 143.68,-285.53"/>
<polygon fill="#8b1a1a" stroke="#8b1a1a" points="59.8,-172.52 52.63,-164.72 53.37,-175.29 59.8,-172.52"/>
</a>
</g>
</g>
<!-- Node3 -->
<g id="Node000003" class="node">
<title>Node3</title>
<g id="a_Node000003"><a xlink:href="classhvec__map.html" target="_top" xlink:title=" ">
<polygon fill="white" stroke="#bfbfbf" points="258.88,-268 151.38,-268 151.38,-224 258.88,-224 258.88,-268"/>
<text text-anchor="start" x="159.38" y="-254.5" font-family="Helvetica,sans-Serif" font-size="10.00">hvec_map&lt; const IR</text>
<text text-anchor="start" x="159.38" y="-242.5" font-family="Helvetica,sans-Serif" font-size="10.00">::Expression *, const</text>
<text text-anchor="middle" x="205.12" y="-230.5" font-family="Helvetica,sans-Serif" font-size="10.00"> P4::LocationSet * &gt;</text>
</a>
</g>
</g>
<!-- Node1&#45;&gt;Node3 -->
<g id="edge2_Node000001_Node000003" class="edge">
<title>Node1&#45;&gt;Node3</title>
<g id="a_edge2_Node000001_Node000003"><a xlink:title=" ">
<path fill="none" stroke="#8b1a1a" d="M68.35,-170.69C84.36,-184.02 107.62,-202.14 130,-215 136.65,-218.82 143.87,-222.44 151.09,-225.75"/>
<polygon fill="#8b1a1a" stroke="#8b1a1a" points="70.88,-168.24 60.98,-164.45 66.35,-173.58 70.88,-168.24"/>
</a>
</g>
</g>
<!-- Node4 -->
<g id="Node000004" class="node">
<title>Node4</title>
<g id="a_Node000004"><a xlink:href="classhvec__map.html" target="_top" xlink:title=" ">
<polygon fill="white" stroke="#bfbfbf" points="264.12,-206 146.12,-206 146.12,-162 264.12,-162 264.12,-206"/>
<text text-anchor="start" x="154.12" y="-192.5" font-family="Helvetica,sans-Serif" font-size="10.00">hvec_map&lt; const P4</text>
<text text-anchor="start" x="154.12" y="-180.5" font-family="Helvetica,sans-Serif" font-size="10.00">::BaseLocation *, const</text>
<text text-anchor="middle" x="205.12" y="-168.5" font-family="Helvetica,sans-Serif" font-size="10.00"> P4::ProgramPoints * &gt;</text>
</a>
</g>
</g>
<!-- Node1&#45;&gt;Node4 -->
<g id="edge3_Node000001_Node000004" class="edge">
<title>Node1&#45;&gt;Node4</title>
<g id="a_edge3_Node000001_Node000004"><a xlink:title=" ">
<path fill="none" stroke="#8b1a1a" d="M105.65,-164.45C118.71,-167.04 132.59,-169.8 145.69,-172.4"/>
<polygon fill="#8b1a1a" stroke="#8b1a1a" points="106.39,-161.03 95.9,-162.51 105.03,-167.89 106.39,-161.03"/>
</a>
</g>
</g>
<!-- Node5 -->
<g id="Node000005" class="node">
<title>Node5</title>
<g id="a_Node000005"><a xlink:href="classhvec__map.html" target="_top" xlink:title=" ">
<polygon fill="white" stroke="#bfbfbf" points="259.25,-144 151,-144 151,-100 259.25,-100 259.25,-144"/>
<text text-anchor="start" x="159" y="-130.5" font-family="Helvetica,sans-Serif" font-size="10.00">hvec_map&lt; const IR</text>
<text text-anchor="start" x="159" y="-118.5" font-family="Helvetica,sans-Serif" font-size="10.00">::IDeclaration *, P4</text>
<text text-anchor="middle" x="205.12" y="-106.5" font-family="Helvetica,sans-Serif" font-size="10.00">::StorageLocation * &gt;</text>
</a>
</g>
</g>
<!-- Node1&#45;&gt;Node5 -->
<g id="edge4_Node000001_Node000005" class="edge">
<title>Node1&#45;&gt;Node5</title>
<g id="a_edge4_Node000001_Node000005"><a xlink:title=" ">
<path fill="none" stroke="#8b1a1a" d="M105.5,-141.58C120.3,-138.64 136.17,-135.49 150.75,-132.6"/>
<polygon fill="#8b1a1a" stroke="#8b1a1a" points="105.03,-138.11 95.9,-143.49 106.39,-144.97 105.03,-138.11"/>
</a>
</g>
</g>
<!-- Node6 -->
<g id="Node000006" class="node">
<title>Node6</title>
<g id="a_Node000006"><a xlink:href="classhvec__map.html" target="_top" xlink:title=" ">
<polygon fill="white" stroke="#bfbfbf" points="280.25,-82 130,-82 130,-50 280.25,-50 280.25,-82"/>
<text text-anchor="start" x="138" y="-68.5" font-family="Helvetica,sans-Serif" font-size="10.00">hvec_map&lt; cstring,</text>
<text text-anchor="middle" x="205.12" y="-56.5" font-family="Helvetica,sans-Serif" font-size="10.00"> const P4::StorageLocation * &gt;</text>
</a>
</g>
</g>
<!-- Node1&#45;&gt;Node6 -->
<g id="edge5_Node000001_Node000006" class="edge">
<title>Node1&#45;&gt;Node6</title>
<g id="a_edge5_Node000001_Node000006"><a xlink:title=" ">
<path fill="none" stroke="#8b1a1a" d="M67.55,-135.32C83.44,-121.71 106.92,-103.2 130,-91 136,-87.83 142.49,-84.94 149.04,-82.35"/>
<polygon fill="#8b1a1a" stroke="#8b1a1a" points="65.5,-132.47 60.28,-141.69 70.11,-137.74 65.5,-132.47"/>
</a>
</g>
</g>
<!-- Node7 -->
<g id="Node000007" class="node">
<title>Node7</title>
<g id="a_Node000007"><a xlink:href="classhvec__map.html" target="_top" xlink:title=" ">
<polygon fill="white" stroke="#bfbfbf" points="267.88,-32 142.38,-32 142.38,0 267.88,0 267.88,-32"/>
<text text-anchor="start" x="150.38" y="-18.5" font-family="Helvetica,sans-Serif" font-size="10.00">hvec_map&lt; KEY, VAL,</text>
<text text-anchor="middle" x="205.12" y="-6.5" font-family="Helvetica,sans-Serif" font-size="10.00"> HASH, PRED, ALLOC &gt;</text>
</a>
</g>
</g>
<!-- Node1&#45;&gt;Node7 -->
<g id="edge6_Node000001_Node000007" class="edge">
<title>Node1&#45;&gt;Node7</title>
<g id="a_edge6_Node000001_Node000007"><a xlink:title=" ">
<path fill="none" stroke="#8b1a1a" d="M57.96,-132.52C71.13,-107.48 96.62,-65.45 130,-41 134.49,-37.71 139.45,-34.83 144.6,-32.32"/>
<polygon fill="#8b1a1a" stroke="#8b1a1a" points="54.88,-130.85 53.48,-141.35 61.12,-134.02 54.88,-130.85"/>
</a>
</g>
</g>
</g>
</svg>
