<?xml version="1.0" encoding="UTF-8" standalone="no"?>
<!DOCTYPE svg PUBLIC "-//W3C//DTD SVG 1.1//EN"
 "http://www.w3.org/Graphics/SVG/1.1/DTD/svg11.dtd">
<!-- Generated by graphviz version 10.0.1 (20240210.2158)
 -->
<!-- Title: EBPF::EBPFProgram Pages: 1 -->
<svg width="1148pt" height="161pt"
 viewBox="0.00 0.00 1147.75 161.00" xmlns="http://www.w3.org/2000/svg" xmlns:xlink="http://www.w3.org/1999/xlink">
<g id="graph0" class="graph" transform="scale(1 1) rotate(0) translate(4 157)">
<title>EBPF::EBPFProgram</title>
<!-- Node1 -->
<g id="Node000001" class="node">
<title>Node1</title>
<g id="a_Node000001"><a xlink:title=" ">
<polygon fill="#999999" stroke="#666666" points="442.75,-58 331.5,-58 331.5,-38 442.75,-38 442.75,-58"/>
<text text-anchor="middle" x="387.12" y="-44.5" font-family="Helvetica,sans-Serif" font-size="10.00">EBPF::EBPFProgram</text>
</a>
</g>
</g>
<!-- Node5 -->
<g id="Node000005" class="node">
<title>Node5</title>
<g id="a_Node000005"><a xlink:href="class_e_b_p_f_1_1_e_b_p_f_pipeline.html" target="_top" xlink:title=" ">
<polygon fill="white" stroke="#bfbfbf" points="594.88,-96 485.88,-96 485.88,-76 594.88,-76 594.88,-96"/>
<text text-anchor="middle" x="540.38" y="-82.5" font-family="Helvetica,sans-Serif" font-size="10.00">EBPF::EBPFPipeline</text>
</a>
</g>
</g>
<!-- Node1&#45;&gt;Node5 -->
<g id="edge4_Node000001_Node000005" class="edge">
<title>Node1&#45;&gt;Node5</title>
<g id="a_edge4_Node000001_Node000005"><a xlink:title=" ">
<path fill="none" stroke="#63b8ff" d="M440.85,-61.25C459.5,-65.93 480.19,-71.13 497.78,-75.55"/>
<polygon fill="#63b8ff" stroke="#63b8ff" points="441.87,-57.9 431.32,-58.85 440.17,-64.68 441.87,-57.9"/>
</a>
</g>
</g>
<!-- Node14 -->
<g id="Node000014" class="node">
<title>Node14</title>
<g id="a_Node000014"><a xlink:href="class_e_b_p_f_1_1_x_d_p_help_program.html" target="_top" xlink:title=" ">
<polygon fill="white" stroke="#bfbfbf" points="602,-58 478.75,-58 478.75,-38 602,-38 602,-58"/>
<text text-anchor="middle" x="540.38" y="-44.5" font-family="Helvetica,sans-Serif" font-size="10.00">EBPF::XDPHelpProgram</text>
</a>
</g>
</g>
<!-- Node1&#45;&gt;Node14 -->
<g id="edge13_Node000001_Node000014" class="edge">
<title>Node1&#45;&gt;Node14</title>
<g id="a_edge13_Node000001_Node000014"><a xlink:title=" ">
<path fill="none" stroke="#63b8ff" d="M454.65,-48C462.58,-48 470.65,-48 478.5,-48"/>
<polygon fill="#63b8ff" stroke="#63b8ff" points="454.67,-44.5 444.67,-48 454.67,-51.5 454.67,-44.5"/>
</a>
</g>
</g>
<!-- Node15 -->
<g id="Node000015" class="node">
<title>Node15</title>
<g id="a_Node000015"><a xlink:href="class_u_b_p_f_1_1_u_b_p_f_program.html" target="_top" xlink:title=" ">
<polygon fill="white" stroke="#bfbfbf" points="596,-20 484.75,-20 484.75,0 596,0 596,-20"/>
<text text-anchor="middle" x="540.38" y="-6.5" font-family="Helvetica,sans-Serif" font-size="10.00">UBPF::UBPFProgram</text>
</a>
</g>
</g>
<!-- Node1&#45;&gt;Node15 -->
<g id="edge14_Node000001_Node000015" class="edge">
<title>Node1&#45;&gt;Node15</title>
<g id="a_edge14_Node000001_Node000015"><a xlink:title=" ">
<path fill="none" stroke="#63b8ff" d="M440.85,-34.75C459.5,-30.07 480.19,-24.87 497.78,-20.45"/>
<polygon fill="#63b8ff" stroke="#63b8ff" points="440.17,-31.32 431.32,-37.15 441.87,-38.1 440.17,-31.32"/>
</a>
</g>
</g>
<!-- Node2 -->
<g id="Node000002" class="node">
<title>Node2</title>
<g id="a_Node000002"><a xlink:href="class_e_b_p_f_1_1_e_b_p_f_object.html" target="_top" xlink:title=" ">
<polygon fill="white" stroke="#bfbfbf" points="295.5,-58 192.5,-58 192.5,-38 295.5,-38 295.5,-58"/>
<text text-anchor="middle" x="244" y="-44.5" font-family="Helvetica,sans-Serif" font-size="10.00">EBPF::EBPFObject</text>
</a>
</g>
</g>
<!-- Node2&#45;&gt;Node1 -->
<g id="edge1_Node000001_Node000002" class="edge">
<title>Node2&#45;&gt;Node1</title>
<g id="a_edge1_Node000001_Node000002"><a xlink:title=" ">
<path fill="none" stroke="#63b8ff" d="M307.21,-48C315.28,-48 323.5,-48 331.44,-48"/>
<polygon fill="#63b8ff" stroke="#63b8ff" points="307.46,-44.5 297.46,-48 307.46,-51.5 307.46,-44.5"/>
</a>
</g>
</g>
<!-- Node3 -->
<g id="Node000003" class="node">
<title>Node3</title>
<g id="a_Node000003"><a xlink:href="class_i_castable.html" target="_top" xlink:title=" ">
<polygon fill="white" stroke="#666666" points="156.5,-58 100,-58 100,-38 156.5,-38 156.5,-58"/>
<text text-anchor="middle" x="128.25" y="-44.5" font-family="Helvetica,sans-Serif" font-size="10.00">ICastable</text>
</a>
</g>
</g>
<!-- Node3&#45;&gt;Node2 -->
<g id="edge2_Node000002_Node000003" class="edge">
<title>Node3&#45;&gt;Node2</title>
<g id="a_edge2_Node000002_Node000003"><a xlink:title=" ">
<path fill="none" stroke="#63b8ff" d="M168.07,-48C175.82,-48 184.07,-48 192.15,-48"/>
<polygon fill="#63b8ff" stroke="#63b8ff" points="168.3,-44.5 158.3,-48 168.3,-51.5 168.3,-44.5"/>
</a>
</g>
</g>
<!-- Node4 -->
<g id="Node000004" class="node">
<title>Node4</title>
<g id="a_Node000004"><a xlink:href="struct_r_t_t_i_1_1_base.html" target="_top" xlink:title=" ">
<polygon fill="white" stroke="#bfbfbf" points="64,-58 0,-58 0,-38 64,-38 64,-58"/>
<text text-anchor="middle" x="32" y="-44.5" font-family="Helvetica,sans-Serif" font-size="10.00">RTTI::Base</text>
</a>
</g>
</g>
<!-- Node4&#45;&gt;Node3 -->
<g id="edge3_Node000003_Node000004" class="edge">
<title>Node4&#45;&gt;Node3</title>
<g id="a_edge3_Node000003_Node000004"><a xlink:title=" ">
<path fill="none" stroke="#63b8ff" d="M75.72,-48C83.9,-48 92.26,-48 99.8,-48"/>
<polygon fill="#63b8ff" stroke="#63b8ff" points="75.9,-44.5 65.9,-48 75.9,-51.5 75.9,-44.5"/>
</a>
</g>
</g>
<!-- Node6 -->
<g id="Node000006" class="node">
<title>Node6</title>
<g id="a_Node000006"><a xlink:href="class_e_b_p_f_1_1_e_b_p_f_egress_pipeline.html" target="_top" xlink:title=" ">
<polygon fill="white" stroke="#bfbfbf" points="778.12,-115 638.38,-115 638.38,-95 778.12,-95 778.12,-115"/>
<text text-anchor="middle" x="708.25" y="-101.5" font-family="Helvetica,sans-Serif" font-size="10.00">EBPF::EBPFEgressPipeline</text>
</a>
</g>
</g>
<!-- Node5&#45;&gt;Node6 -->
<g id="edge5_Node000005_Node000006" class="edge">
<title>Node5&#45;&gt;Node6</title>
<g id="a_edge5_Node000005_Node000006"><a xlink:title=" ">
<path fill="none" stroke="#63b8ff" d="M606.64,-93.48C616.92,-94.65 627.57,-95.87 637.94,-97.06"/>
<polygon fill="#63b8ff" stroke="#63b8ff" points="607.07,-90 596.73,-92.34 606.27,-96.96 607.07,-90"/>
</a>
</g>
</g>
<!-- Node9 -->
<g id="Node000009" class="node">
<title>Node9</title>
<g id="a_Node000009"><a xlink:href="class_e_b_p_f_1_1_e_b_p_f_ingress_pipeline.html" target="_top" xlink:title=" ">
<polygon fill="white" stroke="#bfbfbf" points="778.5,-77 638,-77 638,-57 778.5,-57 778.5,-77"/>
<text text-anchor="middle" x="708.25" y="-63.5" font-family="Helvetica,sans-Serif" font-size="10.00">EBPF::EBPFIngressPipeline</text>
</a>
</g>
</g>
<!-- Node5&#45;&gt;Node9 -->
<g id="edge8_Node000005_Node000009" class="edge">
<title>Node5&#45;&gt;Node9</title>
<g id="a_edge8_Node000005_Node000009"><a xlink:title=" ">
<path fill="none" stroke="#63b8ff" d="M606.56,-78.53C616.76,-77.36 627.34,-76.15 637.64,-74.97"/>
<polygon fill="#63b8ff" stroke="#63b8ff" points="606.27,-75.04 596.73,-79.66 607.07,-82 606.27,-75.04"/>
</a>
</g>
</g>
<!-- Node7 -->
<g id="Node000007" class="node">
<title>Node7</title>
<g id="a_Node000007"><a xlink:href="class_e_b_p_f_1_1_t_c_egress_pipeline.html" target="_top" xlink:title=" ">
<polygon fill="white" stroke="#bfbfbf" points="943.75,-153 818.25,-153 818.25,-133 943.75,-133 943.75,-153"/>
<text text-anchor="middle" x="881" y="-139.5" font-family="Helvetica,sans-Serif" font-size="10.00">EBPF::TCEgressPipeline</text>
</a>
</g>
</g>
<!-- Node6&#45;&gt;Node7 -->
<g id="edge6_Node000006_Node000007" class="edge">
<title>Node6&#45;&gt;Node7</title>
<g id="a_edge6_Node000006_Node000007"><a xlink:title=" ">
<path fill="none" stroke="#63b8ff" d="M767.59,-117.98C788.95,-122.74 812.81,-128.05 833.04,-132.55"/>
<polygon fill="#63b8ff" stroke="#63b8ff" points="768.36,-114.57 757.84,-115.81 766.84,-121.4 768.36,-114.57"/>
</a>
</g>
</g>
<!-- Node8 -->
<g id="Node000008" class="node">
<title>Node8</title>
<g id="a_Node000008"><a xlink:href="class_e_b_p_f_1_1_x_d_p_egress_pipeline.html" target="_top" xlink:title=" ">
<polygon fill="white" stroke="#bfbfbf" points="947.12,-115 814.88,-115 814.88,-95 947.12,-95 947.12,-115"/>
<text text-anchor="middle" x="881" y="-101.5" font-family="Helvetica,sans-Serif" font-size="10.00">EBPF::XDPEgressPipeline</text>
</a>
</g>
</g>
<!-- Node6&#45;&gt;Node8 -->
<g id="edge7_Node000006_Node000008" class="edge">
<title>Node6&#45;&gt;Node8</title>
<g id="a_edge7_Node000006_Node000008"><a xlink:title=" ">
<path fill="none" stroke="#63b8ff" d="M789.5,-105C797.84,-105 806.24,-105 814.38,-105"/>
<polygon fill="#63b8ff" stroke="#63b8ff" points="789.72,-101.5 779.72,-105 789.72,-108.5 789.72,-101.5"/>
</a>
</g>
</g>
<!-- Node10 -->
<g id="Node000010" class="node">
<title>Node10</title>
<g id="a_Node000010"><a xlink:href="class_e_b_p_f_1_1_t_c_ingress_pipeline.html" target="_top" xlink:title=" ">
<polygon fill="white" stroke="#bfbfbf" points="944.12,-77 817.88,-77 817.88,-57 944.12,-57 944.12,-77"/>
<text text-anchor="middle" x="881" y="-63.5" font-family="Helvetica,sans-Serif" font-size="10.00">EBPF::TCIngressPipeline</text>
</a>
</g>
</g>
<!-- Node9&#45;&gt;Node10 -->
<g id="edge9_Node000009_Node000010" class="edge">
<title>Node9&#45;&gt;Node10</title>
<g id="a_edge9_Node000009_Node000010"><a xlink:title=" ">
<path fill="none" stroke="#63b8ff" d="M789.93,-67C799.18,-67 808.51,-67 817.48,-67"/>
<polygon fill="#63b8ff" stroke="#63b8ff" points="790.21,-63.5 780.21,-67 790.21,-70.5 790.21,-63.5"/>
</a>
</g>
</g>
<!-- Node13 -->
<g id="Node000013" class="node">
<title>Node13</title>
<g id="a_Node000013"><a xlink:href="class_e_b_p_f_1_1_x_d_p_ingress_pipeline.html" target="_top" xlink:title=" ">
<polygon fill="white" stroke="#bfbfbf" points="947.5,-39 814.5,-39 814.5,-19 947.5,-19 947.5,-39"/>
<text text-anchor="middle" x="881" y="-25.5" font-family="Helvetica,sans-Serif" font-size="10.00">EBPF::XDPIngressPipeline</text>
</a>
</g>
</g>
<!-- Node9&#45;&gt;Node13 -->
<g id="edge12_Node000009_Node000013" class="edge">
<title>Node9&#45;&gt;Node13</title>
<g id="a_edge12_Node000009_Node000013"><a xlink:title=" ">
<path fill="none" stroke="#63b8ff" d="M767.59,-54.02C788.95,-49.26 812.81,-43.95 833.04,-39.45"/>
<polygon fill="#63b8ff" stroke="#63b8ff" points="766.84,-50.6 757.84,-56.19 768.36,-57.43 766.84,-50.6"/>
</a>
</g>
</g>
<!-- Node11 -->
<g id="Node000011" class="node">
<title>Node11</title>
<g id="a_Node000011"><a xlink:href="class_e_b_p_f_1_1_t_c_traffic_manager_for_x_d_p.html" target="_top" xlink:title=" ">
<polygon fill="white" stroke="#bfbfbf" points="1139.75,-96 983.5,-96 983.5,-76 1139.75,-76 1139.75,-96"/>
<text text-anchor="middle" x="1061.62" y="-82.5" font-family="Helvetica,sans-Serif" font-size="10.00">EBPF::TCTrafficManagerForXDP</text>
</a>
</g>
</g>
<!-- Node10&#45;&gt;Node11 -->
<g id="edge10_Node000010_Node000011" class="edge">
<title>Node10&#45;&gt;Node11</title>
<g id="a_edge10_Node000010_Node000011"><a xlink:title=" ">
<path fill="none" stroke="#63b8ff" d="M955.76,-74.85C964.78,-75.81 974.03,-76.79 983.11,-77.75"/>
<polygon fill="#63b8ff" stroke="#63b8ff" points="956.29,-71.38 945.98,-73.81 955.55,-78.34 956.29,-71.38"/>
</a>
</g>
</g>
<!-- Node12 -->
<g id="Node000012" class="node">
<title>Node12</title>
<g id="a_Node000012"><a xlink:href="class_t_c_1_1_t_c_ingress_pipeline_p_n_a.html" target="_top" xlink:title=" ">
<polygon fill="white" stroke="#bfbfbf" points="1127.75,-58 995.5,-58 995.5,-38 1127.75,-38 1127.75,-58"/>
<text text-anchor="middle" x="1061.62" y="-44.5" font-family="Helvetica,sans-Serif" font-size="10.00">TC::TCIngressPipelinePNA</text>
</a>
</g>
</g>
<!-- Node10&#45;&gt;Node12 -->
<g id="edge11_Node000010_Node000012" class="edge">
<title>Node10&#45;&gt;Node12</title>
<g id="a_edge11_Node000010_Node000012"><a xlink:title=" ">
<path fill="none" stroke="#63b8ff" d="M955.8,-59.15C968.85,-57.76 982.35,-56.33 995.15,-54.96"/>
<polygon fill="#63b8ff" stroke="#63b8ff" points="955.55,-55.66 945.98,-60.19 956.29,-62.62 955.55,-55.66"/>
</a>
</g>
</g>
</g>
</svg>
