<?xml version="1.0" encoding="UTF-8" standalone="no"?>
<!DOCTYPE svg PUBLIC "-//W3C//DTD SVG 1.1//EN"
 "http://www.w3.org/Graphics/SVG/1.1/DTD/svg11.dtd">
<!-- Generated by graphviz version 10.0.1 (20240210.2158)
 -->
<!-- Title: EBPF::XDPEgressDeparserPSA Pages: 1 -->
<svg width="165pt" height="420pt"
 viewBox="0.00 0.00 165.00 420.00" xmlns="http://www.w3.org/2000/svg" xmlns:xlink="http://www.w3.org/1999/xlink">
<g id="graph0" class="graph" transform="scale(1 1) rotate(0) translate(4 416)">
<title>EBPF::XDPEgressDeparserPSA</title>
<!-- Node1 -->
<g id="Node000001" class="node">
<title>Node1</title>
<g id="a_Node000001"><a xlink:title=" ">
<polygon fill="#999999" stroke="#666666" points="157,-20 0,-20 0,0 157,0 157,-20"/>
<text text-anchor="middle" x="78.5" y="-6.5" font-family="Helvetica,sans-Serif" font-size="10.00">EBPF::XDPEgressDeparserPSA</text>
</a>
</g>
</g>
<!-- Node2 -->
<g id="Node000002" class="node">
<title>Node2</title>
<g id="a_Node000002"><a xlink:href="class_e_b_p_f_1_1_egress_deparser_p_s_a.html" target="_top" xlink:title=" ">
<polygon fill="white" stroke="#bfbfbf" points="147.62,-76 9.38,-76 9.38,-56 147.62,-56 147.62,-76"/>
<text text-anchor="middle" x="78.5" y="-62.5" font-family="Helvetica,sans-Serif" font-size="10.00">EBPF::EgressDeparserPSA</text>
</a>
</g>
</g>
<!-- Node2&#45;&gt;Node1 -->
<g id="edge1_Node000001_Node000002" class="edge">
<title>Node2&#45;&gt;Node1</title>
<g id="a_edge1_Node000001_Node000002"><a xlink:title=" ">
<path fill="none" stroke="#63b8ff" d="M78.5,-44.13C78.5,-35.9 78.5,-26.85 78.5,-20.3"/>
<polygon fill="#63b8ff" stroke="#63b8ff" points="75,-44.08 78.5,-54.08 82,-44.08 75,-44.08"/>
</a>
</g>
</g>
<!-- Node3 -->
<g id="Node000003" class="node">
<title>Node3</title>
<g id="a_Node000003"><a xlink:href="class_e_b_p_f_1_1_e_b_p_f_deparser_p_s_a.html" target="_top" xlink:title=" ">
<polygon fill="white" stroke="#bfbfbf" points="145.38,-132 11.62,-132 11.62,-112 145.38,-112 145.38,-132"/>
<text text-anchor="middle" x="78.5" y="-118.5" font-family="Helvetica,sans-Serif" font-size="10.00">EBPF::EBPFDeparserPSA</text>
</a>
</g>
</g>
<!-- Node3&#45;&gt;Node2 -->
<g id="edge2_Node000002_Node000003" class="edge">
<title>Node3&#45;&gt;Node2</title>
<g id="a_edge2_Node000002_Node000003"><a xlink:title=" ">
<path fill="none" stroke="#63b8ff" d="M78.5,-100.13C78.5,-91.9 78.5,-82.85 78.5,-76.3"/>
<polygon fill="#63b8ff" stroke="#63b8ff" points="75,-100.08 78.5,-110.08 82,-100.08 75,-100.08"/>
</a>
</g>
</g>
<!-- Node4 -->
<g id="Node000004" class="node">
<title>Node4</title>
<g id="a_Node000004"><a xlink:href="class_e_b_p_f_1_1_e_b_p_f_deparser.html" target="_top" xlink:title=" ">
<polygon fill="white" stroke="#bfbfbf" points="135.25,-188 21.75,-188 21.75,-168 135.25,-168 135.25,-188"/>
<text text-anchor="middle" x="78.5" y="-174.5" font-family="Helvetica,sans-Serif" font-size="10.00">EBPF::EBPFDeparser</text>
</a>
</g>
</g>
<!-- Node4&#45;&gt;Node3 -->
<g id="edge3_Node000003_Node000004" class="edge">
<title>Node4&#45;&gt;Node3</title>
<g id="a_edge3_Node000003_Node000004"><a xlink:title=" ">
<path fill="none" stroke="#63b8ff" d="M78.5,-156.13C78.5,-147.9 78.5,-138.85 78.5,-132.3"/>
<polygon fill="#63b8ff" stroke="#63b8ff" points="75,-156.08 78.5,-166.08 82,-156.08 75,-156.08"/>
</a>
</g>
</g>
<!-- Node5 -->
<g id="Node000005" class="node">
<title>Node5</title>
<g id="a_Node000005"><a xlink:href="class_e_b_p_f_1_1_e_b_p_f_control.html" target="_top" xlink:title=" ">
<polygon fill="white" stroke="#bfbfbf" points="131.12,-244 25.88,-244 25.88,-224 131.12,-224 131.12,-244"/>
<text text-anchor="middle" x="78.5" y="-230.5" font-family="Helvetica,sans-Serif" font-size="10.00">EBPF::EBPFControl</text>
</a>
</g>
</g>
<!-- Node5&#45;&gt;Node4 -->
<g id="edge4_Node000004_Node000005" class="edge">
<title>Node5&#45;&gt;Node4</title>
<g id="a_edge4_Node000004_Node000005"><a xlink:title=" ">
<path fill="none" stroke="#63b8ff" d="M78.5,-212.13C78.5,-203.9 78.5,-194.85 78.5,-188.3"/>
<polygon fill="#63b8ff" stroke="#63b8ff" points="75,-212.08 78.5,-222.08 82,-212.08 75,-212.08"/>
</a>
</g>
</g>
<!-- Node6 -->
<g id="Node000006" class="node">
<title>Node6</title>
<g id="a_Node000006"><a xlink:href="class_e_b_p_f_1_1_e_b_p_f_object.html" target="_top" xlink:title=" ">
<polygon fill="white" stroke="#bfbfbf" points="130,-300 27,-300 27,-280 130,-280 130,-300"/>
<text text-anchor="middle" x="78.5" y="-286.5" font-family="Helvetica,sans-Serif" font-size="10.00">EBPF::EBPFObject</text>
</a>
</g>
</g>
<!-- Node6&#45;&gt;Node5 -->
<g id="edge5_Node000005_Node000006" class="edge">
<title>Node6&#45;&gt;Node5</title>
<g id="a_edge5_Node000005_Node000006"><a xlink:title=" ">
<path fill="none" stroke="#63b8ff" d="M78.5,-268.13C78.5,-259.9 78.5,-250.85 78.5,-244.3"/>
<polygon fill="#63b8ff" stroke="#63b8ff" points="75,-268.08 78.5,-278.08 82,-268.08 75,-268.08"/>
</a>
</g>
</g>
<!-- Node7 -->
<g id="Node000007" class="node">
<title>Node7</title>
<g id="a_Node000007"><a xlink:href="class_i_castable.html" target="_top" xlink:title=" ">
<polygon fill="white" stroke="#666666" points="106.75,-356 50.25,-356 50.25,-336 106.75,-336 106.75,-356"/>
<text text-anchor="middle" x="78.5" y="-342.5" font-family="Helvetica,sans-Serif" font-size="10.00">ICastable</text>
</a>
</g>
</g>
<!-- Node7&#45;&gt;Node6 -->
<g id="edge6_Node000006_Node000007" class="edge">
<title>Node7&#45;&gt;Node6</title>
<g id="a_edge6_Node000006_Node000007"><a xlink:title=" ">
<path fill="none" stroke="#63b8ff" d="M78.5,-324.13C78.5,-315.9 78.5,-306.85 78.5,-300.3"/>
<polygon fill="#63b8ff" stroke="#63b8ff" points="75,-324.08 78.5,-334.08 82,-324.08 75,-324.08"/>
</a>
</g>
</g>
<!-- Node8 -->
<g id="Node000008" class="node">
<title>Node8</title>
<g id="a_Node000008"><a xlink:href="struct_r_t_t_i_1_1_base.html" target="_top" xlink:title=" ">
<polygon fill="white" stroke="#bfbfbf" points="110.5,-412 46.5,-412 46.5,-392 110.5,-392 110.5,-412"/>
<text text-anchor="middle" x="78.5" y="-398.5" font-family="Helvetica,sans-Serif" font-size="10.00">RTTI::Base</text>
</a>
</g>
</g>
<!-- Node8&#45;&gt;Node7 -->
<g id="edge7_Node000007_Node000008" class="edge">
<title>Node8&#45;&gt;Node7</title>
<g id="a_edge7_Node000007_Node000008"><a xlink:title=" ">
<path fill="none" stroke="#63b8ff" d="M78.5,-380.13C78.5,-371.9 78.5,-362.85 78.5,-356.3"/>
<polygon fill="#63b8ff" stroke="#63b8ff" points="75,-380.08 78.5,-390.08 82,-380.08 75,-380.08"/>
</a>
</g>
</g>
</g>
</svg>
