<?xml version="1.0" encoding="UTF-8" standalone="no"?>
<!DOCTYPE svg PUBLIC "-//W3C//DTD SVG 1.1//EN"
 "http://www.w3.org/Graphics/SVG/1.1/DTD/svg11.dtd">
<!-- Generated by graphviz version 10.0.1 (20240210.2158)
 -->
<!-- Title: UBPF::UBPFBoolType Pages: 1 -->
<svg width="214pt" height="308pt"
 viewBox="0.00 0.00 214.38 308.00" xmlns="http://www.w3.org/2000/svg" xmlns:xlink="http://www.w3.org/1999/xlink">
<g id="graph0" class="graph" transform="scale(1 1) rotate(0) translate(4 304)">
<title>UBPF::UBPFBoolType</title>
<!-- Node1 -->
<g id="Node000001" class="node">
<title>Node1</title>
<g id="a_Node000001"><a xlink:title=" ">
<polygon fill="#999999" stroke="#666666" points="161.25,-20 46.25,-20 46.25,0 161.25,0 161.25,-20"/>
<text text-anchor="middle" x="103.75" y="-6.5" font-family="Helvetica,sans-Serif" font-size="10.00">UBPF::UBPFBoolType</text>
</a>
</g>
</g>
<!-- Node2 -->
<g id="Node000002" class="node">
<title>Node2</title>
<g id="a_Node000002"><a xlink:href="class_e_b_p_f_1_1_e_b_p_f_bool_type.html" target="_top" xlink:title=" ">
<polygon fill="white" stroke="#bfbfbf" points="161.25,-76 46.25,-76 46.25,-56 161.25,-56 161.25,-76"/>
<text text-anchor="middle" x="103.75" y="-62.5" font-family="Helvetica,sans-Serif" font-size="10.00">EBPF::EBPFBoolType</text>
</a>
</g>
</g>
<!-- Node2&#45;&gt;Node1 -->
<g id="edge1_Node000001_Node000002" class="edge">
<title>Node2&#45;&gt;Node1</title>
<g id="a_edge1_Node000001_Node000002"><a xlink:title=" ">
<path fill="none" stroke="#63b8ff" d="M103.75,-44.13C103.75,-35.9 103.75,-26.85 103.75,-20.3"/>
<polygon fill="#63b8ff" stroke="#63b8ff" points="100.25,-44.08 103.75,-54.08 107.25,-44.08 100.25,-44.08"/>
</a>
</g>
</g>
<!-- Node3 -->
<g id="Node000003" class="node">
<title>Node3</title>
<g id="a_Node000003"><a xlink:href="class_e_b_p_f_1_1_e_b_p_f_type.html" target="_top" xlink:title=" ">
<polygon fill="white" stroke="#bfbfbf" points="95.5,-132 0,-132 0,-112 95.5,-112 95.5,-132"/>
<text text-anchor="middle" x="47.75" y="-118.5" font-family="Helvetica,sans-Serif" font-size="10.00">EBPF::EBPFType</text>
</a>
</g>
</g>
<!-- Node3&#45;&gt;Node2 -->
<g id="edge2_Node000002_Node000003" class="edge">
<title>Node3&#45;&gt;Node2</title>
<g id="a_edge2_Node000002_Node000003"><a xlink:title=" ">
<path fill="none" stroke="#63b8ff" d="M65.54,-103.85C75,-94.72 86.27,-83.86 94.11,-76.3"/>
<polygon fill="#63b8ff" stroke="#63b8ff" points="63.36,-101.08 58.59,-110.54 68.22,-106.12 63.36,-101.08"/>
</a>
</g>
</g>
<!-- Node4 -->
<g id="Node000004" class="node">
<title>Node4</title>
<g id="a_Node000004"><a xlink:href="class_e_b_p_f_1_1_e_b_p_f_object.html" target="_top" xlink:title=" ">
<polygon fill="white" stroke="#bfbfbf" points="115.25,-188 12.25,-188 12.25,-168 115.25,-168 115.25,-188"/>
<text text-anchor="middle" x="63.75" y="-174.5" font-family="Helvetica,sans-Serif" font-size="10.00">EBPF::EBPFObject</text>
</a>
</g>
</g>
<!-- Node4&#45;&gt;Node3 -->
<g id="edge3_Node000003_Node000004" class="edge">
<title>Node4&#45;&gt;Node3</title>
<g id="a_edge3_Node000003_Node000004"><a xlink:title=" ">
<path fill="none" stroke="#63b8ff" d="M57.74,-156.71C55.25,-148.32 52.49,-139.01 50.51,-132.3"/>
<polygon fill="#63b8ff" stroke="#63b8ff" points="54.34,-157.55 60.53,-166.14 61.05,-155.56 54.34,-157.55"/>
</a>
</g>
</g>
<!-- Node5 -->
<g id="Node000005" class="node">
<title>Node5</title>
<g id="a_Node000005"><a xlink:href="class_i_castable.html" target="_top" xlink:title=" ">
<polygon fill="white" stroke="#666666" points="132,-244 75.5,-244 75.5,-224 132,-224 132,-244"/>
<text text-anchor="middle" x="103.75" y="-230.5" font-family="Helvetica,sans-Serif" font-size="10.00">ICastable</text>
</a>
</g>
</g>
<!-- Node5&#45;&gt;Node4 -->
<g id="edge4_Node000004_Node000005" class="edge">
<title>Node5&#45;&gt;Node4</title>
<g id="a_edge4_Node000004_Node000005"><a xlink:title=" ">
<path fill="none" stroke="#63b8ff" d="M90,-214.44C83.47,-205.62 75.95,-195.47 70.64,-188.3"/>
<polygon fill="#63b8ff" stroke="#63b8ff" points="87.12,-216.43 95.88,-222.38 92.74,-212.26 87.12,-216.43"/>
</a>
</g>
</g>
<!-- Node7 -->
<g id="Node000007" class="node">
<title>Node7</title>
<g id="a_Node000007"><a xlink:href="class_e_b_p_f_1_1_i_has_width.html" target="_top" xlink:title=" ">
<polygon fill="white" stroke="#bfbfbf" points="206.38,-132 113.12,-132 113.12,-112 206.38,-112 206.38,-132"/>
<text text-anchor="middle" x="159.75" y="-118.5" font-family="Helvetica,sans-Serif" font-size="10.00">EBPF::IHasWidth</text>
</a>
</g>
</g>
<!-- Node5&#45;&gt;Node7 -->
<g id="edge7_Node000007_Node000005" class="edge">
<title>Node5&#45;&gt;Node7</title>
<g id="a_edge7_Node000007_Node000005"><a xlink:title=" ">
<path fill="none" stroke="#63b8ff" d="M113.61,-213.62C125.75,-189.78 145.86,-150.28 154.99,-132.35"/>
<polygon fill="#63b8ff" stroke="#63b8ff" points="110.63,-211.77 109.21,-222.27 116.87,-214.95 110.63,-211.77"/>
</a>
</g>
</g>
<!-- Node6 -->
<g id="Node000006" class="node">
<title>Node6</title>
<g id="a_Node000006"><a xlink:href="struct_r_t_t_i_1_1_base.html" target="_top" xlink:title=" ">
<polygon fill="white" stroke="#bfbfbf" points="135.75,-300 71.75,-300 71.75,-280 135.75,-280 135.75,-300"/>
<text text-anchor="middle" x="103.75" y="-286.5" font-family="Helvetica,sans-Serif" font-size="10.00">RTTI::Base</text>
</a>
</g>
</g>
<!-- Node6&#45;&gt;Node5 -->
<g id="edge5_Node000005_Node000006" class="edge">
<title>Node6&#45;&gt;Node5</title>
<g id="a_edge5_Node000005_Node000006"><a xlink:title=" ">
<path fill="none" stroke="#63b8ff" d="M103.75,-268.13C103.75,-259.9 103.75,-250.85 103.75,-244.3"/>
<polygon fill="#63b8ff" stroke="#63b8ff" points="100.25,-268.08 103.75,-278.08 107.25,-268.08 100.25,-268.08"/>
</a>
</g>
</g>
<!-- Node7&#45;&gt;Node2 -->
<g id="edge6_Node000002_Node000007" class="edge">
<title>Node7&#45;&gt;Node2</title>
<g id="a_edge6_Node000002_Node000007"><a xlink:title=" ">
<path fill="none" stroke="#63b8ff" d="M141.96,-103.85C132.5,-94.72 121.23,-83.86 113.39,-76.3"/>
<polygon fill="#63b8ff" stroke="#63b8ff" points="139.28,-106.12 148.91,-110.54 144.14,-101.08 139.28,-106.12"/>
</a>
</g>
</g>
</g>
</svg>
