<?xml version="1.0" encoding="UTF-8" standalone="no"?>
<!DOCTYPE svg PUBLIC "-//W3C//DTD SVG 1.1//EN"
 "http://www.w3.org/Graphics/SVG/1.1/DTD/svg11.dtd">
<!-- Generated by graphviz version 10.0.1 (20240210.2158)
 -->
<!-- Title: P4Tools::P4Testgen::Pna::PnaDpdkRegisterCondition Pages: 1 -->
<svg width="170pt" height="220pt"
 viewBox="0.00 0.00 169.50 220.00" xmlns="http://www.w3.org/2000/svg" xmlns:xlink="http://www.w3.org/1999/xlink">
<g id="graph0" class="graph" transform="scale(1 1) rotate(0) translate(4 216)">
<title>P4Tools::P4Testgen::Pna::PnaDpdkRegisterCondition</title>
<!-- Node1 -->
<g id="Node000001" class="node">
<title>Node1</title>
<g id="a_Node000001"><a xlink:title=" ">
<polygon fill="#999999" stroke="#666666" points="161.5,-32 0,-32 0,0 161.5,0 161.5,-32"/>
<text text-anchor="start" x="8" y="-18.5" font-family="Helvetica,sans-Serif" font-size="10.00">P4Tools::P4Testgen</text>
<text text-anchor="middle" x="80.75" y="-6.5" font-family="Helvetica,sans-Serif" font-size="10.00">::Pna::PnaDpdkRegisterCondition</text>
</a>
</g>
</g>
<!-- Node2 -->
<g id="Node000002" class="node">
<title>Node2</title>
<g id="a_Node000002"><a xlink:href="class_p4_tools_1_1_p4_testgen_1_1_test_object.html" target="_top" xlink:title=" ">
<polygon fill="white" stroke="#bfbfbf" points="132.62,-100 28.88,-100 28.88,-68 132.62,-68 132.62,-100"/>
<text text-anchor="start" x="36.88" y="-86.5" font-family="Helvetica,sans-Serif" font-size="10.00">P4Tools::P4Testgen</text>
<text text-anchor="middle" x="80.75" y="-74.5" font-family="Helvetica,sans-Serif" font-size="10.00">::TestObject</text>
</a>
</g>
</g>
<!-- Node2&#45;&gt;Node1 -->
<g id="edge1_Node000001_Node000002" class="edge">
<title>Node2&#45;&gt;Node1</title>
<g id="a_edge1_Node000001_Node000002"><a xlink:title=" ">
<path fill="none" stroke="#63b8ff" d="M80.75,-56.31C80.75,-48.12 80.75,-39.38 80.75,-32.22"/>
<polygon fill="#63b8ff" stroke="#63b8ff" points="77.25,-56.18 80.75,-66.18 84.25,-56.18 77.25,-56.18"/>
</a>
</g>
</g>
<!-- Node3 -->
<g id="Node000003" class="node">
<title>Node3</title>
<g id="a_Node000003"><a xlink:href="class_i_castable.html" target="_top" xlink:title=" ">
<polygon fill="white" stroke="#666666" points="109,-156 52.5,-156 52.5,-136 109,-136 109,-156"/>
<text text-anchor="middle" x="80.75" y="-142.5" font-family="Helvetica,sans-Serif" font-size="10.00">ICastable</text>
</a>
</g>
</g>
<!-- Node3&#45;&gt;Node2 -->
<g id="edge2_Node000002_Node000003" class="edge">
<title>Node3&#45;&gt;Node2</title>
<g id="a_edge2_Node000002_Node000003"><a xlink:title=" ">
<path fill="none" stroke="#63b8ff" d="M80.75,-124.31C80.75,-116.37 80.75,-107.46 80.75,-100.14"/>
<polygon fill="#63b8ff" stroke="#63b8ff" points="77.25,-124.11 80.75,-134.11 84.25,-124.11 77.25,-124.11"/>
</a>
</g>
</g>
<!-- Node4 -->
<g id="Node000004" class="node">
<title>Node4</title>
<g id="a_Node000004"><a xlink:href="struct_r_t_t_i_1_1_base.html" target="_top" xlink:title=" ">
<polygon fill="white" stroke="#bfbfbf" points="112.75,-212 48.75,-212 48.75,-192 112.75,-192 112.75,-212"/>
<text text-anchor="middle" x="80.75" y="-198.5" font-family="Helvetica,sans-Serif" font-size="10.00">RTTI::Base</text>
</a>
</g>
</g>
<!-- Node4&#45;&gt;Node3 -->
<g id="edge3_Node000003_Node000004" class="edge">
<title>Node4&#45;&gt;Node3</title>
<g id="a_edge3_Node000003_Node000004"><a xlink:title=" ">
<path fill="none" stroke="#63b8ff" d="M80.75,-180.13C80.75,-171.9 80.75,-162.85 80.75,-156.3"/>
<polygon fill="#63b8ff" stroke="#63b8ff" points="77.25,-180.08 80.75,-190.08 84.25,-180.08 77.25,-180.08"/>
</a>
</g>
</g>
</g>
</svg>
