<?xml version="1.0" encoding="UTF-8" standalone="no"?>
<!DOCTYPE svg PUBLIC "-//W3C//DTD SVG 1.1//EN"
 "http://www.w3.org/Graphics/SVG/1.1/DTD/svg11.dtd">
<!-- Generated by graphviz version 10.0.1 (20240210.2158)
 -->
<!-- Title: Util::IHasSourceInfo Pages: 1 -->
<svg width="881pt" height="1006pt"
 viewBox="0.00 0.00 881.00 1006.00" xmlns="http://www.w3.org/2000/svg" xmlns:xlink="http://www.w3.org/1999/xlink">
<g id="graph0" class="graph" transform="scale(1 1) rotate(0) translate(4 1002)">
<title>Util::IHasSourceInfo</title>
<!-- Node1 -->
<g id="Node000001" class="node">
<title>Node1</title>
<g id="a_Node000001"><a xlink:title=" ">
<polygon fill="#999999" stroke="#666666" points="101.5,-738 0,-738 0,-718 101.5,-718 101.5,-738"/>
<text text-anchor="middle" x="50.75" y="-724.5" font-family="Helvetica,sans-Serif" font-size="10.00">Util::IHasSourceInfo</text>
</a>
</g>
</g>
<!-- Node2 -->
<g id="Node000002" class="node">
<title>Node2</title>
<g id="a_Node000002"><a xlink:href="struct_i_r_1_1_i_d.html" target="_top" xlink:title=" ">
<polygon fill="white" stroke="#bfbfbf" points="185.38,-757 145.38,-757 145.38,-737 185.38,-737 185.38,-757"/>
<text text-anchor="middle" x="165.38" y="-743.5" font-family="Helvetica,sans-Serif" font-size="10.00">IR::ID</text>
</a>
</g>
</g>
<!-- Node1&#45;&gt;Node2 -->
<g id="edge1_Node000001_Node000002" class="edge">
<title>Node1&#45;&gt;Node2</title>
<g id="a_edge1_Node000001_Node000002"><a xlink:title=" ">
<path fill="none" stroke="#63b8ff" d="M112.95,-738.32C124.55,-740.28 135.87,-742.19 144.92,-743.72"/>
<polygon fill="#63b8ff" stroke="#63b8ff" points="113.74,-734.91 103.3,-736.7 112.58,-741.81 113.74,-734.91"/>
</a>
</g>
</g>
<!-- Node3 -->
<g id="Node000003" class="node">
<title>Node3</title>
<g id="a_Node000003"><a xlink:href="class_i_r_1_1_i_node.html" target="_top" xlink:title=" ">
<polygon fill="white" stroke="#bfbfbf" points="193.25,-719 137.5,-719 137.5,-699 193.25,-699 193.25,-719"/>
<text text-anchor="middle" x="165.38" y="-705.5" font-family="Helvetica,sans-Serif" font-size="10.00">IR::INode</text>
</a>
</g>
</g>
<!-- Node1&#45;&gt;Node3 -->
<g id="edge2_Node000001_Node000003" class="edge">
<title>Node1&#45;&gt;Node3</title>
<g id="a_edge2_Node000001_Node000003"><a xlink:title=" ">
<path fill="none" stroke="#63b8ff" d="M112.91,-717.68C121.34,-716.26 129.63,-714.86 137.01,-713.62"/>
<polygon fill="#63b8ff" stroke="#63b8ff" points="112.58,-714.19 103.3,-719.3 113.74,-721.09 112.58,-714.19"/>
</a>
</g>
</g>
<!-- Node4 -->
<g id="Node000004" class="node">
<title>Node4</title>
<g id="a_Node000004"><a xlink:href="class_i_r_1_1_i_declaration.html" target="_top" xlink:title="The Declaration interface, representing objects with names.">
<polygon fill="white" stroke="#666666" points="311.25,-738 229.25,-738 229.25,-718 311.25,-718 311.25,-738"/>
<text text-anchor="middle" x="270.25" y="-724.5" font-family="Helvetica,sans-Serif" font-size="10.00">IR::IDeclaration</text>
</a>
</g>
</g>
<!-- Node3&#45;&gt;Node4 -->
<g id="edge3_Node000003_Node000004" class="edge">
<title>Node3&#45;&gt;Node4</title>
<g id="a_edge3_Node000003_Node000004"><a xlink:title=" ">
<path fill="none" stroke="#63b8ff" d="M204.84,-716.1C212.74,-717.56 221.08,-719.1 229.03,-720.57"/>
<polygon fill="#63b8ff" stroke="#63b8ff" points="205.63,-712.69 195.16,-714.32 204.36,-719.57 205.63,-712.69"/>
</a>
</g>
</g>
<!-- Node5 -->
<g id="Node000005" class="node">
<title>Node5</title>
<g id="a_Node000005"><a xlink:href="class_i_r_1_1_node.html" target="_top" xlink:title=" ">
<polygon fill="white" stroke="#bfbfbf" points="297,-700 243.5,-700 243.5,-680 297,-680 297,-700"/>
<text text-anchor="middle" x="270.25" y="-686.5" font-family="Helvetica,sans-Serif" font-size="10.00">IR::Node</text>
</a>
</g>
</g>
<!-- Node3&#45;&gt;Node5 -->
<g id="edge4_Node000003_Node000005" class="edge">
<title>Node3&#45;&gt;Node5</title>
<g id="a_edge4_Node000003_Node000005"><a xlink:title=" ">
<path fill="none" stroke="#63b8ff" d="M204.99,-701.87C217.75,-699.51 231.65,-696.94 243.24,-694.8"/>
<polygon fill="#63b8ff" stroke="#63b8ff" points="204.36,-698.43 195.16,-703.68 205.63,-705.31 204.36,-698.43"/>
</a>
</g>
</g>
<!-- Node6 -->
<g id="Node000006" class="node">
<title>Node6</title>
<g id="a_Node000006"><a xlink:href="class_i_r_1_1_name_map.html" target="_top" xlink:title=" ">
<polygon fill="white" stroke="#bfbfbf" points="478.75,-756 358.5,-756 358.5,-724 478.75,-724 478.75,-756"/>
<text text-anchor="start" x="366.5" y="-742.5" font-family="Helvetica,sans-Serif" font-size="10.00">IR::NameMap&lt; T, MAP,</text>
<text text-anchor="middle" x="418.62" y="-730.5" font-family="Helvetica,sans-Serif" font-size="10.00"> COMP, ALLOC &gt;</text>
</a>
</g>
</g>
<!-- Node5&#45;&gt;Node6 -->
<g id="edge5_Node000005_Node000006" class="edge">
<title>Node5&#45;&gt;Node6</title>
<g id="a_edge5_Node000005_Node000006"><a xlink:title=" ">
<path fill="none" stroke="#63b8ff" d="M308.12,-702.59C326.72,-708.95 349.52,-716.74 369.5,-723.56"/>
<polygon fill="#63b8ff" stroke="#63b8ff" points="309.45,-699.35 298.85,-699.43 307.18,-705.97 309.45,-699.35"/>
</a>
</g>
</g>
<!-- Node7 -->
<g id="Node000007" class="node">
<title>Node7</title>
<g id="a_Node000007"><a xlink:href="class_i_r_1_1_node_map.html" target="_top" xlink:title=" ">
<polygon fill="white" stroke="#bfbfbf" points="490,-706 347.25,-706 347.25,-674 490,-674 490,-706"/>
<text text-anchor="start" x="355.25" y="-692.5" font-family="Helvetica,sans-Serif" font-size="10.00">IR::NodeMap&lt; KEY, VALUE,</text>
<text text-anchor="middle" x="418.62" y="-680.5" font-family="Helvetica,sans-Serif" font-size="10.00"> MAP, COMP, ALLOC &gt;</text>
</a>
</g>
</g>
<!-- Node5&#45;&gt;Node7 -->
<g id="edge6_Node000005_Node000007" class="edge">
<title>Node5&#45;&gt;Node7</title>
<g id="a_edge6_Node000005_Node000007"><a xlink:title=" ">
<path fill="none" stroke="#63b8ff" d="M308.88,-690C320.49,-690 333.68,-690 346.77,-690"/>
<polygon fill="#63b8ff" stroke="#63b8ff" points="308.93,-686.5 298.93,-690 308.93,-693.5 308.93,-686.5"/>
</a>
</g>
</g>
<!-- Node8 -->
<g id="Node000008" class="node">
<title>Node8</title>
<g id="a_Node000008"><a xlink:href="class_i_r_1_1_vector_base.html" target="_top" xlink:title=" ">
<polygon fill="white" stroke="#bfbfbf" points="459.62,-656 377.62,-656 377.62,-636 459.62,-636 459.62,-656"/>
<text text-anchor="middle" x="418.62" y="-642.5" font-family="Helvetica,sans-Serif" font-size="10.00">IR::VectorBase</text>
</a>
</g>
</g>
<!-- Node5&#45;&gt;Node8 -->
<g id="edge7_Node000005_Node000008" class="edge">
<title>Node5&#45;&gt;Node8</title>
<g id="a_edge7_Node000005_Node000008"><a xlink:title=" ">
<path fill="none" stroke="#63b8ff" d="M308.05,-677.45C320.46,-673.34 334.41,-668.84 347.25,-665 356.95,-662.1 367.46,-659.15 377.33,-656.48"/>
<polygon fill="#63b8ff" stroke="#63b8ff" points="306.98,-674.12 298.6,-680.61 309.2,-680.76 306.98,-674.12"/>
</a>
</g>
</g>
<!-- Node9 -->
<g id="Node000009" class="node">
<title>Node9</title>
<g id="a_Node000009"><a xlink:href="class_i_r_1_1_vector.html" target="_top" xlink:title=" ">
<polygon fill="white" stroke="#bfbfbf" points="706.25,-998 526,-998 526,-978 706.25,-978 706.25,-998"/>
<text text-anchor="middle" x="616.12" y="-984.5" font-family="Helvetica,sans-Serif" font-size="10.00">IR::Vector&lt; IR::DpdkAsmStatement &gt;</text>
</a>
</g>
</g>
<!-- Node8&#45;&gt;Node9 -->
<g id="edge8_Node000008_Node000009" class="edge">
<title>Node8&#45;&gt;Node9</title>
<g id="a_edge8_Node000008_Node000009"><a xlink:title=" ">
<path fill="none" stroke="#63b8ff" d="M470.85,-651.99C478.14,-654.91 484.89,-659.08 490,-665 578.94,-767.96 434.33,-868.46 526,-969 529.09,-972.39 532.63,-975.26 536.46,-977.67"/>
<polygon fill="#63b8ff" stroke="#63b8ff" points="471.93,-648.67 461.34,-649.01 469.83,-655.34 471.93,-648.67"/>
</a>
</g>
</g>
<!-- Node10 -->
<g id="Node000010" class="node">
<title>Node10</title>
<g id="a_Node000010"><a xlink:href="class_i_r_1_1_vector.html" target="_top" xlink:title=" ">
<polygon fill="white" stroke="#bfbfbf" points="673.62,-960 558.62,-960 558.62,-940 673.62,-940 673.62,-960"/>
<text text-anchor="middle" x="616.12" y="-946.5" font-family="Helvetica,sans-Serif" font-size="10.00">IR::Vector&lt; IR::Node &gt;</text>
</a>
</g>
</g>
<!-- Node8&#45;&gt;Node10 -->
<g id="edge9_Node000008_Node000010" class="edge">
<title>Node8&#45;&gt;Node10</title>
<g id="a_edge9_Node000008_Node000010"><a xlink:title=" ">
<path fill="none" stroke="#63b8ff" d="M470.76,-652.07C478.06,-654.98 484.84,-659.12 490,-665 568.74,-754.63 444.89,-843.52 526,-931 534.5,-940.17 546.24,-945.48 558.41,-948.46"/>
<polygon fill="#63b8ff" stroke="#63b8ff" points="471.84,-648.74 461.25,-649.09 469.74,-655.42 471.84,-648.74"/>
</a>
</g>
</g>
<!-- Node11 -->
<g id="Node000011" class="node">
<title>Node11</title>
<g id="a_Node000011"><a xlink:href="class_i_r_1_1_vector.html" target="_top" xlink:title=" ">
<polygon fill="white" stroke="#bfbfbf" points="686.75,-922 545.5,-922 545.5,-902 686.75,-902 686.75,-922"/>
<text text-anchor="middle" x="616.12" y="-908.5" font-family="Helvetica,sans-Serif" font-size="10.00">IR::Vector&lt; IR::Declaration &gt;</text>
</a>
</g>
</g>
<!-- Node8&#45;&gt;Node11 -->
<g id="edge10_Node000008_Node000011" class="edge">
<title>Node8&#45;&gt;Node11</title>
<g id="a_edge10_Node000008_Node000011"><a xlink:title=" ">
<path fill="none" stroke="#63b8ff" d="M470.89,-652.26C478.11,-655.15 484.83,-659.24 490,-665 558.55,-741.32 455.42,-818.55 526,-893 531.33,-898.63 537.89,-902.79 545.01,-905.86"/>
<polygon fill="#63b8ff" stroke="#63b8ff" points="472.09,-648.97 461.5,-649.28 469.97,-655.64 472.09,-648.97"/>
</a>
</g>
</g>
<!-- Node12 -->
<g id="Node000012" class="node">
<title>Node12</title>
<g id="a_Node000012"><a xlink:href="class_i_r_1_1_vector.html" target="_top" xlink:title=" ">
<polygon fill="white" stroke="#bfbfbf" points="686.38,-884 545.88,-884 545.88,-864 686.38,-864 686.38,-884"/>
<text text-anchor="middle" x="616.12" y="-870.5" font-family="Helvetica,sans-Serif" font-size="10.00">IR::Vector&lt; IR::StatOrDecl &gt;</text>
</a>
</g>
</g>
<!-- Node8&#45;&gt;Node12 -->
<g id="edge11_Node000008_Node000012" class="edge">
<title>Node8&#45;&gt;Node12</title>
<g id="a_edge11_Node000008_Node000012"><a xlink:title=" ">
<path fill="none" stroke="#63b8ff" d="M470.74,-652.4C477.98,-655.27 484.74,-659.32 490,-665 548.41,-728.05 465.92,-793.54 526,-855 531.53,-860.66 538.3,-864.83 545.61,-867.88"/>
<polygon fill="#63b8ff" stroke="#63b8ff" points="471.92,-649.11 461.33,-649.43 469.82,-655.78 471.92,-649.11"/>
</a>
</g>
</g>
<!-- Node13 -->
<g id="Node000013" class="node">
<title>Node13</title>
<g id="a_Node000013"><a xlink:href="class_i_r_1_1_vector.html" target="_top" xlink:title=" ">
<polygon fill="white" stroke="#bfbfbf" points="685.25,-846 547,-846 547,-826 685.25,-826 685.25,-846"/>
<text text-anchor="middle" x="616.12" y="-832.5" font-family="Helvetica,sans-Serif" font-size="10.00">IR::Vector&lt; IR::DpdkTable &gt;</text>
</a>
</g>
</g>
<!-- Node8&#45;&gt;Node13 -->
<g id="edge12_Node000008_Node000013" class="edge">
<title>Node8&#45;&gt;Node13</title>
<g id="a_edge12_Node000008_Node000013"><a xlink:title=" ">
<path fill="none" stroke="#63b8ff" d="M470.75,-652.7C477.94,-655.55 484.67,-659.51 490,-665 538.32,-714.85 476.36,-768.47 526,-817 531.88,-822.75 539.05,-826.95 546.74,-829.99"/>
<polygon fill="#63b8ff" stroke="#63b8ff" points="472.05,-649.45 461.46,-649.75 469.93,-656.12 472.05,-649.45"/>
</a>
</g>
</g>
<!-- Node14 -->
<g id="Node000014" class="node">
<title>Node14</title>
<g id="a_Node000014"><a xlink:href="class_i_r_1_1_vector.html" target="_top" xlink:title=" ">
<polygon fill="white" stroke="#bfbfbf" points="691.62,-808 540.62,-808 540.62,-788 691.62,-788 691.62,-808"/>
<text text-anchor="middle" x="616.12" y="-794.5" font-family="Helvetica,sans-Serif" font-size="10.00">IR::Vector&lt; IR::DpdkSelector &gt;</text>
</a>
</g>
</g>
<!-- Node8&#45;&gt;Node14 -->
<g id="edge13_Node000008_Node000014" class="edge">
<title>Node8&#45;&gt;Node14</title>
<g id="a_edge13_Node000008_Node000014"><a xlink:title=" ">
<path fill="none" stroke="#63b8ff" d="M470.65,-653.15C477.79,-655.94 484.54,-659.76 490,-665 528.35,-701.77 486.67,-743.27 526,-779 530.22,-782.83 535.01,-785.96 540.13,-788.51"/>
<polygon fill="#63b8ff" stroke="#63b8ff" points="472.05,-649.92 461.46,-650.22 469.92,-656.59 472.05,-649.92"/>
</a>
</g>
</g>
<!-- Node15 -->
<g id="Node000015" class="node">
<title>Node15</title>
<g id="a_Node000015"><a xlink:href="class_i_r_1_1_vector.html" target="_top" xlink:title=" ">
<polygon fill="white" stroke="#bfbfbf" points="689.75,-770 542.5,-770 542.5,-750 689.75,-750 689.75,-770"/>
<text text-anchor="middle" x="616.12" y="-756.5" font-family="Helvetica,sans-Serif" font-size="10.00">IR::Vector&lt; IR::DpdkLearner &gt;</text>
</a>
</g>
</g>
<!-- Node8&#45;&gt;Node15 -->
<g id="edge14_Node000008_Node000015" class="edge">
<title>Node8&#45;&gt;Node15</title>
<g id="a_edge14_Node000008_Node000015"><a xlink:title=" ">
<path fill="none" stroke="#63b8ff" d="M471.02,-654.2C477.88,-656.86 484.46,-660.37 490,-665 518.68,-688.97 496.69,-717.81 526,-741 530.84,-744.83 536.27,-747.93 542.01,-750.44"/>
<polygon fill="#63b8ff" stroke="#63b8ff" points="472.13,-650.88 461.54,-651.14 469.98,-657.54 472.13,-650.88"/>
</a>
</g>
</g>
<!-- Node16 -->
<g id="Node000016" class="node">
<title>Node16</title>
<g id="a_Node000016"><a xlink:href="class_i_r_1_1_vector.html" target="_top" xlink:title=" ">
<polygon fill="white" stroke="#bfbfbf" points="687.5,-732 544.75,-732 544.75,-712 687.5,-712 687.5,-732"/>
<text text-anchor="middle" x="616.12" y="-718.5" font-family="Helvetica,sans-Serif" font-size="10.00">IR::Vector&lt; IR::DpdkAction &gt;</text>
</a>
</g>
</g>
<!-- Node8&#45;&gt;Node16 -->
<g id="edge15_Node000008_Node000016" class="edge">
<title>Node8&#45;&gt;Node16</title>
<g id="a_edge15_Node000008_Node000016"><a xlink:title=" ">
<path fill="none" stroke="#63b8ff" d="M470.55,-656.13C477.34,-658.51 484.01,-661.42 490,-665 509.98,-676.92 505.71,-691.62 526,-703 532.21,-706.48 538.99,-709.33 545.95,-711.65"/>
<polygon fill="#63b8ff" stroke="#63b8ff" points="471.91,-652.89 461.33,-653.28 469.84,-659.58 471.91,-652.89"/>
</a>
</g>
</g>
<!-- Node17 -->
<g id="Node000017" class="node">
<title>Node17</title>
<g id="a_Node000017"><a xlink:href="class_i_r_1_1_vector.html" target="_top" xlink:title=" ">
<polygon fill="white" stroke="#bfbfbf" points="684.88,-694 547.38,-694 547.38,-674 684.88,-674 684.88,-694"/>
<text text-anchor="middle" x="616.12" y="-680.5" font-family="Helvetica,sans-Serif" font-size="10.00">IR::Vector&lt; IR::Parameter &gt;</text>
</a>
</g>
</g>
<!-- Node8&#45;&gt;Node17 -->
<g id="edge16_Node000008_Node000017" class="edge">
<title>Node8&#45;&gt;Node17</title>
<g id="a_edge16_Node000008_Node000017"><a xlink:title=" ">
<path fill="none" stroke="#63b8ff" d="M470.78,-655.94C498.66,-661.36 533.15,-668.07 561.43,-673.56"/>
<polygon fill="#63b8ff" stroke="#63b8ff" points="471.63,-652.54 461.14,-654.07 470.29,-659.41 471.63,-652.54"/>
</a>
</g>
</g>
<!-- Node18 -->
<g id="Node000018" class="node">
<title>Node18</title>
<g id="a_Node000018"><a xlink:href="class_i_r_1_1_vector.html" target="_top" xlink:title=" ">
<polygon fill="white" stroke="#bfbfbf" points="698,-656 534.25,-656 534.25,-636 698,-636 698,-656"/>
<text text-anchor="middle" x="616.12" y="-642.5" font-family="Helvetica,sans-Serif" font-size="10.00">IR::Vector&lt; IR::DpdkDeclaration &gt;</text>
</a>
</g>
</g>
<!-- Node8&#45;&gt;Node18 -->
<g id="edge17_Node000008_Node000018" class="edge">
<title>Node8&#45;&gt;Node18</title>
<g id="a_edge17_Node000008_Node000018"><a xlink:title=" ">
<path fill="none" stroke="#63b8ff" d="M470.92,-646C490.21,-646 512.64,-646 533.98,-646"/>
<polygon fill="#63b8ff" stroke="#63b8ff" points="471.17,-642.5 461.17,-646 471.17,-649.5 471.17,-642.5"/>
</a>
</g>
</g>
<!-- Node19 -->
<g id="Node000019" class="node">
<title>Node19</title>
<g id="a_Node000019"><a xlink:href="class_i_r_1_1_vector.html" target="_top" xlink:title=" ">
<polygon fill="white" stroke="#bfbfbf" points="686,-618 546.25,-618 546.25,-598 686,-598 686,-618"/>
<text text-anchor="middle" x="616.12" y="-604.5" font-family="Helvetica,sans-Serif" font-size="10.00">IR::Vector&lt; IR::StructField &gt;</text>
</a>
</g>
</g>
<!-- Node8&#45;&gt;Node19 -->
<g id="edge18_Node000008_Node000019" class="edge">
<title>Node8&#45;&gt;Node19</title>
<g id="a_edge18_Node000008_Node000019"><a xlink:title=" ">
<path fill="none" stroke="#63b8ff" d="M470.78,-636.06C498.66,-630.64 533.15,-623.93 561.43,-618.44"/>
<polygon fill="#63b8ff" stroke="#63b8ff" points="470.29,-632.59 461.14,-637.93 471.63,-639.46 470.29,-632.59"/>
</a>
</g>
</g>
<!-- Node20 -->
<g id="Node000020" class="node">
<title>Node20</title>
<g id="a_Node000020"><a xlink:href="class_i_r_1_1_vector.html" target="_top" xlink:title=" ">
<polygon fill="white" stroke="#bfbfbf" points="672.88,-580 559.38,-580 559.38,-560 672.88,-560 672.88,-580"/>
<text text-anchor="middle" x="616.12" y="-566.5" font-family="Helvetica,sans-Serif" font-size="10.00">IR::Vector&lt; IR::Type &gt;</text>
</a>
</g>
</g>
<!-- Node8&#45;&gt;Node20 -->
<g id="edge19_Node000008_Node000020" class="edge">
<title>Node8&#45;&gt;Node20</title>
<g id="a_edge19_Node000008_Node000020"><a xlink:title=" ">
<path fill="none" stroke="#63b8ff" d="M445.27,-629.59C466.24,-616.84 497.05,-599.6 526,-589 536.55,-585.14 548.1,-581.96 559.29,-579.38"/>
<polygon fill="#63b8ff" stroke="#63b8ff" points="443.48,-626.58 436.82,-634.82 447.17,-632.53 443.48,-626.58"/>
</a>
</g>
</g>
<!-- Node21 -->
<g id="Node000021" class="node">
<title>Node21</title>
<g id="a_Node000021"><a xlink:href="class_i_r_1_1_vector.html" target="_top" xlink:title=" ">
<polygon fill="white" stroke="#bfbfbf" points="683.38,-542 548.88,-542 548.88,-522 683.38,-522 683.38,-542"/>
<text text-anchor="middle" x="616.12" y="-528.5" font-family="Helvetica,sans-Serif" font-size="10.00">IR::Vector&lt; IR::Argument &gt;</text>
</a>
</g>
</g>
<!-- Node8&#45;&gt;Node21 -->
<g id="edge20_Node000008_Node000021" class="edge">
<title>Node8&#45;&gt;Node21</title>
<g id="a_edge20_Node000008_Node000021"><a xlink:title=" ">
<path fill="none" stroke="#63b8ff" d="M435.2,-627.1C454.28,-605.27 488.68,-569.93 526,-551 533.05,-547.42 540.75,-544.52 548.58,-542.16"/>
<polygon fill="#63b8ff" stroke="#63b8ff" points="432.59,-624.77 428.76,-634.65 437.92,-629.31 432.59,-624.77"/>
</a>
</g>
</g>
<!-- Node22 -->
<g id="Node000022" class="node">
<title>Node22</title>
<g id="a_Node000022"><a xlink:href="class_i_r_1_1_vector.html" target="_top" xlink:title=" ">
<polygon fill="white" stroke="#bfbfbf" points="688.25,-504 544,-504 544,-484 688.25,-484 688.25,-504"/>
<text text-anchor="middle" x="616.12" y="-490.5" font-family="Helvetica,sans-Serif" font-size="10.00">IR::Vector&lt; IR::ParserState &gt;</text>
</a>
</g>
</g>
<!-- Node8&#45;&gt;Node22 -->
<g id="edge21_Node000008_Node000022" class="edge">
<title>Node8&#45;&gt;Node22</title>
<g id="a_edge21_Node000008_Node000022"><a xlink:title=" ">
<path fill="none" stroke="#63b8ff" d="M429.97,-625.63C446.18,-595.89 480.49,-541.1 526,-513 531.52,-509.59 537.56,-506.79 543.8,-504.48"/>
<polygon fill="#63b8ff" stroke="#63b8ff" points="426.94,-623.87 425.36,-634.35 433.13,-627.14 426.94,-623.87"/>
</a>
</g>
</g>
<!-- Node23 -->
<g id="Node000023" class="node">
<title>Node23</title>
<g id="a_Node000023"><a xlink:href="class_i_r_1_1_vector.html" target="_top" xlink:title=" ">
<polygon fill="white" stroke="#bfbfbf" points="687.5,-466 544.75,-466 544.75,-446 687.5,-446 687.5,-466"/>
<text text-anchor="middle" x="616.12" y="-452.5" font-family="Helvetica,sans-Serif" font-size="10.00">IR::Vector&lt; IR::SelectCase &gt;</text>
</a>
</g>
</g>
<!-- Node8&#45;&gt;Node23 -->
<g id="edge22_Node000008_Node000023" class="edge">
<title>Node8&#45;&gt;Node23</title>
<g id="a_edge22_Node000008_Node000023"><a xlink:title=" ">
<path fill="none" stroke="#63b8ff" d="M426.45,-625.08C439.54,-588.47 471.78,-513.07 526,-475 531.57,-471.09 537.78,-467.96 544.26,-465.45"/>
<polygon fill="#63b8ff" stroke="#63b8ff" points="423.3,-623.48 423.37,-634.08 429.92,-625.76 423.3,-623.48"/>
</a>
</g>
</g>
<!-- Node24 -->
<g id="Node000024" class="node">
<title>Node24</title>
<g id="a_Node000024"><a xlink:href="class_i_r_1_1_vector.html" target="_top" xlink:title=" ">
<polygon fill="white" stroke="#bfbfbf" points="686.75,-428 545.5,-428 545.5,-408 686.75,-408 686.75,-428"/>
<text text-anchor="middle" x="616.12" y="-414.5" font-family="Helvetica,sans-Serif" font-size="10.00">IR::Vector&lt; IR::Expression &gt;</text>
</a>
</g>
</g>
<!-- Node8&#45;&gt;Node24 -->
<g id="edge23_Node000008_Node000024" class="edge">
<title>Node8&#45;&gt;Node24</title>
<g id="a_edge23_Node000008_Node000024"><a xlink:title=" ">
<path fill="none" stroke="#63b8ff" d="M424.04,-624.74C434.07,-581.99 462.82,-485.53 526,-437 531.77,-432.57 538.35,-429.11 545.25,-426.43"/>
<polygon fill="#63b8ff" stroke="#63b8ff" points="420.67,-623.74 421.92,-634.26 427.51,-625.26 420.67,-623.74"/>
</a>
</g>
</g>
<!-- Node25 -->
<g id="Node000025" class="node">
<title>Node25</title>
<g id="a_Node000025"><a xlink:href="class_i_r_1_1_vector.html" target="_top" xlink:title=" ">
<polygon fill="white" stroke="#bfbfbf" points="658.25,-390 574,-390 574,-370 658.25,-370 658.25,-390"/>
<text text-anchor="middle" x="616.12" y="-376.5" font-family="Helvetica,sans-Serif" font-size="10.00">IR::Vector&lt; N &gt;</text>
</a>
</g>
</g>
<!-- Node8&#45;&gt;Node25 -->
<g id="edge24_Node000008_Node000025" class="edge">
<title>Node8&#45;&gt;Node25</title>
<g id="a_edge24_Node000008_Node000025"><a xlink:title=" ">
<path fill="none" stroke="#63b8ff" d="M422.29,-624.3C429.46,-575.81 453.77,-458.26 526,-399 539.33,-388.06 557.47,-382.99 573.9,-380.78"/>
<polygon fill="#63b8ff" stroke="#63b8ff" points="418.85,-623.68 420.96,-634.06 425.78,-624.62 418.85,-623.68"/>
</a>
</g>
</g>
<!-- Node26 -->
<g id="Node000026" class="node">
<title>Node26</title>
<g id="a_Node000026"><a xlink:href="class_i_r_1_1_vector.html" target="_top" xlink:title=" ">
<polygon fill="white" stroke="#bfbfbf" points="685.62,-352 546.62,-352 546.62,-332 685.62,-332 685.62,-352"/>
<text text-anchor="middle" x="616.12" y="-338.5" font-family="Helvetica,sans-Serif" font-size="10.00">IR::Vector&lt; IR::Annotation &gt;</text>
</a>
</g>
</g>
<!-- Node8&#45;&gt;Node26 -->
<g id="edge25_Node000008_Node000026" class="edge">
<title>Node8&#45;&gt;Node26</title>
<g id="a_edge25_Node000008_Node000026"><a xlink:title=" ">
<path fill="none" stroke="#63b8ff" d="M420.9,-624.34C425.28,-570.79 444.35,-431.43 526,-361 531.99,-355.83 539.04,-351.96 546.51,-349.07"/>
<polygon fill="#63b8ff" stroke="#63b8ff" points="417.41,-624.02 420.2,-634.24 424.4,-624.51 417.41,-624.02"/>
</a>
</g>
</g>
<!-- Node27 -->
<g id="Node000027" class="node">
<title>Node27</title>
<g id="a_Node000027"><a xlink:href="class_i_r_1_1_vector.html" target="_top" xlink:title=" ">
<polygon fill="white" stroke="#bfbfbf" points="657.5,-314 574.75,-314 574.75,-294 657.5,-294 657.5,-314"/>
<text text-anchor="middle" x="616.12" y="-300.5" font-family="Helvetica,sans-Serif" font-size="10.00">IR::Vector&lt; T &gt;</text>
</a>
</g>
</g>
<!-- Node8&#45;&gt;Node27 -->
<g id="edge26_Node000008_Node000027" class="edge">
<title>Node8&#45;&gt;Node27</title>
<g id="a_edge26_Node000008_Node000027"><a xlink:title=" ">
<path fill="none" stroke="#63b8ff" d="M419.82,-624.27C421.59,-565.93 434.9,-404.75 526,-323 539.07,-311.27 557.56,-306.14 574.32,-304.09"/>
<polygon fill="#63b8ff" stroke="#63b8ff" points="416.32,-624.08 419.62,-634.15 423.32,-624.23 416.32,-624.08"/>
</a>
</g>
</g>
<!-- Node28 -->
<g id="Node000028" class="node">
<title>Node28</title>
<g id="a_Node000028"><a xlink:href="class_i_r_1_1_indexed_vector.html" target="_top" xlink:title=" ">
<polygon fill="white" stroke="#666666" points="873,-620 742.25,-620 742.25,-588 873,-588 873,-620"/>
<text text-anchor="start" x="750.25" y="-606.5" font-family="Helvetica,sans-Serif" font-size="10.00">IR::IndexedVector&lt;</text>
<text text-anchor="middle" x="807.62" y="-594.5" font-family="Helvetica,sans-Serif" font-size="10.00"> IR::DpdkAsmStatement &gt;</text>
</a>
</g>
</g>
<!-- Node27&#45;&gt;Node28 -->
<g id="edge27_Node000027_Node000028" class="edge">
<title>Node27&#45;&gt;Node28</title>
<g id="a_edge27_Node000027_Node000028"><a xlink:title=" ">
<path fill="none" stroke="#63b8ff" d="M668.72,-304.47C682.66,-307.15 696.55,-312.59 706.25,-323 784.59,-407.05 670.9,-488.94 742.25,-579 744.86,-582.29 747.95,-585.15 751.36,-587.63"/>
<polygon fill="#63b8ff" stroke="#63b8ff" points="669.51,-301.05 659.12,-303.09 668.52,-307.98 669.51,-301.05"/>
</a>
</g>
</g>
<!-- Node29 -->
<g id="Node000029" class="node">
<title>Node29</title>
<g id="a_Node000029"><a xlink:href="class_i_r_1_1_indexed_vector.html" target="_top" xlink:title=" ">
<polygon fill="white" stroke="#666666" points="857.25,-570 758,-570 758,-538 857.25,-538 857.25,-570"/>
<text text-anchor="start" x="766" y="-556.5" font-family="Helvetica,sans-Serif" font-size="10.00">IR::IndexedVector&lt;</text>
<text text-anchor="middle" x="807.62" y="-544.5" font-family="Helvetica,sans-Serif" font-size="10.00"> IR::Node &gt;</text>
</a>
</g>
</g>
<!-- Node27&#45;&gt;Node29 -->
<g id="edge28_Node000027_Node000029" class="edge">
<title>Node27&#45;&gt;Node29</title>
<g id="a_edge28_Node000027_Node000029"><a xlink:title=" ">
<path fill="none" stroke="#63b8ff" d="M668.87,-304.75C682.68,-307.46 696.46,-312.84 706.25,-323 770.74,-389.93 683.33,-457.12 742.25,-529 746.43,-534.1 751.79,-538.16 757.62,-541.4"/>
<polygon fill="#63b8ff" stroke="#63b8ff" points="669.78,-301.34 659.37,-303.33 668.75,-308.27 669.78,-301.34"/>
</a>
</g>
</g>
<!-- Node30 -->
<g id="Node000030" class="node">
<title>Node30</title>
<g id="a_Node000030"><a xlink:href="class_i_r_1_1_indexed_vector.html" target="_top" xlink:title=" ">
<polygon fill="white" stroke="#666666" points="857.25,-520 758,-520 758,-488 857.25,-488 857.25,-520"/>
<text text-anchor="start" x="766" y="-506.5" font-family="Helvetica,sans-Serif" font-size="10.00">IR::IndexedVector&lt;</text>
<text text-anchor="middle" x="807.62" y="-494.5" font-family="Helvetica,sans-Serif" font-size="10.00"> IR::Declaration &gt;</text>
</a>
</g>
</g>
<!-- Node27&#45;&gt;Node30 -->
<g id="edge29_Node000027_Node000030" class="edge">
<title>Node27&#45;&gt;Node30</title>
<g id="a_edge29_Node000027_Node000030"><a xlink:title=" ">
<path fill="none" stroke="#63b8ff" d="M668.53,-305.09C682.33,-307.8 696.19,-313.11 706.25,-323 756.98,-372.89 695.68,-425.21 742.25,-479 746.49,-483.89 751.8,-487.84 757.55,-491.01"/>
<polygon fill="#63b8ff" stroke="#63b8ff" points="669.46,-301.69 659.05,-303.65 668.41,-308.61 669.46,-301.69"/>
</a>
</g>
</g>
<!-- Node31 -->
<g id="Node000031" class="node">
<title>Node31</title>
<g id="a_Node000031"><a xlink:href="class_i_r_1_1_indexed_vector.html" target="_top" xlink:title=" ">
<polygon fill="white" stroke="#666666" points="857.25,-470 758,-470 758,-438 857.25,-438 857.25,-470"/>
<text text-anchor="start" x="766" y="-456.5" font-family="Helvetica,sans-Serif" font-size="10.00">IR::IndexedVector&lt;</text>
<text text-anchor="middle" x="807.62" y="-444.5" font-family="Helvetica,sans-Serif" font-size="10.00"> IR::StatOrDecl &gt;</text>
</a>
</g>
</g>
<!-- Node27&#45;&gt;Node31 -->
<g id="edge30_Node000027_Node000031" class="edge">
<title>Node27&#45;&gt;Node31</title>
<g id="a_edge30_Node000027_Node000031"><a xlink:title=" ">
<path fill="none" stroke="#63b8ff" d="M669.05,-305.98C682.46,-308.76 696,-313.88 706.25,-323 743.43,-356.06 707.83,-393.07 742.25,-429 746.65,-433.59 751.98,-437.35 757.68,-440.43"/>
<polygon fill="#63b8ff" stroke="#63b8ff" points="669.81,-302.56 659.38,-304.4 668.68,-309.47 669.81,-302.56"/>
</a>
</g>
</g>
<!-- Node32 -->
<g id="Node000032" class="node">
<title>Node32</title>
<g id="a_Node000032"><a xlink:href="class_i_r_1_1_indexed_vector.html" target="_top" xlink:title=" ">
<polygon fill="white" stroke="#666666" points="857.25,-420 758,-420 758,-388 857.25,-388 857.25,-420"/>
<text text-anchor="start" x="766" y="-406.5" font-family="Helvetica,sans-Serif" font-size="10.00">IR::IndexedVector&lt;</text>
<text text-anchor="middle" x="807.62" y="-394.5" font-family="Helvetica,sans-Serif" font-size="10.00"> IR::DpdkTable &gt;</text>
</a>
</g>
</g>
<!-- Node27&#45;&gt;Node32 -->
<g id="edge31_Node000027_Node000032" class="edge">
<title>Node27&#45;&gt;Node32</title>
<g id="a_edge31_Node000027_Node000032"><a xlink:title=" ">
<path fill="none" stroke="#63b8ff" d="M669.17,-308.02C682.11,-310.85 695.38,-315.49 706.25,-323 730.59,-339.82 719.34,-360.28 742.25,-379 746.89,-382.79 752.18,-386.06 757.68,-388.86"/>
<polygon fill="#63b8ff" stroke="#63b8ff" points="669.91,-304.6 659.44,-306.24 668.65,-311.48 669.91,-304.6"/>
</a>
</g>
</g>
<!-- Node33 -->
<g id="Node000033" class="node">
<title>Node33</title>
<g id="a_Node000033"><a xlink:href="class_i_r_1_1_indexed_vector.html" target="_top" xlink:title=" ">
<polygon fill="white" stroke="#666666" points="858.38,-370 756.88,-370 756.88,-338 858.38,-338 858.38,-370"/>
<text text-anchor="start" x="764.88" y="-356.5" font-family="Helvetica,sans-Serif" font-size="10.00">IR::IndexedVector&lt;</text>
<text text-anchor="middle" x="807.62" y="-344.5" font-family="Helvetica,sans-Serif" font-size="10.00"> IR::DpdkSelector &gt;</text>
</a>
</g>
</g>
<!-- Node27&#45;&gt;Node33 -->
<g id="edge32_Node000027_Node000033" class="edge">
<title>Node27&#45;&gt;Node33</title>
<g id="a_edge32_Node000027_Node000033"><a xlink:title=" ">
<path fill="none" stroke="#63b8ff" d="M668.75,-314.19C681.08,-316.85 694.18,-319.86 706.25,-323 722.75,-327.3 740.59,-332.59 756.59,-337.58"/>
<polygon fill="#63b8ff" stroke="#63b8ff" points="669.67,-310.8 659.16,-312.16 668.22,-317.65 669.67,-310.8"/>
</a>
</g>
</g>
<!-- Node34 -->
<g id="Node000034" class="node">
<title>Node34</title>
<g id="a_Node000034"><a xlink:href="class_i_r_1_1_indexed_vector.html" target="_top" xlink:title=" ">
<polygon fill="white" stroke="#666666" points="857.25,-320 758,-320 758,-288 857.25,-288 857.25,-320"/>
<text text-anchor="start" x="766" y="-306.5" font-family="Helvetica,sans-Serif" font-size="10.00">IR::IndexedVector&lt;</text>
<text text-anchor="middle" x="807.62" y="-294.5" font-family="Helvetica,sans-Serif" font-size="10.00"> IR::DpdkLearner &gt;</text>
</a>
</g>
</g>
<!-- Node27&#45;&gt;Node34 -->
<g id="edge33_Node000027_Node000034" class="edge">
<title>Node27&#45;&gt;Node34</title>
<g id="a_edge33_Node000027_Node000034"><a xlink:title=" ">
<path fill="none" stroke="#63b8ff" d="M669.2,-304C696.8,-304 730.51,-304 757.63,-304"/>
<polygon fill="#63b8ff" stroke="#63b8ff" points="669.29,-300.5 659.29,-304 669.29,-307.5 669.29,-300.5"/>
</a>
</g>
</g>
<!-- Node35 -->
<g id="Node000035" class="node">
<title>Node35</title>
<g id="a_Node000035"><a xlink:href="class_i_r_1_1_indexed_vector.html" target="_top" xlink:title=" ">
<polygon fill="white" stroke="#666666" points="857.25,-270 758,-270 758,-238 857.25,-238 857.25,-270"/>
<text text-anchor="start" x="766" y="-256.5" font-family="Helvetica,sans-Serif" font-size="10.00">IR::IndexedVector&lt;</text>
<text text-anchor="middle" x="807.62" y="-244.5" font-family="Helvetica,sans-Serif" font-size="10.00"> IR::DpdkAction &gt;</text>
</a>
</g>
</g>
<!-- Node27&#45;&gt;Node35 -->
<g id="edge34_Node000027_Node000035" class="edge">
<title>Node27&#45;&gt;Node35</title>
<g id="a_edge34_Node000027_Node000035"><a xlink:title=" ">
<path fill="none" stroke="#63b8ff" d="M667.93,-290.59C695.72,-283.26 729.99,-274.22 757.51,-266.96"/>
<polygon fill="#63b8ff" stroke="#63b8ff" points="667.09,-287.2 658.31,-293.13 668.88,-293.97 667.09,-287.2"/>
</a>
</g>
</g>
<!-- Node36 -->
<g id="Node000036" class="node">
<title>Node36</title>
<g id="a_Node000036"><a xlink:href="class_i_r_1_1_indexed_vector.html" target="_top" xlink:title=" ">
<polygon fill="white" stroke="#666666" points="857.25,-220 758,-220 758,-188 857.25,-188 857.25,-220"/>
<text text-anchor="start" x="766" y="-206.5" font-family="Helvetica,sans-Serif" font-size="10.00">IR::IndexedVector&lt;</text>
<text text-anchor="middle" x="807.62" y="-194.5" font-family="Helvetica,sans-Serif" font-size="10.00"> IR::Parameter &gt;</text>
</a>
</g>
</g>
<!-- Node27&#45;&gt;Node36 -->
<g id="edge35_Node000027_Node000036" class="edge">
<title>Node27&#45;&gt;Node36</title>
<g id="a_edge35_Node000027_Node000036"><a xlink:title=" ">
<path fill="none" stroke="#63b8ff" d="M641.79,-287.51C666.53,-271.37 706.06,-246.71 742.25,-229 748.39,-226 754.98,-223.09 761.53,-220.39"/>
<polygon fill="#63b8ff" stroke="#63b8ff" points="640.15,-284.4 633.71,-292.82 643.99,-290.25 640.15,-284.4"/>
</a>
</g>
</g>
<!-- Node37 -->
<g id="Node000037" class="node">
<title>Node37</title>
<g id="a_Node000037"><a xlink:href="class_i_r_1_1_indexed_vector.html" target="_top" xlink:title=" ">
<polygon fill="white" stroke="#666666" points="864.75,-170 750.5,-170 750.5,-138 864.75,-138 864.75,-170"/>
<text text-anchor="start" x="758.5" y="-156.5" font-family="Helvetica,sans-Serif" font-size="10.00">IR::IndexedVector&lt;</text>
<text text-anchor="middle" x="807.62" y="-144.5" font-family="Helvetica,sans-Serif" font-size="10.00"> IR::DpdkDeclaration &gt;</text>
</a>
</g>
</g>
<!-- Node27&#45;&gt;Node37 -->
<g id="edge36_Node000027_Node000037" class="edge">
<title>Node27&#45;&gt;Node37</title>
<g id="a_edge36_Node000027_Node000037"><a xlink:title=" ">
<path fill="none" stroke="#63b8ff" d="M631.77,-285.03C653.37,-258.18 696.2,-209.02 742.25,-179 747.07,-175.86 752.35,-173.01 757.74,-170.47"/>
<polygon fill="#63b8ff" stroke="#63b8ff" points="629.2,-282.63 625.75,-292.65 634.7,-286.98 629.2,-282.63"/>
</a>
</g>
</g>
<!-- Node38 -->
<g id="Node000038" class="node">
<title>Node38</title>
<g id="a_Node000038"><a xlink:href="class_i_r_1_1_indexed_vector.html" target="_top" xlink:title=" ">
<polygon fill="white" stroke="#666666" points="857.25,-120 758,-120 758,-88 857.25,-88 857.25,-120"/>
<text text-anchor="start" x="766" y="-106.5" font-family="Helvetica,sans-Serif" font-size="10.00">IR::IndexedVector&lt;</text>
<text text-anchor="middle" x="807.62" y="-94.5" font-family="Helvetica,sans-Serif" font-size="10.00"> IR::StructField &gt;</text>
</a>
</g>
</g>
<!-- Node27&#45;&gt;Node38 -->
<g id="edge37_Node000027_Node000038" class="edge">
<title>Node27&#45;&gt;Node38</title>
<g id="a_edge37_Node000027_Node000038"><a xlink:title=" ">
<path fill="none" stroke="#63b8ff" d="M626.75,-283.49C644.65,-247.44 686.35,-172.41 742.25,-129 746.89,-125.4 752.11,-122.26 757.52,-119.54"/>
<polygon fill="#63b8ff" stroke="#63b8ff" points="623.66,-281.85 622.45,-292.38 629.96,-284.9 623.66,-281.85"/>
</a>
</g>
</g>
<!-- Node39 -->
<g id="Node000039" class="node">
<title>Node39</title>
<g id="a_Node000039"><a xlink:href="class_i_r_1_1_indexed_vector.html" target="_top" xlink:title=" ">
<polygon fill="white" stroke="#666666" points="857.25,-70 758,-70 758,-38 857.25,-38 857.25,-70"/>
<text text-anchor="start" x="766" y="-56.5" font-family="Helvetica,sans-Serif" font-size="10.00">IR::IndexedVector&lt;</text>
<text text-anchor="middle" x="807.62" y="-44.5" font-family="Helvetica,sans-Serif" font-size="10.00"> IR::ParserState &gt;</text>
</a>
</g>
</g>
<!-- Node27&#45;&gt;Node39 -->
<g id="edge38_Node000027_Node000039" class="edge">
<title>Node27&#45;&gt;Node39</title>
<g id="a_edge38_Node000027_Node000039"><a xlink:title=" ">
<path fill="none" stroke="#63b8ff" d="M623.43,-282.86C637.56,-238.89 675.88,-136.85 742.25,-79 746.86,-74.98 752.19,-71.57 757.76,-68.69"/>
<polygon fill="#63b8ff" stroke="#63b8ff" points="620.15,-281.61 620.53,-292.19 626.84,-283.68 620.15,-281.61"/>
</a>
</g>
</g>
<!-- Node40 -->
<g id="Node000040" class="node">
<title>Node40</title>
<g id="a_Node000040"><a xlink:href="class_i_r_1_1_indexed_vector.html" target="_top" xlink:title=" ">
<polygon fill="white" stroke="#666666" points="865.88,-20 749.38,-20 749.38,0 865.88,0 865.88,-20"/>
<text text-anchor="middle" x="807.62" y="-6.5" font-family="Helvetica,sans-Serif" font-size="10.00">IR::IndexedVector&lt; T &gt;</text>
</a>
</g>
</g>
<!-- Node27&#45;&gt;Node40 -->
<g id="edge39_Node000027_Node000040" class="edge">
<title>Node27&#45;&gt;Node40</title>
<g id="a_edge39_Node000027_Node000040"><a xlink:title=" ">
<path fill="none" stroke="#63b8ff" d="M620.62,-282.68C630.22,-231.15 661.78,-98.92 742.25,-29 746.21,-25.56 750.76,-22.74 755.58,-20.44"/>
<polygon fill="#63b8ff" stroke="#63b8ff" points="617.23,-281.76 618.95,-292.21 624.13,-282.97 617.23,-281.76"/>
</a>
</g>
</g>
</g>
</svg>
