<?xml version="1.0" encoding="UTF-8" standalone="no"?>
<!DOCTYPE svg PUBLIC "-//W3C//DTD SVG 1.1//EN"
 "http://www.w3.org/Graphics/SVG/1.1/DTD/svg11.dtd">
<!-- Generated by graphviz version 10.0.1 (20240210.2158)
 -->
<!-- Title: P4Tools::P4Testgen::ProgramInfo Pages: 1 -->
<!--zoomable 140 -->

<svg id="main" version="1.1" xmlns="http://www.w3.org/2000/svg" xmlns:xlink="http://www.w3.org/1999/xlink" xml:space="preserve" onload="init(evt)">
<style type="text/css"><![CDATA[
.node, .edge {opacity: 0.7;}
.node.selected, .edge.selected {opacity: 1;}
.edge:hover path { stroke: red; }
.edge:hover polygon { stroke: red; fill: red; }
]]></style>

<defs>
  <circle id="rim" cx="0" cy="0" r="7"/>
  <circle id="rim2" cx="0" cy="0" r="3.5"/>
  <g id="zoomPlus">
    <use xlink:href="#rim" fill="#404040"><set attributeName="fill" to="#808080" begin="zoomplus.mouseover" end="zoomplus.mouseout"/></use>
    <path d="M-4,0h8M0,-4v8" fill="none" stroke="white" stroke-width="1.5" pointer-events="none"/>
  </g>
  <g id="zoomMin">
    <use xlink:href="#rim" fill="#404040"><set attributeName="fill" to="#808080" begin="zoomminus.mouseover" end="zoomminus.mouseout"/></use>
    <path d="M-4,0h8" fill="none" stroke="white" stroke-width="1.5" pointer-events="none"/>
  </g>
  <g id="arrowUp" transform="translate(30 24)">
    <use xlink:href="#rim"/>
    <path pointer-events="none" fill="none" stroke="white" stroke-width="1.5" d="M0,-3.0v7 M-2.5,-0.5L0,-3.0L2.5,-0.5"/>
  </g>
  <g id="arrowRight" transform="rotate(90) translate(36 -43)">
    <use xlink:href="#rim"/>
    <path pointer-events="none" fill="none" stroke="white" stroke-width="1.5" d="M0,-3.0v7 M-2.5,-0.5L0,-3.0L2.5,-0.5"/>
  </g>
  <g id="arrowDown" transform="rotate(180) translate(-30 -48)">
    <use xlink:href="#rim"/>
    <path pointer-events="none" fill="none" stroke="white" stroke-width="1.5" d="M0,-3.0v7 M-2.5,-0.5L0,-3.0L2.5,-0.5"/>
  </g>
  <g id="arrowLeft" transform="rotate(270) translate(-36 17)">
    <use xlink:href="#rim"/>
    <path pointer-events="none" fill="none" stroke="white" stroke-width="1.5" d="M0,-3.0v7 M-2.5,-0.5L0,-3.0L2.5,-0.5"/>
  </g>
  <g id="resetDef">
    <use xlink:href="#rim2" fill="#404040"><set attributeName="fill" to="#808080" begin="reset.mouseover" end="reset.mouseout"/></use>
  </g>
</defs>
<script type="application/ecmascript">
var viewWidth = 679;
var viewHeight = 140;
var sectionId = 'dynsection-0';
</script>
<script type="application/ecmascript" xlink:href="svg.min.js"/>
<svg id="graph" class="graph">
<g id="viewport">
<title>P4Tools::P4Testgen::ProgramInfo</title>
<!-- Node1 -->
<g id="Node000001" class="node">
<title>Node1</title>
<g id="a_Node000001"><a xlink:title="Stores target&#45;specific information about a P4 program.">
<polygon fill="#999999" stroke="#666666" points="296.25,-82 192.5,-82 192.5,-50 296.25,-50 296.25,-82"/>
<text text-anchor="start" x="200.5" y="-68.5" font-family="Helvetica,sans-Serif" font-size="10.00">P4Tools::P4Testgen</text>
<text text-anchor="middle" x="244.38" y="-56.5" font-family="Helvetica,sans-Serif" font-size="10.00">::ProgramInfo</text>
</a>
</g>
</g>
<!-- Node4 -->
<g id="Node000004" class="node">
<title>Node4</title>
<g id="a_Node000004"><a xlink:href="class_p4_tools_1_1_p4_testgen_1_1_bmv2_1_1_bmv2_v1_model_program_info.html" target="_top" xlink:title=" ">
<polygon fill="white" stroke="#bfbfbf" points="498.25,-132 332.25,-132 332.25,-100 498.25,-100 498.25,-132"/>
<text text-anchor="start" x="340.25" y="-118.5" font-family="Helvetica,sans-Serif" font-size="10.00">P4Tools::P4Testgen</text>
<text text-anchor="middle" x="415.25" y="-106.5" font-family="Helvetica,sans-Serif" font-size="10.00">::Bmv2::Bmv2V1ModelProgramInfo</text>
</a>
</g>
</g>
<!-- Node1&#45;&gt;Node4 -->
<g id="edge3_Node000001_Node000004" class="edge">
<title>Node1&#45;&gt;Node4</title>
<g id="a_edge3_Node000001_Node000004"><a xlink:title=" ">
<path fill="none" stroke="#63b8ff" d="M307.32,-84.34C324.11,-89.31 342.17,-94.66 358.59,-99.52"/>
<polygon fill="#63b8ff" stroke="#63b8ff" points="308.53,-81.05 297.95,-81.57 306.55,-87.76 308.53,-81.05"/>
</a>
</g>
</g>
<!-- Node5 -->
<g id="Node000005" class="node">
<title>Node5</title>
<g id="a_Node000005"><a xlink:href="class_p4_tools_1_1_p4_testgen_1_1_e_b_p_f_1_1_e_b_p_f_program_info.html" target="_top" xlink:title=" ">
<polygon fill="white" stroke="#bfbfbf" points="481.38,-82 349.12,-82 349.12,-50 481.38,-50 481.38,-82"/>
<text text-anchor="start" x="357.12" y="-68.5" font-family="Helvetica,sans-Serif" font-size="10.00">P4Tools::P4Testgen</text>
<text text-anchor="middle" x="415.25" y="-56.5" font-family="Helvetica,sans-Serif" font-size="10.00">::EBPF::EBPFProgramInfo</text>
</a>
</g>
</g>
<!-- Node1&#45;&gt;Node5 -->
<g id="edge4_Node000001_Node000005" class="edge">
<title>Node1&#45;&gt;Node5</title>
<g id="a_edge4_Node000001_Node000005"><a xlink:title=" ">
<path fill="none" stroke="#63b8ff" d="M307.99,-66C321.34,-66 335.47,-66 348.92,-66"/>
<polygon fill="#63b8ff" stroke="#63b8ff" points="308.01,-62.5 298.01,-66 308.01,-69.5 308.01,-62.5"/>
</a>
</g>
</g>
<!-- Node6 -->
<g id="Node000006" class="node">
<title>Node6</title>
<g id="a_Node000006"><a xlink:href="class_p4_tools_1_1_p4_testgen_1_1_pna_1_1_shared_pna_program_info.html" target="_top" xlink:title=" ">
<polygon fill="white" stroke="#bfbfbf" points="487.75,-32 342.75,-32 342.75,0 487.75,0 487.75,-32"/>
<text text-anchor="start" x="350.75" y="-18.5" font-family="Helvetica,sans-Serif" font-size="10.00">P4Tools::P4Testgen</text>
<text text-anchor="middle" x="415.25" y="-6.5" font-family="Helvetica,sans-Serif" font-size="10.00">::Pna::SharedPnaProgramInfo</text>
</a>
</g>
</g>
<!-- Node1&#45;&gt;Node6 -->
<g id="edge5_Node000001_Node000006" class="edge">
<title>Node1&#45;&gt;Node6</title>
<g id="a_edge5_Node000001_Node000006"><a xlink:title=" ">
<path fill="none" stroke="#63b8ff" d="M307.32,-47.66C324.11,-42.69 342.17,-37.34 358.59,-32.48"/>
<polygon fill="#63b8ff" stroke="#63b8ff" points="306.55,-44.24 297.95,-50.43 308.53,-50.95 306.55,-44.24"/>
</a>
</g>
</g>
<!-- Node2 -->
<g id="Node000002" class="node">
<title>Node2</title>
<g id="a_Node000002"><a xlink:href="class_i_castable.html" target="_top" xlink:title=" ">
<polygon fill="white" stroke="#666666" points="156.5,-76 100,-76 100,-56 156.5,-56 156.5,-76"/>
<text text-anchor="middle" x="128.25" y="-62.5" font-family="Helvetica,sans-Serif" font-size="10.00">ICastable</text>
</a>
</g>
</g>
<!-- Node2&#45;&gt;Node1 -->
<g id="edge1_Node000001_Node000002" class="edge">
<title>Node2&#45;&gt;Node1</title>
<g id="a_edge1_Node000001_Node000002"><a xlink:title=" ">
<path fill="none" stroke="#63b8ff" d="M168.2,-66C175.98,-66 184.25,-66 192.36,-66"/>
<polygon fill="#63b8ff" stroke="#63b8ff" points="168.39,-62.5 158.39,-66 168.39,-69.5 168.39,-62.5"/>
</a>
</g>
</g>
<!-- Node3 -->
<g id="Node000003" class="node">
<title>Node3</title>
<g id="a_Node000003"><a xlink:href="struct_r_t_t_i_1_1_base.html" target="_top" xlink:title=" ">
<polygon fill="white" stroke="#bfbfbf" points="64,-76 0,-76 0,-56 64,-56 64,-76"/>
<text text-anchor="middle" x="32" y="-62.5" font-family="Helvetica,sans-Serif" font-size="10.00">RTTI::Base</text>
</a>
</g>
</g>
<!-- Node3&#45;&gt;Node2 -->
<g id="edge2_Node000002_Node000003" class="edge">
<title>Node3&#45;&gt;Node2</title>
<g id="a_edge2_Node000002_Node000003"><a xlink:title=" ">
<path fill="none" stroke="#63b8ff" d="M75.72,-66C83.9,-66 92.26,-66 99.8,-66"/>
<polygon fill="#63b8ff" stroke="#63b8ff" points="75.9,-62.5 65.9,-66 75.9,-69.5 75.9,-62.5"/>
</a>
</g>
</g>
<!-- Node7 -->
<g id="Node000007" class="node">
<title>Node7</title>
<g id="a_Node000007"><a xlink:href="class_p4_tools_1_1_p4_testgen_1_1_pna_1_1_pna_dpdk_program_info.html" target="_top" xlink:title=" ">
<polygon fill="white" stroke="#bfbfbf" points="671,-32 534.25,-32 534.25,0 671,0 671,-32"/>
<text text-anchor="start" x="542.25" y="-18.5" font-family="Helvetica,sans-Serif" font-size="10.00">P4Tools::P4Testgen</text>
<text text-anchor="middle" x="602.62" y="-6.5" font-family="Helvetica,sans-Serif" font-size="10.00">::Pna::PnaDpdkProgramInfo</text>
</a>
</g>
</g>
<!-- Node6&#45;&gt;Node7 -->
<g id="edge6_Node000006_Node000007" class="edge">
<title>Node6&#45;&gt;Node7</title>
<g id="a_edge6_Node000006_Node000007"><a xlink:title=" ">
<path fill="none" stroke="#63b8ff" d="M499.6,-16C511.11,-16 522.81,-16 533.98,-16"/>
<polygon fill="#63b8ff" stroke="#63b8ff" points="499.7,-12.5 489.7,-16 499.7,-19.5 499.7,-12.5"/>
</a>
</g>
</g>
</g>
</svg>

<g id="navigator" transform="translate(0 0)" fill="#404254">
  <rect fill="#f2f5e9" fill-opacity="0.5" stroke="#606060" stroke-width=".5" x="0" y="0" width="60" height="60"/>
  <use id="zoomplus" xlink:href="#zoomPlus" x="17" y="9" onmousedown="handleZoom(evt,'in')"/>
  <use id="zoomminus" xlink:href="#zoomMin" x="42" y="9" onmousedown="handleZoom(evt,'out')"/>
  <use id="reset" xlink:href="#resetDef" x="30" y="36" onmousedown="handleReset()"/>
   <use id="arrowup" xlink:href="#arrowUp" x="0" y="0" onmousedown="handlePan(0,-1)"/>
  <use id="arrowright" xlink:href="#arrowRight" x="0" y="0" onmousedown="handlePan(1,0)"/>
  <use id="arrowdown" xlink:href="#arrowDown" x="0" y="0" onmousedown="handlePan(0,1)"/>
  <use id="arrowleft" xlink:href="#arrowLeft" x="0" y="0" onmousedown="handlePan(-1,0)"/>
</g>
<svg viewBox="0 0 15 15" width="100%" height="30px" preserveAspectRatio="xMaxYMin meet">
 <g id="arrow_out" transform="scale(0.3 0.3)">
  <a xlink:href="class_p4_tools_1_1_p4_testgen_1_1_program_info__inherit__graph_org.svg" target="_base">
   <rect id="button" ry="5" rx="5" y="6" x="6" height="38" width="38"
        fill="#f2f5e9" fill-opacity="0.5" stroke="#606060" stroke-width="1.0"/>
   <path id="arrow"
     d="M 11.500037,31.436501 C 11.940474,20.09759 22.043105,11.32322 32.158766,21.979434 L 37.068811,17.246167 C 37.068811,17.246167 37.088388,32 37.088388,32 L 22.160133,31.978069 C 22.160133,31.978069 26.997745,27.140456 26.997745,27.140456 C 18.528582,18.264221 13.291696,25.230495 11.500037,31.436501 z"
     style="fill:#404040;"/>
  </a>
 </g>
</svg>

<style type='text/css'>
<![CDATA[
[data-mouse-over-selected='false'] { opacity: 0.7; }
[data-mouse-over-selected='true']  { opacity: 1.0; }
]]>
</style>
<script type="application/ecmascript"><![CDATA[
document.addEventListener('DOMContentLoaded', (event) => {
  highlightEdges();
  highlightAdjacentNodes();
});
]]></script>
</svg>
