<?xml version="1.0" encoding="UTF-8" standalone="no"?>
<!DOCTYPE svg PUBLIC "-//W3C//DTD SVG 1.1//EN"
 "http://www.w3.org/Graphics/SVG/1.1/DTD/svg11.dtd">
<!-- Generated by graphviz version 10.0.1 (20240210.2158)
 -->
<!-- Title: P4::RemoveAllUnusedDeclarations Pages: 1 -->
<svg width="175pt" height="252pt"
 viewBox="0.00 0.00 174.75 252.00" xmlns="http://www.w3.org/2000/svg" xmlns:xlink="http://www.w3.org/1999/xlink">
<g id="graph0" class="graph" transform="scale(1 1) rotate(0) translate(4 248)">
<title>P4::RemoveAllUnusedDeclarations</title>
<!-- Node1 -->
<g id="Node000001" class="node">
<title>Node1</title>
<g id="a_Node000001"><a xlink:title="Iterates RemoveUnusedDeclarations until convergence.">
<polygon fill="#999999" stroke="#666666" points="166.75,-20 0,-20 0,0 166.75,0 166.75,-20"/>
<text text-anchor="middle" x="83.38" y="-6.5" font-family="Helvetica,sans-Serif" font-size="10.00">P4::RemoveAllUnusedDeclarations</text>
</a>
</g>
</g>
<!-- Node2 -->
<g id="Node000002" class="node">
<title>Node2</title>
<g id="a_Node000002"><a xlink:href="class_pass_repeated.html" target="_top" xlink:title=" ">
<polygon fill="white" stroke="#bfbfbf" points="123.25,-76 43.5,-76 43.5,-56 123.25,-56 123.25,-76"/>
<text text-anchor="middle" x="83.38" y="-62.5" font-family="Helvetica,sans-Serif" font-size="10.00">PassRepeated</text>
</a>
</g>
</g>
<!-- Node2&#45;&gt;Node1 -->
<g id="edge1_Node000001_Node000002" class="edge">
<title>Node2&#45;&gt;Node1</title>
<g id="a_edge1_Node000001_Node000002"><a xlink:title=" ">
<path fill="none" stroke="#63b8ff" d="M83.38,-44.13C83.38,-35.9 83.38,-26.85 83.38,-20.3"/>
<polygon fill="#63b8ff" stroke="#63b8ff" points="79.88,-44.08 83.38,-54.08 86.88,-44.08 79.88,-44.08"/>
</a>
</g>
</g>
<!-- Node3 -->
<g id="Node000003" class="node">
<title>Node3</title>
<g id="a_Node000003"><a xlink:href="class_pass_manager.html" target="_top" xlink:title=" ">
<polygon fill="white" stroke="#bfbfbf" points="121.38,-132 45.38,-132 45.38,-112 121.38,-112 121.38,-132"/>
<text text-anchor="middle" x="83.38" y="-118.5" font-family="Helvetica,sans-Serif" font-size="10.00">PassManager</text>
</a>
</g>
</g>
<!-- Node3&#45;&gt;Node2 -->
<g id="edge2_Node000002_Node000003" class="edge">
<title>Node3&#45;&gt;Node2</title>
<g id="a_edge2_Node000002_Node000003"><a xlink:title=" ">
<path fill="none" stroke="#63b8ff" d="M83.38,-100.13C83.38,-91.9 83.38,-82.85 83.38,-76.3"/>
<polygon fill="#63b8ff" stroke="#63b8ff" points="79.88,-100.08 83.38,-110.08 86.88,-100.08 79.88,-100.08"/>
</a>
</g>
</g>
<!-- Node4 -->
<g id="Node000004" class="node">
<title>Node4</title>
<g id="a_Node000004"><a xlink:href="class_visitor.html" target="_top" xlink:title=" ">
<polygon fill="white" stroke="#bfbfbf" points="105.25,-244 61.5,-244 61.5,-224 105.25,-224 105.25,-244"/>
<text text-anchor="middle" x="83.38" y="-230.5" font-family="Helvetica,sans-Serif" font-size="10.00">Visitor</text>
</a>
</g>
</g>
<!-- Node4&#45;&gt;Node3 -->
<g id="edge3_Node000003_Node000004" class="edge">
<title>Node4&#45;&gt;Node3</title>
<g id="a_edge3_Node000003_Node000004"><a xlink:title=" ">
<path fill="none" stroke="#63b8ff" d="M77.86,-212.65C76.05,-204.98 74.27,-196.15 73.38,-188 71.18,-168.03 76.73,-144.79 80.41,-132.22"/>
<polygon fill="#63b8ff" stroke="#63b8ff" points="74.47,-213.5 80.33,-222.32 81.25,-211.77 74.47,-213.5"/>
</a>
</g>
</g>
<!-- Node5 -->
<g id="Node000005" class="node">
<title>Node5</title>
<g id="a_Node000005"><a xlink:href="class_backtrack.html" target="_top" xlink:title=" ">
<polygon fill="white" stroke="#bfbfbf" points="142.5,-188 82.25,-188 82.25,-168 142.5,-168 142.5,-188"/>
<text text-anchor="middle" x="112.38" y="-174.5" font-family="Helvetica,sans-Serif" font-size="10.00">Backtrack</text>
</a>
</g>
</g>
<!-- Node4&#45;&gt;Node5 -->
<g id="edge5_Node000005_Node000004" class="edge">
<title>Node4&#45;&gt;Node5</title>
<g id="a_edge5_Node000005_Node000004"><a xlink:title=" ">
<path fill="none" stroke="#63b8ff" d="M93.8,-213.58C98.43,-204.97 103.65,-195.24 107.38,-188.3"/>
<polygon fill="#63b8ff" stroke="#63b8ff" points="90.79,-211.79 89.14,-222.26 96.96,-215.11 90.79,-211.79"/>
</a>
</g>
</g>
<!-- Node5&#45;&gt;Node3 -->
<g id="edge4_Node000003_Node000005" class="edge">
<title>Node5&#45;&gt;Node3</title>
<g id="a_edge4_Node000003_Node000005"><a xlink:title=" ">
<path fill="none" stroke="#63b8ff" d="M101.95,-157.58C97.32,-148.97 92.1,-139.24 88.37,-132.3"/>
<polygon fill="#63b8ff" stroke="#63b8ff" points="98.79,-159.11 106.61,-166.26 104.96,-155.79 98.79,-159.11"/>
</a>
</g>
</g>
</g>
</svg>
