<?xml version="1.0" encoding="UTF-8" standalone="no"?>
<!DOCTYPE svg PUBLIC "-//W3C//DTD SVG 1.1//EN"
 "http://www.w3.org/Graphics/SVG/1.1/DTD/svg11.dtd">
<!-- Generated by graphviz version 10.0.1 (20240210.2158)
 -->
<!-- Title: EBPF::EBPFParser Pages: 1 -->
<svg width="250pt" height="308pt"
 viewBox="0.00 0.00 249.62 308.00" xmlns="http://www.w3.org/2000/svg" xmlns:xlink="http://www.w3.org/1999/xlink">
<g id="graph0" class="graph" transform="scale(1 1) rotate(0) translate(4 304)">
<title>EBPF::EBPFParser</title>
<!-- Node1 -->
<g id="Node000001" class="node">
<title>Node1</title>
<g id="a_Node000001"><a xlink:title=" ">
<polygon fill="#999999" stroke="#666666" points="176.62,-132 73.62,-132 73.62,-112 176.62,-112 176.62,-132"/>
<text text-anchor="middle" x="125.12" y="-118.5" font-family="Helvetica,sans-Serif" font-size="10.00">EBPF::EBPFParser</text>
</a>
</g>
</g>
<!-- Node5 -->
<g id="Node000005" class="node">
<title>Node5</title>
<g id="a_Node000005"><a xlink:href="class_e_b_p_f_1_1_e_b_p_f_psa_parser.html" target="_top" xlink:title=" ">
<polygon fill="white" stroke="#bfbfbf" points="120.25,-76 0,-76 0,-56 120.25,-56 120.25,-76"/>
<text text-anchor="middle" x="60.12" y="-62.5" font-family="Helvetica,sans-Serif" font-size="10.00">EBPF::EBPFPsaParser</text>
</a>
</g>
</g>
<!-- Node1&#45;&gt;Node5 -->
<g id="edge4_Node000001_Node000005" class="edge">
<title>Node1&#45;&gt;Node5</title>
<g id="a_edge4_Node000001_Node000005"><a xlink:title=" ">
<path fill="none" stroke="#63b8ff" d="M105.15,-104.4C94.03,-95.17 80.6,-84.01 71.32,-76.3"/>
<polygon fill="#63b8ff" stroke="#63b8ff" points="102.71,-106.93 112.64,-110.63 107.18,-101.54 102.71,-106.93"/>
</a>
</g>
</g>
<!-- Node7 -->
<g id="Node000007" class="node">
<title>Node7</title>
<g id="a_Node000007"><a xlink:href="class_u_b_p_f_1_1_u_b_p_f_parser.html" target="_top" xlink:title=" ">
<polygon fill="white" stroke="#bfbfbf" points="241.62,-76 138.62,-76 138.62,-56 241.62,-56 241.62,-76"/>
<text text-anchor="middle" x="190.12" y="-62.5" font-family="Helvetica,sans-Serif" font-size="10.00">UBPF::UBPFParser</text>
</a>
</g>
</g>
<!-- Node1&#45;&gt;Node7 -->
<g id="edge6_Node000001_Node000007" class="edge">
<title>Node1&#45;&gt;Node7</title>
<g id="a_edge6_Node000001_Node000007"><a xlink:title=" ">
<path fill="none" stroke="#63b8ff" d="M145.1,-104.4C156.22,-95.17 169.65,-84.01 178.93,-76.3"/>
<polygon fill="#63b8ff" stroke="#63b8ff" points="143.07,-101.54 137.61,-110.63 147.54,-106.93 143.07,-101.54"/>
</a>
</g>
</g>
<!-- Node2 -->
<g id="Node000002" class="node">
<title>Node2</title>
<g id="a_Node000002"><a xlink:href="class_e_b_p_f_1_1_e_b_p_f_object.html" target="_top" xlink:title=" ">
<polygon fill="white" stroke="#bfbfbf" points="176.62,-188 73.62,-188 73.62,-168 176.62,-168 176.62,-188"/>
<text text-anchor="middle" x="125.12" y="-174.5" font-family="Helvetica,sans-Serif" font-size="10.00">EBPF::EBPFObject</text>
</a>
</g>
</g>
<!-- Node2&#45;&gt;Node1 -->
<g id="edge1_Node000001_Node000002" class="edge">
<title>Node2&#45;&gt;Node1</title>
<g id="a_edge1_Node000001_Node000002"><a xlink:title=" ">
<path fill="none" stroke="#63b8ff" d="M125.12,-156.13C125.12,-147.9 125.12,-138.85 125.12,-132.3"/>
<polygon fill="#63b8ff" stroke="#63b8ff" points="121.63,-156.08 125.13,-166.08 128.63,-156.08 121.63,-156.08"/>
</a>
</g>
</g>
<!-- Node3 -->
<g id="Node000003" class="node">
<title>Node3</title>
<g id="a_Node000003"><a xlink:href="class_i_castable.html" target="_top" xlink:title=" ">
<polygon fill="white" stroke="#666666" points="153.38,-244 96.88,-244 96.88,-224 153.38,-224 153.38,-244"/>
<text text-anchor="middle" x="125.12" y="-230.5" font-family="Helvetica,sans-Serif" font-size="10.00">ICastable</text>
</a>
</g>
</g>
<!-- Node3&#45;&gt;Node2 -->
<g id="edge2_Node000002_Node000003" class="edge">
<title>Node3&#45;&gt;Node2</title>
<g id="a_edge2_Node000002_Node000003"><a xlink:title=" ">
<path fill="none" stroke="#63b8ff" d="M125.12,-212.13C125.12,-203.9 125.12,-194.85 125.12,-188.3"/>
<polygon fill="#63b8ff" stroke="#63b8ff" points="121.63,-212.08 125.13,-222.08 128.63,-212.08 121.63,-212.08"/>
</a>
</g>
</g>
<!-- Node4 -->
<g id="Node000004" class="node">
<title>Node4</title>
<g id="a_Node000004"><a xlink:href="struct_r_t_t_i_1_1_base.html" target="_top" xlink:title=" ">
<polygon fill="white" stroke="#bfbfbf" points="157.12,-300 93.12,-300 93.12,-280 157.12,-280 157.12,-300"/>
<text text-anchor="middle" x="125.12" y="-286.5" font-family="Helvetica,sans-Serif" font-size="10.00">RTTI::Base</text>
</a>
</g>
</g>
<!-- Node4&#45;&gt;Node3 -->
<g id="edge3_Node000003_Node000004" class="edge">
<title>Node4&#45;&gt;Node3</title>
<g id="a_edge3_Node000003_Node000004"><a xlink:title=" ">
<path fill="none" stroke="#63b8ff" d="M125.12,-268.13C125.12,-259.9 125.12,-250.85 125.12,-244.3"/>
<polygon fill="#63b8ff" stroke="#63b8ff" points="121.63,-268.08 125.13,-278.08 128.63,-268.08 121.63,-268.08"/>
</a>
</g>
</g>
<!-- Node6 -->
<g id="Node000006" class="node">
<title>Node6</title>
<g id="a_Node000006"><a xlink:href="class_t_c_1_1_e_b_p_f_pna_parser.html" target="_top" xlink:title=" ">
<polygon fill="white" stroke="#bfbfbf" points="113.12,-20 7.12,-20 7.12,0 113.12,0 113.12,-20"/>
<text text-anchor="middle" x="60.12" y="-6.5" font-family="Helvetica,sans-Serif" font-size="10.00">TC::EBPFPnaParser</text>
</a>
</g>
</g>
<!-- Node5&#45;&gt;Node6 -->
<g id="edge5_Node000005_Node000006" class="edge">
<title>Node5&#45;&gt;Node6</title>
<g id="a_edge5_Node000005_Node000006"><a xlink:title=" ">
<path fill="none" stroke="#63b8ff" d="M60.12,-44.13C60.12,-35.9 60.12,-26.85 60.12,-20.3"/>
<polygon fill="#63b8ff" stroke="#63b8ff" points="56.63,-44.08 60.13,-54.08 63.63,-44.08 56.63,-44.08"/>
</a>
</g>
</g>
</g>
</svg>
