<?xml version="1.0" encoding="UTF-8" standalone="no"?>
<!DOCTYPE svg PUBLIC "-//W3C//DTD SVG 1.1//EN"
 "http://www.w3.org/Graphics/SVG/1.1/DTD/svg11.dtd">
<!-- Generated by graphviz version 10.0.1 (20240210.2158)
 -->
<!-- Title: P4::SymbolicHeader Pages: 1 -->
<svg width="154pt" height="308pt"
 viewBox="0.00 0.00 153.88 308.00" xmlns="http://www.w3.org/2000/svg" xmlns:xlink="http://www.w3.org/1999/xlink">

<svg id="main" version="1.1" xmlns="http://www.w3.org/2000/svg" xmlns:xlink="http://www.w3.org/1999/xlink" xml:space="preserve" onload="init(evt)">
<style type="text/css"><![CDATA[
.node, .edge {opacity: 0.7;}
.node.selected, .edge.selected {opacity: 1;}
.edge:hover path { stroke: red; }
.edge:hover polygon { stroke: red; fill: red; }
]]></style>
<script type="application/ecmascript" xlink:href="svg.min.js"/>
<svg id="graph" class="graph">
<g id="graph0" class="graph" transform="scale(1 1) rotate(0) translate(4 304)">
<title>P4::SymbolicHeader</title>
<!-- Node1 -->
<g id="Node000001" class="node">
<title>Node1</title>
<g id="a_Node000001"><a xlink:title=" ">
<polygon fill="#999999" stroke="#666666" points="126.5,-76 21.25,-76 21.25,-56 126.5,-56 126.5,-76"/>
<text text-anchor="middle" x="73.88" y="-62.5" font-family="Helvetica,sans-Serif" font-size="10.00">P4::SymbolicHeader</text>
</a>
</g>
</g>
<!-- Node7 -->
<g id="Node000007" class="node">
<title>Node7</title>
<g id="a_Node000007"><a xlink:href="class_p4_1_1_any_element.html" target="_top" xlink:title=" ">
<polygon fill="white" stroke="#bfbfbf" points="117.5,-20 30.25,-20 30.25,0 117.5,0 117.5,-20"/>
<text text-anchor="middle" x="73.88" y="-6.5" font-family="Helvetica,sans-Serif" font-size="10.00">P4::AnyElement</text>
</a>
</g>
</g>
<!-- Node1&#45;&gt;Node7 -->
<g id="edge6_Node000001_Node000007" class="edge">
<title>Node1&#45;&gt;Node7</title>
<g id="a_edge6_Node000001_Node000007"><a xlink:title=" ">
<path fill="none" stroke="#63b8ff" d="M73.88,-44.13C73.88,-35.9 73.88,-26.85 73.88,-20.3"/>
<polygon fill="#63b8ff" stroke="#63b8ff" points="70.38,-44.08 73.88,-54.08 77.38,-44.08 70.38,-44.08"/>
</a>
</g>
</g>
<!-- Node2 -->
<g id="Node000002" class="node">
<title>Node2</title>
<g id="a_Node000002"><a xlink:href="class_p4_1_1_symbolic_struct.html" target="_top" xlink:title=" ">
<polygon fill="white" stroke="#bfbfbf" points="124.25,-132 23.5,-132 23.5,-112 124.25,-112 124.25,-132"/>
<text text-anchor="middle" x="73.88" y="-118.5" font-family="Helvetica,sans-Serif" font-size="10.00">P4::SymbolicStruct</text>
</a>
</g>
</g>
<!-- Node2&#45;&gt;Node1 -->
<g id="edge1_Node000001_Node000002" class="edge">
<title>Node2&#45;&gt;Node1</title>
<g id="a_edge1_Node000001_Node000002"><a xlink:title=" ">
<path fill="none" stroke="#63b8ff" d="M73.88,-100.13C73.88,-91.9 73.88,-82.85 73.88,-76.3"/>
<polygon fill="#63b8ff" stroke="#63b8ff" points="70.38,-100.08 73.88,-110.08 77.38,-100.08 70.38,-100.08"/>
</a>
</g>
</g>
<!-- Node3 -->
<g id="Node000003" class="node">
<title>Node3</title>
<g id="a_Node000003"><a xlink:href="class_p4_1_1_symbolic_value.html" target="_top" xlink:title=" ">
<polygon fill="white" stroke="#bfbfbf" points="123.5,-188 24.25,-188 24.25,-168 123.5,-168 123.5,-188"/>
<text text-anchor="middle" x="73.88" y="-174.5" font-family="Helvetica,sans-Serif" font-size="10.00">P4::SymbolicValue</text>
</a>
</g>
</g>
<!-- Node3&#45;&gt;Node2 -->
<g id="edge2_Node000002_Node000003" class="edge">
<title>Node3&#45;&gt;Node2</title>
<g id="a_edge2_Node000002_Node000003"><a xlink:title=" ">
<path fill="none" stroke="#63b8ff" d="M73.88,-156.13C73.88,-147.9 73.88,-138.85 73.88,-132.3"/>
<polygon fill="#63b8ff" stroke="#63b8ff" points="70.38,-156.08 73.88,-166.08 77.38,-156.08 70.38,-156.08"/>
</a>
</g>
</g>
<!-- Node4 -->
<g id="Node000004" class="node">
<title>Node4</title>
<g id="a_Node000004"><a xlink:href="class_i_has_db_print.html" target="_top" xlink:title=" ">
<polygon fill="white" stroke="#bfbfbf" points="67.75,-244 0,-244 0,-224 67.75,-224 67.75,-244"/>
<text text-anchor="middle" x="33.88" y="-230.5" font-family="Helvetica,sans-Serif" font-size="10.00">IHasDbPrint</text>
</a>
</g>
</g>
<!-- Node4&#45;&gt;Node3 -->
<g id="edge3_Node000003_Node000004" class="edge">
<title>Node4&#45;&gt;Node3</title>
<g id="a_edge3_Node000003_Node000004"><a xlink:title=" ">
<path fill="none" stroke="#63b8ff" d="M47.63,-214.44C54.16,-205.62 61.68,-195.47 66.99,-188.3"/>
<polygon fill="#63b8ff" stroke="#63b8ff" points="44.88,-212.26 41.74,-222.38 50.51,-216.43 44.88,-212.26"/>
</a>
</g>
</g>
<!-- Node5 -->
<g id="Node000005" class="node">
<title>Node5</title>
<g id="a_Node000005"><a xlink:href="class_i_castable.html" target="_top" xlink:title=" ">
<polygon fill="white" stroke="#666666" points="142.12,-244 85.62,-244 85.62,-224 142.12,-224 142.12,-244"/>
<text text-anchor="middle" x="113.88" y="-230.5" font-family="Helvetica,sans-Serif" font-size="10.00">ICastable</text>
</a>
</g>
</g>
<!-- Node5&#45;&gt;Node3 -->
<g id="edge4_Node000003_Node000005" class="edge">
<title>Node5&#45;&gt;Node3</title>
<g id="a_edge4_Node000003_Node000005"><a xlink:title=" ">
<path fill="none" stroke="#63b8ff" d="M100.12,-214.44C93.59,-205.62 86.07,-195.47 80.76,-188.3"/>
<polygon fill="#63b8ff" stroke="#63b8ff" points="97.24,-216.43 106.01,-222.38 102.87,-212.26 97.24,-216.43"/>
</a>
</g>
</g>
<!-- Node6 -->
<g id="Node000006" class="node">
<title>Node6</title>
<g id="a_Node000006"><a xlink:href="struct_r_t_t_i_1_1_base.html" target="_top" xlink:title=" ">
<polygon fill="white" stroke="#bfbfbf" points="145.88,-300 81.88,-300 81.88,-280 145.88,-280 145.88,-300"/>
<text text-anchor="middle" x="113.88" y="-286.5" font-family="Helvetica,sans-Serif" font-size="10.00">RTTI::Base</text>
</a>
</g>
</g>
<!-- Node6&#45;&gt;Node5 -->
<g id="edge5_Node000005_Node000006" class="edge">
<title>Node6&#45;&gt;Node5</title>
<g id="a_edge5_Node000005_Node000006"><a xlink:title=" ">
<path fill="none" stroke="#63b8ff" d="M113.88,-268.13C113.88,-259.9 113.88,-250.85 113.88,-244.3"/>
<polygon fill="#63b8ff" stroke="#63b8ff" points="110.38,-268.08 113.88,-278.08 117.38,-268.08 110.38,-268.08"/>
</a>
</g>
</g>
</g>
</svg>
</svg>

<style type='text/css'>
<![CDATA[
[data-mouse-over-selected='false'] { opacity: 0.7; }
[data-mouse-over-selected='true']  { opacity: 1.0; }
]]>
</style>
<script type="application/ecmascript"><![CDATA[
document.addEventListener('DOMContentLoaded', (event) => {
  highlightEdges();
  highlightAdjacentNodes();
});
]]></script>
</svg>
