<?xml version="1.0" encoding="UTF-8" standalone="no"?>
<!DOCTYPE svg PUBLIC "-//W3C//DTD SVG 1.1//EN"
 "http://www.w3.org/Graphics/SVG/1.1/DTD/svg11.dtd">
<!-- Generated by graphviz version 10.0.1 (20240210.2158)
 -->
<!-- Title: DPDK::ConvertLogicalExpression Pages: 1 -->
<svg width="169pt" height="196pt"
 viewBox="0.00 0.00 168.75 196.00" xmlns="http://www.w3.org/2000/svg" xmlns:xlink="http://www.w3.org/1999/xlink">
<g id="graph0" class="graph" transform="scale(1 1) rotate(0) translate(4 192)">
<title>DPDK::ConvertLogicalExpression</title>
<!-- Node1 -->
<g id="Node000001" class="node">
<title>Node1</title>
<g id="a_Node000001"><a xlink:title=" ">
<polygon fill="#999999" stroke="#666666" points="160.75,-20 0,-20 0,0 160.75,0 160.75,-20"/>
<text text-anchor="middle" x="80.38" y="-6.5" font-family="Helvetica,sans-Serif" font-size="10.00">DPDK::ConvertLogicalExpression</text>
</a>
</g>
</g>
<!-- Node2 -->
<g id="Node000002" class="node">
<title>Node2</title>
<g id="a_Node000002"><a xlink:href="class_pass_manager.html" target="_top" xlink:title=" ">
<polygon fill="white" stroke="#bfbfbf" points="118.38,-76 42.38,-76 42.38,-56 118.38,-56 118.38,-76"/>
<text text-anchor="middle" x="80.38" y="-62.5" font-family="Helvetica,sans-Serif" font-size="10.00">PassManager</text>
</a>
</g>
</g>
<!-- Node2&#45;&gt;Node1 -->
<g id="edge1_Node000001_Node000002" class="edge">
<title>Node2&#45;&gt;Node1</title>
<g id="a_edge1_Node000001_Node000002"><a xlink:title=" ">
<path fill="none" stroke="#63b8ff" d="M80.38,-44.13C80.38,-35.9 80.38,-26.85 80.38,-20.3"/>
<polygon fill="#63b8ff" stroke="#63b8ff" points="76.88,-44.08 80.38,-54.08 83.88,-44.08 76.88,-44.08"/>
</a>
</g>
</g>
<!-- Node3 -->
<g id="Node000003" class="node">
<title>Node3</title>
<g id="a_Node000003"><a xlink:href="class_visitor.html" target="_top" xlink:title=" ">
<polygon fill="white" stroke="#bfbfbf" points="102.25,-188 58.5,-188 58.5,-168 102.25,-168 102.25,-188"/>
<text text-anchor="middle" x="80.38" y="-174.5" font-family="Helvetica,sans-Serif" font-size="10.00">Visitor</text>
</a>
</g>
</g>
<!-- Node3&#45;&gt;Node2 -->
<g id="edge2_Node000002_Node000003" class="edge">
<title>Node3&#45;&gt;Node2</title>
<g id="a_edge2_Node000002_Node000003"><a xlink:title=" ">
<path fill="none" stroke="#63b8ff" d="M74.86,-156.65C73.05,-148.98 71.27,-140.15 70.38,-132 68.18,-112.03 73.73,-88.79 77.41,-76.22"/>
<polygon fill="#63b8ff" stroke="#63b8ff" points="71.47,-157.5 77.33,-166.32 78.25,-155.77 71.47,-157.5"/>
</a>
</g>
</g>
<!-- Node4 -->
<g id="Node000004" class="node">
<title>Node4</title>
<g id="a_Node000004"><a xlink:href="class_backtrack.html" target="_top" xlink:title=" ">
<polygon fill="white" stroke="#bfbfbf" points="139.5,-132 79.25,-132 79.25,-112 139.5,-112 139.5,-132"/>
<text text-anchor="middle" x="109.38" y="-118.5" font-family="Helvetica,sans-Serif" font-size="10.00">Backtrack</text>
</a>
</g>
</g>
<!-- Node3&#45;&gt;Node4 -->
<g id="edge4_Node000004_Node000003" class="edge">
<title>Node3&#45;&gt;Node4</title>
<g id="a_edge4_Node000004_Node000003"><a xlink:title=" ">
<path fill="none" stroke="#63b8ff" d="M90.8,-157.58C95.43,-148.97 100.65,-139.24 104.38,-132.3"/>
<polygon fill="#63b8ff" stroke="#63b8ff" points="87.79,-155.79 86.14,-166.26 93.96,-159.11 87.79,-155.79"/>
</a>
</g>
</g>
<!-- Node4&#45;&gt;Node2 -->
<g id="edge3_Node000002_Node000004" class="edge">
<title>Node4&#45;&gt;Node2</title>
<g id="a_edge3_Node000002_Node000004"><a xlink:title=" ">
<path fill="none" stroke="#63b8ff" d="M98.95,-101.58C94.32,-92.97 89.1,-83.24 85.37,-76.3"/>
<polygon fill="#63b8ff" stroke="#63b8ff" points="95.79,-103.11 103.61,-110.26 101.96,-99.79 95.79,-103.11"/>
</a>
</g>
</g>
</g>
</svg>
