<?xml version="1.0" encoding="UTF-8" standalone="no"?>
<!DOCTYPE svg PUBLIC "-//W3C//DTD SVG 1.1//EN"
 "http://www.w3.org/Graphics/SVG/1.1/DTD/svg11.dtd">
<!-- Generated by graphviz version 10.0.1 (20240210.2158)
 -->
<!-- Title: TC::TCIngressPipelinePNA Pages: 1 -->
<svg width="149pt" height="420pt"
 viewBox="0.00 0.00 148.50 420.00" xmlns="http://www.w3.org/2000/svg" xmlns:xlink="http://www.w3.org/1999/xlink">

<svg id="main" version="1.1" xmlns="http://www.w3.org/2000/svg" xmlns:xlink="http://www.w3.org/1999/xlink" xml:space="preserve" onload="init(evt)">
<style type="text/css"><![CDATA[
.node, .edge {opacity: 0.7;}
.node.selected, .edge.selected {opacity: 1;}
.edge:hover path { stroke: red; }
.edge:hover polygon { stroke: red; fill: red; }
]]></style>
<script type="application/ecmascript" xlink:href="svg.min.js"/>
<svg id="graph" class="graph">
<g id="graph0" class="graph" transform="scale(1 1) rotate(0) translate(4 416)">
<title>TC::TCIngressPipelinePNA</title>
<!-- Node1 -->
<g id="Node000001" class="node">
<title>Node1</title>
<g id="a_Node000001"><a xlink:title=" ">
<polygon fill="#999999" stroke="#666666" points="136.38,-20 4.12,-20 4.12,0 136.38,0 136.38,-20"/>
<text text-anchor="middle" x="70.25" y="-6.5" font-family="Helvetica,sans-Serif" font-size="10.00">TC::TCIngressPipelinePNA</text>
</a>
</g>
</g>
<!-- Node2 -->
<g id="Node000002" class="node">
<title>Node2</title>
<g id="a_Node000002"><a xlink:href="class_e_b_p_f_1_1_t_c_ingress_pipeline.html" target="_top" xlink:title=" ">
<polygon fill="white" stroke="#bfbfbf" points="133.38,-76 7.12,-76 7.12,-56 133.38,-56 133.38,-76"/>
<text text-anchor="middle" x="70.25" y="-62.5" font-family="Helvetica,sans-Serif" font-size="10.00">EBPF::TCIngressPipeline</text>
</a>
</g>
</g>
<!-- Node2&#45;&gt;Node1 -->
<g id="edge1_Node000001_Node000002" class="edge">
<title>Node2&#45;&gt;Node1</title>
<g id="a_edge1_Node000001_Node000002"><a xlink:title=" ">
<path fill="none" stroke="#63b8ff" d="M70.25,-44.13C70.25,-35.9 70.25,-26.85 70.25,-20.3"/>
<polygon fill="#63b8ff" stroke="#63b8ff" points="66.75,-44.08 70.25,-54.08 73.75,-44.08 66.75,-44.08"/>
</a>
</g>
</g>
<!-- Node3 -->
<g id="Node000003" class="node">
<title>Node3</title>
<g id="a_Node000003"><a xlink:href="class_e_b_p_f_1_1_e_b_p_f_ingress_pipeline.html" target="_top" xlink:title=" ">
<polygon fill="white" stroke="#bfbfbf" points="140.5,-132 0,-132 0,-112 140.5,-112 140.5,-132"/>
<text text-anchor="middle" x="70.25" y="-118.5" font-family="Helvetica,sans-Serif" font-size="10.00">EBPF::EBPFIngressPipeline</text>
</a>
</g>
</g>
<!-- Node3&#45;&gt;Node2 -->
<g id="edge2_Node000002_Node000003" class="edge">
<title>Node3&#45;&gt;Node2</title>
<g id="a_edge2_Node000002_Node000003"><a xlink:title=" ">
<path fill="none" stroke="#63b8ff" d="M70.25,-100.13C70.25,-91.9 70.25,-82.85 70.25,-76.3"/>
<polygon fill="#63b8ff" stroke="#63b8ff" points="66.75,-100.08 70.25,-110.08 73.75,-100.08 66.75,-100.08"/>
</a>
</g>
</g>
<!-- Node4 -->
<g id="Node000004" class="node">
<title>Node4</title>
<g id="a_Node000004"><a xlink:href="class_e_b_p_f_1_1_e_b_p_f_pipeline.html" target="_top" xlink:title=" ">
<polygon fill="white" stroke="#bfbfbf" points="124.75,-188 15.75,-188 15.75,-168 124.75,-168 124.75,-188"/>
<text text-anchor="middle" x="70.25" y="-174.5" font-family="Helvetica,sans-Serif" font-size="10.00">EBPF::EBPFPipeline</text>
</a>
</g>
</g>
<!-- Node4&#45;&gt;Node3 -->
<g id="edge3_Node000003_Node000004" class="edge">
<title>Node4&#45;&gt;Node3</title>
<g id="a_edge3_Node000003_Node000004"><a xlink:title=" ">
<path fill="none" stroke="#63b8ff" d="M70.25,-156.13C70.25,-147.9 70.25,-138.85 70.25,-132.3"/>
<polygon fill="#63b8ff" stroke="#63b8ff" points="66.75,-156.08 70.25,-166.08 73.75,-156.08 66.75,-156.08"/>
</a>
</g>
</g>
<!-- Node5 -->
<g id="Node000005" class="node">
<title>Node5</title>
<g id="a_Node000005"><a xlink:href="class_e_b_p_f_1_1_e_b_p_f_program.html" target="_top" xlink:title=" ">
<polygon fill="white" stroke="#bfbfbf" points="125.88,-244 14.62,-244 14.62,-224 125.88,-224 125.88,-244"/>
<text text-anchor="middle" x="70.25" y="-230.5" font-family="Helvetica,sans-Serif" font-size="10.00">EBPF::EBPFProgram</text>
</a>
</g>
</g>
<!-- Node5&#45;&gt;Node4 -->
<g id="edge4_Node000004_Node000005" class="edge">
<title>Node5&#45;&gt;Node4</title>
<g id="a_edge4_Node000004_Node000005"><a xlink:title=" ">
<path fill="none" stroke="#63b8ff" d="M70.25,-212.13C70.25,-203.9 70.25,-194.85 70.25,-188.3"/>
<polygon fill="#63b8ff" stroke="#63b8ff" points="66.75,-212.08 70.25,-222.08 73.75,-212.08 66.75,-212.08"/>
</a>
</g>
</g>
<!-- Node6 -->
<g id="Node000006" class="node">
<title>Node6</title>
<g id="a_Node000006"><a xlink:href="class_e_b_p_f_1_1_e_b_p_f_object.html" target="_top" xlink:title=" ">
<polygon fill="white" stroke="#bfbfbf" points="121.75,-300 18.75,-300 18.75,-280 121.75,-280 121.75,-300"/>
<text text-anchor="middle" x="70.25" y="-286.5" font-family="Helvetica,sans-Serif" font-size="10.00">EBPF::EBPFObject</text>
</a>
</g>
</g>
<!-- Node6&#45;&gt;Node5 -->
<g id="edge5_Node000005_Node000006" class="edge">
<title>Node6&#45;&gt;Node5</title>
<g id="a_edge5_Node000005_Node000006"><a xlink:title=" ">
<path fill="none" stroke="#63b8ff" d="M70.25,-268.13C70.25,-259.9 70.25,-250.85 70.25,-244.3"/>
<polygon fill="#63b8ff" stroke="#63b8ff" points="66.75,-268.08 70.25,-278.08 73.75,-268.08 66.75,-268.08"/>
</a>
</g>
</g>
<!-- Node7 -->
<g id="Node000007" class="node">
<title>Node7</title>
<g id="a_Node000007"><a xlink:href="class_i_castable.html" target="_top" xlink:title=" ">
<polygon fill="white" stroke="#666666" points="98.5,-356 42,-356 42,-336 98.5,-336 98.5,-356"/>
<text text-anchor="middle" x="70.25" y="-342.5" font-family="Helvetica,sans-Serif" font-size="10.00">ICastable</text>
</a>
</g>
</g>
<!-- Node7&#45;&gt;Node6 -->
<g id="edge6_Node000006_Node000007" class="edge">
<title>Node7&#45;&gt;Node6</title>
<g id="a_edge6_Node000006_Node000007"><a xlink:title=" ">
<path fill="none" stroke="#63b8ff" d="M70.25,-324.13C70.25,-315.9 70.25,-306.85 70.25,-300.3"/>
<polygon fill="#63b8ff" stroke="#63b8ff" points="66.75,-324.08 70.25,-334.08 73.75,-324.08 66.75,-324.08"/>
</a>
</g>
</g>
<!-- Node8 -->
<g id="Node000008" class="node">
<title>Node8</title>
<g id="a_Node000008"><a xlink:href="struct_r_t_t_i_1_1_base.html" target="_top" xlink:title=" ">
<polygon fill="white" stroke="#bfbfbf" points="102.25,-412 38.25,-412 38.25,-392 102.25,-392 102.25,-412"/>
<text text-anchor="middle" x="70.25" y="-398.5" font-family="Helvetica,sans-Serif" font-size="10.00">RTTI::Base</text>
</a>
</g>
</g>
<!-- Node8&#45;&gt;Node7 -->
<g id="edge7_Node000007_Node000008" class="edge">
<title>Node8&#45;&gt;Node7</title>
<g id="a_edge7_Node000007_Node000008"><a xlink:title=" ">
<path fill="none" stroke="#63b8ff" d="M70.25,-380.13C70.25,-371.9 70.25,-362.85 70.25,-356.3"/>
<polygon fill="#63b8ff" stroke="#63b8ff" points="66.75,-380.08 70.25,-390.08 73.75,-380.08 66.75,-380.08"/>
</a>
</g>
</g>
</g>
</svg>
</svg>

<style type='text/css'>
<![CDATA[
[data-mouse-over-selected='false'] { opacity: 0.7; }
[data-mouse-over-selected='true']  { opacity: 1.0; }
]]>
</style>
<script type="application/ecmascript"><![CDATA[
document.addEventListener('DOMContentLoaded', (event) => {
  highlightEdges();
  highlightAdjacentNodes();
});
]]></script>
</svg>
