<?xml version="1.0" encoding="UTF-8" standalone="no"?>
<!DOCTYPE svg PUBLIC "-//W3C//DTD SVG 1.1//EN"
 "http://www.w3.org/Graphics/SVG/1.1/DTD/svg11.dtd">
<!-- Generated by graphviz version 10.0.1 (20240210.2158)
 -->
<!-- Title: Util::Options Pages: 1 -->
<svg width="737pt" height="313pt"
 viewBox="0.00 0.00 736.75 313.00" xmlns="http://www.w3.org/2000/svg" xmlns:xlink="http://www.w3.org/1999/xlink">
<g id="graph0" class="graph" transform="scale(1 1) rotate(0) translate(4 309)">
<title>Util::Options</title>
<!-- Node1 -->
<g id="Node000001" class="node">
<title>Node1</title>
<g id="a_Node000001"><a xlink:title=" ">
<polygon fill="#999999" stroke="#666666" points="70,-175 0,-175 0,-155 70,-155 70,-175"/>
<text text-anchor="middle" x="35" y="-161.5" font-family="Helvetica,sans-Serif" font-size="10.00">Util::Options</text>
</a>
</g>
</g>
<!-- Node2 -->
<g id="Node000002" class="node">
<title>Node2</title>
<g id="a_Node000002"><a xlink:href="class_p4_tools_1_1_abstract_p4c_tool_options.html" target="_top" xlink:title=" ">
<polygon fill="white" stroke="#666666" points="235.25,-203 106,-203 106,-171 235.25,-171 235.25,-203"/>
<text text-anchor="start" x="114" y="-189.5" font-family="Helvetica,sans-Serif" font-size="10.00">P4Tools::AbstractP4cTool</text>
<text text-anchor="middle" x="170.62" y="-177.5" font-family="Helvetica,sans-Serif" font-size="10.00">Options</text>
</a>
</g>
</g>
<!-- Node1&#45;&gt;Node2 -->
<g id="edge1_Node000001_Node000002" class="edge">
<title>Node1&#45;&gt;Node2</title>
<g id="a_edge1_Node000001_Node000002"><a xlink:title=" ">
<path fill="none" stroke="darkgreen" d="M81.77,-172.54C89.5,-173.81 97.66,-175.15 105.75,-176.48"/>
<polygon fill="darkgreen" stroke="darkgreen" points="82.34,-169.08 71.91,-170.91 81.2,-175.99 82.34,-169.08"/>
</a>
</g>
</g>
<!-- Node4 -->
<g id="Node000004" class="node">
<title>Node4</title>
<g id="a_Node000004"><a xlink:href="class_parser_options.html" target="_top" xlink:title=" ">
<polygon fill="white" stroke="#bfbfbf" points="209.75,-153 131.5,-153 131.5,-133 209.75,-133 209.75,-153"/>
<text text-anchor="middle" x="170.62" y="-139.5" font-family="Helvetica,sans-Serif" font-size="10.00">ParserOptions</text>
</a>
</g>
</g>
<!-- Node1&#45;&gt;Node4 -->
<g id="edge3_Node000001_Node000004" class="edge">
<title>Node1&#45;&gt;Node4</title>
<g id="a_edge3_Node000001_Node000004"><a xlink:title=" ">
<path fill="none" stroke="#63b8ff" d="M81.73,-157.47C97.79,-154.83 115.67,-151.88 131.09,-149.34"/>
<polygon fill="#63b8ff" stroke="#63b8ff" points="81.2,-154.01 71.91,-159.09 82.34,-160.92 81.2,-154.01"/>
</a>
</g>
</g>
<!-- Node3 -->
<g id="Node000003" class="node">
<title>Node3</title>
<g id="a_Node000003"><a xlink:href="class_p4_tools_1_1_p4_testgen_1_1_testgen_options.html" target="_top" xlink:title="Encapsulates and processes command&#45;line options for P4Testgen.">
<polygon fill="white" stroke="#666666" points="375,-203 271.25,-203 271.25,-171 375,-171 375,-203"/>
<text text-anchor="start" x="279.25" y="-189.5" font-family="Helvetica,sans-Serif" font-size="10.00">P4Tools::P4Testgen</text>
<text text-anchor="middle" x="323.12" y="-177.5" font-family="Helvetica,sans-Serif" font-size="10.00">::TestgenOptions</text>
</a>
</g>
</g>
<!-- Node2&#45;&gt;Node3 -->
<g id="edge2_Node000002_Node000003" class="edge">
<title>Node2&#45;&gt;Node3</title>
<g id="a_edge2_Node000002_Node000003"><a xlink:title=" ">
<path fill="none" stroke="#63b8ff" d="M246.92,-187C255.07,-187 263.21,-187 270.97,-187"/>
<polygon fill="#63b8ff" stroke="#63b8ff" points="246.96,-183.5 236.96,-187 246.96,-190.5 246.96,-183.5"/>
</a>
</g>
</g>
<!-- Node5 -->
<g id="Node000005" class="node">
<title>Node5</title>
<g id="a_Node000005"><a xlink:href="class_compiler_options.html" target="_top" xlink:title=" ">
<polygon fill="white" stroke="#bfbfbf" points="367.12,-153 279.12,-153 279.12,-133 367.12,-133 367.12,-153"/>
<text text-anchor="middle" x="323.12" y="-139.5" font-family="Helvetica,sans-Serif" font-size="10.00">CompilerOptions</text>
</a>
</g>
</g>
<!-- Node4&#45;&gt;Node5 -->
<g id="edge4_Node000004_Node000005" class="edge">
<title>Node4&#45;&gt;Node5</title>
<g id="a_edge4_Node000004_Node000005"><a xlink:title=" ">
<path fill="none" stroke="#63b8ff" d="M221.48,-143C240.01,-143 260.87,-143 278.78,-143"/>
<polygon fill="#63b8ff" stroke="#63b8ff" points="221.51,-139.5 211.51,-143 221.51,-146.5 221.51,-139.5"/>
</a>
</g>
</g>
<!-- Node6 -->
<g id="Node000006" class="node">
<title>Node6</title>
<g id="a_Node000006"><a xlink:href="class_b_m_v2_1_1_b_m_v2_options.html" target="_top" xlink:title=" ">
<polygon fill="white" stroke="#bfbfbf" points="535.75,-286 426,-286 426,-266 535.75,-266 535.75,-286"/>
<text text-anchor="middle" x="480.88" y="-272.5" font-family="Helvetica,sans-Serif" font-size="10.00">BMV2::BMV2Options</text>
</a>
</g>
</g>
<!-- Node5&#45;&gt;Node6 -->
<g id="edge5_Node000005_Node000006" class="edge">
<title>Node5&#45;&gt;Node6</title>
<g id="a_edge5_Node000005_Node000006"><a xlink:title=" ">
<path fill="none" stroke="#63b8ff" d="M372.27,-159.52C373.22,-160.31 374.13,-161.14 375,-162 407,-193.85 377.62,-226.59 411,-257 415.31,-260.93 420.36,-264.05 425.73,-266.54"/>
<polygon fill="#63b8ff" stroke="#63b8ff" points="374.48,-156.78 364.2,-154.21 370.63,-162.63 374.48,-156.78"/>
</a>
</g>
</g>
<!-- Node9 -->
<g id="Node000009" class="node">
<title>Node9</title>
<g id="a_Node000009"><a xlink:href="class_d_p_d_k_1_1_dpdk_options.html" target="_top" xlink:title=" ">
<polygon fill="white" stroke="#bfbfbf" points="533.5,-248 428.25,-248 428.25,-228 533.5,-228 533.5,-248"/>
<text text-anchor="middle" x="480.88" y="-234.5" font-family="Helvetica,sans-Serif" font-size="10.00">DPDK::DpdkOptions</text>
</a>
</g>
</g>
<!-- Node5&#45;&gt;Node9 -->
<g id="edge8_Node000005_Node000009" class="edge">
<title>Node5&#45;&gt;Node9</title>
<g id="a_edge8_Node000005_Node000009"><a xlink:title=" ">
<path fill="none" stroke="#63b8ff" d="M370.91,-158.99C372.33,-159.94 373.7,-160.94 375,-162 398.25,-180.9 386.94,-201.15 411,-219 416.08,-222.77 421.87,-225.79 427.88,-228.21"/>
<polygon fill="#63b8ff" stroke="#63b8ff" points="372.76,-156.01 362.32,-154.19 369.34,-162.12 372.76,-156.01"/>
</a>
</g>
</g>
<!-- Node10 -->
<g id="Node000010" class="node">
<title>Node10</title>
<g id="a_Node000010"><a xlink:href="class_ebpf_options.html" target="_top" xlink:title=" ">
<polygon fill="white" stroke="#bfbfbf" points="515.5,-210 446.25,-210 446.25,-190 515.5,-190 515.5,-210"/>
<text text-anchor="middle" x="480.88" y="-196.5" font-family="Helvetica,sans-Serif" font-size="10.00">EbpfOptions</text>
</a>
</g>
</g>
<!-- Node5&#45;&gt;Node10 -->
<g id="edge9_Node000005_Node000010" class="edge">
<title>Node5&#45;&gt;Node10</title>
<g id="a_edge9_Node000005_Node000010"><a xlink:title=" ">
<path fill="none" stroke="#63b8ff" d="M364.59,-157.57C368.13,-159.01 371.64,-160.5 375,-162 391.51,-169.4 394.18,-174.33 411,-181 422.07,-185.39 434.52,-189.16 445.77,-192.15"/>
<polygon fill="#63b8ff" stroke="#63b8ff" points="365.97,-154.35 355.39,-153.97 363.42,-160.87 365.97,-154.35"/>
</a>
</g>
</g>
<!-- Node11 -->
<g id="Node000011" class="node">
<title>Node11</title>
<g id="a_Node000011"><a xlink:href="class_p4_test_options.html" target="_top" xlink:title=" ">
<polygon fill="white" stroke="#bfbfbf" points="521.12,-172 440.62,-172 440.62,-152 521.12,-152 521.12,-172"/>
<text text-anchor="middle" x="480.88" y="-158.5" font-family="Helvetica,sans-Serif" font-size="10.00">P4TestOptions</text>
</a>
</g>
</g>
<!-- Node5&#45;&gt;Node11 -->
<g id="edge10_Node000005_Node000011" class="edge">
<title>Node5&#45;&gt;Node11</title>
<g id="a_edge10_Node000005_Node000011"><a xlink:title=" ">
<path fill="none" stroke="#63b8ff" d="M378.79,-149.67C399.02,-152.14 421.54,-154.88 440.19,-157.16"/>
<polygon fill="#63b8ff" stroke="#63b8ff" points="379.36,-146.21 369.01,-148.48 378.52,-153.16 379.36,-146.21"/>
</a>
</g>
</g>
<!-- Node12 -->
<g id="Node000012" class="node">
<title>Node12</title>
<g id="a_Node000012"><a xlink:href="class_t_c_1_1_t_c_options.html" target="_top" xlink:title=" ">
<polygon fill="white" stroke="#bfbfbf" points="520.75,-134 441,-134 441,-114 520.75,-114 520.75,-134"/>
<text text-anchor="middle" x="480.88" y="-120.5" font-family="Helvetica,sans-Serif" font-size="10.00">TC::TCOptions</text>
</a>
</g>
</g>
<!-- Node5&#45;&gt;Node12 -->
<g id="edge11_Node000005_Node000012" class="edge">
<title>Node5&#45;&gt;Node12</title>
<g id="a_edge11_Node000005_Node000012"><a xlink:title=" ">
<path fill="none" stroke="#63b8ff" d="M378.88,-136.32C399.27,-133.83 421.99,-131.06 440.71,-128.78"/>
<polygon fill="#63b8ff" stroke="#63b8ff" points="378.52,-132.84 369.01,-137.52 379.36,-139.79 378.52,-132.84"/>
</a>
</g>
</g>
<!-- Node13 -->
<g id="Node000013" class="node">
<title>Node13</title>
<g id="a_Node000013"><a xlink:href="class_test_1_1_p4_reachability_options.html" target="_top" xlink:title=" ">
<polygon fill="white" stroke="#bfbfbf" points="550.75,-96 411,-96 411,-76 550.75,-76 550.75,-96"/>
<text text-anchor="middle" x="480.88" y="-82.5" font-family="Helvetica,sans-Serif" font-size="10.00">Test::P4ReachabilityOptions</text>
</a>
</g>
</g>
<!-- Node5&#45;&gt;Node13 -->
<g id="edge12_Node000005_Node000013" class="edge">
<title>Node5&#45;&gt;Node13</title>
<g id="a_edge12_Node000005_Node000013"><a xlink:title=" ">
<path fill="none" stroke="#63b8ff" d="M355.63,-127.92C371.93,-120.45 392.29,-111.63 411,-105 419.77,-101.89 429.31,-98.97 438.42,-96.4"/>
<polygon fill="#63b8ff" stroke="#63b8ff" points="354.52,-124.57 346.93,-131.96 357.47,-130.92 354.52,-124.57"/>
</a>
</g>
</g>
<!-- Node14 -->
<g id="Node000014" class="node">
<title>Node14</title>
<g id="a_Node000014"><a xlink:href="class_test_1_1_p4_test_options.html" target="_top" xlink:title=" ">
<polygon fill="white" stroke="#bfbfbf" points="533.5,-58 428.25,-58 428.25,-38 533.5,-38 533.5,-58"/>
<text text-anchor="middle" x="480.88" y="-44.5" font-family="Helvetica,sans-Serif" font-size="10.00">Test::P4TestOptions</text>
</a>
</g>
</g>
<!-- Node5&#45;&gt;Node14 -->
<g id="edge13_Node000005_Node000014" class="edge">
<title>Node5&#45;&gt;Node14</title>
<g id="a_edge13_Node000005_Node000014"><a xlink:title=" ">
<path fill="none" stroke="#63b8ff" d="M340.46,-124.56C356.72,-107.29 383.2,-81.97 411,-67 417.33,-63.59 424.33,-60.75 431.37,-58.39"/>
<polygon fill="#63b8ff" stroke="#63b8ff" points="338.14,-121.91 333.96,-131.65 343.3,-126.65 338.14,-121.91"/>
</a>
</g>
</g>
<!-- Node15 -->
<g id="Node000015" class="node">
<title>Node15</title>
<g id="a_Node000015"><a xlink:href="classgraphs_1_1_options.html" target="_top" xlink:title=" ">
<polygon fill="white" stroke="#bfbfbf" points="523.38,-20 438.38,-20 438.38,0 523.38,0 523.38,-20"/>
<text text-anchor="middle" x="480.88" y="-6.5" font-family="Helvetica,sans-Serif" font-size="10.00">graphs::Options</text>
</a>
</g>
</g>
<!-- Node5&#45;&gt;Node15 -->
<g id="edge14_Node000005_Node000015" class="edge">
<title>Node5&#45;&gt;Node15</title>
<g id="a_edge14_Node000005_Node000015"><a xlink:title=" ">
<path fill="none" stroke="#63b8ff" d="M334.27,-122.58C348.09,-96.87 375.26,-53.16 411,-29 419.02,-23.58 428.54,-19.7 437.91,-16.92"/>
<polygon fill="#63b8ff" stroke="#63b8ff" points="331.22,-120.85 329.72,-131.34 337.43,-124.08 331.22,-120.85"/>
</a>
</g>
</g>
<!-- Node7 -->
<g id="Node000007" class="node">
<title>Node7</title>
<g id="a_Node000007"><a xlink:href="class_b_m_v2_1_1_psa_switch_options.html" target="_top" xlink:title=" ">
<polygon fill="white" stroke="#bfbfbf" points="722.38,-305 593.12,-305 593.12,-285 722.38,-285 722.38,-305"/>
<text text-anchor="middle" x="657.75" y="-291.5" font-family="Helvetica,sans-Serif" font-size="10.00">BMV2::PsaSwitchOptions</text>
</a>
</g>
</g>
<!-- Node6&#45;&gt;Node7 -->
<g id="edge6_Node000006_Node000007" class="edge">
<title>Node6&#45;&gt;Node7</title>
<g id="a_edge6_Node000006_Node000007"><a xlink:title=" ">
<path fill="none" stroke="#63b8ff" d="M547.42,-283.12C562.31,-284.74 578.1,-286.45 592.91,-288.06"/>
<polygon fill="#63b8ff" stroke="#63b8ff" points="548.07,-279.67 537.75,-282.07 547.32,-286.63 548.07,-279.67"/>
</a>
</g>
</g>
<!-- Node8 -->
<g id="Node000008" class="node">
<title>Node8</title>
<g id="a_Node000008"><a xlink:href="class_b_m_v2_1_1_simple_switch_options.html" target="_top" xlink:title=" ">
<polygon fill="white" stroke="#bfbfbf" points="728.75,-267 586.75,-267 586.75,-247 728.75,-247 728.75,-267"/>
<text text-anchor="middle" x="657.75" y="-253.5" font-family="Helvetica,sans-Serif" font-size="10.00">BMV2::SimpleSwitchOptions</text>
</a>
</g>
</g>
<!-- Node6&#45;&gt;Node8 -->
<g id="edge7_Node000006_Node000008" class="edge">
<title>Node6&#45;&gt;Node8</title>
<g id="a_edge7_Node000006_Node000008"><a xlink:title=" ">
<path fill="none" stroke="#63b8ff" d="M547.63,-268.86C560.26,-267.48 573.54,-266.04 586.31,-264.65"/>
<polygon fill="#63b8ff" stroke="#63b8ff" points="547.32,-265.37 537.75,-269.93 548.07,-272.33 547.32,-265.37"/>
</a>
</g>
</g>
</g>
</svg>
