<?xml version="1.0" encoding="UTF-8" standalone="no"?>
<!DOCTYPE svg PUBLIC "-//W3C//DTD SVG 1.1//EN"
 "http://www.w3.org/Graphics/SVG/1.1/DTD/svg11.dtd">
<!-- Generated by graphviz version 10.0.1 (20240210.2158)
 -->
<!-- Title: DPDK::EliminateUnusedAction Pages: 1 -->
<svg width="158pt" height="196pt"
 viewBox="0.00 0.00 158.25 196.00" xmlns="http://www.w3.org/2000/svg" xmlns:xlink="http://www.w3.org/1999/xlink">
<g id="graph0" class="graph" transform="scale(1 1) rotate(0) translate(4 192)">
<title>DPDK::EliminateUnusedAction</title>
<!-- Node1 -->
<g id="Node000001" class="node">
<title>Node1</title>
<g id="a_Node000001"><a xlink:title=" ">
<polygon fill="#999999" stroke="#666666" points="150.25,-20 0,-20 0,0 150.25,0 150.25,-20"/>
<text text-anchor="middle" x="75.12" y="-6.5" font-family="Helvetica,sans-Serif" font-size="10.00">DPDK::EliminateUnusedAction</text>
</a>
</g>
</g>
<!-- Node2 -->
<g id="Node000002" class="node">
<title>Node2</title>
<g id="a_Node000002"><a xlink:href="class_pass_manager.html" target="_top" xlink:title=" ">
<polygon fill="white" stroke="#bfbfbf" points="113.12,-76 37.12,-76 37.12,-56 113.12,-56 113.12,-76"/>
<text text-anchor="middle" x="75.12" y="-62.5" font-family="Helvetica,sans-Serif" font-size="10.00">PassManager</text>
</a>
</g>
</g>
<!-- Node2&#45;&gt;Node1 -->
<g id="edge1_Node000001_Node000002" class="edge">
<title>Node2&#45;&gt;Node1</title>
<g id="a_edge1_Node000001_Node000002"><a xlink:title=" ">
<path fill="none" stroke="#63b8ff" d="M75.12,-44.13C75.12,-35.9 75.12,-26.85 75.12,-20.3"/>
<polygon fill="#63b8ff" stroke="#63b8ff" points="71.63,-44.08 75.13,-54.08 78.63,-44.08 71.63,-44.08"/>
</a>
</g>
</g>
<!-- Node3 -->
<g id="Node000003" class="node">
<title>Node3</title>
<g id="a_Node000003"><a xlink:href="class_visitor.html" target="_top" xlink:title=" ">
<polygon fill="white" stroke="#bfbfbf" points="97,-188 53.25,-188 53.25,-168 97,-168 97,-188"/>
<text text-anchor="middle" x="75.12" y="-174.5" font-family="Helvetica,sans-Serif" font-size="10.00">Visitor</text>
</a>
</g>
</g>
<!-- Node3&#45;&gt;Node2 -->
<g id="edge2_Node000002_Node000003" class="edge">
<title>Node3&#45;&gt;Node2</title>
<g id="a_edge2_Node000002_Node000003"><a xlink:title=" ">
<path fill="none" stroke="#63b8ff" d="M69.61,-156.65C67.8,-148.98 66.02,-140.15 65.12,-132 62.93,-112.03 68.48,-88.79 72.16,-76.22"/>
<polygon fill="#63b8ff" stroke="#63b8ff" points="66.22,-157.5 72.08,-166.32 73,-155.77 66.22,-157.5"/>
</a>
</g>
</g>
<!-- Node4 -->
<g id="Node000004" class="node">
<title>Node4</title>
<g id="a_Node000004"><a xlink:href="class_backtrack.html" target="_top" xlink:title=" ">
<polygon fill="white" stroke="#bfbfbf" points="134.25,-132 74,-132 74,-112 134.25,-112 134.25,-132"/>
<text text-anchor="middle" x="104.12" y="-118.5" font-family="Helvetica,sans-Serif" font-size="10.00">Backtrack</text>
</a>
</g>
</g>
<!-- Node3&#45;&gt;Node4 -->
<g id="edge4_Node000004_Node000003" class="edge">
<title>Node3&#45;&gt;Node4</title>
<g id="a_edge4_Node000004_Node000003"><a xlink:title=" ">
<path fill="none" stroke="#63b8ff" d="M85.55,-157.58C90.18,-148.97 95.4,-139.24 99.13,-132.3"/>
<polygon fill="#63b8ff" stroke="#63b8ff" points="82.54,-155.79 80.89,-166.26 88.71,-159.11 82.54,-155.79"/>
</a>
</g>
</g>
<!-- Node4&#45;&gt;Node2 -->
<g id="edge3_Node000002_Node000004" class="edge">
<title>Node4&#45;&gt;Node2</title>
<g id="a_edge3_Node000002_Node000004"><a xlink:title=" ">
<path fill="none" stroke="#63b8ff" d="M93.7,-101.58C89.07,-92.97 83.85,-83.24 80.12,-76.3"/>
<polygon fill="#63b8ff" stroke="#63b8ff" points="90.54,-103.11 98.36,-110.26 96.71,-99.79 90.54,-103.11"/>
</a>
</g>
</g>
</g>
</svg>
