<?xml version="1.0" encoding="UTF-8" standalone="no"?>
<!DOCTYPE svg PUBLIC "-//W3C//DTD SVG 1.1//EN"
 "http://www.w3.org/Graphics/SVG/1.1/DTD/svg11.dtd">
<!-- Generated by graphviz version 10.0.1 (20240210.2158)
 -->
<!-- Title: EBPF::ActionTranslationVisitorPSA Pages: 1 -->
<svg width="342pt" height="308pt"
 viewBox="0.00 0.00 341.75 308.00" xmlns="http://www.w3.org/2000/svg" xmlns:xlink="http://www.w3.org/1999/xlink">
<g id="graph0" class="graph" transform="scale(1 1) rotate(0) translate(4 304)">
<title>EBPF::ActionTranslationVisitorPSA</title>
<!-- Node1 -->
<g id="Node000001" class="node">
<title>Node1</title>
<g id="a_Node000001"><a xlink:title=" ">
<polygon fill="#999999" stroke="#666666" points="249.12,-20 77.88,-20 77.88,0 249.12,0 249.12,-20"/>
<text text-anchor="middle" x="163.5" y="-6.5" font-family="Helvetica,sans-Serif" font-size="10.00">EBPF::ActionTranslationVisitorPSA</text>
</a>
</g>
</g>
<!-- Node2 -->
<g id="Node000002" class="node">
<title>Node2</title>
<g id="a_Node000002"><a xlink:href="class_e_b_p_f_1_1_action_translation_visitor.html" target="_top" xlink:title=" ">
<polygon fill="white" stroke="#bfbfbf" points="151,-76 0,-76 0,-56 151,-56 151,-76"/>
<text text-anchor="middle" x="75.5" y="-62.5" font-family="Helvetica,sans-Serif" font-size="10.00">EBPF::ActionTranslationVisitor</text>
</a>
</g>
</g>
<!-- Node2&#45;&gt;Node1 -->
<g id="edge1_Node000001_Node000002" class="edge">
<title>Node2&#45;&gt;Node1</title>
<g id="a_edge1_Node000001_Node000002"><a xlink:title=" ">
<path fill="none" stroke="#63b8ff" d="M100.25,-49.81C115.6,-40.39 134.85,-28.58 148.05,-20.48"/>
<polygon fill="#63b8ff" stroke="#63b8ff" points="98.81,-46.59 92.12,-54.8 102.47,-52.56 98.81,-46.59"/>
</a>
</g>
</g>
<!-- Node3 -->
<g id="Node000003" class="node">
<title>Node3</title>
<g id="a_Node000003"><a xlink:href="class_e_b_p_f_1_1_code_gen_inspector.html" target="_top" xlink:title=" ">
<polygon fill="white" stroke="#bfbfbf" points="227.75,-188 99.25,-188 99.25,-168 227.75,-168 227.75,-188"/>
<text text-anchor="middle" x="163.5" y="-174.5" font-family="Helvetica,sans-Serif" font-size="10.00">EBPF::CodeGenInspector</text>
</a>
</g>
</g>
<!-- Node3&#45;&gt;Node2 -->
<g id="edge2_Node000002_Node000003" class="edge">
<title>Node3&#45;&gt;Node2</title>
<g id="a_edge2_Node000002_Node000003"><a xlink:title=" ">
<path fill="none" stroke="#63b8ff" d="M149.02,-158.9C130.08,-135.22 97.58,-94.6 82.98,-76.35"/>
<polygon fill="#63b8ff" stroke="#63b8ff" points="146.07,-160.82 155.05,-166.44 151.54,-156.44 146.07,-160.82"/>
</a>
</g>
</g>
<!-- Node7 -->
<g id="Node000007" class="node">
<title>Node7</title>
<g id="a_Node000007"><a xlink:href="class_e_b_p_f_1_1_control_body_translator.html" target="_top" xlink:title=" ">
<polygon fill="white" stroke="#bfbfbf" points="304.62,-132 160.38,-132 160.38,-112 304.62,-112 304.62,-132"/>
<text text-anchor="middle" x="232.5" y="-118.5" font-family="Helvetica,sans-Serif" font-size="10.00">EBPF::ControlBodyTranslator</text>
</a>
</g>
</g>
<!-- Node3&#45;&gt;Node7 -->
<g id="edge7_Node000007_Node000003" class="edge">
<title>Node3&#45;&gt;Node7</title>
<g id="a_edge7_Node000007_Node000003"><a xlink:title=" ">
<path fill="none" stroke="#63b8ff" d="M184.35,-160.68C196.23,-151.39 210.67,-140.09 220.62,-132.3"/>
<polygon fill="#63b8ff" stroke="#63b8ff" points="182.43,-157.74 176.71,-166.66 186.74,-163.25 182.43,-157.74"/>
</a>
</g>
</g>
<!-- Node4 -->
<g id="Node000004" class="node">
<title>Node4</title>
<g id="a_Node000004"><a xlink:href="class_inspector.html" target="_top" xlink:title=" ">
<polygon fill="white" stroke="#bfbfbf" points="191.38,-244 135.62,-244 135.62,-224 191.38,-224 191.38,-244"/>
<text text-anchor="middle" x="163.5" y="-230.5" font-family="Helvetica,sans-Serif" font-size="10.00">Inspector</text>
</a>
</g>
</g>
<!-- Node4&#45;&gt;Node3 -->
<g id="edge3_Node000003_Node000004" class="edge">
<title>Node4&#45;&gt;Node3</title>
<g id="a_edge3_Node000003_Node000004"><a xlink:title=" ">
<path fill="none" stroke="#63b8ff" d="M163.5,-212.13C163.5,-203.9 163.5,-194.85 163.5,-188.3"/>
<polygon fill="#63b8ff" stroke="#63b8ff" points="160,-212.08 163.5,-222.08 167,-212.08 160,-212.08"/>
</a>
</g>
</g>
<!-- Node5 -->
<g id="Node000005" class="node">
<title>Node5</title>
<g id="a_Node000005"><a xlink:href="class_visitor.html" target="_top" xlink:title=" ">
<polygon fill="white" stroke="#bfbfbf" points="185.38,-300 141.62,-300 141.62,-280 185.38,-280 185.38,-300"/>
<text text-anchor="middle" x="163.5" y="-286.5" font-family="Helvetica,sans-Serif" font-size="10.00">Visitor</text>
</a>
</g>
</g>
<!-- Node5&#45;&gt;Node4 -->
<g id="edge4_Node000004_Node000005" class="edge">
<title>Node5&#45;&gt;Node4</title>
<g id="a_edge4_Node000004_Node000005"><a xlink:title=" ">
<path fill="none" stroke="#63b8ff" d="M163.5,-268.13C163.5,-259.9 163.5,-250.85 163.5,-244.3"/>
<polygon fill="#63b8ff" stroke="#63b8ff" points="160,-268.08 163.5,-278.08 167,-268.08 160,-268.08"/>
</a>
</g>
</g>
<!-- Node6 -->
<g id="Node000006" class="node">
<title>Node6</title>
<g id="a_Node000006"><a xlink:href="class_e_b_p_f_1_1_control_body_translator_p_s_a.html" target="_top" xlink:title=" ">
<polygon fill="white" stroke="#bfbfbf" points="333.75,-76 169.25,-76 169.25,-56 333.75,-56 333.75,-76"/>
<text text-anchor="middle" x="251.5" y="-62.5" font-family="Helvetica,sans-Serif" font-size="10.00">EBPF::ControlBodyTranslatorPSA</text>
</a>
</g>
</g>
<!-- Node6&#45;&gt;Node1 -->
<g id="edge5_Node000001_Node000006" class="edge">
<title>Node6&#45;&gt;Node1</title>
<g id="a_edge5_Node000001_Node000006"><a xlink:title=" ">
<path fill="none" stroke="#63b8ff" d="M226.75,-49.81C211.4,-40.39 192.15,-28.58 178.95,-20.48"/>
<polygon fill="#63b8ff" stroke="#63b8ff" points="224.53,-52.56 234.88,-54.8 228.19,-46.59 224.53,-52.56"/>
</a>
</g>
</g>
<!-- Node7&#45;&gt;Node6 -->
<g id="edge6_Node000006_Node000007" class="edge">
<title>Node7&#45;&gt;Node6</title>
<g id="a_edge6_Node000006_Node000007"><a xlink:title=" ">
<path fill="none" stroke="#63b8ff" d="M239.54,-101C242.51,-92.54 245.84,-83.08 248.23,-76.3"/>
<polygon fill="#63b8ff" stroke="#63b8ff" points="236.33,-99.57 236.31,-110.17 242.93,-101.89 236.33,-99.57"/>
</a>
</g>
</g>
</g>
</svg>
