<?xml version="1.0" encoding="UTF-8" standalone="no"?>
<!DOCTYPE svg PUBLIC "-//W3C//DTD SVG 1.1//EN"
 "http://www.w3.org/Graphics/SVG/1.1/DTD/svg11.dtd">
<!-- Generated by graphviz version 10.0.1 (20240210.2158)
 -->
<!-- Title: P4Tools::P4Testgen::TableMatch Pages: 1 -->
<svg width="610pt" height="328pt"
 viewBox="0.00 0.00 610.00 328.00" xmlns="http://www.w3.org/2000/svg" xmlns:xlink="http://www.w3.org/1999/xlink">
<g id="graph0" class="graph" transform="scale(1 1) rotate(0) translate(4 324)">
<title>P4Tools::P4Testgen::TableMatch</title>
<!-- Node1 -->
<g id="Node000001" class="node">
<title>Node1</title>
<g id="a_Node000001"><a xlink:title=" ">
<polygon fill="#999999" stroke="#666666" points="436,-176 332.25,-176 332.25,-144 436,-144 436,-176"/>
<text text-anchor="start" x="340.25" y="-162.5" font-family="Helvetica,sans-Serif" font-size="10.00">P4Tools::P4Testgen</text>
<text text-anchor="middle" x="384.12" y="-150.5" font-family="Helvetica,sans-Serif" font-size="10.00">::TableMatch</text>
</a>
</g>
</g>
<!-- Node5 -->
<g id="Node000005" class="node">
<title>Node5</title>
<g id="a_Node000005"><a xlink:href="class_p4_tools_1_1_p4_testgen_1_1_bmv2_1_1_optional.html" target="_top" xlink:title=" ">
<polygon fill="white" stroke="#bfbfbf" points="588.88,-320 485.12,-320 485.12,-288 588.88,-288 588.88,-320"/>
<text text-anchor="start" x="493.12" y="-306.5" font-family="Helvetica,sans-Serif" font-size="10.00">P4Tools::P4Testgen</text>
<text text-anchor="middle" x="537" y="-294.5" font-family="Helvetica,sans-Serif" font-size="10.00">::Bmv2::Optional</text>
</a>
</g>
</g>
<!-- Node1&#45;&gt;Node5 -->
<g id="edge4_Node000001_Node000005" class="edge">
<title>Node1&#45;&gt;Node5</title>
<g id="a_edge4_Node000001_Node000005"><a xlink:title=" ">
<path fill="none" stroke="#63b8ff" d="M398.46,-186.26C413.19,-212.92 439.23,-253.76 472,-279 476.16,-282.2 480.78,-285.04 485.58,-287.55"/>
<polygon fill="#63b8ff" stroke="#63b8ff" points="401.55,-184.62 393.74,-177.46 395.38,-187.93 401.55,-184.62"/>
</a>
</g>
</g>
<!-- Node6 -->
<g id="Node000006" class="node">
<title>Node6</title>
<g id="a_Node000006"><a xlink:href="class_p4_tools_1_1_p4_testgen_1_1_bmv2_1_1_range.html" target="_top" xlink:title=" ">
<polygon fill="white" stroke="#bfbfbf" points="588.88,-270 485.12,-270 485.12,-238 588.88,-238 588.88,-270"/>
<text text-anchor="start" x="493.12" y="-256.5" font-family="Helvetica,sans-Serif" font-size="10.00">P4Tools::P4Testgen</text>
<text text-anchor="middle" x="537" y="-244.5" font-family="Helvetica,sans-Serif" font-size="10.00">::Bmv2::Range</text>
</a>
</g>
</g>
<!-- Node1&#45;&gt;Node6 -->
<g id="edge5_Node000001_Node000006" class="edge">
<title>Node1&#45;&gt;Node6</title>
<g id="a_edge5_Node000001_Node000006"><a xlink:title=" ">
<path fill="none" stroke="#63b8ff" d="M410.84,-183.81C427.39,-198.25 449.88,-216.28 472,-229 477.38,-232.09 483.21,-234.96 489.09,-237.57"/>
<polygon fill="#63b8ff" stroke="#63b8ff" points="413.22,-181.25 403.42,-177.22 408.57,-186.48 413.22,-181.25"/>
</a>
</g>
</g>
<!-- Node7 -->
<g id="Node000007" class="node">
<title>Node7</title>
<g id="a_Node000007"><a xlink:href="class_p4_tools_1_1_p4_testgen_1_1_exact.html" target="_top" xlink:title=" ">
<polygon fill="white" stroke="#bfbfbf" points="588.88,-220 485.12,-220 485.12,-188 588.88,-188 588.88,-220"/>
<text text-anchor="start" x="493.12" y="-206.5" font-family="Helvetica,sans-Serif" font-size="10.00">P4Tools::P4Testgen</text>
<text text-anchor="middle" x="537" y="-194.5" font-family="Helvetica,sans-Serif" font-size="10.00">::Exact</text>
</a>
</g>
</g>
<!-- Node1&#45;&gt;Node7 -->
<g id="edge6_Node000001_Node000007" class="edge">
<title>Node1&#45;&gt;Node7</title>
<g id="a_edge6_Node000001_Node000007"><a xlink:title=" ">
<path fill="none" stroke="#63b8ff" d="M447.04,-178.06C459.57,-181.71 472.61,-185.51 484.72,-189.04"/>
<polygon fill="#63b8ff" stroke="#63b8ff" points="448.24,-174.76 437.66,-175.32 446.28,-181.48 448.24,-174.76"/>
</a>
</g>
</g>
<!-- Node8 -->
<g id="Node000008" class="node">
<title>Node8</title>
<g id="a_Node000008"><a xlink:href="class_p4_tools_1_1_p4_testgen_1_1_l_p_m.html" target="_top" xlink:title=" ">
<polygon fill="white" stroke="#bfbfbf" points="602,-170 472,-170 472,-150 602,-150 602,-170"/>
<text text-anchor="middle" x="537" y="-156.5" font-family="Helvetica,sans-Serif" font-size="10.00">P4Tools::P4Testgen::LPM</text>
</a>
</g>
</g>
<!-- Node1&#45;&gt;Node8 -->
<g id="edge7_Node000001_Node000008" class="edge">
<title>Node1&#45;&gt;Node8</title>
<g id="a_edge7_Node000001_Node000008"><a xlink:title=" ">
<path fill="none" stroke="#63b8ff" d="M447.62,-160C455.54,-160 463.65,-160 471.6,-160"/>
<polygon fill="#63b8ff" stroke="#63b8ff" points="447.72,-156.5 437.72,-160 447.72,-163.5 447.72,-156.5"/>
</a>
</g>
</g>
<!-- Node9 -->
<g id="Node000009" class="node">
<title>Node9</title>
<g id="a_Node000009"><a xlink:href="class_p4_tools_1_1_p4_testgen_1_1_pna_1_1_optional.html" target="_top" xlink:title=" ">
<polygon fill="white" stroke="#bfbfbf" points="588.88,-132 485.12,-132 485.12,-100 588.88,-100 588.88,-132"/>
<text text-anchor="start" x="493.12" y="-118.5" font-family="Helvetica,sans-Serif" font-size="10.00">P4Tools::P4Testgen</text>
<text text-anchor="middle" x="537" y="-106.5" font-family="Helvetica,sans-Serif" font-size="10.00">::Pna::Optional</text>
</a>
</g>
</g>
<!-- Node1&#45;&gt;Node9 -->
<g id="edge8_Node000001_Node000009" class="edge">
<title>Node1&#45;&gt;Node9</title>
<g id="a_edge8_Node000001_Node000009"><a xlink:title=" ">
<path fill="none" stroke="#63b8ff" d="M447.04,-141.94C459.57,-138.29 472.61,-134.49 484.72,-130.96"/>
<polygon fill="#63b8ff" stroke="#63b8ff" points="446.28,-138.52 437.66,-144.68 448.24,-145.24 446.28,-138.52"/>
</a>
</g>
</g>
<!-- Node10 -->
<g id="Node000010" class="node">
<title>Node10</title>
<g id="a_Node000010"><a xlink:href="class_p4_tools_1_1_p4_testgen_1_1_pna_1_1_range.html" target="_top" xlink:title=" ">
<polygon fill="white" stroke="#bfbfbf" points="588.88,-82 485.12,-82 485.12,-50 588.88,-50 588.88,-82"/>
<text text-anchor="start" x="493.12" y="-68.5" font-family="Helvetica,sans-Serif" font-size="10.00">P4Tools::P4Testgen</text>
<text text-anchor="middle" x="537" y="-56.5" font-family="Helvetica,sans-Serif" font-size="10.00">::Pna::Range</text>
</a>
</g>
</g>
<!-- Node1&#45;&gt;Node10 -->
<g id="edge9_Node000001_Node000010" class="edge">
<title>Node1&#45;&gt;Node10</title>
<g id="a_edge9_Node000001_Node000010"><a xlink:title=" ">
<path fill="none" stroke="#63b8ff" d="M410.84,-136.19C427.39,-121.75 449.88,-103.72 472,-91 477.38,-87.91 483.21,-85.04 489.09,-82.43"/>
<polygon fill="#63b8ff" stroke="#63b8ff" points="408.57,-133.52 403.42,-142.78 413.22,-138.75 408.57,-133.52"/>
</a>
</g>
</g>
<!-- Node11 -->
<g id="Node000011" class="node">
<title>Node11</title>
<g id="a_Node000011"><a xlink:href="class_p4_tools_1_1_p4_testgen_1_1_ternary.html" target="_top" xlink:title=" ">
<polygon fill="white" stroke="#bfbfbf" points="588.88,-32 485.12,-32 485.12,0 588.88,0 588.88,-32"/>
<text text-anchor="start" x="493.12" y="-18.5" font-family="Helvetica,sans-Serif" font-size="10.00">P4Tools::P4Testgen</text>
<text text-anchor="middle" x="537" y="-6.5" font-family="Helvetica,sans-Serif" font-size="10.00">::Ternary</text>
</a>
</g>
</g>
<!-- Node1&#45;&gt;Node11 -->
<g id="edge10_Node000001_Node000011" class="edge">
<title>Node1&#45;&gt;Node11</title>
<g id="a_edge10_Node000001_Node000011"><a xlink:title=" ">
<path fill="none" stroke="#63b8ff" d="M398.46,-133.74C413.19,-107.08 439.23,-66.24 472,-41 476.16,-37.8 480.78,-34.96 485.58,-32.45"/>
<polygon fill="#63b8ff" stroke="#63b8ff" points="395.38,-132.07 393.74,-142.54 401.55,-135.38 395.38,-132.07"/>
</a>
</g>
</g>
<!-- Node2 -->
<g id="Node000002" class="node">
<title>Node2</title>
<g id="a_Node000002"><a xlink:href="class_p4_tools_1_1_p4_testgen_1_1_test_object.html" target="_top" xlink:title=" ">
<polygon fill="white" stroke="#bfbfbf" points="296.25,-176 192.5,-176 192.5,-144 296.25,-144 296.25,-176"/>
<text text-anchor="start" x="200.5" y="-162.5" font-family="Helvetica,sans-Serif" font-size="10.00">P4Tools::P4Testgen</text>
<text text-anchor="middle" x="244.38" y="-150.5" font-family="Helvetica,sans-Serif" font-size="10.00">::TestObject</text>
</a>
</g>
</g>
<!-- Node2&#45;&gt;Node1 -->
<g id="edge1_Node000001_Node000002" class="edge">
<title>Node2&#45;&gt;Node1</title>
<g id="a_edge1_Node000001_Node000002"><a xlink:title=" ">
<path fill="none" stroke="#63b8ff" d="M308.14,-160C316.05,-160 324.08,-160 331.79,-160"/>
<polygon fill="#63b8ff" stroke="#63b8ff" points="308.18,-156.5 298.18,-160 308.18,-163.5 308.18,-156.5"/>
</a>
</g>
</g>
<!-- Node3 -->
<g id="Node000003" class="node">
<title>Node3</title>
<g id="a_Node000003"><a xlink:href="class_i_castable.html" target="_top" xlink:title=" ">
<polygon fill="white" stroke="#666666" points="156.5,-170 100,-170 100,-150 156.5,-150 156.5,-170"/>
<text text-anchor="middle" x="128.25" y="-156.5" font-family="Helvetica,sans-Serif" font-size="10.00">ICastable</text>
</a>
</g>
</g>
<!-- Node3&#45;&gt;Node2 -->
<g id="edge2_Node000002_Node000003" class="edge">
<title>Node3&#45;&gt;Node2</title>
<g id="a_edge2_Node000002_Node000003"><a xlink:title=" ">
<path fill="none" stroke="#63b8ff" d="M168.2,-160C175.98,-160 184.25,-160 192.36,-160"/>
<polygon fill="#63b8ff" stroke="#63b8ff" points="168.39,-156.5 158.39,-160 168.39,-163.5 168.39,-156.5"/>
</a>
</g>
</g>
<!-- Node4 -->
<g id="Node000004" class="node">
<title>Node4</title>
<g id="a_Node000004"><a xlink:href="struct_r_t_t_i_1_1_base.html" target="_top" xlink:title=" ">
<polygon fill="white" stroke="#bfbfbf" points="64,-170 0,-170 0,-150 64,-150 64,-170"/>
<text text-anchor="middle" x="32" y="-156.5" font-family="Helvetica,sans-Serif" font-size="10.00">RTTI::Base</text>
</a>
</g>
</g>
<!-- Node4&#45;&gt;Node3 -->
<g id="edge3_Node000003_Node000004" class="edge">
<title>Node4&#45;&gt;Node3</title>
<g id="a_edge3_Node000003_Node000004"><a xlink:title=" ">
<path fill="none" stroke="#63b8ff" d="M75.72,-160C83.9,-160 92.26,-160 99.8,-160"/>
<polygon fill="#63b8ff" stroke="#63b8ff" points="75.9,-156.5 65.9,-160 75.9,-163.5 75.9,-156.5"/>
</a>
</g>
</g>
</g>
</svg>
