<?xml version="1.0" encoding="UTF-8" standalone="no"?>
<!DOCTYPE svg PUBLIC "-//W3C//DTD SVG 1.1//EN"
 "http://www.w3.org/Graphics/SVG/1.1/DTD/svg11.dtd">
<!-- Generated by graphviz version 10.0.1 (20240210.2158)
 -->
<!-- Title: P4::ControlPlaneAPI::Standard::BFRuntimeArchHandler&lt; arch &gt; Pages: 1 -->
<svg width="177pt" height="200pt"
 viewBox="0.00 0.00 177.00 200.00" xmlns="http://www.w3.org/2000/svg" xmlns:xlink="http://www.w3.org/1999/xlink">
<g id="graph0" class="graph" transform="scale(1 1) rotate(0) translate(4 196)">
<title>P4::ControlPlaneAPI::Standard::BFRuntimeArchHandler&lt; arch &gt;</title>
<!-- Node1 -->
<g id="Node000001" class="node">
<title>Node1</title>
<g id="a_Node000001"><a xlink:title=" ">
<polygon fill="#999999" stroke="#666666" points="169,-44 0,-44 0,0 169,0 169,-44"/>
<text text-anchor="start" x="8" y="-30.5" font-family="Helvetica,sans-Serif" font-size="10.00">P4::ControlPlaneAPI</text>
<text text-anchor="start" x="8" y="-18.5" font-family="Helvetica,sans-Serif" font-size="10.00">::Standard::BFRuntimeArchHandler</text>
<text text-anchor="middle" x="84.5" y="-6.5" font-family="Helvetica,sans-Serif" font-size="10.00">&lt; arch &gt;</text>
</a>
</g>
</g>
<!-- Node2 -->
<g id="Node000002" class="node">
<title>Node2</title>
<g id="a_Node000002"><a xlink:href="class_p4_1_1_control_plane_a_p_i_1_1_standard_1_1_p4_runtime_arch_handler_common.html" target="_top" xlink:title=" ">
<polygon fill="white" stroke="#666666" points="168.62,-124 0.38,-124 0.38,-80 168.62,-80 168.62,-124"/>
<text text-anchor="start" x="8.38" y="-110.5" font-family="Helvetica,sans-Serif" font-size="10.00">P4::ControlPlaneAPI</text>
<text text-anchor="start" x="8.38" y="-98.5" font-family="Helvetica,sans-Serif" font-size="10.00">::Standard::P4RuntimeArchHandler</text>
<text text-anchor="middle" x="84.5" y="-86.5" font-family="Helvetica,sans-Serif" font-size="10.00">Common&lt; arch &gt;</text>
</a>
</g>
</g>
<!-- Node2&#45;&gt;Node1 -->
<g id="edge1_Node000001_Node000002" class="edge">
<title>Node2&#45;&gt;Node1</title>
<g id="a_edge1_Node000001_Node000002"><a xlink:title=" ">
<path fill="none" stroke="#63b8ff" d="M84.5,-68.25C84.5,-60.15 84.5,-51.68 84.5,-44.29"/>
<polygon fill="#63b8ff" stroke="#63b8ff" points="81,-68.17 84.5,-78.17 88,-68.17 81,-68.17"/>
</a>
</g>
</g>
<!-- Node3 -->
<g id="Node000003" class="node">
<title>Node3</title>
<g id="a_Node000003"><a xlink:href="class_p4_1_1_control_plane_a_p_i_1_1_p4_runtime_arch_handler_iface.html" target="_top" xlink:title=" ">
<polygon fill="white" stroke="#666666" points="156.25,-192 12.75,-192 12.75,-160 156.25,-160 156.25,-192"/>
<text text-anchor="start" x="20.75" y="-178.5" font-family="Helvetica,sans-Serif" font-size="10.00">P4::ControlPlaneAPI</text>
<text text-anchor="middle" x="84.5" y="-166.5" font-family="Helvetica,sans-Serif" font-size="10.00">::P4RuntimeArchHandlerIface</text>
</a>
</g>
</g>
<!-- Node3&#45;&gt;Node2 -->
<g id="edge2_Node000002_Node000003" class="edge">
<title>Node3&#45;&gt;Node2</title>
<g id="a_edge2_Node000002_Node000003"><a xlink:title=" ">
<path fill="none" stroke="#63b8ff" d="M84.5,-148.38C84.5,-140.43 84.5,-131.82 84.5,-124.26"/>
<polygon fill="#63b8ff" stroke="#63b8ff" points="81,-148.22 84.5,-158.22 88,-148.22 81,-148.22"/>
</a>
</g>
</g>
</g>
</svg>
