<?xml version="1.0" encoding="UTF-8" standalone="no"?>
<!DOCTYPE svg PUBLIC "-//W3C//DTD SVG 1.1//EN"
 "http://www.w3.org/Graphics/SVG/1.1/DTD/svg11.dtd">
<!-- Generated by graphviz version 10.0.1 (20240210.2158)
 -->
<!-- Title: UBPF::UBPFModel::getUBPFModelVersion Pages: 1 -->
<svg width="181pt" height="152pt"
 viewBox="0.00 0.00 180.75 152.00" xmlns="http://www.w3.org/2000/svg" xmlns:xlink="http://www.w3.org/1999/xlink">
<g id="graph0" class="graph" transform="scale(1 1) rotate(0) translate(4 148)">
<title>UBPF::UBPFModel::getUBPFModelVersion</title>
<!-- Node1 -->
<g id="Node000001" class="node">
<title>Node1</title>
<g id="a_Node000001"><a xlink:title=" ">
<polygon fill="#999999" stroke="#666666" points="172.75,-32 0,-32 0,0 172.75,0 172.75,-32"/>
<text text-anchor="start" x="8" y="-18.5" font-family="Helvetica,sans-Serif" font-size="10.00">UBPF::UBPFModel::getUBPFModel</text>
<text text-anchor="middle" x="86.38" y="-6.5" font-family="Helvetica,sans-Serif" font-size="10.00">Version</text>
</a>
</g>
</g>
<!-- Node2 -->
<g id="Node000002" class="node">
<title>Node2</title>
<g id="a_Node000002"><a xlink:href="class_inspector.html" target="_top" xlink:title=" ">
<polygon fill="white" stroke="#bfbfbf" points="114.25,-88 58.5,-88 58.5,-68 114.25,-68 114.25,-88"/>
<text text-anchor="middle" x="86.38" y="-74.5" font-family="Helvetica,sans-Serif" font-size="10.00">Inspector</text>
</a>
</g>
</g>
<!-- Node2&#45;&gt;Node1 -->
<g id="edge1_Node000001_Node000002" class="edge">
<title>Node2&#45;&gt;Node1</title>
<g id="a_edge1_Node000001_Node000002"><a xlink:title=" ">
<path fill="none" stroke="#63b8ff" d="M86.38,-56.31C86.38,-48.37 86.38,-39.46 86.38,-32.14"/>
<polygon fill="#63b8ff" stroke="#63b8ff" points="82.88,-56.11 86.38,-66.11 89.88,-56.11 82.88,-56.11"/>
</a>
</g>
</g>
<!-- Node3 -->
<g id="Node000003" class="node">
<title>Node3</title>
<g id="a_Node000003"><a xlink:href="class_visitor.html" target="_top" xlink:title=" ">
<polygon fill="white" stroke="#bfbfbf" points="108.25,-144 64.5,-144 64.5,-124 108.25,-124 108.25,-144"/>
<text text-anchor="middle" x="86.38" y="-130.5" font-family="Helvetica,sans-Serif" font-size="10.00">Visitor</text>
</a>
</g>
</g>
<!-- Node3&#45;&gt;Node2 -->
<g id="edge2_Node000002_Node000003" class="edge">
<title>Node3&#45;&gt;Node2</title>
<g id="a_edge2_Node000002_Node000003"><a xlink:title=" ">
<path fill="none" stroke="#63b8ff" d="M86.38,-112.13C86.38,-103.9 86.38,-94.85 86.38,-88.3"/>
<polygon fill="#63b8ff" stroke="#63b8ff" points="82.88,-112.08 86.38,-122.08 89.88,-112.08 82.88,-112.08"/>
</a>
</g>
</g>
</g>
</svg>
