<?xml version="1.0" encoding="UTF-8" standalone="no"?>
<!DOCTYPE svg PUBLIC "-//W3C//DTD SVG 1.1//EN"
 "http://www.w3.org/Graphics/SVG/1.1/DTD/svg11.dtd">
<!-- Generated by graphviz version 10.0.1 (20240210.2158)
 -->
<!-- Title: P4Tools::P4Testgen::Bmv2::Bmv2V1ModelMeterValue Pages: 1 -->
<svg width="172pt" height="288pt"
 viewBox="0.00 0.00 171.75 288.00" xmlns="http://www.w3.org/2000/svg" xmlns:xlink="http://www.w3.org/1999/xlink">
<g id="graph0" class="graph" transform="scale(1 1) rotate(0) translate(4 284)">
<title>P4Tools::P4Testgen::Bmv2::Bmv2V1ModelMeterValue</title>
<!-- Node1 -->
<g id="Node000001" class="node">
<title>Node1</title>
<g id="a_Node000001"><a xlink:title=" ">
<polygon fill="#999999" stroke="#666666" points="163.75,-32 0,-32 0,0 163.75,0 163.75,-32"/>
<text text-anchor="start" x="8" y="-18.5" font-family="Helvetica,sans-Serif" font-size="10.00">P4Tools::P4Testgen</text>
<text text-anchor="middle" x="81.88" y="-6.5" font-family="Helvetica,sans-Serif" font-size="10.00">::Bmv2::Bmv2V1ModelMeterValue</text>
</a>
</g>
</g>
<!-- Node2 -->
<g id="Node000002" class="node">
<title>Node2</title>
<g id="a_Node000002"><a xlink:href="class_p4_tools_1_1_p4_testgen_1_1_bmv2_1_1_index_map.html" target="_top" xlink:title="Readable and writable symbolic map, which maps indices to particular values.">
<polygon fill="white" stroke="#666666" points="133.75,-100 30,-100 30,-68 133.75,-68 133.75,-100"/>
<text text-anchor="start" x="38" y="-86.5" font-family="Helvetica,sans-Serif" font-size="10.00">P4Tools::P4Testgen</text>
<text text-anchor="middle" x="81.88" y="-74.5" font-family="Helvetica,sans-Serif" font-size="10.00">::Bmv2::IndexMap</text>
</a>
</g>
</g>
<!-- Node2&#45;&gt;Node1 -->
<g id="edge1_Node000001_Node000002" class="edge">
<title>Node2&#45;&gt;Node1</title>
<g id="a_edge1_Node000001_Node000002"><a xlink:title=" ">
<path fill="none" stroke="#63b8ff" d="M81.88,-56.31C81.88,-48.12 81.88,-39.38 81.88,-32.22"/>
<polygon fill="#63b8ff" stroke="#63b8ff" points="78.38,-56.18 81.88,-66.18 85.38,-56.18 78.38,-56.18"/>
</a>
</g>
</g>
<!-- Node3 -->
<g id="Node000003" class="node">
<title>Node3</title>
<g id="a_Node000003"><a xlink:href="class_p4_tools_1_1_p4_testgen_1_1_test_object.html" target="_top" xlink:title=" ">
<polygon fill="white" stroke="#bfbfbf" points="133.75,-168 30,-168 30,-136 133.75,-136 133.75,-168"/>
<text text-anchor="start" x="38" y="-154.5" font-family="Helvetica,sans-Serif" font-size="10.00">P4Tools::P4Testgen</text>
<text text-anchor="middle" x="81.88" y="-142.5" font-family="Helvetica,sans-Serif" font-size="10.00">::TestObject</text>
</a>
</g>
</g>
<!-- Node3&#45;&gt;Node2 -->
<g id="edge2_Node000002_Node000003" class="edge">
<title>Node3&#45;&gt;Node2</title>
<g id="a_edge2_Node000002_Node000003"><a xlink:title=" ">
<path fill="none" stroke="#63b8ff" d="M81.88,-124.31C81.88,-116.12 81.88,-107.38 81.88,-100.22"/>
<polygon fill="#63b8ff" stroke="#63b8ff" points="78.38,-124.18 81.88,-134.18 85.38,-124.18 78.38,-124.18"/>
</a>
</g>
</g>
<!-- Node4 -->
<g id="Node000004" class="node">
<title>Node4</title>
<g id="a_Node000004"><a xlink:href="class_i_castable.html" target="_top" xlink:title=" ">
<polygon fill="white" stroke="#666666" points="110.12,-224 53.62,-224 53.62,-204 110.12,-204 110.12,-224"/>
<text text-anchor="middle" x="81.88" y="-210.5" font-family="Helvetica,sans-Serif" font-size="10.00">ICastable</text>
</a>
</g>
</g>
<!-- Node4&#45;&gt;Node3 -->
<g id="edge3_Node000003_Node000004" class="edge">
<title>Node4&#45;&gt;Node3</title>
<g id="a_edge3_Node000003_Node000004"><a xlink:title=" ">
<path fill="none" stroke="#63b8ff" d="M81.88,-192.31C81.88,-184.37 81.88,-175.46 81.88,-168.14"/>
<polygon fill="#63b8ff" stroke="#63b8ff" points="78.38,-192.11 81.88,-202.11 85.38,-192.11 78.38,-192.11"/>
</a>
</g>
</g>
<!-- Node5 -->
<g id="Node000005" class="node">
<title>Node5</title>
<g id="a_Node000005"><a xlink:href="struct_r_t_t_i_1_1_base.html" target="_top" xlink:title=" ">
<polygon fill="white" stroke="#bfbfbf" points="113.88,-280 49.88,-280 49.88,-260 113.88,-260 113.88,-280"/>
<text text-anchor="middle" x="81.88" y="-266.5" font-family="Helvetica,sans-Serif" font-size="10.00">RTTI::Base</text>
</a>
</g>
</g>
<!-- Node5&#45;&gt;Node4 -->
<g id="edge4_Node000004_Node000005" class="edge">
<title>Node5&#45;&gt;Node4</title>
<g id="a_edge4_Node000004_Node000005"><a xlink:title=" ">
<path fill="none" stroke="#63b8ff" d="M81.88,-248.13C81.88,-239.9 81.88,-230.85 81.88,-224.3"/>
<polygon fill="#63b8ff" stroke="#63b8ff" points="78.38,-248.08 81.88,-258.08 85.38,-248.08 78.38,-248.08"/>
</a>
</g>
</g>
</g>
</svg>
