<?xml version="1.0" encoding="UTF-8" standalone="no"?>
<!DOCTYPE svg PUBLIC "-//W3C//DTD SVG 1.1//EN"
 "http://www.w3.org/Graphics/SVG/1.1/DTD/svg11.dtd">
<!-- Generated by graphviz version 10.0.1 (20240210.2158)
 -->
<!-- Title: IR::INode Pages: 1 -->
<svg width="981pt" height="1006pt"
 viewBox="0.00 0.00 981.00 1006.00" xmlns="http://www.w3.org/2000/svg" xmlns:xlink="http://www.w3.org/1999/xlink">
<g id="graph0" class="graph" transform="scale(1 1) rotate(0) translate(4 1002)">
<title>IR::INode</title>
<!-- Node1 -->
<g id="Node000001" class="node">
<title>Node1</title>
<g id="a_Node000001"><a xlink:title=" ">
<polygon fill="#999999" stroke="#666666" points="293.25,-719 237.5,-719 237.5,-699 293.25,-699 293.25,-719"/>
<text text-anchor="middle" x="265.38" y="-705.5" font-family="Helvetica,sans-Serif" font-size="10.00">IR::INode</text>
</a>
</g>
</g>
<!-- Node6 -->
<g id="Node000006" class="node">
<title>Node6</title>
<g id="a_Node000006"><a xlink:href="class_i_r_1_1_i_declaration.html" target="_top" xlink:title="The Declaration interface, representing objects with names.">
<polygon fill="white" stroke="#666666" points="411.25,-738 329.25,-738 329.25,-718 411.25,-718 411.25,-738"/>
<text text-anchor="middle" x="370.25" y="-724.5" font-family="Helvetica,sans-Serif" font-size="10.00">IR::IDeclaration</text>
</a>
</g>
</g>
<!-- Node1&#45;&gt;Node6 -->
<g id="edge5_Node000001_Node000006" class="edge">
<title>Node1&#45;&gt;Node6</title>
<g id="a_edge5_Node000001_Node000006"><a xlink:title=" ">
<path fill="none" stroke="#63b8ff" d="M304.84,-716.1C312.74,-717.56 321.08,-719.1 329.03,-720.57"/>
<polygon fill="#63b8ff" stroke="#63b8ff" points="305.63,-712.69 295.16,-714.32 304.36,-719.57 305.63,-712.69"/>
</a>
</g>
</g>
<!-- Node7 -->
<g id="Node000007" class="node">
<title>Node7</title>
<g id="a_Node000007"><a xlink:href="class_i_r_1_1_node.html" target="_top" xlink:title=" ">
<polygon fill="white" stroke="#bfbfbf" points="397,-700 343.5,-700 343.5,-680 397,-680 397,-700"/>
<text text-anchor="middle" x="370.25" y="-686.5" font-family="Helvetica,sans-Serif" font-size="10.00">IR::Node</text>
</a>
</g>
</g>
<!-- Node1&#45;&gt;Node7 -->
<g id="edge6_Node000001_Node000007" class="edge">
<title>Node1&#45;&gt;Node7</title>
<g id="a_edge6_Node000001_Node000007"><a xlink:title=" ">
<path fill="none" stroke="#63b8ff" d="M304.99,-701.87C317.75,-699.51 331.65,-696.94 343.24,-694.8"/>
<polygon fill="#63b8ff" stroke="#63b8ff" points="304.36,-698.43 295.16,-703.68 305.63,-705.31 304.36,-698.43"/>
</a>
</g>
</g>
<!-- Node2 -->
<g id="Node000002" class="node">
<title>Node2</title>
<g id="a_Node000002"><a xlink:href="class_util_1_1_i_has_source_info.html" target="_top" xlink:title=" ">
<polygon fill="white" stroke="#bfbfbf" points="201.5,-757 100,-757 100,-737 201.5,-737 201.5,-757"/>
<text text-anchor="middle" x="150.75" y="-743.5" font-family="Helvetica,sans-Serif" font-size="10.00">Util::IHasSourceInfo</text>
</a>
</g>
</g>
<!-- Node2&#45;&gt;Node1 -->
<g id="edge1_Node000001_Node000002" class="edge">
<title>Node2&#45;&gt;Node1</title>
<g id="a_edge1_Node000001_Node000002"><a xlink:title=" ">
<path fill="none" stroke="#63b8ff" d="M193.63,-732.87C208.21,-727.95 224.17,-722.57 237.23,-718.16"/>
<polygon fill="#63b8ff" stroke="#63b8ff" points="192.61,-729.52 184.26,-736.03 194.85,-736.15 192.61,-729.52"/>
</a>
</g>
</g>
<!-- Node3 -->
<g id="Node000003" class="node">
<title>Node3</title>
<g id="a_Node000003"><a xlink:href="class_i_has_db_print.html" target="_top" xlink:title=" ">
<polygon fill="white" stroke="#bfbfbf" points="184.62,-719 116.88,-719 116.88,-699 184.62,-699 184.62,-719"/>
<text text-anchor="middle" x="150.75" y="-705.5" font-family="Helvetica,sans-Serif" font-size="10.00">IHasDbPrint</text>
</a>
</g>
</g>
<!-- Node3&#45;&gt;Node1 -->
<g id="edge2_Node000001_Node000003" class="edge">
<title>Node3&#45;&gt;Node1</title>
<g id="a_edge2_Node000001_Node000003"><a xlink:title=" ">
<path fill="none" stroke="#63b8ff" d="M196.22,-709C210.03,-709 224.84,-709 237.11,-709"/>
<polygon fill="#63b8ff" stroke="#63b8ff" points="196.45,-705.5 186.45,-709 196.45,-712.5 196.45,-705.5"/>
</a>
</g>
</g>
<!-- Node4 -->
<g id="Node000004" class="node">
<title>Node4</title>
<g id="a_Node000004"><a xlink:href="class_i_castable.html" target="_top" xlink:title=" ">
<polygon fill="white" stroke="#666666" points="179,-681 122.5,-681 122.5,-661 179,-661 179,-681"/>
<text text-anchor="middle" x="150.75" y="-667.5" font-family="Helvetica,sans-Serif" font-size="10.00">ICastable</text>
</a>
</g>
</g>
<!-- Node4&#45;&gt;Node1 -->
<g id="edge3_Node000001_Node000004" class="edge">
<title>Node4&#45;&gt;Node1</title>
<g id="a_edge3_Node000001_Node000004"><a xlink:title=" ">
<path fill="none" stroke="#63b8ff" d="M190.11,-683.94C205.55,-689.15 223,-695.04 237.11,-699.8"/>
<polygon fill="#63b8ff" stroke="#63b8ff" points="191.33,-680.66 180.74,-680.78 189.09,-687.29 191.33,-680.66"/>
</a>
</g>
</g>
<!-- Node5 -->
<g id="Node000005" class="node">
<title>Node5</title>
<g id="a_Node000005"><a xlink:href="struct_r_t_t_i_1_1_base.html" target="_top" xlink:title=" ">
<polygon fill="white" stroke="#bfbfbf" points="64,-681 0,-681 0,-661 64,-661 64,-681"/>
<text text-anchor="middle" x="32" y="-667.5" font-family="Helvetica,sans-Serif" font-size="10.00">RTTI::Base</text>
</a>
</g>
</g>
<!-- Node5&#45;&gt;Node4 -->
<g id="edge4_Node000004_Node000005" class="edge">
<title>Node5&#45;&gt;Node4</title>
<g id="a_edge4_Node000004_Node000005"><a xlink:title=" ">
<path fill="none" stroke="#63b8ff" d="M75.79,-671C91.34,-671 108.49,-671 122.35,-671"/>
<polygon fill="#63b8ff" stroke="#63b8ff" points="75.8,-667.5 65.8,-671 75.8,-674.5 75.8,-667.5"/>
</a>
</g>
</g>
<!-- Node8 -->
<g id="Node000008" class="node">
<title>Node8</title>
<g id="a_Node000008"><a xlink:href="class_i_r_1_1_name_map.html" target="_top" xlink:title=" ">
<polygon fill="white" stroke="#bfbfbf" points="578.75,-756 458.5,-756 458.5,-724 578.75,-724 578.75,-756"/>
<text text-anchor="start" x="466.5" y="-742.5" font-family="Helvetica,sans-Serif" font-size="10.00">IR::NameMap&lt; T, MAP,</text>
<text text-anchor="middle" x="518.62" y="-730.5" font-family="Helvetica,sans-Serif" font-size="10.00"> COMP, ALLOC &gt;</text>
</a>
</g>
</g>
<!-- Node7&#45;&gt;Node8 -->
<g id="edge7_Node000007_Node000008" class="edge">
<title>Node7&#45;&gt;Node8</title>
<g id="a_edge7_Node000007_Node000008"><a xlink:title=" ">
<path fill="none" stroke="#63b8ff" d="M408.12,-702.59C426.72,-708.95 449.52,-716.74 469.5,-723.56"/>
<polygon fill="#63b8ff" stroke="#63b8ff" points="409.45,-699.35 398.85,-699.43 407.18,-705.97 409.45,-699.35"/>
</a>
</g>
</g>
<!-- Node9 -->
<g id="Node000009" class="node">
<title>Node9</title>
<g id="a_Node000009"><a xlink:href="class_i_r_1_1_node_map.html" target="_top" xlink:title=" ">
<polygon fill="white" stroke="#bfbfbf" points="590,-706 447.25,-706 447.25,-674 590,-674 590,-706"/>
<text text-anchor="start" x="455.25" y="-692.5" font-family="Helvetica,sans-Serif" font-size="10.00">IR::NodeMap&lt; KEY, VALUE,</text>
<text text-anchor="middle" x="518.62" y="-680.5" font-family="Helvetica,sans-Serif" font-size="10.00"> MAP, COMP, ALLOC &gt;</text>
</a>
</g>
</g>
<!-- Node7&#45;&gt;Node9 -->
<g id="edge8_Node000007_Node000009" class="edge">
<title>Node7&#45;&gt;Node9</title>
<g id="a_edge8_Node000007_Node000009"><a xlink:title=" ">
<path fill="none" stroke="#63b8ff" d="M408.88,-690C420.49,-690 433.68,-690 446.77,-690"/>
<polygon fill="#63b8ff" stroke="#63b8ff" points="408.93,-686.5 398.93,-690 408.93,-693.5 408.93,-686.5"/>
</a>
</g>
</g>
<!-- Node10 -->
<g id="Node000010" class="node">
<title>Node10</title>
<g id="a_Node000010"><a xlink:href="class_i_r_1_1_vector_base.html" target="_top" xlink:title=" ">
<polygon fill="white" stroke="#bfbfbf" points="559.62,-656 477.62,-656 477.62,-636 559.62,-636 559.62,-656"/>
<text text-anchor="middle" x="518.62" y="-642.5" font-family="Helvetica,sans-Serif" font-size="10.00">IR::VectorBase</text>
</a>
</g>
</g>
<!-- Node7&#45;&gt;Node10 -->
<g id="edge9_Node000007_Node000010" class="edge">
<title>Node7&#45;&gt;Node10</title>
<g id="a_edge9_Node000007_Node000010"><a xlink:title=" ">
<path fill="none" stroke="#63b8ff" d="M408.05,-677.45C420.46,-673.34 434.41,-668.84 447.25,-665 456.95,-662.1 467.46,-659.15 477.33,-656.48"/>
<polygon fill="#63b8ff" stroke="#63b8ff" points="406.98,-674.12 398.6,-680.61 409.2,-680.76 406.98,-674.12"/>
</a>
</g>
</g>
<!-- Node11 -->
<g id="Node000011" class="node">
<title>Node11</title>
<g id="a_Node000011"><a xlink:href="class_i_r_1_1_vector.html" target="_top" xlink:title=" ">
<polygon fill="white" stroke="#bfbfbf" points="806.25,-998 626,-998 626,-978 806.25,-978 806.25,-998"/>
<text text-anchor="middle" x="716.12" y="-984.5" font-family="Helvetica,sans-Serif" font-size="10.00">IR::Vector&lt; IR::DpdkAsmStatement &gt;</text>
</a>
</g>
</g>
<!-- Node10&#45;&gt;Node11 -->
<g id="edge10_Node000010_Node000011" class="edge">
<title>Node10&#45;&gt;Node11</title>
<g id="a_edge10_Node000010_Node000011"><a xlink:title=" ">
<path fill="none" stroke="#63b8ff" d="M570.85,-651.99C578.14,-654.91 584.89,-659.08 590,-665 678.94,-767.96 534.33,-868.46 626,-969 629.09,-972.39 632.63,-975.26 636.46,-977.67"/>
<polygon fill="#63b8ff" stroke="#63b8ff" points="571.93,-648.67 561.34,-649.01 569.83,-655.34 571.93,-648.67"/>
</a>
</g>
</g>
<!-- Node12 -->
<g id="Node000012" class="node">
<title>Node12</title>
<g id="a_Node000012"><a xlink:href="class_i_r_1_1_vector.html" target="_top" xlink:title=" ">
<polygon fill="white" stroke="#bfbfbf" points="773.62,-960 658.62,-960 658.62,-940 773.62,-940 773.62,-960"/>
<text text-anchor="middle" x="716.12" y="-946.5" font-family="Helvetica,sans-Serif" font-size="10.00">IR::Vector&lt; IR::Node &gt;</text>
</a>
</g>
</g>
<!-- Node10&#45;&gt;Node12 -->
<g id="edge11_Node000010_Node000012" class="edge">
<title>Node10&#45;&gt;Node12</title>
<g id="a_edge11_Node000010_Node000012"><a xlink:title=" ">
<path fill="none" stroke="#63b8ff" d="M570.76,-652.07C578.06,-654.98 584.84,-659.12 590,-665 668.74,-754.63 544.89,-843.52 626,-931 634.5,-940.17 646.24,-945.48 658.41,-948.46"/>
<polygon fill="#63b8ff" stroke="#63b8ff" points="571.84,-648.74 561.25,-649.09 569.74,-655.42 571.84,-648.74"/>
</a>
</g>
</g>
<!-- Node13 -->
<g id="Node000013" class="node">
<title>Node13</title>
<g id="a_Node000013"><a xlink:href="class_i_r_1_1_vector.html" target="_top" xlink:title=" ">
<polygon fill="white" stroke="#bfbfbf" points="786.75,-922 645.5,-922 645.5,-902 786.75,-902 786.75,-922"/>
<text text-anchor="middle" x="716.12" y="-908.5" font-family="Helvetica,sans-Serif" font-size="10.00">IR::Vector&lt; IR::Declaration &gt;</text>
</a>
</g>
</g>
<!-- Node10&#45;&gt;Node13 -->
<g id="edge12_Node000010_Node000013" class="edge">
<title>Node10&#45;&gt;Node13</title>
<g id="a_edge12_Node000010_Node000013"><a xlink:title=" ">
<path fill="none" stroke="#63b8ff" d="M570.89,-652.26C578.11,-655.15 584.83,-659.24 590,-665 658.55,-741.32 555.42,-818.55 626,-893 631.33,-898.63 637.89,-902.79 645.01,-905.86"/>
<polygon fill="#63b8ff" stroke="#63b8ff" points="572.09,-648.97 561.5,-649.28 569.97,-655.64 572.09,-648.97"/>
</a>
</g>
</g>
<!-- Node14 -->
<g id="Node000014" class="node">
<title>Node14</title>
<g id="a_Node000014"><a xlink:href="class_i_r_1_1_vector.html" target="_top" xlink:title=" ">
<polygon fill="white" stroke="#bfbfbf" points="786.38,-884 645.88,-884 645.88,-864 786.38,-864 786.38,-884"/>
<text text-anchor="middle" x="716.12" y="-870.5" font-family="Helvetica,sans-Serif" font-size="10.00">IR::Vector&lt; IR::StatOrDecl &gt;</text>
</a>
</g>
</g>
<!-- Node10&#45;&gt;Node14 -->
<g id="edge13_Node000010_Node000014" class="edge">
<title>Node10&#45;&gt;Node14</title>
<g id="a_edge13_Node000010_Node000014"><a xlink:title=" ">
<path fill="none" stroke="#63b8ff" d="M570.74,-652.4C577.98,-655.27 584.74,-659.32 590,-665 648.41,-728.05 565.92,-793.54 626,-855 631.53,-860.66 638.3,-864.83 645.61,-867.88"/>
<polygon fill="#63b8ff" stroke="#63b8ff" points="571.92,-649.11 561.33,-649.43 569.82,-655.78 571.92,-649.11"/>
</a>
</g>
</g>
<!-- Node15 -->
<g id="Node000015" class="node">
<title>Node15</title>
<g id="a_Node000015"><a xlink:href="class_i_r_1_1_vector.html" target="_top" xlink:title=" ">
<polygon fill="white" stroke="#bfbfbf" points="785.25,-846 647,-846 647,-826 785.25,-826 785.25,-846"/>
<text text-anchor="middle" x="716.12" y="-832.5" font-family="Helvetica,sans-Serif" font-size="10.00">IR::Vector&lt; IR::DpdkTable &gt;</text>
</a>
</g>
</g>
<!-- Node10&#45;&gt;Node15 -->
<g id="edge14_Node000010_Node000015" class="edge">
<title>Node10&#45;&gt;Node15</title>
<g id="a_edge14_Node000010_Node000015"><a xlink:title=" ">
<path fill="none" stroke="#63b8ff" d="M570.75,-652.7C577.94,-655.55 584.67,-659.51 590,-665 638.32,-714.85 576.36,-768.47 626,-817 631.88,-822.75 639.05,-826.95 646.74,-829.99"/>
<polygon fill="#63b8ff" stroke="#63b8ff" points="572.05,-649.45 561.46,-649.75 569.93,-656.12 572.05,-649.45"/>
</a>
</g>
</g>
<!-- Node16 -->
<g id="Node000016" class="node">
<title>Node16</title>
<g id="a_Node000016"><a xlink:href="class_i_r_1_1_vector.html" target="_top" xlink:title=" ">
<polygon fill="white" stroke="#bfbfbf" points="791.62,-808 640.62,-808 640.62,-788 791.62,-788 791.62,-808"/>
<text text-anchor="middle" x="716.12" y="-794.5" font-family="Helvetica,sans-Serif" font-size="10.00">IR::Vector&lt; IR::DpdkSelector &gt;</text>
</a>
</g>
</g>
<!-- Node10&#45;&gt;Node16 -->
<g id="edge15_Node000010_Node000016" class="edge">
<title>Node10&#45;&gt;Node16</title>
<g id="a_edge15_Node000010_Node000016"><a xlink:title=" ">
<path fill="none" stroke="#63b8ff" d="M570.65,-653.15C577.79,-655.94 584.54,-659.76 590,-665 628.35,-701.77 586.67,-743.27 626,-779 630.22,-782.83 635.01,-785.96 640.13,-788.51"/>
<polygon fill="#63b8ff" stroke="#63b8ff" points="572.05,-649.92 561.46,-650.22 569.92,-656.59 572.05,-649.92"/>
</a>
</g>
</g>
<!-- Node17 -->
<g id="Node000017" class="node">
<title>Node17</title>
<g id="a_Node000017"><a xlink:href="class_i_r_1_1_vector.html" target="_top" xlink:title=" ">
<polygon fill="white" stroke="#bfbfbf" points="789.75,-770 642.5,-770 642.5,-750 789.75,-750 789.75,-770"/>
<text text-anchor="middle" x="716.12" y="-756.5" font-family="Helvetica,sans-Serif" font-size="10.00">IR::Vector&lt; IR::DpdkLearner &gt;</text>
</a>
</g>
</g>
<!-- Node10&#45;&gt;Node17 -->
<g id="edge16_Node000010_Node000017" class="edge">
<title>Node10&#45;&gt;Node17</title>
<g id="a_edge16_Node000010_Node000017"><a xlink:title=" ">
<path fill="none" stroke="#63b8ff" d="M571.02,-654.2C577.88,-656.86 584.46,-660.37 590,-665 618.68,-688.97 596.69,-717.81 626,-741 630.84,-744.83 636.27,-747.93 642.01,-750.44"/>
<polygon fill="#63b8ff" stroke="#63b8ff" points="572.13,-650.88 561.54,-651.14 569.98,-657.54 572.13,-650.88"/>
</a>
</g>
</g>
<!-- Node18 -->
<g id="Node000018" class="node">
<title>Node18</title>
<g id="a_Node000018"><a xlink:href="class_i_r_1_1_vector.html" target="_top" xlink:title=" ">
<polygon fill="white" stroke="#bfbfbf" points="787.5,-732 644.75,-732 644.75,-712 787.5,-712 787.5,-732"/>
<text text-anchor="middle" x="716.12" y="-718.5" font-family="Helvetica,sans-Serif" font-size="10.00">IR::Vector&lt; IR::DpdkAction &gt;</text>
</a>
</g>
</g>
<!-- Node10&#45;&gt;Node18 -->
<g id="edge17_Node000010_Node000018" class="edge">
<title>Node10&#45;&gt;Node18</title>
<g id="a_edge17_Node000010_Node000018"><a xlink:title=" ">
<path fill="none" stroke="#63b8ff" d="M570.55,-656.13C577.34,-658.51 584.01,-661.42 590,-665 609.98,-676.92 605.71,-691.62 626,-703 632.21,-706.48 638.99,-709.33 645.95,-711.65"/>
<polygon fill="#63b8ff" stroke="#63b8ff" points="571.91,-652.89 561.33,-653.28 569.84,-659.58 571.91,-652.89"/>
</a>
</g>
</g>
<!-- Node19 -->
<g id="Node000019" class="node">
<title>Node19</title>
<g id="a_Node000019"><a xlink:href="class_i_r_1_1_vector.html" target="_top" xlink:title=" ">
<polygon fill="white" stroke="#bfbfbf" points="784.88,-694 647.38,-694 647.38,-674 784.88,-674 784.88,-694"/>
<text text-anchor="middle" x="716.12" y="-680.5" font-family="Helvetica,sans-Serif" font-size="10.00">IR::Vector&lt; IR::Parameter &gt;</text>
</a>
</g>
</g>
<!-- Node10&#45;&gt;Node19 -->
<g id="edge18_Node000010_Node000019" class="edge">
<title>Node10&#45;&gt;Node19</title>
<g id="a_edge18_Node000010_Node000019"><a xlink:title=" ">
<path fill="none" stroke="#63b8ff" d="M570.78,-655.94C598.66,-661.36 633.15,-668.07 661.43,-673.56"/>
<polygon fill="#63b8ff" stroke="#63b8ff" points="571.63,-652.54 561.14,-654.07 570.29,-659.41 571.63,-652.54"/>
</a>
</g>
</g>
<!-- Node20 -->
<g id="Node000020" class="node">
<title>Node20</title>
<g id="a_Node000020"><a xlink:href="class_i_r_1_1_vector.html" target="_top" xlink:title=" ">
<polygon fill="white" stroke="#bfbfbf" points="798,-656 634.25,-656 634.25,-636 798,-636 798,-656"/>
<text text-anchor="middle" x="716.12" y="-642.5" font-family="Helvetica,sans-Serif" font-size="10.00">IR::Vector&lt; IR::DpdkDeclaration &gt;</text>
</a>
</g>
</g>
<!-- Node10&#45;&gt;Node20 -->
<g id="edge19_Node000010_Node000020" class="edge">
<title>Node10&#45;&gt;Node20</title>
<g id="a_edge19_Node000010_Node000020"><a xlink:title=" ">
<path fill="none" stroke="#63b8ff" d="M570.92,-646C590.21,-646 612.64,-646 633.98,-646"/>
<polygon fill="#63b8ff" stroke="#63b8ff" points="571.17,-642.5 561.17,-646 571.17,-649.5 571.17,-642.5"/>
</a>
</g>
</g>
<!-- Node21 -->
<g id="Node000021" class="node">
<title>Node21</title>
<g id="a_Node000021"><a xlink:href="class_i_r_1_1_vector.html" target="_top" xlink:title=" ">
<polygon fill="white" stroke="#bfbfbf" points="786,-618 646.25,-618 646.25,-598 786,-598 786,-618"/>
<text text-anchor="middle" x="716.12" y="-604.5" font-family="Helvetica,sans-Serif" font-size="10.00">IR::Vector&lt; IR::StructField &gt;</text>
</a>
</g>
</g>
<!-- Node10&#45;&gt;Node21 -->
<g id="edge20_Node000010_Node000021" class="edge">
<title>Node10&#45;&gt;Node21</title>
<g id="a_edge20_Node000010_Node000021"><a xlink:title=" ">
<path fill="none" stroke="#63b8ff" d="M570.78,-636.06C598.66,-630.64 633.15,-623.93 661.43,-618.44"/>
<polygon fill="#63b8ff" stroke="#63b8ff" points="570.29,-632.59 561.14,-637.93 571.63,-639.46 570.29,-632.59"/>
</a>
</g>
</g>
<!-- Node22 -->
<g id="Node000022" class="node">
<title>Node22</title>
<g id="a_Node000022"><a xlink:href="class_i_r_1_1_vector.html" target="_top" xlink:title=" ">
<polygon fill="white" stroke="#bfbfbf" points="772.88,-580 659.38,-580 659.38,-560 772.88,-560 772.88,-580"/>
<text text-anchor="middle" x="716.12" y="-566.5" font-family="Helvetica,sans-Serif" font-size="10.00">IR::Vector&lt; IR::Type &gt;</text>
</a>
</g>
</g>
<!-- Node10&#45;&gt;Node22 -->
<g id="edge21_Node000010_Node000022" class="edge">
<title>Node10&#45;&gt;Node22</title>
<g id="a_edge21_Node000010_Node000022"><a xlink:title=" ">
<path fill="none" stroke="#63b8ff" d="M545.27,-629.59C566.24,-616.84 597.05,-599.6 626,-589 636.55,-585.14 648.1,-581.96 659.29,-579.38"/>
<polygon fill="#63b8ff" stroke="#63b8ff" points="543.48,-626.58 536.82,-634.82 547.17,-632.53 543.48,-626.58"/>
</a>
</g>
</g>
<!-- Node23 -->
<g id="Node000023" class="node">
<title>Node23</title>
<g id="a_Node000023"><a xlink:href="class_i_r_1_1_vector.html" target="_top" xlink:title=" ">
<polygon fill="white" stroke="#bfbfbf" points="783.38,-542 648.88,-542 648.88,-522 783.38,-522 783.38,-542"/>
<text text-anchor="middle" x="716.12" y="-528.5" font-family="Helvetica,sans-Serif" font-size="10.00">IR::Vector&lt; IR::Argument &gt;</text>
</a>
</g>
</g>
<!-- Node10&#45;&gt;Node23 -->
<g id="edge22_Node000010_Node000023" class="edge">
<title>Node10&#45;&gt;Node23</title>
<g id="a_edge22_Node000010_Node000023"><a xlink:title=" ">
<path fill="none" stroke="#63b8ff" d="M535.2,-627.1C554.28,-605.27 588.68,-569.93 626,-551 633.05,-547.42 640.75,-544.52 648.58,-542.16"/>
<polygon fill="#63b8ff" stroke="#63b8ff" points="532.59,-624.77 528.76,-634.65 537.92,-629.31 532.59,-624.77"/>
</a>
</g>
</g>
<!-- Node24 -->
<g id="Node000024" class="node">
<title>Node24</title>
<g id="a_Node000024"><a xlink:href="class_i_r_1_1_vector.html" target="_top" xlink:title=" ">
<polygon fill="white" stroke="#bfbfbf" points="788.25,-504 644,-504 644,-484 788.25,-484 788.25,-504"/>
<text text-anchor="middle" x="716.12" y="-490.5" font-family="Helvetica,sans-Serif" font-size="10.00">IR::Vector&lt; IR::ParserState &gt;</text>
</a>
</g>
</g>
<!-- Node10&#45;&gt;Node24 -->
<g id="edge23_Node000010_Node000024" class="edge">
<title>Node10&#45;&gt;Node24</title>
<g id="a_edge23_Node000010_Node000024"><a xlink:title=" ">
<path fill="none" stroke="#63b8ff" d="M529.97,-625.63C546.18,-595.89 580.49,-541.1 626,-513 631.52,-509.59 637.56,-506.79 643.8,-504.48"/>
<polygon fill="#63b8ff" stroke="#63b8ff" points="526.94,-623.87 525.36,-634.35 533.13,-627.14 526.94,-623.87"/>
</a>
</g>
</g>
<!-- Node25 -->
<g id="Node000025" class="node">
<title>Node25</title>
<g id="a_Node000025"><a xlink:href="class_i_r_1_1_vector.html" target="_top" xlink:title=" ">
<polygon fill="white" stroke="#bfbfbf" points="787.5,-466 644.75,-466 644.75,-446 787.5,-446 787.5,-466"/>
<text text-anchor="middle" x="716.12" y="-452.5" font-family="Helvetica,sans-Serif" font-size="10.00">IR::Vector&lt; IR::SelectCase &gt;</text>
</a>
</g>
</g>
<!-- Node10&#45;&gt;Node25 -->
<g id="edge24_Node000010_Node000025" class="edge">
<title>Node10&#45;&gt;Node25</title>
<g id="a_edge24_Node000010_Node000025"><a xlink:title=" ">
<path fill="none" stroke="#63b8ff" d="M526.45,-625.08C539.54,-588.47 571.78,-513.07 626,-475 631.57,-471.09 637.78,-467.96 644.26,-465.45"/>
<polygon fill="#63b8ff" stroke="#63b8ff" points="523.3,-623.48 523.37,-634.08 529.92,-625.76 523.3,-623.48"/>
</a>
</g>
</g>
<!-- Node26 -->
<g id="Node000026" class="node">
<title>Node26</title>
<g id="a_Node000026"><a xlink:href="class_i_r_1_1_vector.html" target="_top" xlink:title=" ">
<polygon fill="white" stroke="#bfbfbf" points="786.75,-428 645.5,-428 645.5,-408 786.75,-408 786.75,-428"/>
<text text-anchor="middle" x="716.12" y="-414.5" font-family="Helvetica,sans-Serif" font-size="10.00">IR::Vector&lt; IR::Expression &gt;</text>
</a>
</g>
</g>
<!-- Node10&#45;&gt;Node26 -->
<g id="edge25_Node000010_Node000026" class="edge">
<title>Node10&#45;&gt;Node26</title>
<g id="a_edge25_Node000010_Node000026"><a xlink:title=" ">
<path fill="none" stroke="#63b8ff" d="M524.04,-624.74C534.07,-581.99 562.82,-485.53 626,-437 631.77,-432.57 638.35,-429.11 645.25,-426.43"/>
<polygon fill="#63b8ff" stroke="#63b8ff" points="520.67,-623.74 521.92,-634.26 527.51,-625.26 520.67,-623.74"/>
</a>
</g>
</g>
<!-- Node27 -->
<g id="Node000027" class="node">
<title>Node27</title>
<g id="a_Node000027"><a xlink:href="class_i_r_1_1_vector.html" target="_top" xlink:title=" ">
<polygon fill="white" stroke="#bfbfbf" points="758.25,-390 674,-390 674,-370 758.25,-370 758.25,-390"/>
<text text-anchor="middle" x="716.12" y="-376.5" font-family="Helvetica,sans-Serif" font-size="10.00">IR::Vector&lt; N &gt;</text>
</a>
</g>
</g>
<!-- Node10&#45;&gt;Node27 -->
<g id="edge26_Node000010_Node000027" class="edge">
<title>Node10&#45;&gt;Node27</title>
<g id="a_edge26_Node000010_Node000027"><a xlink:title=" ">
<path fill="none" stroke="#63b8ff" d="M522.29,-624.3C529.46,-575.81 553.77,-458.26 626,-399 639.33,-388.06 657.47,-382.99 673.9,-380.78"/>
<polygon fill="#63b8ff" stroke="#63b8ff" points="518.85,-623.68 520.96,-634.06 525.78,-624.62 518.85,-623.68"/>
</a>
</g>
</g>
<!-- Node28 -->
<g id="Node000028" class="node">
<title>Node28</title>
<g id="a_Node000028"><a xlink:href="class_i_r_1_1_vector.html" target="_top" xlink:title=" ">
<polygon fill="white" stroke="#bfbfbf" points="785.62,-352 646.62,-352 646.62,-332 785.62,-332 785.62,-352"/>
<text text-anchor="middle" x="716.12" y="-338.5" font-family="Helvetica,sans-Serif" font-size="10.00">IR::Vector&lt; IR::Annotation &gt;</text>
</a>
</g>
</g>
<!-- Node10&#45;&gt;Node28 -->
<g id="edge27_Node000010_Node000028" class="edge">
<title>Node10&#45;&gt;Node28</title>
<g id="a_edge27_Node000010_Node000028"><a xlink:title=" ">
<path fill="none" stroke="#63b8ff" d="M520.9,-624.34C525.28,-570.79 544.35,-431.43 626,-361 631.99,-355.83 639.04,-351.96 646.51,-349.07"/>
<polygon fill="#63b8ff" stroke="#63b8ff" points="517.41,-624.02 520.2,-634.24 524.4,-624.51 517.41,-624.02"/>
</a>
</g>
</g>
<!-- Node29 -->
<g id="Node000029" class="node">
<title>Node29</title>
<g id="a_Node000029"><a xlink:href="class_i_r_1_1_vector.html" target="_top" xlink:title=" ">
<polygon fill="white" stroke="#bfbfbf" points="757.5,-314 674.75,-314 674.75,-294 757.5,-294 757.5,-314"/>
<text text-anchor="middle" x="716.12" y="-300.5" font-family="Helvetica,sans-Serif" font-size="10.00">IR::Vector&lt; T &gt;</text>
</a>
</g>
</g>
<!-- Node10&#45;&gt;Node29 -->
<g id="edge28_Node000010_Node000029" class="edge">
<title>Node10&#45;&gt;Node29</title>
<g id="a_edge28_Node000010_Node000029"><a xlink:title=" ">
<path fill="none" stroke="#63b8ff" d="M519.82,-624.27C521.59,-565.93 534.9,-404.75 626,-323 639.07,-311.27 657.56,-306.14 674.32,-304.09"/>
<polygon fill="#63b8ff" stroke="#63b8ff" points="516.32,-624.08 519.62,-634.15 523.32,-624.23 516.32,-624.08"/>
</a>
</g>
</g>
<!-- Node30 -->
<g id="Node000030" class="node">
<title>Node30</title>
<g id="a_Node000030"><a xlink:href="class_i_r_1_1_indexed_vector.html" target="_top" xlink:title=" ">
<polygon fill="white" stroke="#666666" points="973,-620 842.25,-620 842.25,-588 973,-588 973,-620"/>
<text text-anchor="start" x="850.25" y="-606.5" font-family="Helvetica,sans-Serif" font-size="10.00">IR::IndexedVector&lt;</text>
<text text-anchor="middle" x="907.62" y="-594.5" font-family="Helvetica,sans-Serif" font-size="10.00"> IR::DpdkAsmStatement &gt;</text>
</a>
</g>
</g>
<!-- Node29&#45;&gt;Node30 -->
<g id="edge29_Node000029_Node000030" class="edge">
<title>Node29&#45;&gt;Node30</title>
<g id="a_edge29_Node000029_Node000030"><a xlink:title=" ">
<path fill="none" stroke="#63b8ff" d="M768.72,-304.47C782.66,-307.15 796.55,-312.59 806.25,-323 884.59,-407.05 770.9,-488.94 842.25,-579 844.86,-582.29 847.95,-585.15 851.36,-587.63"/>
<polygon fill="#63b8ff" stroke="#63b8ff" points="769.51,-301.05 759.12,-303.09 768.52,-307.98 769.51,-301.05"/>
</a>
</g>
</g>
<!-- Node31 -->
<g id="Node000031" class="node">
<title>Node31</title>
<g id="a_Node000031"><a xlink:href="class_i_r_1_1_indexed_vector.html" target="_top" xlink:title=" ">
<polygon fill="white" stroke="#666666" points="957.25,-570 858,-570 858,-538 957.25,-538 957.25,-570"/>
<text text-anchor="start" x="866" y="-556.5" font-family="Helvetica,sans-Serif" font-size="10.00">IR::IndexedVector&lt;</text>
<text text-anchor="middle" x="907.62" y="-544.5" font-family="Helvetica,sans-Serif" font-size="10.00"> IR::Node &gt;</text>
</a>
</g>
</g>
<!-- Node29&#45;&gt;Node31 -->
<g id="edge30_Node000029_Node000031" class="edge">
<title>Node29&#45;&gt;Node31</title>
<g id="a_edge30_Node000029_Node000031"><a xlink:title=" ">
<path fill="none" stroke="#63b8ff" d="M768.87,-304.75C782.68,-307.46 796.46,-312.84 806.25,-323 870.74,-389.93 783.33,-457.12 842.25,-529 846.43,-534.1 851.79,-538.16 857.62,-541.4"/>
<polygon fill="#63b8ff" stroke="#63b8ff" points="769.78,-301.34 759.37,-303.33 768.75,-308.27 769.78,-301.34"/>
</a>
</g>
</g>
<!-- Node32 -->
<g id="Node000032" class="node">
<title>Node32</title>
<g id="a_Node000032"><a xlink:href="class_i_r_1_1_indexed_vector.html" target="_top" xlink:title=" ">
<polygon fill="white" stroke="#666666" points="957.25,-520 858,-520 858,-488 957.25,-488 957.25,-520"/>
<text text-anchor="start" x="866" y="-506.5" font-family="Helvetica,sans-Serif" font-size="10.00">IR::IndexedVector&lt;</text>
<text text-anchor="middle" x="907.62" y="-494.5" font-family="Helvetica,sans-Serif" font-size="10.00"> IR::Declaration &gt;</text>
</a>
</g>
</g>
<!-- Node29&#45;&gt;Node32 -->
<g id="edge31_Node000029_Node000032" class="edge">
<title>Node29&#45;&gt;Node32</title>
<g id="a_edge31_Node000029_Node000032"><a xlink:title=" ">
<path fill="none" stroke="#63b8ff" d="M768.53,-305.09C782.33,-307.8 796.19,-313.11 806.25,-323 856.98,-372.89 795.68,-425.21 842.25,-479 846.49,-483.89 851.8,-487.84 857.55,-491.01"/>
<polygon fill="#63b8ff" stroke="#63b8ff" points="769.46,-301.69 759.05,-303.65 768.41,-308.61 769.46,-301.69"/>
</a>
</g>
</g>
<!-- Node33 -->
<g id="Node000033" class="node">
<title>Node33</title>
<g id="a_Node000033"><a xlink:href="class_i_r_1_1_indexed_vector.html" target="_top" xlink:title=" ">
<polygon fill="white" stroke="#666666" points="957.25,-470 858,-470 858,-438 957.25,-438 957.25,-470"/>
<text text-anchor="start" x="866" y="-456.5" font-family="Helvetica,sans-Serif" font-size="10.00">IR::IndexedVector&lt;</text>
<text text-anchor="middle" x="907.62" y="-444.5" font-family="Helvetica,sans-Serif" font-size="10.00"> IR::StatOrDecl &gt;</text>
</a>
</g>
</g>
<!-- Node29&#45;&gt;Node33 -->
<g id="edge32_Node000029_Node000033" class="edge">
<title>Node29&#45;&gt;Node33</title>
<g id="a_edge32_Node000029_Node000033"><a xlink:title=" ">
<path fill="none" stroke="#63b8ff" d="M769.05,-305.98C782.46,-308.76 796,-313.88 806.25,-323 843.43,-356.06 807.83,-393.07 842.25,-429 846.65,-433.59 851.98,-437.35 857.68,-440.43"/>
<polygon fill="#63b8ff" stroke="#63b8ff" points="769.81,-302.56 759.38,-304.4 768.68,-309.47 769.81,-302.56"/>
</a>
</g>
</g>
<!-- Node34 -->
<g id="Node000034" class="node">
<title>Node34</title>
<g id="a_Node000034"><a xlink:href="class_i_r_1_1_indexed_vector.html" target="_top" xlink:title=" ">
<polygon fill="white" stroke="#666666" points="957.25,-420 858,-420 858,-388 957.25,-388 957.25,-420"/>
<text text-anchor="start" x="866" y="-406.5" font-family="Helvetica,sans-Serif" font-size="10.00">IR::IndexedVector&lt;</text>
<text text-anchor="middle" x="907.62" y="-394.5" font-family="Helvetica,sans-Serif" font-size="10.00"> IR::DpdkTable &gt;</text>
</a>
</g>
</g>
<!-- Node29&#45;&gt;Node34 -->
<g id="edge33_Node000029_Node000034" class="edge">
<title>Node29&#45;&gt;Node34</title>
<g id="a_edge33_Node000029_Node000034"><a xlink:title=" ">
<path fill="none" stroke="#63b8ff" d="M769.17,-308.02C782.11,-310.85 795.38,-315.49 806.25,-323 830.59,-339.82 819.34,-360.28 842.25,-379 846.89,-382.79 852.18,-386.06 857.68,-388.86"/>
<polygon fill="#63b8ff" stroke="#63b8ff" points="769.91,-304.6 759.44,-306.24 768.65,-311.48 769.91,-304.6"/>
</a>
</g>
</g>
<!-- Node35 -->
<g id="Node000035" class="node">
<title>Node35</title>
<g id="a_Node000035"><a xlink:href="class_i_r_1_1_indexed_vector.html" target="_top" xlink:title=" ">
<polygon fill="white" stroke="#666666" points="958.38,-370 856.88,-370 856.88,-338 958.38,-338 958.38,-370"/>
<text text-anchor="start" x="864.88" y="-356.5" font-family="Helvetica,sans-Serif" font-size="10.00">IR::IndexedVector&lt;</text>
<text text-anchor="middle" x="907.62" y="-344.5" font-family="Helvetica,sans-Serif" font-size="10.00"> IR::DpdkSelector &gt;</text>
</a>
</g>
</g>
<!-- Node29&#45;&gt;Node35 -->
<g id="edge34_Node000029_Node000035" class="edge">
<title>Node29&#45;&gt;Node35</title>
<g id="a_edge34_Node000029_Node000035"><a xlink:title=" ">
<path fill="none" stroke="#63b8ff" d="M768.75,-314.19C781.08,-316.85 794.18,-319.86 806.25,-323 822.75,-327.3 840.59,-332.59 856.59,-337.58"/>
<polygon fill="#63b8ff" stroke="#63b8ff" points="769.67,-310.8 759.16,-312.16 768.22,-317.65 769.67,-310.8"/>
</a>
</g>
</g>
<!-- Node36 -->
<g id="Node000036" class="node">
<title>Node36</title>
<g id="a_Node000036"><a xlink:href="class_i_r_1_1_indexed_vector.html" target="_top" xlink:title=" ">
<polygon fill="white" stroke="#666666" points="957.25,-320 858,-320 858,-288 957.25,-288 957.25,-320"/>
<text text-anchor="start" x="866" y="-306.5" font-family="Helvetica,sans-Serif" font-size="10.00">IR::IndexedVector&lt;</text>
<text text-anchor="middle" x="907.62" y="-294.5" font-family="Helvetica,sans-Serif" font-size="10.00"> IR::DpdkLearner &gt;</text>
</a>
</g>
</g>
<!-- Node29&#45;&gt;Node36 -->
<g id="edge35_Node000029_Node000036" class="edge">
<title>Node29&#45;&gt;Node36</title>
<g id="a_edge35_Node000029_Node000036"><a xlink:title=" ">
<path fill="none" stroke="#63b8ff" d="M769.2,-304C796.8,-304 830.51,-304 857.63,-304"/>
<polygon fill="#63b8ff" stroke="#63b8ff" points="769.29,-300.5 759.29,-304 769.29,-307.5 769.29,-300.5"/>
</a>
</g>
</g>
<!-- Node37 -->
<g id="Node000037" class="node">
<title>Node37</title>
<g id="a_Node000037"><a xlink:href="class_i_r_1_1_indexed_vector.html" target="_top" xlink:title=" ">
<polygon fill="white" stroke="#666666" points="957.25,-270 858,-270 858,-238 957.25,-238 957.25,-270"/>
<text text-anchor="start" x="866" y="-256.5" font-family="Helvetica,sans-Serif" font-size="10.00">IR::IndexedVector&lt;</text>
<text text-anchor="middle" x="907.62" y="-244.5" font-family="Helvetica,sans-Serif" font-size="10.00"> IR::DpdkAction &gt;</text>
</a>
</g>
</g>
<!-- Node29&#45;&gt;Node37 -->
<g id="edge36_Node000029_Node000037" class="edge">
<title>Node29&#45;&gt;Node37</title>
<g id="a_edge36_Node000029_Node000037"><a xlink:title=" ">
<path fill="none" stroke="#63b8ff" d="M767.93,-290.59C795.72,-283.26 829.99,-274.22 857.51,-266.96"/>
<polygon fill="#63b8ff" stroke="#63b8ff" points="767.09,-287.2 758.31,-293.13 768.88,-293.97 767.09,-287.2"/>
</a>
</g>
</g>
<!-- Node38 -->
<g id="Node000038" class="node">
<title>Node38</title>
<g id="a_Node000038"><a xlink:href="class_i_r_1_1_indexed_vector.html" target="_top" xlink:title=" ">
<polygon fill="white" stroke="#666666" points="957.25,-220 858,-220 858,-188 957.25,-188 957.25,-220"/>
<text text-anchor="start" x="866" y="-206.5" font-family="Helvetica,sans-Serif" font-size="10.00">IR::IndexedVector&lt;</text>
<text text-anchor="middle" x="907.62" y="-194.5" font-family="Helvetica,sans-Serif" font-size="10.00"> IR::Parameter &gt;</text>
</a>
</g>
</g>
<!-- Node29&#45;&gt;Node38 -->
<g id="edge37_Node000029_Node000038" class="edge">
<title>Node29&#45;&gt;Node38</title>
<g id="a_edge37_Node000029_Node000038"><a xlink:title=" ">
<path fill="none" stroke="#63b8ff" d="M741.79,-287.51C766.53,-271.37 806.06,-246.71 842.25,-229 848.39,-226 854.98,-223.09 861.53,-220.39"/>
<polygon fill="#63b8ff" stroke="#63b8ff" points="740.15,-284.4 733.71,-292.82 743.99,-290.25 740.15,-284.4"/>
</a>
</g>
</g>
<!-- Node39 -->
<g id="Node000039" class="node">
<title>Node39</title>
<g id="a_Node000039"><a xlink:href="class_i_r_1_1_indexed_vector.html" target="_top" xlink:title=" ">
<polygon fill="white" stroke="#666666" points="964.75,-170 850.5,-170 850.5,-138 964.75,-138 964.75,-170"/>
<text text-anchor="start" x="858.5" y="-156.5" font-family="Helvetica,sans-Serif" font-size="10.00">IR::IndexedVector&lt;</text>
<text text-anchor="middle" x="907.62" y="-144.5" font-family="Helvetica,sans-Serif" font-size="10.00"> IR::DpdkDeclaration &gt;</text>
</a>
</g>
</g>
<!-- Node29&#45;&gt;Node39 -->
<g id="edge38_Node000029_Node000039" class="edge">
<title>Node29&#45;&gt;Node39</title>
<g id="a_edge38_Node000029_Node000039"><a xlink:title=" ">
<path fill="none" stroke="#63b8ff" d="M731.77,-285.03C753.37,-258.18 796.2,-209.02 842.25,-179 847.07,-175.86 852.35,-173.01 857.74,-170.47"/>
<polygon fill="#63b8ff" stroke="#63b8ff" points="729.2,-282.63 725.75,-292.65 734.7,-286.98 729.2,-282.63"/>
</a>
</g>
</g>
<!-- Node40 -->
<g id="Node000040" class="node">
<title>Node40</title>
<g id="a_Node000040"><a xlink:href="class_i_r_1_1_indexed_vector.html" target="_top" xlink:title=" ">
<polygon fill="white" stroke="#666666" points="957.25,-120 858,-120 858,-88 957.25,-88 957.25,-120"/>
<text text-anchor="start" x="866" y="-106.5" font-family="Helvetica,sans-Serif" font-size="10.00">IR::IndexedVector&lt;</text>
<text text-anchor="middle" x="907.62" y="-94.5" font-family="Helvetica,sans-Serif" font-size="10.00"> IR::StructField &gt;</text>
</a>
</g>
</g>
<!-- Node29&#45;&gt;Node40 -->
<g id="edge39_Node000029_Node000040" class="edge">
<title>Node29&#45;&gt;Node40</title>
<g id="a_edge39_Node000029_Node000040"><a xlink:title=" ">
<path fill="none" stroke="#63b8ff" d="M726.75,-283.49C744.65,-247.44 786.35,-172.41 842.25,-129 846.89,-125.4 852.11,-122.26 857.52,-119.54"/>
<polygon fill="#63b8ff" stroke="#63b8ff" points="723.66,-281.85 722.45,-292.38 729.96,-284.9 723.66,-281.85"/>
</a>
</g>
</g>
<!-- Node41 -->
<g id="Node000041" class="node">
<title>Node41</title>
<g id="a_Node000041"><a xlink:href="class_i_r_1_1_indexed_vector.html" target="_top" xlink:title=" ">
<polygon fill="white" stroke="#666666" points="957.25,-70 858,-70 858,-38 957.25,-38 957.25,-70"/>
<text text-anchor="start" x="866" y="-56.5" font-family="Helvetica,sans-Serif" font-size="10.00">IR::IndexedVector&lt;</text>
<text text-anchor="middle" x="907.62" y="-44.5" font-family="Helvetica,sans-Serif" font-size="10.00"> IR::ParserState &gt;</text>
</a>
</g>
</g>
<!-- Node29&#45;&gt;Node41 -->
<g id="edge40_Node000029_Node000041" class="edge">
<title>Node29&#45;&gt;Node41</title>
<g id="a_edge40_Node000029_Node000041"><a xlink:title=" ">
<path fill="none" stroke="#63b8ff" d="M723.43,-282.86C737.56,-238.89 775.88,-136.85 842.25,-79 846.86,-74.98 852.19,-71.57 857.76,-68.69"/>
<polygon fill="#63b8ff" stroke="#63b8ff" points="720.15,-281.61 720.53,-292.19 726.84,-283.68 720.15,-281.61"/>
</a>
</g>
</g>
<!-- Node42 -->
<g id="Node000042" class="node">
<title>Node42</title>
<g id="a_Node000042"><a xlink:href="class_i_r_1_1_indexed_vector.html" target="_top" xlink:title=" ">
<polygon fill="white" stroke="#666666" points="965.88,-20 849.38,-20 849.38,0 965.88,0 965.88,-20"/>
<text text-anchor="middle" x="907.62" y="-6.5" font-family="Helvetica,sans-Serif" font-size="10.00">IR::IndexedVector&lt; T &gt;</text>
</a>
</g>
</g>
<!-- Node29&#45;&gt;Node42 -->
<g id="edge41_Node000029_Node000042" class="edge">
<title>Node29&#45;&gt;Node42</title>
<g id="a_edge41_Node000029_Node000042"><a xlink:title=" ">
<path fill="none" stroke="#63b8ff" d="M720.62,-282.68C730.22,-231.15 761.78,-98.92 842.25,-29 846.21,-25.56 850.76,-22.74 855.58,-20.44"/>
<polygon fill="#63b8ff" stroke="#63b8ff" points="717.23,-281.76 718.95,-292.21 724.13,-282.97 717.23,-281.76"/>
</a>
</g>
</g>
</g>
</svg>
