<?xml version="1.0" encoding="UTF-8" standalone="no"?>
<!DOCTYPE svg PUBLIC "-//W3C//DTD SVG 1.1//EN"
 "http://www.w3.org/Graphics/SVG/1.1/DTD/svg11.dtd">
<!-- Generated by graphviz version 10.0.1 (20240210.2158)
 -->
<!-- Title: EBPF::PSAEbpfGenerator Pages: 1 -->
<svg width="234pt" height="140pt"
 viewBox="0.00 0.00 234.12 140.00" xmlns="http://www.w3.org/2000/svg" xmlns:xlink="http://www.w3.org/1999/xlink">

<svg id="main" version="1.1" xmlns="http://www.w3.org/2000/svg" xmlns:xlink="http://www.w3.org/1999/xlink" xml:space="preserve" onload="init(evt)">
<style type="text/css"><![CDATA[
.node, .edge {opacity: 0.7;}
.node.selected, .edge.selected {opacity: 1;}
.edge:hover path { stroke: red; }
.edge:hover polygon { stroke: red; fill: red; }
]]></style>
<script type="application/ecmascript" xlink:href="svg.min.js"/>
<svg id="graph" class="graph">
<g id="graph0" class="graph" transform="scale(1 1) rotate(0) translate(4 136)">
<title>EBPF::PSAEbpfGenerator</title>
<!-- Node1 -->
<g id="Node000001" class="node">
<title>Node1</title>
<g id="a_Node000001"><a xlink:title=" ">
<polygon fill="#999999" stroke="#666666" points="176.75,-76 46,-76 46,-56 176.75,-56 176.75,-76"/>
<text text-anchor="middle" x="111.38" y="-62.5" font-family="Helvetica,sans-Serif" font-size="10.00">EBPF::PSAEbpfGenerator</text>
</a>
</g>
</g>
<!-- Node3 -->
<g id="Node000003" class="node">
<title>Node3</title>
<g id="a_Node000003"><a xlink:href="class_e_b_p_f_1_1_p_s_a_arch_t_c.html" target="_top" xlink:title=" ">
<polygon fill="white" stroke="#bfbfbf" points="100.75,-20 0,-20 0,0 100.75,0 100.75,-20"/>
<text text-anchor="middle" x="50.38" y="-6.5" font-family="Helvetica,sans-Serif" font-size="10.00">EBPF::PSAArchTC</text>
</a>
</g>
</g>
<!-- Node1&#45;&gt;Node3 -->
<g id="edge2_Node000001_Node000003" class="edge">
<title>Node1&#45;&gt;Node3</title>
<g id="a_edge2_Node000001_Node000003"><a xlink:title=" ">
<path fill="none" stroke="#63b8ff" d="M92.31,-48.13C81.94,-38.94 69.5,-27.93 60.88,-20.3"/>
<polygon fill="#63b8ff" stroke="#63b8ff" points="89.81,-50.58 99.62,-54.59 94.45,-45.34 89.81,-50.58"/>
</a>
</g>
</g>
<!-- Node4 -->
<g id="Node000004" class="node">
<title>Node4</title>
<g id="a_Node000004"><a xlink:href="class_e_b_p_f_1_1_p_s_a_arch_x_d_p.html" target="_top" xlink:title=" ">
<polygon fill="white" stroke="#bfbfbf" points="226.12,-20 118.62,-20 118.62,0 226.12,0 226.12,-20"/>
<text text-anchor="middle" x="172.38" y="-6.5" font-family="Helvetica,sans-Serif" font-size="10.00">EBPF::PSAArchXDP</text>
</a>
</g>
</g>
<!-- Node1&#45;&gt;Node4 -->
<g id="edge3_Node000001_Node000004" class="edge">
<title>Node1&#45;&gt;Node4</title>
<g id="a_edge3_Node000001_Node000004"><a xlink:title=" ">
<path fill="none" stroke="#63b8ff" d="M130.44,-48.13C140.81,-38.94 153.25,-27.93 161.87,-20.3"/>
<polygon fill="#63b8ff" stroke="#63b8ff" points="128.3,-45.34 123.13,-54.59 132.94,-50.58 128.3,-45.34"/>
</a>
</g>
</g>
<!-- Node2 -->
<g id="Node000002" class="node">
<title>Node2</title>
<g id="a_Node000002"><a xlink:href="class_e_b_p_f_1_1_ebpf_code_generator.html" target="_top" xlink:title=" ">
<polygon fill="white" stroke="#bfbfbf" points="177.88,-132 44.88,-132 44.88,-112 177.88,-112 177.88,-132"/>
<text text-anchor="middle" x="111.38" y="-118.5" font-family="Helvetica,sans-Serif" font-size="10.00">EBPF::EbpfCodeGenerator</text>
</a>
</g>
</g>
<!-- Node2&#45;&gt;Node1 -->
<g id="edge1_Node000001_Node000002" class="edge">
<title>Node2&#45;&gt;Node1</title>
<g id="a_edge1_Node000001_Node000002"><a xlink:title=" ">
<path fill="none" stroke="#63b8ff" d="M111.38,-100.13C111.38,-91.9 111.38,-82.85 111.38,-76.3"/>
<polygon fill="#63b8ff" stroke="#63b8ff" points="107.88,-100.08 111.38,-110.08 114.88,-100.08 107.88,-100.08"/>
</a>
</g>
</g>
</g>
</svg>
</svg>

<style type='text/css'>
<![CDATA[
[data-mouse-over-selected='false'] { opacity: 0.7; }
[data-mouse-over-selected='true']  { opacity: 1.0; }
]]>
</style>
<script type="application/ecmascript"><![CDATA[
document.addEventListener('DOMContentLoaded', (event) => {
  highlightEdges();
  highlightAdjacentNodes();
});
]]></script>
</svg>
