<?xml version="1.0" encoding="UTF-8" standalone="no"?>
<!DOCTYPE svg PUBLIC "-//W3C//DTD SVG 1.1//EN"
 "http://www.w3.org/Graphics/SVG/1.1/DTD/svg11.dtd">
<!-- Generated by graphviz version 10.0.1 (20240210.2158)
 -->
<!-- Title: P4::ComputeDefUse::SetupJoinPoints Pages: 1 -->
<svg width="202pt" height="220pt"
 viewBox="0.00 0.00 201.50 220.00" xmlns="http://www.w3.org/2000/svg" xmlns:xlink="http://www.w3.org/1999/xlink">
<g id="graph0" class="graph" transform="scale(1 1) rotate(0) translate(4 216)">
<title>P4::ComputeDefUse::SetupJoinPoints</title>
<!-- Node1 -->
<g id="Node000001" class="node">
<title>Node1</title>
<g id="a_Node000001"><a xlink:title=" ">
<polygon fill="#999999" stroke="#666666" points="139.62,-32 29.12,-32 29.12,0 139.62,0 139.62,-32"/>
<text text-anchor="start" x="37.12" y="-18.5" font-family="Helvetica,sans-Serif" font-size="10.00">P4::ComputeDefUse::</text>
<text text-anchor="middle" x="84.38" y="-6.5" font-family="Helvetica,sans-Serif" font-size="10.00">SetupJoinPoints</text>
</a>
</g>
</g>
<!-- Node2 -->
<g id="Node000002" class="node">
<title>Node2</title>
<g id="a_Node000002"><a xlink:href="class_control_flow_visitor_1_1_setup_join_points.html" target="_top" xlink:title=" ">
<polygon fill="white" stroke="#bfbfbf" points="94.75,-100 0,-100 0,-68 94.75,-68 94.75,-100"/>
<text text-anchor="start" x="8" y="-86.5" font-family="Helvetica,sans-Serif" font-size="10.00">ControlFlowVisitor</text>
<text text-anchor="middle" x="47.38" y="-74.5" font-family="Helvetica,sans-Serif" font-size="10.00">::SetupJoinPoints</text>
</a>
</g>
</g>
<!-- Node2&#45;&gt;Node1 -->
<g id="edge1_Node000001_Node000002" class="edge">
<title>Node2&#45;&gt;Node1</title>
<g id="a_edge1_Node000001_Node000002"><a xlink:title=" ">
<path fill="none" stroke="#63b8ff" d="M61.54,-57.74C66.36,-49.14 71.6,-39.79 75.84,-32.22"/>
<polygon fill="#63b8ff" stroke="#63b8ff" points="58.53,-55.94 56.7,-66.37 64.64,-59.36 58.53,-55.94"/>
</a>
</g>
</g>
<!-- Node3 -->
<g id="Node000003" class="node">
<title>Node3</title>
<g id="a_Node000003"><a xlink:href="class_inspector.html" target="_top" xlink:title=" ">
<polygon fill="white" stroke="#bfbfbf" points="61.25,-156 5.5,-156 5.5,-136 61.25,-136 61.25,-156"/>
<text text-anchor="middle" x="33.38" y="-142.5" font-family="Helvetica,sans-Serif" font-size="10.00">Inspector</text>
</a>
</g>
</g>
<!-- Node3&#45;&gt;Node2 -->
<g id="edge2_Node000002_Node000003" class="edge">
<title>Node3&#45;&gt;Node2</title>
<g id="a_edge2_Node000002_Node000003"><a xlink:title=" ">
<path fill="none" stroke="#63b8ff" d="M38.14,-124.59C40.01,-116.58 42.11,-107.55 43.84,-100.14"/>
<polygon fill="#63b8ff" stroke="#63b8ff" points="34.77,-123.62 35.91,-134.15 41.59,-125.21 34.77,-123.62"/>
</a>
</g>
</g>
<!-- Node4 -->
<g id="Node000004" class="node">
<title>Node4</title>
<g id="a_Node000004"><a xlink:href="class_visitor.html" target="_top" xlink:title=" ">
<polygon fill="white" stroke="#bfbfbf" points="58.25,-212 14.5,-212 14.5,-192 58.25,-192 58.25,-212"/>
<text text-anchor="middle" x="36.38" y="-198.5" font-family="Helvetica,sans-Serif" font-size="10.00">Visitor</text>
</a>
</g>
</g>
<!-- Node4&#45;&gt;Node3 -->
<g id="edge3_Node000003_Node000004" class="edge">
<title>Node4&#45;&gt;Node3</title>
<g id="a_edge3_Node000003_Node000004"><a xlink:title=" ">
<path fill="none" stroke="#63b8ff" d="M35.22,-180.13C34.76,-171.9 34.26,-162.85 33.89,-156.3"/>
<polygon fill="#63b8ff" stroke="#63b8ff" points="31.72,-180.29 35.77,-190.08 38.71,-179.9 31.72,-180.29"/>
</a>
</g>
</g>
<!-- Node5 -->
<g id="Node000005" class="node">
<title>Node5</title>
<g id="a_Node000005"><a xlink:href="class_p4_1_1_resolution_context.html" target="_top" xlink:title="Visitor mixin for looking up names in enclosing scopes from the Visitor::Context.">
<polygon fill="white" stroke="#666666" points="193.12,-156 79.62,-156 79.62,-136 193.12,-136 193.12,-156"/>
<text text-anchor="middle" x="136.38" y="-142.5" font-family="Helvetica,sans-Serif" font-size="10.00">P4::ResolutionContext</text>
</a>
</g>
</g>
<!-- Node4&#45;&gt;Node5 -->
<g id="edge5_Node000005_Node000004" class="edge">
<title>Node4&#45;&gt;Node5</title>
<g id="a_edge5_Node000005_Node000004"><a xlink:title=" ">
<path fill="none" stroke="#63b8ff" d="M63.51,-186.35C81.11,-176.84 103.53,-164.74 118.82,-156.48"/>
<polygon fill="#63b8ff" stroke="#63b8ff" points="62.26,-183.04 55.13,-190.87 65.59,-189.2 62.26,-183.04"/>
</a>
</g>
</g>
<!-- Node5&#45;&gt;Node1 -->
<g id="edge4_Node000001_Node000005" class="edge">
<title>Node5&#45;&gt;Node1</title>
<g id="a_edge4_Node000001_Node000005"><a xlink:title=" ">
<path fill="none" stroke="#63b8ff" d="M128.32,-125.16C117.9,-99.53 100,-55.45 90.58,-32.27"/>
<polygon fill="#63b8ff" stroke="#63b8ff" points="125.06,-126.44 132.07,-134.39 131.54,-123.81 125.06,-126.44"/>
</a>
</g>
</g>
<!-- Node6 -->
<g id="Node000006" class="node">
<title>Node6</title>
<g id="a_Node000006"><a xlink:href="class_p4_1_1_declaration_lookup.html" target="_top" xlink:title=" ">
<polygon fill="white" stroke="#bfbfbf" points="193.5,-212 79.25,-212 79.25,-192 193.5,-192 193.5,-212"/>
<text text-anchor="middle" x="136.38" y="-198.5" font-family="Helvetica,sans-Serif" font-size="10.00">P4::DeclarationLookup</text>
</a>
</g>
</g>
<!-- Node6&#45;&gt;Node5 -->
<g id="edge6_Node000005_Node000006" class="edge">
<title>Node6&#45;&gt;Node5</title>
<g id="a_edge6_Node000005_Node000006"><a xlink:title=" ">
<path fill="none" stroke="#63b8ff" d="M136.38,-180.13C136.38,-171.9 136.38,-162.85 136.38,-156.3"/>
<polygon fill="#63b8ff" stroke="#63b8ff" points="132.88,-180.08 136.38,-190.08 139.88,-180.08 132.88,-180.08"/>
</a>
</g>
</g>
</g>
</svg>
