<?xml version="1.0" encoding="UTF-8" standalone="no"?>
<!DOCTYPE svg PUBLIC "-//W3C//DTD SVG 1.1//EN"
 "http://www.w3.org/Graphics/SVG/1.1/DTD/svg11.dtd">
<!-- Generated by graphviz version 10.0.1 (20240210.2158)
 -->
<!-- Title: Util::NamedSymbol Pages: 1 -->
<svg width="289pt" height="252pt"
 viewBox="0.00 0.00 288.88 252.00" xmlns="http://www.w3.org/2000/svg" xmlns:xlink="http://www.w3.org/1999/xlink">
<g id="graph0" class="graph" transform="scale(1 1) rotate(0) translate(4 248)">
<title>Util::NamedSymbol</title>
<!-- Node1 -->
<g id="Node000001" class="node">
<title>Node1</title>
<g id="a_Node000001"><a xlink:title=" ">
<polygon fill="#999999" stroke="#666666" points="193.25,-132 93.25,-132 93.25,-112 193.25,-112 193.25,-132"/>
<text text-anchor="middle" x="143.25" y="-118.5" font-family="Helvetica,sans-Serif" font-size="10.00">Util::NamedSymbol</text>
</a>
</g>
</g>
<!-- Node4 -->
<g id="Node000004" class="node">
<title>Node4</title>
<g id="a_Node000004"><a xlink:href="class_util_1_1_namespace.html" target="_top" xlink:title=" ">
<polygon fill="white" stroke="#bfbfbf" points="93.25,-76 5.25,-76 5.25,-56 93.25,-56 93.25,-76"/>
<text text-anchor="middle" x="49.25" y="-62.5" font-family="Helvetica,sans-Serif" font-size="10.00">Util::Namespace</text>
</a>
</g>
</g>
<!-- Node1&#45;&gt;Node4 -->
<g id="edge3_Node000001_Node000004" class="edge">
<title>Node1&#45;&gt;Node4</title>
<g id="a_edge3_Node000001_Node000004"><a xlink:title=" ">
<path fill="none" stroke="#63b8ff" d="M117.28,-106.08C100.81,-96.62 79.99,-84.66 65.75,-76.48"/>
<polygon fill="#63b8ff" stroke="#63b8ff" points="115.15,-108.89 125.56,-110.84 118.64,-102.82 115.15,-108.89"/>
</a>
</g>
</g>
<!-- Node6 -->
<g id="Node000006" class="node">
<title>Node6</title>
<g id="a_Node000006"><a xlink:href="class_util_1_1_object.html" target="_top" xlink:title=" ">
<polygon fill="white" stroke="#bfbfbf" points="175.62,-76 110.88,-76 110.88,-56 175.62,-56 175.62,-76"/>
<text text-anchor="middle" x="143.25" y="-62.5" font-family="Helvetica,sans-Serif" font-size="10.00">Util::Object</text>
</a>
</g>
</g>
<!-- Node1&#45;&gt;Node6 -->
<g id="edge5_Node000001_Node000006" class="edge">
<title>Node1&#45;&gt;Node6</title>
<g id="a_edge5_Node000001_Node000006"><a xlink:title=" ">
<path fill="none" stroke="#63b8ff" d="M143.25,-100.13C143.25,-91.9 143.25,-82.85 143.25,-76.3"/>
<polygon fill="#63b8ff" stroke="#63b8ff" points="139.75,-100.08 143.25,-110.08 146.75,-100.08 139.75,-100.08"/>
</a>
</g>
</g>
<!-- Node7 -->
<g id="Node000007" class="node">
<title>Node7</title>
<g id="a_Node000007"><a xlink:href="class_util_1_1_simple_type.html" target="_top" xlink:title=" ">
<polygon fill="white" stroke="#bfbfbf" points="280.88,-76 193.62,-76 193.62,-56 280.88,-56 280.88,-76"/>
<text text-anchor="middle" x="237.25" y="-62.5" font-family="Helvetica,sans-Serif" font-size="10.00">Util::SimpleType</text>
</a>
</g>
</g>
<!-- Node1&#45;&gt;Node7 -->
<g id="edge6_Node000001_Node000007" class="edge">
<title>Node1&#45;&gt;Node7</title>
<g id="a_edge6_Node000001_Node000007"><a xlink:title=" ">
<path fill="none" stroke="#63b8ff" d="M169.22,-106.08C185.69,-96.62 206.51,-84.66 220.75,-76.48"/>
<polygon fill="#63b8ff" stroke="#63b8ff" points="167.86,-102.82 160.94,-110.84 171.35,-108.89 167.86,-102.82"/>
</a>
</g>
</g>
<!-- Node2 -->
<g id="Node000002" class="node">
<title>Node2</title>
<g id="a_Node000002"><a xlink:href="class_i_castable.html" target="_top" xlink:title=" ">
<polygon fill="white" stroke="#666666" points="171.5,-188 115,-188 115,-168 171.5,-168 171.5,-188"/>
<text text-anchor="middle" x="143.25" y="-174.5" font-family="Helvetica,sans-Serif" font-size="10.00">ICastable</text>
</a>
</g>
</g>
<!-- Node2&#45;&gt;Node1 -->
<g id="edge1_Node000001_Node000002" class="edge">
<title>Node2&#45;&gt;Node1</title>
<g id="a_edge1_Node000001_Node000002"><a xlink:title=" ">
<path fill="none" stroke="#63b8ff" d="M143.25,-156.13C143.25,-147.9 143.25,-138.85 143.25,-132.3"/>
<polygon fill="#63b8ff" stroke="#63b8ff" points="139.75,-156.08 143.25,-166.08 146.75,-156.08 139.75,-156.08"/>
</a>
</g>
</g>
<!-- Node3 -->
<g id="Node000003" class="node">
<title>Node3</title>
<g id="a_Node000003"><a xlink:href="struct_r_t_t_i_1_1_base.html" target="_top" xlink:title=" ">
<polygon fill="white" stroke="#bfbfbf" points="175.25,-244 111.25,-244 111.25,-224 175.25,-224 175.25,-244"/>
<text text-anchor="middle" x="143.25" y="-230.5" font-family="Helvetica,sans-Serif" font-size="10.00">RTTI::Base</text>
</a>
</g>
</g>
<!-- Node3&#45;&gt;Node2 -->
<g id="edge2_Node000002_Node000003" class="edge">
<title>Node3&#45;&gt;Node2</title>
<g id="a_edge2_Node000002_Node000003"><a xlink:title=" ">
<path fill="none" stroke="#63b8ff" d="M143.25,-212.13C143.25,-203.9 143.25,-194.85 143.25,-188.3"/>
<polygon fill="#63b8ff" stroke="#63b8ff" points="139.75,-212.08 143.25,-222.08 146.75,-212.08 139.75,-212.08"/>
</a>
</g>
</g>
<!-- Node5 -->
<g id="Node000005" class="node">
<title>Node5</title>
<g id="a_Node000005"><a xlink:href="class_util_1_1_container_type.html" target="_top" xlink:title=" ">
<polygon fill="white" stroke="#bfbfbf" points="98.5,-20 0,-20 0,0 98.5,0 98.5,-20"/>
<text text-anchor="middle" x="49.25" y="-6.5" font-family="Helvetica,sans-Serif" font-size="10.00">Util::ContainerType</text>
</a>
</g>
</g>
<!-- Node4&#45;&gt;Node5 -->
<g id="edge4_Node000004_Node000005" class="edge">
<title>Node4&#45;&gt;Node5</title>
<g id="a_edge4_Node000004_Node000005"><a xlink:title=" ">
<path fill="none" stroke="#63b8ff" d="M49.25,-44.13C49.25,-35.9 49.25,-26.85 49.25,-20.3"/>
<polygon fill="#63b8ff" stroke="#63b8ff" points="45.75,-44.08 49.25,-54.08 52.75,-44.08 45.75,-44.08"/>
</a>
</g>
</g>
</g>
</svg>
