<?xml version="1.0" encoding="UTF-8" standalone="no"?>
<!DOCTYPE svg PUBLIC "-//W3C//DTD SVG 1.1//EN"
 "http://www.w3.org/Graphics/SVG/1.1/DTD/svg11.dtd">
<!-- Generated by graphviz version 10.0.1 (20240210.2158)
 -->
<!-- Title: P4Tools::P4Testgen::Pna::PnaDpdkCmdStepper Pages: 1 -->
<svg width="155pt" height="356pt"
 viewBox="0.00 0.00 155.25 356.00" xmlns="http://www.w3.org/2000/svg" xmlns:xlink="http://www.w3.org/1999/xlink">
<g id="graph0" class="graph" transform="scale(1 1) rotate(0) translate(4 352)">
<title>P4Tools::P4Testgen::Pna::PnaDpdkCmdStepper</title>
<!-- Node1 -->
<g id="Node000001" class="node">
<title>Node1</title>
<g id="a_Node000001"><a xlink:title=" ">
<polygon fill="#999999" stroke="#666666" points="143.12,-32 4.12,-32 4.12,0 143.12,0 143.12,-32"/>
<text text-anchor="start" x="12.12" y="-18.5" font-family="Helvetica,sans-Serif" font-size="10.00">P4Tools::P4Testgen</text>
<text text-anchor="middle" x="73.62" y="-6.5" font-family="Helvetica,sans-Serif" font-size="10.00">::Pna::PnaDpdkCmdStepper</text>
</a>
</g>
</g>
<!-- Node2 -->
<g id="Node000002" class="node">
<title>Node2</title>
<g id="a_Node000002"><a xlink:href="class_p4_tools_1_1_p4_testgen_1_1_pna_1_1_shared_pna_cmd_stepper.html" target="_top" xlink:title=" ">
<polygon fill="white" stroke="#bfbfbf" points="147.25,-100 0,-100 0,-68 147.25,-68 147.25,-100"/>
<text text-anchor="start" x="8" y="-86.5" font-family="Helvetica,sans-Serif" font-size="10.00">P4Tools::P4Testgen</text>
<text text-anchor="middle" x="73.62" y="-74.5" font-family="Helvetica,sans-Serif" font-size="10.00">::Pna::SharedPnaCmdStepper</text>
</a>
</g>
</g>
<!-- Node2&#45;&gt;Node1 -->
<g id="edge1_Node000001_Node000002" class="edge">
<title>Node2&#45;&gt;Node1</title>
<g id="a_edge1_Node000001_Node000002"><a xlink:title=" ">
<path fill="none" stroke="#63b8ff" d="M73.62,-56.31C73.62,-48.12 73.62,-39.38 73.62,-32.22"/>
<polygon fill="#63b8ff" stroke="#63b8ff" points="70.13,-56.18 73.63,-66.18 77.13,-56.18 70.13,-56.18"/>
</a>
</g>
</g>
<!-- Node3 -->
<g id="Node000003" class="node">
<title>Node3</title>
<g id="a_Node000003"><a xlink:href="class_p4_tools_1_1_p4_testgen_1_1_cmd_stepper.html" target="_top" xlink:title="Implements small&#45;step operational semantics for commands.">
<polygon fill="white" stroke="#666666" points="125.5,-168 21.75,-168 21.75,-136 125.5,-136 125.5,-168"/>
<text text-anchor="start" x="29.75" y="-154.5" font-family="Helvetica,sans-Serif" font-size="10.00">P4Tools::P4Testgen</text>
<text text-anchor="middle" x="73.62" y="-142.5" font-family="Helvetica,sans-Serif" font-size="10.00">::CmdStepper</text>
</a>
</g>
</g>
<!-- Node3&#45;&gt;Node2 -->
<g id="edge2_Node000002_Node000003" class="edge">
<title>Node3&#45;&gt;Node2</title>
<g id="a_edge2_Node000002_Node000003"><a xlink:title=" ">
<path fill="none" stroke="#63b8ff" d="M73.62,-124.31C73.62,-116.12 73.62,-107.38 73.62,-100.22"/>
<polygon fill="#63b8ff" stroke="#63b8ff" points="70.13,-124.18 73.63,-134.18 77.13,-124.18 70.13,-124.18"/>
</a>
</g>
</g>
<!-- Node4 -->
<g id="Node000004" class="node">
<title>Node4</title>
<g id="a_Node000004"><a xlink:href="class_p4_tools_1_1_p4_testgen_1_1_abstract_stepper.html" target="_top" xlink:title=" ">
<polygon fill="white" stroke="#666666" points="125.5,-236 21.75,-236 21.75,-204 125.5,-204 125.5,-236"/>
<text text-anchor="start" x="29.75" y="-222.5" font-family="Helvetica,sans-Serif" font-size="10.00">P4Tools::P4Testgen</text>
<text text-anchor="middle" x="73.62" y="-210.5" font-family="Helvetica,sans-Serif" font-size="10.00">::AbstractStepper</text>
</a>
</g>
</g>
<!-- Node4&#45;&gt;Node3 -->
<g id="edge3_Node000003_Node000004" class="edge">
<title>Node4&#45;&gt;Node3</title>
<g id="a_edge3_Node000003_Node000004"><a xlink:title=" ">
<path fill="none" stroke="#63b8ff" d="M73.62,-192.31C73.62,-184.12 73.62,-175.38 73.62,-168.22"/>
<polygon fill="#63b8ff" stroke="#63b8ff" points="70.13,-192.18 73.63,-202.18 77.13,-192.18 70.13,-192.18"/>
</a>
</g>
</g>
<!-- Node5 -->
<g id="Node000005" class="node">
<title>Node5</title>
<g id="a_Node000005"><a xlink:href="class_inspector.html" target="_top" xlink:title=" ">
<polygon fill="white" stroke="#bfbfbf" points="101.5,-292 45.75,-292 45.75,-272 101.5,-272 101.5,-292"/>
<text text-anchor="middle" x="73.62" y="-278.5" font-family="Helvetica,sans-Serif" font-size="10.00">Inspector</text>
</a>
</g>
</g>
<!-- Node5&#45;&gt;Node4 -->
<g id="edge4_Node000004_Node000005" class="edge">
<title>Node5&#45;&gt;Node4</title>
<g id="a_edge4_Node000004_Node000005"><a xlink:title=" ">
<path fill="none" stroke="#63b8ff" d="M73.62,-260.31C73.62,-252.37 73.62,-243.46 73.62,-236.14"/>
<polygon fill="#63b8ff" stroke="#63b8ff" points="70.13,-260.11 73.63,-270.11 77.13,-260.11 70.13,-260.11"/>
</a>
</g>
</g>
<!-- Node6 -->
<g id="Node000006" class="node">
<title>Node6</title>
<g id="a_Node000006"><a xlink:href="class_visitor.html" target="_top" xlink:title=" ">
<polygon fill="white" stroke="#bfbfbf" points="95.5,-348 51.75,-348 51.75,-328 95.5,-328 95.5,-348"/>
<text text-anchor="middle" x="73.62" y="-334.5" font-family="Helvetica,sans-Serif" font-size="10.00">Visitor</text>
</a>
</g>
</g>
<!-- Node6&#45;&gt;Node5 -->
<g id="edge5_Node000005_Node000006" class="edge">
<title>Node6&#45;&gt;Node5</title>
<g id="a_edge5_Node000005_Node000006"><a xlink:title=" ">
<path fill="none" stroke="#63b8ff" d="M73.62,-316.13C73.62,-307.9 73.62,-298.85 73.62,-292.3"/>
<polygon fill="#63b8ff" stroke="#63b8ff" points="70.13,-316.08 73.63,-326.08 77.13,-316.08 70.13,-316.08"/>
</a>
</g>
</g>
</g>
</svg>
