<?xml version="1.0" encoding="UTF-8" standalone="no"?>
<!DOCTYPE svg PUBLIC "-//W3C//DTD SVG 1.1//EN"
 "http://www.w3.org/Graphics/SVG/1.1/DTD/svg11.dtd">
<!-- Generated by graphviz version 10.0.1 (20240210.2158)
 -->
<!-- Title: UBPF::UBPFControlBodyTranslator Pages: 1 -->
<svg width="179pt" height="252pt"
 viewBox="0.00 0.00 178.50 252.00" xmlns="http://www.w3.org/2000/svg" xmlns:xlink="http://www.w3.org/1999/xlink">
<g id="graph0" class="graph" transform="scale(1 1) rotate(0) translate(4 248)">
<title>UBPF::UBPFControlBodyTranslator</title>
<!-- Node1 -->
<g id="Node000001" class="node">
<title>Node1</title>
<g id="a_Node000001"><a xlink:title=" ">
<polygon fill="#999999" stroke="#666666" points="170.5,-20 0,-20 0,0 170.5,0 170.5,-20"/>
<text text-anchor="middle" x="85.25" y="-6.5" font-family="Helvetica,sans-Serif" font-size="10.00">UBPF::UBPFControlBodyTranslator</text>
</a>
</g>
</g>
<!-- Node2 -->
<g id="Node000002" class="node">
<title>Node2</title>
<g id="a_Node000002"><a xlink:href="class_e_b_p_f_1_1_control_body_translator.html" target="_top" xlink:title=" ">
<polygon fill="white" stroke="#bfbfbf" points="157.38,-76 13.12,-76 13.12,-56 157.38,-56 157.38,-76"/>
<text text-anchor="middle" x="85.25" y="-62.5" font-family="Helvetica,sans-Serif" font-size="10.00">EBPF::ControlBodyTranslator</text>
</a>
</g>
</g>
<!-- Node2&#45;&gt;Node1 -->
<g id="edge1_Node000001_Node000002" class="edge">
<title>Node2&#45;&gt;Node1</title>
<g id="a_edge1_Node000001_Node000002"><a xlink:title=" ">
<path fill="none" stroke="#63b8ff" d="M85.25,-44.13C85.25,-35.9 85.25,-26.85 85.25,-20.3"/>
<polygon fill="#63b8ff" stroke="#63b8ff" points="81.75,-44.08 85.25,-54.08 88.75,-44.08 81.75,-44.08"/>
</a>
</g>
</g>
<!-- Node3 -->
<g id="Node000003" class="node">
<title>Node3</title>
<g id="a_Node000003"><a xlink:href="class_e_b_p_f_1_1_code_gen_inspector.html" target="_top" xlink:title=" ">
<polygon fill="white" stroke="#bfbfbf" points="149.5,-132 21,-132 21,-112 149.5,-112 149.5,-132"/>
<text text-anchor="middle" x="85.25" y="-118.5" font-family="Helvetica,sans-Serif" font-size="10.00">EBPF::CodeGenInspector</text>
</a>
</g>
</g>
<!-- Node3&#45;&gt;Node2 -->
<g id="edge2_Node000002_Node000003" class="edge">
<title>Node3&#45;&gt;Node2</title>
<g id="a_edge2_Node000002_Node000003"><a xlink:title=" ">
<path fill="none" stroke="#63b8ff" d="M85.25,-100.13C85.25,-91.9 85.25,-82.85 85.25,-76.3"/>
<polygon fill="#63b8ff" stroke="#63b8ff" points="81.75,-100.08 85.25,-110.08 88.75,-100.08 81.75,-100.08"/>
</a>
</g>
</g>
<!-- Node4 -->
<g id="Node000004" class="node">
<title>Node4</title>
<g id="a_Node000004"><a xlink:href="class_inspector.html" target="_top" xlink:title=" ">
<polygon fill="white" stroke="#bfbfbf" points="113.12,-188 57.38,-188 57.38,-168 113.12,-168 113.12,-188"/>
<text text-anchor="middle" x="85.25" y="-174.5" font-family="Helvetica,sans-Serif" font-size="10.00">Inspector</text>
</a>
</g>
</g>
<!-- Node4&#45;&gt;Node3 -->
<g id="edge3_Node000003_Node000004" class="edge">
<title>Node4&#45;&gt;Node3</title>
<g id="a_edge3_Node000003_Node000004"><a xlink:title=" ">
<path fill="none" stroke="#63b8ff" d="M85.25,-156.13C85.25,-147.9 85.25,-138.85 85.25,-132.3"/>
<polygon fill="#63b8ff" stroke="#63b8ff" points="81.75,-156.08 85.25,-166.08 88.75,-156.08 81.75,-156.08"/>
</a>
</g>
</g>
<!-- Node5 -->
<g id="Node000005" class="node">
<title>Node5</title>
<g id="a_Node000005"><a xlink:href="class_visitor.html" target="_top" xlink:title=" ">
<polygon fill="white" stroke="#bfbfbf" points="107.12,-244 63.38,-244 63.38,-224 107.12,-224 107.12,-244"/>
<text text-anchor="middle" x="85.25" y="-230.5" font-family="Helvetica,sans-Serif" font-size="10.00">Visitor</text>
</a>
</g>
</g>
<!-- Node5&#45;&gt;Node4 -->
<g id="edge4_Node000004_Node000005" class="edge">
<title>Node5&#45;&gt;Node4</title>
<g id="a_edge4_Node000004_Node000005"><a xlink:title=" ">
<path fill="none" stroke="#63b8ff" d="M85.25,-212.13C85.25,-203.9 85.25,-194.85 85.25,-188.3"/>
<polygon fill="#63b8ff" stroke="#63b8ff" points="81.75,-212.08 85.25,-222.08 88.75,-212.08 81.75,-212.08"/>
</a>
</g>
</g>
</g>
</svg>
