<?xml version="1.0" encoding="UTF-8" standalone="no"?>
<!DOCTYPE svg PUBLIC "-//W3C//DTD SVG 1.1//EN"
 "http://www.w3.org/Graphics/SVG/1.1/DTD/svg11.dtd">
<!-- Generated by graphviz version 10.0.1 (20240210.2158)
 -->
<!-- Title: P4WriteContext Pages: 1 -->
<svg width="360pt" height="268pt"
 viewBox="0.00 0.00 359.75 268.00" xmlns="http://www.w3.org/2000/svg" xmlns:xlink="http://www.w3.org/1999/xlink">
<g id="graph0" class="graph" transform="scale(1 1) rotate(0) translate(4 264)">
<title>P4WriteContext</title>
<!-- Node1 -->
<g id="Node000001" class="node">
<title>Node1</title>
<g id="a_Node000001"><a xlink:title=" ">
<polygon fill="#999999" stroke="#666666" points="164.75,-146 79.75,-146 79.75,-126 164.75,-126 164.75,-146"/>
<text text-anchor="middle" x="122.25" y="-132.5" font-family="Helvetica,sans-Serif" font-size="10.00">P4WriteContext</text>
</a>
</g>
</g>
<!-- Node3 -->
<g id="Node000003" class="node">
<title>Node3</title>
<g id="a_Node000003"><a xlink:href="class_p4_1_1_compute_def_use.html" target="_top" xlink:title="Compute defuse info within P4Parser and P4Control blocks in the midend.">
<polygon fill="white" stroke="#666666" points="328.5,-260 224,-260 224,-240 328.5,-240 328.5,-260"/>
<text text-anchor="middle" x="276.25" y="-246.5" font-family="Helvetica,sans-Serif" font-size="10.00">P4::ComputeDefUse</text>
</a>
</g>
</g>
<!-- Node1&#45;&gt;Node3 -->
<g id="edge2_Node000001_Node000003" class="edge">
<title>Node1&#45;&gt;Node3</title>
<g id="a_edge2_Node000001_Node000003"><a xlink:title=" ">
<path fill="none" stroke="#63b8ff" d="M134.42,-156.27C147.48,-178.06 171.13,-212.09 200.75,-231 207.73,-235.45 215.69,-238.86 223.76,-241.47"/>
<polygon fill="#63b8ff" stroke="#63b8ff" points="137.52,-154.64 129.49,-147.72 131.45,-158.13 137.52,-154.64"/>
</a>
</g>
</g>
<!-- Node4 -->
<g id="Node000004" class="node">
<title>Node4</title>
<g id="a_Node000004"><a xlink:href="class_p4_1_1_do_local_copy_propagation.html" target="_top" xlink:title=" ">
<polygon fill="white" stroke="#666666" points="348,-222 204.5,-222 204.5,-202 348,-202 348,-222"/>
<text text-anchor="middle" x="276.25" y="-208.5" font-family="Helvetica,sans-Serif" font-size="10.00">P4::DoLocalCopyPropagation</text>
</a>
</g>
</g>
<!-- Node1&#45;&gt;Node4 -->
<g id="edge3_Node000001_Node000004" class="edge">
<title>Node1&#45;&gt;Node4</title>
<g id="a_edge3_Node000001_Node000004"><a xlink:title=" ">
<path fill="none" stroke="#8b1a1a" d="M142.78,-153.69C157.68,-166.33 179.25,-182.83 200.75,-193 207.87,-196.37 215.66,-199.19 223.44,-201.55"/>
<polygon fill="#8b1a1a" stroke="#8b1a1a" points="145.4,-151.34 135.56,-147.41 140.8,-156.62 145.4,-151.34"/>
</a>
</g>
</g>
<!-- Node5 -->
<g id="Node000005" class="node">
<title>Node5</title>
<g id="a_Node000005"><a xlink:href="class_p4_1_1_do_simplify_expressions.html" target="_top" xlink:title="Convert expressions so that each expression contains at most one side effect.">
<polygon fill="white" stroke="#666666" points="343.5,-184 209,-184 209,-164 343.5,-164 343.5,-184"/>
<text text-anchor="middle" x="276.25" y="-170.5" font-family="Helvetica,sans-Serif" font-size="10.00">P4::DoSimplifyExpressions</text>
</a>
</g>
</g>
<!-- Node1&#45;&gt;Node5 -->
<g id="edge4_Node000001_Node000005" class="edge">
<title>Node1&#45;&gt;Node5</title>
<g id="a_edge4_Node000001_Node000005"><a xlink:title=" ">
<path fill="none" stroke="#8b1a1a" d="M176.24,-149.25C194.98,-153.93 215.77,-159.13 233.45,-163.55"/>
<polygon fill="#8b1a1a" stroke="#8b1a1a" points="177.21,-145.88 166.66,-146.85 175.51,-152.67 177.21,-145.88"/>
</a>
</g>
</g>
<!-- Node6 -->
<g id="Node000006" class="node">
<title>Node6</title>
<g id="a_Node000006"><a xlink:href="class_p4_1_1_replace_headers.html" target="_top" xlink:title=" ">
<polygon fill="white" stroke="#666666" points="328.88,-146 223.62,-146 223.62,-126 328.88,-126 328.88,-146"/>
<text text-anchor="middle" x="276.25" y="-132.5" font-family="Helvetica,sans-Serif" font-size="10.00">P4::ReplaceHeaders</text>
</a>
</g>
</g>
<!-- Node1&#45;&gt;Node6 -->
<g id="edge5_Node000001_Node000006" class="edge">
<title>Node1&#45;&gt;Node6</title>
<g id="a_edge5_Node000001_Node000006"><a xlink:title=" ">
<path fill="none" stroke="#8b1a1a" d="M176.46,-136C191.6,-136 208.07,-136 223.14,-136"/>
<polygon fill="#8b1a1a" stroke="#8b1a1a" points="176.7,-132.5 166.7,-136 176.7,-139.5 176.7,-132.5"/>
</a>
</g>
</g>
<!-- Node7 -->
<g id="Node000007" class="node">
<title>Node7</title>
<g id="a_Node000007"><a xlink:href="class_p4_1_1_replace_log_msg.html" target="_top" xlink:title=" ">
<polygon fill="white" stroke="#666666" points="328.12,-108 224.38,-108 224.38,-88 328.12,-88 328.12,-108"/>
<text text-anchor="middle" x="276.25" y="-94.5" font-family="Helvetica,sans-Serif" font-size="10.00">P4::ReplaceLogMsg</text>
</a>
</g>
</g>
<!-- Node1&#45;&gt;Node7 -->
<g id="edge6_Node000001_Node000007" class="edge">
<title>Node1&#45;&gt;Node7</title>
<g id="a_edge6_Node000001_Node000007"><a xlink:title=" ">
<path fill="none" stroke="#8b1a1a" d="M176.24,-122.75C194.98,-118.07 215.77,-112.87 233.45,-108.45"/>
<polygon fill="#8b1a1a" stroke="#8b1a1a" points="175.51,-119.33 166.66,-125.15 177.21,-126.12 175.51,-119.33"/>
</a>
</g>
</g>
<!-- Node8 -->
<g id="Node000008" class="node">
<title>Node8</title>
<g id="a_Node000008"><a xlink:href="class_p4_1_1_replace_structs.html" target="_top" xlink:title=" ">
<polygon fill="white" stroke="#666666" points="326.62,-70 225.88,-70 225.88,-50 326.62,-50 326.62,-70"/>
<text text-anchor="middle" x="276.25" y="-56.5" font-family="Helvetica,sans-Serif" font-size="10.00">P4::ReplaceStructs</text>
</a>
</g>
</g>
<!-- Node1&#45;&gt;Node8 -->
<g id="edge7_Node000001_Node000008" class="edge">
<title>Node1&#45;&gt;Node8</title>
<g id="a_edge7_Node000001_Node000008"><a xlink:title=" ">
<path fill="none" stroke="#8b1a1a" d="M142.78,-118.31C157.68,-105.67 179.25,-89.17 200.75,-79 208.47,-75.35 216.99,-72.33 225.42,-69.87"/>
<polygon fill="#8b1a1a" stroke="#8b1a1a" points="140.8,-115.38 135.56,-124.59 145.4,-120.66 140.8,-115.38"/>
</a>
</g>
</g>
<!-- Node9 -->
<g id="Node000009" class="node">
<title>Node9</title>
<g id="a_Node000009"><a xlink:href="class_type_check_1_1_make_implicit_casts_explicit.html" target="_top" xlink:title=" ">
<polygon fill="white" stroke="#bfbfbf" points="351.75,-32 200.75,-32 200.75,0 351.75,0 351.75,-32"/>
<text text-anchor="start" x="208.75" y="-18.5" font-family="Helvetica,sans-Serif" font-size="10.00">TypeCheck::MakeImplicitCasts</text>
<text text-anchor="middle" x="276.25" y="-6.5" font-family="Helvetica,sans-Serif" font-size="10.00">Explicit</text>
</a>
</g>
</g>
<!-- Node1&#45;&gt;Node9 -->
<g id="edge8_Node000001_Node000009" class="edge">
<title>Node1&#45;&gt;Node9</title>
<g id="a_edge8_Node000001_Node000009"><a xlink:title=" ">
<path fill="none" stroke="#8b1a1a" d="M134.9,-115.8C148.24,-94.36 172,-60.89 200.75,-41 205.46,-37.74 210.63,-34.88 215.99,-32.37"/>
<polygon fill="#8b1a1a" stroke="#8b1a1a" points="131.99,-113.84 129.84,-124.22 137.99,-117.45 131.99,-113.84"/>
</a>
</g>
</g>
<!-- Node2 -->
<g id="Node000002" class="node">
<title>Node2</title>
<g id="a_Node000002"><a xlink:href="class_visitor.html" target="_top" xlink:title=" ">
<polygon fill="white" stroke="#bfbfbf" points="43.75,-146 0,-146 0,-126 43.75,-126 43.75,-146"/>
<text text-anchor="middle" x="21.88" y="-132.5" font-family="Helvetica,sans-Serif" font-size="10.00">Visitor</text>
</a>
</g>
</g>
<!-- Node2&#45;&gt;Node1 -->
<g id="edge1_Node000001_Node000002" class="edge">
<title>Node2&#45;&gt;Node1</title>
<g id="a_edge1_Node000001_Node000002"><a xlink:title=" ">
<path fill="none" stroke="#63b8ff" d="M55.56,-136C63.17,-136 71.37,-136 79.32,-136"/>
<polygon fill="#63b8ff" stroke="#63b8ff" points="55.73,-132.5 45.73,-136 55.73,-139.5 55.73,-132.5"/>
</a>
</g>
</g>
</g>
</svg>
