<?xml version="1.0" encoding="UTF-8" standalone="no"?>
<!DOCTYPE svg PUBLIC "-//W3C//DTD SVG 1.1//EN"
 "http://www.w3.org/Graphics/SVG/1.1/DTD/svg11.dtd">
<!-- Generated by graphviz version 10.0.1 (20240210.2158)
 -->
<!-- Title: P4::MethodInstance Pages: 1 -->
<svg width="569pt" height="218pt"
 viewBox="0.00 0.00 568.75 218.00" xmlns="http://www.w3.org/2000/svg" xmlns:xlink="http://www.w3.org/1999/xlink">
<g id="graph0" class="graph" transform="scale(1 1) rotate(0) translate(4 214)">
<title>P4::MethodInstance</title>
<!-- Node1 -->
<g id="Node000001" class="node">
<title>Node1</title>
<g id="a_Node000001"><a xlink:title=" ">
<polygon fill="#999999" stroke="#666666" points="424.75,-115 321.75,-115 321.75,-95 424.75,-95 424.75,-115"/>
<text text-anchor="middle" x="373.25" y="-101.5" font-family="Helvetica,sans-Serif" font-size="10.00">P4::MethodInstance</text>
</a>
</g>
</g>
<!-- Node5 -->
<g id="Node000005" class="node">
<title>Node5</title>
<g id="a_Node000005"><a xlink:href="class_p4_1_1_action_call.html" target="_top" xlink:title=" ">
<polygon fill="white" stroke="#666666" points="549.88,-210 471.62,-210 471.62,-190 549.88,-190 549.88,-210"/>
<text text-anchor="middle" x="510.75" y="-196.5" font-family="Helvetica,sans-Serif" font-size="10.00">P4::ActionCall</text>
</a>
</g>
</g>
<!-- Node1&#45;&gt;Node5 -->
<g id="edge4_Node000001_Node000005" class="edge">
<title>Node1&#45;&gt;Node5</title>
<g id="a_edge4_Node000001_Node000005"><a xlink:title=" ">
<path fill="none" stroke="#63b8ff" d="M391.38,-123.38C407.86,-140.19 434.12,-164.84 460.75,-181 466.05,-184.22 472,-187.07 477.87,-189.52"/>
<polygon fill="#63b8ff" stroke="#63b8ff" points="394.21,-121.27 384.76,-116.48 389.16,-126.12 394.21,-121.27"/>
</a>
</g>
</g>
<!-- Node6 -->
<g id="Node000006" class="node">
<title>Node6</title>
<g id="a_Node000006"><a xlink:href="class_p4_1_1_apply_method.html" target="_top" xlink:title=" ">
<polygon fill="white" stroke="#666666" points="556.25,-172 465.25,-172 465.25,-152 556.25,-152 556.25,-172"/>
<text text-anchor="middle" x="510.75" y="-158.5" font-family="Helvetica,sans-Serif" font-size="10.00">P4::ApplyMethod</text>
</a>
</g>
</g>
<!-- Node1&#45;&gt;Node6 -->
<g id="edge5_Node000001_Node000006" class="edge">
<title>Node1&#45;&gt;Node6</title>
<g id="a_edge5_Node000001_Node000006"><a xlink:title=" ">
<path fill="none" stroke="#63b8ff" d="M407.71,-120.11C423.69,-127.22 443.14,-135.72 460.75,-143 467.66,-145.86 475.18,-148.83 482.19,-151.56"/>
<polygon fill="#63b8ff" stroke="#63b8ff" points="409.2,-116.94 398.64,-116.06 406.34,-123.33 409.2,-116.94"/>
</a>
</g>
</g>
<!-- Node7 -->
<g id="Node000007" class="node">
<title>Node7</title>
<g id="a_Node000007"><a xlink:href="class_p4_1_1_built_in_method.html" target="_top" xlink:title=" ">
<polygon fill="white" stroke="#666666" points="557.38,-134 464.12,-134 464.12,-114 557.38,-114 557.38,-134"/>
<text text-anchor="middle" x="510.75" y="-120.5" font-family="Helvetica,sans-Serif" font-size="10.00">P4::BuiltInMethod</text>
</a>
</g>
</g>
<!-- Node1&#45;&gt;Node7 -->
<g id="edge6_Node000001_Node000007" class="edge">
<title>Node1&#45;&gt;Node7</title>
<g id="a_edge6_Node000001_Node000007"><a xlink:title=" ">
<path fill="none" stroke="#63b8ff" d="M436.33,-113.7C445.64,-115.01 455.09,-116.34 463.98,-117.58"/>
<polygon fill="#63b8ff" stroke="#63b8ff" points="436.98,-110.26 426.59,-112.34 436.01,-117.19 436.98,-110.26"/>
</a>
</g>
</g>
<!-- Node8 -->
<g id="Node000008" class="node">
<title>Node8</title>
<g id="a_Node000008"><a xlink:href="class_p4_1_1_extern_function.html" target="_top" xlink:title=" ">
<polygon fill="white" stroke="#666666" points="560.75,-96 460.75,-96 460.75,-76 560.75,-76 560.75,-96"/>
<text text-anchor="middle" x="510.75" y="-82.5" font-family="Helvetica,sans-Serif" font-size="10.00">P4::ExternFunction</text>
</a>
</g>
</g>
<!-- Node1&#45;&gt;Node8 -->
<g id="edge7_Node000001_Node000008" class="edge">
<title>Node1&#45;&gt;Node8</title>
<g id="a_edge7_Node000001_Node000008"><a xlink:title=" ">
<path fill="none" stroke="#63b8ff" d="M436.37,-96.29C444.44,-95.16 452.61,-94.01 460.42,-92.92"/>
<polygon fill="#63b8ff" stroke="#63b8ff" points="436.01,-92.81 426.59,-97.66 436.98,-99.74 436.01,-92.81"/>
</a>
</g>
</g>
<!-- Node9 -->
<g id="Node000009" class="node">
<title>Node9</title>
<g id="a_Node000009"><a xlink:href="class_p4_1_1_extern_method.html" target="_top" xlink:title=" ">
<polygon fill="white" stroke="#666666" points="558.12,-58 463.38,-58 463.38,-38 558.12,-38 558.12,-58"/>
<text text-anchor="middle" x="510.75" y="-44.5" font-family="Helvetica,sans-Serif" font-size="10.00">P4::ExternMethod</text>
</a>
</g>
</g>
<!-- Node1&#45;&gt;Node9 -->
<g id="edge8_Node000001_Node000009" class="edge">
<title>Node1&#45;&gt;Node9</title>
<g id="a_edge8_Node000001_Node000009"><a xlink:title=" ">
<path fill="none" stroke="#63b8ff" d="M407.71,-89.89C423.69,-82.78 443.14,-74.28 460.75,-67 467.66,-64.14 475.18,-61.17 482.19,-58.44"/>
<polygon fill="#63b8ff" stroke="#63b8ff" points="406.34,-86.67 398.64,-93.94 409.2,-93.06 406.34,-86.67"/>
</a>
</g>
</g>
<!-- Node10 -->
<g id="Node000010" class="node">
<title>Node10</title>
<g id="a_Node000010"><a xlink:href="class_p4_1_1_function_call.html" target="_top" xlink:title=" ">
<polygon fill="white" stroke="#666666" points="554.75,-20 466.75,-20 466.75,0 554.75,0 554.75,-20"/>
<text text-anchor="middle" x="510.75" y="-6.5" font-family="Helvetica,sans-Serif" font-size="10.00">P4::FunctionCall</text>
</a>
</g>
</g>
<!-- Node1&#45;&gt;Node10 -->
<g id="edge9_Node000001_Node000010" class="edge">
<title>Node1&#45;&gt;Node10</title>
<g id="a_edge9_Node000001_Node000010"><a xlink:title=" ">
<path fill="none" stroke="#63b8ff" d="M391.38,-86.62C407.86,-69.81 434.12,-45.16 460.75,-29 466.05,-25.78 472,-22.93 477.87,-20.48"/>
<polygon fill="#63b8ff" stroke="#63b8ff" points="389.16,-83.88 384.76,-93.52 394.21,-88.73 389.16,-83.88"/>
</a>
</g>
</g>
<!-- Node2 -->
<g id="Node000002" class="node">
<title>Node2</title>
<g id="a_Node000002"><a xlink:href="class_p4_1_1_instance_base.html" target="_top" xlink:title=" ">
<polygon fill="white" stroke="#bfbfbf" points="285.75,-115 192.5,-115 192.5,-95 285.75,-95 285.75,-115"/>
<text text-anchor="middle" x="239.12" y="-101.5" font-family="Helvetica,sans-Serif" font-size="10.00">P4::InstanceBase</text>
</a>
</g>
</g>
<!-- Node2&#45;&gt;Node1 -->
<g id="edge1_Node000001_Node000002" class="edge">
<title>Node2&#45;&gt;Node1</title>
<g id="a_edge1_Node000001_Node000002"><a xlink:title=" ">
<path fill="none" stroke="#63b8ff" d="M297.22,-105C305.3,-105 313.57,-105 321.52,-105"/>
<polygon fill="#63b8ff" stroke="#63b8ff" points="297.48,-101.5 287.48,-105 297.48,-108.5 297.48,-101.5"/>
</a>
</g>
</g>
<!-- Node3 -->
<g id="Node000003" class="node">
<title>Node3</title>
<g id="a_Node000003"><a xlink:href="class_i_castable.html" target="_top" xlink:title=" ">
<polygon fill="white" stroke="#666666" points="156.5,-115 100,-115 100,-95 156.5,-95 156.5,-115"/>
<text text-anchor="middle" x="128.25" y="-101.5" font-family="Helvetica,sans-Serif" font-size="10.00">ICastable</text>
</a>
</g>
</g>
<!-- Node3&#45;&gt;Node2 -->
<g id="edge2_Node000002_Node000003" class="edge">
<title>Node3&#45;&gt;Node2</title>
<g id="a_edge2_Node000002_Node000003"><a xlink:title=" ">
<path fill="none" stroke="#63b8ff" d="M168.06,-105C175.82,-105 184.04,-105 192.02,-105"/>
<polygon fill="#63b8ff" stroke="#63b8ff" points="168.24,-101.5 158.24,-105 168.24,-108.5 168.24,-101.5"/>
</a>
</g>
</g>
<!-- Node4 -->
<g id="Node000004" class="node">
<title>Node4</title>
<g id="a_Node000004"><a xlink:href="struct_r_t_t_i_1_1_base.html" target="_top" xlink:title=" ">
<polygon fill="white" stroke="#bfbfbf" points="64,-115 0,-115 0,-95 64,-95 64,-115"/>
<text text-anchor="middle" x="32" y="-101.5" font-family="Helvetica,sans-Serif" font-size="10.00">RTTI::Base</text>
</a>
</g>
</g>
<!-- Node4&#45;&gt;Node3 -->
<g id="edge3_Node000003_Node000004" class="edge">
<title>Node4&#45;&gt;Node3</title>
<g id="a_edge3_Node000003_Node000004"><a xlink:title=" ">
<path fill="none" stroke="#63b8ff" d="M75.72,-105C83.9,-105 92.26,-105 99.8,-105"/>
<polygon fill="#63b8ff" stroke="#63b8ff" points="75.9,-101.5 65.9,-105 75.9,-108.5 75.9,-101.5"/>
</a>
</g>
</g>
</g>
</svg>
