<?xml version="1.0" encoding="UTF-8" standalone="no"?>
<!DOCTYPE svg PUBLIC "-//W3C//DTD SVG 1.1//EN"
 "http://www.w3.org/Graphics/SVG/1.1/DTD/svg11.dtd">
<!-- Generated by graphviz version 10.0.1 (20240210.2158)
 -->
<!-- Title: EBPF::EBPFTablePSA Pages: 1 -->
<svg width="383pt" height="420pt"
 viewBox="0.00 0.00 382.62 420.00" xmlns="http://www.w3.org/2000/svg" xmlns:xlink="http://www.w3.org/1999/xlink">

<svg id="main" version="1.1" xmlns="http://www.w3.org/2000/svg" xmlns:xlink="http://www.w3.org/1999/xlink" xml:space="preserve" onload="init(evt)">
<style type="text/css"><![CDATA[
.node, .edge {opacity: 0.7;}
.node.selected, .edge.selected {opacity: 1;}
.edge:hover path { stroke: red; }
.edge:hover polygon { stroke: red; fill: red; }
]]></style>
<script type="application/ecmascript" xlink:href="svg.min.js"/>
<svg id="graph" class="graph">
<g id="graph0" class="graph" transform="scale(1 1) rotate(0) translate(4 416)">
<title>EBPF::EBPFTablePSA</title>
<!-- Node1 -->
<g id="Node000001" class="node">
<title>Node1</title>
<g id="a_Node000001"><a xlink:title=" ">
<polygon fill="#999999" stroke="#666666" points="300.75,-132 182.75,-132 182.75,-112 300.75,-112 300.75,-132"/>
<text text-anchor="middle" x="241.75" y="-118.5" font-family="Helvetica,sans-Serif" font-size="10.00">EBPF::EBPFTablePSA</text>
</a>
</g>
</g>
<!-- Node7 -->
<g id="Node000007" class="node">
<title>Node7</title>
<g id="a_Node000007"><a xlink:href="class_e_b_p_f_1_1_e_b_p_f_table_implementation_p_s_a.html" target="_top" xlink:title=" ">
<polygon fill="white" stroke="#bfbfbf" points="252.75,-76 68.75,-76 68.75,-56 252.75,-56 252.75,-76"/>
<text text-anchor="middle" x="160.75" y="-62.5" font-family="Helvetica,sans-Serif" font-size="10.00">EBPF::EBPFTableImplementationPSA</text>
</a>
</g>
</g>
<!-- Node1&#45;&gt;Node7 -->
<g id="edge6_Node000001_Node000007" class="edge">
<title>Node1&#45;&gt;Node7</title>
<g id="a_edge6_Node000001_Node000007"><a xlink:title=" ">
<path fill="none" stroke="#63b8ff" d="M218.16,-105.27C204.16,-95.94 186.89,-84.43 174.97,-76.48"/>
<polygon fill="#63b8ff" stroke="#63b8ff" points="216.12,-108.12 226.38,-110.75 220,-102.3 216.12,-108.12"/>
</a>
</g>
</g>
<!-- Node10 -->
<g id="Node000010" class="node">
<title>Node10</title>
<g id="a_Node000010"><a xlink:href="class_t_c_1_1_e_b_p_f_table_p_n_a.html" target="_top" xlink:title=" ">
<polygon fill="white" stroke="#bfbfbf" points="374.62,-76 270.88,-76 270.88,-56 374.62,-56 374.62,-76"/>
<text text-anchor="middle" x="322.75" y="-62.5" font-family="Helvetica,sans-Serif" font-size="10.00">TC::EBPFTablePNA</text>
</a>
</g>
</g>
<!-- Node1&#45;&gt;Node10 -->
<g id="edge9_Node000001_Node000010" class="edge">
<title>Node1&#45;&gt;Node10</title>
<g id="a_edge9_Node000001_Node000010"><a xlink:title=" ">
<path fill="none" stroke="#63b8ff" d="M265.34,-105.27C279.34,-95.94 296.61,-84.43 308.53,-76.48"/>
<polygon fill="#63b8ff" stroke="#63b8ff" points="263.5,-102.3 257.12,-110.75 267.38,-108.12 263.5,-102.3"/>
</a>
</g>
</g>
<!-- Node2 -->
<g id="Node000002" class="node">
<title>Node2</title>
<g id="a_Node000002"><a xlink:href="class_e_b_p_f_1_1_e_b_p_f_table.html" target="_top" xlink:title=" ">
<polygon fill="white" stroke="#bfbfbf" points="290.62,-188 192.88,-188 192.88,-168 290.62,-168 290.62,-188"/>
<text text-anchor="middle" x="241.75" y="-174.5" font-family="Helvetica,sans-Serif" font-size="10.00">EBPF::EBPFTable</text>
</a>
</g>
</g>
<!-- Node2&#45;&gt;Node1 -->
<g id="edge1_Node000001_Node000002" class="edge">
<title>Node2&#45;&gt;Node1</title>
<g id="a_edge1_Node000001_Node000002"><a xlink:title=" ">
<path fill="none" stroke="#63b8ff" d="M241.75,-156.13C241.75,-147.9 241.75,-138.85 241.75,-132.3"/>
<polygon fill="#63b8ff" stroke="#63b8ff" points="238.25,-156.08 241.75,-166.08 245.25,-156.08 238.25,-156.08"/>
</a>
</g>
</g>
<!-- Node3 -->
<g id="Node000003" class="node">
<title>Node3</title>
<g id="a_Node000003"><a xlink:href="class_e_b_p_f_1_1_e_b_p_f_table_base.html" target="_top" xlink:title=" ">
<polygon fill="white" stroke="#bfbfbf" points="301.88,-244 181.62,-244 181.62,-224 301.88,-224 301.88,-244"/>
<text text-anchor="middle" x="241.75" y="-230.5" font-family="Helvetica,sans-Serif" font-size="10.00">EBPF::EBPFTableBase</text>
</a>
</g>
</g>
<!-- Node3&#45;&gt;Node2 -->
<g id="edge2_Node000002_Node000003" class="edge">
<title>Node3&#45;&gt;Node2</title>
<g id="a_edge2_Node000002_Node000003"><a xlink:title=" ">
<path fill="none" stroke="#63b8ff" d="M241.75,-212.13C241.75,-203.9 241.75,-194.85 241.75,-188.3"/>
<polygon fill="#63b8ff" stroke="#63b8ff" points="238.25,-212.08 241.75,-222.08 245.25,-212.08 238.25,-212.08"/>
</a>
</g>
</g>
<!-- Node4 -->
<g id="Node000004" class="node">
<title>Node4</title>
<g id="a_Node000004"><a xlink:href="class_e_b_p_f_1_1_e_b_p_f_object.html" target="_top" xlink:title=" ">
<polygon fill="white" stroke="#bfbfbf" points="293.25,-300 190.25,-300 190.25,-280 293.25,-280 293.25,-300"/>
<text text-anchor="middle" x="241.75" y="-286.5" font-family="Helvetica,sans-Serif" font-size="10.00">EBPF::EBPFObject</text>
</a>
</g>
</g>
<!-- Node4&#45;&gt;Node3 -->
<g id="edge3_Node000003_Node000004" class="edge">
<title>Node4&#45;&gt;Node3</title>
<g id="a_edge3_Node000003_Node000004"><a xlink:title=" ">
<path fill="none" stroke="#63b8ff" d="M241.75,-268.13C241.75,-259.9 241.75,-250.85 241.75,-244.3"/>
<polygon fill="#63b8ff" stroke="#63b8ff" points="238.25,-268.08 241.75,-278.08 245.25,-268.08 238.25,-268.08"/>
</a>
</g>
</g>
<!-- Node5 -->
<g id="Node000005" class="node">
<title>Node5</title>
<g id="a_Node000005"><a xlink:href="class_i_castable.html" target="_top" xlink:title=" ">
<polygon fill="white" stroke="#666666" points="270,-356 213.5,-356 213.5,-336 270,-336 270,-356"/>
<text text-anchor="middle" x="241.75" y="-342.5" font-family="Helvetica,sans-Serif" font-size="10.00">ICastable</text>
</a>
</g>
</g>
<!-- Node5&#45;&gt;Node4 -->
<g id="edge4_Node000004_Node000005" class="edge">
<title>Node5&#45;&gt;Node4</title>
<g id="a_edge4_Node000004_Node000005"><a xlink:title=" ">
<path fill="none" stroke="#63b8ff" d="M241.75,-324.13C241.75,-315.9 241.75,-306.85 241.75,-300.3"/>
<polygon fill="#63b8ff" stroke="#63b8ff" points="238.25,-324.08 241.75,-334.08 245.25,-324.08 238.25,-324.08"/>
</a>
</g>
</g>
<!-- Node6 -->
<g id="Node000006" class="node">
<title>Node6</title>
<g id="a_Node000006"><a xlink:href="struct_r_t_t_i_1_1_base.html" target="_top" xlink:title=" ">
<polygon fill="white" stroke="#bfbfbf" points="273.75,-412 209.75,-412 209.75,-392 273.75,-392 273.75,-412"/>
<text text-anchor="middle" x="241.75" y="-398.5" font-family="Helvetica,sans-Serif" font-size="10.00">RTTI::Base</text>
</a>
</g>
</g>
<!-- Node6&#45;&gt;Node5 -->
<g id="edge5_Node000005_Node000006" class="edge">
<title>Node6&#45;&gt;Node5</title>
<g id="a_edge5_Node000005_Node000006"><a xlink:title=" ">
<path fill="none" stroke="#63b8ff" d="M241.75,-380.13C241.75,-371.9 241.75,-362.85 241.75,-356.3"/>
<polygon fill="#63b8ff" stroke="#63b8ff" points="238.25,-380.08 241.75,-390.08 245.25,-380.08 238.25,-380.08"/>
</a>
</g>
</g>
<!-- Node8 -->
<g id="Node000008" class="node">
<title>Node8</title>
<g id="a_Node000008"><a xlink:href="class_e_b_p_f_1_1_e_b_p_f_action_profile_p_s_a.html" target="_top" xlink:title=" ">
<polygon fill="white" stroke="#bfbfbf" points="149.5,-20 0,-20 0,0 149.5,0 149.5,-20"/>
<text text-anchor="middle" x="74.75" y="-6.5" font-family="Helvetica,sans-Serif" font-size="10.00">EBPF::EBPFActionProfilePSA</text>
</a>
</g>
</g>
<!-- Node7&#45;&gt;Node8 -->
<g id="edge7_Node000007_Node000008" class="edge">
<title>Node7&#45;&gt;Node8</title>
<g id="a_edge7_Node000007_Node000008"><a xlink:title=" ">
<path fill="none" stroke="#63b8ff" d="M136.13,-49.54C121.2,-40.17 102.63,-28.51 89.85,-20.48"/>
<polygon fill="#63b8ff" stroke="#63b8ff" points="134.16,-52.44 144.49,-54.79 137.88,-46.51 134.16,-52.44"/>
</a>
</g>
</g>
<!-- Node9 -->
<g id="Node000009" class="node">
<title>Node9</title>
<g id="a_Node000009"><a xlink:href="class_e_b_p_f_1_1_e_b_p_f_action_selector_p_s_a.html" target="_top" xlink:title=" ">
<polygon fill="white" stroke="#bfbfbf" points="326,-20 167.5,-20 167.5,0 326,0 326,-20"/>
<text text-anchor="middle" x="246.75" y="-6.5" font-family="Helvetica,sans-Serif" font-size="10.00">EBPF::EBPFActionSelectorPSA</text>
</a>
</g>
</g>
<!-- Node7&#45;&gt;Node9 -->
<g id="edge8_Node000007_Node000009" class="edge">
<title>Node7&#45;&gt;Node9</title>
<g id="a_edge8_Node000007_Node000009"><a xlink:title=" ">
<path fill="none" stroke="#63b8ff" d="M185.37,-49.54C200.3,-40.17 218.87,-28.51 231.65,-20.48"/>
<polygon fill="#63b8ff" stroke="#63b8ff" points="183.62,-46.51 177.01,-54.79 187.34,-52.44 183.62,-46.51"/>
</a>
</g>
</g>
</g>
</svg>
</svg>

<style type='text/css'>
<![CDATA[
[data-mouse-over-selected='false'] { opacity: 0.7; }
[data-mouse-over-selected='true']  { opacity: 1.0; }
]]>
</style>
<script type="application/ecmascript"><![CDATA[
document.addEventListener('DOMContentLoaded', (event) => {
  highlightEdges();
  highlightAdjacentNodes();
});
]]></script>
</svg>
