<?xml version="1.0" encoding="UTF-8" standalone="no"?>
<!DOCTYPE svg PUBLIC "-//W3C//DTD SVG 1.1//EN"
 "http://www.w3.org/Graphics/SVG/1.1/DTD/svg11.dtd">
<!-- Generated by graphviz version 10.0.1 (20240210.2158)
 -->
<!-- Title: P4::DoConvertEnums Pages: 1 -->
<svg width="117pt" height="140pt"
 viewBox="0.00 0.00 117.00 140.00" xmlns="http://www.w3.org/2000/svg" xmlns:xlink="http://www.w3.org/1999/xlink">
<g id="graph0" class="graph" transform="scale(1 1) rotate(0) translate(4 136)">
<title>P4::DoConvertEnums</title>
<!-- Node1 -->
<g id="Node000001" class="node">
<title>Node1</title>
<g id="a_Node000001"><a xlink:title=" ">
<polygon fill="#999999" stroke="#666666" points="109,-20 0,-20 0,0 109,0 109,-20"/>
<text text-anchor="middle" x="54.5" y="-6.5" font-family="Helvetica,sans-Serif" font-size="10.00">P4::DoConvertEnums</text>
</a>
</g>
</g>
<!-- Node2 -->
<g id="Node000002" class="node">
<title>Node2</title>
<g id="a_Node000002"><a xlink:href="class_transform.html" target="_top" xlink:title=" ">
<polygon fill="white" stroke="#bfbfbf" points="83.88,-76 25.12,-76 25.12,-56 83.88,-56 83.88,-76"/>
<text text-anchor="middle" x="54.5" y="-62.5" font-family="Helvetica,sans-Serif" font-size="10.00">Transform</text>
</a>
</g>
</g>
<!-- Node2&#45;&gt;Node1 -->
<g id="edge1_Node000001_Node000002" class="edge">
<title>Node2&#45;&gt;Node1</title>
<g id="a_edge1_Node000001_Node000002"><a xlink:title=" ">
<path fill="none" stroke="#63b8ff" d="M54.5,-44.13C54.5,-35.9 54.5,-26.85 54.5,-20.3"/>
<polygon fill="#63b8ff" stroke="#63b8ff" points="51,-44.08 54.5,-54.08 58,-44.08 51,-44.08"/>
</a>
</g>
</g>
<!-- Node3 -->
<g id="Node000003" class="node">
<title>Node3</title>
<g id="a_Node000003"><a xlink:href="class_visitor.html" target="_top" xlink:title=" ">
<polygon fill="white" stroke="#bfbfbf" points="76.38,-132 32.62,-132 32.62,-112 76.38,-112 76.38,-132"/>
<text text-anchor="middle" x="54.5" y="-118.5" font-family="Helvetica,sans-Serif" font-size="10.00">Visitor</text>
</a>
</g>
</g>
<!-- Node3&#45;&gt;Node2 -->
<g id="edge2_Node000002_Node000003" class="edge">
<title>Node3&#45;&gt;Node2</title>
<g id="a_edge2_Node000002_Node000003"><a xlink:title=" ">
<path fill="none" stroke="#63b8ff" d="M54.5,-100.13C54.5,-91.9 54.5,-82.85 54.5,-76.3"/>
<polygon fill="#63b8ff" stroke="#63b8ff" points="51,-100.08 54.5,-110.08 58,-100.08 51,-100.08"/>
</a>
</g>
</g>
</g>
</svg>
