<?xml version="1.0" encoding="UTF-8" standalone="no"?>
<!DOCTYPE svg PUBLIC "-//W3C//DTD SVG 1.1//EN"
 "http://www.w3.org/Graphics/SVG/1.1/DTD/svg11.dtd">
<!-- Generated by graphviz version 10.0.1 (20240210.2158)
 -->
<!-- Title: P4V1::TypeConverter Pages: 1 -->
<svg width="143pt" height="196pt"
 viewBox="0.00 0.00 143.25 196.00" xmlns="http://www.w3.org/2000/svg" xmlns:xlink="http://www.w3.org/1999/xlink">
<g id="graph0" class="graph" transform="scale(1 1) rotate(0) translate(4 192)">
<title>P4V1::TypeConverter</title>
<!-- Node1 -->
<g id="Node000001" class="node">
<title>Node1</title>
<g id="a_Node000001"><a xlink:title=" ">
<polygon fill="#999999" stroke="#666666" points="121.38,-20 13.88,-20 13.88,0 121.38,0 121.38,-20"/>
<text text-anchor="middle" x="67.62" y="-6.5" font-family="Helvetica,sans-Serif" font-size="10.00">P4V1::TypeConverter</text>
</a>
</g>
</g>
<!-- Node2 -->
<g id="Node000002" class="node">
<title>Node2</title>
<g id="a_Node000002"><a xlink:href="class_p4_v1_1_1_expression_converter.html" target="_top" xlink:title=" ">
<polygon fill="white" stroke="#bfbfbf" points="135.25,-76 0,-76 0,-56 135.25,-56 135.25,-76"/>
<text text-anchor="middle" x="67.62" y="-62.5" font-family="Helvetica,sans-Serif" font-size="10.00">P4V1::ExpressionConverter</text>
</a>
</g>
</g>
<!-- Node2&#45;&gt;Node1 -->
<g id="edge1_Node000001_Node000002" class="edge">
<title>Node2&#45;&gt;Node1</title>
<g id="a_edge1_Node000001_Node000002"><a xlink:title=" ">
<path fill="none" stroke="#63b8ff" d="M67.62,-44.13C67.62,-35.9 67.62,-26.85 67.62,-20.3"/>
<polygon fill="#63b8ff" stroke="#63b8ff" points="64.13,-44.08 67.63,-54.08 71.13,-44.08 64.13,-44.08"/>
</a>
</g>
</g>
<!-- Node3 -->
<g id="Node000003" class="node">
<title>Node3</title>
<g id="a_Node000003"><a xlink:href="class_transform.html" target="_top" xlink:title=" ">
<polygon fill="white" stroke="#bfbfbf" points="97,-132 38.25,-132 38.25,-112 97,-112 97,-132"/>
<text text-anchor="middle" x="67.62" y="-118.5" font-family="Helvetica,sans-Serif" font-size="10.00">Transform</text>
</a>
</g>
</g>
<!-- Node3&#45;&gt;Node2 -->
<g id="edge2_Node000002_Node000003" class="edge">
<title>Node3&#45;&gt;Node2</title>
<g id="a_edge2_Node000002_Node000003"><a xlink:title=" ">
<path fill="none" stroke="#63b8ff" d="M67.62,-100.13C67.62,-91.9 67.62,-82.85 67.62,-76.3"/>
<polygon fill="#63b8ff" stroke="#63b8ff" points="64.13,-100.08 67.63,-110.08 71.13,-100.08 64.13,-100.08"/>
</a>
</g>
</g>
<!-- Node4 -->
<g id="Node000004" class="node">
<title>Node4</title>
<g id="a_Node000004"><a xlink:href="class_visitor.html" target="_top" xlink:title=" ">
<polygon fill="white" stroke="#bfbfbf" points="89.5,-188 45.75,-188 45.75,-168 89.5,-168 89.5,-188"/>
<text text-anchor="middle" x="67.62" y="-174.5" font-family="Helvetica,sans-Serif" font-size="10.00">Visitor</text>
</a>
</g>
</g>
<!-- Node4&#45;&gt;Node3 -->
<g id="edge3_Node000003_Node000004" class="edge">
<title>Node4&#45;&gt;Node3</title>
<g id="a_edge3_Node000003_Node000004"><a xlink:title=" ">
<path fill="none" stroke="#63b8ff" d="M67.62,-156.13C67.62,-147.9 67.62,-138.85 67.62,-132.3"/>
<polygon fill="#63b8ff" stroke="#63b8ff" points="64.13,-156.08 67.63,-166.08 71.13,-156.08 64.13,-156.08"/>
</a>
</g>
</g>
</g>
</svg>
