<?xml version="1.0" encoding="UTF-8" standalone="no"?>
<!DOCTYPE svg PUBLIC "-//W3C//DTD SVG 1.1//EN"
 "http://www.w3.org/Graphics/SVG/1.1/DTD/svg11.dtd">
<!-- Generated by graphviz version 10.0.1 (20240210.2158)
 -->
<!-- Title: EBPF::EBPFDigestPSA Pages: 1 -->
<svg width="131pt" height="196pt"
 viewBox="0.00 0.00 130.50 196.00" xmlns="http://www.w3.org/2000/svg" xmlns:xlink="http://www.w3.org/1999/xlink">
<g id="graph0" class="graph" transform="scale(1 1) rotate(0) translate(4 192)">
<title>EBPF::EBPFDigestPSA</title>
<!-- Node1 -->
<g id="Node000001" class="node">
<title>Node1</title>
<g id="a_Node000001"><a xlink:title=" ">
<polygon fill="#999999" stroke="#666666" points="122.5,-20 0,-20 0,0 122.5,0 122.5,-20"/>
<text text-anchor="middle" x="61.25" y="-6.5" font-family="Helvetica,sans-Serif" font-size="10.00">EBPF::EBPFDigestPSA</text>
</a>
</g>
</g>
<!-- Node2 -->
<g id="Node000002" class="node">
<title>Node2</title>
<g id="a_Node000002"><a xlink:href="class_e_b_p_f_1_1_e_b_p_f_object.html" target="_top" xlink:title=" ">
<polygon fill="white" stroke="#bfbfbf" points="112.75,-76 9.75,-76 9.75,-56 112.75,-56 112.75,-76"/>
<text text-anchor="middle" x="61.25" y="-62.5" font-family="Helvetica,sans-Serif" font-size="10.00">EBPF::EBPFObject</text>
</a>
</g>
</g>
<!-- Node2&#45;&gt;Node1 -->
<g id="edge1_Node000001_Node000002" class="edge">
<title>Node2&#45;&gt;Node1</title>
<g id="a_edge1_Node000001_Node000002"><a xlink:title=" ">
<path fill="none" stroke="#63b8ff" d="M61.25,-44.13C61.25,-35.9 61.25,-26.85 61.25,-20.3"/>
<polygon fill="#63b8ff" stroke="#63b8ff" points="57.75,-44.08 61.25,-54.08 64.75,-44.08 57.75,-44.08"/>
</a>
</g>
</g>
<!-- Node3 -->
<g id="Node000003" class="node">
<title>Node3</title>
<g id="a_Node000003"><a xlink:href="class_i_castable.html" target="_top" xlink:title=" ">
<polygon fill="white" stroke="#666666" points="89.5,-132 33,-132 33,-112 89.5,-112 89.5,-132"/>
<text text-anchor="middle" x="61.25" y="-118.5" font-family="Helvetica,sans-Serif" font-size="10.00">ICastable</text>
</a>
</g>
</g>
<!-- Node3&#45;&gt;Node2 -->
<g id="edge2_Node000002_Node000003" class="edge">
<title>Node3&#45;&gt;Node2</title>
<g id="a_edge2_Node000002_Node000003"><a xlink:title=" ">
<path fill="none" stroke="#63b8ff" d="M61.25,-100.13C61.25,-91.9 61.25,-82.85 61.25,-76.3"/>
<polygon fill="#63b8ff" stroke="#63b8ff" points="57.75,-100.08 61.25,-110.08 64.75,-100.08 57.75,-100.08"/>
</a>
</g>
</g>
<!-- Node4 -->
<g id="Node000004" class="node">
<title>Node4</title>
<g id="a_Node000004"><a xlink:href="struct_r_t_t_i_1_1_base.html" target="_top" xlink:title=" ">
<polygon fill="white" stroke="#bfbfbf" points="93.25,-188 29.25,-188 29.25,-168 93.25,-168 93.25,-188"/>
<text text-anchor="middle" x="61.25" y="-174.5" font-family="Helvetica,sans-Serif" font-size="10.00">RTTI::Base</text>
</a>
</g>
</g>
<!-- Node4&#45;&gt;Node3 -->
<g id="edge3_Node000003_Node000004" class="edge">
<title>Node4&#45;&gt;Node3</title>
<g id="a_edge3_Node000003_Node000004"><a xlink:title=" ">
<path fill="none" stroke="#63b8ff" d="M61.25,-156.13C61.25,-147.9 61.25,-138.85 61.25,-132.3"/>
<polygon fill="#63b8ff" stroke="#63b8ff" points="57.75,-156.08 61.25,-166.08 64.75,-156.08 57.75,-156.08"/>
</a>
</g>
</g>
</g>
</svg>
