<?xml version="1.0" encoding="UTF-8" standalone="no"?>
<!DOCTYPE svg PUBLIC "-//W3C//DTD SVG 1.1//EN"
 "http://www.w3.org/Graphics/SVG/1.1/DTD/svg11.dtd">
<!-- Generated by graphviz version 10.0.1 (20240210.2158)
 -->
<!-- Title: DPDK::CopyMatchKeysToSingleStruct Pages: 1 -->
<svg width="167pt" height="208pt"
 viewBox="0.00 0.00 166.50 208.00" xmlns="http://www.w3.org/2000/svg" xmlns:xlink="http://www.w3.org/1999/xlink">
<g id="graph0" class="graph" transform="scale(1 1) rotate(0) translate(4 204)">
<title>DPDK::CopyMatchKeysToSingleStruct</title>
<!-- Node1 -->
<g id="Node000001" class="node">
<title>Node1</title>
<g id="a_Node000001"><a xlink:title=" ">
<polygon fill="#999999" stroke="#666666" points="158.5,-32 0,-32 0,0 158.5,0 158.5,-32"/>
<text text-anchor="start" x="8" y="-18.5" font-family="Helvetica,sans-Serif" font-size="10.00">DPDK::CopyMatchKeysToSingle</text>
<text text-anchor="middle" x="79.25" y="-6.5" font-family="Helvetica,sans-Serif" font-size="10.00">Struct</text>
</a>
</g>
</g>
<!-- Node2 -->
<g id="Node000002" class="node">
<title>Node2</title>
<g id="a_Node000002"><a xlink:href="class_p4_1_1_key_side_effect.html" target="_top" xlink:title=" ">
<polygon fill="white" stroke="#666666" points="127,-88 31.5,-88 31.5,-68 127,-68 127,-88"/>
<text text-anchor="middle" x="79.25" y="-74.5" font-family="Helvetica,sans-Serif" font-size="10.00">P4::KeySideEffect</text>
</a>
</g>
</g>
<!-- Node2&#45;&gt;Node1 -->
<g id="edge1_Node000001_Node000002" class="edge">
<title>Node2&#45;&gt;Node1</title>
<g id="a_edge1_Node000001_Node000002"><a xlink:title=" ">
<path fill="none" stroke="#63b8ff" d="M79.25,-56.31C79.25,-48.37 79.25,-39.46 79.25,-32.14"/>
<polygon fill="#63b8ff" stroke="#63b8ff" points="75.75,-56.11 79.25,-66.11 82.75,-56.11 75.75,-56.11"/>
</a>
</g>
</g>
<!-- Node3 -->
<g id="Node000003" class="node">
<title>Node3</title>
<g id="a_Node000003"><a xlink:href="class_transform.html" target="_top" xlink:title=" ">
<polygon fill="white" stroke="#bfbfbf" points="108.62,-144 49.88,-144 49.88,-124 108.62,-124 108.62,-144"/>
<text text-anchor="middle" x="79.25" y="-130.5" font-family="Helvetica,sans-Serif" font-size="10.00">Transform</text>
</a>
</g>
</g>
<!-- Node3&#45;&gt;Node2 -->
<g id="edge2_Node000002_Node000003" class="edge">
<title>Node3&#45;&gt;Node2</title>
<g id="a_edge2_Node000002_Node000003"><a xlink:title=" ">
<path fill="none" stroke="#63b8ff" d="M79.25,-112.13C79.25,-103.9 79.25,-94.85 79.25,-88.3"/>
<polygon fill="#63b8ff" stroke="#63b8ff" points="75.75,-112.08 79.25,-122.08 82.75,-112.08 75.75,-112.08"/>
</a>
</g>
</g>
<!-- Node4 -->
<g id="Node000004" class="node">
<title>Node4</title>
<g id="a_Node000004"><a xlink:href="class_visitor.html" target="_top" xlink:title=" ">
<polygon fill="white" stroke="#bfbfbf" points="101.12,-200 57.38,-200 57.38,-180 101.12,-180 101.12,-200"/>
<text text-anchor="middle" x="79.25" y="-186.5" font-family="Helvetica,sans-Serif" font-size="10.00">Visitor</text>
</a>
</g>
</g>
<!-- Node4&#45;&gt;Node3 -->
<g id="edge3_Node000003_Node000004" class="edge">
<title>Node4&#45;&gt;Node3</title>
<g id="a_edge3_Node000003_Node000004"><a xlink:title=" ">
<path fill="none" stroke="#63b8ff" d="M79.25,-168.13C79.25,-159.9 79.25,-150.85 79.25,-144.3"/>
<polygon fill="#63b8ff" stroke="#63b8ff" points="75.75,-168.08 79.25,-178.08 82.75,-168.08 75.75,-168.08"/>
</a>
</g>
</g>
</g>
</svg>
