<?xml version="1.0" encoding="UTF-8" standalone="no"?>
<!DOCTYPE svg PUBLIC "-//W3C//DTD SVG 1.1//EN"
 "http://www.w3.org/Graphics/SVG/1.1/DTD/svg11.dtd">
<!-- Generated by graphviz version 10.0.1 (20240210.2158)
 -->
<!-- Title: P4V1::ExpressionConverter Pages: 1 -->
<svg width="266pt" height="196pt"
 viewBox="0.00 0.00 265.50 196.00" xmlns="http://www.w3.org/2000/svg" xmlns:xlink="http://www.w3.org/1999/xlink">
<g id="graph0" class="graph" transform="scale(1 1) rotate(0) translate(4 192)">
<title>P4V1::ExpressionConverter</title>
<!-- Node1 -->
<g id="Node000001" class="node">
<title>Node1</title>
<g id="a_Node000001"><a xlink:title=" ">
<polygon fill="#999999" stroke="#666666" points="202.38,-76 67.12,-76 67.12,-56 202.38,-56 202.38,-76"/>
<text text-anchor="middle" x="134.75" y="-62.5" font-family="Helvetica,sans-Serif" font-size="10.00">P4V1::ExpressionConverter</text>
</a>
</g>
</g>
<!-- Node4 -->
<g id="Node000004" class="node">
<title>Node4</title>
<g id="a_Node000004"><a xlink:href="class_p4_v1_1_1_statement_converter.html" target="_top" xlink:title=" ">
<polygon fill="white" stroke="#bfbfbf" points="131.5,-20 0,-20 0,0 131.5,0 131.5,-20"/>
<text text-anchor="middle" x="65.75" y="-6.5" font-family="Helvetica,sans-Serif" font-size="10.00">P4V1::StatementConverter</text>
</a>
</g>
</g>
<!-- Node1&#45;&gt;Node4 -->
<g id="edge3_Node000001_Node000004" class="edge">
<title>Node1&#45;&gt;Node4</title>
<g id="a_edge3_Node000001_Node000004"><a xlink:title=" ">
<path fill="none" stroke="#63b8ff" d="M113.9,-48.68C102.02,-39.39 87.58,-28.09 77.63,-20.3"/>
<polygon fill="#63b8ff" stroke="#63b8ff" points="111.51,-51.25 121.54,-54.66 115.82,-45.74 111.51,-51.25"/>
</a>
</g>
</g>
<!-- Node5 -->
<g id="Node000005" class="node">
<title>Node5</title>
<g id="a_Node000005"><a xlink:href="class_p4_v1_1_1_type_converter.html" target="_top" xlink:title=" ">
<polygon fill="white" stroke="#bfbfbf" points="257.5,-20 150,-20 150,0 257.5,0 257.5,-20"/>
<text text-anchor="middle" x="203.75" y="-6.5" font-family="Helvetica,sans-Serif" font-size="10.00">P4V1::TypeConverter</text>
</a>
</g>
</g>
<!-- Node1&#45;&gt;Node5 -->
<g id="edge4_Node000001_Node000005" class="edge">
<title>Node1&#45;&gt;Node5</title>
<g id="a_edge4_Node000001_Node000005"><a xlink:title=" ">
<path fill="none" stroke="#63b8ff" d="M155.6,-48.68C167.48,-39.39 181.92,-28.09 191.87,-20.3"/>
<polygon fill="#63b8ff" stroke="#63b8ff" points="153.68,-45.74 147.96,-54.66 157.99,-51.25 153.68,-45.74"/>
</a>
</g>
</g>
<!-- Node2 -->
<g id="Node000002" class="node">
<title>Node2</title>
<g id="a_Node000002"><a xlink:href="class_transform.html" target="_top" xlink:title=" ">
<polygon fill="white" stroke="#bfbfbf" points="164.12,-132 105.38,-132 105.38,-112 164.12,-112 164.12,-132"/>
<text text-anchor="middle" x="134.75" y="-118.5" font-family="Helvetica,sans-Serif" font-size="10.00">Transform</text>
</a>
</g>
</g>
<!-- Node2&#45;&gt;Node1 -->
<g id="edge1_Node000001_Node000002" class="edge">
<title>Node2&#45;&gt;Node1</title>
<g id="a_edge1_Node000001_Node000002"><a xlink:title=" ">
<path fill="none" stroke="#63b8ff" d="M134.75,-100.13C134.75,-91.9 134.75,-82.85 134.75,-76.3"/>
<polygon fill="#63b8ff" stroke="#63b8ff" points="131.25,-100.08 134.75,-110.08 138.25,-100.08 131.25,-100.08"/>
</a>
</g>
</g>
<!-- Node3 -->
<g id="Node000003" class="node">
<title>Node3</title>
<g id="a_Node000003"><a xlink:href="class_visitor.html" target="_top" xlink:title=" ">
<polygon fill="white" stroke="#bfbfbf" points="156.62,-188 112.88,-188 112.88,-168 156.62,-168 156.62,-188"/>
<text text-anchor="middle" x="134.75" y="-174.5" font-family="Helvetica,sans-Serif" font-size="10.00">Visitor</text>
</a>
</g>
</g>
<!-- Node3&#45;&gt;Node2 -->
<g id="edge2_Node000002_Node000003" class="edge">
<title>Node3&#45;&gt;Node2</title>
<g id="a_edge2_Node000002_Node000003"><a xlink:title=" ">
<path fill="none" stroke="#63b8ff" d="M134.75,-156.13C134.75,-147.9 134.75,-138.85 134.75,-132.3"/>
<polygon fill="#63b8ff" stroke="#63b8ff" points="131.25,-156.08 134.75,-166.08 138.25,-156.08 131.25,-156.08"/>
</a>
</g>
</g>
</g>
</svg>
