<?xml version="1.0" encoding="UTF-8" standalone="no"?>
<!DOCTYPE svg PUBLIC "-//W3C//DTD SVG 1.1//EN"
 "http://www.w3.org/Graphics/SVG/1.1/DTD/svg11.dtd">
<!-- Generated by graphviz version 10.0.1 (20240210.2158)
 -->
<!-- Title: DPDK::DpdkArchLast Pages: 1 -->
<svg width="122pt" height="196pt"
 viewBox="0.00 0.00 122.38 196.00" xmlns="http://www.w3.org/2000/svg" xmlns:xlink="http://www.w3.org/1999/xlink">
<g id="graph0" class="graph" transform="scale(1 1) rotate(0) translate(4 192)">
<title>DPDK::DpdkArchLast</title>
<!-- Node1 -->
<g id="Node000001" class="node">
<title>Node1</title>
<g id="a_Node000001"><a xlink:title=" ">
<polygon fill="#999999" stroke="#666666" points="110.5,-20 0,-20 0,0 110.5,0 110.5,-20"/>
<text text-anchor="middle" x="55.25" y="-6.5" font-family="Helvetica,sans-Serif" font-size="10.00">DPDK::DpdkArchLast</text>
</a>
</g>
</g>
<!-- Node2 -->
<g id="Node000002" class="node">
<title>Node2</title>
<g id="a_Node000002"><a xlink:href="class_pass_manager.html" target="_top" xlink:title=" ">
<polygon fill="white" stroke="#bfbfbf" points="93.25,-76 17.25,-76 17.25,-56 93.25,-56 93.25,-76"/>
<text text-anchor="middle" x="55.25" y="-62.5" font-family="Helvetica,sans-Serif" font-size="10.00">PassManager</text>
</a>
</g>
</g>
<!-- Node2&#45;&gt;Node1 -->
<g id="edge1_Node000001_Node000002" class="edge">
<title>Node2&#45;&gt;Node1</title>
<g id="a_edge1_Node000001_Node000002"><a xlink:title=" ">
<path fill="none" stroke="#63b8ff" d="M55.25,-44.13C55.25,-35.9 55.25,-26.85 55.25,-20.3"/>
<polygon fill="#63b8ff" stroke="#63b8ff" points="51.75,-44.08 55.25,-54.08 58.75,-44.08 51.75,-44.08"/>
</a>
</g>
</g>
<!-- Node3 -->
<g id="Node000003" class="node">
<title>Node3</title>
<g id="a_Node000003"><a xlink:href="class_visitor.html" target="_top" xlink:title=" ">
<polygon fill="white" stroke="#bfbfbf" points="77.12,-188 33.38,-188 33.38,-168 77.12,-168 77.12,-188"/>
<text text-anchor="middle" x="55.25" y="-174.5" font-family="Helvetica,sans-Serif" font-size="10.00">Visitor</text>
</a>
</g>
</g>
<!-- Node3&#45;&gt;Node2 -->
<g id="edge2_Node000002_Node000003" class="edge">
<title>Node3&#45;&gt;Node2</title>
<g id="a_edge2_Node000002_Node000003"><a xlink:title=" ">
<path fill="none" stroke="#63b8ff" d="M49.74,-156.65C47.92,-148.98 46.14,-140.15 45.25,-132 43.06,-112.03 48.61,-88.79 52.29,-76.22"/>
<polygon fill="#63b8ff" stroke="#63b8ff" points="46.34,-157.5 52.21,-166.32 53.13,-155.77 46.34,-157.5"/>
</a>
</g>
</g>
<!-- Node4 -->
<g id="Node000004" class="node">
<title>Node4</title>
<g id="a_Node000004"><a xlink:href="class_backtrack.html" target="_top" xlink:title=" ">
<polygon fill="white" stroke="#bfbfbf" points="114.38,-132 54.12,-132 54.12,-112 114.38,-112 114.38,-132"/>
<text text-anchor="middle" x="84.25" y="-118.5" font-family="Helvetica,sans-Serif" font-size="10.00">Backtrack</text>
</a>
</g>
</g>
<!-- Node3&#45;&gt;Node4 -->
<g id="edge4_Node000004_Node000003" class="edge">
<title>Node3&#45;&gt;Node4</title>
<g id="a_edge4_Node000004_Node000003"><a xlink:title=" ">
<path fill="none" stroke="#63b8ff" d="M65.68,-157.58C70.3,-148.97 75.53,-139.24 79.26,-132.3"/>
<polygon fill="#63b8ff" stroke="#63b8ff" points="62.67,-155.79 61.02,-166.26 68.83,-159.11 62.67,-155.79"/>
</a>
</g>
</g>
<!-- Node4&#45;&gt;Node2 -->
<g id="edge3_Node000002_Node000004" class="edge">
<title>Node4&#45;&gt;Node2</title>
<g id="a_edge3_Node000002_Node000004"><a xlink:title=" ">
<path fill="none" stroke="#63b8ff" d="M73.82,-101.58C69.2,-92.97 63.97,-83.24 60.24,-76.3"/>
<polygon fill="#63b8ff" stroke="#63b8ff" points="70.67,-103.11 78.48,-110.26 76.83,-99.79 70.67,-103.11"/>
</a>
</g>
</g>
</g>
</svg>
