<?xml version="1.0" encoding="UTF-8" standalone="no"?>
<!DOCTYPE svg PUBLIC "-//W3C//DTD SVG 1.1//EN"
 "http://www.w3.org/Graphics/SVG/1.1/DTD/svg11.dtd">
<!-- Generated by graphviz version 10.0.1 (20240210.2158)
 -->
<!-- Title: EBPF::EBPFTablePSADirectMeterPropertyVisitor Pages: 1 -->
<svg width="160pt" height="220pt"
 viewBox="0.00 0.00 159.75 220.00" xmlns="http://www.w3.org/2000/svg" xmlns:xlink="http://www.w3.org/1999/xlink">
<g id="graph0" class="graph" transform="scale(1 1) rotate(0) translate(4 216)">
<title>EBPF::EBPFTablePSADirectMeterPropertyVisitor</title>
<!-- Node1 -->
<g id="Node000001" class="node">
<title>Node1</title>
<g id="a_Node000001"><a xlink:title=" ">
<polygon fill="#999999" stroke="#666666" points="147.62,-32 4.12,-32 4.12,0 147.62,0 147.62,-32"/>
<text text-anchor="start" x="12.12" y="-18.5" font-family="Helvetica,sans-Serif" font-size="10.00">EBPF::EBPFTablePSADirect</text>
<text text-anchor="middle" x="75.88" y="-6.5" font-family="Helvetica,sans-Serif" font-size="10.00">MeterPropertyVisitor</text>
</a>
</g>
</g>
<!-- Node2 -->
<g id="Node000002" class="node">
<title>Node2</title>
<g id="a_Node000002"><a xlink:href="class_e_b_p_f_1_1_e_b_p_f_table_psa_property_visitor.html" target="_top" xlink:title=" ">
<polygon fill="white" stroke="#bfbfbf" points="151.75,-100 0,-100 0,-68 151.75,-68 151.75,-100"/>
<text text-anchor="start" x="8" y="-86.5" font-family="Helvetica,sans-Serif" font-size="10.00">EBPF::EBPFTablePsaProperty</text>
<text text-anchor="middle" x="75.88" y="-74.5" font-family="Helvetica,sans-Serif" font-size="10.00">Visitor</text>
</a>
</g>
</g>
<!-- Node2&#45;&gt;Node1 -->
<g id="edge1_Node000001_Node000002" class="edge">
<title>Node2&#45;&gt;Node1</title>
<g id="a_edge1_Node000001_Node000002"><a xlink:title=" ">
<path fill="none" stroke="#63b8ff" d="M75.88,-56.31C75.88,-48.12 75.88,-39.38 75.88,-32.22"/>
<polygon fill="#63b8ff" stroke="#63b8ff" points="72.38,-56.18 75.88,-66.18 79.38,-56.18 72.38,-56.18"/>
</a>
</g>
</g>
<!-- Node3 -->
<g id="Node000003" class="node">
<title>Node3</title>
<g id="a_Node000003"><a xlink:href="class_inspector.html" target="_top" xlink:title=" ">
<polygon fill="white" stroke="#bfbfbf" points="103.75,-156 48,-156 48,-136 103.75,-136 103.75,-156"/>
<text text-anchor="middle" x="75.88" y="-142.5" font-family="Helvetica,sans-Serif" font-size="10.00">Inspector</text>
</a>
</g>
</g>
<!-- Node3&#45;&gt;Node2 -->
<g id="edge2_Node000002_Node000003" class="edge">
<title>Node3&#45;&gt;Node2</title>
<g id="a_edge2_Node000002_Node000003"><a xlink:title=" ">
<path fill="none" stroke="#63b8ff" d="M75.88,-124.31C75.88,-116.37 75.88,-107.46 75.88,-100.14"/>
<polygon fill="#63b8ff" stroke="#63b8ff" points="72.38,-124.11 75.88,-134.11 79.38,-124.11 72.38,-124.11"/>
</a>
</g>
</g>
<!-- Node4 -->
<g id="Node000004" class="node">
<title>Node4</title>
<g id="a_Node000004"><a xlink:href="class_visitor.html" target="_top" xlink:title=" ">
<polygon fill="white" stroke="#bfbfbf" points="97.75,-212 54,-212 54,-192 97.75,-192 97.75,-212"/>
<text text-anchor="middle" x="75.88" y="-198.5" font-family="Helvetica,sans-Serif" font-size="10.00">Visitor</text>
</a>
</g>
</g>
<!-- Node4&#45;&gt;Node3 -->
<g id="edge3_Node000003_Node000004" class="edge">
<title>Node4&#45;&gt;Node3</title>
<g id="a_edge3_Node000003_Node000004"><a xlink:title=" ">
<path fill="none" stroke="#63b8ff" d="M75.88,-180.13C75.88,-171.9 75.88,-162.85 75.88,-156.3"/>
<polygon fill="#63b8ff" stroke="#63b8ff" points="72.38,-180.08 75.88,-190.08 79.38,-180.08 72.38,-180.08"/>
</a>
</g>
</g>
</g>
</svg>
