<?xml version="1.0" encoding="UTF-8" standalone="no"?>
<!DOCTYPE svg PUBLIC "-//W3C//DTD SVG 1.1//EN"
 "http://www.w3.org/Graphics/SVG/1.1/DTD/svg11.dtd">
<!-- Generated by graphviz version 10.0.1 (20240210.2158)
 -->
<!-- Title: EBPF::EBPFIngressPipeline Pages: 1 -->
<svg width="382pt" height="420pt"
 viewBox="0.00 0.00 381.62 420.00" xmlns="http://www.w3.org/2000/svg" xmlns:xlink="http://www.w3.org/1999/xlink">
<g id="graph0" class="graph" transform="scale(1 1) rotate(0) translate(4 416)">
<title>EBPF::EBPFIngressPipeline</title>
<!-- Node1 -->
<g id="Node000001" class="node">
<title>Node1</title>
<g id="a_Node000001"><a xlink:title=" ">
<polygon fill="#999999" stroke="#666666" points="303.38,-132 162.88,-132 162.88,-112 303.38,-112 303.38,-132"/>
<text text-anchor="middle" x="233.12" y="-118.5" font-family="Helvetica,sans-Serif" font-size="10.00">EBPF::EBPFIngressPipeline</text>
</a>
</g>
</g>
<!-- Node7 -->
<g id="Node000007" class="node">
<title>Node7</title>
<g id="a_Node000007"><a xlink:href="class_e_b_p_f_1_1_t_c_ingress_pipeline.html" target="_top" xlink:title=" ">
<polygon fill="white" stroke="#bfbfbf" points="222.25,-76 96,-76 96,-56 222.25,-56 222.25,-76"/>
<text text-anchor="middle" x="159.12" y="-62.5" font-family="Helvetica,sans-Serif" font-size="10.00">EBPF::TCIngressPipeline</text>
</a>
</g>
</g>
<!-- Node1&#45;&gt;Node7 -->
<g id="edge6_Node000001_Node000007" class="edge">
<title>Node1&#45;&gt;Node7</title>
<g id="a_edge6_Node000001_Node000007"><a xlink:title=" ">
<path fill="none" stroke="#63b8ff" d="M211.14,-104.95C198.34,-95.61 182.65,-84.16 171.87,-76.3"/>
<polygon fill="#63b8ff" stroke="#63b8ff" points="208.87,-107.63 219.01,-110.7 213,-101.98 208.87,-107.63"/>
</a>
</g>
</g>
<!-- Node10 -->
<g id="Node000010" class="node">
<title>Node10</title>
<g id="a_Node000010"><a xlink:href="class_e_b_p_f_1_1_x_d_p_ingress_pipeline.html" target="_top" xlink:title=" ">
<polygon fill="white" stroke="#bfbfbf" points="373.62,-76 240.62,-76 240.62,-56 373.62,-56 373.62,-76"/>
<text text-anchor="middle" x="307.12" y="-62.5" font-family="Helvetica,sans-Serif" font-size="10.00">EBPF::XDPIngressPipeline</text>
</a>
</g>
</g>
<!-- Node1&#45;&gt;Node10 -->
<g id="edge9_Node000001_Node000010" class="edge">
<title>Node1&#45;&gt;Node10</title>
<g id="a_edge9_Node000001_Node000010"><a xlink:title=" ">
<path fill="none" stroke="#63b8ff" d="M255.11,-104.95C267.91,-95.61 283.6,-84.16 294.38,-76.3"/>
<polygon fill="#63b8ff" stroke="#63b8ff" points="253.25,-101.98 247.24,-110.7 257.38,-107.63 253.25,-101.98"/>
</a>
</g>
</g>
<!-- Node2 -->
<g id="Node000002" class="node">
<title>Node2</title>
<g id="a_Node000002"><a xlink:href="class_e_b_p_f_1_1_e_b_p_f_pipeline.html" target="_top" xlink:title=" ">
<polygon fill="white" stroke="#bfbfbf" points="287.62,-188 178.62,-188 178.62,-168 287.62,-168 287.62,-188"/>
<text text-anchor="middle" x="233.12" y="-174.5" font-family="Helvetica,sans-Serif" font-size="10.00">EBPF::EBPFPipeline</text>
</a>
</g>
</g>
<!-- Node2&#45;&gt;Node1 -->
<g id="edge1_Node000001_Node000002" class="edge">
<title>Node2&#45;&gt;Node1</title>
<g id="a_edge1_Node000001_Node000002"><a xlink:title=" ">
<path fill="none" stroke="#63b8ff" d="M233.12,-156.13C233.12,-147.9 233.12,-138.85 233.12,-132.3"/>
<polygon fill="#63b8ff" stroke="#63b8ff" points="229.63,-156.08 233.13,-166.08 236.63,-156.08 229.63,-156.08"/>
</a>
</g>
</g>
<!-- Node3 -->
<g id="Node000003" class="node">
<title>Node3</title>
<g id="a_Node000003"><a xlink:href="class_e_b_p_f_1_1_e_b_p_f_program.html" target="_top" xlink:title=" ">
<polygon fill="white" stroke="#bfbfbf" points="288.75,-244 177.5,-244 177.5,-224 288.75,-224 288.75,-244"/>
<text text-anchor="middle" x="233.12" y="-230.5" font-family="Helvetica,sans-Serif" font-size="10.00">EBPF::EBPFProgram</text>
</a>
</g>
</g>
<!-- Node3&#45;&gt;Node2 -->
<g id="edge2_Node000002_Node000003" class="edge">
<title>Node3&#45;&gt;Node2</title>
<g id="a_edge2_Node000002_Node000003"><a xlink:title=" ">
<path fill="none" stroke="#63b8ff" d="M233.12,-212.13C233.12,-203.9 233.12,-194.85 233.12,-188.3"/>
<polygon fill="#63b8ff" stroke="#63b8ff" points="229.63,-212.08 233.13,-222.08 236.63,-212.08 229.63,-212.08"/>
</a>
</g>
</g>
<!-- Node4 -->
<g id="Node000004" class="node">
<title>Node4</title>
<g id="a_Node000004"><a xlink:href="class_e_b_p_f_1_1_e_b_p_f_object.html" target="_top" xlink:title=" ">
<polygon fill="white" stroke="#bfbfbf" points="284.62,-300 181.62,-300 181.62,-280 284.62,-280 284.62,-300"/>
<text text-anchor="middle" x="233.12" y="-286.5" font-family="Helvetica,sans-Serif" font-size="10.00">EBPF::EBPFObject</text>
</a>
</g>
</g>
<!-- Node4&#45;&gt;Node3 -->
<g id="edge3_Node000003_Node000004" class="edge">
<title>Node4&#45;&gt;Node3</title>
<g id="a_edge3_Node000003_Node000004"><a xlink:title=" ">
<path fill="none" stroke="#63b8ff" d="M233.12,-268.13C233.12,-259.9 233.12,-250.85 233.12,-244.3"/>
<polygon fill="#63b8ff" stroke="#63b8ff" points="229.63,-268.08 233.13,-278.08 236.63,-268.08 229.63,-268.08"/>
</a>
</g>
</g>
<!-- Node5 -->
<g id="Node000005" class="node">
<title>Node5</title>
<g id="a_Node000005"><a xlink:href="class_i_castable.html" target="_top" xlink:title=" ">
<polygon fill="white" stroke="#666666" points="261.38,-356 204.88,-356 204.88,-336 261.38,-336 261.38,-356"/>
<text text-anchor="middle" x="233.12" y="-342.5" font-family="Helvetica,sans-Serif" font-size="10.00">ICastable</text>
</a>
</g>
</g>
<!-- Node5&#45;&gt;Node4 -->
<g id="edge4_Node000004_Node000005" class="edge">
<title>Node5&#45;&gt;Node4</title>
<g id="a_edge4_Node000004_Node000005"><a xlink:title=" ">
<path fill="none" stroke="#63b8ff" d="M233.12,-324.13C233.12,-315.9 233.12,-306.85 233.12,-300.3"/>
<polygon fill="#63b8ff" stroke="#63b8ff" points="229.63,-324.08 233.13,-334.08 236.63,-324.08 229.63,-324.08"/>
</a>
</g>
</g>
<!-- Node6 -->
<g id="Node000006" class="node">
<title>Node6</title>
<g id="a_Node000006"><a xlink:href="struct_r_t_t_i_1_1_base.html" target="_top" xlink:title=" ">
<polygon fill="white" stroke="#bfbfbf" points="265.12,-412 201.12,-412 201.12,-392 265.12,-392 265.12,-412"/>
<text text-anchor="middle" x="233.12" y="-398.5" font-family="Helvetica,sans-Serif" font-size="10.00">RTTI::Base</text>
</a>
</g>
</g>
<!-- Node6&#45;&gt;Node5 -->
<g id="edge5_Node000005_Node000006" class="edge">
<title>Node6&#45;&gt;Node5</title>
<g id="a_edge5_Node000005_Node000006"><a xlink:title=" ">
<path fill="none" stroke="#63b8ff" d="M233.12,-380.13C233.12,-371.9 233.12,-362.85 233.12,-356.3"/>
<polygon fill="#63b8ff" stroke="#63b8ff" points="229.63,-380.08 233.13,-390.08 236.63,-380.08 229.63,-380.08"/>
</a>
</g>
</g>
<!-- Node8 -->
<g id="Node000008" class="node">
<title>Node8</title>
<g id="a_Node000008"><a xlink:href="class_e_b_p_f_1_1_t_c_traffic_manager_for_x_d_p.html" target="_top" xlink:title=" ">
<polygon fill="white" stroke="#bfbfbf" points="156.25,-20 0,-20 0,0 156.25,0 156.25,-20"/>
<text text-anchor="middle" x="78.12" y="-6.5" font-family="Helvetica,sans-Serif" font-size="10.00">EBPF::TCTrafficManagerForXDP</text>
</a>
</g>
</g>
<!-- Node7&#45;&gt;Node8 -->
<g id="edge7_Node000007_Node000008" class="edge">
<title>Node7&#45;&gt;Node8</title>
<g id="a_edge7_Node000007_Node000008"><a xlink:title=" ">
<path fill="none" stroke="#63b8ff" d="M135.53,-49.27C121.54,-39.94 104.27,-28.43 92.34,-20.48"/>
<polygon fill="#63b8ff" stroke="#63b8ff" points="133.49,-52.12 143.76,-54.75 137.38,-46.3 133.49,-52.12"/>
</a>
</g>
</g>
<!-- Node9 -->
<g id="Node000009" class="node">
<title>Node9</title>
<g id="a_Node000009"><a xlink:href="class_t_c_1_1_t_c_ingress_pipeline_p_n_a.html" target="_top" xlink:title=" ">
<polygon fill="white" stroke="#bfbfbf" points="306.25,-20 174,-20 174,0 306.25,0 306.25,-20"/>
<text text-anchor="middle" x="240.12" y="-6.5" font-family="Helvetica,sans-Serif" font-size="10.00">TC::TCIngressPipelinePNA</text>
</a>
</g>
</g>
<!-- Node7&#45;&gt;Node9 -->
<g id="edge8_Node000007_Node000009" class="edge">
<title>Node7&#45;&gt;Node9</title>
<g id="a_edge8_Node000007_Node000009"><a xlink:title=" ">
<path fill="none" stroke="#63b8ff" d="M182.72,-49.27C196.71,-39.94 213.98,-28.43 225.91,-20.48"/>
<polygon fill="#63b8ff" stroke="#63b8ff" points="180.87,-46.3 174.49,-54.75 184.76,-52.12 180.87,-46.3"/>
</a>
</g>
</g>
</g>
</svg>
