<?xml version="1.0" encoding="UTF-8" standalone="no"?>
<!DOCTYPE svg PUBLIC "-//W3C//DTD SVG 1.1//EN"
 "http://www.w3.org/Graphics/SVG/1.1/DTD/svg11.dtd">
<!-- Generated by graphviz version 10.0.1 (20240210.2158)
 -->
<!-- Title: P4::ExternMethod Pages: 1 -->
<svg width="111pt" height="252pt"
 viewBox="0.00 0.00 111.00 252.00" xmlns="http://www.w3.org/2000/svg" xmlns:xlink="http://www.w3.org/1999/xlink">
<g id="graph0" class="graph" transform="scale(1 1) rotate(0) translate(4 248)">
<title>P4::ExternMethod</title>
<!-- Node1 -->
<g id="Node000001" class="node">
<title>Node1</title>
<g id="a_Node000001"><a xlink:title=" ">
<polygon fill="#999999" stroke="#666666" points="98.88,-20 4.12,-20 4.12,0 98.88,0 98.88,-20"/>
<text text-anchor="middle" x="51.5" y="-6.5" font-family="Helvetica,sans-Serif" font-size="10.00">P4::ExternMethod</text>
</a>
</g>
</g>
<!-- Node2 -->
<g id="Node000002" class="node">
<title>Node2</title>
<g id="a_Node000002"><a xlink:href="class_p4_1_1_method_instance.html" target="_top" xlink:title=" ">
<polygon fill="white" stroke="#666666" points="103,-76 0,-76 0,-56 103,-56 103,-76"/>
<text text-anchor="middle" x="51.5" y="-62.5" font-family="Helvetica,sans-Serif" font-size="10.00">P4::MethodInstance</text>
</a>
</g>
</g>
<!-- Node2&#45;&gt;Node1 -->
<g id="edge1_Node000001_Node000002" class="edge">
<title>Node2&#45;&gt;Node1</title>
<g id="a_edge1_Node000001_Node000002"><a xlink:title=" ">
<path fill="none" stroke="#63b8ff" d="M51.5,-44.13C51.5,-35.9 51.5,-26.85 51.5,-20.3"/>
<polygon fill="#63b8ff" stroke="#63b8ff" points="48,-44.08 51.5,-54.08 55,-44.08 48,-44.08"/>
</a>
</g>
</g>
<!-- Node3 -->
<g id="Node000003" class="node">
<title>Node3</title>
<g id="a_Node000003"><a xlink:href="class_p4_1_1_instance_base.html" target="_top" xlink:title=" ">
<polygon fill="white" stroke="#bfbfbf" points="98.12,-132 4.88,-132 4.88,-112 98.12,-112 98.12,-132"/>
<text text-anchor="middle" x="51.5" y="-118.5" font-family="Helvetica,sans-Serif" font-size="10.00">P4::InstanceBase</text>
</a>
</g>
</g>
<!-- Node3&#45;&gt;Node2 -->
<g id="edge2_Node000002_Node000003" class="edge">
<title>Node3&#45;&gt;Node2</title>
<g id="a_edge2_Node000002_Node000003"><a xlink:title=" ">
<path fill="none" stroke="#63b8ff" d="M51.5,-100.13C51.5,-91.9 51.5,-82.85 51.5,-76.3"/>
<polygon fill="#63b8ff" stroke="#63b8ff" points="48,-100.08 51.5,-110.08 55,-100.08 48,-100.08"/>
</a>
</g>
</g>
<!-- Node4 -->
<g id="Node000004" class="node">
<title>Node4</title>
<g id="a_Node000004"><a xlink:href="class_i_castable.html" target="_top" xlink:title=" ">
<polygon fill="white" stroke="#666666" points="79.75,-188 23.25,-188 23.25,-168 79.75,-168 79.75,-188"/>
<text text-anchor="middle" x="51.5" y="-174.5" font-family="Helvetica,sans-Serif" font-size="10.00">ICastable</text>
</a>
</g>
</g>
<!-- Node4&#45;&gt;Node3 -->
<g id="edge3_Node000003_Node000004" class="edge">
<title>Node4&#45;&gt;Node3</title>
<g id="a_edge3_Node000003_Node000004"><a xlink:title=" ">
<path fill="none" stroke="#63b8ff" d="M51.5,-156.13C51.5,-147.9 51.5,-138.85 51.5,-132.3"/>
<polygon fill="#63b8ff" stroke="#63b8ff" points="48,-156.08 51.5,-166.08 55,-156.08 48,-156.08"/>
</a>
</g>
</g>
<!-- Node5 -->
<g id="Node000005" class="node">
<title>Node5</title>
<g id="a_Node000005"><a xlink:href="struct_r_t_t_i_1_1_base.html" target="_top" xlink:title=" ">
<polygon fill="white" stroke="#bfbfbf" points="83.5,-244 19.5,-244 19.5,-224 83.5,-224 83.5,-244"/>
<text text-anchor="middle" x="51.5" y="-230.5" font-family="Helvetica,sans-Serif" font-size="10.00">RTTI::Base</text>
</a>
</g>
</g>
<!-- Node5&#45;&gt;Node4 -->
<g id="edge4_Node000004_Node000005" class="edge">
<title>Node5&#45;&gt;Node4</title>
<g id="a_edge4_Node000004_Node000005"><a xlink:title=" ">
<path fill="none" stroke="#63b8ff" d="M51.5,-212.13C51.5,-203.9 51.5,-194.85 51.5,-188.3"/>
<polygon fill="#63b8ff" stroke="#63b8ff" points="48,-212.08 51.5,-222.08 55,-212.08 48,-212.08"/>
</a>
</g>
</g>
</g>
</svg>
