<?xml version="1.0" encoding="UTF-8" standalone="no"?>
<!DOCTYPE svg PUBLIC "-//W3C//DTD SVG 1.1//EN"
 "http://www.w3.org/Graphics/SVG/1.1/DTD/svg11.dtd">
<!-- Generated by graphviz version 10.0.1 (20240210.2158)
 -->
<!-- Title: EBPF::EBPFChecksumPSA Pages: 1 -->
<svg width="316pt" height="252pt"
 viewBox="0.00 0.00 316.38 252.00" xmlns="http://www.w3.org/2000/svg" xmlns:xlink="http://www.w3.org/1999/xlink">
<g id="graph0" class="graph" transform="scale(1 1) rotate(0) translate(4 248)">
<title>EBPF::EBPFChecksumPSA</title>
<!-- Node1 -->
<g id="Node000001" class="node">
<title>Node1</title>
<g id="a_Node000001"><a xlink:title=" ">
<polygon fill="#999999" stroke="#666666" points="210.25,-76 69,-76 69,-56 210.25,-56 210.25,-76"/>
<text text-anchor="middle" x="139.62" y="-62.5" font-family="Helvetica,sans-Serif" font-size="10.00">EBPF::EBPFChecksumPSA</text>
</a>
</g>
</g>
<!-- Node5 -->
<g id="Node000005" class="node">
<title>Node5</title>
<g id="a_Node000005"><a xlink:href="class_e_b_p_f_1_1_e_b_p_f_hash_p_s_a.html" target="_top" xlink:title=" ">
<polygon fill="white" stroke="#bfbfbf" points="117.25,-20 0,-20 0,0 117.25,0 117.25,-20"/>
<text text-anchor="middle" x="58.62" y="-6.5" font-family="Helvetica,sans-Serif" font-size="10.00">EBPF::EBPFHashPSA</text>
</a>
</g>
</g>
<!-- Node1&#45;&gt;Node5 -->
<g id="edge4_Node000001_Node000005" class="edge">
<title>Node1&#45;&gt;Node5</title>
<g id="a_edge4_Node000001_Node000005"><a xlink:title=" ">
<path fill="none" stroke="#63b8ff" d="M116.03,-49.27C102.04,-39.94 84.77,-28.43 72.84,-20.48"/>
<polygon fill="#63b8ff" stroke="#63b8ff" points="113.99,-52.12 124.26,-54.75 117.88,-46.3 113.99,-52.12"/>
</a>
</g>
</g>
<!-- Node6 -->
<g id="Node000006" class="node">
<title>Node6</title>
<g id="a_Node000006"><a xlink:href="class_e_b_p_f_1_1_e_b_p_f_internet_checksum_p_s_a.html" target="_top" xlink:title=" ">
<polygon fill="white" stroke="#bfbfbf" points="308.38,-20 134.88,-20 134.88,0 308.38,0 308.38,-20"/>
<text text-anchor="middle" x="221.62" y="-6.5" font-family="Helvetica,sans-Serif" font-size="10.00">EBPF::EBPFInternetChecksumPSA</text>
</a>
</g>
</g>
<!-- Node1&#45;&gt;Node6 -->
<g id="edge5_Node000001_Node000006" class="edge">
<title>Node1&#45;&gt;Node6</title>
<g id="a_edge5_Node000001_Node000006"><a xlink:title=" ">
<path fill="none" stroke="#63b8ff" d="M163.51,-49.27C177.67,-39.94 195.16,-28.43 207.23,-20.48"/>
<polygon fill="#63b8ff" stroke="#63b8ff" points="161.6,-46.34 155.17,-54.76 165.45,-52.18 161.6,-46.34"/>
</a>
</g>
</g>
<!-- Node2 -->
<g id="Node000002" class="node">
<title>Node2</title>
<g id="a_Node000002"><a xlink:href="class_e_b_p_f_1_1_e_b_p_f_object.html" target="_top" xlink:title=" ">
<polygon fill="white" stroke="#bfbfbf" points="191.12,-132 88.12,-132 88.12,-112 191.12,-112 191.12,-132"/>
<text text-anchor="middle" x="139.62" y="-118.5" font-family="Helvetica,sans-Serif" font-size="10.00">EBPF::EBPFObject</text>
</a>
</g>
</g>
<!-- Node2&#45;&gt;Node1 -->
<g id="edge1_Node000001_Node000002" class="edge">
<title>Node2&#45;&gt;Node1</title>
<g id="a_edge1_Node000001_Node000002"><a xlink:title=" ">
<path fill="none" stroke="#63b8ff" d="M139.62,-100.13C139.62,-91.9 139.62,-82.85 139.62,-76.3"/>
<polygon fill="#63b8ff" stroke="#63b8ff" points="136.13,-100.08 139.63,-110.08 143.13,-100.08 136.13,-100.08"/>
</a>
</g>
</g>
<!-- Node3 -->
<g id="Node000003" class="node">
<title>Node3</title>
<g id="a_Node000003"><a xlink:href="class_i_castable.html" target="_top" xlink:title=" ">
<polygon fill="white" stroke="#666666" points="167.88,-188 111.38,-188 111.38,-168 167.88,-168 167.88,-188"/>
<text text-anchor="middle" x="139.62" y="-174.5" font-family="Helvetica,sans-Serif" font-size="10.00">ICastable</text>
</a>
</g>
</g>
<!-- Node3&#45;&gt;Node2 -->
<g id="edge2_Node000002_Node000003" class="edge">
<title>Node3&#45;&gt;Node2</title>
<g id="a_edge2_Node000002_Node000003"><a xlink:title=" ">
<path fill="none" stroke="#63b8ff" d="M139.62,-156.13C139.62,-147.9 139.62,-138.85 139.62,-132.3"/>
<polygon fill="#63b8ff" stroke="#63b8ff" points="136.13,-156.08 139.63,-166.08 143.13,-156.08 136.13,-156.08"/>
</a>
</g>
</g>
<!-- Node4 -->
<g id="Node000004" class="node">
<title>Node4</title>
<g id="a_Node000004"><a xlink:href="struct_r_t_t_i_1_1_base.html" target="_top" xlink:title=" ">
<polygon fill="white" stroke="#bfbfbf" points="171.62,-244 107.62,-244 107.62,-224 171.62,-224 171.62,-244"/>
<text text-anchor="middle" x="139.62" y="-230.5" font-family="Helvetica,sans-Serif" font-size="10.00">RTTI::Base</text>
</a>
</g>
</g>
<!-- Node4&#45;&gt;Node3 -->
<g id="edge3_Node000003_Node000004" class="edge">
<title>Node4&#45;&gt;Node3</title>
<g id="a_edge3_Node000003_Node000004"><a xlink:title=" ">
<path fill="none" stroke="#63b8ff" d="M139.62,-212.13C139.62,-203.9 139.62,-194.85 139.62,-188.3"/>
<polygon fill="#63b8ff" stroke="#63b8ff" points="136.13,-212.08 139.63,-222.08 143.13,-212.08 136.13,-212.08"/>
</a>
</g>
</g>
</g>
</svg>
