<?xml version="1.0" encoding="UTF-8" standalone="no"?>
<!DOCTYPE svg PUBLIC "-//W3C//DTD SVG 1.1//EN"
 "http://www.w3.org/Graphics/SVG/1.1/DTD/svg11.dtd">
<!-- Generated by graphviz version 10.0.1 (20240210.2158)
 -->
<!-- Title: P4CContextWithOptions&lt; OptionsType &gt; Pages: 1 -->
<svg width="131pt" height="208pt"
 viewBox="0.00 0.00 130.50 208.00" xmlns="http://www.w3.org/2000/svg" xmlns:xlink="http://www.w3.org/1999/xlink">
<g id="graph0" class="graph" transform="scale(1 1) rotate(0) translate(4 204)">
<title>P4CContextWithOptions&lt; OptionsType &gt;</title>
<!-- Node1 -->
<g id="Node000001" class="node">
<title>Node1</title>
<g id="a_Node000001"><a xlink:title=" ">
<polygon fill="#999999" stroke="#666666" points="122.5,-32 0,-32 0,0 122.5,0 122.5,-32"/>
<text text-anchor="start" x="8" y="-18.5" font-family="Helvetica,sans-Serif" font-size="10.00">P4CContextWithOptions</text>
<text text-anchor="middle" x="61.25" y="-6.5" font-family="Helvetica,sans-Serif" font-size="10.00">&lt; OptionsType &gt;</text>
</a>
</g>
</g>
<!-- Node2 -->
<g id="Node000002" class="node">
<title>Node2</title>
<g id="a_Node000002"><a xlink:href="class_p4_c_context.html" target="_top" xlink:title=" ">
<polygon fill="white" stroke="#666666" points="95.5,-88 27,-88 27,-68 95.5,-68 95.5,-88"/>
<text text-anchor="middle" x="61.25" y="-74.5" font-family="Helvetica,sans-Serif" font-size="10.00">P4CContext</text>
</a>
</g>
</g>
<!-- Node2&#45;&gt;Node1 -->
<g id="edge1_Node000001_Node000002" class="edge">
<title>Node2&#45;&gt;Node1</title>
<g id="a_edge1_Node000001_Node000002"><a xlink:title=" ">
<path fill="none" stroke="#63b8ff" d="M61.25,-56.31C61.25,-48.37 61.25,-39.46 61.25,-32.14"/>
<polygon fill="#63b8ff" stroke="#63b8ff" points="57.75,-56.11 61.25,-66.11 64.75,-56.11 57.75,-56.11"/>
</a>
</g>
</g>
<!-- Node3 -->
<g id="Node000003" class="node">
<title>Node3</title>
<g id="a_Node000003"><a xlink:href="class_base_compile_context.html" target="_top" xlink:title=" ">
<polygon fill="white" stroke="#666666" points="115,-144 7.5,-144 7.5,-124 115,-124 115,-144"/>
<text text-anchor="middle" x="61.25" y="-130.5" font-family="Helvetica,sans-Serif" font-size="10.00">BaseCompileContext</text>
</a>
</g>
</g>
<!-- Node3&#45;&gt;Node2 -->
<g id="edge2_Node000002_Node000003" class="edge">
<title>Node3&#45;&gt;Node2</title>
<g id="a_edge2_Node000002_Node000003"><a xlink:title=" ">
<path fill="none" stroke="#63b8ff" d="M61.25,-112.13C61.25,-103.9 61.25,-94.85 61.25,-88.3"/>
<polygon fill="#63b8ff" stroke="#63b8ff" points="57.75,-112.08 61.25,-122.08 64.75,-112.08 57.75,-112.08"/>
</a>
</g>
</g>
<!-- Node4 -->
<g id="Node000004" class="node">
<title>Node4</title>
<g id="a_Node000004"><a xlink:href="class_i_compile_context.html" target="_top" xlink:title=" ">
<polygon fill="white" stroke="#666666" points="104.88,-200 17.62,-200 17.62,-180 104.88,-180 104.88,-200"/>
<text text-anchor="middle" x="61.25" y="-186.5" font-family="Helvetica,sans-Serif" font-size="10.00">ICompileContext</text>
</a>
</g>
</g>
<!-- Node4&#45;&gt;Node3 -->
<g id="edge3_Node000003_Node000004" class="edge">
<title>Node4&#45;&gt;Node3</title>
<g id="a_edge3_Node000003_Node000004"><a xlink:title=" ">
<path fill="none" stroke="#63b8ff" d="M61.25,-168.13C61.25,-159.9 61.25,-150.85 61.25,-144.3"/>
<polygon fill="#63b8ff" stroke="#63b8ff" points="57.75,-168.08 61.25,-178.08 64.75,-168.08 57.75,-168.08"/>
</a>
</g>
</g>
</g>
</svg>
