<?xml version="1.0" encoding="UTF-8" standalone="no"?>
<!DOCTYPE svg PUBLIC "-//W3C//DTD SVG 1.1//EN"
 "http://www.w3.org/Graphics/SVG/1.1/DTD/svg11.dtd">
<!-- Generated by graphviz version 10.0.1 (20240210.2158)
 -->
<!-- Title: P4::SymbolicBool Pages: 1 -->
<svg width="154pt" height="252pt"
 viewBox="0.00 0.00 153.88 252.00" xmlns="http://www.w3.org/2000/svg" xmlns:xlink="http://www.w3.org/1999/xlink">
<g id="graph0" class="graph" transform="scale(1 1) rotate(0) translate(4 248)">
<title>P4::SymbolicBool</title>
<!-- Node1 -->
<g id="Node000001" class="node">
<title>Node1</title>
<g id="a_Node000001"><a xlink:title=" ">
<polygon fill="#999999" stroke="#666666" points="120.88,-20 26.87,-20 26.87,0 120.88,0 120.88,-20"/>
<text text-anchor="middle" x="73.88" y="-6.5" font-family="Helvetica,sans-Serif" font-size="10.00">P4::SymbolicBool</text>
</a>
</g>
</g>
<!-- Node2 -->
<g id="Node000002" class="node">
<title>Node2</title>
<g id="a_Node000002"><a xlink:href="class_p4_1_1_scalar_value.html" target="_top" xlink:title=" ">
<polygon fill="white" stroke="#bfbfbf" points="117.12,-76 30.62,-76 30.62,-56 117.12,-56 117.12,-76"/>
<text text-anchor="middle" x="73.88" y="-62.5" font-family="Helvetica,sans-Serif" font-size="10.00">P4::ScalarValue</text>
</a>
</g>
</g>
<!-- Node2&#45;&gt;Node1 -->
<g id="edge1_Node000001_Node000002" class="edge">
<title>Node2&#45;&gt;Node1</title>
<g id="a_edge1_Node000001_Node000002"><a xlink:title=" ">
<path fill="none" stroke="#63b8ff" d="M73.88,-44.13C73.88,-35.9 73.88,-26.85 73.88,-20.3"/>
<polygon fill="#63b8ff" stroke="#63b8ff" points="70.38,-44.08 73.88,-54.08 77.38,-44.08 70.38,-44.08"/>
</a>
</g>
</g>
<!-- Node3 -->
<g id="Node000003" class="node">
<title>Node3</title>
<g id="a_Node000003"><a xlink:href="class_p4_1_1_symbolic_value.html" target="_top" xlink:title=" ">
<polygon fill="white" stroke="#bfbfbf" points="123.5,-132 24.25,-132 24.25,-112 123.5,-112 123.5,-132"/>
<text text-anchor="middle" x="73.88" y="-118.5" font-family="Helvetica,sans-Serif" font-size="10.00">P4::SymbolicValue</text>
</a>
</g>
</g>
<!-- Node3&#45;&gt;Node2 -->
<g id="edge2_Node000002_Node000003" class="edge">
<title>Node3&#45;&gt;Node2</title>
<g id="a_edge2_Node000002_Node000003"><a xlink:title=" ">
<path fill="none" stroke="#63b8ff" d="M73.88,-100.13C73.88,-91.9 73.88,-82.85 73.88,-76.3"/>
<polygon fill="#63b8ff" stroke="#63b8ff" points="70.38,-100.08 73.88,-110.08 77.38,-100.08 70.38,-100.08"/>
</a>
</g>
</g>
<!-- Node4 -->
<g id="Node000004" class="node">
<title>Node4</title>
<g id="a_Node000004"><a xlink:href="class_i_has_db_print.html" target="_top" xlink:title=" ">
<polygon fill="white" stroke="#bfbfbf" points="67.75,-188 0,-188 0,-168 67.75,-168 67.75,-188"/>
<text text-anchor="middle" x="33.88" y="-174.5" font-family="Helvetica,sans-Serif" font-size="10.00">IHasDbPrint</text>
</a>
</g>
</g>
<!-- Node4&#45;&gt;Node3 -->
<g id="edge3_Node000003_Node000004" class="edge">
<title>Node4&#45;&gt;Node3</title>
<g id="a_edge3_Node000003_Node000004"><a xlink:title=" ">
<path fill="none" stroke="#63b8ff" d="M47.63,-158.44C54.16,-149.62 61.68,-139.47 66.99,-132.3"/>
<polygon fill="#63b8ff" stroke="#63b8ff" points="44.88,-156.26 41.74,-166.38 50.51,-160.43 44.88,-156.26"/>
</a>
</g>
</g>
<!-- Node5 -->
<g id="Node000005" class="node">
<title>Node5</title>
<g id="a_Node000005"><a xlink:href="class_i_castable.html" target="_top" xlink:title=" ">
<polygon fill="white" stroke="#666666" points="142.12,-188 85.62,-188 85.62,-168 142.12,-168 142.12,-188"/>
<text text-anchor="middle" x="113.88" y="-174.5" font-family="Helvetica,sans-Serif" font-size="10.00">ICastable</text>
</a>
</g>
</g>
<!-- Node5&#45;&gt;Node3 -->
<g id="edge4_Node000003_Node000005" class="edge">
<title>Node5&#45;&gt;Node3</title>
<g id="a_edge4_Node000003_Node000005"><a xlink:title=" ">
<path fill="none" stroke="#63b8ff" d="M100.12,-158.44C93.59,-149.62 86.07,-139.47 80.76,-132.3"/>
<polygon fill="#63b8ff" stroke="#63b8ff" points="97.24,-160.43 106.01,-166.38 102.87,-156.26 97.24,-160.43"/>
</a>
</g>
</g>
<!-- Node6 -->
<g id="Node000006" class="node">
<title>Node6</title>
<g id="a_Node000006"><a xlink:href="struct_r_t_t_i_1_1_base.html" target="_top" xlink:title=" ">
<polygon fill="white" stroke="#bfbfbf" points="145.88,-244 81.88,-244 81.88,-224 145.88,-224 145.88,-244"/>
<text text-anchor="middle" x="113.88" y="-230.5" font-family="Helvetica,sans-Serif" font-size="10.00">RTTI::Base</text>
</a>
</g>
</g>
<!-- Node6&#45;&gt;Node5 -->
<g id="edge5_Node000005_Node000006" class="edge">
<title>Node6&#45;&gt;Node5</title>
<g id="a_edge5_Node000005_Node000006"><a xlink:title=" ">
<path fill="none" stroke="#63b8ff" d="M113.88,-212.13C113.88,-203.9 113.88,-194.85 113.88,-188.3"/>
<polygon fill="#63b8ff" stroke="#63b8ff" points="110.38,-212.08 113.88,-222.08 117.38,-212.08 110.38,-212.08"/>
</a>
</g>
</g>
</g>
</svg>
