<?xml version="1.0" encoding="UTF-8" standalone="no"?>
<!DOCTYPE svg PUBLIC "-//W3C//DTD SVG 1.1//EN"
 "http://www.w3.org/Graphics/SVG/1.1/DTD/svg11.dtd">
<!-- Generated by graphviz version 10.0.1 (20240210.2158)
 -->
<!-- Title: P4Tools::P4Testgen::ProgramInfo Pages: 1 -->
<svg width="679pt" height="140pt"
 viewBox="0.00 0.00 679.00 140.00" xmlns="http://www.w3.org/2000/svg" xmlns:xlink="http://www.w3.org/1999/xlink">
<g id="graph0" class="graph" transform="scale(1 1) rotate(0) translate(4 136)">
<title>P4Tools::P4Testgen::ProgramInfo</title>
<!-- Node1 -->
<g id="Node000001" class="node">
<title>Node1</title>
<g id="a_Node000001"><a xlink:title="Stores target&#45;specific information about a P4 program.">
<polygon fill="#999999" stroke="#666666" points="296.25,-82 192.5,-82 192.5,-50 296.25,-50 296.25,-82"/>
<text text-anchor="start" x="200.5" y="-68.5" font-family="Helvetica,sans-Serif" font-size="10.00">P4Tools::P4Testgen</text>
<text text-anchor="middle" x="244.38" y="-56.5" font-family="Helvetica,sans-Serif" font-size="10.00">::ProgramInfo</text>
</a>
</g>
</g>
<!-- Node4 -->
<g id="Node000004" class="node">
<title>Node4</title>
<g id="a_Node000004"><a xlink:href="class_p4_tools_1_1_p4_testgen_1_1_bmv2_1_1_bmv2_v1_model_program_info.html" target="_top" xlink:title=" ">
<polygon fill="white" stroke="#bfbfbf" points="498.25,-132 332.25,-132 332.25,-100 498.25,-100 498.25,-132"/>
<text text-anchor="start" x="340.25" y="-118.5" font-family="Helvetica,sans-Serif" font-size="10.00">P4Tools::P4Testgen</text>
<text text-anchor="middle" x="415.25" y="-106.5" font-family="Helvetica,sans-Serif" font-size="10.00">::Bmv2::Bmv2V1ModelProgramInfo</text>
</a>
</g>
</g>
<!-- Node1&#45;&gt;Node4 -->
<g id="edge3_Node000001_Node000004" class="edge">
<title>Node1&#45;&gt;Node4</title>
<g id="a_edge3_Node000001_Node000004"><a xlink:title=" ">
<path fill="none" stroke="#63b8ff" d="M307.32,-84.34C324.11,-89.31 342.17,-94.66 358.59,-99.52"/>
<polygon fill="#63b8ff" stroke="#63b8ff" points="308.53,-81.05 297.95,-81.57 306.55,-87.76 308.53,-81.05"/>
</a>
</g>
</g>
<!-- Node5 -->
<g id="Node000005" class="node">
<title>Node5</title>
<g id="a_Node000005"><a xlink:href="class_p4_tools_1_1_p4_testgen_1_1_e_b_p_f_1_1_e_b_p_f_program_info.html" target="_top" xlink:title=" ">
<polygon fill="white" stroke="#bfbfbf" points="481.38,-82 349.12,-82 349.12,-50 481.38,-50 481.38,-82"/>
<text text-anchor="start" x="357.12" y="-68.5" font-family="Helvetica,sans-Serif" font-size="10.00">P4Tools::P4Testgen</text>
<text text-anchor="middle" x="415.25" y="-56.5" font-family="Helvetica,sans-Serif" font-size="10.00">::EBPF::EBPFProgramInfo</text>
</a>
</g>
</g>
<!-- Node1&#45;&gt;Node5 -->
<g id="edge4_Node000001_Node000005" class="edge">
<title>Node1&#45;&gt;Node5</title>
<g id="a_edge4_Node000001_Node000005"><a xlink:title=" ">
<path fill="none" stroke="#63b8ff" d="M307.99,-66C321.34,-66 335.47,-66 348.92,-66"/>
<polygon fill="#63b8ff" stroke="#63b8ff" points="308.01,-62.5 298.01,-66 308.01,-69.5 308.01,-62.5"/>
</a>
</g>
</g>
<!-- Node6 -->
<g id="Node000006" class="node">
<title>Node6</title>
<g id="a_Node000006"><a xlink:href="class_p4_tools_1_1_p4_testgen_1_1_pna_1_1_shared_pna_program_info.html" target="_top" xlink:title=" ">
<polygon fill="white" stroke="#bfbfbf" points="487.75,-32 342.75,-32 342.75,0 487.75,0 487.75,-32"/>
<text text-anchor="start" x="350.75" y="-18.5" font-family="Helvetica,sans-Serif" font-size="10.00">P4Tools::P4Testgen</text>
<text text-anchor="middle" x="415.25" y="-6.5" font-family="Helvetica,sans-Serif" font-size="10.00">::Pna::SharedPnaProgramInfo</text>
</a>
</g>
</g>
<!-- Node1&#45;&gt;Node6 -->
<g id="edge5_Node000001_Node000006" class="edge">
<title>Node1&#45;&gt;Node6</title>
<g id="a_edge5_Node000001_Node000006"><a xlink:title=" ">
<path fill="none" stroke="#63b8ff" d="M307.32,-47.66C324.11,-42.69 342.17,-37.34 358.59,-32.48"/>
<polygon fill="#63b8ff" stroke="#63b8ff" points="306.55,-44.24 297.95,-50.43 308.53,-50.95 306.55,-44.24"/>
</a>
</g>
</g>
<!-- Node2 -->
<g id="Node000002" class="node">
<title>Node2</title>
<g id="a_Node000002"><a xlink:href="class_i_castable.html" target="_top" xlink:title=" ">
<polygon fill="white" stroke="#666666" points="156.5,-76 100,-76 100,-56 156.5,-56 156.5,-76"/>
<text text-anchor="middle" x="128.25" y="-62.5" font-family="Helvetica,sans-Serif" font-size="10.00">ICastable</text>
</a>
</g>
</g>
<!-- Node2&#45;&gt;Node1 -->
<g id="edge1_Node000001_Node000002" class="edge">
<title>Node2&#45;&gt;Node1</title>
<g id="a_edge1_Node000001_Node000002"><a xlink:title=" ">
<path fill="none" stroke="#63b8ff" d="M168.2,-66C175.98,-66 184.25,-66 192.36,-66"/>
<polygon fill="#63b8ff" stroke="#63b8ff" points="168.39,-62.5 158.39,-66 168.39,-69.5 168.39,-62.5"/>
</a>
</g>
</g>
<!-- Node3 -->
<g id="Node000003" class="node">
<title>Node3</title>
<g id="a_Node000003"><a xlink:href="struct_r_t_t_i_1_1_base.html" target="_top" xlink:title=" ">
<polygon fill="white" stroke="#bfbfbf" points="64,-76 0,-76 0,-56 64,-56 64,-76"/>
<text text-anchor="middle" x="32" y="-62.5" font-family="Helvetica,sans-Serif" font-size="10.00">RTTI::Base</text>
</a>
</g>
</g>
<!-- Node3&#45;&gt;Node2 -->
<g id="edge2_Node000002_Node000003" class="edge">
<title>Node3&#45;&gt;Node2</title>
<g id="a_edge2_Node000002_Node000003"><a xlink:title=" ">
<path fill="none" stroke="#63b8ff" d="M75.72,-66C83.9,-66 92.26,-66 99.8,-66"/>
<polygon fill="#63b8ff" stroke="#63b8ff" points="75.9,-62.5 65.9,-66 75.9,-69.5 75.9,-62.5"/>
</a>
</g>
</g>
<!-- Node7 -->
<g id="Node000007" class="node">
<title>Node7</title>
<g id="a_Node000007"><a xlink:href="class_p4_tools_1_1_p4_testgen_1_1_pna_1_1_pna_dpdk_program_info.html" target="_top" xlink:title=" ">
<polygon fill="white" stroke="#bfbfbf" points="671,-32 534.25,-32 534.25,0 671,0 671,-32"/>
<text text-anchor="start" x="542.25" y="-18.5" font-family="Helvetica,sans-Serif" font-size="10.00">P4Tools::P4Testgen</text>
<text text-anchor="middle" x="602.62" y="-6.5" font-family="Helvetica,sans-Serif" font-size="10.00">::Pna::PnaDpdkProgramInfo</text>
</a>
</g>
</g>
<!-- Node6&#45;&gt;Node7 -->
<g id="edge6_Node000006_Node000007" class="edge">
<title>Node6&#45;&gt;Node7</title>
<g id="a_edge6_Node000006_Node000007"><a xlink:title=" ">
<path fill="none" stroke="#63b8ff" d="M499.6,-16C511.11,-16 522.81,-16 533.98,-16"/>
<polygon fill="#63b8ff" stroke="#63b8ff" points="499.7,-12.5 489.7,-16 499.7,-19.5 499.7,-12.5"/>
</a>
</g>
</g>
</g>
</svg>
