<?xml version="1.0" encoding="UTF-8" standalone="no"?>
<!DOCTYPE svg PUBLIC "-//W3C//DTD SVG 1.1//EN"
 "http://www.w3.org/Graphics/SVG/1.1/DTD/svg11.dtd">
<!-- Generated by graphviz version 10.0.1 (20240210.2158)
 -->
<!-- Title: B:/OSP/P4c&#45;Documentation&#45;Hosting/backends/p4tools/modules/testgen/targets/bmv2/test Pages: 1 -->
<!--zoomable 96 -->

<svg id="main" version="1.1" xmlns="http://www.w3.org/2000/svg" xmlns:xlink="http://www.w3.org/1999/xlink" xml:space="preserve" onload="init(evt)">
<style type="text/css"><![CDATA[
.node, .edge {opacity: 0.7;}
.node.selected, .edge.selected {opacity: 1;}
.edge:hover path { stroke: red; }
.edge:hover polygon { stroke: red; fill: red; }
]]></style>

<defs>
  <circle id="rim" cx="0" cy="0" r="7"/>
  <circle id="rim2" cx="0" cy="0" r="3.5"/>
  <g id="zoomPlus">
    <use xlink:href="#rim" fill="#404040"><set attributeName="fill" to="#808080" begin="zoomplus.mouseover" end="zoomplus.mouseout"/></use>
    <path d="M-4,0h8M0,-4v8" fill="none" stroke="white" stroke-width="1.5" pointer-events="none"/>
  </g>
  <g id="zoomMin">
    <use xlink:href="#rim" fill="#404040"><set attributeName="fill" to="#808080" begin="zoomminus.mouseover" end="zoomminus.mouseout"/></use>
    <path d="M-4,0h8" fill="none" stroke="white" stroke-width="1.5" pointer-events="none"/>
  </g>
  <g id="arrowUp" transform="translate(30 24)">
    <use xlink:href="#rim"/>
    <path pointer-events="none" fill="none" stroke="white" stroke-width="1.5" d="M0,-3.0v7 M-2.5,-0.5L0,-3.0L2.5,-0.5"/>
  </g>
  <g id="arrowRight" transform="rotate(90) translate(36 -43)">
    <use xlink:href="#rim"/>
    <path pointer-events="none" fill="none" stroke="white" stroke-width="1.5" d="M0,-3.0v7 M-2.5,-0.5L0,-3.0L2.5,-0.5"/>
  </g>
  <g id="arrowDown" transform="rotate(180) translate(-30 -48)">
    <use xlink:href="#rim"/>
    <path pointer-events="none" fill="none" stroke="white" stroke-width="1.5" d="M0,-3.0v7 M-2.5,-0.5L0,-3.0L2.5,-0.5"/>
  </g>
  <g id="arrowLeft" transform="rotate(270) translate(-36 17)">
    <use xlink:href="#rim"/>
    <path pointer-events="none" fill="none" stroke="white" stroke-width="1.5" d="M0,-3.0v7 M-2.5,-0.5L0,-3.0L2.5,-0.5"/>
  </g>
  <g id="resetDef">
    <use xlink:href="#rim2" fill="#404040"><set attributeName="fill" to="#808080" begin="reset.mouseover" end="reset.mouseout"/></use>
  </g>
</defs>
<script type="application/ecmascript">
var viewWidth = 518;
var viewHeight = 96;
var sectionId = 'dynsection-0';
</script>
<script type="application/ecmascript" xlink:href="svg.min.js"/>
<svg id="graph" class="graph">
<g id="viewport">
<title>B:/OSP/P4c&#45;Documentation&#45;Hosting/backends/p4tools/modules/testgen/targets/bmv2/test</title>
<g id="clust1" class="cluster">
<title>clusterdir_7caa90b78c862cc680110a1462156d97</title>
<g id="a_clust1"><a xlink:href="dir_7caa90b78c862cc680110a1462156d97.html" target="_top" xlink:title="bmv2">
<polygon fill="#edf0f7" stroke="#7f7f7f" stroke-dasharray="5,2" points="8,-8 8,-80 502,-80 502,-8 8,-8"/>
<text text-anchor="middle" x="255" y="-66.5" font-family="Helvetica,sans-Serif" font-size="10.00">bmv2</text>
</a>
</g>
</g>
<g id="clust2" class="cluster">
<title>clusterdir_62f7a670941186e7df5f1eb8ae7c622a</title>
<g id="a_clust2"><a xlink:href="dir_62f7a670941186e7df5f1eb8ae7c622a.html" target="_top">
<polygon fill="#edf0f7" stroke="#404040" stroke-width="2" points="16,-16 16,-52 494,-52 494,-16 16,-16"/>
</a>
</g>
</g>
<!-- dir_62f7a670941186e7df5f1eb8ae7c622a -->
<g id="node1" class="node">
<title>dir_62f7a670941186e7df5f1eb8ae7c622a</title>
<text text-anchor="middle" x="40" y="-30.5" font-family="Helvetica,sans-Serif" font-size="10.00">test</text>
</g>
<!-- dir_ea01170bdb77a9d3129293aa3c31196c -->
<g id="node2" class="node">
<title>dir_ea01170bdb77a9d3129293aa3c31196c</title>
<g id="a_node2"><a xlink:href="dir_ea01170bdb77a9d3129293aa3c31196c.html" target="_top" xlink:title="small&#45;step">
<polygon fill="#a2b4d6" stroke="#404040" points="135.5,-44 74.5,-44 74.5,-24 135.5,-24 135.5,-44"/>
<text text-anchor="middle" x="105" y="-30.5" font-family="Helvetica,sans-Serif" font-size="10.00">small&#45;step</text>
</a>
</g>
</g>
<!-- dir_79229f4310fe77a1b0f7e9d6bbd09148 -->
<g id="node3" class="node">
<title>dir_79229f4310fe77a1b0f7e9d6bbd09148</title>
<g id="a_node3"><a xlink:href="dir_79229f4310fe77a1b0f7e9d6bbd09148.html" target="_top" xlink:title="test_backend">
<polygon fill="#a2b4d6" stroke="#404040" points="228.25,-44 153.75,-44 153.75,-24 228.25,-24 228.25,-44"/>
<text text-anchor="middle" x="191" y="-30.5" font-family="Helvetica,sans-Serif" font-size="10.00">test_backend</text>
</a>
</g>
</g>
<!-- dir_bd8bff2aed5908331b11609310c7ab05 -->
<g id="node4" class="node">
<title>dir_bd8bff2aed5908331b11609310c7ab05</title>
<g id="a_node4"><a xlink:href="dir_bd8bff2aed5908331b11609310c7ab05.html" target="_top" xlink:title="testgen_api">
<polygon fill="#a2b4d6" stroke="#404040" points="312.12,-44 245.88,-44 245.88,-24 312.12,-24 312.12,-44"/>
<text text-anchor="middle" x="279" y="-30.5" font-family="Helvetica,sans-Serif" font-size="10.00">testgen_api</text>
</a>
</g>
</g>
<!-- dir_0f7c87018f9df96312f0c3c2913808c8 -->
<g id="node5" class="node">
<title>dir_0f7c87018f9df96312f0c3c2913808c8</title>
<g id="a_node5"><a xlink:href="dir_0f7c87018f9df96312f0c3c2913808c8.html" target="_top" xlink:title="transformations">
<polygon fill="#a2b4d6" stroke="#404040" points="413.38,-44 330.62,-44 330.62,-24 413.38,-24 413.38,-44"/>
<text text-anchor="middle" x="372" y="-30.5" font-family="Helvetica,sans-Serif" font-size="10.00">transformations</text>
</a>
</g>
</g>
<!-- dir_bff0482916ab9cef98c23bd230c920dc -->
<g id="node6" class="node">
<title>dir_bff0482916ab9cef98c23bd230c920dc</title>
<g id="a_node6"><a xlink:href="dir_bff0482916ab9cef98c23bd230c920dc.html" target="_top" xlink:title="z3&#45;solver">
<polygon fill="#a2b4d6" stroke="#404040" points="486.12,-44 431.88,-44 431.88,-24 486.12,-24 486.12,-44"/>
<text text-anchor="middle" x="459" y="-30.5" font-family="Helvetica,sans-Serif" font-size="10.00">z3&#45;solver</text>
</a>
</g>
</g>
</g>
</svg>

<g id="navigator" transform="translate(0 0)" fill="#404254">
  <rect fill="#f2f5e9" fill-opacity="0.5" stroke="#606060" stroke-width=".5" x="0" y="0" width="60" height="60"/>
  <use id="zoomplus" xlink:href="#zoomPlus" x="17" y="9" onmousedown="handleZoom(evt,'in')"/>
  <use id="zoomminus" xlink:href="#zoomMin" x="42" y="9" onmousedown="handleZoom(evt,'out')"/>
  <use id="reset" xlink:href="#resetDef" x="30" y="36" onmousedown="handleReset()"/>
   <use id="arrowup" xlink:href="#arrowUp" x="0" y="0" onmousedown="handlePan(0,-1)"/>
  <use id="arrowright" xlink:href="#arrowRight" x="0" y="0" onmousedown="handlePan(1,0)"/>
  <use id="arrowdown" xlink:href="#arrowDown" x="0" y="0" onmousedown="handlePan(0,1)"/>
  <use id="arrowleft" xlink:href="#arrowLeft" x="0" y="0" onmousedown="handlePan(-1,0)"/>
</g>
<svg viewBox="0 0 15 15" width="100%" height="30px" preserveAspectRatio="xMaxYMin meet">
 <g id="arrow_out" transform="scale(0.3 0.3)">
  <a xlink:href="dir_62f7a670941186e7df5f1eb8ae7c622a_dep_org.svg" target="_base">
   <rect id="button" ry="5" rx="5" y="6" x="6" height="38" width="38"
        fill="#f2f5e9" fill-opacity="0.5" stroke="#606060" stroke-width="1.0"/>
   <path id="arrow"
     d="M 11.500037,31.436501 C 11.940474,20.09759 22.043105,11.32322 32.158766,21.979434 L 37.068811,17.246167 C 37.068811,17.246167 37.088388,32 37.088388,32 L 22.160133,31.978069 C 22.160133,31.978069 26.997745,27.140456 26.997745,27.140456 C 18.528582,18.264221 13.291696,25.230495 11.500037,31.436501 z"
     style="fill:#404040;"/>
  </a>
 </g>
</svg>

<style type='text/css'>
<![CDATA[
[data-mouse-over-selected='false'] { opacity: 0.7; }
[data-mouse-over-selected='true']  { opacity: 1.0; }
]]>
</style>
<script type="application/ecmascript"><![CDATA[
document.addEventListener('DOMContentLoaded', (event) => {
  highlightEdges();
  highlightAdjacentNodes();
});
]]></script>
</svg>
