<?xml version="1.0" encoding="UTF-8" standalone="no"?>
<!DOCTYPE svg PUBLIC "-//W3C//DTD SVG 1.1//EN"
 "http://www.w3.org/Graphics/SVG/1.1/DTD/svg11.dtd">
<!-- Generated by graphviz version 10.0.1 (20240210.2158)
 -->
<!-- Title: Graphical Class Hierarchy Pages: 1 -->
<svg width="391pt" height="104pt"
 viewBox="0.00 0.00 390.50 104.00" xmlns="http://www.w3.org/2000/svg" xmlns:xlink="http://www.w3.org/1999/xlink">
<g id="graph0" class="graph" transform="scale(1 1) rotate(0) translate(4 100)">
<title>Graphical Class Hierarchy</title>
<!-- Node0 -->
<g id="Node000000" class="node">
<title>Node0</title>
<g id="a_Node000000"><a xlink:href="class_e_b_p_f_1_1_target.html" target="_top" xlink:title=" ">
<polygon fill="white" stroke="#666666" points="75.25,-58 0,-58 0,-38 75.25,-38 75.25,-58"/>
<text text-anchor="middle" x="37.62" y="-44.5" font-family="Helvetica,sans-Serif" font-size="10.00">EBPF::Target</text>
</a>
</g>
</g>
<!-- Node1 -->
<g id="Node000001" class="node">
<title>Node1</title>
<g id="a_Node000001"><a xlink:href="class_e_b_p_f_1_1_bcc_target.html" target="_top" xlink:title=" ">
<polygon fill="white" stroke="#666666" points="228.12,-96 135.62,-96 135.62,-76 228.12,-76 228.12,-96"/>
<text text-anchor="middle" x="181.88" y="-82.5" font-family="Helvetica,sans-Serif" font-size="10.00">EBPF::BccTarget</text>
</a>
</g>
</g>
<!-- Node0&#45;&gt;Node1 -->
<g id="edge26_Node000000_Node000001" class="edge">
<title>Node0&#45;&gt;Node1</title>
<g id="a_edge26_Node000000_Node000001"><a xlink:title=" ">
<path fill="none" stroke="#63b8ff" d="M86.75,-60.86C104.68,-65.65 124.8,-71.02 141.82,-75.57"/>
<polygon fill="#63b8ff" stroke="#63b8ff" points="87.65,-57.47 77.09,-58.28 85.85,-64.24 87.65,-57.47"/>
</a>
</g>
</g>
<!-- Node2 -->
<g id="Node000002" class="node">
<title>Node2</title>
<g id="a_Node000002"><a xlink:href="class_e_b_p_f_1_1_kernel_samples_target.html" target="_top" xlink:title=" ">
<polygon fill="white" stroke="#666666" points="252.5,-58 111.25,-58 111.25,-38 252.5,-38 252.5,-58"/>
<text text-anchor="middle" x="181.88" y="-44.5" font-family="Helvetica,sans-Serif" font-size="10.00">EBPF::KernelSamplesTarget</text>
</a>
</g>
</g>
<!-- Node0&#45;&gt;Node2 -->
<g id="edge27_Node000000_Node000002" class="edge">
<title>Node0&#45;&gt;Node2</title>
<g id="a_edge27_Node000000_Node000002"><a xlink:title=" ">
<path fill="none" stroke="#63b8ff" d="M87,-48C94.73,-48 102.86,-48 110.96,-48"/>
<polygon fill="#63b8ff" stroke="#63b8ff" points="87.14,-44.5 77.14,-48 87.14,-51.5 87.14,-44.5"/>
</a>
</g>
</g>
<!-- Node5 -->
<g id="Node000005" class="node">
<title>Node5</title>
<g id="a_Node000005"><a xlink:href="class_u_b_p_f_1_1_ubpf_target.html" target="_top" xlink:title=" ">
<polygon fill="white" stroke="#666666" points="229.25,-20 134.5,-20 134.5,0 229.25,0 229.25,-20"/>
<text text-anchor="middle" x="181.88" y="-6.5" font-family="Helvetica,sans-Serif" font-size="10.00">UBPF::UbpfTarget</text>
</a>
</g>
</g>
<!-- Node0&#45;&gt;Node5 -->
<g id="edge30_Node000000_Node000005" class="edge">
<title>Node0&#45;&gt;Node5</title>
<g id="a_edge30_Node000000_Node000005"><a xlink:title=" ">
<path fill="none" stroke="#63b8ff" d="M86.75,-35.14C104.68,-30.35 124.8,-24.98 141.82,-20.43"/>
<polygon fill="#63b8ff" stroke="#63b8ff" points="85.85,-31.76 77.09,-37.72 87.65,-38.53 85.85,-31.76"/>
</a>
</g>
</g>
<!-- Node3 -->
<g id="Node000003" class="node">
<title>Node3</title>
<g id="a_Node000003"><a xlink:href="class_e_b_p_f_1_1_test_target.html" target="_top" xlink:title=" ">
<polygon fill="white" stroke="#666666" points="382.5,-77 288.5,-77 288.5,-57 382.5,-57 382.5,-77"/>
<text text-anchor="middle" x="335.5" y="-63.5" font-family="Helvetica,sans-Serif" font-size="10.00">EBPF::TestTarget</text>
</a>
</g>
</g>
<!-- Node2&#45;&gt;Node3 -->
<g id="edge28_Node000002_Node000003" class="edge">
<title>Node2&#45;&gt;Node3</title>
<g id="a_edge28_Node000002_Node000003"><a xlink:title=" ">
<path fill="none" stroke="#63b8ff" d="M264.14,-58.18C272.36,-59.21 280.49,-60.23 288.15,-61.19"/>
<polygon fill="#63b8ff" stroke="#63b8ff" points="264.78,-54.74 254.42,-56.97 263.91,-61.68 264.78,-54.74"/>
</a>
</g>
</g>
<!-- Node4 -->
<g id="Node000004" class="node">
<title>Node4</title>
<g id="a_Node000004"><a xlink:href="class_e_b_p_f_1_1_xdp_target.html" target="_top" xlink:title=" ">
<polygon fill="white" stroke="#666666" points="381,-39 290,-39 290,-19 381,-19 381,-39"/>
<text text-anchor="middle" x="335.5" y="-25.5" font-family="Helvetica,sans-Serif" font-size="10.00">EBPF::XdpTarget</text>
</a>
</g>
</g>
<!-- Node2&#45;&gt;Node4 -->
<g id="edge29_Node000002_Node000004" class="edge">
<title>Node2&#45;&gt;Node4</title>
<g id="a_edge29_Node000002_Node000004"><a xlink:title=" ">
<path fill="none" stroke="#63b8ff" d="M264.13,-37.82C272.97,-36.71 281.72,-35.61 289.87,-34.59"/>
<polygon fill="#63b8ff" stroke="#63b8ff" points="263.91,-34.32 254.42,-39.03 264.78,-41.26 263.91,-34.32"/>
</a>
</g>
</g>
</g>
</svg>
