<?xml version="1.0" encoding="UTF-8" standalone="no"?>
<!DOCTYPE svg PUBLIC "-//W3C//DTD SVG 1.1//EN"
 "http://www.w3.org/Graphics/SVG/1.1/DTD/svg11.dtd">
<!-- Generated by graphviz version 10.0.1 (20240210.2158)
 -->
<!-- Title: Graphical Class Hierarchy Pages: 1 -->
<svg width="448pt" height="1588pt"
 viewBox="0.00 0.00 447.50 1588.00" xmlns="http://www.w3.org/2000/svg" xmlns:xlink="http://www.w3.org/1999/xlink">
<g id="graph0" class="graph" transform="scale(1 1) rotate(0) translate(4 1584)">
<title>Graphical Class Hierarchy</title>
<!-- Node0 -->
<g id="Node000000" class="node">
<title>Node0</title>
<g id="a_Node000000"><a xlink:title=" ">
<polygon fill="#e0e0e0" stroke="#999999" points="70,-1070 0,-1070 0,-1050 70,-1050 70,-1070"/>
<text text-anchor="middle" x="35" y="-1056.5" font-family="Helvetica,sans-Serif" font-size="10.00">testing::Test</text>
</a>
</g>
</g>
<!-- Node1 -->
<g id="Node000001" class="node">
<title>Node1</title>
<g id="a_Node000001"><a xlink:href="class_test_1_1_p4_c_reachability.html" target="_top" xlink:title=" ">
<polygon fill="white" stroke="#666666" points="227.38,-1447 114.62,-1447 114.62,-1427 227.38,-1427 227.38,-1447"/>
<text text-anchor="middle" x="171" y="-1433.5" font-family="Helvetica,sans-Serif" font-size="10.00">Test::P4CReachability</text>
</a>
</g>
</g>
<!-- Node0&#45;&gt;Node1 -->
<g id="edge1014_Node000000_Node000001" class="edge">
<title>Node0&#45;&gt;Node1</title>
<g id="a_edge1014_Node000000_Node000001"><a xlink:title=" ">
<path fill="none" stroke="#63b8ff" d="M37.34,-1081.53C42.1,-1151.03 60.39,-1367.81 106,-1418 109.12,-1421.43 112.82,-1424.25 116.86,-1426.57"/>
<polygon fill="#63b8ff" stroke="#63b8ff" points="40.85,-1081.6 36.71,-1071.85 33.87,-1082.06 40.85,-1081.6"/>
</a>
</g>
</g>
<!-- Node2 -->
<g id="Node000002" class="node">
<title>Node2</title>
<g id="a_Node000002"><a xlink:href="class_test_1_1_p4_tools_test.html" target="_top" xlink:title="GTest for P4 Tools tests.">
<polygon fill="white" stroke="#666666" points="218.38,-1409 123.62,-1409 123.62,-1389 218.38,-1389 218.38,-1409"/>
<text text-anchor="middle" x="171" y="-1395.5" font-family="Helvetica,sans-Serif" font-size="10.00">Test::P4ToolsTest</text>
</a>
</g>
</g>
<!-- Node0&#45;&gt;Node2 -->
<g id="edge1015_Node000000_Node000002" class="edge">
<title>Node0&#45;&gt;Node2</title>
<g id="a_edge1015_Node000000_Node000002"><a xlink:title=" ">
<path fill="none" stroke="#63b8ff" d="M44.13,-1080.57C69.57,-1144.93 147.1,-1341.07 165.87,-1388.56"/>
<polygon fill="#63b8ff" stroke="#63b8ff" points="47.5,-1079.57 40.57,-1071.55 40.99,-1082.14 47.5,-1079.57"/>
</a>
</g>
</g>
<!-- Node11 -->
<g id="Node000011" class="node">
<title>Node11</title>
<g id="a_Node000011"><a xlink:href="class_test_1_1_z3_solver_sat_tests.html" target="_top" xlink:title=" ">
<polygon fill="white" stroke="#666666" points="229.25,-1070 112.75,-1070 112.75,-1050 229.25,-1050 229.25,-1070"/>
<text text-anchor="middle" x="171" y="-1056.5" font-family="Helvetica,sans-Serif" font-size="10.00">Test::Z3SolverSatTests</text>
</a>
</g>
</g>
<!-- Node0&#45;&gt;Node11 -->
<g id="edge1024_Node000000_Node000011" class="edge">
<title>Node0&#45;&gt;Node11</title>
<g id="a_edge1024_Node000000_Node000011"><a xlink:title=" ">
<path fill="none" stroke="#63b8ff" d="M81.47,-1060C91.43,-1060 102.11,-1060 112.47,-1060"/>
<polygon fill="#63b8ff" stroke="#63b8ff" points="81.67,-1056.5 71.67,-1060 81.67,-1063.5 81.67,-1056.5"/>
</a>
</g>
</g>
<!-- Node22 -->
<g id="Node000022" class="node">
<title>Node22</title>
<g id="a_Node000022"><a xlink:href="class_test_1_1_z3_solver_satisfiability_checks.html" target="_top" xlink:title=" ">
<polygon fill="white" stroke="#666666" points="236,-1032 106,-1032 106,-1000 236,-1000 236,-1032"/>
<text text-anchor="start" x="114" y="-1018.5" font-family="Helvetica,sans-Serif" font-size="10.00">Test::Z3SolverSatisfiability</text>
<text text-anchor="middle" x="171" y="-1006.5" font-family="Helvetica,sans-Serif" font-size="10.00">Checks</text>
</a>
</g>
</g>
<!-- Node0&#45;&gt;Node22 -->
<g id="edge1035_Node000000_Node000022" class="edge">
<title>Node0&#45;&gt;Node22</title>
<g id="a_edge1035_Node000000_Node000022"><a xlink:title=" ">
<path fill="none" stroke="#63b8ff" d="M78.42,-1046.07C91.59,-1041.75 106.23,-1036.94 119.88,-1032.46"/>
<polygon fill="#63b8ff" stroke="#63b8ff" points="77.6,-1042.66 69.19,-1049.1 79.79,-1049.31 77.6,-1042.66"/>
</a>
</g>
</g>
<!-- Node23 -->
<g id="Node000023" class="node">
<title>Node23</title>
<g id="a_Node000023"><a xlink:href="class_test_1_1_z3_solver_tests.html" target="_top" xlink:title=" ">
<polygon fill="white" stroke="#666666" points="221.75,-393 120.25,-393 120.25,-373 221.75,-373 221.75,-393"/>
<text text-anchor="middle" x="171" y="-379.5" font-family="Helvetica,sans-Serif" font-size="10.00">Test::Z3SolverTests</text>
</a>
</g>
</g>
<!-- Node0&#45;&gt;Node23 -->
<g id="edge1036_Node000000_Node000023" class="edge">
<title>Node0&#45;&gt;Node23</title>
<g id="a_edge1036_Node000000_Node000023"><a xlink:title=" ">
<path fill="none" stroke="#63b8ff" d="M40.24,-1038.57C61.17,-932.83 153.01,-468.82 167.95,-393.38"/>
<polygon fill="#63b8ff" stroke="#63b8ff" points="36.85,-1037.66 38.35,-1048.15 43.72,-1039.02 36.85,-1037.66"/>
</a>
</g>
</g>
<!-- Node3 -->
<g id="Node000003" class="node">
<title>Node3</title>
<g id="a_Node000003"><a xlink:href="class_test_1_1_format_test.html" target="_top" xlink:title="Helper methods to build configurations for Format Tests.">
<polygon fill="white" stroke="#666666" points="400.88,-1580 310.62,-1580 310.62,-1560 400.88,-1560 400.88,-1580"/>
<text text-anchor="middle" x="355.75" y="-1566.5" font-family="Helvetica,sans-Serif" font-size="10.00">Test::FormatTest</text>
</a>
</g>
</g>
<!-- Node2&#45;&gt;Node3 -->
<g id="edge1016_Node000002_Node000003" class="edge">
<title>Node2&#45;&gt;Node3</title>
<g id="a_edge1016_Node000002_Node000003"><a xlink:title=" ">
<path fill="none" stroke="#63b8ff" d="M228.71,-1412C231.34,-1413.75 233.8,-1415.74 236,-1418 278.77,-1461.82 227.87,-1508.54 272,-1551 282.2,-1560.81 296.38,-1565.94 310.13,-1568.51"/>
<polygon fill="#63b8ff" stroke="#63b8ff" points="230.37,-1408.91 219.9,-1407.32 227.09,-1415.1 230.37,-1408.91"/>
</a>
</g>
</g>
<!-- Node4 -->
<g id="Node000004" class="node">
<title>Node4</title>
<g id="a_Node000004"><a xlink:href="class_test_1_1_p4_asserts_parser_test.html" target="_top" xlink:title=" ">
<polygon fill="white" stroke="#666666" points="422.62,-1542 288.88,-1542 288.88,-1522 422.62,-1522 422.62,-1542"/>
<text text-anchor="middle" x="355.75" y="-1528.5" font-family="Helvetica,sans-Serif" font-size="10.00">Test::P4AssertsParserTest</text>
</a>
</g>
</g>
<!-- Node2&#45;&gt;Node4 -->
<g id="edge1017_Node000002_Node000004" class="edge">
<title>Node2&#45;&gt;Node4</title>
<g id="a_edge1017_Node000002_Node000004"><a xlink:title=" ">
<path fill="none" stroke="#63b8ff" d="M228.99,-1412.6C231.49,-1414.21 233.85,-1416 236,-1418 269.08,-1448.73 237.97,-1483.32 272,-1513 276.89,-1517.26 282.54,-1520.62 288.55,-1523.26"/>
<polygon fill="#63b8ff" stroke="#63b8ff" points="230.62,-1409.51 220.14,-1408 227.4,-1415.72 230.62,-1409.51"/>
</a>
</g>
</g>
<!-- Node5 -->
<g id="Node000005" class="node">
<title>Node5</title>
<g id="a_Node000005"><a xlink:href="class_test_1_1_p4_runtime_api_test.html" target="_top" xlink:title="Helper methods to build configurations for P4RuntimeApi Tests.">
<polygon fill="white" stroke="#666666" points="416.62,-1504 294.88,-1504 294.88,-1484 416.62,-1484 416.62,-1504"/>
<text text-anchor="middle" x="355.75" y="-1490.5" font-family="Helvetica,sans-Serif" font-size="10.00">Test::P4RuntimeApiTest</text>
</a>
</g>
</g>
<!-- Node2&#45;&gt;Node5 -->
<g id="edge1018_Node000002_Node000005" class="edge">
<title>Node2&#45;&gt;Node5</title>
<g id="a_edge1018_Node000002_Node000005"><a xlink:title=" ">
<path fill="none" stroke="#63b8ff" d="M228.8,-1413.31C231.32,-1414.73 233.74,-1416.29 236,-1418 259.89,-1436.09 247.55,-1457.67 272,-1475 278.73,-1479.77 286.48,-1483.37 294.48,-1486.07"/>
<polygon fill="#63b8ff" stroke="#63b8ff" points="230.58,-1410.28 220.04,-1409.15 227.57,-1416.6 230.58,-1410.28"/>
</a>
</g>
</g>
<!-- Node6 -->
<g id="Node000006" class="node">
<title>Node6</title>
<g id="a_Node000006"><a xlink:href="class_test_1_1_p_t_f_test.html" target="_top" xlink:title="Helper methods to build configurations for PTF Tests.">
<polygon fill="white" stroke="#666666" points="394.5,-1466 317,-1466 317,-1446 394.5,-1446 394.5,-1466"/>
<text text-anchor="middle" x="355.75" y="-1452.5" font-family="Helvetica,sans-Serif" font-size="10.00">Test::PTFTest</text>
</a>
</g>
</g>
<!-- Node2&#45;&gt;Node6 -->
<g id="edge1019_Node000002_Node000006" class="edge">
<title>Node2&#45;&gt;Node6</title>
<g id="a_edge1019_Node000002_Node000006"><a xlink:title=" ">
<path fill="none" stroke="#63b8ff" d="M222.46,-1412.96C227.08,-1414.54 231.65,-1416.23 236,-1418 252.75,-1424.83 255.04,-1430.7 272,-1437 286.23,-1442.29 302.41,-1446.39 316.66,-1449.42"/>
<polygon fill="#63b8ff" stroke="#63b8ff" points="223.72,-1409.68 213.12,-1409.92 221.55,-1416.34 223.72,-1409.68"/>
</a>
</g>
</g>
<!-- Node7 -->
<g id="Node000007" class="node">
<title>Node7</title>
<g id="a_Node000007"><a xlink:href="class_test_1_1_s_t_f_test.html" target="_top" xlink:title="Helper methods to build configurations for STF Tests.">
<polygon fill="white" stroke="#666666" points="394.5,-1428 317,-1428 317,-1408 394.5,-1408 394.5,-1428"/>
<text text-anchor="middle" x="355.75" y="-1414.5" font-family="Helvetica,sans-Serif" font-size="10.00">Test::STFTest</text>
</a>
</g>
</g>
<!-- Node2&#45;&gt;Node7 -->
<g id="edge1020_Node000002_Node000007" class="edge">
<title>Node2&#45;&gt;Node7</title>
<g id="a_edge1020_Node000002_Node000007"><a xlink:title=" ">
<path fill="none" stroke="#63b8ff" d="M229.97,-1405.03C258.25,-1407.97 291.5,-1411.42 316.56,-1414.03"/>
<polygon fill="#63b8ff" stroke="#63b8ff" points="230.4,-1401.55 220.09,-1404 229.68,-1408.52 230.4,-1401.55"/>
</a>
</g>
</g>
<!-- Node8 -->
<g id="Node000008" class="node">
<title>Node8</title>
<g id="a_Node000008"><a xlink:href="class_test_1_1_small_step_test.html" target="_top" xlink:title=" ">
<polygon fill="white" stroke="#666666" points="408,-1390 303.5,-1390 303.5,-1370 408,-1370 408,-1390"/>
<text text-anchor="middle" x="355.75" y="-1376.5" font-family="Helvetica,sans-Serif" font-size="10.00">Test::SmallStepTest</text>
</a>
</g>
</g>
<!-- Node2&#45;&gt;Node8 -->
<g id="edge1021_Node000002_Node000008" class="edge">
<title>Node2&#45;&gt;Node8</title>
<g id="a_edge1021_Node000002_Node000008"><a xlink:title=" ">
<path fill="none" stroke="#63b8ff" d="M229.82,-1392.99C253.32,-1390.55 280.26,-1387.74 303.09,-1385.37"/>
<polygon fill="#63b8ff" stroke="#63b8ff" points="229.68,-1389.48 220.09,-1394 230.4,-1396.45 229.68,-1389.48"/>
</a>
</g>
</g>
<!-- Node9 -->
<g id="Node000009" class="node">
<title>Node9</title>
<g id="a_Node000009"><a xlink:href="class_test_1_1_taint_test.html" target="_top" xlink:title="Helper methods to build configurations for Taint Tests.">
<polygon fill="white" stroke="#666666" points="396,-1352 315.5,-1352 315.5,-1332 396,-1332 396,-1352"/>
<text text-anchor="middle" x="355.75" y="-1338.5" font-family="Helvetica,sans-Serif" font-size="10.00">Test::TaintTest</text>
</a>
</g>
</g>
<!-- Node2&#45;&gt;Node9 -->
<g id="edge1022_Node000002_Node000009" class="edge">
<title>Node2&#45;&gt;Node9</title>
<g id="a_edge1022_Node000002_Node000009"><a xlink:title=" ">
<path fill="none" stroke="#63b8ff" d="M207.28,-1384.23C226.25,-1376.64 250.16,-1367.62 272,-1361 285.96,-1356.77 301.5,-1352.96 315.31,-1349.9"/>
<polygon fill="#63b8ff" stroke="#63b8ff" points="206.09,-1380.94 198.14,-1387.94 208.72,-1387.42 206.09,-1380.94"/>
</a>
</g>
</g>
<!-- Node10 -->
<g id="Node000010" class="node">
<title>Node10</title>
<g id="a_Node000010"><a xlink:href="class_test_1_1_z3_solver_test.html" target="_top" xlink:title=" ">
<polygon fill="white" stroke="#666666" points="403.88,-1314 307.62,-1314 307.62,-1294 403.88,-1294 403.88,-1314"/>
<text text-anchor="middle" x="355.75" y="-1300.5" font-family="Helvetica,sans-Serif" font-size="10.00">Test::Z3SolverTest</text>
</a>
</g>
</g>
<!-- Node2&#45;&gt;Node10 -->
<g id="edge1023_Node000002_Node000010" class="edge">
<title>Node2&#45;&gt;Node10</title>
<g id="a_edge1023_Node000002_Node000010"><a xlink:title=" ">
<path fill="none" stroke="#63b8ff" d="M190.67,-1380.86C209.63,-1363.45 240.6,-1337.7 272,-1323 282.95,-1317.88 295.37,-1314.09 307.2,-1311.3"/>
<polygon fill="#63b8ff" stroke="#63b8ff" points="188.37,-1378.22 183.48,-1387.62 193.17,-1383.32 188.37,-1378.22"/>
</a>
</g>
</g>
<!-- Node12 -->
<g id="Node000012" class="node">
<title>Node12</title>
<g id="a_Node000012"><a xlink:href="class_test_1_1_arithm_test_1_1_z3_solver_add_sat01.html" target="_top" xlink:title=" ">
<polygon fill="white" stroke="#666666" points="421.12,-1276 290.38,-1276 290.38,-1244 421.12,-1244 421.12,-1276"/>
<text text-anchor="start" x="298.38" y="-1262.5" font-family="Helvetica,sans-Serif" font-size="10.00">Test::ArithmTest::Z3Solver</text>
<text text-anchor="middle" x="355.75" y="-1250.5" font-family="Helvetica,sans-Serif" font-size="10.00">AddSat01</text>
</a>
</g>
</g>
<!-- Node11&#45;&gt;Node12 -->
<g id="edge1025_Node000011_Node000012" class="edge">
<title>Node11&#45;&gt;Node12</title>
<g id="a_edge1025_Node000011_Node000012"><a xlink:title=" ">
<path fill="none" stroke="#63b8ff" d="M178.4,-1081.41C190.52,-1118.31 220.36,-1193.87 272,-1235 277.4,-1239.3 283.53,-1242.86 289.96,-1245.81"/>
<polygon fill="#63b8ff" stroke="#63b8ff" points="181.75,-1080.42 175.41,-1071.93 175.07,-1082.52 181.75,-1080.42"/>
</a>
</g>
</g>
<!-- Node13 -->
<g id="Node000013" class="node">
<title>Node13</title>
<g id="a_Node000013"><a xlink:href="class_test_1_1_arithm_test_1_1_z3_solver_add_sat02.html" target="_top" xlink:title=" ">
<polygon fill="white" stroke="#666666" points="421.12,-1226 290.38,-1226 290.38,-1194 421.12,-1194 421.12,-1226"/>
<text text-anchor="start" x="298.38" y="-1212.5" font-family="Helvetica,sans-Serif" font-size="10.00">Test::ArithmTest::Z3Solver</text>
<text text-anchor="middle" x="355.75" y="-1200.5" font-family="Helvetica,sans-Serif" font-size="10.00">AddSat02</text>
</a>
</g>
</g>
<!-- Node11&#45;&gt;Node13 -->
<g id="edge1026_Node000011_Node000013" class="edge">
<title>Node11&#45;&gt;Node13</title>
<g id="a_edge1026_Node000011_Node000013"><a xlink:title=" ">
<path fill="none" stroke="#63b8ff" d="M182.93,-1080.28C198.89,-1107.99 231.15,-1157.37 272,-1185 277.59,-1188.78 283.78,-1192.01 290.17,-1194.76"/>
<polygon fill="#63b8ff" stroke="#63b8ff" points="186.13,-1078.84 178.2,-1071.82 180.02,-1082.25 186.13,-1078.84"/>
</a>
</g>
</g>
<!-- Node14 -->
<g id="Node000014" class="node">
<title>Node14</title>
<g id="a_Node000014"><a xlink:href="class_test_1_1_arithm_test_1_1_z3_solver_add_sat03.html" target="_top" xlink:title=" ">
<polygon fill="white" stroke="#666666" points="421.12,-1176 290.38,-1176 290.38,-1144 421.12,-1144 421.12,-1176"/>
<text text-anchor="start" x="298.38" y="-1162.5" font-family="Helvetica,sans-Serif" font-size="10.00">Test::ArithmTest::Z3Solver</text>
<text text-anchor="middle" x="355.75" y="-1150.5" font-family="Helvetica,sans-Serif" font-size="10.00">AddSat03</text>
</a>
</g>
</g>
<!-- Node11&#45;&gt;Node14 -->
<g id="edge1027_Node000011_Node000014" class="edge">
<title>Node11&#45;&gt;Node14</title>
<g id="a_edge1027_Node000011_Node000014"><a xlink:title=" ">
<path fill="none" stroke="#63b8ff" d="M191.56,-1077.99C210.77,-1094.81 241.55,-1119.59 272,-1135 278.29,-1138.18 285.07,-1141.04 291.93,-1143.59"/>
<polygon fill="#63b8ff" stroke="#63b8ff" points="194.03,-1075.5 184.24,-1071.45 189.37,-1080.72 194.03,-1075.5"/>
</a>
</g>
</g>
<!-- Node15 -->
<g id="Node000015" class="node">
<title>Node15</title>
<g id="a_Node000015"><a xlink:href="class_test_1_1_arithm_test_1_1_z3_solver_add_sat04.html" target="_top" xlink:title=" ">
<polygon fill="white" stroke="#666666" points="421.12,-1126 290.38,-1126 290.38,-1094 421.12,-1094 421.12,-1126"/>
<text text-anchor="start" x="298.38" y="-1112.5" font-family="Helvetica,sans-Serif" font-size="10.00">Test::ArithmTest::Z3Solver</text>
<text text-anchor="middle" x="355.75" y="-1100.5" font-family="Helvetica,sans-Serif" font-size="10.00">AddSat04</text>
</a>
</g>
</g>
<!-- Node11&#45;&gt;Node15 -->
<g id="edge1028_Node000011_Node000015" class="edge">
<title>Node11&#45;&gt;Node15</title>
<g id="a_edge1028_Node000011_Node000015"><a xlink:title=" ">
<path fill="none" stroke="#63b8ff" d="M221.33,-1073.5C243.89,-1079.67 270.81,-1087.03 294.55,-1093.53"/>
<polygon fill="#63b8ff" stroke="#63b8ff" points="222.34,-1070.14 211.77,-1070.88 220.49,-1076.9 222.34,-1070.14"/>
</a>
</g>
</g>
<!-- Node16 -->
<g id="Node000016" class="node">
<title>Node16</title>
<g id="a_Node000016"><a xlink:href="class_test_1_1_arithm_test_1_1_z3_solver_add_sat05.html" target="_top" xlink:title=" ">
<polygon fill="white" stroke="#666666" points="421.12,-1076 290.38,-1076 290.38,-1044 421.12,-1044 421.12,-1076"/>
<text text-anchor="start" x="298.38" y="-1062.5" font-family="Helvetica,sans-Serif" font-size="10.00">Test::ArithmTest::Z3Solver</text>
<text text-anchor="middle" x="355.75" y="-1050.5" font-family="Helvetica,sans-Serif" font-size="10.00">AddSat05</text>
</a>
</g>
</g>
<!-- Node11&#45;&gt;Node16 -->
<g id="edge1029_Node000011_Node000016" class="edge">
<title>Node11&#45;&gt;Node16</title>
<g id="a_edge1029_Node000011_Node000016"><a xlink:title=" ">
<path fill="none" stroke="#63b8ff" d="M240.62,-1060C256.85,-1060 274.11,-1060 290.15,-1060"/>
<polygon fill="#63b8ff" stroke="#63b8ff" points="241.09,-1056.5 231.09,-1060 241.09,-1063.5 241.09,-1056.5"/>
</a>
</g>
</g>
<!-- Node17 -->
<g id="Node000017" class="node">
<title>Node17</title>
<g id="a_Node000017"><a xlink:href="class_test_1_1_arithm_test_1_1_z3_solver_sub_sat01.html" target="_top" xlink:title=" ">
<polygon fill="white" stroke="#666666" points="421.12,-1026 290.38,-1026 290.38,-994 421.12,-994 421.12,-1026"/>
<text text-anchor="start" x="298.38" y="-1012.5" font-family="Helvetica,sans-Serif" font-size="10.00">Test::ArithmTest::Z3Solver</text>
<text text-anchor="middle" x="355.75" y="-1000.5" font-family="Helvetica,sans-Serif" font-size="10.00">SubSat01</text>
</a>
</g>
</g>
<!-- Node11&#45;&gt;Node17 -->
<g id="edge1030_Node000011_Node000017" class="edge">
<title>Node11&#45;&gt;Node17</title>
<g id="a_edge1030_Node000011_Node000017"><a xlink:title=" ">
<path fill="none" stroke="#63b8ff" d="M221.33,-1046.5C243.89,-1040.33 270.81,-1032.97 294.55,-1026.47"/>
<polygon fill="#63b8ff" stroke="#63b8ff" points="220.49,-1043.1 211.77,-1049.12 222.34,-1049.86 220.49,-1043.1"/>
</a>
</g>
</g>
<!-- Node18 -->
<g id="Node000018" class="node">
<title>Node18</title>
<g id="a_Node000018"><a xlink:href="class_test_1_1_arithm_test_1_1_z3_solver_sub_sat02.html" target="_top" xlink:title=" ">
<polygon fill="white" stroke="#666666" points="421.12,-976 290.38,-976 290.38,-944 421.12,-944 421.12,-976"/>
<text text-anchor="start" x="298.38" y="-962.5" font-family="Helvetica,sans-Serif" font-size="10.00">Test::ArithmTest::Z3Solver</text>
<text text-anchor="middle" x="355.75" y="-950.5" font-family="Helvetica,sans-Serif" font-size="10.00">SubSat02</text>
</a>
</g>
</g>
<!-- Node11&#45;&gt;Node18 -->
<g id="edge1031_Node000011_Node000018" class="edge">
<title>Node11&#45;&gt;Node18</title>
<g id="a_edge1031_Node000011_Node000018"><a xlink:title=" ">
<path fill="none" stroke="#63b8ff" d="M231.12,-1044.3C232.81,-1043.27 234.44,-1042.17 236,-1041 259.66,-1023.23 248.38,-1002.82 272,-985 277.51,-980.84 283.71,-977.37 290.18,-974.47"/>
<polygon fill="#63b8ff" stroke="#63b8ff" points="229.61,-1041.15 222.3,-1048.82 232.8,-1047.38 229.61,-1041.15"/>
</a>
</g>
</g>
<!-- Node19 -->
<g id="Node000019" class="node">
<title>Node19</title>
<g id="a_Node000019"><a xlink:href="class_test_1_1_arithm_test_1_1_z3_solver_sub_sat03.html" target="_top" xlink:title=" ">
<polygon fill="white" stroke="#666666" points="421.12,-926 290.38,-926 290.38,-894 421.12,-894 421.12,-926"/>
<text text-anchor="start" x="298.38" y="-912.5" font-family="Helvetica,sans-Serif" font-size="10.00">Test::ArithmTest::Z3Solver</text>
<text text-anchor="middle" x="355.75" y="-900.5" font-family="Helvetica,sans-Serif" font-size="10.00">SubSat03</text>
</a>
</g>
</g>
<!-- Node11&#45;&gt;Node19 -->
<g id="edge1032_Node000011_Node000019" class="edge">
<title>Node11&#45;&gt;Node19</title>
<g id="a_edge1032_Node000011_Node000019"><a xlink:title=" ">
<path fill="none" stroke="#63b8ff" d="M233.2,-1043.48C234.17,-1042.69 235.1,-1041.86 236,-1041 271.86,-1006.51 236.23,-969.58 272,-935 277.18,-929.99 283.33,-925.99 289.89,-922.78"/>
<polygon fill="#63b8ff" stroke="#63b8ff" points="231.49,-1040.41 225,-1048.78 235.3,-1046.29 231.49,-1040.41"/>
</a>
</g>
</g>
<!-- Node20 -->
<g id="Node000020" class="node">
<title>Node20</title>
<g id="a_Node000020"><a xlink:href="class_test_1_1_arithm_test_1_1_z3_solver_sub_sat04.html" target="_top" xlink:title=" ">
<polygon fill="white" stroke="#666666" points="421.12,-876 290.38,-876 290.38,-844 421.12,-844 421.12,-876"/>
<text text-anchor="start" x="298.38" y="-862.5" font-family="Helvetica,sans-Serif" font-size="10.00">Test::ArithmTest::Z3Solver</text>
<text text-anchor="middle" x="355.75" y="-850.5" font-family="Helvetica,sans-Serif" font-size="10.00">SubSat04</text>
</a>
</g>
</g>
<!-- Node11&#45;&gt;Node20 -->
<g id="edge1033_Node000011_Node000020" class="edge">
<title>Node11&#45;&gt;Node20</title>
<g id="a_edge1033_Node000011_Node000020"><a xlink:title=" ">
<path fill="none" stroke="#63b8ff" d="M233.78,-1043.18C234.55,-1042.49 235.29,-1041.76 236,-1041 284.74,-989.16 223.39,-936.96 272,-885 277.13,-879.52 283.41,-875.23 290.2,-871.87"/>
<polygon fill="#63b8ff" stroke="#63b8ff" points="232.07,-1040.11 225.95,-1048.76 236.12,-1045.81 232.07,-1040.11"/>
</a>
</g>
</g>
<!-- Node21 -->
<g id="Node000021" class="node">
<title>Node21</title>
<g id="a_Node000021"><a xlink:href="class_test_1_1_arithm_test_1_1_z3_solver_sub_sat05.html" target="_top" xlink:title=" ">
<polygon fill="white" stroke="#666666" points="421.12,-826 290.38,-826 290.38,-794 421.12,-794 421.12,-826"/>
<text text-anchor="start" x="298.38" y="-812.5" font-family="Helvetica,sans-Serif" font-size="10.00">Test::ArithmTest::Z3Solver</text>
<text text-anchor="middle" x="355.75" y="-800.5" font-family="Helvetica,sans-Serif" font-size="10.00">SubSat05</text>
</a>
</g>
</g>
<!-- Node11&#45;&gt;Node21 -->
<g id="edge1034_Node000011_Node000021" class="edge">
<title>Node11&#45;&gt;Node21</title>
<g id="a_edge1034_Node000011_Node000021"><a xlink:title=" ">
<path fill="none" stroke="#63b8ff" d="M234.2,-1042.88C234.82,-1042.28 235.42,-1041.65 236,-1041 297.82,-971.59 210.35,-904.56 272,-835 276.98,-829.38 283.17,-825.01 289.91,-821.6"/>
<polygon fill="#63b8ff" stroke="#63b8ff" points="232.31,-1039.92 226.43,-1048.73 236.52,-1045.52 232.31,-1039.92"/>
</a>
</g>
</g>
<!-- Node24 -->
<g id="Node000024" class="node">
<title>Node24</title>
<g id="a_Node000024"><a xlink:href="class_test_1_1_z3_test_1_1_z3_solver_add.html" target="_top" xlink:title=" ">
<polygon fill="white" stroke="#666666" points="420.75,-776 290.75,-776 290.75,-756 420.75,-756 420.75,-776"/>
<text text-anchor="middle" x="355.75" y="-762.5" font-family="Helvetica,sans-Serif" font-size="10.00">Test::Z3Test::Z3SolverAdd</text>
</a>
</g>
</g>
<!-- Node23&#45;&gt;Node24 -->
<g id="edge1037_Node000023_Node000024" class="edge">
<title>Node23&#45;&gt;Node24</title>
<g id="a_edge1037_Node000023_Node000024"><a xlink:title=" ">
<path fill="none" stroke="#63b8ff" d="M175.01,-404.62C185.29,-475.39 221.22,-698.33 272,-747 277.32,-752.1 283.72,-755.93 290.57,-758.8"/>
<polygon fill="#63b8ff" stroke="#63b8ff" points="178.48,-404.16 173.6,-394.75 171.55,-405.15 178.48,-404.16"/>
</a>
</g>
</g>
<!-- Node25 -->
<g id="Node000025" class="node">
<title>Node25</title>
<g id="a_Node000025"><a xlink:href="class_test_1_1_z3_test_1_1_z3_solver_b_and.html" target="_top" xlink:title=" ">
<polygon fill="white" stroke="#666666" points="424.12,-738 287.38,-738 287.38,-718 424.12,-718 424.12,-738"/>
<text text-anchor="middle" x="355.75" y="-724.5" font-family="Helvetica,sans-Serif" font-size="10.00">Test::Z3Test::Z3SolverBAnd</text>
</a>
</g>
</g>
<!-- Node23&#45;&gt;Node25 -->
<g id="edge1038_Node000023_Node000025" class="edge">
<title>Node23&#45;&gt;Node25</title>
<g id="a_edge1038_Node000023_Node000025"><a xlink:title=" ">
<path fill="none" stroke="#63b8ff" d="M171.73,-404.81C172.24,-463.4 182.15,-625.39 272,-709 276.42,-713.12 281.55,-716.4 287.05,-719.02"/>
<polygon fill="#63b8ff" stroke="#63b8ff" points="175.23,-404.89 171.74,-394.89 168.23,-404.88 175.23,-404.89"/>
</a>
</g>
</g>
<!-- Node26 -->
<g id="Node000026" class="node">
<title>Node26</title>
<g id="a_Node000026"><a xlink:href="class_test_1_1_z3_test_1_1_z3_solver_b_o_r.html" target="_top" xlink:title=" ">
<polygon fill="white" stroke="#666666" points="422.62,-700 288.88,-700 288.88,-680 422.62,-680 422.62,-700"/>
<text text-anchor="middle" x="355.75" y="-686.5" font-family="Helvetica,sans-Serif" font-size="10.00">Test::Z3Test::Z3SolverBOR</text>
</a>
</g>
</g>
<!-- Node23&#45;&gt;Node26 -->
<g id="edge1039_Node000023_Node000026" class="edge">
<title>Node23&#45;&gt;Node26</title>
<g id="a_edge1039_Node000023_Node000026"><a xlink:title=" ">
<path fill="none" stroke="#63b8ff" d="M172.75,-404.77C175.82,-458.6 191.56,-598.84 272,-671 276.83,-675.33 282.44,-678.73 288.43,-681.4"/>
<polygon fill="#63b8ff" stroke="#63b8ff" points="176.24,-404.64 172.28,-394.81 169.25,-404.96 176.24,-404.64"/>
</a>
</g>
</g>
<!-- Node27 -->
<g id="Node000027" class="node">
<title>Node27</title>
<g id="a_Node000027"><a xlink:href="class_test_1_1_z3_test_1_1_z3_solver_b_xor.html" target="_top" xlink:title=" ">
<polygon fill="white" stroke="#666666" points="422.25,-662 289.25,-662 289.25,-642 422.25,-642 422.25,-662"/>
<text text-anchor="middle" x="355.75" y="-648.5" font-family="Helvetica,sans-Serif" font-size="10.00">Test::Z3Test::Z3SolverBXor</text>
</a>
</g>
</g>
<!-- Node23&#45;&gt;Node27 -->
<g id="edge1040_Node000023_Node000027" class="edge">
<title>Node23&#45;&gt;Node27</title>
<g id="a_edge1040_Node000023_Node000027"><a xlink:title=" ">
<path fill="none" stroke="#63b8ff" d="M174.02,-404.51C179.77,-453.13 200.77,-572.03 272,-633 277.04,-637.31 282.86,-640.7 289.04,-643.35"/>
<polygon fill="#63b8ff" stroke="#63b8ff" points="177.52,-404.32 172.97,-394.75 170.56,-405.07 177.52,-404.32"/>
</a>
</g>
</g>
<!-- Node28 -->
<g id="Node000028" class="node">
<title>Node28</title>
<g id="a_Node000028"><a xlink:href="class_test_1_1_z3_test_1_1_z3_solver_cast_bit2_bool.html" target="_top" xlink:title=" ">
<polygon fill="white" stroke="#666666" points="422.25,-624 289.25,-624 289.25,-592 422.25,-592 422.25,-624"/>
<text text-anchor="start" x="297.25" y="-610.5" font-family="Helvetica,sans-Serif" font-size="10.00">Test::Z3Test::Z3SolverCast</text>
<text text-anchor="middle" x="355.75" y="-598.5" font-family="Helvetica,sans-Serif" font-size="10.00">Bit2Bool</text>
</a>
</g>
</g>
<!-- Node23&#45;&gt;Node28 -->
<g id="edge1041_Node000023_Node000028" class="edge">
<title>Node23&#45;&gt;Node28</title>
<g id="a_edge1041_Node000023_Node000028"><a xlink:title=" ">
<path fill="none" stroke="#63b8ff" d="M176.63,-404.01C186.7,-444.69 214.43,-534.48 272,-583 277.05,-587.26 282.81,-590.79 288.88,-593.72"/>
<polygon fill="#63b8ff" stroke="#63b8ff" points="180.1,-403.47 174.41,-394.53 173.29,-405.07 180.1,-403.47"/>
</a>
</g>
</g>
<!-- Node29 -->
<g id="Node000029" class="node">
<title>Node29</title>
<g id="a_Node000029"><a xlink:href="class_test_1_1_z3_test_1_1_z3_solver_cast_bit2_equal_bit.html" target="_top" xlink:title=" ">
<polygon fill="white" stroke="#666666" points="422.25,-574 289.25,-574 289.25,-542 422.25,-542 422.25,-574"/>
<text text-anchor="start" x="297.25" y="-560.5" font-family="Helvetica,sans-Serif" font-size="10.00">Test::Z3Test::Z3SolverCast</text>
<text text-anchor="middle" x="355.75" y="-548.5" font-family="Helvetica,sans-Serif" font-size="10.00">Bit2EqualBit</text>
</a>
</g>
</g>
<!-- Node23&#45;&gt;Node29 -->
<g id="edge1042_Node000023_Node000029" class="edge">
<title>Node23&#45;&gt;Node29</title>
<g id="a_edge1042_Node000023_Node000029"><a xlink:title=" ">
<path fill="none" stroke="#63b8ff" d="M180.22,-403.59C194.2,-435.97 225.65,-498.63 272,-533 277.18,-536.84 282.96,-540.1 288.98,-542.86"/>
<polygon fill="#63b8ff" stroke="#63b8ff" points="183.53,-402.42 176.45,-394.54 177.07,-405.12 183.53,-402.42"/>
</a>
</g>
</g>
<!-- Node30 -->
<g id="Node000030" class="node">
<title>Node30</title>
<g id="a_Node000030"><a xlink:href="class_test_1_1_z3_test_1_1_z3_solver_cast_bit2_larger_bit.html" target="_top" xlink:title=" ">
<polygon fill="white" stroke="#666666" points="422.25,-524 289.25,-524 289.25,-492 422.25,-492 422.25,-524"/>
<text text-anchor="start" x="297.25" y="-510.5" font-family="Helvetica,sans-Serif" font-size="10.00">Test::Z3Test::Z3SolverCast</text>
<text text-anchor="middle" x="355.75" y="-498.5" font-family="Helvetica,sans-Serif" font-size="10.00">Bit2LargerBit</text>
</a>
</g>
</g>
<!-- Node23&#45;&gt;Node30 -->
<g id="edge1043_Node000023_Node000030" class="edge">
<title>Node23&#45;&gt;Node30</title>
<g id="a_edge1043_Node000023_Node000030"><a xlink:title=" ">
<path fill="none" stroke="#63b8ff" d="M186.47,-402.42C204.22,-424.94 236.4,-461.69 272,-483 277.41,-486.24 283.27,-489.09 289.29,-491.58"/>
<polygon fill="#63b8ff" stroke="#63b8ff" points="189.36,-400.44 180.49,-394.65 183.81,-404.71 189.36,-400.44"/>
</a>
</g>
</g>
<!-- Node31 -->
<g id="Node000031" class="node">
<title>Node31</title>
<g id="a_Node000031"><a xlink:href="class_test_1_1_z3_test_1_1_z3_solver_cast_bit2_less_bit.html" target="_top" xlink:title=" ">
<polygon fill="white" stroke="#666666" points="422.25,-474 289.25,-474 289.25,-442 422.25,-442 422.25,-474"/>
<text text-anchor="start" x="297.25" y="-460.5" font-family="Helvetica,sans-Serif" font-size="10.00">Test::Z3Test::Z3SolverCast</text>
<text text-anchor="middle" x="355.75" y="-448.5" font-family="Helvetica,sans-Serif" font-size="10.00">Bit2LessBit</text>
</a>
</g>
</g>
<!-- Node23&#45;&gt;Node31 -->
<g id="edge1044_Node000023_Node000031" class="edge">
<title>Node23&#45;&gt;Node31</title>
<g id="a_edge1044_Node000023_Node000031"><a xlink:title=" ">
<path fill="none" stroke="#63b8ff" d="M200.22,-398.73C219.93,-409.31 247.08,-423.09 272,-433 279.67,-436.05 287.86,-438.94 296,-441.61"/>
<polygon fill="#63b8ff" stroke="#63b8ff" points="202.15,-395.8 191.69,-394.1 198.81,-401.95 202.15,-395.8"/>
</a>
</g>
</g>
<!-- Node32 -->
<g id="Node000032" class="node">
<title>Node32</title>
<g id="a_Node000032"><a xlink:href="class_test_1_1_z3_test_1_1_z3_solver_cast_bool2_bit.html" target="_top" xlink:title=" ">
<polygon fill="white" stroke="#666666" points="422.25,-424 289.25,-424 289.25,-392 422.25,-392 422.25,-424"/>
<text text-anchor="start" x="297.25" y="-410.5" font-family="Helvetica,sans-Serif" font-size="10.00">Test::Z3Test::Z3SolverCast</text>
<text text-anchor="middle" x="355.75" y="-398.5" font-family="Helvetica,sans-Serif" font-size="10.00">Bool2Bit</text>
</a>
</g>
</g>
<!-- Node23&#45;&gt;Node32 -->
<g id="edge1045_Node000023_Node000032" class="edge">
<title>Node23&#45;&gt;Node32</title>
<g id="a_edge1045_Node000023_Node000032"><a xlink:title=" ">
<path fill="none" stroke="#63b8ff" d="M233.1,-391.36C250.98,-393.8 270.59,-396.49 288.76,-398.97"/>
<polygon fill="#63b8ff" stroke="#63b8ff" points="233.82,-387.92 223.44,-390.04 232.87,-394.86 233.82,-387.92"/>
</a>
</g>
</g>
<!-- Node33 -->
<g id="Node000033" class="node">
<title>Node33</title>
<g id="a_Node000033"><a xlink:href="class_test_1_1_z3_test_1_1_z3_solver_cast_in_assignment.html" target="_top" xlink:title=" ">
<polygon fill="white" stroke="#666666" points="422.25,-374 289.25,-374 289.25,-342 422.25,-342 422.25,-374"/>
<text text-anchor="start" x="297.25" y="-360.5" font-family="Helvetica,sans-Serif" font-size="10.00">Test::Z3Test::Z3SolverCast</text>
<text text-anchor="middle" x="355.75" y="-348.5" font-family="Helvetica,sans-Serif" font-size="10.00">InAssignment</text>
</a>
</g>
</g>
<!-- Node23&#45;&gt;Node33 -->
<g id="edge1046_Node000023_Node000033" class="edge">
<title>Node23&#45;&gt;Node33</title>
<g id="a_edge1046_Node000023_Node000033"><a xlink:title=" ">
<path fill="none" stroke="#63b8ff" d="M233.1,-374.64C250.98,-372.2 270.59,-369.51 288.76,-367.03"/>
<polygon fill="#63b8ff" stroke="#63b8ff" points="232.87,-371.14 223.44,-375.96 233.82,-378.08 232.87,-371.14"/>
</a>
</g>
</g>
<!-- Node34 -->
<g id="Node000034" class="node">
<title>Node34</title>
<g id="a_Node000034"><a xlink:href="class_test_1_1_z3_test_1_1_z3_solver_complement.html" target="_top" xlink:title=" ">
<polygon fill="white" stroke="#666666" points="439.5,-324 272,-324 272,-304 439.5,-304 439.5,-324"/>
<text text-anchor="middle" x="355.75" y="-310.5" font-family="Helvetica,sans-Serif" font-size="10.00">Test::Z3Test::Z3SolverComplement</text>
</a>
</g>
</g>
<!-- Node23&#45;&gt;Node34 -->
<g id="edge1047_Node000023_Node000034" class="edge">
<title>Node23&#45;&gt;Node34</title>
<g id="a_edge1047_Node000023_Node000034"><a xlink:title=" ">
<path fill="none" stroke="#63b8ff" d="M199.29,-367.13C218.97,-356.25 246.45,-342.17 272,-333 281.16,-329.71 291.09,-326.86 300.8,-324.43"/>
<polygon fill="#63b8ff" stroke="#63b8ff" points="197.82,-363.94 190.82,-371.9 201.25,-370.04 197.82,-363.94"/>
</a>
</g>
</g>
<!-- Node35 -->
<g id="Node000035" class="node">
<title>Node35</title>
<g id="a_Node000035"><a xlink:href="class_test_1_1_z3_test_1_1_z3_solver_conc.html" target="_top" xlink:title=" ">
<polygon fill="white" stroke="#666666" points="423.38,-286 288.12,-286 288.12,-266 423.38,-266 423.38,-286"/>
<text text-anchor="middle" x="355.75" y="-272.5" font-family="Helvetica,sans-Serif" font-size="10.00">Test::Z3Test::Z3SolverConc</text>
</a>
</g>
</g>
<!-- Node23&#45;&gt;Node35 -->
<g id="edge1048_Node000023_Node000035" class="edge">
<title>Node23&#45;&gt;Node35</title>
<g id="a_edge1048_Node000023_Node000035"><a xlink:title=" ">
<path fill="none" stroke="#63b8ff" d="M187.84,-364.38C206.07,-344.17 237.91,-312.47 272,-295 278.69,-291.57 286,-288.75 293.41,-286.44"/>
<polygon fill="#63b8ff" stroke="#63b8ff" points="185.45,-361.8 181.46,-371.62 190.7,-366.43 185.45,-361.8"/>
</a>
</g>
</g>
<!-- Node36 -->
<g id="Node000036" class="node">
<title>Node36</title>
<g id="a_Node000036"><a xlink:href="class_test_1_1_z3_test_1_1_z3_solver_i_t_e.html" target="_top" xlink:title=" ">
<polygon fill="white" stroke="#666666" points="419.25,-248 292.25,-248 292.25,-228 419.25,-228 419.25,-248"/>
<text text-anchor="middle" x="355.75" y="-234.5" font-family="Helvetica,sans-Serif" font-size="10.00">Test::Z3Test::Z3SolverITE</text>
</a>
</g>
</g>
<!-- Node23&#45;&gt;Node36 -->
<g id="edge1049_Node000023_Node000036" class="edge">
<title>Node23&#45;&gt;Node36</title>
<g id="a_edge1049_Node000023_Node000036"><a xlink:title=" ">
<path fill="none" stroke="#63b8ff" d="M182.4,-362.58C197.92,-334.27 229.88,-283.57 272,-257 278.11,-253.15 284.91,-250.07 291.92,-247.62"/>
<polygon fill="#63b8ff" stroke="#63b8ff" points="179.41,-360.75 177.81,-371.23 185.59,-364.03 179.41,-360.75"/>
</a>
</g>
</g>
<!-- Node37 -->
<g id="Node000037" class="node">
<title>Node37</title>
<g id="a_Node000037"><a xlink:href="class_test_1_1_z3_test_1_1_z3_solver_mod.html" target="_top" xlink:title=" ">
<polygon fill="white" stroke="#666666" points="421.5,-210 290,-210 290,-190 421.5,-190 421.5,-210"/>
<text text-anchor="middle" x="355.75" y="-196.5" font-family="Helvetica,sans-Serif" font-size="10.00">Test::Z3Test::Z3SolverMod</text>
</a>
</g>
</g>
<!-- Node23&#45;&gt;Node37 -->
<g id="edge1050_Node000023_Node000037" class="edge">
<title>Node23&#45;&gt;Node37</title>
<g id="a_edge1050_Node000023_Node000037"><a xlink:title=" ">
<path fill="none" stroke="#63b8ff" d="M178.7,-362.06C191.12,-326.75 221.2,-255.61 272,-219 277.38,-215.12 283.43,-212.02 289.74,-209.54"/>
<polygon fill="#63b8ff" stroke="#63b8ff" points="175.52,-360.54 175.64,-371.13 182.15,-362.77 175.52,-360.54"/>
</a>
</g>
</g>
<!-- Node38 -->
<g id="Node000038" class="node">
<title>Node38</title>
<g id="a_Node000038"><a xlink:href="class_test_1_1_z3_test_1_1_z3_solver_mult.html" target="_top" xlink:title=" ">
<polygon fill="white" stroke="#666666" points="421.5,-172 290,-172 290,-152 421.5,-152 421.5,-172"/>
<text text-anchor="middle" x="355.75" y="-158.5" font-family="Helvetica,sans-Serif" font-size="10.00">Test::Z3Test::Z3SolverMult</text>
</a>
</g>
</g>
<!-- Node23&#45;&gt;Node38 -->
<g id="edge1051_Node000023_Node000038" class="edge">
<title>Node23&#45;&gt;Node38</title>
<g id="a_edge1051_Node000023_Node000038"><a xlink:title=" ">
<path fill="none" stroke="#63b8ff" d="M176.28,-361.43C185.73,-319.73 212.44,-228.03 272,-181 277.32,-176.8 283.4,-173.49 289.8,-170.9"/>
<polygon fill="#63b8ff" stroke="#63b8ff" points="172.86,-360.67 174.2,-371.18 179.71,-362.13 172.86,-360.67"/>
</a>
</g>
</g>
<!-- Node39 -->
<g id="Node000039" class="node">
<title>Node39</title>
<g id="a_Node000039"><a xlink:href="class_test_1_1_z3_test_1_1_z3_solver_shl.html" target="_top" xlink:title=" ">
<polygon fill="white" stroke="#666666" points="419.25,-134 292.25,-134 292.25,-114 419.25,-114 419.25,-134"/>
<text text-anchor="middle" x="355.75" y="-120.5" font-family="Helvetica,sans-Serif" font-size="10.00">Test::Z3Test::Z3SolverShl</text>
</a>
</g>
</g>
<!-- Node23&#45;&gt;Node39 -->
<g id="edge1052_Node000023_Node000039" class="edge">
<title>Node23&#45;&gt;Node39</title>
<g id="a_edge1052_Node000023_Node000039"><a xlink:title=" ">
<path fill="none" stroke="#63b8ff" d="M174.43,-361.39C180.95,-314.08 203.27,-200.99 272,-143 277.86,-138.06 284.75,-134.34 292.02,-131.55"/>
<polygon fill="#63b8ff" stroke="#63b8ff" points="170.98,-360.78 173.2,-371.14 177.92,-361.66 170.98,-360.78"/>
</a>
</g>
</g>
<!-- Node40 -->
<g id="Node000040" class="node">
<title>Node40</title>
<g id="a_Node000040"><a xlink:href="class_test_1_1_z3_test_1_1_z3_solver_shr_s.html" target="_top" xlink:title=" ">
<polygon fill="white" stroke="#666666" points="423,-96 288.5,-96 288.5,-76 423,-76 423,-96"/>
<text text-anchor="middle" x="355.75" y="-82.5" font-family="Helvetica,sans-Serif" font-size="10.00">Test::Z3Test::Z3SolverShrS</text>
</a>
</g>
</g>
<!-- Node23&#45;&gt;Node40 -->
<g id="edge1053_Node000023_Node000040" class="edge">
<title>Node23&#45;&gt;Node40</title>
<g id="a_edge1053_Node000023_Node000040"><a xlink:title=" ">
<path fill="none" stroke="#63b8ff" d="M173.05,-361.28C176.82,-308.78 194,-174.19 272,-105 276.74,-100.79 282.23,-97.46 288.07,-94.84"/>
<polygon fill="#63b8ff" stroke="#63b8ff" points="169.56,-361.07 172.45,-371.26 176.55,-361.49 169.56,-361.07"/>
</a>
</g>
</g>
<!-- Node41 -->
<g id="Node000041" class="node">
<title>Node41</title>
<g id="a_Node000041"><a xlink:href="class_test_1_1_z3_test_1_1_z3_solver_shr_u.html" target="_top" xlink:title=" ">
<polygon fill="white" stroke="#666666" points="423,-58 288.5,-58 288.5,-38 423,-38 423,-58"/>
<text text-anchor="middle" x="355.75" y="-44.5" font-family="Helvetica,sans-Serif" font-size="10.00">Test::Z3Test::Z3SolverShrU</text>
</a>
</g>
</g>
<!-- Node23&#45;&gt;Node41 -->
<g id="edge1054_Node000023_Node000041" class="edge">
<title>Node23&#45;&gt;Node41</title>
<g id="a_edge1054_Node000023_Node000041"><a xlink:title=" ">
<path fill="none" stroke="#63b8ff" d="M171.97,-361.46C173.12,-304.3 184.5,-147.7 272,-67 276.77,-62.6 282.34,-59.16 288.3,-56.46"/>
<polygon fill="#63b8ff" stroke="#63b8ff" points="168.47,-361.09 171.87,-371.13 175.47,-361.16 168.47,-361.09"/>
</a>
</g>
</g>
<!-- Node42 -->
<g id="Node000042" class="node">
<title>Node42</title>
<g id="a_Node000042"><a xlink:href="class_test_1_1_z3_test_1_1_z3_solver_sub.html" target="_top" xlink:title=" ">
<polygon fill="white" stroke="#666666" points="420.75,-20 290.75,-20 290.75,0 420.75,0 420.75,-20"/>
<text text-anchor="middle" x="355.75" y="-6.5" font-family="Helvetica,sans-Serif" font-size="10.00">Test::Z3Test::Z3SolverSub</text>
</a>
</g>
</g>
<!-- Node23&#45;&gt;Node42 -->
<g id="edge1055_Node000023_Node000042" class="edge">
<title>Node23&#45;&gt;Node42</title>
<g id="a_edge1055_Node000023_Node000042"><a xlink:title=" ">
<path fill="none" stroke="#63b8ff" d="M175.17,-361.51C185.82,-292.17 222.46,-76.14 272,-29 277.34,-23.92 283.75,-20.1 290.61,-17.24"/>
<polygon fill="#63b8ff" stroke="#63b8ff" points="171.74,-360.77 173.71,-371.18 178.66,-361.81 171.74,-360.77"/>
</a>
</g>
</g>
</g>
</svg>
