<?xml version="1.0" encoding="UTF-8" standalone="no"?>
<!DOCTYPE svg PUBLIC "-//W3C//DTD SVG 1.1//EN"
 "http://www.w3.org/Graphics/SVG/1.1/DTD/svg11.dtd">
<!-- Generated by graphviz version 10.0.1 (20240210.2158)
 -->
<!-- Title: Graphical Class Hierarchy Pages: 1 -->
<svg width="421pt" height="154pt"
 viewBox="0.00 0.00 420.50 154.00" xmlns="http://www.w3.org/2000/svg" xmlns:xlink="http://www.w3.org/1999/xlink">
<g id="graph0" class="graph" transform="scale(1 1) rotate(0) translate(4 150)">
<title>Graphical Class Hierarchy</title>
<!-- Node0 -->
<g id="Node000000" class="node">
<title>Node0</title>
<g id="a_Node000000"><a xlink:title=" ">
<polygon fill="#e0e0e0" stroke="#999999" points="77.5,-77 0,-77 0,-57 77.5,-57 77.5,-77"/>
<text text-anchor="middle" x="38.75" y="-63.5" font-family="Helvetica,sans-Serif" font-size="10.00">std::exception</text>
</a>
</g>
</g>
<!-- Node1 -->
<g id="Node000001" class="node">
<title>Node1</title>
<g id="a_Node000001"><a xlink:href="class_util_1_1_p4_c_exception_base.html" target="_top" xlink:title=" ">
<polygon fill="white" stroke="#666666" points="234.5,-77 113.5,-77 113.5,-57 234.5,-57 234.5,-77"/>
<text text-anchor="middle" x="174" y="-63.5" font-family="Helvetica,sans-Serif" font-size="10.00">Util::P4CExceptionBase</text>
</a>
</g>
</g>
<!-- Node0&#45;&gt;Node1 -->
<g id="edge1003_Node000000_Node000001" class="edge">
<title>Node0&#45;&gt;Node1</title>
<g id="a_edge1003_Node000000_Node000001"><a xlink:title=" ">
<path fill="none" stroke="#63b8ff" d="M89.39,-67C97.14,-67 105.22,-67 113.18,-67"/>
<polygon fill="#63b8ff" stroke="#63b8ff" points="89.45,-63.5 79.45,-67 89.45,-70.5 89.45,-63.5"/>
</a>
</g>
</g>
<!-- Node2 -->
<g id="Node000002" class="node">
<title>Node2</title>
<g id="a_Node000002"><a xlink:href="class_p4_tools_1_1_p4_testgen_1_1_testgen_unimplemented.html" target="_top" xlink:title=" ">
<polygon fill="white" stroke="#666666" points="403.5,-146 279.5,-146 279.5,-114 403.5,-114 403.5,-146"/>
<text text-anchor="start" x="287.5" y="-132.5" font-family="Helvetica,sans-Serif" font-size="10.00">P4Tools::P4Testgen</text>
<text text-anchor="middle" x="341.5" y="-120.5" font-family="Helvetica,sans-Serif" font-size="10.00">::TestgenUnimplemented</text>
</a>
</g>
</g>
<!-- Node1&#45;&gt;Node2 -->
<g id="edge1004_Node000001_Node000002" class="edge">
<title>Node1&#45;&gt;Node2</title>
<g id="a_edge1004_Node000001_Node000002"><a xlink:title=" ">
<path fill="none" stroke="#63b8ff" d="M210.97,-81.66C228.81,-88.85 250.73,-97.54 270.5,-105 277.99,-107.82 285.95,-110.75 293.73,-113.56"/>
<polygon fill="#63b8ff" stroke="#63b8ff" points="212.43,-78.48 201.84,-77.98 209.8,-84.97 212.43,-78.48"/>
</a>
</g>
</g>
<!-- Node3 -->
<g id="Node000003" class="node">
<title>Node3</title>
<g id="a_Node000003"><a xlink:href="class_util_1_1_compilation_error.html" target="_top" xlink:title=" ">
<polygon fill="white" stroke="#666666" points="395.62,-96 287.38,-96 287.38,-76 395.62,-76 395.62,-96"/>
<text text-anchor="middle" x="341.5" y="-82.5" font-family="Helvetica,sans-Serif" font-size="10.00">Util::CompilationError</text>
</a>
</g>
</g>
<!-- Node1&#45;&gt;Node3 -->
<g id="edge1005_Node000001_Node000003" class="edge">
<title>Node1&#45;&gt;Node3</title>
<g id="a_edge1005_Node000001_Node000003"><a xlink:title=" ">
<path fill="none" stroke="#63b8ff" d="M246.1,-75.16C259.77,-76.73 273.88,-78.35 286.88,-79.84"/>
<polygon fill="#63b8ff" stroke="#63b8ff" points="246.59,-71.7 236.25,-74.03 245.79,-78.65 246.59,-71.7"/>
</a>
</g>
</g>
<!-- Node4 -->
<g id="Node000004" class="node">
<title>Node4</title>
<g id="a_Node000004"><a xlink:href="class_util_1_1_compiler_bug.html" target="_top" xlink:title="This class indicates a bug in the compiler.">
<polygon fill="white" stroke="#666666" points="387.38,-58 295.62,-58 295.62,-38 387.38,-38 387.38,-58"/>
<text text-anchor="middle" x="341.5" y="-44.5" font-family="Helvetica,sans-Serif" font-size="10.00">Util::CompilerBug</text>
</a>
</g>
</g>
<!-- Node1&#45;&gt;Node4 -->
<g id="edge1006_Node000001_Node000004" class="edge">
<title>Node1&#45;&gt;Node4</title>
<g id="a_edge1006_Node000001_Node000004"><a xlink:title=" ">
<path fill="none" stroke="#63b8ff" d="M246.12,-58.84C262.73,-56.93 279.99,-54.95 295.13,-53.21"/>
<polygon fill="#63b8ff" stroke="#63b8ff" points="245.79,-55.35 236.25,-59.97 246.59,-62.3 245.79,-55.35"/>
</a>
</g>
</g>
<!-- Node5 -->
<g id="Node000005" class="node">
<title>Node5</title>
<g id="a_Node000005"><a xlink:href="class_util_1_1_compiler_unimplemented.html" target="_top" xlink:title="This class indicates an unimplemented feature in the compiler.">
<polygon fill="white" stroke="#666666" points="412.5,-20 270.5,-20 270.5,0 412.5,0 412.5,-20"/>
<text text-anchor="middle" x="341.5" y="-6.5" font-family="Helvetica,sans-Serif" font-size="10.00">Util::CompilerUnimplemented</text>
</a>
</g>
</g>
<!-- Node1&#45;&gt;Node5 -->
<g id="edge1007_Node000001_Node000005" class="edge">
<title>Node1&#45;&gt;Node5</title>
<g id="a_edge1007_Node000001_Node000005"><a xlink:title=" ">
<path fill="none" stroke="#63b8ff" d="M209.62,-52.12C227.6,-44.68 250.03,-35.83 270.5,-29 279.58,-25.97 289.44,-23.07 298.81,-20.48"/>
<polygon fill="#63b8ff" stroke="#63b8ff" points="208.32,-48.87 200.45,-55.96 211.03,-55.33 208.32,-48.87"/>
</a>
</g>
</g>
</g>
</svg>
