<?xml version="1.0" encoding="UTF-8" standalone="no"?>
<!DOCTYPE svg PUBLIC "-//W3C//DTD SVG 1.1//EN"
 "http://www.w3.org/Graphics/SVG/1.1/DTD/svg11.dtd">
<!-- Generated by graphviz version 10.0.1 (20240210.2158)
 -->
<!-- Title: Graphical Class Hierarchy Pages: 1 -->
<svg width="430pt" height="290pt"
 viewBox="0.00 0.00 430.25 290.00" xmlns="http://www.w3.org/2000/svg" xmlns:xlink="http://www.w3.org/1999/xlink">
<g id="graph0" class="graph" transform="scale(1 1) rotate(0) translate(4 286)">
<title>Graphical Class Hierarchy</title>
<!-- Node0 -->
<g id="Node000000" class="node">
<title>Node0</title>
<g id="a_Node000000"><a xlink:href="class_p4_tools_1_1_p4_testgen_1_1_test_framework.html" target="_top" xlink:title=" ">
<polygon fill="white" stroke="#666666" points="103.75,-107 0,-107 0,-75 103.75,-75 103.75,-107"/>
<text text-anchor="start" x="8" y="-93.5" font-family="Helvetica,sans-Serif" font-size="10.00">P4Tools::P4Testgen</text>
<text text-anchor="middle" x="51.88" y="-81.5" font-family="Helvetica,sans-Serif" font-size="10.00">::TestFramework</text>
</a>
</g>
</g>
<!-- Node1 -->
<g id="Node000001" class="node">
<title>Node1</title>
<g id="a_Node000001"><a xlink:href="class_p4_tools_1_1_p4_testgen_1_1_bmv2_1_1_bmv2_test_framework.html" target="_top" xlink:title="Bmv2TestFramework provides common utility functions for BMv2&#45;style test frameworks.">
<polygon fill="white" stroke="#666666" points="282.5,-182 139.75,-182 139.75,-150 282.5,-150 282.5,-182"/>
<text text-anchor="start" x="147.75" y="-168.5" font-family="Helvetica,sans-Serif" font-size="10.00">P4Tools::P4Testgen</text>
<text text-anchor="middle" x="211.12" y="-156.5" font-family="Helvetica,sans-Serif" font-size="10.00">::Bmv2::Bmv2TestFramework</text>
</a>
</g>
</g>
<!-- Node0&#45;&gt;Node1 -->
<g id="edge981_Node000000_Node000001" class="edge">
<title>Node0&#45;&gt;Node1</title>
<g id="a_edge981_Node000000_Node000001"><a xlink:title=" ">
<path fill="none" stroke="#63b8ff" d="M88.14,-113.24C103.63,-122.49 122.25,-132.93 139.75,-141 146.34,-144.04 153.42,-146.94 160.45,-149.63"/>
<polygon fill="#63b8ff" stroke="#63b8ff" points="90.11,-110.34 79.75,-108.15 86.48,-116.32 90.11,-110.34"/>
</a>
</g>
</g>
<!-- Node7 -->
<g id="Node000007" class="node">
<title>Node7</title>
<g id="a_Node000007"><a xlink:href="class_p4_tools_1_1_p4_testgen_1_1_e_b_p_f_1_1_s_t_f.html" target="_top" xlink:title="Extracts information from the @testSpec to emit a STF test case.">
<polygon fill="white" stroke="#666666" points="263,-132 159.25,-132 159.25,-100 263,-100 263,-132"/>
<text text-anchor="start" x="167.25" y="-118.5" font-family="Helvetica,sans-Serif" font-size="10.00">P4Tools::P4Testgen</text>
<text text-anchor="middle" x="211.12" y="-106.5" font-family="Helvetica,sans-Serif" font-size="10.00">::EBPF::STF</text>
</a>
</g>
</g>
<!-- Node0&#45;&gt;Node7 -->
<g id="edge987_Node000000_Node000007" class="edge">
<title>Node0&#45;&gt;Node7</title>
<g id="a_edge987_Node000000_Node000007"><a xlink:title=" ">
<path fill="none" stroke="#63b8ff" d="M115.29,-100.92C129.72,-103.22 144.9,-105.63 158.79,-107.84"/>
<polygon fill="#63b8ff" stroke="#63b8ff" points="115.85,-97.47 105.42,-99.35 114.75,-104.38 115.85,-97.47"/>
</a>
</g>
</g>
<!-- Node8 -->
<g id="Node000008" class="node">
<title>Node8</title>
<g id="a_Node000008"><a xlink:href="class_p4_tools_1_1_p4_testgen_1_1_pna_1_1_metadata.html" target="_top" xlink:title="Extracts information from the @testSpec to emit a Metadata test case.">
<polygon fill="white" stroke="#666666" points="263,-82 159.25,-82 159.25,-50 263,-50 263,-82"/>
<text text-anchor="start" x="167.25" y="-68.5" font-family="Helvetica,sans-Serif" font-size="10.00">P4Tools::P4Testgen</text>
<text text-anchor="middle" x="211.12" y="-56.5" font-family="Helvetica,sans-Serif" font-size="10.00">::Pna::Metadata</text>
</a>
</g>
</g>
<!-- Node0&#45;&gt;Node8 -->
<g id="edge988_Node000000_Node000008" class="edge">
<title>Node0&#45;&gt;Node8</title>
<g id="a_edge988_Node000000_Node000008"><a xlink:title=" ">
<path fill="none" stroke="#63b8ff" d="M115.29,-81.08C129.72,-78.78 144.9,-76.37 158.79,-74.16"/>
<polygon fill="#63b8ff" stroke="#63b8ff" points="114.75,-77.62 105.42,-82.65 115.85,-84.53 114.75,-77.62"/>
</a>
</g>
</g>
<!-- Node9 -->
<g id="Node000009" class="node">
<title>Node9</title>
<g id="a_Node000009"><a xlink:href="class_p4_tools_1_1_p4_testgen_1_1_pna_1_1_p_t_f.html" target="_top" xlink:title="Extracts information from the @testSpec to emit a PTF test case.">
<polygon fill="white" stroke="#666666" points="263,-32 159.25,-32 159.25,0 263,0 263,-32"/>
<text text-anchor="start" x="167.25" y="-18.5" font-family="Helvetica,sans-Serif" font-size="10.00">P4Tools::P4Testgen</text>
<text text-anchor="middle" x="211.12" y="-6.5" font-family="Helvetica,sans-Serif" font-size="10.00">::Pna::PTF</text>
</a>
</g>
</g>
<!-- Node0&#45;&gt;Node9 -->
<g id="edge989_Node000000_Node000009" class="edge">
<title>Node0&#45;&gt;Node9</title>
<g id="a_edge989_Node000000_Node000009"><a xlink:title=" ">
<path fill="none" stroke="#63b8ff" d="M88.14,-68.76C103.63,-59.51 122.25,-49.07 139.75,-41 146.34,-37.96 153.42,-35.06 160.45,-32.37"/>
<polygon fill="#63b8ff" stroke="#63b8ff" points="86.48,-65.68 79.75,-73.85 90.11,-71.66 86.48,-65.68"/>
</a>
</g>
</g>
<!-- Node2 -->
<g id="Node000002" class="node">
<title>Node2</title>
<g id="a_Node000002"><a xlink:href="class_p4_tools_1_1_p4_testgen_1_1_bmv2_1_1_metadata.html" target="_top" xlink:title="Extracts information from the @testSpec to emit a Metadata test case.">
<polygon fill="white" stroke="#666666" points="422.25,-282 318.5,-282 318.5,-250 422.25,-250 422.25,-282"/>
<text text-anchor="start" x="326.5" y="-268.5" font-family="Helvetica,sans-Serif" font-size="10.00">P4Tools::P4Testgen</text>
<text text-anchor="middle" x="370.38" y="-256.5" font-family="Helvetica,sans-Serif" font-size="10.00">::Bmv2::Metadata</text>
</a>
</g>
</g>
<!-- Node1&#45;&gt;Node2 -->
<g id="edge982_Node000001_Node000002" class="edge">
<title>Node1&#45;&gt;Node2</title>
<g id="a_edge982_Node000001_Node000002"><a xlink:title=" ">
<path fill="none" stroke="#63b8ff" d="M242.05,-189.01C262.91,-204.57 291.7,-225.1 318.5,-241 323.49,-243.96 328.89,-246.89 334.23,-249.63"/>
<polygon fill="#63b8ff" stroke="#63b8ff" points="244.36,-186.37 234.27,-183.16 240.16,-191.97 244.36,-186.37"/>
</a>
</g>
</g>
<!-- Node3 -->
<g id="Node000003" class="node">
<title>Node3</title>
<g id="a_Node000003"><a xlink:href="class_p4_tools_1_1_p4_testgen_1_1_bmv2_1_1_p_t_f.html" target="_top" xlink:title="Extracts information from the @testSpec to emit a PTF test case.">
<polygon fill="white" stroke="#666666" points="422.25,-232 318.5,-232 318.5,-200 422.25,-200 422.25,-232"/>
<text text-anchor="start" x="326.5" y="-218.5" font-family="Helvetica,sans-Serif" font-size="10.00">P4Tools::P4Testgen</text>
<text text-anchor="middle" x="370.38" y="-206.5" font-family="Helvetica,sans-Serif" font-size="10.00">::Bmv2::PTF</text>
</a>
</g>
</g>
<!-- Node1&#45;&gt;Node3 -->
<g id="edge983_Node000001_Node000003" class="edge">
<title>Node1&#45;&gt;Node3</title>
<g id="a_edge983_Node000001_Node000003"><a xlink:title=" ">
<path fill="none" stroke="#63b8ff" d="M274.48,-185.83C288.92,-190.42 304.13,-195.25 318.04,-199.68"/>
<polygon fill="#63b8ff" stroke="#63b8ff" points="275.65,-182.53 265.06,-182.83 273.53,-189.2 275.65,-182.53"/>
</a>
</g>
</g>
<!-- Node4 -->
<g id="Node000004" class="node">
<title>Node4</title>
<g id="a_Node000004"><a xlink:href="class_p4_tools_1_1_p4_testgen_1_1_bmv2_1_1_protobuf.html" target="_top" xlink:title="Extracts information from the @testSpec to emit a Protobuf test case.">
<polygon fill="white" stroke="#666666" points="422.25,-182 318.5,-182 318.5,-150 422.25,-150 422.25,-182"/>
<text text-anchor="start" x="326.5" y="-168.5" font-family="Helvetica,sans-Serif" font-size="10.00">P4Tools::P4Testgen</text>
<text text-anchor="middle" x="370.38" y="-156.5" font-family="Helvetica,sans-Serif" font-size="10.00">::Bmv2::Protobuf</text>
</a>
</g>
</g>
<!-- Node1&#45;&gt;Node4 -->
<g id="edge984_Node000001_Node000004" class="edge">
<title>Node1&#45;&gt;Node4</title>
<g id="a_edge984_Node000001_Node000004"><a xlink:title=" ">
<path fill="none" stroke="#63b8ff" d="M294.4,-166C302.52,-166 310.59,-166 318.25,-166"/>
<polygon fill="#63b8ff" stroke="#63b8ff" points="294.44,-162.5 284.44,-166 294.44,-169.5 294.44,-162.5"/>
</a>
</g>
</g>
<!-- Node5 -->
<g id="Node000005" class="node">
<title>Node5</title>
<g id="a_Node000005"><a xlink:href="class_p4_tools_1_1_p4_testgen_1_1_bmv2_1_1_protobuf_ir.html" target="_top" xlink:title="Extracts information from the @testSpec to emit a Protobuf IR test case.">
<polygon fill="white" stroke="#666666" points="422.25,-132 318.5,-132 318.5,-100 422.25,-100 422.25,-132"/>
<text text-anchor="start" x="326.5" y="-118.5" font-family="Helvetica,sans-Serif" font-size="10.00">P4Tools::P4Testgen</text>
<text text-anchor="middle" x="370.38" y="-106.5" font-family="Helvetica,sans-Serif" font-size="10.00">::Bmv2::ProtobufIr</text>
</a>
</g>
</g>
<!-- Node1&#45;&gt;Node5 -->
<g id="edge985_Node000001_Node000005" class="edge">
<title>Node1&#45;&gt;Node5</title>
<g id="a_edge985_Node000001_Node000005"><a xlink:title=" ">
<path fill="none" stroke="#63b8ff" d="M274.48,-146.17C288.92,-141.58 304.13,-136.75 318.04,-132.32"/>
<polygon fill="#63b8ff" stroke="#63b8ff" points="273.53,-142.8 265.06,-149.17 275.65,-149.47 273.53,-142.8"/>
</a>
</g>
</g>
<!-- Node6 -->
<g id="Node000006" class="node">
<title>Node6</title>
<g id="a_Node000006"><a xlink:href="class_p4_tools_1_1_p4_testgen_1_1_bmv2_1_1_s_t_f.html" target="_top" xlink:title="Extracts information from the @testSpec to emit a STF test case.">
<polygon fill="white" stroke="#666666" points="422.25,-82 318.5,-82 318.5,-50 422.25,-50 422.25,-82"/>
<text text-anchor="start" x="326.5" y="-68.5" font-family="Helvetica,sans-Serif" font-size="10.00">P4Tools::P4Testgen</text>
<text text-anchor="middle" x="370.38" y="-56.5" font-family="Helvetica,sans-Serif" font-size="10.00">::Bmv2::STF</text>
</a>
</g>
</g>
<!-- Node1&#45;&gt;Node6 -->
<g id="edge986_Node000001_Node000006" class="edge">
<title>Node1&#45;&gt;Node6</title>
<g id="a_edge986_Node000001_Node000006"><a xlink:title=" ">
<path fill="none" stroke="#63b8ff" d="M278.29,-143.95C279.73,-143 281.14,-142.02 282.5,-141 304.4,-124.56 297.59,-108.68 318.5,-91 322.18,-87.89 326.32,-85.05 330.6,-82.5"/>
<polygon fill="#63b8ff" stroke="#63b8ff" points="276.57,-140.9 269.62,-148.9 280.04,-146.98 276.57,-140.9"/>
</a>
</g>
</g>
</g>
</svg>
