<?xml version="1.0" encoding="UTF-8" standalone="no"?>
<!DOCTYPE svg PUBLIC "-//W3C//DTD SVG 1.1//EN"
 "http://www.w3.org/Graphics/SVG/1.1/DTD/svg11.dtd">
<!-- Generated by graphviz version 10.0.1 (20240210.2158)
 -->
<!-- Title: Graphical Class Hierarchy Pages: 1 -->
<svg width="273pt" height="90pt"
 viewBox="0.00 0.00 272.50 90.00" xmlns="http://www.w3.org/2000/svg" xmlns:xlink="http://www.w3.org/1999/xlink">
<g id="graph0" class="graph" transform="scale(1 1) rotate(0) translate(4 86)">
<title>Graphical Class Hierarchy</title>
<!-- Node0 -->
<g id="Node000000" class="node">
<title>Node0</title>
<g id="a_Node000000"><a xlink:title=" ">
<polygon fill="#e0e0e0" stroke="#999999" points="106.75,-51 0,-51 0,-31 106.75,-31 106.75,-51"/>
<text text-anchor="middle" x="53.38" y="-37.5" font-family="Helvetica,sans-Serif" font-size="10.00">std::basic_streambuf</text>
</a>
</g>
</g>
<!-- Node1 -->
<g id="Node000001" class="node">
<title>Node1</title>
<g id="a_Node000001"><a xlink:href="classbasic__nullbuf.html" target="_top" xlink:title=" ">
<polygon fill="white" stroke="#666666" points="264.5,-82 142.75,-82 142.75,-50 264.5,-50 264.5,-82"/>
<text text-anchor="start" x="150.75" y="-68.5" font-family="Helvetica,sans-Serif" font-size="10.00">basic_nullbuf&lt; cT,</text>
<text text-anchor="middle" x="203.62" y="-56.5" font-family="Helvetica,sans-Serif" font-size="10.00"> std::char_traits&lt; cT &gt; &gt;</text>
</a>
</g>
</g>
<!-- Node0&#45;&gt;Node1 -->
<g id="edge1001_Node000000_Node000001" class="edge">
<title>Node0&#45;&gt;Node1</title>
<g id="a_edge1001_Node000000_Node000001"><a xlink:title=" ">
<path fill="none" stroke="#63b8ff" d="M118.2,-51.76C126.19,-53.11 134.34,-54.49 142.27,-55.82"/>
<polygon fill="#63b8ff" stroke="#63b8ff" points="119,-48.35 108.55,-50.14 117.83,-55.25 119,-48.35"/>
</a>
</g>
</g>
<!-- Node2 -->
<g id="Node000002" class="node">
<title>Node2</title>
<g id="a_Node000002"><a xlink:href="classbasic__nullbuf.html" target="_top" xlink:title=" ">
<polygon fill="white" stroke="#666666" points="251,-32 156.25,-32 156.25,0 251,0 251,-32"/>
<text text-anchor="start" x="164.25" y="-18.5" font-family="Helvetica,sans-Serif" font-size="10.00">basic_nullbuf&lt; cT,</text>
<text text-anchor="middle" x="203.62" y="-6.5" font-family="Helvetica,sans-Serif" font-size="10.00"> traits &gt;</text>
</a>
</g>
</g>
<!-- Node0&#45;&gt;Node2 -->
<g id="edge1002_Node000000_Node000002" class="edge">
<title>Node0&#45;&gt;Node2</title>
<g id="a_edge1002_Node000000_Node000002"><a xlink:title=" ">
<path fill="none" stroke="#63b8ff" d="M118.11,-30.25C130.84,-28.11 144,-25.89 156.02,-23.86"/>
<polygon fill="#63b8ff" stroke="#63b8ff" points="117.83,-26.75 108.55,-31.86 119,-33.65 117.83,-26.75"/>
</a>
</g>
</g>
</g>
</svg>
