<?xml version="1.0" encoding="UTF-8" standalone="no"?>
<!DOCTYPE svg PUBLIC "-//W3C//DTD SVG 1.1//EN"
 "http://www.w3.org/Graphics/SVG/1.1/DTD/svg11.dtd">
<!-- Generated by graphviz version 10.0.1 (20240210.2158)
 -->
<!-- Title: Graphical Class Hierarchy Pages: 1 -->
<svg width="750pt" height="855pt"
 viewBox="0.00 0.00 750.25 855.00" xmlns="http://www.w3.org/2000/svg" xmlns:xlink="http://www.w3.org/1999/xlink">
<g id="graph0" class="graph" transform="scale(1 1) rotate(0) translate(4 851)">
<title>Graphical Class Hierarchy</title>
<!-- Node0 -->
<g id="Node000000" class="node">
<title>Node0</title>
<g id="a_Node000000"><a xlink:href="struct_model_1_1_elem.html" target="_top" xlink:title=" ">
<polygon fill="white" stroke="#666666" points="70.75,-304 0,-304 0,-284 70.75,-284 70.75,-304"/>
<text text-anchor="middle" x="35.38" y="-290.5" font-family="Helvetica,sans-Serif" font-size="10.00">Model::Elem</text>
</a>
</g>
</g>
<!-- Node1 -->
<g id="Node000001" class="node">
<title>Node1</title>
<g id="a_Node000001"><a xlink:href="struct_e_b_p_f_1_1_filter___model.html" target="_top" xlink:title=" ">
<polygon fill="white" stroke="#666666" points="218,-576 116.5,-576 116.5,-556 218,-556 218,-576"/>
<text text-anchor="middle" x="167.25" y="-562.5" font-family="Helvetica,sans-Serif" font-size="10.00">EBPF::Filter_Model</text>
</a>
</g>
</g>
<!-- Node0&#45;&gt;Node1 -->
<g id="edge876_Node000000_Node000001" class="edge">
<title>Node0&#45;&gt;Node1</title>
<g id="a_edge876_Node000000_Node000001"><a xlink:title=" ">
<path fill="none" stroke="#63b8ff" d="M35.93,-315.82C36.15,-364.21 43.6,-481.42 106.75,-547 110.06,-550.44 113.99,-553.25 118.23,-555.56"/>
<polygon fill="#63b8ff" stroke="#63b8ff" points="39.43,-315.87 36,-305.85 32.43,-315.82 39.43,-315.87"/>
</a>
</g>
</g>
<!-- Node2 -->
<g id="Node000002" class="node">
<title>Node2</title>
<g id="a_Node000002"><a xlink:href="struct_e_b_p_f_1_1_xdp___model.html" target="_top" xlink:title=" ">
<polygon fill="white" stroke="#666666" points="215,-538 119.5,-538 119.5,-518 215,-518 215,-538"/>
<text text-anchor="middle" x="167.25" y="-524.5" font-family="Helvetica,sans-Serif" font-size="10.00">EBPF::Xdp_Model</text>
</a>
</g>
</g>
<!-- Node0&#45;&gt;Node2 -->
<g id="edge877_Node000000_Node000002" class="edge">
<title>Node0&#45;&gt;Node2</title>
<g id="a_edge877_Node000000_Node000002"><a xlink:title=" ">
<path fill="none" stroke="#63b8ff" d="M37.19,-315.44C39.98,-358.28 52.33,-454.97 106.75,-509 110.37,-512.59 114.66,-515.5 119.26,-517.87"/>
<polygon fill="#63b8ff" stroke="#63b8ff" points="40.7,-315.51 36.68,-305.71 33.71,-315.88 40.7,-315.51"/>
</a>
</g>
</g>
<!-- Node3 -->
<g id="Node000003" class="node">
<title>Node3</title>
<g id="a_Node000003"><a xlink:href="struct_model_1_1_param___model.html" target="_top" xlink:title="Param_Model : Elem.">
<polygon fill="white" stroke="#666666" points="221.38,-500 113.12,-500 113.12,-480 221.38,-480 221.38,-500"/>
<text text-anchor="middle" x="167.25" y="-486.5" font-family="Helvetica,sans-Serif" font-size="10.00">Model::Param_Model</text>
</a>
</g>
</g>
<!-- Node0&#45;&gt;Node3 -->
<g id="edge878_Node000000_Node000003" class="edge">
<title>Node0&#45;&gt;Node3</title>
<g id="a_edge878_Node000000_Node000003"><a xlink:title=" ">
<path fill="none" stroke="#63b8ff" d="M38.94,-315.41C44.52,-352.41 61.11,-428.42 106.75,-471 110.48,-474.48 114.84,-477.32 119.48,-479.64"/>
<polygon fill="#63b8ff" stroke="#63b8ff" points="42.42,-315.01 37.61,-305.57 35.49,-315.95 42.42,-315.01"/>
</a>
</g>
</g>
<!-- Node4 -->
<g id="Node000004" class="node">
<title>Node4</title>
<g id="a_Node000004"><a xlink:href="struct_model_1_1_type___model.html" target="_top" xlink:title=" ">
<polygon fill="white" stroke="#666666" points="217.62,-462 116.88,-462 116.88,-442 217.62,-442 217.62,-462"/>
<text text-anchor="middle" x="167.25" y="-448.5" font-family="Helvetica,sans-Serif" font-size="10.00">Model::Type_Model</text>
</a>
</g>
</g>
<!-- Node0&#45;&gt;Node4 -->
<g id="edge879_Node000000_Node000004" class="edge">
<title>Node0&#45;&gt;Node4</title>
<g id="a_edge879_Node000000_Node000004"><a xlink:title=" ">
<path fill="none" stroke="#63b8ff" d="M41.6,-315.49C50.11,-345.97 69.83,-401.55 106.75,-433 110.79,-436.45 115.47,-439.27 120.39,-441.58"/>
<polygon fill="#63b8ff" stroke="#63b8ff" points="45.01,-314.7 39.09,-305.91 38.24,-316.47 45.01,-314.7"/>
</a>
</g>
</g>
<!-- Node28 -->
<g id="Node000028" class="node">
<title>Node28</title>
<g id="a_Node000028"><a xlink:href="class_p4_1_1_p4_exception___model.html" target="_top" xlink:title=" ">
<polygon fill="white" stroke="#666666" points="227.75,-424 106.75,-424 106.75,-404 227.75,-404 227.75,-424"/>
<text text-anchor="middle" x="167.25" y="-410.5" font-family="Helvetica,sans-Serif" font-size="10.00">P4::P4Exception_Model</text>
</a>
</g>
</g>
<!-- Node0&#45;&gt;Node28 -->
<g id="edge903_Node000000_Node000028" class="edge">
<title>Node0&#45;&gt;Node28</title>
<g id="a_edge903_Node000000_Node000028"><a xlink:title=" ">
<path fill="none" stroke="#63b8ff" d="M45.6,-314.53C56.88,-337.37 78.06,-373.83 106.75,-395 111.37,-398.41 116.63,-401.23 122.07,-403.54"/>
<polygon fill="#63b8ff" stroke="#63b8ff" points="48.83,-313.17 41.39,-305.62 42.5,-316.16 48.83,-313.17"/>
</a>
</g>
</g>
<!-- Node29 -->
<g id="Node000029" class="node">
<title>Node29</title>
<g id="a_Node000029"><a xlink:href="struct_p4_v1_1_1_control___model.html" target="_top" xlink:title=" ">
<polygon fill="white" stroke="#666666" points="221.38,-386 113.12,-386 113.12,-366 221.38,-366 221.38,-386"/>
<text text-anchor="middle" x="167.25" y="-372.5" font-family="Helvetica,sans-Serif" font-size="10.00">P4V1::Control_Model</text>
</a>
</g>
</g>
<!-- Node0&#45;&gt;Node29 -->
<g id="edge904_Node000000_Node000029" class="edge">
<title>Node0&#45;&gt;Node29</title>
<g id="a_edge904_Node000000_Node000029"><a xlink:title=" ">
<path fill="none" stroke="#63b8ff" d="M53.13,-312.78C66.45,-326.71 86.2,-345.24 106.75,-357 112.59,-360.34 119.08,-363.17 125.58,-365.56"/>
<polygon fill="#63b8ff" stroke="#63b8ff" points="55.76,-310.47 46.39,-305.52 50.62,-315.23 55.76,-310.47"/>
</a>
</g>
</g>
<!-- Node30 -->
<g id="Node000030" class="node">
<title>Node30</title>
<g id="a_Node000030"><a xlink:href="struct_p4_v1_1_1_deparser___model.html" target="_top" xlink:title=" ">
<polygon fill="white" stroke="#666666" points="225.5,-348 109,-348 109,-328 225.5,-328 225.5,-348"/>
<text text-anchor="middle" x="167.25" y="-334.5" font-family="Helvetica,sans-Serif" font-size="10.00">P4V1::Deparser_Model</text>
</a>
</g>
</g>
<!-- Node0&#45;&gt;Node30 -->
<g id="edge905_Node000000_Node000030" class="edge">
<title>Node0&#45;&gt;Node30</title>
<g id="a_edge905_Node000000_Node000030"><a xlink:title=" ">
<path fill="none" stroke="#63b8ff" d="M75.66,-308.21C85.77,-311.79 96.64,-315.59 106.75,-319 115.18,-321.84 124.31,-324.81 132.83,-327.54"/>
<polygon fill="#63b8ff" stroke="#63b8ff" points="77.08,-305 66.49,-304.94 74.73,-311.59 77.08,-305"/>
</a>
</g>
</g>
<!-- Node31 -->
<g id="Node000031" class="node">
<title>Node31</title>
<g id="a_Node000031"><a xlink:href="struct_p4_v1_1_1_digest_receiver___model.html" target="_top" xlink:title=" ">
<polygon fill="white" stroke="#666666" points="222.5,-310 112,-310 112,-278 222.5,-278 222.5,-310"/>
<text text-anchor="start" x="120" y="-296.5" font-family="Helvetica,sans-Serif" font-size="10.00">P4V1::DigestReceiver</text>
<text text-anchor="middle" x="167.25" y="-284.5" font-family="Helvetica,sans-Serif" font-size="10.00">_Model</text>
</a>
</g>
</g>
<!-- Node0&#45;&gt;Node31 -->
<g id="edge906_Node000000_Node000031" class="edge">
<title>Node0&#45;&gt;Node31</title>
<g id="a_edge906_Node000000_Node000031"><a xlink:title=" ">
<path fill="none" stroke="#63b8ff" d="M82.41,-294C91.91,-294 102,-294 111.77,-294"/>
<polygon fill="#63b8ff" stroke="#63b8ff" points="82.69,-290.5 72.69,-294 82.69,-297.5 82.69,-290.5"/>
</a>
</g>
</g>
<!-- Node32 -->
<g id="Node000032" class="node">
<title>Node32</title>
<g id="a_Node000032"><a xlink:href="struct_p4_v1_1_1_hash___model.html" target="_top" xlink:title=" ">
<polygon fill="white" stroke="#666666" points="217.25,-260 117.25,-260 117.25,-240 217.25,-240 217.25,-260"/>
<text text-anchor="middle" x="167.25" y="-246.5" font-family="Helvetica,sans-Serif" font-size="10.00">P4V1::Hash_Model</text>
</a>
</g>
</g>
<!-- Node0&#45;&gt;Node32 -->
<g id="edge907_Node000000_Node000032" class="edge">
<title>Node0&#45;&gt;Node32</title>
<g id="a_edge907_Node000000_Node000032"><a xlink:title=" ">
<path fill="none" stroke="#63b8ff" d="M75.66,-279.79C85.77,-276.21 96.64,-272.41 106.75,-269 115.18,-266.16 124.31,-263.19 132.83,-260.46"/>
<polygon fill="#63b8ff" stroke="#63b8ff" points="74.73,-276.41 66.49,-283.06 77.08,-283 74.73,-276.41"/>
</a>
</g>
</g>
<!-- Node33 -->
<g id="Node000033" class="node">
<title>Node33</title>
<g id="a_Node000033"><a xlink:href="struct_p4_v1_1_1_parser___model.html" target="_top" xlink:title=" ">
<polygon fill="white" stroke="#666666" points="220.25,-222 114.25,-222 114.25,-202 220.25,-202 220.25,-222"/>
<text text-anchor="middle" x="167.25" y="-208.5" font-family="Helvetica,sans-Serif" font-size="10.00">P4V1::Parser_Model</text>
</a>
</g>
</g>
<!-- Node0&#45;&gt;Node33 -->
<g id="edge908_Node000000_Node000033" class="edge">
<title>Node0&#45;&gt;Node33</title>
<g id="a_edge908_Node000000_Node000033"><a xlink:title=" ">
<path fill="none" stroke="#63b8ff" d="M53.13,-275.22C66.45,-261.29 86.2,-242.76 106.75,-231 112.59,-227.66 119.08,-224.83 125.58,-222.44"/>
<polygon fill="#63b8ff" stroke="#63b8ff" points="50.62,-272.77 46.39,-282.48 55.76,-277.53 50.62,-272.77"/>
</a>
</g>
</g>
<!-- Node34 -->
<g id="Node000034" class="node">
<title>Node34</title>
<g id="a_Node000034"><a xlink:href="struct_p4_v1_1_1_random___model.html" target="_top" xlink:title=" ">
<polygon fill="white" stroke="#666666" points="224,-184 110.5,-184 110.5,-164 224,-164 224,-184"/>
<text text-anchor="middle" x="167.25" y="-170.5" font-family="Helvetica,sans-Serif" font-size="10.00">P4V1::Random_Model</text>
</a>
</g>
</g>
<!-- Node0&#45;&gt;Node34 -->
<g id="edge909_Node000000_Node000034" class="edge">
<title>Node0&#45;&gt;Node34</title>
<g id="a_edge909_Node000000_Node000034"><a xlink:title=" ">
<path fill="none" stroke="#63b8ff" d="M45.6,-273.47C56.88,-250.63 78.06,-214.17 106.75,-193 111.37,-189.59 116.63,-186.77 122.07,-184.46"/>
<polygon fill="#63b8ff" stroke="#63b8ff" points="42.5,-271.84 41.39,-282.38 48.83,-274.83 42.5,-271.84"/>
</a>
</g>
</g>
<!-- Node35 -->
<g id="Node000035" class="node">
<title>Node35</title>
<g id="a_Node000035"><a xlink:href="struct_p4_v1_1_1_switch___model.html" target="_top" xlink:title=" ">
<polygon fill="white" stroke="#666666" points="220.62,-146 113.88,-146 113.88,-126 220.62,-126 220.62,-146"/>
<text text-anchor="middle" x="167.25" y="-132.5" font-family="Helvetica,sans-Serif" font-size="10.00">P4V1::Switch_Model</text>
</a>
</g>
</g>
<!-- Node0&#45;&gt;Node35 -->
<g id="edge910_Node000000_Node000035" class="edge">
<title>Node0&#45;&gt;Node35</title>
<g id="a_edge910_Node000000_Node000035"><a xlink:title=" ">
<path fill="none" stroke="#63b8ff" d="M41.6,-272.51C50.11,-242.03 69.83,-186.45 106.75,-155 110.79,-151.55 115.47,-148.73 120.39,-146.42"/>
<polygon fill="#63b8ff" stroke="#63b8ff" points="38.24,-271.53 39.09,-282.09 45.01,-273.3 38.24,-271.53"/>
</a>
</g>
</g>
<!-- Node36 -->
<g id="Node000036" class="node">
<title>Node36</title>
<g id="a_Node000036"><a xlink:href="struct_p4_v1_1_1_verify_update___model.html" target="_top" xlink:title=" ">
<polygon fill="white" stroke="#666666" points="218,-108 116.5,-108 116.5,-76 218,-76 218,-108"/>
<text text-anchor="start" x="124.5" y="-94.5" font-family="Helvetica,sans-Serif" font-size="10.00">P4V1::VerifyUpdate</text>
<text text-anchor="middle" x="167.25" y="-82.5" font-family="Helvetica,sans-Serif" font-size="10.00">_Model</text>
</a>
</g>
</g>
<!-- Node0&#45;&gt;Node36 -->
<g id="edge911_Node000000_Node000036" class="edge">
<title>Node0&#45;&gt;Node36</title>
<g id="a_edge911_Node000000_Node000036"><a xlink:title=" ">
<path fill="none" stroke="#63b8ff" d="M39.43,-272.48C45.7,-235.92 63.25,-161.35 106.75,-117 109.97,-113.72 113.68,-110.85 117.65,-108.34"/>
<polygon fill="#63b8ff" stroke="#63b8ff" points="36,-271.79 37.9,-282.22 42.91,-272.88 36,-271.79"/>
</a>
</g>
</g>
<!-- Node37 -->
<g id="Node000037" class="node">
<title>Node37</title>
<g id="a_Node000037"><a xlink:href="struct_u_b_p_f_1_1_hash___model.html" target="_top" xlink:title=" ">
<polygon fill="white" stroke="#666666" points="218.38,-58 116.12,-58 116.12,-38 218.38,-38 218.38,-58"/>
<text text-anchor="middle" x="167.25" y="-44.5" font-family="Helvetica,sans-Serif" font-size="10.00">UBPF::Hash_Model</text>
</a>
</g>
</g>
<!-- Node0&#45;&gt;Node37 -->
<g id="edge912_Node000000_Node000037" class="edge">
<title>Node0&#45;&gt;Node37</title>
<g id="a_edge912_Node000000_Node000037"><a xlink:title=" ">
<path fill="none" stroke="#63b8ff" d="M36.76,-272.31C38.74,-227.6 49.64,-124.6 106.75,-67 110.19,-63.53 114.25,-60.7 118.62,-58.38"/>
<polygon fill="#63b8ff" stroke="#63b8ff" points="33.26,-272.12 36.44,-282.23 40.26,-272.34 33.26,-272.12"/>
</a>
</g>
</g>
<!-- Node38 -->
<g id="Node000038" class="node">
<title>Node38</title>
<g id="a_Node000038"><a xlink:href="struct_u_b_p_f_1_1_pipeline___model.html" target="_top" xlink:title=" ">
<polygon fill="white" stroke="#666666" points="224.38,-20 110.12,-20 110.12,0 224.38,0 224.38,-20"/>
<text text-anchor="middle" x="167.25" y="-6.5" font-family="Helvetica,sans-Serif" font-size="10.00">UBPF::Pipeline_Model</text>
</a>
</g>
</g>
<!-- Node0&#45;&gt;Node38 -->
<g id="edge913_Node000000_Node000038" class="edge">
<title>Node0&#45;&gt;Node38</title>
<g id="a_edge913_Node000000_Node000038"><a xlink:title=" ">
<path fill="none" stroke="#63b8ff" d="M35.59,-272.5C35,-222.72 40.64,-98.47 106.75,-29 110.04,-25.54 113.96,-22.71 118.19,-20.4"/>
<polygon fill="#63b8ff" stroke="#63b8ff" points="32.09,-272.3 35.82,-282.21 39.09,-272.13 32.09,-272.3"/>
</a>
</g>
</g>
<!-- Node5 -->
<g id="Node000005" class="node">
<title>Node5</title>
<g id="a_Node000005"><a xlink:href="struct_model_1_1_enum___model.html" target="_top" xlink:title="Enum_Model : Type_Model.">
<polygon fill="white" stroke="#666666" points="389.62,-752 284.38,-752 284.38,-732 389.62,-732 389.62,-752"/>
<text text-anchor="middle" x="337" y="-738.5" font-family="Helvetica,sans-Serif" font-size="10.00">Model::Enum_Model</text>
</a>
</g>
</g>
<!-- Node4&#45;&gt;Node5 -->
<g id="edge880_Node000004_Node000005" class="edge">
<title>Node4&#45;&gt;Node5</title>
<g id="a_edge880_Node000004_Node000005"><a xlink:title=" ">
<path fill="none" stroke="#63b8ff" d="M224.46,-468.22C225.6,-469.1 226.7,-470.02 227.75,-471 309.12,-546.8 330.54,-691.85 334.99,-731.67"/>
<polygon fill="#63b8ff" stroke="#63b8ff" points="226.64,-465.45 216.3,-463.16 222.96,-471.4 226.64,-465.45"/>
</a>
</g>
</g>
<!-- Node11 -->
<g id="Node000011" class="node">
<title>Node11</title>
<g id="a_Node000011"><a xlink:href="struct_model_1_1_extern___model.html" target="_top" xlink:title="Extern_Model : Type_Model.">
<polygon fill="white" stroke="#666666" points="391.12,-462 282.88,-462 282.88,-442 391.12,-442 391.12,-462"/>
<text text-anchor="middle" x="337" y="-448.5" font-family="Helvetica,sans-Serif" font-size="10.00">Model::Extern_Model</text>
</a>
</g>
</g>
<!-- Node4&#45;&gt;Node11 -->
<g id="edge886_Node000004_Node000011" class="edge">
<title>Node4&#45;&gt;Node11</title>
<g id="a_edge886_Node000004_Node000011"><a xlink:title=" ">
<path fill="none" stroke="#63b8ff" d="M228.95,-452C246.48,-452 265.48,-452 282.54,-452"/>
<polygon fill="#63b8ff" stroke="#63b8ff" points="229.19,-448.5 219.19,-452 229.19,-455.5 229.19,-448.5"/>
</a>
</g>
</g>
<!-- Node27 -->
<g id="Node000027" class="node">
<title>Node27</title>
<g id="a_Node000027"><a xlink:href="struct_p4_v1_1_1_standard_metadata_type___model.html" target="_top" xlink:title=" ">
<polygon fill="white" stroke="#666666" points="410.25,-424 263.75,-424 263.75,-392 410.25,-392 410.25,-424"/>
<text text-anchor="start" x="271.75" y="-410.5" font-family="Helvetica,sans-Serif" font-size="10.00">P4V1::StandardMetadataType</text>
<text text-anchor="middle" x="337" y="-398.5" font-family="Helvetica,sans-Serif" font-size="10.00">_Model</text>
</a>
</g>
</g>
<!-- Node4&#45;&gt;Node27 -->
<g id="edge902_Node000004_Node000027" class="edge">
<title>Node4&#45;&gt;Node27</title>
<g id="a_edge902_Node000004_Node000027"><a xlink:title=" ">
<path fill="none" stroke="#63b8ff" d="M218.89,-438.72C236.01,-434.23 255.32,-429.16 273.25,-424.46"/>
<polygon fill="#63b8ff" stroke="#63b8ff" points="218.25,-435.27 209.47,-441.19 220.03,-442.04 218.25,-435.27"/>
</a>
</g>
</g>
<!-- Node6 -->
<g id="Node000006" class="node">
<title>Node6</title>
<g id="a_Node000006"><a xlink:href="struct_p4_v1_1_1_algorithm___model.html" target="_top" xlink:title=" ">
<polygon fill="white" stroke="#666666" points="571.75,-847 453,-847 453,-827 571.75,-827 571.75,-847"/>
<text text-anchor="middle" x="512.38" y="-833.5" font-family="Helvetica,sans-Serif" font-size="10.00">P4V1::Algorithm_Model</text>
</a>
</g>
</g>
<!-- Node5&#45;&gt;Node6 -->
<g id="edge881_Node000005_Node000006" class="edge">
<title>Node5&#45;&gt;Node6</title>
<g id="a_edge881_Node000005_Node000006"><a xlink:title=" ">
<path fill="none" stroke="#63b8ff" d="M358.45,-759.47C379.31,-776.52 413.23,-802.13 446.25,-818 453.15,-821.32 460.74,-824.17 468.24,-826.59"/>
<polygon fill="#63b8ff" stroke="#63b8ff" points="360.93,-756.98 351,-753.28 356.45,-762.36 360.93,-756.98"/>
</a>
</g>
</g>
<!-- Node7 -->
<g id="Node000007" class="node">
<title>Node7</title>
<g id="a_Node000007"><a xlink:href="struct_p4_v1_1_1_clone_type___model.html" target="_top" xlink:title=" ">
<polygon fill="white" stroke="#666666" points="574,-809 450.75,-809 450.75,-789 574,-789 574,-809"/>
<text text-anchor="middle" x="512.38" y="-795.5" font-family="Helvetica,sans-Serif" font-size="10.00">P4V1::CloneType_Model</text>
</a>
</g>
</g>
<!-- Node5&#45;&gt;Node7 -->
<g id="edge882_Node000005_Node000007" class="edge">
<title>Node5&#45;&gt;Node7</title>
<g id="a_edge882_Node000005_Node000007"><a xlink:title=" ">
<path fill="none" stroke="#63b8ff" d="M377.16,-756.32C397.66,-763.67 423.21,-772.6 446.25,-780 455.33,-782.92 465.19,-785.89 474.42,-788.59"/>
<polygon fill="#63b8ff" stroke="#63b8ff" points="378.37,-753.03 367.77,-752.93 375.99,-759.62 378.37,-753.03"/>
</a>
</g>
</g>
<!-- Node8 -->
<g id="Node000008" class="node">
<title>Node8</title>
<g id="a_Node000008"><a xlink:href="struct_p4_v1_1_1_counter_type___model.html" target="_top" xlink:title=" ">
<polygon fill="white" stroke="#666666" points="578.5,-771 446.25,-771 446.25,-751 578.5,-751 578.5,-771"/>
<text text-anchor="middle" x="512.38" y="-757.5" font-family="Helvetica,sans-Serif" font-size="10.00">P4V1::CounterType_Model</text>
</a>
</g>
</g>
<!-- Node5&#45;&gt;Node8 -->
<g id="edge883_Node000005_Node000008" class="edge">
<title>Node5&#45;&gt;Node8</title>
<g id="a_edge883_Node000005_Node000008"><a xlink:title=" ">
<path fill="none" stroke="#63b8ff" d="M401.4,-748.95C415.88,-750.53 431.29,-752.22 445.86,-753.82"/>
<polygon fill="#63b8ff" stroke="#63b8ff" points="401.84,-745.48 391.52,-747.87 401.08,-752.43 401.84,-745.48"/>
</a>
</g>
</g>
<!-- Node9 -->
<g id="Node000009" class="node">
<title>Node9</title>
<g id="a_Node000009"><a xlink:href="struct_p4_v1_1_1_meter_type___model.html" target="_top" xlink:title=" ">
<polygon fill="white" stroke="#666666" points="574,-733 450.75,-733 450.75,-713 574,-713 574,-733"/>
<text text-anchor="middle" x="512.38" y="-719.5" font-family="Helvetica,sans-Serif" font-size="10.00">P4V1::MeterType_Model</text>
</a>
</g>
</g>
<!-- Node5&#45;&gt;Node9 -->
<g id="edge884_Node000005_Node000009" class="edge">
<title>Node5&#45;&gt;Node9</title>
<g id="a_edge884_Node000005_Node000009"><a xlink:title=" ">
<path fill="none" stroke="#63b8ff" d="M401.45,-735.05C417.48,-733.29 434.65,-731.41 450.55,-729.67"/>
<polygon fill="#63b8ff" stroke="#63b8ff" points="401.08,-731.57 391.52,-736.13 401.84,-738.52 401.08,-731.57"/>
</a>
</g>
</g>
<!-- Node10 -->
<g id="Node000010" class="node">
<title>Node10</title>
<g id="a_Node000010"><a xlink:href="struct_u_b_p_f_1_1_algorithm___model.html" target="_top" xlink:title=" ">
<polygon fill="white" stroke="#666666" points="572.88,-695 451.88,-695 451.88,-675 572.88,-675 572.88,-695"/>
<text text-anchor="middle" x="512.38" y="-681.5" font-family="Helvetica,sans-Serif" font-size="10.00">UBPF::Algorithm_Model</text>
</a>
</g>
</g>
<!-- Node5&#45;&gt;Node10 -->
<g id="edge885_Node000005_Node000010" class="edge">
<title>Node5&#45;&gt;Node10</title>
<g id="a_edge885_Node000005_Node000010"><a xlink:title=" ">
<path fill="none" stroke="#63b8ff" d="M377.16,-727.68C397.66,-720.33 423.21,-711.4 446.25,-704 455.33,-701.08 465.19,-698.11 474.42,-695.41"/>
<polygon fill="#63b8ff" stroke="#63b8ff" points="375.99,-724.38 367.77,-731.07 378.37,-730.97 375.99,-724.38"/>
</a>
</g>
</g>
<!-- Node12 -->
<g id="Node000012" class="node">
<title>Node12</title>
<g id="a_Node000012"><a xlink:href="struct_e_b_p_f_1_1_counter_array___model.html" target="_top" xlink:title=" ">
<polygon fill="white" stroke="#666666" points="565,-657 459.75,-657 459.75,-625 565,-625 565,-657"/>
<text text-anchor="start" x="467.75" y="-643.5" font-family="Helvetica,sans-Serif" font-size="10.00">EBPF::CounterArray</text>
<text text-anchor="middle" x="512.38" y="-631.5" font-family="Helvetica,sans-Serif" font-size="10.00">_Model</text>
</a>
</g>
</g>
<!-- Node11&#45;&gt;Node12 -->
<g id="edge887_Node000011_Node000012" class="edge">
<title>Node11&#45;&gt;Node12</title>
<g id="a_edge887_Node000011_Node000012"><a xlink:title=" ">
<path fill="none" stroke="#63b8ff" d="M346.55,-472.68C361.73,-507.04 396.56,-576.06 446.25,-616 450.31,-619.26 454.84,-622.13 459.58,-624.65"/>
<polygon fill="#63b8ff" stroke="#63b8ff" points="349.91,-471.65 342.75,-463.84 343.48,-474.41 349.91,-471.65"/>
</a>
</g>
</g>
<!-- Node13 -->
<g id="Node000013" class="node">
<title>Node13</title>
<g id="a_Node000013"><a xlink:href="struct_e_b_p_f_1_1_table_impl___model.html" target="_top" xlink:title=" ">
<polygon fill="white" stroke="#666666" points="572.88,-607 451.88,-607 451.88,-587 572.88,-587 572.88,-607"/>
<text text-anchor="middle" x="512.38" y="-593.5" font-family="Helvetica,sans-Serif" font-size="10.00">EBPF::TableImpl_Model</text>
</a>
</g>
</g>
<!-- Node11&#45;&gt;Node13 -->
<g id="edge888_Node000011_Node000013" class="edge">
<title>Node11&#45;&gt;Node13</title>
<g id="a_edge888_Node000011_Node000013"><a xlink:title=" ">
<path fill="none" stroke="#63b8ff" d="M349.68,-471.7C367.18,-499.51 402.83,-550.02 446.25,-578 451.6,-581.45 457.58,-584.28 463.71,-586.61"/>
<polygon fill="#63b8ff" stroke="#63b8ff" points="352.88,-470.23 344.67,-463.53 346.91,-473.89 352.88,-470.23"/>
</a>
</g>
</g>
<!-- Node14 -->
<g id="Node000014" class="node">
<title>Node14</title>
<g id="a_Node000014"><a xlink:href="class_p4_1_1_packet_in.html" target="_top" xlink:title=" ">
<polygon fill="white" stroke="#666666" points="548.5,-569 476.25,-569 476.25,-549 548.5,-549 548.5,-569"/>
<text text-anchor="middle" x="512.38" y="-555.5" font-family="Helvetica,sans-Serif" font-size="10.00">P4::PacketIn</text>
</a>
</g>
</g>
<!-- Node11&#45;&gt;Node14 -->
<g id="edge889_Node000011_Node000014" class="edge">
<title>Node11&#45;&gt;Node14</title>
<g id="a_edge889_Node000011_Node000014"><a xlink:title=" ">
<path fill="none" stroke="#63b8ff" d="M355.71,-470.23C375.91,-490.05 410.75,-521.37 446.25,-540 455.43,-544.82 465.99,-548.57 475.9,-551.41"/>
<polygon fill="#63b8ff" stroke="#63b8ff" points="358.36,-467.94 348.82,-463.34 353.41,-472.89 358.36,-467.94"/>
</a>
</g>
</g>
<!-- Node15 -->
<g id="Node000015" class="node">
<title>Node15</title>
<g id="a_Node000015"><a xlink:href="class_p4_1_1_packet_out.html" target="_top" xlink:title=" ">
<polygon fill="white" stroke="#666666" points="552.62,-531 472.12,-531 472.12,-511 552.62,-511 552.62,-531"/>
<text text-anchor="middle" x="512.38" y="-517.5" font-family="Helvetica,sans-Serif" font-size="10.00">P4::PacketOut</text>
</a>
</g>
</g>
<!-- Node11&#45;&gt;Node15 -->
<g id="edge890_Node000011_Node000015" class="edge">
<title>Node11&#45;&gt;Node15</title>
<g id="a_edge890_Node000011_Node000015"><a xlink:title=" ">
<path fill="none" stroke="#63b8ff" d="M368.08,-467.36C389.52,-477.95 419.22,-491.88 446.25,-502 454.52,-505.1 463.54,-508.01 472.15,-510.58"/>
<polygon fill="#63b8ff" stroke="#63b8ff" points="369.83,-464.33 359.32,-462.99 366.71,-470.59 369.83,-464.33"/>
</a>
</g>
</g>
<!-- Node16 -->
<g id="Node000016" class="node">
<title>Node16</title>
<g id="a_Node000016"><a xlink:href="struct_p4_v1_1_1_action_profile___model.html" target="_top" xlink:title=" ">
<polygon fill="white" stroke="#666666" points="562.75,-493 462,-493 462,-461 562.75,-461 562.75,-493"/>
<text text-anchor="start" x="470" y="-479.5" font-family="Helvetica,sans-Serif" font-size="10.00">P4V1::ActionProfile</text>
<text text-anchor="middle" x="512.38" y="-467.5" font-family="Helvetica,sans-Serif" font-size="10.00">_Model</text>
</a>
</g>
</g>
<!-- Node11&#45;&gt;Node16 -->
<g id="edge891_Node000011_Node000016" class="edge">
<title>Node11&#45;&gt;Node16</title>
<g id="a_edge891_Node000011_Node000016"><a xlink:title=" ">
<path fill="none" stroke="#63b8ff" d="M402.7,-461.33C422.2,-464.14 443.3,-467.18 461.67,-469.83"/>
<polygon fill="#63b8ff" stroke="#63b8ff" points="403.33,-457.88 392.93,-459.92 402.33,-464.81 403.33,-457.88"/>
</a>
</g>
</g>
<!-- Node17 -->
<g id="Node000017" class="node">
<title>Node17</title>
<g id="a_Node000017"><a xlink:href="struct_p4_v1_1_1_action_selector___model.html" target="_top" xlink:title=" ">
<polygon fill="white" stroke="#666666" points="567.25,-443 457.5,-443 457.5,-411 567.25,-411 567.25,-443"/>
<text text-anchor="start" x="465.5" y="-429.5" font-family="Helvetica,sans-Serif" font-size="10.00">P4V1::ActionSelector</text>
<text text-anchor="middle" x="512.38" y="-417.5" font-family="Helvetica,sans-Serif" font-size="10.00">_Model</text>
</a>
</g>
</g>
<!-- Node11&#45;&gt;Node17 -->
<g id="edge892_Node000011_Node000017" class="edge">
<title>Node11&#45;&gt;Node17</title>
<g id="a_edge892_Node000011_Node000017"><a xlink:title=" ">
<path fill="none" stroke="#63b8ff" d="M402.7,-442.67C420.65,-440.08 439.94,-437.3 457.22,-434.81"/>
<polygon fill="#63b8ff" stroke="#63b8ff" points="402.33,-439.19 392.93,-444.08 403.33,-446.12 402.33,-439.19"/>
</a>
</g>
</g>
<!-- Node18 -->
<g id="Node000018" class="node">
<title>Node18</title>
<g id="a_Node000018"><a xlink:href="struct_p4_v1_1_1_cloner___model.html" target="_top" xlink:title=" ">
<polygon fill="white" stroke="#666666" points="565,-393 459.75,-393 459.75,-373 565,-373 565,-393"/>
<text text-anchor="middle" x="512.38" y="-379.5" font-family="Helvetica,sans-Serif" font-size="10.00">P4V1::Cloner_Model</text>
</a>
</g>
</g>
<!-- Node11&#45;&gt;Node18 -->
<g id="edge893_Node000011_Node000018" class="edge">
<title>Node11&#45;&gt;Node18</title>
<g id="a_edge893_Node000011_Node000018"><a xlink:title=" ">
<path fill="none" stroke="#63b8ff" d="M400.2,-437.65C403.66,-436.24 407.04,-434.69 410.25,-433 428.94,-423.17 427.69,-412.07 446.25,-402 452.46,-398.63 459.34,-395.79 466.23,-393.43"/>
<polygon fill="#63b8ff" stroke="#63b8ff" points="399.23,-434.28 391.04,-441 401.63,-440.85 399.23,-434.28"/>
</a>
</g>
</g>
<!-- Node19 -->
<g id="Node000019" class="node">
<title>Node19</title>
<g id="a_Node000019"><a xlink:href="struct_p4_v1_1_1_counter_or_meter___model.html" target="_top" xlink:title=" ">
<polygon fill="white" stroke="#666666" points="569.88,-355 454.88,-355 454.88,-323 569.88,-323 569.88,-355"/>
<text text-anchor="start" x="462.88" y="-341.5" font-family="Helvetica,sans-Serif" font-size="10.00">P4V1::CounterOrMeter</text>
<text text-anchor="middle" x="512.38" y="-329.5" font-family="Helvetica,sans-Serif" font-size="10.00">_Model</text>
</a>
</g>
</g>
<!-- Node11&#45;&gt;Node19 -->
<g id="edge894_Node000011_Node000019" class="edge">
<title>Node11&#45;&gt;Node19</title>
<g id="a_edge894_Node000011_Node000019"><a xlink:title=" ">
<path fill="none" stroke="#63b8ff" d="M401.56,-438.76C404.63,-437.07 407.55,-435.16 410.25,-433 437.29,-411.42 420.43,-387.02 446.25,-364 449.87,-360.78 453.94,-357.95 458.25,-355.47"/>
<polygon fill="#63b8ff" stroke="#63b8ff" points="400.35,-435.47 392.74,-442.85 403.29,-441.82 400.35,-435.47"/>
</a>
</g>
</g>
<!-- Node24 -->
<g id="Node000024" class="node">
<title>Node24</title>
<g id="a_Node000024"><a xlink:href="struct_p4_v1_1_1_register___model.html" target="_top" xlink:title=" ">
<polygon fill="white" stroke="#666666" points="569.12,-305 455.62,-305 455.62,-285 569.12,-285 569.12,-305"/>
<text text-anchor="middle" x="512.38" y="-291.5" font-family="Helvetica,sans-Serif" font-size="10.00">P4V1::Register_Model</text>
</a>
</g>
</g>
<!-- Node11&#45;&gt;Node24 -->
<g id="edge899_Node000011_Node000024" class="edge">
<title>Node11&#45;&gt;Node24</title>
<g id="a_edge899_Node000011_Node000024"><a xlink:title=" ">
<path fill="none" stroke="#63b8ff" d="M401.46,-439.73C404.62,-437.8 407.59,-435.57 410.25,-433 450.03,-394.65 406.99,-352.88 446.25,-314 449.77,-310.52 453.88,-307.67 458.3,-305.34"/>
<polygon fill="#63b8ff" stroke="#63b8ff" points="400.2,-436.45 392.81,-444.03 403.32,-442.72 400.2,-436.45"/>
</a>
</g>
</g>
<!-- Node25 -->
<g id="Node000025" class="node">
<title>Node25</title>
<g id="a_Node000025"><a xlink:href="class_p4_v1_1_1_truncate.html" target="_top" xlink:title=" ">
<polygon fill="white" stroke="#666666" points="554.12,-267 470.62,-267 470.62,-247 554.12,-247 554.12,-267"/>
<text text-anchor="middle" x="512.38" y="-253.5" font-family="Helvetica,sans-Serif" font-size="10.00">P4V1::Truncate</text>
</a>
</g>
</g>
<!-- Node11&#45;&gt;Node25 -->
<g id="edge900_Node000011_Node000025" class="edge">
<title>Node11&#45;&gt;Node25</title>
<g id="a_edge900_Node000011_Node000025"><a xlink:title=" ">
<path fill="none" stroke="#63b8ff" d="M401.51,-440.05C404.68,-438.03 407.63,-435.7 410.25,-433 460.06,-381.58 397.13,-328.08 446.25,-276 452.63,-269.23 461.28,-264.83 470.18,-261.98"/>
<polygon fill="#63b8ff" stroke="#63b8ff" points="400.09,-436.84 392.76,-444.49 403.26,-443.08 400.09,-436.84"/>
</a>
</g>
</g>
<!-- Node26 -->
<g id="Node000026" class="node">
<title>Node26</title>
<g id="a_Node000026"><a xlink:href="struct_u_b_p_f_1_1_register___model.html" target="_top" xlink:title=" ">
<polygon fill="white" stroke="#666666" points="570.25,-229 454.5,-229 454.5,-209 570.25,-209 570.25,-229"/>
<text text-anchor="middle" x="512.38" y="-215.5" font-family="Helvetica,sans-Serif" font-size="10.00">UBPF::Register_Model</text>
</a>
</g>
</g>
<!-- Node11&#45;&gt;Node26 -->
<g id="edge901_Node000011_Node000026" class="edge">
<title>Node11&#45;&gt;Node26</title>
<g id="a_edge901_Node000011_Node000026"><a xlink:title=" ">
<path fill="none" stroke="#63b8ff" d="M401.64,-440.18C404.79,-438.13 407.69,-435.76 410.25,-433 470.2,-368.4 387.17,-303.39 446.25,-238 449.33,-234.59 452.98,-231.78 456.96,-229.46"/>
<polygon fill="#63b8ff" stroke="#63b8ff" points="400.23,-436.97 392.96,-444.68 403.45,-443.18 400.23,-436.97"/>
</a>
</g>
</g>
<!-- Node20 -->
<g id="Node000020" class="node">
<title>Node20</title>
<g id="a_Node000020"><a xlink:href="struct_p4_v1_1_1_counter___model.html" target="_top" xlink:title=" ">
<polygon fill="white" stroke="#666666" points="734,-415 622.75,-415 622.75,-395 734,-395 734,-415"/>
<text text-anchor="middle" x="678.38" y="-401.5" font-family="Helvetica,sans-Serif" font-size="10.00">P4V1::Counter_Model</text>
</a>
</g>
</g>
<!-- Node19&#45;&gt;Node20 -->
<g id="edge895_Node000019_Node000020" class="edge">
<title>Node19&#45;&gt;Node20</title>
<g id="a_edge895_Node000019_Node000020"><a xlink:title=" ">
<path fill="none" stroke="#63b8ff" d="M569.69,-359.87C572.7,-361.22 575.65,-362.6 578.5,-364 595.32,-372.28 597.39,-378.34 614.5,-386 621.68,-389.22 629.56,-392.08 637.24,-394.54"/>
<polygon fill="#63b8ff" stroke="#63b8ff" points="571.33,-356.77 560.76,-356.04 568.58,-363.2 571.33,-356.77"/>
</a>
</g>
</g>
<!-- Node21 -->
<g id="Node000021" class="node">
<title>Node21</title>
<g id="a_Node000021"><a xlink:href="struct_p4_v1_1_1_direct_counter___model.html" target="_top" xlink:title=" ">
<polygon fill="white" stroke="#666666" points="731,-377 625.75,-377 625.75,-345 731,-345 731,-377"/>
<text text-anchor="start" x="633.75" y="-363.5" font-family="Helvetica,sans-Serif" font-size="10.00">P4V1::DirectCounter</text>
<text text-anchor="middle" x="678.38" y="-351.5" font-family="Helvetica,sans-Serif" font-size="10.00">_Model</text>
</a>
</g>
</g>
<!-- Node19&#45;&gt;Node21 -->
<g id="edge896_Node000019_Node000021" class="edge">
<title>Node19&#45;&gt;Node21</title>
<g id="a_edge896_Node000019_Node000021"><a xlink:title=" ">
<path fill="none" stroke="#63b8ff" d="M581.4,-348.13C596.15,-350.1 611.52,-352.17 625.52,-354.04"/>
<polygon fill="#63b8ff" stroke="#63b8ff" points="582.15,-344.69 571.77,-346.83 581.22,-351.63 582.15,-344.69"/>
</a>
</g>
</g>
<!-- Node22 -->
<g id="Node000022" class="node">
<title>Node22</title>
<g id="a_Node000022"><a xlink:href="struct_p4_v1_1_1_direct_meter___model.html" target="_top" xlink:title=" ">
<polygon fill="white" stroke="#666666" points="742.25,-327 614.5,-327 614.5,-307 742.25,-307 742.25,-327"/>
<text text-anchor="middle" x="678.38" y="-313.5" font-family="Helvetica,sans-Serif" font-size="10.00">P4V1::DirectMeter_Model</text>
</a>
</g>
</g>
<!-- Node19&#45;&gt;Node22 -->
<g id="edge897_Node000019_Node000022" class="edge">
<title>Node19&#45;&gt;Node22</title>
<g id="a_edge897_Node000019_Node000022"><a xlink:title=" ">
<path fill="none" stroke="#63b8ff" d="M581.41,-329.87C592.24,-328.42 603.41,-326.92 614.13,-325.48"/>
<polygon fill="#63b8ff" stroke="#63b8ff" points="581.22,-326.37 571.77,-331.17 582.15,-333.31 581.22,-326.37"/>
</a>
</g>
</g>
<!-- Node23 -->
<g id="Node000023" class="node">
<title>Node23</title>
<g id="a_Node000023"><a xlink:href="struct_p4_v1_1_1_meter___model.html" target="_top" xlink:title=" ">
<polygon fill="white" stroke="#666666" points="729.5,-289 627.25,-289 627.25,-269 729.5,-269 729.5,-289"/>
<text text-anchor="middle" x="678.38" y="-275.5" font-family="Helvetica,sans-Serif" font-size="10.00">P4V1::Meter_Model</text>
</a>
</g>
</g>
<!-- Node19&#45;&gt;Node23 -->
<g id="edge898_Node000019_Node000023" class="edge">
<title>Node19&#45;&gt;Node23</title>
<g id="a_edge898_Node000019_Node000023"><a xlink:title=" ">
<path fill="none" stroke="#63b8ff" d="M567.49,-318.47C571.22,-316.98 574.92,-315.48 578.5,-314 594.68,-307.3 598.09,-304.1 614.5,-298 622.62,-294.98 631.47,-292.08 639.88,-289.49"/>
<polygon fill="#63b8ff" stroke="#63b8ff" points="566.36,-315.15 558.35,-322.08 568.93,-321.67 566.36,-315.15"/>
</a>
</g>
</g>
</g>
</svg>
