<?xml version="1.0" encoding="UTF-8" standalone="no"?>
<!DOCTYPE svg PUBLIC "-//W3C//DTD SVG 1.1//EN"
 "http://www.w3.org/Graphics/SVG/1.1/DTD/svg11.dtd">
<!-- Generated by graphviz version 10.0.1 (20240210.2158)
 -->
<!-- Title: Graphical Class Hierarchy Pages: 1 -->
<svg width="285pt" height="66pt"
 viewBox="0.00 0.00 284.50 66.00" xmlns="http://www.w3.org/2000/svg" xmlns:xlink="http://www.w3.org/1999/xlink">
<g id="graph0" class="graph" transform="scale(1 1) rotate(0) translate(4 62)">
<title>Graphical Class Hierarchy</title>
<!-- Node0 -->
<g id="Node000000" class="node">
<title>Node0</title>
<g id="a_Node000000"><a xlink:href="class_p4_1_1_action_synthesis_policy.html" target="_top" xlink:title=" ">
<polygon fill="white" stroke="#666666" points="132.25,-39 0,-39 0,-19 132.25,-19 132.25,-39"/>
<text text-anchor="middle" x="66.12" y="-25.5" font-family="Helvetica,sans-Serif" font-size="10.00">P4::ActionSynthesisPolicy</text>
</a>
</g>
</g>
<!-- Node1 -->
<g id="Node000001" class="node">
<title>Node1</title>
<g id="a_Node000001"><a xlink:href="class_b_m_v2_1_1_skip_controls.html" target="_top" xlink:title=" ">
<polygon fill="white" stroke="#666666" points="274.62,-58 170.12,-58 170.12,-38 274.62,-38 274.62,-58"/>
<text text-anchor="middle" x="222.38" y="-44.5" font-family="Helvetica,sans-Serif" font-size="10.00">BMV2::SkipControls</text>
</a>
</g>
</g>
<!-- Node0&#45;&gt;Node1 -->
<g id="edge920_Node000000_Node000001" class="edge">
<title>Node0&#45;&gt;Node1</title>
<g id="a_edge920_Node000000_Node000001"><a xlink:title=" ">
<path fill="none" stroke="#63b8ff" d="M143.73,-38.44C152.6,-39.53 161.48,-40.62 169.89,-41.66"/>
<polygon fill="#63b8ff" stroke="#63b8ff" points="144.4,-34.99 134.04,-37.24 143.54,-41.94 144.4,-34.99"/>
</a>
</g>
</g>
<!-- Node2 -->
<g id="Node000002" class="node">
<title>Node2</title>
<g id="a_Node000002"><a xlink:href="class_p4_test_1_1_skip_controls.html" target="_top" xlink:title=" ">
<polygon fill="white" stroke="#666666" points="276.5,-20 168.25,-20 168.25,0 276.5,0 276.5,-20"/>
<text text-anchor="middle" x="222.38" y="-6.5" font-family="Helvetica,sans-Serif" font-size="10.00">P4Test::SkipControls</text>
</a>
</g>
</g>
<!-- Node0&#45;&gt;Node2 -->
<g id="edge921_Node000000_Node000002" class="edge">
<title>Node0&#45;&gt;Node2</title>
<g id="a_edge921_Node000000_Node000002"><a xlink:title=" ">
<path fill="none" stroke="#63b8ff" d="M143.7,-19.57C151.91,-18.56 160.14,-17.54 167.99,-16.58"/>
<polygon fill="#63b8ff" stroke="#63b8ff" points="143.54,-16.06 134.04,-20.76 144.4,-23.01 143.54,-16.06"/>
</a>
</g>
</g>
</g>
</svg>
