<?xml version="1.0" encoding="UTF-8" standalone="no"?>
<!DOCTYPE svg PUBLIC "-//W3C//DTD SVG 1.1//EN"
 "http://www.w3.org/Graphics/SVG/1.1/DTD/svg11.dtd">
<!-- Generated by graphviz version 10.0.1 (20240210.2158)
 -->
<!-- Title: Graphical Class Hierarchy Pages: 1 -->
<svg width="219pt" height="142pt"
 viewBox="0.00 0.00 219.25 142.00" xmlns="http://www.w3.org/2000/svg" xmlns:xlink="http://www.w3.org/1999/xlink">
<g id="graph0" class="graph" transform="scale(1 1) rotate(0) translate(4 138)">
<title>Graphical Class Hierarchy</title>
<!-- Node0 -->
<g id="Node000000" class="node">
<title>Node0</title>
<g id="a_Node000000"><a xlink:href="class_model_1_1_model.html" target="_top" xlink:title=" ">
<polygon fill="white" stroke="#666666" points="74.5,-77 0,-77 0,-57 74.5,-57 74.5,-77"/>
<text text-anchor="middle" x="37.25" y="-63.5" font-family="Helvetica,sans-Serif" font-size="10.00">Model::Model</text>
</a>
</g>
</g>
<!-- Node1 -->
<g id="Node000001" class="node">
<title>Node1</title>
<g id="a_Node000001"><a xlink:href="class_e_b_p_f_1_1_e_b_p_f_model.html" target="_top" xlink:title=" ">
<polygon fill="white" stroke="#666666" points="211.25,-134 110.5,-134 110.5,-114 211.25,-114 211.25,-134"/>
<text text-anchor="middle" x="160.88" y="-120.5" font-family="Helvetica,sans-Serif" font-size="10.00">EBPF::EBPFModel</text>
</a>
</g>
</g>
<!-- Node0&#45;&gt;Node1 -->
<g id="edge914_Node000000_Node000001" class="edge">
<title>Node0&#45;&gt;Node1</title>
<g id="a_edge914_Node000000_Node000001"><a xlink:title=" ">
<path fill="none" stroke="#63b8ff" d="M66.55,-82.87C79.73,-90 95.73,-98.3 110.5,-105 117.02,-107.96 124.16,-110.88 130.92,-113.51"/>
<polygon fill="#63b8ff" stroke="#63b8ff" points="68.44,-79.91 57.99,-78.18 65.08,-86.05 68.44,-79.91"/>
</a>
</g>
</g>
<!-- Node2 -->
<g id="Node000002" class="node">
<title>Node2</title>
<g id="a_Node000002"><a xlink:href="class_p4_1_1_p4_core_library.html" target="_top" xlink:title=" ">
<polygon fill="white" stroke="#666666" points="208.62,-96 113.12,-96 113.12,-76 208.62,-76 208.62,-96"/>
<text text-anchor="middle" x="160.88" y="-82.5" font-family="Helvetica,sans-Serif" font-size="10.00">P4::P4CoreLibrary</text>
</a>
</g>
</g>
<!-- Node0&#45;&gt;Node2 -->
<g id="edge915_Node000000_Node000002" class="edge">
<title>Node0&#45;&gt;Node2</title>
<g id="a_edge915_Node000000_Node000002"><a xlink:title=" ">
<path fill="none" stroke="#63b8ff" d="M86.1,-74.47C94.96,-75.86 104.2,-77.3 113.03,-78.68"/>
<polygon fill="#63b8ff" stroke="#63b8ff" points="86.66,-71.02 76.24,-72.93 85.58,-77.94 86.66,-71.02"/>
</a>
</g>
</g>
<!-- Node3 -->
<g id="Node000003" class="node">
<title>Node3</title>
<g id="a_Node000003"><a xlink:href="class_p4_v1_1_1_v1_model.html" target="_top" xlink:title=" ">
<polygon fill="white" stroke="#666666" points="203,-58 118.75,-58 118.75,-38 203,-38 203,-58"/>
<text text-anchor="middle" x="160.88" y="-44.5" font-family="Helvetica,sans-Serif" font-size="10.00">P4V1::V1Model</text>
</a>
</g>
</g>
<!-- Node0&#45;&gt;Node3 -->
<g id="edge916_Node000000_Node000003" class="edge">
<title>Node0&#45;&gt;Node3</title>
<g id="a_edge916_Node000000_Node000003"><a xlink:title=" ">
<path fill="none" stroke="#63b8ff" d="M86.02,-59.54C96.68,-57.87 107.9,-56.12 118.29,-54.5"/>
<polygon fill="#63b8ff" stroke="#63b8ff" points="85.58,-56.06 76.24,-61.07 86.66,-62.98 85.58,-56.06"/>
</a>
</g>
</g>
<!-- Node4 -->
<g id="Node000004" class="node">
<title>Node4</title>
<g id="a_Node000004"><a xlink:href="class_u_b_p_f_1_1_u_b_p_f_model.html" target="_top" xlink:title=" ">
<polygon fill="white" stroke="#666666" points="211.25,-20 110.5,-20 110.5,0 211.25,0 211.25,-20"/>
<text text-anchor="middle" x="160.88" y="-6.5" font-family="Helvetica,sans-Serif" font-size="10.00">UBPF::UBPFModel</text>
</a>
</g>
</g>
<!-- Node0&#45;&gt;Node4 -->
<g id="edge917_Node000000_Node000004" class="edge">
<title>Node0&#45;&gt;Node4</title>
<g id="a_edge917_Node000000_Node000004"><a xlink:title=" ">
<path fill="none" stroke="#63b8ff" d="M66.55,-51.13C79.73,-44 95.73,-35.7 110.5,-29 117.02,-26.04 124.16,-23.12 130.92,-20.49"/>
<polygon fill="#63b8ff" stroke="#63b8ff" points="65.08,-47.95 57.99,-55.82 68.44,-54.09 65.08,-47.95"/>
</a>
</g>
</g>
</g>
</svg>
