<?xml version="1.0" encoding="UTF-8" standalone="no"?>
<!DOCTYPE svg PUBLIC "-//W3C//DTD SVG 1.1//EN"
 "http://www.w3.org/Graphics/SVG/1.1/DTD/svg11.dtd">
<!-- Generated by graphviz version 10.0.1 (20240210.2158)
 -->
<!-- Title: Graphical Class Hierarchy Pages: 1 -->
<svg width="444pt" height="28pt"
 viewBox="0.00 0.00 443.75 28.00" xmlns="http://www.w3.org/2000/svg" xmlns:xlink="http://www.w3.org/1999/xlink">
<g id="graph0" class="graph" transform="scale(1 1) rotate(0) translate(4 24)">
<title>Graphical Class Hierarchy</title>
<!-- Node0 -->
<g id="Node000000" class="node">
<title>Node0</title>
<g id="a_Node000000"><a xlink:href="class_p4_c_configuration.html" target="_top" xlink:title=" ">
<polygon fill="white" stroke="#666666" points="91,-20 0,-20 0,0 91,0 91,-20"/>
<text text-anchor="middle" x="45.5" y="-6.5" font-family="Helvetica,sans-Serif" font-size="10.00">P4CConfiguration</text>
</a>
</g>
</g>
<!-- Node1 -->
<g id="Node000001" class="node">
<title>Node1</title>
<g id="a_Node000001"><a xlink:href="class_default_p4_c_configuration.html" target="_top" xlink:title=" ">
<polygon fill="white" stroke="#666666" points="248,-20 127,-20 127,0 248,0 248,-20"/>
<text text-anchor="middle" x="187.5" y="-6.5" font-family="Helvetica,sans-Serif" font-size="10.00">DefaultP4CConfiguration</text>
</a>
</g>
</g>
<!-- Node0&#45;&gt;Node1 -->
<g id="edge963_Node000000_Node000001" class="edge">
<title>Node0&#45;&gt;Node1</title>
<g id="a_edge963_Node000000_Node000001"><a xlink:title=" ">
<path fill="none" stroke="#63b8ff" d="M102.57,-10C110.49,-10 118.67,-10 126.66,-10"/>
<polygon fill="#63b8ff" stroke="#63b8ff" points="102.7,-6.5 92.7,-10 102.7,-13.5 102.7,-6.5"/>
</a>
</g>
</g>
<!-- Node2 -->
<g id="Node000002" class="node">
<title>Node2</title>
<g id="a_Node000002"><a xlink:href="class_p4_tools_1_1_compiler_configuration.html" target="_top" xlink:title=" ">
<polygon fill="white" stroke="#666666" points="435.75,-20 284,-20 284,0 435.75,0 435.75,-20"/>
<text text-anchor="middle" x="359.88" y="-6.5" font-family="Helvetica,sans-Serif" font-size="10.00">P4Tools::CompilerConfiguration</text>
</a>
</g>
</g>
<!-- Node1&#45;&gt;Node2 -->
<g id="edge964_Node000001_Node000002" class="edge">
<title>Node1&#45;&gt;Node2</title>
<g id="a_edge964_Node000001_Node000002"><a xlink:title=" ">
<path fill="none" stroke="#63b8ff" d="M259.33,-10C267.39,-10 275.63,-10 283.74,-10"/>
<polygon fill="#63b8ff" stroke="#63b8ff" points="259.6,-6.5 249.6,-10 259.6,-13.5 259.6,-6.5"/>
</a>
</g>
</g>
</g>
</svg>
