<?xml version="1.0" encoding="UTF-8" standalone="no"?>
<!DOCTYPE svg PUBLIC "-//W3C//DTD SVG 1.1//EN"
 "http://www.w3.org/Graphics/SVG/1.1/DTD/svg11.dtd">
<!-- Generated by graphviz version 10.0.1 (20240210.2158)
 -->
<!-- Title: Graphical Class Hierarchy Pages: 1 -->
<svg width="506pt" height="90pt"
 viewBox="0.00 0.00 505.50 90.00" xmlns="http://www.w3.org/2000/svg" xmlns:xlink="http://www.w3.org/1999/xlink">
<g id="graph0" class="graph" transform="scale(1 1) rotate(0) translate(4 86)">
<title>Graphical Class Hierarchy</title>
<!-- Node0 -->
<g id="Node000000" class="node">
<title>Node0</title>
<g id="a_Node000000"><a xlink:href="class_i_compile_context.html" target="_top" xlink:title=" ">
<polygon fill="white" stroke="#666666" points="87.25,-51 0,-51 0,-31 87.25,-31 87.25,-51"/>
<text text-anchor="middle" x="43.62" y="-37.5" font-family="Helvetica,sans-Serif" font-size="10.00">ICompileContext</text>
</a>
</g>
</g>
<!-- Node1 -->
<g id="Node000001" class="node">
<title>Node1</title>
<g id="a_Node000001"><a xlink:href="class_base_compile_context.html" target="_top" xlink:title=" ">
<polygon fill="white" stroke="#666666" points="230.75,-51 123.25,-51 123.25,-31 230.75,-31 230.75,-51"/>
<text text-anchor="middle" x="177" y="-37.5" font-family="Helvetica,sans-Serif" font-size="10.00">BaseCompileContext</text>
</a>
</g>
</g>
<!-- Node0&#45;&gt;Node1 -->
<g id="edge40_Node000000_Node000001" class="edge">
<title>Node0&#45;&gt;Node1</title>
<g id="a_edge40_Node000000_Node000001"><a xlink:title=" ">
<path fill="none" stroke="#63b8ff" d="M98.96,-41C106.84,-41 114.93,-41 122.78,-41"/>
<polygon fill="#63b8ff" stroke="#63b8ff" points="99.16,-37.5 89.16,-41 99.16,-44.5 99.16,-37.5"/>
</a>
</g>
</g>
<!-- Node2 -->
<g id="Node000002" class="node">
<title>Node2</title>
<g id="a_Node000002"><a xlink:href="class_p4_c_context.html" target="_top" xlink:title=" ">
<polygon fill="white" stroke="#666666" points="335.25,-51 266.75,-51 266.75,-31 335.25,-31 335.25,-51"/>
<text text-anchor="middle" x="301" y="-37.5" font-family="Helvetica,sans-Serif" font-size="10.00">P4CContext</text>
</a>
</g>
</g>
<!-- Node1&#45;&gt;Node2 -->
<g id="edge41_Node000001_Node000002" class="edge">
<title>Node1&#45;&gt;Node2</title>
<g id="a_edge41_Node000001_Node000002"><a xlink:title=" ">
<path fill="none" stroke="#63b8ff" d="M242.42,-41C250.68,-41 258.85,-41 266.34,-41"/>
<polygon fill="#63b8ff" stroke="#63b8ff" points="242.67,-37.5 232.67,-41 242.67,-44.5 242.67,-37.5"/>
</a>
</g>
</g>
<!-- Node3 -->
<g id="Node000003" class="node">
<title>Node3</title>
<g id="a_Node000003"><a xlink:href="class_p4_c_context_with_options.html" target="_top" xlink:title=" ">
<polygon fill="white" stroke="#666666" points="495.62,-82 373.12,-82 373.12,-50 495.62,-50 495.62,-82"/>
<text text-anchor="start" x="381.12" y="-68.5" font-family="Helvetica,sans-Serif" font-size="10.00">P4CContextWithOptions</text>
<text text-anchor="middle" x="434.38" y="-56.5" font-family="Helvetica,sans-Serif" font-size="10.00">&lt; OptionsType &gt;</text>
</a>
</g>
</g>
<!-- Node2&#45;&gt;Node3 -->
<g id="edge42_Node000002_Node000003" class="edge">
<title>Node2&#45;&gt;Node3</title>
<g id="a_edge42_Node000002_Node000003"><a xlink:title=" ">
<path fill="none" stroke="#63b8ff" d="M346.63,-49.49C355.07,-51.1 364.04,-52.81 372.87,-54.49"/>
<polygon fill="#63b8ff" stroke="#63b8ff" points="347.46,-46.09 336.98,-47.66 346.15,-52.96 347.46,-46.09"/>
</a>
</g>
</g>
<!-- Node4 -->
<g id="Node000004" class="node">
<title>Node4</title>
<g id="a_Node000004"><a xlink:href="class_p4_tools_1_1_compile_context.html" target="_top" xlink:title="A compilation context for P4Tools that provides a custom compiler configuration.">
<polygon fill="white" stroke="#666666" points="497.5,-32 371.25,-32 371.25,0 497.5,0 497.5,-32"/>
<text text-anchor="start" x="379.25" y="-18.5" font-family="Helvetica,sans-Serif" font-size="10.00">P4Tools::CompileContext</text>
<text text-anchor="middle" x="434.38" y="-6.5" font-family="Helvetica,sans-Serif" font-size="10.00">&lt; OptionsType &gt;</text>
</a>
</g>
</g>
<!-- Node2&#45;&gt;Node4 -->
<g id="edge43_Node000002_Node000004" class="edge">
<title>Node2&#45;&gt;Node4</title>
<g id="a_edge43_Node000002_Node000004"><a xlink:title=" ">
<path fill="none" stroke="#63b8ff" d="M346.56,-32.52C354.37,-31.03 362.62,-29.46 370.82,-27.9"/>
<polygon fill="#63b8ff" stroke="#63b8ff" points="346.15,-29.04 336.98,-34.34 347.46,-35.91 346.15,-29.04"/>
</a>
</g>
</g>
</g>
</svg>
