<?xml version="1.0" encoding="UTF-8" standalone="no"?>
<!DOCTYPE svg PUBLIC "-//W3C//DTD SVG 1.1//EN"
 "http://www.w3.org/Graphics/SVG/1.1/DTD/svg11.dtd">
<!-- Generated by graphviz version 10.0.1 (20240210.2158)
 -->
<!-- Title: Graphical Class Hierarchy Pages: 1 -->
<svg width="421pt" height="28pt"
 viewBox="0.00 0.00 420.50 28.00" xmlns="http://www.w3.org/2000/svg" xmlns:xlink="http://www.w3.org/1999/xlink">
<g id="graph0" class="graph" transform="scale(1 1) rotate(0) translate(4 24)">
<title>Graphical Class Hierarchy</title>
<!-- Node0 -->
<g id="Node000000" class="node">
<title>Node0</title>
<g id="a_Node000000"><a xlink:href="class_util_1_1_source_code_builder.html" target="_top" xlink:title=" ">
<polygon fill="white" stroke="#666666" points="119.5,-20 0,-20 0,0 119.5,0 119.5,-20"/>
<text text-anchor="middle" x="59.75" y="-6.5" font-family="Helvetica,sans-Serif" font-size="10.00">Util::SourceCodeBuilder</text>
</a>
</g>
</g>
<!-- Node1 -->
<g id="Node000001" class="node">
<title>Node1</title>
<g id="a_Node000001"><a xlink:href="class_e_b_p_f_1_1_code_builder.html" target="_top" xlink:title=" ">
<polygon fill="white" stroke="#666666" points="256.25,-20 155.5,-20 155.5,0 256.25,0 256.25,-20"/>
<text text-anchor="middle" x="205.88" y="-6.5" font-family="Helvetica,sans-Serif" font-size="10.00">EBPF::CodeBuilder</text>
</a>
</g>
</g>
<!-- Node0&#45;&gt;Node1 -->
<g id="edge1089_Node000000_Node000001" class="edge">
<title>Node0&#45;&gt;Node1</title>
<g id="a_edge1089_Node000000_Node000001"><a xlink:title=" ">
<path fill="none" stroke="#63b8ff" d="M131.25,-10C139.4,-10 147.57,-10 155.36,-10"/>
<polygon fill="#63b8ff" stroke="#63b8ff" points="131.3,-6.5 121.3,-10 131.3,-13.5 131.3,-6.5"/>
</a>
</g>
</g>
<!-- Node2 -->
<g id="Node000002" class="node">
<title>Node2</title>
<g id="a_Node000002"><a xlink:href="class_u_b_p_f_1_1_ubpf_code_builder.html" target="_top" xlink:title=" ">
<polygon fill="white" stroke="#666666" points="412.5,-20 292.25,-20 292.25,0 412.5,0 412.5,-20"/>
<text text-anchor="middle" x="352.38" y="-6.5" font-family="Helvetica,sans-Serif" font-size="10.00">UBPF::UbpfCodeBuilder</text>
</a>
</g>
</g>
<!-- Node1&#45;&gt;Node2 -->
<g id="edge1090_Node000001_Node000002" class="edge">
<title>Node1&#45;&gt;Node2</title>
<g id="a_edge1090_Node000001_Node000002"><a xlink:title=" ">
<path fill="none" stroke="#63b8ff" d="M267.99,-10C275.89,-10 283.97,-10 291.83,-10"/>
<polygon fill="#63b8ff" stroke="#63b8ff" points="268.12,-6.5 258.12,-10 268.12,-13.5 268.12,-6.5"/>
</a>
</g>
</g>
</g>
</svg>
