<?xml version="1.0" encoding="UTF-8" standalone="no"?>
<!DOCTYPE svg PUBLIC "-//W3C//DTD SVG 1.1//EN"
 "http://www.w3.org/Graphics/SVG/1.1/DTD/svg11.dtd">
<!-- Generated by graphviz version 10.0.1 (20240210.2158)
 -->
<!-- Title: Graphical Class Hierarchy Pages: 1 -->
<svg width="326pt" height="66pt"
 viewBox="0.00 0.00 325.75 66.00" xmlns="http://www.w3.org/2000/svg" xmlns:xlink="http://www.w3.org/1999/xlink">
<g id="graph0" class="graph" transform="scale(1 1) rotate(0) translate(4 62)">
<title>Graphical Class Hierarchy</title>
<!-- Node0 -->
<g id="Node000000" class="node">
<title>Node0</title>
<g id="a_Node000000"><a xlink:href="class_p4_1_1_remove_complex_expressions_policy.html" target="_top" xlink:title=" ">
<polygon fill="white" stroke="#666666" points="160.75,-45 0,-45 0,-13 160.75,-13 160.75,-45"/>
<text text-anchor="start" x="8" y="-31.5" font-family="Helvetica,sans-Serif" font-size="10.00">P4::RemoveComplexExpressions</text>
<text text-anchor="middle" x="80.38" y="-19.5" font-family="Helvetica,sans-Serif" font-size="10.00">Policy</text>
</a>
</g>
</g>
<!-- Node1 -->
<g id="Node000001" class="node">
<title>Node1</title>
<g id="a_Node000001"><a xlink:href="class_b_m_v2_1_1_process_controls.html" target="_top" xlink:title=" ">
<polygon fill="white" stroke="#666666" points="317.75,-58 196.75,-58 196.75,-38 317.75,-38 317.75,-58"/>
<text text-anchor="middle" x="257.25" y="-44.5" font-family="Helvetica,sans-Serif" font-size="10.00">BMV2::ProcessControls</text>
</a>
</g>
</g>
<!-- Node0&#45;&gt;Node1 -->
<g id="edge960_Node000000_Node000001" class="edge">
<title>Node0&#45;&gt;Node1</title>
<g id="a_edge960_Node000000_Node000001"><a xlink:title=" ">
<path fill="none" stroke="#63b8ff" d="M172.31,-38.88C180.51,-39.77 188.67,-40.66 196.49,-41.51"/>
<polygon fill="#63b8ff" stroke="#63b8ff" points="172.96,-35.43 162.64,-37.83 172.2,-42.39 172.96,-35.43"/>
</a>
</g>
</g>
<!-- Node2 -->
<g id="Node000002" class="node">
<title>Node2</title>
<g id="a_Node000002"><a xlink:href="class_d_p_d_k_1_1_process_controls.html" target="_top" xlink:title=" ">
<polygon fill="white" stroke="#666666" points="317.75,-20 196.75,-20 196.75,0 317.75,0 317.75,-20"/>
<text text-anchor="middle" x="257.25" y="-6.5" font-family="Helvetica,sans-Serif" font-size="10.00">DPDK::ProcessControls</text>
</a>
</g>
</g>
<!-- Node0&#45;&gt;Node2 -->
<g id="edge961_Node000000_Node000002" class="edge">
<title>Node0&#45;&gt;Node2</title>
<g id="a_edge961_Node000000_Node000002"><a xlink:title=" ">
<path fill="none" stroke="#63b8ff" d="M172.31,-19.12C180.51,-18.23 188.67,-17.34 196.49,-16.49"/>
<polygon fill="#63b8ff" stroke="#63b8ff" points="172.2,-15.61 162.64,-20.17 172.96,-22.57 172.2,-15.61"/>
</a>
</g>
</g>
</g>
</svg>
