<?xml version="1.0" encoding="UTF-8" standalone="no"?>
<!DOCTYPE svg PUBLIC "-//W3C//DTD SVG 1.1//EN"
 "http://www.w3.org/Graphics/SVG/1.1/DTD/svg11.dtd">
<!-- Generated by graphviz version 10.0.1 (20240210.2158)
 -->
<!-- Title: Graphical Class Hierarchy Pages: 1 -->
<svg width="285pt" height="140pt"
 viewBox="0.00 0.00 285.25 140.00" xmlns="http://www.w3.org/2000/svg" xmlns:xlink="http://www.w3.org/1999/xlink">
<g id="graph0" class="graph" transform="scale(1 1) rotate(0) translate(4 136)">
<title>Graphical Class Hierarchy</title>
<!-- Node0 -->
<g id="Node000000" class="node">
<title>Node0</title>
<g id="a_Node000000"><a xlink:href="class_p4_tools_1_1_p4_testgen_1_1_test_back_end.html" target="_top" xlink:title=" ">
<polygon fill="white" stroke="#666666" points="103.75,-82 0,-82 0,-50 103.75,-50 103.75,-82"/>
<text text-anchor="start" x="8" y="-68.5" font-family="Helvetica,sans-Serif" font-size="10.00">P4Tools::P4Testgen</text>
<text text-anchor="middle" x="51.88" y="-56.5" font-family="Helvetica,sans-Serif" font-size="10.00">::TestBackEnd</text>
</a>
</g>
</g>
<!-- Node1 -->
<g id="Node000001" class="node">
<title>Node1</title>
<g id="a_Node000001"><a xlink:href="class_p4_tools_1_1_p4_testgen_1_1_bmv2_1_1_bmv2_test_backend.html" target="_top" xlink:title=" ">
<polygon fill="white" stroke="#666666" points="275,-132 142,-132 142,-100 275,-100 275,-132"/>
<text text-anchor="start" x="150" y="-118.5" font-family="Helvetica,sans-Serif" font-size="10.00">P4Tools::P4Testgen</text>
<text text-anchor="middle" x="208.5" y="-106.5" font-family="Helvetica,sans-Serif" font-size="10.00">::Bmv2::Bmv2TestBackend</text>
</a>
</g>
</g>
<!-- Node0&#45;&gt;Node1 -->
<g id="edge978_Node000000_Node000001" class="edge">
<title>Node0&#45;&gt;Node1</title>
<g id="a_edge978_Node000000_Node000001"><a xlink:title=" ">
<path fill="none" stroke="#63b8ff" d="M114.07,-85.79C128.13,-90.33 142.92,-95.12 156.49,-99.51"/>
<polygon fill="#63b8ff" stroke="#63b8ff" points="115.54,-82.58 104.95,-82.84 113.38,-89.24 115.54,-82.58"/>
</a>
</g>
</g>
<!-- Node2 -->
<g id="Node000002" class="node">
<title>Node2</title>
<g id="a_Node000002"><a xlink:href="class_p4_tools_1_1_p4_testgen_1_1_e_b_p_f_1_1_e_b_p_f_test_backend.html" target="_top" xlink:title=" ">
<polygon fill="white" stroke="#666666" points="277.25,-82 139.75,-82 139.75,-50 277.25,-50 277.25,-82"/>
<text text-anchor="start" x="147.75" y="-68.5" font-family="Helvetica,sans-Serif" font-size="10.00">P4Tools::P4Testgen</text>
<text text-anchor="middle" x="208.5" y="-56.5" font-family="Helvetica,sans-Serif" font-size="10.00">::EBPF::EBPFTestBackend</text>
</a>
</g>
</g>
<!-- Node0&#45;&gt;Node2 -->
<g id="edge979_Node000000_Node000002" class="edge">
<title>Node0&#45;&gt;Node2</title>
<g id="a_edge979_Node000000_Node000002"><a xlink:title=" ">
<path fill="none" stroke="#63b8ff" d="M115.34,-66C123.26,-66 131.39,-66 139.39,-66"/>
<polygon fill="#63b8ff" stroke="#63b8ff" points="115.45,-62.5 105.45,-66 115.45,-69.5 115.45,-62.5"/>
</a>
</g>
</g>
<!-- Node3 -->
<g id="Node000003" class="node">
<title>Node3</title>
<g id="a_Node000003"><a xlink:href="class_p4_tools_1_1_p4_testgen_1_1_pna_1_1_pna_test_backend.html" target="_top" xlink:title=" ">
<polygon fill="white" stroke="#666666" points="268.25,-32 148.75,-32 148.75,0 268.25,0 268.25,-32"/>
<text text-anchor="start" x="156.75" y="-18.5" font-family="Helvetica,sans-Serif" font-size="10.00">P4Tools::P4Testgen</text>
<text text-anchor="middle" x="208.5" y="-6.5" font-family="Helvetica,sans-Serif" font-size="10.00">::Pna::PnaTestBackend</text>
</a>
</g>
</g>
<!-- Node0&#45;&gt;Node3 -->
<g id="edge980_Node000000_Node000003" class="edge">
<title>Node0&#45;&gt;Node3</title>
<g id="a_edge980_Node000000_Node000003"><a xlink:title=" ">
<path fill="none" stroke="#63b8ff" d="M114.07,-46.21C128.13,-41.67 142.92,-36.88 156.49,-32.49"/>
<polygon fill="#63b8ff" stroke="#63b8ff" points="113.38,-42.76 104.95,-49.16 115.54,-49.42 113.38,-42.76"/>
</a>
</g>
</g>
</g>
</svg>
