<?xml version="1.0" encoding="UTF-8" standalone="no"?>
<!DOCTYPE svg PUBLIC "-//W3C//DTD SVG 1.1//EN"
 "http://www.w3.org/Graphics/SVG/1.1/DTD/svg11.dtd">
<!-- Generated by graphviz version 10.0.1 (20240210.2158)
 -->
<!-- Title: Graphical Class Hierarchy Pages: 1 -->
<svg width="291pt" height="104pt"
 viewBox="0.00 0.00 291.25 104.00" xmlns="http://www.w3.org/2000/svg" xmlns:xlink="http://www.w3.org/1999/xlink">
<g id="graph0" class="graph" transform="scale(1 1) rotate(0) translate(4 100)">
<title>Graphical Class Hierarchy</title>
<!-- Node0 -->
<g id="Node000000" class="node">
<title>Node0</title>
<g id="a_Node000000"><a xlink:href="classgraphs_1_1_edge_type_iface.html" target="_top" xlink:title=" ">
<polygon fill="white" stroke="#666666" points="115,-58 0,-58 0,-38 115,-38 115,-58"/>
<text text-anchor="middle" x="57.5" y="-44.5" font-family="Helvetica,sans-Serif" font-size="10.00">graphs::EdgeTypeIface</text>
</a>
</g>
</g>
<!-- Node1 -->
<g id="Node000001" class="node">
<title>Node1</title>
<g id="a_Node000001"><a xlink:href="classgraphs_1_1_edge_if.html" target="_top" xlink:title=" ">
<polygon fill="white" stroke="#666666" points="256.25,-96 178,-96 178,-76 256.25,-76 256.25,-96"/>
<text text-anchor="middle" x="217.12" y="-82.5" font-family="Helvetica,sans-Serif" font-size="10.00">graphs::EdgeIf</text>
</a>
</g>
</g>
<!-- Node0&#45;&gt;Node1 -->
<g id="edge31_Node000000_Node000001" class="edge">
<title>Node0&#45;&gt;Node1</title>
<g id="a_edge31_Node000000_Node000001"><a xlink:title=" ">
<path fill="none" stroke="#63b8ff" d="M113.15,-61.17C134.39,-66.3 158.23,-72.04 177.61,-76.72"/>
<polygon fill="#63b8ff" stroke="#63b8ff" points="114,-57.78 103.46,-58.84 112.36,-64.59 114,-57.78"/>
</a>
</g>
</g>
<!-- Node2 -->
<g id="Node000002" class="node">
<title>Node2</title>
<g id="a_Node000002"><a xlink:href="classgraphs_1_1_edge_switch.html" target="_top" xlink:title=" ">
<polygon fill="white" stroke="#666666" points="268.62,-58 165.62,-58 165.62,-38 268.62,-38 268.62,-58"/>
<text text-anchor="middle" x="217.12" y="-44.5" font-family="Helvetica,sans-Serif" font-size="10.00">graphs::EdgeSwitch</text>
</a>
</g>
</g>
<!-- Node0&#45;&gt;Node2 -->
<g id="edge32_Node000000_Node000002" class="edge">
<title>Node0&#45;&gt;Node2</title>
<g id="a_edge32_Node000000_Node000002"><a xlink:title=" ">
<path fill="none" stroke="#63b8ff" d="M126.67,-48C139.64,-48 153,-48 165.32,-48"/>
<polygon fill="#63b8ff" stroke="#63b8ff" points="126.92,-44.5 116.92,-48 126.92,-51.5 126.92,-44.5"/>
</a>
</g>
</g>
<!-- Node3 -->
<g id="Node000003" class="node">
<title>Node3</title>
<g id="a_Node000003"><a xlink:href="classgraphs_1_1_edge_unconditional.html" target="_top" xlink:title=" ">
<polygon fill="white" stroke="#666666" points="283.25,-20 151,-20 151,0 283.25,0 283.25,-20"/>
<text text-anchor="middle" x="217.12" y="-6.5" font-family="Helvetica,sans-Serif" font-size="10.00">graphs::EdgeUnconditional</text>
</a>
</g>
</g>
<!-- Node0&#45;&gt;Node3 -->
<g id="edge33_Node000000_Node000003" class="edge">
<title>Node0&#45;&gt;Node3</title>
<g id="a_edge33_Node000000_Node000003"><a xlink:title=" ">
<path fill="none" stroke="#63b8ff" d="M113.18,-34.82C132.68,-30.12 154.36,-24.89 172.78,-20.45"/>
<polygon fill="#63b8ff" stroke="#63b8ff" points="112.36,-31.41 103.46,-37.16 114,-38.22 112.36,-31.41"/>
</a>
</g>
</g>
</g>
</svg>
