<?xml version="1.0" encoding="UTF-8" standalone="no"?>
<!DOCTYPE svg PUBLIC "-//W3C//DTD SVG 1.1//EN"
 "http://www.w3.org/Graphics/SVG/1.1/DTD/svg11.dtd">
<!-- Generated by graphviz version 10.0.1 (20240210.2158)
 -->
<!-- Title: Graphical Class Hierarchy Pages: 1 -->
<svg width="451pt" height="104pt"
 viewBox="0.00 0.00 451.25 104.00" xmlns="http://www.w3.org/2000/svg" xmlns:xlink="http://www.w3.org/1999/xlink">
<g id="graph0" class="graph" transform="scale(1 1) rotate(0) translate(4 100)">
<title>Graphical Class Hierarchy</title>
<!-- Node0 -->
<g id="Node000000" class="node">
<title>Node0</title>
<g id="a_Node000000"><a xlink:href="class_e_b_p_f_1_1_ebpf_code_generator.html" target="_top" xlink:title=" ">
<polygon fill="white" stroke="#666666" points="133,-39 0,-39 0,-19 133,-19 133,-39"/>
<text text-anchor="middle" x="66.5" y="-25.5" font-family="Helvetica,sans-Serif" font-size="10.00">EBPF::EbpfCodeGenerator</text>
</a>
</g>
</g>
<!-- Node1 -->
<g id="Node000001" class="node">
<title>Node1</title>
<g id="a_Node000001"><a xlink:href="class_e_b_p_f_1_1_p_s_a_ebpf_generator.html" target="_top" xlink:title=" ">
<polygon fill="white" stroke="#666666" points="299.75,-58 169,-58 169,-38 299.75,-38 299.75,-58"/>
<text text-anchor="middle" x="234.38" y="-44.5" font-family="Helvetica,sans-Serif" font-size="10.00">EBPF::PSAEbpfGenerator</text>
</a>
</g>
</g>
<!-- Node0&#45;&gt;Node1 -->
<g id="edge18_Node000000_Node000001" class="edge">
<title>Node0&#45;&gt;Node1</title>
<g id="a_edge18_Node000000_Node000001"><a xlink:title=" ">
<path fill="none" stroke="#63b8ff" d="M144.4,-37.81C152.48,-38.73 160.64,-39.67 168.56,-40.58"/>
<polygon fill="#63b8ff" stroke="#63b8ff" points="144.9,-34.34 134.56,-36.68 144.1,-41.3 144.9,-34.34"/>
</a>
</g>
</g>
<!-- Node4 -->
<g id="Node000004" class="node">
<title>Node4</title>
<g id="a_Node000004"><a xlink:href="class_t_c_1_1_p_n_a_ebpf_generator.html" target="_top" xlink:title=" ">
<polygon fill="white" stroke="#666666" points="292.62,-20 176.12,-20 176.12,0 292.62,0 292.62,-20"/>
<text text-anchor="middle" x="234.38" y="-6.5" font-family="Helvetica,sans-Serif" font-size="10.00">TC::PNAEbpfGenerator</text>
</a>
</g>
</g>
<!-- Node0&#45;&gt;Node4 -->
<g id="edge21_Node000000_Node000004" class="edge">
<title>Node0&#45;&gt;Node4</title>
<g id="a_edge21_Node000000_Node000004"><a xlink:title=" ">
<path fill="none" stroke="#63b8ff" d="M144.43,-20.19C154.99,-18.98 165.68,-17.75 175.81,-16.59"/>
<polygon fill="#63b8ff" stroke="#63b8ff" points="144.1,-16.7 134.56,-21.32 144.9,-23.66 144.1,-16.7"/>
</a>
</g>
</g>
<!-- Node2 -->
<g id="Node000002" class="node">
<title>Node2</title>
<g id="a_Node000002"><a xlink:href="class_e_b_p_f_1_1_p_s_a_arch_t_c.html" target="_top" xlink:title=" ">
<polygon fill="white" stroke="#666666" points="439.88,-96 339.12,-96 339.12,-76 439.88,-76 439.88,-96"/>
<text text-anchor="middle" x="389.5" y="-82.5" font-family="Helvetica,sans-Serif" font-size="10.00">EBPF::PSAArchTC</text>
</a>
</g>
</g>
<!-- Node1&#45;&gt;Node2 -->
<g id="edge19_Node000001_Node000002" class="edge">
<title>Node1&#45;&gt;Node2</title>
<g id="a_edge19_Node000001_Node000002"><a xlink:title=" ">
<path fill="none" stroke="#63b8ff" d="M288.76,-61.25C307.63,-65.93 328.58,-71.13 346.39,-75.55"/>
<polygon fill="#63b8ff" stroke="#63b8ff" points="289.64,-57.86 279.09,-58.85 287.95,-64.65 289.64,-57.86"/>
</a>
</g>
</g>
<!-- Node3 -->
<g id="Node000003" class="node">
<title>Node3</title>
<g id="a_Node000003"><a xlink:href="class_e_b_p_f_1_1_p_s_a_arch_x_d_p.html" target="_top" xlink:title=" ">
<polygon fill="white" stroke="#666666" points="443.25,-58 335.75,-58 335.75,-38 443.25,-38 443.25,-58"/>
<text text-anchor="middle" x="389.5" y="-44.5" font-family="Helvetica,sans-Serif" font-size="10.00">EBPF::PSAArchXDP</text>
</a>
</g>
</g>
<!-- Node1&#45;&gt;Node3 -->
<g id="edge20_Node000001_Node000003" class="edge">
<title>Node1&#45;&gt;Node3</title>
<g id="a_edge20_Node000001_Node000003"><a xlink:title=" ">
<path fill="none" stroke="#63b8ff" d="M311.14,-48C319.43,-48 327.74,-48 335.67,-48"/>
<polygon fill="#63b8ff" stroke="#63b8ff" points="311.38,-44.5 301.38,-48 311.38,-51.5 311.38,-44.5"/>
</a>
</g>
</g>
<!-- Node5 -->
<g id="Node000005" class="node">
<title>Node5</title>
<g id="a_Node000005"><a xlink:href="class_t_c_1_1_p_n_a_arch_t_c.html" target="_top" xlink:title=" ">
<polygon fill="white" stroke="#666666" points="432.75,-20 346.25,-20 346.25,0 432.75,0 432.75,-20"/>
<text text-anchor="middle" x="389.5" y="-6.5" font-family="Helvetica,sans-Serif" font-size="10.00">TC::PNAArchTC</text>
</a>
</g>
</g>
<!-- Node4&#45;&gt;Node5 -->
<g id="edge22_Node000004_Node000005" class="edge">
<title>Node4&#45;&gt;Node5</title>
<g id="a_edge22_Node000004_Node000005"><a xlink:title=" ">
<path fill="none" stroke="#63b8ff" d="M304.15,-10C318.42,-10 333.05,-10 346.04,-10"/>
<polygon fill="#63b8ff" stroke="#63b8ff" points="304.34,-6.5 294.34,-10 304.34,-13.5 304.34,-6.5"/>
</a>
</g>
</g>
</g>
</svg>
