<?xml version="1.0" encoding="UTF-8" standalone="no"?>
<!DOCTYPE svg PUBLIC "-//W3C//DTD SVG 1.1//EN"
 "http://www.w3.org/Graphics/SVG/1.1/DTD/svg11.dtd">
<!-- Generated by graphviz version 10.0.1 (20240210.2158)
 -->
<!-- Title: Graphical Class Hierarchy Pages: 1 -->
<svg width="278pt" height="66pt"
 viewBox="0.00 0.00 277.75 66.00" xmlns="http://www.w3.org/2000/svg" xmlns:xlink="http://www.w3.org/1999/xlink">
<g id="graph0" class="graph" transform="scale(1 1) rotate(0) translate(4 62)">
<title>Graphical Class Hierarchy</title>
<!-- Node0 -->
<g id="Node000000" class="node">
<title>Node0</title>
<g id="a_Node000000"><a xlink:href="class_b_m_v2_1_1_backend.html" target="_top" xlink:title=" ">
<polygon fill="white" stroke="#666666" points="87.25,-39 0,-39 0,-19 87.25,-19 87.25,-39"/>
<text text-anchor="middle" x="43.62" y="-25.5" font-family="Helvetica,sans-Serif" font-size="10.00">BMV2::Backend</text>
</a>
</g>
</g>
<!-- Node1 -->
<g id="Node000001" class="node">
<title>Node1</title>
<g id="a_Node000001"><a xlink:href="class_b_m_v2_1_1_psa_switch_backend.html" target="_top" xlink:title=" ">
<polygon fill="white" stroke="#666666" points="263.38,-58 129.62,-58 129.62,-38 263.38,-38 263.38,-58"/>
<text text-anchor="middle" x="196.5" y="-44.5" font-family="Helvetica,sans-Serif" font-size="10.00">BMV2::PsaSwitchBackend</text>
</a>
</g>
</g>
<!-- Node0&#45;&gt;Node1 -->
<g id="edge3_Node000000_Node000001" class="edge">
<title>Node0&#45;&gt;Node1</title>
<g id="a_edge3_Node000000_Node000001"><a xlink:title=" ">
<path fill="none" stroke="#63b8ff" d="M98.74,-35.82C108.6,-37.06 118.99,-38.37 129.16,-39.65"/>
<polygon fill="#63b8ff" stroke="#63b8ff" points="99.32,-32.36 88.96,-34.58 98.44,-39.31 99.32,-32.36"/>
</a>
</g>
</g>
<!-- Node2 -->
<g id="Node000002" class="node">
<title>Node2</title>
<g id="a_Node000002"><a xlink:href="class_b_m_v2_1_1_simple_switch_backend.html" target="_top" xlink:title=" ">
<polygon fill="white" stroke="#666666" points="269.75,-20 123.25,-20 123.25,0 269.75,0 269.75,-20"/>
<text text-anchor="middle" x="196.5" y="-6.5" font-family="Helvetica,sans-Serif" font-size="10.00">BMV2::SimpleSwitchBackend</text>
</a>
</g>
</g>
<!-- Node0&#45;&gt;Node2 -->
<g id="edge4_Node000000_Node000002" class="edge">
<title>Node0&#45;&gt;Node2</title>
<g id="a_edge4_Node000000_Node000002"><a xlink:title=" ">
<path fill="none" stroke="#63b8ff" d="M98.68,-22.19C106.53,-21.2 114.72,-20.17 122.87,-19.15"/>
<polygon fill="#63b8ff" stroke="#63b8ff" points="98.44,-18.69 88.96,-23.42 99.32,-25.64 98.44,-18.69"/>
</a>
</g>
</g>
</g>
</svg>
