<?xml version="1.0" encoding="UTF-8" standalone="no"?>
<!DOCTYPE svg PUBLIC "-//W3C//DTD SVG 1.1//EN"
 "http://www.w3.org/Graphics/SVG/1.1/DTD/svg11.dtd">
<!-- Generated by graphviz version 10.0.1 (20240210.2158)
 -->
<!-- Title: Graphical Class Hierarchy Pages: 1 -->
<svg width="266pt" height="66pt"
 viewBox="0.00 0.00 265.75 66.00" xmlns="http://www.w3.org/2000/svg" xmlns:xlink="http://www.w3.org/1999/xlink">
<g id="graph0" class="graph" transform="scale(1 1) rotate(0) translate(4 62)">
<title>Graphical Class Hierarchy</title>
<!-- Node0 -->
<g id="Node000000" class="node">
<title>Node0</title>
<g id="a_Node000000"><a xlink:href="class_p4_1_1_abstract_parser_driver.html" target="_top" xlink:title=" ">
<polygon fill="white" stroke="#666666" points="123.25,-39 0,-39 0,-19 123.25,-19 123.25,-39"/>
<text text-anchor="middle" x="61.62" y="-25.5" font-family="Helvetica,sans-Serif" font-size="10.00">P4::AbstractParserDriver</text>
</a>
</g>
</g>
<!-- Node1 -->
<g id="Node000001" class="node">
<title>Node1</title>
<g id="a_Node000001"><a xlink:href="class_p4_1_1_p4_parser_driver.html" target="_top" xlink:title="A ParserDriver that can parse P4&#45;16 programs.">
<polygon fill="white" stroke="#666666" points="257.75,-58 159.25,-58 159.25,-38 257.75,-38 257.75,-58"/>
<text text-anchor="middle" x="208.5" y="-44.5" font-family="Helvetica,sans-Serif" font-size="10.00">P4::P4ParserDriver</text>
</a>
</g>
</g>
<!-- Node0&#45;&gt;Node1 -->
<g id="edge918_Node000000_Node000001" class="edge">
<title>Node0&#45;&gt;Node1</title>
<g id="a_edge918_Node000000_Node000001"><a xlink:title=" ">
<path fill="none" stroke="#63b8ff" d="M135.02,-38.5C143.1,-39.55 151.18,-40.61 158.86,-41.62"/>
<polygon fill="#63b8ff" stroke="#63b8ff" points="135.52,-35.03 125.15,-37.2 134.61,-41.97 135.52,-35.03"/>
</a>
</g>
</g>
<!-- Node2 -->
<g id="Node000002" class="node">
<title>Node2</title>
<g id="a_Node000002"><a xlink:href="class_v1_1_1_v1_parser_driver.html" target="_top" xlink:title="A ParserDriver that can parse P4&#45;14 programs.">
<polygon fill="white" stroke="#666666" points="257.75,-20 159.25,-20 159.25,0 257.75,0 257.75,-20"/>
<text text-anchor="middle" x="208.5" y="-6.5" font-family="Helvetica,sans-Serif" font-size="10.00">V1::V1ParserDriver</text>
</a>
</g>
</g>
<!-- Node0&#45;&gt;Node2 -->
<g id="edge919_Node000000_Node000002" class="edge">
<title>Node0&#45;&gt;Node2</title>
<g id="a_edge919_Node000000_Node000002"><a xlink:title=" ">
<path fill="none" stroke="#63b8ff" d="M135.02,-19.5C143.1,-18.45 151.18,-17.39 158.86,-16.38"/>
<polygon fill="#63b8ff" stroke="#63b8ff" points="134.61,-16.03 125.15,-20.8 135.52,-22.97 134.61,-16.03"/>
</a>
</g>
</g>
</g>
</svg>
