<?xml version="1.0" encoding="UTF-8" standalone="no"?>
<!DOCTYPE svg PUBLIC "-//W3C//DTD SVG 1.1//EN"
 "http://www.w3.org/Graphics/SVG/1.1/DTD/svg11.dtd">
<!-- Generated by graphviz version 10.0.1 (20240210.2158)
 -->
<!-- Title: Graphical Class Hierarchy Pages: 1 -->
<svg width="544pt" height="90pt"
 viewBox="0.00 0.00 544.25 90.00" xmlns="http://www.w3.org/2000/svg" xmlns:xlink="http://www.w3.org/1999/xlink">
<g id="graph0" class="graph" transform="scale(1 1) rotate(0) translate(4 86)">
<title>Graphical Class Hierarchy</title>
<!-- Node0 -->
<g id="Node000000" class="node">
<title>Node0</title>
<g id="a_Node000000"><a xlink:href="struct_b_m_v2_1_1_standard_1_1_action_profile_traits_3_01_arch_1_1_v1_m_o_d_e_l_01_4.html" target="_top" xlink:title=" ">
<polygon fill="white" stroke="#666666" points="148.75,-57 0,-57 0,-25 148.75,-25 148.75,-57"/>
<text text-anchor="start" x="8" y="-43.5" font-family="Helvetica,sans-Serif" font-size="10.00">BMV2::Standard::ActionProfile</text>
<text text-anchor="middle" x="74.38" y="-31.5" font-family="Helvetica,sans-Serif" font-size="10.00">Traits&lt; Arch::V1MODEL &gt;</text>
</a>
</g>
</g>
<!-- Node1 -->
<g id="Node000001" class="node">
<title>Node1</title>
<g id="a_Node000001"><a xlink:href="struct_b_m_v2_1_1_standard_1_1_action_profile_traits_3_01_arch_1_1_v1_m_o_d_e_l2020_01_4.html" target="_top" xlink:title=" ">
<polygon fill="white" stroke="#666666" points="339.5,-82 187.75,-82 187.75,-50 339.5,-50 339.5,-82"/>
<text text-anchor="start" x="195.75" y="-68.5" font-family="Helvetica,sans-Serif" font-size="10.00">BMV2::Standard::ActionProfile</text>
<text text-anchor="middle" x="263.62" y="-56.5" font-family="Helvetica,sans-Serif" font-size="10.00">Traits&lt; Arch::V1MODEL2020 &gt;</text>
</a>
</g>
</g>
<!-- Node0&#45;&gt;Node1 -->
<g id="edge10_Node000000_Node000001" class="edge">
<title>Node0&#45;&gt;Node1</title>
<g id="a_edge10_Node000000_Node000001"><a xlink:title=" ">
<path fill="none" stroke="#63b8ff" d="M160.43,-52.36C169.43,-53.56 178.54,-54.77 187.42,-55.96"/>
<polygon fill="#63b8ff" stroke="#63b8ff" points="160.99,-48.9 150.61,-51.05 160.06,-55.84 160.99,-48.9"/>
</a>
</g>
</g>
<!-- Node3 -->
<g id="Node000003" class="node">
<title>Node3</title>
<g id="a_Node000003"><a xlink:href="struct_b_m_v2_1_1_standard_1_1_action_selector_traits_3_01_arch_1_1_v1_m_o_d_e_l_01_4.html" target="_top" xlink:title=" ">
<polygon fill="white" stroke="#666666" points="342.5,-32 184.75,-32 184.75,0 342.5,0 342.5,-32"/>
<text text-anchor="start" x="192.75" y="-18.5" font-family="Helvetica,sans-Serif" font-size="10.00">BMV2::Standard::ActionSelector</text>
<text text-anchor="middle" x="263.62" y="-6.5" font-family="Helvetica,sans-Serif" font-size="10.00">Traits&lt; Arch::V1MODEL &gt;</text>
</a>
</g>
</g>
<!-- Node0&#45;&gt;Node3 -->
<g id="edge12_Node000000_Node000003" class="edge">
<title>Node0&#45;&gt;Node3</title>
<g id="a_edge12_Node000000_Node000003"><a xlink:title=" ">
<path fill="none" stroke="#63b8ff" d="M160.33,-29.66C168.32,-28.59 176.4,-27.51 184.33,-26.45"/>
<polygon fill="#63b8ff" stroke="#63b8ff" points="160.06,-26.16 150.61,-30.95 160.99,-33.1 160.06,-26.16"/>
</a>
</g>
</g>
<!-- Node2 -->
<g id="Node000002" class="node">
<title>Node2</title>
<g id="a_Node000002"><a xlink:href="struct_b_m_v2_1_1_standard_1_1_action_selector_traits_3_01_arch_1_1_v1_m_o_d_e_l2020_01_4.html" target="_top" xlink:title=" ">
<polygon fill="white" stroke="#666666" points="536.25,-82 378.5,-82 378.5,-50 536.25,-50 536.25,-82"/>
<text text-anchor="start" x="386.5" y="-68.5" font-family="Helvetica,sans-Serif" font-size="10.00">BMV2::Standard::ActionSelector</text>
<text text-anchor="middle" x="457.38" y="-56.5" font-family="Helvetica,sans-Serif" font-size="10.00">Traits&lt; Arch::V1MODEL2020 &gt;</text>
</a>
</g>
</g>
<!-- Node1&#45;&gt;Node2 -->
<g id="edge11_Node000001_Node000002" class="edge">
<title>Node1&#45;&gt;Node2</title>
<g id="a_edge11_Node000001_Node000002"><a xlink:title=" ">
<path fill="none" stroke="#63b8ff" d="M351.18,-66C360.18,-66 369.3,-66 378.2,-66"/>
<polygon fill="#63b8ff" stroke="#63b8ff" points="351.37,-62.5 341.37,-66 351.37,-69.5 351.37,-62.5"/>
</a>
</g>
</g>
</g>
</svg>
