<?xml version="1.0" encoding="UTF-8" standalone="no"?>
<!DOCTYPE svg PUBLIC "-//W3C//DTD SVG 1.1//EN"
 "http://www.w3.org/Graphics/SVG/1.1/DTD/svg11.dtd">
<!-- Generated by graphviz version 10.0.1 (20240210.2158)
 -->
<!-- Title: Graphical Class Hierarchy Pages: 1 -->
<svg width="497pt" height="140pt"
 viewBox="0.00 0.00 497.00 140.00" xmlns="http://www.w3.org/2000/svg" xmlns:xlink="http://www.w3.org/1999/xlink">
<g id="graph0" class="graph" transform="scale(1 1) rotate(0) translate(4 136)">
<title>Graphical Class Hierarchy</title>
<!-- Node0 -->
<g id="Node000000" class="node">
<title>Node0</title>
<g id="a_Node000000"><a xlink:href="class_p4_tools_1_1_p4_testgen_1_1_table_stepper.html" target="_top" xlink:title="Implements small&#45;step operational semantics for tables.">
<polygon fill="white" stroke="#666666" points="103.75,-82 0,-82 0,-50 103.75,-50 103.75,-82"/>
<text text-anchor="start" x="8" y="-68.5" font-family="Helvetica,sans-Serif" font-size="10.00">P4Tools::P4Testgen</text>
<text text-anchor="middle" x="51.88" y="-56.5" font-family="Helvetica,sans-Serif" font-size="10.00">::TableStepper</text>
</a>
</g>
</g>
<!-- Node1 -->
<g id="Node000001" class="node">
<title>Node1</title>
<g id="a_Node000001"><a xlink:href="class_p4_tools_1_1_p4_testgen_1_1_bmv2_1_1_bmv2_v1_model_table_stepper.html" target="_top" xlink:title=" ">
<polygon fill="white" stroke="#666666" points="311,-132 139.75,-132 139.75,-100 311,-100 311,-132"/>
<text text-anchor="start" x="147.75" y="-118.5" font-family="Helvetica,sans-Serif" font-size="10.00">P4Tools::P4Testgen</text>
<text text-anchor="middle" x="225.38" y="-106.5" font-family="Helvetica,sans-Serif" font-size="10.00">::Bmv2::Bmv2V1ModelTableStepper</text>
</a>
</g>
</g>
<!-- Node0&#45;&gt;Node1 -->
<g id="edge974_Node000000_Node000001" class="edge">
<title>Node0&#45;&gt;Node1</title>
<g id="a_edge974_Node000000_Node000001"><a xlink:title=" ">
<path fill="none" stroke="#63b8ff" d="M114.5,-83.97C131.92,-89.04 150.78,-94.54 167.88,-99.53"/>
<polygon fill="#63b8ff" stroke="#63b8ff" points="115.9,-80.73 105.32,-81.29 113.94,-87.45 115.9,-80.73"/>
</a>
</g>
</g>
<!-- Node2 -->
<g id="Node000002" class="node">
<title>Node2</title>
<g id="a_Node000002"><a xlink:href="class_p4_tools_1_1_p4_testgen_1_1_e_b_p_f_1_1_e_b_p_f_table_stepper.html" target="_top" xlink:title=" ">
<polygon fill="white" stroke="#666666" points="294.12,-82 156.62,-82 156.62,-50 294.12,-50 294.12,-82"/>
<text text-anchor="start" x="164.62" y="-68.5" font-family="Helvetica,sans-Serif" font-size="10.00">P4Tools::P4Testgen</text>
<text text-anchor="middle" x="225.38" y="-56.5" font-family="Helvetica,sans-Serif" font-size="10.00">::EBPF::EBPFTableStepper</text>
</a>
</g>
</g>
<!-- Node0&#45;&gt;Node2 -->
<g id="edge975_Node000000_Node000002" class="edge">
<title>Node0&#45;&gt;Node2</title>
<g id="a_edge975_Node000000_Node000002"><a xlink:title=" ">
<path fill="none" stroke="#63b8ff" d="M115.36,-66C128.71,-66 142.88,-66 156.43,-66"/>
<polygon fill="#63b8ff" stroke="#63b8ff" points="115.38,-62.5 105.38,-66 115.38,-69.5 115.38,-62.5"/>
</a>
</g>
</g>
<!-- Node3 -->
<g id="Node000003" class="node">
<title>Node3</title>
<g id="a_Node000003"><a xlink:href="class_p4_tools_1_1_p4_testgen_1_1_pna_1_1_shared_pna_table_stepper.html" target="_top" xlink:title=" ">
<polygon fill="white" stroke="#666666" points="300.5,-32 150.25,-32 150.25,0 300.5,0 300.5,-32"/>
<text text-anchor="start" x="158.25" y="-18.5" font-family="Helvetica,sans-Serif" font-size="10.00">P4Tools::P4Testgen</text>
<text text-anchor="middle" x="225.38" y="-6.5" font-family="Helvetica,sans-Serif" font-size="10.00">::Pna::SharedPnaTableStepper</text>
</a>
</g>
</g>
<!-- Node0&#45;&gt;Node3 -->
<g id="edge976_Node000000_Node000003" class="edge">
<title>Node0&#45;&gt;Node3</title>
<g id="a_edge976_Node000000_Node000003"><a xlink:title=" ">
<path fill="none" stroke="#63b8ff" d="M114.5,-48.03C131.92,-42.96 150.78,-37.46 167.88,-32.47"/>
<polygon fill="#63b8ff" stroke="#63b8ff" points="113.94,-44.55 105.32,-50.71 115.9,-51.27 113.94,-44.55"/>
</a>
</g>
</g>
<!-- Node4 -->
<g id="Node000004" class="node">
<title>Node4</title>
<g id="a_Node000004"><a xlink:href="class_p4_tools_1_1_p4_testgen_1_1_pna_1_1_pna_dpdk_table_stepper.html" target="_top" xlink:title=" ">
<polygon fill="white" stroke="#666666" points="489,-32 347,-32 347,0 489,0 489,-32"/>
<text text-anchor="start" x="355" y="-18.5" font-family="Helvetica,sans-Serif" font-size="10.00">P4Tools::P4Testgen</text>
<text text-anchor="middle" x="418" y="-6.5" font-family="Helvetica,sans-Serif" font-size="10.00">::Pna::PnaDpdkTableStepper</text>
</a>
</g>
</g>
<!-- Node3&#45;&gt;Node4 -->
<g id="edge977_Node000003_Node000004" class="edge">
<title>Node3&#45;&gt;Node4</title>
<g id="a_edge977_Node000003_Node000004"><a xlink:title=" ">
<path fill="none" stroke="#63b8ff" d="M312.28,-16C323.76,-16 335.42,-16 346.59,-16"/>
<polygon fill="#63b8ff" stroke="#63b8ff" points="312.41,-12.5 302.41,-16 312.41,-19.5 312.41,-12.5"/>
</a>
</g>
</g>
</g>
</svg>
