<?xml version="1.0" encoding="UTF-8" standalone="no"?>
<!DOCTYPE svg PUBLIC "-//W3C//DTD SVG 1.1//EN"
 "http://www.w3.org/Graphics/SVG/1.1/DTD/svg11.dtd">
<!-- Generated by graphviz version 10.0.1 (20240210.2158)
 -->
<!-- Title: Graphical Class Hierarchy Pages: 1 -->
<svg width="334pt" height="218pt"
 viewBox="0.00 0.00 334.00 218.00" xmlns="http://www.w3.org/2000/svg" xmlns:xlink="http://www.w3.org/1999/xlink">
<g id="graph0" class="graph" transform="scale(1 1) rotate(0) translate(4 214)">
<title>Graphical Class Hierarchy</title>
<!-- Node0 -->
<g id="Node000000" class="node">
<title>Node0</title>
<g id="a_Node000000"><a xlink:href="class_p4_1_1_choose_enum_representation.html" target="_top" xlink:title=" ">
<polygon fill="white" stroke="#666666" points="157.75,-115 0,-115 0,-95 157.75,-95 157.75,-115"/>
<text text-anchor="middle" x="78.88" y="-101.5" font-family="Helvetica,sans-Serif" font-size="10.00">P4::ChooseEnumRepresentation</text>
</a>
</g>
</g>
<!-- Node1 -->
<g id="Node000001" class="node">
<title>Node1</title>
<g id="a_Node000001"><a xlink:href="class_b_m_v2_1_1_enum_on32_bits.html" target="_top" xlink:title=" ">
<polygon fill="white" stroke="#666666" points="317.38,-210 202.38,-210 202.38,-190 317.38,-190 317.38,-210"/>
<text text-anchor="middle" x="259.88" y="-196.5" font-family="Helvetica,sans-Serif" font-size="10.00">BMV2::EnumOn32Bits</text>
</a>
</g>
</g>
<!-- Node0&#45;&gt;Node1 -->
<g id="edge924_Node000000_Node000001" class="edge">
<title>Node0&#45;&gt;Node1</title>
<g id="a_edge924_Node000000_Node000001"><a xlink:title=" ">
<path fill="none" stroke="#63b8ff" d="M101.25,-122.18C123.29,-139.17 159.22,-164.9 193.75,-181 200.8,-184.28 208.54,-187.14 216.15,-189.56"/>
<polygon fill="#63b8ff" stroke="#63b8ff" points="103.65,-119.61 93.62,-116.2 99.33,-125.12 103.65,-119.61"/>
</a>
</g>
</g>
<!-- Node2 -->
<g id="Node000002" class="node">
<title>Node2</title>
<g id="a_Node000002"><a xlink:href="class_b_m_v2_1_1_psa_enum_on32_bits.html" target="_top" xlink:title=" ">
<polygon fill="white" stroke="#666666" points="326,-172 193.75,-172 193.75,-152 326,-152 326,-172"/>
<text text-anchor="middle" x="259.88" y="-158.5" font-family="Helvetica,sans-Serif" font-size="10.00">BMV2::PsaEnumOn32Bits</text>
</a>
</g>
</g>
<!-- Node0&#45;&gt;Node2 -->
<g id="edge925_Node000000_Node000002" class="edge">
<title>Node0&#45;&gt;Node2</title>
<g id="a_edge925_Node000000_Node000002"><a xlink:title=" ">
<path fill="none" stroke="#63b8ff" d="M120.99,-119.14C142.58,-126.46 169.53,-135.43 193.75,-143 202.97,-145.88 212.96,-148.87 222.29,-151.59"/>
<polygon fill="#63b8ff" stroke="#63b8ff" points="122.25,-115.87 111.66,-115.97 119.99,-122.5 122.25,-115.87"/>
</a>
</g>
</g>
<!-- Node3 -->
<g id="Node000003" class="node">
<title>Node3</title>
<g id="a_Node000003"><a xlink:href="class_d_p_d_k_1_1_enum_on32_bits.html" target="_top" xlink:title=" ">
<polygon fill="white" stroke="#666666" points="317.38,-134 202.38,-134 202.38,-114 317.38,-114 317.38,-134"/>
<text text-anchor="middle" x="259.88" y="-120.5" font-family="Helvetica,sans-Serif" font-size="10.00">DPDK::EnumOn32Bits</text>
</a>
</g>
</g>
<!-- Node0&#45;&gt;Node3 -->
<g id="edge926_Node000000_Node000003" class="edge">
<title>Node0&#45;&gt;Node3</title>
<g id="a_edge926_Node000000_Node000003"><a xlink:title=" ">
<path fill="none" stroke="#63b8ff" d="M169.26,-114.49C180.41,-115.67 191.57,-116.86 202.04,-117.97"/>
<polygon fill="#63b8ff" stroke="#63b8ff" points="169.95,-111.04 159.63,-113.47 169.21,-118 169.95,-111.04"/>
</a>
</g>
</g>
<!-- Node4 -->
<g id="Node000004" class="node">
<title>Node4</title>
<g id="a_Node000004"><a xlink:href="class_e_b_p_f_1_1_enum_on32_bits.html" target="_top" xlink:title=" ">
<polygon fill="white" stroke="#666666" points="317,-96 202.75,-96 202.75,-76 317,-76 317,-96"/>
<text text-anchor="middle" x="259.88" y="-82.5" font-family="Helvetica,sans-Serif" font-size="10.00">EBPF::EnumOn32Bits</text>
</a>
</g>
</g>
<!-- Node0&#45;&gt;Node4 -->
<g id="edge927_Node000000_Node000004" class="edge">
<title>Node0&#45;&gt;Node4</title>
<g id="a_edge927_Node000000_Node000004"><a xlink:title=" ">
<path fill="none" stroke="#63b8ff" d="M169.33,-95.51C180.55,-94.31 191.78,-93.12 202.3,-92"/>
<polygon fill="#63b8ff" stroke="#63b8ff" points="169.21,-92 159.63,-96.53 169.95,-98.96 169.21,-92"/>
</a>
</g>
</g>
<!-- Node5 -->
<g id="Node000005" class="node">
<title>Node5</title>
<g id="a_Node000005"><a xlink:href="class_p4_1_1_enum_on32_bits.html" target="_top" xlink:title=" ">
<polygon fill="white" stroke="#666666" points="309.88,-58 209.88,-58 209.88,-38 309.88,-38 309.88,-58"/>
<text text-anchor="middle" x="259.88" y="-44.5" font-family="Helvetica,sans-Serif" font-size="10.00">P4::EnumOn32Bits</text>
</a>
</g>
</g>
<!-- Node0&#45;&gt;Node5 -->
<g id="edge928_Node000000_Node000005" class="edge">
<title>Node0&#45;&gt;Node5</title>
<g id="a_edge928_Node000000_Node000005"><a xlink:title=" ">
<path fill="none" stroke="#63b8ff" d="M120.99,-90.86C142.58,-83.54 169.53,-74.57 193.75,-67 202.97,-64.12 212.96,-61.13 222.29,-58.41"/>
<polygon fill="#63b8ff" stroke="#63b8ff" points="119.99,-87.5 111.66,-94.03 122.25,-94.13 119.99,-87.5"/>
</a>
</g>
</g>
<!-- Node6 -->
<g id="Node000006" class="node">
<title>Node6</title>
<g id="a_Node000006"><a xlink:href="class_u_b_p_f_1_1_enum_on32_bits.html" target="_top" xlink:title=" ">
<polygon fill="white" stroke="#666666" points="317,-20 202.75,-20 202.75,0 317,0 317,-20"/>
<text text-anchor="middle" x="259.88" y="-6.5" font-family="Helvetica,sans-Serif" font-size="10.00">UBPF::EnumOn32Bits</text>
</a>
</g>
</g>
<!-- Node0&#45;&gt;Node6 -->
<g id="edge929_Node000000_Node000006" class="edge">
<title>Node0&#45;&gt;Node6</title>
<g id="a_edge929_Node000000_Node000006"><a xlink:title=" ">
<path fill="none" stroke="#63b8ff" d="M101.25,-87.82C123.29,-70.83 159.22,-45.1 193.75,-29 200.8,-25.72 208.54,-22.86 216.15,-20.44"/>
<polygon fill="#63b8ff" stroke="#63b8ff" points="99.33,-84.88 93.62,-93.8 103.65,-90.39 99.33,-84.88"/>
</a>
</g>
</g>
</g>
</svg>
