<?xml version="1.0" encoding="UTF-8" standalone="no"?>
<!DOCTYPE svg PUBLIC "-//W3C//DTD SVG 1.1//EN"
 "http://www.w3.org/Graphics/SVG/1.1/DTD/svg11.dtd">
<!-- Generated by graphviz version 10.0.1 (20240210.2158)
 -->
<!-- Title: P4V1::ActionSelector_Model Pages: 1 -->
<svg width="118pt" height="208pt"
 viewBox="0.00 0.00 117.75 208.00" xmlns="http://www.w3.org/2000/svg" xmlns:xlink="http://www.w3.org/1999/xlink">
<g id="graph0" class="graph" transform="scale(1 1) rotate(0) translate(4 204)">
<title>P4V1::ActionSelector_Model</title>
<!-- Node1 -->
<g id="Node000001" class="node">
<title>Node1</title>
<g id="a_Node000001"><a xlink:title=" ">
<polygon fill="#999999" stroke="#666666" points="109.75,-32 0,-32 0,0 109.75,0 109.75,-32"/>
<text text-anchor="start" x="8" y="-18.5" font-family="Helvetica,sans-Serif" font-size="10.00">P4V1::ActionSelector</text>
<text text-anchor="middle" x="54.88" y="-6.5" font-family="Helvetica,sans-Serif" font-size="10.00">_Model</text>
</a>
</g>
</g>
<!-- Node2 -->
<g id="Node000002" class="node">
<title>Node2</title>
<g id="a_Node000002"><a xlink:href="struct_model_1_1_extern___model.html" target="_top" xlink:title="Extern_Model : Type_Model.">
<polygon fill="white" stroke="#666666" points="109,-88 0.75,-88 0.75,-68 109,-68 109,-88"/>
<text text-anchor="middle" x="54.88" y="-74.5" font-family="Helvetica,sans-Serif" font-size="10.00">Model::Extern_Model</text>
</a>
</g>
</g>
<!-- Node2&#45;&gt;Node1 -->
<g id="edge1_Node000001_Node000002" class="edge">
<title>Node2&#45;&gt;Node1</title>
<g id="a_edge1_Node000001_Node000002"><a xlink:title=" ">
<path fill="none" stroke="#63b8ff" d="M54.88,-56.31C54.88,-48.37 54.88,-39.46 54.88,-32.14"/>
<polygon fill="#63b8ff" stroke="#63b8ff" points="51.38,-56.11 54.88,-66.11 58.38,-56.11 51.38,-56.11"/>
</a>
</g>
</g>
<!-- Node3 -->
<g id="Node000003" class="node">
<title>Node3</title>
<g id="a_Node000003"><a xlink:href="struct_model_1_1_type___model.html" target="_top" xlink:title=" ">
<polygon fill="white" stroke="#bfbfbf" points="105.25,-144 4.5,-144 4.5,-124 105.25,-124 105.25,-144"/>
<text text-anchor="middle" x="54.88" y="-130.5" font-family="Helvetica,sans-Serif" font-size="10.00">Model::Type_Model</text>
</a>
</g>
</g>
<!-- Node3&#45;&gt;Node2 -->
<g id="edge2_Node000002_Node000003" class="edge">
<title>Node3&#45;&gt;Node2</title>
<g id="a_edge2_Node000002_Node000003"><a xlink:title=" ">
<path fill="none" stroke="#63b8ff" d="M54.88,-112.13C54.88,-103.9 54.88,-94.85 54.88,-88.3"/>
<polygon fill="#63b8ff" stroke="#63b8ff" points="51.38,-112.08 54.88,-122.08 58.38,-112.08 51.38,-112.08"/>
</a>
</g>
</g>
<!-- Node4 -->
<g id="Node000004" class="node">
<title>Node4</title>
<g id="a_Node000004"><a xlink:href="struct_model_1_1_elem.html" target="_top" xlink:title=" ">
<polygon fill="white" stroke="#bfbfbf" points="90.25,-200 19.5,-200 19.5,-180 90.25,-180 90.25,-200"/>
<text text-anchor="middle" x="54.88" y="-186.5" font-family="Helvetica,sans-Serif" font-size="10.00">Model::Elem</text>
</a>
</g>
</g>
<!-- Node4&#45;&gt;Node3 -->
<g id="edge3_Node000003_Node000004" class="edge">
<title>Node4&#45;&gt;Node3</title>
<g id="a_edge3_Node000003_Node000004"><a xlink:title=" ">
<path fill="none" stroke="#63b8ff" d="M54.88,-168.13C54.88,-159.9 54.88,-150.85 54.88,-144.3"/>
<polygon fill="#63b8ff" stroke="#63b8ff" points="51.38,-168.08 54.88,-178.08 58.38,-168.08 51.38,-168.08"/>
</a>
</g>
</g>
</g>
</svg>
