<?xml version="1.0" encoding="UTF-8" standalone="no"?>
<!DOCTYPE svg PUBLIC "-//W3C//DTD SVG 1.1//EN"
 "http://www.w3.org/Graphics/SVG/1.1/DTD/svg11.dtd">
<!-- Generated by graphviz version 10.0.1 (20240210.2158)
 -->
<!-- Title: DPDK::DpdkHandleIPSec Pages: 1 -->
<svg width="136pt" height="196pt"
 viewBox="0.00 0.00 135.75 196.00" xmlns="http://www.w3.org/2000/svg" xmlns:xlink="http://www.w3.org/1999/xlink">
<g id="graph0" class="graph" transform="scale(1 1) rotate(0) translate(4 192)">
<title>DPDK::DpdkHandleIPSec</title>
<!-- Node1 -->
<g id="Node000001" class="node">
<title>Node1</title>
<g id="a_Node000001"><a xlink:title=" ">
<polygon fill="#999999" stroke="#666666" points="127.75,-20 0,-20 0,0 127.75,0 127.75,-20"/>
<text text-anchor="middle" x="63.88" y="-6.5" font-family="Helvetica,sans-Serif" font-size="10.00">DPDK::DpdkHandleIPSec</text>
</a>
</g>
</g>
<!-- Node2 -->
<g id="Node000002" class="node">
<title>Node2</title>
<g id="a_Node000002"><a xlink:href="class_pass_manager.html" target="_top" xlink:title=" ">
<polygon fill="white" stroke="#bfbfbf" points="101.88,-76 25.88,-76 25.88,-56 101.88,-56 101.88,-76"/>
<text text-anchor="middle" x="63.88" y="-62.5" font-family="Helvetica,sans-Serif" font-size="10.00">PassManager</text>
</a>
</g>
</g>
<!-- Node2&#45;&gt;Node1 -->
<g id="edge1_Node000001_Node000002" class="edge">
<title>Node2&#45;&gt;Node1</title>
<g id="a_edge1_Node000001_Node000002"><a xlink:title=" ">
<path fill="none" stroke="#63b8ff" d="M63.88,-44.13C63.88,-35.9 63.88,-26.85 63.88,-20.3"/>
<polygon fill="#63b8ff" stroke="#63b8ff" points="60.38,-44.08 63.88,-54.08 67.38,-44.08 60.38,-44.08"/>
</a>
</g>
</g>
<!-- Node3 -->
<g id="Node000003" class="node">
<title>Node3</title>
<g id="a_Node000003"><a xlink:href="class_visitor.html" target="_top" xlink:title=" ">
<polygon fill="white" stroke="#bfbfbf" points="85.75,-188 42,-188 42,-168 85.75,-168 85.75,-188"/>
<text text-anchor="middle" x="63.88" y="-174.5" font-family="Helvetica,sans-Serif" font-size="10.00">Visitor</text>
</a>
</g>
</g>
<!-- Node3&#45;&gt;Node2 -->
<g id="edge2_Node000002_Node000003" class="edge">
<title>Node3&#45;&gt;Node2</title>
<g id="a_edge2_Node000002_Node000003"><a xlink:title=" ">
<path fill="none" stroke="#63b8ff" d="M58.36,-156.65C56.55,-148.98 54.77,-140.15 53.88,-132 51.68,-112.03 57.23,-88.79 60.91,-76.22"/>
<polygon fill="#63b8ff" stroke="#63b8ff" points="54.97,-157.5 60.83,-166.32 61.75,-155.77 54.97,-157.5"/>
</a>
</g>
</g>
<!-- Node4 -->
<g id="Node000004" class="node">
<title>Node4</title>
<g id="a_Node000004"><a xlink:href="class_backtrack.html" target="_top" xlink:title=" ">
<polygon fill="white" stroke="#bfbfbf" points="123,-132 62.75,-132 62.75,-112 123,-112 123,-132"/>
<text text-anchor="middle" x="92.88" y="-118.5" font-family="Helvetica,sans-Serif" font-size="10.00">Backtrack</text>
</a>
</g>
</g>
<!-- Node3&#45;&gt;Node4 -->
<g id="edge4_Node000004_Node000003" class="edge">
<title>Node3&#45;&gt;Node4</title>
<g id="a_edge4_Node000004_Node000003"><a xlink:title=" ">
<path fill="none" stroke="#63b8ff" d="M74.3,-157.58C78.93,-148.97 84.15,-139.24 87.88,-132.3"/>
<polygon fill="#63b8ff" stroke="#63b8ff" points="71.29,-155.79 69.64,-166.26 77.46,-159.11 71.29,-155.79"/>
</a>
</g>
</g>
<!-- Node4&#45;&gt;Node2 -->
<g id="edge3_Node000002_Node000004" class="edge">
<title>Node4&#45;&gt;Node2</title>
<g id="a_edge3_Node000002_Node000004"><a xlink:title=" ">
<path fill="none" stroke="#63b8ff" d="M82.45,-101.58C77.82,-92.97 72.6,-83.24 68.87,-76.3"/>
<polygon fill="#63b8ff" stroke="#63b8ff" points="79.29,-103.11 87.11,-110.26 85.46,-99.79 79.29,-103.11"/>
</a>
</g>
</g>
</g>
</svg>
