<?xml version="1.0" encoding="UTF-8" standalone="no"?>
<!DOCTYPE svg PUBLIC "-//W3C//DTD SVG 1.1//EN"
 "http://www.w3.org/Graphics/SVG/1.1/DTD/svg11.dtd">
<!-- Generated by graphviz version 10.0.1 (20240210.2158)
 -->
<!-- Title: Model::Extern_Model Pages: 1 -->
<svg width="681pt" height="456pt"
 viewBox="0.00 0.00 680.50 456.00" xmlns="http://www.w3.org/2000/svg" xmlns:xlink="http://www.w3.org/1999/xlink">
<g id="graph0" class="graph" transform="scale(1 1) rotate(0) translate(4 452)">
<title>Model::Extern_Model</title>
<!-- Node1 -->
<g id="Node000001" class="node">
<title>Node1</title>
<g id="a_Node000001"><a xlink:title="Extern_Model : Type_Model.">
<polygon fill="#999999" stroke="#666666" points="351.75,-228 243.5,-228 243.5,-208 351.75,-208 351.75,-228"/>
<text text-anchor="middle" x="297.62" y="-214.5" font-family="Helvetica,sans-Serif" font-size="10.00">Model::Extern_Model</text>
</a>
</g>
</g>
<!-- Node4 -->
<g id="Node000004" class="node">
<title>Node4</title>
<g id="a_Node000004"><a xlink:href="struct_e_b_p_f_1_1_counter_array___model.html" target="_top" xlink:title=" ">
<polygon fill="white" stroke="#bfbfbf" points="500.88,-448 395.62,-448 395.62,-416 500.88,-416 500.88,-448"/>
<text text-anchor="start" x="403.62" y="-434.5" font-family="Helvetica,sans-Serif" font-size="10.00">EBPF::CounterArray</text>
<text text-anchor="middle" x="448.25" y="-422.5" font-family="Helvetica,sans-Serif" font-size="10.00">_Model</text>
</a>
</g>
</g>
<!-- Node1&#45;&gt;Node4 -->
<g id="edge3_Node000001_Node000004" class="edge">
<title>Node1&#45;&gt;Node4</title>
<g id="a_edge3_Node000001_Node000004"><a xlink:title=" ">
<path fill="none" stroke="#63b8ff" d="M303.22,-238.92C312.65,-277.2 337.64,-358.99 387.75,-407 391.15,-410.26 395.03,-413.12 399.15,-415.62"/>
<polygon fill="#63b8ff" stroke="#63b8ff" points="306.73,-238.53 301.04,-229.59 299.91,-240.12 306.73,-238.53"/>
</a>
</g>
</g>
<!-- Node5 -->
<g id="Node000005" class="node">
<title>Node5</title>
<g id="a_Node000005"><a xlink:href="struct_e_b_p_f_1_1_table_impl___model.html" target="_top" xlink:title=" ">
<polygon fill="white" stroke="#bfbfbf" points="508.75,-398 387.75,-398 387.75,-378 508.75,-378 508.75,-398"/>
<text text-anchor="middle" x="448.25" y="-384.5" font-family="Helvetica,sans-Serif" font-size="10.00">EBPF::TableImpl_Model</text>
</a>
</g>
</g>
<!-- Node1&#45;&gt;Node5 -->
<g id="edge4_Node000001_Node000005" class="edge">
<title>Node1&#45;&gt;Node5</title>
<g id="a_edge4_Node000001_Node000005"><a xlink:title=" ">
<path fill="none" stroke="#63b8ff" d="M305.35,-238.64C316.97,-271.1 343.88,-334 387.75,-369 392.07,-372.45 397.04,-375.28 402.21,-377.6"/>
<polygon fill="#63b8ff" stroke="#63b8ff" points="308.8,-237.91 302.25,-229.59 302.18,-240.19 308.8,-237.91"/>
</a>
</g>
</g>
<!-- Node6 -->
<g id="Node000006" class="node">
<title>Node6</title>
<g id="a_Node000006"><a xlink:href="class_p4_1_1_packet_in.html" target="_top" xlink:title=" ">
<polygon fill="white" stroke="#bfbfbf" points="484.38,-360 412.12,-360 412.12,-340 484.38,-340 484.38,-360"/>
<text text-anchor="middle" x="448.25" y="-346.5" font-family="Helvetica,sans-Serif" font-size="10.00">P4::PacketIn</text>
</a>
</g>
</g>
<!-- Node1&#45;&gt;Node6 -->
<g id="edge5_Node000001_Node000006" class="edge">
<title>Node1&#45;&gt;Node6</title>
<g id="a_edge5_Node000001_Node000006"><a xlink:title=" ">
<path fill="none" stroke="#63b8ff" d="M309.58,-238.4C324.18,-263.69 352.33,-306.45 387.75,-331 394.88,-335.94 403.36,-339.65 411.66,-342.41"/>
<polygon fill="#63b8ff" stroke="#63b8ff" points="312.69,-236.78 304.75,-229.75 306.58,-240.19 312.69,-236.78"/>
</a>
</g>
</g>
<!-- Node7 -->
<g id="Node000007" class="node">
<title>Node7</title>
<g id="a_Node000007"><a xlink:href="class_p4_1_1_packet_out.html" target="_top" xlink:title=" ">
<polygon fill="white" stroke="#bfbfbf" points="488.5,-322 408,-322 408,-302 488.5,-302 488.5,-322"/>
<text text-anchor="middle" x="448.25" y="-308.5" font-family="Helvetica,sans-Serif" font-size="10.00">P4::PacketOut</text>
</a>
</g>
</g>
<!-- Node1&#45;&gt;Node7 -->
<g id="edge6_Node000001_Node000007" class="edge">
<title>Node1&#45;&gt;Node7</title>
<g id="a_edge6_Node000001_Node000007"><a xlink:title=" ">
<path fill="none" stroke="#63b8ff" d="M316.21,-236.47C333.13,-253.29 360.16,-277.77 387.75,-293 393.92,-296.41 400.79,-299.31 407.61,-301.74"/>
<polygon fill="#63b8ff" stroke="#63b8ff" points="318.9,-234.21 309.39,-229.53 313.91,-239.12 318.9,-234.21"/>
</a>
</g>
</g>
<!-- Node8 -->
<g id="Node000008" class="node">
<title>Node8</title>
<g id="a_Node000008"><a xlink:href="struct_p4_v1_1_1_action_profile___model.html" target="_top" xlink:title=" ">
<polygon fill="white" stroke="#bfbfbf" points="498.62,-284 397.88,-284 397.88,-252 498.62,-252 498.62,-284"/>
<text text-anchor="start" x="405.88" y="-270.5" font-family="Helvetica,sans-Serif" font-size="10.00">P4V1::ActionProfile</text>
<text text-anchor="middle" x="448.25" y="-258.5" font-family="Helvetica,sans-Serif" font-size="10.00">_Model</text>
</a>
</g>
</g>
<!-- Node1&#45;&gt;Node8 -->
<g id="edge7_Node000001_Node000008" class="edge">
<title>Node1&#45;&gt;Node8</title>
<g id="a_edge7_Node000001_Node000008"><a xlink:title=" ">
<path fill="none" stroke="#63b8ff" d="M340.51,-232.09C358.49,-238.14 379.6,-245.24 398.29,-251.53"/>
<polygon fill="#63b8ff" stroke="#63b8ff" points="341.81,-228.84 331.22,-228.96 339.58,-235.47 341.81,-228.84"/>
</a>
</g>
</g>
<!-- Node9 -->
<g id="Node000009" class="node">
<title>Node9</title>
<g id="a_Node000009"><a xlink:href="struct_p4_v1_1_1_action_selector___model.html" target="_top" xlink:title=" ">
<polygon fill="white" stroke="#bfbfbf" points="503.12,-234 393.38,-234 393.38,-202 503.12,-202 503.12,-234"/>
<text text-anchor="start" x="401.38" y="-220.5" font-family="Helvetica,sans-Serif" font-size="10.00">P4V1::ActionSelector</text>
<text text-anchor="middle" x="448.25" y="-208.5" font-family="Helvetica,sans-Serif" font-size="10.00">_Model</text>
</a>
</g>
</g>
<!-- Node1&#45;&gt;Node9 -->
<g id="edge8_Node000001_Node000009" class="edge">
<title>Node1&#45;&gt;Node9</title>
<g id="a_edge8_Node000001_Node000009"><a xlink:title=" ">
<path fill="none" stroke="#63b8ff" d="M363.3,-218C373.17,-218 383.27,-218 392.88,-218"/>
<polygon fill="#63b8ff" stroke="#63b8ff" points="363.38,-214.5 353.38,-218 363.38,-221.5 363.38,-214.5"/>
</a>
</g>
</g>
<!-- Node10 -->
<g id="Node000010" class="node">
<title>Node10</title>
<g id="a_Node000010"><a xlink:href="struct_p4_v1_1_1_cloner___model.html" target="_top" xlink:title=" ">
<polygon fill="white" stroke="#bfbfbf" points="500.88,-184 395.62,-184 395.62,-164 500.88,-164 500.88,-184"/>
<text text-anchor="middle" x="448.25" y="-170.5" font-family="Helvetica,sans-Serif" font-size="10.00">P4V1::Cloner_Model</text>
</a>
</g>
</g>
<!-- Node1&#45;&gt;Node10 -->
<g id="edge9_Node000001_Node000010" class="edge">
<title>Node1&#45;&gt;Node10</title>
<g id="a_edge9_Node000001_Node000010"><a xlink:title=" ">
<path fill="none" stroke="#63b8ff" d="M344.8,-204.33C366.48,-197.91 391.92,-190.38 412.02,-184.43"/>
<polygon fill="#63b8ff" stroke="#63b8ff" points="343.89,-200.95 335.3,-207.14 345.88,-207.66 343.89,-200.95"/>
</a>
</g>
</g>
<!-- Node11 -->
<g id="Node000011" class="node">
<title>Node11</title>
<g id="a_Node000011"><a xlink:href="struct_p4_v1_1_1_counter_or_meter___model.html" target="_top" xlink:title=" ">
<polygon fill="white" stroke="#bfbfbf" points="505.75,-146 390.75,-146 390.75,-114 505.75,-114 505.75,-146"/>
<text text-anchor="start" x="398.75" y="-132.5" font-family="Helvetica,sans-Serif" font-size="10.00">P4V1::CounterOrMeter</text>
<text text-anchor="middle" x="448.25" y="-120.5" font-family="Helvetica,sans-Serif" font-size="10.00">_Model</text>
</a>
</g>
</g>
<!-- Node1&#45;&gt;Node11 -->
<g id="edge10_Node000001_Node000011" class="edge">
<title>Node1&#45;&gt;Node11</title>
<g id="a_edge10_Node000001_Node000011"><a xlink:title=" ">
<path fill="none" stroke="#63b8ff" d="M320.16,-200.76C337.69,-187.23 363.42,-168.5 387.75,-155 393.24,-151.96 399.17,-149.05 405.09,-146.36"/>
<polygon fill="#63b8ff" stroke="#63b8ff" points="318.24,-197.82 312.52,-206.74 322.55,-203.33 318.24,-197.82"/>
</a>
</g>
</g>
<!-- Node16 -->
<g id="Node000016" class="node">
<title>Node16</title>
<g id="a_Node000016"><a xlink:href="struct_p4_v1_1_1_register___model.html" target="_top" xlink:title=" ">
<polygon fill="white" stroke="#bfbfbf" points="505,-96 391.5,-96 391.5,-76 505,-76 505,-96"/>
<text text-anchor="middle" x="448.25" y="-82.5" font-family="Helvetica,sans-Serif" font-size="10.00">P4V1::Register_Model</text>
</a>
</g>
</g>
<!-- Node1&#45;&gt;Node16 -->
<g id="edge15_Node000001_Node000016" class="edge">
<title>Node1&#45;&gt;Node16</title>
<g id="a_edge15_Node000001_Node000016"><a xlink:title=" ">
<path fill="none" stroke="#63b8ff" d="M309.58,-197.6C324.18,-172.31 352.33,-129.55 387.75,-105 392.65,-101.6 398.19,-98.79 403.87,-96.46"/>
<polygon fill="#63b8ff" stroke="#63b8ff" points="306.58,-195.81 304.75,-206.25 312.69,-199.22 306.58,-195.81"/>
</a>
</g>
</g>
<!-- Node17 -->
<g id="Node000017" class="node">
<title>Node17</title>
<g id="a_Node000017"><a xlink:href="class_p4_v1_1_1_truncate.html" target="_top" xlink:title=" ">
<polygon fill="white" stroke="#bfbfbf" points="490,-58 406.5,-58 406.5,-38 490,-38 490,-58"/>
<text text-anchor="middle" x="448.25" y="-44.5" font-family="Helvetica,sans-Serif" font-size="10.00">P4V1::Truncate</text>
</a>
</g>
</g>
<!-- Node1&#45;&gt;Node17 -->
<g id="edge16_Node000001_Node000017" class="edge">
<title>Node1&#45;&gt;Node17</title>
<g id="a_edge16_Node000001_Node000017"><a xlink:title=" ">
<path fill="none" stroke="#63b8ff" d="M305.35,-197.36C316.97,-164.9 343.88,-102 387.75,-67 393.18,-62.67 399.61,-59.32 406.2,-56.73"/>
<polygon fill="#63b8ff" stroke="#63b8ff" points="302.18,-195.81 302.25,-206.41 308.8,-198.09 302.18,-195.81"/>
</a>
</g>
</g>
<!-- Node18 -->
<g id="Node000018" class="node">
<title>Node18</title>
<g id="a_Node000018"><a xlink:href="struct_u_b_p_f_1_1_register___model.html" target="_top" xlink:title=" ">
<polygon fill="white" stroke="#bfbfbf" points="506.12,-20 390.38,-20 390.38,0 506.12,0 506.12,-20"/>
<text text-anchor="middle" x="448.25" y="-6.5" font-family="Helvetica,sans-Serif" font-size="10.00">UBPF::Register_Model</text>
</a>
</g>
</g>
<!-- Node1&#45;&gt;Node18 -->
<g id="edge17_Node000001_Node000018" class="edge">
<title>Node1&#45;&gt;Node18</title>
<g id="a_edge17_Node000001_Node000018"><a xlink:title=" ">
<path fill="none" stroke="#63b8ff" d="M302.83,-196.65C311.6,-157.66 335.56,-74.74 387.75,-29 391.66,-25.57 396.2,-22.76 400.99,-20.45"/>
<polygon fill="#63b8ff" stroke="#63b8ff" points="299.45,-195.67 300.81,-206.18 306.3,-197.12 299.45,-195.67"/>
</a>
</g>
</g>
<!-- Node2 -->
<g id="Node000002" class="node">
<title>Node2</title>
<g id="a_Node000002"><a xlink:href="struct_model_1_1_type___model.html" target="_top" xlink:title=" ">
<polygon fill="white" stroke="#bfbfbf" points="207.5,-228 106.75,-228 106.75,-208 207.5,-208 207.5,-228"/>
<text text-anchor="middle" x="157.12" y="-214.5" font-family="Helvetica,sans-Serif" font-size="10.00">Model::Type_Model</text>
</a>
</g>
</g>
<!-- Node2&#45;&gt;Node1 -->
<g id="edge1_Node000001_Node000002" class="edge">
<title>Node2&#45;&gt;Node1</title>
<g id="a_edge1_Node000001_Node000002"><a xlink:title=" ">
<path fill="none" stroke="#63b8ff" d="M219.25,-218C227.21,-218 235.32,-218 243.14,-218"/>
<polygon fill="#63b8ff" stroke="#63b8ff" points="219.25,-214.5 209.25,-218 219.25,-221.5 219.25,-214.5"/>
</a>
</g>
</g>
<!-- Node3 -->
<g id="Node000003" class="node">
<title>Node3</title>
<g id="a_Node000003"><a xlink:href="struct_model_1_1_elem.html" target="_top" xlink:title=" ">
<polygon fill="white" stroke="#bfbfbf" points="70.75,-228 0,-228 0,-208 70.75,-208 70.75,-228"/>
<text text-anchor="middle" x="35.38" y="-214.5" font-family="Helvetica,sans-Serif" font-size="10.00">Model::Elem</text>
</a>
</g>
</g>
<!-- Node3&#45;&gt;Node2 -->
<g id="edge2_Node000002_Node000003" class="edge">
<title>Node3&#45;&gt;Node2</title>
<g id="a_edge2_Node000002_Node000003"><a xlink:title=" ">
<path fill="none" stroke="#63b8ff" d="M82.28,-218C90.18,-218 98.43,-218 106.42,-218"/>
<polygon fill="#63b8ff" stroke="#63b8ff" points="82.53,-214.5 72.53,-218 82.53,-221.5 82.53,-214.5"/>
</a>
</g>
</g>
<!-- Node12 -->
<g id="Node000012" class="node">
<title>Node12</title>
<g id="a_Node000012"><a xlink:href="struct_p4_v1_1_1_counter___model.html" target="_top" xlink:title=" ">
<polygon fill="white" stroke="#bfbfbf" points="664.25,-206 553,-206 553,-186 664.25,-186 664.25,-206"/>
<text text-anchor="middle" x="608.62" y="-192.5" font-family="Helvetica,sans-Serif" font-size="10.00">P4V1::Counter_Model</text>
</a>
</g>
</g>
<!-- Node11&#45;&gt;Node12 -->
<g id="edge11_Node000011_Node000012" class="edge">
<title>Node11&#45;&gt;Node12</title>
<g id="a_edge11_Node000011_Node000012"><a xlink:title=" ">
<path fill="none" stroke="#63b8ff" d="M500.95,-151.16C503.61,-152.42 506.22,-153.7 508.75,-155 525.44,-163.54 527.64,-169.34 544.75,-177 551.93,-180.22 559.81,-183.08 567.49,-185.54"/>
<polygon fill="#63b8ff" stroke="#63b8ff" points="502.52,-148.02 491.97,-147.05 499.6,-154.39 502.52,-148.02"/>
</a>
</g>
</g>
<!-- Node13 -->
<g id="Node000013" class="node">
<title>Node13</title>
<g id="a_Node000013"><a xlink:href="struct_p4_v1_1_1_direct_counter___model.html" target="_top" xlink:title=" ">
<polygon fill="white" stroke="#bfbfbf" points="661.25,-168 556,-168 556,-136 661.25,-136 661.25,-168"/>
<text text-anchor="start" x="564" y="-154.5" font-family="Helvetica,sans-Serif" font-size="10.00">P4V1::DirectCounter</text>
<text text-anchor="middle" x="608.62" y="-142.5" font-family="Helvetica,sans-Serif" font-size="10.00">_Model</text>
</a>
</g>
</g>
<!-- Node11&#45;&gt;Node13 -->
<g id="edge12_Node000011_Node000013" class="edge">
<title>Node11&#45;&gt;Node13</title>
<g id="a_edge12_Node000011_Node000013"><a xlink:title=" ">
<path fill="none" stroke="#63b8ff" d="M517.13,-139.43C529.98,-141.21 543.24,-143.06 555.51,-144.76"/>
<polygon fill="#63b8ff" stroke="#63b8ff" points="517.87,-136 507.48,-138.09 516.9,-142.93 517.87,-136"/>
</a>
</g>
</g>
<!-- Node14 -->
<g id="Node000014" class="node">
<title>Node14</title>
<g id="a_Node000014"><a xlink:href="struct_p4_v1_1_1_direct_meter___model.html" target="_top" xlink:title=" ">
<polygon fill="white" stroke="#bfbfbf" points="672.5,-118 544.75,-118 544.75,-98 672.5,-98 672.5,-118"/>
<text text-anchor="middle" x="608.62" y="-104.5" font-family="Helvetica,sans-Serif" font-size="10.00">P4V1::DirectMeter_Model</text>
</a>
</g>
</g>
<!-- Node11&#45;&gt;Node14 -->
<g id="edge13_Node000011_Node000014" class="edge">
<title>Node11&#45;&gt;Node14</title>
<g id="a_edge13_Node000011_Node000014"><a xlink:title=" ">
<path fill="none" stroke="#63b8ff" d="M517.22,-120.56C526.21,-119.31 535.4,-118.03 544.3,-116.8"/>
<polygon fill="#63b8ff" stroke="#63b8ff" points="516.9,-117.07 507.48,-121.91 517.87,-124 516.9,-117.07"/>
</a>
</g>
</g>
<!-- Node15 -->
<g id="Node000015" class="node">
<title>Node15</title>
<g id="a_Node000015"><a xlink:href="struct_p4_v1_1_1_meter___model.html" target="_top" xlink:title=" ">
<polygon fill="white" stroke="#bfbfbf" points="659.75,-80 557.5,-80 557.5,-60 659.75,-60 659.75,-80"/>
<text text-anchor="middle" x="608.62" y="-66.5" font-family="Helvetica,sans-Serif" font-size="10.00">P4V1::Meter_Model</text>
</a>
</g>
</g>
<!-- Node11&#45;&gt;Node15 -->
<g id="edge14_Node000011_Node000015" class="edge">
<title>Node11&#45;&gt;Node15</title>
<g id="a_edge14_Node000011_Node000015"><a xlink:title=" ">
<path fill="none" stroke="#63b8ff" d="M499.11,-109.14C502.38,-107.75 505.61,-106.36 508.75,-105 524.82,-98.05 528.34,-95.1 544.75,-89 552.87,-85.98 561.72,-83.08 570.13,-80.49"/>
<polygon fill="#63b8ff" stroke="#63b8ff" points="497.9,-105.85 490.06,-112.98 500.63,-112.3 497.9,-105.85"/>
</a>
</g>
</g>
</g>
</svg>
