<?xml version="1.0" encoding="UTF-8" standalone="no"?>
<!DOCTYPE svg PUBLIC "-//W3C//DTD SVG 1.1//EN"
 "http://www.w3.org/Graphics/SVG/1.1/DTD/svg11.dtd">
<!-- Generated by graphviz version 10.0.1 (20240210.2158)
 -->
<!-- Title: P4V1::CounterOrMeter_Model Pages: 1 -->
<svg width="675pt" height="154pt"
 viewBox="0.00 0.00 674.50 154.00" xmlns="http://www.w3.org/2000/svg" xmlns:xlink="http://www.w3.org/1999/xlink">
<g id="graph0" class="graph" transform="scale(1 1) rotate(0) translate(4 150)">
<title>P4V1::CounterOrMeter_Model</title>
<!-- Node1 -->
<g id="Node000001" class="node">
<title>Node1</title>
<g id="a_Node000001"><a xlink:title=" ">
<polygon fill="#999999" stroke="#666666" points="502.75,-86 387.75,-86 387.75,-54 502.75,-54 502.75,-86"/>
<text text-anchor="start" x="395.75" y="-72.5" font-family="Helvetica,sans-Serif" font-size="10.00">P4V1::CounterOrMeter</text>
<text text-anchor="middle" x="445.25" y="-60.5" font-family="Helvetica,sans-Serif" font-size="10.00">_Model</text>
</a>
</g>
</g>
<!-- Node5 -->
<g id="Node000005" class="node">
<title>Node5</title>
<g id="a_Node000005"><a xlink:href="struct_p4_v1_1_1_counter___model.html" target="_top" xlink:title=" ">
<polygon fill="white" stroke="#bfbfbf" points="658.25,-146 547,-146 547,-126 658.25,-126 658.25,-146"/>
<text text-anchor="middle" x="602.62" y="-132.5" font-family="Helvetica,sans-Serif" font-size="10.00">P4V1::Counter_Model</text>
</a>
</g>
</g>
<!-- Node1&#45;&gt;Node5 -->
<g id="edge4_Node000001_Node000005" class="edge">
<title>Node1&#45;&gt;Node5</title>
<g id="a_edge4_Node000001_Node000005"><a xlink:title=" ">
<path fill="none" stroke="#63b8ff" d="M484.93,-91.58C501.24,-100.17 520.62,-109.72 538.75,-117 546.48,-120.1 554.91,-122.98 563.01,-125.51"/>
<polygon fill="#63b8ff" stroke="#63b8ff" points="487.02,-88.73 476.55,-87.1 483.72,-94.9 487.02,-88.73"/>
</a>
</g>
</g>
<!-- Node6 -->
<g id="Node000006" class="node">
<title>Node6</title>
<g id="a_Node000006"><a xlink:href="struct_p4_v1_1_1_direct_counter___model.html" target="_top" xlink:title=" ">
<polygon fill="white" stroke="#bfbfbf" points="655.25,-108 550,-108 550,-76 655.25,-76 655.25,-108"/>
<text text-anchor="start" x="558" y="-94.5" font-family="Helvetica,sans-Serif" font-size="10.00">P4V1::DirectCounter</text>
<text text-anchor="middle" x="602.62" y="-82.5" font-family="Helvetica,sans-Serif" font-size="10.00">_Model</text>
</a>
</g>
</g>
<!-- Node1&#45;&gt;Node6 -->
<g id="edge5_Node000001_Node000006" class="edge">
<title>Node1&#45;&gt;Node6</title>
<g id="a_edge5_Node000001_Node000006"><a xlink:title=" ">
<path fill="none" stroke="#63b8ff" d="M514.4,-79.65C526.19,-81.32 538.28,-83.03 549.55,-84.63"/>
<polygon fill="#63b8ff" stroke="#63b8ff" points="515.11,-76.22 504.72,-78.28 514.13,-83.15 515.11,-76.22"/>
</a>
</g>
</g>
<!-- Node7 -->
<g id="Node000007" class="node">
<title>Node7</title>
<g id="a_Node000007"><a xlink:href="struct_p4_v1_1_1_direct_meter___model.html" target="_top" xlink:title=" ">
<polygon fill="white" stroke="#bfbfbf" points="666.5,-58 538.75,-58 538.75,-38 666.5,-38 666.5,-58"/>
<text text-anchor="middle" x="602.62" y="-44.5" font-family="Helvetica,sans-Serif" font-size="10.00">P4V1::DirectMeter_Model</text>
</a>
</g>
</g>
<!-- Node1&#45;&gt;Node7 -->
<g id="edge6_Node000001_Node000007" class="edge">
<title>Node1&#45;&gt;Node7</title>
<g id="a_edge6_Node000001_Node000007"><a xlink:title=" ">
<path fill="none" stroke="#63b8ff" d="M514.37,-60.35C522.35,-59.23 530.46,-58.08 538.37,-56.96"/>
<polygon fill="#63b8ff" stroke="#63b8ff" points="514.13,-56.85 504.72,-61.72 515.11,-63.78 514.13,-56.85"/>
</a>
</g>
</g>
<!-- Node8 -->
<g id="Node000008" class="node">
<title>Node8</title>
<g id="a_Node000008"><a xlink:href="struct_p4_v1_1_1_meter___model.html" target="_top" xlink:title=" ">
<polygon fill="white" stroke="#bfbfbf" points="653.75,-20 551.5,-20 551.5,0 653.75,0 653.75,-20"/>
<text text-anchor="middle" x="602.62" y="-6.5" font-family="Helvetica,sans-Serif" font-size="10.00">P4V1::Meter_Model</text>
</a>
</g>
</g>
<!-- Node1&#45;&gt;Node8 -->
<g id="edge7_Node000001_Node000008" class="edge">
<title>Node1&#45;&gt;Node8</title>
<g id="a_edge7_Node000001_Node000008"><a xlink:title=" ">
<path fill="none" stroke="#63b8ff" d="M490.63,-48.99C505.74,-42.2 522.83,-34.91 538.75,-29 546.88,-25.98 555.72,-23.09 564.13,-20.5"/>
<polygon fill="#63b8ff" stroke="#63b8ff" points="489.56,-45.63 481.91,-52.96 492.46,-52.01 489.56,-45.63"/>
</a>
</g>
</g>
<!-- Node2 -->
<g id="Node000002" class="node">
<title>Node2</title>
<g id="a_Node000002"><a xlink:href="struct_model_1_1_extern___model.html" target="_top" xlink:title="Extern_Model : Type_Model.">
<polygon fill="white" stroke="#666666" points="351.75,-80 243.5,-80 243.5,-60 351.75,-60 351.75,-80"/>
<text text-anchor="middle" x="297.62" y="-66.5" font-family="Helvetica,sans-Serif" font-size="10.00">Model::Extern_Model</text>
</a>
</g>
</g>
<!-- Node2&#45;&gt;Node1 -->
<g id="edge1_Node000001_Node000002" class="edge">
<title>Node2&#45;&gt;Node1</title>
<g id="a_edge1_Node000001_Node000002"><a xlink:title=" ">
<path fill="none" stroke="#63b8ff" d="M363.27,-70C371.32,-70 379.51,-70 387.43,-70"/>
<polygon fill="#63b8ff" stroke="#63b8ff" points="363.54,-66.5 353.54,-70 363.54,-73.5 363.54,-66.5"/>
</a>
</g>
</g>
<!-- Node3 -->
<g id="Node000003" class="node">
<title>Node3</title>
<g id="a_Node000003"><a xlink:href="struct_model_1_1_type___model.html" target="_top" xlink:title=" ">
<polygon fill="white" stroke="#bfbfbf" points="207.5,-80 106.75,-80 106.75,-60 207.5,-60 207.5,-80"/>
<text text-anchor="middle" x="157.12" y="-66.5" font-family="Helvetica,sans-Serif" font-size="10.00">Model::Type_Model</text>
</a>
</g>
</g>
<!-- Node3&#45;&gt;Node2 -->
<g id="edge2_Node000002_Node000003" class="edge">
<title>Node3&#45;&gt;Node2</title>
<g id="a_edge2_Node000002_Node000003"><a xlink:title=" ">
<path fill="none" stroke="#63b8ff" d="M219.25,-70C227.21,-70 235.32,-70 243.14,-70"/>
<polygon fill="#63b8ff" stroke="#63b8ff" points="219.25,-66.5 209.25,-70 219.25,-73.5 219.25,-66.5"/>
</a>
</g>
</g>
<!-- Node4 -->
<g id="Node000004" class="node">
<title>Node4</title>
<g id="a_Node000004"><a xlink:href="struct_model_1_1_elem.html" target="_top" xlink:title=" ">
<polygon fill="white" stroke="#bfbfbf" points="70.75,-80 0,-80 0,-60 70.75,-60 70.75,-80"/>
<text text-anchor="middle" x="35.38" y="-66.5" font-family="Helvetica,sans-Serif" font-size="10.00">Model::Elem</text>
</a>
</g>
</g>
<!-- Node4&#45;&gt;Node3 -->
<g id="edge3_Node000003_Node000004" class="edge">
<title>Node4&#45;&gt;Node3</title>
<g id="a_edge3_Node000003_Node000004"><a xlink:title=" ">
<path fill="none" stroke="#63b8ff" d="M82.28,-70C90.18,-70 98.43,-70 106.42,-70"/>
<polygon fill="#63b8ff" stroke="#63b8ff" points="82.53,-66.5 72.53,-70 82.53,-73.5 82.53,-66.5"/>
</a>
</g>
</g>
</g>
</svg>
