<?xml version="1.0" encoding="UTF-8" standalone="no"?>
<!DOCTYPE svg PUBLIC "-//W3C//DTD SVG 1.1//EN"
 "http://www.w3.org/Graphics/SVG/1.1/DTD/svg11.dtd">
<!-- Generated by graphviz version 10.0.1 (20240210.2158)
 -->
<!-- Title: DPDK::DpdkAddPseudoHeader Pages: 1 -->
<svg width="161pt" height="196pt"
 viewBox="0.00 0.00 160.50 196.00" xmlns="http://www.w3.org/2000/svg" xmlns:xlink="http://www.w3.org/1999/xlink">
<g id="graph0" class="graph" transform="scale(1 1) rotate(0) translate(4 192)">
<title>DPDK::DpdkAddPseudoHeader</title>
<!-- Node1 -->
<g id="Node000001" class="node">
<title>Node1</title>
<g id="a_Node000001"><a xlink:title=" ">
<polygon fill="#999999" stroke="#666666" points="152.5,-20 0,-20 0,0 152.5,0 152.5,-20"/>
<text text-anchor="middle" x="76.25" y="-6.5" font-family="Helvetica,sans-Serif" font-size="10.00">DPDK::DpdkAddPseudoHeader</text>
</a>
</g>
</g>
<!-- Node2 -->
<g id="Node000002" class="node">
<title>Node2</title>
<g id="a_Node000002"><a xlink:href="class_pass_manager.html" target="_top" xlink:title=" ">
<polygon fill="white" stroke="#bfbfbf" points="114.25,-76 38.25,-76 38.25,-56 114.25,-56 114.25,-76"/>
<text text-anchor="middle" x="76.25" y="-62.5" font-family="Helvetica,sans-Serif" font-size="10.00">PassManager</text>
</a>
</g>
</g>
<!-- Node2&#45;&gt;Node1 -->
<g id="edge1_Node000001_Node000002" class="edge">
<title>Node2&#45;&gt;Node1</title>
<g id="a_edge1_Node000001_Node000002"><a xlink:title=" ">
<path fill="none" stroke="#63b8ff" d="M76.25,-44.13C76.25,-35.9 76.25,-26.85 76.25,-20.3"/>
<polygon fill="#63b8ff" stroke="#63b8ff" points="72.75,-44.08 76.25,-54.08 79.75,-44.08 72.75,-44.08"/>
</a>
</g>
</g>
<!-- Node3 -->
<g id="Node000003" class="node">
<title>Node3</title>
<g id="a_Node000003"><a xlink:href="class_visitor.html" target="_top" xlink:title=" ">
<polygon fill="white" stroke="#bfbfbf" points="98.12,-188 54.38,-188 54.38,-168 98.12,-168 98.12,-188"/>
<text text-anchor="middle" x="76.25" y="-174.5" font-family="Helvetica,sans-Serif" font-size="10.00">Visitor</text>
</a>
</g>
</g>
<!-- Node3&#45;&gt;Node2 -->
<g id="edge2_Node000002_Node000003" class="edge">
<title>Node3&#45;&gt;Node2</title>
<g id="a_edge2_Node000002_Node000003"><a xlink:title=" ">
<path fill="none" stroke="#63b8ff" d="M70.74,-156.65C68.92,-148.98 67.14,-140.15 66.25,-132 64.06,-112.03 69.61,-88.79 73.29,-76.22"/>
<polygon fill="#63b8ff" stroke="#63b8ff" points="67.34,-157.5 73.21,-166.32 74.13,-155.77 67.34,-157.5"/>
</a>
</g>
</g>
<!-- Node4 -->
<g id="Node000004" class="node">
<title>Node4</title>
<g id="a_Node000004"><a xlink:href="class_backtrack.html" target="_top" xlink:title=" ">
<polygon fill="white" stroke="#bfbfbf" points="135.38,-132 75.12,-132 75.12,-112 135.38,-112 135.38,-132"/>
<text text-anchor="middle" x="105.25" y="-118.5" font-family="Helvetica,sans-Serif" font-size="10.00">Backtrack</text>
</a>
</g>
</g>
<!-- Node3&#45;&gt;Node4 -->
<g id="edge4_Node000004_Node000003" class="edge">
<title>Node3&#45;&gt;Node4</title>
<g id="a_edge4_Node000004_Node000003"><a xlink:title=" ">
<path fill="none" stroke="#63b8ff" d="M86.68,-157.58C91.3,-148.97 96.53,-139.24 100.26,-132.3"/>
<polygon fill="#63b8ff" stroke="#63b8ff" points="83.67,-155.79 82.02,-166.26 89.83,-159.11 83.67,-155.79"/>
</a>
</g>
</g>
<!-- Node4&#45;&gt;Node2 -->
<g id="edge3_Node000002_Node000004" class="edge">
<title>Node4&#45;&gt;Node2</title>
<g id="a_edge3_Node000002_Node000004"><a xlink:title=" ">
<path fill="none" stroke="#63b8ff" d="M94.82,-101.58C90.2,-92.97 84.97,-83.24 81.24,-76.3"/>
<polygon fill="#63b8ff" stroke="#63b8ff" points="91.67,-103.11 99.48,-110.26 97.83,-99.79 91.67,-103.11"/>
</a>
</g>
</g>
</g>
</svg>
